G04 Layer_Color=2752767*
%FSLAX42Y42*%
%MOMM*%
G71*
G01*
G75*
%ADD13C,0.25*%
%ADD63C,0.41*%
%ADD68C,0.05*%
%ADD69C,0.07*%
%ADD70C,0.20*%
D13*
X9151Y-257D02*
Y-410D01*
Y-257D02*
X9201D01*
X9223Y-265D01*
X9238Y-279D01*
X9245Y-294D01*
X9252Y-315D01*
Y-352D01*
X9245Y-373D01*
X9238Y-388D01*
X9223Y-402D01*
X9201Y-410D01*
X9151D01*
X9286Y-308D02*
Y-410D01*
Y-352D02*
X9294Y-330D01*
X9308Y-315D01*
X9323Y-308D01*
X9344D01*
X9373Y-257D02*
X9380Y-265D01*
X9387Y-257D01*
X9380Y-250D01*
X9373Y-257D01*
X9380Y-308D02*
Y-410D01*
X9414Y-257D02*
Y-410D01*
X9446Y-257D02*
Y-410D01*
X9598Y-257D02*
Y-410D01*
Y-257D02*
X9648D01*
X9670Y-265D01*
X9685Y-279D01*
X9692Y-294D01*
X9699Y-315D01*
Y-352D01*
X9692Y-373D01*
X9685Y-388D01*
X9670Y-402D01*
X9648Y-410D01*
X9598D01*
X9733Y-308D02*
Y-410D01*
Y-352D02*
X9741Y-330D01*
X9755Y-315D01*
X9770Y-308D01*
X9791D01*
X9892D02*
Y-410D01*
Y-330D02*
X9878Y-315D01*
X9863Y-308D01*
X9841D01*
X9827Y-315D01*
X9812Y-330D01*
X9805Y-352D01*
Y-366D01*
X9812Y-388D01*
X9827Y-402D01*
X9841Y-410D01*
X9863D01*
X9878Y-402D01*
X9892Y-388D01*
X9933Y-308D02*
X9962Y-410D01*
X9991Y-308D02*
X9962Y-410D01*
X9991Y-308D02*
X10020Y-410D01*
X10049Y-308D02*
X10020Y-410D01*
X10099Y-257D02*
X10106Y-265D01*
X10113Y-257D01*
X10106Y-250D01*
X10099Y-257D01*
X10106Y-308D02*
Y-410D01*
X10140Y-308D02*
Y-410D01*
Y-337D02*
X10162Y-315D01*
X10177Y-308D01*
X10198D01*
X10213Y-315D01*
X10220Y-337D01*
Y-410D01*
X10347Y-308D02*
Y-424D01*
X10340Y-446D01*
X10333Y-453D01*
X10318Y-460D01*
X10296D01*
X10282Y-453D01*
X10347Y-330D02*
X10333Y-315D01*
X10318Y-308D01*
X10296D01*
X10282Y-315D01*
X10267Y-330D01*
X10260Y-352D01*
Y-366D01*
X10267Y-388D01*
X10282Y-402D01*
X10296Y-410D01*
X10318D01*
X10333Y-402D01*
X10347Y-388D01*
X10395Y-395D02*
X10388Y-402D01*
X10395Y-410D01*
X10402Y-402D01*
X10395Y-395D01*
X10671Y-410D02*
X10613Y-257D01*
X10555Y-410D01*
X10577Y-359D02*
X10650D01*
X10707Y-257D02*
Y-410D01*
X10739Y-257D02*
Y-410D01*
X10978Y-308D02*
Y-410D01*
Y-330D02*
X10963Y-315D01*
X10949Y-308D01*
X10927D01*
X10912Y-315D01*
X10898Y-330D01*
X10891Y-352D01*
Y-366D01*
X10898Y-388D01*
X10912Y-402D01*
X10927Y-410D01*
X10949D01*
X10963Y-402D01*
X10978Y-388D01*
X11018Y-308D02*
Y-410D01*
Y-352D02*
X11026Y-330D01*
X11040Y-315D01*
X11055Y-308D01*
X11076D01*
X11090Y-352D02*
X11177D01*
Y-337D01*
X11170Y-323D01*
X11163Y-315D01*
X11148Y-308D01*
X11126D01*
X11112Y-315D01*
X11097Y-330D01*
X11090Y-352D01*
Y-366D01*
X11097Y-388D01*
X11112Y-402D01*
X11126Y-410D01*
X11148D01*
X11163Y-402D01*
X11177Y-388D01*
X11388Y-257D02*
X11373D01*
X11359Y-265D01*
X11351Y-286D01*
Y-410D01*
X11330Y-308D02*
X11380D01*
X11424Y-257D02*
X11431Y-265D01*
X11438Y-257D01*
X11431Y-250D01*
X11424Y-257D01*
X11431Y-308D02*
Y-410D01*
X11465Y-308D02*
Y-410D01*
Y-337D02*
X11487Y-315D01*
X11501Y-308D01*
X11523D01*
X11538Y-315D01*
X11545Y-337D01*
Y-410D01*
X11599Y-257D02*
X11607Y-265D01*
X11614Y-257D01*
X11607Y-250D01*
X11599Y-257D01*
X11607Y-308D02*
Y-410D01*
X11721Y-330D02*
X11713Y-315D01*
X11692Y-308D01*
X11670D01*
X11648Y-315D01*
X11641Y-330D01*
X11648Y-344D01*
X11663Y-352D01*
X11699Y-359D01*
X11713Y-366D01*
X11721Y-381D01*
Y-388D01*
X11713Y-402D01*
X11692Y-410D01*
X11670D01*
X11648Y-402D01*
X11641Y-388D01*
X11753Y-257D02*
Y-410D01*
Y-337D02*
X11774Y-315D01*
X11789Y-308D01*
X11811D01*
X11825Y-315D01*
X11832Y-337D01*
Y-410D01*
X11872Y-352D02*
X11959D01*
Y-337D01*
X11952Y-323D01*
X11945Y-315D01*
X11930Y-308D01*
X11909D01*
X11894Y-315D01*
X11879Y-330D01*
X11872Y-352D01*
Y-366D01*
X11879Y-388D01*
X11894Y-402D01*
X11909Y-410D01*
X11930D01*
X11945Y-402D01*
X11959Y-388D01*
X12079Y-257D02*
Y-410D01*
Y-330D02*
X12065Y-315D01*
X12050Y-308D01*
X12028D01*
X12014Y-315D01*
X11999Y-330D01*
X11992Y-352D01*
Y-366D01*
X11999Y-388D01*
X12014Y-402D01*
X12028Y-410D01*
X12050D01*
X12065Y-402D01*
X12079Y-388D01*
X12239Y-257D02*
Y-410D01*
Y-337D02*
X12261Y-315D01*
X12276Y-308D01*
X12297D01*
X12312Y-315D01*
X12319Y-337D01*
Y-410D01*
X12395Y-308D02*
X12381Y-315D01*
X12366Y-330D01*
X12359Y-352D01*
Y-366D01*
X12366Y-388D01*
X12381Y-402D01*
X12395Y-410D01*
X12417D01*
X12432Y-402D01*
X12446Y-388D01*
X12453Y-366D01*
Y-352D01*
X12446Y-330D01*
X12432Y-315D01*
X12417Y-308D01*
X12395D01*
X12487Y-257D02*
Y-410D01*
X12519Y-352D02*
X12606D01*
Y-337D01*
X12599Y-323D01*
X12591Y-315D01*
X12577Y-308D01*
X12555D01*
X12540Y-315D01*
X12526Y-330D01*
X12519Y-352D01*
Y-366D01*
X12526Y-388D01*
X12540Y-402D01*
X12555Y-410D01*
X12577D01*
X12591Y-402D01*
X12606Y-388D01*
X12838Y-330D02*
X12831Y-315D01*
X12809Y-308D01*
X12787D01*
X12765Y-315D01*
X12758Y-330D01*
X12765Y-344D01*
X12780Y-352D01*
X12816Y-359D01*
X12831Y-366D01*
X12838Y-381D01*
Y-388D01*
X12831Y-402D01*
X12809Y-410D01*
X12787D01*
X12765Y-402D01*
X12758Y-388D01*
X12884Y-257D02*
X12892Y-265D01*
X12899Y-257D01*
X12892Y-250D01*
X12884Y-257D01*
X12892Y-308D02*
Y-410D01*
X13006Y-308D02*
X12926Y-410D01*
Y-308D02*
X13006D01*
X12926Y-410D02*
X13006D01*
X13037Y-352D02*
X13125D01*
Y-337D01*
X13117Y-323D01*
X13110Y-315D01*
X13096Y-308D01*
X13074D01*
X13059Y-315D01*
X13045Y-330D01*
X13037Y-352D01*
Y-366D01*
X13045Y-388D01*
X13059Y-402D01*
X13074Y-410D01*
X13096D01*
X13110Y-402D01*
X13125Y-388D01*
X13237Y-330D02*
X13230Y-315D01*
X13208Y-308D01*
X13186D01*
X13164Y-315D01*
X13157Y-330D01*
X13164Y-344D01*
X13179Y-352D01*
X13215Y-359D01*
X13230Y-366D01*
X13237Y-381D01*
Y-388D01*
X13230Y-402D01*
X13208Y-410D01*
X13186D01*
X13164Y-402D01*
X13157Y-388D01*
X13283Y-402D02*
X13276Y-410D01*
X13269Y-402D01*
X13276Y-395D01*
X13283Y-402D01*
Y-417D01*
X13276Y-431D01*
X13269Y-439D01*
X13437Y-308D02*
Y-460D01*
Y-330D02*
X13451Y-315D01*
X13466Y-308D01*
X13487D01*
X13502Y-315D01*
X13516Y-330D01*
X13524Y-352D01*
Y-366D01*
X13516Y-388D01*
X13502Y-402D01*
X13487Y-410D01*
X13466D01*
X13451Y-402D01*
X13437Y-388D01*
X13556Y-257D02*
Y-410D01*
X13675Y-308D02*
Y-410D01*
Y-330D02*
X13661Y-315D01*
X13646Y-308D01*
X13624D01*
X13610Y-315D01*
X13595Y-330D01*
X13588Y-352D01*
Y-366D01*
X13595Y-388D01*
X13610Y-402D01*
X13624Y-410D01*
X13646D01*
X13661Y-402D01*
X13675Y-388D01*
X13738Y-257D02*
Y-381D01*
X13745Y-402D01*
X13759Y-410D01*
X13774D01*
X13716Y-308D02*
X13767D01*
X13796Y-352D02*
X13883D01*
Y-337D01*
X13876Y-323D01*
X13868Y-315D01*
X13854Y-308D01*
X13832D01*
X13817Y-315D01*
X13803Y-330D01*
X13796Y-352D01*
Y-366D01*
X13803Y-388D01*
X13817Y-402D01*
X13832Y-410D01*
X13854D01*
X13868Y-402D01*
X13883Y-388D01*
X14002Y-257D02*
Y-410D01*
Y-330D02*
X13988Y-315D01*
X13973Y-308D01*
X13952D01*
X13937Y-315D01*
X13923Y-330D01*
X13915Y-352D01*
Y-366D01*
X13923Y-388D01*
X13937Y-402D01*
X13952Y-410D01*
X13973D01*
X13988Y-402D01*
X14002Y-388D01*
X14199Y-308D02*
X14185Y-315D01*
X14170Y-330D01*
X14163Y-352D01*
Y-366D01*
X14170Y-388D01*
X14185Y-402D01*
X14199Y-410D01*
X14221D01*
X14235Y-402D01*
X14250Y-388D01*
X14257Y-366D01*
Y-352D01*
X14250Y-330D01*
X14235Y-315D01*
X14221Y-308D01*
X14199D01*
X14291D02*
Y-410D01*
Y-352D02*
X14298Y-330D01*
X14312Y-315D01*
X14327Y-308D01*
X14349D01*
X14482D02*
Y-381D01*
X14489Y-402D01*
X14504Y-410D01*
X14526D01*
X14540Y-402D01*
X14562Y-381D01*
Y-308D02*
Y-410D01*
X14602Y-308D02*
Y-410D01*
Y-337D02*
X14624Y-315D01*
X14638Y-308D01*
X14660D01*
X14674Y-315D01*
X14682Y-337D01*
Y-410D01*
X14722Y-308D02*
Y-460D01*
Y-330D02*
X14736Y-315D01*
X14751Y-308D01*
X14772D01*
X14787Y-315D01*
X14801Y-330D01*
X14809Y-352D01*
Y-366D01*
X14801Y-388D01*
X14787Y-402D01*
X14772Y-410D01*
X14751D01*
X14736Y-402D01*
X14722Y-388D01*
X14841Y-257D02*
Y-410D01*
X14960Y-308D02*
Y-410D01*
Y-330D02*
X14946Y-315D01*
X14931Y-308D01*
X14909D01*
X14895Y-315D01*
X14880Y-330D01*
X14873Y-352D01*
Y-366D01*
X14880Y-388D01*
X14895Y-402D01*
X14909Y-410D01*
X14931D01*
X14946Y-402D01*
X14960Y-388D01*
X15023Y-257D02*
Y-381D01*
X15030Y-402D01*
X15044Y-410D01*
X15059D01*
X15001Y-308D02*
X15052D01*
X15081Y-352D02*
X15168D01*
Y-337D01*
X15160Y-323D01*
X15153Y-315D01*
X15139Y-308D01*
X15117D01*
X15102Y-315D01*
X15088Y-330D01*
X15081Y-352D01*
Y-366D01*
X15088Y-388D01*
X15102Y-402D01*
X15117Y-410D01*
X15139D01*
X15153Y-402D01*
X15168Y-388D01*
X15287Y-257D02*
Y-410D01*
Y-330D02*
X15273Y-315D01*
X15258Y-308D01*
X15237D01*
X15222Y-315D01*
X15208Y-330D01*
X15200Y-352D01*
Y-366D01*
X15208Y-388D01*
X15222Y-402D01*
X15237Y-410D01*
X15258D01*
X15273Y-402D01*
X15287Y-388D01*
X15335Y-395D02*
X15328Y-402D01*
X15335Y-410D01*
X15343Y-402D01*
X15335Y-395D01*
X10431Y2410D02*
X10456Y2435D01*
X10507D01*
X10532Y2410D01*
Y2384D01*
X10507Y2359D01*
X10481D01*
X10507D01*
X10532Y2334D01*
Y2308D01*
X10507Y2283D01*
X10456D01*
X10431Y2308D01*
X10684Y2435D02*
X10583D01*
Y2359D01*
X10634Y2384D01*
X10659D01*
X10684Y2359D01*
Y2308D01*
X10659Y2283D01*
X10608D01*
X10583Y2308D01*
X10735Y2410D02*
X10761Y2435D01*
X10811D01*
X10837Y2410D01*
Y2384D01*
X10811Y2359D01*
X10837Y2334D01*
Y2308D01*
X10811Y2283D01*
X10761D01*
X10735Y2308D01*
Y2334D01*
X10761Y2359D01*
X10735Y2384D01*
Y2410D01*
X10761Y2359D02*
X10811D01*
X12198Y2410D02*
X12223Y2435D01*
X12274D01*
X12299Y2410D01*
Y2308D01*
X12274Y2283D01*
X12223D01*
X12198Y2308D01*
Y2410D01*
X12350Y2283D02*
Y2308D01*
X12376D01*
Y2283D01*
X12350D01*
X12477Y2410D02*
X12503Y2435D01*
X12553D01*
X12579Y2410D01*
Y2384D01*
X12553Y2359D01*
X12528D01*
X12553D01*
X12579Y2334D01*
Y2308D01*
X12553Y2283D01*
X12503D01*
X12477Y2308D01*
X12630Y2283D02*
Y2384D01*
X12655D01*
X12680Y2359D01*
Y2283D01*
Y2359D01*
X12706Y2384D01*
X12731Y2359D01*
Y2283D01*
X12782D02*
Y2384D01*
X12807D01*
X12833Y2359D01*
Y2283D01*
Y2359D01*
X12858Y2384D01*
X12883Y2359D01*
Y2283D01*
X13137D02*
X13087Y2334D01*
Y2384D01*
X13137Y2435D01*
X13214Y2283D02*
X13264D01*
X13239D01*
Y2435D01*
X13214Y2410D01*
X13341Y2283D02*
X13391D01*
X13366D01*
Y2435D01*
X13341Y2410D01*
X13467Y2283D02*
Y2308D01*
X13493D01*
Y2283D01*
X13467D01*
X13594Y2410D02*
X13620Y2435D01*
X13671D01*
X13696Y2410D01*
Y2384D01*
X13671Y2359D01*
X13696Y2334D01*
Y2308D01*
X13671Y2283D01*
X13620D01*
X13594Y2308D01*
Y2334D01*
X13620Y2359D01*
X13594Y2384D01*
Y2410D01*
X13620Y2359D02*
X13671D01*
X13747Y2283D02*
X13798D01*
X13772D01*
Y2435D01*
X13747Y2410D01*
X13874Y2283D02*
X13925D01*
X13899D01*
Y2435D01*
X13874Y2410D01*
X14001Y2283D02*
Y2384D01*
X14026D01*
X14051Y2359D01*
Y2283D01*
Y2359D01*
X14077Y2384D01*
X14102Y2359D01*
Y2283D01*
X14153D02*
X14204D01*
X14178D01*
Y2384D01*
X14153D01*
X14280Y2283D02*
X14331D01*
X14305D01*
Y2435D01*
X14280D01*
X14407Y2283D02*
X14458Y2334D01*
Y2384D01*
X14407Y2435D01*
X15611Y2283D02*
Y2435D01*
X15687D01*
X15712Y2410D01*
Y2359D01*
X15687Y2334D01*
X15611D01*
X15763Y2435D02*
X15865D01*
X15814D01*
Y2283D01*
X15915Y2435D02*
Y2283D01*
Y2359D01*
X16017D01*
Y2435D01*
Y2283D01*
X16890D02*
Y2435D01*
X16967D01*
X16992Y2410D01*
Y2359D01*
X16967Y2334D01*
X16890D01*
X16941D02*
X16992Y2283D01*
X17068D02*
X17119D01*
X17144Y2308D01*
Y2359D01*
X17119Y2384D01*
X17068D01*
X17043Y2359D01*
Y2308D01*
X17068Y2283D01*
X17195Y2384D02*
Y2308D01*
X17221Y2283D01*
X17297D01*
Y2384D01*
X17348Y2283D02*
Y2384D01*
X17424D01*
X17449Y2359D01*
Y2283D01*
X17601Y2435D02*
Y2283D01*
X17525D01*
X17500Y2308D01*
Y2359D01*
X17525Y2384D01*
X17601D01*
X10532Y2130D02*
X10431D01*
Y2054D01*
X10481Y2080D01*
X10507D01*
X10532Y2054D01*
Y2003D01*
X10507Y1978D01*
X10456D01*
X10431Y2003D01*
X10659Y1978D02*
Y2130D01*
X10583Y2054D01*
X10684D01*
X12198Y2105D02*
X12223Y2130D01*
X12274D01*
X12299Y2105D01*
Y2003D01*
X12274Y1978D01*
X12223D01*
X12198Y2003D01*
Y2105D01*
X12350Y1978D02*
Y2003D01*
X12376D01*
Y1978D01*
X12350D01*
X12477Y2130D02*
X12579D01*
Y2105D01*
X12477Y2003D01*
Y1978D01*
X12630D02*
X12680D01*
X12655D01*
Y2130D01*
X12630Y2105D01*
X12756Y1978D02*
X12807D01*
X12782D01*
Y2130D01*
X12756Y2105D01*
X12985Y1978D02*
X12883D01*
X12985Y2080D01*
Y2105D01*
X12960Y2130D01*
X12909D01*
X12883Y2105D01*
X13036Y1978D02*
Y2080D01*
X13061D01*
X13087Y2054D01*
Y1978D01*
Y2054D01*
X13112Y2080D01*
X13137Y2054D01*
Y1978D01*
X13188D02*
Y2080D01*
X13214D01*
X13239Y2054D01*
Y1978D01*
Y2054D01*
X13264Y2080D01*
X13290Y2054D01*
Y1978D01*
X13544D02*
X13493Y2029D01*
Y2080D01*
X13544Y2130D01*
X13721Y1978D02*
X13620D01*
X13721Y2080D01*
Y2105D01*
X13696Y2130D01*
X13645D01*
X13620Y2105D01*
X13772D02*
X13798Y2130D01*
X13848D01*
X13874Y2105D01*
Y2080D01*
X13848Y2054D01*
X13874Y2029D01*
Y2003D01*
X13848Y1978D01*
X13798D01*
X13772Y2003D01*
Y2029D01*
X13798Y2054D01*
X13772Y2080D01*
Y2105D01*
X13798Y2054D02*
X13848D01*
X13925Y1978D02*
Y2080D01*
X13950D01*
X13975Y2054D01*
Y1978D01*
Y2054D01*
X14001Y2080D01*
X14026Y2054D01*
Y1978D01*
X14077D02*
X14128D01*
X14102D01*
Y2080D01*
X14077D01*
X14204Y1978D02*
X14255D01*
X14229D01*
Y2130D01*
X14204D01*
X14331Y1978D02*
X14382Y2029D01*
Y2080D01*
X14331Y2130D01*
X15611Y1978D02*
Y2130D01*
X15687D01*
X15712Y2105D01*
Y2054D01*
X15687Y2029D01*
X15611D01*
X15763Y2130D02*
X15865D01*
X15814D01*
Y1978D01*
X15915Y2130D02*
Y1978D01*
Y2054D01*
X16017D01*
Y2130D01*
Y1978D01*
X16890D02*
Y2130D01*
X16967D01*
X16992Y2105D01*
Y2054D01*
X16967Y2029D01*
X16890D01*
X16941D02*
X16992Y1978D01*
X17068D02*
X17119D01*
X17144Y2003D01*
Y2054D01*
X17119Y2080D01*
X17068D01*
X17043Y2054D01*
Y2003D01*
X17068Y1978D01*
X17195Y2080D02*
Y2003D01*
X17221Y1978D01*
X17297D01*
Y2080D01*
X17348Y1978D02*
Y2080D01*
X17424D01*
X17449Y2054D01*
Y1978D01*
X17601Y2130D02*
Y1978D01*
X17525D01*
X17500Y2003D01*
Y2054D01*
X17525Y2080D01*
X17601D01*
X10431Y1800D02*
X10456Y1826D01*
X10507D01*
X10532Y1800D01*
Y1775D01*
X10507Y1749D01*
X10481D01*
X10507D01*
X10532Y1724D01*
Y1699D01*
X10507Y1673D01*
X10456D01*
X10431Y1699D01*
X10583Y1800D02*
X10608Y1826D01*
X10659D01*
X10684Y1800D01*
Y1699D01*
X10659Y1673D01*
X10608D01*
X10583Y1699D01*
Y1800D01*
X12198D02*
X12223Y1826D01*
X12274D01*
X12299Y1800D01*
Y1699D01*
X12274Y1673D01*
X12223D01*
X12198Y1699D01*
Y1800D01*
X12350Y1673D02*
Y1699D01*
X12376D01*
Y1673D01*
X12350D01*
X12477Y1800D02*
X12503Y1826D01*
X12553D01*
X12579Y1800D01*
Y1775D01*
X12553Y1749D01*
X12579Y1724D01*
Y1699D01*
X12553Y1673D01*
X12503D01*
X12477Y1699D01*
Y1724D01*
X12503Y1749D01*
X12477Y1775D01*
Y1800D01*
X12503Y1749D02*
X12553D01*
X12630Y1673D02*
Y1775D01*
X12655D01*
X12680Y1749D01*
Y1673D01*
Y1749D01*
X12706Y1775D01*
X12731Y1749D01*
Y1673D01*
X12782D02*
Y1775D01*
X12807D01*
X12833Y1749D01*
Y1673D01*
Y1749D01*
X12858Y1775D01*
X12883Y1749D01*
Y1673D01*
X13137D02*
X13087Y1724D01*
Y1775D01*
X13137Y1826D01*
X13214Y1800D02*
X13239Y1826D01*
X13290D01*
X13315Y1800D01*
Y1775D01*
X13290Y1749D01*
X13264D01*
X13290D01*
X13315Y1724D01*
Y1699D01*
X13290Y1673D01*
X13239D01*
X13214Y1699D01*
X13366Y1673D02*
X13417D01*
X13391D01*
Y1826D01*
X13366Y1800D01*
X13493Y1673D02*
Y1699D01*
X13518D01*
Y1673D01*
X13493D01*
X13696D02*
Y1826D01*
X13620Y1749D01*
X13721D01*
X13772Y1699D02*
X13798Y1673D01*
X13848D01*
X13874Y1699D01*
Y1800D01*
X13848Y1826D01*
X13798D01*
X13772Y1800D01*
Y1775D01*
X13798Y1749D01*
X13874D01*
X14026Y1826D02*
X13975Y1800D01*
X13925Y1749D01*
Y1699D01*
X13950Y1673D01*
X14001D01*
X14026Y1699D01*
Y1724D01*
X14001Y1749D01*
X13925D01*
X14077Y1673D02*
Y1775D01*
X14102D01*
X14128Y1749D01*
Y1673D01*
Y1749D01*
X14153Y1775D01*
X14178Y1749D01*
Y1673D01*
X14229D02*
X14280D01*
X14255D01*
Y1775D01*
X14229D01*
X14356Y1673D02*
X14407D01*
X14382D01*
Y1826D01*
X14356D01*
X14483Y1673D02*
X14534Y1724D01*
Y1775D01*
X14483Y1826D01*
X15611Y1673D02*
Y1826D01*
X15687D01*
X15712Y1800D01*
Y1749D01*
X15687Y1724D01*
X15611D01*
X15763Y1826D02*
X15865D01*
X15814D01*
Y1673D01*
X15915Y1826D02*
Y1673D01*
Y1749D01*
X16017D01*
Y1826D01*
Y1673D01*
X16890D02*
Y1826D01*
X16967D01*
X16992Y1800D01*
Y1749D01*
X16967Y1724D01*
X16890D01*
X16941D02*
X16992Y1673D01*
X17068D02*
X17119D01*
X17144Y1699D01*
Y1749D01*
X17119Y1775D01*
X17068D01*
X17043Y1749D01*
Y1699D01*
X17068Y1673D01*
X17195Y1775D02*
Y1699D01*
X17221Y1673D01*
X17297D01*
Y1775D01*
X17348Y1673D02*
Y1775D01*
X17424D01*
X17449Y1749D01*
Y1673D01*
X17601Y1826D02*
Y1673D01*
X17525D01*
X17500Y1699D01*
Y1749D01*
X17525Y1775D01*
X17601D01*
X10431Y1495D02*
X10456Y1521D01*
X10507D01*
X10532Y1495D01*
Y1470D01*
X10507Y1445D01*
X10481D01*
X10507D01*
X10532Y1419D01*
Y1394D01*
X10507Y1368D01*
X10456D01*
X10431Y1394D01*
X10583D02*
X10608Y1368D01*
X10659D01*
X10684Y1394D01*
Y1495D01*
X10659Y1521D01*
X10608D01*
X10583Y1495D01*
Y1470D01*
X10608Y1445D01*
X10684D01*
X12198Y1495D02*
X12223Y1521D01*
X12274D01*
X12299Y1495D01*
Y1394D01*
X12274Y1368D01*
X12223D01*
X12198Y1394D01*
Y1495D01*
X12350Y1368D02*
Y1394D01*
X12376D01*
Y1368D01*
X12350D01*
X12477Y1394D02*
X12503Y1368D01*
X12553D01*
X12579Y1394D01*
Y1495D01*
X12553Y1521D01*
X12503D01*
X12477Y1495D01*
Y1470D01*
X12503Y1445D01*
X12579D01*
X12630Y1368D02*
Y1470D01*
X12655D01*
X12680Y1445D01*
Y1368D01*
Y1445D01*
X12706Y1470D01*
X12731Y1445D01*
Y1368D01*
X12782D02*
Y1470D01*
X12807D01*
X12833Y1445D01*
Y1368D01*
Y1445D01*
X12858Y1470D01*
X12883Y1445D01*
Y1368D01*
X13137D02*
X13087Y1419D01*
Y1470D01*
X13137Y1521D01*
X13214Y1495D02*
X13239Y1521D01*
X13290D01*
X13315Y1495D01*
Y1470D01*
X13290Y1445D01*
X13264D01*
X13290D01*
X13315Y1419D01*
Y1394D01*
X13290Y1368D01*
X13239D01*
X13214Y1394D01*
X13467Y1521D02*
X13366D01*
Y1445D01*
X13417Y1470D01*
X13442D01*
X13467Y1445D01*
Y1394D01*
X13442Y1368D01*
X13391D01*
X13366Y1394D01*
X13518Y1368D02*
Y1394D01*
X13544D01*
Y1368D01*
X13518D01*
X13721D02*
Y1521D01*
X13645Y1445D01*
X13747D01*
X13798Y1495D02*
X13823Y1521D01*
X13874D01*
X13899Y1495D01*
Y1470D01*
X13874Y1445D01*
X13848D01*
X13874D01*
X13899Y1419D01*
Y1394D01*
X13874Y1368D01*
X13823D01*
X13798Y1394D01*
X13950Y1495D02*
X13975Y1521D01*
X14026D01*
X14051Y1495D01*
Y1470D01*
X14026Y1445D01*
X14001D01*
X14026D01*
X14051Y1419D01*
Y1394D01*
X14026Y1368D01*
X13975D01*
X13950Y1394D01*
X14102Y1368D02*
Y1470D01*
X14128D01*
X14153Y1445D01*
Y1368D01*
Y1445D01*
X14178Y1470D01*
X14204Y1445D01*
Y1368D01*
X14255D02*
X14305D01*
X14280D01*
Y1470D01*
X14255D01*
X14382Y1368D02*
X14432D01*
X14407D01*
Y1521D01*
X14382D01*
X14509Y1368D02*
X14559Y1419D01*
Y1470D01*
X14509Y1521D01*
X15611Y1368D02*
Y1521D01*
X15687D01*
X15712Y1495D01*
Y1445D01*
X15687Y1419D01*
X15611D01*
X15763Y1521D02*
X15865D01*
X15814D01*
Y1368D01*
X15915Y1521D02*
Y1368D01*
Y1445D01*
X16017D01*
Y1521D01*
Y1368D01*
X16890D02*
Y1521D01*
X16967D01*
X16992Y1495D01*
Y1445D01*
X16967Y1419D01*
X16890D01*
X16941D02*
X16992Y1368D01*
X17068D02*
X17119D01*
X17144Y1394D01*
Y1445D01*
X17119Y1470D01*
X17068D01*
X17043Y1445D01*
Y1394D01*
X17068Y1368D01*
X17195Y1470D02*
Y1394D01*
X17221Y1368D01*
X17297D01*
Y1470D01*
X17348Y1368D02*
Y1470D01*
X17424D01*
X17449Y1445D01*
Y1368D01*
X17601Y1521D02*
Y1368D01*
X17525D01*
X17500Y1394D01*
Y1445D01*
X17525Y1470D01*
X17601D01*
X10532Y1064D02*
X10431D01*
X10532Y1165D01*
Y1191D01*
X10507Y1216D01*
X10456D01*
X10431Y1191D01*
X12299Y1064D02*
X12198D01*
X12299Y1165D01*
Y1191D01*
X12274Y1216D01*
X12223D01*
X12198Y1191D01*
X12350Y1064D02*
Y1089D01*
X12376D01*
Y1064D01*
X12350D01*
X12579D02*
X12477D01*
X12579Y1165D01*
Y1191D01*
X12553Y1216D01*
X12503D01*
X12477Y1191D01*
X12630Y1064D02*
Y1165D01*
X12655D01*
X12680Y1140D01*
Y1064D01*
Y1140D01*
X12706Y1165D01*
X12731Y1140D01*
Y1064D01*
X12782D02*
Y1165D01*
X12807D01*
X12833Y1140D01*
Y1064D01*
Y1140D01*
X12858Y1165D01*
X12883Y1140D01*
Y1064D01*
X13137D02*
X13087Y1114D01*
Y1165D01*
X13137Y1216D01*
X13214Y1191D02*
X13239Y1216D01*
X13290D01*
X13315Y1191D01*
Y1165D01*
X13290Y1140D01*
X13315Y1114D01*
Y1089D01*
X13290Y1064D01*
X13239D01*
X13214Y1089D01*
Y1114D01*
X13239Y1140D01*
X13214Y1165D01*
Y1191D01*
X13239Y1140D02*
X13290D01*
X13467Y1216D02*
X13417Y1191D01*
X13366Y1140D01*
Y1089D01*
X13391Y1064D01*
X13442D01*
X13467Y1089D01*
Y1114D01*
X13442Y1140D01*
X13366D01*
X13518Y1064D02*
Y1089D01*
X13544D01*
Y1064D01*
X13518D01*
X13747Y1216D02*
X13696Y1191D01*
X13645Y1140D01*
Y1089D01*
X13671Y1064D01*
X13721D01*
X13747Y1089D01*
Y1114D01*
X13721Y1140D01*
X13645D01*
X13798Y1064D02*
X13848D01*
X13823D01*
Y1216D01*
X13798Y1191D01*
X14001Y1064D02*
Y1216D01*
X13925Y1140D01*
X14026D01*
X14077Y1064D02*
Y1165D01*
X14102D01*
X14128Y1140D01*
Y1064D01*
Y1140D01*
X14153Y1165D01*
X14178Y1140D01*
Y1064D01*
X14229D02*
X14280D01*
X14255D01*
Y1165D01*
X14229D01*
X14356Y1064D02*
X14407D01*
X14382D01*
Y1216D01*
X14356D01*
X14483Y1064D02*
X14534Y1114D01*
Y1165D01*
X14483Y1216D01*
X15611Y1064D02*
Y1216D01*
X15687D01*
X15712Y1191D01*
Y1140D01*
X15687Y1114D01*
X15611D01*
X15763Y1216D02*
X15865D01*
X15814D01*
Y1064D01*
X15915Y1216D02*
Y1064D01*
Y1140D01*
X16017D01*
Y1216D01*
Y1064D01*
X16890D02*
Y1216D01*
X16967D01*
X16992Y1191D01*
Y1140D01*
X16967Y1114D01*
X16890D01*
X16941D02*
X16992Y1064D01*
X17068D02*
X17119D01*
X17144Y1089D01*
Y1140D01*
X17119Y1165D01*
X17068D01*
X17043Y1140D01*
Y1089D01*
X17068Y1064D01*
X17195Y1165D02*
Y1089D01*
X17221Y1064D01*
X17297D01*
Y1165D01*
X17348Y1064D02*
Y1165D01*
X17424D01*
X17449Y1140D01*
Y1064D01*
X17601Y1216D02*
Y1064D01*
X17525D01*
X17500Y1089D01*
Y1140D01*
X17525Y1165D01*
X17601D01*
X10532Y759D02*
X10431D01*
X10532Y860D01*
Y886D01*
X10507Y911D01*
X10456D01*
X10431Y886D01*
X12299Y759D02*
X12198D01*
X12299Y860D01*
Y886D01*
X12274Y911D01*
X12223D01*
X12198Y886D01*
X12350Y759D02*
Y784D01*
X12376D01*
Y759D01*
X12350D01*
X12477Y886D02*
X12503Y911D01*
X12553D01*
X12579Y886D01*
Y860D01*
X12553Y835D01*
X12528D01*
X12553D01*
X12579Y810D01*
Y784D01*
X12553Y759D01*
X12503D01*
X12477Y784D01*
X12630Y886D02*
X12655Y911D01*
X12706D01*
X12731Y886D01*
Y784D01*
X12706Y759D01*
X12655D01*
X12630Y784D01*
Y886D01*
X12858Y759D02*
Y911D01*
X12782Y835D01*
X12883D01*
X12934Y886D02*
X12960Y911D01*
X13010D01*
X13036Y886D01*
Y860D01*
X13010Y835D01*
X13036Y810D01*
Y784D01*
X13010Y759D01*
X12960D01*
X12934Y784D01*
Y810D01*
X12960Y835D01*
X12934Y860D01*
Y886D01*
X12960Y835D02*
X13010D01*
X13188Y759D02*
X13087D01*
X13188Y860D01*
Y886D01*
X13163Y911D01*
X13112D01*
X13087Y886D01*
X13239Y759D02*
Y860D01*
X13264D01*
X13290Y835D01*
Y759D01*
Y835D01*
X13315Y860D01*
X13341Y835D01*
Y759D01*
X13391D02*
Y860D01*
X13417D01*
X13442Y835D01*
Y759D01*
Y835D01*
X13467Y860D01*
X13493Y835D01*
Y759D01*
X13747D02*
X13696Y810D01*
Y860D01*
X13747Y911D01*
X13823Y784D02*
X13848Y759D01*
X13899D01*
X13925Y784D01*
Y886D01*
X13899Y911D01*
X13848D01*
X13823Y886D01*
Y860D01*
X13848Y835D01*
X13925D01*
X13975Y886D02*
X14001Y911D01*
X14051D01*
X14077Y886D01*
Y784D01*
X14051Y759D01*
X14001D01*
X13975Y784D01*
Y886D01*
X14128Y759D02*
Y784D01*
X14153D01*
Y759D01*
X14128D01*
X14255Y911D02*
X14356D01*
Y886D01*
X14255Y784D01*
Y759D01*
X14483D02*
Y911D01*
X14407Y835D01*
X14509D01*
X14559Y759D02*
X14610D01*
X14585D01*
Y911D01*
X14559Y886D01*
X14686Y759D02*
Y860D01*
X14712D01*
X14737Y835D01*
Y759D01*
Y835D01*
X14762Y860D01*
X14788Y835D01*
Y759D01*
X14839D02*
X14889D01*
X14864D01*
Y860D01*
X14839D01*
X14966Y759D02*
X15016D01*
X14991D01*
Y911D01*
X14966D01*
X15093Y759D02*
X15143Y810D01*
Y860D01*
X15093Y911D01*
X15611Y759D02*
Y911D01*
X15687D01*
X15712Y886D01*
Y835D01*
X15687Y810D01*
X15611D01*
X15763Y911D02*
X15865D01*
X15814D01*
Y759D01*
X15915Y911D02*
Y759D01*
Y835D01*
X16017D01*
Y911D01*
Y759D01*
X16890D02*
Y911D01*
X16967D01*
X16992Y886D01*
Y835D01*
X16967Y810D01*
X16890D01*
X16941D02*
X16992Y759D01*
X17068D02*
X17119D01*
X17144Y784D01*
Y835D01*
X17119Y860D01*
X17068D01*
X17043Y835D01*
Y784D01*
X17068Y759D01*
X17195Y860D02*
Y784D01*
X17221Y759D01*
X17297D01*
Y860D01*
X17348Y759D02*
Y860D01*
X17424D01*
X17449Y835D01*
Y759D01*
X17601Y911D02*
Y759D01*
X17525D01*
X17500Y784D01*
Y835D01*
X17525Y860D01*
X17601D01*
X10532Y454D02*
X10431D01*
X10532Y556D01*
Y581D01*
X10507Y606D01*
X10456D01*
X10431Y581D01*
X12299Y454D02*
X12198D01*
X12299Y556D01*
Y581D01*
X12274Y606D01*
X12223D01*
X12198Y581D01*
X12350Y454D02*
Y479D01*
X12376D01*
Y454D01*
X12350D01*
X12579Y606D02*
X12477D01*
Y530D01*
X12528Y556D01*
X12553D01*
X12579Y530D01*
Y479D01*
X12553Y454D01*
X12503D01*
X12477Y479D01*
X12731Y606D02*
X12630D01*
Y530D01*
X12680Y556D01*
X12706D01*
X12731Y530D01*
Y479D01*
X12706Y454D01*
X12655D01*
X12630Y479D01*
X12858Y454D02*
Y606D01*
X12782Y530D01*
X12883D01*
X12934Y581D02*
X12960Y606D01*
X13010D01*
X13036Y581D01*
Y556D01*
X13010Y530D01*
X13036Y505D01*
Y479D01*
X13010Y454D01*
X12960D01*
X12934Y479D01*
Y505D01*
X12960Y530D01*
X12934Y556D01*
Y581D01*
X12960Y530D02*
X13010D01*
X13087Y454D02*
X13137D01*
X13112D01*
Y606D01*
X13087Y581D01*
X13214Y454D02*
Y556D01*
X13239D01*
X13264Y530D01*
Y454D01*
Y530D01*
X13290Y556D01*
X13315Y530D01*
Y454D01*
X13366D02*
Y556D01*
X13391D01*
X13417Y530D01*
Y454D01*
Y530D01*
X13442Y556D01*
X13467Y530D01*
Y454D01*
X13721D02*
X13671Y505D01*
Y556D01*
X13721Y606D01*
X13798Y454D02*
X13848D01*
X13823D01*
Y606D01*
X13798Y581D01*
X13925D02*
X13950Y606D01*
X14001D01*
X14026Y581D01*
Y479D01*
X14001Y454D01*
X13950D01*
X13925Y479D01*
Y581D01*
X14077D02*
X14102Y606D01*
X14153D01*
X14178Y581D01*
Y479D01*
X14153Y454D01*
X14102D01*
X14077Y479D01*
Y581D01*
X14229Y454D02*
Y479D01*
X14255D01*
Y454D01*
X14229D01*
X14458Y606D02*
X14356D01*
Y530D01*
X14407Y556D01*
X14432D01*
X14458Y530D01*
Y479D01*
X14432Y454D01*
X14382D01*
X14356Y479D01*
X14509Y581D02*
X14534Y606D01*
X14585D01*
X14610Y581D01*
Y556D01*
X14585Y530D01*
X14610Y505D01*
Y479D01*
X14585Y454D01*
X14534D01*
X14509Y479D01*
Y505D01*
X14534Y530D01*
X14509Y556D01*
Y581D01*
X14534Y530D02*
X14585D01*
X14661Y581D02*
X14686Y606D01*
X14737D01*
X14762Y581D01*
Y556D01*
X14737Y530D01*
X14712D01*
X14737D01*
X14762Y505D01*
Y479D01*
X14737Y454D01*
X14686D01*
X14661Y479D01*
X14813Y454D02*
Y556D01*
X14839D01*
X14864Y530D01*
Y454D01*
Y530D01*
X14889Y556D01*
X14915Y530D01*
Y454D01*
X14966D02*
X15016D01*
X14991D01*
Y556D01*
X14966D01*
X15093Y454D02*
X15143D01*
X15118D01*
Y606D01*
X15093D01*
X15219Y454D02*
X15270Y505D01*
Y556D01*
X15219Y606D01*
X15611Y454D02*
Y606D01*
X15687D01*
X15712Y581D01*
Y530D01*
X15687Y505D01*
X15611D01*
X15763Y606D02*
X15865D01*
X15814D01*
Y454D01*
X15915Y606D02*
Y454D01*
Y530D01*
X16017D01*
Y606D01*
Y454D01*
X16890D02*
Y606D01*
X16967D01*
X16992Y581D01*
Y530D01*
X16967Y505D01*
X16890D01*
X16941D02*
X16992Y454D01*
X17068D02*
X17119D01*
X17144Y479D01*
Y530D01*
X17119Y556D01*
X17068D01*
X17043Y530D01*
Y479D01*
X17068Y454D01*
X17195Y556D02*
Y479D01*
X17221Y454D01*
X17297D01*
Y556D01*
X17348Y454D02*
Y556D01*
X17424D01*
X17449Y530D01*
Y454D01*
X17601Y606D02*
Y454D01*
X17525D01*
X17500Y479D01*
Y530D01*
X17525Y556D01*
X17601D01*
X10507Y149D02*
Y302D01*
X10431Y225D01*
X10532D01*
X12198Y276D02*
X12223Y302D01*
X12274D01*
X12299Y276D01*
Y251D01*
X12274Y225D01*
X12249D01*
X12274D01*
X12299Y200D01*
Y175D01*
X12274Y149D01*
X12223D01*
X12198Y175D01*
X12350Y149D02*
Y251D01*
X12376D01*
X12401Y225D01*
Y149D01*
Y225D01*
X12426Y251D01*
X12452Y225D01*
Y149D01*
X12503D02*
Y251D01*
X12528D01*
X12553Y225D01*
Y149D01*
Y225D01*
X12579Y251D01*
X12604Y225D01*
Y149D01*
X12858D02*
X12807Y200D01*
Y251D01*
X12858Y302D01*
X12934Y149D02*
X12985D01*
X12960D01*
Y302D01*
X12934Y276D01*
X13061Y149D02*
X13112D01*
X13087D01*
Y302D01*
X13061Y276D01*
X13188D02*
X13214Y302D01*
X13264D01*
X13290Y276D01*
Y251D01*
X13264Y225D01*
X13290Y200D01*
Y175D01*
X13264Y149D01*
X13214D01*
X13188Y175D01*
Y200D01*
X13214Y225D01*
X13188Y251D01*
Y276D01*
X13214Y225D02*
X13264D01*
X13341Y149D02*
Y175D01*
X13366D01*
Y149D01*
X13341D01*
X13467D02*
X13518D01*
X13493D01*
Y302D01*
X13467Y276D01*
X13594Y149D02*
X13645D01*
X13620D01*
Y302D01*
X13594Y276D01*
X13721Y149D02*
Y251D01*
X13747D01*
X13772Y225D01*
Y149D01*
Y225D01*
X13798Y251D01*
X13823Y225D01*
Y149D01*
X13874D02*
X13925D01*
X13899D01*
Y251D01*
X13874D01*
X14001Y149D02*
X14051D01*
X14026D01*
Y302D01*
X14001D01*
X14128Y149D02*
X14178Y200D01*
Y251D01*
X14128Y302D01*
X15611Y149D02*
Y302D01*
X15687D01*
X15712Y276D01*
Y225D01*
X15687Y200D01*
X15611D01*
X15763Y302D02*
X15865D01*
X15814D01*
Y149D01*
X15915Y302D02*
Y149D01*
Y225D01*
X16017D01*
Y302D01*
Y149D01*
X16890D02*
Y302D01*
X16967D01*
X16992Y276D01*
Y225D01*
X16967Y200D01*
X16890D01*
X16941D02*
X16992Y149D01*
X17068D02*
X17119D01*
X17144Y175D01*
Y225D01*
X17119Y251D01*
X17068D01*
X17043Y225D01*
Y175D01*
X17068Y149D01*
X17195Y251D02*
Y175D01*
X17221Y149D01*
X17297D01*
Y251D01*
X17348Y149D02*
Y251D01*
X17424D01*
X17449Y225D01*
Y149D01*
X17601Y302D02*
Y149D01*
X17525D01*
X17500Y175D01*
Y225D01*
X17525Y251D01*
X17601D01*
X10507Y-156D02*
Y-3D01*
X10431Y-79D01*
X10532D01*
X10583Y-130D02*
X10608Y-156D01*
X10659D01*
X10684Y-130D01*
Y-29D01*
X10659Y-3D01*
X10608D01*
X10583Y-29D01*
Y-54D01*
X10608Y-79D01*
X10684D01*
X10735Y-156D02*
X10786D01*
X10761D01*
Y-3D01*
X10735Y-29D01*
X11060Y-3D02*
X11162D01*
X11111D01*
Y-156D01*
X11238D02*
X11289D01*
X11314Y-130D01*
Y-79D01*
X11289Y-54D01*
X11238D01*
X11213Y-79D01*
Y-130D01*
X11238Y-156D01*
X11390Y-29D02*
Y-54D01*
X11365D01*
X11416D01*
X11390D01*
Y-130D01*
X11416Y-156D01*
X11517Y-54D02*
X11568D01*
X11594Y-79D01*
Y-156D01*
X11517D01*
X11492Y-130D01*
X11517Y-105D01*
X11594D01*
X11644Y-156D02*
X11695D01*
X11670D01*
Y-3D01*
X11644D01*
D63*
X9273Y2801D02*
X9242Y2831D01*
X9181D01*
X9151Y2801D01*
Y2770D01*
X9181Y2740D01*
X9242D01*
X9273Y2709D01*
Y2679D01*
X9242Y2649D01*
X9181D01*
X9151Y2679D01*
X9333Y2770D02*
Y2679D01*
X9364Y2649D01*
X9455D01*
Y2618D01*
X9425Y2588D01*
X9394D01*
X9455Y2649D02*
Y2770D01*
X9516Y2649D02*
Y2770D01*
X9547D01*
X9577Y2740D01*
Y2649D01*
Y2740D01*
X9608Y2770D01*
X9638Y2740D01*
Y2649D01*
X9699Y2831D02*
Y2649D01*
X9791D01*
X9821Y2679D01*
Y2709D01*
Y2740D01*
X9791Y2770D01*
X9699D01*
X9912Y2649D02*
X9973D01*
X10004Y2679D01*
Y2740D01*
X9973Y2770D01*
X9912D01*
X9882Y2740D01*
Y2679D01*
X9912Y2649D01*
X10065D02*
X10126D01*
X10095D01*
Y2831D01*
X10065D01*
X10431D02*
Y2649D01*
Y2740D01*
X10552D01*
Y2831D01*
Y2649D01*
X10613D02*
X10674D01*
X10644D01*
Y2770D01*
X10613D01*
X10796Y2801D02*
Y2770D01*
X10766D01*
X10827D01*
X10796D01*
Y2679D01*
X10827Y2649D01*
X11223Y2801D02*
X11192Y2831D01*
X11131D01*
X11101Y2801D01*
Y2679D01*
X11131Y2649D01*
X11192D01*
X11223Y2679D01*
X11314Y2649D02*
X11375D01*
X11406Y2679D01*
Y2740D01*
X11375Y2770D01*
X11314D01*
X11284Y2740D01*
Y2679D01*
X11314Y2649D01*
X11466Y2770D02*
Y2679D01*
X11497Y2649D01*
X11588D01*
Y2770D01*
X11649Y2649D02*
Y2770D01*
X11741D01*
X11771Y2740D01*
Y2649D01*
X11863Y2801D02*
Y2770D01*
X11832D01*
X11893D01*
X11863D01*
Y2679D01*
X11893Y2649D01*
X12320Y2831D02*
X12198D01*
Y2740D01*
X12259D01*
X12198D01*
Y2649D01*
X12381D02*
X12442D01*
X12411D01*
Y2770D01*
X12381D01*
X12533Y2649D02*
Y2770D01*
X12624D01*
X12655Y2740D01*
Y2649D01*
X12716D02*
X12777D01*
X12746D01*
Y2770D01*
X12716D01*
X12868Y2649D02*
X12960D01*
X12990Y2679D01*
X12960Y2709D01*
X12899D01*
X12868Y2740D01*
X12899Y2770D01*
X12990D01*
X13051Y2831D02*
Y2649D01*
Y2740D01*
X13082Y2770D01*
X13142D01*
X13173Y2740D01*
Y2649D01*
X13325D02*
X13264D01*
X13234Y2679D01*
Y2740D01*
X13264Y2770D01*
X13325D01*
X13356Y2740D01*
Y2709D01*
X13234D01*
X13539Y2831D02*
Y2649D01*
X13447D01*
X13417Y2679D01*
Y2740D01*
X13447Y2770D01*
X13539D01*
X13782Y2831D02*
Y2649D01*
Y2740D01*
X13904D01*
Y2831D01*
Y2649D01*
X13996D02*
X14057D01*
X14087Y2679D01*
Y2740D01*
X14057Y2770D01*
X13996D01*
X13965Y2740D01*
Y2679D01*
X13996Y2649D01*
X14148D02*
X14209D01*
X14178D01*
Y2831D01*
X14148D01*
X14392Y2649D02*
X14331D01*
X14300Y2679D01*
Y2740D01*
X14331Y2770D01*
X14392D01*
X14422Y2740D01*
Y2709D01*
X14300D01*
X14788Y2801D02*
X14757Y2831D01*
X14696D01*
X14666Y2801D01*
Y2770D01*
X14696Y2740D01*
X14757D01*
X14788Y2709D01*
Y2679D01*
X14757Y2649D01*
X14696D01*
X14666Y2679D01*
X14849Y2649D02*
X14910D01*
X14879D01*
Y2770D01*
X14849D01*
X15001D02*
X15123D01*
X15001Y2649D01*
X15123D01*
X15275D02*
X15214D01*
X15184Y2679D01*
Y2740D01*
X15214Y2770D01*
X15275D01*
X15306Y2740D01*
Y2709D01*
X15184D01*
X15611Y2649D02*
Y2831D01*
X15702D01*
X15733Y2801D01*
Y2740D01*
X15702Y2709D01*
X15611D01*
X15793Y2649D02*
X15854D01*
X15824D01*
Y2831D01*
X15793D01*
X15976Y2770D02*
X16037D01*
X16068Y2740D01*
Y2649D01*
X15976D01*
X15946Y2679D01*
X15976Y2709D01*
X16068D01*
X16159Y2801D02*
Y2770D01*
X16129D01*
X16190D01*
X16159D01*
Y2679D01*
X16190Y2649D01*
X16372D02*
X16311D01*
X16281Y2679D01*
Y2740D01*
X16311Y2770D01*
X16372D01*
X16403Y2740D01*
Y2709D01*
X16281D01*
X16586Y2831D02*
Y2649D01*
X16494D01*
X16464Y2679D01*
Y2740D01*
X16494Y2770D01*
X16586D01*
X16890Y2831D02*
Y2649D01*
Y2740D01*
X17012D01*
Y2831D01*
Y2649D01*
X17104D02*
X17165D01*
X17195Y2679D01*
Y2740D01*
X17165Y2770D01*
X17104D01*
X17073Y2740D01*
Y2679D01*
X17104Y2649D01*
X17256D02*
X17317D01*
X17287D01*
Y2831D01*
X17256D01*
X17500Y2649D02*
X17439D01*
X17408Y2679D01*
Y2740D01*
X17439Y2770D01*
X17500D01*
X17530Y2740D01*
Y2709D01*
X17408D01*
X17774Y2831D02*
X17896D01*
X17835D01*
Y2649D01*
X17957Y2770D02*
Y2679D01*
X17987Y2649D01*
X18079D01*
Y2618D01*
X18048Y2588D01*
X18018D01*
X18079Y2649D02*
Y2770D01*
X18140Y2588D02*
Y2770D01*
X18231D01*
X18262Y2740D01*
Y2679D01*
X18231Y2649D01*
X18140D01*
X18414D02*
X18353D01*
X18323Y2679D01*
Y2740D01*
X18353Y2770D01*
X18414D01*
X18444Y2740D01*
Y2709D01*
X18323D01*
X8927Y2923D02*
X18749D01*
X8927Y2511D02*
X18749D01*
X8927Y2923D02*
Y-232D01*
X18749Y2923D02*
Y-232D01*
X10319Y2923D02*
Y-232D01*
X12086Y2923D02*
Y-232D01*
X15499Y2923D02*
Y-232D01*
X16779Y2923D02*
Y-232D01*
X8927Y73D02*
X18749D01*
X8927Y-232D02*
X18749D01*
D68*
X2905Y1508D02*
Y1548D01*
X2946D01*
Y1508D01*
X2905D01*
Y1762D02*
Y1802D01*
X2946D01*
Y1762D01*
X2905D01*
Y2016D02*
Y2056D01*
X2946D01*
Y2016D01*
X2905D01*
Y2270D02*
Y2310D01*
X2946D01*
Y2270D01*
X2905D01*
Y2524D02*
Y2564D01*
X2946D01*
Y2524D01*
X2905D01*
Y2778D02*
Y2818D01*
X2946D01*
Y2778D01*
X2905D01*
Y3032D02*
Y3072D01*
X2946D01*
Y3032D01*
X2905D01*
X2715Y1635D02*
Y1675D01*
X2755D01*
Y1635D01*
X2715D01*
Y1889D02*
Y1929D01*
X2755D01*
Y1889D01*
X2715D01*
Y2143D02*
Y2183D01*
X2755D01*
Y2143D01*
X2715D01*
Y2397D02*
Y2437D01*
X2755D01*
Y2397D01*
X2715D01*
Y2651D02*
Y2691D01*
X2755D01*
Y2651D01*
X2715D01*
Y2905D02*
Y2945D01*
X2755D01*
Y2905D01*
X2715D01*
X2524Y3032D02*
Y3072D01*
X2565D01*
Y3032D01*
X2524D01*
Y2778D02*
Y2818D01*
X2565D01*
Y2778D01*
X2524D01*
Y2524D02*
Y2564D01*
X2565D01*
Y2524D01*
X2524D01*
Y2270D02*
Y2310D01*
X2565D01*
Y2270D01*
X2524D01*
Y2016D02*
Y2056D01*
X2565D01*
Y2016D01*
X2524D01*
Y1762D02*
Y1802D01*
X2565D01*
Y1762D01*
X2524D01*
Y1508D02*
Y1548D01*
X2565D01*
Y1508D01*
X2524D01*
Y1254D02*
Y1294D01*
X2565D01*
Y1254D01*
X2524D01*
X2334Y2917D02*
Y2958D01*
X2374D01*
Y2917D01*
X2334D01*
Y2663D02*
Y2704D01*
X2374D01*
Y2663D01*
X2334D01*
Y2409D02*
Y2450D01*
X2374D01*
Y2409D01*
X2334D01*
Y2155D02*
Y2196D01*
X2374D01*
Y2155D01*
X2334D01*
Y1901D02*
Y1942D01*
X2374D01*
Y1901D01*
X2334D01*
Y1647D02*
Y1688D01*
X2374D01*
Y1647D01*
X2334D01*
Y1393D02*
Y1434D01*
X2374D01*
Y1393D01*
X2334D01*
X2350Y-1849D02*
X2329Y-1808D01*
X2370D01*
X2350Y-1849D01*
X2603D02*
X2583Y-1808D01*
X2624D01*
X2603Y-1849D01*
X2858D02*
X2837Y-1808D01*
X2878D01*
X2858Y-1849D01*
X2350Y-2205D02*
X2329Y-2164D01*
X2370D01*
X2350Y-2205D01*
X2603D02*
X2583Y-2164D01*
X2624D01*
X2603Y-2205D01*
X2858D02*
X2837Y-2164D01*
X2878D01*
X2858Y-2205D01*
X2350Y-1506D02*
X2329Y-1466D01*
X2370D01*
X2350Y-1506D01*
X2603D02*
X2583Y-1466D01*
X2624D01*
X2603Y-1506D01*
X2858D02*
X2837Y-1466D01*
X2878D01*
X2858Y-1506D01*
X-2286Y2520D02*
X-2306Y2560D01*
X-2266D01*
X-2286Y2520D01*
Y2266D02*
X-2306Y2306D01*
X-2266D01*
X-2286Y2266D01*
Y2012D02*
X-2306Y2052D01*
X-2266D01*
X-2286Y2012D01*
Y1758D02*
X-2306Y1798D01*
X-2266D01*
X-2286Y1758D01*
Y1504D02*
X-2306Y1544D01*
X-2266D01*
X-2286Y1504D01*
Y1250D02*
X-2306Y1290D01*
X-2266D01*
X-2286Y1250D01*
Y996D02*
X-2306Y1036D01*
X-2266D01*
X-2286Y996D01*
Y742D02*
X-2306Y782D01*
X-2266D01*
X-2286Y742D01*
Y488D02*
X-2306Y528D01*
X-2266D01*
X-2286Y488D01*
Y234D02*
X-2306Y274D01*
X-2266D01*
X-2286Y234D01*
Y-20D02*
X-2306Y20D01*
X-2266D01*
X-2286Y-20D01*
Y-274D02*
X-2306Y-234D01*
X-2266D01*
X-2286Y-274D01*
Y-528D02*
X-2306Y-488D01*
X-2266D01*
X-2286Y-528D01*
Y-782D02*
X-2306Y-742D01*
X-2266D01*
X-2286Y-782D01*
Y-1036D02*
X-2306Y-996D01*
X-2266D01*
X-2286Y-1036D01*
X1270Y2520D02*
X1250Y2560D01*
X1290D01*
X1270Y2520D01*
Y2266D02*
X1250Y2306D01*
X1290D01*
X1270Y2266D01*
Y2012D02*
X1250Y2052D01*
X1290D01*
X1270Y2012D01*
Y1758D02*
X1250Y1798D01*
X1290D01*
X1270Y1758D01*
Y1504D02*
X1250Y1544D01*
X1290D01*
X1270Y1504D01*
Y1250D02*
X1250Y1290D01*
X1290D01*
X1270Y1250D01*
Y996D02*
X1250Y1036D01*
X1290D01*
X1270Y996D01*
Y742D02*
X1250Y782D01*
X1290D01*
X1270Y742D01*
Y488D02*
X1250Y528D01*
X1290D01*
X1270Y488D01*
Y234D02*
X1250Y274D01*
X1290D01*
X1270Y234D01*
Y-20D02*
X1250Y20D01*
X1290D01*
X1270Y-20D01*
Y-274D02*
X1250Y-234D01*
X1290D01*
X1270Y-274D01*
Y-528D02*
X1250Y-488D01*
X1290D01*
X1270Y-528D01*
Y-782D02*
X1250Y-742D01*
X1290D01*
X1270Y-782D01*
Y-1036D02*
X1250Y-996D01*
X1290D01*
X1270Y-1036D01*
X2637Y76D02*
X2647Y86D01*
X2657D01*
X2647Y96D01*
X2657Y106D01*
X2647D01*
X2637Y116D01*
X2627Y106D01*
X2617D01*
X2627Y96D01*
X2617Y86D01*
X2627D01*
X2637Y76D01*
X-3683Y4176D02*
X-3673Y4196D01*
X-3683Y4216D01*
X-3663Y4206D01*
X-3643Y4216D01*
X-3653Y4196D01*
X-3643Y4176D01*
X-3663Y4186D01*
X-3683Y4176D01*
X1827Y-1639D02*
Y-1649D01*
X1847D01*
Y-1639D01*
X1857D01*
Y-1619D01*
X1847D01*
Y-1609D01*
X1827D01*
Y-1619D01*
X1817D01*
Y-1639D01*
X1827D01*
Y2861D02*
Y2851D01*
X1847D01*
Y2861D01*
X1857D01*
Y2881D01*
X1847D01*
Y2891D01*
X1827D01*
Y2881D01*
X1817D01*
Y2861D01*
X1827D01*
X-2873D02*
Y2851D01*
X-2853D01*
Y2861D01*
X-2843D01*
Y2881D01*
X-2853D01*
Y2891D01*
X-2873D01*
Y2881D01*
X-2883D01*
Y2861D01*
X-2873D01*
Y-1639D02*
Y-1649D01*
X-2853D01*
Y-1639D01*
X-2843D01*
Y-1619D01*
X-2853D01*
Y-1609D01*
X-2873D01*
Y-1619D01*
X-2883D01*
Y-1639D01*
X-2873D01*
X-3663Y76D02*
X-3653Y86D01*
X-3643D01*
X-3653Y96D01*
X-3643Y106D01*
X-3653D01*
X-3663Y116D01*
X-3673Y106D01*
X-3683D01*
X-3673Y96D01*
X-3683Y86D01*
X-3673D01*
X-3663Y76D01*
X2617Y4176D02*
X2627Y4196D01*
X2617Y4216D01*
X2637Y4206D01*
X2657Y4216D01*
X2647Y4196D01*
X2657Y4176D01*
X2637Y4186D01*
X2617Y4176D01*
X2715Y1381D02*
Y1421D01*
X2755D01*
Y1381D01*
X2715D01*
X2905Y1254D02*
Y1294D01*
X2946D01*
Y1254D01*
X2905D01*
X1554Y335D02*
X1565D01*
X1575Y345D01*
X1585Y335D01*
X1595D01*
Y345D01*
X1585Y356D01*
X1595Y366D01*
Y376D01*
X1585D01*
X1575Y366D01*
X1565Y376D01*
X1554D01*
Y366D01*
X1565Y356D01*
X1554Y345D01*
Y335D01*
X1758Y259D02*
X1768D01*
X1778Y269D01*
X1788Y259D01*
X1798D01*
Y269D01*
X1788Y279D01*
X1798Y290D01*
Y300D01*
X1788D01*
X1778Y290D01*
X1768Y300D01*
X1758D01*
Y290D01*
X1768Y279D01*
X1758Y269D01*
Y259D01*
X-1303Y-859D02*
X-1293D01*
X-1283Y-848D01*
X-1273Y-859D01*
X-1262D01*
Y-848D01*
X-1273Y-838D01*
X-1262Y-828D01*
Y-818D01*
X-1273D01*
X-1283Y-828D01*
X-1293Y-818D01*
X-1303D01*
Y-828D01*
X-1293Y-838D01*
X-1303Y-848D01*
Y-859D01*
X-1204Y-906D02*
X-1183Y-886D01*
X-1163Y-906D01*
X-1183Y-927D01*
X-1204Y-906D01*
X-904D02*
X-883Y-886D01*
X-863Y-906D01*
X-883Y-927D01*
X-904Y-906D01*
X-1290Y-224D02*
X-1280D01*
X-1270Y-213D01*
X-1260Y-224D01*
X-1250D01*
Y-213D01*
X-1260Y-203D01*
X-1250Y-193D01*
Y-183D01*
X-1260D01*
X-1270Y-193D01*
X-1280Y-183D01*
X-1290D01*
Y-193D01*
X-1280Y-203D01*
X-1290Y-213D01*
Y-224D01*
X-1204Y-306D02*
X-1183Y-286D01*
X-1163Y-306D01*
X-1183Y-327D01*
X-1204Y-306D01*
X-2027Y-135D02*
X-2017D01*
X-2007Y-124D01*
X-1996Y-135D01*
X-1986D01*
Y-124D01*
X-1996Y-114D01*
X-1986Y-104D01*
Y-94D01*
X-1996D01*
X-2007Y-104D01*
X-2017Y-94D01*
X-2027D01*
Y-104D01*
X-2017Y-114D01*
X-2027Y-124D01*
Y-135D01*
X-1849Y-33D02*
X-1839D01*
X-1829Y-23D01*
X-1819Y-33D01*
X-1808D01*
Y-23D01*
X-1819Y-13D01*
X-1808Y-3D01*
Y8D01*
X-1819D01*
X-1829Y-3D01*
X-1839Y8D01*
X-1849D01*
Y-3D01*
X-1839Y-13D01*
X-1849Y-23D01*
Y-33D01*
X-1804Y-306D02*
X-1783Y-286D01*
X-1763Y-306D01*
X-1783Y-327D01*
X-1804Y-306D01*
X-2104D02*
X-2083Y-286D01*
X-2063Y-306D01*
X-2083Y-327D01*
X-2104Y-306D01*
X-1278Y1377D02*
X-1267D01*
X-1257Y1387D01*
X-1247Y1377D01*
X-1237D01*
Y1387D01*
X-1247Y1397D01*
X-1237Y1407D01*
Y1417D01*
X-1247D01*
X-1257Y1407D01*
X-1267Y1417D01*
X-1278D01*
Y1407D01*
X-1267Y1397D01*
X-1278Y1387D01*
Y1377D01*
X-1379Y1173D02*
X-1369D01*
X-1359Y1184D01*
X-1349Y1173D01*
X-1339D01*
Y1184D01*
X-1349Y1194D01*
X-1339Y1204D01*
Y1214D01*
X-1349D01*
X-1359Y1204D01*
X-1369Y1214D01*
X-1379D01*
Y1204D01*
X-1369Y1194D01*
X-1379Y1184D01*
Y1173D01*
X-1504Y1194D02*
X-1483Y1214D01*
X-1463Y1194D01*
X-1483Y1173D01*
X-1504Y1194D01*
X1046Y1262D02*
X1057D01*
X1067Y1273D01*
X1077Y1262D01*
X1087D01*
Y1273D01*
X1077Y1283D01*
X1087Y1293D01*
Y1303D01*
X1077D01*
X1067Y1293D01*
X1057Y1303D01*
X1046D01*
Y1293D01*
X1057Y1283D01*
X1046Y1273D01*
Y1262D01*
X-1697Y94D02*
X-1687D01*
X-1676Y104D01*
X-1666Y94D01*
X-1656D01*
Y104D01*
X-1666Y114D01*
X-1656Y124D01*
Y135D01*
X-1666D01*
X-1676Y124D01*
X-1687Y135D01*
X-1697D01*
Y124D01*
X-1687Y114D01*
X-1697Y104D01*
Y94D01*
X-1671Y-782D02*
X-1661D01*
X-1651Y-772D01*
X-1641Y-782D01*
X-1631D01*
Y-772D01*
X-1641Y-762D01*
X-1631Y-752D01*
Y-742D01*
X-1641D01*
X-1651Y-752D01*
X-1661Y-742D01*
X-1671D01*
Y-752D01*
X-1661Y-762D01*
X-1671Y-772D01*
Y-782D01*
X-1504Y594D02*
X-1483Y614D01*
X-1463Y594D01*
X-1483Y573D01*
X-1504Y594D01*
X-2104D02*
X-2083Y614D01*
X-2063Y594D01*
X-2083Y573D01*
X-2104Y594D01*
X-2027Y805D02*
X-2017D01*
X-2007Y815D01*
X-1996Y805D01*
X-1986D01*
Y815D01*
X-1996Y826D01*
X-1986Y836D01*
Y846D01*
X-1996D01*
X-2007Y836D01*
X-2017Y846D01*
X-2027D01*
Y836D01*
X-2017Y826D01*
X-2027Y815D01*
Y805D01*
X-1824Y958D02*
X-1814D01*
X-1803Y968D01*
X-1793Y958D01*
X-1783D01*
Y968D01*
X-1793Y978D01*
X-1783Y988D01*
Y998D01*
X-1793D01*
X-1803Y988D01*
X-1814Y998D01*
X-1824D01*
Y988D01*
X-1814Y978D01*
X-1824Y968D01*
Y958D01*
X-1595Y1085D02*
X-1585D01*
X-1575Y1095D01*
X-1565Y1085D01*
X-1554D01*
Y1095D01*
X-1565Y1105D01*
X-1554Y1115D01*
Y1125D01*
X-1565D01*
X-1575Y1115D01*
X-1585Y1125D01*
X-1595D01*
Y1115D01*
X-1585Y1105D01*
X-1595Y1095D01*
Y1085D01*
X-1204Y1194D02*
X-1183Y1214D01*
X-1163Y1194D01*
X-1183Y1173D01*
X-1204Y1194D01*
X-1417Y475D02*
X-1407D01*
X-1397Y485D01*
X-1387Y475D01*
X-1377D01*
Y485D01*
X-1387Y495D01*
X-1377Y505D01*
Y516D01*
X-1387D01*
X-1397Y505D01*
X-1407Y516D01*
X-1417D01*
Y505D01*
X-1407Y495D01*
X-1417Y485D01*
Y475D01*
X-1595Y2253D02*
X-1585D01*
X-1575Y2263D01*
X-1565Y2253D01*
X-1554D01*
Y2263D01*
X-1565Y2273D01*
X-1554Y2283D01*
Y2294D01*
X-1565D01*
X-1575Y2283D01*
X-1585Y2294D01*
X-1595D01*
Y2283D01*
X-1585Y2273D01*
X-1595Y2263D01*
Y2253D01*
X-1204Y1494D02*
X-1183Y1514D01*
X-1163Y1494D01*
X-1183Y1473D01*
X-1204Y1494D01*
X-904D02*
X-883Y1514D01*
X-863Y1494D01*
X-883Y1473D01*
X-904Y1494D01*
X-604D02*
X-583Y1514D01*
X-563Y1494D01*
X-583Y1473D01*
X-604Y1494D01*
X-1900Y-528D02*
X-1890D01*
X-1880Y-518D01*
X-1869Y-528D01*
X-1859D01*
Y-518D01*
X-1869Y-508D01*
X-1859Y-498D01*
Y-488D01*
X-1869D01*
X-1880Y-498D01*
X-1890Y-488D01*
X-1900D01*
Y-498D01*
X-1890Y-508D01*
X-1900Y-518D01*
Y-528D01*
X-1887Y1618D02*
X-1877D01*
X-1867Y1628D01*
X-1857Y1618D01*
X-1847D01*
Y1628D01*
X-1857Y1638D01*
X-1847Y1648D01*
Y1659D01*
X-1857D01*
X-1867Y1648D01*
X-1877Y1659D01*
X-1887D01*
Y1648D01*
X-1877Y1638D01*
X-1887Y1628D01*
Y1618D01*
X-1748Y1212D02*
X-1737D01*
X-1727Y1222D01*
X-1717Y1212D01*
X-1707D01*
Y1222D01*
X-1717Y1232D01*
X-1707Y1242D01*
Y1252D01*
X-1717D01*
X-1727Y1242D01*
X-1737Y1252D01*
X-1748D01*
Y1242D01*
X-1737Y1232D01*
X-1748Y1222D01*
Y1212D01*
Y1834D02*
X-1737D01*
X-1727Y1844D01*
X-1717Y1834D01*
X-1707D01*
Y1844D01*
X-1717Y1854D01*
X-1707Y1864D01*
Y1875D01*
X-1717D01*
X-1727Y1864D01*
X-1737Y1875D01*
X-1748D01*
Y1864D01*
X-1737Y1854D01*
X-1748Y1844D01*
Y1834D01*
X-1504Y-6D02*
X-1483Y14D01*
X-1463Y-6D01*
X-1483Y-27D01*
X-1504Y-6D01*
X-2027Y-1227D02*
X-2017D01*
X-2007Y-1217D01*
X-1996Y-1227D01*
X-1986D01*
Y-1217D01*
X-1996Y-1206D01*
X-1986Y-1196D01*
Y-1186D01*
X-1996D01*
X-2007Y-1196D01*
X-2017Y-1186D01*
X-2027D01*
Y-1196D01*
X-2017Y-1206D01*
X-2027Y-1217D01*
Y-1227D01*
X-2154Y119D02*
X-2144D01*
X-2134Y130D01*
X-2123Y119D01*
X-2113D01*
Y130D01*
X-2123Y140D01*
X-2113Y150D01*
Y160D01*
X-2123D01*
X-2134Y150D01*
X-2144Y160D01*
X-2154D01*
Y150D01*
X-2144Y140D01*
X-2154Y130D01*
Y119D01*
X-2484Y361D02*
X-2474D01*
X-2464Y371D01*
X-2454Y361D01*
X-2443D01*
Y371D01*
X-2454Y381D01*
X-2443Y391D01*
Y401D01*
X-2454D01*
X-2464Y391D01*
X-2474Y401D01*
X-2484D01*
Y391D01*
X-2474Y381D01*
X-2484Y371D01*
Y361D01*
X386Y1008D02*
X396D01*
X406Y1019D01*
X417Y1008D01*
X427D01*
Y1019D01*
X417Y1029D01*
X427Y1039D01*
Y1049D01*
X417D01*
X406Y1039D01*
X396Y1049D01*
X386D01*
Y1039D01*
X396Y1029D01*
X386Y1019D01*
Y1008D01*
X818Y-1913D02*
X828D01*
X838Y-1902D01*
X848Y-1913D01*
X859D01*
Y-1902D01*
X848Y-1892D01*
X859Y-1882D01*
Y-1872D01*
X848D01*
X838Y-1882D01*
X828Y-1872D01*
X818D01*
Y-1882D01*
X828Y-1892D01*
X818Y-1902D01*
Y-1913D01*
X970Y-1379D02*
X980D01*
X991Y-1369D01*
X1001Y-1379D01*
X1011D01*
Y-1369D01*
X1001Y-1359D01*
X1011Y-1349D01*
Y-1339D01*
X1001D01*
X991Y-1349D01*
X980Y-1339D01*
X970D01*
Y-1349D01*
X980Y-1359D01*
X970Y-1369D01*
Y-1379D01*
X500Y742D02*
X511D01*
X521Y752D01*
X531Y742D01*
X541D01*
Y752D01*
X531Y762D01*
X541Y772D01*
Y782D01*
X531D01*
X521Y772D01*
X511Y782D01*
X500D01*
Y772D01*
X511Y762D01*
X500Y752D01*
Y742D01*
X716Y843D02*
X726D01*
X737Y853D01*
X747Y843D01*
X757D01*
Y853D01*
X747Y864D01*
X757Y874D01*
Y884D01*
X747D01*
X737Y874D01*
X726Y884D01*
X716D01*
Y874D01*
X726Y864D01*
X716Y853D01*
Y843D01*
X596Y-906D02*
X617Y-886D01*
X637Y-906D01*
X617Y-927D01*
X596Y-906D01*
X1656Y145D02*
X1666D01*
X1676Y155D01*
X1687Y145D01*
X1697D01*
Y155D01*
X1687Y165D01*
X1697Y175D01*
Y185D01*
X1687D01*
X1676Y175D01*
X1666Y185D01*
X1656D01*
Y175D01*
X1666Y165D01*
X1656Y155D01*
Y145D01*
X2088Y1529D02*
X2098D01*
X2108Y1539D01*
X2118Y1529D01*
X2129D01*
Y1539D01*
X2118Y1549D01*
X2129Y1560D01*
Y1570D01*
X2118D01*
X2108Y1560D01*
X2098Y1570D01*
X2088D01*
Y1560D01*
X2098Y1549D01*
X2088Y1539D01*
Y1529D01*
X1491Y622D02*
X1511Y643D01*
X1532Y622D01*
X1511Y602D01*
X1491Y622D01*
X2096Y1194D02*
X2117Y1214D01*
X2137Y1194D01*
X2117Y1173D01*
X2096Y1194D01*
X596Y2094D02*
X617Y2114D01*
X637Y2094D01*
X617Y2073D01*
X596Y2094D01*
X-2776Y1148D02*
X-2766D01*
X-2756Y1158D01*
X-2746Y1148D01*
X-2736D01*
Y1158D01*
X-2746Y1168D01*
X-2736Y1179D01*
Y1189D01*
X-2746D01*
X-2756Y1179D01*
X-2766Y1189D01*
X-2776D01*
Y1179D01*
X-2766Y1168D01*
X-2776Y1158D01*
Y1148D01*
X-2598Y1326D02*
X-2588D01*
X-2578Y1336D01*
X-2568Y1326D01*
X-2558D01*
Y1336D01*
X-2568Y1346D01*
X-2558Y1356D01*
Y1367D01*
X-2568D01*
X-2578Y1356D01*
X-2588Y1367D01*
X-2598D01*
Y1356D01*
X-2588Y1346D01*
X-2598Y1336D01*
Y1326D01*
X-2725Y-820D02*
X-2715D01*
X-2705Y-810D01*
X-2695Y-820D01*
X-2685D01*
Y-810D01*
X-2695Y-800D01*
X-2685Y-790D01*
Y-780D01*
X-2695D01*
X-2705Y-790D01*
X-2715Y-780D01*
X-2725D01*
Y-790D01*
X-2715Y-800D01*
X-2725Y-810D01*
Y-820D01*
X2996Y4494D02*
X3017Y4514D01*
X3037Y4494D01*
X3017Y4473D01*
X2996Y4494D01*
Y4194D02*
X3017Y4214D01*
X3037Y4194D01*
X3017Y4173D01*
X2996Y4194D01*
Y3894D02*
X3017Y3914D01*
X3037Y3894D01*
X3017Y3873D01*
X2996Y3894D01*
Y3594D02*
X3017Y3614D01*
X3037Y3594D01*
X3017Y3573D01*
X2996Y3594D01*
Y3294D02*
X3017Y3314D01*
X3037Y3294D01*
X3017Y3273D01*
X2996Y3294D01*
Y2694D02*
X3017Y2714D01*
X3037Y2694D01*
X3017Y2673D01*
X2996Y2694D01*
Y2394D02*
X3017Y2414D01*
X3037Y2394D01*
X3017Y2373D01*
X2996Y2394D01*
Y-1206D02*
X3017Y-1186D01*
X3037Y-1206D01*
X3017Y-1227D01*
X2996Y-1206D01*
Y-1506D02*
X3017Y-1486D01*
X3037Y-1506D01*
X3017Y-1527D01*
X2996Y-1506D01*
Y-1806D02*
X3017Y-1786D01*
X3037Y-1806D01*
X3017Y-1827D01*
X2996Y-1806D01*
Y-2106D02*
X3017Y-2086D01*
X3037Y-2106D01*
X3017Y-2127D01*
X2996Y-2106D01*
Y-2406D02*
X3017Y-2386D01*
X3037Y-2406D01*
X3017Y-2427D01*
X2996Y-2406D01*
Y-2706D02*
X3017Y-2686D01*
X3037Y-2706D01*
X3017Y-2727D01*
X2996Y-2706D01*
Y-3006D02*
X3017Y-2986D01*
X3037Y-3006D01*
X3017Y-3027D01*
X2996Y-3006D01*
Y-3306D02*
X3017Y-3286D01*
X3037Y-3306D01*
X3017Y-3327D01*
X2996Y-3306D01*
X2696Y4494D02*
X2717Y4514D01*
X2737Y4494D01*
X2717Y4473D01*
X2696Y4494D01*
Y3894D02*
X2717Y3914D01*
X2737Y3894D01*
X2717Y3873D01*
X2696Y3894D01*
Y3294D02*
X2717Y3314D01*
X2737Y3294D01*
X2717Y3273D01*
X2696Y3294D01*
Y1794D02*
X2717Y1814D01*
X2737Y1794D01*
X2717Y1773D01*
X2696Y1794D01*
Y-1206D02*
X2717Y-1186D01*
X2737Y-1206D01*
X2717Y-1227D01*
X2696Y-1206D01*
Y-2106D02*
X2717Y-2086D01*
X2737Y-2106D01*
X2717Y-2127D01*
X2696Y-2106D01*
Y-2406D02*
X2717Y-2386D01*
X2737Y-2406D01*
X2717Y-2427D01*
X2696Y-2406D01*
Y-2706D02*
X2717Y-2686D01*
X2737Y-2706D01*
X2717Y-2727D01*
X2696Y-2706D01*
Y-3006D02*
X2717Y-2986D01*
X2737Y-3006D01*
X2717Y-3027D01*
X2696Y-3006D01*
Y-3306D02*
X2717Y-3286D01*
X2737Y-3306D01*
X2717Y-3327D01*
X2696Y-3306D01*
X2396Y4194D02*
X2417Y4214D01*
X2437Y4194D01*
X2417Y4173D01*
X2396Y4194D01*
Y3894D02*
X2417Y3914D01*
X2437Y3894D01*
X2417Y3873D01*
X2396Y3894D01*
Y3594D02*
X2417Y3614D01*
X2437Y3594D01*
X2417Y3573D01*
X2396Y3594D01*
Y3294D02*
X2417Y3314D01*
X2437Y3294D01*
X2417Y3273D01*
X2396Y3294D01*
Y594D02*
X2417Y614D01*
X2437Y594D01*
X2417Y573D01*
X2396Y594D01*
Y-2406D02*
X2417Y-2386D01*
X2437Y-2406D01*
X2417Y-2427D01*
X2396Y-2406D01*
Y-2706D02*
X2417Y-2686D01*
X2437Y-2706D01*
X2417Y-2727D01*
X2396Y-2706D01*
Y-3006D02*
X2417Y-2986D01*
X2437Y-3006D01*
X2417Y-3027D01*
X2396Y-3006D01*
X2096Y4194D02*
X2117Y4214D01*
X2137Y4194D01*
X2117Y4173D01*
X2096Y4194D01*
Y3894D02*
X2117Y3914D01*
X2137Y3894D01*
X2117Y3873D01*
X2096Y3894D01*
Y3594D02*
X2117Y3614D01*
X2137Y3594D01*
X2117Y3573D01*
X2096Y3594D01*
Y3294D02*
X2117Y3314D01*
X2137Y3294D01*
X2117Y3273D01*
X2096Y3294D01*
Y2994D02*
X2117Y3014D01*
X2137Y2994D01*
X2117Y2973D01*
X2096Y2994D01*
Y-1506D02*
X2117Y-1486D01*
X2137Y-1506D01*
X2117Y-1527D01*
X2096Y-1506D01*
Y-1806D02*
X2117Y-1786D01*
X2137Y-1806D01*
X2117Y-1827D01*
X2096Y-1806D01*
Y-2106D02*
X2117Y-2086D01*
X2137Y-2106D01*
X2117Y-2127D01*
X2096Y-2106D01*
Y-2406D02*
X2117Y-2386D01*
X2137Y-2406D01*
X2117Y-2427D01*
X2096Y-2406D01*
Y-2706D02*
X2117Y-2686D01*
X2137Y-2706D01*
X2117Y-2727D01*
X2096Y-2706D01*
Y-3006D02*
X2117Y-2986D01*
X2137Y-3006D01*
X2117Y-3027D01*
X2096Y-3006D01*
X1796Y3894D02*
X1817Y3914D01*
X1837Y3894D01*
X1817Y3873D01*
X1796Y3894D01*
Y3594D02*
X1817Y3614D01*
X1837Y3594D01*
X1817Y3573D01*
X1796Y3594D01*
Y3294D02*
X1817Y3314D01*
X1837Y3294D01*
X1817Y3273D01*
X1796Y3294D01*
Y-1206D02*
X1817Y-1186D01*
X1837Y-1206D01*
X1817Y-1227D01*
X1796Y-1206D01*
Y-2106D02*
X1817Y-2086D01*
X1837Y-2106D01*
X1817Y-2127D01*
X1796Y-2106D01*
Y-2406D02*
X1817Y-2386D01*
X1837Y-2406D01*
X1817Y-2427D01*
X1796Y-2406D01*
Y-2706D02*
X1817Y-2686D01*
X1837Y-2706D01*
X1817Y-2727D01*
X1796Y-2706D01*
X1496Y3894D02*
X1517Y3914D01*
X1537Y3894D01*
X1517Y3873D01*
X1496Y3894D01*
Y3594D02*
X1517Y3614D01*
X1537Y3594D01*
X1517Y3573D01*
X1496Y3594D01*
Y3294D02*
X1517Y3314D01*
X1537Y3294D01*
X1517Y3273D01*
X1496Y3294D01*
Y2694D02*
X1517Y2714D01*
X1537Y2694D01*
X1517Y2673D01*
X1496Y2694D01*
Y-1206D02*
X1517Y-1186D01*
X1537Y-1206D01*
X1517Y-1227D01*
X1496Y-1206D01*
Y-1506D02*
X1517Y-1486D01*
X1537Y-1506D01*
X1517Y-1527D01*
X1496Y-1506D01*
Y-1806D02*
X1517Y-1786D01*
X1537Y-1806D01*
X1517Y-1827D01*
X1496Y-1806D01*
Y-2406D02*
X1517Y-2386D01*
X1537Y-2406D01*
X1517Y-2427D01*
X1496Y-2406D01*
Y-2706D02*
X1517Y-2686D01*
X1537Y-2706D01*
X1517Y-2727D01*
X1496Y-2706D01*
X1196Y3594D02*
X1217Y3614D01*
X1237Y3594D01*
X1217Y3573D01*
X1196Y3594D01*
Y3294D02*
X1217Y3314D01*
X1237Y3294D01*
X1217Y3273D01*
X1196Y3294D01*
Y-1206D02*
X1217Y-1186D01*
X1237Y-1206D01*
X1217Y-1227D01*
X1196Y-1206D01*
Y-1506D02*
X1217Y-1486D01*
X1237Y-1506D01*
X1217Y-1527D01*
X1196Y-1506D01*
Y-1806D02*
X1217Y-1786D01*
X1237Y-1806D01*
X1217Y-1827D01*
X1196Y-1806D01*
Y-2106D02*
X1217Y-2086D01*
X1237Y-2106D01*
X1217Y-2127D01*
X1196Y-2106D01*
Y-2406D02*
X1217Y-2386D01*
X1237Y-2406D01*
X1217Y-2427D01*
X1196Y-2406D01*
X896Y3594D02*
X917Y3614D01*
X937Y3594D01*
X917Y3573D01*
X896Y3594D01*
Y3294D02*
X917Y3314D01*
X937Y3294D01*
X917Y3273D01*
X896Y3294D01*
Y2994D02*
X917Y3014D01*
X937Y2994D01*
X917Y2973D01*
X896Y2994D01*
Y2694D02*
X917Y2714D01*
X937Y2694D01*
X917Y2673D01*
X896Y2694D01*
Y2094D02*
X917Y2114D01*
X937Y2094D01*
X917Y2073D01*
X896Y2094D01*
Y1494D02*
X917Y1514D01*
X937Y1494D01*
X917Y1473D01*
X896Y1494D01*
Y294D02*
X917Y314D01*
X937Y294D01*
X917Y273D01*
X896Y294D01*
Y-6D02*
X917Y14D01*
X937Y-6D01*
X917Y-27D01*
X896Y-6D01*
Y-606D02*
X917Y-586D01*
X937Y-606D01*
X917Y-627D01*
X896Y-606D01*
Y-906D02*
X917Y-886D01*
X937Y-906D01*
X917Y-927D01*
X896Y-906D01*
Y-1206D02*
X917Y-1186D01*
X937Y-1206D01*
X917Y-1227D01*
X896Y-1206D01*
Y-1506D02*
X917Y-1486D01*
X937Y-1506D01*
X917Y-1527D01*
X896Y-1506D01*
Y-1806D02*
X917Y-1786D01*
X937Y-1806D01*
X917Y-1827D01*
X896Y-1806D01*
Y-2106D02*
X917Y-2086D01*
X937Y-2106D01*
X917Y-2127D01*
X896Y-2106D01*
Y-2406D02*
X917Y-2386D01*
X937Y-2406D01*
X917Y-2427D01*
X896Y-2406D01*
X596Y3594D02*
X617Y3614D01*
X637Y3594D01*
X617Y3573D01*
X596Y3594D01*
Y3294D02*
X617Y3314D01*
X637Y3294D01*
X617Y3273D01*
X596Y3294D01*
Y2994D02*
X617Y3014D01*
X637Y2994D01*
X617Y2973D01*
X596Y2994D01*
Y2694D02*
X617Y2714D01*
X637Y2694D01*
X617Y2673D01*
X596Y2694D01*
Y1494D02*
X617Y1514D01*
X637Y1494D01*
X617Y1473D01*
X596Y1494D01*
Y894D02*
X617Y914D01*
X637Y894D01*
X617Y873D01*
X596Y894D01*
Y594D02*
X617Y614D01*
X637Y594D01*
X617Y573D01*
X596Y594D01*
Y-6D02*
X617Y14D01*
X637Y-6D01*
X617Y-27D01*
X596Y-6D01*
Y-306D02*
X617Y-286D01*
X637Y-306D01*
X617Y-327D01*
X596Y-306D01*
Y-606D02*
X617Y-586D01*
X637Y-606D01*
X617Y-627D01*
X596Y-606D01*
Y-1206D02*
X617Y-1186D01*
X637Y-1206D01*
X617Y-1227D01*
X596Y-1206D01*
Y-1506D02*
X617Y-1486D01*
X637Y-1506D01*
X617Y-1527D01*
X596Y-1506D01*
Y-1806D02*
X617Y-1786D01*
X637Y-1806D01*
X617Y-1827D01*
X596Y-1806D01*
Y-2106D02*
X617Y-2086D01*
X637Y-2106D01*
X617Y-2127D01*
X596Y-2106D01*
Y-2406D02*
X617Y-2386D01*
X637Y-2406D01*
X617Y-2427D01*
X596Y-2406D01*
X296Y3594D02*
X317Y3614D01*
X337Y3594D01*
X317Y3573D01*
X296Y3594D01*
Y3294D02*
X317Y3314D01*
X337Y3294D01*
X317Y3273D01*
X296Y3294D01*
Y2994D02*
X317Y3014D01*
X337Y2994D01*
X317Y2973D01*
X296Y2994D01*
Y2694D02*
X317Y2714D01*
X337Y2694D01*
X317Y2673D01*
X296Y2694D01*
Y2094D02*
X317Y2114D01*
X337Y2094D01*
X317Y2073D01*
X296Y2094D01*
Y1494D02*
X317Y1514D01*
X337Y1494D01*
X317Y1473D01*
X296Y1494D01*
Y894D02*
X317Y914D01*
X337Y894D01*
X317Y873D01*
X296Y894D01*
Y594D02*
X317Y614D01*
X337Y594D01*
X317Y573D01*
X296Y594D01*
Y-6D02*
X317Y14D01*
X337Y-6D01*
X317Y-27D01*
X296Y-6D01*
Y-306D02*
X317Y-286D01*
X337Y-306D01*
X317Y-327D01*
X296Y-306D01*
Y-606D02*
X317Y-586D01*
X337Y-606D01*
X317Y-627D01*
X296Y-606D01*
Y-906D02*
X317Y-886D01*
X337Y-906D01*
X317Y-927D01*
X296Y-906D01*
Y-1206D02*
X317Y-1186D01*
X337Y-1206D01*
X317Y-1227D01*
X296Y-1206D01*
Y-1506D02*
X317Y-1486D01*
X337Y-1506D01*
X317Y-1527D01*
X296Y-1506D01*
Y-1806D02*
X317Y-1786D01*
X337Y-1806D01*
X317Y-1827D01*
X296Y-1806D01*
Y-2106D02*
X317Y-2086D01*
X337Y-2106D01*
X317Y-2127D01*
X296Y-2106D01*
Y-2406D02*
X317Y-2386D01*
X337Y-2406D01*
X317Y-2427D01*
X296Y-2406D01*
X-4Y3594D02*
X17Y3614D01*
X37Y3594D01*
X17Y3573D01*
X-4Y3594D01*
Y3294D02*
X17Y3314D01*
X37Y3294D01*
X17Y3273D01*
X-4Y3294D01*
Y2994D02*
X17Y3014D01*
X37Y2994D01*
X17Y2973D01*
X-4Y2994D01*
Y2694D02*
X17Y2714D01*
X37Y2694D01*
X17Y2673D01*
X-4Y2694D01*
Y2094D02*
X17Y2114D01*
X37Y2094D01*
X17Y2073D01*
X-4Y2094D01*
Y1494D02*
X17Y1514D01*
X37Y1494D01*
X17Y1473D01*
X-4Y1494D01*
Y894D02*
X17Y914D01*
X37Y894D01*
X17Y873D01*
X-4Y894D01*
Y594D02*
X17Y614D01*
X37Y594D01*
X17Y573D01*
X-4Y594D01*
Y-6D02*
X17Y14D01*
X37Y-6D01*
X17Y-27D01*
X-4Y-6D01*
Y-306D02*
X17Y-286D01*
X37Y-306D01*
X17Y-327D01*
X-4Y-306D01*
Y-606D02*
X17Y-586D01*
X37Y-606D01*
X17Y-627D01*
X-4Y-606D01*
Y-906D02*
X17Y-886D01*
X37Y-906D01*
X17Y-927D01*
X-4Y-906D01*
Y-1206D02*
X17Y-1186D01*
X37Y-1206D01*
X17Y-1227D01*
X-4Y-1206D01*
Y-1506D02*
X17Y-1486D01*
X37Y-1506D01*
X17Y-1527D01*
X-4Y-1506D01*
Y-1806D02*
X17Y-1786D01*
X37Y-1806D01*
X17Y-1827D01*
X-4Y-1806D01*
Y-2106D02*
X17Y-2086D01*
X37Y-2106D01*
X17Y-2127D01*
X-4Y-2106D01*
X-304Y3294D02*
X-283Y3314D01*
X-263Y3294D01*
X-283Y3273D01*
X-304Y3294D01*
Y2994D02*
X-283Y3014D01*
X-263Y2994D01*
X-283Y2973D01*
X-304Y2994D01*
Y2694D02*
X-283Y2714D01*
X-263Y2694D01*
X-283Y2673D01*
X-304Y2694D01*
Y2094D02*
X-283Y2114D01*
X-263Y2094D01*
X-283Y2073D01*
X-304Y2094D01*
Y1494D02*
X-283Y1514D01*
X-263Y1494D01*
X-283Y1473D01*
X-304Y1494D01*
Y894D02*
X-283Y914D01*
X-263Y894D01*
X-283Y873D01*
X-304Y894D01*
Y594D02*
X-283Y614D01*
X-263Y594D01*
X-283Y573D01*
X-304Y594D01*
Y-6D02*
X-283Y14D01*
X-263Y-6D01*
X-283Y-27D01*
X-304Y-6D01*
Y-306D02*
X-283Y-286D01*
X-263Y-306D01*
X-283Y-327D01*
X-304Y-306D01*
Y-606D02*
X-283Y-586D01*
X-263Y-606D01*
X-283Y-627D01*
X-304Y-606D01*
Y-906D02*
X-283Y-886D01*
X-263Y-906D01*
X-283Y-927D01*
X-304Y-906D01*
Y-1206D02*
X-283Y-1186D01*
X-263Y-1206D01*
X-283Y-1227D01*
X-304Y-1206D01*
Y-1506D02*
X-283Y-1486D01*
X-263Y-1506D01*
X-283Y-1527D01*
X-304Y-1506D01*
Y-1806D02*
X-283Y-1786D01*
X-263Y-1806D01*
X-283Y-1827D01*
X-304Y-1806D01*
Y-2106D02*
X-283Y-2086D01*
X-263Y-2106D01*
X-283Y-2127D01*
X-304Y-2106D01*
X-604Y3294D02*
X-583Y3314D01*
X-563Y3294D01*
X-583Y3273D01*
X-604Y3294D01*
Y2994D02*
X-583Y3014D01*
X-563Y2994D01*
X-583Y2973D01*
X-604Y2994D01*
Y2694D02*
X-583Y2714D01*
X-563Y2694D01*
X-583Y2673D01*
X-604Y2694D01*
Y2094D02*
X-583Y2114D01*
X-563Y2094D01*
X-583Y2073D01*
X-604Y2094D01*
Y594D02*
X-583Y614D01*
X-563Y594D01*
X-583Y573D01*
X-604Y594D01*
Y-6D02*
X-583Y14D01*
X-563Y-6D01*
X-583Y-27D01*
X-604Y-6D01*
Y-306D02*
X-583Y-286D01*
X-563Y-306D01*
X-583Y-327D01*
X-604Y-306D01*
Y-606D02*
X-583Y-586D01*
X-563Y-606D01*
X-583Y-627D01*
X-604Y-606D01*
Y-906D02*
X-583Y-886D01*
X-563Y-906D01*
X-583Y-927D01*
X-604Y-906D01*
Y-1206D02*
X-583Y-1186D01*
X-563Y-1206D01*
X-583Y-1227D01*
X-604Y-1206D01*
Y-1506D02*
X-583Y-1486D01*
X-563Y-1506D01*
X-583Y-1527D01*
X-604Y-1506D01*
Y-1806D02*
X-583Y-1786D01*
X-563Y-1806D01*
X-583Y-1827D01*
X-604Y-1806D01*
Y-2106D02*
X-583Y-2086D01*
X-563Y-2106D01*
X-583Y-2127D01*
X-604Y-2106D01*
X-904Y3594D02*
X-883Y3614D01*
X-863Y3594D01*
X-883Y3573D01*
X-904Y3594D01*
Y3294D02*
X-883Y3314D01*
X-863Y3294D01*
X-883Y3273D01*
X-904Y3294D01*
Y2994D02*
X-883Y3014D01*
X-863Y2994D01*
X-883Y2973D01*
X-904Y2994D01*
Y2694D02*
X-883Y2714D01*
X-863Y2694D01*
X-883Y2673D01*
X-904Y2694D01*
Y2094D02*
X-883Y2114D01*
X-863Y2094D01*
X-883Y2073D01*
X-904Y2094D01*
Y594D02*
X-883Y614D01*
X-863Y594D01*
X-883Y573D01*
X-904Y594D01*
Y-6D02*
X-883Y14D01*
X-863Y-6D01*
X-883Y-27D01*
X-904Y-6D01*
Y-306D02*
X-883Y-286D01*
X-863Y-306D01*
X-883Y-327D01*
X-904Y-306D01*
Y-606D02*
X-883Y-586D01*
X-863Y-606D01*
X-883Y-627D01*
X-904Y-606D01*
Y-1206D02*
X-883Y-1186D01*
X-863Y-1206D01*
X-883Y-1227D01*
X-904Y-1206D01*
Y-1506D02*
X-883Y-1486D01*
X-863Y-1506D01*
X-883Y-1527D01*
X-904Y-1506D01*
Y-1806D02*
X-883Y-1786D01*
X-863Y-1806D01*
X-883Y-1827D01*
X-904Y-1806D01*
Y-2106D02*
X-883Y-2086D01*
X-863Y-2106D01*
X-883Y-2127D01*
X-904Y-2106D01*
X-1204Y3594D02*
X-1183Y3614D01*
X-1163Y3594D01*
X-1183Y3573D01*
X-1204Y3594D01*
Y3294D02*
X-1183Y3314D01*
X-1163Y3294D01*
X-1183Y3273D01*
X-1204Y3294D01*
Y2994D02*
X-1183Y3014D01*
X-1163Y2994D01*
X-1183Y2973D01*
X-1204Y2994D01*
Y2694D02*
X-1183Y2714D01*
X-1163Y2694D01*
X-1183Y2673D01*
X-1204Y2694D01*
Y2094D02*
X-1183Y2114D01*
X-1163Y2094D01*
X-1183Y2073D01*
X-1204Y2094D01*
Y-6D02*
X-1183Y14D01*
X-1163Y-6D01*
X-1183Y-27D01*
X-1204Y-6D01*
Y-606D02*
X-1183Y-586D01*
X-1163Y-606D01*
X-1183Y-627D01*
X-1204Y-606D01*
Y-1206D02*
X-1183Y-1186D01*
X-1163Y-1206D01*
X-1183Y-1227D01*
X-1204Y-1206D01*
Y-1506D02*
X-1183Y-1486D01*
X-1163Y-1506D01*
X-1183Y-1527D01*
X-1204Y-1506D01*
Y-1806D02*
X-1183Y-1786D01*
X-1163Y-1806D01*
X-1183Y-1827D01*
X-1204Y-1806D01*
Y-2106D02*
X-1183Y-2086D01*
X-1163Y-2106D01*
X-1183Y-2127D01*
X-1204Y-2106D01*
X-1504Y3594D02*
X-1483Y3614D01*
X-1463Y3594D01*
X-1483Y3573D01*
X-1504Y3594D01*
Y3294D02*
X-1483Y3314D01*
X-1463Y3294D01*
X-1483Y3273D01*
X-1504Y3294D01*
Y2994D02*
X-1483Y3014D01*
X-1463Y2994D01*
X-1483Y2973D01*
X-1504Y2994D01*
Y2694D02*
X-1483Y2714D01*
X-1463Y2694D01*
X-1483Y2673D01*
X-1504Y2694D01*
Y2094D02*
X-1483Y2114D01*
X-1463Y2094D01*
X-1483Y2073D01*
X-1504Y2094D01*
Y1494D02*
X-1483Y1514D01*
X-1463Y1494D01*
X-1483Y1473D01*
X-1504Y1494D01*
Y-1206D02*
X-1483Y-1186D01*
X-1463Y-1206D01*
X-1483Y-1227D01*
X-1504Y-1206D01*
Y-1506D02*
X-1483Y-1486D01*
X-1463Y-1506D01*
X-1483Y-1527D01*
X-1504Y-1506D01*
Y-1806D02*
X-1483Y-1786D01*
X-1463Y-1806D01*
X-1483Y-1827D01*
X-1504Y-1806D01*
Y-2106D02*
X-1483Y-2086D01*
X-1463Y-2106D01*
X-1483Y-2127D01*
X-1504Y-2106D01*
Y-2406D02*
X-1483Y-2386D01*
X-1463Y-2406D01*
X-1483Y-2427D01*
X-1504Y-2406D01*
X-1804Y3594D02*
X-1783Y3614D01*
X-1763Y3594D01*
X-1783Y3573D01*
X-1804Y3594D01*
Y3294D02*
X-1783Y3314D01*
X-1763Y3294D01*
X-1783Y3273D01*
X-1804Y3294D01*
Y2994D02*
X-1783Y3014D01*
X-1763Y2994D01*
X-1783Y2973D01*
X-1804Y2994D01*
Y2694D02*
X-1783Y2714D01*
X-1763Y2694D01*
X-1783Y2673D01*
X-1804Y2694D01*
Y2094D02*
X-1783Y2114D01*
X-1763Y2094D01*
X-1783Y2073D01*
X-1804Y2094D01*
Y-1506D02*
X-1783Y-1486D01*
X-1763Y-1506D01*
X-1783Y-1527D01*
X-1804Y-1506D01*
Y-1806D02*
X-1783Y-1786D01*
X-1763Y-1806D01*
X-1783Y-1827D01*
X-1804Y-1806D01*
Y-2106D02*
X-1783Y-2086D01*
X-1763Y-2106D01*
X-1783Y-2127D01*
X-1804Y-2106D01*
Y-2406D02*
X-1783Y-2386D01*
X-1763Y-2406D01*
X-1783Y-2427D01*
X-1804Y-2406D01*
X-2104Y3594D02*
X-2083Y3614D01*
X-2063Y3594D01*
X-2083Y3573D01*
X-2104Y3594D01*
Y-1506D02*
X-2083Y-1486D01*
X-2063Y-1506D01*
X-2083Y-1527D01*
X-2104Y-1506D01*
Y-1806D02*
X-2083Y-1786D01*
X-2063Y-1806D01*
X-2083Y-1827D01*
X-2104Y-1806D01*
Y-2106D02*
X-2083Y-2086D01*
X-2063Y-2106D01*
X-2083Y-2127D01*
X-2104Y-2106D01*
Y-2406D02*
X-2083Y-2386D01*
X-2063Y-2406D01*
X-2083Y-2427D01*
X-2104Y-2406D01*
X-2404Y3894D02*
X-2383Y3914D01*
X-2363Y3894D01*
X-2383Y3873D01*
X-2404Y3894D01*
Y3594D02*
X-2383Y3614D01*
X-2363Y3594D01*
X-2383Y3573D01*
X-2404Y3594D01*
Y2994D02*
X-2383Y3014D01*
X-2363Y2994D01*
X-2383Y2973D01*
X-2404Y2994D01*
Y2694D02*
X-2383Y2714D01*
X-2363Y2694D01*
X-2383Y2673D01*
X-2404Y2694D01*
Y2394D02*
X-2383Y2414D01*
X-2363Y2394D01*
X-2383Y2373D01*
X-2404Y2394D01*
Y894D02*
X-2383Y914D01*
X-2363Y894D01*
X-2383Y873D01*
X-2404Y894D01*
Y594D02*
X-2383Y614D01*
X-2363Y594D01*
X-2383Y573D01*
X-2404Y594D01*
Y-1506D02*
X-2383Y-1486D01*
X-2363Y-1506D01*
X-2383Y-1527D01*
X-2404Y-1506D01*
Y-1806D02*
X-2383Y-1786D01*
X-2363Y-1806D01*
X-2383Y-1827D01*
X-2404Y-1806D01*
Y-2106D02*
X-2383Y-2086D01*
X-2363Y-2106D01*
X-2383Y-2127D01*
X-2404Y-2106D01*
Y-2406D02*
X-2383Y-2386D01*
X-2363Y-2406D01*
X-2383Y-2427D01*
X-2404Y-2406D01*
X-2704Y3894D02*
X-2683Y3914D01*
X-2663Y3894D01*
X-2683Y3873D01*
X-2704Y3894D01*
Y3594D02*
X-2683Y3614D01*
X-2663Y3594D01*
X-2683Y3573D01*
X-2704Y3594D01*
Y2994D02*
X-2683Y3014D01*
X-2663Y2994D01*
X-2683Y2973D01*
X-2704Y2994D01*
Y2694D02*
X-2683Y2714D01*
X-2663Y2694D01*
X-2683Y2673D01*
X-2704Y2694D01*
Y2394D02*
X-2683Y2414D01*
X-2663Y2394D01*
X-2683Y2373D01*
X-2704Y2394D01*
Y2094D02*
X-2683Y2114D01*
X-2663Y2094D01*
X-2683Y2073D01*
X-2704Y2094D01*
Y894D02*
X-2683Y914D01*
X-2663Y894D01*
X-2683Y873D01*
X-2704Y894D01*
Y-306D02*
X-2683Y-286D01*
X-2663Y-306D01*
X-2683Y-327D01*
X-2704Y-306D01*
Y-1206D02*
X-2683Y-1186D01*
X-2663Y-1206D01*
X-2683Y-1227D01*
X-2704Y-1206D01*
Y-1506D02*
X-2683Y-1486D01*
X-2663Y-1506D01*
X-2683Y-1527D01*
X-2704Y-1506D01*
Y-1806D02*
X-2683Y-1786D01*
X-2663Y-1806D01*
X-2683Y-1827D01*
X-2704Y-1806D01*
Y-2106D02*
X-2683Y-2086D01*
X-2663Y-2106D01*
X-2683Y-2127D01*
X-2704Y-2106D01*
Y-2406D02*
X-2683Y-2386D01*
X-2663Y-2406D01*
X-2683Y-2427D01*
X-2704Y-2406D01*
Y-2706D02*
X-2683Y-2686D01*
X-2663Y-2706D01*
X-2683Y-2727D01*
X-2704Y-2706D01*
X-3004Y3894D02*
X-2983Y3914D01*
X-2963Y3894D01*
X-2983Y3873D01*
X-3004Y3894D01*
Y3594D02*
X-2983Y3614D01*
X-2963Y3594D01*
X-2983Y3573D01*
X-3004Y3594D01*
Y2694D02*
X-2983Y2714D01*
X-2963Y2694D01*
X-2983Y2673D01*
X-3004Y2694D01*
Y2394D02*
X-2983Y2414D01*
X-2963Y2394D01*
X-2983Y2373D01*
X-3004Y2394D01*
Y2094D02*
X-2983Y2114D01*
X-2963Y2094D01*
X-2983Y2073D01*
X-3004Y2094D01*
Y1794D02*
X-2983Y1814D01*
X-2963Y1794D01*
X-2983Y1773D01*
X-3004Y1794D01*
Y894D02*
X-2983Y914D01*
X-2963Y894D01*
X-2983Y873D01*
X-3004Y894D01*
Y594D02*
X-2983Y614D01*
X-2963Y594D01*
X-2983Y573D01*
X-3004Y594D01*
Y294D02*
X-2983Y314D01*
X-2963Y294D01*
X-2983Y273D01*
X-3004Y294D01*
Y-6D02*
X-2983Y14D01*
X-2963Y-6D01*
X-2983Y-27D01*
X-3004Y-6D01*
Y-306D02*
X-2983Y-286D01*
X-2963Y-306D01*
X-2983Y-327D01*
X-3004Y-306D01*
Y-606D02*
X-2983Y-586D01*
X-2963Y-606D01*
X-2983Y-627D01*
X-3004Y-606D01*
Y-906D02*
X-2983Y-886D01*
X-2963Y-906D01*
X-2983Y-927D01*
X-3004Y-906D01*
Y-1206D02*
X-2983Y-1186D01*
X-2963Y-1206D01*
X-2983Y-1227D01*
X-3004Y-1206D01*
Y-1806D02*
X-2983Y-1786D01*
X-2963Y-1806D01*
X-2983Y-1827D01*
X-3004Y-1806D01*
Y-2106D02*
X-2983Y-2086D01*
X-2963Y-2106D01*
X-2983Y-2127D01*
X-3004Y-2106D01*
Y-2406D02*
X-2983Y-2386D01*
X-2963Y-2406D01*
X-2983Y-2427D01*
X-3004Y-2406D01*
Y-2706D02*
X-2983Y-2686D01*
X-2963Y-2706D01*
X-2983Y-2727D01*
X-3004Y-2706D01*
X-3304Y4194D02*
X-3283Y4214D01*
X-3263Y4194D01*
X-3283Y4173D01*
X-3304Y4194D01*
Y3894D02*
X-3283Y3914D01*
X-3263Y3894D01*
X-3283Y3873D01*
X-3304Y3894D01*
Y3594D02*
X-3283Y3614D01*
X-3263Y3594D01*
X-3283Y3573D01*
X-3304Y3594D01*
Y2094D02*
X-3283Y2114D01*
X-3263Y2094D01*
X-3283Y2073D01*
X-3304Y2094D01*
Y1794D02*
X-3283Y1814D01*
X-3263Y1794D01*
X-3283Y1773D01*
X-3304Y1794D01*
Y894D02*
X-3283Y914D01*
X-3263Y894D01*
X-3283Y873D01*
X-3304Y894D01*
Y594D02*
X-3283Y614D01*
X-3263Y594D01*
X-3283Y573D01*
X-3304Y594D01*
Y294D02*
X-3283Y314D01*
X-3263Y294D01*
X-3283Y273D01*
X-3304Y294D01*
Y-6D02*
X-3283Y14D01*
X-3263Y-6D01*
X-3283Y-27D01*
X-3304Y-6D01*
Y-306D02*
X-3283Y-286D01*
X-3263Y-306D01*
X-3283Y-327D01*
X-3304Y-306D01*
Y-606D02*
X-3283Y-586D01*
X-3263Y-606D01*
X-3283Y-627D01*
X-3304Y-606D01*
Y-906D02*
X-3283Y-886D01*
X-3263Y-906D01*
X-3283Y-927D01*
X-3304Y-906D01*
Y-1206D02*
X-3283Y-1186D01*
X-3263Y-1206D01*
X-3283Y-1227D01*
X-3304Y-1206D01*
Y-1506D02*
X-3283Y-1486D01*
X-3263Y-1506D01*
X-3283Y-1527D01*
X-3304Y-1506D01*
Y-1806D02*
X-3283Y-1786D01*
X-3263Y-1806D01*
X-3283Y-1827D01*
X-3304Y-1806D01*
Y-2106D02*
X-3283Y-2086D01*
X-3263Y-2106D01*
X-3283Y-2127D01*
X-3304Y-2106D01*
Y-2406D02*
X-3283Y-2386D01*
X-3263Y-2406D01*
X-3283Y-2427D01*
X-3304Y-2406D01*
Y-2706D02*
X-3283Y-2686D01*
X-3263Y-2706D01*
X-3283Y-2727D01*
X-3304Y-2706D01*
Y-3006D02*
X-3283Y-2986D01*
X-3263Y-3006D01*
X-3283Y-3027D01*
X-3304Y-3006D01*
X-3604Y4494D02*
X-3583Y4514D01*
X-3563Y4494D01*
X-3583Y4473D01*
X-3604Y4494D01*
Y3894D02*
X-3583Y3914D01*
X-3563Y3894D01*
X-3583Y3873D01*
X-3604Y3894D01*
Y3594D02*
X-3583Y3614D01*
X-3563Y3594D01*
X-3583Y3573D01*
X-3604Y3594D01*
Y2694D02*
X-3583Y2714D01*
X-3563Y2694D01*
X-3583Y2673D01*
X-3604Y2694D01*
Y2394D02*
X-3583Y2414D01*
X-3563Y2394D01*
X-3583Y2373D01*
X-3604Y2394D01*
Y2094D02*
X-3583Y2114D01*
X-3563Y2094D01*
X-3583Y2073D01*
X-3604Y2094D01*
Y1794D02*
X-3583Y1814D01*
X-3563Y1794D01*
X-3583Y1773D01*
X-3604Y1794D01*
Y594D02*
X-3583Y614D01*
X-3563Y594D01*
X-3583Y573D01*
X-3604Y594D01*
Y294D02*
X-3583Y314D01*
X-3563Y294D01*
X-3583Y273D01*
X-3604Y294D01*
Y-306D02*
X-3583Y-286D01*
X-3563Y-306D01*
X-3583Y-327D01*
X-3604Y-306D01*
Y-606D02*
X-3583Y-586D01*
X-3563Y-606D01*
X-3583Y-627D01*
X-3604Y-606D01*
Y-906D02*
X-3583Y-886D01*
X-3563Y-906D01*
X-3583Y-927D01*
X-3604Y-906D01*
Y-1206D02*
X-3583Y-1186D01*
X-3563Y-1206D01*
X-3583Y-1227D01*
X-3604Y-1206D01*
Y-1506D02*
X-3583Y-1486D01*
X-3563Y-1506D01*
X-3583Y-1527D01*
X-3604Y-1506D01*
Y-1806D02*
X-3583Y-1786D01*
X-3563Y-1806D01*
X-3583Y-1827D01*
X-3604Y-1806D01*
Y-2106D02*
X-3583Y-2086D01*
X-3563Y-2106D01*
X-3583Y-2127D01*
X-3604Y-2106D01*
Y-2406D02*
X-3583Y-2386D01*
X-3563Y-2406D01*
X-3583Y-2427D01*
X-3604Y-2406D01*
Y-2706D02*
X-3583Y-2686D01*
X-3563Y-2706D01*
X-3583Y-2727D01*
X-3604Y-2706D01*
Y-3006D02*
X-3583Y-2986D01*
X-3563Y-3006D01*
X-3583Y-3027D01*
X-3604Y-3006D01*
X-3904Y4494D02*
X-3883Y4514D01*
X-3863Y4494D01*
X-3883Y4473D01*
X-3904Y4494D01*
Y4194D02*
X-3883Y4214D01*
X-3863Y4194D01*
X-3883Y4173D01*
X-3904Y4194D01*
Y3894D02*
X-3883Y3914D01*
X-3863Y3894D01*
X-3883Y3873D01*
X-3904Y3894D01*
Y3594D02*
X-3883Y3614D01*
X-3863Y3594D01*
X-3883Y3573D01*
X-3904Y3594D01*
Y3294D02*
X-3883Y3314D01*
X-3863Y3294D01*
X-3883Y3273D01*
X-3904Y3294D01*
Y2994D02*
X-3883Y3014D01*
X-3863Y2994D01*
X-3883Y2973D01*
X-3904Y2994D01*
Y2394D02*
X-3883Y2414D01*
X-3863Y2394D01*
X-3883Y2373D01*
X-3904Y2394D01*
Y2094D02*
X-3883Y2114D01*
X-3863Y2094D01*
X-3883Y2073D01*
X-3904Y2094D01*
Y1494D02*
X-3883Y1514D01*
X-3863Y1494D01*
X-3883Y1473D01*
X-3904Y1494D01*
Y1194D02*
X-3883Y1214D01*
X-3863Y1194D01*
X-3883Y1173D01*
X-3904Y1194D01*
Y894D02*
X-3883Y914D01*
X-3863Y894D01*
X-3883Y873D01*
X-3904Y894D01*
Y594D02*
X-3883Y614D01*
X-3863Y594D01*
X-3883Y573D01*
X-3904Y594D01*
Y294D02*
X-3883Y314D01*
X-3863Y294D01*
X-3883Y273D01*
X-3904Y294D01*
Y-6D02*
X-3883Y14D01*
X-3863Y-6D01*
X-3883Y-27D01*
X-3904Y-6D01*
Y-306D02*
X-3883Y-286D01*
X-3863Y-306D01*
X-3883Y-327D01*
X-3904Y-306D01*
Y-606D02*
X-3883Y-586D01*
X-3863Y-606D01*
X-3883Y-627D01*
X-3904Y-606D01*
Y-906D02*
X-3883Y-886D01*
X-3863Y-906D01*
X-3883Y-927D01*
X-3904Y-906D01*
Y-1206D02*
X-3883Y-1186D01*
X-3863Y-1206D01*
X-3883Y-1227D01*
X-3904Y-1206D01*
Y-1506D02*
X-3883Y-1486D01*
X-3863Y-1506D01*
X-3883Y-1527D01*
X-3904Y-1506D01*
Y-1806D02*
X-3883Y-1786D01*
X-3863Y-1806D01*
X-3883Y-1827D01*
X-3904Y-1806D01*
Y-2106D02*
X-3883Y-2086D01*
X-3863Y-2106D01*
X-3883Y-2127D01*
X-3904Y-2106D01*
Y-2406D02*
X-3883Y-2386D01*
X-3863Y-2406D01*
X-3883Y-2427D01*
X-3904Y-2406D01*
Y-2706D02*
X-3883Y-2686D01*
X-3863Y-2706D01*
X-3883Y-2727D01*
X-3904Y-2706D01*
Y-3006D02*
X-3883Y-2986D01*
X-3863Y-3006D01*
X-3883Y-3027D01*
X-3904Y-3006D01*
Y-3306D02*
X-3883Y-3286D01*
X-3863Y-3306D01*
X-3883Y-3327D01*
X-3904Y-3306D01*
X-4204Y4494D02*
X-4183Y4514D01*
X-4163Y4494D01*
X-4183Y4473D01*
X-4204Y4494D01*
Y4194D02*
X-4183Y4214D01*
X-4163Y4194D01*
X-4183Y4173D01*
X-4204Y4194D01*
Y3894D02*
X-4183Y3914D01*
X-4163Y3894D01*
X-4183Y3873D01*
X-4204Y3894D01*
Y3594D02*
X-4183Y3614D01*
X-4163Y3594D01*
X-4183Y3573D01*
X-4204Y3594D01*
Y3294D02*
X-4183Y3314D01*
X-4163Y3294D01*
X-4183Y3273D01*
X-4204Y3294D01*
Y2994D02*
X-4183Y3014D01*
X-4163Y2994D01*
X-4183Y2973D01*
X-4204Y2994D01*
Y2694D02*
X-4183Y2714D01*
X-4163Y2694D01*
X-4183Y2673D01*
X-4204Y2694D01*
Y2394D02*
X-4183Y2414D01*
X-4163Y2394D01*
X-4183Y2373D01*
X-4204Y2394D01*
Y2094D02*
X-4183Y2114D01*
X-4163Y2094D01*
X-4183Y2073D01*
X-4204Y2094D01*
Y1794D02*
X-4183Y1814D01*
X-4163Y1794D01*
X-4183Y1773D01*
X-4204Y1794D01*
Y1494D02*
X-4183Y1514D01*
X-4163Y1494D01*
X-4183Y1473D01*
X-4204Y1494D01*
Y1194D02*
X-4183Y1214D01*
X-4163Y1194D01*
X-4183Y1173D01*
X-4204Y1194D01*
Y894D02*
X-4183Y914D01*
X-4163Y894D01*
X-4183Y873D01*
X-4204Y894D01*
Y594D02*
X-4183Y614D01*
X-4163Y594D01*
X-4183Y573D01*
X-4204Y594D01*
Y294D02*
X-4183Y314D01*
X-4163Y294D01*
X-4183Y273D01*
X-4204Y294D01*
Y-6D02*
X-4183Y14D01*
X-4163Y-6D01*
X-4183Y-27D01*
X-4204Y-6D01*
Y-306D02*
X-4183Y-286D01*
X-4163Y-306D01*
X-4183Y-327D01*
X-4204Y-306D01*
Y-606D02*
X-4183Y-586D01*
X-4163Y-606D01*
X-4183Y-627D01*
X-4204Y-606D01*
Y-906D02*
X-4183Y-886D01*
X-4163Y-906D01*
X-4183Y-927D01*
X-4204Y-906D01*
Y-1206D02*
X-4183Y-1186D01*
X-4163Y-1206D01*
X-4183Y-1227D01*
X-4204Y-1206D01*
Y-1506D02*
X-4183Y-1486D01*
X-4163Y-1506D01*
X-4183Y-1527D01*
X-4204Y-1506D01*
Y-1806D02*
X-4183Y-1786D01*
X-4163Y-1806D01*
X-4183Y-1827D01*
X-4204Y-1806D01*
Y-2106D02*
X-4183Y-2086D01*
X-4163Y-2106D01*
X-4183Y-2127D01*
X-4204Y-2106D01*
Y-2406D02*
X-4183Y-2386D01*
X-4163Y-2406D01*
X-4183Y-2427D01*
X-4204Y-2406D01*
Y-2706D02*
X-4183Y-2686D01*
X-4163Y-2706D01*
X-4183Y-2727D01*
X-4204Y-2706D01*
Y-3006D02*
X-4183Y-2986D01*
X-4163Y-3006D01*
X-4183Y-3027D01*
X-4204Y-3006D01*
Y-3306D02*
X-4183Y-3286D01*
X-4163Y-3306D01*
X-4183Y-3327D01*
X-4204Y-3306D01*
X691Y2012D02*
X701D01*
X711Y2022D01*
X721Y2012D01*
X732D01*
Y2022D01*
X721Y2032D01*
X732Y2042D01*
Y2052D01*
X721D01*
X711Y2042D01*
X701Y2052D01*
X691D01*
Y2042D01*
X701Y2032D01*
X691Y2022D01*
Y2012D01*
X678Y2507D02*
X688D01*
X699Y2517D01*
X709Y2507D01*
X719D01*
Y2517D01*
X709Y2527D01*
X719Y2537D01*
Y2548D01*
X709D01*
X699Y2537D01*
X688Y2548D01*
X678D01*
Y2537D01*
X688Y2527D01*
X678Y2517D01*
Y2507D01*
X1580Y2012D02*
X1590D01*
X1600Y2022D01*
X1610Y2012D01*
X1621D01*
Y2022D01*
X1610Y2032D01*
X1621Y2042D01*
Y2052D01*
X1610D01*
X1600Y2042D01*
X1590Y2052D01*
X1580D01*
Y2042D01*
X1590Y2032D01*
X1580Y2022D01*
Y2012D01*
X-2027Y1377D02*
X-2017D01*
X-2007Y1387D01*
X-1996Y1377D01*
X-1986D01*
Y1387D01*
X-1996Y1397D01*
X-1986Y1407D01*
Y1417D01*
X-1996D01*
X-2007Y1407D01*
X-2017Y1417D01*
X-2027D01*
Y1407D01*
X-2017Y1397D01*
X-2027Y1387D01*
Y1377D01*
X-2052Y3256D02*
X-2042D01*
X-2032Y3266D01*
X-2022Y3256D01*
X-2012D01*
Y3266D01*
X-2022Y3277D01*
X-2012Y3287D01*
Y3297D01*
X-2022D01*
X-2032Y3287D01*
X-2042Y3297D01*
X-2052D01*
Y3287D01*
X-2042Y3277D01*
X-2052Y3266D01*
Y3256D01*
X-3360Y2253D02*
X-3350D01*
X-3340Y2263D01*
X-3330Y2253D01*
X-3320D01*
Y2263D01*
X-3330Y2273D01*
X-3320Y2283D01*
Y2294D01*
X-3330D01*
X-3340Y2283D01*
X-3350Y2294D01*
X-3360D01*
Y2283D01*
X-3350Y2273D01*
X-3360Y2263D01*
Y2253D01*
X-3373Y2939D02*
X-3363D01*
X-3353Y2949D01*
X-3343Y2939D01*
X-3332D01*
Y2949D01*
X-3343Y2959D01*
X-3332Y2969D01*
Y2979D01*
X-3343D01*
X-3353Y2969D01*
X-3363Y2979D01*
X-3373D01*
Y2969D01*
X-3363Y2959D01*
X-3373Y2949D01*
Y2939D01*
X-3259Y3091D02*
X-3249D01*
X-3238Y3101D01*
X-3228Y3091D01*
X-3218D01*
Y3101D01*
X-3228Y3111D01*
X-3218Y3122D01*
Y3132D01*
X-3228D01*
X-3238Y3122D01*
X-3249Y3132D01*
X-3259D01*
Y3122D01*
X-3249Y3111D01*
X-3259Y3101D01*
Y3091D01*
X-3157Y2024D02*
X-3147D01*
X-3137Y2035D01*
X-3127Y2024D01*
X-3117D01*
Y2035D01*
X-3127Y2045D01*
X-3117Y2055D01*
Y2065D01*
X-3127D01*
X-3137Y2055D01*
X-3147Y2065D01*
X-3157D01*
Y2055D01*
X-3147Y2045D01*
X-3157Y2035D01*
Y2024D01*
X-3188Y1059D02*
X-3178D01*
X-3167Y1069D01*
X-3157Y1059D01*
X-3147D01*
Y1069D01*
X-3157Y1080D01*
X-3147Y1090D01*
Y1100D01*
X-3157D01*
X-3167Y1090D01*
X-3178Y1100D01*
X-3188D01*
Y1090D01*
X-3178Y1080D01*
X-3188Y1069D01*
Y1059D01*
X-2967Y1186D02*
X-2957D01*
X-2946Y1196D01*
X-2936Y1186D01*
X-2926D01*
Y1196D01*
X-2936Y1206D01*
X-2926Y1217D01*
Y1227D01*
X-2936D01*
X-2946Y1217D01*
X-2957Y1227D01*
X-2967D01*
Y1217D01*
X-2957Y1206D01*
X-2967Y1196D01*
Y1186D01*
X-1862Y-1049D02*
X-1852D01*
X-1842Y-1039D01*
X-1831Y-1049D01*
X-1821D01*
Y-1039D01*
X-1831Y-1029D01*
X-1821Y-1019D01*
Y-1008D01*
X-1831D01*
X-1842Y-1019D01*
X-1852Y-1008D01*
X-1862D01*
Y-1019D01*
X-1852Y-1029D01*
X-1862Y-1039D01*
Y-1049D01*
X-1875Y-681D02*
X-1864D01*
X-1854Y-671D01*
X-1844Y-681D01*
X-1834D01*
Y-671D01*
X-1844Y-660D01*
X-1834Y-650D01*
Y-640D01*
X-1844D01*
X-1854Y-650D01*
X-1864Y-640D01*
X-1875D01*
Y-650D01*
X-1864Y-660D01*
X-1875Y-671D01*
Y-681D01*
X959Y2271D02*
X969D01*
X979Y2281D01*
X989Y2271D01*
X1000D01*
Y2281D01*
X989Y2291D01*
X1000Y2301D01*
Y2311D01*
X989D01*
X979Y2301D01*
X969Y2311D01*
X959D01*
Y2301D01*
X969Y2291D01*
X959Y2281D01*
Y2271D01*
X1567Y1516D02*
X1577D01*
X1588Y1527D01*
X1598Y1516D01*
X1608D01*
Y1527D01*
X1598Y1537D01*
X1608Y1547D01*
Y1557D01*
X1598D01*
X1588Y1547D01*
X1577Y1557D01*
X1567D01*
Y1547D01*
X1577Y1537D01*
X1567Y1527D01*
Y1516D01*
X2291Y-122D02*
X2301D01*
X2311Y-112D01*
X2322Y-122D01*
X2332D01*
Y-112D01*
X2322Y-102D01*
X2332Y-91D01*
Y-81D01*
X2322D01*
X2311Y-91D01*
X2301Y-81D01*
X2291D01*
Y-91D01*
X2301Y-102D01*
X2291Y-112D01*
Y-122D01*
X1796Y597D02*
X1816Y617D01*
X1836Y597D01*
X1816Y577D01*
X1796Y597D01*
X2709Y-537D02*
X2719D01*
X2729Y-527D01*
X2739Y-537D01*
X2750D01*
Y-527D01*
X2739Y-517D01*
X2750Y-507D01*
Y-497D01*
X2739D01*
X2729Y-507D01*
X2719Y-497D01*
X2709D01*
Y-507D01*
X2719Y-517D01*
X2709Y-527D01*
Y-537D01*
X2570Y-836D02*
X2581D01*
X2591Y-826D01*
X2601Y-836D01*
X2611D01*
Y-826D01*
X2601Y-816D01*
X2611Y-806D01*
Y-795D01*
X2601D01*
X2591Y-806D01*
X2581Y-795D01*
X2570D01*
Y-806D01*
X2581Y-816D01*
X2570Y-826D01*
Y-836D01*
X386Y-1925D02*
X396D01*
X406Y-1915D01*
X417Y-1925D01*
X427D01*
Y-1915D01*
X417Y-1905D01*
X427Y-1895D01*
Y-1885D01*
X417D01*
X406Y-1895D01*
X396Y-1885D01*
X386D01*
Y-1895D01*
X396Y-1905D01*
X386Y-1915D01*
Y-1925D01*
X500Y-2217D02*
X511D01*
X521Y-2207D01*
X531Y-2217D01*
X541D01*
Y-2207D01*
X531Y-2197D01*
X541Y-2187D01*
Y-2177D01*
X531D01*
X521Y-2187D01*
X511Y-2177D01*
X500D01*
Y-2187D01*
X511Y-2197D01*
X500Y-2207D01*
Y-2217D01*
X729Y-1024D02*
X739D01*
X749Y-1013D01*
X759Y-1024D01*
X770D01*
Y-1013D01*
X759Y-1003D01*
X770Y-993D01*
Y-983D01*
X759D01*
X749Y-993D01*
X739Y-983D01*
X729D01*
Y-993D01*
X739Y-1003D01*
X729Y-1013D01*
Y-1024D01*
X9151Y2359D02*
X9212Y2420D01*
X9273Y2359D01*
X9212Y2298D01*
X9151Y2359D01*
Y1993D02*
X9181D01*
X9212Y2024D01*
X9242Y1993D01*
X9273D01*
Y2024D01*
X9242Y2054D01*
X9273Y2085D01*
Y2115D01*
X9242D01*
X9212Y2085D01*
X9181Y2115D01*
X9151D01*
Y2085D01*
X9181Y2054D01*
X9151Y2024D01*
Y1993D01*
Y1688D02*
Y1810D01*
X9273D01*
Y1688D01*
X9151D01*
X9212Y1384D02*
X9151Y1506D01*
X9273D01*
X9212Y1384D01*
Y774D02*
X9242Y805D01*
X9273D01*
X9242Y835D01*
X9273Y865D01*
X9242D01*
X9212Y896D01*
X9181Y865D01*
X9151D01*
X9181Y835D01*
X9151Y805D01*
X9181D01*
X9212Y774D01*
X9151Y469D02*
X9181Y530D01*
X9151Y591D01*
X9212Y561D01*
X9273Y591D01*
X9242Y530D01*
X9273Y469D01*
X9212Y500D01*
X9151Y469D01*
X9181Y195D02*
Y164D01*
X9242D01*
Y195D01*
X9273D01*
Y256D01*
X9242D01*
Y286D01*
X9181D01*
Y256D01*
X9151D01*
Y195D01*
X9181D01*
D69*
X2660Y3560D02*
G03*
X2660Y3560I-20J0D01*
G01*
Y766D02*
G03*
X2660Y766I-20J0D01*
G01*
D70*
X9273Y1140D02*
G03*
X9273Y1140I-61J0D01*
G01*
M02*
