M48
;Layer_Color=9474304
;FILE_FORMAT=4:4
METRIC,LZ
;TYPE=PLATED
T1F00S00C0.3000
T2F00S00C0.7112
T3F00S00C0.8000
T4F00S00C0.9000
T5F00S00C2.2000
T6F00S00C2.3048
T7F00S00C2.5548
T8F00S00C3.0000
%
T01
X-00418319Y-00330643
Y-00300643
Y-00270643
Y-00240643
Y-00210643
Y-00180643
Y-00150643
Y-00120643
Y-00090643
Y-00060643
X-00388319
X-00358319
X-00328319
X-00298319
Y-00090643
Y-00120643
X-00268319
Y-00150643
X-00238319
X-00208319
X-00178319
X-00148319
X-00118319
X-00088319
X-00058319
X-00028319
Y-00120643
Y-00090643
Y-00060643
X-00058319
Y-00090643
X-00088319
X-00118319
Y-00060643
X-00088319
Y-00120643
X-00058319
Y-00180643
X-00028319
Y-00210643
X-00058319
X-00088319
Y-00180643
X-00118319
Y-00210643
X-00148319
Y-00180643
X-00178319
Y-00210643
Y-00240643
X-00148319
X-00208319
Y-00210643
Y-00180643
X-00238319
Y-00210643
Y-00240643
X-00268319
Y-00210643
Y-00180643
X-00298319
Y-00210643
Y-00240643
Y-00270643
X-00268319
X-00328319
Y-00240643
Y-00210643
Y-00180643
Y-00150643
Y-00120643
Y-00090643
X-00358319
Y-00120643
Y-00150643
Y-00180643
Y-00210643
Y-00240643
Y-00270643
Y-00300643
X-00328319
X-00388319
Y-00270643
Y-00240643
Y-00210643
Y-00180643
Y-00150643
Y-00120643
Y-00090643
Y-00330643
X-00148319Y-00120643
X-00118319
X00001681
X00031681
X00061681
Y-00090643
X00091681
Y-00060643
X00061681
X00031681
Y-00090643
X00001681
Y-00060643
Y-00150643
X00031681
X00061681
X00091681
X00121681
X00151681
Y-00120643
X00181681
X00211681Y-00150643
Y-00180643
Y-00210643
Y-00240643
X00241681
X00271681
X00301681
Y-00210643
Y-00180643
Y-00150643
Y-00120643
X00271681
Y-00210643
Y-00270643
X00301681
Y-00300643
Y-00330643
X00271681
Y-00300643
X00241681
Y-00270643
X00211681
Y-00300643
X00181681Y-00270643
Y-00240643
Y-00210643
X00151681Y-00180643
X00121681
Y-00210643
Y-00240643
X00151681
Y-00270643
X00091681Y-00240643
Y-00210643
Y-00180643
X00061681
Y-00210643
Y-00240643
X00031681
Y-00210643
Y-00180643
X00001681
Y-00210643
X00091681Y-00120643
X00121681
X00091681Y-00000643
Y00029357
X00061681Y00059357
Y00089357
X00031681
Y00059357
X00001681
Y00089357
Y00149357
X00031681
X00061681
X00091681
Y00209357
X00061681
X00031681
X00001681
Y00269357
X00031681
X00061681
X00091681
Y00299357
Y00329357
X00121681
X00151681
X00181681
X00211681
X00241681
X00271681
X00301681
Y00269357
Y00239357
X00271681Y00179357
X00211681Y00119357
X0018161Y0005969
X0015113Y0006223
X00241681Y00059357
X00061681Y-00000643
Y-00030643
X00031681
Y-00000643
X00001681
Y-00030643
Y00299357
X00031681
X00061681
Y00329357
X00031681
X00001681
X00151681Y00269357
X00211681Y00299357
X-00028319
Y00329357
X-00058319
Y00299357
Y00269357
X-00028319
Y00209357
X-00058319
X-00088319
X-00118319
X-00148319
X-00178319
Y00269357
X-00148319
X-00118319
X-00088319
Y00299357
Y00329357
X-00118319
Y00299357
X-00148319
Y00329357
X-00178319
Y00299357
X-00238319
Y00269357
Y00239357
X-00268319
Y00269357
Y00299357
X-00298319Y00269357
Y00239357
Y00209357
X-00268319
X-00298319Y00179357
X-00328319
Y00209357
X-00358319
Y00239357
Y00269357
X-00388319Y00299357
Y00329357
Y00239357
Y00209357
X-00358319Y00179357
X-00388319Y00149357
Y00119357
Y00089357
Y00059357
X-00358319
X-00328319
X-00298319
Y00089357
X-00268319
X-00238319
Y00059357
X-00208319
X-00148319
Y00119357
X-00118319
Y00149357
X-00088319
X-00058319
X-00028319
Y00089357
Y00059357
X-00058319
X-00088319
Y-00000643
X-00058319
X-00028319
Y-00030643
X-00058319
X-00088319
X-00118319
Y-00000643
X-00148319
X-00178319Y-00030643
X-00208319
X-00268319
X-00298319
Y-00000643
Y00029357
X-00328319
Y-00000643
Y-00030643
X-00358319
X-00388319
Y-00000643
Y00029357
X-00358319
X-00328319Y00089357
X-00148319Y00149357
X-00418319
Y00179357
Y00209357
Y00239357
Y00269357
Y00299357
Y00329357
Y00119357
Y00089357
Y00059357
Y00029357
Y-00000643
Y-00030643
Y00359357
Y00389357
Y00419357
Y00449357
X-00388319
X-00358319
X-00328319Y00419357
Y00389357
X-00298319
X-00268319
X-00238319
Y00359357
X-00208319
X-00178319
X-00148319
X-00118319
X-00088319
X-00268319
X-00298319
X-00328319
X-00358319
Y00389357
X-00388319
Y00419357
Y00359357
X00001681
X00031681
X00061681
X00091681
X00121681
X00151681
X00181681
X00211681
X00241681
Y00389357
X00271681
X00301681
Y00419357
Y00449357
X00271681
X00241681Y00419357
X00211681
Y00389357
X00181681
X00151681
X00301681Y00359357
T02
X-0027051Y-0008001
X-0018542Y-0006604
X-001651Y-000762
X-0012827Y-0008382
X-0018415Y-0010287
X-0020066Y-0012065
X0007493Y-0010033
X0009906Y-0013589
X0008382Y-0018923
X0004064Y-001905
X0005207Y-0021971
X0025908Y-0008158
X00272923Y-00051689
X0023114Y-0001016
X0016764Y0001651
X001778Y0002794
X0015748Y0003556
X0015875Y0015367
X0016002Y002032
X0009792Y00229092
X0006985Y0025273
X0007112Y002032
X0010668Y0012827
X0007366Y0008636
X0005207Y000762
X0004064Y0010287
X0021082Y0015494
X-0012573Y001397
X-0013589Y0011938
X-0015748Y0011049
X-0017272Y0012319
X-0018034Y0009779
X-0020066Y0008255
Y001397
X-0018669Y0016383
X-0017272Y0018542
X-0015748Y0022733
X-002032Y0032766
X-0032385Y0031115
X-0033528Y0029591
X-0033401Y0022733
X-0031369Y0020447
X-00316738Y0010795
X-0029464Y0012065
X-0027559Y0011684
X-0025781Y0013462
X-0024638Y000381
X-0021336Y0001397
X-0020066Y-0001143
X-0018288Y-0000127
X-0016764Y0001143
X-001397Y0004953
X-00127Y-0002032
X-0018796Y-000508
T03
X002354Y0014136
Y0016676
Y0019216
Y0021756
Y0024296
Y0026836
Y0029376
X0025444Y0030519
Y0027979
Y0025439
Y0022899
Y0020359
Y0017819
Y0015279
Y0012739
X0027349Y0014009
Y0016549
Y0019089
Y0021629
Y0024169
Y0026709
Y0029249
X0029252Y0027979
Y0025439
Y0022899
Y0020359
Y0017819
Y0015279
Y0012739
Y0030519
T04
X-002286Y-001016
Y-000762
X00127
Y-001016
X0023495Y-0014859
X0026035
X0028575
Y-0018288
X0026035
X0023495
Y-0021844
X0026035
X0028575
X00127Y-000508
Y-000254
Y0
Y000254
Y000508
Y000762
Y001016
Y00127
Y001524
Y001778
Y002032
Y002286
Y00254
X-002286
Y002286
Y002032
Y001778
Y001524
Y00127
Y001016
Y000762
Y000508
Y000254
Y0
Y-000254
Y-000508
T05
X0026396Y0007659
Y0035599
T06
X0026371Y0000959
X-0036629
T07
X-0036629Y0041959
X0026371
T08
X-0028629Y-0016291
X0018371
Y0028709
X-0028629
M30
