G04 Layer_Color=65535*
%FSLAX42Y42*%
%MOMM*%
G71*
G01*
G75*
%ADD13C,0.25*%
%ADD35C,0.38*%
%ADD60C,0.64*%
%ADD61C,0.15*%
%ADD62C,0.30*%
%ADD63C,0.41*%
%ADD64C,0.00*%
%ADD65C,0.23*%
%ADD66R,0.20X1.41*%
%ADD67R,44.50X3.00*%
D13*
X-2890Y8179D02*
X-2912Y8172D01*
X-2926Y8150D01*
X-2934Y8113D01*
Y8092D01*
X-2926Y8055D01*
X-2912Y8034D01*
X-2890Y8026D01*
X-2876D01*
X-2854Y8034D01*
X-2839Y8055D01*
X-2832Y8092D01*
Y8113D01*
X-2839Y8150D01*
X-2854Y8172D01*
X-2876Y8179D01*
X-2890D01*
X-2791Y8041D02*
X-2798Y8034D01*
X-2791Y8026D01*
X-2784Y8034D01*
X-2791Y8041D01*
X-2707Y8179D02*
X-2728Y8172D01*
X-2743Y8150D01*
X-2750Y8113D01*
Y8092D01*
X-2743Y8055D01*
X-2728Y8034D01*
X-2707Y8026D01*
X-2692D01*
X-2670Y8034D01*
X-2656Y8055D01*
X-2649Y8092D01*
Y8113D01*
X-2656Y8150D01*
X-2670Y8172D01*
X-2692Y8179D01*
X-2707D01*
X-2571D02*
X-2593Y8172D01*
X-2607Y8150D01*
X-2614Y8113D01*
Y8092D01*
X-2607Y8055D01*
X-2593Y8034D01*
X-2571Y8026D01*
X-2556D01*
X-2535Y8034D01*
X-2520Y8055D01*
X-2513Y8092D01*
Y8113D01*
X-2520Y8150D01*
X-2535Y8172D01*
X-2556Y8179D01*
X-2571D01*
X-2479Y8150D02*
X-2464Y8157D01*
X-2442Y8179D01*
Y8026D01*
X-2294Y8179D02*
X-2367Y8077D01*
X-2258D01*
X-2294Y8179D02*
Y8026D01*
X-2224Y8164D02*
X-2231Y8172D01*
X-2224Y8179D01*
X-2217Y8172D01*
Y8157D01*
X-2224Y8142D01*
X-2231Y8135D01*
X-2176Y8164D02*
X-2183Y8172D01*
X-2176Y8179D01*
X-2169Y8172D01*
Y8157D01*
X-2176Y8142D01*
X-2183Y8135D01*
X-1896Y8164D02*
Y8019D01*
X-1889Y8164D02*
Y8019D01*
X-1896Y8164D02*
X-1860D01*
X-1896Y8019D02*
X-1860D01*
X-1840Y8150D02*
X-1826Y8157D01*
X-1804Y8179D01*
Y8026D01*
X-1692Y8128D02*
X-1707Y8121D01*
X-1721Y8106D01*
X-1729Y8084D01*
Y8070D01*
X-1721Y8048D01*
X-1707Y8034D01*
X-1692Y8026D01*
X-1671D01*
X-1656Y8034D01*
X-1641Y8048D01*
X-1634Y8070D01*
Y8084D01*
X-1641Y8106D01*
X-1656Y8121D01*
X-1671Y8128D01*
X-1692D01*
X-1521D02*
X-1601Y8026D01*
Y8128D02*
X-1521D01*
X-1601Y8026D02*
X-1521D01*
X-1482Y8041D02*
X-1489Y8034D01*
X-1482Y8026D01*
X-1475Y8034D01*
X-1482Y8041D01*
X-1412Y8164D02*
Y8019D01*
X-1405Y8164D02*
Y8019D01*
X-1441Y8164D02*
X-1405D01*
X-1441Y8019D02*
X-1405D01*
X272Y9706D02*
X337D01*
X359Y9714D01*
X366Y9721D01*
X374Y9735D01*
Y9757D01*
X366Y9772D01*
X359Y9779D01*
X337Y9786D01*
X272D01*
Y9634D01*
X517Y9750D02*
X509Y9764D01*
X495Y9779D01*
X480Y9786D01*
X451D01*
X437Y9779D01*
X422Y9764D01*
X415Y9750D01*
X408Y9728D01*
Y9692D01*
X415Y9670D01*
X422Y9655D01*
X437Y9641D01*
X451Y9634D01*
X480D01*
X495Y9641D01*
X509Y9655D01*
X517Y9670D01*
X559Y9786D02*
Y9634D01*
Y9786D02*
X625D01*
X646Y9779D01*
X654Y9772D01*
X661Y9757D01*
Y9743D01*
X654Y9728D01*
X646Y9721D01*
X625Y9714D01*
X559D02*
X625D01*
X646Y9706D01*
X654Y9699D01*
X661Y9684D01*
Y9663D01*
X654Y9648D01*
X646Y9641D01*
X625Y9634D01*
X559D01*
X924Y9750D02*
X916Y9764D01*
X902Y9779D01*
X887Y9786D01*
X858D01*
X844Y9779D01*
X829Y9764D01*
X822Y9750D01*
X815Y9728D01*
Y9692D01*
X822Y9670D01*
X829Y9655D01*
X844Y9641D01*
X858Y9634D01*
X887D01*
X902Y9641D01*
X916Y9655D01*
X924Y9670D01*
X1003Y9735D02*
X988Y9728D01*
X974Y9714D01*
X966Y9692D01*
Y9677D01*
X974Y9655D01*
X988Y9641D01*
X1003Y9634D01*
X1025D01*
X1039Y9641D01*
X1054Y9655D01*
X1061Y9677D01*
Y9692D01*
X1054Y9714D01*
X1039Y9728D01*
X1025Y9735D01*
X1003D01*
X1094D02*
Y9634D01*
Y9706D02*
X1116Y9728D01*
X1130Y9735D01*
X1152D01*
X1167Y9728D01*
X1174Y9706D01*
Y9634D01*
X1294Y9714D02*
X1286Y9728D01*
X1265Y9735D01*
X1243D01*
X1221Y9728D01*
X1214Y9714D01*
X1221Y9699D01*
X1236Y9692D01*
X1272Y9684D01*
X1286Y9677D01*
X1294Y9663D01*
Y9655D01*
X1286Y9641D01*
X1265Y9634D01*
X1243D01*
X1221Y9641D01*
X1214Y9655D01*
X1347Y9786D02*
Y9663D01*
X1355Y9641D01*
X1369Y9634D01*
X1384D01*
X1326Y9735D02*
X1376D01*
X1405D02*
Y9634D01*
Y9692D02*
X1413Y9714D01*
X1427Y9728D01*
X1442Y9735D01*
X1463D01*
X1477D02*
Y9663D01*
X1485Y9641D01*
X1499Y9634D01*
X1521D01*
X1535Y9641D01*
X1557Y9663D01*
Y9735D02*
Y9634D01*
X1684Y9714D02*
X1670Y9728D01*
X1655Y9735D01*
X1633D01*
X1619Y9728D01*
X1604Y9714D01*
X1597Y9692D01*
Y9677D01*
X1604Y9655D01*
X1619Y9641D01*
X1633Y9634D01*
X1655D01*
X1670Y9641D01*
X1684Y9655D01*
X1738Y9786D02*
Y9663D01*
X1746Y9641D01*
X1760Y9634D01*
X1775D01*
X1717Y9735D02*
X1767D01*
X1811Y9786D02*
X1818Y9779D01*
X1826Y9786D01*
X1818Y9793D01*
X1811Y9786D01*
X1818Y9735D02*
Y9634D01*
X1889Y9735D02*
X1874Y9728D01*
X1860Y9714D01*
X1852Y9692D01*
Y9677D01*
X1860Y9655D01*
X1874Y9641D01*
X1889Y9634D01*
X1910D01*
X1925Y9641D01*
X1939Y9655D01*
X1947Y9677D01*
Y9692D01*
X1939Y9714D01*
X1925Y9728D01*
X1910Y9735D01*
X1889D01*
X1980D02*
Y9634D01*
Y9706D02*
X2002Y9728D01*
X2016Y9735D01*
X2038D01*
X2053Y9728D01*
X2060Y9706D01*
Y9634D01*
X-5334Y7561D02*
X-5356Y7554D01*
X-5371Y7532D01*
X-5378Y7496D01*
Y7474D01*
X-5371Y7438D01*
X-5356Y7416D01*
X-5334Y7409D01*
X-5320D01*
X-5298Y7416D01*
X-5284Y7438D01*
X-5276Y7474D01*
Y7496D01*
X-5284Y7532D01*
X-5298Y7554D01*
X-5320Y7561D01*
X-5334D01*
X-5235Y7423D02*
X-5242Y7416D01*
X-5235Y7409D01*
X-5228Y7416D01*
X-5235Y7423D01*
X-5151Y7561D02*
X-5173Y7554D01*
X-5187Y7532D01*
X-5194Y7496D01*
Y7474D01*
X-5187Y7438D01*
X-5173Y7416D01*
X-5151Y7409D01*
X-5136D01*
X-5115Y7416D01*
X-5100Y7438D01*
X-5093Y7474D01*
Y7496D01*
X-5100Y7532D01*
X-5115Y7554D01*
X-5136Y7561D01*
X-5151D01*
X-4972Y7539D02*
X-4979Y7554D01*
X-5001Y7561D01*
X-5015D01*
X-5037Y7554D01*
X-5051Y7532D01*
X-5059Y7496D01*
Y7459D01*
X-5051Y7430D01*
X-5037Y7416D01*
X-5015Y7409D01*
X-5008D01*
X-4986Y7416D01*
X-4972Y7430D01*
X-4964Y7452D01*
Y7459D01*
X-4972Y7481D01*
X-4986Y7496D01*
X-5008Y7503D01*
X-5015D01*
X-5037Y7496D01*
X-5051Y7481D01*
X-5059Y7459D01*
X-4924Y7525D02*
Y7532D01*
X-4916Y7547D01*
X-4909Y7554D01*
X-4895Y7561D01*
X-4866D01*
X-4851Y7554D01*
X-4844Y7547D01*
X-4837Y7532D01*
Y7518D01*
X-4844Y7503D01*
X-4858Y7481D01*
X-4931Y7409D01*
X-4829D01*
X-4788Y7547D02*
X-4795Y7554D01*
X-4788Y7561D01*
X-4781Y7554D01*
Y7539D01*
X-4788Y7525D01*
X-4795Y7518D01*
X-4740Y7547D02*
X-4747Y7554D01*
X-4740Y7561D01*
X-4733Y7554D01*
Y7539D01*
X-4740Y7525D01*
X-4747Y7518D01*
X-4634Y7539D02*
Y7409D01*
X-4700Y7474D02*
X-4569D01*
X-4524Y7387D02*
X-4422Y7561D01*
X-4412Y7474D02*
X-4282D01*
X-4193Y7561D02*
X-4215Y7554D01*
X-4229Y7532D01*
X-4237Y7496D01*
Y7474D01*
X-4229Y7438D01*
X-4215Y7416D01*
X-4193Y7409D01*
X-4179D01*
X-4157Y7416D01*
X-4142Y7438D01*
X-4135Y7474D01*
Y7496D01*
X-4142Y7532D01*
X-4157Y7554D01*
X-4179Y7561D01*
X-4193D01*
X-4094Y7423D02*
X-4101Y7416D01*
X-4094Y7409D01*
X-4086Y7416D01*
X-4094Y7423D01*
X-4009Y7561D02*
X-4031Y7554D01*
X-4046Y7532D01*
X-4053Y7496D01*
Y7474D01*
X-4046Y7438D01*
X-4031Y7416D01*
X-4009Y7409D01*
X-3995D01*
X-3973Y7416D01*
X-3959Y7438D01*
X-3951Y7474D01*
Y7496D01*
X-3959Y7532D01*
X-3973Y7554D01*
X-3995Y7561D01*
X-4009D01*
X-3874D02*
X-3896Y7554D01*
X-3910Y7532D01*
X-3917Y7496D01*
Y7474D01*
X-3910Y7438D01*
X-3896Y7416D01*
X-3874Y7409D01*
X-3859D01*
X-3838Y7416D01*
X-3823Y7438D01*
X-3816Y7474D01*
Y7496D01*
X-3823Y7532D01*
X-3838Y7554D01*
X-3859Y7561D01*
X-3874D01*
X-3695Y7539D02*
X-3702Y7554D01*
X-3724Y7561D01*
X-3738D01*
X-3760Y7554D01*
X-3774Y7532D01*
X-3782Y7496D01*
Y7459D01*
X-3774Y7430D01*
X-3760Y7416D01*
X-3738Y7409D01*
X-3731D01*
X-3709Y7416D01*
X-3695Y7430D01*
X-3687Y7452D01*
Y7459D01*
X-3695Y7481D01*
X-3709Y7496D01*
X-3731Y7503D01*
X-3738D01*
X-3760Y7496D01*
X-3774Y7481D01*
X-3782Y7459D01*
X-3647Y7547D02*
X-3654Y7554D01*
X-3647Y7561D01*
X-3639Y7554D01*
Y7539D01*
X-3647Y7525D01*
X-3654Y7518D01*
X-3599Y7547D02*
X-3606Y7554D01*
X-3599Y7561D01*
X-3592Y7554D01*
Y7539D01*
X-3599Y7525D01*
X-3606Y7518D01*
X-2934Y7561D02*
X-2956Y7554D01*
X-2971Y7532D01*
X-2978Y7496D01*
Y7474D01*
X-2971Y7438D01*
X-2956Y7416D01*
X-2934Y7409D01*
X-2920D01*
X-2898Y7416D01*
X-2884Y7438D01*
X-2876Y7474D01*
Y7496D01*
X-2884Y7532D01*
X-2898Y7554D01*
X-2920Y7561D01*
X-2934D01*
X-2835Y7423D02*
X-2842Y7416D01*
X-2835Y7409D01*
X-2828Y7416D01*
X-2835Y7423D01*
X-2751Y7561D02*
X-2773Y7554D01*
X-2787Y7532D01*
X-2794Y7496D01*
Y7474D01*
X-2787Y7438D01*
X-2773Y7416D01*
X-2751Y7409D01*
X-2736D01*
X-2715Y7416D01*
X-2700Y7438D01*
X-2693Y7474D01*
Y7496D01*
X-2700Y7532D01*
X-2715Y7554D01*
X-2736Y7561D01*
X-2751D01*
X-2572D02*
X-2644D01*
X-2651Y7496D01*
X-2644Y7503D01*
X-2622Y7510D01*
X-2601D01*
X-2579Y7503D01*
X-2564Y7489D01*
X-2557Y7467D01*
Y7452D01*
X-2564Y7430D01*
X-2579Y7416D01*
X-2601Y7409D01*
X-2622D01*
X-2644Y7416D01*
X-2651Y7423D01*
X-2659Y7438D01*
X-2429Y7510D02*
X-2436Y7489D01*
X-2450Y7474D01*
X-2472Y7467D01*
X-2479D01*
X-2501Y7474D01*
X-2516Y7489D01*
X-2523Y7510D01*
Y7518D01*
X-2516Y7539D01*
X-2501Y7554D01*
X-2479Y7561D01*
X-2472D01*
X-2450Y7554D01*
X-2436Y7539D01*
X-2429Y7510D01*
Y7474D01*
X-2436Y7438D01*
X-2450Y7416D01*
X-2472Y7409D01*
X-2487D01*
X-2508Y7416D01*
X-2516Y7430D01*
X-2380Y7547D02*
X-2387Y7554D01*
X-2380Y7561D01*
X-2373Y7554D01*
Y7539D01*
X-2380Y7525D01*
X-2387Y7518D01*
X-2332Y7547D02*
X-2339Y7554D01*
X-2332Y7561D01*
X-2325Y7554D01*
Y7539D01*
X-2332Y7525D01*
X-2339Y7518D01*
X-2226Y7539D02*
Y7409D01*
X-2292Y7474D02*
X-2161D01*
X-2116Y7387D02*
X-2014Y7561D01*
X-2004Y7474D02*
X-1874D01*
X-1665Y7561D02*
X-1687Y7554D01*
X-1702Y7532D01*
X-1709Y7496D01*
Y7474D01*
X-1702Y7438D01*
X-1687Y7416D01*
X-1665Y7409D01*
X-1651D01*
X-1629Y7416D01*
X-1615Y7438D01*
X-1607Y7474D01*
Y7496D01*
X-1615Y7532D01*
X-1629Y7554D01*
X-1651Y7561D01*
X-1665D01*
X-1566Y7423D02*
X-1573Y7416D01*
X-1566Y7409D01*
X-1559Y7416D01*
X-1566Y7423D01*
X-1482Y7561D02*
X-1504Y7554D01*
X-1518Y7532D01*
X-1525Y7496D01*
Y7474D01*
X-1518Y7438D01*
X-1504Y7416D01*
X-1482Y7409D01*
X-1467D01*
X-1446Y7416D01*
X-1431Y7438D01*
X-1424Y7474D01*
Y7496D01*
X-1431Y7532D01*
X-1446Y7554D01*
X-1467Y7561D01*
X-1482D01*
X-1346D02*
X-1368Y7554D01*
X-1382Y7532D01*
X-1390Y7496D01*
Y7474D01*
X-1382Y7438D01*
X-1368Y7416D01*
X-1346Y7409D01*
X-1332D01*
X-1310Y7416D01*
X-1295Y7438D01*
X-1288Y7474D01*
Y7496D01*
X-1295Y7532D01*
X-1310Y7554D01*
X-1332Y7561D01*
X-1346D01*
X-1239D02*
X-1160D01*
X-1203Y7503D01*
X-1181D01*
X-1167Y7496D01*
X-1160Y7489D01*
X-1152Y7467D01*
Y7452D01*
X-1160Y7430D01*
X-1174Y7416D01*
X-1196Y7409D01*
X-1218D01*
X-1239Y7416D01*
X-1247Y7423D01*
X-1254Y7438D01*
X-1111Y7547D02*
X-1118Y7554D01*
X-1111Y7561D01*
X-1104Y7554D01*
Y7539D01*
X-1111Y7525D01*
X-1118Y7518D01*
X-1063Y7547D02*
X-1070Y7554D01*
X-1063Y7561D01*
X-1056Y7554D01*
Y7539D01*
X-1063Y7525D01*
X-1070Y7518D01*
X-2903Y6985D02*
X-2925Y6978D01*
X-2939Y6956D01*
X-2946Y6920D01*
Y6898D01*
X-2939Y6862D01*
X-2925Y6840D01*
X-2903Y6833D01*
X-2888D01*
X-2867Y6840D01*
X-2852Y6862D01*
X-2845Y6898D01*
Y6920D01*
X-2852Y6956D01*
X-2867Y6978D01*
X-2888Y6985D01*
X-2903D01*
X-2803Y6847D02*
X-2811Y6840D01*
X-2803Y6833D01*
X-2796Y6840D01*
X-2803Y6847D01*
X-2719Y6985D02*
X-2741Y6978D01*
X-2756Y6956D01*
X-2763Y6920D01*
Y6898D01*
X-2756Y6862D01*
X-2741Y6840D01*
X-2719Y6833D01*
X-2705D01*
X-2683Y6840D01*
X-2669Y6862D01*
X-2661Y6898D01*
Y6920D01*
X-2669Y6956D01*
X-2683Y6978D01*
X-2705Y6985D01*
X-2719D01*
X-2584D02*
X-2605Y6978D01*
X-2620Y6956D01*
X-2627Y6920D01*
Y6898D01*
X-2620Y6862D01*
X-2605Y6840D01*
X-2584Y6833D01*
X-2569D01*
X-2547Y6840D01*
X-2533Y6862D01*
X-2526Y6898D01*
Y6920D01*
X-2533Y6956D01*
X-2547Y6978D01*
X-2569Y6985D01*
X-2584D01*
X-2491Y6956D02*
X-2477Y6963D01*
X-2455Y6985D01*
Y6833D01*
X-2307Y6985D02*
X-2380Y6883D01*
X-2271D01*
X-2307Y6985D02*
Y6833D01*
X-2237Y6970D02*
X-2244Y6978D01*
X-2237Y6985D01*
X-2230Y6978D01*
Y6963D01*
X-2237Y6949D01*
X-2244Y6941D01*
X-2189Y6970D02*
X-2196Y6978D01*
X-2189Y6985D01*
X-2182Y6978D01*
Y6963D01*
X-2189Y6949D01*
X-2196Y6941D01*
X-1909Y6970D02*
Y6825D01*
X-1902Y6970D02*
Y6825D01*
X-1909Y6970D02*
X-1873D01*
X-1909Y6825D02*
X-1873D01*
X-1853Y6956D02*
X-1838Y6963D01*
X-1817Y6985D01*
Y6833D01*
X-1705Y6934D02*
X-1719Y6927D01*
X-1734Y6912D01*
X-1741Y6891D01*
Y6876D01*
X-1734Y6854D01*
X-1719Y6840D01*
X-1705Y6833D01*
X-1683D01*
X-1669Y6840D01*
X-1654Y6854D01*
X-1647Y6876D01*
Y6891D01*
X-1654Y6912D01*
X-1669Y6927D01*
X-1683Y6934D01*
X-1705D01*
X-1534D02*
X-1614Y6833D01*
Y6934D02*
X-1534D01*
X-1614Y6833D02*
X-1534D01*
X-1495Y6847D02*
X-1502Y6840D01*
X-1495Y6833D01*
X-1487Y6840D01*
X-1495Y6847D01*
X-1425Y6970D02*
Y6825D01*
X-1418Y6970D02*
Y6825D01*
X-1454Y6970D02*
X-1418D01*
X-1454Y6825D02*
X-1418D01*
X4407Y6985D02*
Y6833D01*
Y6985D02*
X4472D01*
X4494Y6978D01*
X4501Y6970D01*
X4508Y6956D01*
Y6941D01*
X4501Y6927D01*
X4494Y6920D01*
X4472Y6912D01*
X4407D02*
X4472D01*
X4494Y6905D01*
X4501Y6898D01*
X4508Y6883D01*
Y6862D01*
X4501Y6847D01*
X4494Y6840D01*
X4472Y6833D01*
X4407D01*
X4579Y6934D02*
X4564Y6927D01*
X4550Y6912D01*
X4543Y6891D01*
Y6876D01*
X4550Y6854D01*
X4564Y6840D01*
X4579Y6833D01*
X4601D01*
X4615Y6840D01*
X4630Y6854D01*
X4637Y6876D01*
Y6891D01*
X4630Y6912D01*
X4615Y6927D01*
X4601Y6934D01*
X4579D01*
X4692Y6985D02*
Y6862D01*
X4699Y6840D01*
X4714Y6833D01*
X4728D01*
X4670Y6934D02*
X4721D01*
X4772Y6985D02*
Y6862D01*
X4779Y6840D01*
X4794Y6833D01*
X4808D01*
X4750Y6934D02*
X4801D01*
X4866D02*
X4852Y6927D01*
X4837Y6912D01*
X4830Y6891D01*
Y6876D01*
X4837Y6854D01*
X4852Y6840D01*
X4866Y6833D01*
X4888D01*
X4902Y6840D01*
X4917Y6854D01*
X4924Y6876D01*
Y6891D01*
X4917Y6912D01*
X4902Y6927D01*
X4888Y6934D01*
X4866D01*
X4958D02*
Y6833D01*
Y6905D02*
X4979Y6927D01*
X4994Y6934D01*
X5016D01*
X5030Y6927D01*
X5037Y6905D01*
Y6833D01*
Y6905D02*
X5059Y6927D01*
X5074Y6934D01*
X5095D01*
X5110Y6927D01*
X5117Y6905D01*
Y6833D01*
X5285Y6985D02*
Y6833D01*
X5372D01*
X5476Y6934D02*
Y6833D01*
Y6912D02*
X5461Y6927D01*
X5447Y6934D01*
X5425D01*
X5410Y6927D01*
X5396Y6912D01*
X5389Y6891D01*
Y6876D01*
X5396Y6854D01*
X5410Y6840D01*
X5425Y6833D01*
X5447D01*
X5461Y6840D01*
X5476Y6854D01*
X5524Y6934D02*
X5567Y6833D01*
X5611Y6934D02*
X5567Y6833D01*
X5553Y6804D01*
X5538Y6789D01*
X5524Y6782D01*
X5516D01*
X5636Y6891D02*
X5723D01*
Y6905D01*
X5716Y6920D01*
X5709Y6927D01*
X5694Y6934D01*
X5672D01*
X5658Y6927D01*
X5643Y6912D01*
X5636Y6891D01*
Y6876D01*
X5643Y6854D01*
X5658Y6840D01*
X5672Y6833D01*
X5694D01*
X5709Y6840D01*
X5723Y6854D01*
X5756Y6934D02*
Y6833D01*
Y6891D02*
X5763Y6912D01*
X5777Y6927D01*
X5792Y6934D01*
X5814D01*
X4560Y7586D02*
Y7434D01*
Y7586D02*
X4655D01*
X4560Y7514D02*
X4618D01*
X4672Y7586D02*
Y7434D01*
Y7586D02*
X4737D01*
X4759Y7579D01*
X4766Y7572D01*
X4774Y7557D01*
Y7543D01*
X4766Y7528D01*
X4759Y7521D01*
X4737Y7514D01*
X4672D01*
X4723D02*
X4774Y7434D01*
X4880Y7586D02*
X4808Y7484D01*
X4916D01*
X4880Y7586D02*
Y7434D01*
X5172Y7550D02*
X5165Y7564D01*
X5150Y7579D01*
X5136Y7586D01*
X5107D01*
X5092Y7579D01*
X5078Y7564D01*
X5070Y7550D01*
X5063Y7528D01*
Y7492D01*
X5070Y7470D01*
X5078Y7455D01*
X5092Y7441D01*
X5107Y7434D01*
X5136D01*
X5150Y7441D01*
X5165Y7455D01*
X5172Y7470D01*
X5251Y7535D02*
X5236Y7528D01*
X5222Y7514D01*
X5215Y7492D01*
Y7477D01*
X5222Y7455D01*
X5236Y7441D01*
X5251Y7434D01*
X5273D01*
X5287Y7441D01*
X5302Y7455D01*
X5309Y7477D01*
Y7492D01*
X5302Y7514D01*
X5287Y7528D01*
X5273Y7535D01*
X5251D01*
X5342D02*
Y7434D01*
Y7492D02*
X5350Y7514D01*
X5364Y7528D01*
X5379Y7535D01*
X5400D01*
X5414Y7492D02*
X5501D01*
Y7506D01*
X5494Y7521D01*
X5487Y7528D01*
X5472Y7535D01*
X5450D01*
X5436Y7528D01*
X5421Y7514D01*
X5414Y7492D01*
Y7477D01*
X5421Y7455D01*
X5436Y7441D01*
X5450Y7434D01*
X5472D01*
X5487Y7441D01*
X5501Y7455D01*
X4572Y8179D02*
Y8026D01*
X4521Y8179D02*
X4623D01*
X4677Y8128D02*
X4663Y8121D01*
X4648Y8106D01*
X4641Y8084D01*
Y8070D01*
X4648Y8048D01*
X4663Y8034D01*
X4677Y8026D01*
X4699D01*
X4713Y8034D01*
X4728Y8048D01*
X4735Y8070D01*
Y8084D01*
X4728Y8106D01*
X4713Y8121D01*
X4699Y8128D01*
X4677D01*
X4769D02*
Y7976D01*
Y8106D02*
X4783Y8121D01*
X4798Y8128D01*
X4819D01*
X4834Y8121D01*
X4848Y8106D01*
X4856Y8084D01*
Y8070D01*
X4848Y8048D01*
X4834Y8034D01*
X4819Y8026D01*
X4798D01*
X4783Y8034D01*
X4769Y8048D01*
X5008Y8179D02*
Y8026D01*
X5095D01*
X5199Y8128D02*
Y8026D01*
Y8106D02*
X5184Y8121D01*
X5170Y8128D01*
X5148D01*
X5134Y8121D01*
X5119Y8106D01*
X5112Y8084D01*
Y8070D01*
X5119Y8048D01*
X5134Y8034D01*
X5148Y8026D01*
X5170D01*
X5184Y8034D01*
X5199Y8048D01*
X5247Y8128D02*
X5290Y8026D01*
X5334Y8128D02*
X5290Y8026D01*
X5276Y7997D01*
X5261Y7983D01*
X5247Y7976D01*
X5240D01*
X5359Y8084D02*
X5446D01*
Y8099D01*
X5439Y8113D01*
X5432Y8121D01*
X5417Y8128D01*
X5395D01*
X5381Y8121D01*
X5366Y8106D01*
X5359Y8084D01*
Y8070D01*
X5366Y8048D01*
X5381Y8034D01*
X5395Y8026D01*
X5417D01*
X5432Y8034D01*
X5446Y8048D01*
X5479Y8128D02*
Y8026D01*
Y8084D02*
X5486Y8106D01*
X5501Y8121D01*
X5515Y8128D01*
X5537D01*
D35*
X-5334Y15259D02*
X-5225D01*
X-5189Y15271D01*
X-5177Y15284D01*
X-5165Y15308D01*
Y15344D01*
X-5177Y15368D01*
X-5189Y15380D01*
X-5225Y15392D01*
X-5334D01*
Y15138D01*
X-4926Y15332D02*
X-4939Y15356D01*
X-4963Y15380D01*
X-4987Y15392D01*
X-5035D01*
X-5059Y15380D01*
X-5084Y15356D01*
X-5096Y15332D01*
X-5108Y15296D01*
Y15235D01*
X-5096Y15199D01*
X-5084Y15175D01*
X-5059Y15150D01*
X-5035Y15138D01*
X-4987D01*
X-4963Y15150D01*
X-4939Y15175D01*
X-4926Y15199D01*
X-4855Y15392D02*
Y15138D01*
Y15392D02*
X-4746D01*
X-4710Y15380D01*
X-4698Y15368D01*
X-4686Y15344D01*
Y15320D01*
X-4698Y15296D01*
X-4710Y15284D01*
X-4746Y15271D01*
X-4855D02*
X-4746D01*
X-4710Y15259D01*
X-4698Y15247D01*
X-4686Y15223D01*
Y15187D01*
X-4698Y15163D01*
X-4710Y15150D01*
X-4746Y15138D01*
X-4855D01*
X-5306Y10268D02*
X-5197D01*
X-5161Y10280D01*
X-5149Y10292D01*
X-5137Y10316D01*
Y10352D01*
X-5149Y10377D01*
X-5161Y10389D01*
X-5197Y10401D01*
X-5306D01*
Y10147D01*
X-4898Y10340D02*
X-4910Y10365D01*
X-4935Y10389D01*
X-4959Y10401D01*
X-5007D01*
X-5031Y10389D01*
X-5056Y10365D01*
X-5068Y10340D01*
X-5080Y10304D01*
Y10244D01*
X-5068Y10207D01*
X-5056Y10183D01*
X-5031Y10159D01*
X-5007Y10147D01*
X-4959D01*
X-4935Y10159D01*
X-4910Y10183D01*
X-4898Y10207D01*
X-4827Y10401D02*
Y10147D01*
Y10401D02*
X-4718D01*
X-4682Y10389D01*
X-4670Y10377D01*
X-4658Y10352D01*
Y10328D01*
X-4670Y10304D01*
X-4682Y10292D01*
X-4718Y10280D01*
X-4827D02*
X-4718D01*
X-4682Y10268D01*
X-4670Y10256D01*
X-4658Y10231D01*
Y10195D01*
X-4670Y10171D01*
X-4682Y10159D01*
X-4718Y10147D01*
X-4827D01*
X-4232Y10365D02*
X-4256Y10389D01*
X-4292Y10401D01*
X-4341D01*
X-4377Y10389D01*
X-4401Y10365D01*
Y10340D01*
X-4389Y10316D01*
X-4377Y10304D01*
X-4353Y10292D01*
X-4280Y10268D01*
X-4256Y10256D01*
X-4244Y10244D01*
X-4232Y10219D01*
Y10183D01*
X-4256Y10159D01*
X-4292Y10147D01*
X-4341D01*
X-4377Y10159D01*
X-4401Y10183D01*
X-4091Y10401D02*
Y10147D01*
X-4175Y10401D02*
X-4006D01*
X-3782Y10147D02*
X-3879Y10401D01*
X-3976Y10147D01*
X-3939Y10231D02*
X-3818D01*
X-3542Y10340D02*
X-3554Y10365D01*
X-3578Y10389D01*
X-3602Y10401D01*
X-3650D01*
X-3675Y10389D01*
X-3699Y10365D01*
X-3711Y10340D01*
X-3723Y10304D01*
Y10244D01*
X-3711Y10207D01*
X-3699Y10183D01*
X-3675Y10159D01*
X-3650Y10147D01*
X-3602D01*
X-3578Y10159D01*
X-3554Y10183D01*
X-3542Y10207D01*
X-3470Y10401D02*
Y10147D01*
X-3301Y10401D02*
X-3470Y10231D01*
X-3410Y10292D02*
X-3301Y10147D01*
X-3244Y10256D02*
X-3026D01*
X-2951Y10401D02*
Y10219D01*
X-2939Y10183D01*
X-2915Y10159D01*
X-2879Y10147D01*
X-2855D01*
X-2818Y10159D01*
X-2794Y10183D01*
X-2782Y10219D01*
Y10401D01*
X-2712Y10268D02*
X-2603D01*
X-2567Y10280D01*
X-2555Y10292D01*
X-2543Y10316D01*
Y10352D01*
X-2555Y10377D01*
X-2567Y10389D01*
X-2603Y10401D01*
X-2712D01*
Y10147D01*
D60*
X6224Y15020D02*
G03*
X6097Y15147I-127J0D01*
G01*
Y10676D02*
G03*
X6224Y10803I0J127D01*
G01*
X-5562Y15147D02*
G03*
X-5689Y15020I0J-127D01*
G01*
Y10803D02*
G03*
X-5562Y10676I127J0D01*
G01*
X-5660Y5812D02*
G03*
X-5533Y5685I127J0D01*
G01*
Y10155D02*
G03*
X-5660Y10028I0J-127D01*
G01*
X6125Y5685D02*
G03*
X6252Y5812I0J127D01*
G01*
Y10028D02*
G03*
X6125Y10155I-127J0D01*
G01*
X6224Y10803D02*
Y15020D01*
X-5689Y10803D02*
Y15020D01*
X-5562Y10676D02*
X6097D01*
X-4432Y15147D02*
X6097Y15147D01*
X-2370Y10155D02*
X6125Y10155D01*
X-5533Y5685D02*
X6125D01*
X-5660Y5812D02*
Y10028D01*
X6252Y5812D02*
Y10028D01*
D61*
X2668Y-1219D02*
X2728Y-1179D01*
X2728Y-1260D01*
X2668Y-1219D02*
X2728Y-1260D01*
X2618Y-1290D02*
X2618Y-1149D01*
X2819Y-1149D01*
X2819Y-1290D01*
X2618Y-1290D02*
X2819Y-1290D01*
D62*
X-3428Y6234D02*
X-3253D01*
X-3428D02*
Y8834D01*
X-3253D01*
X-708Y7271D02*
Y7696D01*
Y7271D02*
X4192D01*
Y7696D01*
X-708D02*
X4192D01*
D63*
X3415Y-239D02*
X3415Y-1136D01*
X3290Y-305D02*
X3415Y-239D01*
X2873Y-305D02*
X3290Y-305D01*
X3285Y-1061D02*
X3415Y-1136D01*
X2873Y-1061D02*
X3285Y-1061D01*
X2873Y-305D02*
X2873Y-1061D01*
D64*
X3295Y-1101D02*
X3295Y-269D01*
D65*
X-1858Y11261D02*
Y11176D01*
Y11243D02*
X-1870Y11255D01*
X-1882Y11261D01*
X-1900D01*
X-1912Y11255D01*
X-1924Y11243D01*
X-1930Y11224D01*
Y11212D01*
X-1924Y11194D01*
X-1912Y11182D01*
X-1900Y11176D01*
X-1882D01*
X-1870Y11182D01*
X-1858Y11194D01*
X-1818Y11188D02*
X-1824Y11182D01*
X-1818Y11176D01*
X-1812Y11182D01*
X-1818Y11188D01*
X-1684Y11303D02*
Y11176D01*
X-1612D01*
X-1525Y11261D02*
Y11176D01*
Y11243D02*
X-1537Y11255D01*
X-1549Y11261D01*
X-1568D01*
X-1580Y11255D01*
X-1592Y11243D01*
X-1598Y11224D01*
Y11212D01*
X-1592Y11194D01*
X-1580Y11182D01*
X-1568Y11176D01*
X-1549D01*
X-1537Y11182D01*
X-1525Y11194D01*
X-1485Y11261D02*
X-1449Y11176D01*
X-1413Y11261D02*
X-1449Y11176D01*
X-1461Y11152D01*
X-1473Y11140D01*
X-1485Y11134D01*
X-1491D01*
X-1392Y11224D02*
X-1319D01*
Y11236D01*
X-1325Y11249D01*
X-1331Y11255D01*
X-1343Y11261D01*
X-1361D01*
X-1374Y11255D01*
X-1386Y11243D01*
X-1392Y11224D01*
Y11212D01*
X-1386Y11194D01*
X-1374Y11182D01*
X-1361Y11176D01*
X-1343D01*
X-1331Y11182D01*
X-1319Y11194D01*
X-1292Y11261D02*
Y11176D01*
Y11224D02*
X-1286Y11243D01*
X-1274Y11255D01*
X-1262Y11261D01*
X-1244D01*
X-1232Y11230D02*
X-1123D01*
X-1068Y11303D02*
Y11200D01*
X-1062Y11182D01*
X-1049Y11176D01*
X-1037D01*
X-1086Y11261D02*
X-1043D01*
X-989D02*
X-1001Y11255D01*
X-1013Y11243D01*
X-1019Y11224D01*
Y11212D01*
X-1013Y11194D01*
X-1001Y11182D01*
X-989Y11176D01*
X-971D01*
X-959Y11182D01*
X-947Y11194D01*
X-941Y11212D01*
Y11224D01*
X-947Y11243D01*
X-959Y11255D01*
X-971Y11261D01*
X-989D01*
X-913Y11230D02*
X-804D01*
X-766Y11303D02*
Y11176D01*
X-694D01*
X-607Y11261D02*
Y11176D01*
Y11243D02*
X-620Y11255D01*
X-632Y11261D01*
X-650D01*
X-662Y11255D01*
X-674Y11243D01*
X-680Y11224D01*
Y11212D01*
X-674Y11194D01*
X-662Y11182D01*
X-650Y11176D01*
X-632D01*
X-620Y11182D01*
X-607Y11194D01*
X-568Y11261D02*
X-531Y11176D01*
X-495Y11261D02*
X-531Y11176D01*
X-543Y11152D01*
X-555Y11140D01*
X-568Y11134D01*
X-574D01*
X-474Y11224D02*
X-401D01*
Y11236D01*
X-407Y11249D01*
X-413Y11255D01*
X-425Y11261D01*
X-444D01*
X-456Y11255D01*
X-468Y11243D01*
X-474Y11224D01*
Y11212D01*
X-468Y11194D01*
X-456Y11182D01*
X-444Y11176D01*
X-425D01*
X-413Y11182D01*
X-401Y11194D01*
X-374Y11261D02*
Y11176D01*
Y11224D02*
X-368Y11243D01*
X-356Y11255D01*
X-344Y11261D01*
X-326D01*
X-214D02*
Y11176D01*
Y11224D02*
X-208Y11243D01*
X-196Y11255D01*
X-184Y11261D01*
X-166D01*
X-155Y11224D02*
X-82D01*
Y11236D01*
X-88Y11249D01*
X-94Y11255D01*
X-106Y11261D01*
X-124D01*
X-136Y11255D01*
X-149Y11243D01*
X-155Y11224D01*
Y11212D01*
X-149Y11194D01*
X-136Y11182D01*
X-124Y11176D01*
X-106D01*
X-94Y11182D01*
X-82Y11194D01*
X18Y11261D02*
Y11164D01*
X12Y11146D01*
X6Y11140D01*
X-6Y11134D01*
X-25D01*
X-37Y11140D01*
X18Y11243D02*
X6Y11255D01*
X-6Y11261D01*
X-25D01*
X-37Y11255D01*
X-49Y11243D01*
X-55Y11224D01*
Y11212D01*
X-49Y11194D01*
X-37Y11182D01*
X-25Y11176D01*
X-6D01*
X6Y11182D01*
X18Y11194D01*
X64Y11303D02*
X70Y11297D01*
X76Y11303D01*
X70Y11309D01*
X64Y11303D01*
X70Y11261D02*
Y11176D01*
X165Y11243D02*
X159Y11255D01*
X140Y11261D01*
X122D01*
X104Y11255D01*
X98Y11243D01*
X104Y11230D01*
X116Y11224D01*
X147Y11218D01*
X159Y11212D01*
X165Y11200D01*
Y11194D01*
X159Y11182D01*
X140Y11176D01*
X122D01*
X104Y11182D01*
X98Y11194D01*
X209Y11303D02*
Y11200D01*
X215Y11182D01*
X228Y11176D01*
X240D01*
X191Y11261D02*
X234D01*
X258D02*
Y11176D01*
Y11224D02*
X264Y11243D01*
X276Y11255D01*
X288Y11261D01*
X306D01*
X390D02*
Y11176D01*
Y11243D02*
X378Y11255D01*
X366Y11261D01*
X348D01*
X336Y11255D01*
X324Y11243D01*
X318Y11224D01*
Y11212D01*
X324Y11194D01*
X336Y11182D01*
X348Y11176D01*
X366D01*
X378Y11182D01*
X390Y11194D01*
X442Y11303D02*
Y11200D01*
X448Y11182D01*
X460Y11176D01*
X472D01*
X424Y11261D02*
X466D01*
X503Y11303D02*
X509Y11297D01*
X515Y11303D01*
X509Y11309D01*
X503Y11303D01*
X509Y11261D02*
Y11176D01*
X567Y11261D02*
X555Y11255D01*
X543Y11243D01*
X537Y11224D01*
Y11212D01*
X543Y11194D01*
X555Y11182D01*
X567Y11176D01*
X585D01*
X598Y11182D01*
X610Y11194D01*
X616Y11212D01*
Y11224D01*
X610Y11243D01*
X598Y11255D01*
X585Y11261D01*
X567D01*
X644D02*
Y11176D01*
Y11236D02*
X662Y11255D01*
X674Y11261D01*
X692D01*
X704Y11255D01*
X710Y11236D01*
Y11176D01*
X843Y11261D02*
Y11176D01*
Y11236D02*
X861Y11255D01*
X873Y11261D01*
X891D01*
X904Y11255D01*
X910Y11236D01*
Y11176D01*
Y11236D02*
X928Y11255D01*
X940Y11261D01*
X958D01*
X970Y11255D01*
X976Y11236D01*
Y11176D01*
X1016Y11261D02*
Y11200D01*
X1022Y11182D01*
X1034Y11176D01*
X1052D01*
X1064Y11182D01*
X1082Y11200D01*
Y11261D02*
Y11176D01*
X1182Y11243D02*
X1176Y11255D01*
X1158Y11261D01*
X1140D01*
X1122Y11255D01*
X1116Y11243D01*
X1122Y11230D01*
X1134Y11224D01*
X1164Y11218D01*
X1176Y11212D01*
X1182Y11200D01*
Y11194D01*
X1176Y11182D01*
X1158Y11176D01*
X1140D01*
X1122Y11182D01*
X1116Y11194D01*
X1227Y11303D02*
Y11200D01*
X1233Y11182D01*
X1245Y11176D01*
X1257D01*
X1209Y11261D02*
X1251D01*
X1375Y11303D02*
Y11176D01*
Y11243D02*
X1387Y11255D01*
X1399Y11261D01*
X1417D01*
X1430Y11255D01*
X1442Y11243D01*
X1448Y11224D01*
Y11212D01*
X1442Y11194D01*
X1430Y11182D01*
X1417Y11176D01*
X1399D01*
X1387Y11182D01*
X1375Y11194D01*
X1475Y11224D02*
X1547D01*
Y11236D01*
X1541Y11249D01*
X1535Y11255D01*
X1523Y11261D01*
X1505D01*
X1493Y11255D01*
X1481Y11243D01*
X1475Y11224D01*
Y11212D01*
X1481Y11194D01*
X1493Y11182D01*
X1505Y11176D01*
X1523D01*
X1535Y11182D01*
X1547Y11194D01*
X1729Y11285D02*
Y11176D01*
X1674Y11230D02*
X1783D01*
X1821Y11158D02*
X1905Y11303D01*
X1914Y11230D02*
X2023D01*
X2196Y11303D02*
X2178Y11297D01*
X2166Y11279D01*
X2160Y11249D01*
Y11230D01*
X2166Y11200D01*
X2178Y11182D01*
X2196Y11176D01*
X2208D01*
X2226Y11182D01*
X2239Y11200D01*
X2245Y11230D01*
Y11249D01*
X2239Y11279D01*
X2226Y11297D01*
X2208Y11303D01*
X2196D01*
X2279Y11188D02*
X2273Y11182D01*
X2279Y11176D01*
X2285Y11182D01*
X2279Y11188D01*
X2349Y11303D02*
X2331Y11297D01*
X2319Y11279D01*
X2313Y11249D01*
Y11230D01*
X2319Y11200D01*
X2331Y11182D01*
X2349Y11176D01*
X2361D01*
X2379Y11182D01*
X2392Y11200D01*
X2398Y11230D01*
Y11249D01*
X2392Y11279D01*
X2379Y11297D01*
X2361Y11303D01*
X2349D01*
X2462D02*
X2444Y11297D01*
X2432Y11279D01*
X2426Y11249D01*
Y11230D01*
X2432Y11200D01*
X2444Y11182D01*
X2462Y11176D01*
X2474D01*
X2492Y11182D01*
X2505Y11200D01*
X2511Y11230D01*
Y11249D01*
X2505Y11279D01*
X2492Y11297D01*
X2474Y11303D01*
X2462D01*
X2551D02*
X2618D01*
X2581Y11255D01*
X2600D01*
X2612Y11249D01*
X2618Y11243D01*
X2624Y11224D01*
Y11212D01*
X2618Y11194D01*
X2606Y11182D01*
X2587Y11176D01*
X2569D01*
X2551Y11182D01*
X2545Y11188D01*
X2539Y11200D01*
X2782Y11261D02*
X2770Y11255D01*
X2758Y11243D01*
X2752Y11224D01*
Y11212D01*
X2758Y11194D01*
X2770Y11182D01*
X2782Y11176D01*
X2800D01*
X2812Y11182D01*
X2824Y11194D01*
X2830Y11212D01*
Y11224D01*
X2824Y11243D01*
X2812Y11255D01*
X2800Y11261D01*
X2782D01*
X2907Y11303D02*
X2895D01*
X2882Y11297D01*
X2876Y11279D01*
Y11176D01*
X2858Y11261D02*
X2901D01*
X3043Y11303D02*
Y11200D01*
X3049Y11182D01*
X3061Y11176D01*
X3073D01*
X3025Y11261D02*
X3067D01*
X3091Y11303D02*
Y11176D01*
Y11236D02*
X3109Y11255D01*
X3121Y11261D01*
X3139D01*
X3152Y11255D01*
X3158Y11236D01*
Y11176D01*
X3191Y11224D02*
X3263D01*
Y11236D01*
X3257Y11249D01*
X3251Y11255D01*
X3239Y11261D01*
X3221D01*
X3209Y11255D01*
X3197Y11243D01*
X3191Y11224D01*
Y11212D01*
X3197Y11194D01*
X3209Y11182D01*
X3221Y11176D01*
X3239D01*
X3251Y11182D01*
X3263Y11194D01*
X3409Y11303D02*
Y11200D01*
X3415Y11182D01*
X3427Y11176D01*
X3439D01*
X3390Y11261D02*
X3433D01*
X3457D02*
Y11176D01*
Y11224D02*
X3463Y11243D01*
X3475Y11255D01*
X3487Y11261D01*
X3505D01*
X3517D02*
Y11200D01*
X3523Y11182D01*
X3535Y11176D01*
X3553D01*
X3565Y11182D01*
X3583Y11200D01*
Y11261D02*
Y11176D01*
X3616Y11224D02*
X3689D01*
Y11236D01*
X3683Y11249D01*
X3677Y11255D01*
X3665Y11261D01*
X3647D01*
X3635Y11255D01*
X3623Y11243D01*
X3616Y11224D01*
Y11212D01*
X3623Y11194D01*
X3635Y11182D01*
X3647Y11176D01*
X3665D01*
X3677Y11182D01*
X3689Y11194D01*
X3816Y11261D02*
Y11134D01*
Y11243D02*
X3828Y11255D01*
X3840Y11261D01*
X3858D01*
X3870Y11255D01*
X3883Y11243D01*
X3889Y11224D01*
Y11212D01*
X3883Y11194D01*
X3870Y11182D01*
X3858Y11176D01*
X3840D01*
X3828Y11182D01*
X3816Y11194D01*
X3946Y11261D02*
X3934Y11255D01*
X3922Y11243D01*
X3916Y11224D01*
Y11212D01*
X3922Y11194D01*
X3934Y11182D01*
X3946Y11176D01*
X3964D01*
X3976Y11182D01*
X3988Y11194D01*
X3994Y11212D01*
Y11224D01*
X3988Y11243D01*
X3976Y11255D01*
X3964Y11261D01*
X3946D01*
X4089Y11243D02*
X4083Y11255D01*
X4065Y11261D01*
X4046D01*
X4028Y11255D01*
X4022Y11243D01*
X4028Y11230D01*
X4040Y11224D01*
X4071Y11218D01*
X4083Y11212D01*
X4089Y11200D01*
Y11194D01*
X4083Y11182D01*
X4065Y11176D01*
X4046D01*
X4028Y11182D01*
X4022Y11194D01*
X4127Y11303D02*
X4133Y11297D01*
X4140Y11303D01*
X4133Y11309D01*
X4127Y11303D01*
X4133Y11261D02*
Y11176D01*
X4180Y11303D02*
Y11200D01*
X4186Y11182D01*
X4198Y11176D01*
X4210D01*
X4162Y11261D02*
X4204D01*
X4240Y11303D02*
X4247Y11297D01*
X4253Y11303D01*
X4247Y11309D01*
X4240Y11303D01*
X4247Y11261D02*
Y11176D01*
X4305Y11261D02*
X4293Y11255D01*
X4281Y11243D01*
X4275Y11224D01*
Y11212D01*
X4281Y11194D01*
X4293Y11182D01*
X4305Y11176D01*
X4323D01*
X4335Y11182D01*
X4347Y11194D01*
X4354Y11212D01*
Y11224D01*
X4347Y11243D01*
X4335Y11255D01*
X4323Y11261D01*
X4305D01*
X4381D02*
Y11176D01*
Y11236D02*
X4399Y11255D01*
X4412Y11261D01*
X4430D01*
X4442Y11255D01*
X4448Y11236D01*
Y11176D01*
X4487Y11188D02*
X4481Y11182D01*
X4487Y11176D01*
X4493Y11182D01*
X4487Y11188D01*
X-1905Y11024D02*
Y10897D01*
Y10963D02*
X-1893Y10975D01*
X-1881Y10981D01*
X-1863D01*
X-1851Y10975D01*
X-1838Y10963D01*
X-1832Y10945D01*
Y10933D01*
X-1838Y10915D01*
X-1851Y10903D01*
X-1863Y10897D01*
X-1881D01*
X-1893Y10903D01*
X-1905Y10915D01*
X-1799Y10909D02*
X-1805Y10903D01*
X-1799Y10897D01*
X-1793Y10903D01*
X-1799Y10909D01*
X-1569Y10897D02*
X-1617Y11024D01*
X-1666Y10897D01*
X-1647Y10939D02*
X-1587D01*
X-1539Y11024D02*
Y10897D01*
X-1513Y11024D02*
Y10897D01*
X-1386Y11024D02*
Y10897D01*
Y10957D02*
X-1368Y10975D01*
X-1356Y10981D01*
X-1338D01*
X-1326Y10975D01*
X-1320Y10957D01*
Y10897D01*
X-1256Y10981D02*
X-1268Y10975D01*
X-1280Y10963D01*
X-1286Y10945D01*
Y10933D01*
X-1280Y10915D01*
X-1268Y10903D01*
X-1256Y10897D01*
X-1238D01*
X-1226Y10903D01*
X-1214Y10915D01*
X-1208Y10933D01*
Y10945D01*
X-1214Y10963D01*
X-1226Y10975D01*
X-1238Y10981D01*
X-1256D01*
X-1180Y11024D02*
Y10897D01*
X-1153Y10945D02*
X-1081D01*
Y10957D01*
X-1087Y10969D01*
X-1093Y10975D01*
X-1105Y10981D01*
X-1123D01*
X-1135Y10975D01*
X-1147Y10963D01*
X-1153Y10945D01*
Y10933D01*
X-1147Y10915D01*
X-1135Y10903D01*
X-1123Y10897D01*
X-1105D01*
X-1093Y10903D01*
X-1081Y10915D01*
X-987Y10963D02*
X-993Y10975D01*
X-1011Y10981D01*
X-1029D01*
X-1048Y10975D01*
X-1054Y10963D01*
X-1048Y10951D01*
X-1036Y10945D01*
X-1005Y10939D01*
X-993Y10933D01*
X-987Y10921D01*
Y10915D01*
X-993Y10903D01*
X-1011Y10897D01*
X-1029D01*
X-1048Y10903D01*
X-1054Y10915D01*
X-794Y10963D02*
X-800Y10975D01*
X-818Y10981D01*
X-837D01*
X-855Y10975D01*
X-861Y10963D01*
X-855Y10951D01*
X-843Y10945D01*
X-812Y10939D01*
X-800Y10933D01*
X-794Y10921D01*
Y10915D01*
X-800Y10903D01*
X-818Y10897D01*
X-837D01*
X-855Y10903D01*
X-861Y10915D01*
X-768Y11024D02*
Y10897D01*
Y10957D02*
X-750Y10975D01*
X-737Y10981D01*
X-719D01*
X-707Y10975D01*
X-701Y10957D01*
Y10897D01*
X-595Y10981D02*
Y10897D01*
Y10963D02*
X-607Y10975D01*
X-620Y10981D01*
X-638D01*
X-650Y10975D01*
X-662Y10963D01*
X-668Y10945D01*
Y10933D01*
X-662Y10915D01*
X-650Y10903D01*
X-638Y10897D01*
X-620D01*
X-607Y10903D01*
X-595Y10915D01*
X-562Y11024D02*
Y10897D01*
X-535Y11024D02*
Y10897D01*
X-409Y11024D02*
Y10897D01*
Y10963D02*
X-396Y10975D01*
X-384Y10981D01*
X-366D01*
X-354Y10975D01*
X-342Y10963D01*
X-336Y10945D01*
Y10933D01*
X-342Y10915D01*
X-354Y10903D01*
X-366Y10897D01*
X-384D01*
X-396Y10903D01*
X-409Y10915D01*
X-309Y10945D02*
X-236D01*
Y10957D01*
X-242Y10969D01*
X-248Y10975D01*
X-260Y10981D01*
X-279D01*
X-291Y10975D01*
X-303Y10963D01*
X-309Y10945D01*
Y10933D01*
X-303Y10915D01*
X-291Y10903D01*
X-279Y10897D01*
X-260D01*
X-248Y10903D01*
X-236Y10915D01*
X-109Y11024D02*
Y10897D01*
X-52Y10981D02*
X-64Y10975D01*
X-77Y10963D01*
X-83Y10945D01*
Y10933D01*
X-77Y10915D01*
X-64Y10903D01*
X-52Y10897D01*
X-34D01*
X-22Y10903D01*
X-10Y10915D01*
X-4Y10933D01*
Y10945D01*
X-10Y10963D01*
X-22Y10975D01*
X-34Y10981D01*
X-52D01*
X96Y10963D02*
X84Y10975D01*
X72Y10981D01*
X54D01*
X42Y10975D01*
X30Y10963D01*
X24Y10945D01*
Y10933D01*
X30Y10915D01*
X42Y10903D01*
X54Y10897D01*
X72D01*
X84Y10903D01*
X96Y10915D01*
X196Y10981D02*
Y10897D01*
Y10963D02*
X184Y10975D01*
X172Y10981D01*
X154D01*
X142Y10975D01*
X130Y10963D01*
X124Y10945D01*
Y10933D01*
X130Y10915D01*
X142Y10903D01*
X154Y10897D01*
X172D01*
X184Y10903D01*
X196Y10915D01*
X248Y11024D02*
Y10921D01*
X254Y10903D01*
X266Y10897D01*
X278D01*
X230Y10981D02*
X272D01*
X296Y10945D02*
X369D01*
Y10957D01*
X363Y10969D01*
X357Y10975D01*
X345Y10981D01*
X327D01*
X315Y10975D01*
X303Y10963D01*
X296Y10945D01*
Y10933D01*
X303Y10915D01*
X315Y10903D01*
X327Y10897D01*
X345D01*
X357Y10903D01*
X369Y10915D01*
X469Y11024D02*
Y10897D01*
Y10963D02*
X457Y10975D01*
X445Y10981D01*
X426D01*
X414Y10975D01*
X402Y10963D01*
X396Y10945D01*
Y10933D01*
X402Y10915D01*
X414Y10903D01*
X426Y10897D01*
X445D01*
X457Y10903D01*
X469Y10915D01*
X602Y10981D02*
X627Y10897D01*
X651Y10981D02*
X627Y10897D01*
X651Y10981D02*
X675Y10897D01*
X699Y10981D02*
X675Y10897D01*
X741Y11024D02*
X747Y11018D01*
X753Y11024D01*
X747Y11030D01*
X741Y11024D01*
X747Y10981D02*
Y10897D01*
X793Y11024D02*
Y10921D01*
X800Y10903D01*
X812Y10897D01*
X824D01*
X775Y10981D02*
X818D01*
X842Y11024D02*
Y10897D01*
Y10957D02*
X860Y10975D01*
X872Y10981D01*
X890D01*
X902Y10975D01*
X908Y10957D01*
Y10897D01*
X954Y11024D02*
X960Y11018D01*
X966Y11024D01*
X960Y11030D01*
X954Y11024D01*
X960Y10981D02*
Y10897D01*
X988Y10981D02*
Y10897D01*
Y10957D02*
X1006Y10975D01*
X1018Y10981D01*
X1037D01*
X1049Y10975D01*
X1055Y10957D01*
Y10897D01*
X1242Y11005D02*
Y10897D01*
X1188Y10951D02*
X1297D01*
X1334Y10878D02*
X1419Y11024D01*
X1427Y10951D02*
X1536D01*
X1709Y11024D02*
X1691Y11018D01*
X1679Y10999D01*
X1673Y10969D01*
Y10951D01*
X1679Y10921D01*
X1691Y10903D01*
X1709Y10897D01*
X1722D01*
X1740Y10903D01*
X1752Y10921D01*
X1758Y10951D01*
Y10969D01*
X1752Y10999D01*
X1740Y11018D01*
X1722Y11024D01*
X1709D01*
X1792Y10909D02*
X1786Y10903D01*
X1792Y10897D01*
X1798Y10903D01*
X1792Y10909D01*
X1862Y11024D02*
X1844Y11018D01*
X1832Y10999D01*
X1826Y10969D01*
Y10951D01*
X1832Y10921D01*
X1844Y10903D01*
X1862Y10897D01*
X1875D01*
X1893Y10903D01*
X1905Y10921D01*
X1911Y10951D01*
Y10969D01*
X1905Y10999D01*
X1893Y11018D01*
X1875Y11024D01*
X1862D01*
X1976D02*
X1957Y11018D01*
X1945Y10999D01*
X1939Y10969D01*
Y10951D01*
X1945Y10921D01*
X1957Y10903D01*
X1976Y10897D01*
X1988D01*
X2006Y10903D01*
X2018Y10921D01*
X2024Y10951D01*
Y10969D01*
X2018Y10999D01*
X2006Y11018D01*
X1988Y11024D01*
X1976D01*
X2064D02*
X2131D01*
X2095Y10975D01*
X2113D01*
X2125Y10969D01*
X2131Y10963D01*
X2137Y10945D01*
Y10933D01*
X2131Y10915D01*
X2119Y10903D01*
X2101Y10897D01*
X2083D01*
X2064Y10903D01*
X2058Y10909D01*
X2052Y10921D01*
X2171Y11011D02*
X2165Y11018D01*
X2171Y11024D01*
X2177Y11018D01*
Y11005D01*
X2171Y10993D01*
X2165Y10987D01*
X2211Y11011D02*
X2205Y11018D01*
X2211Y11024D01*
X2217Y11018D01*
Y11005D01*
X2211Y10993D01*
X2205Y10987D01*
X2375Y10981D02*
X2363Y10975D01*
X2351Y10963D01*
X2345Y10945D01*
Y10933D01*
X2351Y10915D01*
X2363Y10903D01*
X2375Y10897D01*
X2393D01*
X2405Y10903D01*
X2418Y10915D01*
X2424Y10933D01*
Y10945D01*
X2418Y10963D01*
X2405Y10975D01*
X2393Y10981D01*
X2375D01*
X2500Y11024D02*
X2488D01*
X2476Y11018D01*
X2470Y10999D01*
Y10897D01*
X2451Y10981D02*
X2494D01*
X2636Y11024D02*
Y10921D01*
X2642Y10903D01*
X2654Y10897D01*
X2666D01*
X2618Y10981D02*
X2660D01*
X2684Y11024D02*
Y10897D01*
Y10957D02*
X2702Y10975D01*
X2714Y10981D01*
X2733D01*
X2745Y10975D01*
X2751Y10957D01*
Y10897D01*
X2784Y10945D02*
X2856D01*
Y10957D01*
X2850Y10969D01*
X2844Y10975D01*
X2832Y10981D01*
X2814D01*
X2802Y10975D01*
X2790Y10963D01*
X2784Y10945D01*
Y10933D01*
X2790Y10915D01*
X2802Y10903D01*
X2814Y10897D01*
X2832D01*
X2844Y10903D01*
X2856Y10915D01*
X3002Y11024D02*
Y10921D01*
X3008Y10903D01*
X3020Y10897D01*
X3032D01*
X2983Y10981D02*
X3026D01*
X3050D02*
Y10897D01*
Y10945D02*
X3056Y10963D01*
X3068Y10975D01*
X3080Y10981D01*
X3098D01*
X3110D02*
Y10921D01*
X3116Y10903D01*
X3128Y10897D01*
X3146D01*
X3158Y10903D01*
X3176Y10921D01*
Y10981D02*
Y10897D01*
X3210Y10945D02*
X3282D01*
Y10957D01*
X3276Y10969D01*
X3270Y10975D01*
X3258Y10981D01*
X3240D01*
X3228Y10975D01*
X3216Y10963D01*
X3210Y10945D01*
Y10933D01*
X3216Y10915D01*
X3228Y10903D01*
X3240Y10897D01*
X3258D01*
X3270Y10903D01*
X3282Y10915D01*
X3409Y10981D02*
Y10854D01*
Y10963D02*
X3421Y10975D01*
X3433Y10981D01*
X3451D01*
X3464Y10975D01*
X3476Y10963D01*
X3482Y10945D01*
Y10933D01*
X3476Y10915D01*
X3464Y10903D01*
X3451Y10897D01*
X3433D01*
X3421Y10903D01*
X3409Y10915D01*
X3539Y10981D02*
X3527Y10975D01*
X3515Y10963D01*
X3509Y10945D01*
Y10933D01*
X3515Y10915D01*
X3527Y10903D01*
X3539Y10897D01*
X3557D01*
X3569Y10903D01*
X3581Y10915D01*
X3587Y10933D01*
Y10945D01*
X3581Y10963D01*
X3569Y10975D01*
X3557Y10981D01*
X3539D01*
X3682Y10963D02*
X3676Y10975D01*
X3658Y10981D01*
X3639D01*
X3621Y10975D01*
X3615Y10963D01*
X3621Y10951D01*
X3633Y10945D01*
X3664Y10939D01*
X3676Y10933D01*
X3682Y10921D01*
Y10915D01*
X3676Y10903D01*
X3658Y10897D01*
X3639D01*
X3621Y10903D01*
X3615Y10915D01*
X3720Y11024D02*
X3727Y11018D01*
X3733Y11024D01*
X3727Y11030D01*
X3720Y11024D01*
X3727Y10981D02*
Y10897D01*
X3773Y11024D02*
Y10921D01*
X3779Y10903D01*
X3791Y10897D01*
X3803D01*
X3755Y10981D02*
X3797D01*
X3834Y11024D02*
X3840Y11018D01*
X3846Y11024D01*
X3840Y11030D01*
X3834Y11024D01*
X3840Y10981D02*
Y10897D01*
X3898Y10981D02*
X3886Y10975D01*
X3874Y10963D01*
X3868Y10945D01*
Y10933D01*
X3874Y10915D01*
X3886Y10903D01*
X3898Y10897D01*
X3916D01*
X3928Y10903D01*
X3941Y10915D01*
X3947Y10933D01*
Y10945D01*
X3941Y10963D01*
X3928Y10975D01*
X3916Y10981D01*
X3898D01*
X3974D02*
Y10897D01*
Y10957D02*
X3993Y10975D01*
X4005Y10981D01*
X4023D01*
X4035Y10975D01*
X4041Y10957D01*
Y10897D01*
X-1852Y11540D02*
X-1858Y11522D01*
X-1870Y11510D01*
X-1888Y11504D01*
X-1894D01*
X-1912Y11510D01*
X-1924Y11522D01*
X-1930Y11540D01*
Y11546D01*
X-1924Y11564D01*
X-1912Y11576D01*
X-1894Y11582D01*
X-1888D01*
X-1870Y11576D01*
X-1858Y11564D01*
X-1852Y11540D01*
Y11510D01*
X-1858Y11480D01*
X-1870Y11461D01*
X-1888Y11455D01*
X-1900D01*
X-1918Y11461D01*
X-1924Y11474D01*
X-1757Y11582D02*
X-1817Y11498D01*
X-1727D01*
X-1757Y11582D02*
Y11455D01*
X-1704Y11582D02*
X-1656Y11455D01*
X-1608Y11582D02*
X-1656Y11455D01*
X-1591Y11510D02*
X-1482D01*
X-1409Y11582D02*
X-1427Y11576D01*
X-1439Y11558D01*
X-1445Y11528D01*
Y11510D01*
X-1439Y11480D01*
X-1427Y11461D01*
X-1409Y11455D01*
X-1397D01*
X-1378Y11461D01*
X-1366Y11480D01*
X-1360Y11510D01*
Y11528D01*
X-1366Y11558D01*
X-1378Y11576D01*
X-1397Y11582D01*
X-1409D01*
X-1888Y11862D02*
Y11735D01*
X-1930Y11862D02*
X-1846D01*
X-1800Y11819D02*
X-1812Y11813D01*
X-1825Y11801D01*
X-1831Y11783D01*
Y11771D01*
X-1825Y11753D01*
X-1812Y11741D01*
X-1800Y11735D01*
X-1782D01*
X-1770Y11741D01*
X-1758Y11753D01*
X-1752Y11771D01*
Y11783D01*
X-1758Y11801D01*
X-1770Y11813D01*
X-1782Y11819D01*
X-1800D01*
X-1724Y11862D02*
Y11735D01*
X-1698Y11783D02*
X-1625D01*
Y11795D01*
X-1631Y11807D01*
X-1637Y11813D01*
X-1649Y11819D01*
X-1667D01*
X-1679Y11813D01*
X-1692Y11801D01*
X-1698Y11783D01*
Y11771D01*
X-1692Y11753D01*
X-1679Y11741D01*
X-1667Y11735D01*
X-1649D01*
X-1637Y11741D01*
X-1625Y11753D01*
X-1598Y11819D02*
Y11735D01*
Y11783D02*
X-1592Y11801D01*
X-1580Y11813D01*
X-1568Y11819D01*
X-1549D01*
X-1465D02*
Y11735D01*
Y11801D02*
X-1478Y11813D01*
X-1490Y11819D01*
X-1508D01*
X-1520Y11813D01*
X-1532Y11801D01*
X-1538Y11783D01*
Y11771D01*
X-1532Y11753D01*
X-1520Y11741D01*
X-1508Y11735D01*
X-1490D01*
X-1478Y11741D01*
X-1465Y11753D01*
X-1432Y11819D02*
Y11735D01*
Y11795D02*
X-1413Y11813D01*
X-1401Y11819D01*
X-1383D01*
X-1371Y11813D01*
X-1365Y11795D01*
Y11735D01*
X-1259Y11801D02*
X-1271Y11813D01*
X-1283Y11819D01*
X-1302D01*
X-1314Y11813D01*
X-1326Y11801D01*
X-1332Y11783D01*
Y11771D01*
X-1326Y11753D01*
X-1314Y11741D01*
X-1302Y11735D01*
X-1283D01*
X-1271Y11741D01*
X-1259Y11753D01*
X-1232Y11783D02*
X-1159D01*
Y11795D01*
X-1166Y11807D01*
X-1172Y11813D01*
X-1184Y11819D01*
X-1202D01*
X-1214Y11813D01*
X-1226Y11801D01*
X-1232Y11783D01*
Y11771D01*
X-1226Y11753D01*
X-1214Y11741D01*
X-1202Y11735D01*
X-1184D01*
X-1172Y11741D01*
X-1159Y11753D01*
X-1126Y11819D02*
X-1132Y11813D01*
X-1126Y11807D01*
X-1120Y11813D01*
X-1126Y11819D01*
Y11747D02*
X-1132Y11741D01*
X-1126Y11735D01*
X-1120Y11741D01*
X-1126Y11747D01*
X-938Y11844D02*
Y11735D01*
X-993Y11789D02*
X-884D01*
X-846Y11717D02*
X-762Y11862D01*
X-753Y11789D02*
X-644D01*
X-495Y11862D02*
X-428D01*
X-465Y11813D01*
X-447D01*
X-435Y11807D01*
X-428Y11801D01*
X-422Y11783D01*
Y11771D01*
X-428Y11753D01*
X-441Y11741D01*
X-459Y11735D01*
X-477D01*
X-495Y11741D01*
X-501Y11747D01*
X-507Y11759D01*
X-394Y11819D02*
Y11735D01*
Y11795D02*
X-376Y11813D01*
X-364Y11819D01*
X-346D01*
X-334Y11813D01*
X-328Y11795D01*
Y11735D01*
Y11795D02*
X-309Y11813D01*
X-297Y11819D01*
X-279D01*
X-267Y11813D01*
X-261Y11795D01*
Y11735D01*
X-209Y11862D02*
X-203Y11856D01*
X-197Y11862D01*
X-203Y11868D01*
X-209Y11862D01*
X-203Y11819D02*
Y11735D01*
X-175Y11862D02*
Y11735D01*
X-81Y11801D02*
X-87Y11813D01*
X-106Y11819D01*
X-124D01*
X-142Y11813D01*
X-148Y11801D01*
X-142Y11789D01*
X-130Y11783D01*
X-100Y11777D01*
X-87Y11771D01*
X-81Y11759D01*
Y11753D01*
X-87Y11741D01*
X-106Y11735D01*
X-124D01*
X-142Y11741D01*
X-148Y11753D01*
X117Y11862D02*
Y11735D01*
Y11801D02*
X105Y11813D01*
X93Y11819D01*
X75D01*
X63Y11813D01*
X51Y11801D01*
X45Y11783D01*
Y11771D01*
X51Y11753D01*
X63Y11741D01*
X75Y11735D01*
X93D01*
X105Y11741D01*
X117Y11753D01*
X163Y11862D02*
X169Y11856D01*
X176Y11862D01*
X169Y11868D01*
X163Y11862D01*
X169Y11819D02*
Y11735D01*
X270Y11819D02*
Y11735D01*
Y11801D02*
X258Y11813D01*
X246Y11819D01*
X228D01*
X216Y11813D01*
X204Y11801D01*
X198Y11783D01*
Y11771D01*
X204Y11753D01*
X216Y11741D01*
X228Y11735D01*
X246D01*
X258Y11741D01*
X270Y11753D01*
X304Y11819D02*
Y11735D01*
Y11795D02*
X322Y11813D01*
X335Y11819D01*
X353D01*
X365Y11813D01*
X371Y11795D01*
Y11735D01*
Y11795D02*
X389Y11813D01*
X401Y11819D01*
X419D01*
X431Y11813D01*
X437Y11795D01*
Y11735D01*
X477Y11783D02*
X550D01*
Y11795D01*
X544Y11807D01*
X538Y11813D01*
X526Y11819D01*
X507D01*
X495Y11813D01*
X483Y11801D01*
X477Y11783D01*
Y11771D01*
X483Y11753D01*
X495Y11741D01*
X507Y11735D01*
X526D01*
X538Y11741D01*
X550Y11753D01*
X595Y11862D02*
Y11759D01*
X601Y11741D01*
X613Y11735D01*
X625D01*
X577Y11819D02*
X619D01*
X644Y11783D02*
X716D01*
Y11795D01*
X710Y11807D01*
X704Y11813D01*
X692Y11819D01*
X674D01*
X662Y11813D01*
X650Y11801D01*
X644Y11783D01*
Y11771D01*
X650Y11753D01*
X662Y11741D01*
X674Y11735D01*
X692D01*
X704Y11741D01*
X716Y11753D01*
X743Y11819D02*
Y11735D01*
Y11783D02*
X749Y11801D01*
X761Y11813D01*
X774Y11819D01*
X792D01*
X903D02*
Y11735D01*
Y11795D02*
X921Y11813D01*
X933Y11819D01*
X951D01*
X963Y11813D01*
X969Y11795D01*
Y11735D01*
Y11795D02*
X988Y11813D01*
X1000Y11819D01*
X1018D01*
X1030Y11813D01*
X1036Y11795D01*
Y11735D01*
X1148Y11819D02*
Y11735D01*
Y11801D02*
X1136Y11813D01*
X1124Y11819D01*
X1106D01*
X1094Y11813D01*
X1082Y11801D01*
X1076Y11783D01*
Y11771D01*
X1082Y11753D01*
X1094Y11741D01*
X1106Y11735D01*
X1124D01*
X1136Y11741D01*
X1148Y11753D01*
X1182Y11819D02*
X1249Y11735D01*
Y11819D02*
X1182Y11735D01*
X1281Y11747D02*
X1275Y11741D01*
X1281Y11735D01*
X1287Y11741D01*
X1281Y11747D01*
X-1930Y12116D02*
Y11989D01*
Y12116D02*
X-1888D01*
X-1870Y12110D01*
X-1858Y12098D01*
X-1852Y12086D01*
X-1846Y12067D01*
Y12037D01*
X-1852Y12019D01*
X-1858Y12007D01*
X-1870Y11995D01*
X-1888Y11989D01*
X-1930D01*
X-1805Y12116D02*
X-1799Y12110D01*
X-1793Y12116D01*
X-1799Y12122D01*
X-1805Y12116D01*
X-1799Y12073D02*
Y11989D01*
X-1771Y12073D02*
Y11989D01*
Y12049D02*
X-1753Y12067D01*
X-1741Y12073D01*
X-1722D01*
X-1710Y12067D01*
X-1704Y12049D01*
Y11989D01*
Y12049D02*
X-1686Y12067D01*
X-1674Y12073D01*
X-1656D01*
X-1644Y12067D01*
X-1638Y12049D01*
Y11989D01*
X-1598Y12037D02*
X-1525D01*
Y12049D01*
X-1531Y12061D01*
X-1537Y12067D01*
X-1549Y12073D01*
X-1568D01*
X-1580Y12067D01*
X-1592Y12055D01*
X-1598Y12037D01*
Y12025D01*
X-1592Y12007D01*
X-1580Y11995D01*
X-1568Y11989D01*
X-1549D01*
X-1537Y11995D01*
X-1525Y12007D01*
X-1498Y12073D02*
Y11989D01*
Y12049D02*
X-1480Y12067D01*
X-1468Y12073D01*
X-1450D01*
X-1438Y12067D01*
X-1432Y12049D01*
Y11989D01*
X-1332Y12055D02*
X-1338Y12067D01*
X-1356Y12073D01*
X-1374D01*
X-1392Y12067D01*
X-1398Y12055D01*
X-1392Y12043D01*
X-1380Y12037D01*
X-1350Y12031D01*
X-1338Y12025D01*
X-1332Y12013D01*
Y12007D01*
X-1338Y11995D01*
X-1356Y11989D01*
X-1374D01*
X-1392Y11995D01*
X-1398Y12007D01*
X-1293Y12116D02*
X-1287Y12110D01*
X-1281Y12116D01*
X-1287Y12122D01*
X-1293Y12116D01*
X-1287Y12073D02*
Y11989D01*
X-1228Y12073D02*
X-1241Y12067D01*
X-1253Y12055D01*
X-1259Y12037D01*
Y12025D01*
X-1253Y12007D01*
X-1241Y11995D01*
X-1228Y11989D01*
X-1210D01*
X-1198Y11995D01*
X-1186Y12007D01*
X-1180Y12025D01*
Y12037D01*
X-1186Y12055D01*
X-1198Y12067D01*
X-1210Y12073D01*
X-1228D01*
X-1152D02*
Y11989D01*
Y12049D02*
X-1134Y12067D01*
X-1122Y12073D01*
X-1104D01*
X-1092Y12067D01*
X-1086Y12049D01*
Y11989D01*
X-986Y12055D02*
X-992Y12067D01*
X-1010Y12073D01*
X-1028D01*
X-1046Y12067D01*
X-1052Y12055D01*
X-1046Y12043D01*
X-1034Y12037D01*
X-1004Y12031D01*
X-992Y12025D01*
X-986Y12013D01*
Y12007D01*
X-992Y11995D01*
X-1010Y11989D01*
X-1028D01*
X-1046Y11995D01*
X-1052Y12007D01*
X-793Y12055D02*
X-799Y12067D01*
X-817Y12073D01*
X-835D01*
X-854Y12067D01*
X-860Y12055D01*
X-854Y12043D01*
X-841Y12037D01*
X-811Y12031D01*
X-799Y12025D01*
X-793Y12013D01*
Y12007D01*
X-799Y11995D01*
X-817Y11989D01*
X-835D01*
X-854Y11995D01*
X-860Y12007D01*
X-766Y12073D02*
Y11946D01*
Y12055D02*
X-754Y12067D01*
X-742Y12073D01*
X-724D01*
X-712Y12067D01*
X-700Y12055D01*
X-694Y12037D01*
Y12025D01*
X-700Y12007D01*
X-712Y11995D01*
X-724Y11989D01*
X-742D01*
X-754Y11995D01*
X-766Y12007D01*
X-667Y12037D02*
X-594D01*
Y12049D01*
X-600Y12061D01*
X-606Y12067D01*
X-618Y12073D01*
X-636D01*
X-649Y12067D01*
X-661Y12055D01*
X-667Y12037D01*
Y12025D01*
X-661Y12007D01*
X-649Y11995D01*
X-636Y11989D01*
X-618D01*
X-606Y11995D01*
X-594Y12007D01*
X-494Y12055D02*
X-506Y12067D01*
X-519Y12073D01*
X-537D01*
X-549Y12067D01*
X-561Y12055D01*
X-567Y12037D01*
Y12025D01*
X-561Y12007D01*
X-549Y11995D01*
X-537Y11989D01*
X-519D01*
X-506Y11995D01*
X-494Y12007D01*
X-455Y12116D02*
X-449Y12110D01*
X-443Y12116D01*
X-449Y12122D01*
X-455Y12116D01*
X-449Y12073D02*
Y11989D01*
X-372Y12116D02*
X-384D01*
X-396Y12110D01*
X-402Y12092D01*
Y11989D01*
X-421Y12073D02*
X-378D01*
X-342Y12116D02*
X-336Y12110D01*
X-330Y12116D01*
X-336Y12122D01*
X-342Y12116D01*
X-336Y12073D02*
Y11989D01*
X-308Y12037D02*
X-235D01*
Y12049D01*
X-241Y12061D01*
X-247Y12067D01*
X-259Y12073D01*
X-277D01*
X-289Y12067D01*
X-302Y12055D01*
X-308Y12037D01*
Y12025D01*
X-302Y12007D01*
X-289Y11995D01*
X-277Y11989D01*
X-259D01*
X-247Y11995D01*
X-235Y12007D01*
X-135Y12116D02*
Y11989D01*
Y12055D02*
X-147Y12067D01*
X-159Y12073D01*
X-178D01*
X-190Y12067D01*
X-202Y12055D01*
X-208Y12037D01*
Y12025D01*
X-202Y12007D01*
X-190Y11995D01*
X-178Y11989D01*
X-159D01*
X-147Y11995D01*
X-135Y12007D01*
X10Y12116D02*
X17Y12110D01*
X23Y12116D01*
X17Y12122D01*
X10Y12116D01*
X17Y12073D02*
Y11989D01*
X45Y12073D02*
Y11989D01*
Y12049D02*
X63Y12067D01*
X75Y12073D01*
X93D01*
X105Y12067D01*
X111Y12049D01*
Y11989D01*
X263Y12116D02*
Y12013D01*
X269Y11995D01*
X281Y11989D01*
X293D01*
X244Y12073D02*
X287D01*
X311Y12116D02*
Y11989D01*
Y12049D02*
X329Y12067D01*
X341Y12073D01*
X359D01*
X371Y12067D01*
X377Y12049D01*
Y11989D01*
X411Y12037D02*
X483D01*
Y12049D01*
X477Y12061D01*
X471Y12067D01*
X459Y12073D01*
X441D01*
X429Y12067D01*
X417Y12055D01*
X411Y12037D01*
Y12025D01*
X417Y12007D01*
X429Y11995D01*
X441Y11989D01*
X459D01*
X471Y11995D01*
X483Y12007D01*
X683Y12073D02*
Y11977D01*
X677Y11959D01*
X671Y11953D01*
X659Y11946D01*
X640D01*
X628Y11953D01*
X683Y12055D02*
X671Y12067D01*
X659Y12073D01*
X640D01*
X628Y12067D01*
X616Y12055D01*
X610Y12037D01*
Y12025D01*
X616Y12007D01*
X628Y11995D01*
X640Y11989D01*
X659D01*
X671Y11995D01*
X683Y12007D01*
X717Y12037D02*
X789D01*
Y12049D01*
X783Y12061D01*
X777Y12067D01*
X765Y12073D01*
X747D01*
X735Y12067D01*
X723Y12055D01*
X717Y12037D01*
Y12025D01*
X723Y12007D01*
X735Y11995D01*
X747Y11989D01*
X765D01*
X777Y11995D01*
X789Y12007D01*
X816Y12073D02*
Y11989D01*
Y12037D02*
X822Y12055D01*
X835Y12067D01*
X847Y12073D01*
X865D01*
X876Y12116D02*
Y11989D01*
Y12055D02*
X888Y12067D01*
X900Y12073D01*
X919D01*
X931Y12067D01*
X943Y12055D01*
X949Y12037D01*
Y12025D01*
X943Y12007D01*
X931Y11995D01*
X919Y11989D01*
X900D01*
X888Y11995D01*
X876Y12007D01*
X976Y12037D02*
X1049D01*
Y12049D01*
X1043Y12061D01*
X1037Y12067D01*
X1024Y12073D01*
X1006D01*
X994Y12067D01*
X982Y12055D01*
X976Y12037D01*
Y12025D01*
X982Y12007D01*
X994Y11995D01*
X1006Y11989D01*
X1024D01*
X1037Y11995D01*
X1049Y12007D01*
X1076Y12073D02*
Y11989D01*
Y12037D02*
X1082Y12055D01*
X1094Y12067D01*
X1106Y12073D01*
X1124D01*
X1284Y12116D02*
X1272D01*
X1260Y12110D01*
X1254Y12092D01*
Y11989D01*
X1235Y12073D02*
X1278D01*
X1314Y12116D02*
X1320Y12110D01*
X1326Y12116D01*
X1320Y12122D01*
X1314Y12116D01*
X1320Y12073D02*
Y11989D01*
X1349Y12116D02*
Y11989D01*
X1375Y12037D02*
X1448D01*
Y12049D01*
X1442Y12061D01*
X1436Y12067D01*
X1423Y12073D01*
X1405D01*
X1393Y12067D01*
X1381Y12055D01*
X1375Y12037D01*
Y12025D01*
X1381Y12007D01*
X1393Y11995D01*
X1405Y11989D01*
X1423D01*
X1436Y11995D01*
X1448Y12007D01*
X1541Y12055D02*
X1535Y12067D01*
X1517Y12073D01*
X1499D01*
X1481Y12067D01*
X1475Y12055D01*
X1481Y12043D01*
X1493Y12037D01*
X1523Y12031D01*
X1535Y12025D01*
X1541Y12013D01*
Y12007D01*
X1535Y11995D01*
X1517Y11989D01*
X1499D01*
X1481Y11995D01*
X1475Y12007D01*
X1740Y12073D02*
Y11989D01*
Y12055D02*
X1728Y12067D01*
X1716Y12073D01*
X1698D01*
X1686Y12067D01*
X1674Y12055D01*
X1668Y12037D01*
Y12025D01*
X1674Y12007D01*
X1686Y11995D01*
X1698Y11989D01*
X1716D01*
X1728Y11995D01*
X1740Y12007D01*
X1774Y12073D02*
Y11989D01*
Y12037D02*
X1780Y12055D01*
X1792Y12067D01*
X1804Y12073D01*
X1823D01*
X1834Y12037D02*
X1907D01*
Y12049D01*
X1901Y12061D01*
X1895Y12067D01*
X1882Y12073D01*
X1864D01*
X1852Y12067D01*
X1840Y12055D01*
X1834Y12037D01*
Y12025D01*
X1840Y12007D01*
X1852Y11995D01*
X1864Y11989D01*
X1882D01*
X1895Y11995D01*
X1907Y12007D01*
X2082Y12116D02*
X2070D01*
X2058Y12110D01*
X2052Y12092D01*
Y11989D01*
X2034Y12073D02*
X2076D01*
X2112Y12116D02*
X2118Y12110D01*
X2124Y12116D01*
X2118Y12122D01*
X2112Y12116D01*
X2118Y12073D02*
Y11989D01*
X2147Y12073D02*
Y11989D01*
Y12049D02*
X2165Y12067D01*
X2177Y12073D01*
X2195D01*
X2207Y12067D01*
X2213Y12049D01*
Y11989D01*
X2258Y12116D02*
X2265Y12110D01*
X2271Y12116D01*
X2265Y12122D01*
X2258Y12116D01*
X2265Y12073D02*
Y11989D01*
X2359Y12055D02*
X2353Y12067D01*
X2335Y12073D01*
X2317D01*
X2299Y12067D01*
X2293Y12055D01*
X2299Y12043D01*
X2311Y12037D01*
X2341Y12031D01*
X2353Y12025D01*
X2359Y12013D01*
Y12007D01*
X2353Y11995D01*
X2335Y11989D01*
X2317D01*
X2299Y11995D01*
X2293Y12007D01*
X2386Y12116D02*
Y11989D01*
Y12049D02*
X2404Y12067D01*
X2416Y12073D01*
X2434D01*
X2447Y12067D01*
X2453Y12049D01*
Y11989D01*
X2486Y12037D02*
X2558D01*
Y12049D01*
X2552Y12061D01*
X2546Y12067D01*
X2534Y12073D01*
X2516D01*
X2504Y12067D01*
X2492Y12055D01*
X2486Y12037D01*
Y12025D01*
X2492Y12007D01*
X2504Y11995D01*
X2516Y11989D01*
X2534D01*
X2546Y11995D01*
X2558Y12007D01*
X2658Y12116D02*
Y11989D01*
Y12055D02*
X2646Y12067D01*
X2634Y12073D01*
X2616D01*
X2604Y12067D01*
X2592Y12055D01*
X2586Y12037D01*
Y12025D01*
X2592Y12007D01*
X2604Y11995D01*
X2616Y11989D01*
X2634D01*
X2646Y11995D01*
X2658Y12007D01*
X2858Y12055D02*
X2852Y12067D01*
X2834Y12073D01*
X2816D01*
X2798Y12067D01*
X2792Y12055D01*
X2798Y12043D01*
X2810Y12037D01*
X2840Y12031D01*
X2852Y12025D01*
X2858Y12013D01*
Y12007D01*
X2852Y11995D01*
X2834Y11989D01*
X2816D01*
X2798Y11995D01*
X2792Y12007D01*
X2897Y12116D02*
X2903Y12110D01*
X2909Y12116D01*
X2903Y12122D01*
X2897Y12116D01*
X2903Y12073D02*
Y11989D01*
X2998Y12073D02*
X2931Y11989D01*
Y12073D02*
X2998D01*
X2931Y11989D02*
X2998D01*
X3025Y12037D02*
X3097D01*
Y12049D01*
X3091Y12061D01*
X3085Y12067D01*
X3073Y12073D01*
X3055D01*
X3043Y12067D01*
X3031Y12055D01*
X3025Y12037D01*
Y12025D01*
X3031Y12007D01*
X3043Y11995D01*
X3055Y11989D01*
X3073D01*
X3085Y11995D01*
X3097Y12007D01*
X3191Y12055D02*
X3185Y12067D01*
X3167Y12073D01*
X3149D01*
X3130Y12067D01*
X3124Y12055D01*
X3130Y12043D01*
X3142Y12037D01*
X3173Y12031D01*
X3185Y12025D01*
X3191Y12013D01*
Y12007D01*
X3185Y11995D01*
X3167Y11989D01*
X3149D01*
X3130Y11995D01*
X3124Y12007D01*
X3230Y11995D02*
X3223Y11989D01*
X3217Y11995D01*
X3223Y12001D01*
X3230Y11995D01*
Y11983D01*
X3223Y11971D01*
X3217Y11965D01*
X3357Y12073D02*
Y11946D01*
Y12055D02*
X3369Y12067D01*
X3381Y12073D01*
X3399D01*
X3412Y12067D01*
X3424Y12055D01*
X3430Y12037D01*
Y12025D01*
X3424Y12007D01*
X3412Y11995D01*
X3399Y11989D01*
X3381D01*
X3369Y11995D01*
X3357Y12007D01*
X3457Y12116D02*
Y11989D01*
X3556Y12073D02*
Y11989D01*
Y12055D02*
X3544Y12067D01*
X3532Y12073D01*
X3514D01*
X3502Y12067D01*
X3490Y12055D01*
X3483Y12037D01*
Y12025D01*
X3490Y12007D01*
X3502Y11995D01*
X3514Y11989D01*
X3532D01*
X3544Y11995D01*
X3556Y12007D01*
X3608Y12116D02*
Y12013D01*
X3614Y11995D01*
X3626Y11989D01*
X3638D01*
X3590Y12073D02*
X3632D01*
X3656Y12037D02*
X3729D01*
Y12049D01*
X3723Y12061D01*
X3717Y12067D01*
X3705Y12073D01*
X3687D01*
X3675Y12067D01*
X3662Y12055D01*
X3656Y12037D01*
Y12025D01*
X3662Y12007D01*
X3675Y11995D01*
X3687Y11989D01*
X3705D01*
X3717Y11995D01*
X3729Y12007D01*
X3829Y12116D02*
Y11989D01*
Y12055D02*
X3817Y12067D01*
X3805Y12073D01*
X3786D01*
X3774Y12067D01*
X3762Y12055D01*
X3756Y12037D01*
Y12025D01*
X3762Y12007D01*
X3774Y11995D01*
X3786Y11989D01*
X3805D01*
X3817Y11995D01*
X3829Y12007D01*
X3993Y12073D02*
X3980Y12067D01*
X3968Y12055D01*
X3962Y12037D01*
Y12025D01*
X3968Y12007D01*
X3980Y11995D01*
X3993Y11989D01*
X4011D01*
X4023Y11995D01*
X4035Y12007D01*
X4041Y12025D01*
Y12037D01*
X4035Y12055D01*
X4023Y12067D01*
X4011Y12073D01*
X3993D01*
X4069D02*
Y11989D01*
Y12037D02*
X4075Y12055D01*
X4087Y12067D01*
X4099Y12073D01*
X4117D01*
X4228D02*
Y12013D01*
X4234Y11995D01*
X4247Y11989D01*
X4265D01*
X4277Y11995D01*
X4295Y12013D01*
Y12073D02*
Y11989D01*
X4328Y12073D02*
Y11989D01*
Y12049D02*
X4346Y12067D01*
X4358Y12073D01*
X4377D01*
X4389Y12067D01*
X4395Y12049D01*
Y11989D01*
X4428Y12073D02*
Y11946D01*
Y12055D02*
X4440Y12067D01*
X4452Y12073D01*
X4470D01*
X4482Y12067D01*
X4494Y12055D01*
X4500Y12037D01*
Y12025D01*
X4494Y12007D01*
X4482Y11995D01*
X4470Y11989D01*
X4452D01*
X4440Y11995D01*
X4428Y12007D01*
X4528Y12116D02*
Y11989D01*
X4627Y12073D02*
Y11989D01*
Y12055D02*
X4615Y12067D01*
X4603Y12073D01*
X4585D01*
X4572Y12067D01*
X4560Y12055D01*
X4554Y12037D01*
Y12025D01*
X4560Y12007D01*
X4572Y11995D01*
X4585Y11989D01*
X4603D01*
X4615Y11995D01*
X4627Y12007D01*
X4679Y12116D02*
Y12013D01*
X4685Y11995D01*
X4697Y11989D01*
X4709D01*
X4661Y12073D02*
X4703D01*
X4727Y12037D02*
X4800D01*
Y12049D01*
X4794Y12061D01*
X4788Y12067D01*
X4776Y12073D01*
X4757D01*
X4745Y12067D01*
X4733Y12055D01*
X4727Y12037D01*
Y12025D01*
X4733Y12007D01*
X4745Y11995D01*
X4757Y11989D01*
X4776D01*
X4788Y11995D01*
X4800Y12007D01*
X4900Y12116D02*
Y11989D01*
Y12055D02*
X4887Y12067D01*
X4875Y12073D01*
X4857D01*
X4845Y12067D01*
X4833Y12055D01*
X4827Y12037D01*
Y12025D01*
X4833Y12007D01*
X4845Y11995D01*
X4857Y11989D01*
X4875D01*
X4887Y11995D01*
X4900Y12007D01*
X4939Y12001D02*
X4933Y11995D01*
X4939Y11989D01*
X4945Y11995D01*
X4939Y12001D01*
X-1930Y12370D02*
Y12243D01*
Y12370D02*
X-1846Y12243D01*
Y12370D02*
Y12243D01*
X-1811Y12370D02*
Y12243D01*
X-1784Y12370D02*
Y12243D01*
X-1712D01*
X-1888Y12852D02*
Y12725D01*
X-1930Y12852D02*
X-1846D01*
X-1794D02*
X-1806Y12846D01*
X-1819Y12834D01*
X-1825Y12822D01*
X-1831Y12804D01*
Y12774D01*
X-1825Y12756D01*
X-1819Y12744D01*
X-1806Y12731D01*
X-1794Y12725D01*
X-1770D01*
X-1758Y12731D01*
X-1746Y12744D01*
X-1740Y12756D01*
X-1734Y12774D01*
Y12804D01*
X-1740Y12822D01*
X-1746Y12834D01*
X-1758Y12846D01*
X-1770Y12852D01*
X-1794D01*
X-1704Y12786D02*
X-1650D01*
X-1632Y12792D01*
X-1626Y12798D01*
X-1620Y12810D01*
Y12828D01*
X-1626Y12840D01*
X-1632Y12846D01*
X-1650Y12852D01*
X-1704D01*
Y12725D01*
X-1383Y12804D02*
X-1389Y12798D01*
X-1383Y12792D01*
X-1377Y12798D01*
Y12804D01*
X-1383Y12810D01*
X-1389D01*
X-1395Y12804D01*
X-1401Y12792D01*
X-1413Y12762D01*
X-1425Y12744D01*
X-1437Y12731D01*
X-1449Y12725D01*
X-1467D01*
X-1485Y12731D01*
X-1491Y12744D01*
Y12762D01*
X-1485Y12774D01*
X-1449Y12798D01*
X-1437Y12810D01*
X-1431Y12822D01*
Y12834D01*
X-1437Y12846D01*
X-1449Y12852D01*
X-1461Y12846D01*
X-1467Y12834D01*
Y12822D01*
X-1461Y12804D01*
X-1449Y12786D01*
X-1419Y12744D01*
X-1407Y12731D01*
X-1389Y12725D01*
X-1383D01*
X-1377Y12731D01*
Y12737D01*
X-1467Y12725D02*
X-1479Y12731D01*
X-1485Y12744D01*
Y12762D01*
X-1479Y12774D01*
X-1467Y12786D01*
Y12822D02*
X-1461Y12810D01*
X-1413Y12744D01*
X-1401Y12731D01*
X-1389Y12725D01*
X-1245Y12852D02*
Y12725D01*
Y12852D02*
X-1191D01*
X-1173Y12846D01*
X-1167Y12840D01*
X-1161Y12828D01*
Y12816D01*
X-1167Y12804D01*
X-1173Y12798D01*
X-1191Y12792D01*
X-1245D02*
X-1191D01*
X-1173Y12786D01*
X-1167Y12780D01*
X-1161Y12768D01*
Y12750D01*
X-1167Y12737D01*
X-1173Y12731D01*
X-1191Y12725D01*
X-1245D01*
X-1096Y12852D02*
X-1108Y12846D01*
X-1120Y12834D01*
X-1126Y12822D01*
X-1132Y12804D01*
Y12774D01*
X-1126Y12756D01*
X-1120Y12744D01*
X-1108Y12731D01*
X-1096Y12725D01*
X-1072D01*
X-1060Y12731D01*
X-1048Y12744D01*
X-1042Y12756D01*
X-1036Y12774D01*
Y12804D01*
X-1042Y12822D01*
X-1048Y12834D01*
X-1060Y12846D01*
X-1072Y12852D01*
X-1096D01*
X-964D02*
Y12725D01*
X-1006Y12852D02*
X-921D01*
X-864D02*
Y12725D01*
X-906Y12852D02*
X-822D01*
X-770D02*
X-782Y12846D01*
X-794Y12834D01*
X-800Y12822D01*
X-806Y12804D01*
Y12774D01*
X-800Y12756D01*
X-794Y12744D01*
X-782Y12731D01*
X-770Y12725D01*
X-746D01*
X-734Y12731D01*
X-722Y12744D01*
X-716Y12756D01*
X-710Y12774D01*
Y12804D01*
X-716Y12822D01*
X-722Y12834D01*
X-734Y12846D01*
X-746Y12852D01*
X-770D01*
X-680D02*
Y12725D01*
Y12852D02*
X-632Y12725D01*
X-583Y12852D02*
X-632Y12725D01*
X-583Y12852D02*
Y12725D01*
X-541Y12810D02*
X-547Y12804D01*
X-541Y12798D01*
X-535Y12804D01*
X-541Y12810D01*
Y12737D02*
X-547Y12731D01*
X-541Y12725D01*
X-535Y12731D01*
X-541Y12737D01*
X-407Y12828D02*
X-395Y12834D01*
X-377Y12852D01*
Y12725D01*
X-184Y12810D02*
X-196Y12804D01*
X-208Y12792D01*
X-214Y12774D01*
Y12762D01*
X-208Y12744D01*
X-196Y12731D01*
X-184Y12725D01*
X-166D01*
X-154Y12731D01*
X-142Y12744D01*
X-136Y12762D01*
Y12774D01*
X-142Y12792D01*
X-154Y12804D01*
X-166Y12810D01*
X-184D01*
X-42D02*
X-108Y12725D01*
Y12810D02*
X-42D01*
X-108Y12725D02*
X-42D01*
X-9Y12737D02*
X-15Y12731D01*
X-9Y12725D01*
X-3Y12731D01*
X-9Y12737D01*
X-1930Y13106D02*
Y12979D01*
X-1904Y13064D02*
Y12979D01*
Y13040D02*
X-1886Y13058D01*
X-1874Y13064D01*
X-1855D01*
X-1843Y13058D01*
X-1837Y13040D01*
Y12979D01*
Y13040D02*
X-1819Y13058D01*
X-1807Y13064D01*
X-1789D01*
X-1777Y13058D01*
X-1771Y13040D01*
Y12979D01*
X-1731Y13064D02*
Y12979D01*
Y13040D02*
X-1713Y13058D01*
X-1701Y13064D01*
X-1683D01*
X-1670Y13058D01*
X-1664Y13040D01*
Y12979D01*
Y13040D02*
X-1646Y13058D01*
X-1634Y13064D01*
X-1616D01*
X-1604Y13058D01*
X-1598Y13040D01*
Y12979D01*
X-1558Y13028D02*
X-1485D01*
Y13040D01*
X-1491Y13052D01*
X-1497Y13058D01*
X-1510Y13064D01*
X-1528D01*
X-1540Y13058D01*
X-1552Y13046D01*
X-1558Y13028D01*
Y13016D01*
X-1552Y12998D01*
X-1540Y12985D01*
X-1528Y12979D01*
X-1510D01*
X-1497Y12985D01*
X-1485Y12998D01*
X-1458Y13064D02*
Y12979D01*
Y13028D02*
X-1452Y13046D01*
X-1440Y13058D01*
X-1428Y13064D01*
X-1410D01*
X-1332Y13046D02*
X-1338Y13058D01*
X-1356Y13064D01*
X-1374D01*
X-1392Y13058D01*
X-1398Y13046D01*
X-1392Y13034D01*
X-1380Y13028D01*
X-1350Y13022D01*
X-1338Y13016D01*
X-1332Y13004D01*
Y12998D01*
X-1338Y12985D01*
X-1356Y12979D01*
X-1374D01*
X-1392Y12985D01*
X-1398Y12998D01*
X-1293Y13106D02*
X-1287Y13100D01*
X-1281Y13106D01*
X-1287Y13112D01*
X-1293Y13106D01*
X-1287Y13064D02*
Y12979D01*
X-1228Y13064D02*
X-1241Y13058D01*
X-1253Y13046D01*
X-1259Y13028D01*
Y13016D01*
X-1253Y12998D01*
X-1241Y12985D01*
X-1228Y12979D01*
X-1210D01*
X-1198Y12985D01*
X-1186Y12998D01*
X-1180Y13016D01*
Y13028D01*
X-1186Y13046D01*
X-1198Y13058D01*
X-1210Y13064D01*
X-1228D01*
X-1152D02*
Y12979D01*
Y13040D02*
X-1134Y13058D01*
X-1122Y13064D01*
X-1104D01*
X-1092Y13058D01*
X-1086Y13040D01*
Y12979D01*
X-862Y13076D02*
X-868Y13088D01*
X-880Y13100D01*
X-892Y13106D01*
X-916D01*
X-929Y13100D01*
X-941Y13088D01*
X-947Y13076D01*
X-953Y13058D01*
Y13028D01*
X-947Y13010D01*
X-941Y12998D01*
X-929Y12985D01*
X-916Y12979D01*
X-892D01*
X-880Y12985D01*
X-868Y12998D01*
X-862Y13010D01*
Y13028D01*
X-892D02*
X-862D01*
X-803Y13064D02*
X-815Y13058D01*
X-827Y13046D01*
X-833Y13028D01*
Y13016D01*
X-827Y12998D01*
X-815Y12985D01*
X-803Y12979D01*
X-785D01*
X-773Y12985D01*
X-760Y12998D01*
X-754Y13016D01*
Y13028D01*
X-760Y13046D01*
X-773Y13058D01*
X-785Y13064D01*
X-803D01*
X-727Y13106D02*
Y12979D01*
X-627Y13106D02*
Y12979D01*
Y13046D02*
X-640Y13058D01*
X-652Y13064D01*
X-670D01*
X-682Y13058D01*
X-694Y13046D01*
X-700Y13028D01*
Y13016D01*
X-694Y12998D01*
X-682Y12985D01*
X-670Y12979D01*
X-652D01*
X-640Y12985D01*
X-627Y12998D01*
X-1858Y13572D02*
Y13487D01*
Y13554D02*
X-1870Y13566D01*
X-1882Y13572D01*
X-1900D01*
X-1912Y13566D01*
X-1924Y13554D01*
X-1930Y13536D01*
Y13524D01*
X-1924Y13506D01*
X-1912Y13493D01*
X-1900Y13487D01*
X-1882D01*
X-1870Y13493D01*
X-1858Y13506D01*
X-1818Y13499D02*
X-1824Y13493D01*
X-1818Y13487D01*
X-1812Y13493D01*
X-1818Y13499D01*
X-1684Y13548D02*
X-1630D01*
X-1612Y13554D01*
X-1606Y13560D01*
X-1600Y13572D01*
Y13590D01*
X-1606Y13602D01*
X-1612Y13608D01*
X-1630Y13614D01*
X-1684D01*
Y13487D01*
X-1571Y13536D02*
X-1499D01*
Y13548D01*
X-1505Y13560D01*
X-1511Y13566D01*
X-1523Y13572D01*
X-1541D01*
X-1553Y13566D01*
X-1565Y13554D01*
X-1571Y13536D01*
Y13524D01*
X-1565Y13506D01*
X-1553Y13493D01*
X-1541Y13487D01*
X-1523D01*
X-1511Y13493D01*
X-1499Y13506D01*
X-1471Y13572D02*
Y13487D01*
Y13536D02*
X-1465Y13554D01*
X-1453Y13566D01*
X-1441Y13572D01*
X-1423D01*
X-1412D02*
Y13487D01*
Y13548D02*
X-1393Y13566D01*
X-1381Y13572D01*
X-1363D01*
X-1351Y13566D01*
X-1345Y13548D01*
Y13487D01*
Y13548D02*
X-1327Y13566D01*
X-1315Y13572D01*
X-1297D01*
X-1285Y13566D01*
X-1279Y13548D01*
Y13487D01*
X-1166Y13572D02*
Y13487D01*
Y13554D02*
X-1178Y13566D01*
X-1190Y13572D01*
X-1208D01*
X-1221Y13566D01*
X-1233Y13554D01*
X-1239Y13536D01*
Y13524D01*
X-1233Y13506D01*
X-1221Y13493D01*
X-1208Y13487D01*
X-1190D01*
X-1178Y13493D01*
X-1166Y13506D01*
X-1132Y13572D02*
Y13487D01*
Y13548D02*
X-1114Y13566D01*
X-1102Y13572D01*
X-1084D01*
X-1072Y13566D01*
X-1066Y13548D01*
Y13487D01*
X-1033Y13536D02*
X-960D01*
Y13548D01*
X-966Y13560D01*
X-972Y13566D01*
X-984Y13572D01*
X-1002D01*
X-1014Y13566D01*
X-1026Y13554D01*
X-1033Y13536D01*
Y13524D01*
X-1026Y13506D01*
X-1014Y13493D01*
X-1002Y13487D01*
X-984D01*
X-972Y13493D01*
X-960Y13506D01*
X-933Y13572D02*
Y13487D01*
Y13548D02*
X-915Y13566D01*
X-903Y13572D01*
X-884D01*
X-872Y13566D01*
X-866Y13548D01*
Y13487D01*
X-815Y13614D02*
Y13512D01*
X-809Y13493D01*
X-797Y13487D01*
X-785D01*
X-833Y13572D02*
X-791D01*
X-754Y13493D02*
X-760Y13487D01*
X-766Y13493D01*
X-760Y13499D01*
X-754Y13493D01*
Y13481D01*
X-760Y13469D01*
X-766Y13463D01*
X-627Y13572D02*
Y13487D01*
Y13548D02*
X-609Y13566D01*
X-597Y13572D01*
X-578D01*
X-566Y13566D01*
X-560Y13548D01*
Y13487D01*
X-497Y13572D02*
X-509Y13566D01*
X-521Y13554D01*
X-527Y13536D01*
Y13524D01*
X-521Y13506D01*
X-509Y13493D01*
X-497Y13487D01*
X-479D01*
X-467Y13493D01*
X-454Y13506D01*
X-448Y13524D01*
Y13536D01*
X-454Y13554D01*
X-467Y13566D01*
X-479Y13572D01*
X-497D01*
X-421D02*
Y13487D01*
Y13548D02*
X-402Y13566D01*
X-390Y13572D01*
X-372D01*
X-360Y13566D01*
X-354Y13548D01*
Y13487D01*
X-321Y13542D02*
X-212D01*
X-102Y13554D02*
X-114Y13566D01*
X-126Y13572D01*
X-144D01*
X-156Y13566D01*
X-169Y13554D01*
X-175Y13536D01*
Y13524D01*
X-169Y13506D01*
X-156Y13493D01*
X-144Y13487D01*
X-126D01*
X-114Y13493D01*
X-102Y13506D01*
X-45Y13572D02*
X-57Y13566D01*
X-69Y13554D01*
X-75Y13536D01*
Y13524D01*
X-69Y13506D01*
X-57Y13493D01*
X-45Y13487D01*
X-26D01*
X-14Y13493D01*
X-2Y13506D01*
X4Y13524D01*
Y13536D01*
X-2Y13554D01*
X-14Y13566D01*
X-26Y13572D01*
X-45D01*
X32D02*
Y13487D01*
Y13548D02*
X50Y13566D01*
X62Y13572D01*
X80D01*
X92Y13566D01*
X98Y13548D01*
Y13487D01*
X204Y13614D02*
Y13487D01*
Y13554D02*
X192Y13566D01*
X180Y13572D01*
X162D01*
X150Y13566D01*
X137Y13554D01*
X131Y13536D01*
Y13524D01*
X137Y13506D01*
X150Y13493D01*
X162Y13487D01*
X180D01*
X192Y13493D01*
X204Y13506D01*
X238Y13572D02*
Y13512D01*
X244Y13493D01*
X256Y13487D01*
X274D01*
X286Y13493D01*
X304Y13512D01*
Y13572D02*
Y13487D01*
X410Y13554D02*
X398Y13566D01*
X386Y13572D01*
X368D01*
X356Y13566D01*
X344Y13554D01*
X338Y13536D01*
Y13524D01*
X344Y13506D01*
X356Y13493D01*
X368Y13487D01*
X386D01*
X398Y13493D01*
X410Y13506D01*
X455Y13614D02*
Y13512D01*
X462Y13493D01*
X474Y13487D01*
X486D01*
X437Y13572D02*
X480D01*
X516Y13614D02*
X522Y13608D01*
X528Y13614D01*
X522Y13620D01*
X516Y13614D01*
X522Y13572D02*
Y13487D01*
X550Y13572D02*
X587Y13487D01*
X623Y13572D02*
X587Y13487D01*
X644Y13536D02*
X716D01*
Y13548D01*
X710Y13560D01*
X704Y13566D01*
X692Y13572D01*
X674D01*
X662Y13566D01*
X650Y13554D01*
X644Y13536D01*
Y13524D01*
X650Y13506D01*
X662Y13493D01*
X674Y13487D01*
X692D01*
X704Y13493D01*
X716Y13506D01*
X755Y13493D02*
X749Y13487D01*
X743Y13493D01*
X749Y13499D01*
X755Y13493D01*
Y13481D01*
X749Y13469D01*
X743Y13463D01*
X883Y13572D02*
X907Y13487D01*
X931Y13572D02*
X907Y13487D01*
X931Y13572D02*
X956Y13487D01*
X980Y13572D02*
X956Y13487D01*
X1009Y13614D02*
Y13487D01*
Y13548D02*
X1027Y13566D01*
X1040Y13572D01*
X1058D01*
X1070Y13566D01*
X1076Y13548D01*
Y13487D01*
X1121Y13614D02*
X1127Y13608D01*
X1133Y13614D01*
X1127Y13620D01*
X1121Y13614D01*
X1127Y13572D02*
Y13487D01*
X1174Y13614D02*
Y13512D01*
X1180Y13493D01*
X1192Y13487D01*
X1204D01*
X1156Y13572D02*
X1198D01*
X1222Y13536D02*
X1295D01*
Y13548D01*
X1289Y13560D01*
X1283Y13566D01*
X1271Y13572D01*
X1252D01*
X1240Y13566D01*
X1228Y13554D01*
X1222Y13536D01*
Y13524D01*
X1228Y13506D01*
X1240Y13493D01*
X1252Y13487D01*
X1271D01*
X1283Y13493D01*
X1295Y13506D01*
X1334Y13493D02*
X1328Y13487D01*
X1322Y13493D01*
X1328Y13499D01*
X1334Y13493D01*
Y13481D01*
X1328Y13469D01*
X1322Y13463D01*
X1462Y13536D02*
X1534D01*
Y13548D01*
X1528Y13560D01*
X1522Y13566D01*
X1510Y13572D01*
X1492D01*
X1480Y13566D01*
X1468Y13554D01*
X1462Y13536D01*
Y13524D01*
X1468Y13506D01*
X1480Y13493D01*
X1492Y13487D01*
X1510D01*
X1522Y13493D01*
X1534Y13506D01*
X1561Y13572D02*
Y13445D01*
Y13554D02*
X1573Y13566D01*
X1586Y13572D01*
X1604D01*
X1616Y13566D01*
X1628Y13554D01*
X1634Y13536D01*
Y13524D01*
X1628Y13506D01*
X1616Y13493D01*
X1604Y13487D01*
X1586D01*
X1573Y13493D01*
X1561Y13506D01*
X1691Y13572D02*
X1679Y13566D01*
X1667Y13554D01*
X1661Y13536D01*
Y13524D01*
X1667Y13506D01*
X1679Y13493D01*
X1691Y13487D01*
X1709D01*
X1722Y13493D01*
X1734Y13506D01*
X1740Y13524D01*
Y13536D01*
X1734Y13554D01*
X1722Y13566D01*
X1709Y13572D01*
X1691D01*
X1768D02*
X1834Y13487D01*
Y13572D02*
X1768Y13487D01*
X1867Y13572D02*
X1903Y13487D01*
X1939Y13572D02*
X1903Y13487D01*
X1891Y13463D01*
X1879Y13451D01*
X1867Y13445D01*
X1861D01*
X2072Y13614D02*
X2078Y13608D01*
X2084Y13614D01*
X2078Y13620D01*
X2072Y13614D01*
X2078Y13572D02*
Y13487D01*
X2107Y13572D02*
Y13487D01*
Y13548D02*
X2125Y13566D01*
X2137Y13572D01*
X2155D01*
X2167Y13566D01*
X2173Y13548D01*
Y13487D01*
X2206Y13614D02*
Y13487D01*
X2267Y13572D02*
X2206Y13512D01*
X2231Y13536D02*
X2273Y13487D01*
X2299Y13499D02*
X2293Y13493D01*
X2299Y13487D01*
X2305Y13493D01*
X2299Y13499D01*
X2433Y13614D02*
Y13487D01*
Y13614D02*
X2481Y13487D01*
X2529Y13614D02*
X2481Y13487D01*
X2529Y13614D02*
Y13487D01*
X2566Y13614D02*
Y13524D01*
X2572Y13506D01*
X2584Y13493D01*
X2602Y13487D01*
X2614D01*
X2632Y13493D01*
X2644Y13506D01*
X2650Y13524D01*
Y13614D01*
X2770Y13596D02*
X2758Y13608D01*
X2740Y13614D01*
X2716D01*
X2697Y13608D01*
X2685Y13596D01*
Y13584D01*
X2691Y13572D01*
X2697Y13566D01*
X2710Y13560D01*
X2746Y13548D01*
X2758Y13542D01*
X2764Y13536D01*
X2770Y13524D01*
Y13506D01*
X2758Y13493D01*
X2740Y13487D01*
X2716D01*
X2697Y13493D01*
X2685Y13506D01*
X2841Y13614D02*
Y13487D01*
X2798Y13614D02*
X2883D01*
X2998D02*
Y13487D01*
Y13614D02*
X3083Y13487D01*
Y13614D02*
Y13487D01*
X3154Y13614D02*
X3142Y13608D01*
X3130Y13596D01*
X3124Y13584D01*
X3118Y13566D01*
Y13536D01*
X3124Y13518D01*
X3130Y13506D01*
X3142Y13493D01*
X3154Y13487D01*
X3178D01*
X3190Y13493D01*
X3202Y13506D01*
X3208Y13518D01*
X3214Y13536D01*
Y13566D01*
X3208Y13584D01*
X3202Y13596D01*
X3190Y13608D01*
X3178Y13614D01*
X3154D01*
X3286D02*
Y13487D01*
X3244Y13614D02*
X3329D01*
X3534Y13584D02*
X3528Y13596D01*
X3516Y13608D01*
X3504Y13614D01*
X3480D01*
X3468Y13608D01*
X3456Y13596D01*
X3450Y13584D01*
X3444Y13566D01*
Y13536D01*
X3450Y13518D01*
X3456Y13506D01*
X3468Y13493D01*
X3480Y13487D01*
X3504D01*
X3516Y13493D01*
X3528Y13506D01*
X3534Y13518D01*
X3606Y13614D02*
X3594Y13608D01*
X3582Y13596D01*
X3576Y13584D01*
X3570Y13566D01*
Y13536D01*
X3576Y13518D01*
X3582Y13506D01*
X3594Y13493D01*
X3606Y13487D01*
X3630D01*
X3642Y13493D01*
X3655Y13506D01*
X3661Y13518D01*
X3667Y13536D01*
Y13566D01*
X3661Y13584D01*
X3655Y13596D01*
X3642Y13608D01*
X3630Y13614D01*
X3606D01*
X3696D02*
X3745Y13487D01*
X3793Y13614D02*
X3745Y13487D01*
X3888Y13614D02*
X3809D01*
Y13487D01*
X3888D01*
X3809Y13554D02*
X3858D01*
X3909Y13614D02*
Y13487D01*
Y13614D02*
X3964D01*
X3982Y13608D01*
X3988Y13602D01*
X3994Y13590D01*
Y13578D01*
X3988Y13566D01*
X3982Y13560D01*
X3964Y13554D01*
X3909D01*
X3951D02*
X3994Y13487D01*
X4201Y13614D02*
X4122D01*
Y13487D01*
X4201D01*
X4122Y13554D02*
X4170D01*
X4222Y13614D02*
X4306Y13487D01*
Y13614D02*
X4222Y13487D01*
X4335Y13548D02*
X4389D01*
X4407Y13554D01*
X4413Y13560D01*
X4419Y13572D01*
Y13590D01*
X4413Y13602D01*
X4407Y13608D01*
X4389Y13614D01*
X4335D01*
Y13487D01*
X4484Y13614D02*
X4472Y13608D01*
X4460Y13596D01*
X4454Y13584D01*
X4448Y13566D01*
Y13536D01*
X4454Y13518D01*
X4460Y13506D01*
X4472Y13493D01*
X4484Y13487D01*
X4508D01*
X4520Y13493D01*
X4533Y13506D01*
X4539Y13518D01*
X4545Y13536D01*
Y13566D01*
X4539Y13584D01*
X4533Y13596D01*
X4520Y13608D01*
X4508Y13614D01*
X4484D01*
X4659Y13596D02*
X4647Y13608D01*
X4629Y13614D01*
X4604D01*
X4586Y13608D01*
X4574Y13596D01*
Y13584D01*
X4580Y13572D01*
X4586Y13566D01*
X4598Y13560D01*
X4635Y13548D01*
X4647Y13542D01*
X4653Y13536D01*
X4659Y13524D01*
Y13506D01*
X4647Y13493D01*
X4629Y13487D01*
X4604D01*
X4586Y13493D01*
X4574Y13506D01*
X4766Y13614D02*
X4687D01*
Y13487D01*
X4766D01*
X4687Y13554D02*
X4736D01*
X4787Y13614D02*
Y13487D01*
Y13614D02*
X4829D01*
X4848Y13608D01*
X4860Y13596D01*
X4866Y13584D01*
X4872Y13566D01*
Y13536D01*
X4866Y13518D01*
X4860Y13506D01*
X4848Y13493D01*
X4829Y13487D01*
X4787D01*
X5000Y13548D02*
X5054D01*
X5072Y13554D01*
X5078Y13560D01*
X5085Y13572D01*
Y13590D01*
X5078Y13602D01*
X5072Y13608D01*
X5054Y13614D01*
X5000D01*
Y13487D01*
X5210D02*
X5161Y13614D01*
X5113Y13487D01*
X5131Y13530D02*
X5192D01*
X5239Y13614D02*
Y13487D01*
Y13614D02*
X5282D01*
X5300Y13608D01*
X5312Y13596D01*
X5318Y13584D01*
X5324Y13566D01*
Y13536D01*
X5318Y13518D01*
X5312Y13506D01*
X5300Y13493D01*
X5282Y13487D01*
X5239D01*
X5437Y13596D02*
X5425Y13608D01*
X5407Y13614D01*
X5383D01*
X5364Y13608D01*
X5352Y13596D01*
Y13584D01*
X5358Y13572D01*
X5364Y13566D01*
X5377Y13560D01*
X5413Y13548D01*
X5425Y13542D01*
X5431Y13536D01*
X5437Y13524D01*
Y13506D01*
X5425Y13493D01*
X5407Y13487D01*
X5383D01*
X5364Y13493D01*
X5352Y13506D01*
X-1930Y13360D02*
Y13233D01*
Y13300D02*
X-1918Y13312D01*
X-1906Y13318D01*
X-1888D01*
X-1876Y13312D01*
X-1864Y13300D01*
X-1858Y13282D01*
Y13270D01*
X-1864Y13252D01*
X-1876Y13239D01*
X-1888Y13233D01*
X-1906D01*
X-1918Y13239D01*
X-1930Y13252D01*
X-1825Y13245D02*
X-1831Y13239D01*
X-1825Y13233D01*
X-1819Y13239D01*
X-1825Y13245D01*
X-1691Y13360D02*
Y13233D01*
Y13360D02*
X-1643Y13233D01*
X-1594Y13360D02*
X-1643Y13233D01*
X-1594Y13360D02*
Y13233D01*
X-1510Y13360D02*
X-1522D01*
X-1534Y13354D01*
X-1540Y13336D01*
Y13233D01*
X-1558Y13318D02*
X-1516D01*
X-1419D02*
Y13221D01*
X-1425Y13203D01*
X-1431Y13197D01*
X-1443Y13191D01*
X-1461D01*
X-1473Y13197D01*
X-1419Y13300D02*
X-1431Y13312D01*
X-1443Y13318D01*
X-1461D01*
X-1473Y13312D01*
X-1485Y13300D01*
X-1491Y13282D01*
Y13270D01*
X-1485Y13252D01*
X-1473Y13239D01*
X-1461Y13233D01*
X-1443D01*
X-1431Y13239D01*
X-1419Y13252D01*
X-1379Y13348D02*
X-1385Y13354D01*
X-1379Y13360D01*
X-1373Y13354D01*
Y13342D01*
X-1379Y13330D01*
X-1385Y13324D01*
X-1279Y13300D02*
X-1285Y13312D01*
X-1303Y13318D01*
X-1321D01*
X-1339Y13312D01*
X-1345Y13300D01*
X-1339Y13288D01*
X-1327Y13282D01*
X-1297Y13276D01*
X-1285Y13270D01*
X-1279Y13258D01*
Y13252D01*
X-1285Y13239D01*
X-1303Y13233D01*
X-1321D01*
X-1339Y13239D01*
X-1345Y13252D01*
X-1152Y13360D02*
Y13270D01*
X-1146Y13252D01*
X-1134Y13239D01*
X-1116Y13233D01*
X-1104D01*
X-1086Y13239D01*
X-1074Y13252D01*
X-1068Y13270D01*
Y13360D01*
X-1033D02*
Y13233D01*
X-960D01*
X-780Y13300D02*
X-786Y13312D01*
X-804Y13318D01*
X-822D01*
X-840Y13312D01*
X-846Y13300D01*
X-840Y13288D01*
X-828Y13282D01*
X-798Y13276D01*
X-786Y13270D01*
X-780Y13258D01*
Y13252D01*
X-786Y13239D01*
X-804Y13233D01*
X-822D01*
X-840Y13239D01*
X-846Y13252D01*
X-747Y13318D02*
X-711Y13233D01*
X-675Y13318D02*
X-711Y13233D01*
X-723Y13209D01*
X-735Y13197D01*
X-747Y13191D01*
X-753D01*
X-653Y13318D02*
Y13233D01*
Y13294D02*
X-635Y13312D01*
X-623Y13318D01*
X-605D01*
X-593Y13312D01*
X-587Y13294D01*
Y13233D01*
Y13294D02*
X-569Y13312D01*
X-557Y13318D01*
X-539D01*
X-526Y13312D01*
X-520Y13294D01*
Y13233D01*
X-480Y13360D02*
Y13233D01*
Y13300D02*
X-468Y13312D01*
X-456Y13318D01*
X-438D01*
X-426Y13312D01*
X-414Y13300D01*
X-408Y13282D01*
Y13270D01*
X-414Y13252D01*
X-426Y13239D01*
X-438Y13233D01*
X-456D01*
X-468Y13239D01*
X-480Y13252D01*
X-350Y13318D02*
X-363Y13312D01*
X-375Y13300D01*
X-381Y13282D01*
Y13270D01*
X-375Y13252D01*
X-363Y13239D01*
X-350Y13233D01*
X-332D01*
X-320Y13239D01*
X-308Y13252D01*
X-302Y13270D01*
Y13282D01*
X-308Y13300D01*
X-320Y13312D01*
X-332Y13318D01*
X-350D01*
X-274Y13360D02*
Y13233D01*
X-236Y13239D02*
X-242Y13233D01*
X-248Y13239D01*
X-242Y13245D01*
X-236Y13239D01*
Y13227D01*
X-242Y13215D01*
X-248Y13209D01*
X-35Y13360D02*
Y13233D01*
Y13300D02*
X-48Y13312D01*
X-60Y13318D01*
X-78D01*
X-90Y13312D01*
X-102Y13300D01*
X-108Y13282D01*
Y13270D01*
X-102Y13252D01*
X-90Y13239D01*
X-78Y13233D01*
X-60D01*
X-48Y13239D01*
X-35Y13252D01*
X71Y13318D02*
Y13233D01*
Y13300D02*
X59Y13312D01*
X47Y13318D01*
X29D01*
X17Y13312D01*
X4Y13300D01*
X-2Y13282D01*
Y13270D01*
X4Y13252D01*
X17Y13239D01*
X29Y13233D01*
X47D01*
X59Y13239D01*
X71Y13252D01*
X123Y13360D02*
Y13258D01*
X129Y13239D01*
X141Y13233D01*
X153D01*
X105Y13318D02*
X147D01*
X171Y13282D02*
X244D01*
Y13294D01*
X238Y13306D01*
X232Y13312D01*
X220Y13318D01*
X202D01*
X189Y13312D01*
X177Y13300D01*
X171Y13282D01*
Y13270D01*
X177Y13252D01*
X189Y13239D01*
X202Y13233D01*
X220D01*
X232Y13239D01*
X244Y13252D01*
X443Y13300D02*
X431Y13312D01*
X419Y13318D01*
X401D01*
X389Y13312D01*
X377Y13300D01*
X371Y13282D01*
Y13270D01*
X377Y13252D01*
X389Y13239D01*
X401Y13233D01*
X419D01*
X431Y13239D01*
X443Y13252D01*
X501Y13318D02*
X489Y13312D01*
X477Y13300D01*
X471Y13282D01*
Y13270D01*
X477Y13252D01*
X489Y13239D01*
X501Y13233D01*
X519D01*
X531Y13239D01*
X543Y13252D01*
X549Y13270D01*
Y13282D01*
X543Y13300D01*
X531Y13312D01*
X519Y13318D01*
X501D01*
X650Y13360D02*
Y13233D01*
Y13300D02*
X637Y13312D01*
X625Y13318D01*
X607D01*
X595Y13312D01*
X583Y13300D01*
X577Y13282D01*
Y13270D01*
X583Y13252D01*
X595Y13239D01*
X607Y13233D01*
X625D01*
X637Y13239D01*
X650Y13252D01*
X683Y13282D02*
X756D01*
Y13294D01*
X750Y13306D01*
X744Y13312D01*
X732Y13318D01*
X714D01*
X702Y13312D01*
X689Y13300D01*
X683Y13282D01*
Y13270D01*
X689Y13252D01*
X702Y13239D01*
X714Y13233D01*
X732D01*
X744Y13239D01*
X756Y13252D01*
X795Y13239D02*
X789Y13233D01*
X783Y13239D01*
X789Y13245D01*
X795Y13239D01*
Y13227D01*
X789Y13215D01*
X783Y13209D01*
X995Y13318D02*
Y13233D01*
Y13300D02*
X983Y13312D01*
X971Y13318D01*
X953D01*
X941Y13312D01*
X929Y13300D01*
X923Y13282D01*
Y13270D01*
X929Y13252D01*
X941Y13239D01*
X953Y13233D01*
X971D01*
X983Y13239D01*
X995Y13252D01*
X1029Y13318D02*
Y13233D01*
Y13294D02*
X1047Y13312D01*
X1060Y13318D01*
X1078D01*
X1090Y13312D01*
X1096Y13294D01*
Y13233D01*
X1202Y13360D02*
Y13233D01*
Y13300D02*
X1190Y13312D01*
X1177Y13318D01*
X1159D01*
X1147Y13312D01*
X1135Y13300D01*
X1129Y13282D01*
Y13270D01*
X1135Y13252D01*
X1147Y13239D01*
X1159Y13233D01*
X1177D01*
X1190Y13239D01*
X1202Y13252D01*
X1335Y13360D02*
Y13270D01*
X1341Y13252D01*
X1353Y13239D01*
X1371Y13233D01*
X1384D01*
X1402Y13239D01*
X1414Y13252D01*
X1420Y13270D01*
Y13360D01*
X1455D02*
Y13233D01*
X1527D01*
X1690Y13360D02*
X1677D01*
X1665Y13354D01*
X1659Y13336D01*
Y13233D01*
X1641Y13318D02*
X1683D01*
X1708Y13360D02*
Y13233D01*
X1807Y13318D02*
Y13233D01*
Y13300D02*
X1795Y13312D01*
X1783Y13318D01*
X1765D01*
X1752Y13312D01*
X1740Y13300D01*
X1734Y13282D01*
Y13270D01*
X1740Y13252D01*
X1752Y13239D01*
X1765Y13233D01*
X1783D01*
X1795Y13239D01*
X1807Y13252D01*
X1841Y13318D02*
Y13233D01*
Y13294D02*
X1859Y13312D01*
X1871Y13318D01*
X1889D01*
X1901Y13312D01*
X1907Y13294D01*
Y13233D01*
Y13294D02*
X1925Y13312D01*
X1937Y13318D01*
X1956D01*
X1968Y13312D01*
X1974Y13294D01*
Y13233D01*
X2014Y13318D02*
Y13233D01*
Y13294D02*
X2032Y13312D01*
X2044Y13318D01*
X2062D01*
X2074Y13312D01*
X2080Y13294D01*
Y13233D01*
Y13294D02*
X2098Y13312D01*
X2110Y13318D01*
X2128D01*
X2141Y13312D01*
X2147Y13294D01*
Y13233D01*
X2259Y13318D02*
Y13233D01*
Y13300D02*
X2247Y13312D01*
X2235Y13318D01*
X2217D01*
X2205Y13312D01*
X2193Y13300D01*
X2187Y13282D01*
Y13270D01*
X2193Y13252D01*
X2205Y13239D01*
X2217Y13233D01*
X2235D01*
X2247Y13239D01*
X2259Y13252D01*
X2293Y13360D02*
Y13233D01*
Y13300D02*
X2305Y13312D01*
X2317Y13318D01*
X2335D01*
X2347Y13312D01*
X2359Y13300D01*
X2366Y13282D01*
Y13270D01*
X2359Y13252D01*
X2347Y13239D01*
X2335Y13233D01*
X2317D01*
X2305Y13239D01*
X2293Y13252D01*
X2405Y13360D02*
X2411Y13354D01*
X2417Y13360D01*
X2411Y13366D01*
X2405Y13360D01*
X2411Y13318D02*
Y13233D01*
X2439Y13360D02*
Y13233D01*
X2478Y13360D02*
X2484Y13354D01*
X2490Y13360D01*
X2484Y13366D01*
X2478Y13360D01*
X2484Y13318D02*
Y13233D01*
X2531Y13360D02*
Y13258D01*
X2537Y13239D01*
X2549Y13233D01*
X2561D01*
X2512Y13318D02*
X2555D01*
X2585D02*
X2621Y13233D01*
X2658Y13318D02*
X2621Y13233D01*
X2609Y13209D01*
X2597Y13197D01*
X2585Y13191D01*
X2579D01*
X2778Y13318D02*
Y13233D01*
Y13282D02*
X2785Y13300D01*
X2797Y13312D01*
X2809Y13318D01*
X2827D01*
X2911D02*
Y13233D01*
Y13300D02*
X2899Y13312D01*
X2887Y13318D01*
X2869D01*
X2856Y13312D01*
X2844Y13300D01*
X2838Y13282D01*
Y13270D01*
X2844Y13252D01*
X2856Y13239D01*
X2869Y13233D01*
X2887D01*
X2899Y13239D01*
X2911Y13252D01*
X2963Y13360D02*
Y13258D01*
X2969Y13239D01*
X2981Y13233D01*
X2993D01*
X2945Y13318D02*
X2987D01*
X3023Y13360D02*
X3029Y13354D01*
X3035Y13360D01*
X3029Y13366D01*
X3023Y13360D01*
X3029Y13318D02*
Y13233D01*
X3058Y13318D02*
Y13233D01*
Y13294D02*
X3076Y13312D01*
X3088Y13318D01*
X3106D01*
X3118Y13312D01*
X3124Y13294D01*
Y13233D01*
X3230Y13318D02*
Y13221D01*
X3224Y13203D01*
X3218Y13197D01*
X3206Y13191D01*
X3188D01*
X3176Y13197D01*
X3230Y13300D02*
X3218Y13312D01*
X3206Y13318D01*
X3188D01*
X3176Y13312D01*
X3164Y13300D01*
X3158Y13282D01*
Y13270D01*
X3164Y13252D01*
X3176Y13239D01*
X3188Y13233D01*
X3206D01*
X3218Y13239D01*
X3230Y13252D01*
X3430Y13300D02*
X3424Y13312D01*
X3406Y13318D01*
X3388D01*
X3370Y13312D01*
X3364Y13300D01*
X3370Y13288D01*
X3382Y13282D01*
X3412Y13276D01*
X3424Y13270D01*
X3430Y13258D01*
Y13252D01*
X3424Y13239D01*
X3406Y13233D01*
X3388D01*
X3370Y13239D01*
X3364Y13252D01*
X3457Y13360D02*
Y13233D01*
Y13294D02*
X3475Y13312D01*
X3487Y13318D01*
X3505D01*
X3517Y13312D01*
X3523Y13294D01*
Y13233D01*
X3629Y13318D02*
Y13233D01*
Y13300D02*
X3617Y13312D01*
X3605Y13318D01*
X3587D01*
X3575Y13312D01*
X3563Y13300D01*
X3557Y13282D01*
Y13270D01*
X3563Y13252D01*
X3575Y13239D01*
X3587Y13233D01*
X3605D01*
X3617Y13239D01*
X3629Y13252D01*
X3663Y13360D02*
Y13233D01*
X3690Y13360D02*
Y13233D01*
X3816Y13360D02*
Y13233D01*
Y13300D02*
X3828Y13312D01*
X3840Y13318D01*
X3858D01*
X3870Y13312D01*
X3883Y13300D01*
X3889Y13282D01*
Y13270D01*
X3883Y13252D01*
X3870Y13239D01*
X3858Y13233D01*
X3840D01*
X3828Y13239D01*
X3816Y13252D01*
X3916Y13282D02*
X3988D01*
Y13294D01*
X3982Y13306D01*
X3976Y13312D01*
X3964Y13318D01*
X3946D01*
X3934Y13312D01*
X3922Y13300D01*
X3916Y13282D01*
Y13270D01*
X3922Y13252D01*
X3934Y13239D01*
X3946Y13233D01*
X3964D01*
X3976Y13239D01*
X3988Y13252D01*
X4115Y13318D02*
Y13191D01*
Y13300D02*
X4127Y13312D01*
X4140Y13318D01*
X4158D01*
X4170Y13312D01*
X4182Y13300D01*
X4188Y13282D01*
Y13270D01*
X4182Y13252D01*
X4170Y13239D01*
X4158Y13233D01*
X4140D01*
X4127Y13239D01*
X4115Y13252D01*
X4215Y13282D02*
X4288D01*
Y13294D01*
X4282Y13306D01*
X4276Y13312D01*
X4263Y13318D01*
X4245D01*
X4233Y13312D01*
X4221Y13300D01*
X4215Y13282D01*
Y13270D01*
X4221Y13252D01*
X4233Y13239D01*
X4245Y13233D01*
X4263D01*
X4276Y13239D01*
X4288Y13252D01*
X4315Y13318D02*
Y13233D01*
Y13282D02*
X4321Y13300D01*
X4333Y13312D01*
X4345Y13318D01*
X4363D01*
X4375D02*
Y13233D01*
Y13294D02*
X4393Y13312D01*
X4405Y13318D01*
X4423D01*
X4435Y13312D01*
X4441Y13294D01*
Y13233D01*
Y13294D02*
X4459Y13312D01*
X4471Y13318D01*
X4490D01*
X4502Y13312D01*
X4508Y13294D01*
Y13233D01*
X4620Y13318D02*
Y13233D01*
Y13300D02*
X4608Y13312D01*
X4596Y13318D01*
X4578D01*
X4566Y13312D01*
X4554Y13300D01*
X4548Y13282D01*
Y13270D01*
X4554Y13252D01*
X4566Y13239D01*
X4578Y13233D01*
X4596D01*
X4608Y13239D01*
X4620Y13252D01*
X4654Y13318D02*
Y13233D01*
Y13294D02*
X4672Y13312D01*
X4684Y13318D01*
X4702D01*
X4715Y13312D01*
X4721Y13294D01*
Y13233D01*
X4754Y13282D02*
X4826D01*
Y13294D01*
X4820Y13306D01*
X4814Y13312D01*
X4802Y13318D01*
X4784D01*
X4772Y13312D01*
X4760Y13300D01*
X4754Y13282D01*
Y13270D01*
X4760Y13252D01*
X4772Y13239D01*
X4784Y13233D01*
X4802D01*
X4814Y13239D01*
X4826Y13252D01*
X4854Y13318D02*
Y13233D01*
Y13294D02*
X4872Y13312D01*
X4884Y13318D01*
X4902D01*
X4914Y13312D01*
X4920Y13294D01*
Y13233D01*
X4971Y13360D02*
Y13258D01*
X4978Y13239D01*
X4990Y13233D01*
X5002D01*
X4953Y13318D02*
X4996D01*
X5020Y13360D02*
Y13233D01*
X5053Y13318D02*
X5089Y13233D01*
X5125Y13318D02*
X5089Y13233D01*
X5077Y13209D01*
X5065Y13197D01*
X5053Y13191D01*
X5046D01*
X5246Y13318D02*
Y13233D01*
Y13294D02*
X5264Y13312D01*
X5276Y13318D01*
X5294D01*
X5306Y13312D01*
X5312Y13294D01*
Y13233D01*
Y13294D02*
X5331Y13312D01*
X5343Y13318D01*
X5361D01*
X5373Y13312D01*
X5379Y13294D01*
Y13233D01*
X5491Y13318D02*
Y13233D01*
Y13300D02*
X5479Y13312D01*
X5467Y13318D01*
X5449D01*
X5437Y13312D01*
X5425Y13300D01*
X5419Y13282D01*
Y13270D01*
X5425Y13252D01*
X5437Y13239D01*
X5449Y13233D01*
X5467D01*
X5479Y13239D01*
X5491Y13252D01*
X5525Y13318D02*
Y13233D01*
Y13282D02*
X5531Y13300D01*
X5543Y13312D01*
X5556Y13318D01*
X5574D01*
X5585Y13360D02*
Y13233D01*
X5646Y13318D02*
X5585Y13258D01*
X5609Y13282D02*
X5652Y13233D01*
X5672Y13282D02*
X5744D01*
Y13294D01*
X5738Y13306D01*
X5732Y13312D01*
X5720Y13318D01*
X5702D01*
X5690Y13312D01*
X5678Y13300D01*
X5672Y13282D01*
Y13270D01*
X5678Y13252D01*
X5690Y13239D01*
X5702Y13233D01*
X5720D01*
X5732Y13239D01*
X5744Y13252D01*
X5844Y13360D02*
Y13233D01*
Y13300D02*
X5832Y13312D01*
X5820Y13318D01*
X5802D01*
X5790Y13312D01*
X5777Y13300D01*
X5771Y13282D01*
Y13270D01*
X5777Y13252D01*
X5790Y13239D01*
X5802Y13233D01*
X5820D01*
X5832Y13239D01*
X5844Y13252D01*
X-1922Y13867D02*
Y13873D01*
X-1916Y13885D01*
X-1910Y13891D01*
X-1898Y13897D01*
X-1873D01*
X-1861Y13891D01*
X-1855Y13885D01*
X-1849Y13873D01*
Y13861D01*
X-1855Y13849D01*
X-1867Y13831D01*
X-1928Y13770D01*
X-1843D01*
X-1894Y14148D02*
X-1912Y14142D01*
X-1924Y14124D01*
X-1930Y14093D01*
Y14075D01*
X-1924Y14045D01*
X-1912Y14027D01*
X-1894Y14021D01*
X-1882D01*
X-1864Y14027D01*
X-1852Y14045D01*
X-1846Y14075D01*
Y14093D01*
X-1852Y14124D01*
X-1864Y14142D01*
X-1882Y14148D01*
X-1894D01*
X-1811Y14033D02*
X-1817Y14027D01*
X-1811Y14021D01*
X-1805Y14027D01*
X-1811Y14033D01*
X-1741Y14148D02*
X-1759Y14142D01*
X-1771Y14124D01*
X-1777Y14093D01*
Y14075D01*
X-1771Y14045D01*
X-1759Y14027D01*
X-1741Y14021D01*
X-1729D01*
X-1711Y14027D01*
X-1699Y14045D01*
X-1693Y14075D01*
Y14093D01*
X-1699Y14124D01*
X-1711Y14142D01*
X-1729Y14148D01*
X-1741D01*
X-1592Y14130D02*
X-1598Y14142D01*
X-1616Y14148D01*
X-1628D01*
X-1646Y14142D01*
X-1658Y14124D01*
X-1664Y14093D01*
Y14063D01*
X-1658Y14039D01*
X-1646Y14027D01*
X-1628Y14021D01*
X-1622D01*
X-1604Y14027D01*
X-1592Y14039D01*
X-1586Y14057D01*
Y14063D01*
X-1592Y14081D01*
X-1604Y14093D01*
X-1622Y14099D01*
X-1628D01*
X-1646Y14093D01*
X-1658Y14081D01*
X-1664Y14063D01*
X-1552Y14118D02*
Y14124D01*
X-1546Y14136D01*
X-1540Y14142D01*
X-1528Y14148D01*
X-1504D01*
X-1491Y14142D01*
X-1485Y14136D01*
X-1479Y14124D01*
Y14111D01*
X-1485Y14099D01*
X-1497Y14081D01*
X-1558Y14021D01*
X-1473D01*
X-1439Y14136D02*
X-1445Y14142D01*
X-1439Y14148D01*
X-1433Y14142D01*
Y14130D01*
X-1439Y14118D01*
X-1445Y14111D01*
X-1399Y14136D02*
X-1405Y14142D01*
X-1399Y14148D01*
X-1393Y14142D01*
Y14130D01*
X-1399Y14118D01*
X-1405Y14111D01*
X-1011Y14130D02*
Y14021D01*
X-1066Y14075D02*
X-957D01*
X-919Y14003D02*
X-835Y14148D01*
X-826Y14075D02*
X-718D01*
X-644Y14148D02*
X-662Y14142D01*
X-674Y14124D01*
X-680Y14093D01*
Y14075D01*
X-674Y14045D01*
X-662Y14027D01*
X-644Y14021D01*
X-632D01*
X-614Y14027D01*
X-601Y14045D01*
X-595Y14075D01*
Y14093D01*
X-601Y14124D01*
X-614Y14142D01*
X-632Y14148D01*
X-644D01*
X-561Y14033D02*
X-567Y14027D01*
X-561Y14021D01*
X-555Y14027D01*
X-561Y14033D01*
X-491Y14148D02*
X-509Y14142D01*
X-521Y14124D01*
X-527Y14093D01*
Y14075D01*
X-521Y14045D01*
X-509Y14027D01*
X-491Y14021D01*
X-479D01*
X-461Y14027D01*
X-448Y14045D01*
X-442Y14075D01*
Y14093D01*
X-448Y14124D01*
X-461Y14142D01*
X-479Y14148D01*
X-491D01*
X-378D02*
X-396Y14142D01*
X-408Y14124D01*
X-414Y14093D01*
Y14075D01*
X-408Y14045D01*
X-396Y14027D01*
X-378Y14021D01*
X-366D01*
X-347Y14027D01*
X-335Y14045D01*
X-329Y14075D01*
Y14093D01*
X-335Y14124D01*
X-347Y14142D01*
X-366Y14148D01*
X-378D01*
X-228Y14130D02*
X-234Y14142D01*
X-253Y14148D01*
X-265D01*
X-283Y14142D01*
X-295Y14124D01*
X-301Y14093D01*
Y14063D01*
X-295Y14039D01*
X-283Y14027D01*
X-265Y14021D01*
X-259D01*
X-240Y14027D01*
X-228Y14039D01*
X-222Y14057D01*
Y14063D01*
X-228Y14081D01*
X-240Y14093D01*
X-259Y14099D01*
X-265D01*
X-283Y14093D01*
X-295Y14081D01*
X-301Y14063D01*
X-188Y14136D02*
X-195Y14142D01*
X-188Y14148D01*
X-182Y14142D01*
Y14130D01*
X-188Y14118D01*
X-195Y14111D01*
X-149Y14136D02*
X-155Y14142D01*
X-149Y14148D01*
X-143Y14142D01*
Y14130D01*
X-149Y14118D01*
X-155Y14111D01*
X-1930Y14402D02*
Y14275D01*
Y14402D02*
X-1852D01*
X-1930Y14341D02*
X-1882D01*
X-1837Y14402D02*
Y14275D01*
Y14402D02*
X-1783D01*
X-1765Y14396D01*
X-1759Y14390D01*
X-1753Y14378D01*
Y14365D01*
X-1759Y14353D01*
X-1765Y14347D01*
X-1783Y14341D01*
X-1837D01*
X-1795D02*
X-1753Y14275D01*
X-1664Y14402D02*
X-1724Y14317D01*
X-1634D01*
X-1664Y14402D02*
Y14275D01*
X-1930Y14656D02*
X-1882Y14595D01*
Y14529D01*
X-1834Y14656D02*
X-1882Y14595D01*
X-1817Y14577D02*
X-1745D01*
Y14589D01*
X-1751Y14601D01*
X-1757Y14607D01*
X-1769Y14613D01*
X-1787D01*
X-1799Y14607D01*
X-1811Y14595D01*
X-1817Y14577D01*
Y14565D01*
X-1811Y14547D01*
X-1799Y14535D01*
X-1787Y14529D01*
X-1769D01*
X-1757Y14535D01*
X-1745Y14547D01*
X-1651Y14595D02*
X-1657Y14607D01*
X-1675Y14613D01*
X-1693D01*
X-1712Y14607D01*
X-1718Y14595D01*
X-1712Y14583D01*
X-1699Y14577D01*
X-1669Y14571D01*
X-1657Y14565D01*
X-1651Y14553D01*
Y14547D01*
X-1657Y14535D01*
X-1675Y14529D01*
X-1693D01*
X-1712Y14535D01*
X-1718Y14547D01*
X-1924Y14880D02*
Y14886D01*
X-1918Y14898D01*
X-1912Y14904D01*
X-1900Y14910D01*
X-1876D01*
X-1864Y14904D01*
X-1858Y14898D01*
X-1852Y14886D01*
Y14873D01*
X-1858Y14861D01*
X-1870Y14843D01*
X-1930Y14783D01*
X-1846D01*
X-5182Y11303D02*
Y11176D01*
Y11303D02*
X-5127D01*
X-5109Y11297D01*
X-5103Y11291D01*
X-5097Y11279D01*
Y11267D01*
X-5103Y11255D01*
X-5109Y11249D01*
X-5127Y11243D01*
X-5182D01*
X-5139D02*
X-5097Y11176D01*
X-5069Y11224D02*
X-4996D01*
Y11236D01*
X-5002Y11249D01*
X-5008Y11255D01*
X-5020Y11261D01*
X-5038D01*
X-5050Y11255D01*
X-5062Y11243D01*
X-5069Y11224D01*
Y11212D01*
X-5062Y11194D01*
X-5050Y11182D01*
X-5038Y11176D01*
X-5020D01*
X-5008Y11182D01*
X-4996Y11194D01*
X-4896Y11261D02*
Y11164D01*
X-4902Y11146D01*
X-4908Y11140D01*
X-4920Y11134D01*
X-4939D01*
X-4951Y11140D01*
X-4896Y11243D02*
X-4908Y11255D01*
X-4920Y11261D01*
X-4939D01*
X-4951Y11255D01*
X-4963Y11243D01*
X-4969Y11224D01*
Y11212D01*
X-4963Y11194D01*
X-4951Y11182D01*
X-4939Y11176D01*
X-4920D01*
X-4908Y11182D01*
X-4896Y11194D01*
X-4850Y11303D02*
X-4844Y11297D01*
X-4838Y11303D01*
X-4844Y11309D01*
X-4850Y11303D01*
X-4844Y11261D02*
Y11176D01*
X-4749Y11243D02*
X-4755Y11255D01*
X-4773Y11261D01*
X-4792D01*
X-4810Y11255D01*
X-4816Y11243D01*
X-4810Y11230D01*
X-4798Y11224D01*
X-4767Y11218D01*
X-4755Y11212D01*
X-4749Y11200D01*
Y11194D01*
X-4755Y11182D01*
X-4773Y11176D01*
X-4792D01*
X-4810Y11182D01*
X-4816Y11194D01*
X-4705Y11303D02*
Y11200D01*
X-4698Y11182D01*
X-4686Y11176D01*
X-4674D01*
X-4723Y11261D02*
X-4680D01*
X-4656D02*
Y11176D01*
Y11224D02*
X-4650Y11243D01*
X-4638Y11255D01*
X-4626Y11261D01*
X-4608D01*
X-4524D02*
Y11176D01*
Y11243D02*
X-4536Y11255D01*
X-4548Y11261D01*
X-4566D01*
X-4578Y11255D01*
X-4590Y11243D01*
X-4596Y11224D01*
Y11212D01*
X-4590Y11194D01*
X-4578Y11182D01*
X-4566Y11176D01*
X-4548D01*
X-4536Y11182D01*
X-4524Y11194D01*
X-4472Y11303D02*
Y11200D01*
X-4466Y11182D01*
X-4454Y11176D01*
X-4442D01*
X-4490Y11261D02*
X-4448D01*
X-4411Y11303D02*
X-4405Y11297D01*
X-4399Y11303D01*
X-4405Y11309D01*
X-4411Y11303D01*
X-4405Y11261D02*
Y11176D01*
X-4347Y11261D02*
X-4359Y11255D01*
X-4371Y11243D01*
X-4377Y11224D01*
Y11212D01*
X-4371Y11194D01*
X-4359Y11182D01*
X-4347Y11176D01*
X-4328D01*
X-4316Y11182D01*
X-4304Y11194D01*
X-4298Y11212D01*
Y11224D01*
X-4304Y11243D01*
X-4316Y11255D01*
X-4328Y11261D01*
X-4347D01*
X-4270D02*
Y11176D01*
Y11236D02*
X-4252Y11255D01*
X-4240Y11261D01*
X-4222D01*
X-4210Y11255D01*
X-4204Y11236D01*
Y11176D01*
X-5182Y11608D02*
Y11517D01*
X-5176Y11499D01*
X-5163Y11487D01*
X-5145Y11481D01*
X-5133D01*
X-5115Y11487D01*
X-5103Y11499D01*
X-5097Y11517D01*
Y11608D01*
X-5062D02*
Y11481D01*
X-4989D01*
X-4876Y11608D02*
Y11481D01*
Y11608D02*
X-4821D01*
X-4803Y11602D01*
X-4797Y11596D01*
X-4791Y11584D01*
Y11571D01*
X-4797Y11559D01*
X-4803Y11553D01*
X-4821Y11547D01*
X-4876D01*
X-4833D02*
X-4791Y11481D01*
X-4690Y11565D02*
Y11481D01*
Y11547D02*
X-4702Y11559D01*
X-4714Y11565D01*
X-4732D01*
X-4744Y11559D01*
X-4757Y11547D01*
X-4763Y11529D01*
Y11517D01*
X-4757Y11499D01*
X-4744Y11487D01*
X-4732Y11481D01*
X-4714D01*
X-4702Y11487D01*
X-4690Y11499D01*
X-4638Y11608D02*
Y11505D01*
X-4632Y11487D01*
X-4620Y11481D01*
X-4608D01*
X-4656Y11565D02*
X-4614D01*
X-4578Y11608D02*
X-4572Y11602D01*
X-4565Y11608D01*
X-4572Y11614D01*
X-4578Y11608D01*
X-4572Y11565D02*
Y11481D01*
X-4543Y11565D02*
Y11481D01*
Y11541D02*
X-4525Y11559D01*
X-4513Y11565D01*
X-4495D01*
X-4483Y11559D01*
X-4477Y11541D01*
Y11481D01*
X-4371Y11565D02*
Y11469D01*
X-4377Y11451D01*
X-4383Y11445D01*
X-4395Y11438D01*
X-4413D01*
X-4425Y11445D01*
X-4371Y11547D02*
X-4383Y11559D01*
X-4395Y11565D01*
X-4413D01*
X-4425Y11559D01*
X-4437Y11547D01*
X-4443Y11529D01*
Y11517D01*
X-4437Y11499D01*
X-4425Y11487D01*
X-4413Y11481D01*
X-4395D01*
X-4383Y11487D01*
X-4371Y11499D01*
X-5182Y12116D02*
Y11989D01*
X-5097Y12116D02*
Y11989D01*
X-5182Y12055D02*
X-5097D01*
X-5032Y12073D02*
X-5044Y12067D01*
X-5056Y12055D01*
X-5062Y12037D01*
Y12025D01*
X-5056Y12007D01*
X-5044Y11995D01*
X-5032Y11989D01*
X-5014D01*
X-5001Y11995D01*
X-4989Y12007D01*
X-4983Y12025D01*
Y12037D01*
X-4989Y12055D01*
X-5001Y12067D01*
X-5014Y12073D01*
X-5032D01*
X-4955Y12116D02*
Y11989D01*
X-4929Y12037D02*
X-4856D01*
Y12049D01*
X-4862Y12061D01*
X-4868Y12067D01*
X-4880Y12073D01*
X-4899D01*
X-4911Y12067D01*
X-4923Y12055D01*
X-4929Y12037D01*
Y12025D01*
X-4923Y12007D01*
X-4911Y11995D01*
X-4899Y11989D01*
X-4880D01*
X-4868Y11995D01*
X-4856Y12007D01*
X-4645Y12098D02*
X-4657Y12110D01*
X-4675Y12116D01*
X-4699D01*
X-4717Y12110D01*
X-4729Y12098D01*
Y12086D01*
X-4723Y12073D01*
X-4717Y12067D01*
X-4705Y12061D01*
X-4669Y12049D01*
X-4657Y12043D01*
X-4651Y12037D01*
X-4645Y12025D01*
Y12007D01*
X-4657Y11995D01*
X-4675Y11989D01*
X-4699D01*
X-4717Y11995D01*
X-4729Y12007D01*
X-4604Y12116D02*
X-4598Y12110D01*
X-4592Y12116D01*
X-4598Y12122D01*
X-4604Y12116D01*
X-4598Y12073D02*
Y11989D01*
X-4503Y12073D02*
X-4570Y11989D01*
Y12073D02*
X-4503D01*
X-4570Y11989D02*
X-4503D01*
X-4477Y12037D02*
X-4404D01*
Y12049D01*
X-4410Y12061D01*
X-4416Y12067D01*
X-4428Y12073D01*
X-4446D01*
X-4458Y12067D01*
X-4471Y12055D01*
X-4477Y12037D01*
Y12025D01*
X-4471Y12007D01*
X-4458Y11995D01*
X-4446Y11989D01*
X-4428D01*
X-4416Y11995D01*
X-4404Y12007D01*
X-4310Y12055D02*
X-4316Y12067D01*
X-4335Y12073D01*
X-4353D01*
X-4371Y12067D01*
X-4377Y12055D01*
X-4371Y12043D01*
X-4359Y12037D01*
X-4328Y12031D01*
X-4316Y12025D01*
X-4310Y12013D01*
Y12007D01*
X-4316Y11995D01*
X-4335Y11989D01*
X-4353D01*
X-4371Y11995D01*
X-4377Y12007D01*
X-5182Y12370D02*
Y12243D01*
Y12370D02*
X-5133Y12243D01*
X-5085Y12370D02*
X-5133Y12243D01*
X-5085Y12370D02*
Y12243D01*
X-4976Y12327D02*
Y12243D01*
Y12309D02*
X-4988Y12321D01*
X-5000Y12327D01*
X-5018D01*
X-5030Y12321D01*
X-5043Y12309D01*
X-5049Y12291D01*
Y12279D01*
X-5043Y12261D01*
X-5030Y12249D01*
X-5018Y12243D01*
X-5000D01*
X-4988Y12249D01*
X-4976Y12261D01*
X-4942Y12327D02*
Y12243D01*
Y12303D02*
X-4924Y12321D01*
X-4912Y12327D01*
X-4894D01*
X-4882Y12321D01*
X-4876Y12303D01*
Y12243D01*
X-4842Y12327D02*
Y12267D01*
X-4836Y12249D01*
X-4824Y12243D01*
X-4806D01*
X-4794Y12249D01*
X-4776Y12267D01*
Y12327D02*
Y12243D01*
X-4694Y12370D02*
X-4706D01*
X-4718Y12364D01*
X-4724Y12346D01*
Y12243D01*
X-4743Y12327D02*
X-4700D01*
X-4604D02*
Y12243D01*
Y12309D02*
X-4616Y12321D01*
X-4628Y12327D01*
X-4646D01*
X-4658Y12321D01*
X-4670Y12309D01*
X-4676Y12291D01*
Y12279D01*
X-4670Y12261D01*
X-4658Y12249D01*
X-4646Y12243D01*
X-4628D01*
X-4616Y12249D01*
X-4604Y12261D01*
X-4497Y12309D02*
X-4509Y12321D01*
X-4521Y12327D01*
X-4539D01*
X-4552Y12321D01*
X-4564Y12309D01*
X-4570Y12291D01*
Y12279D01*
X-4564Y12261D01*
X-4552Y12249D01*
X-4539Y12243D01*
X-4521D01*
X-4509Y12249D01*
X-4497Y12261D01*
X-4452Y12370D02*
Y12267D01*
X-4446Y12249D01*
X-4434Y12243D01*
X-4422D01*
X-4470Y12327D02*
X-4428D01*
X-4403D02*
Y12267D01*
X-4397Y12249D01*
X-4385Y12243D01*
X-4367D01*
X-4355Y12249D01*
X-4337Y12267D01*
Y12327D02*
Y12243D01*
X-4304Y12327D02*
Y12243D01*
Y12291D02*
X-4298Y12309D01*
X-4286Y12321D01*
X-4273Y12327D01*
X-4255D01*
X-4244Y12291D02*
X-4171D01*
Y12303D01*
X-4177Y12315D01*
X-4183Y12321D01*
X-4195Y12327D01*
X-4214D01*
X-4226Y12321D01*
X-4238Y12309D01*
X-4244Y12291D01*
Y12279D01*
X-4238Y12261D01*
X-4226Y12249D01*
X-4214Y12243D01*
X-4195D01*
X-4183Y12249D01*
X-4171Y12261D01*
X-4144Y12327D02*
Y12243D01*
Y12291D02*
X-4138Y12309D01*
X-4126Y12321D01*
X-4114Y12327D01*
X-4096D01*
X-3984Y12370D02*
Y12243D01*
Y12370D02*
X-3936Y12243D01*
X-3888Y12370D02*
X-3936Y12243D01*
X-3888Y12370D02*
Y12243D01*
X-3779Y12327D02*
Y12243D01*
Y12309D02*
X-3791Y12321D01*
X-3803Y12327D01*
X-3821D01*
X-3833Y12321D01*
X-3845Y12309D01*
X-3851Y12291D01*
Y12279D01*
X-3845Y12261D01*
X-3833Y12249D01*
X-3821Y12243D01*
X-3803D01*
X-3791Y12249D01*
X-3779Y12261D01*
X-3745Y12327D02*
Y12243D01*
Y12291D02*
X-3739Y12309D01*
X-3727Y12321D01*
X-3715Y12327D01*
X-3697D01*
X-3685Y12370D02*
Y12243D01*
X-3625Y12327D02*
X-3685Y12267D01*
X-3661Y12291D02*
X-3619Y12243D01*
X-3587Y12370D02*
X-3581Y12364D01*
X-3574Y12370D01*
X-3581Y12376D01*
X-3587Y12370D01*
X-3581Y12327D02*
Y12243D01*
X-3552Y12327D02*
Y12243D01*
Y12303D02*
X-3534Y12321D01*
X-3522Y12327D01*
X-3504D01*
X-3492Y12321D01*
X-3486Y12303D01*
Y12243D01*
X-3380Y12327D02*
Y12231D01*
X-3386Y12213D01*
X-3392Y12207D01*
X-3404Y12200D01*
X-3422D01*
X-3434Y12207D01*
X-3380Y12309D02*
X-3392Y12321D01*
X-3404Y12327D01*
X-3422D01*
X-3434Y12321D01*
X-3446Y12309D01*
X-3452Y12291D01*
Y12279D01*
X-3446Y12261D01*
X-3434Y12249D01*
X-3422Y12243D01*
X-3404D01*
X-3392Y12249D01*
X-3380Y12261D01*
X-3279Y12309D02*
X-3285Y12321D01*
X-3304Y12327D01*
X-3322D01*
X-3340Y12321D01*
X-3346Y12309D01*
X-3340Y12297D01*
X-3328Y12291D01*
X-3298Y12285D01*
X-3285Y12279D01*
X-3279Y12267D01*
Y12261D01*
X-3285Y12249D01*
X-3304Y12243D01*
X-3322D01*
X-3340Y12249D01*
X-3346Y12261D01*
X-5091Y12848D02*
X-5097Y12860D01*
X-5109Y12872D01*
X-5121Y12878D01*
X-5145D01*
X-5157Y12872D01*
X-5170Y12860D01*
X-5176Y12848D01*
X-5182Y12829D01*
Y12799D01*
X-5176Y12781D01*
X-5170Y12769D01*
X-5157Y12757D01*
X-5145Y12751D01*
X-5121D01*
X-5109Y12757D01*
X-5097Y12769D01*
X-5091Y12781D01*
X-5025Y12835D02*
X-5037Y12829D01*
X-5049Y12817D01*
X-5055Y12799D01*
Y12787D01*
X-5049Y12769D01*
X-5037Y12757D01*
X-5025Y12751D01*
X-5007D01*
X-4995Y12757D01*
X-4983Y12769D01*
X-4977Y12787D01*
Y12799D01*
X-4983Y12817D01*
X-4995Y12829D01*
X-5007Y12835D01*
X-5025D01*
X-4949D02*
Y12708D01*
Y12817D02*
X-4937Y12829D01*
X-4925Y12835D01*
X-4906D01*
X-4894Y12829D01*
X-4882Y12817D01*
X-4876Y12799D01*
Y12787D01*
X-4882Y12769D01*
X-4894Y12757D01*
X-4906Y12751D01*
X-4925D01*
X-4937Y12757D01*
X-4949Y12769D01*
X-4849Y12835D02*
Y12708D01*
Y12817D02*
X-4837Y12829D01*
X-4825Y12835D01*
X-4807D01*
X-4795Y12829D01*
X-4783Y12817D01*
X-4776Y12799D01*
Y12787D01*
X-4783Y12769D01*
X-4795Y12757D01*
X-4807Y12751D01*
X-4825D01*
X-4837Y12757D01*
X-4849Y12769D01*
X-4749Y12799D02*
X-4677D01*
Y12811D01*
X-4683Y12823D01*
X-4689Y12829D01*
X-4701Y12835D01*
X-4719D01*
X-4731Y12829D01*
X-4743Y12817D01*
X-4749Y12799D01*
Y12787D01*
X-4743Y12769D01*
X-4731Y12757D01*
X-4719Y12751D01*
X-4701D01*
X-4689Y12757D01*
X-4677Y12769D01*
X-4650Y12835D02*
Y12751D01*
Y12799D02*
X-4643Y12817D01*
X-4631Y12829D01*
X-4619Y12835D01*
X-4601D01*
X-4448Y12878D02*
Y12751D01*
X-4490Y12878D02*
X-4405D01*
X-4390D02*
Y12751D01*
Y12811D02*
X-4372Y12829D01*
X-4360Y12835D01*
X-4342D01*
X-4330Y12829D01*
X-4324Y12811D01*
Y12751D01*
X-4278Y12878D02*
X-4272Y12872D01*
X-4266Y12878D01*
X-4272Y12884D01*
X-4278Y12878D01*
X-4272Y12835D02*
Y12751D01*
X-4171Y12817D02*
X-4183Y12829D01*
X-4195Y12835D01*
X-4214D01*
X-4226Y12829D01*
X-4238Y12817D01*
X-4244Y12799D01*
Y12787D01*
X-4238Y12769D01*
X-4226Y12757D01*
X-4214Y12751D01*
X-4195D01*
X-4183Y12757D01*
X-4171Y12769D01*
X-4144Y12878D02*
Y12751D01*
X-4084Y12835D02*
X-4144Y12775D01*
X-4120Y12799D02*
X-4078Y12751D01*
X-4058Y12835D02*
Y12751D01*
Y12811D02*
X-4039Y12829D01*
X-4027Y12835D01*
X-4009D01*
X-3997Y12829D01*
X-3991Y12811D01*
Y12751D01*
X-3958Y12799D02*
X-3885D01*
Y12811D01*
X-3891Y12823D01*
X-3897Y12829D01*
X-3909Y12835D01*
X-3928D01*
X-3940Y12829D01*
X-3952Y12817D01*
X-3958Y12799D01*
Y12787D01*
X-3952Y12769D01*
X-3940Y12757D01*
X-3928Y12751D01*
X-3909D01*
X-3897Y12757D01*
X-3885Y12769D01*
X-3792Y12817D02*
X-3798Y12829D01*
X-3816Y12835D01*
X-3834D01*
X-3852Y12829D01*
X-3858Y12817D01*
X-3852Y12805D01*
X-3840Y12799D01*
X-3810Y12793D01*
X-3798Y12787D01*
X-3792Y12775D01*
Y12769D01*
X-3798Y12757D01*
X-3816Y12751D01*
X-3834D01*
X-3852Y12757D01*
X-3858Y12769D01*
X-3698Y12817D02*
X-3704Y12829D01*
X-3723Y12835D01*
X-3741D01*
X-3759Y12829D01*
X-3765Y12817D01*
X-3759Y12805D01*
X-3747Y12799D01*
X-3717Y12793D01*
X-3704Y12787D01*
X-3698Y12775D01*
Y12769D01*
X-3704Y12757D01*
X-3723Y12751D01*
X-3741D01*
X-3759Y12757D01*
X-3765Y12769D01*
X-5097Y13114D02*
X-5109Y13126D01*
X-5127Y13132D01*
X-5151D01*
X-5170Y13126D01*
X-5182Y13114D01*
Y13102D01*
X-5176Y13089D01*
X-5170Y13083D01*
X-5157Y13077D01*
X-5121Y13065D01*
X-5109Y13059D01*
X-5103Y13053D01*
X-5097Y13041D01*
Y13023D01*
X-5109Y13011D01*
X-5127Y13005D01*
X-5151D01*
X-5170Y13011D01*
X-5182Y13023D01*
X-5069Y13089D02*
Y13029D01*
X-5062Y13011D01*
X-5050Y13005D01*
X-5032D01*
X-5020Y13011D01*
X-5002Y13029D01*
Y13089D02*
Y13005D01*
X-4969Y13089D02*
Y13005D01*
Y13053D02*
X-4963Y13071D01*
X-4951Y13083D01*
X-4939Y13089D01*
X-4920D01*
X-4861Y13132D02*
X-4873D01*
X-4885Y13126D01*
X-4891Y13108D01*
Y13005D01*
X-4909Y13089D02*
X-4867D01*
X-4770D02*
Y13005D01*
Y13071D02*
X-4782Y13083D01*
X-4794Y13089D01*
X-4812D01*
X-4824Y13083D01*
X-4836Y13071D01*
X-4842Y13053D01*
Y13041D01*
X-4836Y13023D01*
X-4824Y13011D01*
X-4812Y13005D01*
X-4794D01*
X-4782Y13011D01*
X-4770Y13023D01*
X-4663Y13071D02*
X-4676Y13083D01*
X-4688Y13089D01*
X-4706D01*
X-4718Y13083D01*
X-4730Y13071D01*
X-4736Y13053D01*
Y13041D01*
X-4730Y13023D01*
X-4718Y13011D01*
X-4706Y13005D01*
X-4688D01*
X-4676Y13011D01*
X-4663Y13023D01*
X-4636Y13053D02*
X-4564D01*
Y13065D01*
X-4570Y13077D01*
X-4576Y13083D01*
X-4588Y13089D01*
X-4606D01*
X-4618Y13083D01*
X-4630Y13071D01*
X-4636Y13053D01*
Y13041D01*
X-4630Y13023D01*
X-4618Y13011D01*
X-4606Y13005D01*
X-4588D01*
X-4576Y13011D01*
X-4564Y13023D01*
X-4437Y13132D02*
Y13005D01*
Y13132D02*
X-4358D01*
X-4437Y13071D02*
X-4388D01*
X-4331Y13132D02*
X-4325Y13126D01*
X-4319Y13132D01*
X-4325Y13138D01*
X-4331Y13132D01*
X-4325Y13089D02*
Y13005D01*
X-4297Y13089D02*
Y13005D01*
Y13065D02*
X-4279Y13083D01*
X-4267Y13089D01*
X-4249D01*
X-4237Y13083D01*
X-4231Y13065D01*
Y13005D01*
X-4185Y13132D02*
X-4179Y13126D01*
X-4173Y13132D01*
X-4179Y13138D01*
X-4185Y13132D01*
X-4179Y13089D02*
Y13005D01*
X-4084Y13071D02*
X-4090Y13083D01*
X-4108Y13089D01*
X-4127D01*
X-4145Y13083D01*
X-4151Y13071D01*
X-4145Y13059D01*
X-4133Y13053D01*
X-4102Y13047D01*
X-4090Y13041D01*
X-4084Y13029D01*
Y13023D01*
X-4090Y13011D01*
X-4108Y13005D01*
X-4127D01*
X-4145Y13011D01*
X-4151Y13023D01*
X-4058Y13132D02*
Y13005D01*
Y13065D02*
X-4039Y13083D01*
X-4027Y13089D01*
X-4009D01*
X-3997Y13083D01*
X-3991Y13065D01*
Y13005D01*
X-5097Y13596D02*
X-5109Y13608D01*
X-5127Y13614D01*
X-5151D01*
X-5170Y13608D01*
X-5182Y13596D01*
Y13584D01*
X-5176Y13572D01*
X-5170Y13566D01*
X-5157Y13560D01*
X-5121Y13548D01*
X-5109Y13542D01*
X-5103Y13536D01*
X-5097Y13524D01*
Y13506D01*
X-5109Y13493D01*
X-5127Y13487D01*
X-5151D01*
X-5170Y13493D01*
X-5182Y13506D01*
X-5056Y13614D02*
X-5050Y13608D01*
X-5044Y13614D01*
X-5050Y13620D01*
X-5056Y13614D01*
X-5050Y13572D02*
Y13487D01*
X-5022Y13614D02*
Y13487D01*
X-4995Y13614D02*
Y13487D01*
X-4935Y13572D02*
X-4995Y13512D01*
X-4971Y13536D02*
X-4929Y13487D01*
X-4842Y13554D02*
X-4848Y13566D01*
X-4867Y13572D01*
X-4885D01*
X-4903Y13566D01*
X-4909Y13554D01*
X-4903Y13542D01*
X-4891Y13536D01*
X-4861Y13530D01*
X-4848Y13524D01*
X-4842Y13512D01*
Y13506D01*
X-4848Y13493D01*
X-4867Y13487D01*
X-4885D01*
X-4903Y13493D01*
X-4909Y13506D01*
X-4743Y13554D02*
X-4755Y13566D01*
X-4767Y13572D01*
X-4786D01*
X-4798Y13566D01*
X-4810Y13554D01*
X-4816Y13536D01*
Y13524D01*
X-4810Y13506D01*
X-4798Y13493D01*
X-4786Y13487D01*
X-4767D01*
X-4755Y13493D01*
X-4743Y13506D01*
X-4716Y13572D02*
Y13487D01*
Y13536D02*
X-4710Y13554D01*
X-4698Y13566D01*
X-4686Y13572D01*
X-4668D01*
X-4656Y13536D02*
X-4584D01*
Y13548D01*
X-4590Y13560D01*
X-4596Y13566D01*
X-4608Y13572D01*
X-4626D01*
X-4638Y13566D01*
X-4650Y13554D01*
X-4656Y13536D01*
Y13524D01*
X-4650Y13506D01*
X-4638Y13493D01*
X-4626Y13487D01*
X-4608D01*
X-4596Y13493D01*
X-4584Y13506D01*
X-4556Y13536D02*
X-4484D01*
Y13548D01*
X-4490Y13560D01*
X-4496Y13566D01*
X-4508Y13572D01*
X-4526D01*
X-4538Y13566D01*
X-4550Y13554D01*
X-4556Y13536D01*
Y13524D01*
X-4550Y13506D01*
X-4538Y13493D01*
X-4526Y13487D01*
X-4508D01*
X-4496Y13493D01*
X-4484Y13506D01*
X-4457Y13572D02*
Y13487D01*
Y13548D02*
X-4439Y13566D01*
X-4426Y13572D01*
X-4408D01*
X-4396Y13566D01*
X-4390Y13548D01*
Y13487D01*
X-5182Y13894D02*
Y13767D01*
Y13894D02*
X-5097Y13767D01*
Y13894D02*
Y13767D01*
X-5062Y13851D02*
Y13791D01*
X-5056Y13773D01*
X-5044Y13767D01*
X-5026D01*
X-5014Y13773D01*
X-4995Y13791D01*
Y13851D02*
Y13767D01*
X-4962Y13851D02*
Y13767D01*
Y13827D02*
X-4944Y13845D01*
X-4932Y13851D01*
X-4914D01*
X-4902Y13845D01*
X-4896Y13827D01*
Y13767D01*
Y13827D02*
X-4877Y13845D01*
X-4865Y13851D01*
X-4847D01*
X-4835Y13845D01*
X-4829Y13827D01*
Y13767D01*
X-4789Y13894D02*
Y13767D01*
Y13833D02*
X-4777Y13845D01*
X-4765Y13851D01*
X-4747D01*
X-4735Y13845D01*
X-4723Y13833D01*
X-4717Y13815D01*
Y13803D01*
X-4723Y13785D01*
X-4735Y13773D01*
X-4747Y13767D01*
X-4765D01*
X-4777Y13773D01*
X-4789Y13785D01*
X-4689Y13815D02*
X-4617D01*
Y13827D01*
X-4623Y13839D01*
X-4629Y13845D01*
X-4641Y13851D01*
X-4659D01*
X-4671Y13845D01*
X-4683Y13833D01*
X-4689Y13815D01*
Y13803D01*
X-4683Y13785D01*
X-4671Y13773D01*
X-4659Y13767D01*
X-4641D01*
X-4629Y13773D01*
X-4617Y13785D01*
X-4590Y13851D02*
Y13767D01*
Y13815D02*
X-4584Y13833D01*
X-4572Y13845D01*
X-4559Y13851D01*
X-4541D01*
X-4400D02*
X-4412Y13845D01*
X-4424Y13833D01*
X-4430Y13815D01*
Y13803D01*
X-4424Y13785D01*
X-4412Y13773D01*
X-4400Y13767D01*
X-4382D01*
X-4370Y13773D01*
X-4357Y13785D01*
X-4351Y13803D01*
Y13815D01*
X-4357Y13833D01*
X-4370Y13845D01*
X-4382Y13851D01*
X-4400D01*
X-4275Y13894D02*
X-4287D01*
X-4299Y13888D01*
X-4305Y13870D01*
Y13767D01*
X-4324Y13851D02*
X-4281D01*
X-4157Y13894D02*
Y13767D01*
X-4085D01*
X-3998Y13851D02*
Y13767D01*
Y13833D02*
X-4010Y13845D01*
X-4023Y13851D01*
X-4041D01*
X-4053Y13845D01*
X-4065Y13833D01*
X-4071Y13815D01*
Y13803D01*
X-4065Y13785D01*
X-4053Y13773D01*
X-4041Y13767D01*
X-4023D01*
X-4010Y13773D01*
X-3998Y13785D01*
X-3958Y13851D02*
X-3922Y13767D01*
X-3886Y13851D02*
X-3922Y13767D01*
X-3934Y13743D01*
X-3946Y13731D01*
X-3958Y13724D01*
X-3964D01*
X-3865Y13815D02*
X-3792D01*
Y13827D01*
X-3798Y13839D01*
X-3804Y13845D01*
X-3816Y13851D01*
X-3834D01*
X-3847Y13845D01*
X-3859Y13833D01*
X-3865Y13815D01*
Y13803D01*
X-3859Y13785D01*
X-3847Y13773D01*
X-3834Y13767D01*
X-3816D01*
X-3804Y13773D01*
X-3792Y13785D01*
X-3765Y13851D02*
Y13767D01*
Y13815D02*
X-3759Y13833D01*
X-3747Y13845D01*
X-3735Y13851D01*
X-3717D01*
X-3639Y13833D02*
X-3645Y13845D01*
X-3663Y13851D01*
X-3681D01*
X-3699Y13845D01*
X-3705Y13833D01*
X-3699Y13821D01*
X-3687Y13815D01*
X-3657Y13809D01*
X-3645Y13803D01*
X-3639Y13791D01*
Y13785D01*
X-3645Y13773D01*
X-3663Y13767D01*
X-3681D01*
X-3699Y13773D01*
X-3705Y13785D01*
X-5182Y14148D02*
Y14021D01*
Y14148D02*
X-5127D01*
X-5109Y14142D01*
X-5103Y14136D01*
X-5097Y14124D01*
Y14111D01*
X-5103Y14099D01*
X-5109Y14093D01*
X-5127Y14087D01*
X-5182D02*
X-5127D01*
X-5109Y14081D01*
X-5103Y14075D01*
X-5097Y14063D01*
Y14045D01*
X-5103Y14033D01*
X-5109Y14027D01*
X-5127Y14021D01*
X-5182D01*
X-5038Y14105D02*
X-5050Y14099D01*
X-5062Y14087D01*
X-5069Y14069D01*
Y14057D01*
X-5062Y14039D01*
X-5050Y14027D01*
X-5038Y14021D01*
X-5020D01*
X-5008Y14027D01*
X-4996Y14039D01*
X-4990Y14057D01*
Y14069D01*
X-4996Y14087D01*
X-5008Y14099D01*
X-5020Y14105D01*
X-5038D01*
X-4890D02*
Y14021D01*
Y14087D02*
X-4902Y14099D01*
X-4914Y14105D01*
X-4932D01*
X-4944Y14099D01*
X-4956Y14087D01*
X-4962Y14069D01*
Y14057D01*
X-4956Y14039D01*
X-4944Y14027D01*
X-4932Y14021D01*
X-4914D01*
X-4902Y14027D01*
X-4890Y14039D01*
X-4856Y14105D02*
Y14021D01*
Y14069D02*
X-4850Y14087D01*
X-4838Y14099D01*
X-4825Y14105D01*
X-4807D01*
X-4723Y14148D02*
Y14021D01*
Y14087D02*
X-4735Y14099D01*
X-4747Y14105D01*
X-4766D01*
X-4778Y14099D01*
X-4790Y14087D01*
X-4796Y14069D01*
Y14057D01*
X-4790Y14039D01*
X-4778Y14027D01*
X-4766Y14021D01*
X-4747D01*
X-4735Y14027D01*
X-4723Y14039D01*
X-4547Y14148D02*
Y14021D01*
X-4590Y14148D02*
X-4505D01*
X-4490D02*
Y14021D01*
Y14081D02*
X-4472Y14099D01*
X-4460Y14105D01*
X-4442D01*
X-4429Y14099D01*
X-4423Y14081D01*
Y14021D01*
X-4378Y14148D02*
X-4372Y14142D01*
X-4366Y14148D01*
X-4372Y14154D01*
X-4378Y14148D01*
X-4372Y14105D02*
Y14021D01*
X-4271Y14087D02*
X-4283Y14099D01*
X-4295Y14105D01*
X-4313D01*
X-4325Y14099D01*
X-4338Y14087D01*
X-4344Y14069D01*
Y14057D01*
X-4338Y14039D01*
X-4325Y14027D01*
X-4313Y14021D01*
X-4295D01*
X-4283Y14027D01*
X-4271Y14039D01*
X-4244Y14148D02*
Y14021D01*
X-4183Y14105D02*
X-4244Y14045D01*
X-4220Y14069D02*
X-4177Y14021D01*
X-4157Y14105D02*
Y14021D01*
Y14081D02*
X-4139Y14099D01*
X-4127Y14105D01*
X-4109D01*
X-4097Y14099D01*
X-4091Y14081D01*
Y14021D01*
X-4058Y14069D02*
X-3985D01*
Y14081D01*
X-3991Y14093D01*
X-3997Y14099D01*
X-4009Y14105D01*
X-4027D01*
X-4039Y14099D01*
X-4052Y14087D01*
X-4058Y14069D01*
Y14057D01*
X-4052Y14039D01*
X-4039Y14027D01*
X-4027Y14021D01*
X-4009D01*
X-3997Y14027D01*
X-3985Y14039D01*
X-3891Y14087D02*
X-3897Y14099D01*
X-3915Y14105D01*
X-3934D01*
X-3952Y14099D01*
X-3958Y14087D01*
X-3952Y14075D01*
X-3940Y14069D01*
X-3909Y14063D01*
X-3897Y14057D01*
X-3891Y14045D01*
Y14039D01*
X-3897Y14027D01*
X-3915Y14021D01*
X-3934D01*
X-3952Y14027D01*
X-3958Y14039D01*
X-3798Y14087D02*
X-3804Y14099D01*
X-3822Y14105D01*
X-3841D01*
X-3859Y14099D01*
X-3865Y14087D01*
X-3859Y14075D01*
X-3847Y14069D01*
X-3816Y14063D01*
X-3804Y14057D01*
X-3798Y14045D01*
Y14039D01*
X-3804Y14027D01*
X-3822Y14021D01*
X-3841D01*
X-3859Y14027D01*
X-3865Y14039D01*
X-3772Y14003D02*
X-3687Y14148D01*
X-3588Y14118D02*
X-3594Y14130D01*
X-3606Y14142D01*
X-3618Y14148D01*
X-3642D01*
X-3654Y14142D01*
X-3666Y14130D01*
X-3672Y14118D01*
X-3678Y14099D01*
Y14069D01*
X-3672Y14051D01*
X-3666Y14039D01*
X-3654Y14027D01*
X-3642Y14021D01*
X-3618D01*
X-3606Y14027D01*
X-3594Y14039D01*
X-3588Y14051D01*
X-3522Y14105D02*
X-3534Y14099D01*
X-3546Y14087D01*
X-3552Y14069D01*
Y14057D01*
X-3546Y14039D01*
X-3534Y14027D01*
X-3522Y14021D01*
X-3504D01*
X-3492Y14027D01*
X-3480Y14039D01*
X-3474Y14057D01*
Y14069D01*
X-3480Y14087D01*
X-3492Y14099D01*
X-3504Y14105D01*
X-3522D01*
X-3446D02*
Y14021D01*
Y14081D02*
X-3428Y14099D01*
X-3415Y14105D01*
X-3397D01*
X-3385Y14099D01*
X-3379Y14081D01*
Y14021D01*
X-3279Y14087D02*
X-3285Y14099D01*
X-3304Y14105D01*
X-3322D01*
X-3340Y14099D01*
X-3346Y14087D01*
X-3340Y14075D01*
X-3328Y14069D01*
X-3298Y14063D01*
X-3285Y14057D01*
X-3279Y14045D01*
Y14039D01*
X-3285Y14027D01*
X-3304Y14021D01*
X-3322D01*
X-3340Y14027D01*
X-3346Y14039D01*
X-3235Y14148D02*
Y14045D01*
X-3229Y14027D01*
X-3217Y14021D01*
X-3204D01*
X-3253Y14105D02*
X-3210D01*
X-3186D02*
Y14021D01*
Y14069D02*
X-3180Y14087D01*
X-3168Y14099D01*
X-3156Y14105D01*
X-3138D01*
X-3126D02*
Y14045D01*
X-3120Y14027D01*
X-3108Y14021D01*
X-3090D01*
X-3078Y14027D01*
X-3060Y14045D01*
Y14105D02*
Y14021D01*
X-2954Y14087D02*
X-2966Y14099D01*
X-2978Y14105D01*
X-2996D01*
X-3009Y14099D01*
X-3021Y14087D01*
X-3027Y14069D01*
Y14057D01*
X-3021Y14039D01*
X-3009Y14027D01*
X-2996Y14021D01*
X-2978D01*
X-2966Y14027D01*
X-2954Y14039D01*
X-2909Y14148D02*
Y14045D01*
X-2903Y14027D01*
X-2891Y14021D01*
X-2879D01*
X-2927Y14105D02*
X-2885D01*
X-2848Y14148D02*
X-2842Y14142D01*
X-2836Y14148D01*
X-2842Y14154D01*
X-2848Y14148D01*
X-2842Y14105D02*
Y14021D01*
X-2784Y14105D02*
X-2796Y14099D01*
X-2808Y14087D01*
X-2814Y14069D01*
Y14057D01*
X-2808Y14039D01*
X-2796Y14027D01*
X-2784Y14021D01*
X-2765D01*
X-2753Y14027D01*
X-2741Y14039D01*
X-2735Y14057D01*
Y14069D01*
X-2741Y14087D01*
X-2753Y14099D01*
X-2765Y14105D01*
X-2784D01*
X-2707D02*
Y14021D01*
Y14081D02*
X-2689Y14099D01*
X-2677Y14105D01*
X-2659D01*
X-2647Y14099D01*
X-2641Y14081D01*
Y14021D01*
X-5182Y14402D02*
Y14275D01*
Y14402D02*
X-5127D01*
X-5109Y14396D01*
X-5103Y14390D01*
X-5097Y14378D01*
Y14365D01*
X-5103Y14353D01*
X-5109Y14347D01*
X-5127Y14341D01*
X-5182D02*
X-5127D01*
X-5109Y14335D01*
X-5103Y14329D01*
X-5097Y14317D01*
Y14299D01*
X-5103Y14287D01*
X-5109Y14281D01*
X-5127Y14275D01*
X-5182D01*
X-5038Y14359D02*
X-5050Y14353D01*
X-5062Y14341D01*
X-5069Y14323D01*
Y14311D01*
X-5062Y14293D01*
X-5050Y14281D01*
X-5038Y14275D01*
X-5020D01*
X-5008Y14281D01*
X-4996Y14293D01*
X-4990Y14311D01*
Y14323D01*
X-4996Y14341D01*
X-5008Y14353D01*
X-5020Y14359D01*
X-5038D01*
X-4890D02*
Y14275D01*
Y14341D02*
X-4902Y14353D01*
X-4914Y14359D01*
X-4932D01*
X-4944Y14353D01*
X-4956Y14341D01*
X-4962Y14323D01*
Y14311D01*
X-4956Y14293D01*
X-4944Y14281D01*
X-4932Y14275D01*
X-4914D01*
X-4902Y14281D01*
X-4890Y14293D01*
X-4856Y14359D02*
Y14275D01*
Y14323D02*
X-4850Y14341D01*
X-4838Y14353D01*
X-4825Y14359D01*
X-4807D01*
X-4723Y14402D02*
Y14275D01*
Y14341D02*
X-4735Y14353D01*
X-4747Y14359D01*
X-4766D01*
X-4778Y14353D01*
X-4790Y14341D01*
X-4796Y14323D01*
Y14311D01*
X-4790Y14293D01*
X-4778Y14281D01*
X-4766Y14275D01*
X-4747D01*
X-4735Y14281D01*
X-4723Y14293D01*
X-4590Y14402D02*
Y14275D01*
Y14402D02*
X-4541Y14275D01*
X-4493Y14402D02*
X-4541Y14275D01*
X-4493Y14402D02*
Y14275D01*
X-4384Y14359D02*
Y14275D01*
Y14341D02*
X-4396Y14353D01*
X-4408Y14359D01*
X-4426D01*
X-4439Y14353D01*
X-4451Y14341D01*
X-4457Y14323D01*
Y14311D01*
X-4451Y14293D01*
X-4439Y14281D01*
X-4426Y14275D01*
X-4408D01*
X-4396Y14281D01*
X-4384Y14293D01*
X-4332Y14402D02*
Y14299D01*
X-4326Y14281D01*
X-4314Y14275D01*
X-4302D01*
X-4350Y14359D02*
X-4308D01*
X-4284Y14323D02*
X-4211D01*
Y14335D01*
X-4217Y14347D01*
X-4223Y14353D01*
X-4235Y14359D01*
X-4253D01*
X-4266Y14353D01*
X-4278Y14341D01*
X-4284Y14323D01*
Y14311D01*
X-4278Y14293D01*
X-4266Y14281D01*
X-4253Y14275D01*
X-4235D01*
X-4223Y14281D01*
X-4211Y14293D01*
X-4184Y14359D02*
Y14275D01*
Y14323D02*
X-4178Y14341D01*
X-4166Y14353D01*
X-4154Y14359D01*
X-4136D01*
X-4112Y14402D02*
X-4106Y14396D01*
X-4100Y14402D01*
X-4106Y14408D01*
X-4112Y14402D01*
X-4106Y14359D02*
Y14275D01*
X-4005Y14359D02*
Y14275D01*
Y14341D02*
X-4017Y14353D01*
X-4029Y14359D01*
X-4047D01*
X-4059Y14353D01*
X-4071Y14341D01*
X-4078Y14323D01*
Y14311D01*
X-4071Y14293D01*
X-4059Y14281D01*
X-4047Y14275D01*
X-4029D01*
X-4017Y14281D01*
X-4005Y14293D01*
X-3971Y14402D02*
Y14275D01*
X-5182Y14656D02*
Y14529D01*
Y14656D02*
X-5127D01*
X-5109Y14650D01*
X-5103Y14644D01*
X-5097Y14632D01*
Y14619D01*
X-5103Y14607D01*
X-5109Y14601D01*
X-5127Y14595D01*
X-5182D01*
X-5139D02*
X-5097Y14529D01*
X-5038Y14613D02*
X-5050Y14607D01*
X-5062Y14595D01*
X-5069Y14577D01*
Y14565D01*
X-5062Y14547D01*
X-5050Y14535D01*
X-5038Y14529D01*
X-5020D01*
X-5008Y14535D01*
X-4996Y14547D01*
X-4990Y14565D01*
Y14577D01*
X-4996Y14595D01*
X-5008Y14607D01*
X-5020Y14613D01*
X-5038D01*
X-4962Y14656D02*
Y14529D01*
X-4877Y14656D02*
Y14529D01*
X-4962Y14595D02*
X-4877D01*
X-4758Y14638D02*
X-4770Y14650D01*
X-4788Y14656D01*
X-4812D01*
X-4830Y14650D01*
X-4842Y14638D01*
Y14626D01*
X-4836Y14613D01*
X-4830Y14607D01*
X-4818Y14601D01*
X-4782Y14589D01*
X-4770Y14583D01*
X-4764Y14577D01*
X-4758Y14565D01*
Y14547D01*
X-4770Y14535D01*
X-4788Y14529D01*
X-4812D01*
X-4830Y14535D01*
X-4842Y14547D01*
X-5182Y14910D02*
Y14783D01*
X-5155Y14843D02*
X-5101D01*
X-5082Y14849D01*
X-5076Y14855D01*
X-5070Y14867D01*
Y14886D01*
X-5076Y14898D01*
X-5082Y14904D01*
X-5101Y14910D01*
X-5155D01*
Y14783D01*
X-4951Y14880D02*
X-4957Y14892D01*
X-4969Y14904D01*
X-4981Y14910D01*
X-5006D01*
X-5018Y14904D01*
X-5030Y14892D01*
X-5036Y14880D01*
X-5042Y14861D01*
Y14831D01*
X-5036Y14813D01*
X-5030Y14801D01*
X-5018Y14789D01*
X-5006Y14783D01*
X-4981D01*
X-4969Y14789D01*
X-4957Y14801D01*
X-4951Y14813D01*
X-4816Y14910D02*
Y14783D01*
X-4743D01*
X-4729Y14831D02*
X-4657D01*
Y14843D01*
X-4663Y14855D01*
X-4669Y14861D01*
X-4681Y14867D01*
X-4699D01*
X-4711Y14861D01*
X-4723Y14849D01*
X-4729Y14831D01*
Y14819D01*
X-4723Y14801D01*
X-4711Y14789D01*
X-4699Y14783D01*
X-4681D01*
X-4669Y14789D01*
X-4657Y14801D01*
X-4630Y14867D02*
X-4593Y14783D01*
X-4557Y14867D02*
X-4593Y14783D01*
X-4536Y14831D02*
X-4464D01*
Y14843D01*
X-4470Y14855D01*
X-4476Y14861D01*
X-4488Y14867D01*
X-4506D01*
X-4518Y14861D01*
X-4530Y14849D01*
X-4536Y14831D01*
Y14819D01*
X-4530Y14801D01*
X-4518Y14789D01*
X-4506Y14783D01*
X-4488D01*
X-4476Y14789D01*
X-4464Y14801D01*
X-4437Y14910D02*
Y14783D01*
X-5182Y12630D02*
Y12503D01*
Y12630D02*
X-5133Y12503D01*
X-5085Y12630D02*
X-5133Y12503D01*
X-5085Y12630D02*
Y12503D01*
X-4976Y12588D02*
Y12503D01*
Y12570D02*
X-4988Y12582D01*
X-5000Y12588D01*
X-5018D01*
X-5030Y12582D01*
X-5043Y12570D01*
X-5049Y12552D01*
Y12540D01*
X-5043Y12521D01*
X-5030Y12509D01*
X-5018Y12503D01*
X-5000D01*
X-4988Y12509D01*
X-4976Y12521D01*
X-4876Y12570D02*
X-4882Y12582D01*
X-4900Y12588D01*
X-4918D01*
X-4936Y12582D01*
X-4942Y12570D01*
X-4936Y12558D01*
X-4924Y12552D01*
X-4894Y12546D01*
X-4882Y12540D01*
X-4876Y12527D01*
Y12521D01*
X-4882Y12509D01*
X-4900Y12503D01*
X-4918D01*
X-4936Y12509D01*
X-4942Y12521D01*
X-4849Y12630D02*
Y12503D01*
X-4789Y12588D02*
X-4849Y12527D01*
X-4825Y12552D02*
X-4783Y12503D01*
X-4572Y12600D02*
X-4578Y12612D01*
X-4590Y12624D01*
X-4602Y12630D01*
X-4627D01*
X-4639Y12624D01*
X-4651Y12612D01*
X-4657Y12600D01*
X-4663Y12582D01*
Y12552D01*
X-4657Y12534D01*
X-4651Y12521D01*
X-4639Y12509D01*
X-4627Y12503D01*
X-4602D01*
X-4590Y12509D01*
X-4578Y12521D01*
X-4572Y12534D01*
X-4506Y12588D02*
X-4518Y12582D01*
X-4530Y12570D01*
X-4536Y12552D01*
Y12540D01*
X-4530Y12521D01*
X-4518Y12509D01*
X-4506Y12503D01*
X-4488D01*
X-4476Y12509D01*
X-4464Y12521D01*
X-4458Y12540D01*
Y12552D01*
X-4464Y12570D01*
X-4476Y12582D01*
X-4488Y12588D01*
X-4506D01*
X-4430Y12630D02*
Y12503D01*
X-4373Y12588D02*
X-4385Y12582D01*
X-4397Y12570D01*
X-4403Y12552D01*
Y12540D01*
X-4397Y12521D01*
X-4385Y12509D01*
X-4373Y12503D01*
X-4355D01*
X-4343Y12509D01*
X-4331Y12521D01*
X-4325Y12540D01*
Y12552D01*
X-4331Y12570D01*
X-4343Y12582D01*
X-4355Y12588D01*
X-4373D01*
X-4297D02*
Y12503D01*
Y12552D02*
X-4291Y12570D01*
X-4279Y12582D01*
X-4267Y12588D01*
X-4249D01*
X-1938Y12630D02*
Y12503D01*
Y12630D02*
X-1883D01*
X-1865Y12624D01*
X-1859Y12618D01*
X-1853Y12606D01*
Y12593D01*
X-1859Y12581D01*
X-1865Y12575D01*
X-1883Y12569D01*
X-1938D02*
X-1883D01*
X-1865Y12563D01*
X-1859Y12557D01*
X-1853Y12545D01*
Y12527D01*
X-1859Y12515D01*
X-1865Y12509D01*
X-1883Y12503D01*
X-1938D01*
X-1825Y12630D02*
Y12503D01*
X-1726Y12587D02*
Y12503D01*
Y12569D02*
X-1738Y12581D01*
X-1750Y12587D01*
X-1768D01*
X-1780Y12581D01*
X-1792Y12569D01*
X-1798Y12551D01*
Y12539D01*
X-1792Y12521D01*
X-1780Y12509D01*
X-1768Y12503D01*
X-1750D01*
X-1738Y12509D01*
X-1726Y12521D01*
X-1619Y12569D02*
X-1631Y12581D01*
X-1643Y12587D01*
X-1662D01*
X-1674Y12581D01*
X-1686Y12569D01*
X-1692Y12551D01*
Y12539D01*
X-1686Y12521D01*
X-1674Y12509D01*
X-1662Y12503D01*
X-1643D01*
X-1631Y12509D01*
X-1619Y12521D01*
X-1592Y12630D02*
Y12503D01*
X-1532Y12587D02*
X-1592Y12527D01*
X-1568Y12551D02*
X-1526Y12503D01*
X-1406Y12630D02*
Y12503D01*
Y12630D02*
X-1357Y12503D01*
X-1309Y12630D02*
X-1357Y12503D01*
X-1309Y12630D02*
Y12503D01*
X-1200Y12587D02*
Y12503D01*
Y12569D02*
X-1212Y12581D01*
X-1224Y12587D01*
X-1243D01*
X-1255Y12581D01*
X-1267Y12569D01*
X-1273Y12551D01*
Y12539D01*
X-1267Y12521D01*
X-1255Y12509D01*
X-1243Y12503D01*
X-1224D01*
X-1212Y12509D01*
X-1200Y12521D01*
X-1100Y12569D02*
X-1106Y12581D01*
X-1124Y12587D01*
X-1142D01*
X-1160Y12581D01*
X-1166Y12569D01*
X-1160Y12557D01*
X-1148Y12551D01*
X-1118Y12545D01*
X-1106Y12539D01*
X-1100Y12527D01*
Y12521D01*
X-1106Y12509D01*
X-1124Y12503D01*
X-1142D01*
X-1160Y12509D01*
X-1166Y12521D01*
X-1073Y12630D02*
Y12503D01*
X-1013Y12587D02*
X-1073Y12527D01*
X-1049Y12551D02*
X-1007Y12503D01*
X-981Y12515D02*
X-987Y12509D01*
X-981Y12503D01*
X-975Y12509D01*
X-981Y12515D01*
D66*
X2658Y-1220D02*
D03*
D67*
X1737Y6906D02*
D03*
X1750Y8088D02*
D03*
M02*
