G04 Layer_Color=16711935*
%FSLAX42Y42*%
%MOMM*%
G71*
G01*
G75*
%ADD38C,1.50*%
%ADD39C,2.74*%
%ADD40R,1.70X1.70*%
%ADD41C,1.70*%
%ADD42R,1.70X1.70*%
%ADD43C,2.51*%
%ADD44C,2.76*%
%ADD45C,3.20*%
%ADD46R,1.42X0.91*%
%ADD47R,1.90X1.40*%
%ADD48R,1.20X0.70*%
G04:AMPARAMS|DCode=49|XSize=0.7mm|YSize=1.2mm|CornerRadius=0.35mm|HoleSize=0mm|Usage=FLASHONLY|Rotation=270.000|XOffset=0mm|YOffset=0mm|HoleType=Round|Shape=RoundedRectangle|*
%AMROUNDEDRECTD49*
21,1,0.70,0.50,0,0,270.0*
21,1,0.00,1.20,0,0,270.0*
1,1,0.70,-0.25,0.00*
1,1,0.70,-0.25,0.00*
1,1,0.70,0.25,0.00*
1,1,0.70,0.25,0.00*
%
%ADD49ROUNDEDRECTD49*%
%ADD50R,2.11X1.40*%
%ADD51R,2.11X2.59*%
%ADD52R,2.31X1.70*%
%ADD53R,1.91X0.66*%
%ADD54R,1.91X0.60*%
G04:AMPARAMS|DCode=55|XSize=0.81mm|YSize=1.91mm|CornerRadius=0.41mm|HoleSize=0mm|Usage=FLASHONLY|Rotation=90.000|XOffset=0mm|YOffset=0mm|HoleType=Round|Shape=RoundedRectangle|*
%AMROUNDEDRECTD55*
21,1,0.81,1.09,0,0,90.0*
21,1,0.00,1.91,0,0,90.0*
1,1,0.81,0.55,0.00*
1,1,0.81,0.55,0.00*
1,1,0.81,-0.55,0.00*
1,1,0.81,-0.55,0.00*
%
%ADD55ROUNDEDRECTD55*%
G04:AMPARAMS|DCode=56|XSize=3.02mm|YSize=1.22mm|CornerRadius=0.61mm|HoleSize=0mm|Usage=FLASHONLY|Rotation=0.000|XOffset=0mm|YOffset=0mm|HoleType=Round|Shape=RoundedRectangle|*
%AMROUNDEDRECTD56*
21,1,3.02,0.00,0,0,0.0*
21,1,1.80,1.22,0,0,0.0*
1,1,1.22,0.90,0.00*
1,1,1.22,-0.90,0.00*
1,1,1.22,-0.90,0.00*
1,1,1.22,0.90,0.00*
%
%ADD56ROUNDEDRECTD56*%
D38*
X2925Y1528D02*
D03*
Y1782D02*
D03*
Y2036D02*
D03*
Y2290D02*
D03*
Y2544D02*
D03*
Y2798D02*
D03*
Y3052D02*
D03*
X2735Y1655D02*
D03*
Y1909D02*
D03*
Y2163D02*
D03*
Y2417D02*
D03*
Y2671D02*
D03*
Y2925D02*
D03*
X2544Y3052D02*
D03*
Y2798D02*
D03*
Y2544D02*
D03*
Y2290D02*
D03*
Y2036D02*
D03*
Y1782D02*
D03*
Y1528D02*
D03*
Y1274D02*
D03*
X2354Y2938D02*
D03*
Y2684D02*
D03*
Y2430D02*
D03*
Y2176D02*
D03*
Y1922D02*
D03*
Y1668D02*
D03*
Y1414D02*
D03*
X2735Y1401D02*
D03*
X2925Y1274D02*
D03*
D39*
X2640Y3560D02*
D03*
Y766D02*
D03*
D40*
X2350Y-1829D02*
D03*
Y-2184D02*
D03*
Y-1486D02*
D03*
D41*
X2603Y-1829D02*
D03*
X2858D02*
D03*
X2603Y-2184D02*
D03*
X2858D02*
D03*
X2603Y-1486D02*
D03*
X2858D02*
D03*
X-2286Y2540D02*
D03*
Y2286D02*
D03*
Y2032D02*
D03*
Y1778D02*
D03*
Y1524D02*
D03*
Y1270D02*
D03*
Y1016D02*
D03*
Y762D02*
D03*
Y508D02*
D03*
Y254D02*
D03*
Y0D02*
D03*
Y-254D02*
D03*
Y-508D02*
D03*
Y-762D02*
D03*
X1270Y2540D02*
D03*
Y2286D02*
D03*
Y2032D02*
D03*
Y1778D02*
D03*
Y1524D02*
D03*
Y1270D02*
D03*
Y1016D02*
D03*
Y762D02*
D03*
Y508D02*
D03*
Y254D02*
D03*
Y0D02*
D03*
Y-254D02*
D03*
Y-508D02*
D03*
Y-762D02*
D03*
D42*
X-2286Y-1016D02*
D03*
X1270D02*
D03*
D43*
X2637Y96D02*
D03*
X-3663D02*
D03*
D44*
Y4196D02*
D03*
X2637D02*
D03*
D45*
X1837Y-1629D02*
D03*
Y2871D02*
D03*
X-2863D02*
D03*
Y-1629D02*
D03*
D46*
X2903Y-1219D02*
D03*
X2533Y-1219D02*
D03*
D47*
X-2789Y-1092D02*
D03*
X-2789Y-432D02*
D03*
X-2789Y-76D02*
D03*
X-2789Y584D02*
D03*
D48*
X-2594Y-962D02*
D03*
Y54D02*
D03*
D49*
X-2594Y-882D02*
D03*
X-2594Y-802D02*
D03*
X-2594Y-722D02*
D03*
X-2594Y-642D02*
D03*
X-2594Y-562D02*
D03*
Y134D02*
D03*
X-2594Y214D02*
D03*
X-2594Y294D02*
D03*
X-2594Y374D02*
D03*
X-2594Y454D02*
D03*
D50*
X3150Y-602D02*
D03*
X3150Y-770D02*
D03*
D51*
Y-981D02*
D03*
X3150Y-389D02*
D03*
D52*
X2918Y-936D02*
D03*
X2918Y-434D02*
D03*
D53*
X2868Y-554D02*
D03*
X2868Y-816D02*
D03*
X2868Y-620D02*
D03*
X2868Y-686D02*
D03*
D54*
X2868Y-751D02*
D03*
D55*
X-3519Y3235D02*
D03*
X-3519Y3110D02*
D03*
X-3519Y2984D02*
D03*
X-3519Y2860D02*
D03*
Y955D02*
D03*
Y1082D02*
D03*
Y1206D02*
D03*
X-3519Y1332D02*
D03*
X-3519Y1457D02*
D03*
X-3519Y1582D02*
D03*
D56*
X-3834Y3430D02*
D03*
X-3834Y2664D02*
D03*
X-3834Y762D02*
D03*
Y1777D02*
D03*
M02*
