G04 Layer_Physical_Order=1*
G04 Layer_Color=255*
%FSLAX42Y42*%
%MOMM*%
G71*
G01*
G75*
%ADD10C,0.20*%
%ADD11C,0.50*%
%ADD12C,1.50*%
%ADD13C,0.25*%
%ADD14C,1.30*%
%ADD15C,2.54*%
%ADD16R,1.50X1.50*%
%ADD17C,1.50*%
%ADD18R,1.50X1.50*%
%ADD19C,2.30*%
%ADD20C,2.55*%
%ADD21C,3.00*%
%ADD22C,1.27*%
%ADD23C,0.60*%
G36*
X3032Y4653D02*
X3033Y4648D01*
X3034Y4642D01*
X3034Y4642D01*
X3034Y4642D01*
X3037Y4638D01*
X3040Y4634D01*
X3040Y4634D01*
X3040Y4634D01*
X3045Y4631D01*
X3049Y4628D01*
X3049Y4628D01*
X3049Y4628D01*
X3054Y4627D01*
X3059Y4626D01*
X3270D01*
X3278Y2146D01*
X3276Y1607D01*
X3275Y1604D01*
X3267Y1596D01*
X3267Y1596D01*
X3012Y1596D01*
X3010Y1595D01*
X3008D01*
X3006Y1594D01*
X3004Y1594D01*
X3002Y1593D01*
X3000Y1592D01*
X3000Y1592D01*
X2995Y1590D01*
X2986Y1590D01*
X2983Y1591D01*
X2968Y1602D01*
X2947Y1611D01*
X2925Y1614D01*
X2903Y1611D01*
X2882Y1602D01*
X2866Y1590D01*
X2808D01*
X2802Y1602D01*
X2809Y1612D01*
X2818Y1633D01*
X2821Y1655D01*
X2818Y1677D01*
X2809Y1698D01*
X2796Y1716D01*
X2778Y1729D01*
X2757Y1738D01*
X2735Y1741D01*
X2713Y1738D01*
X2692Y1729D01*
X2674Y1716D01*
X2668Y1707D01*
X2608D01*
X2604Y1720D01*
X2605Y1721D01*
X2619Y1739D01*
X2628Y1760D01*
X2630Y1782D01*
X2628Y1804D01*
X2619Y1825D01*
X2605Y1843D01*
X2600Y1847D01*
X2599Y1864D01*
X2637Y1902D01*
X2650Y1897D01*
X2652Y1887D01*
X2660Y1866D01*
X2674Y1848D01*
X2692Y1834D01*
X2713Y1826D01*
X2735Y1823D01*
X2757Y1826D01*
X2778Y1834D01*
X2796Y1848D01*
X2809Y1866D01*
X2818Y1887D01*
X2819Y1897D01*
X2833Y1902D01*
X2873Y1862D01*
X2872Y1849D01*
X2864Y1843D01*
X2851Y1825D01*
X2842Y1804D01*
X2839Y1782D01*
X2842Y1760D01*
X2851Y1739D01*
X2864Y1721D01*
X2882Y1707D01*
X2903Y1699D01*
X2925Y1696D01*
X2947Y1699D01*
X2968Y1707D01*
X2986Y1721D01*
X3000Y1739D01*
X3008Y1760D01*
X3011Y1782D01*
X3008Y1804D01*
X3000Y1825D01*
X2986Y1843D01*
X2968Y1856D01*
X2954Y1862D01*
X2954Y1865D01*
X2947Y1875D01*
X2860Y1963D01*
X2868Y1972D01*
X2870Y1970D01*
X2882Y1961D01*
X2903Y1953D01*
X2925Y1950D01*
X2947Y1953D01*
X2968Y1961D01*
X2986Y1975D01*
X3000Y1993D01*
X3008Y2014D01*
X3011Y2036D01*
X3008Y2058D01*
X3000Y2079D01*
X2986Y2097D01*
X2968Y2110D01*
X2947Y2119D01*
X2925Y2122D01*
X2903Y2119D01*
X2882Y2110D01*
X2864Y2097D01*
X2851Y2079D01*
X2842Y2058D01*
X2839Y2036D01*
X2842Y2014D01*
X2851Y1993D01*
X2860Y1981D01*
X2861Y1979D01*
X2852Y1970D01*
X2796Y2026D01*
X2786Y2033D01*
X2774Y2035D01*
X2695D01*
X2684Y2033D01*
X2674Y2026D01*
X2617Y1970D01*
X2608Y1978D01*
X2610Y1982D01*
X2619Y1993D01*
X2628Y2014D01*
X2630Y2036D01*
X2628Y2058D01*
X2619Y2079D01*
X2605Y2097D01*
X2587Y2110D01*
X2567Y2119D01*
X2544Y2122D01*
X2522Y2119D01*
X2501Y2110D01*
X2484Y2097D01*
X2470Y2079D01*
X2461Y2058D01*
X2458Y2036D01*
X2461Y2014D01*
X2470Y1993D01*
X2484Y1975D01*
X2501Y1961D01*
X2522Y1953D01*
X2544Y1950D01*
X2567Y1953D01*
X2587Y1961D01*
X2598Y1970D01*
X2602Y1973D01*
X2611Y1963D01*
X2556Y1908D01*
X2444D01*
X2433Y1906D01*
X2423Y1899D01*
X2381Y1857D01*
X2061D01*
X2050Y1855D01*
X2039Y1848D01*
X1426Y1235D01*
X1419Y1225D01*
X1417Y1213D01*
Y699D01*
X1312Y594D01*
X1295Y601D01*
X1270Y604D01*
X1245Y601D01*
X1222Y591D01*
X1202Y576D01*
X1187Y556D01*
X1180Y539D01*
X927D01*
X915Y537D01*
X905Y530D01*
X821Y446D01*
X815Y436D01*
X812Y424D01*
Y-930D01*
X800Y-936D01*
X792Y-930D01*
X771Y-922D01*
X768Y-921D01*
Y786D01*
X779Y790D01*
X796Y804D01*
X810Y821D01*
X818Y842D01*
X821Y864D01*
X818Y885D01*
X810Y906D01*
X796Y923D01*
X779Y937D01*
X758Y945D01*
X737Y948D01*
X715Y945D01*
X694Y937D01*
X677Y923D01*
X663Y906D01*
X655Y885D01*
X652Y864D01*
X655Y842D01*
X663Y821D01*
X677Y804D01*
X694Y790D01*
X706Y786D01*
Y-931D01*
X690Y-944D01*
X676Y-961D01*
X668Y-981D01*
X665Y-1003D01*
X668Y-1025D01*
X676Y-1046D01*
X690Y-1063D01*
X707Y-1077D01*
X727Y-1085D01*
X749Y-1088D01*
X771Y-1085D01*
X784Y-1080D01*
X795Y-1089D01*
X795Y-1090D01*
Y-1791D01*
X797Y-1803D01*
X798Y-1804D01*
X796Y-1819D01*
X794Y-1820D01*
X778Y-1833D01*
X765Y-1850D01*
X757Y-1870D01*
X754Y-1892D01*
X757Y-1914D01*
X765Y-1935D01*
X778Y-1952D01*
X796Y-1966D01*
X816Y-1974D01*
X838Y-1977D01*
X860Y-1974D01*
X880Y-1966D01*
X898Y-1952D01*
X911Y-1935D01*
X920Y-1914D01*
X923Y-1892D01*
X920Y-1870D01*
X911Y-1850D01*
X898Y-1833D01*
X880Y-1819D01*
X869Y-1814D01*
Y-1803D01*
X867Y-1792D01*
X860Y-1782D01*
X856Y-1778D01*
Y-1103D01*
X865Y-1094D01*
X872Y-1084D01*
X874Y-1072D01*
Y411D01*
X940Y477D01*
X1180D01*
X1187Y460D01*
X1202Y440D01*
X1222Y425D01*
X1245Y415D01*
X1270Y412D01*
X1295Y415D01*
X1318Y425D01*
X1338Y440D01*
X1353Y460D01*
X1363Y483D01*
X1366Y508D01*
X1363Y533D01*
X1356Y550D01*
X1470Y664D01*
X1476Y674D01*
X1479Y686D01*
Y1200D01*
X1529Y1250D01*
X1541Y1245D01*
Y635D01*
X1543Y623D01*
X1544Y622D01*
Y434D01*
X1533Y429D01*
X1515Y415D01*
X1502Y398D01*
X1493Y377D01*
X1490Y356D01*
X1493Y334D01*
X1502Y313D01*
X1515Y296D01*
X1533Y282D01*
X1553Y274D01*
X1575Y271D01*
X1597Y274D01*
X1617Y282D01*
X1633Y294D01*
X1645Y291D01*
Y243D01*
X1634Y238D01*
X1617Y225D01*
X1603Y207D01*
X1595Y187D01*
X1592Y165D01*
X1595Y143D01*
X1603Y123D01*
X1617Y105D01*
X1634Y92D01*
X1655Y83D01*
X1676Y81D01*
X1698Y83D01*
X1719Y92D01*
X1736Y105D01*
X1750Y123D01*
X1758Y143D01*
X1761Y165D01*
X1758Y185D01*
X1763Y191D01*
X1768Y196D01*
X1778Y195D01*
X1800Y198D01*
X1820Y206D01*
X1838Y220D01*
X1851Y237D01*
X1860Y258D01*
X1863Y279D01*
X1860Y301D01*
X1851Y322D01*
X1838Y339D01*
X1820Y353D01*
X1809Y357D01*
Y550D01*
X1807Y562D01*
X1800Y572D01*
X1787Y585D01*
Y609D01*
X1787Y610D01*
X1794Y620D01*
X1796Y631D01*
Y1194D01*
X2075Y1472D01*
X2086Y1468D01*
X2108Y1465D01*
X2130Y1468D01*
X2150Y1476D01*
X2168Y1490D01*
X2181Y1507D01*
X2190Y1528D01*
X2193Y1549D01*
X2190Y1571D01*
X2181Y1592D01*
X2168Y1609D01*
X2150Y1623D01*
X2133Y1630D01*
X2128Y1639D01*
X2127Y1644D01*
X2128Y1645D01*
X2198D01*
X2293Y1550D01*
X2303Y1544D01*
X2315Y1541D01*
X2393D01*
X2405Y1544D01*
X2415Y1550D01*
X2457Y1592D01*
X2470D01*
X2477Y1580D01*
X2470Y1571D01*
X2461Y1550D01*
X2458Y1528D01*
X2461Y1506D01*
X2470Y1485D01*
X2465Y1474D01*
X2464Y1472D01*
X2462Y1471D01*
X2461Y1471D01*
X2461Y1470D01*
X2459Y1467D01*
X2457Y1464D01*
X2457Y1464D01*
X2457Y1463D01*
X2456Y1460D01*
X2456Y1456D01*
X2456Y889D01*
X2456Y313D01*
X2354Y212D01*
X2342Y217D01*
Y1319D01*
X2352Y1328D01*
X2354Y1328D01*
X2376Y1330D01*
X2397Y1339D01*
X2415Y1353D01*
X2429Y1371D01*
X2437Y1391D01*
X2440Y1414D01*
X2437Y1436D01*
X2429Y1457D01*
X2415Y1474D01*
X2397Y1488D01*
X2376Y1497D01*
X2354Y1500D01*
X2332Y1497D01*
X2311Y1488D01*
X2293Y1474D01*
X2279Y1457D01*
X2271Y1436D01*
X2268Y1414D01*
X2271Y1391D01*
X2279Y1371D01*
X2280Y1369D01*
Y128D01*
X2269Y118D01*
X2265Y117D01*
X2261Y116D01*
X2254Y112D01*
X2125Y-17D01*
X1357Y-17D01*
X1349Y-19D01*
X1343Y-23D01*
X1338Y-30D01*
X1335Y-38D01*
X1323Y-53D01*
X1308Y-65D01*
X1289Y-73D01*
X1270Y-75D01*
X1251Y-73D01*
X1232Y-65D01*
X1217Y-53D01*
X1205Y-38D01*
X1202Y-30D01*
X1197Y-23D01*
X1191Y-19D01*
X1183Y-17D01*
X1034Y-17D01*
Y152D01*
X1105Y223D01*
X1180D01*
X1187Y206D01*
X1202Y186D01*
X1222Y171D01*
X1245Y161D01*
X1270Y158D01*
X1295Y161D01*
X1318Y171D01*
X1338Y186D01*
X1353Y206D01*
X1363Y229D01*
X1366Y254D01*
X1363Y279D01*
X1353Y302D01*
X1338Y322D01*
X1318Y337D01*
X1295Y347D01*
X1270Y350D01*
X1245Y347D01*
X1222Y337D01*
X1202Y322D01*
X1187Y302D01*
X1180Y285D01*
X1092D01*
X1080Y283D01*
X1070Y276D01*
X981Y187D01*
X975Y177D01*
X972Y165D01*
Y-1277D01*
X969Y-1277D01*
X948Y-1286D01*
X931Y-1299D01*
X917Y-1317D01*
X909Y-1337D01*
X906Y-1359D01*
X909Y-1381D01*
X917Y-1401D01*
X931Y-1419D01*
X948Y-1432D01*
X969Y-1441D01*
X991Y-1443D01*
X1012Y-1441D01*
X1033Y-1432D01*
X1050Y-1419D01*
X1064Y-1401D01*
X1072Y-1381D01*
X1075Y-1359D01*
X1072Y-1337D01*
X1064Y-1317D01*
X1050Y-1299D01*
X1034Y-1287D01*
Y-1138D01*
X3258Y-1138D01*
X3267Y-1147D01*
X3263Y-2504D01*
X3263Y-2504D01*
X3263Y-2504D01*
X3262Y-3384D01*
X3051D01*
X3051Y-3384D01*
X3051Y-3384D01*
X3046Y-3385D01*
X3041Y-3386D01*
X3041Y-3386D01*
X3041Y-3386D01*
X3036Y-3389D01*
X3032Y-3392D01*
X3032Y-3392D01*
X3032Y-3392D01*
X3029Y-3396D01*
X3026Y-3401D01*
X3026Y-3401D01*
X3026Y-3401D01*
X3025Y-3406D01*
X3024Y-3411D01*
X3024Y-3411D01*
X3024Y-3411D01*
X3024Y-3436D01*
X3015Y-3445D01*
X2756D01*
X2566Y-3312D01*
X2566Y-3311D01*
X2565Y-3311D01*
X2362Y-3181D01*
X2362Y-3181D01*
X2361Y-3181D01*
X2153Y-3060D01*
X2152Y-3060D01*
X2152Y-3060D01*
X1939Y-2948D01*
X1938Y-2948D01*
X1938Y-2948D01*
X1720Y-2846D01*
X1719Y-2846D01*
X1719Y-2845D01*
X1496Y-2753D01*
X1496Y-2753D01*
X1495Y-2753D01*
X1269Y-2670D01*
X1269Y-2670D01*
X1268Y-2670D01*
X1039Y-2597D01*
X1038Y-2597D01*
X1037Y-2597D01*
X805Y-2534D01*
X804Y-2534D01*
X804Y-2534D01*
X569Y-2482D01*
X568Y-2482D01*
X568Y-2482D01*
X331Y-2440D01*
X330Y-2440D01*
X330Y-2440D01*
X91Y-2408D01*
X91Y-2408D01*
X90Y-2408D01*
X-150Y-2387D01*
X-150Y-2387D01*
X-151Y-2387D01*
X-391Y-2376D01*
X-392Y-2376D01*
X-393Y-2376D01*
X-633D01*
X-634Y-2376D01*
X-634Y-2376D01*
X-875Y-2387D01*
X-875Y-2387D01*
X-876Y-2387D01*
X-1116Y-2408D01*
X-1116Y-2408D01*
X-1117Y-2408D01*
X-1355Y-2440D01*
X-1356Y-2440D01*
X-1357Y-2440D01*
X-1594Y-2482D01*
X-1594Y-2482D01*
X-1595Y-2482D01*
X-1830Y-2534D01*
X-1830Y-2534D01*
X-1831Y-2534D01*
X-2063Y-2597D01*
X-2064Y-2597D01*
X-2064Y-2597D01*
X-2294Y-2670D01*
X-2294Y-2670D01*
X-2295Y-2670D01*
X-2521Y-2753D01*
X-2522Y-2753D01*
X-2522Y-2753D01*
X-2744Y-2845D01*
X-2745Y-2846D01*
X-2745Y-2846D01*
X-2963Y-2948D01*
X-2964Y-2948D01*
X-2964Y-2948D01*
X-3178Y-3060D01*
X-3178Y-3060D01*
X-3179Y-3060D01*
X-3387Y-3181D01*
X-3388Y-3181D01*
X-3388Y-3181D01*
X-3591Y-3311D01*
X-3591Y-3311D01*
X-3592Y-3312D01*
X-3782Y-3445D01*
X-4041D01*
X-4050Y-3436D01*
X-4050Y-3411D01*
X-4050Y-3411D01*
X-4050Y-3411D01*
X-4051Y-3406D01*
X-4052Y-3401D01*
X-4052Y-3401D01*
X-4052Y-3401D01*
X-4055Y-3396D01*
X-4058Y-3392D01*
X-4058Y-3392D01*
X-4058Y-3392D01*
X-4062Y-3389D01*
X-4066Y-3386D01*
X-4066Y-3386D01*
X-4066Y-3386D01*
X-4071Y-3385D01*
X-4077Y-3384D01*
X-4077Y-3384D01*
X-4077Y-3384D01*
X-4288D01*
X-4288Y-2504D01*
X-4288Y-2504D01*
X-4288Y-2504D01*
X-4296Y-178D01*
X-4304Y2146D01*
X-4295Y4626D01*
X-4085D01*
X-4080Y4627D01*
X-4075Y4628D01*
X-4075Y4628D01*
X-4075Y4628D01*
X-4070Y4631D01*
X-4066Y4634D01*
X-4066Y4634D01*
X-4066Y4634D01*
X-4063Y4638D01*
X-4060Y4642D01*
X-4060Y4642D01*
X-4060Y4642D01*
X-4059Y4648D01*
X-4058Y4653D01*
X-4058Y4687D01*
X-3782D01*
X-3585Y4549D01*
X-3584Y4548D01*
X-3584Y4548D01*
X-3373Y4414D01*
X-3373Y4414D01*
X-3372Y4414D01*
X-3156Y4289D01*
X-3156Y4289D01*
X-3155Y4289D01*
X-2933Y4175D01*
X-2933Y4175D01*
X-2932Y4174D01*
X-2706Y4070D01*
X-2705Y4070D01*
X-2705Y4070D01*
X-2474Y3976D01*
X-2473Y3976D01*
X-2473Y3976D01*
X-2238Y3893D01*
X-2237Y3893D01*
X-2236Y3892D01*
X-1998Y3820D01*
X-1997Y3820D01*
X-1997Y3820D01*
X-1755Y3758D01*
X-1755Y3758D01*
X-1754Y3758D01*
X-1510Y3707D01*
X-1509Y3707D01*
X-1509Y3707D01*
X-1263Y3668D01*
X-1262Y3668D01*
X-1261Y3668D01*
X-1014Y3639D01*
X-1013Y3640D01*
X-1013Y3639D01*
X-764Y3622D01*
X-763Y3623D01*
X-763Y3622D01*
X-514Y3617D01*
X-513Y3617D01*
X-512Y3617D01*
X-263Y3622D01*
X-263Y3623D01*
X-262Y3622D01*
X-13Y3639D01*
X-13Y3640D01*
X-12Y3639D01*
X236Y3668D01*
X236Y3668D01*
X237Y3668D01*
X483Y3707D01*
X484Y3707D01*
X484Y3707D01*
X728Y3758D01*
X729Y3758D01*
X729Y3758D01*
X971Y3820D01*
X972Y3820D01*
X972Y3820D01*
X1211Y3892D01*
X1211Y3893D01*
X1212Y3893D01*
X1447Y3976D01*
X1447Y3976D01*
X1448Y3976D01*
X1679Y4070D01*
X1679Y4070D01*
X1680Y4070D01*
X1907Y4174D01*
X1907Y4175D01*
X1908Y4175D01*
X2129Y4289D01*
X2130Y4289D01*
X2130Y4289D01*
X2347Y4414D01*
X2347Y4414D01*
X2348Y4414D01*
X2558Y4548D01*
X2558Y4548D01*
X2559Y4549D01*
X2756Y4687D01*
X3032D01*
X3032Y4653D01*
D02*
G37*
G36*
X3267Y1575D02*
X3276Y1566D01*
X3270Y-178D01*
X3267Y-1118D01*
X1034Y-1118D01*
Y-38D01*
X1183Y-38D01*
X1187Y-48D01*
X1202Y-68D01*
X1222Y-83D01*
X1245Y-93D01*
X1270Y-96D01*
X1295Y-93D01*
X1318Y-83D01*
X1338Y-68D01*
X1353Y-48D01*
X1357Y-38D01*
X2134Y-38D01*
X2269Y97D01*
X2280Y92D01*
Y-24D01*
X2269Y-28D01*
X2252Y-42D01*
X2238Y-59D01*
X2230Y-80D01*
X2227Y-102D01*
X2230Y-123D01*
X2238Y-144D01*
X2252Y-161D01*
X2269Y-175D01*
X2290Y-183D01*
X2311Y-186D01*
X2333Y-183D01*
X2342Y-180D01*
X2650Y-488D01*
X2648Y-495D01*
X2645Y-517D01*
X2648Y-539D01*
X2656Y-559D01*
X2669Y-577D01*
X2687Y-590D01*
X2707Y-599D01*
X2729Y-601D01*
X2751Y-599D01*
X2772Y-590D01*
X2789Y-577D01*
X2802Y-559D01*
X2811Y-539D01*
X2814Y-517D01*
X2811Y-495D01*
X2802Y-475D01*
X2789Y-457D01*
X2772Y-444D01*
X2751Y-435D01*
X2729Y-432D01*
X2707Y-435D01*
X2697Y-440D01*
X2389Y-132D01*
X2393Y-123D01*
X2396Y-102D01*
X2393Y-80D01*
X2385Y-59D01*
X2371Y-42D01*
X2354Y-28D01*
X2342Y-24D01*
Y171D01*
X2476Y305D01*
X2476Y889D01*
X2477Y1456D01*
X2489Y1463D01*
X2501Y1453D01*
X2522Y1445D01*
X2544Y1442D01*
X2567Y1445D01*
X2587Y1453D01*
X2605Y1467D01*
X2619Y1485D01*
X2628Y1506D01*
X2630Y1528D01*
X2628Y1550D01*
X2625Y1556D01*
X2633Y1568D01*
X2642Y1569D01*
X2674Y1537D01*
X2684Y1530D01*
X2696Y1528D01*
X2839D01*
X2842Y1506D01*
X2851Y1485D01*
X2864Y1467D01*
X2882Y1453D01*
X2903Y1445D01*
X2925Y1442D01*
X2947Y1445D01*
X2968Y1453D01*
X2986Y1467D01*
X3000Y1485D01*
X3008Y1506D01*
X3011Y1528D01*
X3008Y1550D01*
X3003Y1562D01*
X3012Y1575D01*
X3267Y1575D01*
D02*
G37*
%LPC*%
G36*
X-3663Y233D02*
X-3698Y228D01*
X-3731Y214D01*
X-3760Y193D01*
X-3781Y164D01*
X-3795Y131D01*
X-3800Y96D01*
X-3795Y61D01*
X-3781Y28D01*
X-3760Y-1D01*
X-3731Y-23D01*
X-3698Y-36D01*
X-3663Y-41D01*
X-3628Y-36D01*
X-3595Y-23D01*
X-3566Y-1D01*
X-3544Y28D01*
X-3531Y61D01*
X-3526Y96D01*
X-3531Y131D01*
X-3544Y164D01*
X-3566Y193D01*
X-3595Y214D01*
X-3628Y228D01*
X-3663Y233D01*
D02*
G37*
G36*
X2637D02*
X2602Y228D01*
X2569Y214D01*
X2540Y193D01*
X2519Y164D01*
X2505Y131D01*
X2500Y96D01*
X2505Y61D01*
X2519Y28D01*
X2540Y-1D01*
X2569Y-23D01*
X2602Y-36D01*
X2637Y-41D01*
X2672Y-36D01*
X2705Y-23D01*
X2734Y-1D01*
X2756Y28D01*
X2769Y61D01*
X2774Y96D01*
X2769Y131D01*
X2756Y164D01*
X2734Y193D01*
X2705Y214D01*
X2672Y228D01*
X2637Y233D01*
D02*
G37*
G36*
X-2032Y3361D02*
X-2054Y3358D01*
X-2074Y3350D01*
X-2092Y3336D01*
X-2105Y3319D01*
X-2114Y3298D01*
X-2117Y3277D01*
X-2114Y3255D01*
X-2105Y3234D01*
X-2092Y3217D01*
X-2074Y3203D01*
X-2054Y3195D01*
X-2053Y3195D01*
Y1467D01*
X-2066Y1457D01*
X-2080Y1439D01*
X-2088Y1419D01*
X-2091Y1397D01*
X-2088Y1375D01*
X-2080Y1355D01*
X-2066Y1337D01*
X-2053Y1327D01*
Y896D01*
X-2066Y885D01*
X-2080Y868D01*
X-2088Y847D01*
X-2091Y826D01*
X-2088Y804D01*
X-2080Y783D01*
X-2066Y766D01*
X-2053Y755D01*
Y636D01*
X-2053Y636D01*
X-2053Y636D01*
Y193D01*
X-2066Y189D01*
X-2074Y199D01*
X-2091Y213D01*
X-2103Y218D01*
Y356D01*
X-2105Y367D01*
X-2112Y377D01*
X-2200Y466D01*
X-2193Y483D01*
X-2190Y508D01*
X-2193Y533D01*
X-2203Y556D01*
X-2218Y576D01*
X-2238Y591D01*
X-2261Y601D01*
X-2286Y604D01*
X-2311Y601D01*
X-2334Y591D01*
X-2354Y576D01*
X-2369Y556D01*
X-2379Y533D01*
X-2382Y508D01*
X-2379Y483D01*
X-2369Y460D01*
X-2354Y440D01*
X-2334Y425D01*
X-2311Y415D01*
X-2286Y412D01*
X-2261Y415D01*
X-2244Y422D01*
X-2165Y343D01*
Y218D01*
X-2176Y213D01*
X-2191Y201D01*
X-2202Y209D01*
X-2193Y229D01*
X-2190Y254D01*
X-2193Y279D01*
X-2203Y302D01*
X-2218Y322D01*
X-2238Y337D01*
X-2261Y347D01*
X-2286Y350D01*
X-2311Y347D01*
X-2334Y337D01*
X-2354Y322D01*
X-2369Y302D01*
X-2379Y279D01*
X-2382Y254D01*
X-2379Y229D01*
X-2369Y206D01*
X-2354Y186D01*
X-2334Y171D01*
X-2311Y161D01*
X-2286Y158D01*
X-2261Y161D01*
X-2238Y171D01*
X-2229Y178D01*
X-2212Y175D01*
X-2210Y173D01*
X-2215Y162D01*
X-2218Y140D01*
X-2215Y118D01*
X-2207Y97D01*
X-2193Y80D01*
X-2176Y66D01*
X-2155Y58D01*
X-2134Y55D01*
X-2112Y58D01*
X-2091Y66D01*
X-2074Y80D01*
X-2066Y91D01*
X-2053Y86D01*
Y-44D01*
X-2066Y-55D01*
X-2080Y-72D01*
X-2088Y-92D01*
X-2091Y-114D01*
X-2088Y-136D01*
X-2080Y-157D01*
X-2066Y-174D01*
X-2053Y-184D01*
Y-1105D01*
Y-1136D01*
X-2066Y-1147D01*
X-2080Y-1164D01*
X-2088Y-1185D01*
X-2091Y-1206D01*
X-2088Y-1228D01*
X-2080Y-1249D01*
X-2066Y-1266D01*
X-2049Y-1280D01*
X-2028Y-1288D01*
X-2007Y-1291D01*
X-1985Y-1288D01*
X-1964Y-1280D01*
X-1947Y-1266D01*
X-1933Y-1249D01*
X-1925Y-1228D01*
X-1922Y-1206D01*
X-1925Y-1185D01*
X-1933Y-1164D01*
X-1947Y-1147D01*
X-1960Y-1136D01*
Y-1105D01*
Y-561D01*
X-1948Y-557D01*
X-1939Y-568D01*
X-1922Y-581D01*
X-1914Y-585D01*
X-1912Y-599D01*
X-1914Y-601D01*
X-1927Y-618D01*
X-1936Y-639D01*
X-1939Y-660D01*
X-1936Y-682D01*
X-1927Y-703D01*
X-1914Y-720D01*
X-1896Y-734D01*
X-1876Y-742D01*
X-1872Y-743D01*
Y-951D01*
X-1884Y-955D01*
X-1901Y-969D01*
X-1915Y-986D01*
X-1923Y-1007D01*
X-1926Y-1029D01*
X-1923Y-1051D01*
X-1915Y-1071D01*
X-1901Y-1088D01*
X-1884Y-1102D01*
X-1863Y-1110D01*
X-1842Y-1113D01*
X-1820Y-1110D01*
X-1799Y-1102D01*
X-1782Y-1088D01*
X-1768Y-1071D01*
X-1760Y-1051D01*
X-1757Y-1029D01*
X-1760Y-1007D01*
X-1768Y-986D01*
X-1782Y-969D01*
X-1799Y-955D01*
X-1811Y-951D01*
Y-733D01*
X-1794Y-720D01*
X-1781Y-703D01*
X-1773Y-682D01*
X-1770Y-660D01*
X-1773Y-639D01*
X-1781Y-618D01*
X-1794Y-601D01*
X-1812Y-587D01*
X-1820Y-584D01*
X-1822Y-569D01*
X-1820Y-568D01*
X-1806Y-550D01*
X-1798Y-530D01*
X-1795Y-508D01*
X-1798Y-486D01*
X-1806Y-466D01*
X-1820Y-448D01*
X-1837Y-435D01*
X-1849Y-430D01*
Y-109D01*
X-1849Y-107D01*
X-1838Y-96D01*
X-1829Y-97D01*
X-1807Y-94D01*
X-1787Y-86D01*
X-1769Y-72D01*
X-1756Y-55D01*
X-1747Y-35D01*
X-1744Y-13D01*
X-1747Y9D01*
X-1756Y30D01*
X-1769Y47D01*
X-1772Y50D01*
Y105D01*
X-1760Y106D01*
X-1758Y92D01*
X-1750Y72D01*
X-1736Y55D01*
X-1719Y41D01*
X-1698Y33D01*
X-1682Y30D01*
Y-684D01*
X-1693Y-689D01*
X-1711Y-702D01*
X-1724Y-720D01*
X-1733Y-740D01*
X-1736Y-762D01*
X-1733Y-784D01*
X-1724Y-804D01*
X-1711Y-822D01*
X-1693Y-835D01*
X-1673Y-844D01*
X-1651Y-847D01*
X-1629Y-844D01*
X-1609Y-835D01*
X-1591Y-822D01*
X-1578Y-804D01*
X-1569Y-784D01*
X-1566Y-762D01*
X-1569Y-740D01*
X-1578Y-720D01*
X-1591Y-702D01*
X-1609Y-689D01*
X-1620Y-684D01*
Y52D01*
X-1617Y55D01*
X-1603Y72D01*
X-1595Y92D01*
X-1592Y114D01*
X-1595Y136D01*
X-1603Y157D01*
X-1617Y174D01*
X-1634Y188D01*
X-1655Y196D01*
X-1676Y199D01*
X-1698Y196D01*
X-1719Y188D01*
X-1736Y174D01*
X-1750Y157D01*
X-1758Y136D01*
X-1760Y123D01*
X-1772Y124D01*
Y900D01*
X-1761Y905D01*
X-1744Y918D01*
X-1730Y936D01*
X-1722Y956D01*
X-1719Y978D01*
X-1722Y1000D01*
X-1730Y1020D01*
X-1744Y1038D01*
X-1761Y1051D01*
X-1782Y1060D01*
X-1803Y1062D01*
X-1823Y1060D01*
X-1830Y1062D01*
X-1836Y1067D01*
Y1560D01*
X-1825Y1565D01*
X-1807Y1579D01*
X-1794Y1596D01*
X-1785Y1616D01*
X-1782Y1638D01*
X-1785Y1660D01*
X-1794Y1681D01*
X-1807Y1698D01*
X-1825Y1712D01*
X-1845Y1720D01*
X-1867Y1723D01*
X-1889Y1720D01*
X-1909Y1712D01*
X-1927Y1698D01*
X-1940Y1681D01*
X-1949Y1660D01*
X-1960Y1663D01*
Y3232D01*
X-1959Y3234D01*
X-1950Y3255D01*
X-1947Y3277D01*
X-1950Y3298D01*
X-1959Y3319D01*
X-1972Y3336D01*
X-1990Y3350D01*
X-2010Y3358D01*
X-2032Y3361D01*
D02*
G37*
G36*
X-2286Y-158D02*
X-2311Y-161D01*
X-2334Y-171D01*
X-2354Y-186D01*
X-2369Y-206D01*
X-2379Y-229D01*
X-2382Y-254D01*
X-2379Y-279D01*
X-2369Y-302D01*
X-2354Y-322D01*
X-2334Y-337D01*
X-2311Y-347D01*
X-2286Y-350D01*
X-2261Y-347D01*
X-2238Y-337D01*
X-2218Y-322D01*
X-2203Y-302D01*
X-2193Y-279D01*
X-2190Y-254D01*
X-2193Y-229D01*
X-2203Y-206D01*
X-2218Y-186D01*
X-2238Y-171D01*
X-2261Y-161D01*
X-2286Y-158D01*
D02*
G37*
G36*
X1270D02*
X1245Y-161D01*
X1222Y-171D01*
X1202Y-186D01*
X1187Y-206D01*
X1177Y-229D01*
X1174Y-254D01*
X1177Y-279D01*
X1187Y-302D01*
X1202Y-322D01*
X1222Y-337D01*
X1245Y-347D01*
X1270Y-350D01*
X1295Y-347D01*
X1318Y-337D01*
X1338Y-322D01*
X1353Y-302D01*
X1363Y-279D01*
X1366Y-254D01*
X1363Y-229D01*
X1353Y-206D01*
X1338Y-186D01*
X1318Y-171D01*
X1295Y-161D01*
X1270Y-158D01*
D02*
G37*
G36*
X-2464Y466D02*
X-2486Y463D01*
X-2506Y454D01*
X-2524Y441D01*
X-2537Y423D01*
X-2545Y403D01*
X-2548Y381D01*
X-2545Y359D01*
X-2537Y339D01*
X-2524Y321D01*
X-2506Y308D01*
X-2495Y303D01*
Y178D01*
X-2492Y166D01*
X-2486Y156D01*
X-2372Y42D01*
X-2379Y25D01*
X-2382Y0D01*
X-2379Y-25D01*
X-2369Y-48D01*
X-2354Y-68D01*
X-2334Y-83D01*
X-2311Y-93D01*
X-2286Y-96D01*
X-2261Y-93D01*
X-2238Y-83D01*
X-2218Y-68D01*
X-2203Y-48D01*
X-2193Y-25D01*
X-2190Y0D01*
X-2193Y25D01*
X-2203Y48D01*
X-2218Y68D01*
X-2238Y83D01*
X-2261Y93D01*
X-2286Y96D01*
X-2311Y93D01*
X-2328Y86D01*
X-2433Y191D01*
Y303D01*
X-2422Y308D01*
X-2404Y321D01*
X-2391Y339D01*
X-2382Y359D01*
X-2379Y381D01*
X-2382Y403D01*
X-2391Y423D01*
X-2404Y441D01*
X-2422Y454D01*
X-2442Y463D01*
X-2464Y466D01*
D02*
G37*
G36*
X2640Y914D02*
X2611Y911D01*
X2583Y903D01*
X2557Y889D01*
X2535Y871D01*
X2517Y848D01*
X2503Y823D01*
X2494Y795D01*
X2492Y766D01*
X2494Y737D01*
X2503Y709D01*
X2517Y684D01*
X2535Y661D01*
X2557Y643D01*
X2583Y629D01*
X2611Y621D01*
X2640Y618D01*
X2668Y621D01*
X2696Y629D01*
X2722Y643D01*
X2744Y661D01*
X2763Y684D01*
X2776Y709D01*
X2785Y737D01*
X2788Y766D01*
X2785Y795D01*
X2776Y823D01*
X2763Y848D01*
X2744Y871D01*
X2722Y889D01*
X2696Y903D01*
X2668Y911D01*
X2640Y914D01*
D02*
G37*
G36*
X-2286Y1112D02*
X-2311Y1109D01*
X-2334Y1099D01*
X-2354Y1084D01*
X-2369Y1064D01*
X-2379Y1041D01*
X-2382Y1016D01*
X-2379Y991D01*
X-2369Y968D01*
X-2354Y948D01*
X-2334Y933D01*
X-2311Y923D01*
X-2286Y920D01*
X-2261Y923D01*
X-2238Y933D01*
X-2218Y948D01*
X-2203Y968D01*
X-2193Y991D01*
X-2190Y1016D01*
X-2193Y1041D01*
X-2203Y1064D01*
X-2218Y1084D01*
X-2238Y1099D01*
X-2261Y1109D01*
X-2286Y1112D01*
D02*
G37*
G36*
X1270D02*
X1245Y1109D01*
X1222Y1099D01*
X1202Y1084D01*
X1187Y1064D01*
X1177Y1041D01*
X1174Y1016D01*
X1177Y991D01*
X1187Y968D01*
X1202Y948D01*
X1222Y933D01*
X1245Y923D01*
X1270Y920D01*
X1295Y923D01*
X1318Y933D01*
X1338Y948D01*
X1353Y968D01*
X1363Y991D01*
X1366Y1016D01*
X1363Y1041D01*
X1353Y1064D01*
X1338Y1084D01*
X1318Y1099D01*
X1295Y1109D01*
X1270Y1112D01*
D02*
G37*
G36*
X-1575Y2358D02*
X-1597Y2355D01*
X-1617Y2347D01*
X-1635Y2333D01*
X-1648Y2316D01*
X-1656Y2295D01*
X-1659Y2273D01*
X-1656Y2251D01*
X-1648Y2231D01*
X-1635Y2214D01*
X-1617Y2200D01*
X-1606Y2195D01*
Y1183D01*
X-1617Y1178D01*
X-1635Y1165D01*
X-1648Y1147D01*
X-1656Y1127D01*
X-1659Y1105D01*
X-1656Y1083D01*
X-1648Y1063D01*
X-1635Y1045D01*
X-1617Y1032D01*
X-1597Y1023D01*
X-1575Y1020D01*
X-1553Y1023D01*
X-1533Y1032D01*
X-1515Y1045D01*
X-1502Y1063D01*
X-1493Y1083D01*
X-1490Y1105D01*
X-1493Y1127D01*
X-1502Y1147D01*
X-1515Y1165D01*
X-1533Y1178D01*
X-1544Y1183D01*
Y2195D01*
X-1533Y2200D01*
X-1515Y2214D01*
X-1502Y2231D01*
X-1493Y2251D01*
X-1490Y2273D01*
X-1493Y2295D01*
X-1502Y2316D01*
X-1515Y2333D01*
X-1533Y2347D01*
X-1553Y2355D01*
X-1575Y2358D01*
D02*
G37*
G36*
X-1727Y1939D02*
X-1749Y1936D01*
X-1769Y1927D01*
X-1787Y1914D01*
X-1800Y1896D01*
X-1809Y1876D01*
X-1812Y1854D01*
X-1809Y1832D01*
X-1800Y1812D01*
X-1787Y1794D01*
X-1769Y1781D01*
X-1758Y1776D01*
Y1310D01*
X-1769Y1305D01*
X-1787Y1292D01*
X-1800Y1274D01*
X-1809Y1254D01*
X-1812Y1232D01*
X-1809Y1210D01*
X-1800Y1190D01*
X-1787Y1172D01*
X-1769Y1159D01*
X-1749Y1150D01*
X-1727Y1147D01*
X-1705Y1150D01*
X-1685Y1159D01*
X-1667Y1172D01*
X-1654Y1190D01*
X-1646Y1210D01*
X-1643Y1232D01*
X-1646Y1254D01*
X-1654Y1274D01*
X-1667Y1292D01*
X-1685Y1305D01*
X-1696Y1310D01*
Y1776D01*
X-1685Y1781D01*
X-1667Y1794D01*
X-1654Y1812D01*
X-1646Y1832D01*
X-1643Y1854D01*
X-1646Y1876D01*
X-1654Y1896D01*
X-1667Y1914D01*
X-1685Y1927D01*
X-1705Y1936D01*
X-1727Y1939D01*
D02*
G37*
G36*
X-2286Y858D02*
X-2311Y855D01*
X-2334Y845D01*
X-2354Y830D01*
X-2369Y810D01*
X-2379Y787D01*
X-2382Y762D01*
X-2379Y737D01*
X-2369Y714D01*
X-2354Y694D01*
X-2334Y679D01*
X-2311Y669D01*
X-2286Y666D01*
X-2261Y669D01*
X-2238Y679D01*
X-2218Y694D01*
X-2203Y714D01*
X-2193Y737D01*
X-2190Y762D01*
X-2193Y787D01*
X-2203Y810D01*
X-2218Y830D01*
X-2238Y845D01*
X-2261Y855D01*
X-2286Y858D01*
D02*
G37*
G36*
X1067Y1367D02*
X1045Y1364D01*
X1025Y1356D01*
X1007Y1342D01*
X994Y1325D01*
X985Y1305D01*
X982Y1283D01*
X985Y1261D01*
X994Y1240D01*
X1007Y1223D01*
X1025Y1209D01*
X1036Y1205D01*
Y971D01*
X1035Y969D01*
X1032Y957D01*
X1035Y946D01*
X1036Y944D01*
Y914D01*
X1038Y903D01*
X1045Y893D01*
X1174Y763D01*
X1174Y762D01*
X1177Y737D01*
X1187Y714D01*
X1202Y694D01*
X1222Y679D01*
X1245Y669D01*
X1270Y666D01*
X1295Y669D01*
X1318Y679D01*
X1338Y694D01*
X1353Y714D01*
X1363Y737D01*
X1366Y762D01*
X1363Y787D01*
X1353Y810D01*
X1338Y830D01*
X1318Y845D01*
X1295Y855D01*
X1270Y858D01*
X1245Y855D01*
X1222Y845D01*
X1202Y830D01*
X1195Y830D01*
X1098Y927D01*
Y1205D01*
X1109Y1209D01*
X1127Y1223D01*
X1140Y1240D01*
X1148Y1261D01*
X1151Y1283D01*
X1148Y1305D01*
X1140Y1325D01*
X1127Y1342D01*
X1109Y1356D01*
X1089Y1364D01*
X1067Y1367D01*
D02*
G37*
G36*
X2445Y-1733D02*
X2254D01*
Y-1924D01*
X2445D01*
Y-1733D01*
D02*
G37*
G36*
X-2863Y-1458D02*
X-2896Y-1461D01*
X-2928Y-1471D01*
X-2958Y-1487D01*
X-2984Y-1508D01*
X-3005Y-1534D01*
X-3021Y-1564D01*
X-3031Y-1596D01*
X-3034Y-1629D01*
X-3031Y-1662D01*
X-3021Y-1695D01*
X-3005Y-1724D01*
X-2984Y-1750D01*
X-2958Y-1771D01*
X-2928Y-1787D01*
X-2896Y-1797D01*
X-2863Y-1800D01*
X-2830Y-1797D01*
X-2797Y-1787D01*
X-2768Y-1771D01*
X-2742Y-1750D01*
X-2721Y-1724D01*
X-2705Y-1695D01*
X-2695Y-1662D01*
X-2692Y-1629D01*
X-2695Y-1596D01*
X-2705Y-1564D01*
X-2721Y-1534D01*
X-2742Y-1508D01*
X-2768Y-1487D01*
X-2797Y-1471D01*
X-2830Y-1461D01*
X-2863Y-1458D01*
D02*
G37*
G36*
X1837D02*
X1804Y-1461D01*
X1772Y-1471D01*
X1742Y-1487D01*
X1716Y-1508D01*
X1695Y-1534D01*
X1679Y-1564D01*
X1669Y-1596D01*
X1666Y-1629D01*
X1669Y-1662D01*
X1679Y-1695D01*
X1695Y-1724D01*
X1716Y-1750D01*
X1742Y-1771D01*
X1772Y-1787D01*
X1804Y-1797D01*
X1837Y-1800D01*
X1870Y-1797D01*
X1903Y-1787D01*
X1932Y-1771D01*
X1958Y-1750D01*
X1979Y-1724D01*
X1995Y-1695D01*
X2005Y-1662D01*
X2008Y-1629D01*
X2005Y-1596D01*
X1995Y-1564D01*
X1979Y-1534D01*
X1958Y-1508D01*
X1932Y-1487D01*
X1903Y-1471D01*
X1870Y-1461D01*
X1837Y-1458D01*
D02*
G37*
G36*
X2603Y-1733D02*
X2579Y-1736D01*
X2555Y-1746D01*
X2536Y-1761D01*
X2520Y-1781D01*
X2511Y-1804D01*
X2507Y-1829D01*
X2511Y-1854D01*
X2520Y-1877D01*
X2536Y-1897D01*
X2555Y-1912D01*
X2579Y-1922D01*
X2603Y-1925D01*
X2628Y-1922D01*
X2652Y-1912D01*
X2671Y-1897D01*
X2687Y-1877D01*
X2696Y-1854D01*
X2700Y-1829D01*
X2696Y-1804D01*
X2687Y-1781D01*
X2671Y-1761D01*
X2652Y-1746D01*
X2628Y-1736D01*
X2603Y-1733D01*
D02*
G37*
G36*
X406Y1113D02*
X385Y1110D01*
X364Y1102D01*
X347Y1088D01*
X333Y1071D01*
X325Y1051D01*
X322Y1029D01*
X325Y1007D01*
X333Y986D01*
X347Y969D01*
X360Y959D01*
Y-1835D01*
X347Y-1845D01*
X333Y-1863D01*
X325Y-1883D01*
X322Y-1905D01*
X325Y-1927D01*
X333Y-1947D01*
X347Y-1965D01*
X364Y-1978D01*
X385Y-1987D01*
X406Y-1990D01*
X428Y-1987D01*
X449Y-1978D01*
X466Y-1965D01*
X477Y-1951D01*
X490Y-1955D01*
Y-2119D01*
X478Y-2124D01*
X461Y-2137D01*
X447Y-2155D01*
X439Y-2175D01*
X436Y-2197D01*
X439Y-2219D01*
X447Y-2239D01*
X461Y-2257D01*
X478Y-2270D01*
X499Y-2279D01*
X521Y-2282D01*
X543Y-2279D01*
X563Y-2270D01*
X580Y-2257D01*
X594Y-2239D01*
X602Y-2219D01*
X605Y-2197D01*
X602Y-2175D01*
X594Y-2155D01*
X580Y-2137D01*
X563Y-2124D01*
X552Y-2119D01*
Y684D01*
X563Y689D01*
X580Y702D01*
X594Y720D01*
X602Y740D01*
X605Y762D01*
X602Y784D01*
X594Y804D01*
X580Y822D01*
X563Y835D01*
X543Y844D01*
X521Y847D01*
X499Y844D01*
X478Y835D01*
X465Y825D01*
X453Y831D01*
Y959D01*
X466Y969D01*
X480Y986D01*
X488Y1007D01*
X491Y1029D01*
X488Y1051D01*
X480Y1071D01*
X466Y1088D01*
X449Y1102D01*
X428Y1110D01*
X406Y1113D01*
D02*
G37*
G36*
X2603Y-2088D02*
X2579Y-2092D01*
X2555Y-2101D01*
X2536Y-2116D01*
X2520Y-2136D01*
X2511Y-2160D01*
X2507Y-2184D01*
X2511Y-2209D01*
X2520Y-2232D01*
X2536Y-2252D01*
X2555Y-2268D01*
X2579Y-2277D01*
X2603Y-2281D01*
X2628Y-2277D01*
X2652Y-2268D01*
X2671Y-2252D01*
X2687Y-2232D01*
X2696Y-2209D01*
X2700Y-2184D01*
X2696Y-2160D01*
X2687Y-2136D01*
X2671Y-2116D01*
X2652Y-2101D01*
X2628Y-2092D01*
X2603Y-2088D01*
D02*
G37*
G36*
X2445Y-2089D02*
X2254D01*
Y-2280D01*
X2445D01*
Y-2089D01*
D02*
G37*
G36*
X1270Y-666D02*
X1245Y-669D01*
X1222Y-679D01*
X1202Y-694D01*
X1187Y-714D01*
X1177Y-737D01*
X1174Y-762D01*
X1177Y-787D01*
X1187Y-810D01*
X1202Y-830D01*
X1222Y-845D01*
X1245Y-855D01*
X1270Y-858D01*
X1295Y-855D01*
X1318Y-845D01*
X1338Y-830D01*
X1353Y-810D01*
X1363Y-787D01*
X1366Y-762D01*
X1363Y-737D01*
X1353Y-714D01*
X1338Y-694D01*
X1318Y-679D01*
X1295Y-669D01*
X1270Y-666D01*
D02*
G37*
G36*
X-2286Y-412D02*
X-2311Y-415D01*
X-2334Y-425D01*
X-2354Y-440D01*
X-2369Y-460D01*
X-2376Y-477D01*
X-2413D01*
X-2425Y-479D01*
X-2435Y-486D01*
X-2672Y-723D01*
X-2683Y-718D01*
X-2705Y-716D01*
X-2727Y-718D01*
X-2747Y-727D01*
X-2765Y-740D01*
X-2778Y-758D01*
X-2787Y-778D01*
X-2790Y-800D01*
X-2787Y-822D01*
X-2778Y-842D01*
X-2765Y-860D01*
X-2747Y-873D01*
X-2727Y-882D01*
X-2705Y-885D01*
X-2683Y-882D01*
X-2663Y-873D01*
X-2645Y-860D01*
X-2632Y-842D01*
X-2623Y-822D01*
X-2621Y-800D01*
X-2623Y-778D01*
X-2628Y-767D01*
X-2400Y-539D01*
X-2376D01*
X-2369Y-556D01*
X-2354Y-576D01*
X-2334Y-591D01*
X-2311Y-601D01*
X-2286Y-604D01*
X-2261Y-601D01*
X-2238Y-591D01*
X-2218Y-576D01*
X-2203Y-556D01*
X-2193Y-533D01*
X-2190Y-508D01*
X-2193Y-483D01*
X-2203Y-460D01*
X-2218Y-440D01*
X-2238Y-425D01*
X-2261Y-415D01*
X-2286Y-412D01*
D02*
G37*
G36*
X1270D02*
X1245Y-415D01*
X1222Y-425D01*
X1202Y-440D01*
X1187Y-460D01*
X1177Y-483D01*
X1174Y-508D01*
X1177Y-533D01*
X1187Y-556D01*
X1202Y-576D01*
X1222Y-591D01*
X1245Y-601D01*
X1270Y-604D01*
X1295Y-601D01*
X1318Y-591D01*
X1338Y-576D01*
X1353Y-556D01*
X1363Y-533D01*
X1366Y-508D01*
X1363Y-483D01*
X1353Y-460D01*
X1338Y-440D01*
X1318Y-425D01*
X1295Y-415D01*
X1270Y-412D01*
D02*
G37*
G36*
X-2286Y-666D02*
X-2311Y-669D01*
X-2334Y-679D01*
X-2354Y-694D01*
X-2369Y-714D01*
X-2379Y-737D01*
X-2382Y-762D01*
X-2379Y-787D01*
X-2369Y-810D01*
X-2354Y-830D01*
X-2334Y-845D01*
X-2311Y-855D01*
X-2286Y-858D01*
X-2261Y-855D01*
X-2238Y-845D01*
X-2218Y-830D01*
X-2203Y-810D01*
X-2193Y-787D01*
X-2190Y-762D01*
X-2193Y-737D01*
X-2203Y-714D01*
X-2218Y-694D01*
X-2238Y-679D01*
X-2261Y-669D01*
X-2286Y-666D01*
D02*
G37*
G36*
X2603Y-1390D02*
X2579Y-1393D01*
X2555Y-1403D01*
X2536Y-1418D01*
X2520Y-1438D01*
X2511Y-1461D01*
X2507Y-1486D01*
X2511Y-1511D01*
X2520Y-1534D01*
X2536Y-1554D01*
X2555Y-1569D01*
X2579Y-1579D01*
X2603Y-1582D01*
X2628Y-1579D01*
X2652Y-1569D01*
X2671Y-1554D01*
X2687Y-1534D01*
X2696Y-1511D01*
X2700Y-1486D01*
X2696Y-1461D01*
X2687Y-1438D01*
X2671Y-1418D01*
X2652Y-1403D01*
X2628Y-1393D01*
X2603Y-1390D01*
D02*
G37*
G36*
X2445Y-1391D02*
X2254D01*
Y-1581D01*
X2445D01*
Y-1391D01*
D02*
G37*
G36*
X-2191Y-921D02*
X-2381D01*
Y-1111D01*
X-2191D01*
Y-921D01*
D02*
G37*
G36*
X2735Y2757D02*
X2713Y2754D01*
X2692Y2745D01*
X2674Y2732D01*
X2660Y2714D01*
X2652Y2693D01*
X2649Y2671D01*
X2652Y2649D01*
X2660Y2628D01*
X2674Y2610D01*
X2692Y2596D01*
X2713Y2588D01*
X2735Y2585D01*
X2757Y2588D01*
X2778Y2596D01*
X2796Y2610D01*
X2809Y2628D01*
X2818Y2649D01*
X2821Y2671D01*
X2818Y2693D01*
X2809Y2714D01*
X2796Y2732D01*
X2778Y2745D01*
X2757Y2754D01*
X2735Y2757D01*
D02*
G37*
G36*
X2354Y2770D02*
X2332Y2767D01*
X2311Y2758D01*
X2293Y2744D01*
X2279Y2727D01*
X2271Y2706D01*
X2268Y2684D01*
X2271Y2661D01*
X2279Y2641D01*
X2293Y2623D01*
X2311Y2609D01*
X2332Y2600D01*
X2354Y2598D01*
X2376Y2600D01*
X2397Y2609D01*
X2415Y2623D01*
X2429Y2641D01*
X2437Y2661D01*
X2440Y2684D01*
X2437Y2706D01*
X2429Y2727D01*
X2415Y2744D01*
X2397Y2758D01*
X2376Y2767D01*
X2354Y2770D01*
D02*
G37*
G36*
X-2863Y3042D02*
X-2896Y3039D01*
X-2928Y3029D01*
X-2958Y3013D01*
X-2984Y2992D01*
X-3005Y2966D01*
X-3021Y2936D01*
X-3031Y2904D01*
X-3034Y2871D01*
X-3031Y2838D01*
X-3021Y2805D01*
X-3005Y2776D01*
X-2984Y2750D01*
X-2958Y2729D01*
X-2928Y2713D01*
X-2896Y2703D01*
X-2863Y2700D01*
X-2830Y2703D01*
X-2797Y2713D01*
X-2768Y2729D01*
X-2742Y2750D01*
X-2721Y2776D01*
X-2705Y2805D01*
X-2695Y2838D01*
X-2692Y2871D01*
X-2695Y2904D01*
X-2705Y2936D01*
X-2721Y2966D01*
X-2742Y2992D01*
X-2768Y3013D01*
X-2797Y3029D01*
X-2830Y3039D01*
X-2863Y3042D01*
D02*
G37*
G36*
X2925Y2630D02*
X2903Y2627D01*
X2882Y2618D01*
X2864Y2605D01*
X2851Y2587D01*
X2842Y2566D01*
X2839Y2544D01*
X2842Y2522D01*
X2851Y2501D01*
X2864Y2483D01*
X2882Y2469D01*
X2903Y2461D01*
X2925Y2458D01*
X2947Y2461D01*
X2968Y2469D01*
X2986Y2483D01*
X3000Y2501D01*
X3008Y2522D01*
X3011Y2544D01*
X3008Y2566D01*
X3000Y2587D01*
X2986Y2605D01*
X2968Y2618D01*
X2947Y2627D01*
X2925Y2630D01*
D02*
G37*
G36*
X1270Y2636D02*
X1245Y2633D01*
X1222Y2623D01*
X1202Y2608D01*
X1187Y2588D01*
X1177Y2565D01*
X1174Y2540D01*
Y2286D01*
X1177Y2261D01*
X1187Y2238D01*
X1189Y2235D01*
X1183Y2221D01*
X1181Y2221D01*
X1090Y2313D01*
X1080Y2319D01*
X1068Y2322D01*
X1057D01*
X1052Y2333D01*
X1039Y2351D01*
X1021Y2364D01*
X1001Y2373D01*
X979Y2375D01*
X957Y2373D01*
X937Y2364D01*
X919Y2351D01*
X906Y2333D01*
X898Y2313D01*
X895Y2291D01*
X898Y2269D01*
X906Y2249D01*
X919Y2231D01*
X937Y2218D01*
X957Y2209D01*
X979Y2206D01*
X1001Y2209D01*
X1021Y2218D01*
X1039Y2231D01*
X1051Y2246D01*
X1065Y2250D01*
X1156Y2159D01*
X1166Y2152D01*
X1178Y2150D01*
X2231D01*
X2243Y2152D01*
X2253Y2159D01*
X2258Y2164D01*
X2270Y2159D01*
X2271Y2153D01*
X2279Y2133D01*
X2293Y2115D01*
X2311Y2101D01*
X2332Y2092D01*
X2354Y2090D01*
X2376Y2092D01*
X2397Y2101D01*
X2415Y2115D01*
X2429Y2133D01*
X2437Y2153D01*
X2440Y2176D01*
X2437Y2198D01*
X2429Y2219D01*
X2415Y2236D01*
X2412Y2238D01*
X2413Y2254D01*
X2446Y2287D01*
X2459Y2283D01*
X2461Y2268D01*
X2470Y2247D01*
X2484Y2229D01*
X2501Y2215D01*
X2522Y2207D01*
X2544Y2204D01*
X2567Y2207D01*
X2587Y2215D01*
X2605Y2229D01*
X2619Y2247D01*
X2628Y2268D01*
X2630Y2290D01*
X2628Y2312D01*
X2619Y2333D01*
X2605Y2351D01*
X2587Y2364D01*
X2567Y2373D01*
X2552Y2375D01*
X2547Y2388D01*
X2585Y2427D01*
X2592Y2437D01*
X2595Y2449D01*
Y2475D01*
X2605Y2483D01*
X2619Y2501D01*
X2628Y2522D01*
X2630Y2544D01*
X2628Y2566D01*
X2619Y2587D01*
X2605Y2605D01*
X2587Y2618D01*
X2567Y2627D01*
X2544Y2630D01*
X2522Y2627D01*
X2501Y2618D01*
X2484Y2605D01*
X2470Y2587D01*
X2461Y2566D01*
X2458Y2544D01*
X2461Y2522D01*
X2470Y2501D01*
X2484Y2483D01*
X2501Y2469D01*
X2516Y2463D01*
X2520Y2449D01*
X2373Y2302D01*
X2315D01*
X2303Y2299D01*
X2293Y2293D01*
X2237Y2237D01*
X2230Y2227D01*
X2229Y2222D01*
X2219Y2212D01*
X1349D01*
X1343Y2224D01*
X1353Y2238D01*
X1363Y2261D01*
X1366Y2286D01*
Y2540D01*
X1363Y2565D01*
X1353Y2588D01*
X1338Y2608D01*
X1318Y2623D01*
X1295Y2633D01*
X1270Y2636D01*
D02*
G37*
G36*
X2735Y2503D02*
X2713Y2500D01*
X2692Y2491D01*
X2674Y2478D01*
X2660Y2460D01*
X2652Y2439D01*
X2649Y2417D01*
X2652Y2395D01*
X2660Y2374D01*
X2674Y2356D01*
X2692Y2342D01*
X2713Y2334D01*
X2735Y2331D01*
X2757Y2334D01*
X2778Y2342D01*
X2796Y2356D01*
X2809Y2374D01*
X2818Y2395D01*
X2821Y2417D01*
X2818Y2439D01*
X2809Y2460D01*
X2796Y2478D01*
X2778Y2491D01*
X2757Y2500D01*
X2735Y2503D01*
D02*
G37*
G36*
X2354Y2516D02*
X2332Y2513D01*
X2311Y2504D01*
X2293Y2490D01*
X2279Y2473D01*
X2271Y2452D01*
X2268Y2430D01*
X2271Y2407D01*
X2279Y2387D01*
X2293Y2369D01*
X2311Y2355D01*
X2332Y2346D01*
X2354Y2344D01*
X2376Y2346D01*
X2397Y2355D01*
X2415Y2369D01*
X2429Y2387D01*
X2437Y2407D01*
X2440Y2430D01*
X2437Y2452D01*
X2429Y2473D01*
X2415Y2490D01*
X2397Y2504D01*
X2376Y2513D01*
X2354Y2516D01*
D02*
G37*
G36*
X-3238Y3196D02*
X-3260Y3193D01*
X-3281Y3185D01*
X-3298Y3171D01*
X-3312Y3154D01*
X-3320Y3133D01*
X-3323Y3111D01*
X-3320Y3090D01*
X-3312Y3069D01*
X-3298Y3052D01*
X-3281Y3038D01*
X-3269Y3034D01*
Y3009D01*
X-3282Y3005D01*
X-3293Y3019D01*
X-3311Y3032D01*
X-3331Y3041D01*
X-3353Y3044D01*
X-3375Y3041D01*
X-3395Y3032D01*
X-3413Y3019D01*
X-3426Y3001D01*
X-3434Y2981D01*
X-3437Y2959D01*
X-3434Y2937D01*
X-3426Y2917D01*
X-3413Y2899D01*
X-3395Y2886D01*
X-3375Y2877D01*
X-3353Y2875D01*
X-3346Y2868D01*
Y2357D01*
X-3362Y2355D01*
X-3382Y2347D01*
X-3400Y2333D01*
X-3413Y2316D01*
X-3422Y2295D01*
X-3425Y2273D01*
X-3422Y2251D01*
X-3413Y2231D01*
X-3400Y2214D01*
X-3382Y2200D01*
X-3362Y2192D01*
X-3340Y2189D01*
X-3318Y2192D01*
X-3298Y2200D01*
X-3282Y2212D01*
X-3269Y2209D01*
Y2146D01*
X-3267Y2134D01*
X-3260Y2124D01*
X-3214Y2078D01*
X-3219Y2067D01*
X-3221Y2045D01*
X-3219Y2023D01*
X-3210Y2002D01*
X-3197Y1985D01*
X-3179Y1971D01*
X-3159Y1963D01*
X-3137Y1960D01*
X-3115Y1963D01*
X-3095Y1971D01*
X-3077Y1985D01*
X-3064Y2002D01*
X-3055Y2023D01*
X-3052Y2045D01*
X-3055Y2067D01*
X-3064Y2087D01*
X-3077Y2104D01*
X-3095Y2118D01*
X-3115Y2126D01*
X-3137Y2129D01*
X-3159Y2126D01*
X-3170Y2122D01*
X-3208Y2159D01*
Y3034D01*
X-3196Y3038D01*
X-3179Y3052D01*
X-3165Y3069D01*
X-3157Y3090D01*
X-3154Y3111D01*
X-3157Y3133D01*
X-3165Y3154D01*
X-3179Y3171D01*
X-3196Y3185D01*
X-3217Y3193D01*
X-3238Y3196D01*
D02*
G37*
G36*
X-3663Y4345D02*
X-3692Y4342D01*
X-3720Y4333D01*
X-3746Y4320D01*
X-3768Y4301D01*
X-3787Y4279D01*
X-3800Y4253D01*
X-3809Y4225D01*
X-3812Y4196D01*
X-3809Y4167D01*
X-3800Y4139D01*
X-3787Y4113D01*
X-3768Y4091D01*
X-3746Y4072D01*
X-3720Y4058D01*
X-3692Y4050D01*
X-3663Y4047D01*
X-3634Y4050D01*
X-3606Y4058D01*
X-3580Y4072D01*
X-3558Y4091D01*
X-3539Y4113D01*
X-3525Y4139D01*
X-3517Y4167D01*
X-3514Y4196D01*
X-3517Y4225D01*
X-3525Y4253D01*
X-3539Y4279D01*
X-3558Y4301D01*
X-3580Y4320D01*
X-3606Y4333D01*
X-3634Y4342D01*
X-3663Y4345D01*
D02*
G37*
G36*
X2637D02*
X2608Y4342D01*
X2580Y4333D01*
X2554Y4320D01*
X2532Y4301D01*
X2513Y4279D01*
X2500Y4253D01*
X2491Y4225D01*
X2488Y4196D01*
X2491Y4167D01*
X2500Y4139D01*
X2513Y4113D01*
X2532Y4091D01*
X2554Y4072D01*
X2580Y4058D01*
X2608Y4050D01*
X2637Y4047D01*
X2666Y4050D01*
X2694Y4058D01*
X2720Y4072D01*
X2742Y4091D01*
X2761Y4113D01*
X2775Y4139D01*
X2783Y4167D01*
X2786Y4196D01*
X2783Y4225D01*
X2775Y4253D01*
X2761Y4279D01*
X2742Y4301D01*
X2720Y4320D01*
X2694Y4333D01*
X2666Y4342D01*
X2637Y4345D01*
D02*
G37*
G36*
X2925Y3138D02*
X2903Y3135D01*
X2882Y3126D01*
X2864Y3113D01*
X2851Y3095D01*
X2842Y3074D01*
X2839Y3052D01*
X2842Y3030D01*
X2851Y3009D01*
X2864Y2991D01*
X2882Y2977D01*
X2903Y2969D01*
X2925Y2966D01*
X2947Y2969D01*
X2968Y2977D01*
X2986Y2991D01*
X3000Y3009D01*
X3008Y3030D01*
X3011Y3052D01*
X3008Y3074D01*
X3000Y3095D01*
X2986Y3113D01*
X2968Y3126D01*
X2947Y3135D01*
X2925Y3138D01*
D02*
G37*
G36*
X1837Y3042D02*
X1804Y3039D01*
X1772Y3029D01*
X1742Y3013D01*
X1716Y2992D01*
X1695Y2966D01*
X1679Y2936D01*
X1669Y2904D01*
X1666Y2871D01*
X1669Y2838D01*
X1679Y2805D01*
X1695Y2776D01*
X1716Y2750D01*
X1742Y2729D01*
X1772Y2713D01*
X1804Y2703D01*
X1837Y2700D01*
X1870Y2703D01*
X1903Y2713D01*
X1932Y2729D01*
X1958Y2750D01*
X1979Y2776D01*
X1995Y2805D01*
X2005Y2838D01*
X2008Y2871D01*
X2005Y2904D01*
X1995Y2936D01*
X1979Y2966D01*
X1958Y2992D01*
X1932Y3013D01*
X1903Y3029D01*
X1870Y3039D01*
X1837Y3042D01*
D02*
G37*
G36*
X2925Y2884D02*
X2903Y2881D01*
X2882Y2872D01*
X2864Y2859D01*
X2851Y2841D01*
X2842Y2820D01*
X2839Y2798D01*
X2842Y2776D01*
X2851Y2755D01*
X2864Y2737D01*
X2882Y2723D01*
X2903Y2715D01*
X2925Y2712D01*
X2947Y2715D01*
X2968Y2723D01*
X2986Y2737D01*
X3000Y2755D01*
X3008Y2776D01*
X3011Y2798D01*
X3008Y2820D01*
X3000Y2841D01*
X2986Y2859D01*
X2968Y2872D01*
X2947Y2881D01*
X2925Y2884D01*
D02*
G37*
G36*
X2544Y3138D02*
X2522Y3135D01*
X2501Y3126D01*
X2484Y3113D01*
X2470Y3095D01*
X2461Y3074D01*
X2458Y3052D01*
X2461Y3030D01*
X2470Y3009D01*
X2484Y2991D01*
X2501Y2977D01*
X2522Y2969D01*
X2544Y2966D01*
X2567Y2969D01*
X2587Y2977D01*
X2605Y2991D01*
X2619Y3009D01*
X2628Y3030D01*
X2630Y3052D01*
X2628Y3074D01*
X2619Y3095D01*
X2605Y3113D01*
X2587Y3126D01*
X2567Y3135D01*
X2544Y3138D01*
D02*
G37*
G36*
X-2578Y1431D02*
X-2600Y1428D01*
X-2620Y1419D01*
X-2638Y1406D01*
X-2651Y1388D01*
X-2660Y1368D01*
X-2663Y1346D01*
X-2660Y1324D01*
X-2655Y1313D01*
X-2723Y1245D01*
X-2734Y1250D01*
X-2756Y1253D01*
X-2778Y1250D01*
X-2798Y1242D01*
X-2816Y1228D01*
X-2829Y1211D01*
X-2838Y1190D01*
X-2840Y1168D01*
X-2838Y1147D01*
X-2829Y1126D01*
X-2816Y1109D01*
X-2798Y1095D01*
X-2778Y1087D01*
X-2756Y1084D01*
X-2734Y1087D01*
X-2714Y1095D01*
X-2696Y1109D01*
X-2683Y1126D01*
X-2674Y1147D01*
X-2671Y1168D01*
X-2674Y1190D01*
X-2679Y1202D01*
X-2611Y1269D01*
X-2600Y1265D01*
X-2578Y1262D01*
X-2556Y1265D01*
X-2536Y1273D01*
X-2518Y1286D01*
X-2505Y1304D01*
X-2496Y1324D01*
X-2494Y1346D01*
X-2496Y1368D01*
X-2505Y1388D01*
X-2518Y1406D01*
X-2536Y1419D01*
X-2556Y1428D01*
X-2578Y1431D01*
D02*
G37*
G36*
X2735Y1487D02*
X2713Y1484D01*
X2692Y1475D01*
X2674Y1462D01*
X2660Y1444D01*
X2652Y1423D01*
X2649Y1401D01*
X2652Y1379D01*
X2660Y1358D01*
X2674Y1340D01*
X2692Y1326D01*
X2713Y1318D01*
X2735Y1315D01*
X2757Y1318D01*
X2778Y1326D01*
X2796Y1340D01*
X2809Y1358D01*
X2818Y1379D01*
X2821Y1401D01*
X2818Y1423D01*
X2809Y1444D01*
X2796Y1462D01*
X2778Y1475D01*
X2757Y1484D01*
X2735Y1487D01*
D02*
G37*
G36*
X-2286Y1620D02*
X-2311Y1617D01*
X-2334Y1607D01*
X-2354Y1592D01*
X-2369Y1572D01*
X-2376Y1555D01*
X-2858D01*
X-2869Y1553D01*
X-2879Y1546D01*
X-2968Y1457D01*
X-2975Y1447D01*
X-2977Y1435D01*
Y1284D01*
X-2989Y1280D01*
X-3006Y1266D01*
X-3020Y1249D01*
X-3028Y1228D01*
X-3031Y1206D01*
X-3028Y1185D01*
X-3020Y1164D01*
X-3006Y1147D01*
X-2989Y1133D01*
X-2968Y1125D01*
X-2946Y1122D01*
X-2925Y1125D01*
X-2904Y1133D01*
X-2887Y1147D01*
X-2873Y1164D01*
X-2865Y1185D01*
X-2862Y1206D01*
X-2865Y1228D01*
X-2873Y1249D01*
X-2887Y1266D01*
X-2904Y1280D01*
X-2915Y1284D01*
Y1422D01*
X-2845Y1493D01*
X-2376D01*
X-2369Y1476D01*
X-2354Y1456D01*
X-2334Y1441D01*
X-2311Y1431D01*
X-2286Y1428D01*
X-2261Y1431D01*
X-2238Y1441D01*
X-2218Y1456D01*
X-2203Y1476D01*
X-2193Y1499D01*
X-2190Y1524D01*
X-2193Y1549D01*
X-2203Y1572D01*
X-2218Y1592D01*
X-2238Y1607D01*
X-2261Y1617D01*
X-2286Y1620D01*
D02*
G37*
G36*
Y1366D02*
X-2311Y1363D01*
X-2334Y1353D01*
X-2354Y1338D01*
X-2369Y1318D01*
X-2379Y1295D01*
X-2382Y1270D01*
X-2379Y1245D01*
X-2369Y1222D01*
X-2354Y1202D01*
X-2334Y1187D01*
X-2311Y1177D01*
X-2286Y1174D01*
X-2261Y1177D01*
X-2238Y1187D01*
X-2218Y1202D01*
X-2203Y1222D01*
X-2193Y1245D01*
X-2190Y1270D01*
X-2193Y1295D01*
X-2203Y1318D01*
X-2218Y1338D01*
X-2238Y1353D01*
X-2261Y1363D01*
X-2286Y1366D01*
D02*
G37*
G36*
X2925Y1360D02*
X2903Y1357D01*
X2882Y1348D01*
X2864Y1335D01*
X2851Y1317D01*
X2842Y1296D01*
X2839Y1274D01*
X2842Y1252D01*
X2851Y1231D01*
X2864Y1213D01*
X2882Y1199D01*
X2903Y1191D01*
X2925Y1188D01*
X2947Y1191D01*
X2968Y1199D01*
X2986Y1213D01*
X3000Y1231D01*
X3008Y1252D01*
X3011Y1274D01*
X3008Y1296D01*
X3000Y1317D01*
X2986Y1335D01*
X2968Y1348D01*
X2947Y1357D01*
X2925Y1360D01*
D02*
G37*
G36*
X-1257Y1482D02*
X-1279Y1479D01*
X-1300Y1470D01*
X-1317Y1457D01*
X-1331Y1439D01*
X-1339Y1419D01*
X-1342Y1397D01*
X-1339Y1375D01*
X-1331Y1355D01*
X-1317Y1337D01*
X-1300Y1324D01*
X-1288Y1319D01*
Y1258D01*
X-1301Y1255D01*
X-1317Y1267D01*
X-1337Y1275D01*
X-1359Y1278D01*
X-1381Y1275D01*
X-1401Y1267D01*
X-1419Y1254D01*
X-1432Y1236D01*
X-1441Y1216D01*
X-1443Y1194D01*
X-1441Y1172D01*
X-1432Y1152D01*
X-1419Y1134D01*
X-1401Y1121D01*
X-1390Y1116D01*
Y586D01*
X-1397Y580D01*
X-1419Y577D01*
X-1439Y569D01*
X-1457Y555D01*
X-1470Y538D01*
X-1479Y517D01*
X-1482Y495D01*
X-1479Y473D01*
X-1470Y453D01*
X-1457Y436D01*
X-1439Y422D01*
X-1419Y414D01*
X-1397Y411D01*
X-1375Y414D01*
X-1355Y422D01*
X-1337Y436D01*
X-1324Y453D01*
X-1315Y473D01*
X-1312Y495D01*
X-1315Y517D01*
X-1324Y538D01*
X-1328Y543D01*
Y1116D01*
X-1317Y1121D01*
X-1301Y1133D01*
X-1288Y1129D01*
Y-121D01*
X-1292Y-122D01*
X-1312Y-130D01*
X-1330Y-143D01*
X-1343Y-161D01*
X-1352Y-181D01*
X-1355Y-203D01*
X-1352Y-225D01*
X-1343Y-245D01*
X-1330Y-263D01*
X-1312Y-276D01*
X-1301Y-281D01*
Y-756D01*
X-1305Y-757D01*
X-1325Y-765D01*
X-1342Y-778D01*
X-1356Y-796D01*
X-1364Y-816D01*
X-1367Y-838D01*
X-1364Y-860D01*
X-1356Y-880D01*
X-1342Y-898D01*
X-1325Y-911D01*
X-1305Y-920D01*
X-1283Y-923D01*
X-1261Y-920D01*
X-1240Y-911D01*
X-1223Y-898D01*
X-1209Y-880D01*
X-1201Y-860D01*
X-1198Y-838D01*
X-1201Y-816D01*
X-1209Y-796D01*
X-1223Y-778D01*
X-1239Y-766D01*
Y-281D01*
X-1228Y-276D01*
X-1210Y-263D01*
X-1197Y-245D01*
X-1188Y-225D01*
X-1185Y-203D01*
X-1188Y-181D01*
X-1197Y-161D01*
X-1210Y-143D01*
X-1226Y-131D01*
Y1319D01*
X-1215Y1324D01*
X-1198Y1337D01*
X-1184Y1355D01*
X-1176Y1375D01*
X-1173Y1397D01*
X-1176Y1419D01*
X-1184Y1439D01*
X-1198Y1457D01*
X-1215Y1470D01*
X-1235Y1479D01*
X-1257Y1482D01*
D02*
G37*
G36*
X1588Y1621D02*
X1566Y1618D01*
X1545Y1610D01*
X1528Y1596D01*
X1514Y1579D01*
X1506Y1559D01*
X1503Y1537D01*
X1506Y1515D01*
X1511Y1503D01*
X1345Y1338D01*
X1338Y1338D01*
X1318Y1353D01*
X1295Y1363D01*
X1270Y1366D01*
X1245Y1363D01*
X1222Y1353D01*
X1202Y1338D01*
X1187Y1318D01*
X1177Y1295D01*
X1174Y1270D01*
X1177Y1245D01*
X1187Y1222D01*
X1202Y1202D01*
X1222Y1187D01*
X1245Y1177D01*
X1270Y1174D01*
X1295Y1177D01*
X1318Y1187D01*
X1338Y1202D01*
X1353Y1222D01*
X1363Y1245D01*
X1366Y1270D01*
X1366Y1271D01*
X1554Y1460D01*
X1566Y1455D01*
X1588Y1452D01*
X1609Y1455D01*
X1630Y1463D01*
X1647Y1477D01*
X1661Y1494D01*
X1669Y1515D01*
X1672Y1537D01*
X1669Y1559D01*
X1661Y1579D01*
X1647Y1596D01*
X1630Y1610D01*
X1609Y1618D01*
X1588Y1621D01*
D02*
G37*
G36*
X2735Y2249D02*
X2713Y2246D01*
X2692Y2237D01*
X2674Y2224D01*
X2660Y2206D01*
X2652Y2185D01*
X2649Y2163D01*
X2652Y2141D01*
X2660Y2120D01*
X2674Y2102D01*
X2692Y2088D01*
X2713Y2080D01*
X2735Y2077D01*
X2757Y2080D01*
X2778Y2088D01*
X2796Y2102D01*
X2809Y2120D01*
X2818Y2141D01*
X2821Y2163D01*
X2818Y2185D01*
X2809Y2206D01*
X2796Y2224D01*
X2778Y2237D01*
X2757Y2246D01*
X2735Y2249D01*
D02*
G37*
G36*
X-2286Y2382D02*
X-2311Y2379D01*
X-2334Y2369D01*
X-2354Y2354D01*
X-2369Y2334D01*
X-2379Y2311D01*
X-2382Y2286D01*
X-2379Y2261D01*
X-2369Y2238D01*
X-2354Y2218D01*
X-2334Y2203D01*
X-2311Y2193D01*
X-2286Y2190D01*
X-2261Y2193D01*
X-2238Y2203D01*
X-2218Y2218D01*
X-2203Y2238D01*
X-2193Y2261D01*
X-2190Y2286D01*
X-2193Y2311D01*
X-2203Y2334D01*
X-2218Y2354D01*
X-2238Y2369D01*
X-2261Y2379D01*
X-2286Y2382D01*
D02*
G37*
G36*
X2925Y2376D02*
X2903Y2373D01*
X2882Y2364D01*
X2864Y2351D01*
X2851Y2333D01*
X2842Y2312D01*
X2839Y2290D01*
X2842Y2268D01*
X2851Y2247D01*
X2864Y2229D01*
X2882Y2215D01*
X2903Y2207D01*
X2925Y2204D01*
X2947Y2207D01*
X2968Y2215D01*
X2986Y2229D01*
X3000Y2247D01*
X3008Y2268D01*
X3011Y2290D01*
X3008Y2312D01*
X3000Y2333D01*
X2986Y2351D01*
X2968Y2364D01*
X2947Y2373D01*
X2925Y2376D01*
D02*
G37*
G36*
X-2286Y2128D02*
X-2311Y2125D01*
X-2334Y2115D01*
X-2354Y2100D01*
X-2369Y2080D01*
X-2379Y2057D01*
X-2382Y2032D01*
X-2379Y2007D01*
X-2369Y1984D01*
X-2354Y1964D01*
X-2334Y1949D01*
X-2311Y1939D01*
X-2286Y1936D01*
X-2261Y1939D01*
X-2238Y1949D01*
X-2218Y1964D01*
X-2203Y1984D01*
X-2193Y2007D01*
X-2190Y2032D01*
X-2193Y2057D01*
X-2203Y2080D01*
X-2218Y2100D01*
X-2238Y2115D01*
X-2261Y2125D01*
X-2286Y2128D01*
D02*
G37*
G36*
X1600Y2117D02*
X1578Y2114D01*
X1558Y2105D01*
X1540Y2092D01*
X1527Y2074D01*
X1519Y2054D01*
X1516Y2032D01*
X1519Y2010D01*
X1527Y1990D01*
X1540Y1972D01*
X1558Y1959D01*
X1569Y1954D01*
Y1867D01*
X1312Y1610D01*
X1295Y1617D01*
X1270Y1620D01*
X1245Y1617D01*
X1222Y1607D01*
X1202Y1592D01*
X1187Y1572D01*
X1177Y1549D01*
X1174Y1524D01*
X1177Y1499D01*
X1187Y1476D01*
X1202Y1456D01*
X1222Y1441D01*
X1245Y1431D01*
X1270Y1428D01*
X1295Y1431D01*
X1318Y1441D01*
X1338Y1456D01*
X1353Y1476D01*
X1363Y1499D01*
X1366Y1524D01*
X1363Y1549D01*
X1356Y1566D01*
X1622Y1832D01*
X1629Y1842D01*
X1631Y1854D01*
Y1954D01*
X1642Y1959D01*
X1660Y1972D01*
X1673Y1990D01*
X1682Y2010D01*
X1685Y2032D01*
X1682Y2054D01*
X1673Y2074D01*
X1660Y2092D01*
X1642Y2105D01*
X1622Y2114D01*
X1600Y2117D01*
D02*
G37*
G36*
X-2286Y1874D02*
X-2311Y1871D01*
X-2334Y1861D01*
X-2354Y1846D01*
X-2369Y1826D01*
X-2376Y1809D01*
X-2756D01*
X-2768Y1807D01*
X-2778Y1800D01*
X-3197Y1381D01*
X-3204Y1371D01*
X-3206Y1359D01*
Y1154D01*
X-3210Y1153D01*
X-3227Y1139D01*
X-3241Y1122D01*
X-3249Y1101D01*
X-3252Y1080D01*
X-3249Y1058D01*
X-3241Y1037D01*
X-3227Y1020D01*
X-3210Y1006D01*
X-3189Y998D01*
X-3167Y995D01*
X-3145Y998D01*
X-3125Y1006D01*
X-3108Y1020D01*
X-3094Y1037D01*
X-3086Y1058D01*
X-3083Y1080D01*
X-3086Y1101D01*
X-3094Y1122D01*
X-3108Y1139D01*
X-3125Y1153D01*
X-3144Y1161D01*
Y1346D01*
X-2743Y1747D01*
X-2376D01*
X-2369Y1730D01*
X-2354Y1710D01*
X-2334Y1695D01*
X-2311Y1685D01*
X-2286Y1682D01*
X-2261Y1685D01*
X-2238Y1695D01*
X-2218Y1710D01*
X-2203Y1730D01*
X-2193Y1753D01*
X-2190Y1778D01*
X-2193Y1803D01*
X-2203Y1826D01*
X-2218Y1846D01*
X-2238Y1861D01*
X-2261Y1871D01*
X-2286Y1874D01*
D02*
G37*
%LPD*%
G36*
X2664Y891D02*
X2688Y883D01*
X2710Y872D01*
X2730Y856D01*
X2745Y837D01*
X2757Y815D01*
X2764Y791D01*
X2767Y766D01*
X2764Y741D01*
X2757Y717D01*
X2745Y695D01*
X2730Y676D01*
X2710Y660D01*
X2688Y648D01*
X2664Y641D01*
X2640Y639D01*
X2615Y641D01*
X2591Y648D01*
X2569Y660D01*
X2550Y676D01*
X2534Y695D01*
X2522Y717D01*
X2515Y741D01*
X2512Y766D01*
X2515Y791D01*
X2522Y815D01*
X2534Y837D01*
X2550Y856D01*
X2569Y872D01*
X2591Y883D01*
X2615Y891D01*
X2640Y893D01*
X2664Y891D01*
D02*
G37*
D10*
X2894Y1559D02*
X2925Y1528D01*
X2696Y1559D02*
X2894D01*
X2631Y1623D02*
X2696Y1559D01*
X1572Y635D02*
Y1280D01*
X1575Y356D02*
Y632D01*
X1572Y635D02*
X1575Y632D01*
X1765Y1206D02*
X2108Y1549D01*
X1756Y622D02*
X1765Y631D01*
Y1206D01*
X1778Y279D02*
Y550D01*
X1756Y572D02*
X1778Y550D01*
X1756Y572D02*
Y622D01*
X-1275Y-208D02*
X-1257Y-190D01*
Y1397D01*
X-1270Y-826D02*
Y-203D01*
X-1283Y-838D02*
X-1270Y-826D01*
X-1923Y-66D02*
X-1880Y-109D01*
X-1923Y-66D02*
Y26D01*
X-1829Y-13D02*
X-1803Y13D01*
X-1359Y533D02*
Y1194D01*
X1067Y914D02*
Y1283D01*
X-1676Y114D02*
X-1651D01*
Y-762D02*
Y114D01*
X-1923Y26D02*
X-1867Y82D01*
Y909D01*
Y1047D02*
Y1638D01*
X-1897Y1017D02*
X-1867Y1047D01*
X-1897Y939D02*
Y1017D01*
Y939D02*
X-1867Y909D01*
X-1803Y13D02*
Y978D01*
X-1397Y495D02*
X-1359Y533D01*
X-1575Y1105D02*
Y2273D01*
X-1880Y-508D02*
Y-109D01*
X-1727Y1232D02*
Y1854D01*
X-2286Y508D02*
X-2134Y356D01*
Y140D02*
Y356D01*
X-2464Y178D02*
Y381D01*
Y178D02*
X-2286Y0D01*
X826Y-1791D02*
Y-1090D01*
Y-1791D02*
X838Y-1803D01*
Y-1892D02*
Y-1803D01*
X1003Y-1359D02*
Y165D01*
X991Y-1359D02*
X1003D01*
Y165D02*
X1092Y254D01*
X1270D01*
X826Y-1090D02*
X843Y-1072D01*
Y424D01*
X927Y508D01*
X1270D01*
X521Y-2197D02*
Y762D01*
X737Y-991D02*
Y864D01*
X1063Y957D02*
X1067Y954D01*
X737Y-991D02*
X749Y-1003D01*
X1676Y1250D02*
X2103Y1676D01*
X1676Y165D02*
Y1250D01*
X1572Y1280D02*
X2057Y1765D01*
X2103Y1676D02*
X2210D01*
X2061Y1826D02*
X2393D01*
X1448Y1213D02*
X2061Y1826D01*
X1448Y686D02*
Y1213D01*
X2057Y1765D02*
X2426D01*
X2210Y1676D02*
X2315Y1572D01*
X2393D01*
X2444Y1623D01*
X2631D01*
X2713Y1676D02*
X2735Y1655D01*
X2515Y1676D02*
X2713D01*
X2426Y1765D02*
X2515Y1676D01*
X-2756Y1168D02*
X-2578Y1346D01*
X-2858Y1524D02*
X-2286D01*
X-2946Y1435D02*
X-2858Y1524D01*
X-2946Y1206D02*
Y1435D01*
X-2413Y-508D02*
X-2286D01*
X-2705Y-800D02*
X-2413Y-508D01*
X2564Y2449D02*
Y2563D01*
X699Y2045D02*
X711Y2032D01*
X699Y2045D02*
Y2527D01*
X1600Y1854D02*
Y2032D01*
X1270Y1524D02*
X1600Y1854D01*
X2150Y2126D02*
X2354Y1922D01*
X1270Y2032D02*
X1364Y2126D01*
X2150D01*
X1270Y1778D02*
Y2032D01*
X1219Y762D02*
X1270D01*
X-3340Y2273D02*
X-3315Y2299D01*
Y2921D01*
X-3353Y2959D02*
X-3315Y2921D01*
X-3238Y2146D02*
Y3111D01*
Y2146D02*
X-3137Y2045D01*
X-3175Y1080D02*
Y1359D01*
X-2756Y1778D02*
X-2286D01*
X-3175Y1359D02*
X-2756Y1778D01*
X-3175Y1080D02*
X-3167D01*
X-1842Y-1029D02*
Y-722D01*
X-1854Y-709D02*
X-1842Y-722D01*
X-1854Y-709D02*
Y-660D01*
X2967Y2959D02*
X3021Y3012D01*
X2933Y2925D02*
X2967Y2959D01*
X2354Y1922D02*
X2449Y2017D01*
Y2075D01*
X2505Y2131D01*
X2564D01*
X2754Y2322D01*
X2822D01*
X2949Y2449D01*
X2965D01*
X3021Y2504D01*
Y2837D01*
X2967Y2891D02*
X3021Y2837D01*
X2967Y2891D02*
Y2959D01*
X2735Y2925D02*
X2933D01*
X3021Y3012D02*
Y3124D01*
X3048Y3151D01*
X2640Y3560D02*
X3048Y3151D01*
X2544Y2798D02*
X2671Y2925D01*
X2735D01*
X2354Y2938D02*
X2494Y2798D01*
X1178Y2181D02*
X2231D01*
X1068Y2291D02*
X1178Y2181D01*
X979Y2291D02*
X1068D01*
X2231Y2181D02*
X2259Y2208D01*
Y2215D01*
X2315Y2271D01*
X2386D01*
X2564Y2449D01*
X1270Y1270D02*
X1321D01*
X1588Y1537D01*
X2311Y-102D02*
Y1371D01*
X2354Y1414D01*
X1067Y914D02*
X1219Y762D01*
X2925Y1782D02*
Y1853D01*
X2774Y2004D02*
X2925Y1853D01*
X2695Y2004D02*
X2774D01*
X2568Y1877D02*
X2695Y2004D01*
X2444Y1877D02*
X2568D01*
X2393Y1826D02*
X2444Y1877D01*
X1270Y508D02*
X1448Y686D01*
D11*
X-2007Y-114D02*
Y1397D01*
Y-1206D02*
Y-114D01*
Y636D02*
X-1967Y597D01*
X-2007Y1397D02*
Y3251D01*
X-1967Y597D02*
X-1954Y610D01*
X-1962Y617D02*
X-1954Y610D01*
X-2007Y-1206D02*
Y-1105D01*
Y617D02*
X-1962D01*
X406Y-1905D02*
Y1029D01*
X-2032Y3277D02*
X-2007Y3251D01*
D12*
X1270Y2286D02*
Y2540D01*
D13*
X2727Y-517D02*
X2729D01*
X2311Y-102D02*
X2727Y-517D01*
X2591Y-816D02*
X2855D01*
X2984Y-686D01*
Y965D01*
X2676Y1274D02*
X2984Y965D01*
X2544Y1274D02*
X2676D01*
D14*
X2925Y1528D02*
D03*
Y1782D02*
D03*
Y2036D02*
D03*
Y2290D02*
D03*
Y2544D02*
D03*
Y2798D02*
D03*
Y3052D02*
D03*
X2735Y1655D02*
D03*
Y1909D02*
D03*
Y2163D02*
D03*
Y2417D02*
D03*
Y2671D02*
D03*
Y2925D02*
D03*
X2544Y3052D02*
D03*
Y2798D02*
D03*
Y2544D02*
D03*
Y2290D02*
D03*
Y2036D02*
D03*
Y1782D02*
D03*
Y1528D02*
D03*
Y1274D02*
D03*
X2354Y2938D02*
D03*
Y2684D02*
D03*
Y2430D02*
D03*
Y2176D02*
D03*
Y1922D02*
D03*
Y1668D02*
D03*
Y1414D02*
D03*
X2735Y1401D02*
D03*
X2925Y1274D02*
D03*
D15*
X2640Y3560D02*
D03*
Y766D02*
D03*
D16*
X2350Y-1829D02*
D03*
Y-2184D02*
D03*
Y-1486D02*
D03*
D17*
X2603Y-1829D02*
D03*
X2858D02*
D03*
X2603Y-2184D02*
D03*
X2858D02*
D03*
X2603Y-1486D02*
D03*
X2858D02*
D03*
X-2286Y2540D02*
D03*
Y2286D02*
D03*
Y2032D02*
D03*
Y1778D02*
D03*
Y1524D02*
D03*
Y1270D02*
D03*
Y1016D02*
D03*
Y762D02*
D03*
Y508D02*
D03*
Y254D02*
D03*
Y0D02*
D03*
Y-254D02*
D03*
Y-508D02*
D03*
Y-762D02*
D03*
X1270Y2540D02*
D03*
Y2286D02*
D03*
Y2032D02*
D03*
Y1778D02*
D03*
Y1524D02*
D03*
Y1270D02*
D03*
Y1016D02*
D03*
Y762D02*
D03*
Y508D02*
D03*
Y254D02*
D03*
Y0D02*
D03*
Y-254D02*
D03*
Y-508D02*
D03*
Y-762D02*
D03*
D18*
X-2286Y-1016D02*
D03*
X1270D02*
D03*
D19*
X2637Y96D02*
D03*
X-3663D02*
D03*
D20*
Y4196D02*
D03*
X2637D02*
D03*
D21*
X1837Y-1629D02*
D03*
Y2871D02*
D03*
X-2863D02*
D03*
Y-1629D02*
D03*
D22*
X1575Y356D02*
D03*
X1778Y279D02*
D03*
X-1283Y-838D02*
D03*
X-1270Y-203D02*
D03*
X-2007Y-114D02*
D03*
X-1829Y-13D02*
D03*
X-1257Y1397D02*
D03*
X-1359Y1194D02*
D03*
X1067Y1283D02*
D03*
X-1676Y114D02*
D03*
X-1651Y-762D02*
D03*
X-2007Y826D02*
D03*
X-1803Y978D02*
D03*
X-1575Y1105D02*
D03*
X-1397Y495D02*
D03*
X-1575Y2273D02*
D03*
X-1880Y-508D02*
D03*
X-1867Y1638D02*
D03*
X-1727Y1232D02*
D03*
Y1854D02*
D03*
X-2007Y-1206D02*
D03*
X-2134Y140D02*
D03*
X-2464Y381D02*
D03*
X406Y1029D02*
D03*
X838Y-1892D02*
D03*
X991Y-1359D02*
D03*
X521Y762D02*
D03*
X737Y864D02*
D03*
X1676Y165D02*
D03*
X2108Y1549D02*
D03*
X-2756Y1168D02*
D03*
X-2578Y1346D02*
D03*
X-2705Y-800D02*
D03*
X711Y2032D02*
D03*
X699Y2527D02*
D03*
X1600Y2032D02*
D03*
X-2007Y1397D02*
D03*
X-2032Y3277D02*
D03*
X-3340Y2273D02*
D03*
X-3353Y2959D02*
D03*
X-3238Y3111D02*
D03*
X-3137Y2045D02*
D03*
X-3167Y1080D02*
D03*
X-2946Y1206D02*
D03*
X-1842Y-1029D02*
D03*
X-1854Y-660D02*
D03*
X979Y2291D02*
D03*
X1588Y1537D02*
D03*
X2311Y-102D02*
D03*
X2729Y-517D02*
D03*
X2591Y-816D02*
D03*
X406Y-1905D02*
D03*
X521Y-2197D02*
D03*
X749Y-1003D02*
D03*
D23*
X-1183Y-906D02*
D03*
X-883D02*
D03*
X-1183Y-306D02*
D03*
X-1783D02*
D03*
X-2083D02*
D03*
X-1483Y1194D02*
D03*
Y594D02*
D03*
X-2083D02*
D03*
X-1183Y1194D02*
D03*
Y1494D02*
D03*
X-883D02*
D03*
X-583D02*
D03*
X-1483Y-6D02*
D03*
X617Y-906D02*
D03*
X1511Y622D02*
D03*
X2117Y1194D02*
D03*
X617Y2094D02*
D03*
X3017Y4494D02*
D03*
Y4194D02*
D03*
Y3894D02*
D03*
Y3594D02*
D03*
Y3294D02*
D03*
Y2694D02*
D03*
Y2394D02*
D03*
Y-1206D02*
D03*
Y-1506D02*
D03*
Y-1806D02*
D03*
Y-2106D02*
D03*
Y-2406D02*
D03*
Y-2706D02*
D03*
Y-3006D02*
D03*
Y-3306D02*
D03*
X2717Y4494D02*
D03*
Y3894D02*
D03*
Y3294D02*
D03*
Y1794D02*
D03*
Y-1206D02*
D03*
Y-2106D02*
D03*
Y-2406D02*
D03*
Y-2706D02*
D03*
Y-3006D02*
D03*
Y-3306D02*
D03*
X2417Y4194D02*
D03*
Y3894D02*
D03*
Y3594D02*
D03*
Y3294D02*
D03*
Y594D02*
D03*
Y-2406D02*
D03*
Y-2706D02*
D03*
Y-3006D02*
D03*
X2117Y4194D02*
D03*
Y3894D02*
D03*
Y3594D02*
D03*
Y3294D02*
D03*
Y2994D02*
D03*
Y-1506D02*
D03*
Y-1806D02*
D03*
Y-2106D02*
D03*
Y-2406D02*
D03*
Y-2706D02*
D03*
Y-3006D02*
D03*
X1817Y3894D02*
D03*
Y3594D02*
D03*
Y3294D02*
D03*
Y-1206D02*
D03*
Y-2106D02*
D03*
Y-2406D02*
D03*
Y-2706D02*
D03*
X1517Y3894D02*
D03*
Y3594D02*
D03*
Y3294D02*
D03*
Y2694D02*
D03*
Y-1206D02*
D03*
Y-1506D02*
D03*
Y-1806D02*
D03*
Y-2406D02*
D03*
Y-2706D02*
D03*
X1217Y3594D02*
D03*
Y3294D02*
D03*
Y-1206D02*
D03*
Y-1506D02*
D03*
Y-1806D02*
D03*
Y-2106D02*
D03*
Y-2406D02*
D03*
X917Y3594D02*
D03*
Y3294D02*
D03*
Y2994D02*
D03*
Y2694D02*
D03*
Y2094D02*
D03*
Y1494D02*
D03*
Y294D02*
D03*
Y-6D02*
D03*
Y-606D02*
D03*
Y-906D02*
D03*
Y-1206D02*
D03*
Y-1506D02*
D03*
Y-1806D02*
D03*
Y-2106D02*
D03*
Y-2406D02*
D03*
X617Y3594D02*
D03*
Y3294D02*
D03*
Y2994D02*
D03*
Y2694D02*
D03*
Y1494D02*
D03*
Y894D02*
D03*
Y594D02*
D03*
Y-6D02*
D03*
Y-306D02*
D03*
Y-606D02*
D03*
Y-1206D02*
D03*
Y-1506D02*
D03*
Y-1806D02*
D03*
Y-2106D02*
D03*
Y-2406D02*
D03*
X317Y3594D02*
D03*
Y3294D02*
D03*
Y2994D02*
D03*
Y2694D02*
D03*
Y2094D02*
D03*
Y1494D02*
D03*
Y894D02*
D03*
Y594D02*
D03*
Y-6D02*
D03*
Y-306D02*
D03*
Y-606D02*
D03*
Y-906D02*
D03*
Y-1206D02*
D03*
Y-1506D02*
D03*
Y-1806D02*
D03*
Y-2106D02*
D03*
Y-2406D02*
D03*
X17Y3594D02*
D03*
Y3294D02*
D03*
Y2994D02*
D03*
Y2694D02*
D03*
Y2094D02*
D03*
Y1494D02*
D03*
Y894D02*
D03*
Y594D02*
D03*
Y-6D02*
D03*
Y-306D02*
D03*
Y-606D02*
D03*
Y-906D02*
D03*
Y-1206D02*
D03*
Y-1506D02*
D03*
Y-1806D02*
D03*
Y-2106D02*
D03*
X-283Y3294D02*
D03*
Y2994D02*
D03*
Y2694D02*
D03*
Y2094D02*
D03*
Y1494D02*
D03*
Y894D02*
D03*
Y594D02*
D03*
Y-6D02*
D03*
Y-306D02*
D03*
Y-606D02*
D03*
Y-906D02*
D03*
Y-1206D02*
D03*
Y-1506D02*
D03*
Y-1806D02*
D03*
Y-2106D02*
D03*
X-583Y3294D02*
D03*
Y2994D02*
D03*
Y2694D02*
D03*
Y2094D02*
D03*
Y594D02*
D03*
Y-6D02*
D03*
Y-306D02*
D03*
Y-606D02*
D03*
Y-906D02*
D03*
Y-1206D02*
D03*
Y-1506D02*
D03*
Y-1806D02*
D03*
Y-2106D02*
D03*
X-883Y3594D02*
D03*
Y3294D02*
D03*
Y2994D02*
D03*
Y2694D02*
D03*
Y2094D02*
D03*
Y594D02*
D03*
Y-6D02*
D03*
Y-306D02*
D03*
Y-606D02*
D03*
Y-1206D02*
D03*
Y-1506D02*
D03*
Y-1806D02*
D03*
Y-2106D02*
D03*
X-1183Y3594D02*
D03*
Y3294D02*
D03*
Y2994D02*
D03*
Y2694D02*
D03*
Y2094D02*
D03*
Y-6D02*
D03*
Y-606D02*
D03*
Y-1206D02*
D03*
Y-1506D02*
D03*
Y-1806D02*
D03*
Y-2106D02*
D03*
X-1483Y3594D02*
D03*
Y3294D02*
D03*
Y2994D02*
D03*
Y2694D02*
D03*
Y2094D02*
D03*
Y1494D02*
D03*
Y-1206D02*
D03*
Y-1506D02*
D03*
Y-1806D02*
D03*
Y-2106D02*
D03*
Y-2406D02*
D03*
X-1783Y3594D02*
D03*
Y3294D02*
D03*
Y2994D02*
D03*
Y2694D02*
D03*
Y2094D02*
D03*
Y-1506D02*
D03*
Y-1806D02*
D03*
Y-2106D02*
D03*
Y-2406D02*
D03*
X-2083Y3594D02*
D03*
Y-1506D02*
D03*
Y-1806D02*
D03*
Y-2106D02*
D03*
Y-2406D02*
D03*
X-2383Y3894D02*
D03*
Y3594D02*
D03*
Y2994D02*
D03*
Y2694D02*
D03*
Y2394D02*
D03*
Y894D02*
D03*
Y594D02*
D03*
Y-1506D02*
D03*
Y-1806D02*
D03*
Y-2106D02*
D03*
Y-2406D02*
D03*
X-2683Y3894D02*
D03*
Y3594D02*
D03*
Y2994D02*
D03*
Y2694D02*
D03*
Y2394D02*
D03*
Y2094D02*
D03*
Y894D02*
D03*
Y-306D02*
D03*
Y-1206D02*
D03*
Y-1506D02*
D03*
Y-1806D02*
D03*
Y-2106D02*
D03*
Y-2406D02*
D03*
Y-2706D02*
D03*
X-2983Y3894D02*
D03*
Y3594D02*
D03*
Y2694D02*
D03*
Y2394D02*
D03*
Y2094D02*
D03*
Y1794D02*
D03*
Y894D02*
D03*
Y594D02*
D03*
Y294D02*
D03*
Y-6D02*
D03*
Y-306D02*
D03*
Y-606D02*
D03*
Y-906D02*
D03*
Y-1206D02*
D03*
Y-1806D02*
D03*
Y-2106D02*
D03*
Y-2406D02*
D03*
Y-2706D02*
D03*
X-3283Y4194D02*
D03*
Y3894D02*
D03*
Y3594D02*
D03*
Y2094D02*
D03*
Y1794D02*
D03*
Y894D02*
D03*
Y594D02*
D03*
Y294D02*
D03*
Y-6D02*
D03*
Y-306D02*
D03*
Y-606D02*
D03*
Y-906D02*
D03*
Y-1206D02*
D03*
Y-1506D02*
D03*
Y-1806D02*
D03*
Y-2106D02*
D03*
Y-2406D02*
D03*
Y-2706D02*
D03*
Y-3006D02*
D03*
X-3583Y4494D02*
D03*
Y3894D02*
D03*
Y3594D02*
D03*
Y2694D02*
D03*
Y2394D02*
D03*
Y2094D02*
D03*
Y1794D02*
D03*
Y594D02*
D03*
Y294D02*
D03*
Y-306D02*
D03*
Y-606D02*
D03*
Y-906D02*
D03*
Y-1206D02*
D03*
Y-1506D02*
D03*
Y-1806D02*
D03*
Y-2106D02*
D03*
Y-2406D02*
D03*
Y-2706D02*
D03*
Y-3006D02*
D03*
X-3883Y4494D02*
D03*
Y4194D02*
D03*
Y3894D02*
D03*
Y3594D02*
D03*
Y3294D02*
D03*
Y2994D02*
D03*
Y2394D02*
D03*
Y2094D02*
D03*
Y1494D02*
D03*
Y1194D02*
D03*
Y894D02*
D03*
Y594D02*
D03*
Y294D02*
D03*
Y-6D02*
D03*
Y-306D02*
D03*
Y-606D02*
D03*
Y-906D02*
D03*
Y-1206D02*
D03*
Y-1506D02*
D03*
Y-1806D02*
D03*
Y-2106D02*
D03*
Y-2406D02*
D03*
Y-2706D02*
D03*
Y-3006D02*
D03*
Y-3306D02*
D03*
X-4183Y4494D02*
D03*
Y4194D02*
D03*
Y3894D02*
D03*
Y3594D02*
D03*
Y3294D02*
D03*
Y2994D02*
D03*
Y2694D02*
D03*
Y2394D02*
D03*
Y2094D02*
D03*
Y1794D02*
D03*
Y1494D02*
D03*
Y1194D02*
D03*
Y894D02*
D03*
Y594D02*
D03*
Y294D02*
D03*
Y-6D02*
D03*
Y-306D02*
D03*
Y-606D02*
D03*
Y-906D02*
D03*
Y-1206D02*
D03*
Y-1506D02*
D03*
Y-1806D02*
D03*
Y-2106D02*
D03*
Y-2406D02*
D03*
Y-2706D02*
D03*
Y-3006D02*
D03*
Y-3306D02*
D03*
X1816Y597D02*
D03*
M02*
