M48
;Layer_Color=9474304
;FILE_FORMAT=4:2
METRIC,LZ
;TYPE=PLATED
T1F00S00C0.20
T2F00S00C0.30
T3F00S00C0.61
T4F00S00C0.71
T5F00S00C1.02
T6F00S00C1.80
T7F00S00C2.50
;TYPE=NON_PLATED
T8F00S00C0.66
%
T01
X004265Y002756
X004498Y002751
X00443Y003101
X005044Y002906
X005484Y00287
X005583
X005603Y003109
X005486Y003127
X005649Y003254
X005826Y003029
X005926
X006026
Y002929
Y002829
X005926
Y002929
X005826
Y002829
X005935Y002599
X006076Y002626
X006274Y002672
X006248Y002883
X006431Y002885
X00646Y003029
X006416Y003111
X006363Y003188
X006332Y003254
X00637Y003315
X006279Y003338
X006241Y003561
X006415Y003529
X006507Y003485
X006497Y003607
X006744Y003592
X006716Y003485
X006652
X00682
X006787Y003332
X006853Y003307
X006971Y003338
X007132Y003338
X007224Y003305
X007305Y003211
X007445Y003264
X007506Y003332
X007559Y003289
X007616Y003338
X007704Y003277
X007892Y003292
X007813Y003434
X007602Y003538
X007521Y00349
X007404Y003515
X007402Y003632
X00748Y003609
X007336Y003586
X00728Y003619
X007178Y003553
X007092Y003505
X007003Y003602
X006947Y003569
X006912Y003625
X00681Y00383
X006749Y003792
X006685Y003767
X006698Y003846
X006594Y00382
X006345Y003788
X006205Y003805
X006116Y0038
X005944Y003823
X005796
X005695Y003823
X005738Y003777
X005497Y003655
X005357Y003675
X005372Y003604
X005144Y003894
X005039Y003914
X00605Y003231
X006165Y003178
X006292Y003033
X00663Y003027
X006584Y003117
X006728Y003114
X006726Y003233
X0068Y003178
X006871Y003106
X006962Y003127
X007071Y003081
X007125Y003139
X007099Y003238
X00717Y002992
X007081Y002865
X006939Y002878
X00685
X006744Y002748
X00665Y002654
X00648Y002753
X006579Y002855
X006584Y003315
X006668Y003325
X007369Y003071
X00744Y003081
X007452Y002794
X007306Y002853
X00793Y00296
X007236Y003769
X007206Y003853
X008188Y003929
X008112Y003584
X008252Y003569
X008353Y003492
X008169Y003223
X008292Y003084
X008501Y003134
X008578Y003231
X008697Y003157
X008804Y003162
X008903Y003231
X008989Y003302
X00907Y00336
X009121Y003419
X009128Y003272
X00954Y003323
X009578Y003234
X009596Y00316
X009796Y003099
X009846Y003049
X009796Y002999
X009896Y002999
X009896Y003099
X009888Y00279
X009684Y002792
X009133Y002757
X00807Y00286
X009852Y00343
X010225Y003455
X010325Y003428
X009621Y003833
X009192Y004034
X00941Y004283
X0094Y004392
Y004514
X009375Y004763
X00911Y004756
X009113Y004672
X00894Y004613
X008622Y004669
X008584Y004519
X008526Y004282
X008358Y004061
X008254Y004072
X008087Y00398
X008257Y004651
X008262Y005022
X00834Y00499
X008267Y005342
X008214Y005476
X00935Y00547
X01003Y00549
X009973Y005206
X009862Y005251
X009963Y004878
X009945Y004741
X010311Y004593
X010324Y00438
X010179Y004378
X01024Y00401
X00984Y00427
X009138Y00489
X009052Y004936
X010357Y005145
X007186Y005324
X007145Y004928
X007094Y004877
X006911Y004963
X006853Y004994
X006937Y004669
X007008Y004653
X006944Y004559
X006929Y004308
X007104Y00427
X007137Y004343
X007236Y004506
X007148Y004036
X006995Y004049
X006911Y004044
X006848Y004054
X006749Y004011
X006647Y004028
X00667Y004097
X006507Y004102
X006485Y004031
X006398Y004079
X006294Y0041
X006228Y004065
X006294Y003995
X006093Y004082
X005994Y004089
X006002Y004023
X005893Y004001
X005654Y004051
X005591Y004054
X005524Y004051
X005446Y004041
X005372Y004039
X005309Y004041
X005154Y004061
X005243Y004361
X005321Y004323
X005159Y004506
X005298Y004676
X005921Y004582
X006076Y004653
X006027Y004735
X006002Y0049
X006231Y004801
X006228Y004702
X006251Y004635
X006292Y004544
X006388Y004572
X006482Y004567
X006647Y004557
X006701Y004361
X006749Y004262
X006398Y004313
X006447Y004364
X006271Y004328
X006025Y004308
X005809Y004331
X005743Y004333
X005674Y004331
X006375Y004663
X006467Y004793
X006297Y005243
X006251Y005298
X006063Y005522
X006391Y005697
X00648Y005702
X00665Y005527
X006601Y005928
X006871Y005875
X007043Y005939
X007183Y006198
X006119Y006205
X006228Y005939
X005575Y0059
X005507Y005685
X00543Y00611
X005347Y00615
X005266Y006116
X007521Y004044
X0036Y00536
X00347Y00557
X003748Y005721
T02
X003913Y002954
X010434Y003513
X010436Y003786
X010434Y004023
Y00426
Y004497
Y004734
X010446Y004971
X010421Y005221
T03
X009339Y006135
X009491
X009641
T04
X005027Y003096
X008554Y003769
X00929Y00376
X01056Y003054
X01058Y005076
X008589Y00585
X007668Y005112
X005664Y004615
X005027Y00523
X004826Y005641
X004628Y005634
X004945Y006139
X003556Y004829
X003548Y00447
T05
X002592Y002674
X002846
Y002928
Y003182
Y003436
Y00369
Y003944
X0031
Y00369
Y003436
Y003182
Y002928
Y002674
X002592Y002928
Y003182
Y003436
Y00369
Y003944
Y004198
X002846
Y004452
Y004706
Y00496
Y005214
Y005468
Y005722
X0031
Y005468
Y005214
Y00496
Y004706
Y004452
Y004198
X002592Y004452
Y004706
Y00496
Y005214
Y005468
Y005722
Y005976
X002846
X0031
X00335
X003604
X003858
Y00623
X003604
X00335
X0031
X002846
X002592
T06
X004691Y002939
X007691
Y005939
X004691
T07
X003601Y002951
X005898Y003515
X008701Y002786
X00876Y005573
X01043Y005538
X0052Y00578
T08
X00507Y003996
X007272
M30
