G04 Layer_Color=8421504*
%FSLAX42Y42*%
%MOMM*%
G71*
G01*
G75*
%ADD87R,0.30X0.60*%
%ADD88R,0.60X0.30*%
%ADD89R,0.30X0.60*%
%ADD90R,0.00X0.00*%
%ADD91R,0.35X0.50*%
%ADD92R,0.30X1.17*%
%ADD93R,1.47X2.16*%
G04:AMPARAMS|DCode=94|XSize=0.3mm|YSize=1.17mm|CornerRadius=0.15mm|HoleSize=0mm|Usage=FLASHONLY|Rotation=0.000|XOffset=0mm|YOffset=0mm|HoleType=Round|Shape=RoundedRectangle|*
%AMROUNDEDRECTD94*
21,1,0.30,0.86,0,0,0.0*
21,1,0.00,1.17,0,0,0.0*
1,1,0.30,0.00,-0.43*
1,1,0.30,0.00,-0.43*
1,1,0.30,0.00,0.43*
1,1,0.30,0.00,0.43*
%
%ADD94ROUNDEDRECTD94*%
G04:AMPARAMS|DCode=95|XSize=2.87mm|YSize=1.07mm|CornerRadius=0.53mm|HoleSize=0mm|Usage=FLASHONLY|Rotation=180.000|XOffset=0mm|YOffset=0mm|HoleType=Round|Shape=RoundedRectangle|*
%AMROUNDEDRECTD95*
21,1,2.87,0.00,0,0,180.0*
21,1,1.80,1.07,0,0,180.0*
1,1,1.07,-0.90,0.00*
1,1,1.07,0.90,0.00*
1,1,1.07,0.90,0.00*
1,1,1.07,-0.90,0.00*
%
%ADD95ROUNDEDRECTD95*%
G04:AMPARAMS|DCode=96|XSize=0.66mm|YSize=1.75mm|CornerRadius=0.33mm|HoleSize=0mm|Usage=FLASHONLY|Rotation=90.000|XOffset=0mm|YOffset=0mm|HoleType=Round|Shape=RoundedRectangle|*
%AMROUNDEDRECTD96*
21,1,0.66,1.09,0,0,90.0*
21,1,0.00,1.75,0,0,90.0*
1,1,0.66,0.55,0.00*
1,1,0.66,0.55,0.00*
1,1,0.66,-0.55,0.00*
1,1,0.66,-0.55,0.00*
%
%ADD96ROUNDEDRECTD96*%
G04:AMPARAMS|DCode=97|XSize=1.07mm|YSize=2.97mm|CornerRadius=0.53mm|HoleSize=0mm|Usage=FLASHONLY|Rotation=270.000|XOffset=0mm|YOffset=0mm|HoleType=Round|Shape=RoundedRectangle|*
%AMROUNDEDRECTD97*
21,1,1.07,1.91,0,0,270.0*
21,1,0.00,2.97,0,0,270.0*
1,1,1.07,-0.95,0.00*
1,1,1.07,-0.95,0.00*
1,1,1.07,0.95,0.00*
1,1,1.07,0.95,0.00*
%
%ADD97ROUNDEDRECTD97*%
G04:AMPARAMS|DCode=98|XSize=3.66mm|YSize=1.85mm|CornerRadius=0.93mm|HoleSize=0mm|Usage=FLASHONLY|Rotation=0.000|XOffset=0mm|YOffset=0mm|HoleType=Round|Shape=RoundedRectangle|*
%AMROUNDEDRECTD98*
21,1,3.66,0.00,0,0,0.0*
21,1,1.80,1.85,0,0,0.0*
1,1,1.85,0.90,0.00*
1,1,1.85,-0.90,0.00*
1,1,1.85,-0.90,0.00*
1,1,1.85,0.90,0.00*
%
%ADD98ROUNDEDRECTD98*%
%ADD99R,1.37X0.76*%
%ADD100R,0.56X0.66*%
G04:AMPARAMS|DCode=101|XSize=0.56mm|YSize=0.66mm|CornerRadius=0.15mm|HoleSize=0mm|Usage=FLASHONLY|Rotation=270.000|XOffset=0mm|YOffset=0mm|HoleType=Round|Shape=RoundedRectangle|*
%AMROUNDEDRECTD101*
21,1,0.56,0.36,0,0,270.0*
21,1,0.25,0.66,0,0,270.0*
1,1,0.30,-0.18,-0.13*
1,1,0.30,-0.18,0.13*
1,1,0.30,0.18,0.13*
1,1,0.30,0.18,-0.13*
%
%ADD101ROUNDEDRECTD101*%
G36*
X5741Y2769D02*
Y2759D01*
X5721Y2739D01*
X5681D01*
Y2769D01*
X5741Y2769D01*
D02*
G37*
G36*
X6171Y2739D02*
X6131D01*
X6111Y2759D01*
Y2769D01*
X6171Y2769D01*
Y2739D01*
D02*
G37*
G36*
X5766Y2684D02*
X5736D01*
Y2724D01*
X5756Y2744D01*
X5766D01*
X5766Y2684D01*
D02*
G37*
G36*
X6116Y2724D02*
X6116Y2684D01*
X6086D01*
X6086Y2744D01*
X6096D01*
X6116Y2724D01*
D02*
G37*
G36*
X5766Y3114D02*
X5756D01*
X5736Y3134D01*
Y3174D01*
X5766D01*
X5766Y3114D01*
D02*
G37*
G36*
X6116Y3134D02*
X6096Y3114D01*
X6086D01*
X6086Y3174D01*
X6116D01*
Y3134D01*
D02*
G37*
G36*
X5741Y3099D02*
Y3089D01*
X5681Y3089D01*
Y3119D01*
X5721D01*
X5741Y3099D01*
D02*
G37*
G36*
X6171Y3089D02*
X6111Y3089D01*
Y3099D01*
X6131Y3119D01*
X6171D01*
Y3089D01*
D02*
G37*
D87*
X6051Y2929D02*
D03*
X6051Y3029D02*
D03*
X6051Y2829D02*
D03*
X6001Y2929D02*
D03*
Y2829D02*
D03*
X6001Y3029D02*
D03*
X5851Y2929D02*
D03*
Y3029D02*
D03*
X5851Y2829D02*
D03*
X5801Y2929D02*
D03*
X5801Y2829D02*
D03*
X5801Y3029D02*
D03*
X5901Y3029D02*
D03*
X5901Y2829D02*
D03*
X5901Y2929D02*
D03*
X5951Y2829D02*
D03*
X5951Y3029D02*
D03*
X5951Y2929D02*
D03*
D88*
X6141Y3054D02*
D03*
X6141Y3004D02*
D03*
X6141Y2954D02*
D03*
X6141Y2904D02*
D03*
X6141Y2854D02*
D03*
Y2804D02*
D03*
X5711Y3054D02*
D03*
X5711Y3004D02*
D03*
X5711Y2954D02*
D03*
X5711Y2904D02*
D03*
X5711Y2854D02*
D03*
Y2804D02*
D03*
D89*
X6051Y3144D02*
D03*
X6001Y3144D02*
D03*
X5951Y3144D02*
D03*
X5901Y3144D02*
D03*
X5851Y3144D02*
D03*
X5801D02*
D03*
X5801Y2714D02*
D03*
X5851D02*
D03*
X5901D02*
D03*
X5951Y2714D02*
D03*
X6001Y2714D02*
D03*
X6051D02*
D03*
D90*
X5926Y2929D02*
D03*
D91*
X6340Y2950D02*
D03*
X6290D02*
D03*
X6240D02*
D03*
X6340Y2815D02*
D03*
X6290D02*
D03*
X6240D02*
D03*
X7040Y2950D02*
D03*
X6990D02*
D03*
X6940D02*
D03*
X7040Y2815D02*
D03*
X6990D02*
D03*
X6940D02*
D03*
X6860Y2950D02*
D03*
X6810D02*
D03*
X6760D02*
D03*
X6860Y2815D02*
D03*
X6810D02*
D03*
X6760D02*
D03*
X7220Y2950D02*
D03*
X7170D02*
D03*
X7120D02*
D03*
X7220Y2815D02*
D03*
X7170D02*
D03*
X7120D02*
D03*
X6680Y2950D02*
D03*
X6630D02*
D03*
X6580D02*
D03*
X6680Y2815D02*
D03*
X6630D02*
D03*
X6580D02*
D03*
X6510Y2950D02*
D03*
X6460D02*
D03*
X6410D02*
D03*
X6510Y2815D02*
D03*
X6460D02*
D03*
X6410D02*
D03*
D92*
X5195Y3921D02*
D03*
Y4453D02*
D03*
X5245Y3921D02*
D03*
Y4453D02*
D03*
X5295Y3921D02*
D03*
Y4453D02*
D03*
X5345Y3921D02*
D03*
Y4453D02*
D03*
X5395Y3921D02*
D03*
Y4453D02*
D03*
X5445Y3921D02*
D03*
Y4453D02*
D03*
X5495Y3921D02*
D03*
Y4453D02*
D03*
X5545Y3921D02*
D03*
Y4453D02*
D03*
X5595Y3921D02*
D03*
Y4453D02*
D03*
X5645Y3921D02*
D03*
Y4453D02*
D03*
X5695Y3921D02*
D03*
X5745D02*
D03*
X5795D02*
D03*
X5845D02*
D03*
X5895D02*
D03*
X5945D02*
D03*
X5995D02*
D03*
X6045D02*
D03*
X6095D02*
D03*
X6145D02*
D03*
X6195D02*
D03*
X6246D02*
D03*
X6297D02*
D03*
X6345D02*
D03*
X6396D02*
D03*
X6447D02*
D03*
X6495D02*
D03*
X6546D02*
D03*
X6596D02*
D03*
X6647D02*
D03*
X6695D02*
D03*
X6746D02*
D03*
X6797D02*
D03*
X6845D02*
D03*
X6896D02*
D03*
X6947D02*
D03*
X6995D02*
D03*
X7046D02*
D03*
X7097D02*
D03*
X7145D02*
D03*
X5695Y4453D02*
D03*
X5745D02*
D03*
X5795D02*
D03*
X5845D02*
D03*
X5895D02*
D03*
X5945D02*
D03*
X5995D02*
D03*
X6045D02*
D03*
X6095D02*
D03*
X6145D02*
D03*
X6195D02*
D03*
X6246D02*
D03*
X6297D02*
D03*
X6345D02*
D03*
X6396D02*
D03*
X6447D02*
D03*
X6495D02*
D03*
X6546D02*
D03*
X6596D02*
D03*
X6647D02*
D03*
X6695D02*
D03*
X6746D02*
D03*
X6797D02*
D03*
X6845D02*
D03*
X6896D02*
D03*
X6947D02*
D03*
X6995D02*
D03*
X7046D02*
D03*
X7097D02*
D03*
D93*
X7371Y4186D02*
D03*
X4970D02*
D03*
D94*
X7145Y4453D02*
D03*
D95*
X8705Y2690D02*
D03*
Y3958D02*
D03*
Y5156D02*
D03*
Y6172D02*
D03*
X10400Y4683D02*
D03*
Y3916D02*
D03*
X9550Y5147D02*
D03*
Y5787D02*
D03*
X8700Y4942D02*
D03*
Y4176D02*
D03*
X10400Y5652D02*
D03*
Y4886D02*
D03*
X9550Y3922D02*
D03*
Y4938D02*
D03*
X10400Y2692D02*
D03*
Y3708D02*
D03*
X9550Y2692D02*
D03*
Y3708D02*
D03*
D96*
X8390Y2886D02*
D03*
Y3010D02*
D03*
Y3137D02*
D03*
Y3262D02*
D03*
Y3388D02*
D03*
Y3512D02*
D03*
Y3638D02*
D03*
Y3762D02*
D03*
Y5349D02*
D03*
Y5476D02*
D03*
Y5601D02*
D03*
Y5727D02*
D03*
Y5852D02*
D03*
Y5977D02*
D03*
X10085Y4488D02*
D03*
Y4362D02*
D03*
Y4237D02*
D03*
Y4112D02*
D03*
X9235Y5340D02*
D03*
Y5467D02*
D03*
Y5592D02*
D03*
X8385Y4747D02*
D03*
Y4622D02*
D03*
Y4497D02*
D03*
Y4372D02*
D03*
X10085Y5457D02*
D03*
Y5332D02*
D03*
Y5206D02*
D03*
Y5081D02*
D03*
X9235Y4115D02*
D03*
Y4242D02*
D03*
Y4367D02*
D03*
Y4492D02*
D03*
Y4617D02*
D03*
Y4742D02*
D03*
X10085Y2885D02*
D03*
Y3012D02*
D03*
Y3136D02*
D03*
Y3262D02*
D03*
Y3388D02*
D03*
Y3512D02*
D03*
X9235Y2885D02*
D03*
Y3012D02*
D03*
Y3136D02*
D03*
Y3262D02*
D03*
Y3388D02*
D03*
Y3512D02*
D03*
D97*
X3990Y2860D02*
D03*
Y3060D02*
D03*
Y3260D02*
D03*
Y3462D02*
D03*
Y3662D02*
D03*
Y3860D02*
D03*
Y4500D02*
D03*
Y4700D02*
D03*
Y4900D02*
D03*
Y5102D02*
D03*
Y5302D02*
D03*
Y5500D02*
D03*
D98*
X3525Y2640D02*
D03*
Y4081D02*
D03*
Y4280D02*
D03*
Y5721D02*
D03*
D99*
X5530Y3454D02*
D03*
Y3263D02*
D03*
D100*
X7050Y3420D02*
D03*
X6949D02*
D03*
X7195Y3660D02*
D03*
X7094D02*
D03*
X7233Y3424D02*
D03*
X7132D02*
D03*
D101*
X5593Y2685D02*
D03*
Y2765D02*
D03*
M02*
