G04 Layer_Physical_Order=3*
G04 Layer_Color=16440176*
%FSLAX42Y42*%
%MOMM*%
G71*
G01*
G75*
%ADD26C,0.15*%
%ADD27C,0.15*%
%ADD28C,0.25*%
%ADD29C,0.80*%
%ADD32C,1.52*%
%ADD33C,4.10*%
%ADD34C,2.21*%
%ADD35R,0.41X0.41*%
%ADD37C,1.12*%
%ADD38R,1.12X1.12*%
%ADD39R,0.41X0.41*%
%ADD40C,0.50*%
%ADD41C,1.27*%
G36*
X10782Y2533D02*
X2458D01*
Y6347D01*
X10782D01*
Y2533D01*
D02*
G37*
%LPC*%
G36*
X9290Y3837D02*
X9270Y3834D01*
X9252Y3827D01*
X9236Y3814D01*
X9223Y3798D01*
X9216Y3780D01*
X9213Y3760D01*
X9216Y3740D01*
X9223Y3722D01*
X9236Y3706D01*
X9252Y3693D01*
X9270Y3686D01*
X9290Y3683D01*
X9310Y3686D01*
X9328Y3693D01*
X9344Y3706D01*
X9357Y3722D01*
X9364Y3740D01*
X9367Y3760D01*
X9364Y3780D01*
X9357Y3798D01*
X9344Y3814D01*
X9328Y3827D01*
X9310Y3834D01*
X9290Y3837D01*
D02*
G37*
G36*
X3087Y3791D02*
X3073Y3789D01*
X3049Y3779D01*
X3028Y3762D01*
X3011Y3741D01*
X3001Y3717D01*
X2999Y3703D01*
X3087D01*
Y3791D01*
D02*
G37*
G36*
X3113D02*
Y3703D01*
X3201D01*
X3199Y3717D01*
X3189Y3741D01*
X3172Y3762D01*
X3151Y3779D01*
X3127Y3789D01*
X3113Y3791D01*
D02*
G37*
G36*
X2592Y3780D02*
X2569Y3777D01*
X2547Y3768D01*
X2529Y3753D01*
X2514Y3735D01*
X2505Y3713D01*
X2502Y3690D01*
X2505Y3667D01*
X2514Y3645D01*
X2529Y3627D01*
X2547Y3612D01*
X2569Y3603D01*
X2592Y3600D01*
X2615Y3603D01*
X2637Y3612D01*
X2655Y3627D01*
X2670Y3645D01*
X2679Y3667D01*
X2682Y3690D01*
X2679Y3713D01*
X2670Y3735D01*
X2655Y3753D01*
X2637Y3768D01*
X2615Y3777D01*
X2592Y3780D01*
D02*
G37*
G36*
X2846D02*
X2823Y3777D01*
X2801Y3768D01*
X2783Y3753D01*
X2768Y3735D01*
X2759Y3713D01*
X2756Y3690D01*
X2759Y3667D01*
X2768Y3645D01*
X2783Y3627D01*
X2801Y3612D01*
X2823Y3603D01*
X2846Y3600D01*
X2869Y3603D01*
X2891Y3612D01*
X2909Y3627D01*
X2924Y3645D01*
X2933Y3667D01*
X2936Y3690D01*
X2933Y3713D01*
X2924Y3735D01*
X2909Y3753D01*
X2891Y3768D01*
X2869Y3777D01*
X2846Y3780D01*
D02*
G37*
G36*
X7402Y3671D02*
X7387Y3668D01*
X7374Y3659D01*
X7366Y3647D01*
X7363Y3632D01*
X7364Y3628D01*
X7353Y3620D01*
X7350Y3622D01*
X7336Y3625D01*
X7321Y3622D01*
X7317Y3623D01*
X7315Y3634D01*
X7307Y3647D01*
X7294Y3655D01*
X7280Y3658D01*
X7265Y3655D01*
X7252Y3647D01*
X7244Y3634D01*
X7241Y3619D01*
X7244Y3605D01*
X7252Y3592D01*
X7259Y3588D01*
Y3489D01*
X7144Y3374D01*
X7132Y3376D01*
X7118Y3373D01*
X7105Y3365D01*
X7097Y3352D01*
X7094Y3338D01*
X7097Y3323D01*
X7105Y3310D01*
X7118Y3302D01*
X7132Y3299D01*
X7147Y3302D01*
X7160Y3310D01*
X7168Y3323D01*
X7171Y3338D01*
X7170Y3342D01*
X7294Y3466D01*
X7299Y3473D01*
X7300Y3480D01*
Y3550D01*
X7313Y3556D01*
X7321Y3551D01*
X7336Y3548D01*
X7350Y3551D01*
X7363Y3559D01*
X7371Y3572D01*
X7374Y3586D01*
X7373Y3591D01*
X7385Y3598D01*
X7387Y3597D01*
X7402Y3594D01*
X7416Y3597D01*
X7429Y3605D01*
X7430Y3606D01*
X7443Y3604D01*
X7445Y3595D01*
X7453Y3582D01*
X7460Y3578D01*
Y3537D01*
X7450Y3529D01*
X7438Y3532D01*
X7431Y3543D01*
X7419Y3551D01*
X7404Y3554D01*
X7389Y3551D01*
X7377Y3543D01*
X7369Y3530D01*
X7366Y3515D01*
X7369Y3501D01*
X7377Y3488D01*
X7387Y3481D01*
X7391Y3468D01*
X7338Y3415D01*
X7334Y3408D01*
X7332Y3400D01*
Y3128D01*
X7295Y3090D01*
X7290Y3083D01*
X7289Y3075D01*
Y2887D01*
X7279Y2880D01*
X7270Y2868D01*
X7267Y2853D01*
X7270Y2839D01*
X7279Y2826D01*
X7291Y2818D01*
X7306Y2815D01*
X7321Y2818D01*
X7333Y2826D01*
X7341Y2839D01*
X7344Y2853D01*
X7341Y2868D01*
X7333Y2880D01*
X7330Y2883D01*
Y3038D01*
X7337Y3042D01*
X7343Y3043D01*
X7354Y3035D01*
X7369Y3032D01*
X7383Y3035D01*
X7396Y3044D01*
X7400Y3050D01*
X7411Y3053D01*
X7415Y3052D01*
X7425Y3046D01*
X7440Y3043D01*
X7454Y3046D01*
X7467Y3054D01*
X7475Y3066D01*
X7478Y3081D01*
X7477Y3089D01*
X7520Y3132D01*
X7520Y3132D01*
X7525Y3139D01*
X7526Y3147D01*
X7526Y3147D01*
Y3251D01*
X7539Y3257D01*
X7544Y3254D01*
X7559Y3251D01*
X7574Y3254D01*
X7586Y3262D01*
X7595Y3275D01*
X7597Y3289D01*
X7597Y3291D01*
X7608Y3301D01*
X7616Y3299D01*
X7631Y3302D01*
X7643Y3311D01*
X7651Y3323D01*
X7654Y3338D01*
X7651Y3352D01*
X7643Y3365D01*
X7631Y3373D01*
X7616Y3376D01*
X7601Y3373D01*
X7589Y3365D01*
X7580Y3352D01*
X7577Y3338D01*
X7578Y3336D01*
X7567Y3326D01*
X7559Y3328D01*
X7556Y3327D01*
X7544Y3332D01*
X7541Y3347D01*
X7533Y3360D01*
X7520Y3368D01*
X7506Y3371D01*
X7491Y3368D01*
X7479Y3360D01*
X7470Y3347D01*
X7467Y3332D01*
X7470Y3318D01*
X7479Y3305D01*
X7478Y3302D01*
X7464Y3296D01*
X7459Y3299D01*
X7445Y3302D01*
X7430Y3299D01*
X7418Y3291D01*
X7409Y3279D01*
X7406Y3264D01*
X7408Y3256D01*
X7385Y3233D01*
X7373Y3238D01*
Y3392D01*
X7495Y3513D01*
X7499Y3520D01*
X7501Y3528D01*
X7501Y3528D01*
Y3578D01*
X7507Y3582D01*
X7516Y3595D01*
X7519Y3609D01*
X7516Y3624D01*
X7507Y3637D01*
X7495Y3645D01*
X7480Y3648D01*
X7466Y3645D01*
X7453Y3637D01*
X7452Y3635D01*
X7439Y3638D01*
X7437Y3647D01*
X7429Y3659D01*
X7416Y3668D01*
X7402Y3671D01*
D02*
G37*
G36*
X6116Y3838D02*
X6102Y3835D01*
X6089Y3827D01*
X6081Y3815D01*
X6078Y3800D01*
X6081Y3785D01*
X6089Y3773D01*
X6102Y3764D01*
X6116Y3761D01*
X6131Y3764D01*
X6144Y3773D01*
X6152Y3785D01*
X6155Y3800D01*
X6152Y3815D01*
X6144Y3827D01*
X6131Y3835D01*
X6116Y3838D01*
D02*
G37*
G36*
X6205Y3843D02*
X6191Y3840D01*
X6178Y3832D01*
X6170Y3820D01*
X6167Y3805D01*
X6170Y3790D01*
X6178Y3778D01*
X6191Y3769D01*
X6205Y3766D01*
X6220Y3769D01*
X6232Y3778D01*
X6241Y3790D01*
X6244Y3805D01*
X6241Y3820D01*
X6232Y3832D01*
X6220Y3840D01*
X6205Y3843D01*
D02*
G37*
G36*
X10423Y3832D02*
X10390D01*
Y3799D01*
X10423D01*
Y3832D01*
D02*
G37*
G36*
X7236Y3808D02*
X7222Y3805D01*
X7209Y3797D01*
X7201Y3784D01*
X7198Y3769D01*
X7201Y3755D01*
X7209Y3742D01*
X7222Y3734D01*
X7236Y3731D01*
X7251Y3734D01*
X7264Y3742D01*
X7272Y3755D01*
X7275Y3769D01*
X7272Y3784D01*
X7264Y3797D01*
X7251Y3805D01*
X7236Y3808D01*
D02*
G37*
G36*
X10423Y3774D02*
X10390D01*
Y3741D01*
X10423D01*
Y3774D01*
D02*
G37*
G36*
X10482D02*
X10449D01*
Y3741D01*
X10482D01*
Y3774D01*
D02*
G37*
G36*
X7092Y3544D02*
X7077Y3541D01*
X7064Y3532D01*
X7056Y3520D01*
X7053Y3505D01*
X7056Y3490D01*
X7064Y3478D01*
X7077Y3470D01*
X7092Y3467D01*
X7106Y3470D01*
X7119Y3478D01*
X7127Y3490D01*
X7130Y3505D01*
X7127Y3520D01*
X7119Y3532D01*
X7106Y3541D01*
X7092Y3544D01*
D02*
G37*
G36*
X10421Y3501D02*
X10388D01*
Y3468D01*
X10421D01*
Y3501D01*
D02*
G37*
G36*
X10479D02*
X10446D01*
Y3468D01*
X10479D01*
Y3501D01*
D02*
G37*
G36*
X3087Y3537D02*
X3073Y3535D01*
X3049Y3525D01*
X3028Y3508D01*
X3011Y3487D01*
X3001Y3463D01*
X2999Y3449D01*
X3087D01*
Y3537D01*
D02*
G37*
G36*
X3113D02*
Y3449D01*
X3201D01*
X3199Y3463D01*
X3189Y3487D01*
X3172Y3508D01*
X3151Y3525D01*
X3127Y3535D01*
X3113Y3537D01*
D02*
G37*
G36*
X8353Y3531D02*
X8339Y3528D01*
X8326Y3520D01*
X8318Y3507D01*
X8315Y3492D01*
X8318Y3478D01*
X8326Y3465D01*
X8339Y3457D01*
X8353Y3454D01*
X8368Y3457D01*
X8380Y3465D01*
X8389Y3478D01*
X8392Y3492D01*
X8389Y3507D01*
X8380Y3520D01*
X8368Y3528D01*
X8353Y3531D01*
D02*
G37*
G36*
X10479Y3559D02*
X10446D01*
Y3526D01*
X10479D01*
Y3559D01*
D02*
G37*
G36*
X3087Y3677D02*
X2999D01*
X3001Y3663D01*
X3011Y3639D01*
X3028Y3618D01*
X3049Y3601D01*
X3073Y3591D01*
X3087Y3589D01*
Y3677D01*
D02*
G37*
G36*
X3201D02*
X3113D01*
Y3589D01*
X3127Y3591D01*
X3151Y3601D01*
X3172Y3618D01*
X3189Y3639D01*
X3199Y3663D01*
X3201Y3677D01*
D02*
G37*
G36*
X7602Y3577D02*
X7588Y3574D01*
X7575Y3565D01*
X7567Y3553D01*
X7564Y3538D01*
X7567Y3524D01*
X7575Y3511D01*
X7588Y3503D01*
X7602Y3500D01*
X7617Y3503D01*
X7629Y3511D01*
X7638Y3524D01*
X7641Y3538D01*
X7638Y3553D01*
X7629Y3565D01*
X7617Y3574D01*
X7602Y3577D01*
D02*
G37*
G36*
X7178Y3592D02*
X7163Y3589D01*
X7151Y3581D01*
X7143Y3568D01*
X7140Y3553D01*
X7143Y3539D01*
X7151Y3526D01*
X7163Y3518D01*
X7178Y3515D01*
X7193Y3518D01*
X7205Y3526D01*
X7214Y3539D01*
X7216Y3553D01*
X7214Y3568D01*
X7205Y3581D01*
X7193Y3589D01*
X7178Y3592D01*
D02*
G37*
G36*
X10421Y3559D02*
X10388D01*
Y3526D01*
X10421D01*
Y3559D01*
D02*
G37*
G36*
X3087Y4185D02*
X2999D01*
X3001Y4171D01*
X3011Y4147D01*
X3028Y4126D01*
X3049Y4109D01*
X3073Y4099D01*
X3087Y4097D01*
Y4185D01*
D02*
G37*
G36*
X3201D02*
X3113D01*
Y4097D01*
X3127Y4099D01*
X3151Y4109D01*
X3172Y4126D01*
X3189Y4147D01*
X3199Y4171D01*
X3201Y4185D01*
D02*
G37*
G36*
X2592Y4288D02*
X2569Y4285D01*
X2547Y4276D01*
X2529Y4261D01*
X2514Y4243D01*
X2505Y4221D01*
X2502Y4198D01*
X2505Y4175D01*
X2514Y4153D01*
X2529Y4135D01*
X2547Y4120D01*
X2569Y4111D01*
X2592Y4108D01*
X2615Y4111D01*
X2637Y4120D01*
X2655Y4135D01*
X2670Y4153D01*
X2679Y4175D01*
X2682Y4198D01*
X2679Y4221D01*
X2670Y4243D01*
X2655Y4261D01*
X2637Y4276D01*
X2615Y4285D01*
X2592Y4288D01*
D02*
G37*
G36*
X8214Y5515D02*
X8199Y5512D01*
X8186Y5503D01*
X8178Y5491D01*
X8175Y5476D01*
X8177Y5468D01*
X8174Y5465D01*
X8169Y5459D01*
X8168Y5451D01*
Y4262D01*
X8158Y4252D01*
X8154Y4246D01*
X8152Y4238D01*
Y3971D01*
X8154Y3964D01*
X8158Y3957D01*
X8160Y3955D01*
X8153Y3944D01*
X8150Y3929D01*
X8153Y3915D01*
X8161Y3902D01*
X8160Y3892D01*
X8158Y3884D01*
Y3605D01*
X8145Y3602D01*
X8139Y3611D01*
X8133Y3616D01*
Y3664D01*
X8133Y3664D01*
X8131Y3672D01*
X8127Y3678D01*
X8120Y3685D01*
Y3962D01*
X8122Y3965D01*
X8125Y3980D01*
X8122Y3995D01*
X8114Y4007D01*
X8101Y4016D01*
X8087Y4019D01*
X8072Y4016D01*
X8059Y4007D01*
X8051Y3995D01*
X8048Y3980D01*
X8051Y3965D01*
X8059Y3953D01*
X8072Y3945D01*
X8079Y3943D01*
Y3676D01*
X8080Y3669D01*
X8085Y3662D01*
X8091Y3655D01*
Y3616D01*
X8085Y3611D01*
X8076Y3599D01*
X8074Y3584D01*
X8076Y3569D01*
X8085Y3557D01*
X8097Y3548D01*
X8112Y3546D01*
X8127Y3548D01*
X8139Y3557D01*
X8145Y3566D01*
X8158Y3563D01*
Y3455D01*
X8157Y3453D01*
X8152Y3446D01*
X8151Y3438D01*
X8152Y3431D01*
X8153Y3430D01*
X8150Y3425D01*
X8148Y3417D01*
Y3255D01*
X8141Y3250D01*
X8133Y3238D01*
X8130Y3223D01*
X8133Y3209D01*
X8141Y3196D01*
X8154Y3188D01*
X8169Y3185D01*
X8174Y3186D01*
X8187Y3176D01*
Y3168D01*
X8188Y3160D01*
X8193Y3153D01*
X8255Y3091D01*
X8253Y3084D01*
X8256Y3069D01*
X8265Y3056D01*
X8277Y3048D01*
X8292Y3045D01*
X8306Y3048D01*
X8319Y3056D01*
X8327Y3069D01*
X8330Y3084D01*
X8327Y3098D01*
X8319Y3111D01*
X8306Y3119D01*
X8292Y3122D01*
X8284Y3120D01*
X8228Y3176D01*
Y3190D01*
X8228Y3190D01*
X8233Y3197D01*
X8234Y3205D01*
Y3242D01*
X8233Y3250D01*
X8228Y3257D01*
X8228Y3257D01*
Y3399D01*
X8240Y3411D01*
X8245Y3418D01*
X8246Y3426D01*
Y3463D01*
X8245Y3471D01*
X8240Y3478D01*
X8227Y3491D01*
Y3526D01*
X8240Y3533D01*
X8252Y3530D01*
X8266Y3533D01*
X8279Y3542D01*
X8287Y3554D01*
X8290Y3569D01*
X8287Y3583D01*
X8279Y3596D01*
X8272Y3600D01*
Y3842D01*
X8303Y3873D01*
X8308Y3880D01*
X8309Y3888D01*
Y3971D01*
X8308Y3979D01*
X8307Y3981D01*
X8351Y4025D01*
X8358Y4023D01*
X8373Y4026D01*
X8386Y4034D01*
X8394Y4047D01*
X8397Y4061D01*
X8394Y4076D01*
X8386Y4089D01*
X8373Y4097D01*
X8358Y4100D01*
X8344Y4097D01*
X8331Y4089D01*
X8323Y4076D01*
X8320Y4061D01*
X8321Y4054D01*
X8269Y4001D01*
X8262Y3997D01*
X8251Y4000D01*
X8249Y4003D01*
Y4025D01*
X8258Y4034D01*
X8269Y4036D01*
X8281Y4044D01*
X8290Y4057D01*
X8293Y4072D01*
X8290Y4086D01*
X8281Y4099D01*
X8269Y4107D01*
X8254Y4110D01*
X8239Y4107D01*
X8234Y4104D01*
X8221Y4110D01*
Y4218D01*
X8274Y4270D01*
X8278Y4277D01*
X8280Y4285D01*
Y4621D01*
X8284Y4624D01*
X8292Y4636D01*
X8295Y4651D01*
X8292Y4665D01*
X8284Y4678D01*
X8278Y4682D01*
X8274Y4688D01*
X8267Y4693D01*
X8259Y4694D01*
X8251Y4693D01*
X8245Y4688D01*
X8243Y4686D01*
X8242Y4686D01*
X8230Y4678D01*
X8221Y4665D01*
X8209Y4668D01*
Y5434D01*
X8214Y5438D01*
X8228Y5441D01*
X8241Y5449D01*
X8249Y5462D01*
X8252Y5476D01*
X8249Y5491D01*
X8241Y5503D01*
X8228Y5512D01*
X8214Y5515D01*
D02*
G37*
G36*
X10421Y4069D02*
X10388D01*
Y4036D01*
X10421D01*
Y4069D01*
D02*
G37*
G36*
X10479D02*
X10446D01*
Y4036D01*
X10479D01*
Y4069D01*
D02*
G37*
G36*
X10421Y4248D02*
X10388D01*
Y4215D01*
X10421D01*
Y4248D01*
D02*
G37*
G36*
X10479D02*
X10446D01*
Y4215D01*
X10479D01*
Y4248D01*
D02*
G37*
G36*
X9840Y4308D02*
X9825Y4306D01*
X9813Y4297D01*
X9804Y4285D01*
X9802Y4270D01*
X9804Y4255D01*
X9813Y4243D01*
X9825Y4234D01*
X9840Y4232D01*
X9855Y4234D01*
X9867Y4243D01*
X9876Y4255D01*
X9878Y4270D01*
X9876Y4285D01*
X9867Y4297D01*
X9855Y4306D01*
X9840Y4308D01*
D02*
G37*
G36*
X2846Y4288D02*
X2823Y4285D01*
X2801Y4276D01*
X2783Y4261D01*
X2768Y4243D01*
X2759Y4221D01*
X2756Y4198D01*
X2759Y4175D01*
X2768Y4153D01*
X2783Y4135D01*
X2801Y4120D01*
X2823Y4111D01*
X2846Y4108D01*
X2869Y4111D01*
X2891Y4120D01*
X2909Y4135D01*
X2924Y4153D01*
X2933Y4175D01*
X2936Y4198D01*
X2933Y4221D01*
X2924Y4243D01*
X2909Y4261D01*
X2891Y4276D01*
X2869Y4285D01*
X2846Y4288D01*
D02*
G37*
G36*
X3087Y4299D02*
X3073Y4297D01*
X3049Y4287D01*
X3028Y4270D01*
X3011Y4249D01*
X3001Y4225D01*
X2999Y4211D01*
X3087D01*
Y4299D01*
D02*
G37*
G36*
X3113D02*
Y4211D01*
X3201D01*
X3199Y4225D01*
X3189Y4249D01*
X3172Y4270D01*
X3151Y4287D01*
X3127Y4297D01*
X3113Y4299D01*
D02*
G37*
G36*
X2592Y4034D02*
X2569Y4031D01*
X2547Y4022D01*
X2529Y4007D01*
X2514Y3989D01*
X2505Y3967D01*
X2502Y3944D01*
X2505Y3921D01*
X2514Y3899D01*
X2529Y3881D01*
X2547Y3866D01*
X2569Y3857D01*
X2592Y3854D01*
X2615Y3857D01*
X2637Y3866D01*
X2655Y3881D01*
X2670Y3899D01*
X2679Y3921D01*
X2682Y3944D01*
X2679Y3967D01*
X2670Y3989D01*
X2655Y4007D01*
X2637Y4022D01*
X2615Y4031D01*
X2592Y4034D01*
D02*
G37*
G36*
X2846D02*
X2823Y4031D01*
X2801Y4022D01*
X2783Y4007D01*
X2768Y3989D01*
X2759Y3967D01*
X2756Y3944D01*
X2759Y3921D01*
X2768Y3899D01*
X2783Y3881D01*
X2801Y3866D01*
X2823Y3857D01*
X2846Y3854D01*
X2869Y3857D01*
X2891Y3866D01*
X2909Y3881D01*
X2924Y3899D01*
X2933Y3921D01*
X2936Y3944D01*
X2933Y3967D01*
X2924Y3989D01*
X2909Y4007D01*
X2891Y4022D01*
X2869Y4031D01*
X2846Y4034D01*
D02*
G37*
G36*
X5144Y3932D02*
X5129Y3929D01*
X5116Y3921D01*
X5108Y3909D01*
X5105Y3894D01*
X5108Y3879D01*
X5116Y3867D01*
X5129Y3858D01*
X5144Y3855D01*
X5158Y3858D01*
X5171Y3867D01*
X5179Y3879D01*
X5182Y3894D01*
X5179Y3909D01*
X5171Y3921D01*
X5158Y3929D01*
X5144Y3932D01*
D02*
G37*
G36*
X10482Y3832D02*
X10449D01*
Y3799D01*
X10482D01*
Y3832D01*
D02*
G37*
G36*
X3087Y3931D02*
X2999D01*
X3001Y3917D01*
X3011Y3893D01*
X3028Y3872D01*
X3049Y3855D01*
X3073Y3845D01*
X3087Y3843D01*
Y3931D01*
D02*
G37*
G36*
X3201D02*
X3113D01*
Y3843D01*
X3127Y3845D01*
X3151Y3855D01*
X3172Y3872D01*
X3189Y3893D01*
X3199Y3917D01*
X3201Y3931D01*
D02*
G37*
G36*
X10421Y4011D02*
X10388D01*
Y3978D01*
X10421D01*
Y4011D01*
D02*
G37*
G36*
X10479D02*
X10446D01*
Y3978D01*
X10479D01*
Y4011D01*
D02*
G37*
G36*
X5154Y4100D02*
X5139Y4097D01*
X5126Y4089D01*
X5118Y4076D01*
X5115Y4061D01*
X5118Y4047D01*
X5126Y4034D01*
X5139Y4026D01*
X5154Y4023D01*
X5168Y4026D01*
X5181Y4034D01*
X5189Y4047D01*
X5192Y4061D01*
X5189Y4076D01*
X5181Y4089D01*
X5168Y4097D01*
X5154Y4100D01*
D02*
G37*
G36*
X3087Y4045D02*
X3073Y4043D01*
X3049Y4033D01*
X3028Y4016D01*
X3011Y3995D01*
X3001Y3971D01*
X2999Y3957D01*
X3087D01*
Y4045D01*
D02*
G37*
G36*
X3113D02*
Y3957D01*
X3201D01*
X3199Y3971D01*
X3189Y3995D01*
X3172Y4016D01*
X3151Y4033D01*
X3127Y4043D01*
X3113Y4045D01*
D02*
G37*
G36*
X10240Y4048D02*
X10225Y4046D01*
X10213Y4037D01*
X10204Y4025D01*
X10202Y4010D01*
X10204Y3995D01*
X10213Y3983D01*
X10225Y3974D01*
X10240Y3972D01*
X10255Y3974D01*
X10267Y3983D01*
X10276Y3995D01*
X10278Y4010D01*
X10276Y4025D01*
X10267Y4037D01*
X10255Y4046D01*
X10240Y4048D01*
D02*
G37*
G36*
X2846Y3018D02*
X2823Y3015D01*
X2801Y3006D01*
X2783Y2991D01*
X2768Y2973D01*
X2759Y2951D01*
X2756Y2928D01*
X2759Y2905D01*
X2768Y2883D01*
X2783Y2865D01*
X2801Y2850D01*
X2823Y2841D01*
X2846Y2838D01*
X2869Y2841D01*
X2891Y2850D01*
X2909Y2865D01*
X2924Y2883D01*
X2933Y2905D01*
X2936Y2928D01*
X2933Y2951D01*
X2924Y2973D01*
X2909Y2991D01*
X2891Y3006D01*
X2869Y3015D01*
X2846Y3018D01*
D02*
G37*
G36*
X6431Y2924D02*
X6417Y2921D01*
X6404Y2913D01*
X6396Y2900D01*
X6393Y2885D01*
X6396Y2871D01*
X6404Y2858D01*
X6417Y2850D01*
X6431Y2847D01*
X6446Y2850D01*
X6458Y2858D01*
X6467Y2871D01*
X6470Y2885D01*
X6467Y2900D01*
X6458Y2913D01*
X6446Y2921D01*
X6431Y2924D01*
D02*
G37*
G36*
X3901Y2941D02*
X3867D01*
Y2908D01*
X3901D01*
Y2941D01*
D02*
G37*
G36*
X3201Y2915D02*
X3113D01*
Y2827D01*
X3127Y2829D01*
X3151Y2839D01*
X3172Y2856D01*
X3189Y2877D01*
X3199Y2901D01*
X3201Y2915D01*
D02*
G37*
G36*
X5484Y2909D02*
X5469Y2906D01*
X5457Y2897D01*
X5448Y2885D01*
X5445Y2870D01*
X5448Y2855D01*
X5457Y2843D01*
X5469Y2835D01*
X5484Y2832D01*
X5499Y2835D01*
X5511Y2843D01*
X5519Y2855D01*
X5522Y2870D01*
X5519Y2885D01*
X5511Y2897D01*
X5499Y2906D01*
X5484Y2909D01*
D02*
G37*
G36*
X2592Y3018D02*
X2569Y3015D01*
X2547Y3006D01*
X2529Y2991D01*
X2514Y2973D01*
X2505Y2951D01*
X2502Y2928D01*
X2505Y2905D01*
X2514Y2883D01*
X2529Y2865D01*
X2547Y2850D01*
X2569Y2841D01*
X2592Y2838D01*
X2615Y2841D01*
X2637Y2850D01*
X2655Y2865D01*
X2670Y2883D01*
X2679Y2905D01*
X2682Y2928D01*
X2679Y2951D01*
X2670Y2973D01*
X2655Y2991D01*
X2637Y3006D01*
X2615Y3015D01*
X2592Y3018D01*
D02*
G37*
G36*
X3113Y3029D02*
Y2941D01*
X3201D01*
X3199Y2955D01*
X3189Y2979D01*
X3172Y3000D01*
X3151Y3017D01*
X3127Y3027D01*
X3113Y3029D01*
D02*
G37*
G36*
X3901Y3000D02*
X3867D01*
Y2967D01*
X3901D01*
Y3000D01*
D02*
G37*
G36*
X3959D02*
X3926D01*
Y2967D01*
X3959D01*
Y3000D01*
D02*
G37*
G36*
Y2941D02*
X3926D01*
Y2908D01*
X3959D01*
Y2941D01*
D02*
G37*
G36*
X7930Y2998D02*
X7915Y2996D01*
X7903Y2987D01*
X7894Y2975D01*
X7892Y2960D01*
X7894Y2945D01*
X7903Y2933D01*
X7915Y2924D01*
X7930Y2922D01*
X7945Y2924D01*
X7957Y2933D01*
X7965Y2945D01*
X7968Y2960D01*
X7965Y2975D01*
X7957Y2987D01*
X7945Y2996D01*
X7930Y2998D01*
D02*
G37*
G36*
X3087Y3029D02*
X3073Y3027D01*
X3049Y3017D01*
X3028Y3000D01*
X3011Y2979D01*
X3001Y2955D01*
X2999Y2941D01*
X3087D01*
Y3029D01*
D02*
G37*
G36*
X2846Y2764D02*
X2823Y2761D01*
X2801Y2752D01*
X2783Y2737D01*
X2768Y2719D01*
X2759Y2697D01*
X2756Y2674D01*
X2759Y2651D01*
X2768Y2629D01*
X2783Y2611D01*
X2801Y2596D01*
X2823Y2587D01*
X2846Y2584D01*
X2869Y2587D01*
X2891Y2596D01*
X2909Y2611D01*
X2924Y2629D01*
X2933Y2651D01*
X2936Y2674D01*
X2933Y2697D01*
X2924Y2719D01*
X2909Y2737D01*
X2891Y2752D01*
X2869Y2761D01*
X2846Y2764D01*
D02*
G37*
G36*
X6076Y2665D02*
X6061Y2662D01*
X6049Y2654D01*
X6040Y2641D01*
X6037Y2626D01*
X6040Y2612D01*
X6049Y2599D01*
X6061Y2591D01*
X6076Y2588D01*
X6090Y2591D01*
X6103Y2599D01*
X6111Y2612D01*
X6114Y2626D01*
X6111Y2641D01*
X6103Y2654D01*
X6090Y2662D01*
X6076Y2665D01*
D02*
G37*
G36*
X6274Y2710D02*
X6260Y2707D01*
X6247Y2699D01*
X6239Y2686D01*
X6236Y2672D01*
X6239Y2657D01*
X6247Y2644D01*
X6260Y2636D01*
X6274Y2633D01*
X6289Y2636D01*
X6301Y2644D01*
X6310Y2657D01*
X6313Y2672D01*
X6310Y2686D01*
X6301Y2699D01*
X6289Y2707D01*
X6274Y2710D01*
D02*
G37*
G36*
X3087Y2661D02*
X2999D01*
X3001Y2647D01*
X3011Y2623D01*
X3028Y2602D01*
X3049Y2585D01*
X3073Y2575D01*
X3087Y2573D01*
Y2661D01*
D02*
G37*
G36*
X3201D02*
X3113D01*
Y2573D01*
X3127Y2575D01*
X3151Y2585D01*
X3172Y2602D01*
X3189Y2623D01*
X3199Y2647D01*
X3201Y2661D01*
D02*
G37*
G36*
X2592Y2764D02*
X2569Y2761D01*
X2547Y2752D01*
X2529Y2737D01*
X2514Y2719D01*
X2505Y2697D01*
X2502Y2674D01*
X2505Y2651D01*
X2514Y2629D01*
X2529Y2611D01*
X2547Y2596D01*
X2569Y2587D01*
X2592Y2584D01*
X2615Y2587D01*
X2637Y2596D01*
X2655Y2611D01*
X2670Y2629D01*
X2679Y2651D01*
X2682Y2674D01*
X2679Y2697D01*
X2670Y2719D01*
X2655Y2737D01*
X2637Y2752D01*
X2615Y2761D01*
X2592Y2764D01*
D02*
G37*
G36*
X8070Y2898D02*
X8055Y2896D01*
X8043Y2887D01*
X8034Y2875D01*
X8032Y2860D01*
X8034Y2845D01*
X8043Y2833D01*
X8055Y2824D01*
X8070Y2822D01*
X8085Y2824D01*
X8097Y2833D01*
X8106Y2845D01*
X8108Y2860D01*
X8106Y2875D01*
X8097Y2887D01*
X8085Y2896D01*
X8070Y2898D01*
D02*
G37*
G36*
X7081Y2904D02*
X7066Y2901D01*
X7053Y2892D01*
X7045Y2880D01*
X7042Y2865D01*
X7045Y2850D01*
X7053Y2838D01*
X7066Y2830D01*
X7081Y2827D01*
X7095Y2830D01*
X7108Y2838D01*
X7116Y2850D01*
X7119Y2865D01*
X7116Y2880D01*
X7108Y2892D01*
X7095Y2901D01*
X7081Y2904D01*
D02*
G37*
G36*
X3087Y2915D02*
X2999D01*
X3001Y2901D01*
X3011Y2877D01*
X3028Y2856D01*
X3049Y2839D01*
X3073Y2829D01*
X3087Y2827D01*
Y2915D01*
D02*
G37*
G36*
Y2775D02*
X3073Y2773D01*
X3049Y2763D01*
X3028Y2746D01*
X3011Y2725D01*
X3001Y2701D01*
X2999Y2687D01*
X3087D01*
Y2775D01*
D02*
G37*
G36*
X3113D02*
Y2687D01*
X3201D01*
X3199Y2701D01*
X3189Y2725D01*
X3172Y2746D01*
X3151Y2763D01*
X3127Y2773D01*
X3113Y2775D01*
D02*
G37*
G36*
X9133Y2795D02*
X9119Y2792D01*
X9106Y2784D01*
X9098Y2771D01*
X9095Y2757D01*
X9098Y2742D01*
X9106Y2729D01*
X9119Y2721D01*
X9133Y2718D01*
X9148Y2721D01*
X9160Y2729D01*
X9169Y2742D01*
X9172Y2757D01*
X9169Y2771D01*
X9160Y2784D01*
X9148Y2792D01*
X9133Y2795D01*
D02*
G37*
G36*
X9540Y3361D02*
X9525Y3358D01*
X9513Y3350D01*
X9504Y3338D01*
X9501Y3323D01*
X9504Y3308D01*
X9513Y3296D01*
X9525Y3287D01*
X9540Y3285D01*
X9554Y3287D01*
X9567Y3296D01*
X9575Y3308D01*
X9578Y3323D01*
X9575Y3338D01*
X9567Y3350D01*
X9554Y3358D01*
X9540Y3361D01*
D02*
G37*
G36*
X3087Y3423D02*
X2999D01*
X3001Y3409D01*
X3011Y3385D01*
X3028Y3364D01*
X3049Y3347D01*
X3073Y3337D01*
X3087Y3335D01*
Y3423D01*
D02*
G37*
G36*
X3201D02*
X3113D01*
Y3335D01*
X3127Y3337D01*
X3151Y3347D01*
X3172Y3364D01*
X3189Y3385D01*
X3199Y3409D01*
X3201Y3423D01*
D02*
G37*
G36*
X9128Y3311D02*
X9114Y3308D01*
X9101Y3299D01*
X9093Y3287D01*
X9090Y3272D01*
X9093Y3257D01*
X9101Y3245D01*
X9114Y3237D01*
X9128Y3234D01*
X9143Y3237D01*
X9155Y3245D01*
X9164Y3257D01*
X9167Y3272D01*
X9164Y3287D01*
X9155Y3299D01*
X9143Y3308D01*
X9128Y3311D01*
D02*
G37*
G36*
X7704Y3315D02*
X7689Y3312D01*
X7677Y3304D01*
X7668Y3291D01*
X7665Y3277D01*
X7668Y3262D01*
X7677Y3249D01*
X7689Y3241D01*
X7704Y3238D01*
X7719Y3241D01*
X7731Y3249D01*
X7739Y3262D01*
X7742Y3277D01*
X7739Y3291D01*
X7731Y3304D01*
X7719Y3312D01*
X7704Y3315D01*
D02*
G37*
G36*
X7224Y3343D02*
X7209Y3340D01*
X7197Y3332D01*
X7188Y3319D01*
X7185Y3305D01*
X7188Y3290D01*
X7197Y3277D01*
X7209Y3269D01*
X7224Y3266D01*
X7239Y3269D01*
X7251Y3277D01*
X7259Y3290D01*
X7262Y3305D01*
X7259Y3319D01*
X7251Y3332D01*
X7239Y3340D01*
X7224Y3343D01*
D02*
G37*
G36*
X9852Y3468D02*
X9837Y3465D01*
X9825Y3457D01*
X9817Y3444D01*
X9814Y3430D01*
X9817Y3415D01*
X9825Y3402D01*
X9837Y3394D01*
X9852Y3391D01*
X9867Y3394D01*
X9879Y3402D01*
X9888Y3415D01*
X9891Y3430D01*
X9888Y3444D01*
X9879Y3457D01*
X9867Y3465D01*
X9852Y3468D01*
D02*
G37*
G36*
X7813Y3473D02*
X7798Y3470D01*
X7786Y3461D01*
X7778Y3449D01*
X7775Y3434D01*
X7778Y3419D01*
X7786Y3407D01*
X7798Y3399D01*
X7813Y3396D01*
X7828Y3399D01*
X7840Y3407D01*
X7849Y3419D01*
X7851Y3434D01*
X7849Y3449D01*
X7840Y3461D01*
X7828Y3470D01*
X7813Y3473D01*
D02*
G37*
G36*
X10225Y3493D02*
X10211Y3491D01*
X10198Y3482D01*
X10190Y3470D01*
X10187Y3455D01*
X10190Y3440D01*
X10198Y3428D01*
X10211Y3420D01*
X10225Y3417D01*
X10240Y3420D01*
X10253Y3428D01*
X10261Y3440D01*
X10264Y3455D01*
X10261Y3470D01*
X10253Y3482D01*
X10240Y3491D01*
X10225Y3493D01*
D02*
G37*
G36*
X2592Y3526D02*
X2569Y3523D01*
X2547Y3514D01*
X2529Y3499D01*
X2514Y3481D01*
X2505Y3459D01*
X2502Y3436D01*
X2505Y3413D01*
X2514Y3391D01*
X2529Y3373D01*
X2547Y3358D01*
X2569Y3349D01*
X2592Y3346D01*
X2615Y3349D01*
X2637Y3358D01*
X2655Y3373D01*
X2670Y3391D01*
X2679Y3413D01*
X2682Y3436D01*
X2679Y3459D01*
X2670Y3481D01*
X2655Y3499D01*
X2637Y3514D01*
X2615Y3523D01*
X2592Y3526D01*
D02*
G37*
G36*
X2846D02*
X2823Y3523D01*
X2801Y3514D01*
X2783Y3499D01*
X2768Y3481D01*
X2759Y3459D01*
X2756Y3436D01*
X2759Y3413D01*
X2768Y3391D01*
X2783Y3373D01*
X2801Y3358D01*
X2823Y3349D01*
X2846Y3346D01*
X2869Y3349D01*
X2891Y3358D01*
X2909Y3373D01*
X2924Y3391D01*
X2933Y3413D01*
X2936Y3436D01*
X2933Y3459D01*
X2924Y3481D01*
X2909Y3499D01*
X2891Y3514D01*
X2869Y3523D01*
X2846Y3526D01*
D02*
G37*
G36*
X9375Y4802D02*
X9360Y4799D01*
X9347Y4790D01*
X9339Y4778D01*
X9336Y4763D01*
X9339Y4748D01*
X9347Y4736D01*
X9349Y4735D01*
Y4615D01*
X9351Y4605D01*
X9356Y4597D01*
X9390Y4564D01*
X9386Y4550D01*
X9385Y4550D01*
X9373Y4541D01*
X9364Y4529D01*
X9362Y4514D01*
X9364Y4500D01*
X9373Y4487D01*
X9385Y4479D01*
X9400Y4476D01*
X9415Y4479D01*
X9427Y4487D01*
X9436Y4500D01*
X9436Y4500D01*
X9449Y4504D01*
X10123Y3830D01*
X10132Y3824D01*
X10138Y3823D01*
X10196Y3765D01*
X10204Y3760D01*
X10214Y3758D01*
X10234D01*
X10299Y3693D01*
Y3456D01*
X10297Y3455D01*
X10289Y3443D01*
X10286Y3428D01*
X10289Y3413D01*
X10297Y3401D01*
X10310Y3392D01*
X10325Y3390D01*
X10339Y3392D01*
X10352Y3401D01*
X10360Y3413D01*
X10363Y3428D01*
X10360Y3443D01*
X10352Y3455D01*
X10350Y3456D01*
Y3704D01*
X10348Y3714D01*
X10343Y3722D01*
X10263Y3802D01*
X10255Y3808D01*
X10245Y3809D01*
X10225D01*
X10172Y3862D01*
X10164Y3868D01*
X10158Y3869D01*
X9400Y4626D01*
Y4735D01*
X9402Y4736D01*
X9410Y4748D01*
X9413Y4763D01*
X9410Y4778D01*
X9402Y4790D01*
X9389Y4799D01*
X9375Y4802D01*
D02*
G37*
G36*
X5486Y3165D02*
X5472Y3162D01*
X5459Y3154D01*
X5451Y3141D01*
X5448Y3127D01*
X5451Y3112D01*
X5459Y3100D01*
X5472Y3091D01*
X5486Y3088D01*
X5501Y3091D01*
X5514Y3100D01*
X5522Y3112D01*
X5525Y3127D01*
X5522Y3141D01*
X5514Y3154D01*
X5501Y3162D01*
X5486Y3165D01*
D02*
G37*
G36*
X2592Y3272D02*
X2569Y3269D01*
X2547Y3260D01*
X2529Y3245D01*
X2514Y3227D01*
X2505Y3205D01*
X2502Y3182D01*
X2505Y3159D01*
X2514Y3137D01*
X2529Y3119D01*
X2547Y3104D01*
X2569Y3095D01*
X2592Y3092D01*
X2615Y3095D01*
X2637Y3104D01*
X2655Y3119D01*
X2670Y3137D01*
X2679Y3159D01*
X2682Y3182D01*
X2679Y3205D01*
X2670Y3227D01*
X2655Y3245D01*
X2637Y3260D01*
X2615Y3269D01*
X2592Y3272D01*
D02*
G37*
G36*
X2846D02*
X2823Y3269D01*
X2801Y3260D01*
X2783Y3245D01*
X2768Y3227D01*
X2759Y3205D01*
X2756Y3182D01*
X2759Y3159D01*
X2768Y3137D01*
X2783Y3119D01*
X2801Y3104D01*
X2823Y3095D01*
X2846Y3092D01*
X2869Y3095D01*
X2891Y3104D01*
X2909Y3119D01*
X2924Y3137D01*
X2933Y3159D01*
X2936Y3182D01*
X2933Y3205D01*
X2924Y3227D01*
X2909Y3245D01*
X2891Y3260D01*
X2869Y3269D01*
X2846Y3272D01*
D02*
G37*
G36*
X6050Y3269D02*
X6036Y3266D01*
X6023Y3258D01*
X6015Y3246D01*
X6012Y3231D01*
X6015Y3216D01*
X6023Y3204D01*
X6036Y3195D01*
X6050Y3192D01*
X6065Y3195D01*
X6077Y3204D01*
X6078Y3205D01*
X6122D01*
X6129Y3194D01*
X6129Y3192D01*
X6126Y3178D01*
X6129Y3163D01*
X6137Y3150D01*
X6150Y3142D01*
X6165Y3139D01*
X6179Y3142D01*
X6192Y3150D01*
X6200Y3163D01*
X6203Y3178D01*
X6203Y3179D01*
X6215Y3185D01*
X6228Y3172D01*
Y3060D01*
X6227Y3059D01*
X6226Y3051D01*
Y2913D01*
X6221Y2910D01*
X6213Y2898D01*
X6210Y2883D01*
X6213Y2868D01*
X6221Y2856D01*
X6234Y2847D01*
X6248Y2844D01*
X6263Y2847D01*
X6276Y2856D01*
X6284Y2868D01*
X6287Y2883D01*
X6284Y2898D01*
X6276Y2910D01*
X6267Y2916D01*
Y2990D01*
X6280Y2997D01*
X6292Y2994D01*
X6306Y2997D01*
X6319Y3006D01*
X6327Y3018D01*
X6330Y3033D01*
X6327Y3047D01*
X6319Y3060D01*
X6306Y3068D01*
X6292Y3071D01*
X6282Y3069D01*
X6269Y3077D01*
Y3180D01*
X6269Y3180D01*
X6267Y3188D01*
X6263Y3195D01*
X6263Y3195D01*
X6218Y3240D01*
X6211Y3244D01*
X6203Y3246D01*
X6086D01*
X6077Y3258D01*
X6065Y3266D01*
X6050Y3269D01*
D02*
G37*
G36*
X3087Y3169D02*
X2999D01*
X3001Y3155D01*
X3011Y3131D01*
X3028Y3110D01*
X3049Y3093D01*
X3073Y3083D01*
X3087Y3081D01*
Y3169D01*
D02*
G37*
G36*
X3201D02*
X3113D01*
Y3081D01*
X3127Y3083D01*
X3151Y3093D01*
X3172Y3110D01*
X3189Y3131D01*
X3199Y3155D01*
X3201Y3169D01*
D02*
G37*
G36*
X7668Y5188D02*
X7648Y5186D01*
X7630Y5178D01*
X7614Y5166D01*
X7602Y5150D01*
X7594Y5131D01*
X7591Y5112D01*
X7594Y5092D01*
X7602Y5073D01*
X7614Y5057D01*
X7630Y5045D01*
X7648Y5037D01*
X7668Y5035D01*
X7669Y5035D01*
X7782Y4922D01*
Y3662D01*
X7786Y3641D01*
X7798Y3624D01*
X7800Y3623D01*
X7869Y3554D01*
Y3322D01*
X7865Y3319D01*
X7856Y3307D01*
X7853Y3292D01*
X7856Y3277D01*
X7865Y3265D01*
X7877Y3256D01*
X7883Y3255D01*
X7884Y3254D01*
X8237Y2901D01*
X8255Y2889D01*
X8275Y2885D01*
X8433D01*
X8453Y2889D01*
X8471Y2901D01*
X8592Y3022D01*
X8842D01*
X8999Y2865D01*
X9017Y2854D01*
X9037Y2849D01*
X9150D01*
X9342Y2657D01*
X9360Y2645D01*
X9380Y2641D01*
X10201D01*
X10221Y2645D01*
X10239Y2657D01*
X10559Y2977D01*
X10560Y2977D01*
X10580Y2980D01*
X10598Y2988D01*
X10614Y3000D01*
X10627Y3016D01*
X10634Y3034D01*
X10637Y3054D01*
X10634Y3074D01*
X10627Y3093D01*
X10614Y3109D01*
X10598Y3121D01*
X10580Y3128D01*
X10560Y3131D01*
X10540Y3128D01*
X10522Y3121D01*
X10506Y3109D01*
X10493Y3093D01*
X10486Y3074D01*
X10483Y3054D01*
X10483Y3053D01*
X10178Y2749D01*
X9917D01*
X9913Y2761D01*
X9915Y2762D01*
X9923Y2775D01*
X9926Y2790D01*
X9923Y2804D01*
X9915Y2817D01*
X9902Y2825D01*
X9888Y2828D01*
X9873Y2825D01*
X9861Y2817D01*
X9852Y2804D01*
X9849Y2790D01*
X9852Y2775D01*
X9861Y2762D01*
X9862Y2761D01*
X9858Y2749D01*
X9710D01*
X9706Y2761D01*
X9712Y2765D01*
X9720Y2777D01*
X9723Y2792D01*
X9720Y2807D01*
X9712Y2819D01*
X9699Y2828D01*
X9684Y2831D01*
X9670Y2828D01*
X9657Y2819D01*
X9649Y2807D01*
X9646Y2792D01*
X9649Y2777D01*
X9657Y2765D01*
X9663Y2761D01*
X9659Y2749D01*
X9402D01*
X9210Y2941D01*
X9193Y2953D01*
X9172Y2957D01*
X9060D01*
X8903Y3114D01*
X8885Y3126D01*
X8865Y3130D01*
X8842D01*
X8836Y3142D01*
X8839Y3148D01*
X8842Y3162D01*
X8841Y3170D01*
X8873Y3203D01*
X8877D01*
X8888Y3195D01*
X8903Y3192D01*
X8917Y3195D01*
X8930Y3204D01*
X8938Y3216D01*
X8941Y3231D01*
X8938Y3246D01*
X8930Y3258D01*
X8917Y3266D01*
X8903Y3269D01*
X8888Y3266D01*
X8876Y3258D01*
X8867Y3246D01*
X8867Y3244D01*
X8865D01*
X8857Y3242D01*
X8850Y3238D01*
X8811Y3199D01*
X8804Y3201D01*
X8789Y3198D01*
X8776Y3189D01*
X8768Y3177D01*
X8765Y3162D01*
X8768Y3148D01*
X8772Y3142D01*
X8765Y3130D01*
X8739D01*
X8732Y3142D01*
X8732Y3143D01*
X8735Y3157D01*
X8732Y3172D01*
X8724Y3184D01*
X8718Y3189D01*
Y3225D01*
X8718Y3225D01*
X8716Y3233D01*
X8712Y3240D01*
X8658Y3293D01*
Y3804D01*
X8657Y3812D01*
X8652Y3819D01*
X8605Y3866D01*
Y4487D01*
X8612Y4491D01*
X8620Y4504D01*
X8623Y4519D01*
X8620Y4533D01*
X8612Y4546D01*
X8599Y4554D01*
X8584Y4557D01*
X8570Y4554D01*
X8557Y4546D01*
X8549Y4533D01*
X8546Y4519D01*
X8549Y4504D01*
X8557Y4491D01*
X8564Y4487D01*
Y4317D01*
X8559Y4313D01*
X8551Y4311D01*
X8541Y4318D01*
X8526Y4321D01*
X8511Y4318D01*
X8499Y4310D01*
X8490Y4297D01*
X8488Y4282D01*
X8489Y4273D01*
X8456Y4239D01*
X8451Y4232D01*
X8450Y4224D01*
Y3165D01*
X8451Y3157D01*
X8456Y3150D01*
X8464Y3142D01*
X8462Y3134D01*
X8465Y3120D01*
X8473Y3107D01*
X8486Y3099D01*
X8497Y3097D01*
X8502Y3086D01*
X8502Y3084D01*
X8411Y2993D01*
X8298D01*
X7976Y3314D01*
Y3576D01*
X7972Y3597D01*
X7960Y3614D01*
X7890Y3685D01*
Y4944D01*
X7886Y4965D01*
X7874Y4982D01*
X7745Y5111D01*
X7745Y5112D01*
X7742Y5131D01*
X7735Y5150D01*
X7723Y5166D01*
X7707Y5178D01*
X7688Y5186D01*
X7668Y5188D01*
D02*
G37*
G36*
X3087Y3283D02*
X3073Y3281D01*
X3049Y3271D01*
X3028Y3254D01*
X3011Y3233D01*
X3001Y3209D01*
X2999Y3195D01*
X3087D01*
Y3283D01*
D02*
G37*
G36*
X3113D02*
Y3195D01*
X3201D01*
X3199Y3209D01*
X3189Y3233D01*
X3172Y3254D01*
X3151Y3271D01*
X3127Y3281D01*
X3113Y3283D01*
D02*
G37*
G36*
X7099Y3277D02*
X7085Y3274D01*
X7072Y3266D01*
X7064Y3253D01*
X7061Y3238D01*
X7064Y3224D01*
X7072Y3211D01*
X7085Y3203D01*
X7099Y3200D01*
Y3168D01*
X7098Y3167D01*
X7089Y3154D01*
X7086Y3139D01*
X7088Y3129D01*
X7081Y3120D01*
X7079Y3118D01*
X7071Y3119D01*
X7057Y3117D01*
X7044Y3108D01*
X7036Y3096D01*
X7033Y3081D01*
X7036Y3066D01*
X7044Y3054D01*
X7057Y3046D01*
X7071Y3043D01*
X7086Y3046D01*
X7099Y3054D01*
X7107Y3066D01*
X7110Y3081D01*
X7108Y3091D01*
X7116Y3101D01*
X7118Y3101D01*
X7120Y3101D01*
X7122Y3102D01*
X7125Y3101D01*
X7139Y3104D01*
X7152Y3112D01*
X7160Y3125D01*
X7163Y3139D01*
X7160Y3154D01*
X7152Y3167D01*
X7140Y3174D01*
Y3233D01*
X7139Y3241D01*
X7137Y3244D01*
X7135Y3253D01*
X7126Y3266D01*
X7114Y3274D01*
X7099Y3277D01*
D02*
G37*
G36*
X9578Y3272D02*
X9563Y3270D01*
X9551Y3261D01*
X9542Y3249D01*
X9539Y3234D01*
X9542Y3219D01*
X9551Y3207D01*
X9563Y3199D01*
X9564Y3197D01*
X9567Y3185D01*
X9560Y3175D01*
X9557Y3160D01*
X9560Y3146D01*
X9568Y3133D01*
X9581Y3125D01*
X9596Y3122D01*
X9610Y3125D01*
X9623Y3133D01*
X9631Y3146D01*
X9634Y3160D01*
X9631Y3175D01*
X9623Y3188D01*
X9610Y3196D01*
X9609Y3198D01*
X9607Y3210D01*
X9613Y3219D01*
X9616Y3234D01*
X9613Y3249D01*
X9605Y3261D01*
X9593Y3270D01*
X9578Y3272D01*
D02*
G37*
G36*
X5649Y3292D02*
X5634Y3289D01*
X5622Y3281D01*
X5613Y3268D01*
X5611Y3254D01*
X5613Y3239D01*
X5622Y3227D01*
X5628Y3222D01*
Y3152D01*
X5616Y3145D01*
X5603Y3147D01*
X5589Y3144D01*
X5576Y3136D01*
X5568Y3124D01*
X5565Y3109D01*
X5568Y3094D01*
X5576Y3082D01*
X5589Y3073D01*
X5603Y3071D01*
X5616Y3073D01*
X5628Y3066D01*
Y2893D01*
X5616Y2889D01*
X5610Y2897D01*
X5598Y2906D01*
X5583Y2909D01*
X5568Y2906D01*
X5556Y2897D01*
X5547Y2885D01*
X5544Y2870D01*
X5547Y2855D01*
X5556Y2843D01*
X5568Y2835D01*
X5583Y2832D01*
X5598Y2835D01*
X5610Y2843D01*
X5618Y2855D01*
X5621Y2868D01*
X5629Y2871D01*
X5634Y2871D01*
X5634Y2870D01*
X5898Y2607D01*
X5897Y2599D01*
X5900Y2584D01*
X5908Y2572D01*
X5920Y2563D01*
X5935Y2560D01*
X5950Y2563D01*
X5962Y2572D01*
X5971Y2584D01*
X5973Y2599D01*
X5971Y2613D01*
X5962Y2626D01*
X5950Y2634D01*
X5935Y2637D01*
X5927Y2636D01*
X5670Y2893D01*
Y3222D01*
X5676Y3227D01*
X5684Y3239D01*
X5687Y3254D01*
X5684Y3268D01*
X5676Y3281D01*
X5664Y3289D01*
X5649Y3292D01*
D02*
G37*
G36*
X2592Y5558D02*
X2569Y5555D01*
X2547Y5546D01*
X2529Y5531D01*
X2514Y5513D01*
X2505Y5491D01*
X2502Y5468D01*
X2505Y5445D01*
X2514Y5423D01*
X2529Y5405D01*
X2547Y5390D01*
X2569Y5381D01*
X2592Y5378D01*
X2615Y5381D01*
X2637Y5390D01*
X2655Y5405D01*
X2670Y5423D01*
X2679Y5445D01*
X2682Y5468D01*
X2679Y5491D01*
X2670Y5513D01*
X2655Y5531D01*
X2637Y5546D01*
X2615Y5555D01*
X2592Y5558D01*
D02*
G37*
G36*
X2846D02*
X2823Y5555D01*
X2801Y5546D01*
X2783Y5531D01*
X2768Y5513D01*
X2759Y5491D01*
X2756Y5468D01*
X2759Y5445D01*
X2768Y5423D01*
X2783Y5405D01*
X2801Y5390D01*
X2823Y5381D01*
X2846Y5378D01*
X2869Y5381D01*
X2891Y5390D01*
X2909Y5405D01*
X2924Y5423D01*
X2933Y5445D01*
X2936Y5468D01*
X2933Y5491D01*
X2924Y5513D01*
X2909Y5531D01*
X2891Y5546D01*
X2869Y5555D01*
X2846Y5558D01*
D02*
G37*
G36*
X9350Y5508D02*
X9335Y5506D01*
X9323Y5497D01*
X9314Y5485D01*
X9312Y5470D01*
X9314Y5455D01*
X9323Y5443D01*
X9335Y5434D01*
X9350Y5432D01*
X9365Y5434D01*
X9377Y5443D01*
X9386Y5455D01*
X9388Y5470D01*
X9386Y5485D01*
X9377Y5497D01*
X9365Y5506D01*
X9350Y5508D01*
D02*
G37*
G36*
X8267Y5380D02*
X8252Y5377D01*
X8240Y5369D01*
X8231Y5356D01*
X8228Y5342D01*
X8231Y5327D01*
X8240Y5314D01*
X8252Y5306D01*
X8267Y5303D01*
X8282Y5306D01*
X8294Y5314D01*
X8302Y5327D01*
X8305Y5342D01*
X8302Y5356D01*
X8294Y5369D01*
X8282Y5377D01*
X8267Y5380D01*
D02*
G37*
G36*
X3087Y5455D02*
X2999D01*
X3001Y5441D01*
X3011Y5417D01*
X3028Y5396D01*
X3049Y5379D01*
X3073Y5369D01*
X3087Y5367D01*
Y5455D01*
D02*
G37*
G36*
X3201D02*
X3113D01*
Y5367D01*
X3127Y5369D01*
X3151Y5379D01*
X3172Y5396D01*
X3189Y5417D01*
X3199Y5441D01*
X3201Y5455D01*
D02*
G37*
G36*
X4628Y5711D02*
X4608Y5708D01*
X4589Y5700D01*
X4574Y5688D01*
X4561Y5672D01*
X4554Y5654D01*
X4551Y5634D01*
X4554Y5614D01*
X4561Y5595D01*
X4574Y5579D01*
X4589Y5567D01*
X4608Y5559D01*
X4628Y5557D01*
X4648Y5559D01*
X4666Y5567D01*
X4682Y5579D01*
X4694Y5595D01*
X4702Y5614D01*
X4705Y5634D01*
X4702Y5654D01*
X4694Y5672D01*
X4682Y5688D01*
X4666Y5700D01*
X4648Y5708D01*
X4628Y5711D01*
D02*
G37*
G36*
X4826Y5718D02*
X4806Y5716D01*
X4788Y5708D01*
X4772Y5696D01*
X4759Y5680D01*
X4752Y5661D01*
X4749Y5641D01*
X4752Y5621D01*
X4759Y5603D01*
X4772Y5587D01*
X4788Y5575D01*
X4806Y5567D01*
X4826Y5564D01*
X4846Y5567D01*
X4864Y5575D01*
X4880Y5587D01*
X4893Y5603D01*
X4900Y5621D01*
X4903Y5641D01*
X4900Y5661D01*
X4893Y5680D01*
X4880Y5696D01*
X4864Y5708D01*
X4846Y5716D01*
X4826Y5718D01*
D02*
G37*
G36*
X2846Y6320D02*
X2823Y6317D01*
X2801Y6308D01*
X2783Y6293D01*
X2768Y6275D01*
X2759Y6253D01*
X2756Y6230D01*
X2759Y6207D01*
X2768Y6185D01*
X2783Y6167D01*
X2801Y6152D01*
X2823Y6143D01*
X2846Y6140D01*
X2869Y6143D01*
X2888Y6151D01*
X2948Y6092D01*
X2956Y6086D01*
X2966Y6084D01*
X3062D01*
X3065Y6071D01*
X3049Y6065D01*
X3028Y6048D01*
X3011Y6027D01*
X3001Y6003D01*
X2999Y5989D01*
X3100D01*
Y5976D01*
X3113D01*
Y5875D01*
X3127Y5877D01*
X3151Y5887D01*
X3172Y5904D01*
X3185Y5919D01*
X3197Y5915D01*
Y5886D01*
X3185Y5877D01*
X3174Y5860D01*
X3170Y5839D01*
X3174Y5819D01*
X3185Y5801D01*
X3279Y5707D01*
X3297Y5696D01*
X3317Y5692D01*
X3404D01*
X3471Y5625D01*
X3466Y5612D01*
X3462Y5611D01*
X3458Y5611D01*
X3447Y5622D01*
X3440Y5627D01*
X3432Y5628D01*
X3166D01*
X3161Y5641D01*
X3172Y5650D01*
X3189Y5671D01*
X3199Y5695D01*
X3201Y5709D01*
X2999D01*
X3001Y5695D01*
X3011Y5671D01*
X3028Y5650D01*
X3039Y5641D01*
X3034Y5628D01*
X2886D01*
X2883Y5641D01*
X2891Y5644D01*
X2909Y5659D01*
X2924Y5677D01*
X2933Y5699D01*
X2936Y5722D01*
X2933Y5745D01*
X2924Y5767D01*
X2909Y5785D01*
X2891Y5800D01*
X2869Y5809D01*
X2846Y5812D01*
X2823Y5809D01*
X2801Y5800D01*
X2783Y5785D01*
X2768Y5767D01*
X2759Y5745D01*
X2756Y5722D01*
X2759Y5699D01*
X2768Y5677D01*
X2759Y5669D01*
X2727Y5701D01*
Y6116D01*
X2727Y6116D01*
X2725Y6124D01*
X2721Y6130D01*
X2721Y6130D01*
X2668Y6183D01*
X2670Y6185D01*
X2679Y6207D01*
X2682Y6230D01*
X2679Y6253D01*
X2670Y6275D01*
X2655Y6293D01*
X2637Y6308D01*
X2615Y6317D01*
X2592Y6320D01*
X2569Y6317D01*
X2547Y6308D01*
X2529Y6293D01*
X2514Y6275D01*
X2505Y6253D01*
X2502Y6230D01*
X2505Y6207D01*
X2514Y6185D01*
X2529Y6167D01*
X2547Y6152D01*
X2569Y6143D01*
X2592Y6140D01*
X2615Y6143D01*
X2637Y6152D01*
X2639Y6154D01*
X2686Y6107D01*
Y6016D01*
X2673Y6013D01*
X2670Y6021D01*
X2655Y6039D01*
X2637Y6054D01*
X2615Y6063D01*
X2592Y6066D01*
X2569Y6063D01*
X2547Y6054D01*
X2529Y6039D01*
X2514Y6021D01*
X2505Y5999D01*
X2502Y5976D01*
X2505Y5953D01*
X2514Y5931D01*
X2529Y5913D01*
X2547Y5898D01*
X2569Y5889D01*
X2592Y5886D01*
X2615Y5889D01*
X2637Y5898D01*
X2655Y5913D01*
X2670Y5931D01*
X2673Y5939D01*
X2686Y5936D01*
Y5762D01*
X2673Y5759D01*
X2670Y5767D01*
X2655Y5785D01*
X2637Y5800D01*
X2615Y5809D01*
X2592Y5812D01*
X2569Y5809D01*
X2547Y5800D01*
X2529Y5785D01*
X2514Y5767D01*
X2505Y5745D01*
X2502Y5722D01*
X2505Y5699D01*
X2514Y5677D01*
X2529Y5659D01*
X2547Y5644D01*
X2569Y5635D01*
X2592Y5632D01*
X2615Y5635D01*
X2637Y5644D01*
X2655Y5659D01*
X2670Y5677D01*
X2674Y5687D01*
X2687Y5686D01*
X2687Y5684D01*
X2692Y5678D01*
X2776Y5593D01*
X2783Y5589D01*
X2791Y5587D01*
X3424D01*
X3433Y5578D01*
X3432Y5570D01*
X3434Y5555D01*
X3443Y5543D01*
X3455Y5534D01*
X3470Y5532D01*
X3485Y5534D01*
X3497Y5543D01*
X3506Y5555D01*
X3508Y5570D01*
X3510Y5571D01*
X3520Y5576D01*
X3546Y5550D01*
Y5360D01*
X3550Y5339D01*
X3562Y5322D01*
X3579Y5310D01*
X3600Y5306D01*
X3621Y5310D01*
X3638Y5322D01*
X3650Y5339D01*
X3654Y5360D01*
Y5572D01*
X3650Y5593D01*
X3638Y5610D01*
X3465Y5783D01*
X3447Y5795D01*
X3427Y5799D01*
X3340D01*
X3261Y5877D01*
X3249Y5886D01*
Y5964D01*
X3262Y5964D01*
X3263Y5953D01*
X3272Y5931D01*
X3287Y5913D01*
X3305Y5898D01*
X3327Y5889D01*
X3350Y5886D01*
X3373Y5889D01*
X3395Y5898D01*
X3413Y5913D01*
X3428Y5931D01*
X3437Y5953D01*
X3440Y5976D01*
X3437Y5999D01*
X3428Y6021D01*
X3413Y6039D01*
X3395Y6054D01*
X3373Y6063D01*
X3350Y6066D01*
X3327Y6063D01*
X3305Y6054D01*
X3287Y6039D01*
X3272Y6021D01*
X3263Y5999D01*
X3262Y5988D01*
X3249Y5988D01*
Y6037D01*
X3247Y6047D01*
X3242Y6055D01*
X3168Y6128D01*
X3161Y6133D01*
X3159Y6140D01*
X3159Y6147D01*
X3172Y6158D01*
X3189Y6179D01*
X3199Y6203D01*
X3201Y6217D01*
X2999D01*
X3001Y6203D01*
X3011Y6179D01*
X3028Y6158D01*
X3039Y6149D01*
X3035Y6136D01*
X2977D01*
X2925Y6188D01*
X2933Y6207D01*
X2936Y6230D01*
X2933Y6253D01*
X2924Y6275D01*
X2909Y6293D01*
X2891Y6308D01*
X2869Y6317D01*
X2846Y6320D01*
D02*
G37*
G36*
X10030Y5528D02*
X10015Y5526D01*
X10003Y5517D01*
X9994Y5505D01*
X9992Y5490D01*
X9994Y5475D01*
X10003Y5463D01*
X10015Y5454D01*
X10030Y5452D01*
X10045Y5454D01*
X10057Y5463D01*
X10065Y5475D01*
X10068Y5490D01*
X10065Y5505D01*
X10057Y5517D01*
X10045Y5526D01*
X10030Y5528D01*
D02*
G37*
G36*
X3087Y5569D02*
X3073Y5567D01*
X3049Y5557D01*
X3028Y5540D01*
X3011Y5519D01*
X3001Y5495D01*
X2999Y5481D01*
X3087D01*
Y5569D01*
D02*
G37*
G36*
X3113D02*
Y5481D01*
X3201D01*
X3199Y5495D01*
X3189Y5519D01*
X3172Y5540D01*
X3151Y5557D01*
X3127Y5567D01*
X3113Y5569D01*
D02*
G37*
G36*
X5027Y5307D02*
X5007Y5304D01*
X4988Y5296D01*
X4972Y5284D01*
X4960Y5268D01*
X4952Y5250D01*
X4950Y5230D01*
X4952Y5210D01*
X4960Y5191D01*
X4972Y5176D01*
X4988Y5163D01*
X5007Y5156D01*
X5027Y5153D01*
X5047Y5156D01*
X5065Y5163D01*
X5081Y5176D01*
X5093Y5191D01*
X5101Y5210D01*
X5104Y5230D01*
X5101Y5250D01*
X5093Y5268D01*
X5081Y5284D01*
X5065Y5296D01*
X5047Y5304D01*
X5027Y5307D01*
D02*
G37*
G36*
X9973Y5244D02*
X9959Y5241D01*
X9946Y5233D01*
X9938Y5220D01*
X9935Y5206D01*
X9938Y5191D01*
X9946Y5178D01*
X9959Y5170D01*
X9973Y5167D01*
X9988Y5170D01*
X10000Y5178D01*
X10009Y5191D01*
X10012Y5206D01*
X10009Y5220D01*
X10000Y5233D01*
X9988Y5241D01*
X9973Y5244D01*
D02*
G37*
G36*
X10467Y5208D02*
X10434D01*
Y5175D01*
X10467D01*
Y5208D01*
D02*
G37*
G36*
X3201Y5201D02*
X3113D01*
Y5113D01*
X3127Y5115D01*
X3151Y5125D01*
X3172Y5142D01*
X3189Y5163D01*
X3199Y5187D01*
X3201Y5201D01*
D02*
G37*
G36*
X2592Y5304D02*
X2569Y5301D01*
X2547Y5292D01*
X2529Y5277D01*
X2514Y5259D01*
X2505Y5237D01*
X2502Y5214D01*
X2505Y5191D01*
X2514Y5169D01*
X2529Y5151D01*
X2547Y5136D01*
X2569Y5127D01*
X2592Y5124D01*
X2615Y5127D01*
X2637Y5136D01*
X2655Y5151D01*
X2670Y5169D01*
X2679Y5191D01*
X2682Y5214D01*
X2679Y5237D01*
X2670Y5259D01*
X2655Y5277D01*
X2637Y5292D01*
X2615Y5301D01*
X2592Y5304D01*
D02*
G37*
G36*
X2846D02*
X2823Y5301D01*
X2801Y5292D01*
X2783Y5277D01*
X2768Y5259D01*
X2759Y5237D01*
X2756Y5214D01*
X2759Y5191D01*
X2768Y5169D01*
X2783Y5151D01*
X2801Y5136D01*
X2823Y5127D01*
X2846Y5124D01*
X2869Y5127D01*
X2891Y5136D01*
X2909Y5151D01*
X2924Y5169D01*
X2933Y5191D01*
X2936Y5214D01*
X2933Y5237D01*
X2924Y5259D01*
X2909Y5277D01*
X2891Y5292D01*
X2869Y5301D01*
X2846Y5304D01*
D02*
G37*
G36*
X3113Y5315D02*
Y5227D01*
X3201D01*
X3199Y5241D01*
X3189Y5265D01*
X3172Y5286D01*
X3151Y5303D01*
X3127Y5313D01*
X3113Y5315D01*
D02*
G37*
G36*
X10408Y5267D02*
X10375D01*
Y5234D01*
X10408D01*
Y5267D01*
D02*
G37*
G36*
X10467D02*
X10434D01*
Y5234D01*
X10467D01*
Y5267D01*
D02*
G37*
G36*
X10408Y5208D02*
X10375D01*
Y5192D01*
X10363Y5182D01*
X10357Y5183D01*
X10342Y5180D01*
X10330Y5172D01*
X10321Y5159D01*
X10318Y5145D01*
X10321Y5130D01*
X10330Y5117D01*
X10342Y5109D01*
X10357Y5106D01*
X10371Y5109D01*
X10384Y5117D01*
X10392Y5130D01*
X10395Y5145D01*
X10392Y5159D01*
X10390Y5162D01*
X10397Y5175D01*
X10408D01*
Y5208D01*
D02*
G37*
G36*
X9504Y6215D02*
Y6135D01*
Y6054D01*
X9513Y6056D01*
X9532Y6064D01*
X9549Y6077D01*
X9560Y6091D01*
X9573Y6087D01*
Y6066D01*
X9710D01*
X9710Y6066D01*
Y6066D01*
X9722Y6063D01*
X9781Y6005D01*
Y4992D01*
X9782Y4982D01*
X9788Y4973D01*
X9902Y4860D01*
X9910Y4854D01*
X9920Y4852D01*
X9935D01*
X9936Y4851D01*
X9948Y4842D01*
X9963Y4840D01*
X9978Y4842D01*
X9990Y4851D01*
X9999Y4863D01*
X10001Y4878D01*
X9999Y4893D01*
X9990Y4905D01*
X9978Y4913D01*
X9963Y4916D01*
X9948Y4913D01*
X9936Y4905D01*
X9924Y4910D01*
X9832Y5002D01*
Y5210D01*
X9845Y5217D01*
X9848Y5215D01*
X9862Y5212D01*
X9877Y5215D01*
X9889Y5224D01*
X9898Y5236D01*
X9901Y5251D01*
X9898Y5266D01*
X9889Y5278D01*
X9877Y5286D01*
X9862Y5289D01*
X9848Y5286D01*
X9845Y5285D01*
X9832Y5291D01*
Y6015D01*
X9830Y6025D01*
X9825Y6034D01*
X9710Y6148D01*
Y6203D01*
X9573D01*
Y6182D01*
X9560Y6179D01*
X9549Y6193D01*
X9532Y6206D01*
X9513Y6214D01*
X9504Y6215D01*
D02*
G37*
G36*
X3087Y5315D02*
X3073Y5313D01*
X3049Y5303D01*
X3028Y5286D01*
X3011Y5265D01*
X3001Y5241D01*
X2999Y5227D01*
X3087D01*
Y5315D01*
D02*
G37*
G36*
X3959Y6217D02*
X3871D01*
Y6129D01*
X3885Y6131D01*
X3909Y6141D01*
X3930Y6158D01*
X3947Y6179D01*
X3957Y6203D01*
X3959Y6217D01*
D02*
G37*
G36*
X5347Y6188D02*
X5333Y6186D01*
X5320Y6177D01*
X5312Y6165D01*
X5309Y6150D01*
X5310Y6143D01*
Y6143D01*
X5311Y6139D01*
X5311Y6139D01*
X5311Y6139D01*
X5310Y6139D01*
X5301Y6135D01*
X5300Y6135D01*
X5299Y6134D01*
X5299Y6134D01*
X5297Y6138D01*
X5297D01*
X5293Y6143D01*
X5281Y6152D01*
X5266Y6155D01*
X5251Y6152D01*
X5239Y6143D01*
X5231Y6131D01*
X5228Y6116D01*
X5231Y6101D01*
X5239Y6089D01*
X5251Y6081D01*
X5266Y6078D01*
X5281Y6081D01*
X5293Y6089D01*
X5302Y6101D01*
X5305Y6116D01*
X5303Y6123D01*
Y6123D01*
X5302Y6127D01*
X5302Y6127D01*
X5303Y6127D01*
X5304Y6127D01*
X5313Y6131D01*
X5314Y6132D01*
X5314Y6132D01*
X5314Y6132D01*
X5317Y6128D01*
X5317D01*
X5320Y6123D01*
X5327Y6118D01*
Y6003D01*
X5328Y5995D01*
X5333Y5988D01*
X5727Y5593D01*
Y4819D01*
X5729Y4811D01*
X5733Y4804D01*
X5908Y4630D01*
X5904Y4616D01*
X5894Y4609D01*
X5885Y4597D01*
X5882Y4582D01*
X5885Y4567D01*
X5894Y4555D01*
X5906Y4547D01*
X5921Y4544D01*
X5933Y4546D01*
X5945Y4539D01*
Y4431D01*
X5947Y4423D01*
X5951Y4416D01*
X6012Y4356D01*
X6008Y4342D01*
X5998Y4335D01*
X5989Y4323D01*
X5987Y4309D01*
X5841Y4163D01*
X5830Y4168D01*
Y4299D01*
X5836Y4304D01*
X5844Y4316D01*
X5847Y4331D01*
X5844Y4345D01*
X5836Y4358D01*
X5824Y4366D01*
X5809Y4369D01*
X5794Y4366D01*
X5784Y4359D01*
X5770Y4360D01*
X5758Y4369D01*
X5743Y4372D01*
X5728Y4369D01*
X5716Y4360D01*
X5714Y4358D01*
X5702D01*
X5689Y4366D01*
X5674Y4369D01*
X5660Y4366D01*
X5647Y4358D01*
X5639Y4345D01*
X5636Y4331D01*
X5639Y4316D01*
X5647Y4304D01*
X5660Y4295D01*
X5674Y4292D01*
X5679Y4289D01*
Y4094D01*
X5666Y4087D01*
X5654Y4090D01*
X5639Y4087D01*
X5627Y4078D01*
X5619D01*
X5618Y4081D01*
X5605Y4089D01*
X5591Y4092D01*
X5576Y4089D01*
X5563Y4081D01*
X5562Y4078D01*
X5552D01*
X5539Y4087D01*
X5524Y4090D01*
X5510Y4087D01*
X5497Y4078D01*
X5489Y4066D01*
X5476Y4064D01*
X5473Y4068D01*
X5460Y4077D01*
X5446Y4080D01*
X5431Y4077D01*
X5419Y4068D01*
X5416Y4064D01*
X5400D01*
X5399Y4066D01*
X5387Y4074D01*
X5372Y4077D01*
X5357Y4074D01*
X5345Y4066D01*
X5337D01*
X5336Y4068D01*
X5323Y4077D01*
X5309Y4080D01*
X5294Y4077D01*
X5281Y4068D01*
X5273Y4056D01*
X5270Y4041D01*
X5273Y4026D01*
X5281Y4014D01*
X5294Y4006D01*
X5309Y4003D01*
X5323Y4006D01*
X5336Y4014D01*
X5343D01*
X5345Y4011D01*
X5357Y4003D01*
X5372Y4000D01*
X5387Y4003D01*
X5399Y4011D01*
X5402Y4016D01*
X5417D01*
X5419Y4014D01*
X5428Y4008D01*
X5431Y3997D01*
X5431Y3993D01*
X5142Y3704D01*
X5138Y3697D01*
X5136Y3689D01*
Y3055D01*
X5081Y2999D01*
X5014D01*
X5006Y2998D01*
X5000Y2993D01*
X4957Y2951D01*
X4953Y2944D01*
X4951Y2936D01*
Y2931D01*
X4776Y2756D01*
X4621D01*
X4450Y2927D01*
Y3070D01*
X4457Y3074D01*
X4465Y3087D01*
X4468Y3101D01*
X4465Y3116D01*
X4457Y3129D01*
X4444Y3137D01*
X4430Y3140D01*
X4415Y3137D01*
X4403Y3129D01*
X4394Y3116D01*
X4391Y3101D01*
X4394Y3087D01*
X4403Y3074D01*
X4409Y3070D01*
Y2918D01*
X4411Y2911D01*
X4415Y2904D01*
X4526Y2793D01*
X4518Y2783D01*
X4513Y2786D01*
X4498Y2789D01*
X4484Y2786D01*
X4471Y2778D01*
X4463Y2766D01*
X4460Y2751D01*
X4463Y2736D01*
X4471Y2724D01*
X4484Y2715D01*
X4498Y2712D01*
X4506Y2714D01*
X4553Y2667D01*
X4547Y2655D01*
X4402D01*
X4303Y2754D01*
X4303Y2756D01*
X4300Y2771D01*
X4292Y2783D01*
X4279Y2791D01*
X4265Y2794D01*
X4250Y2791D01*
X4237Y2783D01*
X4229Y2771D01*
X4226Y2756D01*
X4229Y2741D01*
X4237Y2729D01*
X4250Y2720D01*
X4265Y2717D01*
X4266Y2718D01*
X4373Y2611D01*
X4382Y2605D01*
X4392Y2603D01*
X4873D01*
X4883Y2605D01*
X4892Y2611D01*
X5263Y2982D01*
X5269Y2991D01*
X5271Y3001D01*
Y3642D01*
X5306Y3677D01*
X5309Y3677D01*
X5319Y3672D01*
X5321Y3661D01*
X5330Y3648D01*
X5338Y3642D01*
X5342Y3636D01*
X5342Y3627D01*
X5337Y3619D01*
X5334Y3604D01*
X5337Y3590D01*
X5345Y3577D01*
X5357Y3569D01*
X5372Y3566D01*
X5387Y3569D01*
X5399Y3577D01*
X5408Y3590D01*
X5411Y3604D01*
X5410Y3606D01*
X5426Y3621D01*
X5431Y3630D01*
X5433Y3639D01*
Y3646D01*
X5446Y3659D01*
X5454Y3657D01*
X5458Y3654D01*
X5461Y3640D01*
X5469Y3628D01*
X5482Y3620D01*
X5497Y3617D01*
X5511Y3620D01*
X5524Y3628D01*
X5532Y3640D01*
X5535Y3655D01*
X5532Y3670D01*
X5524Y3682D01*
X5516Y3688D01*
X5520Y3700D01*
X5771D01*
X5781Y3702D01*
X5789Y3708D01*
X5894Y3813D01*
X5908Y3809D01*
X5908Y3808D01*
X5916Y3796D01*
X5929Y3787D01*
X5944Y3784D01*
X5958Y3787D01*
X5971Y3796D01*
X5979Y3808D01*
X5982Y3823D01*
X5979Y3837D01*
X5971Y3850D01*
X5958Y3858D01*
X5944Y3861D01*
X5931Y3859D01*
X5919Y3866D01*
Y3972D01*
X5920Y3973D01*
X5928Y3986D01*
X5931Y4001D01*
X5928Y4015D01*
X5920Y4028D01*
X5908Y4036D01*
X5893Y4039D01*
X5880Y4036D01*
X5868Y4043D01*
Y4117D01*
X5962Y4211D01*
X5974Y4206D01*
Y4121D01*
X5967Y4117D01*
X5959Y4104D01*
X5956Y4089D01*
X5959Y4075D01*
X5967Y4062D01*
X5968Y4061D01*
X5975Y4051D01*
X5971Y4045D01*
X5967Y4038D01*
X5964Y4023D01*
X5967Y4009D01*
X5975Y3996D01*
X5981Y3992D01*
X5985Y3986D01*
X5992Y3981D01*
X5999Y3980D01*
X6007Y3981D01*
X6014Y3986D01*
X6016Y3988D01*
X6017Y3988D01*
X6029Y3996D01*
X6038Y4009D01*
X6038Y4010D01*
X6050Y4022D01*
X6054Y4028D01*
X6056Y4036D01*
Y4047D01*
X6060Y4050D01*
X6069Y4053D01*
X6079Y4046D01*
X6093Y4043D01*
X6108Y4046D01*
X6121Y4055D01*
X6129Y4067D01*
X6132Y4082D01*
X6129Y4096D01*
X6121Y4109D01*
X6108Y4117D01*
X6093Y4120D01*
X6086Y4127D01*
X6084Y4132D01*
Y4195D01*
X6140Y4252D01*
X6140Y4252D01*
X6145Y4258D01*
X6146Y4266D01*
X6146Y4266D01*
Y4350D01*
X6145Y4357D01*
X6140Y4364D01*
X6140Y4364D01*
X6051Y4453D01*
Y4610D01*
X6064Y4617D01*
X6076Y4615D01*
X6090Y4618D01*
X6103Y4626D01*
X6111Y4639D01*
X6114Y4653D01*
X6111Y4668D01*
X6103Y4680D01*
X6093Y4687D01*
X6090Y4693D01*
X6090Y4695D01*
X6089Y4702D01*
X6092Y4706D01*
X6093Y4714D01*
X6093Y4714D01*
Y5499D01*
X6098Y5507D01*
X6101Y5522D01*
X6098Y5537D01*
X6090Y5549D01*
X6078Y5557D01*
X6063Y5560D01*
X6048Y5557D01*
X6036Y5549D01*
X6027Y5537D01*
X6025Y5522D01*
X6027Y5507D01*
X6036Y5495D01*
X6048Y5486D01*
X6052Y5486D01*
Y4916D01*
X6046Y4906D01*
X6039Y4906D01*
X6039Y4909D01*
X6038Y4914D01*
X6036Y4917D01*
X6029Y4927D01*
X6017Y4935D01*
X6002Y4938D01*
X5994Y4937D01*
X5896Y5035D01*
Y5685D01*
X5896Y5685D01*
X5894Y5692D01*
X5890Y5699D01*
X5890Y5699D01*
X5466Y6123D01*
X5466Y6125D01*
X5457Y6137D01*
X5445Y6146D01*
X5430Y6148D01*
X5415Y6146D01*
X5403Y6137D01*
X5394Y6125D01*
X5392Y6110D01*
X5394Y6095D01*
X5403Y6083D01*
X5415Y6074D01*
X5430Y6072D01*
X5445Y6074D01*
X5451Y6079D01*
X5579Y5951D01*
X5577Y5944D01*
X5574Y5939D01*
X5561Y5936D01*
X5548Y5928D01*
X5540Y5915D01*
X5537Y5900D01*
X5540Y5886D01*
X5548Y5873D01*
X5561Y5865D01*
X5575Y5862D01*
X5590Y5865D01*
X5602Y5873D01*
X5611Y5886D01*
X5613Y5899D01*
X5618Y5902D01*
X5626Y5905D01*
X5854Y5676D01*
Y5027D01*
X5856Y5019D01*
X5860Y5012D01*
X5965Y4907D01*
X5964Y4900D01*
X5967Y4885D01*
X5975Y4872D01*
X5987Y4864D01*
X5989Y4864D01*
Y4789D01*
X5968Y4768D01*
X5963Y4761D01*
X5962Y4753D01*
Y4716D01*
X5963Y4708D01*
X5968Y4701D01*
X5974Y4695D01*
Y4638D01*
X5963Y4633D01*
X5769Y4827D01*
Y5602D01*
X5769Y5602D01*
X5767Y5610D01*
X5763Y5617D01*
X5368Y6011D01*
Y6118D01*
X5375Y6123D01*
X5383Y6135D01*
X5386Y6150D01*
X5383Y6165D01*
X5375Y6177D01*
X5362Y6186D01*
X5347Y6188D01*
D02*
G37*
G36*
X3350Y6320D02*
X3327Y6317D01*
X3305Y6308D01*
X3287Y6293D01*
X3272Y6275D01*
X3263Y6253D01*
X3260Y6230D01*
X3263Y6207D01*
X3272Y6185D01*
X3287Y6167D01*
X3305Y6152D01*
X3327Y6143D01*
X3350Y6140D01*
X3373Y6143D01*
X3395Y6152D01*
X3413Y6167D01*
X3428Y6185D01*
X3437Y6207D01*
X3440Y6230D01*
X3437Y6253D01*
X3428Y6275D01*
X3413Y6293D01*
X3395Y6308D01*
X3373Y6317D01*
X3350Y6320D01*
D02*
G37*
G36*
X3871Y6077D02*
Y5989D01*
X3959D01*
X3957Y6003D01*
X3947Y6027D01*
X3930Y6048D01*
X3909Y6065D01*
X3885Y6075D01*
X3871Y6077D01*
D02*
G37*
G36*
X4945Y6216D02*
X4925Y6213D01*
X4907Y6206D01*
X4891Y6194D01*
X4879Y6178D01*
X4871Y6159D01*
X4869Y6139D01*
X4871Y6119D01*
X4879Y6101D01*
X4891Y6085D01*
X4907Y6073D01*
X4925Y6065D01*
X4945Y6062D01*
X4965Y6065D01*
X4984Y6073D01*
X5000Y6085D01*
X5012Y6101D01*
X5020Y6119D01*
X5022Y6139D01*
X5020Y6159D01*
X5012Y6178D01*
X5000Y6194D01*
X4984Y6206D01*
X4965Y6213D01*
X4945Y6216D01*
D02*
G37*
G36*
X3845Y6217D02*
X3757D01*
X3759Y6203D01*
X3769Y6179D01*
X3786Y6158D01*
X3807Y6141D01*
X3831Y6131D01*
X3845Y6129D01*
Y6217D01*
D02*
G37*
G36*
X3113Y6331D02*
Y6243D01*
X3201D01*
X3199Y6257D01*
X3189Y6281D01*
X3172Y6302D01*
X3151Y6319D01*
X3127Y6329D01*
X3113Y6331D01*
D02*
G37*
G36*
X3845D02*
X3831Y6329D01*
X3807Y6319D01*
X3786Y6302D01*
X3769Y6281D01*
X3759Y6257D01*
X3757Y6243D01*
X3845D01*
Y6331D01*
D02*
G37*
G36*
X3871D02*
Y6243D01*
X3959D01*
X3957Y6257D01*
X3947Y6281D01*
X3930Y6302D01*
X3909Y6319D01*
X3885Y6329D01*
X3871Y6331D01*
D02*
G37*
G36*
X3604Y6320D02*
X3581Y6317D01*
X3559Y6308D01*
X3541Y6293D01*
X3526Y6275D01*
X3517Y6253D01*
X3514Y6230D01*
X3517Y6207D01*
X3526Y6185D01*
X3541Y6167D01*
X3559Y6152D01*
X3581Y6143D01*
X3604Y6140D01*
X3627Y6143D01*
X3649Y6152D01*
X3667Y6167D01*
X3682Y6185D01*
X3691Y6207D01*
X3694Y6230D01*
X3691Y6253D01*
X3682Y6275D01*
X3667Y6293D01*
X3649Y6308D01*
X3627Y6317D01*
X3604Y6320D01*
D02*
G37*
G36*
X9479Y6215D02*
X9470Y6214D01*
X9450Y6206D01*
X9433Y6193D01*
X9420Y6176D01*
X9415Y6163D01*
X9401D01*
X9399Y6169D01*
X9388Y6184D01*
X9374Y6195D01*
X9357Y6202D01*
X9339Y6204D01*
X9321Y6202D01*
X9304Y6195D01*
X9290Y6184D01*
X9279Y6169D01*
X9272Y6153D01*
X9270Y6135D01*
X9272Y6117D01*
X9279Y6100D01*
X9290Y6086D01*
X9304Y6075D01*
X9321Y6068D01*
X9339Y6066D01*
X9357Y6068D01*
X9374Y6075D01*
X9388Y6086D01*
X9399Y6100D01*
X9401Y6106D01*
X9415D01*
X9420Y6094D01*
X9433Y6077D01*
X9450Y6064D01*
X9470Y6056D01*
X9479Y6054D01*
Y6135D01*
Y6215D01*
D02*
G37*
G36*
X3087Y6331D02*
X3073Y6329D01*
X3049Y6319D01*
X3028Y6302D01*
X3011Y6281D01*
X3001Y6257D01*
X2999Y6243D01*
X3087D01*
Y6331D01*
D02*
G37*
G36*
X3113Y5823D02*
Y5735D01*
X3201D01*
X3199Y5749D01*
X3189Y5773D01*
X3172Y5794D01*
X3151Y5811D01*
X3127Y5821D01*
X3113Y5823D01*
D02*
G37*
G36*
X8589Y5926D02*
X8570Y5924D01*
X8551Y5916D01*
X8535Y5904D01*
X8523Y5888D01*
X8515Y5870D01*
X8513Y5850D01*
X8515Y5830D01*
X8523Y5811D01*
X8535Y5795D01*
X8551Y5783D01*
X8570Y5775D01*
X8589Y5773D01*
X8609Y5775D01*
X8628Y5783D01*
X8644Y5795D01*
X8656Y5811D01*
X8664Y5830D01*
X8666Y5850D01*
X8664Y5870D01*
X8656Y5888D01*
X8644Y5904D01*
X8628Y5916D01*
X8609Y5924D01*
X8589Y5926D01*
D02*
G37*
G36*
X7043Y5977D02*
X7029Y5974D01*
X7016Y5966D01*
X7008Y5953D01*
X7005Y5939D01*
X7008Y5924D01*
X7016Y5911D01*
X7023Y5907D01*
Y4702D01*
X7010Y4691D01*
X7008Y4692D01*
X6993Y4689D01*
X6985Y4683D01*
X6976Y4683D01*
X6970Y4687D01*
X6964Y4696D01*
X6951Y4704D01*
X6937Y4707D01*
X6922Y4704D01*
X6917Y4701D01*
X6905Y4708D01*
Y4919D01*
X6911Y4925D01*
X6926Y4928D01*
X6939Y4936D01*
X6947Y4948D01*
X6950Y4963D01*
X6947Y4978D01*
X6939Y4990D01*
X6926Y4999D01*
X6911Y5002D01*
X6903Y5000D01*
X6889Y5007D01*
X6888Y5008D01*
X6880Y5021D01*
X6868Y5029D01*
X6853Y5032D01*
X6838Y5029D01*
X6833Y5026D01*
X6820Y5032D01*
Y5795D01*
X6863Y5838D01*
X6871Y5837D01*
X6885Y5840D01*
X6898Y5848D01*
X6906Y5860D01*
X6909Y5875D01*
X6906Y5890D01*
X6898Y5902D01*
X6885Y5911D01*
X6871Y5913D01*
X6856Y5911D01*
X6844Y5902D01*
X6835Y5890D01*
X6832Y5875D01*
X6834Y5867D01*
X6785Y5818D01*
X6781Y5812D01*
X6779Y5804D01*
Y4303D01*
X6766Y4296D01*
X6763Y4298D01*
X6749Y4301D01*
X6734Y4298D01*
X6722Y4289D01*
X6713Y4277D01*
X6710Y4262D01*
X6713Y4247D01*
X6722Y4235D01*
X6734Y4227D01*
X6749Y4224D01*
X6763Y4227D01*
X6766Y4228D01*
X6779Y4222D01*
Y4051D01*
X6766Y4044D01*
X6763Y4046D01*
X6749Y4049D01*
X6734Y4046D01*
X6722Y4038D01*
X6713Y4025D01*
X6710Y4011D01*
X6713Y3996D01*
X6722Y3983D01*
X6734Y3975D01*
X6749Y3972D01*
X6763Y3975D01*
X6766Y3977D01*
X6779Y3970D01*
Y3893D01*
X6750Y3864D01*
X6747Y3859D01*
X6739Y3859D01*
X6734Y3860D01*
X6733Y3860D01*
X6725Y3873D01*
X6713Y3881D01*
X6698Y3884D01*
X6683Y3881D01*
X6671Y3873D01*
X6663Y3861D01*
X6663Y3861D01*
X6661Y3860D01*
X6649Y3858D01*
X6622Y3885D01*
Y3986D01*
X6635Y3992D01*
X6647Y3990D01*
X6662Y3993D01*
X6674Y4001D01*
X6683Y4014D01*
X6686Y4028D01*
X6683Y4043D01*
X6680Y4048D01*
X6685Y4062D01*
X6697Y4070D01*
X6706Y4082D01*
X6708Y4097D01*
X6706Y4112D01*
X6697Y4124D01*
X6685Y4133D01*
X6670Y4135D01*
X6655Y4133D01*
X6643Y4124D01*
X6635Y4112D01*
X6622Y4114D01*
Y4514D01*
X6635Y4521D01*
X6647Y4518D01*
X6662Y4521D01*
X6674Y4530D01*
X6683Y4542D01*
X6686Y4557D01*
X6683Y4571D01*
X6674Y4584D01*
X6670Y4587D01*
Y5495D01*
X6677Y5500D01*
X6685Y5512D01*
X6688Y5527D01*
X6685Y5542D01*
X6677Y5554D01*
X6664Y5563D01*
X6650Y5565D01*
X6635Y5563D01*
X6635Y5562D01*
X6622Y5569D01*
Y5897D01*
X6629Y5901D01*
X6637Y5914D01*
X6640Y5928D01*
X6637Y5943D01*
X6629Y5956D01*
X6616Y5964D01*
X6601Y5967D01*
X6587Y5964D01*
X6574Y5956D01*
X6566Y5943D01*
X6563Y5928D01*
X6566Y5914D01*
X6574Y5901D01*
X6581Y5897D01*
Y3876D01*
X6582Y3869D01*
X6581Y3865D01*
X6576Y3861D01*
X6570Y3863D01*
X6563Y3871D01*
Y4067D01*
X6562Y4075D01*
X6557Y4082D01*
X6544Y4094D01*
X6546Y4102D01*
X6543Y4117D01*
X6535Y4129D01*
X6522Y4138D01*
X6507Y4141D01*
X6493Y4138D01*
X6480Y4129D01*
X6472Y4117D01*
X6469Y4102D01*
X6472Y4087D01*
X6476Y4081D01*
X6471Y4067D01*
X6470Y4066D01*
X6457Y4058D01*
X6449Y4046D01*
X6446Y4031D01*
X6448Y4023D01*
X6439Y4015D01*
X6439Y4014D01*
X6432Y4010D01*
X6427Y4003D01*
X6426Y3995D01*
Y3576D01*
X6416Y3567D01*
X6415Y3568D01*
X6400Y3565D01*
X6388Y3556D01*
X6379Y3544D01*
X6376Y3529D01*
X6379Y3515D01*
X6388Y3502D01*
X6395Y3497D01*
Y3358D01*
X6382Y3351D01*
X6370Y3353D01*
X6356Y3350D01*
X6343Y3342D01*
X6335Y3329D01*
X6332Y3315D01*
X6334Y3304D01*
X6333Y3298D01*
X6326Y3291D01*
X6318Y3289D01*
X6305Y3281D01*
X6297Y3268D01*
X6294Y3254D01*
X6297Y3239D01*
X6305Y3227D01*
X6318Y3218D01*
X6322Y3217D01*
X6328Y3203D01*
X6327Y3202D01*
X6324Y3188D01*
X6327Y3173D01*
X6336Y3161D01*
X6348Y3152D01*
X6363Y3149D01*
X6375Y3152D01*
X6384Y3147D01*
X6388Y3144D01*
X6389Y3139D01*
X6388Y3138D01*
X6381Y3126D01*
X6378Y3111D01*
X6381Y3097D01*
X6389Y3084D01*
X6401Y3076D01*
X6416Y3073D01*
X6431Y3076D01*
X6442Y3084D01*
X6447Y3078D01*
X6485Y3040D01*
Y2796D01*
X6480Y2792D01*
X6465Y2789D01*
X6452Y2781D01*
X6444Y2768D01*
X6441Y2753D01*
X6444Y2739D01*
X6452Y2726D01*
X6465Y2718D01*
X6480Y2715D01*
X6494Y2718D01*
X6507Y2726D01*
X6515Y2739D01*
X6518Y2753D01*
X6516Y2761D01*
X6520Y2764D01*
X6520Y2764D01*
X6524Y2771D01*
X6526Y2779D01*
X6526Y2779D01*
Y2850D01*
X6538Y2856D01*
X6540Y2855D01*
X6540Y2854D01*
X6543Y2840D01*
X6551Y2828D01*
X6564Y2819D01*
X6579Y2817D01*
X6593Y2819D01*
X6606Y2828D01*
X6614Y2840D01*
X6617Y2855D01*
X6615Y2867D01*
X6622Y2880D01*
X6811D01*
X6812Y2878D01*
X6815Y2863D01*
X6823Y2851D01*
X6836Y2842D01*
X6850Y2839D01*
X6865Y2842D01*
X6878Y2851D01*
X6886Y2863D01*
X6889Y2878D01*
X6886Y2893D01*
X6878Y2905D01*
X6865Y2913D01*
X6850Y2916D01*
X6843Y2915D01*
X6843Y2915D01*
X6836Y2919D01*
X6828Y2921D01*
X6605D01*
X6581Y2945D01*
Y3066D01*
X6582Y3072D01*
X6592Y3080D01*
X6598Y3081D01*
X6611Y3089D01*
X6619Y3102D01*
X6622Y3117D01*
X6619Y3131D01*
X6611Y3144D01*
X6604Y3148D01*
Y3283D01*
X6611Y3288D01*
X6619Y3300D01*
X6620Y3306D01*
X6623Y3307D01*
X6634Y3308D01*
X6640Y3298D01*
X6653Y3289D01*
X6668Y3286D01*
X6682Y3289D01*
X6695Y3298D01*
X6697Y3300D01*
X6710Y3301D01*
X6787Y3225D01*
X6782Y3211D01*
X6772Y3205D01*
X6764Y3192D01*
X6761Y3178D01*
X6764Y3166D01*
X6757Y3153D01*
X6747D01*
X6739Y3151D01*
X6738Y3151D01*
X6728Y3152D01*
X6714Y3150D01*
X6701Y3141D01*
X6693Y3129D01*
X6690Y3114D01*
X6693Y3099D01*
X6701Y3087D01*
X6714Y3079D01*
X6728Y3076D01*
X6743Y3079D01*
X6756Y3087D01*
X6764Y3099D01*
X6766Y3112D01*
X6818D01*
X6820Y3112D01*
X6830Y3108D01*
X6833Y3103D01*
X6835Y3092D01*
X6844Y3079D01*
X6856Y3071D01*
X6871Y3068D01*
X6885Y3071D01*
X6898Y3079D01*
X6911Y3080D01*
X6919Y3073D01*
Y2909D01*
X6912Y2905D01*
X6904Y2893D01*
X6901Y2878D01*
X6904Y2863D01*
X6912Y2851D01*
X6925Y2842D01*
X6939Y2839D01*
X6954Y2842D01*
X6966Y2851D01*
X6975Y2863D01*
X6978Y2878D01*
X6975Y2893D01*
X6966Y2905D01*
X6960Y2909D01*
Y3086D01*
X6958Y3094D01*
X6954Y3100D01*
X6938Y3117D01*
Y3137D01*
X6949Y3149D01*
X6949Y3149D01*
X6954Y3155D01*
X6955Y3163D01*
X6954Y3171D01*
X6949Y3178D01*
X6921Y3207D01*
Y3320D01*
X6929Y3324D01*
X6933Y3324D01*
X6935Y3323D01*
X6936Y3322D01*
X6944Y3311D01*
X6956Y3302D01*
X6971Y3299D01*
X6986Y3302D01*
X6998Y3311D01*
X7007Y3323D01*
X7009Y3338D01*
X7007Y3352D01*
X6998Y3365D01*
X6986Y3373D01*
X6971Y3376D01*
X6967Y3379D01*
Y3537D01*
X6974Y3542D01*
X6982Y3554D01*
X6983Y3556D01*
X6997Y3564D01*
X7003Y3563D01*
X7017Y3566D01*
X7030Y3575D01*
X7038Y3587D01*
X7041Y3602D01*
X7040Y3609D01*
X7068Y3637D01*
X7072Y3644D01*
X7074Y3652D01*
Y4230D01*
X7086Y4236D01*
X7090Y4234D01*
X7104Y4231D01*
X7119Y4234D01*
X7132Y4243D01*
X7140Y4255D01*
X7141Y4261D01*
Y4261D01*
X7141Y4262D01*
X7154Y4263D01*
X7155Y4262D01*
D01*
X7155Y4262D01*
Y4088D01*
X7140Y4073D01*
X7133Y4072D01*
X7120Y4063D01*
X7112Y4051D01*
X7109Y4036D01*
X7112Y4021D01*
X7120Y4009D01*
X7133Y4001D01*
X7148Y3998D01*
X7162Y4001D01*
X7170Y4006D01*
X7183Y4000D01*
Y3883D01*
X7179Y3880D01*
X7170Y3868D01*
X7168Y3853D01*
X7170Y3838D01*
X7179Y3826D01*
X7191Y3818D01*
X7206Y3815D01*
X7221Y3818D01*
X7233Y3826D01*
X7241Y3838D01*
X7244Y3853D01*
X7241Y3868D01*
X7234Y3878D01*
Y3951D01*
X7247Y3958D01*
X7254Y3953D01*
X7272Y3949D01*
X7290Y3953D01*
X7305Y3963D01*
X7315Y3978D01*
X7319Y3996D01*
X7315Y4014D01*
X7305Y4029D01*
X7290Y4039D01*
X7272Y4043D01*
X7254Y4039D01*
X7247Y4034D01*
X7234Y4041D01*
Y4293D01*
X7240Y4301D01*
X7242Y4311D01*
Y4469D01*
X7251Y4470D01*
X7264Y4479D01*
X7272Y4491D01*
X7275Y4506D01*
X7272Y4521D01*
X7264Y4533D01*
X7251Y4541D01*
X7236Y4544D01*
X7224Y4542D01*
X7211Y4548D01*
Y5295D01*
X7213Y5297D01*
X7221Y5309D01*
X7224Y5324D01*
X7221Y5339D01*
X7213Y5351D01*
X7200Y5359D01*
X7186Y5362D01*
X7171Y5359D01*
X7158Y5351D01*
X7150Y5339D01*
X7147Y5324D01*
X7150Y5309D01*
X7158Y5297D01*
X7170Y5289D01*
Y4971D01*
X7157Y4964D01*
X7145Y4966D01*
X7130Y4963D01*
X7118Y4955D01*
X7110Y4942D01*
X7107Y4928D01*
X7107Y4926D01*
X7096Y4915D01*
X7094Y4915D01*
X7080Y4912D01*
X7077Y4910D01*
X7064Y4917D01*
Y5907D01*
X7071Y5911D01*
X7079Y5924D01*
X7082Y5939D01*
X7079Y5953D01*
X7071Y5966D01*
X7058Y5974D01*
X7043Y5977D01*
D02*
G37*
G36*
X5507Y5723D02*
X5492Y5720D01*
X5480Y5712D01*
X5471Y5699D01*
X5468Y5685D01*
X5471Y5670D01*
X5480Y5657D01*
X5492Y5649D01*
X5507Y5646D01*
X5521Y5649D01*
X5534Y5657D01*
X5542Y5670D01*
X5545Y5685D01*
X5542Y5699D01*
X5534Y5712D01*
X5521Y5720D01*
X5507Y5723D01*
D02*
G37*
G36*
X6228Y5977D02*
X6213Y5974D01*
X6201Y5966D01*
X6193Y5953D01*
X6190Y5939D01*
X6193Y5924D01*
X6201Y5911D01*
X6207Y5907D01*
Y5893D01*
X6209Y5885D01*
X6214Y5878D01*
X6324Y5767D01*
Y5285D01*
X6312Y5278D01*
X6311Y5278D01*
X6298Y5281D01*
X6297Y5281D01*
X6288Y5292D01*
X6289Y5298D01*
X6286Y5313D01*
X6278Y5326D01*
X6266Y5334D01*
X6251Y5337D01*
X6236Y5334D01*
X6224Y5326D01*
X6215Y5313D01*
X6215Y5312D01*
X6212Y5306D01*
X6210Y5298D01*
Y4832D01*
X6203Y4828D01*
X6195Y4815D01*
X6192Y4801D01*
X6195Y4786D01*
X6203Y4773D01*
X6216Y4765D01*
X6231Y4762D01*
X6243Y4765D01*
X6255Y4758D01*
Y4744D01*
X6245Y4737D01*
X6243Y4737D01*
X6228Y4740D01*
X6213Y4737D01*
X6201Y4729D01*
X6193Y4716D01*
X6190Y4702D01*
X6191Y4694D01*
X6191Y4694D01*
X6187Y4687D01*
X6185Y4679D01*
Y4088D01*
X6187Y4080D01*
X6191Y4073D01*
X6191Y4073D01*
X6190Y4065D01*
X6193Y4051D01*
X6201Y4038D01*
X6213Y4030D01*
X6228Y4027D01*
X6243Y4030D01*
X6255Y4038D01*
X6264Y4051D01*
X6265Y4058D01*
X6279Y4065D01*
X6279Y4064D01*
X6294Y4061D01*
X6309Y4064D01*
X6320Y4071D01*
X6326Y4070D01*
X6332Y4066D01*
Y4029D01*
X6326Y4025D01*
X6320Y4024D01*
X6309Y4031D01*
X6294Y4034D01*
X6279Y4031D01*
X6267Y4023D01*
X6259Y4010D01*
X6256Y3995D01*
X6259Y3981D01*
X6267Y3969D01*
Y3603D01*
X6259Y3598D01*
X6254Y3597D01*
X6241Y3600D01*
X6226Y3597D01*
X6214Y3588D01*
X6205Y3576D01*
X6202Y3561D01*
X6205Y3546D01*
X6214Y3534D01*
X6226Y3526D01*
X6241Y3523D01*
X6254Y3525D01*
X6259Y3524D01*
X6267Y3520D01*
Y3374D01*
X6264Y3373D01*
X6252Y3365D01*
X6243Y3352D01*
X6240Y3338D01*
X6243Y3323D01*
X6252Y3310D01*
X6264Y3302D01*
X6279Y3299D01*
X6294Y3302D01*
X6306Y3310D01*
X6314Y3323D01*
X6317Y3338D01*
X6314Y3352D01*
X6308Y3362D01*
Y3753D01*
X6311Y3755D01*
X6321Y3759D01*
X6330Y3752D01*
X6345Y3750D01*
X6360Y3752D01*
X6372Y3761D01*
X6380Y3773D01*
X6383Y3788D01*
X6380Y3803D01*
X6374Y3813D01*
Y4036D01*
X6386Y4043D01*
X6398Y4041D01*
X6413Y4044D01*
X6425Y4052D01*
X6434Y4065D01*
X6437Y4079D01*
X6434Y4094D01*
X6428Y4103D01*
X6506Y4181D01*
X6511Y4188D01*
X6512Y4196D01*
Y4544D01*
X6518Y4552D01*
X6521Y4567D01*
X6518Y4582D01*
X6509Y4594D01*
X6497Y4602D01*
X6482Y4605D01*
X6467Y4602D01*
X6456Y4595D01*
X6449Y4597D01*
X6448Y4598D01*
X6444Y4601D01*
Y4608D01*
X6443Y4615D01*
X6441Y4618D01*
Y4682D01*
X6440Y4690D01*
X6439Y4691D01*
Y4751D01*
X6452Y4758D01*
X6452Y4757D01*
X6467Y4755D01*
X6482Y4757D01*
X6494Y4766D01*
X6502Y4778D01*
X6505Y4793D01*
X6502Y4808D01*
X6494Y4820D01*
X6482Y4828D01*
X6467Y4831D01*
X6452Y4828D01*
X6452Y4828D01*
X6439Y4835D01*
Y5633D01*
X6472Y5665D01*
X6480Y5664D01*
X6494Y5667D01*
X6507Y5675D01*
X6515Y5688D01*
X6518Y5702D01*
X6515Y5717D01*
X6507Y5729D01*
X6494Y5738D01*
X6480Y5741D01*
X6465Y5738D01*
X6452Y5729D01*
X6444Y5717D01*
X6442Y5706D01*
X6441Y5705D01*
X6439Y5704D01*
X6427Y5710D01*
X6426Y5711D01*
X6426Y5712D01*
X6418Y5724D01*
X6405Y5733D01*
X6391Y5736D01*
X6378Y5733D01*
X6366Y5740D01*
Y5776D01*
X6364Y5784D01*
X6359Y5791D01*
X6254Y5896D01*
X6255Y5911D01*
X6255Y5911D01*
X6264Y5924D01*
X6267Y5939D01*
X6264Y5953D01*
X6255Y5966D01*
X6243Y5974D01*
X6228Y5977D01*
D02*
G37*
G36*
X3087Y5823D02*
X3073Y5821D01*
X3049Y5811D01*
X3028Y5794D01*
X3011Y5773D01*
X3001Y5749D01*
X2999Y5735D01*
X3087D01*
Y5823D01*
D02*
G37*
G36*
X2846Y6066D02*
X2823Y6063D01*
X2801Y6054D01*
X2783Y6039D01*
X2768Y6021D01*
X2759Y5999D01*
X2756Y5976D01*
X2759Y5953D01*
X2768Y5931D01*
X2783Y5913D01*
X2801Y5898D01*
X2823Y5889D01*
X2846Y5886D01*
X2869Y5889D01*
X2891Y5898D01*
X2909Y5913D01*
X2924Y5931D01*
X2933Y5953D01*
X2936Y5976D01*
X2933Y5999D01*
X2924Y6021D01*
X2909Y6039D01*
X2891Y6054D01*
X2869Y6063D01*
X2846Y6066D01*
D02*
G37*
G36*
X3604D02*
X3581Y6063D01*
X3559Y6054D01*
X3541Y6039D01*
X3526Y6021D01*
X3517Y5999D01*
X3514Y5976D01*
X3517Y5953D01*
X3526Y5931D01*
X3541Y5913D01*
X3559Y5898D01*
X3581Y5889D01*
X3604Y5886D01*
X3627Y5889D01*
X3649Y5898D01*
X3667Y5913D01*
X3682Y5931D01*
X3691Y5953D01*
X3694Y5976D01*
X3691Y5999D01*
X3682Y6021D01*
X3667Y6039D01*
X3649Y6054D01*
X3627Y6063D01*
X3604Y6066D01*
D02*
G37*
G36*
X3845Y6077D02*
X3831Y6075D01*
X3807Y6065D01*
X3786Y6048D01*
X3769Y6027D01*
X3759Y6003D01*
X3757Y5989D01*
X3845D01*
Y6077D01*
D02*
G37*
G36*
X3087Y5963D02*
X2999D01*
X3001Y5949D01*
X3011Y5925D01*
X3028Y5904D01*
X3049Y5887D01*
X3073Y5877D01*
X3087Y5875D01*
Y5963D01*
D02*
G37*
G36*
X3845D02*
X3757D01*
X3759Y5949D01*
X3769Y5925D01*
X3786Y5904D01*
X3807Y5887D01*
X3831Y5877D01*
X3845Y5875D01*
Y5963D01*
D02*
G37*
G36*
X3959D02*
X3871D01*
Y5875D01*
X3885Y5877D01*
X3909Y5887D01*
X3930Y5904D01*
X3947Y5925D01*
X3957Y5949D01*
X3959Y5963D01*
D02*
G37*
G36*
X3087Y5201D02*
X2999D01*
X3001Y5187D01*
X3011Y5163D01*
X3028Y5142D01*
X3049Y5125D01*
X3073Y5115D01*
X3087Y5113D01*
Y5201D01*
D02*
G37*
G36*
Y4553D02*
X3073Y4551D01*
X3049Y4541D01*
X3028Y4524D01*
X3011Y4503D01*
X3001Y4479D01*
X2999Y4465D01*
X3087D01*
Y4553D01*
D02*
G37*
G36*
X3113D02*
Y4465D01*
X3201D01*
X3199Y4479D01*
X3189Y4503D01*
X3172Y4524D01*
X3151Y4541D01*
X3127Y4551D01*
X3113Y4553D01*
D02*
G37*
G36*
X10421Y4543D02*
X10388D01*
Y4510D01*
X10421D01*
Y4543D01*
D02*
G37*
G36*
X3548Y4547D02*
X3528Y4545D01*
X3510Y4537D01*
X3494Y4525D01*
X3482Y4509D01*
X3474Y4490D01*
X3472Y4470D01*
X3474Y4451D01*
X3482Y4432D01*
X3494Y4416D01*
X3510Y4404D01*
X3528Y4396D01*
X3548Y4394D01*
X3568Y4396D01*
X3587Y4404D01*
X3603Y4416D01*
X3615Y4432D01*
X3623Y4451D01*
X3625Y4470D01*
X3623Y4490D01*
X3615Y4509D01*
X3603Y4525D01*
X3587Y4537D01*
X3568Y4545D01*
X3548Y4547D01*
D02*
G37*
G36*
X10421Y4485D02*
X10388D01*
Y4451D01*
X10421D01*
Y4485D01*
D02*
G37*
G36*
X10479D02*
X10446D01*
Y4451D01*
X10479D01*
Y4485D01*
D02*
G37*
G36*
X3087Y4693D02*
X2999D01*
X3001Y4679D01*
X3011Y4655D01*
X3028Y4634D01*
X3049Y4617D01*
X3073Y4607D01*
X3087Y4605D01*
Y4693D01*
D02*
G37*
G36*
X3201D02*
X3113D01*
Y4605D01*
X3127Y4607D01*
X3151Y4617D01*
X3172Y4634D01*
X3189Y4655D01*
X3199Y4679D01*
X3201Y4693D01*
D02*
G37*
G36*
X2592Y4796D02*
X2569Y4793D01*
X2547Y4784D01*
X2529Y4769D01*
X2514Y4751D01*
X2505Y4729D01*
X2502Y4706D01*
X2505Y4683D01*
X2514Y4661D01*
X2529Y4643D01*
X2547Y4628D01*
X2569Y4619D01*
X2592Y4616D01*
X2615Y4619D01*
X2637Y4628D01*
X2655Y4643D01*
X2670Y4661D01*
X2679Y4683D01*
X2682Y4706D01*
X2679Y4729D01*
X2670Y4751D01*
X2655Y4769D01*
X2637Y4784D01*
X2615Y4793D01*
X2592Y4796D01*
D02*
G37*
G36*
X10479Y4543D02*
X10446D01*
Y4510D01*
X10479D01*
Y4543D01*
D02*
G37*
G36*
X10311Y4632D02*
X10296Y4629D01*
X10284Y4621D01*
X10276Y4608D01*
X10273Y4593D01*
X10276Y4579D01*
X10284Y4566D01*
X10296Y4558D01*
X10311Y4555D01*
X10326Y4558D01*
X10338Y4566D01*
X10347Y4579D01*
X10349Y4593D01*
X10347Y4608D01*
X10338Y4621D01*
X10326Y4629D01*
X10311Y4632D01*
D02*
G37*
G36*
X9110Y4794D02*
X9096Y4791D01*
X9083Y4783D01*
X9075Y4770D01*
X9072Y4756D01*
X9074Y4748D01*
X9053Y4727D01*
X9049Y4721D01*
X9047Y4713D01*
Y4601D01*
X9047Y4601D01*
X9034Y4595D01*
X9032Y4597D01*
X9024Y4598D01*
X8994D01*
X8978Y4614D01*
X8975Y4627D01*
X8967Y4640D01*
X8955Y4648D01*
X8940Y4651D01*
X8925Y4648D01*
X8913Y4640D01*
X8904Y4627D01*
X8902Y4613D01*
X8904Y4598D01*
X8913Y4585D01*
X8925Y4577D01*
X8940Y4574D01*
X8955Y4577D01*
X8956Y4578D01*
X8971Y4563D01*
X8978Y4558D01*
X8986Y4556D01*
X8989Y4557D01*
X9003D01*
Y3349D01*
X8993Y3340D01*
X8989Y3340D01*
X8974Y3338D01*
X8962Y3329D01*
X8954Y3317D01*
X8951Y3302D01*
X8954Y3287D01*
X8962Y3275D01*
X8974Y3266D01*
X8989Y3264D01*
X9004Y3266D01*
X9016Y3275D01*
X9025Y3287D01*
X9027Y3302D01*
X9032Y3313D01*
X9039Y3318D01*
X9043Y3325D01*
X9053Y3325D01*
X9056Y3325D01*
X9070Y3322D01*
X9085Y3325D01*
X9098Y3333D01*
X9106Y3346D01*
X9109Y3360D01*
X9107Y3371D01*
X9114Y3380D01*
X9116Y3382D01*
X9121Y3381D01*
X9135Y3384D01*
X9148Y3392D01*
X9156Y3405D01*
X9159Y3419D01*
X9156Y3434D01*
X9148Y3447D01*
X9135Y3455D01*
X9121Y3458D01*
X9106Y3455D01*
X9101Y3452D01*
X9088Y3459D01*
Y4629D01*
X9101Y4636D01*
X9113Y4633D01*
X9128Y4636D01*
X9140Y4645D01*
X9148Y4657D01*
X9151Y4672D01*
X9148Y4686D01*
X9140Y4699D01*
X9128Y4707D01*
X9127Y4707D01*
X9126Y4717D01*
X9126Y4721D01*
X9138Y4728D01*
X9146Y4741D01*
X9149Y4756D01*
X9146Y4770D01*
X9138Y4783D01*
X9125Y4791D01*
X9110Y4794D01*
D02*
G37*
G36*
X5243Y4400D02*
X5228Y4397D01*
X5215Y4388D01*
X5207Y4376D01*
X5204Y4361D01*
X5207Y4346D01*
X5215Y4334D01*
X5228Y4326D01*
X5243Y4323D01*
X5257Y4326D01*
X5265Y4331D01*
X5270Y4334D01*
X5272Y4337D01*
X5274Y4339D01*
X5274Y4339D01*
Y4339D01*
X5285Y4334D01*
X5283Y4323D01*
X5286Y4308D01*
X5294Y4296D01*
X5307Y4288D01*
X5321Y4285D01*
X5336Y4288D01*
X5348Y4296D01*
X5357Y4308D01*
X5360Y4323D01*
X5357Y4338D01*
X5348Y4350D01*
X5336Y4359D01*
X5321Y4362D01*
X5307Y4359D01*
X5299Y4353D01*
X5294Y4350D01*
X5292Y4348D01*
X5290Y4346D01*
X5290Y4346D01*
Y4346D01*
X5279Y4350D01*
X5281Y4361D01*
X5278Y4376D01*
X5270Y4388D01*
X5257Y4397D01*
X5243Y4400D01*
D02*
G37*
G36*
X6701D02*
X6686Y4397D01*
X6673Y4388D01*
X6665Y4376D01*
X6662Y4361D01*
X6665Y4346D01*
X6673Y4334D01*
X6686Y4326D01*
X6701Y4323D01*
X6715Y4326D01*
X6728Y4334D01*
X6736Y4346D01*
X6739Y4361D01*
X6736Y4376D01*
X6728Y4388D01*
X6715Y4397D01*
X6701Y4400D01*
D02*
G37*
G36*
X10179Y4416D02*
X10164Y4413D01*
X10152Y4405D01*
X10143Y4392D01*
X10141Y4378D01*
X10143Y4363D01*
X10152Y4350D01*
X10164Y4342D01*
X10179Y4339D01*
X10194Y4342D01*
X10206Y4350D01*
X10214Y4363D01*
X10217Y4378D01*
X10214Y4392D01*
X10206Y4405D01*
X10194Y4413D01*
X10179Y4416D01*
D02*
G37*
G36*
X9410Y4322D02*
X9395Y4319D01*
X9383Y4310D01*
X9375Y4298D01*
X9372Y4283D01*
X9375Y4268D01*
X9383Y4256D01*
X9395Y4248D01*
X9410Y4245D01*
X9425Y4248D01*
X9437Y4256D01*
X9446Y4268D01*
X9449Y4283D01*
X9446Y4298D01*
X9437Y4310D01*
X9425Y4319D01*
X9410Y4322D01*
D02*
G37*
G36*
X10421Y4306D02*
X10388D01*
Y4273D01*
X10421D01*
Y4306D01*
D02*
G37*
G36*
X10479D02*
X10446D01*
Y4273D01*
X10479D01*
Y4306D01*
D02*
G37*
G36*
X9400Y4431D02*
X9385Y4428D01*
X9373Y4419D01*
X9364Y4407D01*
X9362Y4392D01*
X9364Y4378D01*
X9373Y4365D01*
X9385Y4357D01*
X9400Y4354D01*
X9415Y4357D01*
X9427Y4365D01*
X9436Y4378D01*
X9438Y4392D01*
X9436Y4407D01*
X9427Y4419D01*
X9415Y4428D01*
X9400Y4431D01*
D02*
G37*
G36*
X2592Y4542D02*
X2569Y4539D01*
X2547Y4530D01*
X2529Y4515D01*
X2514Y4497D01*
X2505Y4475D01*
X2502Y4452D01*
X2505Y4429D01*
X2514Y4407D01*
X2529Y4389D01*
X2547Y4374D01*
X2569Y4365D01*
X2592Y4362D01*
X2615Y4365D01*
X2637Y4374D01*
X2655Y4389D01*
X2670Y4407D01*
X2679Y4429D01*
X2682Y4452D01*
X2679Y4475D01*
X2670Y4497D01*
X2655Y4515D01*
X2637Y4530D01*
X2615Y4539D01*
X2592Y4542D01*
D02*
G37*
G36*
X2846D02*
X2823Y4539D01*
X2801Y4530D01*
X2783Y4515D01*
X2768Y4497D01*
X2759Y4475D01*
X2756Y4452D01*
X2759Y4429D01*
X2768Y4407D01*
X2783Y4389D01*
X2801Y4374D01*
X2823Y4365D01*
X2846Y4362D01*
X2869Y4365D01*
X2891Y4374D01*
X2909Y4389D01*
X2924Y4407D01*
X2933Y4429D01*
X2936Y4452D01*
X2933Y4475D01*
X2924Y4497D01*
X2909Y4515D01*
X2891Y4530D01*
X2869Y4539D01*
X2846Y4542D01*
D02*
G37*
G36*
X10324Y4419D02*
X10309Y4416D01*
X10297Y4407D01*
X10288Y4395D01*
X10285Y4380D01*
X10288Y4365D01*
X10297Y4353D01*
X10309Y4345D01*
X10324Y4342D01*
X10338Y4345D01*
X10351Y4353D01*
X10359Y4365D01*
X10362Y4380D01*
X10359Y4395D01*
X10351Y4407D01*
X10338Y4416D01*
X10324Y4419D01*
D02*
G37*
G36*
X3087Y4439D02*
X2999D01*
X3001Y4425D01*
X3011Y4401D01*
X3028Y4380D01*
X3049Y4363D01*
X3073Y4353D01*
X3087Y4351D01*
Y4439D01*
D02*
G37*
G36*
X3201D02*
X3113D01*
Y4351D01*
X3127Y4353D01*
X3151Y4363D01*
X3172Y4380D01*
X3189Y4401D01*
X3199Y4425D01*
X3201Y4439D01*
D02*
G37*
G36*
X9052Y4974D02*
X9037Y4971D01*
X9025Y4963D01*
X9017Y4951D01*
X9014Y4936D01*
X9017Y4921D01*
X9025Y4909D01*
X9037Y4900D01*
X9052Y4897D01*
X9067Y4900D01*
X9079Y4909D01*
X9088Y4921D01*
X9090Y4936D01*
X9088Y4951D01*
X9079Y4963D01*
X9067Y4971D01*
X9052Y4974D01*
D02*
G37*
G36*
X10434Y4958D02*
X10401D01*
Y4925D01*
X10434D01*
Y4958D01*
D02*
G37*
G36*
X10492D02*
X10459D01*
Y4925D01*
X10492D01*
Y4958D01*
D02*
G37*
G36*
X3201Y4947D02*
X3113D01*
Y4859D01*
X3127Y4861D01*
X3151Y4871D01*
X3172Y4888D01*
X3189Y4909D01*
X3199Y4933D01*
X3201Y4947D01*
D02*
G37*
G36*
X2592Y5050D02*
X2569Y5047D01*
X2547Y5038D01*
X2529Y5023D01*
X2514Y5005D01*
X2505Y4983D01*
X2502Y4960D01*
X2505Y4937D01*
X2514Y4915D01*
X2529Y4897D01*
X2547Y4882D01*
X2569Y4873D01*
X2592Y4870D01*
X2615Y4873D01*
X2637Y4882D01*
X2655Y4897D01*
X2670Y4915D01*
X2679Y4937D01*
X2682Y4960D01*
X2679Y4983D01*
X2670Y5005D01*
X2655Y5023D01*
X2637Y5038D01*
X2615Y5047D01*
X2592Y5050D01*
D02*
G37*
G36*
X2846D02*
X2823Y5047D01*
X2801Y5038D01*
X2783Y5023D01*
X2768Y5005D01*
X2759Y4983D01*
X2756Y4960D01*
X2759Y4937D01*
X2768Y4915D01*
X2783Y4897D01*
X2801Y4882D01*
X2823Y4873D01*
X2846Y4870D01*
X2869Y4873D01*
X2891Y4882D01*
X2909Y4897D01*
X2924Y4915D01*
X2933Y4937D01*
X2936Y4960D01*
X2933Y4983D01*
X2924Y5005D01*
X2909Y5023D01*
X2891Y5038D01*
X2869Y5047D01*
X2846Y5050D01*
D02*
G37*
G36*
X10434Y5017D02*
X10401D01*
Y4984D01*
X10434D01*
Y5017D01*
D02*
G37*
G36*
X10492D02*
X10459D01*
Y4984D01*
X10492D01*
Y5017D01*
D02*
G37*
G36*
X10580Y5153D02*
X10560Y5150D01*
X10542Y5143D01*
X10526Y5130D01*
X10514Y5114D01*
X10506Y5096D01*
X10503Y5076D01*
X10506Y5056D01*
X10514Y5038D01*
X10526Y5022D01*
X10542Y5009D01*
X10560Y5002D01*
X10580Y4999D01*
X10600Y5002D01*
X10619Y5009D01*
X10635Y5022D01*
X10647Y5038D01*
X10655Y5056D01*
X10657Y5076D01*
X10655Y5096D01*
X10647Y5114D01*
X10635Y5130D01*
X10619Y5143D01*
X10600Y5150D01*
X10580Y5153D01*
D02*
G37*
G36*
X8262Y5060D02*
X8247Y5057D01*
X8235Y5049D01*
X8226Y5036D01*
X8223Y5022D01*
X8226Y5007D01*
X8235Y4994D01*
X8247Y4986D01*
X8262Y4983D01*
X8277Y4986D01*
X8289Y4994D01*
X8290Y4995D01*
X8302Y4991D01*
X8302Y4990D01*
X8304Y4975D01*
X8313Y4963D01*
X8325Y4954D01*
X8340Y4952D01*
X8355Y4954D01*
X8367Y4963D01*
X8376Y4975D01*
X8378Y4990D01*
X8376Y5005D01*
X8367Y5017D01*
X8355Y5026D01*
X8340Y5028D01*
X8325Y5026D01*
X8313Y5017D01*
X8312Y5016D01*
X8300Y5021D01*
X8300Y5022D01*
X8297Y5036D01*
X8289Y5049D01*
X8277Y5057D01*
X8262Y5060D01*
D02*
G37*
G36*
X3087Y5061D02*
X3073Y5059D01*
X3049Y5049D01*
X3028Y5032D01*
X3011Y5011D01*
X3001Y4987D01*
X2999Y4973D01*
X3087D01*
Y5061D01*
D02*
G37*
G36*
X3113D02*
Y4973D01*
X3201D01*
X3199Y4987D01*
X3189Y5011D01*
X3172Y5032D01*
X3151Y5049D01*
X3127Y5059D01*
X3113Y5061D01*
D02*
G37*
G36*
X10421Y4721D02*
X10388D01*
Y4688D01*
X10421D01*
Y4721D01*
D02*
G37*
G36*
X10479D02*
X10446D01*
Y4688D01*
X10479D01*
Y4721D01*
D02*
G37*
G36*
X3087Y4807D02*
X3073Y4805D01*
X3049Y4795D01*
X3028Y4778D01*
X3011Y4757D01*
X3001Y4733D01*
X2999Y4719D01*
X3087D01*
Y4807D01*
D02*
G37*
G36*
X2846Y4796D02*
X2823Y4793D01*
X2801Y4784D01*
X2783Y4769D01*
X2768Y4751D01*
X2759Y4729D01*
X2756Y4706D01*
X2759Y4683D01*
X2768Y4661D01*
X2783Y4643D01*
X2801Y4628D01*
X2823Y4619D01*
X2846Y4616D01*
X2869Y4619D01*
X2891Y4628D01*
X2909Y4643D01*
X2924Y4661D01*
X2933Y4683D01*
X2936Y4706D01*
X2933Y4729D01*
X2924Y4751D01*
X2909Y4769D01*
X2891Y4784D01*
X2869Y4793D01*
X2846Y4796D01*
D02*
G37*
G36*
X8622Y4707D02*
X8608Y4704D01*
X8595Y4696D01*
X8587Y4683D01*
X8584Y4669D01*
X8587Y4654D01*
X8595Y4641D01*
X8608Y4633D01*
X8622Y4630D01*
X8637Y4633D01*
X8650Y4641D01*
X8658Y4654D01*
X8661Y4669D01*
X8658Y4683D01*
X8650Y4696D01*
X8637Y4704D01*
X8622Y4707D01*
D02*
G37*
G36*
X5298Y4715D02*
X5284Y4712D01*
X5271Y4703D01*
X5263Y4691D01*
X5260Y4676D01*
X5262Y4664D01*
X5256Y4651D01*
X5191D01*
X5179Y4663D01*
X5162Y4675D01*
X5141Y4679D01*
X5120Y4675D01*
X5103Y4663D01*
X4924Y4484D01*
X4912Y4467D01*
X4908Y4446D01*
Y3484D01*
X4912Y3463D01*
X4924Y3446D01*
X4978Y3392D01*
Y3155D01*
X4972Y3151D01*
X4960Y3135D01*
X4952Y3116D01*
X4950Y3096D01*
X4952Y3076D01*
X4960Y3058D01*
X4972Y3042D01*
X4988Y3030D01*
X5007Y3022D01*
X5027Y3019D01*
X5047Y3022D01*
X5065Y3030D01*
X5081Y3042D01*
X5093Y3058D01*
X5101Y3076D01*
X5104Y3096D01*
X5101Y3116D01*
X5093Y3135D01*
X5085Y3145D01*
Y3414D01*
X5081Y3434D01*
X5070Y3452D01*
X5015Y3506D01*
Y3871D01*
X5028Y3878D01*
X5039Y3876D01*
X5054Y3879D01*
X5067Y3887D01*
X5075Y3899D01*
X5078Y3914D01*
X5075Y3929D01*
X5069Y3937D01*
X5069Y3938D01*
X5074Y3950D01*
X5075Y3950D01*
X5087Y3953D01*
X5103Y3963D01*
X5113Y3978D01*
X5116Y3996D01*
X5113Y4014D01*
X5103Y4029D01*
X5087Y4039D01*
X5070Y4043D01*
X5052Y4039D01*
X5037Y4029D01*
X5028Y4016D01*
X5017Y4017D01*
X5015Y4018D01*
Y4424D01*
X5110Y4518D01*
X5121Y4512D01*
X5120Y4506D01*
X5123Y4491D01*
X5132Y4479D01*
X5144Y4470D01*
X5159Y4468D01*
X5173Y4470D01*
X5186Y4479D01*
X5194Y4491D01*
X5197Y4506D01*
X5194Y4521D01*
X5187Y4531D01*
X5190Y4539D01*
X5193Y4544D01*
X5638D01*
X5644Y4541D01*
X5664Y4538D01*
X5684Y4541D01*
X5703Y4549D01*
X5719Y4561D01*
X5731Y4577D01*
X5738Y4595D01*
X5741Y4615D01*
X5738Y4635D01*
X5731Y4654D01*
X5719Y4670D01*
X5703Y4682D01*
X5684Y4689D01*
X5664Y4692D01*
X5644Y4689D01*
X5626Y4682D01*
X5610Y4670D01*
X5598Y4654D01*
X5597Y4651D01*
X5341D01*
X5334Y4664D01*
X5337Y4676D01*
X5334Y4691D01*
X5326Y4703D01*
X5313Y4712D01*
X5298Y4715D01*
D02*
G37*
G36*
X3556Y4905D02*
X3536Y4903D01*
X3518Y4895D01*
X3502Y4883D01*
X3489Y4867D01*
X3482Y4848D01*
X3479Y4829D01*
X3482Y4809D01*
X3489Y4790D01*
X3502Y4774D01*
X3518Y4762D01*
X3536Y4754D01*
X3556Y4752D01*
X3576Y4754D01*
X3594Y4762D01*
X3610Y4774D01*
X3623Y4790D01*
X3630Y4809D01*
X3633Y4829D01*
X3630Y4848D01*
X3623Y4867D01*
X3610Y4883D01*
X3594Y4895D01*
X3576Y4903D01*
X3556Y4905D01*
D02*
G37*
G36*
X9138Y4929D02*
X9124Y4926D01*
X9111Y4917D01*
X9103Y4905D01*
X9100Y4890D01*
X9103Y4875D01*
X9111Y4863D01*
X9124Y4855D01*
X9138Y4852D01*
X9153Y4855D01*
X9166Y4863D01*
X9174Y4875D01*
X9177Y4890D01*
X9174Y4905D01*
X9166Y4917D01*
X9153Y4926D01*
X9138Y4929D01*
D02*
G37*
G36*
X3087Y4947D02*
X2999D01*
X3001Y4933D01*
X3011Y4909D01*
X3028Y4888D01*
X3049Y4871D01*
X3073Y4861D01*
X3087Y4859D01*
Y4947D01*
D02*
G37*
G36*
X3113Y4807D02*
Y4719D01*
X3201D01*
X3199Y4733D01*
X3189Y4757D01*
X3172Y4778D01*
X3151Y4795D01*
X3127Y4805D01*
X3113Y4807D01*
D02*
G37*
G36*
X10421Y4780D02*
X10388D01*
Y4747D01*
X10421D01*
Y4780D01*
D02*
G37*
G36*
X10479D02*
X10446D01*
Y4747D01*
X10479D01*
Y4780D01*
D02*
G37*
%LPD*%
D26*
X7186Y5324D02*
X7190Y5319D01*
Y4507D02*
Y5319D01*
X7183Y4499D02*
X7190Y4507D01*
X7175Y4317D02*
X7183Y4325D01*
Y4499D01*
X7148Y4036D02*
Y4051D01*
X7175Y4079D01*
Y4317D01*
D27*
X8697Y3157D02*
Y3225D01*
X8638Y3284D02*
X8697Y3225D01*
X9068Y3360D02*
Y4713D01*
X8207Y3248D02*
Y3407D01*
Y3248D02*
X8214Y3242D01*
Y3205D02*
Y3242D01*
X8207Y3198D02*
X8214Y3205D01*
X8207Y3168D02*
Y3198D01*
X8169Y3223D02*
Y3417D01*
X8181Y3429D01*
X8207Y3407D02*
X8226Y3426D01*
X8171Y3438D02*
X8181Y3429D01*
X8226Y3426D02*
Y3463D01*
X9024Y3332D02*
Y4578D01*
X9020Y3332D02*
X9024D01*
X8989Y3302D02*
X9020Y3332D01*
X5157Y3689D02*
X5455Y3987D01*
X5185Y3678D02*
X5466Y3960D01*
X5212Y3666D02*
X5478Y3932D01*
X5678Y3987D02*
X5699Y4008D01*
X5455Y3987D02*
X5678D01*
X5690Y3960D02*
X5743Y4013D01*
X5466Y3960D02*
X5690D01*
X5701Y3932D02*
X5809Y4039D01*
X5478Y3932D02*
X5701D01*
X5699Y4008D02*
Y4306D01*
X5809Y4039D02*
Y4331D01*
X5809Y4331D01*
X5743Y4013D02*
Y4333D01*
X5157Y3046D02*
Y3689D01*
X5089Y2979D02*
X5157Y3046D01*
X5185Y3035D02*
Y3678D01*
X5101Y2951D02*
X5185Y3035D01*
X5212Y3023D02*
Y3666D01*
X5112Y2923D02*
X5212Y3023D01*
X7132Y3338D02*
X7138Y3343D01*
X7142D01*
X7280Y3480D01*
Y3619D01*
X7120Y3122D02*
Y3233D01*
X7115Y3238D02*
X7120Y3233D01*
X6947Y3340D02*
Y3569D01*
X6765Y3792D02*
Y3849D01*
X6775Y3504D02*
X6789Y3518D01*
Y3752D01*
X6749Y3792D02*
X6789Y3752D01*
X6343Y4553D02*
X6353Y4543D01*
X6345Y3788D02*
X6353Y3796D01*
X6206Y4088D02*
X6228Y4065D01*
X6206Y4088D02*
Y4679D01*
X6228Y4702D01*
X5875Y5027D02*
Y5685D01*
X5450Y6110D02*
X5875Y5685D01*
X5428Y6110D02*
X5450D01*
X5875Y5027D02*
X6002Y4900D01*
X5347Y6003D02*
X5748Y5602D01*
Y4819D02*
Y5602D01*
Y4819D02*
X5966Y4601D01*
X7544Y2791D02*
X7691Y2939D01*
X7473Y2791D02*
X7544D01*
X7452Y2812D02*
X7473Y2791D01*
X7125Y3127D02*
Y3139D01*
X8895Y3223D02*
X8903Y3231D01*
X8804Y3162D02*
X8865Y3223D01*
X8895D01*
X7506Y3147D02*
Y3332D01*
X7440Y3081D02*
X7506Y3147D01*
X6685Y3516D02*
Y3767D01*
Y3516D02*
X6716Y3485D01*
X6639Y3498D02*
Y3839D01*
X6716Y3485D02*
Y3485D01*
X6639Y3498D02*
X6652Y3485D01*
X6765Y3849D02*
X6800Y3884D01*
Y5804D01*
X6601Y3876D02*
X6639Y3839D01*
X6543Y3514D02*
Y4067D01*
X7480Y3528D02*
Y3609D01*
X7309Y2853D02*
Y3075D01*
X7353Y3400D02*
X7480Y3528D01*
X7353Y3119D02*
Y3400D01*
X7309Y3075D02*
X7353Y3119D01*
X7380Y3083D02*
Y3200D01*
X7369Y3071D02*
X7380Y3083D01*
Y3200D02*
X7445Y3264D01*
X7306Y2853D02*
X7309D01*
X7170Y2992D02*
X7308Y3129D01*
Y3216D01*
X7120Y3122D02*
X7125Y3127D01*
X7099Y3238D02*
X7115D01*
X6538Y3093D02*
X6561Y3071D01*
Y2936D02*
Y3071D01*
X6507Y3085D02*
X6533Y3060D01*
Y2901D02*
Y3060D01*
X6461Y3092D02*
X6505Y3048D01*
Y2779D02*
Y3048D01*
X6538Y3333D02*
X6553Y3348D01*
X6461Y3092D02*
Y3547D01*
X6553Y3348D02*
Y3504D01*
X6447Y3562D02*
X6461Y3547D01*
X6416Y3111D02*
Y3112D01*
X6415Y3113D02*
X6416Y3112D01*
X6246Y2885D02*
Y3051D01*
Y2885D02*
X6248Y2883D01*
Y3054D02*
Y3180D01*
X6246Y3051D02*
X6248Y3054D01*
X6480Y2753D02*
X6505Y2779D01*
X6533Y2901D02*
X6579Y2855D01*
X6561Y2936D02*
X6597Y2900D01*
X6543Y3514D02*
X6553Y3504D01*
X6597Y2900D02*
X6828D01*
X6850Y2878D01*
X7523Y3631D02*
Y4053D01*
Y3631D02*
X7525Y3628D01*
X7521Y3490D02*
X7525Y3495D01*
Y3628D01*
X6287Y3350D02*
Y3995D01*
X6279Y3342D02*
X6287Y3350D01*
X6279Y3338D02*
Y3342D01*
X6416Y3114D02*
Y3529D01*
X6415Y3529D02*
X6416Y3529D01*
X6415Y3113D02*
X6416Y3114D01*
X6203Y3225D02*
X6248Y3180D01*
X6050Y3225D02*
X6203D01*
X6447Y3562D02*
Y3995D01*
X2592Y6230D02*
X2706Y6116D01*
Y5692D02*
Y6116D01*
Y5692D02*
X2791Y5608D01*
X3432D01*
X3470Y5570D01*
X6853Y4051D02*
Y4994D01*
X7043Y4682D02*
Y5939D01*
X8207Y3168D02*
X8292Y3084D01*
X8470Y4224D02*
X8529Y4282D01*
X8259Y4285D02*
Y4674D01*
X8950Y4613D02*
X8986Y4577D01*
X8986Y4578D02*
X9024D01*
X8188Y5451D02*
X8214Y5476D01*
X8278Y3981D02*
X8358Y4061D01*
X8278Y3981D02*
Y3981D01*
Y3981D02*
X8289Y3971D01*
Y3888D02*
Y3971D01*
X8252Y3851D02*
X8289Y3888D01*
X8252Y3569D02*
Y3851D01*
X8244Y3977D02*
Y3979D01*
Y3977D02*
X8261Y3960D01*
Y3899D02*
Y3960D01*
X8218Y3856D02*
X8261Y3899D01*
X8216Y3966D02*
Y3968D01*
Y3966D02*
X8233Y3948D01*
Y3911D02*
Y3948D01*
X8207Y3884D02*
X8233Y3911D01*
X8201Y3983D02*
X8216Y3968D01*
X8179Y3884D02*
X8207D01*
X8228Y3994D02*
X8244Y3979D01*
X8206Y3856D02*
X8218D01*
X8206Y3482D02*
Y3856D01*
X8179Y3446D02*
Y3884D01*
X8228Y4033D02*
X8267Y4072D01*
X8228Y3994D02*
Y4033D01*
X8201Y4045D02*
X8201Y4045D01*
X8201Y3983D02*
Y4045D01*
X8201Y4045D02*
Y4227D01*
X8259Y4285D01*
X8099Y3676D02*
X8112Y3664D01*
X8493Y3142D02*
X8501Y3150D01*
X8470Y3165D02*
X8493Y3142D01*
X8206Y3482D02*
X8226Y3463D01*
X8470Y3165D02*
Y4224D01*
X8501Y3134D02*
Y3150D01*
X8638Y3284D02*
Y3804D01*
X8584Y3857D02*
Y4519D01*
Y3857D02*
X8638Y3804D01*
X8171Y3438D02*
X8179Y3446D01*
X8173Y4238D02*
X8188Y4253D01*
X8173Y3971D02*
Y4238D01*
Y3971D02*
X8188Y3956D01*
X5649Y2885D02*
Y3254D01*
Y2885D02*
X5935Y2599D01*
X6507Y4102D02*
X6543Y4067D01*
X5674Y4331D02*
X5699Y4306D01*
X6228Y5893D02*
X6345Y5776D01*
X6228Y5893D02*
Y5939D01*
X5999Y4001D02*
Y4026D01*
X6002Y4023D01*
X6373Y5697D02*
X6391D01*
X6424Y5646D02*
X6480Y5702D01*
X6419Y5646D02*
X6424D01*
X6396Y4572D02*
X6424Y4600D01*
X6231Y5298D02*
X6236Y5304D01*
X6246D01*
X6251Y5298D01*
X6231Y4801D02*
Y5298D01*
X6276Y5206D02*
X6297Y5227D01*
Y5243D01*
X6884Y4094D02*
X6911Y4067D01*
Y4044D02*
Y4067D01*
X7137Y4343D02*
X7145Y4336D01*
X7092Y4872D02*
X7094Y4874D01*
X7102Y4270D02*
X7104D01*
X6063Y5522D02*
X6073Y5512D01*
X7145Y4336D02*
Y4928D01*
X6647Y4557D02*
X6650Y4559D01*
Y5527D01*
X6373Y5697D02*
X6375Y5694D01*
X6281Y4136D02*
X6297Y4120D01*
X6035Y4066D02*
X6040Y4071D01*
X6067Y4108D02*
X6093Y4082D01*
X6040Y4071D02*
Y4108D01*
X6035Y4112D02*
X6040Y4108D01*
X6067Y4108D02*
Y4120D01*
X6063Y4124D02*
X6067Y4120D01*
X6063Y4124D02*
Y4204D01*
X6035Y4112D02*
Y4215D01*
X6032Y4263D02*
X6044D01*
X6070Y4289D01*
X6063Y4204D02*
X6125Y4266D01*
X6035Y4215D02*
X6098Y4278D01*
X5994Y4225D02*
X6032Y4263D01*
X5994Y4089D02*
Y4225D01*
X6030Y4445D02*
X6125Y4350D01*
Y4266D02*
Y4350D01*
X5995Y4441D02*
X6098Y4338D01*
Y4278D02*
Y4338D01*
X5966Y4431D02*
X6070Y4327D01*
Y4289D02*
Y4327D01*
X6251Y4635D02*
X6275Y4659D01*
Y4690D01*
X6276Y4691D01*
X6228Y4702D02*
X6231D01*
X5966Y4431D02*
Y4601D01*
X5995Y4441D02*
Y4703D01*
X5982Y4716D02*
X5995Y4703D01*
X5982Y4716D02*
Y4753D01*
X6010Y4781D01*
Y4907D01*
X6030Y4672D02*
X6073Y4714D01*
Y5512D01*
X6276Y4691D02*
Y5206D01*
X6424Y4600D02*
Y4608D01*
X6421Y4611D02*
X6424Y4608D01*
X6030Y4445D02*
Y4672D01*
X6271Y4328D02*
X6281Y4318D01*
Y4136D02*
Y4318D01*
X6035Y4036D02*
Y4066D01*
X5999Y4001D02*
X6035Y4036D01*
X6353Y3796D02*
Y4543D01*
X6482Y4567D02*
X6492Y4557D01*
Y4196D02*
Y4557D01*
X6398Y4103D02*
X6492Y4196D01*
X6447Y3995D02*
X6449D01*
X6485Y4031D01*
X6398Y4079D02*
Y4103D01*
X6330Y4629D02*
X6345Y4615D01*
X6343Y4591D02*
X6345Y4593D01*
Y4615D01*
X6388Y4572D02*
X6396D01*
X6343Y4553D02*
Y4591D01*
X6330Y4682D02*
X6345Y4697D01*
Y5776D01*
X6419Y4684D02*
X6421Y4682D01*
X6419Y4684D02*
Y5646D01*
X6375Y4663D02*
Y5694D01*
X6330Y4629D02*
Y4682D01*
X6421Y4611D02*
Y4682D01*
X6884Y4936D02*
X6911Y4963D01*
X7043Y4682D02*
X7053Y4672D01*
X8526Y4282D02*
X8529D01*
X7094Y4874D02*
Y4877D01*
X9068Y4713D02*
X9110Y4756D01*
X7521Y4044D02*
Y4051D01*
X7523Y4053D01*
X8257Y4651D02*
Y4671D01*
X8259Y4674D01*
X8188Y4253D02*
Y5451D01*
X6601Y3876D02*
Y5928D01*
X6800Y5804D02*
X6871Y5875D01*
X8188Y3929D02*
Y3956D01*
X8087Y3980D02*
X8094Y3988D01*
X8099D01*
X8112Y3584D02*
Y3664D01*
X8099Y3676D02*
Y3988D01*
X7092Y4301D02*
Y4872D01*
X7082Y4290D02*
X7092Y4301D01*
X7082Y4290D02*
X7102Y4270D01*
X6884Y4094D02*
Y4936D01*
X7003Y3602D02*
X7053Y3652D01*
Y4672D01*
X6995Y4049D02*
Y4511D01*
X6944Y4559D02*
Y4562D01*
X6995Y4511D01*
X5347Y6003D02*
Y6150D01*
X4849Y2670D02*
X4976Y2797D01*
X4580Y2670D02*
X4849D01*
X4498Y2751D02*
X4580Y2670D01*
X4430Y2918D02*
Y3101D01*
Y2918D02*
X4613Y2736D01*
X4784D01*
X4976Y2797D02*
Y2888D01*
X4999Y2911D01*
Y2924D01*
X5026Y2951D01*
X4784Y2736D02*
X4972Y2923D01*
Y2936D01*
X5014Y2979D01*
X5026Y2951D02*
X5101D01*
X5014Y2979D02*
X5089D01*
X5044Y2906D02*
X5062Y2923D01*
X5112D01*
X6863Y3305D02*
X6866Y3307D01*
X6775Y3345D02*
Y3504D01*
X6507Y3085D02*
Y3485D01*
X6538Y3093D02*
Y3333D01*
X6584Y3117D02*
Y3315D01*
X6853Y3307D02*
X6866D01*
X6775Y3345D02*
X6787Y3332D01*
X6947Y3340D02*
X6949Y3338D01*
X6971D01*
X6818Y3132D02*
X6845Y3159D01*
Y3196D01*
X6863Y3138D02*
X6872Y3147D01*
Y3208D01*
X6863Y3217D02*
X6872Y3208D01*
X6863Y3217D02*
Y3305D01*
X6728Y3114D02*
X6747Y3132D01*
X6818D01*
X6716Y3325D02*
X6845Y3196D01*
X6668Y3325D02*
X6716D01*
X6900Y3198D02*
Y3405D01*
X6820Y3485D02*
X6900Y3405D01*
X6863Y3119D02*
Y3138D01*
X6939Y2878D02*
Y3086D01*
X6917Y3108D02*
X6939Y3086D01*
X6917Y3108D02*
Y3145D01*
X6935Y3163D01*
X6900Y3198D02*
X6935Y3163D01*
X6863Y3119D02*
X6871Y3111D01*
Y3106D02*
Y3111D01*
D28*
X5372Y3604D02*
X5407Y3639D01*
Y3657D01*
X5476Y3726D01*
X5771D01*
X5893Y3848D01*
Y4001D01*
X5715Y3899D02*
X5842Y4026D01*
X5491Y3899D02*
X5715D01*
X5245Y3653D02*
X5491Y3899D01*
X5842Y4026D02*
Y4127D01*
X5245Y3001D02*
Y3653D01*
X4873Y2629D02*
X5245Y3001D01*
X3150Y6110D02*
X3223Y6037D01*
Y5839D02*
Y6037D01*
X2846Y6230D02*
X2966Y6110D01*
X3150D01*
X10325Y3428D02*
Y3704D01*
X9920Y4878D02*
X9963D01*
X9375Y4615D02*
X10142Y3848D01*
X9375Y4615D02*
Y4763D01*
X10214Y3784D02*
X10245D01*
X10154Y3844D02*
X10214Y3784D01*
X10245D02*
X10325Y3704D01*
X9806Y4992D02*
X9920Y4878D01*
X5842Y4127D02*
X6025Y4310D01*
Y4308D02*
Y4310D01*
X9641Y6135D02*
X9687D01*
X9806Y6015D01*
Y4992D02*
Y6015D01*
X7216Y4485D02*
X7236Y4506D01*
X7206Y3853D02*
X7209Y3856D01*
Y4304D02*
X7216Y4311D01*
Y4485D01*
X7209Y3856D02*
Y4304D01*
X4265Y2756D02*
X4392Y2629D01*
X4873D01*
D29*
X3427Y5745D02*
X3600Y5572D01*
Y5360D02*
Y5572D01*
X3223Y5839D02*
X3317Y5745D01*
X3427D01*
X7922Y3292D02*
Y3576D01*
X9037Y2903D02*
X9172D01*
X8865Y3076D02*
X9037Y2903D01*
X9172D02*
X9380Y2695D01*
X7922Y3292D02*
X8275Y2939D01*
X8433D01*
X8570Y3076D01*
X8865D01*
X9380Y2695D02*
X10201D01*
X7836Y3663D02*
X7922Y3576D01*
X7668Y5112D02*
X7836Y4944D01*
Y3662D02*
Y4944D01*
X10201Y2695D02*
X10560Y3054D01*
X4962Y3484D02*
X5032Y3414D01*
X4962Y3484D02*
Y4446D01*
X5141Y4625D01*
X5169Y4597D01*
X5646D01*
X5664Y4615D01*
X5032Y3076D02*
Y3414D01*
D32*
X3100Y2674D02*
D03*
Y2928D02*
D03*
Y3182D02*
D03*
Y3436D02*
D03*
Y3690D02*
D03*
Y3944D02*
D03*
Y4198D02*
D03*
Y4452D02*
D03*
Y4706D02*
D03*
Y4960D02*
D03*
Y5214D02*
D03*
Y5468D02*
D03*
Y5722D02*
D03*
Y5976D02*
D03*
X2846Y6230D02*
D03*
X2592D02*
D03*
X3100D02*
D03*
X3858D02*
D03*
Y5976D02*
D03*
D33*
X8701Y2786D02*
D03*
X8760Y5573D02*
D03*
X5898Y3515D02*
D03*
X10430Y5538D02*
D03*
X3601Y2951D02*
D03*
X5200Y5780D02*
D03*
D34*
X7691Y5939D02*
D03*
X4691Y2939D02*
D03*
X7691D02*
D03*
X4691Y5939D02*
D03*
D35*
X10434Y4497D02*
D03*
Y4023D02*
D03*
Y3513D02*
D03*
X10436Y3786D02*
D03*
X10421Y5221D02*
D03*
X10434Y4260D02*
D03*
Y4734D02*
D03*
X10446Y4971D02*
D03*
D37*
X9491Y6135D02*
D03*
D38*
X9641D02*
D03*
D39*
X3913Y2954D02*
D03*
D40*
X9796Y3099D02*
D03*
X9896Y3099D02*
D03*
X9796Y2999D02*
D03*
X9846Y3049D02*
D03*
X9896Y2999D02*
D03*
X6026Y3029D02*
D03*
Y2929D02*
D03*
Y2829D02*
D03*
X5926Y3029D02*
D03*
Y2929D02*
D03*
Y2829D02*
D03*
X5826Y3029D02*
D03*
Y2929D02*
D03*
Y2829D02*
D03*
X8697Y3157D02*
D03*
X8169Y3223D02*
D03*
X8989Y3302D02*
D03*
X9070Y3360D02*
D03*
X5372Y3604D02*
D03*
X3748Y5721D02*
D03*
X7132Y3338D02*
D03*
X7125Y3139D02*
D03*
X7170Y2992D02*
D03*
X6947Y3569D02*
D03*
X7099Y3238D02*
D03*
X7003Y3602D02*
D03*
X8903Y3231D02*
D03*
X8804Y3162D02*
D03*
X6685Y3767D02*
D03*
X6716Y3485D02*
D03*
X6820D02*
D03*
X6749Y3792D02*
D03*
X7306Y2853D02*
D03*
X7452Y2794D02*
D03*
X7369Y3071D02*
D03*
X7892Y3292D02*
D03*
X7445Y3264D02*
D03*
X6650Y2654D02*
D03*
X6584Y3117D02*
D03*
X6416Y3111D02*
D03*
X6480Y2753D02*
D03*
X6507Y3485D02*
D03*
X6939Y2878D02*
D03*
X6652Y3485D02*
D03*
X6850Y2878D02*
D03*
X7506Y3332D02*
D03*
X7521Y3490D02*
D03*
X7480Y3609D02*
D03*
X6279Y3338D02*
D03*
X5649Y3254D02*
D03*
X6050Y3231D02*
D03*
X6248Y2883D02*
D03*
X6415Y3529D02*
D03*
X6460Y3029D02*
D03*
X6630Y3027D02*
D03*
X6579Y2855D02*
D03*
X6744Y2748D02*
D03*
X3600Y5360D02*
D03*
X3470Y5570D02*
D03*
X6911Y4963D02*
D03*
X8292Y3084D02*
D03*
X8112Y3584D02*
D03*
X7280Y3619D02*
D03*
X8252Y3569D02*
D03*
X8501Y3134D02*
D03*
X5430Y6110D02*
D03*
X9945Y4741D02*
D03*
X10325Y3428D02*
D03*
X9963Y4878D02*
D03*
X8214Y5476D02*
D03*
X9110Y4756D02*
D03*
X9621Y3833D02*
D03*
X8188Y3929D02*
D03*
X5935Y2599D02*
D03*
X7440Y3081D02*
D03*
X7183Y6198D02*
D03*
X6601Y5928D02*
D03*
X6871Y5875D02*
D03*
X7043Y5939D02*
D03*
X5044Y2906D02*
D03*
X4498Y2751D02*
D03*
X4430Y3101D02*
D03*
X4265Y2756D02*
D03*
X6507Y4102D02*
D03*
X6119Y6205D02*
D03*
X6228Y5939D02*
D03*
X6391Y5697D02*
D03*
X6480Y5702D02*
D03*
X6251Y5298D02*
D03*
X6297Y5243D02*
D03*
X9192Y4034D02*
D03*
X9375Y4763D02*
D03*
X6911Y4044D02*
D03*
X6853Y4994D02*
D03*
X6650Y5527D02*
D03*
X6063Y5522D02*
D03*
X7186Y5324D02*
D03*
X7145Y4928D02*
D03*
X6002Y4900D02*
D03*
X7236Y4506D02*
D03*
X8584Y4519D02*
D03*
X6231Y4801D02*
D03*
X5994Y4089D02*
D03*
X6647Y4557D02*
D03*
X5743Y4333D02*
D03*
X5674Y4331D02*
D03*
X6228Y4702D02*
D03*
X6482Y4567D02*
D03*
X6398Y4079D02*
D03*
X5893Y4001D02*
D03*
X5809Y4331D02*
D03*
X6002Y4023D02*
D03*
X6025Y4308D02*
D03*
X6228Y4065D02*
D03*
X6093Y4082D02*
D03*
X6294Y3995D02*
D03*
X6271Y4328D02*
D03*
X6294Y4100D02*
D03*
X6485Y4031D02*
D03*
X6251Y4635D02*
D03*
X6388Y4572D02*
D03*
X6375Y4663D02*
D03*
X8940Y4613D02*
D03*
X8526Y4282D02*
D03*
X7094Y4877D02*
D03*
X7521Y4044D02*
D03*
X8257Y4651D02*
D03*
X8254Y4072D02*
D03*
X6345Y3788D02*
D03*
X6848Y4054D02*
D03*
X8087Y3980D02*
D03*
X8358Y4061D02*
D03*
X7137Y4343D02*
D03*
X7104Y4270D02*
D03*
X7206Y3853D02*
D03*
X7148Y4036D02*
D03*
X6995Y4049D02*
D03*
X6944Y4559D02*
D03*
X5347Y6150D02*
D03*
X6584Y3315D02*
D03*
X6728Y3114D02*
D03*
X6853Y3307D02*
D03*
X6787Y3332D02*
D03*
X6971Y3338D02*
D03*
X6726Y3233D02*
D03*
X6668Y3325D02*
D03*
X7305Y3211D02*
D03*
X6962Y3127D02*
D03*
X6871Y3106D02*
D03*
D41*
X7668Y5112D02*
D03*
X5027Y3096D02*
D03*
X10560Y3054D02*
D03*
X5664Y4615D02*
D03*
M02*
