G04 Layer_Color=8388736*
%FSLAX42Y42*%
%MOMM*%
G71*
G01*
G75*
G04:AMPARAMS|DCode=25|XSize=0.51mm|YSize=0.61mm|CornerRadius=0.13mm|HoleSize=0mm|Usage=FLASHONLY|Rotation=270.000|XOffset=0mm|YOffset=0mm|HoleType=Round|Shape=RoundedRectangle|*
%AMROUNDEDRECTD25*
21,1,0.51,0.36,0,0,270.0*
21,1,0.25,0.61,0,0,270.0*
1,1,0.25,-0.18,-0.13*
1,1,0.25,-0.18,0.13*
1,1,0.25,0.18,0.13*
1,1,0.25,0.18,-0.13*
%
%ADD25ROUNDEDRECTD25*%
%ADD91R,0.35X0.50*%
%ADD92R,0.30X1.17*%
%ADD93R,1.47X2.16*%
G04:AMPARAMS|DCode=94|XSize=0.3mm|YSize=1.17mm|CornerRadius=0.15mm|HoleSize=0mm|Usage=FLASHONLY|Rotation=0.000|XOffset=0mm|YOffset=0mm|HoleType=Round|Shape=RoundedRectangle|*
%AMROUNDEDRECTD94*
21,1,0.30,0.86,0,0,0.0*
21,1,0.00,1.17,0,0,0.0*
1,1,0.30,0.00,-0.43*
1,1,0.30,0.00,-0.43*
1,1,0.30,0.00,0.43*
1,1,0.30,0.00,0.43*
%
%ADD94ROUNDEDRECTD94*%
G04:AMPARAMS|DCode=95|XSize=2.87mm|YSize=1.07mm|CornerRadius=0.53mm|HoleSize=0mm|Usage=FLASHONLY|Rotation=180.000|XOffset=0mm|YOffset=0mm|HoleType=Round|Shape=RoundedRectangle|*
%AMROUNDEDRECTD95*
21,1,2.87,0.00,0,0,180.0*
21,1,1.80,1.07,0,0,180.0*
1,1,1.07,-0.90,0.00*
1,1,1.07,0.90,0.00*
1,1,1.07,0.90,0.00*
1,1,1.07,-0.90,0.00*
%
%ADD95ROUNDEDRECTD95*%
G04:AMPARAMS|DCode=96|XSize=0.66mm|YSize=1.75mm|CornerRadius=0.33mm|HoleSize=0mm|Usage=FLASHONLY|Rotation=90.000|XOffset=0mm|YOffset=0mm|HoleType=Round|Shape=RoundedRectangle|*
%AMROUNDEDRECTD96*
21,1,0.66,1.09,0,0,90.0*
21,1,0.00,1.75,0,0,90.0*
1,1,0.66,0.55,0.00*
1,1,0.66,0.55,0.00*
1,1,0.66,-0.55,0.00*
1,1,0.66,-0.55,0.00*
%
%ADD96ROUNDEDRECTD96*%
G04:AMPARAMS|DCode=97|XSize=1.07mm|YSize=2.97mm|CornerRadius=0.53mm|HoleSize=0mm|Usage=FLASHONLY|Rotation=270.000|XOffset=0mm|YOffset=0mm|HoleType=Round|Shape=RoundedRectangle|*
%AMROUNDEDRECTD97*
21,1,1.07,1.91,0,0,270.0*
21,1,0.00,2.97,0,0,270.0*
1,1,1.07,-0.95,0.00*
1,1,1.07,-0.95,0.00*
1,1,1.07,0.95,0.00*
1,1,1.07,0.95,0.00*
%
%ADD97ROUNDEDRECTD97*%
G04:AMPARAMS|DCode=98|XSize=3.66mm|YSize=1.85mm|CornerRadius=0.93mm|HoleSize=0mm|Usage=FLASHONLY|Rotation=0.000|XOffset=0mm|YOffset=0mm|HoleType=Round|Shape=RoundedRectangle|*
%AMROUNDEDRECTD98*
21,1,3.66,0.00,0,0,0.0*
21,1,1.80,1.85,0,0,0.0*
1,1,1.85,0.90,0.00*
1,1,1.85,-0.90,0.00*
1,1,1.85,-0.90,0.00*
1,1,1.85,0.90,0.00*
%
%ADD98ROUNDEDRECTD98*%
%ADD99R,1.37X0.76*%
%ADD100R,0.56X0.66*%
%ADD102R,0.42X0.62*%
%ADD103R,0.62X0.42*%
%ADD104R,3.42X3.42*%
%ADD105C,1.57*%
%ADD106C,0.10*%
%ADD107C,2.26*%
%ADD108R,0.46X0.46*%
%ADD109C,0.71*%
%ADD110C,1.17*%
%ADD111R,1.17X1.17*%
%ADD112R,0.46X0.46*%
%ADD113C,0.55*%
G36*
X6167Y2733D02*
X6128Y2733D01*
X6105Y2756D01*
X6105Y2775D01*
X6167D01*
Y2733D01*
D02*
G37*
G36*
X5723Y3125D02*
X5747Y3101D01*
X5747Y3083D01*
X5685D01*
Y3125D01*
X5723Y3125D01*
D02*
G37*
G36*
X6167Y3083D02*
X6105D01*
X6105Y3101D01*
X6128Y3125D01*
X6167Y3125D01*
Y3083D01*
D02*
G37*
G36*
X5772Y2688D02*
X5730D01*
X5730Y2726D01*
X5753Y2750D01*
X5772Y2750D01*
Y2688D01*
D02*
G37*
G36*
X6098Y2750D02*
X6122Y2726D01*
X6122Y2688D01*
X6080D01*
Y2750D01*
X6098Y2750D01*
D02*
G37*
G36*
X5747Y2756D02*
X5723Y2733D01*
X5685Y2733D01*
Y2775D01*
X5747D01*
X5747Y2756D01*
D02*
G37*
G36*
X5552Y5310D02*
Y5445D01*
X5687D01*
X5552Y5310D01*
D02*
G37*
G36*
X10570Y5926D02*
X10488D01*
Y6009D01*
X10570Y5926D01*
D02*
G37*
G36*
X9918Y6156D02*
Y6239D01*
X10001D01*
X9918Y6156D01*
D02*
G37*
G36*
X5772Y3108D02*
X5753Y3108D01*
X5730Y3131D01*
X5730Y3170D01*
X5772D01*
Y3108D01*
D02*
G37*
G36*
X6122Y3131D02*
X6098Y3108D01*
X6080Y3108D01*
Y3170D01*
X6122D01*
X6122Y3131D01*
D02*
G37*
G36*
X6613Y4936D02*
X6479D01*
Y5071D01*
X6613Y4936D01*
D02*
G37*
D25*
X5593Y2685D02*
D03*
Y2765D02*
D03*
D91*
X6340Y2950D02*
D03*
X6290D02*
D03*
X6240D02*
D03*
X6340Y2815D02*
D03*
X6290D02*
D03*
X6240D02*
D03*
X7040Y2950D02*
D03*
X6990D02*
D03*
X6940D02*
D03*
X7040Y2815D02*
D03*
X6990D02*
D03*
X6940D02*
D03*
X6860Y2950D02*
D03*
X6810D02*
D03*
X6760D02*
D03*
X6860Y2815D02*
D03*
X6810D02*
D03*
X6760D02*
D03*
X7220Y2950D02*
D03*
X7170D02*
D03*
X7120D02*
D03*
X7220Y2815D02*
D03*
X7170D02*
D03*
X7120D02*
D03*
X6680Y2950D02*
D03*
X6630D02*
D03*
X6580D02*
D03*
X6680Y2815D02*
D03*
X6630D02*
D03*
X6580D02*
D03*
X6510Y2950D02*
D03*
X6460D02*
D03*
X6410D02*
D03*
X6510Y2815D02*
D03*
X6460D02*
D03*
X6410D02*
D03*
D92*
X5195Y3921D02*
D03*
Y4453D02*
D03*
X5245Y3921D02*
D03*
Y4453D02*
D03*
X5295Y3921D02*
D03*
Y4453D02*
D03*
X5345Y3921D02*
D03*
Y4453D02*
D03*
X5395Y3921D02*
D03*
Y4453D02*
D03*
X5445Y3921D02*
D03*
Y4453D02*
D03*
X5495Y3921D02*
D03*
Y4453D02*
D03*
X5545Y3921D02*
D03*
Y4453D02*
D03*
X5595Y3921D02*
D03*
Y4453D02*
D03*
X5645Y3921D02*
D03*
Y4453D02*
D03*
X5695Y3921D02*
D03*
X5745D02*
D03*
X5795D02*
D03*
X5845D02*
D03*
X5895D02*
D03*
X5945D02*
D03*
X5995D02*
D03*
X6045D02*
D03*
X6095D02*
D03*
X6145D02*
D03*
X6195D02*
D03*
X6246D02*
D03*
X6297D02*
D03*
X6345D02*
D03*
X6396D02*
D03*
X6447D02*
D03*
X6495D02*
D03*
X6546D02*
D03*
X6596D02*
D03*
X6647D02*
D03*
X6695D02*
D03*
X6746D02*
D03*
X6797D02*
D03*
X6845D02*
D03*
X6896D02*
D03*
X6947D02*
D03*
X6995D02*
D03*
X7046D02*
D03*
X7097D02*
D03*
X7145D02*
D03*
X5695Y4453D02*
D03*
X5745D02*
D03*
X5795D02*
D03*
X5845D02*
D03*
X5895D02*
D03*
X5945D02*
D03*
X5995D02*
D03*
X6045D02*
D03*
X6095D02*
D03*
X6145D02*
D03*
X6195D02*
D03*
X6246D02*
D03*
X6297D02*
D03*
X6345D02*
D03*
X6396D02*
D03*
X6447D02*
D03*
X6495D02*
D03*
X6546D02*
D03*
X6596D02*
D03*
X6647D02*
D03*
X6695D02*
D03*
X6746D02*
D03*
X6797D02*
D03*
X6845D02*
D03*
X6896D02*
D03*
X6947D02*
D03*
X6995D02*
D03*
X7046D02*
D03*
X7097D02*
D03*
D93*
X7371Y4186D02*
D03*
X4970D02*
D03*
D94*
X7145Y4453D02*
D03*
D95*
X8705Y2690D02*
D03*
Y3958D02*
D03*
Y5156D02*
D03*
Y6172D02*
D03*
X10400Y4683D02*
D03*
Y3916D02*
D03*
X9550Y5147D02*
D03*
Y5787D02*
D03*
X8700Y4942D02*
D03*
Y4176D02*
D03*
X10400Y5652D02*
D03*
Y4886D02*
D03*
X9550Y3922D02*
D03*
Y4938D02*
D03*
X10400Y2692D02*
D03*
Y3708D02*
D03*
X9550Y2692D02*
D03*
Y3708D02*
D03*
D96*
X8390Y2886D02*
D03*
Y3010D02*
D03*
Y3137D02*
D03*
Y3262D02*
D03*
Y3388D02*
D03*
Y3512D02*
D03*
Y3638D02*
D03*
Y3762D02*
D03*
Y5349D02*
D03*
Y5476D02*
D03*
Y5601D02*
D03*
Y5727D02*
D03*
Y5852D02*
D03*
Y5977D02*
D03*
X10085Y4488D02*
D03*
Y4362D02*
D03*
Y4237D02*
D03*
Y4112D02*
D03*
X9235Y5340D02*
D03*
Y5467D02*
D03*
Y5592D02*
D03*
X8385Y4747D02*
D03*
Y4622D02*
D03*
Y4497D02*
D03*
Y4372D02*
D03*
X10085Y5457D02*
D03*
Y5332D02*
D03*
Y5206D02*
D03*
Y5081D02*
D03*
X9235Y4115D02*
D03*
Y4242D02*
D03*
Y4367D02*
D03*
Y4492D02*
D03*
Y4617D02*
D03*
Y4742D02*
D03*
X10085Y2885D02*
D03*
Y3012D02*
D03*
Y3136D02*
D03*
Y3262D02*
D03*
Y3388D02*
D03*
Y3512D02*
D03*
X9235Y2885D02*
D03*
Y3012D02*
D03*
Y3136D02*
D03*
Y3262D02*
D03*
Y3388D02*
D03*
Y3512D02*
D03*
D97*
X3990Y2860D02*
D03*
Y3060D02*
D03*
Y3260D02*
D03*
Y3462D02*
D03*
Y3662D02*
D03*
Y3860D02*
D03*
Y4500D02*
D03*
Y4700D02*
D03*
Y4900D02*
D03*
Y5102D02*
D03*
Y5302D02*
D03*
Y5500D02*
D03*
D98*
X3525Y2640D02*
D03*
Y4081D02*
D03*
Y4280D02*
D03*
Y5721D02*
D03*
D99*
X5530Y3454D02*
D03*
Y3263D02*
D03*
D100*
X7050Y3420D02*
D03*
X6949D02*
D03*
X7195Y3660D02*
D03*
X7094D02*
D03*
X7233Y3424D02*
D03*
X7132D02*
D03*
D102*
X6051Y3139D02*
D03*
X6001D02*
D03*
X5951D02*
D03*
X5901D02*
D03*
X5851D02*
D03*
X5801D02*
D03*
Y2719D02*
D03*
X5851D02*
D03*
X5901D02*
D03*
X5951D02*
D03*
X6001D02*
D03*
X6051D02*
D03*
D103*
X5716Y3054D02*
D03*
Y3004D02*
D03*
Y2954D02*
D03*
Y2904D02*
D03*
Y2854D02*
D03*
Y2804D02*
D03*
X6136D02*
D03*
Y2854D02*
D03*
Y2904D02*
D03*
Y2954D02*
D03*
Y3004D02*
D03*
Y3054D02*
D03*
D104*
X5926Y2929D02*
D03*
D105*
X2846Y2674D02*
D03*
Y2928D02*
D03*
Y3182D02*
D03*
Y3436D02*
D03*
Y3690D02*
D03*
Y3944D02*
D03*
Y4198D02*
D03*
Y4452D02*
D03*
Y4706D02*
D03*
Y4960D02*
D03*
Y5214D02*
D03*
Y5468D02*
D03*
Y5722D02*
D03*
X3100Y2674D02*
D03*
Y2928D02*
D03*
Y3182D02*
D03*
Y3436D02*
D03*
Y3690D02*
D03*
Y3944D02*
D03*
Y4198D02*
D03*
Y4452D02*
D03*
Y4706D02*
D03*
Y4960D02*
D03*
Y5214D02*
D03*
Y5468D02*
D03*
Y5722D02*
D03*
Y5976D02*
D03*
X2846Y6230D02*
D03*
Y5976D02*
D03*
X2592Y2674D02*
D03*
Y2928D02*
D03*
Y3182D02*
D03*
Y3436D02*
D03*
Y3690D02*
D03*
Y3944D02*
D03*
Y4198D02*
D03*
Y4452D02*
D03*
Y4706D02*
D03*
Y4960D02*
D03*
Y5214D02*
D03*
Y5468D02*
D03*
Y5722D02*
D03*
Y5976D02*
D03*
Y6230D02*
D03*
X3100D02*
D03*
X3858D02*
D03*
Y5976D02*
D03*
X3604Y6230D02*
D03*
Y5976D02*
D03*
X3350Y6230D02*
D03*
Y5976D02*
D03*
D106*
X8701Y2786D02*
D03*
X8760Y5573D02*
D03*
X5898Y3515D02*
D03*
X10430Y5538D02*
D03*
X3601Y2951D02*
D03*
X5200Y5780D02*
D03*
D107*
X7691Y5939D02*
D03*
X4691Y2939D02*
D03*
X7691D02*
D03*
X4691Y5939D02*
D03*
D108*
X10434Y4497D02*
D03*
Y4023D02*
D03*
Y3513D02*
D03*
X10436Y3786D02*
D03*
X10421Y5221D02*
D03*
X10434Y4260D02*
D03*
Y4734D02*
D03*
X10446Y4971D02*
D03*
D109*
X7272Y3996D02*
D03*
X5070D02*
D03*
D110*
X9339Y6135D02*
D03*
X9491D02*
D03*
D111*
X9641D02*
D03*
D112*
X3913Y2954D02*
D03*
D113*
X3748Y5721D02*
D03*
M02*
