G04 Layer_Color=255*
%FSLAX42Y42*%
%MOMM*%
G71*
G01*
G75*
%ADD10R,0.30X0.30*%
%ADD11R,0.30X0.50*%
%ADD12R,0.30X0.30*%
%ADD13R,0.50X0.30*%
%ADD14R,3.30X3.30*%
%ADD15R,0.30X0.45*%
%ADD16R,0.25X1.12*%
%ADD17R,1.42X2.11*%
G04:AMPARAMS|DCode=18|XSize=0.25mm|YSize=1.12mm|CornerRadius=0.13mm|HoleSize=0mm|Usage=FLASHONLY|Rotation=0.000|XOffset=0mm|YOffset=0mm|HoleType=Round|Shape=RoundedRectangle|*
%AMROUNDEDRECTD18*
21,1,0.25,0.86,0,0,0.0*
21,1,0.00,1.12,0,0,0.0*
1,1,0.25,0.00,-0.43*
1,1,0.25,0.00,-0.43*
1,1,0.25,0.00,0.43*
1,1,0.25,0.00,0.43*
%
%ADD18ROUNDEDRECTD18*%
G04:AMPARAMS|DCode=19|XSize=2.82mm|YSize=1.02mm|CornerRadius=0.51mm|HoleSize=0mm|Usage=FLASHONLY|Rotation=180.000|XOffset=0mm|YOffset=0mm|HoleType=Round|Shape=RoundedRectangle|*
%AMROUNDEDRECTD19*
21,1,2.82,0.00,0,0,180.0*
21,1,1.80,1.02,0,0,180.0*
1,1,1.02,-0.90,0.00*
1,1,1.02,0.90,0.00*
1,1,1.02,0.90,0.00*
1,1,1.02,-0.90,0.00*
%
%ADD19ROUNDEDRECTD19*%
G04:AMPARAMS|DCode=20|XSize=0.61mm|YSize=1.7mm|CornerRadius=0.3mm|HoleSize=0mm|Usage=FLASHONLY|Rotation=90.000|XOffset=0mm|YOffset=0mm|HoleType=Round|Shape=RoundedRectangle|*
%AMROUNDEDRECTD20*
21,1,0.61,1.09,0,0,90.0*
21,1,0.00,1.70,0,0,90.0*
1,1,0.61,0.55,0.00*
1,1,0.61,0.55,0.00*
1,1,0.61,-0.55,0.00*
1,1,0.61,-0.55,0.00*
%
%ADD20ROUNDEDRECTD20*%
G04:AMPARAMS|DCode=21|XSize=1.02mm|YSize=2.92mm|CornerRadius=0.51mm|HoleSize=0mm|Usage=FLASHONLY|Rotation=270.000|XOffset=0mm|YOffset=0mm|HoleType=Round|Shape=RoundedRectangle|*
%AMROUNDEDRECTD21*
21,1,1.02,1.91,0,0,270.0*
21,1,0.00,2.92,0,0,270.0*
1,1,1.02,-0.95,0.00*
1,1,1.02,-0.95,0.00*
1,1,1.02,0.95,0.00*
1,1,1.02,0.95,0.00*
%
%ADD21ROUNDEDRECTD21*%
G04:AMPARAMS|DCode=22|XSize=3.61mm|YSize=1.8mm|CornerRadius=0.9mm|HoleSize=0mm|Usage=FLASHONLY|Rotation=0.000|XOffset=0mm|YOffset=0mm|HoleType=Round|Shape=RoundedRectangle|*
%AMROUNDEDRECTD22*
21,1,3.61,0.00,0,0,0.0*
21,1,1.80,1.80,0,0,0.0*
1,1,1.80,0.90,0.00*
1,1,1.80,-0.90,0.00*
1,1,1.80,-0.90,0.00*
1,1,1.80,0.90,0.00*
%
%ADD22ROUNDEDRECTD22*%
%ADD23R,1.32X0.71*%
%ADD24R,0.51X0.61*%
G04:AMPARAMS|DCode=25|XSize=0.51mm|YSize=0.61mm|CornerRadius=0.13mm|HoleSize=0mm|Usage=FLASHONLY|Rotation=270.000|XOffset=0mm|YOffset=0mm|HoleType=Round|Shape=RoundedRectangle|*
%AMROUNDEDRECTD25*
21,1,0.51,0.36,0,0,270.0*
21,1,0.25,0.61,0,0,270.0*
1,1,0.25,-0.18,-0.13*
1,1,0.25,-0.18,0.13*
1,1,0.25,0.18,0.13*
1,1,0.25,0.18,-0.13*
%
%ADD25ROUNDEDRECTD25*%
%ADD32C,1.52*%
%ADD33C,4.10*%
%ADD34C,2.21*%
%ADD35R,0.41X0.41*%
%ADD36C,0.66*%
%ADD37C,1.12*%
%ADD38R,1.12X1.12*%
%ADD39R,0.41X0.41*%
D10*
X6101Y3149D02*
D03*
X5751D02*
D03*
Y2709D02*
D03*
X6101D02*
D03*
D11*
X6051Y3139D02*
D03*
X6001D02*
D03*
X5951D02*
D03*
X5901D02*
D03*
X5851D02*
D03*
X5801D02*
D03*
Y2719D02*
D03*
X5851D02*
D03*
X5901D02*
D03*
X5951D02*
D03*
X6001D02*
D03*
X6051D02*
D03*
D12*
X5706Y3104D02*
D03*
Y2754D02*
D03*
X6146D02*
D03*
Y3104D02*
D03*
D13*
X5716Y3054D02*
D03*
Y3004D02*
D03*
Y2954D02*
D03*
Y2904D02*
D03*
Y2854D02*
D03*
Y2804D02*
D03*
X6136D02*
D03*
Y2854D02*
D03*
Y2904D02*
D03*
Y2954D02*
D03*
Y3004D02*
D03*
Y3054D02*
D03*
D14*
X5926Y2929D02*
D03*
D15*
X6340Y2950D02*
D03*
X6290D02*
D03*
X6240D02*
D03*
X6340Y2815D02*
D03*
X6290D02*
D03*
X6240D02*
D03*
X7040Y2950D02*
D03*
X6990D02*
D03*
X6940D02*
D03*
X7040Y2815D02*
D03*
X6990D02*
D03*
X6940D02*
D03*
X6860Y2950D02*
D03*
X6810D02*
D03*
X6760D02*
D03*
X6860Y2815D02*
D03*
X6810D02*
D03*
X6760D02*
D03*
X7220Y2950D02*
D03*
X7170D02*
D03*
X7120D02*
D03*
X7220Y2815D02*
D03*
X7170D02*
D03*
X7120D02*
D03*
X6680Y2950D02*
D03*
X6630D02*
D03*
X6580D02*
D03*
X6680Y2815D02*
D03*
X6630D02*
D03*
X6580D02*
D03*
X6510Y2950D02*
D03*
X6460D02*
D03*
X6410D02*
D03*
X6510Y2815D02*
D03*
X6460D02*
D03*
X6410D02*
D03*
D16*
X5195Y3921D02*
D03*
Y4453D02*
D03*
X5245Y3921D02*
D03*
Y4453D02*
D03*
X5295Y3921D02*
D03*
Y4453D02*
D03*
X5345Y3921D02*
D03*
Y4453D02*
D03*
X5395Y3921D02*
D03*
Y4453D02*
D03*
X5445Y3921D02*
D03*
Y4453D02*
D03*
X5495Y3921D02*
D03*
Y4453D02*
D03*
X5545Y3921D02*
D03*
Y4453D02*
D03*
X5595Y3921D02*
D03*
Y4453D02*
D03*
X5645Y3921D02*
D03*
Y4453D02*
D03*
X5695Y3921D02*
D03*
X5745D02*
D03*
X5795D02*
D03*
X5845D02*
D03*
X5895D02*
D03*
X5945D02*
D03*
X5995D02*
D03*
X6045D02*
D03*
X6095D02*
D03*
X6145D02*
D03*
X6195D02*
D03*
X6246D02*
D03*
X6297D02*
D03*
X6345D02*
D03*
X6396D02*
D03*
X6447D02*
D03*
X6495D02*
D03*
X6546D02*
D03*
X6596D02*
D03*
X6647D02*
D03*
X6695D02*
D03*
X6746D02*
D03*
X6797D02*
D03*
X6845D02*
D03*
X6896D02*
D03*
X6947D02*
D03*
X6995D02*
D03*
X7046D02*
D03*
X7097D02*
D03*
X7145D02*
D03*
X5695Y4453D02*
D03*
X5745D02*
D03*
X5795D02*
D03*
X5845D02*
D03*
X5895D02*
D03*
X5945D02*
D03*
X5995D02*
D03*
X6045D02*
D03*
X6095D02*
D03*
X6145D02*
D03*
X6195D02*
D03*
X6246D02*
D03*
X6297D02*
D03*
X6345D02*
D03*
X6396D02*
D03*
X6447D02*
D03*
X6495D02*
D03*
X6546D02*
D03*
X6596D02*
D03*
X6647D02*
D03*
X6695D02*
D03*
X6746D02*
D03*
X6797D02*
D03*
X6845D02*
D03*
X6896D02*
D03*
X6947D02*
D03*
X6995D02*
D03*
X7046D02*
D03*
X7097D02*
D03*
D17*
X7371Y4186D02*
D03*
X4970D02*
D03*
D18*
X7145Y4453D02*
D03*
D19*
X8705Y2690D02*
D03*
Y3958D02*
D03*
Y5156D02*
D03*
Y6172D02*
D03*
X10400Y4683D02*
D03*
Y3916D02*
D03*
X9550Y5147D02*
D03*
Y5787D02*
D03*
X8700Y4942D02*
D03*
Y4176D02*
D03*
X10400Y5652D02*
D03*
Y4886D02*
D03*
X9550Y3922D02*
D03*
Y4938D02*
D03*
X10400Y2692D02*
D03*
Y3708D02*
D03*
X9550Y2692D02*
D03*
Y3708D02*
D03*
D20*
X8390Y2886D02*
D03*
Y3010D02*
D03*
Y3137D02*
D03*
Y3262D02*
D03*
Y3388D02*
D03*
Y3512D02*
D03*
Y3638D02*
D03*
Y3762D02*
D03*
Y5349D02*
D03*
Y5476D02*
D03*
Y5601D02*
D03*
Y5727D02*
D03*
Y5852D02*
D03*
Y5977D02*
D03*
X10085Y4488D02*
D03*
Y4362D02*
D03*
Y4237D02*
D03*
Y4112D02*
D03*
X9235Y5340D02*
D03*
Y5467D02*
D03*
Y5592D02*
D03*
X8385Y4747D02*
D03*
Y4622D02*
D03*
Y4497D02*
D03*
Y4372D02*
D03*
X10085Y5457D02*
D03*
Y5332D02*
D03*
Y5206D02*
D03*
Y5081D02*
D03*
X9235Y4115D02*
D03*
Y4242D02*
D03*
Y4367D02*
D03*
Y4492D02*
D03*
Y4617D02*
D03*
Y4742D02*
D03*
X10085Y2885D02*
D03*
Y3012D02*
D03*
Y3136D02*
D03*
Y3262D02*
D03*
Y3388D02*
D03*
Y3512D02*
D03*
X9235Y2885D02*
D03*
Y3012D02*
D03*
Y3136D02*
D03*
Y3262D02*
D03*
Y3388D02*
D03*
Y3512D02*
D03*
D21*
X3990Y2860D02*
D03*
Y3060D02*
D03*
Y3260D02*
D03*
Y3462D02*
D03*
Y3662D02*
D03*
Y3860D02*
D03*
Y4500D02*
D03*
Y4700D02*
D03*
Y4900D02*
D03*
Y5102D02*
D03*
Y5302D02*
D03*
Y5500D02*
D03*
D22*
X3525Y2640D02*
D03*
Y4081D02*
D03*
Y4280D02*
D03*
Y5721D02*
D03*
D23*
X5530Y3454D02*
D03*
Y3263D02*
D03*
D24*
X7050Y3420D02*
D03*
X6949D02*
D03*
X7195Y3660D02*
D03*
X7094D02*
D03*
X7233Y3424D02*
D03*
X7132D02*
D03*
D25*
X5593Y2685D02*
D03*
Y2765D02*
D03*
D32*
X2846Y2674D02*
D03*
Y2928D02*
D03*
Y3182D02*
D03*
Y3436D02*
D03*
Y3690D02*
D03*
Y3944D02*
D03*
Y4198D02*
D03*
Y4452D02*
D03*
Y4706D02*
D03*
Y4960D02*
D03*
Y5214D02*
D03*
Y5468D02*
D03*
Y5722D02*
D03*
X3100Y2674D02*
D03*
Y2928D02*
D03*
Y3182D02*
D03*
Y3436D02*
D03*
Y3690D02*
D03*
Y3944D02*
D03*
Y4198D02*
D03*
Y4452D02*
D03*
Y4706D02*
D03*
Y4960D02*
D03*
Y5214D02*
D03*
Y5468D02*
D03*
Y5722D02*
D03*
Y5976D02*
D03*
X2846Y6230D02*
D03*
Y5976D02*
D03*
X2592Y2674D02*
D03*
Y2928D02*
D03*
Y3182D02*
D03*
Y3436D02*
D03*
Y3690D02*
D03*
Y3944D02*
D03*
Y4198D02*
D03*
Y4452D02*
D03*
Y4706D02*
D03*
Y4960D02*
D03*
Y5214D02*
D03*
Y5468D02*
D03*
Y5722D02*
D03*
Y5976D02*
D03*
Y6230D02*
D03*
X3100D02*
D03*
X3858D02*
D03*
Y5976D02*
D03*
X3604Y6230D02*
D03*
Y5976D02*
D03*
X3350Y6230D02*
D03*
Y5976D02*
D03*
D33*
X8701Y2786D02*
D03*
X8760Y5573D02*
D03*
X5898Y3515D02*
D03*
X10430Y5538D02*
D03*
X3601Y2951D02*
D03*
X5200Y5780D02*
D03*
D34*
X7691Y5939D02*
D03*
X4691Y2939D02*
D03*
X7691D02*
D03*
X4691Y5939D02*
D03*
D35*
X10434Y4497D02*
D03*
Y4023D02*
D03*
Y3513D02*
D03*
X10436Y3786D02*
D03*
X10421Y5221D02*
D03*
X10434Y4260D02*
D03*
Y4734D02*
D03*
X10446Y4971D02*
D03*
D36*
X7272Y3996D02*
D03*
X5070D02*
D03*
D37*
X9339Y6135D02*
D03*
X9491D02*
D03*
D38*
X9641D02*
D03*
D39*
X3913Y2954D02*
D03*
M02*
