M48
;Layer_Color=9474304
;FILE_FORMAT=2:5
INCH,LZ
;TYPE=PLATED
T1F00S00C0.00787
T2F00S00C0.01200
T3F00S00C0.03200
T4F00S00C0.03543
T5F00S00C0.08100
T7F00S00C0.12300
;TYPE=NON_PLATED
T8F00S00C0.08100
%
T01
X09385Y01795
X09439Y01805
X09465
X0950721Y018028
X09533Y01802
X09572Y01867
X0964055Y0183555
X09677Y01864
X09725Y01865
X09775
X09809Y01849
X0980838Y018972
X09882Y01862
X09904Y01883
X09985Y0187
X09997Y01893
X09996Y01844
X0995Y01835
X09955Y01789
X10042Y0179
X10067Y01789
X10158Y01761
X1019Y0178393
X10229Y01792
X10169Y01836
X10166Y01861
X10168Y01887
X10135
X10202
X10258Y01932
X1033593Y0192907
X1037Y01935
X10395Y02005
X1044Y0197
X10425Y01885
X10377Y01801
X1035Y01763
X1055Y01925
X10552Y0202099
X1049Y02125
X10515Y0219
Y0224
Y02285
Y0234
X1051482Y0238
X10514Y02434
X1051Y02485
X10515Y02525
Y02575
Y02625
X104Y0257
Y0254
X10455Y0251
X104Y02415
X10415Y0232
X10473Y02322
X10455Y02285
Y02235
X1036Y0221
X1039524Y0217476
X10372Y02112
X10315Y02095
Y02145
X1026Y0215
X10225Y02141
X10195Y0211
X1015659Y0209274
X10056Y02143
X10014Y02142
X0992Y02165
Y022
X0989Y02177
X09885Y02225
X0986Y0221
X0984Y02225
X0982Y0221
X0978Y0223543
X09795Y02255
X09945Y0226
X10005
X101Y02255
X1021
X1024Y02265
X10285
X1029Y0232
X10265Y02315
X1024Y02335
X1022Y0235
X10205Y02315
X1026Y0237
X1024274Y0239226
X10225Y0242
X1029Y02445
X1022624Y0260624
X10195Y0271
X1016
X10149Y02746
X1019Y02745
X10285
X1029Y0271
X1026
X10345Y02735
X10405Y02705
X10345Y02625
X1027291Y0283991
X1042Y0286
X105
X1054Y0282
X10385Y02945
X103Y02995
X10185Y02975
X102416Y03075
X1Y0302
X09995Y02915
X10014Y02746
X1005Y02745
X1004Y0271
X1007
X10005
X09915Y02745
X0988Y0264
X0984886Y02645
X0982114
X0978Y0264
Y026
X09815Y0257
X098Y0254
Y0249
X0982Y02415
X09935Y02445
X0999Y024
Y02505
X09974Y02606
X09945Y02605
X0962Y0259
X0963Y0263
X0956Y02625
X09488Y02626
X0947Y02595
X0944Y02625
X09414Y02551
X0945105Y0252599
X09467Y02497
X09494Y02467
X0956104Y02415
X09596Y0242
X09618Y02347
X09643
X09673Y02342
X09671Y02298
X09676Y02399
Y02154
X09712Y02142
X0968Y02101
X0965421Y0209557
X0962672Y0204815
X09629Y01946
X09651Y01934
X0971Y0192
X09725Y02061
X09782Y02063
X09872Y02054
X09979Y01962
X09595Y0197
X09565
X09535Y0195579
X0951Y01929
X0948609Y0192962
X0945925Y0192862
X0943563Y0192162
X0944Y01859
X09474Y01871
X0948Y0207
X0951Y0206457
Y02125
X0950294Y0215953
X09535Y02145
X0958
X0956Y02165
X0941Y02255
X0944Y02346
X09476Y02341
X09413Y024
X09433Y02938
X09583Y02879
X09668Y02779
X0975657Y0292158
X0969886Y0298
X10415Y0207
X0937Y02005
X0935Y01975
X0931Y0197
X09305Y02
X09283Y01952
X09305Y0189
X09325Y0187
X09285
X0926Y0186
X09246Y01881
X0922Y0190729
X09205Y0193
Y01965
X0916524Y0194081
X09165Y0199
X0916068Y02015
X09125
X09138Y02058
X0908726Y0205774
X0906Y0207
X09035Y0207774
X09085Y02095
X090621Y0217826
X0898Y02155
X08995Y02135
X0894858Y0216138
X08945Y02185
X08975Y02215
X0898Y0224
X09009Y02262
X09033Y023
X09084Y02339
X0913Y02394
X09154Y02402
X09187Y02419
X09189Y02443
X09237Y0249
X0925623Y0252
X09255Y02575
X09297Y0249183
X09322Y02468
X09308Y02448
Y0242
X09343Y0244
X09357Y0246
X09344Y02396
X09325Y0224
X0931Y0219
X0928Y02155
X09345Y0215
X09365Y02165
X09255Y021
X09231Y02105
X09215Y02136
X0922Y02064
X0919697Y0205362
X09195Y0203
X09175Y02265
X0916Y02285
X0919Y023
X09209Y02331
X09141Y02248
X0888Y02225
X0892Y02325
X08946Y02352
X08972Y02374
X08992Y024
X09022Y02434
X09023Y02483
X0904Y02515
X09025Y02536
X09068Y02609
X09115Y0258
X09141Y02644
X09109Y02703
X09036Y02688
X08996Y02695
X0896596Y0269004
X0890646
X08909Y02594
X08886Y02503
X0894Y02501
X0893Y02475
X08924Y0242
X0899073Y0264044
X08944Y0289
X08943Y02936
Y02981
X0891Y02955
X0903541Y0292827
X09073Y02957
X09096Y0283946
X09264Y02845
X0922Y0275016
X09196Y0275
X09189Y02983
X0923Y03008
X09277Y03
X09309Y02985
X0900794Y0305115
X08842Y03067
X09356Y02663
X09369Y02596
X09367Y01923
X09337Y01915
X09365Y01775
X0913Y01785
X09055Y0184
X0898Y0187
Y01895
X0897Y02
X08945Y0202
X0892Y0201
X08884Y02054
X0885Y0198
T02
X09935Y01995
X0933Y02695
T03
X08844Y02191
Y02291
Y02391
Y02491
Y02591
Y02691
Y02791
T04
X09425Y01735
X09621Y01737
X09721
X09821
X09921
X09325Y01735
X09225
X09125
X09025
X08925
X09026Y02215
X09099Y02204
X09089Y02283
X0914Y02346
X09215Y02376
X09331Y02352
X09249Y02635
X09096Y02658
X09087Y02539
X09107Y0278
X0909Y03125
X0919
X0929
X0899
X0889
X0939
T05
X10116Y02863
T07
X0947392Y0275793
X09565Y03028
X10509
Y01831
T08
X10116Y0199593
M30
