G04 Layer_Color=128*
%FSAX42Y42*%
%MOMM*%
G71*
G01*
G75*
%ADD53C,0.05*%
D53*
X005850Y005651D02*
X005950D01*
X005900Y005601D02*
Y005701D01*
X007556Y005650D02*
X007656D01*
X007606Y005600D02*
Y005700D01*
X007556Y007349D02*
X007656D01*
X007606Y007299D02*
Y007399D01*
X005850Y007350D02*
X005950D01*
X005900Y007300D02*
Y007400D01*
X010075Y005000D02*
X010325D01*
X010200Y004875D02*
Y005125D01*
X013075Y008000D02*
X013325D01*
X013200Y007875D02*
Y008125D01*
X013075Y005000D02*
X013325D01*
X013200Y004875D02*
Y005125D01*
X010075Y008000D02*
X010325D01*
X010200Y007875D02*
Y008125D01*
X006840Y005700D02*
X006860D01*
X006850Y005690D02*
Y005710D01*
X006940Y005700D02*
X006960D01*
X006950Y005690D02*
Y005710D01*
X007040Y005700D02*
X007060D01*
X007050Y005690D02*
Y005710D01*
X007140Y005700D02*
X007160D01*
X007150Y005690D02*
Y005710D01*
X007240Y005700D02*
X007260D01*
X007250Y005690D02*
Y005710D01*
X007340Y005700D02*
X007360D01*
X007350Y005690D02*
Y005710D01*
X007440Y005700D02*
X007460D01*
X007450Y005690D02*
Y005710D01*
X007540Y005800D02*
X007560D01*
X007550Y005790D02*
Y005810D01*
X007540Y005900D02*
X007560D01*
X007550Y005890D02*
Y005910D01*
X007540Y006000D02*
X007560D01*
X007550Y005990D02*
Y006010D01*
X007540Y006100D02*
X007560D01*
X007550Y006090D02*
Y006110D01*
X007540Y006900D02*
X007560D01*
X007550Y006890D02*
Y006910D01*
X007540Y007000D02*
X007560D01*
X007550Y006990D02*
Y007010D01*
X007540Y007100D02*
X007560D01*
X007550Y007090D02*
Y007110D01*
X007540Y007200D02*
X007560D01*
X007550Y007190D02*
Y007210D01*
X007440Y007300D02*
X007460D01*
X007450Y007290D02*
Y007310D01*
X007340Y007300D02*
X007360D01*
X007350Y007290D02*
Y007310D01*
X007240Y007300D02*
X007260D01*
X007250Y007290D02*
Y007310D01*
X007140Y007300D02*
X007160D01*
X007150Y007290D02*
Y007310D01*
X007040Y007300D02*
X007060D01*
X007050Y007290D02*
Y007310D01*
X006940Y007300D02*
X006960D01*
X006950Y007290D02*
Y007310D01*
X006840Y007300D02*
X006860D01*
X006850Y007290D02*
Y007310D01*
X006740Y007300D02*
X006760D01*
X006750Y007290D02*
Y007310D01*
X006640Y007300D02*
X006660D01*
X006650Y007290D02*
Y007310D01*
X006540Y007300D02*
X006560D01*
X006550Y007290D02*
Y007310D01*
X006440Y007300D02*
X006460D01*
X006450Y007290D02*
Y007310D01*
X006340Y007300D02*
X006360D01*
X006350Y007290D02*
Y007310D01*
X006240Y007300D02*
X006260D01*
X006250Y007290D02*
Y007310D01*
X006140Y007300D02*
X006160D01*
X006150Y007290D02*
Y007310D01*
X006040Y007300D02*
X006060D01*
X006050Y007290D02*
Y007310D01*
X005940Y007200D02*
X005960D01*
X005950Y007190D02*
Y007210D01*
X005940Y007100D02*
X005960D01*
X005950Y007090D02*
Y007110D01*
X005940Y007000D02*
X005960D01*
X005950Y006990D02*
Y007010D01*
X005940Y006900D02*
X005960D01*
X005950Y006890D02*
Y006910D01*
X005940Y006800D02*
X005960D01*
X005950Y006790D02*
Y006810D01*
X005940Y006700D02*
X005960D01*
X005950Y006690D02*
Y006710D01*
X005940Y005800D02*
X005960D01*
X005950Y005790D02*
Y005810D01*
X005940Y005900D02*
X005960D01*
X005950Y005890D02*
Y005910D01*
X005940Y006000D02*
X005960D01*
X005950Y005990D02*
Y006010D01*
X005940Y006200D02*
X005960D01*
X005950Y006190D02*
Y006210D01*
X005940Y006100D02*
X005960D01*
X005950Y006090D02*
Y006110D01*
X005940Y006300D02*
X005960D01*
X005950Y006290D02*
Y006310D01*
X005940Y006600D02*
X005960D01*
X005950Y006590D02*
Y006610D01*
X005940Y006400D02*
X005960D01*
X005950Y006390D02*
Y006410D01*
X005940Y006500D02*
X005960D01*
X005950Y006490D02*
Y006510D01*
X006040Y005700D02*
X006060D01*
X006050Y005690D02*
Y005710D01*
X006140Y005700D02*
X006160D01*
X006150Y005690D02*
Y005710D01*
X006240Y005700D02*
X006260D01*
X006250Y005690D02*
Y005710D01*
X006340Y005700D02*
X006360D01*
X006350Y005690D02*
Y005710D01*
X006440Y005700D02*
X006460D01*
X006450Y005690D02*
Y005710D01*
X006640Y005700D02*
X006660D01*
X006650Y005690D02*
Y005710D01*
X007064Y005911D02*
X007084D01*
X007074Y005901D02*
Y005921D01*
X013272Y007231D02*
X013292D01*
X013282Y007221D02*
Y007241D01*
X006632Y006756D02*
X006652D01*
X006642Y006746D02*
Y006766D01*
X006632Y006909D02*
X006652D01*
X006642Y006899D02*
Y006919D01*
X010490Y008000D02*
X010510D01*
X010500Y007990D02*
Y008010D01*
X010740Y008000D02*
X010760D01*
X010750Y007990D02*
Y008010D01*
X010990Y008000D02*
X011010D01*
X011000Y007990D02*
Y008010D01*
X011240Y008000D02*
X011260D01*
X011250Y007990D02*
Y008010D01*
X011490Y008000D02*
X011510D01*
X011500Y007990D02*
Y008010D01*
X011740Y008000D02*
X011760D01*
X011750Y007990D02*
Y008010D01*
X011990Y008000D02*
X012010D01*
X012000Y007990D02*
Y008010D01*
X012240Y008000D02*
X012260D01*
X012250Y007990D02*
Y008010D01*
X012490Y008000D02*
X012510D01*
X012500Y007990D02*
Y008010D01*
X012740Y008000D02*
X012760D01*
X012750Y007990D02*
Y008010D01*
X010490Y007750D02*
X010510D01*
X010500Y007740D02*
Y007760D01*
X010740Y007750D02*
X010760D01*
X010750Y007740D02*
Y007760D01*
X010990Y007750D02*
X011010D01*
X011000Y007740D02*
Y007760D01*
X011240Y007750D02*
X011260D01*
X011250Y007740D02*
Y007760D01*
X011490Y007750D02*
X011510D01*
X011500Y007740D02*
Y007760D01*
X011740Y007750D02*
X011760D01*
X011750Y007740D02*
Y007760D01*
X011990Y007750D02*
X012010D01*
X012000Y007740D02*
Y007760D01*
X012240Y007750D02*
X012260D01*
X012250Y007740D02*
Y007760D01*
X012490Y007750D02*
X012510D01*
X012500Y007740D02*
Y007760D01*
X012740Y007750D02*
X012760D01*
X012750Y007740D02*
Y007760D01*
X012490Y007500D02*
X012510D01*
X012500Y007490D02*
Y007510D01*
X012240Y007500D02*
X012260D01*
X012250Y007490D02*
Y007510D01*
X011990Y007500D02*
X012010D01*
X012000Y007490D02*
Y007510D01*
X011740Y007500D02*
X011760D01*
X011750Y007490D02*
Y007510D01*
X011490Y007500D02*
X011510D01*
X011500Y007490D02*
Y007510D01*
X011240Y007500D02*
X011260D01*
X011250Y007490D02*
Y007510D01*
X010990Y007500D02*
X011010D01*
X011000Y007490D02*
Y007510D01*
X010740Y007500D02*
X010760D01*
X010750Y007490D02*
Y007510D01*
X010240Y005500D02*
X010260D01*
X010250Y005490D02*
Y005510D01*
X010490Y005500D02*
X010510D01*
X010500Y005490D02*
Y005510D01*
X011740Y005500D02*
X011760D01*
X011750Y005490D02*
Y005510D01*
X010990Y005500D02*
X011010D01*
X011000Y005490D02*
Y005510D01*
X010740Y005500D02*
X010760D01*
X010750Y005490D02*
Y005510D01*
X011240Y005500D02*
X011260D01*
X011250Y005490D02*
Y005510D01*
X011490Y005500D02*
X011510D01*
X011500Y005490D02*
Y005510D01*
X011990Y005500D02*
X012010D01*
X012000Y005490D02*
Y005510D01*
X012490Y005250D02*
X012510D01*
X012500Y005240D02*
Y005260D01*
X012740Y005250D02*
X012760D01*
X012750Y005240D02*
Y005260D01*
X012990Y005250D02*
X013010D01*
X013000Y005240D02*
Y005260D01*
X012740Y005000D02*
X012760D01*
X012750Y004990D02*
Y005010D01*
X010990Y005000D02*
X011010D01*
X011000Y004990D02*
Y005010D01*
X010490Y005000D02*
X010510D01*
X010500Y004990D02*
Y005010D01*
X010740Y005000D02*
X010760D01*
X010750Y004990D02*
Y005010D01*
X011490Y005000D02*
X011510D01*
X011500Y004990D02*
Y005010D01*
X011240Y005000D02*
X011260D01*
X011250Y004990D02*
Y005010D01*
X012490Y005000D02*
X012510D01*
X012500Y004990D02*
Y005010D01*
X011740Y005000D02*
X011760D01*
X011750Y004990D02*
Y005010D01*
X011990Y005000D02*
X012010D01*
X012000Y004990D02*
Y005010D01*
X012240Y005000D02*
X012260D01*
X012250Y004990D02*
Y005010D01*
X010490Y005250D02*
X010510D01*
X010500Y005240D02*
Y005260D01*
X010740Y005250D02*
X010760D01*
X010750Y005240D02*
Y005260D01*
X010990Y005250D02*
X011010D01*
X011000Y005240D02*
Y005260D01*
X011740Y005250D02*
X011760D01*
X011750Y005240D02*
Y005260D01*
X011240Y005250D02*
X011260D01*
X011250Y005240D02*
Y005260D01*
X011490Y005250D02*
X011510D01*
X011500Y005240D02*
Y005260D01*
X012240Y005250D02*
X012260D01*
X012250Y005240D02*
Y005260D01*
X011990Y005250D02*
X012010D01*
X012000Y005240D02*
Y005260D01*
X010490Y007500D02*
X010510D01*
X010500Y007490D02*
Y007510D01*
X010240Y007500D02*
X010260D01*
X010250Y007490D02*
Y007510D01*
X007392Y006800D02*
X007412D01*
X007402Y006790D02*
Y006810D01*
X007090Y006964D02*
X007110D01*
X007100Y006954D02*
Y006974D01*
X006114Y007031D02*
X006134D01*
X006124Y007021D02*
Y007041D01*
X007249Y006944D02*
X007269D01*
X007259Y006934D02*
Y006954D01*
X006236Y005895D02*
X006256D01*
X006246Y005885D02*
Y005905D01*
X006462Y005885D02*
X006482D01*
X006472Y005875D02*
Y005895D01*
X006703Y005773D02*
X006723D01*
X006713Y005763D02*
Y005783D01*
X006564Y006030D02*
X006584D01*
X006574Y006020D02*
Y006040D01*
X006876Y005977D02*
X006896D01*
X006886Y005967D02*
Y005987D01*
X006642Y006218D02*
X006662D01*
X006652Y006208D02*
Y006228D01*
X006142Y005862D02*
X006162D01*
X006152Y005852D02*
Y005872D01*
X006226Y006566D02*
X006246D01*
X006236Y006556D02*
Y006576D01*
X006594Y006327D02*
X006614D01*
X006604Y006317D02*
Y006337D01*
X006772Y006617D02*
X006792D01*
X006782Y006607D02*
Y006627D01*
X006122Y006919D02*
X006142D01*
X006132Y006909D02*
Y006929D01*
X013240Y005500D02*
X013260D01*
X013250Y005490D02*
Y005510D01*
X006740Y005700D02*
X006760D01*
X006750Y005690D02*
Y005710D01*
X006540Y005700D02*
X006560D01*
X006550Y005690D02*
Y005710D01*
X006302Y007061D02*
X006322D01*
X006312Y007051D02*
Y007071D01*
X006124Y006566D02*
X006144D01*
X006134Y006556D02*
Y006576D01*
X006302Y006490D02*
X006322D01*
X006312Y006480D02*
Y006500D01*
X006124Y006794D02*
X006144D01*
X006134Y006785D02*
Y006804D01*
X006038Y006848D02*
X006058D01*
X006048Y006838D02*
Y006858D01*
X007059Y006533D02*
X007079D01*
X007069Y006523D02*
Y006543D01*
X006696Y007079D02*
X006716D01*
X006706Y007069D02*
Y007089D01*
X007369Y006700D02*
X007389D01*
X007379Y006690D02*
Y006710D01*
X007463Y006962D02*
X007483D01*
X007473Y006952D02*
Y006972D01*
X006956Y006464D02*
X006976D01*
X006966Y006454D02*
Y006474D01*
X007435Y006309D02*
X007455D01*
X007445Y006299D02*
Y006319D01*
X007267Y006515D02*
X007287D01*
X007277Y006505D02*
Y006525D01*
X006911Y006680D02*
X006932D01*
X006921Y006670D02*
Y006690D01*
X006942Y006604D02*
X006962D01*
X006952Y006594D02*
Y006614D01*
X011928Y006350D02*
X011948D01*
X011938Y006340D02*
Y006360D01*
X012880Y005801D02*
X012901D01*
X012890Y005791D02*
Y005811D01*
X013275Y007094D02*
X013295D01*
X013285Y007084D02*
Y007104D01*
X007333Y005852D02*
X007363D01*
X007348Y005837D02*
Y005867D01*
X006757Y006942D02*
X006777D01*
X006767Y006932D02*
Y006952D01*
X013104Y007193D02*
X013124D01*
X013114Y007183D02*
Y007203D01*
X013275Y007034D02*
X013295D01*
X013285Y007024D02*
Y007044D01*
X013274Y006954D02*
X013294D01*
X013284Y006944D02*
Y006964D01*
X013216Y006955D02*
X013236D01*
X013226Y006945D02*
Y006965D01*
X013216Y007033D02*
X013236D01*
X013226Y007023D02*
Y007043D01*
X013203Y007122D02*
X013223D01*
X013213Y007112D02*
Y007132D01*
X013275Y006874D02*
X013295D01*
X013285Y006864D02*
Y006884D01*
X013108Y006874D02*
X013128D01*
X013118Y006864D02*
Y006884D01*
X011928Y005835D02*
X011948D01*
X011938Y005825D02*
Y005845D01*
X011928Y006093D02*
X011948D01*
X011938Y006083D02*
Y006103D01*
X012182Y006088D02*
X012202D01*
X012192Y006078D02*
Y006098D01*
X012433Y006600D02*
X012453D01*
X012443Y006590D02*
Y006610D01*
X012181Y006350D02*
X012201D01*
X012191Y006340D02*
Y006360D01*
X012433Y005835D02*
X012453D01*
X012443Y005825D02*
Y005845D01*
X012436Y006350D02*
X012456D01*
X012446Y006340D02*
Y006360D01*
X012182Y005835D02*
X012202D01*
X012192Y005825D02*
Y005845D01*
X012714Y005458D02*
X012734D01*
X012724Y005448D02*
Y005468D01*
X012487Y005466D02*
X012507D01*
X012497Y005456D02*
Y005476D01*
X012238Y005478D02*
X012258D01*
X012248Y005468D02*
Y005488D01*
X012299Y005613D02*
X012319D01*
X012309Y005603D02*
Y005623D01*
X012995Y007381D02*
X013015D01*
X013005Y007371D02*
Y007391D01*
X013090Y007381D02*
X013110D01*
X013100Y007371D02*
Y007391D01*
X013189Y007381D02*
X013209D01*
X013199Y007371D02*
Y007391D01*
X013285Y007381D02*
X013305D01*
X013295Y007371D02*
Y007391D01*
X013385Y007381D02*
X013405D01*
X013395Y007371D02*
Y007391D01*
X006830Y006414D02*
X006850D01*
X006840Y006404D02*
Y006424D01*
X012436Y006083D02*
X012456D01*
X012446Y006073D02*
Y006093D01*
X006022Y005780D02*
X006052D01*
X006037Y005765D02*
Y005795D01*
M02*
