G04 Layer_Color=16711935*
%FSAX42Y42*%
%MOMM*%
G71*
G01*
G75*
%ADD46C,0.08*%
%ADD47R,41.78X0.43*%
%ADD48R,41.74X0.45*%
%ADD49R,0.70X6.93*%
%ADD50R,0.62X7.10*%
D46*
X005828Y005954D02*
X005887Y005962D01*
X005772Y005935D02*
X005828Y005954D01*
X005720Y005905D02*
X005772Y005935D01*
X005675Y005867D02*
X005720Y005905D01*
X005637Y005820D02*
X005675Y005867D01*
X005610Y005767D02*
X005637Y005820D01*
X005593Y005709D02*
X005610Y005767D01*
X005587Y005650D02*
X005593Y005709D01*
X005587Y005650D02*
X005593Y005593D01*
X005608Y005538D01*
X005633Y005487D01*
X005667Y005441D01*
X005709Y005403D01*
X005757Y005372D01*
X005810Y005351D01*
X005865Y005339D01*
X005922Y005338D01*
X005978Y005347D01*
X006032Y005366D01*
X006081Y005395D01*
X006125Y005432D01*
X006160Y005476D01*
X006188Y005527D01*
X006205Y005581D01*
X006213Y005637D01*
X007288D01*
X007295Y005581D01*
X007313Y005527D01*
X007340Y005477D01*
X007376Y005433D01*
X007419Y005396D01*
X007468Y005368D01*
X007521Y005349D01*
X007577Y005339D01*
X007634Y005340D01*
X007689Y005352D01*
X007742Y005373D01*
X007790Y005403D01*
X007831Y005442D01*
X007865Y005487D01*
X007890Y005538D01*
X007906Y005592D01*
X007911Y005649D01*
X007911Y005649D02*
X007911Y005649D01*
X007911Y005649D02*
X007911Y005649D01*
X007910Y005649D02*
X007911Y005649D01*
X007910Y005649D02*
X007910Y005649D01*
X007910Y005650D02*
X007910Y005649D01*
X007910Y005650D02*
X007910Y005650D01*
X007910Y005651D02*
X007910Y005650D01*
X007910Y005651D02*
X007910Y005651D01*
X007910Y005651D01*
X007910Y005652D01*
X007910Y005652D01*
X007911Y005652D01*
X007911Y005652D01*
X007911Y005653D01*
X007905Y005712D02*
X007911Y005653D01*
X007888Y005768D02*
X007905Y005712D01*
X007861Y005821D02*
X007888Y005768D01*
X007824Y005867D02*
X007861Y005821D01*
X007779Y005906D02*
X007824Y005867D01*
X007727Y005935D02*
X007779Y005906D01*
X007671Y005954D02*
X007727Y005935D01*
X007612Y005962D02*
X007671Y005954D01*
X007612Y005962D02*
Y006272D01*
X007612Y006272D02*
X007612Y006272D01*
X007611Y006273D02*
X007612Y006272D01*
X007611Y006273D02*
X007611Y006273D01*
X007611Y006273D02*
X007611Y006273D01*
X007610Y006273D02*
X007611Y006273D01*
X007610Y006274D02*
X007610Y006273D01*
X007610Y006274D02*
X007610Y006274D01*
X007610Y006274D02*
X007610Y006275D01*
X007610Y006275D01*
X007611Y006275D01*
X007611Y006276D01*
X007611Y006276D01*
X007612Y006276D01*
X007612Y006276D01*
X007612Y006276D01*
X007613Y006276D01*
X007613Y006276D01*
X007614Y006276D01*
X007637Y006299D01*
X007636Y006299D02*
X007637Y006299D01*
X007636Y006299D02*
X007636Y006299D01*
X007636Y006300D02*
X007636Y006299D01*
X007636Y006300D02*
X007636Y006300D01*
X007636Y006301D01*
X007636Y006301D01*
X007637Y006301D01*
X007637Y006302D01*
X007637Y006302D01*
X007638Y006302D01*
X007638D01*
X007638Y006302D01*
X007639Y006302D01*
X007639Y006301D01*
X007639Y006301D01*
X007640Y006301D01*
X007640Y006300D01*
X007640Y006300D01*
X011790D01*
Y006032D02*
Y006300D01*
X011557Y005800D02*
X011790Y006032D01*
X010099Y005800D02*
X011557D01*
X009949Y005650D02*
X010099Y005800D01*
X009949Y005000D02*
Y005650D01*
Y005000D02*
X009956Y004944D01*
X009974Y004891D01*
X010004Y004844D01*
X010043Y004804D01*
X010091Y004775D01*
X010144Y004756D01*
X010199Y004750D01*
X011043Y004844D02*
X012355D01*
X013199Y004750D02*
X013255Y004756D01*
X013308Y004775D01*
X013355Y004804D01*
X013395Y004844D01*
X013425Y004891D01*
X013443Y004944D01*
X013449Y005000D01*
Y007403D01*
X013421Y007432D02*
X013449Y007403D01*
X013019Y007432D02*
X013421D01*
X012998Y007429D02*
X013019Y007432D01*
X012980Y007422D02*
X012998Y007429D01*
X012963Y007409D02*
X012980Y007422D01*
X012955Y007398D02*
X012963Y007409D01*
X012950Y007386D02*
X012955Y007398D01*
X012948Y007372D02*
X012950Y007386D01*
X012948Y006000D02*
Y007372D01*
X012943Y005961D02*
X012948Y006000D01*
X012928Y005926D02*
X012943Y005961D01*
X012905Y005895D02*
X012928Y005926D01*
X012871Y005869D02*
X012905Y005895D01*
X012831Y005853D02*
X012871Y005869D01*
X012789Y005847D02*
X012831Y005853D01*
X012766Y005847D02*
X012789D01*
X012721Y005853D02*
X012766Y005847D01*
X012679Y005870D02*
X012721Y005853D01*
X012643Y005898D02*
X012679Y005870D01*
X012627Y005919D02*
X012643Y005898D01*
X012616Y005944D02*
X012627Y005919D01*
X012613Y005971D02*
X012616Y005944D01*
X012613Y005971D02*
Y007462D01*
X012622Y007528D01*
X012647Y007588D01*
X012687Y007640D01*
X012694Y007648D01*
X012738Y007683D01*
X012787Y007710D01*
X012841Y007726D01*
X012897Y007732D01*
X013418D01*
X013449Y007763D01*
Y008000D01*
X013443Y008056D02*
X013449Y008000D01*
X013425Y008108D02*
X013443Y008056D01*
X013395Y008156D02*
X013425Y008108D01*
X013355Y008195D02*
X013395Y008156D01*
X013308Y008225D02*
X013355Y008195D01*
X013255Y008244D02*
X013308Y008225D01*
X013199Y008250D02*
X013255Y008244D01*
X011043Y008156D02*
X012355D01*
X010144Y008244D02*
X010199Y008250D01*
X010091Y008225D02*
X010144Y008244D01*
X010043Y008195D02*
X010091Y008225D01*
X010004Y008156D02*
X010043Y008195D01*
X009974Y008108D02*
X010004Y008156D01*
X009956Y008056D02*
X009974Y008108D01*
X009949Y008000D02*
X009956Y008056D01*
X009949Y007350D02*
Y008000D01*
Y007350D02*
X010099Y007200D01*
X011549D01*
X011793Y006957D01*
Y006700D02*
Y006957D01*
X007642Y006700D02*
X011793D01*
X007642Y006700D02*
X007642Y006700D01*
X007642Y006699D02*
X007642Y006700D01*
X007642Y006699D02*
X007642Y006699D01*
X007641Y006699D02*
X007642Y006699D01*
X007641Y006698D02*
X007641Y006699D01*
X007641Y006698D02*
X007641Y006698D01*
X007640Y006698D02*
X007641Y006698D01*
X007640Y006698D02*
X007640D01*
X007640Y006698D02*
X007640Y006698D01*
X007639Y006698D02*
X007640Y006698D01*
X007639Y006699D02*
X007639Y006698D01*
X007639Y006699D02*
X007639Y006699D01*
X007638Y006699D02*
X007639Y006699D01*
X007638Y006700D02*
X007638Y006699D01*
X007638Y006700D02*
X007638Y006700D01*
X007638Y006700D02*
X007638Y006700D01*
X007638Y006701D01*
X007639Y006701D01*
X007613Y006727D02*
X007639Y006701D01*
X007613Y006726D02*
X007613Y006727D01*
X007613Y006726D02*
X007613Y006726D01*
X007612Y006726D02*
X007613Y006726D01*
X007612Y006726D02*
X007612Y006726D01*
X007612Y006726D02*
X007612Y006726D01*
X007611Y006726D02*
X007612Y006726D01*
X007611Y006726D02*
X007611Y006726D01*
X007611Y006727D02*
X007611Y006726D01*
X007610Y006727D02*
X007611Y006727D01*
X007610Y006728D02*
X007610Y006727D01*
X007610Y006728D02*
X007610Y006728D01*
X007610Y006728D02*
X007610Y006728D01*
X007610Y006729D01*
X007611Y006729D01*
X007611Y006729D01*
X007611Y006730D01*
X007612Y006730D01*
X007612Y006730D01*
Y007037D01*
X007671Y007045D01*
X007727Y007065D01*
X007779Y007094D01*
X007824Y007132D01*
X007861Y007179D01*
X007888Y007231D01*
X007905Y007288D01*
X007911Y007347D01*
X007911Y007347D02*
X007911Y007347D01*
X007911Y007347D02*
X007911Y007347D01*
X007910Y007348D02*
X007911Y007347D01*
X007910Y007348D02*
X007910Y007348D01*
X007910Y007348D02*
X007910Y007348D01*
X007910Y007349D02*
X007910Y007348D01*
X007909Y007349D02*
X007910Y007349D01*
X007909Y007349D02*
X007910Y007350D01*
X007910Y007350D01*
X007910Y007350D01*
X007910Y007351D01*
X007911Y007351D01*
X007911Y007351D01*
X007911Y007351D01*
X007906Y007407D02*
X007911Y007351D01*
X007890Y007462D02*
X007906Y007407D01*
X007865Y007513D02*
X007890Y007462D01*
X007831Y007558D02*
X007865Y007513D01*
X007789Y007597D02*
X007831Y007558D01*
X007742Y007627D02*
X007789Y007597D01*
X007689Y007648D02*
X007742Y007627D01*
X007633Y007659D02*
X007689Y007648D01*
X007577Y007660D02*
X007633Y007659D01*
X007521Y007651D02*
X007577Y007660D01*
X007468Y007632D02*
X007521Y007651D01*
X007419Y007603D02*
X007468Y007632D01*
X007376Y007567D02*
X007419Y007603D01*
X007340Y007522D02*
X007376Y007567D01*
X007313Y007473D02*
X007340Y007522D01*
X007295Y007419D02*
X007313Y007473D01*
X007288Y007363D02*
X007295Y007419D01*
X006213Y007363D02*
X007288Y007363D01*
X006205Y007419D02*
X006213Y007363D01*
X006188Y007473D02*
X006205Y007419D01*
X006160Y007523D02*
X006188Y007473D01*
X006125Y007568D02*
X006160Y007523D01*
X006081Y007605D02*
X006125Y007568D01*
X006032Y007633D02*
X006081Y007605D01*
X005978Y007653D02*
X006032Y007633D01*
X005922Y007662D02*
X005978Y007653D01*
X005865Y007661D02*
X005922Y007662D01*
X005810Y007649D02*
X005865Y007661D01*
X005757Y007628D02*
X005810Y007649D01*
X005709Y007597D02*
X005757Y007628D01*
X005667Y007558D02*
X005709Y007597D01*
X005633Y007513D02*
X005667Y007558D01*
X005608Y007461D02*
X005633Y007513D01*
X005593Y007407D02*
X005608Y007461D01*
X005587Y007350D02*
X005593Y007407D01*
X005587Y007350D02*
X005593Y007290D01*
X005610Y007233D01*
X005637Y007180D01*
X005675Y007133D01*
X005720Y007094D01*
X005772Y007065D01*
X005828Y007046D01*
X005887Y007037D01*
Y005962D02*
Y007037D01*
X010949Y008250D02*
X011043Y008156D01*
X010199Y008250D02*
X010949D01*
X012355Y008156D02*
X012449Y008250D01*
X013199D01*
X010949Y004750D02*
X011043Y004844D01*
X010199Y004750D02*
X010949D01*
X012355Y004844D02*
X012449Y004750D01*
X013199D01*
D47*
X009700Y006328D02*
D03*
D48*
X009698Y006677D02*
D03*
D49*
X012983Y006308D02*
D03*
D50*
X013406Y006300D02*
D03*
M02*
