G04 Layer_Physical_Order=2*
G04 Layer_Color=36540*
%FSAX42Y42*%
%MOMM*%
G71*
G01*
G75*
%ADD21C,0.15*%
%ADD26C,0.45*%
%ADD27C,0.60*%
%ADD28C,1.50*%
G36*
X013251Y008227D02*
X013300Y008210D01*
X013325Y008194D01*
X013319Y008183D01*
X013284Y008202D01*
X013243Y008215D01*
X013200Y008219D01*
X013157Y008215D01*
X013116Y008202D01*
X013078Y008182D01*
X013045Y008155D01*
X013018Y008122D01*
X012998Y008084D01*
X012985Y008043D01*
X012981Y008000D01*
X012985Y007957D01*
X012998Y007916D01*
X013018Y007878D01*
X013045Y007845D01*
X013078Y007818D01*
X013116Y007798D01*
X013157Y007785D01*
X013200Y007781D01*
X013243Y007785D01*
X013284Y007798D01*
X013322Y007818D01*
X013355Y007845D01*
X013382Y007878D01*
X013402Y007916D01*
X013415Y007957D01*
X013419Y008000D01*
X013415Y008043D01*
X013403Y008079D01*
X013416Y008083D01*
X013427Y008052D01*
X013432Y007999D01*
Y007770D01*
X013411Y007749D01*
X012897D01*
X012896Y007748D01*
X012895Y007748D01*
X012839Y007743D01*
X012838Y007742D01*
X012836Y007742D01*
X012794Y007730D01*
X012791Y007732D01*
X012784Y007740D01*
X012786Y007750D01*
X012783Y007764D01*
X012775Y007775D01*
X012764Y007783D01*
X012750Y007786D01*
X012736Y007783D01*
X012725Y007775D01*
X012717Y007764D01*
X012714Y007750D01*
X012717Y007736D01*
X012725Y007725D01*
X012736Y007717D01*
X012737Y007717D01*
X012739Y007703D01*
X012730Y007698D01*
X012728Y007697D01*
X012727Y007696D01*
X012684Y007661D01*
X012683Y007660D01*
X012682Y007660D01*
X012675Y007652D01*
X012674Y007651D01*
X012673Y007650D01*
X012633Y007598D01*
X012632Y007596D01*
X012631Y007595D01*
X012606Y007534D01*
X012606Y007532D01*
X012605Y007530D01*
X012596Y007465D01*
X012596Y007464D01*
X012596Y007462D01*
Y005971D01*
X012596Y005970D01*
X012596Y005969D01*
X012600Y005942D01*
X012601Y005940D01*
X012601Y005938D01*
X012611Y005913D01*
X012613Y005911D01*
X012614Y005909D01*
X012630Y005888D01*
X012632Y005886D01*
X012633Y005884D01*
X012669Y005857D01*
X012671Y005856D01*
X012673Y005855D01*
X012715Y005837D01*
X012717Y005837D01*
X012719Y005836D01*
X012764Y005830D01*
X012765Y005830D01*
X012766Y005830D01*
X012789D01*
X012790Y005830D01*
X012791Y005830D01*
X012833Y005836D01*
X012835Y005837D01*
X012838Y005837D01*
X012877Y005854D01*
X012879Y005855D01*
X012881Y005856D01*
X012915Y005882D01*
X012917Y005884D01*
X012918Y005885D01*
X012942Y005916D01*
X012943Y005918D01*
X012944Y005919D01*
X012956Y005948D01*
X013019D01*
X013028Y005952D01*
X013032Y005961D01*
Y006655D01*
X013028Y006665D01*
X013019Y006669D01*
X012965D01*
Y007355D01*
X012978Y007358D01*
X012979Y007356D01*
X012991Y007348D01*
X013005Y007345D01*
X013019Y007348D01*
X013030Y007356D01*
X013038Y007368D01*
X013041Y007381D01*
X013038Y007395D01*
X013033Y007402D01*
X013039Y007415D01*
X013066D01*
X013072Y007402D01*
X013067Y007395D01*
X013064Y007381D01*
X013067Y007368D01*
X013075Y007356D01*
X013087Y007348D01*
X013100Y007345D01*
X013114Y007348D01*
X013126Y007356D01*
X013133Y007368D01*
X013136Y007381D01*
X013133Y007395D01*
X013129Y007402D01*
X013134Y007415D01*
X013165D01*
X013171Y007402D01*
X013166Y007395D01*
X013163Y007381D01*
X013166Y007368D01*
X013174Y007356D01*
X013185Y007348D01*
X013199Y007345D01*
X013213Y007348D01*
X013224Y007356D01*
X013232Y007368D01*
X013235Y007381D01*
X013232Y007395D01*
X013227Y007402D01*
X013233Y007415D01*
X013261D01*
X013267Y007402D01*
X013262Y007395D01*
X013260Y007381D01*
X013262Y007368D01*
X013270Y007356D01*
X013282Y007348D01*
X013295Y007345D01*
X013309Y007348D01*
X013321Y007356D01*
X013329Y007368D01*
X013331Y007381D01*
X013329Y007395D01*
X013324Y007402D01*
X013329Y007415D01*
X013361D01*
X013366Y007402D01*
X013362Y007395D01*
X013359Y007381D01*
X013362Y007368D01*
X013369Y007356D01*
X013381Y007348D01*
X013395Y007345D01*
X013408Y007348D01*
X013420Y007356D01*
X013422Y007355D01*
X013432Y007352D01*
Y006669D01*
X013375D01*
X013365Y006665D01*
X013361Y006655D01*
Y005944D01*
X013365Y005935D01*
X013375Y005931D01*
X013432D01*
Y005001D01*
X013427Y004948D01*
X013415Y004916D01*
X013403Y004920D01*
X013415Y004957D01*
X013419Y005000D01*
X013415Y005043D01*
X013402Y005084D01*
X013382Y005122D01*
X013355Y005155D01*
X013322Y005182D01*
X013284Y005202D01*
X013243Y005215D01*
X013200Y005219D01*
X013157Y005215D01*
X013116Y005202D01*
X013078Y005182D01*
X013045Y005155D01*
X013018Y005122D01*
X012998Y005084D01*
X012985Y005043D01*
X012981Y005000D01*
X012985Y004957D01*
X012998Y004916D01*
X013018Y004878D01*
X013045Y004845D01*
X013078Y004818D01*
X013116Y004798D01*
X013157Y004785D01*
X013200Y004781D01*
X013243Y004785D01*
X013284Y004798D01*
X013321Y004818D01*
X013327Y004807D01*
X013300Y004790D01*
X013251Y004773D01*
X013198Y004767D01*
X012456D01*
X012367Y004856D01*
X012362Y004860D01*
X012355Y004861D01*
X011043D01*
X011037Y004860D01*
X011032Y004856D01*
X010942Y004767D01*
X010200D01*
X010147Y004773D01*
X010098Y004790D01*
X010054Y004818D01*
X010017Y004855D01*
X009989Y004899D01*
X009972Y004948D01*
X009966Y005001D01*
Y005643D01*
X010106Y005783D01*
X011557D01*
X011564Y005784D01*
X011569Y005788D01*
X011802Y006021D01*
X011806Y006026D01*
X011807Y006032D01*
Y006300D01*
X011806Y006306D01*
X011803Y006310D01*
Y006350D01*
X011799Y006360D01*
X011789Y006364D01*
X007611D01*
X007602Y006360D01*
X007598Y006350D01*
Y006307D01*
X007599Y006302D01*
X007601Y006296D01*
X007597Y006285D01*
X007597Y006285D01*
X007597Y006285D01*
X007596Y006284D01*
X007596Y006284D01*
X007596Y006283D01*
X007596Y006283D01*
X007595Y006282D01*
X007595Y006281D01*
X007595Y006281D01*
X007594Y006280D01*
X007594Y006280D01*
X007594Y006279D01*
X007594Y006279D01*
X007594Y006278D01*
X007594Y006277D01*
X007594Y006277D01*
X007594Y006276D01*
X007594Y006276D01*
X007594Y006275D01*
X007594Y006275D01*
X007594Y006274D01*
X007594Y006273D01*
X007594Y006273D01*
X007594Y006272D01*
X007594Y006272D01*
X007594Y006271D01*
X007594Y006271D01*
X007594Y006270D01*
X007594Y006269D01*
X007594Y006269D01*
X007594Y006268D01*
X007595Y006268D01*
X007595Y006267D01*
X007595Y006267D01*
X007595Y006266D01*
Y006121D01*
X007584Y006114D01*
X007583Y006115D01*
X007575Y006125D01*
X007564Y006133D01*
X007550Y006136D01*
X007536Y006133D01*
X007525Y006125D01*
X007517Y006114D01*
X007514Y006100D01*
X007517Y006086D01*
X007525Y006075D01*
X007536Y006067D01*
X007550Y006064D01*
X007564Y006067D01*
X007575Y006075D01*
X007583Y006085D01*
X007584Y006086D01*
X007595Y006079D01*
Y006021D01*
X007584Y006014D01*
X007583Y006015D01*
X007575Y006025D01*
X007564Y006033D01*
X007550Y006036D01*
X007536Y006033D01*
X007525Y006025D01*
X007517Y006014D01*
X007514Y006000D01*
X007517Y005986D01*
X007525Y005975D01*
X007536Y005967D01*
X007550Y005964D01*
X007564Y005967D01*
X007575Y005975D01*
X007583Y005985D01*
X007584Y005986D01*
X007595Y005979D01*
Y005962D01*
X007596Y005960D01*
X007596Y005958D01*
X007596Y005957D01*
X007597Y005956D01*
X007598Y005954D01*
X007599Y005952D01*
X007600Y005951D01*
X007600Y005950D01*
X007602Y005949D01*
X007604Y005948D01*
X007605Y005947D01*
X007606Y005947D01*
X007608Y005946D01*
X007610Y005946D01*
X007667Y005938D01*
X007720Y005920D01*
X007769Y005892D01*
X007812Y005856D01*
X007847Y005812D01*
X007873Y005762D01*
X007889Y005708D01*
X007894Y005657D01*
X007894Y005657D01*
X007894Y005657D01*
X007894Y005656D01*
X007893Y005655D01*
X007893Y005655D01*
X007893Y005654D01*
X007893Y005654D01*
X007893Y005653D01*
X007893Y005652D01*
X007893Y005652D01*
X007893Y005651D01*
X007893Y005651D01*
X007893Y005650D01*
X007893Y005650D01*
X007893Y005649D01*
X007893Y005648D01*
X007893Y005647D01*
X007893Y005647D01*
X007893Y005646D01*
X007893Y005646D01*
X007894Y005646D01*
X007894Y005645D01*
X007894Y005644D01*
X007894Y005644D01*
X007889Y005595D01*
X007875Y005544D01*
X007851Y005496D01*
X007819Y005453D01*
X007779Y005417D01*
X007734Y005388D01*
X007684Y005368D01*
X007632Y005357D01*
X007578Y005356D01*
X007525Y005365D01*
X007475Y005383D01*
X007428Y005410D01*
X007388Y005445D01*
X007354Y005487D01*
X007328Y005534D01*
X007312Y005585D01*
X007304Y005639D01*
X007304Y005641D01*
X007303Y005644D01*
X007303Y005645D01*
X007302Y005646D01*
X007301Y005647D01*
X007300Y005649D01*
X007299Y005650D01*
X007298Y005651D01*
X007296Y005652D01*
X007294Y005653D01*
X007293Y005653D01*
X007292Y005653D01*
X007290Y005654D01*
X007288Y005654D01*
X007264D01*
X007263Y005667D01*
X007264Y005667D01*
X007275Y005675D01*
X007283Y005686D01*
X007286Y005700D01*
X007283Y005714D01*
X007275Y005725D01*
X007264Y005733D01*
X007250Y005736D01*
X007236Y005733D01*
X007225Y005725D01*
X007217Y005714D01*
X007214Y005700D01*
X007217Y005686D01*
X007225Y005675D01*
X007236Y005667D01*
X007237Y005667D01*
X007236Y005654D01*
X007164D01*
X007163Y005667D01*
X007164Y005667D01*
X007175Y005675D01*
X007183Y005686D01*
X007186Y005700D01*
X007183Y005714D01*
X007175Y005725D01*
X007164Y005733D01*
X007150Y005736D01*
X007136Y005733D01*
X007125Y005725D01*
X007117Y005714D01*
X007114Y005700D01*
X007117Y005686D01*
X007125Y005675D01*
X007136Y005667D01*
X007137Y005667D01*
X007136Y005654D01*
X007064D01*
X007063Y005667D01*
X007064Y005667D01*
X007075Y005675D01*
X007083Y005686D01*
X007086Y005700D01*
X007083Y005714D01*
X007075Y005725D01*
X007064Y005733D01*
X007050Y005736D01*
X007036Y005733D01*
X007025Y005725D01*
X007017Y005714D01*
X007014Y005700D01*
X007017Y005686D01*
X007025Y005675D01*
X007036Y005667D01*
X007037Y005667D01*
X007036Y005654D01*
X006964D01*
X006963Y005667D01*
X006964Y005667D01*
X006975Y005675D01*
X006983Y005686D01*
X006986Y005700D01*
X006983Y005714D01*
X006975Y005725D01*
X006964Y005733D01*
X006950Y005736D01*
X006936Y005733D01*
X006925Y005725D01*
X006917Y005714D01*
X006914Y005700D01*
X006917Y005686D01*
X006925Y005675D01*
X006936Y005667D01*
X006937Y005667D01*
X006936Y005654D01*
X006864D01*
X006863Y005667D01*
X006864Y005667D01*
X006875Y005675D01*
X006883Y005686D01*
X006886Y005700D01*
X006883Y005714D01*
X006875Y005725D01*
X006864Y005733D01*
X006850Y005736D01*
X006836Y005733D01*
X006825Y005725D01*
X006817Y005714D01*
X006814Y005700D01*
X006817Y005686D01*
X006825Y005675D01*
X006836Y005667D01*
X006837Y005667D01*
X006836Y005654D01*
X006764D01*
X006763Y005667D01*
X006764Y005667D01*
X006775Y005675D01*
X006783Y005686D01*
X006786Y005700D01*
X006783Y005714D01*
X006775Y005725D01*
X006764Y005733D01*
X006750Y005736D01*
X006740Y005734D01*
X006735Y005746D01*
X006739Y005748D01*
X006746Y005760D01*
X006749Y005773D01*
X006746Y005787D01*
X006739Y005799D01*
X006727Y005807D01*
X006713Y005809D01*
X006699Y005807D01*
X006688Y005799D01*
X006680Y005787D01*
X006677Y005773D01*
X006680Y005760D01*
X006688Y005748D01*
X006699Y005740D01*
X006713Y005738D01*
X006723Y005739D01*
X006728Y005727D01*
X006725Y005725D01*
X006717Y005714D01*
X006714Y005700D01*
X006717Y005686D01*
X006725Y005675D01*
X006736Y005667D01*
X006737Y005667D01*
X006736Y005654D01*
X006664D01*
X006663Y005667D01*
X006664Y005667D01*
X006675Y005675D01*
X006683Y005686D01*
X006686Y005700D01*
X006683Y005714D01*
X006675Y005725D01*
X006664Y005733D01*
X006650Y005736D01*
X006636Y005733D01*
X006625Y005725D01*
X006617Y005714D01*
X006614Y005700D01*
X006617Y005686D01*
X006625Y005675D01*
X006636Y005667D01*
X006637Y005667D01*
X006636Y005654D01*
X006564D01*
X006563Y005667D01*
X006564Y005667D01*
X006575Y005675D01*
X006583Y005686D01*
X006586Y005700D01*
X006583Y005714D01*
X006575Y005725D01*
X006564Y005733D01*
X006550Y005736D01*
X006536Y005733D01*
X006525Y005725D01*
X006517Y005714D01*
X006514Y005700D01*
X006517Y005686D01*
X006525Y005675D01*
X006536Y005667D01*
X006537Y005667D01*
X006536Y005654D01*
X006464D01*
X006463Y005667D01*
X006464Y005667D01*
X006475Y005675D01*
X006483Y005686D01*
X006486Y005700D01*
X006483Y005714D01*
X006475Y005725D01*
X006464Y005733D01*
X006450Y005736D01*
X006436Y005733D01*
X006425Y005725D01*
X006417Y005714D01*
X006414Y005700D01*
X006417Y005686D01*
X006425Y005675D01*
X006436Y005667D01*
X006437Y005667D01*
X006436Y005654D01*
X006364D01*
X006363Y005667D01*
X006364Y005667D01*
X006375Y005675D01*
X006383Y005686D01*
X006386Y005700D01*
X006383Y005714D01*
X006375Y005725D01*
X006364Y005733D01*
X006350Y005736D01*
X006336Y005733D01*
X006325Y005725D01*
X006317Y005714D01*
X006314Y005700D01*
X006317Y005686D01*
X006325Y005675D01*
X006336Y005667D01*
X006337Y005667D01*
X006336Y005654D01*
X006264D01*
X006263Y005667D01*
X006264Y005667D01*
X006275Y005675D01*
X006283Y005686D01*
X006286Y005700D01*
X006283Y005714D01*
X006275Y005725D01*
X006264Y005733D01*
X006250Y005736D01*
X006236Y005733D01*
X006225Y005725D01*
X006217Y005714D01*
X006214Y005700D01*
X006217Y005686D01*
X006225Y005675D01*
X006236Y005667D01*
X006237Y005667D01*
X006236Y005654D01*
X006213D01*
X006210Y005654D01*
X006208Y005653D01*
X006207Y005653D01*
X006206Y005653D01*
X006204Y005652D01*
X006202Y005651D01*
X006202Y005650D01*
X006201Y005649D01*
X006199Y005647D01*
X006198Y005646D01*
X006198Y005645D01*
X006197Y005644D01*
X006197Y005641D01*
X006196Y005639D01*
X006189Y005584D01*
X006172Y005533D01*
X006146Y005486D01*
X006112Y005444D01*
X006072Y005409D01*
X006025Y005382D01*
X005974Y005364D01*
X005921Y005355D01*
X005867Y005356D01*
X005814Y005367D01*
X005764Y005387D01*
X005719Y005416D01*
X005680Y005453D01*
X005647Y005496D01*
X005624Y005544D01*
X005609Y005596D01*
X005604Y005650D01*
X005610Y005706D01*
X005626Y005760D01*
X005652Y005810D01*
X005687Y005855D01*
X005730Y005892D01*
X005779Y005920D01*
X005832Y005938D01*
X005890Y005946D01*
X005892Y005946D01*
X005894Y005947D01*
X005895Y005947D01*
X005896Y005948D01*
X005898Y005949D01*
X005899Y005950D01*
X005900Y005951D01*
X005901Y005952D01*
X005902Y005954D01*
X005903Y005956D01*
X005903Y005957D01*
X005904Y005958D01*
X005904Y005960D01*
X005904Y005962D01*
Y005985D01*
X005917Y005986D01*
X005925Y005975D01*
X005936Y005967D01*
X005950Y005964D01*
X005964Y005967D01*
X005975Y005975D01*
X005983Y005986D01*
X005986Y006000D01*
X005983Y006014D01*
X005975Y006025D01*
X005964Y006033D01*
X005950Y006036D01*
X005936Y006033D01*
X005925Y006025D01*
X005917Y006014D01*
X005904Y006015D01*
Y006085D01*
X005917Y006086D01*
X005925Y006075D01*
X005936Y006067D01*
X005950Y006064D01*
X005964Y006067D01*
X005975Y006075D01*
X005983Y006086D01*
X005986Y006100D01*
X005983Y006114D01*
X005975Y006125D01*
X005964Y006133D01*
X005950Y006136D01*
X005936Y006133D01*
X005925Y006125D01*
X005917Y006114D01*
X005904Y006115D01*
Y006185D01*
X005917Y006186D01*
X005925Y006175D01*
X005936Y006167D01*
X005950Y006164D01*
X005964Y006167D01*
X005975Y006175D01*
X005983Y006186D01*
X005986Y006200D01*
X005983Y006214D01*
X005975Y006225D01*
X005964Y006233D01*
X005950Y006236D01*
X005936Y006233D01*
X005925Y006225D01*
X005917Y006214D01*
X005904Y006215D01*
Y006285D01*
X005917Y006286D01*
X005925Y006275D01*
X005936Y006267D01*
X005950Y006264D01*
X005964Y006267D01*
X005975Y006275D01*
X005983Y006286D01*
X005986Y006300D01*
X005983Y006314D01*
X005975Y006325D01*
X005964Y006333D01*
X005950Y006336D01*
X005936Y006333D01*
X005925Y006325D01*
X005917Y006314D01*
X005904Y006315D01*
Y006385D01*
X005917Y006386D01*
X005925Y006375D01*
X005936Y006367D01*
X005950Y006364D01*
X005964Y006367D01*
X005975Y006375D01*
X005983Y006386D01*
X005986Y006400D01*
X005983Y006414D01*
X005975Y006425D01*
X005964Y006433D01*
X005950Y006436D01*
X005936Y006433D01*
X005925Y006425D01*
X005917Y006414D01*
X005904Y006415D01*
Y006485D01*
X005917Y006486D01*
X005925Y006475D01*
X005936Y006467D01*
X005950Y006464D01*
X005964Y006467D01*
X005975Y006475D01*
X005983Y006486D01*
X005986Y006500D01*
X005983Y006514D01*
X005975Y006525D01*
X005964Y006533D01*
X005950Y006536D01*
X005936Y006533D01*
X005925Y006525D01*
X005917Y006514D01*
X005904Y006515D01*
Y006585D01*
X005917Y006586D01*
X005925Y006575D01*
X005936Y006567D01*
X005950Y006564D01*
X005964Y006567D01*
X005975Y006575D01*
X005983Y006586D01*
X005986Y006600D01*
X005983Y006614D01*
X005975Y006625D01*
X005964Y006633D01*
X005950Y006636D01*
X005936Y006633D01*
X005925Y006625D01*
X005917Y006614D01*
X005904Y006615D01*
Y006685D01*
X005917Y006686D01*
X005925Y006675D01*
X005936Y006667D01*
X005950Y006664D01*
X005964Y006667D01*
X005975Y006675D01*
X005983Y006686D01*
X005986Y006700D01*
X005983Y006714D01*
X005975Y006725D01*
X005964Y006733D01*
X005950Y006736D01*
X005936Y006733D01*
X005925Y006725D01*
X005917Y006714D01*
X005904Y006715D01*
Y006785D01*
X005917Y006786D01*
X005925Y006775D01*
X005936Y006767D01*
X005950Y006764D01*
X005964Y006767D01*
X005975Y006775D01*
X005983Y006786D01*
X005986Y006800D01*
X005983Y006814D01*
X005975Y006825D01*
X005964Y006833D01*
X005950Y006836D01*
X005936Y006833D01*
X005925Y006825D01*
X005917Y006814D01*
X005904Y006815D01*
Y006885D01*
X005917Y006886D01*
X005925Y006875D01*
X005936Y006867D01*
X005950Y006864D01*
X005964Y006867D01*
X005975Y006875D01*
X005983Y006886D01*
X005986Y006900D01*
X005983Y006914D01*
X005975Y006925D01*
X005964Y006933D01*
X005950Y006936D01*
X005936Y006933D01*
X005925Y006925D01*
X005917Y006914D01*
X005904Y006915D01*
Y006985D01*
X005917Y006986D01*
X005925Y006975D01*
X005936Y006967D01*
X005950Y006964D01*
X005964Y006967D01*
X005975Y006975D01*
X005983Y006986D01*
X005986Y007000D01*
X005983Y007014D01*
X005975Y007025D01*
X005964Y007033D01*
X005950Y007036D01*
X005936Y007033D01*
X005925Y007025D01*
X005917Y007014D01*
X005904Y007015D01*
Y007037D01*
X005904Y007040D01*
X005904Y007042D01*
X005903Y007043D01*
X005903Y007044D01*
X005902Y007046D01*
X005901Y007048D01*
X005900Y007048D01*
X005899Y007049D01*
X005898Y007051D01*
X005896Y007052D01*
X005895Y007052D01*
X005894Y007053D01*
X005892Y007053D01*
X005890Y007054D01*
X005832Y007062D01*
X005779Y007080D01*
X005730Y007108D01*
X005687Y007145D01*
X005652Y007189D01*
X005626Y007240D01*
X005610Y007294D01*
X005604Y007350D01*
X005609Y007404D01*
X005624Y007455D01*
X005647Y007504D01*
X005680Y007547D01*
X005719Y007584D01*
X005764Y007613D01*
X005814Y007633D01*
X005867Y007644D01*
X005921Y007645D01*
X005974Y007636D01*
X006025Y007618D01*
X006072Y007591D01*
X006112Y007556D01*
X006146Y007514D01*
X006172Y007467D01*
X006189Y007415D01*
X006196Y007360D01*
X006197Y007358D01*
X006197Y007356D01*
X006198Y007355D01*
X006198Y007354D01*
X006199Y007353D01*
X006201Y007351D01*
X006202Y007350D01*
X006202Y007349D01*
X006204Y007348D01*
X006206Y007347D01*
X006207Y007347D01*
X006208Y007346D01*
X006210Y007346D01*
X006213Y007346D01*
X006235D01*
X006236Y007333D01*
X006225Y007325D01*
X006217Y007314D01*
X006214Y007300D01*
X006217Y007286D01*
X006225Y007275D01*
X006236Y007267D01*
X006250Y007264D01*
X006264Y007267D01*
X006275Y007275D01*
X006283Y007286D01*
X006286Y007300D01*
X006283Y007314D01*
X006275Y007325D01*
X006264Y007333D01*
X006265Y007346D01*
X006335D01*
X006336Y007333D01*
X006325Y007325D01*
X006317Y007314D01*
X006314Y007300D01*
X006317Y007286D01*
X006325Y007275D01*
X006336Y007267D01*
X006350Y007264D01*
X006364Y007267D01*
X006375Y007275D01*
X006383Y007286D01*
X006386Y007300D01*
X006383Y007314D01*
X006375Y007325D01*
X006364Y007333D01*
X006365Y007346D01*
X006435D01*
X006436Y007333D01*
X006425Y007325D01*
X006417Y007314D01*
X006414Y007300D01*
X006417Y007286D01*
X006425Y007275D01*
X006436Y007267D01*
X006450Y007264D01*
X006464Y007267D01*
X006475Y007275D01*
X006483Y007286D01*
X006486Y007300D01*
X006483Y007314D01*
X006475Y007325D01*
X006464Y007333D01*
X006465Y007346D01*
X006535D01*
X006536Y007333D01*
X006525Y007325D01*
X006517Y007314D01*
X006514Y007300D01*
X006517Y007286D01*
X006525Y007275D01*
X006536Y007267D01*
X006550Y007264D01*
X006564Y007267D01*
X006575Y007275D01*
X006583Y007286D01*
X006586Y007300D01*
X006583Y007314D01*
X006575Y007325D01*
X006564Y007333D01*
X006565Y007346D01*
X006635Y007346D01*
X006636Y007333D01*
X006625Y007325D01*
X006617Y007314D01*
X006614Y007300D01*
X006617Y007286D01*
X006625Y007275D01*
X006636Y007267D01*
X006650Y007264D01*
X006664Y007267D01*
X006675Y007275D01*
X006683Y007286D01*
X006686Y007300D01*
X006683Y007314D01*
X006675Y007325D01*
X006664Y007333D01*
X006665Y007346D01*
X006735D01*
X006736Y007333D01*
X006725Y007325D01*
X006717Y007314D01*
X006714Y007300D01*
X006717Y007286D01*
X006725Y007275D01*
X006736Y007267D01*
X006750Y007264D01*
X006764Y007267D01*
X006775Y007275D01*
X006783Y007286D01*
X006786Y007300D01*
X006783Y007314D01*
X006775Y007325D01*
X006764Y007333D01*
X006765Y007346D01*
X006835D01*
X006836Y007333D01*
X006825Y007325D01*
X006817Y007314D01*
X006814Y007300D01*
X006817Y007286D01*
X006825Y007275D01*
X006836Y007267D01*
X006850Y007264D01*
X006864Y007267D01*
X006875Y007275D01*
X006883Y007286D01*
X006886Y007300D01*
X006883Y007314D01*
X006875Y007325D01*
X006864Y007333D01*
X006865Y007346D01*
X006935Y007346D01*
X006936Y007333D01*
X006925Y007325D01*
X006917Y007314D01*
X006914Y007300D01*
X006917Y007286D01*
X006925Y007275D01*
X006936Y007267D01*
X006950Y007264D01*
X006964Y007267D01*
X006975Y007275D01*
X006983Y007286D01*
X006986Y007300D01*
X006983Y007314D01*
X006975Y007325D01*
X006964Y007333D01*
X006965Y007346D01*
X007035D01*
X007036Y007333D01*
X007025Y007325D01*
X007017Y007314D01*
X007014Y007300D01*
X007017Y007286D01*
X007025Y007275D01*
X007036Y007267D01*
X007050Y007264D01*
X007064Y007267D01*
X007075Y007275D01*
X007083Y007286D01*
X007086Y007300D01*
X007083Y007314D01*
X007075Y007325D01*
X007064Y007333D01*
X007065Y007346D01*
X007135D01*
X007136Y007333D01*
X007125Y007325D01*
X007117Y007314D01*
X007114Y007300D01*
X007117Y007286D01*
X007125Y007275D01*
X007136Y007267D01*
X007150Y007264D01*
X007164Y007267D01*
X007175Y007275D01*
X007183Y007286D01*
X007186Y007300D01*
X007183Y007314D01*
X007175Y007325D01*
X007164Y007333D01*
X007165Y007346D01*
X007235D01*
X007236Y007333D01*
X007225Y007325D01*
X007217Y007314D01*
X007214Y007300D01*
X007217Y007286D01*
X007225Y007275D01*
X007236Y007267D01*
X007250Y007264D01*
X007264Y007267D01*
X007275Y007275D01*
X007283Y007286D01*
X007286Y007300D01*
X007283Y007314D01*
X007275Y007325D01*
X007264Y007333D01*
X007265Y007346D01*
X007288D01*
X007290Y007346D01*
X007292Y007346D01*
X007293Y007347D01*
X007294Y007347D01*
X007296Y007348D01*
X007298Y007349D01*
X007299Y007350D01*
X007300Y007351D01*
X007301Y007353D01*
X007302Y007354D01*
X007303Y007355D01*
X007303Y007356D01*
X007304Y007358D01*
X007304Y007360D01*
X007312Y007415D01*
X007328Y007466D01*
X007354Y007513D01*
X007388Y007555D01*
X007428Y007590D01*
X007475Y007617D01*
X007525Y007635D01*
X007578Y007643D01*
X007632Y007642D01*
X007684Y007632D01*
X007734Y007612D01*
X007779Y007583D01*
X007819Y007547D01*
X007851Y007504D01*
X007875Y007456D01*
X007889Y007404D01*
X007894Y007356D01*
X007894Y007356D01*
X007894Y007355D01*
X007893Y007354D01*
X007893Y007354D01*
X007893Y007353D01*
X007893Y007353D01*
X007893Y007352D01*
X007893Y007351D01*
X007893Y007351D01*
X007893Y007350D01*
X007893Y007350D01*
X007893Y007349D01*
X007893Y007349D01*
X007893Y007348D01*
X007893Y007347D01*
X007893Y007347D01*
X007893Y007346D01*
X007893Y007346D01*
X007893Y007345D01*
X007893Y007345D01*
X007893Y007344D01*
X007894Y007343D01*
X007894Y007343D01*
X007894Y007342D01*
X007889Y007292D01*
X007873Y007238D01*
X007847Y007188D01*
X007812Y007144D01*
X007769Y007108D01*
X007720Y007080D01*
X007667Y007062D01*
X007610Y007054D01*
X007608Y007053D01*
X007606Y007053D01*
X007605Y007052D01*
X007604Y007052D01*
X007602Y007051D01*
X007600Y007049D01*
X007600Y007048D01*
X007599Y007048D01*
X007598Y007046D01*
X007597Y007044D01*
X007596Y007043D01*
X007596Y007042D01*
X007596Y007040D01*
X007595Y007037D01*
Y007022D01*
X007584Y007014D01*
X007583Y007015D01*
X007575Y007025D01*
X007564Y007033D01*
X007550Y007036D01*
X007536Y007033D01*
X007525Y007025D01*
X007517Y007014D01*
X007514Y007000D01*
X007517Y006986D01*
X007525Y006975D01*
X007536Y006967D01*
X007550Y006964D01*
X007564Y006967D01*
X007575Y006975D01*
X007583Y006985D01*
X007584Y006986D01*
X007595Y006978D01*
Y006922D01*
X007584Y006914D01*
X007583Y006915D01*
X007575Y006925D01*
X007564Y006933D01*
X007550Y006936D01*
X007536Y006933D01*
X007525Y006925D01*
X007517Y006914D01*
X007514Y006900D01*
X007517Y006886D01*
X007525Y006875D01*
X007536Y006867D01*
X007550Y006864D01*
X007564Y006867D01*
X007575Y006875D01*
X007583Y006885D01*
X007584Y006886D01*
X007595Y006878D01*
Y006736D01*
X007595Y006736D01*
X007595Y006735D01*
X007595Y006734D01*
X007594Y006734D01*
X007594Y006733D01*
X007594Y006733D01*
X007594Y006732D01*
X007594Y006732D01*
X007594Y006731D01*
X007594Y006730D01*
X007593Y006730D01*
X007594Y006729D01*
X007593Y006729D01*
X007594Y006728D01*
X007593Y006727D01*
X007594Y006727D01*
X007593Y006726D01*
X007594Y006726D01*
X007594Y006725D01*
X007594Y006725D01*
X007594Y006724D01*
X007594Y006723D01*
X007594Y006723D01*
X007594Y006722D01*
X007594Y006722D01*
X007595Y006721D01*
X007595Y006721D01*
X007595Y006720D01*
X007595Y006719D01*
X007596Y006719D01*
X007596Y006719D01*
X007596Y006718D01*
X007601Y006709D01*
X007598Y006700D01*
X007598Y006700D01*
Y006655D01*
X007602Y006645D01*
X007611Y006641D01*
X011786D01*
X011795Y006645D01*
X011799Y006655D01*
Y006685D01*
X011804Y006688D01*
X011808Y006693D01*
X011809Y006700D01*
Y006957D01*
X011808Y006963D01*
X011804Y006969D01*
X011561Y007212D01*
X011556Y007215D01*
X011549Y007217D01*
X010106D01*
X009966Y007357D01*
Y007999D01*
X009972Y008052D01*
X009989Y008101D01*
X010017Y008145D01*
X010054Y008182D01*
X010098Y008210D01*
X010147Y008227D01*
X010200Y008233D01*
X010942D01*
X011032Y008144D01*
X011037Y008140D01*
X011043Y008139D01*
X012355D01*
X012362Y008140D01*
X012367Y008144D01*
X012456Y008233D01*
X013198D01*
X013251Y008227D01*
D02*
G37*
%LPC*%
G36*
X012309Y005649D02*
X012295Y005647D01*
X012283Y005639D01*
X012276Y005627D01*
X012273Y005613D01*
X012276Y005600D01*
X012283Y005588D01*
X012295Y005580D01*
X012309Y005578D01*
X012322Y005580D01*
X012334Y005588D01*
X012342Y005600D01*
X012345Y005613D01*
X012342Y005627D01*
X012334Y005639D01*
X012322Y005647D01*
X012309Y005649D01*
D02*
G37*
G36*
X007606Y005754D02*
X007579Y005750D01*
X007554Y005740D01*
X007533Y005723D01*
X007516Y005702D01*
X007506Y005677D01*
X007502Y005650D01*
X007506Y005623D01*
X007516Y005598D01*
X007533Y005577D01*
X007554Y005560D01*
X007579Y005550D01*
X007606Y005546D01*
X007633Y005550D01*
X007658Y005560D01*
X007679Y005577D01*
X007696Y005598D01*
X007706Y005623D01*
X007710Y005650D01*
X007706Y005677D01*
X007696Y005702D01*
X007679Y005723D01*
X007658Y005740D01*
X007633Y005750D01*
X007606Y005754D01*
D02*
G37*
G36*
X013250Y005536D02*
X013236Y005533D01*
X013225Y005525D01*
X013217Y005514D01*
X013214Y005500D01*
X013217Y005486D01*
X013225Y005475D01*
X013236Y005467D01*
X013250Y005464D01*
X013264Y005467D01*
X013275Y005475D01*
X013283Y005486D01*
X013286Y005500D01*
X013283Y005514D01*
X013275Y005525D01*
X013264Y005533D01*
X013250Y005536D01*
D02*
G37*
G36*
X007450Y005736D02*
X007436Y005733D01*
X007425Y005725D01*
X007417Y005714D01*
X007414Y005700D01*
X007417Y005686D01*
X007425Y005675D01*
X007436Y005667D01*
X007450Y005664D01*
X007464Y005667D01*
X007475Y005675D01*
X007483Y005686D01*
X007486Y005700D01*
X007483Y005714D01*
X007475Y005725D01*
X007464Y005733D01*
X007450Y005736D01*
D02*
G37*
G36*
X007350D02*
X007336Y005733D01*
X007325Y005725D01*
X007317Y005714D01*
X007314Y005700D01*
X007317Y005686D01*
X007325Y005675D01*
X007336Y005667D01*
X007350Y005664D01*
X007364Y005667D01*
X007375Y005675D01*
X007383Y005686D01*
X007386Y005700D01*
X007383Y005714D01*
X007375Y005725D01*
X007364Y005733D01*
X007350Y005736D01*
D02*
G37*
G36*
X006150D02*
X006136Y005733D01*
X006125Y005725D01*
X006117Y005714D01*
X006114Y005700D01*
X006117Y005686D01*
X006125Y005675D01*
X006136Y005667D01*
X006150Y005664D01*
X006164Y005667D01*
X006175Y005675D01*
X006183Y005686D01*
X006186Y005700D01*
X006183Y005714D01*
X006175Y005725D01*
X006164Y005733D01*
X006150Y005736D01*
D02*
G37*
G36*
X011250Y005536D02*
X011236Y005533D01*
X011225Y005525D01*
X011217Y005514D01*
X011214Y005500D01*
X011217Y005486D01*
X011225Y005475D01*
X011236Y005467D01*
X011250Y005464D01*
X011264Y005467D01*
X011275Y005475D01*
X011283Y005486D01*
X011286Y005500D01*
X011283Y005514D01*
X011275Y005525D01*
X011264Y005533D01*
X011250Y005536D01*
D02*
G37*
G36*
X011000D02*
X010986Y005533D01*
X010975Y005525D01*
X010967Y005514D01*
X010964Y005500D01*
X010967Y005486D01*
X010975Y005475D01*
X010986Y005467D01*
X011000Y005464D01*
X011014Y005467D01*
X011025Y005475D01*
X011033Y005486D01*
X011036Y005500D01*
X011033Y005514D01*
X011025Y005525D01*
X011014Y005533D01*
X011000Y005536D01*
D02*
G37*
G36*
X010750D02*
X010736Y005533D01*
X010725Y005525D01*
X010717Y005514D01*
X010714Y005500D01*
X010717Y005486D01*
X010725Y005475D01*
X010736Y005467D01*
X010750Y005464D01*
X010764Y005467D01*
X010775Y005475D01*
X010783Y005486D01*
X010786Y005500D01*
X010783Y005514D01*
X010775Y005525D01*
X010764Y005533D01*
X010750Y005536D01*
D02*
G37*
G36*
X012000D02*
X011986Y005533D01*
X011975Y005525D01*
X011967Y005514D01*
X011964Y005500D01*
X011967Y005486D01*
X011975Y005475D01*
X011986Y005467D01*
X012000Y005464D01*
X012014Y005467D01*
X012025Y005475D01*
X012033Y005486D01*
X012036Y005500D01*
X012033Y005514D01*
X012025Y005525D01*
X012014Y005533D01*
X012000Y005536D01*
D02*
G37*
G36*
X011750D02*
X011736Y005533D01*
X011725Y005525D01*
X011717Y005514D01*
X011714Y005500D01*
X011717Y005486D01*
X011725Y005475D01*
X011736Y005467D01*
X011750Y005464D01*
X011764Y005467D01*
X011775Y005475D01*
X011783Y005486D01*
X011786Y005500D01*
X011783Y005514D01*
X011775Y005525D01*
X011764Y005533D01*
X011750Y005536D01*
D02*
G37*
G36*
X011500D02*
X011486Y005533D01*
X011475Y005525D01*
X011467Y005514D01*
X011464Y005500D01*
X011467Y005486D01*
X011475Y005475D01*
X011486Y005467D01*
X011500Y005464D01*
X011514Y005467D01*
X011525Y005475D01*
X011533Y005486D01*
X011536Y005500D01*
X011533Y005514D01*
X011525Y005525D01*
X011514Y005533D01*
X011500Y005536D01*
D02*
G37*
G36*
X006426Y006325D02*
X006172D01*
Y006071D01*
X006426D01*
Y006325D01*
D02*
G37*
G36*
X007074Y005946D02*
X007060Y005944D01*
X007049Y005936D01*
X007041Y005924D01*
X007038Y005911D01*
X007041Y005897D01*
X007049Y005885D01*
X007060Y005877D01*
X007074Y005875D01*
X007088Y005877D01*
X007099Y005885D01*
X007107Y005897D01*
X007110Y005911D01*
X007107Y005924D01*
X007099Y005936D01*
X007088Y005944D01*
X007074Y005946D01*
D02*
G37*
G36*
X007550Y005936D02*
X007536Y005933D01*
X007525Y005925D01*
X007517Y005914D01*
X007514Y005900D01*
X007517Y005886D01*
X007525Y005875D01*
X007536Y005867D01*
X007550Y005864D01*
X007564Y005867D01*
X007575Y005875D01*
X007583Y005886D01*
X007586Y005900D01*
X007583Y005914D01*
X007575Y005925D01*
X007564Y005933D01*
X007550Y005936D01*
D02*
G37*
G36*
X012443Y006644D02*
X012427Y006640D01*
X012413Y006631D01*
X012403Y006617D01*
X012400Y006600D01*
X012403Y006583D01*
X012413Y006569D01*
X012427Y006560D01*
X012443Y006556D01*
X012460Y006560D01*
X012474Y006569D01*
X012484Y006583D01*
X012487Y006600D01*
X012484Y006617D01*
X012474Y006631D01*
X012460Y006640D01*
X012443Y006644D01*
D02*
G37*
G36*
X007445Y006345D02*
X007431Y006343D01*
X007419Y006335D01*
X007412Y006323D01*
X007409Y006309D01*
X007412Y006296D01*
X007419Y006284D01*
X007431Y006276D01*
X007445Y006273D01*
X007458Y006276D01*
X007470Y006284D01*
X007478Y006296D01*
X007481Y006309D01*
X007478Y006323D01*
X007470Y006335D01*
X007458Y006343D01*
X007445Y006345D01*
D02*
G37*
G36*
X006652Y006254D02*
X006639Y006251D01*
X006627Y006243D01*
X006619Y006232D01*
X006616Y006218D01*
X006619Y006204D01*
X006627Y006193D01*
X006639Y006185D01*
X006652Y006182D01*
X006666Y006185D01*
X006678Y006193D01*
X006685Y006204D01*
X006688Y006218D01*
X006685Y006232D01*
X006678Y006243D01*
X006666Y006251D01*
X006652Y006254D01*
D02*
G37*
G36*
X011938Y005878D02*
X011921Y005875D01*
X011907Y005865D01*
X011898Y005851D01*
X011894Y005835D01*
X011898Y005818D01*
X011907Y005804D01*
X011921Y005794D01*
X011938Y005791D01*
X011955Y005794D01*
X011969Y005804D01*
X011978Y005818D01*
X011982Y005835D01*
X011978Y005851D01*
X011969Y005865D01*
X011955Y005875D01*
X011938Y005878D01*
D02*
G37*
G36*
X007550Y005836D02*
X007536Y005833D01*
X007525Y005825D01*
X007517Y005814D01*
X007514Y005800D01*
X007517Y005786D01*
X007525Y005775D01*
X007536Y005767D01*
X007550Y005764D01*
X007564Y005767D01*
X007575Y005775D01*
X007583Y005786D01*
X007586Y005800D01*
X007583Y005814D01*
X007575Y005825D01*
X007564Y005833D01*
X007550Y005836D01*
D02*
G37*
G36*
X007348Y005941D02*
X007325Y005938D01*
X007304Y005929D01*
X007286Y005915D01*
X007272Y005896D01*
X007263Y005875D01*
X007260Y005852D01*
X007263Y005829D01*
X007272Y005808D01*
X007286Y005790D01*
X007304Y005776D01*
X007325Y005767D01*
X007348Y005764D01*
X007371Y005767D01*
X007392Y005776D01*
X007411Y005790D01*
X007425Y005808D01*
X007434Y005829D01*
X007437Y005852D01*
X007434Y005875D01*
X007425Y005896D01*
X007411Y005915D01*
X007392Y005929D01*
X007371Y005938D01*
X007348Y005941D01*
D02*
G37*
G36*
X005950Y005936D02*
X005936Y005933D01*
X005925Y005925D01*
X005917Y005914D01*
X005914Y005900D01*
X005917Y005886D01*
X005925Y005875D01*
X005936Y005867D01*
X005950Y005864D01*
X005964Y005867D01*
X005975Y005875D01*
X005983Y005886D01*
X005986Y005900D01*
X005983Y005914D01*
X005975Y005925D01*
X005964Y005933D01*
X005950Y005936D01*
D02*
G37*
G36*
X006472Y005921D02*
X006458Y005918D01*
X006447Y005911D01*
X006439Y005899D01*
X006436Y005885D01*
X006439Y005871D01*
X006447Y005860D01*
X006458Y005852D01*
X006472Y005849D01*
X006486Y005852D01*
X006497Y005860D01*
X006505Y005871D01*
X006508Y005885D01*
X006505Y005899D01*
X006497Y005911D01*
X006486Y005918D01*
X006472Y005921D01*
D02*
G37*
G36*
X006037Y005868D02*
X006014Y005865D01*
X005993Y005857D01*
X005975Y005843D01*
X005966Y005831D01*
X005964Y005833D01*
X005950Y005836D01*
X005936Y005833D01*
X005925Y005825D01*
X005917Y005814D01*
X005914Y005800D01*
X005917Y005786D01*
X005925Y005775D01*
X005936Y005767D01*
X005948Y005764D01*
X005950Y005758D01*
X005951Y005753D01*
X005941Y005745D01*
X005927Y005751D01*
X005900Y005754D01*
X005874Y005751D01*
X005849Y005740D01*
X005827Y005724D01*
X005811Y005702D01*
X005800Y005678D01*
X005797Y005651D01*
X005800Y005624D01*
X005811Y005599D01*
X005827Y005577D01*
X005849Y005561D01*
X005874Y005551D01*
X005900Y005547D01*
X005927Y005551D01*
X005952Y005561D01*
X005974Y005577D01*
X005990Y005599D01*
X006000Y005624D01*
X006004Y005651D01*
X006000Y005678D01*
X005997Y005686D01*
X006006Y005695D01*
X006016Y005692D01*
X006017Y005686D01*
X006025Y005675D01*
X006036Y005667D01*
X006050Y005664D01*
X006064Y005667D01*
X006075Y005675D01*
X006083Y005686D01*
X006086Y005700D01*
X006085Y005706D01*
X006100Y005717D01*
X006114Y005736D01*
X006123Y005757D01*
X006126Y005780D01*
X006123Y005803D01*
X006114Y005824D01*
X006100Y005843D01*
X006082Y005857D01*
X006060Y005865D01*
X006037Y005868D01*
D02*
G37*
G36*
X010500Y005536D02*
X010486Y005533D01*
X010475Y005525D01*
X010467Y005514D01*
X010464Y005500D01*
X010467Y005486D01*
X010475Y005475D01*
X010486Y005467D01*
X010500Y005464D01*
X010514Y005467D01*
X010525Y005475D01*
X010533Y005486D01*
X010536Y005500D01*
X010533Y005514D01*
X010525Y005525D01*
X010514Y005533D01*
X010500Y005536D01*
D02*
G37*
G36*
X012250Y005036D02*
X012236Y005033D01*
X012225Y005025D01*
X012217Y005014D01*
X012214Y005000D01*
X012217Y004986D01*
X012225Y004975D01*
X012236Y004967D01*
X012250Y004964D01*
X012264Y004967D01*
X012275Y004975D01*
X012283Y004986D01*
X012286Y005000D01*
X012283Y005014D01*
X012275Y005025D01*
X012264Y005033D01*
X012250Y005036D01*
D02*
G37*
G36*
X012000D02*
X011986Y005033D01*
X011975Y005025D01*
X011967Y005014D01*
X011964Y005000D01*
X011967Y004986D01*
X011975Y004975D01*
X011986Y004967D01*
X012000Y004964D01*
X012014Y004967D01*
X012025Y004975D01*
X012033Y004986D01*
X012036Y005000D01*
X012033Y005014D01*
X012025Y005025D01*
X012014Y005033D01*
X012000Y005036D01*
D02*
G37*
G36*
X011750D02*
X011736Y005033D01*
X011725Y005025D01*
X011717Y005014D01*
X011714Y005000D01*
X011717Y004986D01*
X011725Y004975D01*
X011736Y004967D01*
X011750Y004964D01*
X011764Y004967D01*
X011775Y004975D01*
X011783Y004986D01*
X011786Y005000D01*
X011783Y005014D01*
X011775Y005025D01*
X011764Y005033D01*
X011750Y005036D01*
D02*
G37*
G36*
X010500Y005286D02*
X010486Y005283D01*
X010475Y005275D01*
X010467Y005264D01*
X010464Y005250D01*
X010467Y005236D01*
X010475Y005225D01*
X010486Y005217D01*
X010500Y005214D01*
X010514Y005217D01*
X010525Y005225D01*
X010533Y005236D01*
X010536Y005250D01*
X010533Y005264D01*
X010525Y005275D01*
X010514Y005283D01*
X010500Y005286D01*
D02*
G37*
G36*
X012750Y005036D02*
X012736Y005033D01*
X012725Y005025D01*
X012717Y005014D01*
X012714Y005000D01*
X012717Y004986D01*
X012725Y004975D01*
X012736Y004967D01*
X012750Y004964D01*
X012764Y004967D01*
X012775Y004975D01*
X012783Y004986D01*
X012786Y005000D01*
X012783Y005014D01*
X012775Y005025D01*
X012764Y005033D01*
X012750Y005036D01*
D02*
G37*
G36*
X012500D02*
X012486Y005033D01*
X012475Y005025D01*
X012467Y005014D01*
X012464Y005000D01*
X012467Y004986D01*
X012475Y004975D01*
X012486Y004967D01*
X012500Y004964D01*
X012514Y004967D01*
X012525Y004975D01*
X012533Y004986D01*
X012536Y005000D01*
X012533Y005014D01*
X012525Y005025D01*
X012514Y005033D01*
X012500Y005036D01*
D02*
G37*
G36*
X010750D02*
X010736Y005033D01*
X010725Y005025D01*
X010717Y005014D01*
X010714Y005000D01*
X010717Y004986D01*
X010725Y004975D01*
X010736Y004967D01*
X010750Y004964D01*
X010764Y004967D01*
X010775Y004975D01*
X010783Y004986D01*
X010786Y005000D01*
X010783Y005014D01*
X010775Y005025D01*
X010764Y005033D01*
X010750Y005036D01*
D02*
G37*
G36*
X010500D02*
X010486Y005033D01*
X010475Y005025D01*
X010467Y005014D01*
X010464Y005000D01*
X010467Y004986D01*
X010475Y004975D01*
X010486Y004967D01*
X010500Y004964D01*
X010514Y004967D01*
X010525Y004975D01*
X010533Y004986D01*
X010536Y005000D01*
X010533Y005014D01*
X010525Y005025D01*
X010514Y005033D01*
X010500Y005036D01*
D02*
G37*
G36*
X010200Y005219D02*
X010157Y005215D01*
X010116Y005202D01*
X010078Y005182D01*
X010045Y005155D01*
X010018Y005122D01*
X009998Y005084D01*
X009985Y005043D01*
X009981Y005000D01*
X009985Y004957D01*
X009998Y004916D01*
X010018Y004878D01*
X010045Y004845D01*
X010078Y004818D01*
X010116Y004798D01*
X010157Y004785D01*
X010200Y004781D01*
X010243Y004785D01*
X010284Y004798D01*
X010322Y004818D01*
X010355Y004845D01*
X010382Y004878D01*
X010402Y004916D01*
X010415Y004957D01*
X010419Y005000D01*
X010415Y005043D01*
X010402Y005084D01*
X010382Y005122D01*
X010355Y005155D01*
X010322Y005182D01*
X010284Y005202D01*
X010243Y005215D01*
X010200Y005219D01*
D02*
G37*
G36*
X011500Y005036D02*
X011486Y005033D01*
X011475Y005025D01*
X011467Y005014D01*
X011464Y005000D01*
X011467Y004986D01*
X011475Y004975D01*
X011486Y004967D01*
X011500Y004964D01*
X011514Y004967D01*
X011525Y004975D01*
X011533Y004986D01*
X011536Y005000D01*
X011533Y005014D01*
X011525Y005025D01*
X011514Y005033D01*
X011500Y005036D01*
D02*
G37*
G36*
X011250D02*
X011236Y005033D01*
X011225Y005025D01*
X011217Y005014D01*
X011214Y005000D01*
X011217Y004986D01*
X011225Y004975D01*
X011236Y004967D01*
X011250Y004964D01*
X011264Y004967D01*
X011275Y004975D01*
X011283Y004986D01*
X011286Y005000D01*
X011283Y005014D01*
X011275Y005025D01*
X011264Y005033D01*
X011250Y005036D01*
D02*
G37*
G36*
X011000D02*
X010986Y005033D01*
X010975Y005025D01*
X010967Y005014D01*
X010964Y005000D01*
X010967Y004986D01*
X010975Y004975D01*
X010986Y004967D01*
X011000Y004964D01*
X011014Y004967D01*
X011025Y004975D01*
X011033Y004986D01*
X011036Y005000D01*
X011033Y005014D01*
X011025Y005025D01*
X011014Y005033D01*
X011000Y005036D01*
D02*
G37*
G36*
X012750Y005286D02*
X012736Y005283D01*
X012725Y005275D01*
X012717Y005264D01*
X012714Y005250D01*
X012717Y005236D01*
X012725Y005225D01*
X012736Y005217D01*
X012750Y005214D01*
X012764Y005217D01*
X012775Y005225D01*
X012783Y005236D01*
X012786Y005250D01*
X012783Y005264D01*
X012775Y005275D01*
X012764Y005283D01*
X012750Y005286D01*
D02*
G37*
G36*
X012500D02*
X012486Y005283D01*
X012475Y005275D01*
X012467Y005264D01*
X012464Y005250D01*
X012467Y005236D01*
X012475Y005225D01*
X012486Y005217D01*
X012500Y005214D01*
X012514Y005217D01*
X012525Y005225D01*
X012533Y005236D01*
X012536Y005250D01*
X012533Y005264D01*
X012525Y005275D01*
X012514Y005283D01*
X012500Y005286D01*
D02*
G37*
G36*
X012250D02*
X012236Y005283D01*
X012225Y005275D01*
X012217Y005264D01*
X012214Y005250D01*
X012217Y005236D01*
X012225Y005225D01*
X012236Y005217D01*
X012250Y005214D01*
X012264Y005217D01*
X012275Y005225D01*
X012283Y005236D01*
X012286Y005250D01*
X012283Y005264D01*
X012275Y005275D01*
X012264Y005283D01*
X012250Y005286D01*
D02*
G37*
G36*
X010250Y005536D02*
X010236Y005533D01*
X010225Y005525D01*
X010217Y005514D01*
X010214Y005500D01*
X010217Y005486D01*
X010225Y005475D01*
X010236Y005467D01*
X010250Y005464D01*
X010264Y005467D01*
X010275Y005475D01*
X010283Y005486D01*
X010286Y005500D01*
X010283Y005514D01*
X010275Y005525D01*
X010264Y005533D01*
X010250Y005536D01*
D02*
G37*
G36*
X012248Y005514D02*
X012234Y005511D01*
X012222Y005503D01*
X012215Y005491D01*
X012212Y005478D01*
X012215Y005464D01*
X012222Y005452D01*
X012234Y005445D01*
X012248Y005442D01*
X012261Y005445D01*
X012273Y005452D01*
X012281Y005464D01*
X012284Y005478D01*
X012281Y005491D01*
X012273Y005503D01*
X012261Y005511D01*
X012248Y005514D01*
D02*
G37*
G36*
X013000Y005286D02*
X012986Y005283D01*
X012975Y005275D01*
X012967Y005264D01*
X012964Y005250D01*
X012967Y005236D01*
X012975Y005225D01*
X012986Y005217D01*
X013000Y005214D01*
X013014Y005217D01*
X013025Y005225D01*
X013033Y005236D01*
X013036Y005250D01*
X013033Y005264D01*
X013025Y005275D01*
X013014Y005283D01*
X013000Y005286D01*
D02*
G37*
G36*
X011250D02*
X011236Y005283D01*
X011225Y005275D01*
X011217Y005264D01*
X011214Y005250D01*
X011217Y005236D01*
X011225Y005225D01*
X011236Y005217D01*
X011250Y005214D01*
X011264Y005217D01*
X011275Y005225D01*
X011283Y005236D01*
X011286Y005250D01*
X011283Y005264D01*
X011275Y005275D01*
X011264Y005283D01*
X011250Y005286D01*
D02*
G37*
G36*
X011000D02*
X010986Y005283D01*
X010975Y005275D01*
X010967Y005264D01*
X010964Y005250D01*
X010967Y005236D01*
X010975Y005225D01*
X010986Y005217D01*
X011000Y005214D01*
X011014Y005217D01*
X011025Y005225D01*
X011033Y005236D01*
X011036Y005250D01*
X011033Y005264D01*
X011025Y005275D01*
X011014Y005283D01*
X011000Y005286D01*
D02*
G37*
G36*
X010750D02*
X010736Y005283D01*
X010725Y005275D01*
X010717Y005264D01*
X010714Y005250D01*
X010717Y005236D01*
X010725Y005225D01*
X010736Y005217D01*
X010750Y005214D01*
X010764Y005217D01*
X010775Y005225D01*
X010783Y005236D01*
X010786Y005250D01*
X010783Y005264D01*
X010775Y005275D01*
X010764Y005283D01*
X010750Y005286D01*
D02*
G37*
G36*
X012000D02*
X011986Y005283D01*
X011975Y005275D01*
X011967Y005264D01*
X011964Y005250D01*
X011967Y005236D01*
X011975Y005225D01*
X011986Y005217D01*
X012000Y005214D01*
X012014Y005217D01*
X012025Y005225D01*
X012033Y005236D01*
X012036Y005250D01*
X012033Y005264D01*
X012025Y005275D01*
X012014Y005283D01*
X012000Y005286D01*
D02*
G37*
G36*
X011750D02*
X011736Y005283D01*
X011725Y005275D01*
X011717Y005264D01*
X011714Y005250D01*
X011717Y005236D01*
X011725Y005225D01*
X011736Y005217D01*
X011750Y005214D01*
X011764Y005217D01*
X011775Y005225D01*
X011783Y005236D01*
X011786Y005250D01*
X011783Y005264D01*
X011775Y005275D01*
X011764Y005283D01*
X011750Y005286D01*
D02*
G37*
G36*
X011500D02*
X011486Y005283D01*
X011475Y005275D01*
X011467Y005264D01*
X011464Y005250D01*
X011467Y005236D01*
X011475Y005225D01*
X011486Y005217D01*
X011500Y005214D01*
X011514Y005217D01*
X011525Y005225D01*
X011533Y005236D01*
X011536Y005250D01*
X011533Y005264D01*
X011525Y005275D01*
X011514Y005283D01*
X011500Y005286D01*
D02*
G37*
G36*
X007379Y006736D02*
X007365Y006733D01*
X007354Y006725D01*
X007346Y006714D01*
X007343Y006700D01*
X007346Y006686D01*
X007354Y006675D01*
X007365Y006667D01*
X007379Y006664D01*
X007393Y006667D01*
X007405Y006675D01*
X007412Y006686D01*
X007415Y006700D01*
X007412Y006714D01*
X007405Y006725D01*
X007393Y006733D01*
X007379Y006736D01*
D02*
G37*
G36*
X011500Y007786D02*
X011486Y007783D01*
X011475Y007775D01*
X011467Y007764D01*
X011464Y007750D01*
X011467Y007736D01*
X011475Y007725D01*
X011486Y007717D01*
X011500Y007714D01*
X011514Y007717D01*
X011525Y007725D01*
X011533Y007736D01*
X011536Y007750D01*
X011533Y007764D01*
X011525Y007775D01*
X011514Y007783D01*
X011500Y007786D01*
D02*
G37*
G36*
X011250D02*
X011236Y007783D01*
X011225Y007775D01*
X011217Y007764D01*
X011214Y007750D01*
X011217Y007736D01*
X011225Y007725D01*
X011236Y007717D01*
X011250Y007714D01*
X011264Y007717D01*
X011275Y007725D01*
X011283Y007736D01*
X011286Y007750D01*
X011283Y007764D01*
X011275Y007775D01*
X011264Y007783D01*
X011250Y007786D01*
D02*
G37*
G36*
X011000D02*
X010986Y007783D01*
X010975Y007775D01*
X010967Y007764D01*
X010964Y007750D01*
X010967Y007736D01*
X010975Y007725D01*
X010986Y007717D01*
X011000Y007714D01*
X011014Y007717D01*
X011025Y007725D01*
X011033Y007736D01*
X011036Y007750D01*
X011033Y007764D01*
X011025Y007775D01*
X011014Y007783D01*
X011000Y007786D01*
D02*
G37*
G36*
X012250D02*
X012236Y007783D01*
X012225Y007775D01*
X012217Y007764D01*
X012214Y007750D01*
X012217Y007736D01*
X012225Y007725D01*
X012236Y007717D01*
X012250Y007714D01*
X012264Y007717D01*
X012275Y007725D01*
X012283Y007736D01*
X012286Y007750D01*
X012283Y007764D01*
X012275Y007775D01*
X012264Y007783D01*
X012250Y007786D01*
D02*
G37*
G36*
X012000D02*
X011986Y007783D01*
X011975Y007775D01*
X011967Y007764D01*
X011964Y007750D01*
X011967Y007736D01*
X011975Y007725D01*
X011986Y007717D01*
X012000Y007714D01*
X012014Y007717D01*
X012025Y007725D01*
X012033Y007736D01*
X012036Y007750D01*
X012033Y007764D01*
X012025Y007775D01*
X012014Y007783D01*
X012000Y007786D01*
D02*
G37*
G36*
X011750D02*
X011736Y007783D01*
X011725Y007775D01*
X011717Y007764D01*
X011714Y007750D01*
X011717Y007736D01*
X011725Y007725D01*
X011736Y007717D01*
X011750Y007714D01*
X011764Y007717D01*
X011775Y007725D01*
X011783Y007736D01*
X011786Y007750D01*
X011783Y007764D01*
X011775Y007775D01*
X011764Y007783D01*
X011750Y007786D01*
D02*
G37*
G36*
X012250Y007536D02*
X012236Y007533D01*
X012225Y007525D01*
X012217Y007514D01*
X012214Y007500D01*
X012217Y007486D01*
X012225Y007475D01*
X012236Y007467D01*
X012250Y007464D01*
X012264Y007467D01*
X012275Y007475D01*
X012283Y007486D01*
X012286Y007500D01*
X012283Y007514D01*
X012275Y007525D01*
X012264Y007533D01*
X012250Y007536D01*
D02*
G37*
G36*
X012000D02*
X011986Y007533D01*
X011975Y007525D01*
X011967Y007514D01*
X011964Y007500D01*
X011967Y007486D01*
X011975Y007475D01*
X011986Y007467D01*
X012000Y007464D01*
X012014Y007467D01*
X012025Y007475D01*
X012033Y007486D01*
X012036Y007500D01*
X012033Y007514D01*
X012025Y007525D01*
X012014Y007533D01*
X012000Y007536D01*
D02*
G37*
G36*
X011750D02*
X011736Y007533D01*
X011725Y007525D01*
X011717Y007514D01*
X011714Y007500D01*
X011717Y007486D01*
X011725Y007475D01*
X011736Y007467D01*
X011750Y007464D01*
X011764Y007467D01*
X011775Y007475D01*
X011783Y007486D01*
X011786Y007500D01*
X011783Y007514D01*
X011775Y007525D01*
X011764Y007533D01*
X011750Y007536D01*
D02*
G37*
G36*
X010750Y007786D02*
X010736Y007783D01*
X010725Y007775D01*
X010717Y007764D01*
X010714Y007750D01*
X010717Y007736D01*
X010725Y007725D01*
X010736Y007717D01*
X010750Y007714D01*
X010764Y007717D01*
X010775Y007725D01*
X010783Y007736D01*
X010786Y007750D01*
X010783Y007764D01*
X010775Y007775D01*
X010764Y007783D01*
X010750Y007786D01*
D02*
G37*
G36*
X010500D02*
X010486Y007783D01*
X010475Y007775D01*
X010467Y007764D01*
X010464Y007750D01*
X010467Y007736D01*
X010475Y007725D01*
X010486Y007717D01*
X010500Y007714D01*
X010514Y007717D01*
X010525Y007725D01*
X010533Y007736D01*
X010536Y007750D01*
X010533Y007764D01*
X010525Y007775D01*
X010514Y007783D01*
X010500Y007786D01*
D02*
G37*
G36*
X012500Y007536D02*
X012486Y007533D01*
X012475Y007525D01*
X012467Y007514D01*
X012464Y007500D01*
X012467Y007486D01*
X012475Y007475D01*
X012486Y007467D01*
X012500Y007464D01*
X012514Y007467D01*
X012525Y007475D01*
X012533Y007486D01*
X012536Y007500D01*
X012533Y007514D01*
X012525Y007525D01*
X012514Y007533D01*
X012500Y007536D01*
D02*
G37*
G36*
X012000Y008036D02*
X011986Y008033D01*
X011975Y008025D01*
X011967Y008014D01*
X011964Y008000D01*
X011967Y007986D01*
X011975Y007975D01*
X011986Y007967D01*
X012000Y007964D01*
X012014Y007967D01*
X012025Y007975D01*
X012033Y007986D01*
X012036Y008000D01*
X012033Y008014D01*
X012025Y008025D01*
X012014Y008033D01*
X012000Y008036D01*
D02*
G37*
G36*
X011750D02*
X011736Y008033D01*
X011725Y008025D01*
X011717Y008014D01*
X011714Y008000D01*
X011717Y007986D01*
X011725Y007975D01*
X011736Y007967D01*
X011750Y007964D01*
X011764Y007967D01*
X011775Y007975D01*
X011783Y007986D01*
X011786Y008000D01*
X011783Y008014D01*
X011775Y008025D01*
X011764Y008033D01*
X011750Y008036D01*
D02*
G37*
G36*
X011500D02*
X011486Y008033D01*
X011475Y008025D01*
X011467Y008014D01*
X011464Y008000D01*
X011467Y007986D01*
X011475Y007975D01*
X011486Y007967D01*
X011500Y007964D01*
X011514Y007967D01*
X011525Y007975D01*
X011533Y007986D01*
X011536Y008000D01*
X011533Y008014D01*
X011525Y008025D01*
X011514Y008033D01*
X011500Y008036D01*
D02*
G37*
G36*
X012750D02*
X012736Y008033D01*
X012725Y008025D01*
X012717Y008014D01*
X012714Y008000D01*
X012717Y007986D01*
X012725Y007975D01*
X012736Y007967D01*
X012750Y007964D01*
X012764Y007967D01*
X012775Y007975D01*
X012783Y007986D01*
X012786Y008000D01*
X012783Y008014D01*
X012775Y008025D01*
X012764Y008033D01*
X012750Y008036D01*
D02*
G37*
G36*
X012500D02*
X012486Y008033D01*
X012475Y008025D01*
X012467Y008014D01*
X012464Y008000D01*
X012467Y007986D01*
X012475Y007975D01*
X012486Y007967D01*
X012500Y007964D01*
X012514Y007967D01*
X012525Y007975D01*
X012533Y007986D01*
X012536Y008000D01*
X012533Y008014D01*
X012525Y008025D01*
X012514Y008033D01*
X012500Y008036D01*
D02*
G37*
G36*
X012250D02*
X012236Y008033D01*
X012225Y008025D01*
X012217Y008014D01*
X012214Y008000D01*
X012217Y007986D01*
X012225Y007975D01*
X012236Y007967D01*
X012250Y007964D01*
X012264Y007967D01*
X012275Y007975D01*
X012283Y007986D01*
X012286Y008000D01*
X012283Y008014D01*
X012275Y008025D01*
X012264Y008033D01*
X012250Y008036D01*
D02*
G37*
G36*
X010500D02*
X010486Y008033D01*
X010475Y008025D01*
X010467Y008014D01*
X010464Y008000D01*
X010467Y007986D01*
X010475Y007975D01*
X010486Y007967D01*
X010500Y007964D01*
X010514Y007967D01*
X010525Y007975D01*
X010533Y007986D01*
X010536Y008000D01*
X010533Y008014D01*
X010525Y008025D01*
X010514Y008033D01*
X010500Y008036D01*
D02*
G37*
G36*
X010200Y008219D02*
X010157Y008215D01*
X010116Y008202D01*
X010078Y008182D01*
X010045Y008155D01*
X010018Y008122D01*
X009998Y008084D01*
X009985Y008043D01*
X009981Y008000D01*
X009985Y007957D01*
X009998Y007916D01*
X010018Y007878D01*
X010045Y007845D01*
X010078Y007818D01*
X010116Y007798D01*
X010157Y007785D01*
X010200Y007781D01*
X010243Y007785D01*
X010284Y007798D01*
X010322Y007818D01*
X010355Y007845D01*
X010382Y007878D01*
X010402Y007916D01*
X010415Y007957D01*
X010419Y008000D01*
X010415Y008043D01*
X010402Y008084D01*
X010382Y008122D01*
X010355Y008155D01*
X010322Y008182D01*
X010284Y008202D01*
X010243Y008215D01*
X010200Y008219D01*
D02*
G37*
G36*
X012500Y007786D02*
X012486Y007783D01*
X012475Y007775D01*
X012467Y007764D01*
X012464Y007750D01*
X012467Y007736D01*
X012475Y007725D01*
X012486Y007717D01*
X012500Y007714D01*
X012514Y007717D01*
X012525Y007725D01*
X012533Y007736D01*
X012536Y007750D01*
X012533Y007764D01*
X012525Y007775D01*
X012514Y007783D01*
X012500Y007786D01*
D02*
G37*
G36*
X011250Y008036D02*
X011236Y008033D01*
X011225Y008025D01*
X011217Y008014D01*
X011214Y008000D01*
X011217Y007986D01*
X011225Y007975D01*
X011236Y007967D01*
X011250Y007964D01*
X011264Y007967D01*
X011275Y007975D01*
X011283Y007986D01*
X011286Y008000D01*
X011283Y008014D01*
X011275Y008025D01*
X011264Y008033D01*
X011250Y008036D01*
D02*
G37*
G36*
X011000D02*
X010986Y008033D01*
X010975Y008025D01*
X010967Y008014D01*
X010964Y008000D01*
X010967Y007986D01*
X010975Y007975D01*
X010986Y007967D01*
X011000Y007964D01*
X011014Y007967D01*
X011025Y007975D01*
X011033Y007986D01*
X011036Y008000D01*
X011033Y008014D01*
X011025Y008025D01*
X011014Y008033D01*
X011000Y008036D01*
D02*
G37*
G36*
X010750D02*
X010736Y008033D01*
X010725Y008025D01*
X010717Y008014D01*
X010714Y008000D01*
X010717Y007986D01*
X010725Y007975D01*
X010736Y007967D01*
X010750Y007964D01*
X010764Y007967D01*
X010775Y007975D01*
X010783Y007986D01*
X010786Y008000D01*
X010783Y008014D01*
X010775Y008025D01*
X010764Y008033D01*
X010750Y008036D01*
D02*
G37*
G36*
X011500Y007536D02*
X011486Y007533D01*
X011475Y007525D01*
X011467Y007514D01*
X011464Y007500D01*
X011467Y007486D01*
X011475Y007475D01*
X011486Y007467D01*
X011500Y007464D01*
X011514Y007467D01*
X011525Y007475D01*
X011533Y007486D01*
X011536Y007500D01*
X011533Y007514D01*
X011525Y007525D01*
X011514Y007533D01*
X011500Y007536D01*
D02*
G37*
G36*
X005950Y007136D02*
X005936Y007133D01*
X005925Y007125D01*
X005917Y007114D01*
X005914Y007100D01*
X005917Y007086D01*
X005925Y007075D01*
X005936Y007067D01*
X005950Y007064D01*
X005964Y007067D01*
X005975Y007075D01*
X005983Y007086D01*
X005986Y007100D01*
X005983Y007114D01*
X005975Y007125D01*
X005964Y007133D01*
X005950Y007136D01*
D02*
G37*
G36*
X006706Y007115D02*
X006692Y007112D01*
X006680Y007104D01*
X006672Y007093D01*
X006670Y007079D01*
X006672Y007065D01*
X006680Y007054D01*
X006692Y007046D01*
X006706Y007043D01*
X006719Y007046D01*
X006731Y007054D01*
X006739Y007065D01*
X006741Y007079D01*
X006739Y007093D01*
X006731Y007104D01*
X006719Y007112D01*
X006706Y007115D01*
D02*
G37*
G36*
X006124Y007067D02*
X006110Y007064D01*
X006099Y007056D01*
X006091Y007044D01*
X006088Y007031D01*
X006091Y007017D01*
X006099Y007005D01*
X006110Y006998D01*
X006124Y006995D01*
X006138Y006998D01*
X006149Y007005D01*
X006157Y007017D01*
X006160Y007031D01*
X006157Y007044D01*
X006149Y007056D01*
X006138Y007064D01*
X006124Y007067D01*
D02*
G37*
G36*
X005950Y007236D02*
X005936Y007233D01*
X005925Y007225D01*
X005917Y007214D01*
X005914Y007200D01*
X005917Y007186D01*
X005925Y007175D01*
X005936Y007167D01*
X005950Y007164D01*
X005964Y007167D01*
X005975Y007175D01*
X005983Y007186D01*
X005986Y007200D01*
X005983Y007214D01*
X005975Y007225D01*
X005964Y007233D01*
X005950Y007236D01*
D02*
G37*
G36*
X013114Y007229D02*
X013100Y007226D01*
X013089Y007219D01*
X013081Y007207D01*
X013078Y007193D01*
X013079Y007188D01*
X013016Y007124D01*
X013011Y007117D01*
X013010Y007109D01*
Y006792D01*
X013011Y006785D01*
X013016Y006778D01*
X013068Y006725D01*
Y005813D01*
X013025Y005770D01*
X012927D01*
X012920Y005783D01*
X012924Y005788D01*
X012926Y005801D01*
X012924Y005815D01*
X012916Y005827D01*
X012904Y005835D01*
X012890Y005837D01*
X012877Y005835D01*
X012865Y005827D01*
X012857Y005815D01*
X012855Y005801D01*
X012857Y005788D01*
X012861Y005783D01*
X012854Y005770D01*
X012583D01*
X012576Y005778D01*
Y006241D01*
X012574Y006249D01*
X012570Y006255D01*
X012487Y006338D01*
X012490Y006350D01*
X012486Y006367D01*
X012477Y006381D01*
X012463Y006390D01*
X012446Y006394D01*
X012434Y006391D01*
X012212Y006613D01*
X012206Y006617D01*
X012198Y006619D01*
X012050D01*
X012047Y006620D01*
X007051D01*
X006979Y006692D01*
X006977Y006695D01*
X006970Y006699D01*
X006962Y006701D01*
X006950D01*
X006947Y006706D01*
X006935Y006713D01*
X006921Y006716D01*
X006908Y006713D01*
X006896Y006706D01*
X006888Y006694D01*
X006886Y006680D01*
X006888Y006666D01*
X006896Y006655D01*
X006908Y006647D01*
X006921Y006644D01*
X006928Y006646D01*
X006933Y006634D01*
X006927Y006629D01*
X006919Y006618D01*
X006916Y006604D01*
X006919Y006590D01*
X006927Y006579D01*
X006938Y006571D01*
X006952Y006568D01*
X006966Y006571D01*
X006977Y006579D01*
X006985Y006590D01*
X006988Y006604D01*
X006987Y006607D01*
X006999Y006613D01*
X007028Y006584D01*
X007035Y006580D01*
X007042Y006578D01*
X007050D01*
X007055Y006567D01*
X007054Y006566D01*
X007043Y006558D01*
X007036Y006547D01*
X007033Y006533D01*
X007036Y006519D01*
X007043Y006508D01*
X007055Y006500D01*
X007069Y006497D01*
X007074Y006498D01*
X007123Y006450D01*
X007123Y006450D01*
X007129Y006446D01*
X007137Y006444D01*
X007137Y006444D01*
X007321D01*
X007328Y006446D01*
X007335Y006450D01*
X007405Y006520D01*
X012085D01*
X012200Y006405D01*
X012194Y006393D01*
X012191Y006394D01*
X012174Y006390D01*
X012160Y006381D01*
X012151Y006367D01*
X012148Y006350D01*
X012151Y006333D01*
X012160Y006319D01*
X012174Y006310D01*
X012191Y006306D01*
X012208Y006310D01*
X012222Y006319D01*
X012231Y006333D01*
X012235Y006350D01*
X012234Y006353D01*
X012246Y006359D01*
X012375Y006230D01*
Y006129D01*
X012374Y006129D01*
X012373Y006121D01*
Y005897D01*
X012374Y005890D01*
X012379Y005883D01*
X012406Y005856D01*
X012403Y005852D01*
X012400Y005835D01*
X012403Y005819D01*
X012413Y005805D01*
X012424Y005797D01*
X012424Y005796D01*
X012429Y005789D01*
X012543Y005675D01*
X012550Y005671D01*
X012558Y005669D01*
X013068D01*
X013076Y005671D01*
X013083Y005675D01*
X013176Y005768D01*
X013180Y005774D01*
X013182Y005782D01*
Y006840D01*
X013194Y006841D01*
X013195Y006837D01*
X013200Y006830D01*
X013222Y006808D01*
Y005789D01*
X013067Y005634D01*
X012550D01*
X012356Y005828D01*
Y005945D01*
X012356Y005945D01*
X012355Y005953D01*
X012350Y005959D01*
X012350Y005959D01*
X012233Y006076D01*
X012236Y006088D01*
X012232Y006105D01*
X012223Y006119D01*
X012209Y006129D01*
X012192Y006132D01*
X012180Y006130D01*
X012117Y006192D01*
Y006374D01*
X012117Y006374D01*
X012116Y006382D01*
X012111Y006388D01*
X012006Y006494D01*
X011999Y006498D01*
X011991Y006500D01*
X007424D01*
X007416Y006498D01*
X007409Y006494D01*
X007330Y006414D01*
X007039D01*
X007000Y006453D01*
X007002Y006464D01*
X006999Y006478D01*
X006992Y006490D01*
X006980Y006497D01*
X006966Y006500D01*
X006953Y006497D01*
X006941Y006490D01*
X006940Y006489D01*
X006928Y006487D01*
X006834Y006581D01*
X006827Y006586D01*
X006819Y006587D01*
X006813Y006600D01*
X006815Y006603D01*
X006818Y006617D01*
X006815Y006630D01*
X006807Y006642D01*
X006796Y006650D01*
X006782Y006653D01*
X006768Y006650D01*
X006756Y006642D01*
X006749Y006630D01*
X006748Y006626D01*
X006735Y006619D01*
X006727Y006621D01*
X006433D01*
X006372Y006682D01*
X006365Y006687D01*
X006357Y006688D01*
X006247D01*
X006162Y006773D01*
X006167Y006781D01*
X006170Y006794D01*
X006167Y006808D01*
X006159Y006820D01*
X006148Y006828D01*
X006134Y006830D01*
X006120Y006828D01*
X006109Y006820D01*
X006101Y006808D01*
X006098Y006794D01*
X006101Y006781D01*
X006109Y006769D01*
X006111Y006767D01*
X006116Y006761D01*
X006224Y006653D01*
X006230Y006648D01*
X006238Y006647D01*
X006238Y006647D01*
X006349D01*
X006410Y006586D01*
X006417Y006581D01*
X006425Y006580D01*
X006719D01*
X006746Y006552D01*
X006753Y006547D01*
X006761Y006546D01*
X006811D01*
X006922Y006434D01*
X006922Y006434D01*
X006929Y006430D01*
X006937Y006428D01*
X006937Y006428D01*
X006965D01*
X006966Y006428D01*
X006966Y006428D01*
X007016Y006379D01*
X007023Y006374D01*
X007031Y006373D01*
X007338D01*
X007346Y006374D01*
X007353Y006379D01*
X007432Y006458D01*
X011983D01*
X012076Y006365D01*
Y006184D01*
X012077Y006176D01*
X012082Y006169D01*
X012151Y006100D01*
X012148Y006088D01*
X012152Y006072D01*
X012161Y006058D01*
X012175Y006048D01*
X012192Y006045D01*
X012204Y006047D01*
X012315Y005936D01*
Y005819D01*
X012317Y005812D01*
X012321Y005805D01*
X012527Y005599D01*
X012534Y005594D01*
X012542Y005593D01*
X013076D01*
X013084Y005594D01*
X013090Y005599D01*
X013257Y005766D01*
X013262Y005772D01*
X013263Y005780D01*
Y006789D01*
X013275Y006794D01*
X013296Y006773D01*
Y005774D01*
X013076Y005554D01*
X012498D01*
X012276Y005776D01*
Y005874D01*
X012274Y005882D01*
X012270Y005888D01*
X012119Y006039D01*
X012112Y006044D01*
X012104Y006045D01*
X012015D01*
X011979Y006081D01*
X011982Y006093D01*
X011978Y006110D01*
X011969Y006124D01*
X011959Y006131D01*
Y006189D01*
X012022Y006252D01*
X012026Y006259D01*
X012028Y006267D01*
X012028Y006267D01*
Y006367D01*
X012026Y006375D01*
X012022Y006381D01*
X011969Y006435D01*
X011962Y006439D01*
X011954Y006441D01*
X007454D01*
X007446Y006439D01*
X007439Y006435D01*
X007324Y006320D01*
X006711D01*
X006651Y006380D01*
X006656Y006393D01*
X006812D01*
X006815Y006388D01*
X006826Y006380D01*
X006840Y006378D01*
X006854Y006380D01*
X006866Y006388D01*
X006873Y006400D01*
X006876Y006414D01*
X006873Y006427D01*
X006866Y006439D01*
X006854Y006447D01*
X006840Y006449D01*
X006826Y006447D01*
X006815Y006439D01*
X006812Y006434D01*
X006549D01*
X006433Y006550D01*
X006427Y006554D01*
X006419Y006556D01*
X006346D01*
X006278Y006624D01*
X006271Y006628D01*
X006264Y006630D01*
X006173D01*
X006068Y006734D01*
Y006819D01*
X006073Y006822D01*
X006081Y006834D01*
X006084Y006848D01*
X006081Y006862D01*
X006073Y006873D01*
X006061Y006881D01*
X006048Y006884D01*
X006034Y006881D01*
X006022Y006873D01*
X006015Y006862D01*
X006012Y006848D01*
X006015Y006834D01*
X006022Y006822D01*
X006027Y006819D01*
Y006725D01*
X006029Y006717D01*
X006033Y006711D01*
X006130Y006614D01*
X006126Y006600D01*
X006120Y006599D01*
X006109Y006591D01*
X006101Y006580D01*
X006098Y006566D01*
X006101Y006552D01*
X006109Y006541D01*
X006109Y006539D01*
X006074Y006504D01*
X006069Y006498D01*
X006068Y006490D01*
Y006017D01*
X006069Y006009D01*
X006074Y006003D01*
X006170Y005907D01*
X006162Y005896D01*
X006152Y005898D01*
X006138Y005895D01*
X006127Y005888D01*
X006119Y005876D01*
X006116Y005862D01*
X006119Y005849D01*
X006127Y005837D01*
X006138Y005829D01*
X006152Y005826D01*
X006166Y005829D01*
X006177Y005837D01*
X006185Y005849D01*
X006188Y005862D01*
X006185Y005876D01*
X006181Y005883D01*
X006189Y005893D01*
X006193Y005893D01*
X006193Y005893D01*
X006211D01*
X006213Y005882D01*
X006220Y005870D01*
X006232Y005862D01*
X006246Y005859D01*
X006260Y005862D01*
X006271Y005870D01*
X006279Y005882D01*
X006282Y005895D01*
X006280Y005902D01*
X006283Y005905D01*
X006284Y005913D01*
X006283Y005921D01*
X006278Y005928D01*
X006272Y005932D01*
X006264Y005934D01*
X006201D01*
X006109Y006026D01*
Y006481D01*
X006174Y006546D01*
X006179Y006553D01*
X006180Y006561D01*
X006179Y006569D01*
X006174Y006575D01*
X006174Y006576D01*
X006179Y006588D01*
X006194D01*
X006202Y006576D01*
X006200Y006566D01*
X006203Y006552D01*
X006210Y006541D01*
X006222Y006533D01*
X006236Y006530D01*
X006249Y006533D01*
X006261Y006541D01*
X006269Y006552D01*
X006270Y006556D01*
X006283Y006560D01*
X006306Y006537D01*
X006302Y006524D01*
X006298Y006523D01*
X006287Y006515D01*
X006279Y006503D01*
X006276Y006490D01*
X006279Y006476D01*
X006287Y006464D01*
X006298Y006457D01*
X006312Y006454D01*
X006326Y006457D01*
X006337Y006464D01*
X006340Y006469D01*
X006367D01*
X006473Y006363D01*
X006480Y006358D01*
X006488Y006357D01*
X006566D01*
X006573Y006344D01*
X006571Y006341D01*
X006568Y006327D01*
X006571Y006313D01*
X006579Y006302D01*
X006590Y006294D01*
X006604Y006291D01*
X006618Y006294D01*
X006629Y006302D01*
X006637Y006313D01*
X006638Y006317D01*
X006652Y006321D01*
X006688Y006285D01*
X006695Y006280D01*
X006703Y006279D01*
X006883D01*
Y006088D01*
X007315D01*
Y006279D01*
X007333D01*
X007341Y006280D01*
X007348Y006285D01*
X007462Y006399D01*
X011946D01*
X011987Y006358D01*
Y006276D01*
X011923Y006212D01*
X011919Y006205D01*
X011917Y006198D01*
Y006131D01*
X011907Y006124D01*
X011898Y006110D01*
X011894Y006093D01*
X011898Y006077D01*
X011907Y006063D01*
X011921Y006053D01*
X011938Y006050D01*
X011950Y006052D01*
X011992Y006010D01*
X011992Y006010D01*
X011999Y006006D01*
X012007Y006004D01*
X012096D01*
X012214Y005886D01*
X012211Y005880D01*
X012207Y005875D01*
X012192Y005878D01*
X012175Y005875D01*
X012161Y005865D01*
X012152Y005851D01*
X012148Y005835D01*
X012152Y005818D01*
X012161Y005804D01*
X012175Y005794D01*
X012192Y005791D01*
X012209Y005794D01*
X012222Y005803D01*
X012227Y005802D01*
X012234Y005798D01*
Y005767D01*
X012236Y005760D01*
X012240Y005753D01*
X012475Y005519D01*
X012475Y005519D01*
X012481Y005514D01*
X012489Y005513D01*
X012488Y005500D01*
X012483Y005499D01*
X012471Y005491D01*
X012464Y005480D01*
X012461Y005466D01*
X012464Y005452D01*
X012471Y005441D01*
X012483Y005433D01*
X012497Y005430D01*
X012511Y005433D01*
X012522Y005441D01*
X012530Y005452D01*
X012533Y005466D01*
X012530Y005480D01*
X012522Y005491D01*
X012511Y005499D01*
X012508Y005500D01*
X012509Y005513D01*
X013085D01*
X013092Y005514D01*
X013099Y005519D01*
X013331Y005751D01*
X013331Y005751D01*
X013336Y005758D01*
X013337Y005765D01*
X013337Y005765D01*
Y006781D01*
X013336Y006789D01*
X013331Y006796D01*
X013298Y006829D01*
X013302Y006843D01*
X013310Y006849D01*
X013318Y006860D01*
X013321Y006874D01*
X013318Y006888D01*
X013310Y006899D01*
X013298Y006907D01*
X013296Y006908D01*
Y006921D01*
X013297Y006921D01*
X013309Y006929D01*
X013317Y006940D01*
X013320Y006954D01*
X013317Y006968D01*
X013309Y006979D01*
X013297Y006987D01*
X013296Y006987D01*
Y007000D01*
X013298Y007001D01*
X013310Y007009D01*
X013318Y007020D01*
X013321Y007034D01*
X013318Y007048D01*
X013310Y007059D01*
X013298Y007067D01*
X013285Y007070D01*
X013271Y007067D01*
X013264Y007062D01*
X013256Y007060D01*
X013246Y007062D01*
X013240Y007066D01*
X013226Y007069D01*
X013212Y007066D01*
X013200Y007059D01*
X013193Y007047D01*
X013190Y007033D01*
X013193Y007020D01*
X013196Y007014D01*
X013169Y006987D01*
X013164Y006980D01*
X013162Y006972D01*
Y006937D01*
X013152Y006932D01*
X013142Y006940D01*
Y007061D01*
X013175Y007093D01*
X013188Y007097D01*
X013199Y007089D01*
X013213Y007086D01*
X013227Y007089D01*
X013238Y007097D01*
X013246Y007108D01*
X013249Y007122D01*
X013246Y007136D01*
X013238Y007148D01*
X013227Y007155D01*
X013213Y007158D01*
X013199Y007155D01*
X013188Y007148D01*
X013185Y007143D01*
X013175D01*
X013167Y007141D01*
X013160Y007137D01*
X013107Y007084D01*
X013103Y007077D01*
X013101Y007069D01*
Y006931D01*
X013103Y006923D01*
X013105Y006920D01*
X013105Y006917D01*
X013103Y006908D01*
X013101Y006905D01*
X013093Y006899D01*
X013085Y006888D01*
X013082Y006874D01*
X013085Y006860D01*
X013093Y006849D01*
X013105Y006841D01*
X013118Y006838D01*
X013128Y006840D01*
X013140Y006832D01*
Y005791D01*
X013060Y005710D01*
X012566D01*
X012474Y005802D01*
X012474Y005805D01*
X012484Y005819D01*
X012487Y005835D01*
X012484Y005852D01*
X012474Y005866D01*
X012460Y005876D01*
X012443Y005879D01*
X012441Y005879D01*
X012414Y005906D01*
Y006038D01*
X012427Y006045D01*
X012429Y006043D01*
X012446Y006040D01*
X012463Y006043D01*
X012477Y006053D01*
X012486Y006067D01*
X012490Y006083D01*
X012486Y006100D01*
X012477Y006114D01*
X012463Y006124D01*
X012446Y006127D01*
X012429Y006124D01*
X012428Y006123D01*
X012416Y006130D01*
Y006239D01*
X012416Y006239D01*
X012414Y006247D01*
X012410Y006253D01*
X012410Y006253D01*
X012108Y006555D01*
X012101Y006560D01*
X012094Y006561D01*
X007396D01*
X007389Y006560D01*
X007382Y006555D01*
X007324Y006497D01*
X007311Y006501D01*
X007311Y006502D01*
X007313Y006515D01*
X007311Y006529D01*
X007303Y006540D01*
X007291Y006548D01*
X007277Y006551D01*
X007264Y006548D01*
X007252Y006540D01*
X007244Y006529D01*
X007242Y006515D01*
X007244Y006501D01*
X007246Y006498D01*
X007240Y006485D01*
X007146D01*
X007104Y006527D01*
X007105Y006533D01*
X007102Y006547D01*
X007094Y006558D01*
X007083Y006566D01*
X007083Y006567D01*
X007088Y006578D01*
X012045D01*
X012048Y006578D01*
X012189D01*
X012405Y006362D01*
X012402Y006350D01*
X012406Y006333D01*
X012415Y006319D01*
X012429Y006310D01*
X012446Y006306D01*
X012458Y006309D01*
X012535Y006232D01*
Y005769D01*
X012536Y005761D01*
X012541Y005754D01*
X012560Y005735D01*
X012567Y005730D01*
X012575Y005729D01*
X012575Y005729D01*
X013034D01*
X013042Y005730D01*
X013048Y005735D01*
X013103Y005790D01*
X013103Y005790D01*
X013108Y005797D01*
X013109Y005804D01*
Y006734D01*
X013109Y006734D01*
X013108Y006742D01*
X013103Y006749D01*
X013103Y006749D01*
X013051Y006801D01*
Y007101D01*
X013108Y007159D01*
X013114Y007157D01*
X013128Y007160D01*
X013139Y007168D01*
X013147Y007180D01*
X013150Y007193D01*
X013147Y007207D01*
X013139Y007219D01*
X013128Y007226D01*
X013114Y007229D01*
D02*
G37*
G36*
X007550Y007136D02*
X007536Y007133D01*
X007525Y007125D01*
X007517Y007114D01*
X007514Y007100D01*
X007517Y007086D01*
X007525Y007075D01*
X007536Y007067D01*
X007550Y007064D01*
X007564Y007067D01*
X007575Y007075D01*
X007583Y007086D01*
X007586Y007100D01*
X007583Y007114D01*
X007575Y007125D01*
X007564Y007133D01*
X007550Y007136D01*
D02*
G37*
G36*
X006642Y006792D02*
X006628Y006790D01*
X006617Y006782D01*
X006609Y006770D01*
X006606Y006756D01*
X006609Y006743D01*
X006617Y006731D01*
X006628Y006723D01*
X006642Y006721D01*
X006656Y006723D01*
X006667Y006731D01*
X006675Y006743D01*
X006678Y006756D01*
X006675Y006770D01*
X006667Y006782D01*
X006656Y006790D01*
X006642Y006792D01*
D02*
G37*
G36*
X006490Y006934D02*
X006261D01*
Y006706D01*
X006490D01*
Y006934D01*
D02*
G37*
G36*
X007226Y006833D02*
X007074D01*
Y006668D01*
X007226D01*
Y006833D01*
D02*
G37*
G36*
X007100Y007000D02*
X007086Y006997D01*
X007075Y006989D01*
X007067Y006978D01*
X007064Y006964D01*
X007067Y006950D01*
X007075Y006939D01*
X007086Y006931D01*
X007100Y006928D01*
X007114Y006931D01*
X007125Y006939D01*
X007133Y006950D01*
X007136Y006964D01*
X007133Y006978D01*
X007125Y006989D01*
X007114Y006997D01*
X007100Y007000D01*
D02*
G37*
G36*
X006642Y006945D02*
X006628Y006942D01*
X006617Y006934D01*
X006609Y006923D01*
X006606Y006909D01*
X006609Y006895D01*
X006617Y006883D01*
X006628Y006876D01*
X006642Y006873D01*
X006656Y006876D01*
X006667Y006883D01*
X006675Y006895D01*
X006678Y006909D01*
X006675Y006923D01*
X006667Y006934D01*
X006656Y006942D01*
X006642Y006945D01*
D02*
G37*
G36*
X007402Y006835D02*
X007388Y006833D01*
X007376Y006825D01*
X007368Y006813D01*
X007366Y006800D01*
X007368Y006786D01*
X007376Y006774D01*
X007388Y006766D01*
X007402Y006764D01*
X007415Y006766D01*
X007427Y006774D01*
X007435Y006786D01*
X007437Y006800D01*
X007435Y006813D01*
X007427Y006825D01*
X007415Y006833D01*
X007402Y006835D01*
D02*
G37*
G36*
X010500Y007536D02*
X010486Y007533D01*
X010475Y007525D01*
X010467Y007514D01*
X010464Y007500D01*
X010467Y007486D01*
X010475Y007475D01*
X010486Y007467D01*
X010500Y007464D01*
X010514Y007467D01*
X010525Y007475D01*
X010533Y007486D01*
X010536Y007500D01*
X010533Y007514D01*
X010525Y007525D01*
X010514Y007533D01*
X010500Y007536D01*
D02*
G37*
G36*
X010250D02*
X010236Y007533D01*
X010225Y007525D01*
X010217Y007514D01*
X010214Y007500D01*
X010217Y007486D01*
X010225Y007475D01*
X010236Y007467D01*
X010250Y007464D01*
X010264Y007467D01*
X010275Y007475D01*
X010283Y007486D01*
X010286Y007500D01*
X010283Y007514D01*
X010275Y007525D01*
X010264Y007533D01*
X010250Y007536D01*
D02*
G37*
G36*
X007450Y007336D02*
X007436Y007333D01*
X007425Y007325D01*
X007417Y007314D01*
X007414Y007300D01*
X007417Y007286D01*
X007425Y007275D01*
X007436Y007267D01*
X007450Y007264D01*
X007464Y007267D01*
X007475Y007275D01*
X007483Y007286D01*
X007486Y007300D01*
X007483Y007314D01*
X007475Y007325D01*
X007464Y007333D01*
X007450Y007336D01*
D02*
G37*
G36*
X011250Y007536D02*
X011236Y007533D01*
X011225Y007525D01*
X011217Y007514D01*
X011214Y007500D01*
X011217Y007486D01*
X011225Y007475D01*
X011236Y007467D01*
X011250Y007464D01*
X011264Y007467D01*
X011275Y007475D01*
X011283Y007486D01*
X011286Y007500D01*
X011283Y007514D01*
X011275Y007525D01*
X011264Y007533D01*
X011250Y007536D01*
D02*
G37*
G36*
X011000D02*
X010986Y007533D01*
X010975Y007525D01*
X010967Y007514D01*
X010964Y007500D01*
X010967Y007486D01*
X010975Y007475D01*
X010986Y007467D01*
X011000Y007464D01*
X011014Y007467D01*
X011025Y007475D01*
X011033Y007486D01*
X011036Y007500D01*
X011033Y007514D01*
X011025Y007525D01*
X011014Y007533D01*
X011000Y007536D01*
D02*
G37*
G36*
X010750D02*
X010736Y007533D01*
X010725Y007525D01*
X010717Y007514D01*
X010714Y007500D01*
X010717Y007486D01*
X010725Y007475D01*
X010736Y007467D01*
X010750Y007464D01*
X010764Y007467D01*
X010775Y007475D01*
X010783Y007486D01*
X010786Y007500D01*
X010783Y007514D01*
X010775Y007525D01*
X010764Y007533D01*
X010750Y007536D01*
D02*
G37*
G36*
X005900Y007454D02*
X005874Y007450D01*
X005849Y007440D01*
X005827Y007423D01*
X005811Y007402D01*
X005800Y007377D01*
X005797Y007350D01*
X005800Y007323D01*
X005811Y007298D01*
X005827Y007277D01*
X005849Y007260D01*
X005874Y007250D01*
X005900Y007246D01*
X005927Y007250D01*
X005952Y007260D01*
X005974Y007277D01*
X005990Y007298D01*
X006000Y007323D01*
X006004Y007350D01*
X006000Y007377D01*
X005990Y007402D01*
X005974Y007423D01*
X005952Y007440D01*
X005927Y007450D01*
X005900Y007454D01*
D02*
G37*
G36*
X007606Y007453D02*
X007579Y007449D01*
X007554Y007439D01*
X007533Y007422D01*
X007516Y007401D01*
X007506Y007376D01*
X007502Y007349D01*
X007506Y007322D01*
X007516Y007297D01*
X007533Y007276D01*
X007554Y007260D01*
X007579Y007249D01*
X007606Y007246D01*
X007633Y007249D01*
X007658Y007260D01*
X007679Y007276D01*
X007696Y007297D01*
X007706Y007322D01*
X007710Y007349D01*
X007706Y007376D01*
X007696Y007401D01*
X007679Y007422D01*
X007658Y007439D01*
X007633Y007449D01*
X007606Y007453D01*
D02*
G37*
G36*
X007550Y007236D02*
X007536Y007233D01*
X007525Y007225D01*
X007517Y007214D01*
X007514Y007200D01*
X007517Y007186D01*
X007525Y007175D01*
X007536Y007167D01*
X007550Y007164D01*
X007564Y007167D01*
X007575Y007175D01*
X007583Y007186D01*
X007586Y007200D01*
X007583Y007214D01*
X007575Y007225D01*
X007564Y007233D01*
X007550Y007236D01*
D02*
G37*
G36*
X007350Y007336D02*
X007336Y007333D01*
X007325Y007325D01*
X007317Y007314D01*
X007314Y007300D01*
X007317Y007286D01*
X007325Y007275D01*
X007336Y007267D01*
X007350Y007264D01*
X007364Y007267D01*
X007375Y007275D01*
X007383Y007286D01*
X007386Y007300D01*
X007383Y007314D01*
X007375Y007325D01*
X007364Y007333D01*
X007350Y007336D01*
D02*
G37*
G36*
X006150D02*
X006136Y007333D01*
X006125Y007325D01*
X006117Y007314D01*
X006114Y007300D01*
X006117Y007286D01*
X006125Y007275D01*
X006136Y007267D01*
X006150Y007264D01*
X006164Y007267D01*
X006175Y007275D01*
X006183Y007286D01*
X006186Y007300D01*
X006183Y007314D01*
X006175Y007325D01*
X006164Y007333D01*
X006150Y007336D01*
D02*
G37*
G36*
X006050D02*
X006036Y007333D01*
X006025Y007325D01*
X006017Y007314D01*
X006014Y007300D01*
X006017Y007286D01*
X006025Y007275D01*
X006036Y007267D01*
X006050Y007264D01*
X006064Y007267D01*
X006075Y007275D01*
X006083Y007286D01*
X006086Y007300D01*
X006083Y007314D01*
X006075Y007325D01*
X006064Y007333D01*
X006050Y007336D01*
D02*
G37*
%LPD*%
D21*
X012655Y005389D02*
X012724Y005458D01*
X012171Y005389D02*
X012655D01*
X012018Y005543D02*
X012171Y005389D01*
X011994Y005543D02*
X012018D01*
X011836Y005700D02*
X011994Y005543D01*
X011836Y005700D02*
Y006248D01*
X011938Y006350D01*
X012104Y006025D02*
X012255Y005874D01*
X012007Y006025D02*
X012104D01*
X011938Y006093D02*
X012007Y006025D01*
X011938Y006093D02*
Y006198D01*
X012007Y006267D01*
X006706Y007070D02*
Y007079D01*
X006246Y005895D02*
X006264Y005913D01*
X006713Y005773D02*
X006714Y005774D01*
X006236Y006566D02*
Y006609D01*
X006048Y006725D02*
Y006848D01*
X006193Y005913D02*
X006264D01*
X006088Y006017D02*
X006193Y005913D01*
X006088Y006017D02*
Y006490D01*
X006154Y006566D02*
X006160Y006561D01*
X006134Y006566D02*
X006154D01*
X006088Y006490D02*
X006160Y006561D01*
X006134Y006779D02*
Y006794D01*
X006130Y006775D02*
X006134Y006779D01*
X006048Y006725D02*
X006164Y006609D01*
X006236D01*
X006130Y006775D02*
X006238Y006668D01*
X006357D01*
X006264Y006609D02*
X006337Y006535D01*
X006236Y006609D02*
X006264D01*
X006312Y006490D02*
X006375D01*
X006625Y006377D02*
X006703Y006299D01*
X006337Y006535D02*
X006419D01*
X006540Y006414D01*
X006840D01*
X006357Y006668D02*
X006425Y006600D01*
X006761Y006567D02*
X006819D01*
X006937Y006449D01*
X006425Y006600D02*
X006727D01*
X006761Y006567D01*
X006703Y006299D02*
X007333D01*
X007454Y006420D01*
X006937Y006449D02*
X006975D01*
X007321Y006465D02*
X007396Y006540D01*
X007069Y006533D02*
X007137Y006465D01*
X007321D01*
X006921Y006680D02*
X006962D01*
X006962Y006680D02*
X006962Y006680D01*
X006962Y006680D02*
X007042Y006599D01*
X006975Y006449D02*
X007031Y006393D01*
X007338D01*
X007424Y006479D01*
X013183Y006937D02*
Y006972D01*
X013226Y007015D01*
Y007033D01*
Y006955D02*
X013241Y006939D01*
Y006936D02*
Y006939D01*
Y006936D02*
X013254Y006924D01*
X013153Y006900D02*
X013161Y006892D01*
Y005782D02*
Y006892D01*
X006375Y006490D02*
X006488Y006377D01*
X006625D01*
X012047Y006599D02*
X012048Y006598D01*
X007454Y006420D02*
X011893D01*
X012443Y005804D02*
Y005847D01*
X012198Y006598D02*
X012446Y006350D01*
X012048Y006598D02*
X012198D01*
X007042Y006599D02*
X012047D01*
X012393Y006121D02*
X012395Y006123D01*
X012393Y005897D02*
Y006121D01*
Y005897D02*
X012443Y005847D01*
X012192Y006088D02*
X012336Y005945D01*
Y005819D02*
Y005945D01*
Y005819D02*
X012542Y005613D01*
X013076D01*
X007424Y006479D02*
X011991D01*
X011893Y006420D02*
X011954D01*
X012096Y006184D02*
X012192Y006088D01*
X012096Y006184D02*
Y006374D01*
X011991Y006479D02*
X012096Y006374D01*
X011954Y006420D02*
X012007Y006367D01*
Y006267D02*
Y006367D01*
X007396Y006540D02*
X012094D01*
X012395Y006239D01*
Y006123D02*
Y006239D01*
X012446Y006350D02*
X012555Y006241D01*
Y005769D02*
Y006241D01*
X013030Y006792D02*
Y007109D01*
X013114Y007193D01*
X013122Y006931D02*
X013153Y006900D01*
X013122Y006931D02*
Y007069D01*
X013175Y007122D01*
X013213D01*
X012555Y005769D02*
X012575Y005750D01*
X013034D01*
X012443Y005804D02*
X012558Y005690D01*
X013068D01*
X012255Y005767D02*
Y005874D01*
Y005767D02*
X012489Y005533D01*
X013085D01*
X013317Y005765D01*
Y006781D01*
X013076Y005613D02*
X013243Y005780D01*
X013242Y006856D02*
Y006892D01*
X013243Y005780D02*
Y006816D01*
X013214Y006845D02*
X013243Y006816D01*
X013183Y006937D02*
X013214Y006906D01*
Y006845D02*
Y006906D01*
X013242Y006892D02*
X013254Y006903D01*
Y006924D01*
X013242Y006856D02*
X013317Y006781D01*
X013068Y005690D02*
X013161Y005782D01*
X013034Y005750D02*
X013089Y005804D01*
Y006734D01*
X013030Y006792D02*
X013089Y006734D01*
D26*
X005950Y005800D02*
D03*
X006050Y005700D02*
D03*
X013282Y007231D02*
D03*
X007259Y006944D02*
D03*
X006246Y005895D02*
D03*
X006713Y005773D02*
D03*
X006574Y006030D02*
D03*
X006886Y005977D02*
D03*
X006236Y006566D02*
D03*
X006132Y006919D02*
D03*
X006312Y007061D02*
D03*
X006134Y006566D02*
D03*
X006312Y006490D02*
D03*
X006134Y006794D02*
D03*
X006048Y006848D02*
D03*
X007069Y006533D02*
D03*
X006706Y007079D02*
D03*
X007473Y006962D02*
D03*
X006966Y006464D02*
D03*
X006921Y006680D02*
D03*
X013285Y007094D02*
D03*
X013114Y007193D02*
D03*
X013226Y006955D02*
D03*
Y007033D02*
D03*
X013213Y007122D02*
D03*
X012724Y005458D02*
D03*
X006840Y006414D02*
D03*
D27*
X011938Y006350D02*
D03*
Y006093D02*
D03*
X012192Y006088D02*
D03*
X012443Y005835D02*
D03*
X012446Y006350D02*
D03*
D28*
X006767Y006942D02*
D03*
X006037Y005780D02*
D03*
M02*
