G04 Layer_Color=255*
%FSAX42Y42*%
%MOMM*%
G71*
G01*
G75*
G04:AMPARAMS|DCode=10|XSize=0.71mm|YSize=1.32mm|CornerRadius=0.18mm|HoleSize=0mm|Usage=FLASHONLY|Rotation=180.000|XOffset=0mm|YOffset=0mm|HoleType=Round|Shape=RoundedRectangle|*
%AMROUNDEDRECTD10*
21,1,0.71,0.97,0,0,180.0*
21,1,0.36,1.32,0,0,180.0*
1,1,0.36,-0.18,0.48*
1,1,0.36,0.18,0.48*
1,1,0.36,0.18,-0.48*
1,1,0.36,-0.18,-0.48*
%
%ADD10ROUNDEDRECTD10*%
G04:AMPARAMS|DCode=11|XSize=0.51mm|YSize=0.61mm|CornerRadius=0.13mm|HoleSize=0mm|Usage=FLASHONLY|Rotation=90.000|XOffset=0mm|YOffset=0mm|HoleType=Round|Shape=RoundedRectangle|*
%AMROUNDEDRECTD11*
21,1,0.51,0.36,0,0,90.0*
21,1,0.25,0.61,0,0,90.0*
1,1,0.25,0.18,0.13*
1,1,0.25,0.18,-0.13*
1,1,0.25,-0.18,-0.13*
1,1,0.25,-0.18,0.13*
%
%ADD11ROUNDEDRECTD11*%
G04:AMPARAMS|DCode=12|XSize=0.51mm|YSize=0.61mm|CornerRadius=0.13mm|HoleSize=0mm|Usage=FLASHONLY|Rotation=0.000|XOffset=0mm|YOffset=0mm|HoleType=Round|Shape=RoundedRectangle|*
%AMROUNDEDRECTD12*
21,1,0.51,0.36,0,0,0.0*
21,1,0.25,0.61,0,0,0.0*
1,1,0.25,0.13,-0.18*
1,1,0.25,-0.13,-0.18*
1,1,0.25,-0.13,0.18*
1,1,0.25,0.13,0.18*
%
%ADD12ROUNDEDRECTD12*%
G04:AMPARAMS|DCode=13|XSize=0.61mm|YSize=0.91mm|CornerRadius=0.15mm|HoleSize=0mm|Usage=FLASHONLY|Rotation=270.000|XOffset=0mm|YOffset=0mm|HoleType=Round|Shape=RoundedRectangle|*
%AMROUNDEDRECTD13*
21,1,0.61,0.61,0,0,270.0*
21,1,0.30,0.91,0,0,270.0*
1,1,0.30,-0.30,-0.15*
1,1,0.30,-0.30,0.15*
1,1,0.30,0.30,0.15*
1,1,0.30,0.30,-0.15*
%
%ADD13ROUNDEDRECTD13*%
G04:AMPARAMS|DCode=14|XSize=0.61mm|YSize=0.91mm|CornerRadius=0.15mm|HoleSize=0mm|Usage=FLASHONLY|Rotation=0.000|XOffset=0mm|YOffset=0mm|HoleType=Round|Shape=RoundedRectangle|*
%AMROUNDEDRECTD14*
21,1,0.61,0.61,0,0,0.0*
21,1,0.30,0.91,0,0,0.0*
1,1,0.30,0.15,-0.30*
1,1,0.30,-0.15,-0.30*
1,1,0.30,-0.15,0.30*
1,1,0.30,0.15,0.30*
%
%ADD14ROUNDEDRECTD14*%
%ADD15R,0.70X0.20*%
%ADD16R,0.30X0.66*%
%ADD17R,0.66X0.30*%
%ADD18R,0.61X1.12*%
%ADD19R,0.81X0.30*%
%ADD20R,0.30X0.81*%
%ADD24C,1.80*%
%ADD25C,4.10*%
D10*
X006184Y007153D02*
D03*
X006344D02*
D03*
X007220Y007100D02*
D03*
X007380D02*
D03*
X006870D02*
D03*
X007030D02*
D03*
X012666Y005560D02*
D03*
X012826D02*
D03*
D11*
X006035Y006934D02*
D03*
Y007014D02*
D03*
X007450Y006890D02*
D03*
Y006810D02*
D03*
X006850Y006812D02*
D03*
Y006732D02*
D03*
X006650Y006060D02*
D03*
Y006140D02*
D03*
X012900Y005660D02*
D03*
Y005740D02*
D03*
D12*
X006564Y007117D02*
D03*
X006644D02*
D03*
X006910Y005900D02*
D03*
X006990D02*
D03*
D13*
X006650Y005920D02*
D03*
Y005780D02*
D03*
D14*
X006630Y006550D02*
D03*
X006770D02*
D03*
X006326Y005796D02*
D03*
X006466D02*
D03*
D15*
X013344Y007074D02*
D03*
Y007114D02*
D03*
Y007154D02*
D03*
Y007194D02*
D03*
Y007234D02*
D03*
X013056Y007074D02*
D03*
Y007114D02*
D03*
Y007154D02*
D03*
Y007194D02*
D03*
Y007234D02*
D03*
Y007034D02*
D03*
Y006994D02*
D03*
Y006954D02*
D03*
Y006914D02*
D03*
Y006874D02*
D03*
X013344Y007034D02*
D03*
Y006994D02*
D03*
Y006954D02*
D03*
Y006914D02*
D03*
Y006874D02*
D03*
Y006834D02*
D03*
Y007274D02*
D03*
X013056Y006834D02*
D03*
Y007274D02*
D03*
D16*
X006278Y006990D02*
D03*
X006343D02*
D03*
X006408D02*
D03*
X006473D02*
D03*
Y006650D02*
D03*
X006408D02*
D03*
X006343D02*
D03*
X006278D02*
D03*
X007100Y006613D02*
D03*
X007150D02*
D03*
X007201D02*
D03*
Y006887D02*
D03*
X007150D02*
D03*
X007100D02*
D03*
D17*
X006545Y006917D02*
D03*
Y006852D02*
D03*
Y006787D02*
D03*
Y006722D02*
D03*
X006205D02*
D03*
Y006787D02*
D03*
Y006852D02*
D03*
Y006917D02*
D03*
X007013Y006852D02*
D03*
Y006801D02*
D03*
Y006750D02*
D03*
Y006700D02*
D03*
Y006650D02*
D03*
X007287D02*
D03*
Y006700D02*
D03*
Y006750D02*
D03*
Y006801D02*
D03*
Y006852D02*
D03*
D18*
X006912Y006312D02*
D03*
X007036D02*
D03*
X007162D02*
D03*
X007288D02*
D03*
Y006090D02*
D03*
X007162D02*
D03*
X007036D02*
D03*
X006912D02*
D03*
D19*
X006100Y006327D02*
D03*
Y006276D02*
D03*
Y006225D02*
D03*
Y006175D02*
D03*
Y006125D02*
D03*
Y006075D02*
D03*
X006501D02*
D03*
Y006125D02*
D03*
Y006175D02*
D03*
Y006225D02*
D03*
Y006276D02*
D03*
Y006327D02*
D03*
D20*
X006175Y006000D02*
D03*
X006225D02*
D03*
X006275D02*
D03*
X006325D02*
D03*
X006376D02*
D03*
X006427D02*
D03*
Y006401D02*
D03*
X006376D02*
D03*
X006325D02*
D03*
X006275D02*
D03*
X006225D02*
D03*
X006175D02*
D03*
D24*
X005900Y005651D02*
D03*
X007606Y005650D02*
D03*
Y007349D02*
D03*
X005900Y007350D02*
D03*
D25*
X010200Y005000D02*
D03*
X013200Y008000D02*
D03*
Y005000D02*
D03*
X010200Y008000D02*
D03*
M02*
