M48
;Layer_Color=9474304
;FILE_FORMAT=4:2
METRIC,LZ
;TYPE=PLATED
T1F00S00C0.20
T2F00S00C0.30
T3F00S00C1.00
T4F00S00C2.50
%
T01
X012Y005
X01225
X0125
Y00525
X012497Y005466
X012724Y005458
X01275Y00525
X013
X01275Y005
X01225Y00525
X012248Y005478
X012309Y005613
X012192Y005835
X012443Y005835
X012446Y006083
X012192Y006088
X011938Y006093
Y00635
X012191
X012446
X012443Y0066
X013118Y006874
X013285
X013284Y006954
X013226Y006955
Y007033
X013285Y007034
Y007094
X013213Y007122
X013114Y007193
X0131Y007381
X013005
X013199
X013295
X013395
X013282Y007231
X01275Y00775
X0125
X01225
X012
Y0075
X01225
X0125
X01289Y005801
X01325Y0055
X012
Y00525
X011938Y005835
X01175Y0055
X0115
X01125
X011
X01075
X0105
X01025
X0105Y00525
Y005
X01075
X011
X01125
X0115
X01175
Y00525
X0115
X01125
X011
X01075
Y0075
Y00775
X0105
Y0075
X01025
X011
Y00775
X01125
X0115
X01175
Y0075
X0115
X01125
X00755Y0072
Y0071
Y007
Y0069
X007473Y006962
X007259Y006944
X0071Y006964
X006767Y006942
X006642Y006909
Y006756
X006782Y006617
X006952Y006604
X006921Y00668
X006966Y006464
X007069Y006533
X007277Y006515
X007379Y0067
X007402Y0068
X007445Y006309
X00755Y0061
Y006
Y0059
Y0058
X00745Y0057
X00735
X00725
X00715
X00705
X00695
X00685
X00675
X00665
X00655
X00645
X00635
X00625
X00615
X00605
X00595Y0058
Y0059
Y006
Y0061
Y0062
Y0063
Y0064
Y0065
Y0066
Y0067
Y0068
Y0069
Y007
Y0071
Y0072
X00605Y0073
X00615
X00625
X00635
X00645
X00655
X00665
X00675
X00685
X00695
X00705
X00715
X00725
X00735
X00745
X006706Y007079
X006312Y007061
X006124Y007031
X006132Y006919
X006134Y006794
X006048Y006848
X006134Y006566
X006236
X006312Y00649
X006604Y006327
X006652Y006218
X006574Y00603
X006472Y005885
X006246Y005895
X006152Y005862
X006713Y005773
X006886Y005977
X007074Y005911
X00684Y006414
X0105Y008
X01075
X011
X01125
X0115
X01175
X012
X01225
X0125
X01275
T02
X006037Y00578
X007348Y005852
T03
X0059Y005651
Y00735
X007606Y007349
Y00565
T04
X0132Y005
X0102
Y008
X0132
M30
