G04 Layer_Physical_Order=5*
G04 Layer_Color=12632256*
%FSLAX44Y44*%
%MOMM*%
G71*
G01*
G75*
%ADD23C,0.2540*%
%ADD24C,0.1270*%
%ADD25C,0.3000*%
%ADD26C,0.7000*%
%ADD28C,1.5240*%
%ADD29C,1.5000*%
%ADD38C,0.4500*%
%ADD39C,1.2700*%
G36*
X2509744Y557080D02*
Y545846D01*
X2509744Y545846D01*
X2509959Y544765D01*
X2510571Y543849D01*
X2513808Y540612D01*
Y503339D01*
X2513229Y503006D01*
X2512538Y502816D01*
X2511465Y503533D01*
X2510001Y503824D01*
X2508538Y503533D01*
X2507298Y502704D01*
X2506469Y501463D01*
X2506178Y500000D01*
X2506469Y498537D01*
X2507298Y497297D01*
X2508538Y496468D01*
X2510001Y496177D01*
X2511465Y496468D01*
X2512538Y497185D01*
X2513229Y496995D01*
X2513808Y496661D01*
Y490628D01*
X2510825Y487645D01*
X2510213Y486729D01*
X2509998Y485648D01*
X2509998Y485648D01*
Y475727D01*
X2509798Y475427D01*
X2509507Y473964D01*
X2509798Y472501D01*
X2510626Y471260D01*
X2511867Y470432D01*
X2513330Y470141D01*
X2514793Y470432D01*
X2516034Y471260D01*
X2516862Y472501D01*
X2517153Y473964D01*
X2516862Y475427D01*
X2516294Y476278D01*
X2517002Y477432D01*
X2517902Y477253D01*
X2519365Y477544D01*
X2520158Y478073D01*
X2521428Y477491D01*
Y474472D01*
X2521428Y474472D01*
X2521643Y473391D01*
X2522255Y472475D01*
X2524033Y470697D01*
X2524949Y470085D01*
X2526030Y469870D01*
X2526030Y469870D01*
X2562352D01*
X2566017Y466204D01*
Y448450D01*
X2565545Y448356D01*
X2564838Y447884D01*
X2562270Y445316D01*
X2562265Y445309D01*
X2561697Y444642D01*
X2560638Y444985D01*
X2560259Y445238D01*
X2558796Y445529D01*
X2557333Y445238D01*
X2556092Y444410D01*
X2555264Y443169D01*
X2554973Y441706D01*
X2555159Y440768D01*
X2554350Y439498D01*
X2551736D01*
X2551340Y440092D01*
X2550099Y440920D01*
X2548636Y441211D01*
X2547173Y440920D01*
X2545932Y440092D01*
X2545104Y438851D01*
X2544813Y437388D01*
X2545104Y435925D01*
X2545932Y434684D01*
X2547173Y433856D01*
X2548636Y433565D01*
X2550099Y433856D01*
X2551340Y434684D01*
X2551647Y435144D01*
X2564899D01*
X2565578Y433874D01*
X2565170Y433263D01*
X2564879Y431800D01*
X2565170Y430337D01*
X2565999Y429096D01*
X2567239Y428268D01*
X2568702Y427977D01*
X2570165Y428268D01*
X2571406Y429096D01*
X2572234Y430337D01*
X2572525Y431800D01*
X2572234Y433263D01*
X2571406Y434504D01*
X2570165Y435332D01*
X2569389Y435487D01*
X2568971Y436865D01*
X2569733Y437627D01*
X2570205Y438333D01*
X2570311Y438864D01*
X2570898Y439256D01*
X2571035Y439462D01*
X2617564D01*
X2618255Y438427D01*
X2619496Y437599D01*
X2620959Y437308D01*
X2622422Y437599D01*
X2623663Y438427D01*
X2624491Y439668D01*
X2624782Y441131D01*
X2624491Y442594D01*
X2623663Y443835D01*
X2622422Y444663D01*
X2622042Y444739D01*
X2621039Y446024D01*
X2620748Y447487D01*
X2620605Y447702D01*
X2621283Y448972D01*
X2630324D01*
Y433222D01*
X2629763Y432184D01*
X2629763Y432184D01*
Y432184D01*
X2629055Y432114D01*
X2629037Y432199D01*
X2628876Y433009D01*
X2628047Y434250D01*
X2626807Y435078D01*
X2625344Y435369D01*
X2623881Y435078D01*
X2622640Y434250D01*
X2621812Y433009D01*
X2621521Y431546D01*
X2621812Y430083D01*
X2622640Y428842D01*
X2623881Y428014D01*
X2625344Y427723D01*
X2626807Y428014D01*
X2628047Y428842D01*
X2628876Y430083D01*
X2629037Y430893D01*
X2629055Y430978D01*
X2629763Y430908D01*
Y430908D01*
X2629763Y430908D01*
X2630324Y429870D01*
Y403758D01*
X2629763Y402720D01*
X2629763Y402720D01*
Y402720D01*
X2629055Y402650D01*
X2629037Y402735D01*
X2628876Y403545D01*
X2628047Y404786D01*
X2626807Y405614D01*
X2625971Y405781D01*
X2621411Y410341D01*
X2620418Y411004D01*
X2619248Y411237D01*
X2619248Y411237D01*
X2619162D01*
X2618146Y412507D01*
X2618246Y413004D01*
X2617954Y414467D01*
X2617868Y414597D01*
X2618452Y416008D01*
X2618528Y416023D01*
X2619768Y416852D01*
X2620597Y418092D01*
X2620887Y419555D01*
X2620597Y421019D01*
X2619768Y422259D01*
X2618528Y423088D01*
X2617064Y423379D01*
X2615601Y423088D01*
X2614361Y422259D01*
X2613532Y421019D01*
X2613241Y419555D01*
X2613532Y418092D01*
X2613618Y417962D01*
X2613034Y416551D01*
X2612959Y416536D01*
X2611718Y415708D01*
X2610890Y414467D01*
X2610598Y413004D01*
X2610890Y411541D01*
X2610256Y410203D01*
X2609576Y409749D01*
X2608694Y408867D01*
X2561927D01*
X2560756Y408634D01*
X2559764Y407971D01*
X2559764Y407971D01*
X2557628Y405835D01*
X2557272Y405905D01*
X2555809Y405614D01*
X2554568Y404786D01*
X2554466Y404633D01*
X2549595D01*
X2549595Y404633D01*
X2549595Y404633D01*
X2524138D01*
X2523429Y405106D01*
X2521966Y405397D01*
X2520503Y405106D01*
X2519262Y404278D01*
X2518434Y403037D01*
X2518143Y401574D01*
X2518434Y400111D01*
X2519262Y398870D01*
X2520503Y398042D01*
X2521966Y397751D01*
X2523429Y398042D01*
X2523573Y398138D01*
X2524597Y397463D01*
X2524693Y397245D01*
X2524493Y396240D01*
X2524784Y394777D01*
X2525612Y393536D01*
X2526853Y392708D01*
X2528316Y392417D01*
X2529779Y392708D01*
X2531020Y393536D01*
X2531848Y394777D01*
X2532139Y396240D01*
X2531940Y397245D01*
X2532717Y398515D01*
X2535864D01*
X2536681Y397245D01*
X2536497Y396324D01*
X2536789Y394861D01*
X2537617Y393620D01*
X2538858Y392792D01*
X2540321Y392501D01*
X2541784Y392792D01*
X2543025Y393620D01*
X2543615Y394504D01*
X2558072D01*
X2558905Y394670D01*
X2559612Y395142D01*
X2563196Y398726D01*
X2563462Y399124D01*
X2564225Y399887D01*
X2567989D01*
X2568689Y399034D01*
X2568979Y397571D01*
X2569808Y396330D01*
X2571049Y395502D01*
X2572512Y395211D01*
X2573975Y395502D01*
X2574459Y395825D01*
X2575837Y395403D01*
X2575869Y395356D01*
X2576666Y394162D01*
X2577907Y393333D01*
X2579370Y393042D01*
X2580833Y393333D01*
X2582074Y394162D01*
X2582903Y395403D01*
X2583193Y396866D01*
X2582903Y398329D01*
X2582710Y398617D01*
X2583389Y399887D01*
X2604640D01*
X2605319Y398617D01*
X2605048Y398211D01*
X2604756Y396748D01*
X2605048Y395285D01*
X2605876Y394044D01*
X2607117Y393216D01*
X2608580Y392925D01*
X2610043Y393216D01*
X2611284Y394044D01*
X2612112Y395285D01*
X2612403Y396748D01*
X2612244Y397550D01*
X2613232Y398648D01*
X2613914Y398513D01*
X2615377Y398804D01*
X2616618Y399632D01*
X2617446Y400873D01*
X2617737Y402336D01*
X2617634Y402856D01*
X2618623Y404150D01*
X2618930Y404170D01*
X2621645Y401455D01*
X2621812Y400619D01*
X2622640Y399378D01*
X2623881Y398550D01*
X2625344Y398259D01*
X2626807Y398550D01*
X2628047Y399378D01*
X2628876Y400619D01*
X2629037Y401429D01*
X2629055Y401514D01*
X2629763Y401444D01*
Y401444D01*
X2629763Y401444D01*
X2630324Y400406D01*
Y389128D01*
X2630800Y387980D01*
X2632070Y386710D01*
X2633218Y386234D01*
X2642616D01*
X2643113Y385902D01*
Y369916D01*
X2641633Y369304D01*
X2639753Y367861D01*
X2638311Y365981D01*
X2637404Y363792D01*
X2637094Y361442D01*
X2637391Y359188D01*
X2632263Y358354D01*
X2631296Y359177D01*
Y365391D01*
X2631296Y366555D01*
X2632055Y367149D01*
X2632226Y367254D01*
X2632298Y367297D01*
X2633538Y366468D01*
X2635002Y366177D01*
X2636465Y366468D01*
X2637705Y367297D01*
X2638534Y368537D01*
X2638825Y370000D01*
X2638534Y371463D01*
X2637705Y372704D01*
X2636465Y373533D01*
X2635002Y373824D01*
X2633538Y373533D01*
X2632298Y372704D01*
X2631469Y371463D01*
X2631178Y370000D01*
X2631469Y368537D01*
X2632122Y367560D01*
Y367560D01*
X2631649Y368267D01*
X2631983Y367418D01*
X2631434Y366856D01*
X2630970Y366632D01*
X2630058Y366632D01*
X2628788D01*
X2628109Y367902D01*
X2628534Y368537D01*
X2628825Y370000D01*
X2628534Y371463D01*
X2627705Y372704D01*
X2626465Y373533D01*
X2625002Y373824D01*
X2623538Y373533D01*
X2622298Y372704D01*
X2621469Y371463D01*
X2621178Y370000D01*
X2621469Y368537D01*
X2621893Y367902D01*
X2621215Y366632D01*
X2618788D01*
X2618109Y367902D01*
X2618534Y368537D01*
X2618825Y370000D01*
X2618534Y371463D01*
X2617705Y372704D01*
X2616465Y373533D01*
X2615002Y373824D01*
X2613538Y373533D01*
X2612298Y372704D01*
X2611469Y371463D01*
X2611178Y370000D01*
X2611469Y368537D01*
X2612298Y367297D01*
X2613296Y366630D01*
Y357901D01*
X2605946Y357842D01*
X2605664Y359981D01*
X2604757Y362171D01*
X2603315Y364051D01*
X2601435Y365494D01*
X2599246Y366400D01*
X2596896Y366710D01*
X2594547Y366400D01*
X2592357Y365494D01*
X2590477Y364051D01*
X2589034Y362171D01*
X2588128Y359981D01*
X2587827Y357698D01*
X2580573Y357640D01*
X2580264Y359981D01*
X2579358Y362171D01*
X2577915Y364051D01*
X2576035Y365494D01*
X2573846Y366400D01*
X2571496Y366710D01*
X2569146Y366400D01*
X2566957Y365494D01*
X2565077Y364051D01*
X2564145Y362835D01*
X2562720Y362705D01*
X2562587Y362783D01*
X2561465Y363533D01*
X2560002Y363824D01*
X2558538Y363533D01*
X2557298Y362704D01*
X2556469Y361463D01*
X2556178Y360000D01*
X2556224Y359769D01*
X2555159Y358613D01*
X2555043Y358627D01*
X2554864Y359981D01*
X2553958Y362171D01*
X2552515Y364051D01*
X2550635Y365494D01*
X2548445Y366400D01*
X2548273Y366423D01*
Y371348D01*
X2548107Y372181D01*
X2547635Y372887D01*
X2545875Y374647D01*
X2546361Y375820D01*
X2622042D01*
X2623190Y376296D01*
X2623665Y377444D01*
Y387096D01*
X2623190Y388244D01*
X2622042Y388720D01*
X2509865D01*
X2508823Y389990D01*
X2508825Y390000D01*
X2508534Y391463D01*
X2507705Y392704D01*
X2506465Y393533D01*
X2505001Y393824D01*
X2503538Y393533D01*
X2503016Y393183D01*
X2501746Y393862D01*
Y426138D01*
X2503016Y426817D01*
X2503538Y426468D01*
X2505001Y426177D01*
X2506465Y426468D01*
X2507705Y427297D01*
X2508534Y428537D01*
X2508825Y430000D01*
X2508534Y431463D01*
X2507705Y432704D01*
X2506465Y433533D01*
X2505001Y433824D01*
X2503538Y433533D01*
X2503016Y433184D01*
X2501746Y433862D01*
Y448972D01*
X2562860D01*
X2564008Y449448D01*
X2564484Y450596D01*
Y461010D01*
X2564008Y462158D01*
X2562860Y462634D01*
X2490724D01*
X2489576Y462158D01*
X2489252Y461835D01*
X2488735Y461930D01*
X2487957Y462335D01*
X2487719Y463527D01*
X2486891Y464768D01*
X2485650Y465597D01*
X2484187Y465888D01*
X2483249Y465701D01*
X2481979Y466510D01*
Y497446D01*
X2497343Y512811D01*
X2497815Y513517D01*
X2497981Y514350D01*
Y517649D01*
X2499251Y518370D01*
X2500376Y518147D01*
X2501839Y518438D01*
X2503080Y519266D01*
X2503908Y520507D01*
X2504199Y521970D01*
X2503908Y523433D01*
X2503080Y524674D01*
X2501839Y525502D01*
X2500376Y525793D01*
X2499251Y525570D01*
X2497981Y526291D01*
Y532127D01*
X2499251Y532848D01*
X2500376Y532625D01*
X2501839Y532916D01*
X2503080Y533744D01*
X2503908Y534985D01*
X2504199Y536448D01*
X2503908Y537911D01*
X2503080Y539152D01*
X2501839Y539980D01*
X2500376Y540271D01*
X2499251Y540048D01*
X2497981Y540769D01*
Y546976D01*
X2508570Y557566D01*
X2509744Y557080D01*
D02*
G37*
G36*
X2682411Y859339D02*
X2683994Y858402D01*
X2684019Y858271D01*
X2683112Y856082D01*
X2682803Y853732D01*
X2683112Y851383D01*
X2684019Y849194D01*
X2685462Y847314D01*
X2687342Y845871D01*
X2689531Y844964D01*
X2689704Y844941D01*
Y832579D01*
X2689453Y832374D01*
X2687756Y832627D01*
X2687705Y832704D01*
X2686465Y833533D01*
X2685002Y833824D01*
X2683538Y833533D01*
X2682298Y832704D01*
X2681469Y831464D01*
X2681178Y830000D01*
X2681469Y828537D01*
X2682298Y827297D01*
X2683538Y826468D01*
X2685002Y826177D01*
X2686465Y826468D01*
X2687705Y827297D01*
X2687756Y827374D01*
X2689453Y827627D01*
X2689704Y827421D01*
Y812579D01*
X2689453Y812374D01*
X2687756Y812627D01*
X2687705Y812704D01*
X2686465Y813533D01*
X2685002Y813824D01*
X2683538Y813533D01*
X2682298Y812704D01*
X2681469Y811464D01*
X2681178Y810000D01*
X2681469Y808537D01*
X2682298Y807297D01*
X2683538Y806468D01*
X2685002Y806177D01*
X2686465Y806468D01*
X2687705Y807297D01*
X2687756Y807374D01*
X2689453Y807627D01*
X2689704Y807421D01*
Y780300D01*
X2689869Y779466D01*
X2689998Y779273D01*
X2689846Y778510D01*
X2690138Y777047D01*
X2690966Y775806D01*
X2692207Y774978D01*
X2693670Y774687D01*
X2695133Y774978D01*
X2696374Y775806D01*
X2697202Y777047D01*
X2697493Y778510D01*
X2697202Y779973D01*
X2696374Y781214D01*
X2695133Y782042D01*
X2694057Y782256D01*
Y799742D01*
X2695074Y800113D01*
X2695327Y800162D01*
X2696526Y799361D01*
X2697989Y799070D01*
X2699452Y799361D01*
X2700692Y800190D01*
X2701521Y801430D01*
X2701812Y802893D01*
X2701521Y804356D01*
X2700692Y805597D01*
X2699452Y806425D01*
X2697989Y806717D01*
X2696526Y806425D01*
X2695327Y805625D01*
X2695074Y805674D01*
X2694057Y806045D01*
Y844941D01*
X2694230Y844964D01*
X2696419Y845871D01*
X2698299Y847314D01*
X2699245Y848546D01*
X2701870Y846697D01*
X2704272Y844688D01*
X2703321Y843449D01*
X2702414Y841260D01*
X2702105Y838910D01*
X2702414Y836561D01*
X2703321Y834371D01*
X2704763Y832491D01*
X2706644Y831049D01*
X2708833Y830142D01*
X2709006Y830119D01*
Y813044D01*
X2707736Y812658D01*
X2707705Y812704D01*
X2706465Y813533D01*
X2705002Y813824D01*
X2703538Y813533D01*
X2702298Y812704D01*
X2701469Y811464D01*
X2701178Y810000D01*
X2701469Y808537D01*
X2702298Y807297D01*
X2703538Y806468D01*
X2705002Y806177D01*
X2706465Y806468D01*
X2707705Y807297D01*
X2707736Y807343D01*
X2709006Y806957D01*
Y793044D01*
X2707736Y792658D01*
X2707705Y792704D01*
X2706465Y793533D01*
X2705002Y793824D01*
X2703538Y793533D01*
X2702298Y792704D01*
X2701469Y791464D01*
X2701178Y790000D01*
X2701469Y788537D01*
X2702298Y787297D01*
X2703538Y786468D01*
X2705002Y786177D01*
X2706465Y786468D01*
X2707705Y787297D01*
X2707736Y787343D01*
X2709006Y786957D01*
Y778932D01*
X2708239Y778420D01*
X2707410Y777179D01*
X2707119Y775716D01*
X2707410Y774253D01*
X2708239Y773012D01*
X2709479Y772184D01*
X2710380Y772004D01*
X2711002Y771696D01*
X2711311Y770671D01*
X2711178Y770000D01*
X2711469Y768537D01*
X2712298Y767297D01*
X2713538Y766468D01*
X2715002Y766177D01*
X2716221Y766420D01*
X2717491Y765743D01*
Y754258D01*
X2716221Y753581D01*
X2715002Y753824D01*
X2713538Y753533D01*
X2712298Y752704D01*
X2711469Y751464D01*
X2711178Y750000D01*
X2711469Y748537D01*
X2712298Y747297D01*
X2713538Y746468D01*
X2715002Y746177D01*
X2716465Y746468D01*
X2716540Y746518D01*
X2716739Y746537D01*
X2718065Y746010D01*
X2718553Y744831D01*
X2718545Y744096D01*
X2718052Y743208D01*
X2717298Y742704D01*
X2716469Y741464D01*
X2716178Y740000D01*
X2716469Y738537D01*
X2717298Y737297D01*
X2718538Y736468D01*
X2720002Y736177D01*
X2721465Y736468D01*
X2722705Y737297D01*
X2723534Y738537D01*
X2723633Y739038D01*
X2724236Y740013D01*
X2725017Y740038D01*
X2726222Y739877D01*
Y732880D01*
X2726182Y732845D01*
X2723801Y732531D01*
X2721583Y731612D01*
X2720035Y730425D01*
X2718917Y730699D01*
X2718647Y730894D01*
X2718534Y731464D01*
X2717705Y732704D01*
X2716465Y733533D01*
X2715002Y733824D01*
X2713538Y733533D01*
X2712298Y732704D01*
X2711469Y731464D01*
X2711178Y730000D01*
X2711469Y728537D01*
X2712298Y727297D01*
X2713538Y726468D01*
X2715002Y726177D01*
X2716123Y726400D01*
X2716205Y726374D01*
X2716977Y725775D01*
X2717220Y725445D01*
X2716983Y723646D01*
X2717297Y721265D01*
X2718216Y719047D01*
X2719677Y717141D01*
X2721583Y715680D01*
X2723801Y714761D01*
X2726182Y714447D01*
X2726222Y714412D01*
Y706464D01*
X2726182Y706429D01*
X2723801Y706115D01*
X2721583Y705196D01*
X2719677Y703735D01*
X2718216Y701829D01*
X2717297Y699611D01*
X2716983Y697230D01*
X2717297Y694849D01*
X2717495Y694372D01*
X2716469Y693530D01*
X2716465Y693533D01*
X2715002Y693824D01*
X2713538Y693533D01*
X2712298Y692704D01*
X2711469Y691463D01*
X2711178Y690000D01*
X2711469Y688537D01*
X2712298Y687297D01*
X2713538Y686468D01*
X2715002Y686177D01*
X2716465Y686468D01*
X2717705Y687297D01*
X2718534Y688537D01*
X2718800Y689877D01*
X2718837Y689912D01*
X2719278Y690172D01*
X2720029Y690456D01*
X2721583Y689264D01*
X2723801Y688345D01*
X2726182Y688031D01*
X2726222Y687996D01*
Y678800D01*
X2726182Y678765D01*
X2724839Y678588D01*
X2723771Y679728D01*
X2723825Y680000D01*
X2723534Y681463D01*
X2722705Y682704D01*
X2721465Y683533D01*
X2720002Y683824D01*
X2718538Y683533D01*
X2717298Y682704D01*
X2716469Y681463D01*
X2716178Y680000D01*
X2716469Y678537D01*
X2717298Y677297D01*
X2718509Y676488D01*
X2718540Y676463D01*
X2719026Y675076D01*
X2718417Y674281D01*
X2717521Y672119D01*
X2717383Y671068D01*
X2726182D01*
Y668528D01*
X2717383D01*
X2717521Y667477D01*
X2718417Y665315D01*
X2719842Y663458D01*
X2721699Y662033D01*
X2723861Y661137D01*
X2726182Y660831D01*
X2726222Y660796D01*
Y604356D01*
X2726182Y604321D01*
X2723801Y604007D01*
X2721583Y603088D01*
X2719677Y601627D01*
X2718216Y599721D01*
X2717297Y597503D01*
X2716983Y595122D01*
X2717059Y594547D01*
X2715897Y593646D01*
X2715002Y593824D01*
X2713538Y593533D01*
X2712298Y592704D01*
X2711469Y591464D01*
X2711178Y590000D01*
X2711469Y588537D01*
X2712298Y587297D01*
X2713538Y586468D01*
X2714356Y586305D01*
X2714998Y584980D01*
X2714776Y584647D01*
X2714485Y583184D01*
X2714776Y581721D01*
X2715604Y580480D01*
X2716845Y579652D01*
X2718308Y579361D01*
X2719771Y579652D01*
X2721012Y580480D01*
X2721841Y581721D01*
X2722131Y583184D01*
X2721841Y584647D01*
X2721012Y585888D01*
X2719771Y586716D01*
X2719331Y587706D01*
X2720339Y588110D01*
X2721583Y587156D01*
X2723801Y586237D01*
X2726182Y585923D01*
X2726222Y585888D01*
Y579139D01*
X2726182Y579104D01*
X2723801Y578790D01*
X2721583Y577871D01*
X2719677Y576409D01*
X2718216Y574504D01*
X2717297Y572286D01*
X2716983Y569905D01*
X2717297Y567524D01*
X2718216Y565306D01*
X2718642Y564750D01*
X2718166Y563284D01*
X2717298Y562704D01*
X2716469Y561464D01*
X2716178Y560000D01*
X2716469Y558537D01*
X2717298Y557297D01*
X2718538Y556468D01*
X2720002Y556177D01*
X2721465Y556468D01*
X2722705Y557297D01*
X2723534Y558537D01*
X2723825Y560000D01*
X2724947Y560869D01*
X2726182Y560706D01*
X2726222Y560671D01*
Y556229D01*
X2726182Y556194D01*
X2723832Y555884D01*
X2721643Y554977D01*
X2719763Y553535D01*
X2718321Y551655D01*
X2717610Y549940D01*
X2686583D01*
X2677601Y558923D01*
X2677687Y559685D01*
X2678978Y560607D01*
X2679192Y560565D01*
X2680655Y560856D01*
X2681896Y561684D01*
X2682724Y562925D01*
X2683015Y564388D01*
X2682724Y565851D01*
X2681896Y567092D01*
X2680655Y567920D01*
X2679192Y568211D01*
X2678182Y568011D01*
X2676912Y568786D01*
Y577164D01*
X2687031Y587283D01*
X2687031Y587283D01*
X2687643Y588199D01*
X2687858Y589280D01*
Y597408D01*
X2687643Y598489D01*
X2687031Y599405D01*
X2687031Y599405D01*
X2682455Y603981D01*
X2681539Y604593D01*
X2680458Y604808D01*
X2680458Y604808D01*
X2680195D01*
X2679135Y605516D01*
X2677672Y605807D01*
X2676209Y605516D01*
X2674968Y604688D01*
X2674140Y603447D01*
X2673849Y601984D01*
X2674140Y600521D01*
X2674968Y599280D01*
X2676209Y598452D01*
X2677672Y598161D01*
X2679135Y598452D01*
X2679651Y598797D01*
X2680563Y597885D01*
X2679937Y596715D01*
X2678938Y596913D01*
X2677475Y596622D01*
X2676234Y595794D01*
X2675406Y594553D01*
X2675115Y593090D01*
X2675352Y591898D01*
Y591466D01*
X2668051Y584165D01*
X2667439Y583249D01*
X2667224Y582168D01*
X2667224Y582168D01*
Y557284D01*
X2665961Y556751D01*
X2664870Y557842D01*
Y561295D01*
X2664482Y563246D01*
X2663578Y564599D01*
Y582349D01*
X2663854Y583737D01*
Y589743D01*
X2663578Y591131D01*
Y624012D01*
X2663600Y624123D01*
Y630129D01*
X2663578Y630240D01*
Y646598D01*
X2663720Y646810D01*
X2664108Y648761D01*
Y654767D01*
X2663720Y656718D01*
X2663578Y656930D01*
Y692447D01*
X2664482Y693800D01*
X2664870Y695751D01*
Y701757D01*
X2664482Y703708D01*
X2664419Y703802D01*
X2665182Y704946D01*
X2665730Y704837D01*
X2667193Y705128D01*
X2668434Y705956D01*
X2669262Y707197D01*
X2669554Y708660D01*
X2669262Y710123D01*
X2668434Y711364D01*
X2667193Y712192D01*
X2665730Y712483D01*
X2664848Y712308D01*
X2663578Y713143D01*
Y737005D01*
X2663190Y738956D01*
X2662085Y740610D01*
X2657014Y745680D01*
X2657608Y746883D01*
X2658872Y746716D01*
X2660921Y746986D01*
X2662831Y747777D01*
X2664471Y749035D01*
X2665729Y750675D01*
X2666520Y752585D01*
X2666790Y754634D01*
X2666575Y756267D01*
X2667586Y757001D01*
X2667693Y757033D01*
X2668538Y756468D01*
X2670002Y756177D01*
X2671465Y756468D01*
X2672705Y757297D01*
X2673534Y758537D01*
X2673825Y760000D01*
X2673534Y761464D01*
X2673343Y761750D01*
X2672792Y762765D01*
X2673666Y763377D01*
X2674022Y763614D01*
X2674850Y764855D01*
X2675141Y766318D01*
X2674850Y767781D01*
X2674022Y769022D01*
X2673495Y769373D01*
Y786127D01*
X2674765Y786848D01*
X2675890Y786625D01*
X2677353Y786916D01*
X2678594Y787744D01*
X2679422Y788985D01*
X2679713Y790448D01*
X2679422Y791911D01*
X2678594Y793152D01*
X2677353Y793980D01*
X2675890Y794271D01*
X2674765Y794048D01*
X2673495Y794769D01*
Y855851D01*
X2673866Y855900D01*
X2676056Y856807D01*
X2677936Y858249D01*
X2679378Y860129D01*
X2680178Y860432D01*
X2682411Y859339D01*
D02*
G37*
G36*
X2521778Y876927D02*
Y873800D01*
X2522088Y872239D01*
X2522972Y870916D01*
X2524295Y870032D01*
X2525856Y869722D01*
X2535856D01*
X2537417Y870032D01*
X2538740Y870916D01*
X2539624Y872239D01*
X2539934Y873800D01*
Y876927D01*
X2547178Y876927D01*
Y873800D01*
X2547488Y872239D01*
X2548372Y870916D01*
X2549695Y870032D01*
X2551256Y869722D01*
X2561256D01*
X2562817Y870032D01*
X2564140Y870916D01*
X2565024Y872239D01*
X2565334Y873800D01*
Y876006D01*
X2566236Y876901D01*
X2572094Y876857D01*
X2572578Y876300D01*
X2572888Y873951D01*
X2573795Y871761D01*
X2575237Y869881D01*
X2577117Y868438D01*
X2579307Y867532D01*
X2581656Y867222D01*
X2584005Y867532D01*
X2586195Y868438D01*
X2588075Y869881D01*
X2589518Y871761D01*
X2590424Y873951D01*
X2590734Y876300D01*
X2591100Y876714D01*
X2615540Y876530D01*
Y867462D01*
X2633540D01*
Y874411D01*
X2634490Y875253D01*
X2636631Y874993D01*
X2639713Y874354D01*
X2639472Y872523D01*
X2639781Y870173D01*
X2640688Y867984D01*
X2642130Y866104D01*
X2644010Y864661D01*
X2646200Y863754D01*
X2648549Y863445D01*
X2650899Y863754D01*
X2653088Y864661D01*
X2653226Y864767D01*
X2655933Y862060D01*
Y773691D01*
X2655406Y773340D01*
X2654578Y772099D01*
X2654572Y772071D01*
X2653302Y772196D01*
Y790956D01*
X2652914Y792907D01*
X2651809Y794561D01*
X2624543Y821826D01*
X2624626Y822452D01*
X2624356Y824501D01*
X2623565Y826411D01*
X2622307Y828051D01*
X2620667Y829309D01*
X2618757Y830100D01*
X2616708Y830370D01*
X2614659Y830100D01*
X2612749Y829309D01*
X2611109Y828051D01*
X2609851Y826411D01*
X2609060Y824501D01*
X2608790Y822452D01*
X2609060Y820403D01*
X2609851Y818493D01*
X2611109Y816853D01*
X2612749Y815595D01*
X2614659Y814804D01*
X2616708Y814534D01*
X2617334Y814617D01*
X2643106Y788844D01*
Y765048D01*
X2643494Y763097D01*
X2644599Y761443D01*
X2651007Y755035D01*
X2650954Y754634D01*
X2651121Y753370D01*
X2649918Y752776D01*
X2609847Y792847D01*
X2610266Y794225D01*
X2610551Y794282D01*
X2611792Y795110D01*
X2612621Y796351D01*
X2612911Y797814D01*
X2612621Y799277D01*
X2611792Y800518D01*
X2610551Y801346D01*
X2609088Y801637D01*
X2607625Y801346D01*
X2606384Y800518D01*
X2605556Y799277D01*
X2605499Y798991D01*
X2604121Y798574D01*
X2589548Y813146D01*
Y816960D01*
X2589933Y817119D01*
X2591573Y818377D01*
X2592831Y820017D01*
X2593622Y821927D01*
X2593892Y823976D01*
X2593622Y826025D01*
X2592831Y827935D01*
X2591573Y829575D01*
X2589933Y830833D01*
X2588023Y831624D01*
X2585974Y831894D01*
X2583925Y831624D01*
X2582015Y830833D01*
X2580375Y829575D01*
X2579117Y827935D01*
X2578326Y826025D01*
X2578056Y823976D01*
X2578326Y821927D01*
X2579117Y820017D01*
X2579352Y819711D01*
Y811035D01*
X2579740Y809084D01*
X2580845Y807430D01*
X2604212Y784063D01*
X2603805Y782674D01*
X2602801Y782003D01*
X2601972Y780763D01*
X2601681Y779300D01*
X2601972Y777837D01*
X2602801Y776596D01*
X2603185Y776339D01*
Y764202D01*
X2603252Y763866D01*
X2602125Y763092D01*
X2601465Y763533D01*
X2600002Y763824D01*
X2598538Y763533D01*
X2597298Y762704D01*
X2596469Y761464D01*
X2596178Y760000D01*
X2596469Y758537D01*
X2597298Y757297D01*
X2598538Y756468D01*
X2600002Y756177D01*
X2601465Y756468D01*
X2602705Y757297D01*
X2603101Y757890D01*
X2604371Y757505D01*
Y741703D01*
X2603379Y741173D01*
X2603101Y741165D01*
X2601722Y741439D01*
X2600259Y741148D01*
X2599290Y740501D01*
X2598279Y740988D01*
X2598121Y741131D01*
X2598179Y741426D01*
X2597888Y742889D01*
X2597060Y744130D01*
X2595819Y744958D01*
X2595602Y745002D01*
Y746296D01*
X2596465Y746468D01*
X2597705Y747297D01*
X2598534Y748537D01*
X2598825Y750000D01*
X2598534Y751464D01*
X2597705Y752704D01*
X2596465Y753533D01*
X2595002Y753824D01*
X2593538Y753533D01*
X2592298Y752704D01*
X2591469Y751464D01*
X2591178Y750000D01*
X2591469Y748537D01*
X2592298Y747297D01*
X2593538Y746468D01*
X2593755Y746425D01*
Y745130D01*
X2592893Y744958D01*
X2591671Y744142D01*
X2580909Y754903D01*
X2580725Y755026D01*
X2580994Y756374D01*
X2581465Y756468D01*
X2582705Y757297D01*
X2583534Y758537D01*
X2583825Y760000D01*
X2583534Y761464D01*
X2582705Y762704D01*
X2581465Y763533D01*
X2580002Y763824D01*
X2578538Y763533D01*
X2577298Y762704D01*
X2576469Y761464D01*
X2576178Y760000D01*
X2576469Y758537D01*
X2577298Y757297D01*
X2578025Y756811D01*
X2577640Y755541D01*
X2572363D01*
X2571978Y756811D01*
X2572705Y757297D01*
X2573534Y758537D01*
X2573825Y760000D01*
X2573534Y761464D01*
X2572705Y762704D01*
X2571465Y763533D01*
X2570002Y763824D01*
X2568538Y763533D01*
X2567298Y762704D01*
X2566469Y761464D01*
X2566178Y760000D01*
X2566469Y758537D01*
X2567298Y757297D01*
X2568025Y756811D01*
X2567640Y755541D01*
X2562363D01*
X2561978Y756811D01*
X2562705Y757297D01*
X2563534Y758537D01*
X2563825Y760000D01*
X2563534Y761464D01*
X2562705Y762704D01*
X2561465Y763533D01*
X2560002Y763824D01*
X2558538Y763533D01*
X2557298Y762704D01*
X2556469Y761464D01*
X2556178Y760000D01*
X2556469Y758537D01*
X2557298Y757297D01*
X2558025Y756811D01*
X2557640Y755541D01*
X2542363D01*
X2541978Y756811D01*
X2542705Y757297D01*
X2543534Y758537D01*
X2543825Y760000D01*
X2543534Y761464D01*
X2542705Y762704D01*
X2541465Y763533D01*
X2540001Y763824D01*
X2538538Y763533D01*
X2537298Y762704D01*
X2536469Y761464D01*
X2536178Y760000D01*
X2536469Y758537D01*
X2537298Y757297D01*
X2538025Y756811D01*
X2537640Y755541D01*
X2532363D01*
X2531978Y756811D01*
X2532705Y757297D01*
X2533534Y758537D01*
X2533825Y760000D01*
X2533534Y761464D01*
X2532705Y762704D01*
X2531465Y763533D01*
X2530001Y763824D01*
X2528538Y763533D01*
X2527298Y762704D01*
X2526469Y761464D01*
X2526178Y760000D01*
X2526469Y758537D01*
X2527298Y757297D01*
X2528025Y756811D01*
X2527640Y755541D01*
X2522363D01*
X2521978Y756811D01*
X2522705Y757297D01*
X2523534Y758537D01*
X2523825Y760000D01*
X2523534Y761464D01*
X2522705Y762704D01*
X2521465Y763533D01*
X2520001Y763824D01*
X2518538Y763533D01*
X2517298Y762704D01*
X2516469Y761464D01*
X2516178Y760000D01*
X2516469Y758537D01*
X2517298Y757297D01*
X2518025Y756811D01*
X2517640Y755541D01*
X2512363D01*
X2511978Y756811D01*
X2512705Y757297D01*
X2513534Y758537D01*
X2513825Y760000D01*
X2513534Y761464D01*
X2512705Y762704D01*
X2511465Y763533D01*
X2510001Y763824D01*
X2508538Y763533D01*
X2507298Y762704D01*
X2506469Y761464D01*
X2506178Y760000D01*
X2506469Y758537D01*
X2507298Y757297D01*
X2508025Y756811D01*
X2507640Y755541D01*
X2502363D01*
X2501978Y756811D01*
X2502705Y757297D01*
X2503534Y758537D01*
X2503825Y760000D01*
X2503534Y761464D01*
X2502705Y762704D01*
X2501465Y763533D01*
X2500001Y763824D01*
X2498538Y763533D01*
X2497298Y762704D01*
X2496469Y761464D01*
X2496456Y761397D01*
X2495078Y760979D01*
X2483898Y772159D01*
Y864427D01*
X2485611Y865136D01*
X2487491Y866579D01*
X2488934Y868459D01*
X2489840Y870648D01*
X2490150Y872998D01*
X2489860Y875199D01*
X2489989Y875530D01*
X2490752Y876464D01*
X2495170Y876851D01*
X2496378Y876300D01*
X2496575Y874806D01*
X2495458Y873733D01*
X2495001Y873824D01*
X2493538Y873533D01*
X2492298Y872704D01*
X2491469Y871464D01*
X2491178Y870001D01*
X2491469Y868537D01*
X2492298Y867297D01*
X2493538Y866468D01*
X2495001Y866177D01*
X2496465Y866468D01*
X2497705Y867297D01*
X2498534Y868537D01*
X2498556Y868650D01*
X2499956Y869176D01*
X2500917Y868438D01*
X2503107Y867532D01*
X2505456Y867222D01*
X2507805Y867532D01*
X2509995Y868438D01*
X2510253Y868636D01*
X2511720Y868161D01*
X2512298Y867297D01*
X2513538Y866468D01*
X2515001Y866177D01*
X2516465Y866468D01*
X2517705Y867297D01*
X2518534Y868537D01*
X2518825Y870001D01*
X2518534Y871464D01*
X2517705Y872704D01*
X2516465Y873533D01*
X2515001Y873824D01*
X2514361Y874992D01*
X2514534Y876300D01*
X2515084Y876927D01*
X2521778Y876927D01*
D02*
G37*
G36*
X2653382Y734893D02*
Y703049D01*
X2653770Y701098D01*
X2654674Y699745D01*
Y697763D01*
X2653770Y696410D01*
X2653382Y694459D01*
Y683779D01*
X2652112Y683100D01*
X2651465Y683533D01*
X2650002Y683824D01*
X2648538Y683533D01*
X2647298Y682704D01*
X2646469Y681463D01*
X2646178Y680000D01*
X2646469Y678537D01*
X2647298Y677297D01*
X2648538Y676468D01*
X2650002Y676177D01*
X2651465Y676468D01*
X2652112Y676901D01*
X2653382Y676222D01*
Y669177D01*
X2652112Y668791D01*
X2651670Y669454D01*
X2650429Y670282D01*
X2648966Y670573D01*
X2647503Y670282D01*
X2646263Y669454D01*
X2645434Y668213D01*
X2645143Y666750D01*
X2645434Y665287D01*
X2646263Y664046D01*
X2647503Y663218D01*
X2648966Y662927D01*
X2650429Y663218D01*
X2651670Y664046D01*
X2652112Y664709D01*
X2653382Y664323D01*
Y661626D01*
X2652112Y660947D01*
X2651445Y661392D01*
X2649982Y661683D01*
X2648519Y661392D01*
X2647389Y660637D01*
X2646590Y661834D01*
X2645349Y662662D01*
X2643886Y662953D01*
X2642423Y662662D01*
X2641182Y661834D01*
X2640354Y660593D01*
X2640063Y659130D01*
X2640269Y658092D01*
X2640173Y657481D01*
X2639450Y656733D01*
X2638613Y656566D01*
X2637372Y655738D01*
X2636544Y654497D01*
X2636253Y653034D01*
X2636544Y651571D01*
X2637372Y650330D01*
X2638613Y649502D01*
X2640076Y649211D01*
X2641539Y649502D01*
X2642780Y650330D01*
X2643608Y651571D01*
X2643900Y653034D01*
X2643693Y654072D01*
X2643788Y654683D01*
X2644512Y655431D01*
X2645349Y655598D01*
X2646479Y656353D01*
X2647278Y655156D01*
X2648519Y654328D01*
X2649982Y654037D01*
X2651445Y654328D01*
X2652182Y654820D01*
X2653531Y654376D01*
X2653573Y654338D01*
X2653770Y653346D01*
X2653912Y653134D01*
Y650394D01*
X2653770Y650182D01*
X2653382Y648231D01*
Y630151D01*
X2653404Y630040D01*
Y624212D01*
X2653382Y624101D01*
Y590019D01*
X2653658Y588631D01*
Y584849D01*
X2653382Y583461D01*
Y562630D01*
X2653379Y562584D01*
X2652293Y561552D01*
X2652014Y561607D01*
X2650551Y561316D01*
X2649310Y560488D01*
X2648482Y559247D01*
X2648191Y557784D01*
X2648482Y556321D01*
X2649310Y555080D01*
X2650551Y554252D01*
X2652014Y553961D01*
X2653477Y554252D01*
X2653650Y554367D01*
X2655061Y553783D01*
X2655062Y553779D01*
X2656167Y552125D01*
X2661733Y546559D01*
X2663387Y545454D01*
X2665338Y545066D01*
X2667289Y545454D01*
X2668943Y546559D01*
X2670048Y548213D01*
X2670436Y550164D01*
X2670330Y550696D01*
X2671501Y551321D01*
X2688160Y534662D01*
X2688160Y534661D01*
X2689077Y534049D01*
X2690157Y533834D01*
X2701704D01*
X2702045Y533185D01*
X2702205Y532564D01*
X2701469Y531464D01*
X2701178Y530000D01*
X2701469Y528537D01*
X2702298Y527297D01*
X2703538Y526468D01*
X2705002Y526177D01*
X2706465Y526468D01*
X2707705Y527297D01*
X2708534Y528537D01*
X2708825Y530000D01*
X2708534Y531464D01*
X2707798Y532564D01*
X2707958Y533185D01*
X2708299Y533834D01*
X2712356D01*
X2717870Y528320D01*
X2717160Y526605D01*
X2716850Y524256D01*
X2717160Y521907D01*
X2718066Y519717D01*
X2719509Y517837D01*
X2721389Y516395D01*
X2723578Y515488D01*
X2725928Y515178D01*
X2726222Y514920D01*
Y508922D01*
X2724087Y508640D01*
X2721897Y507733D01*
X2720017Y506291D01*
X2718575Y504411D01*
X2717864Y502696D01*
X2694344D01*
X2661231Y535810D01*
X2661553Y537284D01*
X2662338Y537808D01*
X2663167Y539049D01*
X2663457Y540512D01*
X2663167Y541975D01*
X2662338Y543216D01*
X2661097Y544044D01*
X2659634Y544335D01*
X2658171Y544044D01*
X2656931Y543216D01*
X2656406Y542431D01*
X2654932Y542109D01*
X2644424Y552617D01*
Y564405D01*
X2645132Y565465D01*
X2645423Y566928D01*
X2645132Y568391D01*
X2644304Y569632D01*
X2643063Y570460D01*
X2641600Y570751D01*
X2640137Y570460D01*
X2638896Y569632D01*
X2638068Y568391D01*
X2637776Y566928D01*
X2638068Y565465D01*
X2638776Y564405D01*
Y551447D01*
X2638776Y551447D01*
X2638991Y550366D01*
X2639603Y549450D01*
X2658868Y530184D01*
X2658275Y528981D01*
X2657094Y529137D01*
X2654713Y528823D01*
X2652495Y527904D01*
X2650590Y526442D01*
X2649128Y524537D01*
X2648209Y522319D01*
X2647895Y519938D01*
X2648209Y517557D01*
X2649128Y515339D01*
X2650590Y513433D01*
X2652495Y511972D01*
X2654713Y511053D01*
X2657094Y510739D01*
X2659475Y511053D01*
X2661693Y511972D01*
X2663599Y513433D01*
X2665060Y515339D01*
X2665979Y517557D01*
X2666293Y519938D01*
X2666137Y521119D01*
X2667340Y521712D01*
X2691177Y497875D01*
X2691178Y497875D01*
X2692094Y497263D01*
X2693175Y497048D01*
X2693175Y497048D01*
X2717864D01*
X2718575Y495333D01*
X2720017Y493453D01*
X2721897Y492010D01*
X2724087Y491104D01*
X2726222Y490822D01*
Y483077D01*
X2726182Y483042D01*
X2723832Y482732D01*
X2721643Y481825D01*
X2719763Y480383D01*
X2719757Y480375D01*
X2682865D01*
X2682064Y481645D01*
X2682253Y482600D01*
X2681962Y484063D01*
X2681134Y485304D01*
X2679893Y486132D01*
X2678430Y486423D01*
X2676967Y486132D01*
X2675726Y485304D01*
X2674897Y484063D01*
X2674607Y482600D01*
X2674796Y481645D01*
X2673995Y480375D01*
X2670406D01*
X2653906Y496875D01*
X2653534Y498537D01*
X2653825Y500000D01*
X2653534Y501463D01*
X2652705Y502704D01*
X2651465Y503533D01*
X2650002Y503824D01*
X2648538Y503533D01*
X2647298Y502704D01*
X2646469Y501463D01*
X2646178Y500000D01*
X2646382Y498972D01*
X2645616Y497702D01*
X2644387D01*
X2643620Y498972D01*
X2643825Y500000D01*
X2643534Y501463D01*
X2642705Y502704D01*
X2641465Y503533D01*
X2640002Y503824D01*
X2638538Y503533D01*
X2637298Y502704D01*
X2636469Y501463D01*
X2636178Y500000D01*
X2636382Y498972D01*
X2635616Y497702D01*
X2634387D01*
X2633620Y498972D01*
X2633825Y500000D01*
X2633534Y501463D01*
X2632705Y502704D01*
X2631465Y503533D01*
X2630002Y503824D01*
X2628538Y503533D01*
X2627298Y502704D01*
X2626469Y501463D01*
X2626178Y500000D01*
X2626194Y499919D01*
X2625236Y498576D01*
X2624614Y498500D01*
X2620294Y502820D01*
Y507457D01*
X2620535Y507649D01*
X2622241Y507382D01*
X2622298Y507297D01*
X2623538Y506468D01*
X2625002Y506177D01*
X2626465Y506468D01*
X2627705Y507297D01*
X2628534Y508537D01*
X2628825Y510000D01*
X2628534Y511463D01*
X2627705Y512704D01*
X2626465Y513533D01*
X2625002Y513824D01*
X2623538Y513533D01*
X2622298Y512704D01*
X2622241Y512618D01*
X2620535Y512352D01*
X2620294Y512543D01*
Y528067D01*
X2620428Y528156D01*
X2621256Y529397D01*
X2621548Y530860D01*
X2621256Y532323D01*
X2620428Y533564D01*
X2619187Y534392D01*
X2617724Y534683D01*
X2616738Y534487D01*
X2615468Y535274D01*
Y551705D01*
X2616176Y552765D01*
X2616467Y554228D01*
X2616230Y555419D01*
X2617137Y556106D01*
X2617278Y556167D01*
X2618130Y555315D01*
X2617964Y554482D01*
X2618256Y553019D01*
X2619084Y551778D01*
X2620325Y550950D01*
X2621788Y550659D01*
X2623251Y550950D01*
X2624492Y551778D01*
X2625320Y553019D01*
X2625611Y554482D01*
X2625320Y555945D01*
X2624492Y557186D01*
X2623251Y558014D01*
X2621788Y558305D01*
X2621378Y558224D01*
X2619661Y559941D01*
X2620471Y560928D01*
X2620579Y560856D01*
X2622042Y560565D01*
X2623505Y560856D01*
X2624745Y561684D01*
X2625574Y562925D01*
X2625865Y564388D01*
X2625574Y565851D01*
X2624745Y567092D01*
X2623505Y567920D01*
X2622042Y568211D01*
X2620579Y567920D01*
X2619338Y567092D01*
X2618698Y566133D01*
X2617428Y566427D01*
Y636203D01*
X2617262Y637036D01*
X2616790Y637742D01*
X2614566Y639967D01*
X2614689Y640588D01*
X2614398Y642051D01*
X2613570Y643292D01*
X2612329Y644120D01*
X2610866Y644411D01*
X2609403Y644120D01*
X2608163Y643292D01*
X2607334Y642051D01*
X2607043Y640588D01*
X2607334Y639125D01*
X2608163Y637884D01*
X2609403Y637056D01*
X2610866Y636765D01*
X2611487Y636888D01*
X2613074Y635301D01*
Y603985D01*
X2611804Y603306D01*
X2611465Y603533D01*
X2610002Y603824D01*
X2608538Y603533D01*
X2607298Y602704D01*
X2606469Y601464D01*
X2606178Y600000D01*
X2606469Y598537D01*
X2607298Y597297D01*
X2608538Y596468D01*
X2610002Y596177D01*
X2611465Y596468D01*
X2611804Y596695D01*
X2613074Y596016D01*
Y592964D01*
X2611804Y592155D01*
X2610866Y592341D01*
X2609403Y592050D01*
X2608163Y591222D01*
X2607334Y589981D01*
X2607043Y588518D01*
X2607334Y587055D01*
X2608163Y585814D01*
X2609403Y584986D01*
X2610097Y584847D01*
Y583553D01*
X2609403Y583414D01*
X2608163Y582586D01*
X2607334Y581345D01*
X2607043Y579882D01*
X2607334Y578419D01*
X2607841Y577659D01*
X2606929Y576745D01*
X2606926Y576743D01*
X2605464Y577033D01*
X2604001Y576742D01*
X2602760Y575914D01*
X2601931Y574673D01*
X2601641Y573210D01*
X2601931Y571747D01*
X2602760Y570506D01*
X2604001Y569678D01*
X2605464Y569386D01*
X2606927Y569678D01*
X2608167Y570506D01*
X2608996Y571747D01*
X2609287Y573210D01*
X2608996Y574673D01*
X2608488Y575433D01*
X2609401Y576347D01*
X2609404Y576349D01*
X2610866Y576059D01*
X2611804Y576245D01*
X2613074Y575436D01*
Y561273D01*
X2613240Y560440D01*
X2613712Y559734D01*
X2614583Y558862D01*
X2614522Y558720D01*
X2613835Y557815D01*
X2612644Y558051D01*
X2611181Y557760D01*
X2609940Y556932D01*
X2609112Y555691D01*
X2608820Y554228D01*
X2609112Y552765D01*
X2609820Y551705D01*
Y533949D01*
X2608550Y533271D01*
X2608011Y533630D01*
X2606548Y533921D01*
X2605571Y533727D01*
X2604301Y534518D01*
Y552202D01*
X2605188Y552794D01*
X2606017Y554035D01*
X2606307Y555498D01*
X2606017Y556961D01*
X2605188Y558202D01*
X2603947Y559030D01*
X2602484Y559321D01*
X2601021Y559030D01*
X2599780Y558202D01*
X2598199Y558120D01*
X2597597Y558522D01*
X2596134Y558813D01*
X2594671Y558522D01*
X2593430Y557694D01*
X2592602Y556453D01*
X2592310Y554990D01*
X2592602Y553527D01*
X2592876Y553116D01*
X2591890Y552307D01*
X2585685Y558511D01*
X2584769Y559123D01*
X2583688Y559338D01*
X2583688Y559338D01*
X2575035D01*
X2573975Y560046D01*
X2572512Y560337D01*
X2571049Y560046D01*
X2569808Y559218D01*
X2568979Y557977D01*
X2568766Y556906D01*
X2567689Y556425D01*
X2567471Y556405D01*
X2548744Y575132D01*
X2549370Y576302D01*
X2550001Y576177D01*
X2551465Y576468D01*
X2552705Y577297D01*
X2553534Y578537D01*
X2553825Y580000D01*
X2553534Y581464D01*
X2552705Y582704D01*
X2551465Y583533D01*
X2550001Y583824D01*
X2548538Y583533D01*
X2547298Y582704D01*
X2546469Y581464D01*
X2546178Y580000D01*
X2546304Y579369D01*
X2545133Y578743D01*
X2536415Y587461D01*
X2536166Y588711D01*
X2535338Y589952D01*
X2534097Y590780D01*
X2532634Y591071D01*
X2531171Y590780D01*
X2529930Y589952D01*
X2529102Y588711D01*
X2528811Y587248D01*
X2529102Y585785D01*
X2529930Y584544D01*
X2531171Y583716D01*
X2532421Y583467D01*
X2585206Y530682D01*
Y493350D01*
X2585206Y493350D01*
X2585421Y492269D01*
X2586033Y491353D01*
X2610753Y466633D01*
X2610753Y466633D01*
X2611669Y466021D01*
X2612750Y465806D01*
X2612750Y465806D01*
X2624171D01*
X2624174Y465804D01*
X2625344Y465571D01*
X2640333D01*
X2642105Y463799D01*
X2641741Y462958D01*
X2641475Y462634D01*
X2573782D01*
X2572634Y462158D01*
X2572159Y461010D01*
Y450767D01*
X2571230Y449771D01*
X2570371Y449902D01*
Y467106D01*
X2570205Y467939D01*
X2569733Y468645D01*
X2565367Y473011D01*
X2565215Y473775D01*
X2564603Y474691D01*
X2563687Y475303D01*
X2562606Y475518D01*
X2537043D01*
X2536918Y476788D01*
X2538161Y477036D01*
X2539402Y477864D01*
X2540230Y479105D01*
X2540521Y480568D01*
X2540230Y482031D01*
X2539402Y483272D01*
X2538948Y483575D01*
X2538775Y484443D01*
X2538163Y485359D01*
X2537212Y486310D01*
Y569461D01*
X2537920Y570521D01*
X2538211Y571984D01*
X2537920Y573447D01*
X2537092Y574688D01*
X2535851Y575516D01*
X2534388Y575807D01*
X2532925Y575516D01*
X2531684Y574688D01*
X2530856Y573447D01*
X2530565Y571984D01*
X2530602Y571794D01*
X2529522Y570714D01*
X2529332Y570751D01*
X2527869Y570460D01*
X2526628Y569632D01*
X2525800Y568391D01*
X2525509Y566928D01*
X2525552Y566708D01*
X2524472Y565628D01*
X2524252Y565671D01*
X2522789Y565380D01*
X2521548Y564552D01*
X2520720Y563311D01*
X2520429Y561848D01*
X2520720Y560385D01*
X2521548Y559144D01*
X2521912Y558902D01*
Y554218D01*
X2520642Y553540D01*
X2520027Y553950D01*
X2518564Y554241D01*
X2517101Y553950D01*
X2516662Y553657D01*
X2515392Y554336D01*
Y610362D01*
X2515392Y610362D01*
X2515177Y611443D01*
X2514565Y612359D01*
X2514565Y612359D01*
X2499839Y627085D01*
X2499590Y628335D01*
X2498762Y629576D01*
X2497521Y630404D01*
X2496058Y630695D01*
X2494595Y630404D01*
X2493354Y629576D01*
X2492526Y628335D01*
X2492235Y626872D01*
X2492526Y625409D01*
X2493354Y624168D01*
X2494595Y623340D01*
X2495845Y623091D01*
X2509744Y609192D01*
Y591000D01*
X2508570Y590514D01*
X2502890Y596194D01*
X2502929Y596392D01*
X2502638Y597855D01*
X2501810Y599096D01*
X2500569Y599924D01*
X2499106Y600215D01*
X2497643Y599924D01*
X2496402Y599096D01*
X2495574Y597855D01*
X2495283Y596392D01*
X2495574Y594929D01*
X2495265Y594183D01*
X2494802Y593797D01*
X2493608Y593000D01*
X2492780Y591759D01*
X2492489Y590296D01*
X2492780Y588833D01*
X2493608Y587592D01*
X2494849Y586764D01*
X2496312Y586473D01*
X2497775Y586764D01*
X2499016Y587592D01*
X2499368Y588119D01*
X2500891D01*
X2504134Y584876D01*
X2504011Y583840D01*
X2502827Y583402D01*
X2502424Y583671D01*
X2501956Y583764D01*
X2501556Y584364D01*
X2500315Y585192D01*
X2498852Y585483D01*
X2497389Y585192D01*
X2496148Y584364D01*
X2495320Y583123D01*
X2495029Y581660D01*
X2495320Y580197D01*
X2496148Y578956D01*
X2496003Y577670D01*
X2495574Y577027D01*
X2495283Y575564D01*
X2495574Y574101D01*
X2496402Y572860D01*
X2496929Y572509D01*
Y563834D01*
X2485955Y552859D01*
X2485483Y552153D01*
X2485317Y551320D01*
Y518694D01*
X2470795Y504172D01*
X2470748Y504173D01*
X2469511Y504683D01*
X2469266Y506539D01*
X2468360Y508729D01*
X2466917Y510609D01*
X2465037Y512052D01*
X2462847Y512958D01*
X2461044Y513196D01*
Y520584D01*
X2462847Y520822D01*
X2465037Y521729D01*
X2465377Y521990D01*
X2465649Y521859D01*
X2466413Y521184D01*
X2466178Y520000D01*
X2466469Y518537D01*
X2467298Y517297D01*
X2468538Y516468D01*
X2470001Y516177D01*
X2471465Y516468D01*
X2472705Y517297D01*
X2473534Y518537D01*
X2473825Y520000D01*
X2473534Y521463D01*
X2472705Y522704D01*
X2471465Y523533D01*
X2470001Y523824D01*
X2468841Y523593D01*
X2468118Y524449D01*
X2468035Y524629D01*
X2468360Y525051D01*
X2469266Y527240D01*
X2469576Y529590D01*
X2469266Y531940D01*
X2468360Y534129D01*
X2467058Y535825D01*
X2467068Y536098D01*
X2468202Y536685D01*
X2468224Y536678D01*
X2468538Y536468D01*
X2470001Y536177D01*
X2471465Y536468D01*
X2472705Y537297D01*
X2473534Y538537D01*
X2473825Y540000D01*
X2473534Y541464D01*
X2472705Y542704D01*
X2471465Y543533D01*
X2470001Y543824D01*
X2468538Y543533D01*
X2467298Y542704D01*
X2466469Y541464D01*
X2466178Y540000D01*
X2466469Y538537D01*
X2466668Y538239D01*
X2466059Y536865D01*
X2465844Y536832D01*
X2465037Y537452D01*
X2462847Y538358D01*
X2461044Y538596D01*
Y545984D01*
X2462847Y546222D01*
X2465037Y547128D01*
X2466917Y548571D01*
X2468360Y550451D01*
X2469266Y552640D01*
X2469576Y554990D01*
X2469266Y557340D01*
X2468360Y559529D01*
X2466917Y561409D01*
X2465037Y562851D01*
X2462847Y563758D01*
X2461044Y563996D01*
Y571384D01*
X2462847Y571622D01*
X2465037Y572528D01*
X2466917Y573971D01*
X2468360Y575851D01*
X2469266Y578041D01*
X2469576Y580390D01*
X2469266Y582739D01*
X2468360Y584929D01*
X2466917Y586809D01*
X2465037Y588251D01*
X2462847Y589158D01*
X2461044Y589396D01*
Y606442D01*
X2469752D01*
Y624442D01*
X2461044D01*
Y631803D01*
X2463102Y632074D01*
X2465291Y632980D01*
X2467171Y634423D01*
X2468613Y636303D01*
X2469520Y638493D01*
X2469830Y640842D01*
X2469520Y643192D01*
X2468613Y645381D01*
X2467171Y647261D01*
X2465291Y648704D01*
X2463102Y649610D01*
X2461044Y649881D01*
Y657203D01*
X2463102Y657474D01*
X2465291Y658381D01*
X2467171Y659823D01*
X2468613Y661703D01*
X2469520Y663893D01*
X2469830Y666242D01*
X2469520Y668592D01*
X2468613Y670781D01*
X2467171Y672661D01*
X2465291Y674103D01*
X2463102Y675010D01*
X2461044Y675281D01*
Y682603D01*
X2463102Y682874D01*
X2465291Y683781D01*
X2467171Y685223D01*
X2468613Y687103D01*
X2469520Y689293D01*
X2469830Y691642D01*
X2469520Y693991D01*
X2469075Y695066D01*
X2469989Y696180D01*
X2470001Y696177D01*
X2471465Y696468D01*
X2472705Y697297D01*
X2473534Y698537D01*
X2473825Y700000D01*
X2473534Y701463D01*
X2472705Y702704D01*
X2471465Y703533D01*
X2470001Y703824D01*
X2468538Y703533D01*
X2467298Y702704D01*
X2466469Y701463D01*
X2466251Y700368D01*
X2465907Y700058D01*
X2465363Y699762D01*
X2464954Y699643D01*
X2463102Y700410D01*
X2461044Y700681D01*
Y708003D01*
X2463102Y708274D01*
X2465291Y709181D01*
X2467171Y710623D01*
X2468613Y712503D01*
X2469520Y714693D01*
X2469830Y717042D01*
X2469520Y719391D01*
X2468613Y721581D01*
X2467171Y723461D01*
X2465291Y724903D01*
X2463102Y725810D01*
X2461044Y726081D01*
Y731845D01*
X2463356Y732150D01*
X2465545Y733056D01*
X2467425Y734499D01*
X2468867Y736379D01*
X2469774Y738568D01*
X2470084Y740918D01*
X2469774Y743268D01*
X2468867Y745457D01*
X2467425Y747337D01*
X2465545Y748780D01*
X2463356Y749686D01*
X2461044Y749991D01*
Y754937D01*
X2463295Y755234D01*
X2465429Y756117D01*
X2467261Y757523D01*
X2468667Y759355D01*
X2469550Y761489D01*
X2469713Y762721D01*
X2471053Y763177D01*
X2493495Y740735D01*
Y666374D01*
X2493661Y665541D01*
X2494133Y664835D01*
X2495914Y663053D01*
X2495791Y662432D01*
X2496082Y660969D01*
X2496910Y659728D01*
X2498151Y658900D01*
X2499614Y658609D01*
X2501077Y658900D01*
X2502318Y659728D01*
X2503146Y660969D01*
X2503437Y662432D01*
X2503146Y663895D01*
X2502318Y665136D01*
X2501077Y665964D01*
X2499614Y666255D01*
X2498993Y666132D01*
X2497849Y667276D01*
Y738640D01*
X2499022Y739126D01*
X2501247Y736900D01*
Y727710D01*
X2501413Y726877D01*
X2501885Y726171D01*
X2517038Y711017D01*
X2516873Y710184D01*
X2517164Y708721D01*
X2517992Y707480D01*
X2519233Y706652D01*
X2520696Y706361D01*
X2522159Y706652D01*
X2523400Y707480D01*
X2524228Y708721D01*
X2524398Y709576D01*
X2524520Y710184D01*
X2524403Y710771D01*
X2524371Y711541D01*
X2525188Y712233D01*
X2525207Y712240D01*
X2526448Y713068D01*
X2527276Y714309D01*
X2527535Y715611D01*
X2528029Y716033D01*
X2528732Y716430D01*
X2530001Y716177D01*
X2531465Y716468D01*
X2532705Y717297D01*
X2533534Y718537D01*
X2533825Y720000D01*
X2533534Y721464D01*
X2532705Y722704D01*
X2531465Y723533D01*
X2530001Y723824D01*
X2528538Y723533D01*
X2527298Y722704D01*
X2526469Y721464D01*
X2526210Y720162D01*
X2525716Y719740D01*
X2525014Y719343D01*
X2523744Y719595D01*
X2523335Y719514D01*
X2508903Y733946D01*
Y738417D01*
X2508737Y739250D01*
X2508265Y739957D01*
X2502526Y745696D01*
X2503012Y746869D01*
X2578468D01*
X2589836Y735502D01*
X2590542Y735030D01*
X2591375Y734864D01*
X2598922D01*
X2599269Y734410D01*
X2599358Y733505D01*
X2586492Y720639D01*
X2585369Y721312D01*
X2586149Y723883D01*
X2586476Y727202D01*
X2586149Y730521D01*
X2585181Y733712D01*
X2583609Y736654D01*
X2581494Y739232D01*
X2578915Y741347D01*
X2575974Y742919D01*
X2572783Y743887D01*
X2569464Y744214D01*
X2566145Y743887D01*
X2562953Y742919D01*
X2560012Y741347D01*
X2557434Y739232D01*
X2555318Y736654D01*
X2553746Y733712D01*
X2552778Y730521D01*
X2552451Y727202D01*
X2552778Y723883D01*
X2553746Y720692D01*
X2555318Y717750D01*
X2557434Y715172D01*
X2560012Y713057D01*
X2562953Y711485D01*
X2566145Y710517D01*
X2569464Y710190D01*
X2572783Y710517D01*
X2575354Y711296D01*
X2576027Y710173D01*
X2571737Y705884D01*
X2570462Y705959D01*
X2570201Y706349D01*
X2568961Y707178D01*
X2567498Y707469D01*
X2566035Y707178D01*
X2564794Y706349D01*
X2563965Y705109D01*
X2563674Y703646D01*
X2563965Y702183D01*
X2564794Y700942D01*
X2566035Y700113D01*
X2567498Y699822D01*
X2568961Y700113D01*
X2569235Y700296D01*
X2570378Y699532D01*
X2570321Y699248D01*
Y683028D01*
X2569794Y682676D01*
X2568965Y681435D01*
X2568674Y679972D01*
X2568965Y678509D01*
X2569794Y677269D01*
X2570215Y676988D01*
X2569829Y675718D01*
X2524713D01*
X2518046Y682385D01*
X2518169Y683006D01*
X2517878Y684469D01*
X2517050Y685710D01*
X2517332Y687048D01*
X2517705Y687297D01*
X2518534Y688537D01*
X2518825Y690000D01*
X2518534Y691463D01*
X2517705Y692704D01*
X2516465Y693533D01*
X2515001Y693824D01*
X2513538Y693533D01*
X2512298Y692704D01*
X2511469Y691463D01*
X2511178Y690000D01*
X2511469Y688537D01*
X2512298Y687297D01*
X2512015Y685958D01*
X2511642Y685710D01*
X2510903Y684603D01*
X2510748Y684550D01*
X2510275Y684499D01*
X2509533Y684541D01*
X2508922Y685456D01*
X2508078Y686019D01*
X2507789Y687009D01*
X2507869Y687542D01*
X2508534Y688537D01*
X2508825Y690000D01*
X2508534Y691463D01*
X2507705Y692704D01*
X2506465Y693533D01*
X2505001Y693824D01*
X2503538Y693533D01*
X2502298Y692704D01*
X2501469Y691463D01*
X2501178Y690000D01*
X2501469Y688537D01*
X2502298Y687297D01*
X2503141Y686733D01*
X2503430Y685744D01*
X2503351Y685210D01*
X2502686Y684215D01*
X2502395Y682752D01*
X2502686Y681289D01*
X2503514Y680048D01*
X2504755Y679220D01*
X2506218Y678929D01*
X2506839Y679052D01*
X2516660Y669232D01*
X2517366Y668760D01*
X2518199Y668594D01*
X2612916D01*
X2613442Y667324D01*
X2607932Y661815D01*
X2536960D01*
X2536608Y662342D01*
X2535367Y663170D01*
X2533904Y663461D01*
X2532441Y663170D01*
X2531200Y662342D01*
X2531134Y662242D01*
X2530608Y661824D01*
X2529367Y662653D01*
X2527904Y662944D01*
X2526441Y662653D01*
X2525200Y661824D01*
X2524372Y660584D01*
X2524081Y659121D01*
X2524372Y657658D01*
X2523449Y656752D01*
X2522310Y655992D01*
X2521482Y654751D01*
X2521191Y653288D01*
X2521482Y651825D01*
X2522310Y650584D01*
X2523551Y649756D01*
X2525014Y649465D01*
X2526477Y649756D01*
X2527718Y650584D01*
X2528546Y651825D01*
X2528837Y653288D01*
X2528546Y654751D01*
X2529469Y655656D01*
X2530608Y656417D01*
X2530674Y656517D01*
X2531200Y656934D01*
X2532441Y656106D01*
X2533904Y655815D01*
X2535367Y656106D01*
X2536608Y656934D01*
X2536960Y657461D01*
X2608834D01*
X2609667Y657627D01*
X2610373Y658099D01*
X2617102Y664827D01*
X2630417D01*
X2630768Y664300D01*
X2632009Y663472D01*
X2633472Y663181D01*
X2634935Y663472D01*
X2636176Y664300D01*
X2637004Y665541D01*
X2637296Y667004D01*
X2637004Y668467D01*
X2636176Y669708D01*
X2634935Y670536D01*
X2633472Y670827D01*
X2632009Y670536D01*
X2630768Y669708D01*
X2630417Y669181D01*
X2627835D01*
X2627450Y670451D01*
X2628333Y671041D01*
X2629161Y672281D01*
X2629453Y673744D01*
X2629161Y675207D01*
X2628333Y676448D01*
X2627092Y677277D01*
X2625629Y677568D01*
X2624485Y677340D01*
X2623161Y677484D01*
X2622332Y678725D01*
X2621092Y679553D01*
X2619629Y679844D01*
X2618166Y679553D01*
X2616925Y678725D01*
X2616096Y677484D01*
X2615806Y676021D01*
X2615557Y675718D01*
X2611502D01*
X2610693Y676988D01*
X2610880Y677926D01*
X2610588Y679389D01*
X2609760Y680630D01*
X2608519Y681458D01*
X2607056Y681749D01*
X2605593Y681458D01*
X2604352Y680630D01*
X2603524Y679389D01*
X2603233Y677926D01*
X2603419Y676988D01*
X2602610Y675718D01*
X2587014D01*
X2586628Y676988D01*
X2587408Y677508D01*
X2588236Y678749D01*
X2588528Y680212D01*
X2588236Y681675D01*
X2587408Y682916D01*
X2586167Y683744D01*
X2586119Y683754D01*
Y701809D01*
X2590618Y706308D01*
X2592019Y705913D01*
X2592668Y704940D01*
X2593909Y704112D01*
X2595372Y703821D01*
X2596835Y704112D01*
X2598076Y704940D01*
X2599227Y704377D01*
X2600005Y703858D01*
X2601468Y703567D01*
X2602931Y703858D01*
X2604171Y704686D01*
X2605000Y705927D01*
X2605291Y707390D01*
X2605000Y708853D01*
X2604171Y710094D01*
X2602931Y710922D01*
X2601468Y711213D01*
X2600005Y710922D01*
X2598764Y710094D01*
X2597613Y710657D01*
X2597103Y710997D01*
X2596708Y712398D01*
X2607072Y722763D01*
X2607813Y722910D01*
X2608520Y723382D01*
X2616784Y731646D01*
X2617256Y732353D01*
X2617422Y733186D01*
Y755871D01*
X2618227Y756302D01*
X2618692Y756438D01*
X2620002Y756177D01*
X2621465Y756468D01*
X2622705Y757297D01*
X2623534Y758537D01*
X2623825Y760000D01*
X2623534Y761464D01*
X2622705Y762704D01*
X2621465Y763533D01*
X2621563Y764808D01*
X2621606Y764873D01*
X2622995Y765280D01*
X2653382Y734893D01*
D02*
G37*
%LPC*%
G36*
X2560002Y643824D02*
X2558538Y643533D01*
X2557298Y642704D01*
X2556469Y641463D01*
X2556178Y640000D01*
X2556469Y638537D01*
X2557298Y637297D01*
X2558538Y636468D01*
X2560002Y636177D01*
X2561465Y636468D01*
X2562705Y637297D01*
X2563534Y638537D01*
X2563825Y640000D01*
X2563534Y641463D01*
X2562705Y642704D01*
X2561465Y643533D01*
X2560002Y643824D01*
D02*
G37*
G36*
X2550001D02*
X2548538Y643533D01*
X2547298Y642704D01*
X2546469Y641463D01*
X2546178Y640000D01*
X2546469Y638537D01*
X2547298Y637297D01*
X2548538Y636468D01*
X2550001Y636177D01*
X2551465Y636468D01*
X2552705Y637297D01*
X2553534Y638537D01*
X2553825Y640000D01*
X2553534Y641463D01*
X2552705Y642704D01*
X2551465Y643533D01*
X2550001Y643824D01*
D02*
G37*
G36*
X2476246Y634251D02*
X2474783Y633960D01*
X2473542Y633132D01*
X2472714Y631891D01*
X2472423Y630428D01*
X2472714Y628965D01*
X2473542Y627724D01*
X2474783Y626896D01*
X2476246Y626605D01*
X2477709Y626896D01*
X2478950Y627724D01*
X2479778Y628965D01*
X2480069Y630428D01*
X2479778Y631891D01*
X2478950Y633132D01*
X2477709Y633960D01*
X2476246Y634251D01*
D02*
G37*
G36*
X2570002Y643824D02*
X2568538Y643533D01*
X2567298Y642704D01*
X2566469Y641463D01*
X2566178Y640000D01*
X2566469Y638537D01*
X2567298Y637297D01*
X2568538Y636468D01*
X2570002Y636177D01*
X2571465Y636468D01*
X2572705Y637297D01*
X2573534Y638537D01*
X2573825Y640000D01*
X2573534Y641463D01*
X2572705Y642704D01*
X2571465Y643533D01*
X2570002Y643824D01*
D02*
G37*
G36*
X2543810Y651269D02*
X2542347Y650978D01*
X2541106Y650150D01*
X2540278Y648909D01*
X2539987Y647446D01*
X2540278Y645983D01*
X2541106Y644742D01*
X2542347Y643914D01*
X2543810Y643623D01*
X2545273Y643914D01*
X2546514Y644742D01*
X2547342Y645983D01*
X2547633Y647446D01*
X2547342Y648909D01*
X2546514Y650150D01*
X2545273Y650978D01*
X2543810Y651269D01*
D02*
G37*
G36*
X2555001Y653824D02*
X2553538Y653533D01*
X2552298Y652704D01*
X2551469Y651463D01*
X2551178Y650000D01*
X2551469Y648537D01*
X2552298Y647297D01*
X2553538Y646468D01*
X2555001Y646177D01*
X2556465Y646468D01*
X2557705Y647297D01*
X2558534Y648537D01*
X2558825Y650000D01*
X2558534Y651463D01*
X2557705Y652704D01*
X2556465Y653533D01*
X2555001Y653824D01*
D02*
G37*
G36*
X2535174Y644157D02*
X2533711Y643866D01*
X2532470Y643038D01*
X2531642Y641797D01*
X2531351Y640334D01*
X2531642Y638871D01*
X2532470Y637630D01*
X2533711Y636802D01*
X2535174Y636511D01*
X2536637Y636802D01*
X2537878Y637630D01*
X2538706Y638871D01*
X2538997Y640334D01*
X2538706Y641797D01*
X2537878Y643038D01*
X2536637Y643866D01*
X2535174Y644157D01*
D02*
G37*
G36*
X2580002Y643824D02*
X2578538Y643533D01*
X2577298Y642704D01*
X2576469Y641463D01*
X2576178Y640000D01*
X2576469Y638537D01*
X2577298Y637297D01*
X2578538Y636468D01*
X2580002Y636177D01*
X2581465Y636468D01*
X2582705Y637297D01*
X2583534Y638537D01*
X2583825Y640000D01*
X2583534Y641463D01*
X2582705Y642704D01*
X2581465Y643533D01*
X2580002Y643824D01*
D02*
G37*
G36*
X2590002D02*
X2588538Y643533D01*
X2587298Y642704D01*
X2586469Y641463D01*
X2586178Y640000D01*
X2586469Y638537D01*
X2587298Y637297D01*
X2588538Y636468D01*
X2590002Y636177D01*
X2591465Y636468D01*
X2592705Y637297D01*
X2593534Y638537D01*
X2593825Y640000D01*
X2593534Y641463D01*
X2592705Y642704D01*
X2591465Y643533D01*
X2590002Y643824D01*
D02*
G37*
G36*
X2560002Y603824D02*
X2558538Y603533D01*
X2557298Y602704D01*
X2556469Y601464D01*
X2556178Y600000D01*
X2556469Y598537D01*
X2557298Y597297D01*
X2558538Y596468D01*
X2560002Y596177D01*
X2561465Y596468D01*
X2562705Y597297D01*
X2563534Y598537D01*
X2563825Y600000D01*
X2563534Y601464D01*
X2562705Y602704D01*
X2561465Y603533D01*
X2560002Y603824D01*
D02*
G37*
G36*
X2570002D02*
X2568538Y603533D01*
X2567298Y602704D01*
X2566469Y601464D01*
X2566178Y600000D01*
X2566469Y598537D01*
X2567298Y597297D01*
X2568538Y596468D01*
X2570002Y596177D01*
X2571465Y596468D01*
X2572705Y597297D01*
X2573534Y598537D01*
X2573825Y600000D01*
X2573534Y601464D01*
X2572705Y602704D01*
X2571465Y603533D01*
X2570002Y603824D01*
D02*
G37*
G36*
X2550001D02*
X2548538Y603533D01*
X2547298Y602704D01*
X2546469Y601464D01*
X2546178Y600000D01*
X2546469Y598537D01*
X2547298Y597297D01*
X2548538Y596468D01*
X2550001Y596177D01*
X2551465Y596468D01*
X2552705Y597297D01*
X2553534Y598537D01*
X2553825Y600000D01*
X2553534Y601464D01*
X2552705Y602704D01*
X2551465Y603533D01*
X2550001Y603824D01*
D02*
G37*
G36*
X2482850Y603771D02*
X2481387Y603480D01*
X2480146Y602652D01*
X2479318Y601411D01*
X2479027Y599948D01*
X2479318Y598485D01*
X2480146Y597244D01*
X2480177Y597224D01*
X2480403Y595545D01*
X2480080Y595061D01*
X2479789Y593598D01*
X2480080Y592135D01*
X2480908Y590894D01*
X2482149Y590066D01*
X2483612Y589775D01*
X2485075Y590066D01*
X2486316Y590894D01*
X2487144Y592135D01*
X2487435Y593598D01*
X2487144Y595061D01*
X2486316Y596302D01*
X2486288Y596334D01*
X2485722Y597226D01*
X2485982Y597866D01*
X2486185Y598190D01*
X2486382Y598485D01*
X2486673Y599948D01*
X2486382Y601411D01*
X2485554Y602652D01*
X2484313Y603480D01*
X2482850Y603771D01*
D02*
G37*
G36*
X2470001Y603824D02*
X2468538Y603533D01*
X2467298Y602704D01*
X2466469Y601464D01*
X2466178Y600000D01*
X2466469Y598537D01*
X2467298Y597297D01*
X2468538Y596468D01*
X2470001Y596177D01*
X2471465Y596468D01*
X2472705Y597297D01*
X2473534Y598537D01*
X2473825Y600000D01*
X2473534Y601464D01*
X2472705Y602704D01*
X2471465Y603533D01*
X2470001Y603824D01*
D02*
G37*
G36*
X2580002D02*
X2578538Y603533D01*
X2577298Y602704D01*
X2576469Y601464D01*
X2576178Y600000D01*
X2576469Y598537D01*
X2577298Y597297D01*
X2578538Y596468D01*
X2580002Y596177D01*
X2581465Y596468D01*
X2582705Y597297D01*
X2583534Y598537D01*
X2583825Y600000D01*
X2583534Y601464D01*
X2582705Y602704D01*
X2581465Y603533D01*
X2580002Y603824D01*
D02*
G37*
G36*
X2543810Y624599D02*
X2542347Y624308D01*
X2541106Y623480D01*
X2540278Y622239D01*
X2539987Y620776D01*
X2540278Y619313D01*
X2541106Y618072D01*
X2542347Y617244D01*
X2543810Y616953D01*
X2545273Y617244D01*
X2546514Y618072D01*
X2547342Y619313D01*
X2547633Y620776D01*
X2547342Y622239D01*
X2546514Y623480D01*
X2545273Y624308D01*
X2543810Y624599D01*
D02*
G37*
G36*
X2595372Y632473D02*
X2593909Y632182D01*
X2592668Y631354D01*
X2591840Y630113D01*
X2591548Y628650D01*
X2591840Y627187D01*
X2592668Y625946D01*
X2593909Y625118D01*
X2595372Y624827D01*
X2596835Y625118D01*
X2598076Y625946D01*
X2598904Y627187D01*
X2599195Y628650D01*
X2598904Y630113D01*
X2598076Y631354D01*
X2596835Y632182D01*
X2595372Y632473D01*
D02*
G37*
G36*
X2525014Y632981D02*
X2523551Y632690D01*
X2522310Y631862D01*
X2521482Y630621D01*
X2521191Y629158D01*
X2521482Y627695D01*
X2522310Y626454D01*
X2522760Y626154D01*
Y624626D01*
X2522564Y624496D01*
X2521736Y623255D01*
X2521445Y621792D01*
X2521736Y620329D01*
X2522564Y619088D01*
X2523805Y618260D01*
X2525268Y617969D01*
X2525315Y616763D01*
X2525255Y616458D01*
X2525546Y614995D01*
X2526374Y613754D01*
X2527615Y612926D01*
X2529078Y612635D01*
X2530541Y612926D01*
X2531782Y613754D01*
X2532610Y614995D01*
X2532901Y616458D01*
X2532610Y617921D01*
X2531782Y619162D01*
X2530541Y619990D01*
X2529078Y620281D01*
X2529031Y621487D01*
X2529091Y621792D01*
X2528800Y623255D01*
X2527972Y624496D01*
X2527522Y624796D01*
Y626324D01*
X2527718Y626454D01*
X2528546Y627695D01*
X2528837Y629158D01*
X2528546Y630621D01*
X2527718Y631862D01*
X2526477Y632690D01*
X2525014Y632981D01*
D02*
G37*
G36*
X2590002Y603824D02*
X2588538Y603533D01*
X2587298Y602704D01*
X2586469Y601464D01*
X2586178Y600000D01*
X2586469Y598537D01*
X2587298Y597297D01*
X2588538Y596468D01*
X2590002Y596177D01*
X2591465Y596468D01*
X2592705Y597297D01*
X2593534Y598537D01*
X2593825Y600000D01*
X2593534Y601464D01*
X2592705Y602704D01*
X2591465Y603533D01*
X2590002Y603824D01*
D02*
G37*
G36*
X2537968Y616471D02*
X2536505Y616180D01*
X2535264Y615352D01*
X2534436Y614111D01*
X2534145Y612648D01*
X2534436Y611185D01*
X2535264Y609944D01*
X2536505Y609116D01*
X2537968Y608825D01*
X2539431Y609116D01*
X2540672Y609944D01*
X2541500Y611185D01*
X2541791Y612648D01*
X2541500Y614111D01*
X2540672Y615352D01*
X2539431Y616180D01*
X2537968Y616471D01*
D02*
G37*
G36*
X2610612Y710197D02*
X2609149Y709906D01*
X2607908Y709078D01*
X2607079Y707837D01*
X2606789Y706374D01*
X2607079Y704911D01*
X2607908Y703670D01*
X2609149Y702842D01*
X2610612Y702551D01*
X2612075Y702842D01*
X2613316Y703670D01*
X2614144Y704911D01*
X2614435Y706374D01*
X2614144Y707837D01*
X2613316Y709078D01*
X2612075Y709906D01*
X2610612Y710197D01*
D02*
G37*
G36*
X2475001Y713824D02*
X2473538Y713533D01*
X2472298Y712704D01*
X2471469Y711464D01*
X2471178Y710000D01*
X2471469Y708537D01*
X2472298Y707297D01*
X2473538Y706468D01*
X2475001Y706177D01*
X2476465Y706468D01*
X2477705Y707297D01*
X2478534Y708537D01*
X2478825Y710000D01*
X2478534Y711464D01*
X2477705Y712704D01*
X2476465Y713533D01*
X2475001Y713824D01*
D02*
G37*
G36*
X2520001Y703824D02*
X2518538Y703533D01*
X2517298Y702704D01*
X2516469Y701463D01*
X2516178Y700000D01*
X2516469Y698537D01*
X2517298Y697297D01*
X2518538Y696468D01*
X2520001Y696177D01*
X2521465Y696468D01*
X2522705Y697297D01*
X2523534Y698537D01*
X2523825Y700000D01*
X2523534Y701463D01*
X2522705Y702704D01*
X2521465Y703533D01*
X2520001Y703824D01*
D02*
G37*
G36*
X2480001D02*
X2478538Y703533D01*
X2477298Y702704D01*
X2476469Y701463D01*
X2476178Y700000D01*
X2476469Y698537D01*
X2477298Y697297D01*
X2478538Y696468D01*
X2480001Y696177D01*
X2481465Y696468D01*
X2482705Y697297D01*
X2483534Y698537D01*
X2483825Y700000D01*
X2483534Y701463D01*
X2482705Y702704D01*
X2481465Y703533D01*
X2480001Y703824D01*
D02*
G37*
G36*
X2510001D02*
X2508538Y703533D01*
X2507298Y702704D01*
X2506469Y701463D01*
X2506178Y700000D01*
X2506469Y698537D01*
X2507298Y697297D01*
X2508538Y696468D01*
X2510001Y696177D01*
X2511465Y696468D01*
X2512705Y697297D01*
X2513534Y698537D01*
X2513825Y700000D01*
X2513534Y701463D01*
X2512705Y702704D01*
X2511465Y703533D01*
X2510001Y703824D01*
D02*
G37*
G36*
X2485001Y713824D02*
X2483538Y713533D01*
X2482298Y712704D01*
X2481469Y711464D01*
X2481178Y710000D01*
X2481469Y708537D01*
X2482298Y707297D01*
X2483538Y706468D01*
X2485001Y706177D01*
X2486465Y706468D01*
X2487705Y707297D01*
X2488534Y708537D01*
X2488825Y710000D01*
X2488534Y711464D01*
X2487705Y712704D01*
X2486465Y713533D01*
X2485001Y713824D01*
D02*
G37*
G36*
X2715002D02*
X2713538Y713533D01*
X2712298Y712704D01*
X2711469Y711464D01*
X2711178Y710000D01*
X2711469Y708537D01*
X2712298Y707297D01*
X2713538Y706468D01*
X2715002Y706177D01*
X2716465Y706468D01*
X2717705Y707297D01*
X2718534Y708537D01*
X2718825Y710000D01*
X2718534Y711464D01*
X2717705Y712704D01*
X2716465Y713533D01*
X2715002Y713824D01*
D02*
G37*
G36*
X2557780Y711467D02*
X2556317Y711176D01*
X2555076Y710348D01*
X2554901Y710085D01*
X2553631D01*
X2553626Y710094D01*
X2552385Y710922D01*
X2550922Y711213D01*
X2549459Y710922D01*
X2548218Y710094D01*
X2547390Y708853D01*
X2547099Y707390D01*
X2547390Y705927D01*
X2548218Y704686D01*
X2549459Y703858D01*
X2550922Y703567D01*
X2552385Y703858D01*
X2553626Y704686D01*
X2553801Y704949D01*
X2555071D01*
X2555076Y704940D01*
X2556317Y704112D01*
X2557780Y703821D01*
X2559243Y704112D01*
X2560484Y704940D01*
X2561312Y706181D01*
X2561603Y707644D01*
X2561312Y709107D01*
X2560484Y710348D01*
X2559243Y711176D01*
X2557780Y711467D01*
D02*
G37*
G36*
X2705002Y713824D02*
X2703538Y713533D01*
X2702298Y712704D01*
X2701469Y711464D01*
X2701178Y710000D01*
X2701469Y708537D01*
X2702298Y707297D01*
X2703538Y706468D01*
X2705002Y706177D01*
X2706465Y706468D01*
X2707705Y707297D01*
X2708534Y708537D01*
X2708825Y710000D01*
X2708534Y711464D01*
X2707705Y712704D01*
X2706465Y713533D01*
X2705002Y713824D01*
D02*
G37*
G36*
X2505001D02*
X2503538Y713533D01*
X2502298Y712704D01*
X2501469Y711464D01*
X2501178Y710000D01*
X2501469Y708537D01*
X2502298Y707297D01*
X2503538Y706468D01*
X2505001Y706177D01*
X2506465Y706468D01*
X2507705Y707297D01*
X2508534Y708537D01*
X2508825Y710000D01*
X2508534Y711464D01*
X2507705Y712704D01*
X2506465Y713533D01*
X2505001Y713824D01*
D02*
G37*
G36*
X2535001D02*
X2533538Y713533D01*
X2532298Y712704D01*
X2531469Y711464D01*
X2531178Y710000D01*
X2531469Y708537D01*
X2532298Y707297D01*
X2533538Y706468D01*
X2535001Y706177D01*
X2536465Y706468D01*
X2537705Y707297D01*
X2538534Y708537D01*
X2538825Y710000D01*
X2538534Y711464D01*
X2537705Y712704D01*
X2536465Y713533D01*
X2535001Y713824D01*
D02*
G37*
G36*
X2595002Y653824D02*
X2593538Y653533D01*
X2592298Y652704D01*
X2591469Y651463D01*
X2591178Y650000D01*
X2591469Y648537D01*
X2592298Y647297D01*
X2593538Y646468D01*
X2595002Y646177D01*
X2596465Y646468D01*
X2597705Y647297D01*
X2598534Y648537D01*
X2598825Y650000D01*
X2598534Y651463D01*
X2597705Y652704D01*
X2596465Y653533D01*
X2595002Y653824D01*
D02*
G37*
G36*
X2719578Y658889D02*
X2718115Y658598D01*
X2716874Y657770D01*
X2716046Y656529D01*
X2715755Y655066D01*
X2716046Y653603D01*
X2716874Y652362D01*
X2718115Y651534D01*
X2719578Y651243D01*
X2721041Y651534D01*
X2722281Y652362D01*
X2723110Y653603D01*
X2723401Y655066D01*
X2723110Y656529D01*
X2722281Y657770D01*
X2721041Y658598D01*
X2719578Y658889D01*
D02*
G37*
G36*
X2585002Y653824D02*
X2583538Y653533D01*
X2582298Y652704D01*
X2581469Y651463D01*
X2581178Y650000D01*
X2581469Y648537D01*
X2582298Y647297D01*
X2583538Y646468D01*
X2585002Y646177D01*
X2586465Y646468D01*
X2587705Y647297D01*
X2588534Y648537D01*
X2588825Y650000D01*
X2588534Y651463D01*
X2587705Y652704D01*
X2586465Y653533D01*
X2585002Y653824D01*
D02*
G37*
G36*
X2565002D02*
X2563538Y653533D01*
X2562298Y652704D01*
X2561469Y651463D01*
X2561178Y650000D01*
X2561469Y648537D01*
X2562298Y647297D01*
X2563538Y646468D01*
X2565002Y646177D01*
X2566465Y646468D01*
X2567705Y647297D01*
X2568534Y648537D01*
X2568825Y650000D01*
X2568534Y651463D01*
X2567705Y652704D01*
X2566465Y653533D01*
X2565002Y653824D01*
D02*
G37*
G36*
X2575002D02*
X2573538Y653533D01*
X2572298Y652704D01*
X2571469Y651463D01*
X2571178Y650000D01*
X2571469Y648537D01*
X2572298Y647297D01*
X2573538Y646468D01*
X2575002Y646177D01*
X2576465Y646468D01*
X2577705Y647297D01*
X2578534Y648537D01*
X2578825Y650000D01*
X2578534Y651463D01*
X2577705Y652704D01*
X2576465Y653533D01*
X2575002Y653824D01*
D02*
G37*
G36*
X2636774Y682511D02*
X2635311Y682220D01*
X2634070Y681392D01*
X2633242Y680151D01*
X2632951Y678688D01*
X2633242Y677225D01*
X2634070Y675984D01*
X2635311Y675156D01*
X2636774Y674865D01*
X2638237Y675156D01*
X2639478Y675984D01*
X2640306Y677225D01*
X2640598Y678688D01*
X2640306Y680151D01*
X2639478Y681392D01*
X2638237Y682220D01*
X2636774Y682511D01*
D02*
G37*
G36*
X2669898Y693791D02*
X2668435Y693500D01*
X2667195Y692672D01*
X2666366Y691431D01*
X2666075Y689968D01*
X2666366Y688505D01*
X2667195Y687264D01*
X2668435Y686436D01*
X2669898Y686145D01*
X2671361Y686436D01*
X2672602Y687264D01*
X2673430Y688505D01*
X2673721Y689968D01*
X2673430Y691431D01*
X2672602Y692672D01*
X2671361Y693500D01*
X2669898Y693791D01*
D02*
G37*
G36*
X2705002Y693824D02*
X2703538Y693533D01*
X2702298Y692704D01*
X2701469Y691463D01*
X2701178Y690000D01*
X2701469Y688537D01*
X2702298Y687297D01*
X2703538Y686468D01*
X2705002Y686177D01*
X2706465Y686468D01*
X2707705Y687297D01*
X2708534Y688537D01*
X2708825Y690000D01*
X2708534Y691463D01*
X2707705Y692704D01*
X2706465Y693533D01*
X2705002Y693824D01*
D02*
G37*
G36*
X2710002Y683824D02*
X2708538Y683533D01*
X2707298Y682704D01*
X2706469Y681463D01*
X2706178Y680000D01*
X2706469Y678537D01*
X2707298Y677297D01*
X2708538Y676468D01*
X2710002Y676177D01*
X2711465Y676468D01*
X2712705Y677297D01*
X2713534Y678537D01*
X2713825Y680000D01*
X2713534Y681463D01*
X2712705Y682704D01*
X2711465Y683533D01*
X2710002Y683824D01*
D02*
G37*
G36*
X2470001D02*
X2468538Y683533D01*
X2467298Y682704D01*
X2466469Y681463D01*
X2466178Y680000D01*
X2466469Y678537D01*
X2467298Y677297D01*
X2468538Y676468D01*
X2470001Y676177D01*
X2471465Y676468D01*
X2472705Y677297D01*
X2473534Y678537D01*
X2473825Y680000D01*
X2473534Y681463D01*
X2472705Y682704D01*
X2471465Y683533D01*
X2470001Y683824D01*
D02*
G37*
G36*
X2700002D02*
X2698538Y683533D01*
X2697298Y682704D01*
X2696469Y681463D01*
X2696178Y680000D01*
X2696469Y678537D01*
X2697298Y677297D01*
X2698538Y676468D01*
X2700002Y676177D01*
X2701465Y676468D01*
X2702705Y677297D01*
X2703534Y678537D01*
X2703825Y680000D01*
X2703534Y681463D01*
X2702705Y682704D01*
X2701465Y683533D01*
X2700002Y683824D01*
D02*
G37*
G36*
X2500001Y483824D02*
X2498538Y483533D01*
X2497298Y482704D01*
X2496469Y481463D01*
X2496178Y480000D01*
X2496469Y478537D01*
X2497298Y477297D01*
X2498538Y476468D01*
X2500001Y476177D01*
X2501465Y476468D01*
X2502705Y477297D01*
X2503534Y478537D01*
X2503825Y480000D01*
X2503534Y481463D01*
X2502705Y482704D01*
X2501465Y483533D01*
X2500001Y483824D01*
D02*
G37*
G36*
X2570734Y486931D02*
X2569271Y486640D01*
X2568030Y485812D01*
X2567202Y484571D01*
X2567089Y484003D01*
X2566858Y483837D01*
X2565698Y483521D01*
X2564831Y484100D01*
X2563368Y484391D01*
X2561905Y484100D01*
X2560664Y483272D01*
X2559836Y482031D01*
X2559545Y480568D01*
X2559836Y479105D01*
X2560664Y477864D01*
X2561905Y477036D01*
X2563368Y476745D01*
X2564831Y477036D01*
X2566071Y477864D01*
X2566900Y479105D01*
X2567014Y479673D01*
X2567245Y479839D01*
X2568404Y480155D01*
X2569271Y479576D01*
X2570734Y479285D01*
X2572197Y479576D01*
X2573438Y480404D01*
X2574266Y481645D01*
X2574557Y483108D01*
X2574266Y484571D01*
X2573438Y485812D01*
X2572197Y486640D01*
X2570734Y486931D01*
D02*
G37*
G36*
X2490001Y483824D02*
X2488538Y483533D01*
X2487298Y482704D01*
X2486469Y481463D01*
X2486178Y480000D01*
X2486469Y478537D01*
X2487298Y477297D01*
X2488538Y476468D01*
X2490001Y476177D01*
X2491465Y476468D01*
X2492705Y477297D01*
X2493534Y478537D01*
X2493825Y480000D01*
X2493534Y481463D01*
X2492705Y482704D01*
X2491465Y483533D01*
X2490001Y483824D01*
D02*
G37*
G36*
X2530001Y443824D02*
X2528538Y443533D01*
X2527298Y442704D01*
X2526469Y441463D01*
X2526178Y440000D01*
X2526469Y438537D01*
X2527298Y437297D01*
X2528538Y436468D01*
X2530001Y436177D01*
X2531465Y436468D01*
X2532705Y437297D01*
X2533534Y438537D01*
X2533825Y440000D01*
X2533534Y441463D01*
X2532705Y442704D01*
X2531465Y443533D01*
X2530001Y443824D01*
D02*
G37*
G36*
X2591308Y481621D02*
X2589845Y481330D01*
X2588604Y480502D01*
X2587776Y479261D01*
X2587485Y477798D01*
X2587776Y476335D01*
X2588604Y475094D01*
X2589845Y474266D01*
X2591308Y473975D01*
X2592771Y474266D01*
X2594012Y475094D01*
X2594840Y476335D01*
X2595132Y477798D01*
X2594840Y479261D01*
X2594012Y480502D01*
X2592771Y481330D01*
X2591308Y481621D01*
D02*
G37*
G36*
X2672334Y494297D02*
X2670871Y494006D01*
X2669630Y493178D01*
X2668802Y491937D01*
X2668511Y490474D01*
X2668802Y489011D01*
X2669630Y487770D01*
X2670871Y486942D01*
X2672334Y486651D01*
X2673797Y486942D01*
X2675038Y487770D01*
X2675866Y489011D01*
X2676158Y490474D01*
X2675866Y491937D01*
X2675038Y493178D01*
X2673797Y494006D01*
X2672334Y494297D01*
D02*
G37*
G36*
X2569464Y518999D02*
X2566349Y518589D01*
X2563447Y517387D01*
X2560955Y515475D01*
X2559043Y512982D01*
X2557841Y510080D01*
X2557431Y506966D01*
X2557841Y503852D01*
X2559043Y500950D01*
X2560955Y498457D01*
X2563447Y496545D01*
X2566349Y495343D01*
X2569464Y494933D01*
X2572578Y495343D01*
X2575480Y496545D01*
X2577972Y498457D01*
X2579885Y500950D01*
X2581087Y503852D01*
X2581497Y506966D01*
X2581087Y510080D01*
X2579885Y512982D01*
X2577972Y515475D01*
X2575480Y517387D01*
X2572578Y518589D01*
X2569464Y518999D01*
D02*
G37*
G36*
X2715002Y493824D02*
X2713538Y493533D01*
X2712298Y492704D01*
X2711469Y491463D01*
X2711178Y490000D01*
X2711469Y488537D01*
X2712298Y487297D01*
X2713538Y486468D01*
X2715002Y486177D01*
X2716465Y486468D01*
X2717705Y487297D01*
X2718534Y488537D01*
X2718825Y490000D01*
X2718534Y491463D01*
X2717705Y492704D01*
X2716465Y493533D01*
X2715002Y493824D01*
D02*
G37*
G36*
X2505001D02*
X2503538Y493533D01*
X2502298Y492704D01*
X2501469Y491463D01*
X2501178Y490000D01*
X2501469Y488537D01*
X2502298Y487297D01*
X2503538Y486468D01*
X2505001Y486177D01*
X2506465Y486468D01*
X2507705Y487297D01*
X2508534Y488537D01*
X2508825Y490000D01*
X2508534Y491463D01*
X2507705Y492704D01*
X2506465Y493533D01*
X2505001Y493824D01*
D02*
G37*
G36*
X2705002D02*
X2703538Y493533D01*
X2702298Y492704D01*
X2701469Y491463D01*
X2701178Y490000D01*
X2701469Y488537D01*
X2702298Y487297D01*
X2703538Y486468D01*
X2705002Y486177D01*
X2706465Y486468D01*
X2707705Y487297D01*
X2708534Y488537D01*
X2708825Y490000D01*
X2708534Y491463D01*
X2707705Y492704D01*
X2706465Y493533D01*
X2705002Y493824D01*
D02*
G37*
G36*
X2520001Y443824D02*
X2518538Y443533D01*
X2517298Y442704D01*
X2516469Y441463D01*
X2516178Y440000D01*
X2516469Y438537D01*
X2517298Y437297D01*
X2518538Y436468D01*
X2520001Y436177D01*
X2521465Y436468D01*
X2522705Y437297D01*
X2523534Y438537D01*
X2523825Y440000D01*
X2523534Y441463D01*
X2522705Y442704D01*
X2521465Y443533D01*
X2520001Y443824D01*
D02*
G37*
G36*
X2530001Y423824D02*
X2528538Y423533D01*
X2527298Y422704D01*
X2526469Y421463D01*
X2526178Y420000D01*
X2526469Y418537D01*
X2527298Y417297D01*
X2528538Y416468D01*
X2530001Y416177D01*
X2531465Y416468D01*
X2532705Y417297D01*
X2533534Y418537D01*
X2533825Y420000D01*
X2533534Y421463D01*
X2532705Y422704D01*
X2531465Y423533D01*
X2530001Y423824D01*
D02*
G37*
G36*
X2540001D02*
X2538538Y423533D01*
X2537298Y422704D01*
X2536469Y421463D01*
X2536178Y420000D01*
X2536469Y418537D01*
X2537298Y417297D01*
X2538538Y416468D01*
X2540001Y416177D01*
X2541465Y416468D01*
X2542705Y417297D01*
X2543534Y418537D01*
X2543825Y420000D01*
X2543534Y421463D01*
X2542705Y422704D01*
X2541465Y423533D01*
X2540001Y423824D01*
D02*
G37*
G36*
X2545001Y413824D02*
X2543538Y413533D01*
X2542298Y412704D01*
X2541469Y411463D01*
X2541178Y410000D01*
X2541469Y408537D01*
X2542298Y407297D01*
X2543538Y406468D01*
X2545001Y406177D01*
X2546465Y406468D01*
X2547705Y407297D01*
X2548534Y408537D01*
X2548825Y410000D01*
X2548534Y411463D01*
X2547705Y412704D01*
X2546465Y413533D01*
X2545001Y413824D01*
D02*
G37*
G36*
X2605002Y373824D02*
X2603538Y373533D01*
X2602298Y372704D01*
X2601469Y371463D01*
X2601178Y370000D01*
X2601469Y368537D01*
X2602298Y367297D01*
X2603538Y366468D01*
X2605002Y366177D01*
X2606465Y366468D01*
X2607705Y367297D01*
X2608534Y368537D01*
X2608825Y370000D01*
X2608534Y371463D01*
X2607705Y372704D01*
X2606465Y373533D01*
X2605002Y373824D01*
D02*
G37*
G36*
X2535001Y413824D02*
X2533538Y413533D01*
X2532298Y412704D01*
X2531469Y411463D01*
X2531178Y410000D01*
X2531469Y408537D01*
X2532298Y407297D01*
X2533538Y406468D01*
X2535001Y406177D01*
X2536465Y406468D01*
X2537705Y407297D01*
X2538534Y408537D01*
X2538825Y410000D01*
X2538534Y411463D01*
X2537705Y412704D01*
X2536465Y413533D01*
X2535001Y413824D01*
D02*
G37*
G36*
X2515870Y429527D02*
X2514407Y429236D01*
X2513166Y428408D01*
X2512338Y427167D01*
X2512047Y425704D01*
X2512338Y424241D01*
X2513166Y423000D01*
X2514407Y422172D01*
X2515870Y421881D01*
X2517333Y422172D01*
X2518574Y423000D01*
X2519402Y424241D01*
X2519693Y425704D01*
X2519402Y427167D01*
X2518574Y428408D01*
X2517333Y429236D01*
X2515870Y429527D01*
D02*
G37*
G36*
X2510001Y443824D02*
X2508538Y443533D01*
X2507298Y442704D01*
X2506469Y441463D01*
X2506178Y440000D01*
X2506469Y438537D01*
X2507298Y437297D01*
X2508538Y436468D01*
X2510001Y436177D01*
X2511465Y436468D01*
X2512705Y437297D01*
X2513534Y438537D01*
X2513825Y440000D01*
X2513534Y441463D01*
X2512705Y442704D01*
X2511465Y443533D01*
X2510001Y443824D01*
D02*
G37*
G36*
X2563809Y424514D02*
X2562346Y424223D01*
X2561105Y423395D01*
X2560276Y422154D01*
X2559986Y420691D01*
X2560276Y419228D01*
X2561105Y417987D01*
X2562346Y417159D01*
X2563809Y416868D01*
X2565272Y417159D01*
X2566512Y417987D01*
X2567341Y419228D01*
X2567632Y420691D01*
X2567341Y422154D01*
X2566512Y423395D01*
X2565272Y424223D01*
X2563809Y424514D01*
D02*
G37*
G36*
X2590002Y423824D02*
X2588538Y423533D01*
X2587298Y422704D01*
X2586469Y421463D01*
X2586178Y420000D01*
X2586469Y418537D01*
X2587298Y417297D01*
X2588538Y416468D01*
X2590002Y416177D01*
X2591465Y416468D01*
X2592705Y417297D01*
X2593534Y418537D01*
X2593825Y420000D01*
X2593534Y421463D01*
X2592705Y422704D01*
X2591465Y423533D01*
X2590002Y423824D01*
D02*
G37*
G36*
X2600002D02*
X2598538Y423533D01*
X2597298Y422704D01*
X2596469Y421463D01*
X2596178Y420000D01*
X2596469Y418537D01*
X2597298Y417297D01*
X2598538Y416468D01*
X2600002Y416177D01*
X2601465Y416468D01*
X2602705Y417297D01*
X2603534Y418537D01*
X2603825Y420000D01*
X2603534Y421463D01*
X2602705Y422704D01*
X2601465Y423533D01*
X2600002Y423824D01*
D02*
G37*
G36*
X2500001Y503824D02*
X2498538Y503533D01*
X2497298Y502704D01*
X2496469Y501463D01*
X2496178Y500000D01*
X2496469Y498537D01*
X2497298Y497297D01*
X2498538Y496468D01*
X2500001Y496177D01*
X2501465Y496468D01*
X2502705Y497297D01*
X2503534Y498537D01*
X2503825Y500000D01*
X2503534Y501463D01*
X2502705Y502704D01*
X2501465Y503533D01*
X2500001Y503824D01*
D02*
G37*
G36*
X2640838Y584721D02*
X2639375Y584430D01*
X2638134Y583602D01*
X2637306Y582361D01*
X2637014Y580898D01*
X2637306Y579435D01*
X2638134Y578194D01*
X2639375Y577366D01*
X2640838Y577075D01*
X2642301Y577366D01*
X2643542Y578194D01*
X2644370Y579435D01*
X2644661Y580898D01*
X2644370Y582361D01*
X2643542Y583602D01*
X2642301Y584430D01*
X2640838Y584721D01*
D02*
G37*
G36*
X2475001Y593824D02*
X2473538Y593533D01*
X2472298Y592704D01*
X2471469Y591464D01*
X2471178Y590000D01*
X2471469Y588537D01*
X2472298Y587297D01*
X2473538Y586468D01*
X2475001Y586177D01*
X2476465Y586468D01*
X2477705Y587297D01*
X2478534Y588537D01*
X2478825Y590000D01*
X2478534Y591464D01*
X2477705Y592704D01*
X2476465Y593533D01*
X2475001Y593824D01*
D02*
G37*
G36*
X2580002Y583824D02*
X2578538Y583533D01*
X2577298Y582704D01*
X2576469Y581464D01*
X2576178Y580000D01*
X2576469Y578537D01*
X2577298Y577297D01*
X2578538Y576468D01*
X2580002Y576177D01*
X2581465Y576468D01*
X2582705Y577297D01*
X2583534Y578537D01*
X2583825Y580000D01*
X2583534Y581464D01*
X2582705Y582704D01*
X2581465Y583533D01*
X2580002Y583824D01*
D02*
G37*
G36*
X2560002D02*
X2558538Y583533D01*
X2557298Y582704D01*
X2556469Y581464D01*
X2556178Y580000D01*
X2556469Y578537D01*
X2557298Y577297D01*
X2558538Y576468D01*
X2560002Y576177D01*
X2561465Y576468D01*
X2562705Y577297D01*
X2563534Y578537D01*
X2563825Y580000D01*
X2563534Y581464D01*
X2562705Y582704D01*
X2561465Y583533D01*
X2560002Y583824D01*
D02*
G37*
G36*
X2570002D02*
X2568538Y583533D01*
X2567298Y582704D01*
X2566469Y581464D01*
X2566178Y580000D01*
X2566469Y578537D01*
X2567298Y577297D01*
X2568538Y576468D01*
X2570002Y576177D01*
X2571465Y576468D01*
X2572705Y577297D01*
X2573534Y578537D01*
X2573825Y580000D01*
X2573534Y581464D01*
X2572705Y582704D01*
X2571465Y583533D01*
X2570002Y583824D01*
D02*
G37*
G36*
X2585002Y593824D02*
X2583538Y593533D01*
X2582298Y592704D01*
X2581469Y591464D01*
X2581178Y590000D01*
X2581469Y588537D01*
X2582298Y587297D01*
X2583538Y586468D01*
X2585002Y586177D01*
X2586465Y586468D01*
X2587705Y587297D01*
X2588534Y588537D01*
X2588825Y590000D01*
X2588534Y591464D01*
X2587705Y592704D01*
X2586465Y593533D01*
X2585002Y593824D01*
D02*
G37*
G36*
X2705002D02*
X2703538Y593533D01*
X2702298Y592704D01*
X2701469Y591464D01*
X2701178Y590000D01*
X2701469Y588537D01*
X2702298Y587297D01*
X2703538Y586468D01*
X2705002Y586177D01*
X2706465Y586468D01*
X2707705Y587297D01*
X2708534Y588537D01*
X2708825Y590000D01*
X2708534Y591464D01*
X2707705Y592704D01*
X2706465Y593533D01*
X2705002Y593824D01*
D02*
G37*
G36*
X2575002D02*
X2573538Y593533D01*
X2572298Y592704D01*
X2571469Y591464D01*
X2571178Y590000D01*
X2571469Y588537D01*
X2572298Y587297D01*
X2573538Y586468D01*
X2575002Y586177D01*
X2576465Y586468D01*
X2577705Y587297D01*
X2578534Y588537D01*
X2578825Y590000D01*
X2578534Y591464D01*
X2577705Y592704D01*
X2576465Y593533D01*
X2575002Y593824D01*
D02*
G37*
G36*
X2555001D02*
X2553538Y593533D01*
X2552298Y592704D01*
X2551469Y591464D01*
X2551178Y590000D01*
X2551469Y588537D01*
X2552298Y587297D01*
X2553538Y586468D01*
X2555001Y586177D01*
X2556465Y586468D01*
X2557705Y587297D01*
X2558534Y588537D01*
X2558825Y590000D01*
X2558534Y591464D01*
X2557705Y592704D01*
X2556465Y593533D01*
X2555001Y593824D01*
D02*
G37*
G36*
X2565002D02*
X2563538Y593533D01*
X2562298Y592704D01*
X2561469Y591464D01*
X2561178Y590000D01*
X2561469Y588537D01*
X2562298Y587297D01*
X2563538Y586468D01*
X2565002Y586177D01*
X2566465Y586468D01*
X2567705Y587297D01*
X2568534Y588537D01*
X2568825Y590000D01*
X2568534Y591464D01*
X2567705Y592704D01*
X2566465Y593533D01*
X2565002Y593824D01*
D02*
G37*
G36*
X2475001Y573824D02*
X2473538Y573533D01*
X2472298Y572704D01*
X2471469Y571464D01*
X2471178Y570000D01*
X2471469Y568537D01*
X2472298Y567297D01*
X2473538Y566468D01*
X2475001Y566177D01*
X2476465Y566468D01*
X2477705Y567297D01*
X2478534Y568537D01*
X2478825Y570000D01*
X2478534Y571464D01*
X2477705Y572704D01*
X2476465Y573533D01*
X2475001Y573824D01*
D02*
G37*
G36*
X2645002Y513824D02*
X2643538Y513533D01*
X2642298Y512704D01*
X2641469Y511463D01*
X2641178Y510000D01*
X2641469Y508537D01*
X2642298Y507297D01*
X2643538Y506468D01*
X2645002Y506177D01*
X2646465Y506468D01*
X2647705Y507297D01*
X2648534Y508537D01*
X2648825Y510000D01*
X2648534Y511463D01*
X2647705Y512704D01*
X2646465Y513533D01*
X2645002Y513824D01*
D02*
G37*
G36*
X2705002D02*
X2703538Y513533D01*
X2702298Y512704D01*
X2701469Y511463D01*
X2701178Y510000D01*
X2701469Y508537D01*
X2702298Y507297D01*
X2703538Y506468D01*
X2705002Y506177D01*
X2706465Y506468D01*
X2707705Y507297D01*
X2708534Y508537D01*
X2708825Y510000D01*
X2708534Y511463D01*
X2707705Y512704D01*
X2706465Y513533D01*
X2705002Y513824D01*
D02*
G37*
G36*
X2635002D02*
X2633538Y513533D01*
X2632298Y512704D01*
X2631469Y511463D01*
X2631178Y510000D01*
X2631469Y508537D01*
X2632298Y507297D01*
X2633538Y506468D01*
X2635002Y506177D01*
X2636465Y506468D01*
X2637705Y507297D01*
X2638534Y508537D01*
X2638825Y510000D01*
X2638534Y511463D01*
X2637705Y512704D01*
X2636465Y513533D01*
X2635002Y513824D01*
D02*
G37*
G36*
X2676628Y510262D02*
X2669564D01*
Y503198D01*
X2676628D01*
Y510262D01*
D02*
G37*
G36*
X2505001Y513824D02*
X2503538Y513533D01*
X2502298Y512704D01*
X2501469Y511463D01*
X2501178Y510000D01*
X2501469Y508537D01*
X2502298Y507297D01*
X2503538Y506468D01*
X2505001Y506177D01*
X2506465Y506468D01*
X2507705Y507297D01*
X2508534Y508537D01*
X2508825Y510000D01*
X2508534Y511463D01*
X2507705Y512704D01*
X2506465Y513533D01*
X2505001Y513824D01*
D02*
G37*
G36*
X2700002Y523824D02*
X2698538Y523533D01*
X2697298Y522704D01*
X2696469Y521463D01*
X2696178Y520000D01*
X2696469Y518537D01*
X2697298Y517297D01*
X2698538Y516468D01*
X2700002Y516177D01*
X2701465Y516468D01*
X2702705Y517297D01*
X2703534Y518537D01*
X2703825Y520000D01*
X2703534Y521463D01*
X2702705Y522704D01*
X2701465Y523533D01*
X2700002Y523824D01*
D02*
G37*
G36*
X2710002D02*
X2708538Y523533D01*
X2707298Y522704D01*
X2706469Y521463D01*
X2706178Y520000D01*
X2706469Y518537D01*
X2707298Y517297D01*
X2708538Y516468D01*
X2710002Y516177D01*
X2711465Y516468D01*
X2712705Y517297D01*
X2713534Y518537D01*
X2713825Y520000D01*
X2713534Y521463D01*
X2712705Y522704D01*
X2711465Y523533D01*
X2710002Y523824D01*
D02*
G37*
G36*
X2630002D02*
X2628538Y523533D01*
X2627298Y522704D01*
X2626469Y521463D01*
X2626178Y520000D01*
X2626469Y518537D01*
X2627298Y517297D01*
X2628538Y516468D01*
X2630002Y516177D01*
X2631465Y516468D01*
X2632705Y517297D01*
X2633534Y518537D01*
X2633825Y520000D01*
X2633534Y521463D01*
X2632705Y522704D01*
X2631465Y523533D01*
X2630002Y523824D01*
D02*
G37*
G36*
X2715002Y513824D02*
X2713538Y513533D01*
X2712298Y512704D01*
X2711469Y511463D01*
X2711178Y510000D01*
X2711469Y508537D01*
X2712298Y507297D01*
X2713538Y506468D01*
X2715002Y506177D01*
X2716465Y506468D01*
X2717705Y507297D01*
X2718534Y508537D01*
X2718825Y510000D01*
X2718534Y511463D01*
X2717705Y512704D01*
X2716465Y513533D01*
X2715002Y513824D01*
D02*
G37*
G36*
X2550922Y519443D02*
X2549459Y519152D01*
X2548218Y518324D01*
X2547390Y517083D01*
X2547099Y515620D01*
X2547390Y514157D01*
X2548218Y512916D01*
X2549459Y512088D01*
X2550922Y511797D01*
X2552385Y512088D01*
X2553626Y512916D01*
X2554454Y514157D01*
X2554745Y515620D01*
X2554454Y517083D01*
X2553626Y518324D01*
X2552385Y519152D01*
X2550922Y519443D01*
D02*
G37*
G36*
X2520001Y823824D02*
X2518538Y823533D01*
X2517298Y822704D01*
X2516469Y821464D01*
X2516178Y820000D01*
X2516469Y818537D01*
X2517298Y817297D01*
X2518538Y816468D01*
X2520001Y816177D01*
X2521465Y816468D01*
X2522705Y817297D01*
X2523534Y818537D01*
X2523825Y820000D01*
X2523534Y821464D01*
X2522705Y822704D01*
X2521465Y823533D01*
X2520001Y823824D01*
D02*
G37*
G36*
X2530001D02*
X2528538Y823533D01*
X2527298Y822704D01*
X2526469Y821464D01*
X2526178Y820000D01*
X2526469Y818537D01*
X2527298Y817297D01*
X2528538Y816468D01*
X2530001Y816177D01*
X2531465Y816468D01*
X2532705Y817297D01*
X2533534Y818537D01*
X2533825Y820000D01*
X2533534Y821464D01*
X2532705Y822704D01*
X2531465Y823533D01*
X2530001Y823824D01*
D02*
G37*
G36*
X2510001D02*
X2508538Y823533D01*
X2507298Y822704D01*
X2506469Y821464D01*
X2506178Y820000D01*
X2506469Y818537D01*
X2507298Y817297D01*
X2508538Y816468D01*
X2510001Y816177D01*
X2511465Y816468D01*
X2512705Y817297D01*
X2513534Y818537D01*
X2513825Y820000D01*
X2513534Y821464D01*
X2512705Y822704D01*
X2511465Y823533D01*
X2510001Y823824D01*
D02*
G37*
G36*
X2646680Y831132D02*
X2644631Y830862D01*
X2642721Y830071D01*
X2641081Y828813D01*
X2639823Y827173D01*
X2639032Y825263D01*
X2638762Y823214D01*
X2639032Y821165D01*
X2639823Y819255D01*
X2641081Y817615D01*
X2642721Y816357D01*
X2644631Y815566D01*
X2646680Y815296D01*
X2648729Y815566D01*
X2650639Y816357D01*
X2652279Y817615D01*
X2653537Y819255D01*
X2654328Y821165D01*
X2654598Y823214D01*
X2654328Y825263D01*
X2653537Y827173D01*
X2652279Y828813D01*
X2650639Y830071D01*
X2648729Y830862D01*
X2646680Y831132D01*
D02*
G37*
G36*
X2500001Y823824D02*
X2498538Y823533D01*
X2497298Y822704D01*
X2496469Y821464D01*
X2496178Y820000D01*
X2496469Y818537D01*
X2497298Y817297D01*
X2498538Y816468D01*
X2500001Y816177D01*
X2501465Y816468D01*
X2502705Y817297D01*
X2503534Y818537D01*
X2503825Y820000D01*
X2503534Y821464D01*
X2502705Y822704D01*
X2501465Y823533D01*
X2500001Y823824D01*
D02*
G37*
G36*
X2680002D02*
X2678538Y823533D01*
X2677298Y822704D01*
X2676469Y821464D01*
X2676178Y820000D01*
X2676469Y818537D01*
X2677298Y817297D01*
X2678538Y816468D01*
X2680002Y816177D01*
X2681465Y816468D01*
X2682705Y817297D01*
X2683534Y818537D01*
X2683825Y820000D01*
X2683534Y821464D01*
X2682705Y822704D01*
X2681465Y823533D01*
X2680002Y823824D01*
D02*
G37*
G36*
X2700002D02*
X2698538Y823533D01*
X2697298Y822704D01*
X2696469Y821464D01*
X2696178Y820000D01*
X2696469Y818537D01*
X2697298Y817297D01*
X2698538Y816468D01*
X2700002Y816177D01*
X2701465Y816468D01*
X2702705Y817297D01*
X2703534Y818537D01*
X2703825Y820000D01*
X2703534Y821464D01*
X2702705Y822704D01*
X2701465Y823533D01*
X2700002Y823824D01*
D02*
G37*
G36*
X2560002D02*
X2558538Y823533D01*
X2557298Y822704D01*
X2556469Y821464D01*
X2556178Y820000D01*
X2556469Y818537D01*
X2557298Y817297D01*
X2558538Y816468D01*
X2560002Y816177D01*
X2561465Y816468D01*
X2562705Y817297D01*
X2563534Y818537D01*
X2563825Y820000D01*
X2563534Y821464D01*
X2562705Y822704D01*
X2561465Y823533D01*
X2560002Y823824D01*
D02*
G37*
G36*
X2540001D02*
X2538538Y823533D01*
X2537298Y822704D01*
X2536469Y821464D01*
X2536178Y820000D01*
X2536469Y818537D01*
X2537298Y817297D01*
X2538538Y816468D01*
X2540001Y816177D01*
X2541465Y816468D01*
X2542705Y817297D01*
X2543534Y818537D01*
X2543825Y820000D01*
X2543534Y821464D01*
X2542705Y822704D01*
X2541465Y823533D01*
X2540001Y823824D01*
D02*
G37*
G36*
X2550001D02*
X2548538Y823533D01*
X2547298Y822704D01*
X2546469Y821464D01*
X2546178Y820000D01*
X2546469Y818537D01*
X2547298Y817297D01*
X2548538Y816468D01*
X2550001Y816177D01*
X2551465Y816468D01*
X2552705Y817297D01*
X2553534Y818537D01*
X2553825Y820000D01*
X2553534Y821464D01*
X2552705Y822704D01*
X2551465Y823533D01*
X2550001Y823824D01*
D02*
G37*
G36*
X2645002Y813824D02*
X2643538Y813533D01*
X2642298Y812704D01*
X2641469Y811464D01*
X2641178Y810000D01*
X2641469Y808537D01*
X2642298Y807297D01*
X2643538Y806468D01*
X2645002Y806177D01*
X2646465Y806468D01*
X2647705Y807297D01*
X2648534Y808537D01*
X2648825Y810000D01*
X2648534Y811464D01*
X2647705Y812704D01*
X2646465Y813533D01*
X2645002Y813824D01*
D02*
G37*
G36*
X2532888Y801383D02*
X2531425Y801092D01*
X2530184Y800264D01*
X2529356Y799023D01*
X2529065Y797560D01*
X2529356Y796097D01*
X2530184Y794856D01*
X2531425Y794028D01*
X2532888Y793737D01*
X2534351Y794028D01*
X2535592Y794856D01*
X2536420Y796097D01*
X2536711Y797560D01*
X2536420Y799023D01*
X2535592Y800264D01*
X2534351Y801092D01*
X2532888Y801383D01*
D02*
G37*
G36*
X2500001Y803824D02*
X2498538Y803533D01*
X2497298Y802704D01*
X2496469Y801464D01*
X2496178Y800000D01*
X2496469Y798537D01*
X2497298Y797297D01*
X2498538Y796468D01*
X2500001Y796177D01*
X2501465Y796468D01*
X2502705Y797297D01*
X2503534Y798537D01*
X2503825Y800000D01*
X2503534Y801464D01*
X2502705Y802704D01*
X2501465Y803533D01*
X2500001Y803824D01*
D02*
G37*
G36*
X2552544Y801481D02*
X2551081Y801190D01*
X2549840Y800362D01*
X2549012Y799121D01*
X2548721Y797658D01*
X2549012Y796195D01*
X2549840Y794954D01*
X2551081Y794126D01*
X2551897Y793963D01*
X2552141Y793195D01*
X2552230Y792602D01*
X2551469Y791464D01*
X2551178Y790000D01*
X2551469Y788537D01*
X2552298Y787297D01*
X2553538Y786468D01*
X2555001Y786177D01*
X2556465Y786468D01*
X2557705Y787297D01*
X2558534Y788537D01*
X2558825Y790000D01*
X2558534Y791464D01*
X2557705Y792704D01*
X2556465Y793533D01*
X2555649Y793695D01*
X2555404Y794463D01*
X2555316Y795056D01*
X2556076Y796195D01*
X2556367Y797658D01*
X2556076Y799121D01*
X2555248Y800362D01*
X2554007Y801190D01*
X2552544Y801481D01*
D02*
G37*
G36*
X2580002Y783824D02*
X2578538Y783533D01*
X2577298Y782704D01*
X2576469Y781464D01*
X2576178Y780000D01*
X2576469Y778537D01*
X2577298Y777297D01*
X2578538Y776468D01*
X2580002Y776177D01*
X2581465Y776468D01*
X2582705Y777297D01*
X2583534Y778537D01*
X2583825Y780000D01*
X2583534Y781464D01*
X2582705Y782704D01*
X2581465Y783533D01*
X2580002Y783824D01*
D02*
G37*
G36*
X2590002D02*
X2588538Y783533D01*
X2587298Y782704D01*
X2586469Y781464D01*
X2586178Y780000D01*
X2586469Y778537D01*
X2587298Y777297D01*
X2588538Y776468D01*
X2590002Y776177D01*
X2591465Y776468D01*
X2592705Y777297D01*
X2593534Y778537D01*
X2593825Y780000D01*
X2593534Y781464D01*
X2592705Y782704D01*
X2591465Y783533D01*
X2590002Y783824D01*
D02*
G37*
G36*
X2515001Y813824D02*
X2513538Y813533D01*
X2512298Y812704D01*
X2511469Y811464D01*
X2511178Y810000D01*
X2511469Y808537D01*
X2512298Y807297D01*
X2513538Y806468D01*
X2515001Y806177D01*
X2516465Y806468D01*
X2517705Y807297D01*
X2518534Y808537D01*
X2518825Y810000D01*
X2518534Y811464D01*
X2517705Y812704D01*
X2516465Y813533D01*
X2515001Y813824D01*
D02*
G37*
G36*
X2525001D02*
X2523538Y813533D01*
X2522298Y812704D01*
X2521469Y811464D01*
X2521178Y810000D01*
X2521469Y808537D01*
X2522298Y807297D01*
X2523538Y806468D01*
X2525001Y806177D01*
X2526465Y806468D01*
X2527705Y807297D01*
X2528534Y808537D01*
X2528825Y810000D01*
X2528534Y811464D01*
X2527705Y812704D01*
X2526465Y813533D01*
X2525001Y813824D01*
D02*
G37*
G36*
X2505001D02*
X2503538Y813533D01*
X2502298Y812704D01*
X2501469Y811464D01*
X2501178Y810000D01*
X2501469Y808537D01*
X2502298Y807297D01*
X2503538Y806468D01*
X2505001Y806177D01*
X2506465Y806468D01*
X2507705Y807297D01*
X2508534Y808537D01*
X2508825Y810000D01*
X2508534Y811464D01*
X2507705Y812704D01*
X2506465Y813533D01*
X2505001Y813824D01*
D02*
G37*
G36*
X2510001Y803824D02*
X2508538Y803533D01*
X2507298Y802704D01*
X2506469Y801464D01*
X2506178Y800000D01*
X2506469Y798537D01*
X2507298Y797297D01*
X2508538Y796468D01*
X2510001Y796177D01*
X2511465Y796468D01*
X2512705Y797297D01*
X2513534Y798537D01*
X2513825Y800000D01*
X2513534Y801464D01*
X2512705Y802704D01*
X2511465Y803533D01*
X2510001Y803824D01*
D02*
G37*
G36*
X2520001D02*
X2518538Y803533D01*
X2517298Y802704D01*
X2516469Y801464D01*
X2516178Y800000D01*
X2516469Y798537D01*
X2517298Y797297D01*
X2518538Y796468D01*
X2520001Y796177D01*
X2521465Y796468D01*
X2522705Y797297D01*
X2523534Y798537D01*
X2523825Y800000D01*
X2523534Y801464D01*
X2522705Y802704D01*
X2521465Y803533D01*
X2520001Y803824D01*
D02*
G37*
G36*
X2493264Y841292D02*
X2491215Y841022D01*
X2489305Y840231D01*
X2487665Y838973D01*
X2486407Y837333D01*
X2485616Y835423D01*
X2485346Y833374D01*
X2485616Y831325D01*
X2486407Y829415D01*
X2487665Y827775D01*
X2489305Y826517D01*
X2491215Y825726D01*
X2493264Y825456D01*
X2495313Y825726D01*
X2497223Y826517D01*
X2498863Y827775D01*
X2499247Y828276D01*
X2562807D01*
X2562861Y828145D01*
X2564119Y826505D01*
X2565759Y825247D01*
X2567669Y824456D01*
X2569718Y824186D01*
X2571767Y824456D01*
X2573677Y825247D01*
X2575317Y826505D01*
X2576575Y828145D01*
X2577366Y830055D01*
X2577636Y832104D01*
X2577366Y834153D01*
X2576575Y836063D01*
X2575317Y837703D01*
X2573677Y838961D01*
X2571767Y839752D01*
X2569718Y840022D01*
X2567669Y839752D01*
X2565759Y838961D01*
X2565122Y838472D01*
X2499247D01*
X2498863Y838973D01*
X2497223Y840231D01*
X2495313Y841022D01*
X2493264Y841292D01*
D02*
G37*
G36*
X2560002Y863824D02*
X2558538Y863533D01*
X2557298Y862704D01*
X2556469Y861464D01*
X2556178Y860001D01*
X2556469Y858537D01*
X2557298Y857297D01*
X2558538Y856468D01*
X2560002Y856177D01*
X2561465Y856468D01*
X2562705Y857297D01*
X2563534Y858537D01*
X2563825Y860001D01*
X2563534Y861464D01*
X2562705Y862704D01*
X2561465Y863533D01*
X2560002Y863824D01*
D02*
G37*
G36*
X2570002D02*
X2568538Y863533D01*
X2567298Y862704D01*
X2566469Y861464D01*
X2566178Y860001D01*
X2566469Y858537D01*
X2567298Y857297D01*
X2568538Y856468D01*
X2570002Y856177D01*
X2571465Y856468D01*
X2572705Y857297D01*
X2573534Y858537D01*
X2573825Y860001D01*
X2573534Y861464D01*
X2572705Y862704D01*
X2571465Y863533D01*
X2570002Y863824D01*
D02*
G37*
G36*
X2530001D02*
X2528538Y863533D01*
X2527298Y862704D01*
X2526469Y861464D01*
X2526178Y860001D01*
X2526469Y858537D01*
X2527298Y857297D01*
X2528538Y856468D01*
X2530001Y856177D01*
X2531465Y856468D01*
X2532705Y857297D01*
X2533534Y858537D01*
X2533825Y860001D01*
X2533534Y861464D01*
X2532705Y862704D01*
X2531465Y863533D01*
X2530001Y863824D01*
D02*
G37*
G36*
X2510001D02*
X2508538Y863533D01*
X2507298Y862704D01*
X2506469Y861464D01*
X2506178Y860001D01*
X2506469Y858537D01*
X2507298Y857297D01*
X2508538Y856468D01*
X2510001Y856177D01*
X2511465Y856468D01*
X2512705Y857297D01*
X2513534Y858537D01*
X2513825Y860001D01*
X2513534Y861464D01*
X2512705Y862704D01*
X2511465Y863533D01*
X2510001Y863824D01*
D02*
G37*
G36*
X2520001D02*
X2518538Y863533D01*
X2517298Y862704D01*
X2516469Y861464D01*
X2516178Y860001D01*
X2516469Y858537D01*
X2517298Y857297D01*
X2518538Y856468D01*
X2520001Y856177D01*
X2521465Y856468D01*
X2522705Y857297D01*
X2523534Y858537D01*
X2523825Y860001D01*
X2523534Y861464D01*
X2522705Y862704D01*
X2521465Y863533D01*
X2520001Y863824D01*
D02*
G37*
G36*
X2595002Y873824D02*
X2593538Y873533D01*
X2592298Y872704D01*
X2591469Y871464D01*
X2591178Y870001D01*
X2591469Y868537D01*
X2592298Y867297D01*
X2593538Y866468D01*
X2595002Y866177D01*
X2596465Y866468D01*
X2597705Y867297D01*
X2598534Y868537D01*
X2598825Y870001D01*
X2598534Y871464D01*
X2597705Y872704D01*
X2596465Y873533D01*
X2595002Y873824D01*
D02*
G37*
G36*
X2605002D02*
X2603538Y873533D01*
X2602298Y872704D01*
X2601469Y871464D01*
X2601178Y870001D01*
X2601469Y868537D01*
X2602298Y867297D01*
X2603538Y866468D01*
X2605002Y866177D01*
X2606465Y866468D01*
X2607705Y867297D01*
X2608534Y868537D01*
X2608825Y870001D01*
X2608534Y871464D01*
X2607705Y872704D01*
X2606465Y873533D01*
X2605002Y873824D01*
D02*
G37*
G36*
X2630002Y863824D02*
X2628538Y863533D01*
X2627298Y862704D01*
X2626469Y861464D01*
X2626178Y860001D01*
X2626469Y858537D01*
X2627298Y857297D01*
X2628538Y856468D01*
X2630002Y856177D01*
X2631465Y856468D01*
X2632705Y857297D01*
X2633534Y858537D01*
X2633825Y860001D01*
X2633534Y861464D01*
X2632705Y862704D01*
X2631465Y863533D01*
X2630002Y863824D01*
D02*
G37*
G36*
X2600002D02*
X2598538Y863533D01*
X2597298Y862704D01*
X2596469Y861464D01*
X2596178Y860001D01*
X2596469Y858537D01*
X2597298Y857297D01*
X2598538Y856468D01*
X2600002Y856177D01*
X2601465Y856468D01*
X2602705Y857297D01*
X2603534Y858537D01*
X2603825Y860001D01*
X2603534Y861464D01*
X2602705Y862704D01*
X2601465Y863533D01*
X2600002Y863824D01*
D02*
G37*
G36*
X2610002D02*
X2608538Y863533D01*
X2607298Y862704D01*
X2606469Y861464D01*
X2606178Y860001D01*
X2606469Y858537D01*
X2607298Y857297D01*
X2608538Y856468D01*
X2610002Y856177D01*
X2611465Y856468D01*
X2612705Y857297D01*
X2613534Y858537D01*
X2613825Y860001D01*
X2613534Y861464D01*
X2612705Y862704D01*
X2611465Y863533D01*
X2610002Y863824D01*
D02*
G37*
G36*
X2500001D02*
X2498538Y863533D01*
X2497298Y862704D01*
X2496469Y861464D01*
X2496178Y860001D01*
X2496469Y858537D01*
X2497298Y857297D01*
X2498538Y856468D01*
X2500001Y856177D01*
X2501465Y856468D01*
X2502705Y857297D01*
X2503534Y858537D01*
X2503825Y860001D01*
X2503534Y861464D01*
X2502705Y862704D01*
X2501465Y863533D01*
X2500001Y863824D01*
D02*
G37*
G36*
X2505001Y853824D02*
X2503538Y853533D01*
X2502298Y852704D01*
X2501469Y851464D01*
X2501178Y850001D01*
X2501469Y848537D01*
X2502298Y847297D01*
X2503538Y846468D01*
X2505001Y846177D01*
X2506465Y846468D01*
X2507705Y847297D01*
X2508534Y848537D01*
X2508825Y850001D01*
X2508534Y851464D01*
X2507705Y852704D01*
X2506465Y853533D01*
X2505001Y853824D01*
D02*
G37*
G36*
X2515001D02*
X2513538Y853533D01*
X2512298Y852704D01*
X2511469Y851464D01*
X2511178Y850001D01*
X2511469Y848537D01*
X2512298Y847297D01*
X2513538Y846468D01*
X2515001Y846177D01*
X2516465Y846468D01*
X2517705Y847297D01*
X2518534Y848537D01*
X2518825Y850001D01*
X2518534Y851464D01*
X2517705Y852704D01*
X2516465Y853533D01*
X2515001Y853824D01*
D02*
G37*
G36*
X2495001D02*
X2493538Y853533D01*
X2492298Y852704D01*
X2491469Y851464D01*
X2491178Y850001D01*
X2491469Y848537D01*
X2492298Y847297D01*
X2493538Y846468D01*
X2495001Y846177D01*
X2496465Y846468D01*
X2497705Y847297D01*
X2498534Y848537D01*
X2498825Y850001D01*
X2498534Y851464D01*
X2497705Y852704D01*
X2496465Y853533D01*
X2495001Y853824D01*
D02*
G37*
G36*
X2680002Y843824D02*
X2678538Y843533D01*
X2677298Y842704D01*
X2676469Y841464D01*
X2676178Y840001D01*
X2676469Y838537D01*
X2677298Y837297D01*
X2678538Y836468D01*
X2680002Y836177D01*
X2681465Y836468D01*
X2682705Y837297D01*
X2683534Y838537D01*
X2683825Y840001D01*
X2683534Y841464D01*
X2682705Y842704D01*
X2681465Y843533D01*
X2680002Y843824D01*
D02*
G37*
G36*
X2620002Y863824D02*
X2618538Y863533D01*
X2617298Y862704D01*
X2616469Y861464D01*
X2616178Y860001D01*
X2616469Y858537D01*
X2617241Y857382D01*
X2617331Y857095D01*
X2617223Y856000D01*
X2616559Y855725D01*
X2614919Y854467D01*
X2613661Y852827D01*
X2612870Y850917D01*
X2612600Y848868D01*
X2612870Y846819D01*
X2613661Y844909D01*
X2614919Y843269D01*
X2616559Y842011D01*
X2618469Y841220D01*
X2620518Y840950D01*
X2622567Y841220D01*
X2624477Y842011D01*
X2626117Y843269D01*
X2627375Y844909D01*
X2628166Y846819D01*
X2628436Y848868D01*
X2628166Y850917D01*
X2627375Y852827D01*
X2626117Y854467D01*
X2624477Y855725D01*
X2623342Y856195D01*
X2623196Y856447D01*
X2622967Y857689D01*
X2623534Y858537D01*
X2623825Y860001D01*
X2623534Y861464D01*
X2622705Y862704D01*
X2621465Y863533D01*
X2620002Y863824D01*
D02*
G37*
G36*
X2593062Y854432D02*
X2585998D01*
Y847368D01*
X2593062D01*
Y854432D01*
D02*
G37*
G36*
X2490001Y863824D02*
X2488538Y863533D01*
X2487298Y862704D01*
X2486469Y861464D01*
X2486178Y860001D01*
X2486469Y858537D01*
X2487298Y857297D01*
X2488538Y856468D01*
X2490001Y856177D01*
X2491465Y856468D01*
X2492705Y857297D01*
X2493534Y858537D01*
X2493825Y860001D01*
X2493534Y861464D01*
X2492705Y862704D01*
X2491465Y863533D01*
X2490001Y863824D01*
D02*
G37*
G36*
X2605002Y853824D02*
X2603538Y853533D01*
X2602298Y852704D01*
X2601469Y851464D01*
X2601178Y850001D01*
X2601469Y848537D01*
X2602298Y847297D01*
X2603538Y846468D01*
X2605002Y846177D01*
X2606465Y846468D01*
X2607705Y847297D01*
X2608534Y848537D01*
X2608825Y850001D01*
X2608534Y851464D01*
X2607705Y852704D01*
X2606465Y853533D01*
X2605002Y853824D01*
D02*
G37*
G36*
X2525001D02*
X2523538Y853533D01*
X2522298Y852704D01*
X2521469Y851464D01*
X2521178Y850001D01*
X2521469Y848537D01*
X2522298Y847297D01*
X2523538Y846468D01*
X2525001Y846177D01*
X2526465Y846468D01*
X2527705Y847297D01*
X2528534Y848537D01*
X2528825Y850001D01*
X2528534Y851464D01*
X2527705Y852704D01*
X2526465Y853533D01*
X2525001Y853824D01*
D02*
G37*
G36*
X2555001D02*
X2553538Y853533D01*
X2552298Y852704D01*
X2551469Y851464D01*
X2551178Y850001D01*
X2551469Y848537D01*
X2552298Y847297D01*
X2553538Y846468D01*
X2555001Y846177D01*
X2556465Y846468D01*
X2557705Y847297D01*
X2558534Y848537D01*
X2558825Y850001D01*
X2558534Y851464D01*
X2557705Y852704D01*
X2556465Y853533D01*
X2555001Y853824D01*
D02*
G37*
G36*
X2700002Y743824D02*
X2698538Y743533D01*
X2697298Y742704D01*
X2696469Y741464D01*
X2696178Y740000D01*
X2696469Y738537D01*
X2697298Y737297D01*
X2698538Y736468D01*
X2700002Y736177D01*
X2701465Y736468D01*
X2702705Y737297D01*
X2703534Y738537D01*
X2703825Y740000D01*
X2703534Y741464D01*
X2702705Y742704D01*
X2701465Y743533D01*
X2700002Y743824D01*
D02*
G37*
G36*
X2710002D02*
X2708538Y743533D01*
X2707298Y742704D01*
X2706469Y741464D01*
X2706178Y740000D01*
X2706469Y738537D01*
X2707298Y737297D01*
X2708538Y736468D01*
X2710002Y736177D01*
X2711465Y736468D01*
X2712705Y737297D01*
X2713534Y738537D01*
X2713825Y740000D01*
X2713534Y741464D01*
X2712705Y742704D01*
X2711465Y743533D01*
X2710002Y743824D01*
D02*
G37*
G36*
X2540001D02*
X2538538Y743533D01*
X2537298Y742704D01*
X2536469Y741464D01*
X2536178Y740000D01*
X2536469Y738537D01*
X2537298Y737297D01*
X2538538Y736468D01*
X2540001Y736177D01*
X2541465Y736468D01*
X2542705Y737297D01*
X2543534Y738537D01*
X2543825Y740000D01*
X2543534Y741464D01*
X2542705Y742704D01*
X2541465Y743533D01*
X2540001Y743824D01*
D02*
G37*
G36*
X2520001D02*
X2518538Y743533D01*
X2517298Y742704D01*
X2516469Y741464D01*
X2516178Y740000D01*
X2516469Y738537D01*
X2517298Y737297D01*
X2518538Y736468D01*
X2520001Y736177D01*
X2521465Y736468D01*
X2522705Y737297D01*
X2523534Y738537D01*
X2523825Y740000D01*
X2523534Y741464D01*
X2522705Y742704D01*
X2521465Y743533D01*
X2520001Y743824D01*
D02*
G37*
G36*
X2530001D02*
X2528538Y743533D01*
X2527298Y742704D01*
X2526469Y741464D01*
X2526178Y740000D01*
X2526469Y738537D01*
X2527298Y737297D01*
X2528538Y736468D01*
X2530001Y736177D01*
X2531465Y736468D01*
X2532705Y737297D01*
X2533534Y738537D01*
X2533825Y740000D01*
X2533534Y741464D01*
X2532705Y742704D01*
X2531465Y743533D01*
X2530001Y743824D01*
D02*
G37*
G36*
X2695002Y753824D02*
X2693538Y753533D01*
X2692298Y752704D01*
X2691469Y751464D01*
X2691178Y750000D01*
X2691469Y748537D01*
X2692298Y747297D01*
X2693538Y746468D01*
X2695002Y746177D01*
X2696465Y746468D01*
X2697705Y747297D01*
X2698534Y748537D01*
X2698825Y750000D01*
X2698534Y751464D01*
X2697705Y752704D01*
X2696465Y753533D01*
X2695002Y753824D01*
D02*
G37*
G36*
X2705002D02*
X2703538Y753533D01*
X2702298Y752704D01*
X2701469Y751464D01*
X2701178Y750000D01*
X2701469Y748537D01*
X2702298Y747297D01*
X2703538Y746468D01*
X2705002Y746177D01*
X2706465Y746468D01*
X2707705Y747297D01*
X2708534Y748537D01*
X2708825Y750000D01*
X2708534Y751464D01*
X2707705Y752704D01*
X2706465Y753533D01*
X2705002Y753824D01*
D02*
G37*
G36*
X2675002D02*
X2673538Y753533D01*
X2672298Y752704D01*
X2671469Y751464D01*
X2671178Y750000D01*
X2671469Y748537D01*
X2672298Y747297D01*
X2673538Y746468D01*
X2675002Y746177D01*
X2676465Y746468D01*
X2677705Y747297D01*
X2678534Y748537D01*
X2678825Y750000D01*
X2678534Y751464D01*
X2677705Y752704D01*
X2676465Y753533D01*
X2675002Y753824D01*
D02*
G37*
G36*
X2475001D02*
X2473538Y753533D01*
X2472298Y752704D01*
X2471469Y751464D01*
X2471178Y750000D01*
X2471469Y748537D01*
X2472298Y747297D01*
X2473538Y746468D01*
X2475001Y746177D01*
X2476465Y746468D01*
X2477705Y747297D01*
X2478534Y748537D01*
X2478825Y750000D01*
X2478534Y751464D01*
X2477705Y752704D01*
X2476465Y753533D01*
X2475001Y753824D01*
D02*
G37*
G36*
X2625002D02*
X2623538Y753533D01*
X2622298Y752704D01*
X2621469Y751464D01*
X2621178Y750000D01*
X2621469Y748537D01*
X2622298Y747297D01*
X2623538Y746468D01*
X2625002Y746177D01*
X2626465Y746468D01*
X2627705Y747297D01*
X2628534Y748537D01*
X2628825Y750000D01*
X2628534Y751464D01*
X2627705Y752704D01*
X2626465Y753533D01*
X2625002Y753824D01*
D02*
G37*
G36*
X2480001Y743824D02*
X2478538Y743533D01*
X2477298Y742704D01*
X2476469Y741464D01*
X2476178Y740000D01*
X2476469Y738537D01*
X2477298Y737297D01*
X2478538Y736468D01*
X2480001Y736177D01*
X2481465Y736468D01*
X2482705Y737297D01*
X2483534Y738537D01*
X2483825Y740000D01*
X2483534Y741464D01*
X2482705Y742704D01*
X2481465Y743533D01*
X2480001Y743824D01*
D02*
G37*
G36*
X2680002Y723824D02*
X2678538Y723533D01*
X2677298Y722704D01*
X2676469Y721464D01*
X2676178Y720000D01*
X2676469Y718537D01*
X2677298Y717297D01*
X2678538Y716468D01*
X2680002Y716177D01*
X2681465Y716468D01*
X2682705Y717297D01*
X2683534Y718537D01*
X2683825Y720000D01*
X2683534Y721464D01*
X2682705Y722704D01*
X2681465Y723533D01*
X2680002Y723824D01*
D02*
G37*
G36*
X2475001Y733824D02*
X2473538Y733533D01*
X2472298Y732704D01*
X2471469Y731464D01*
X2471178Y730000D01*
X2471469Y728537D01*
X2472298Y727297D01*
X2473538Y726468D01*
X2475001Y726177D01*
X2476465Y726468D01*
X2477705Y727297D01*
X2478534Y728537D01*
X2478825Y730000D01*
X2478534Y731464D01*
X2477705Y732704D01*
X2476465Y733533D01*
X2475001Y733824D01*
D02*
G37*
G36*
X2670002Y723824D02*
X2668538Y723533D01*
X2667298Y722704D01*
X2666469Y721464D01*
X2666178Y720000D01*
X2666469Y718537D01*
X2667298Y717297D01*
X2668538Y716468D01*
X2670002Y716177D01*
X2671465Y716468D01*
X2672705Y717297D01*
X2673534Y718537D01*
X2673825Y720000D01*
X2673534Y721464D01*
X2672705Y722704D01*
X2671465Y723533D01*
X2670002Y723824D01*
D02*
G37*
G36*
X2480001D02*
X2478538Y723533D01*
X2477298Y722704D01*
X2476469Y721464D01*
X2476178Y720000D01*
X2476469Y718537D01*
X2477298Y717297D01*
X2478538Y716468D01*
X2480001Y716177D01*
X2481465Y716468D01*
X2482705Y717297D01*
X2483534Y718537D01*
X2483825Y720000D01*
X2483534Y721464D01*
X2482705Y722704D01*
X2481465Y723533D01*
X2480001Y723824D01*
D02*
G37*
G36*
X2540001D02*
X2538538Y723533D01*
X2537298Y722704D01*
X2536469Y721464D01*
X2536178Y720000D01*
X2536469Y718537D01*
X2537298Y717297D01*
X2538538Y716468D01*
X2540001Y716177D01*
X2541465Y716468D01*
X2542705Y717297D01*
X2543534Y718537D01*
X2543825Y720000D01*
X2543534Y721464D01*
X2542705Y722704D01*
X2541465Y723533D01*
X2540001Y723824D01*
D02*
G37*
G36*
X2645002Y733824D02*
X2643538Y733533D01*
X2642298Y732704D01*
X2641469Y731464D01*
X2641178Y730000D01*
X2641469Y728537D01*
X2642298Y727297D01*
X2643538Y726468D01*
X2645002Y726177D01*
X2646465Y726468D01*
X2647705Y727297D01*
X2648534Y728537D01*
X2648825Y730000D01*
X2648534Y731464D01*
X2647705Y732704D01*
X2646465Y733533D01*
X2645002Y733824D01*
D02*
G37*
G36*
X2705002D02*
X2703538Y733533D01*
X2702298Y732704D01*
X2701469Y731464D01*
X2701178Y730000D01*
X2701469Y728537D01*
X2702298Y727297D01*
X2703538Y726468D01*
X2705002Y726177D01*
X2706465Y726468D01*
X2707705Y727297D01*
X2708534Y728537D01*
X2708825Y730000D01*
X2708534Y731464D01*
X2707705Y732704D01*
X2706465Y733533D01*
X2705002Y733824D01*
D02*
G37*
G36*
X2535001D02*
X2533538Y733533D01*
X2532298Y732704D01*
X2531469Y731464D01*
X2531178Y730000D01*
X2531469Y728537D01*
X2532298Y727297D01*
X2533538Y726468D01*
X2535001Y726177D01*
X2536465Y726468D01*
X2537705Y727297D01*
X2538534Y728537D01*
X2538825Y730000D01*
X2538534Y731464D01*
X2537705Y732704D01*
X2536465Y733533D01*
X2535001Y733824D01*
D02*
G37*
G36*
X2485001D02*
X2483538Y733533D01*
X2482298Y732704D01*
X2481469Y731464D01*
X2481178Y730000D01*
X2481469Y728537D01*
X2482298Y727297D01*
X2483538Y726468D01*
X2485001Y726177D01*
X2486465Y726468D01*
X2487705Y727297D01*
X2488534Y728537D01*
X2488825Y730000D01*
X2488534Y731464D01*
X2487705Y732704D01*
X2486465Y733533D01*
X2485001Y733824D01*
D02*
G37*
G36*
X2525001D02*
X2523538Y733533D01*
X2522298Y732704D01*
X2521469Y731464D01*
X2521178Y730000D01*
X2521469Y728537D01*
X2522298Y727297D01*
X2523538Y726468D01*
X2525001Y726177D01*
X2526465Y726468D01*
X2527705Y727297D01*
X2528534Y728537D01*
X2528825Y730000D01*
X2528534Y731464D01*
X2527705Y732704D01*
X2526465Y733533D01*
X2525001Y733824D01*
D02*
G37*
G36*
X2590002Y763824D02*
X2588538Y763533D01*
X2587298Y762704D01*
X2586469Y761464D01*
X2586178Y760000D01*
X2586469Y758537D01*
X2587298Y757297D01*
X2588538Y756468D01*
X2590002Y756177D01*
X2591465Y756468D01*
X2592705Y757297D01*
X2593534Y758537D01*
X2593825Y760000D01*
X2593534Y761464D01*
X2592705Y762704D01*
X2591465Y763533D01*
X2590002Y763824D01*
D02*
G37*
G36*
X2500001Y783824D02*
X2498538Y783533D01*
X2497298Y782704D01*
X2496469Y781464D01*
X2496178Y780000D01*
X2496469Y778537D01*
X2497298Y777297D01*
X2498538Y776468D01*
X2500001Y776177D01*
X2501465Y776468D01*
X2502705Y777297D01*
X2503534Y778537D01*
X2503825Y780000D01*
X2503534Y781464D01*
X2502705Y782704D01*
X2501465Y783533D01*
X2500001Y783824D01*
D02*
G37*
G36*
X2510001D02*
X2508538Y783533D01*
X2507298Y782704D01*
X2506469Y781464D01*
X2506178Y780000D01*
X2506469Y778537D01*
X2507298Y777297D01*
X2508538Y776468D01*
X2510001Y776177D01*
X2511465Y776468D01*
X2512705Y777297D01*
X2513534Y778537D01*
X2513825Y780000D01*
X2513534Y781464D01*
X2512705Y782704D01*
X2511465Y783533D01*
X2510001Y783824D01*
D02*
G37*
G36*
X2685002Y773824D02*
X2683538Y773533D01*
X2682298Y772704D01*
X2681469Y771464D01*
X2681178Y770000D01*
X2681469Y768537D01*
X2682298Y767297D01*
X2683538Y766468D01*
X2685002Y766177D01*
X2686465Y766468D01*
X2687705Y767297D01*
X2688534Y768537D01*
X2688825Y770000D01*
X2688534Y771464D01*
X2687705Y772704D01*
X2686465Y773533D01*
X2685002Y773824D01*
D02*
G37*
G36*
X2585002D02*
X2583538Y773533D01*
X2582298Y772704D01*
X2581469Y771464D01*
X2581178Y770000D01*
X2581469Y768537D01*
X2582298Y767297D01*
X2583538Y766468D01*
X2585002Y766177D01*
X2586465Y766468D01*
X2587705Y767297D01*
X2588534Y768537D01*
X2588825Y770000D01*
X2588534Y771464D01*
X2587705Y772704D01*
X2586465Y773533D01*
X2585002Y773824D01*
D02*
G37*
G36*
X2595002D02*
X2593538Y773533D01*
X2592298Y772704D01*
X2591469Y771464D01*
X2591178Y770000D01*
X2591469Y768537D01*
X2592298Y767297D01*
X2593538Y766468D01*
X2595002Y766177D01*
X2596465Y766468D01*
X2597705Y767297D01*
X2598534Y768537D01*
X2598825Y770000D01*
X2598534Y771464D01*
X2597705Y772704D01*
X2596465Y773533D01*
X2595002Y773824D01*
D02*
G37*
G36*
X2560002Y783824D02*
X2558538Y783533D01*
X2557298Y782704D01*
X2556469Y781464D01*
X2556178Y780000D01*
X2556469Y778537D01*
X2557298Y777297D01*
X2558538Y776468D01*
X2560002Y776177D01*
X2561465Y776468D01*
X2562705Y777297D01*
X2563534Y778537D01*
X2563825Y780000D01*
X2563534Y781464D01*
X2562705Y782704D01*
X2561465Y783533D01*
X2560002Y783824D01*
D02*
G37*
G36*
X2570002D02*
X2568538Y783533D01*
X2567298Y782704D01*
X2566469Y781464D01*
X2566178Y780000D01*
X2566469Y778537D01*
X2567298Y777297D01*
X2568538Y776468D01*
X2570002Y776177D01*
X2571465Y776468D01*
X2572705Y777297D01*
X2573534Y778537D01*
X2573825Y780000D01*
X2573534Y781464D01*
X2572705Y782704D01*
X2571465Y783533D01*
X2570002Y783824D01*
D02*
G37*
G36*
X2540001D02*
X2538538Y783533D01*
X2537298Y782704D01*
X2536469Y781464D01*
X2536178Y780000D01*
X2536469Y778537D01*
X2537298Y777297D01*
X2538538Y776468D01*
X2540001Y776177D01*
X2541465Y776468D01*
X2542705Y777297D01*
X2543534Y778537D01*
X2543825Y780000D01*
X2543534Y781464D01*
X2542705Y782704D01*
X2541465Y783533D01*
X2540001Y783824D01*
D02*
G37*
G36*
X2520001D02*
X2518538Y783533D01*
X2517298Y782704D01*
X2516469Y781464D01*
X2516178Y780000D01*
X2516469Y778537D01*
X2517298Y777297D01*
X2518538Y776468D01*
X2520001Y776177D01*
X2521465Y776468D01*
X2522705Y777297D01*
X2523534Y778537D01*
X2523825Y780000D01*
X2523534Y781464D01*
X2522705Y782704D01*
X2521465Y783533D01*
X2520001Y783824D01*
D02*
G37*
G36*
X2530001D02*
X2528538Y783533D01*
X2527298Y782704D01*
X2526469Y781464D01*
X2526178Y780000D01*
X2526469Y778537D01*
X2527298Y777297D01*
X2528538Y776468D01*
X2530001Y776177D01*
X2531465Y776468D01*
X2532705Y777297D01*
X2533534Y778537D01*
X2533825Y780000D01*
X2533534Y781464D01*
X2532705Y782704D01*
X2531465Y783533D01*
X2530001Y783824D01*
D02*
G37*
G36*
X2575002Y773824D02*
X2573538Y773533D01*
X2572298Y772704D01*
X2571469Y771464D01*
X2571178Y770000D01*
X2571469Y768537D01*
X2572298Y767297D01*
X2573538Y766468D01*
X2575002Y766177D01*
X2576465Y766468D01*
X2577705Y767297D01*
X2578534Y768537D01*
X2578825Y770000D01*
X2578534Y771464D01*
X2577705Y772704D01*
X2576465Y773533D01*
X2575002Y773824D01*
D02*
G37*
G36*
X2710002Y763824D02*
X2708538Y763533D01*
X2707298Y762704D01*
X2706469Y761464D01*
X2706178Y760000D01*
X2706469Y758537D01*
X2707298Y757297D01*
X2708538Y756468D01*
X2710002Y756177D01*
X2711465Y756468D01*
X2712705Y757297D01*
X2713534Y758537D01*
X2713825Y760000D01*
X2713534Y761464D01*
X2712705Y762704D01*
X2711465Y763533D01*
X2710002Y763824D01*
D02*
G37*
G36*
X2505001Y773824D02*
X2503538Y773533D01*
X2502298Y772704D01*
X2501469Y771464D01*
X2501178Y770000D01*
X2501469Y768537D01*
X2502298Y767297D01*
X2503538Y766468D01*
X2505001Y766177D01*
X2506465Y766468D01*
X2507705Y767297D01*
X2508534Y768537D01*
X2508825Y770000D01*
X2508534Y771464D01*
X2507705Y772704D01*
X2506465Y773533D01*
X2505001Y773824D01*
D02*
G37*
G36*
X2700002Y763824D02*
X2698538Y763533D01*
X2697298Y762704D01*
X2696469Y761464D01*
X2696178Y760000D01*
X2696469Y758537D01*
X2697298Y757297D01*
X2698538Y756468D01*
X2700002Y756177D01*
X2701465Y756468D01*
X2702705Y757297D01*
X2703534Y758537D01*
X2703825Y760000D01*
X2703534Y761464D01*
X2702705Y762704D01*
X2701465Y763533D01*
X2700002Y763824D01*
D02*
G37*
G36*
X2680002D02*
X2678538Y763533D01*
X2677298Y762704D01*
X2676469Y761464D01*
X2676178Y760000D01*
X2676469Y758537D01*
X2677298Y757297D01*
X2678538Y756468D01*
X2680002Y756177D01*
X2681465Y756468D01*
X2682705Y757297D01*
X2683534Y758537D01*
X2683825Y760000D01*
X2683534Y761464D01*
X2682705Y762704D01*
X2681465Y763533D01*
X2680002Y763824D01*
D02*
G37*
G36*
X2690002D02*
X2688538Y763533D01*
X2687298Y762704D01*
X2686469Y761464D01*
X2686178Y760000D01*
X2686469Y758537D01*
X2687298Y757297D01*
X2688538Y756468D01*
X2690002Y756177D01*
X2691465Y756468D01*
X2692705Y757297D01*
X2693534Y758537D01*
X2693825Y760000D01*
X2693534Y761464D01*
X2692705Y762704D01*
X2691465Y763533D01*
X2690002Y763824D01*
D02*
G37*
G36*
X2555001Y773824D02*
X2553538Y773533D01*
X2552298Y772704D01*
X2551469Y771464D01*
X2551178Y770000D01*
X2551469Y768537D01*
X2552298Y767297D01*
X2553538Y766468D01*
X2555001Y766177D01*
X2556465Y766468D01*
X2557705Y767297D01*
X2558534Y768537D01*
X2558825Y770000D01*
X2558534Y771464D01*
X2557705Y772704D01*
X2556465Y773533D01*
X2555001Y773824D01*
D02*
G37*
G36*
X2565002D02*
X2563538Y773533D01*
X2562298Y772704D01*
X2561469Y771464D01*
X2561178Y770000D01*
X2561469Y768537D01*
X2562298Y767297D01*
X2563538Y766468D01*
X2565002Y766177D01*
X2566465Y766468D01*
X2567705Y767297D01*
X2568534Y768537D01*
X2568825Y770000D01*
X2568534Y771464D01*
X2567705Y772704D01*
X2566465Y773533D01*
X2565002Y773824D01*
D02*
G37*
G36*
X2535001D02*
X2533538Y773533D01*
X2532298Y772704D01*
X2531469Y771464D01*
X2531178Y770000D01*
X2531469Y768537D01*
X2532298Y767297D01*
X2533538Y766468D01*
X2535001Y766177D01*
X2536465Y766468D01*
X2537705Y767297D01*
X2538534Y768537D01*
X2538825Y770000D01*
X2538534Y771464D01*
X2537705Y772704D01*
X2536465Y773533D01*
X2535001Y773824D01*
D02*
G37*
G36*
X2515001D02*
X2513538Y773533D01*
X2512298Y772704D01*
X2511469Y771464D01*
X2511178Y770000D01*
X2511469Y768537D01*
X2512298Y767297D01*
X2513538Y766468D01*
X2515001Y766177D01*
X2516465Y766468D01*
X2517705Y767297D01*
X2518534Y768537D01*
X2518825Y770000D01*
X2518534Y771464D01*
X2517705Y772704D01*
X2516465Y773533D01*
X2515001Y773824D01*
D02*
G37*
G36*
X2525001D02*
X2523538Y773533D01*
X2522298Y772704D01*
X2521469Y771464D01*
X2521178Y770000D01*
X2521469Y768537D01*
X2522298Y767297D01*
X2523538Y766468D01*
X2525001Y766177D01*
X2526465Y766468D01*
X2527705Y767297D01*
X2528534Y768537D01*
X2528825Y770000D01*
X2528534Y771464D01*
X2527705Y772704D01*
X2526465Y773533D01*
X2525001Y773824D01*
D02*
G37*
%LPD*%
D23*
X2641600Y566928D02*
X2642108Y567436D01*
X2532634Y587248D02*
X2588030Y531852D01*
Y493350D02*
Y531852D01*
Y493350D02*
X2612750Y468630D01*
X2625344D01*
X2669236Y477551D02*
X2722595D01*
X2651909Y494878D02*
X2669236Y477551D01*
X2673282Y473511D02*
X2687828Y458965D01*
X2667563Y473511D02*
X2673282D01*
X2650236Y490838D02*
X2667563Y473511D01*
X2664268Y437642D02*
Y471092D01*
X2648563Y486798D02*
X2664268Y471092D01*
X2619114Y486798D02*
X2648563D01*
X2621170Y490838D02*
X2650236D01*
X2624242Y494878D02*
X2651909D01*
X2617470Y501650D02*
X2624242Y494878D01*
X2572512Y556514D02*
X2583688D01*
X2592070Y548132D01*
Y495554D02*
Y548132D01*
Y495554D02*
X2592094Y495530D01*
Y495000D02*
Y495530D01*
Y495000D02*
X2613964Y473130D01*
X2626614D01*
X2596134Y496673D02*
Y554990D01*
Y496673D02*
X2614779Y478028D01*
X2626106D01*
X2617470Y530606D02*
X2617724Y530860D01*
X2617470Y501650D02*
Y530606D01*
X2612644Y499364D02*
Y554228D01*
Y499364D02*
X2621170Y490838D01*
X2606548Y499364D02*
Y530098D01*
Y499364D02*
X2619114Y486798D01*
X2616780Y482528D02*
X2625852D01*
X2601477Y497831D02*
X2616780Y482528D01*
X2601477Y497831D02*
Y554491D01*
X2602484Y555498D01*
X2678176Y590296D02*
Y593090D01*
X2670048Y582168D02*
X2678176Y590296D01*
Y593090D02*
X2678938D01*
X2670048Y556768D02*
Y582168D01*
X2685034Y589280D02*
Y597408D01*
X2680458Y601984D02*
X2685034Y597408D01*
X2677672Y601984D02*
X2680458D01*
X2674088Y578334D02*
X2685034Y589280D01*
X2690157Y536659D02*
X2713482D01*
Y536702D01*
X2725928Y524256D01*
X2685414Y547116D02*
X2726182D01*
X2674088Y558441D02*
Y578334D01*
Y558441D02*
X2685414Y547116D01*
X2670048Y556768D02*
X2690157Y536659D01*
X2641600Y551447D02*
Y566928D01*
Y551447D02*
X2693175Y499872D01*
X2726436D01*
X2722595Y477551D02*
X2726182Y473964D01*
X2687828Y449326D02*
Y458965D01*
Y449326D02*
X2726436D01*
X2664268Y437642D02*
X2671948Y429962D01*
X2722178D01*
X2726182Y425958D01*
X2504440Y664705D02*
Y673100D01*
Y664705D02*
X2504634Y664511D01*
Y660353D02*
Y664511D01*
X2504440Y660159D02*
X2504634Y660353D01*
X2504440Y645668D02*
Y660159D01*
X2500122Y677418D02*
X2504440Y673100D01*
X2491038Y632266D02*
X2504440Y645668D01*
X2491038Y619058D02*
Y632266D01*
X2500122Y677418D02*
X2502408D01*
X2496058Y626872D02*
X2512568Y610362D01*
Y545846D02*
Y610362D01*
Y545846D02*
X2516632Y541782D01*
X2482088Y610108D02*
X2491038Y619058D01*
X2516632Y489458D02*
Y541782D01*
X2512822Y485648D02*
X2516632Y489458D01*
X2512822Y474472D02*
Y485648D01*
X2517902Y483716D02*
X2520696Y486510D01*
X2517902Y481076D02*
Y483716D01*
X2524252Y484353D02*
X2524736Y484837D01*
X2524252Y474472D02*
Y484353D01*
X2520696Y486510D02*
Y548286D01*
X2524736Y484837D02*
Y561364D01*
X2512822Y474472D02*
X2513330Y473964D01*
X2524252Y561848D02*
X2524736Y561364D01*
X2518564Y550418D02*
X2520696Y548286D01*
X2529332Y477774D02*
Y566928D01*
X2526030Y472694D02*
X2562606D01*
X2534388Y485140D02*
Y571984D01*
Y485140D02*
X2536166Y483362D01*
Y481100D02*
Y483362D01*
Y481100D02*
X2536698Y480568D01*
X2524252Y474472D02*
X2526030Y472694D01*
X2565146Y391661D02*
X2618987D01*
X2545849D02*
X2565146D01*
Y396494D02*
X2565654Y397002D01*
X2565146Y391661D02*
Y396494D01*
X2618987Y391661D02*
X2619502Y392176D01*
X2545334D02*
X2545849Y391661D01*
D24*
X2591308Y741426D02*
X2594356D01*
X2579370Y753364D02*
X2591308Y741426D01*
X2499614Y753364D02*
X2579370D01*
Y749046D02*
X2591375Y737041D01*
X2601147D01*
X2601722Y737616D01*
X2481721Y771257D02*
X2499614Y753364D01*
X2500015Y749046D02*
X2579370D01*
X2478951Y770110D02*
X2500015Y749046D01*
X2615245Y733186D02*
Y763585D01*
X2612475Y734333D02*
Y769300D01*
X2609601Y735377D02*
Y774912D01*
X2606548Y736241D02*
Y763016D01*
X2603538Y733231D02*
X2606548Y736241D01*
X2604686Y730461D02*
X2609601Y735377D01*
X2605833Y727691D02*
X2612475Y734333D01*
X2606980Y724921D02*
X2615245Y733186D01*
X2606152Y724921D02*
X2606980D01*
X2583942Y702711D02*
X2606152Y724921D01*
X2605005Y727691D02*
X2605833D01*
X2578354Y701040D02*
X2605005Y727691D01*
X2603711Y730461D02*
X2604686D01*
X2572498Y699248D02*
X2603711Y730461D01*
X2602163Y733231D02*
X2603538D01*
X2572578Y703646D02*
X2602163Y733231D01*
X2471492Y501790D02*
X2487494Y517792D01*
X2471492Y380107D02*
X2484332Y367267D01*
X2474262Y500643D02*
X2490264Y516645D01*
X2474262Y381254D02*
X2485479Y370037D01*
X2477032Y499495D02*
X2493034Y515497D01*
X2477032Y383032D02*
X2487257Y372807D01*
X2479802Y498348D02*
X2495804Y514350D01*
X2479802Y385572D02*
X2489797Y375577D01*
X2479802Y385572D02*
Y498348D01*
X2477032Y383032D02*
Y499495D01*
X2474262Y381254D02*
Y500643D01*
X2471492Y380107D02*
Y501790D01*
X2487494Y517792D02*
Y551320D01*
X2490264Y516645D02*
Y550173D01*
X2493034Y515497D02*
Y549025D01*
X2495804Y514350D02*
Y547878D01*
X2503424Y727710D02*
Y737802D01*
X2473411Y767815D02*
X2503424Y737802D01*
X2506726Y733044D02*
Y738417D01*
X2470641Y766667D02*
X2495672Y741637D01*
Y666374D02*
Y741637D01*
X2473411Y767815D02*
Y798109D01*
X2460752Y810768D02*
X2473411Y798109D01*
X2476181Y768962D02*
Y802197D01*
X2473706Y804672D02*
X2476181Y802197D01*
X2478951Y770110D02*
Y811873D01*
X2477262Y813562D02*
X2478951Y811873D01*
X2481721Y771257D02*
Y872349D01*
X2481072Y872998D02*
X2481721Y872349D01*
X2476181Y768962D02*
X2506726Y738417D01*
X2470641Y766667D02*
Y767769D01*
X2469992Y768418D02*
X2470641Y767769D01*
X2469992Y768418D02*
Y786384D01*
X2461006D02*
X2469992D01*
X2477262Y813562D02*
Y843026D01*
X2473706Y804672D02*
Y820928D01*
X2463800Y856488D02*
X2477262Y843026D01*
X2461006Y833628D02*
X2473706Y820928D01*
X2506726Y733044D02*
X2523744Y716026D01*
Y715772D02*
Y716026D01*
X2503424Y727710D02*
X2520950Y710184D01*
X2520696D02*
X2520950D01*
X2495672Y666374D02*
X2499614Y662432D01*
X2568515Y441639D02*
X2619032D01*
X2568194Y441960D02*
X2568515Y441639D01*
X2619353Y441960D02*
X2620130D01*
X2619032Y441639D02*
X2619353Y441960D01*
X2617216Y446024D02*
Y446278D01*
X2616200Y447294D02*
X2617216Y446278D01*
X2691880Y780300D02*
X2693670Y778510D01*
X2499106Y596392D02*
X2499360Y596646D01*
X2658110Y770636D02*
Y862962D01*
X2710942Y775716D02*
X2711182Y775956D01*
Y838910D01*
X2691880Y780300D02*
Y853732D01*
X2671318Y766318D02*
Y864469D01*
X2671517Y864668D01*
X2648549Y872523D02*
X2658110Y862962D01*
X2578354Y679958D02*
Y701040D01*
X2583942Y679450D02*
Y702711D01*
X2605362Y764202D02*
X2606548Y763016D01*
X2605362Y779157D02*
X2605504Y779300D01*
X2605362Y764202D02*
Y779157D01*
X2567498Y703646D02*
X2572578D01*
X2609601Y774912D02*
X2609747Y775057D01*
X2572498Y679972D02*
Y699248D01*
X2612475Y769300D02*
X2613989Y770815D01*
X2578354Y679958D02*
X2578608Y680212D01*
X2615245Y763585D02*
X2618232Y766572D01*
X2583942Y679450D02*
X2584704Y680212D01*
X2506218Y682752D02*
X2518199Y670771D01*
X2622656D01*
X2514346Y683006D02*
X2523811Y673541D01*
X2617149D01*
X2619629Y676021D01*
X2622656Y670771D02*
X2625629Y673744D01*
X2616200Y667004D02*
X2633472D01*
X2608834Y659638D02*
X2616200Y667004D01*
X2621788Y554482D02*
Y554736D01*
X2615251Y561273D02*
X2621788Y554736D01*
X2615251Y561273D02*
Y636203D01*
X2610866Y640588D02*
X2615251Y636203D01*
X2533904Y659638D02*
X2608834D01*
X2487494Y551320D02*
X2499106Y562932D01*
Y575564D01*
X2498852Y581660D02*
X2501591D01*
X2503623Y579628D01*
X2490264Y550173D02*
X2503623Y563532D01*
Y579628D01*
X2493034Y549025D02*
X2506393Y562384D01*
Y585696D01*
X2501793Y590296D02*
X2506393Y585696D01*
X2496312Y590296D02*
X2501793D01*
X2495804Y547878D02*
X2509163Y561237D01*
Y586843D01*
X2499360Y596646D02*
X2509163Y586843D01*
X2510924Y367792D02*
X2512314D01*
X2506793Y363661D02*
X2510924Y367792D01*
X2502425Y368046D02*
X2504948D01*
X2500434Y370037D02*
X2502425Y368046D01*
X2502893Y363661D02*
X2506793D01*
X2499287Y367267D02*
X2502893Y363661D01*
X2502729Y375577D02*
X2503105Y375201D01*
X2501582Y372807D02*
X2501958Y372431D01*
X2516311D02*
X2520696Y368046D01*
X2542243Y375201D02*
X2546096Y371348D01*
X2501958Y372431D02*
X2516311D01*
X2503105Y375201D02*
X2542243D01*
X2520696Y357632D02*
Y368046D01*
X2546096Y357632D02*
Y371348D01*
X2484332Y367267D02*
X2499287D01*
X2485479Y370037D02*
X2500434D01*
X2487257Y372807D02*
X2501582D01*
X2489797Y375577D02*
X2502729D01*
X2568194Y447294D02*
Y467106D01*
X2562606Y472694D02*
X2568194Y467106D01*
X2573274Y402064D02*
X2613642D01*
X2613914Y402336D01*
X2563323Y402064D02*
X2573274D01*
X2572512Y399034D02*
X2573274Y399796D01*
Y402064D01*
X2567245Y446345D02*
X2568194Y447294D01*
X2566378Y446345D02*
X2567245D01*
X2563809Y443776D02*
X2566378Y446345D01*
X2563809Y440144D02*
Y443776D01*
Y440144D02*
X2563862Y440091D01*
X2558796D02*
X2563862D01*
X2558796D02*
Y441706D01*
X2566349Y437321D02*
X2568194Y439166D01*
X2548703Y437321D02*
X2566349D01*
X2548636Y437388D02*
X2548703Y437321D01*
X2568194Y439166D02*
Y441960D01*
X2558072Y396681D02*
X2561657Y400266D01*
Y400397D02*
X2563323Y402064D01*
X2561657Y400266D02*
Y400397D01*
X2540321Y396681D02*
X2558072D01*
X2568194Y447294D02*
X2616200D01*
X2620130Y441960D02*
X2620959Y441131D01*
X2540321Y396324D02*
Y396681D01*
D25*
X2659998Y409194D02*
Y469324D01*
X2646794Y482528D02*
X2659998Y469324D01*
X2655498Y389214D02*
Y467460D01*
X2644930Y478028D02*
X2655498Y467460D01*
X2650998Y387350D02*
Y465596D01*
X2643464Y473130D02*
X2650998Y465596D01*
X2646172Y361442D02*
Y464058D01*
X2641600Y468630D02*
X2646172Y464058D01*
X2625344Y468630D02*
X2641600D01*
X2626614Y473130D02*
X2643464D01*
X2626106Y478028D02*
X2644930D01*
X2625852Y482528D02*
X2646794D01*
X2659998Y409194D02*
X2674428Y394764D01*
X2712006D01*
X2716784Y399542D01*
X2655498Y389214D02*
X2662696Y382016D01*
X2695194D01*
X2650998Y387350D02*
X2669794Y368554D01*
X2616937Y407586D02*
X2617529Y408178D01*
X2611740Y407586D02*
X2616937D01*
X2609962Y405808D02*
X2611740Y407586D01*
X2561927Y405808D02*
X2609962D01*
X2617529Y408178D02*
X2619248D01*
X2625344Y402082D01*
X2558201D02*
X2561927Y405808D01*
X2557272Y402082D02*
X2558201D01*
X2521966Y401574D02*
X2549595D01*
X2521966Y401574D02*
X2521966Y401574D01*
X2549595D02*
X2549595Y401574D01*
X2556764D01*
X2557272Y402082D01*
D26*
X2658480Y562587D02*
Y583461D01*
Y562587D02*
X2659772Y561295D01*
Y555730D02*
Y561295D01*
Y555730D02*
X2665338Y550164D01*
X2658480Y703049D02*
X2659772Y701757D01*
Y695751D02*
Y701757D01*
X2658480Y694459D02*
X2659772Y695751D01*
X2658480Y655297D02*
Y694459D01*
Y655297D02*
X2659010Y654767D01*
Y648761D02*
Y654767D01*
X2658480Y648231D02*
X2659010Y648761D01*
X2658480Y630151D02*
Y648231D01*
Y630151D02*
X2658502Y630129D01*
Y624123D02*
Y630129D01*
X2658480Y624101D02*
X2658502Y624123D01*
X2658480Y590019D02*
Y624101D01*
Y590019D02*
X2658756Y589743D01*
Y583737D02*
Y589743D01*
X2658480Y583461D02*
X2658756Y583737D01*
X2648204Y765048D02*
X2658745Y754507D01*
X2616708Y822452D02*
X2648204Y790956D01*
Y765048D02*
Y790956D01*
X2658480Y703049D02*
Y737005D01*
X2584450Y811035D02*
X2658480Y737005D01*
X2584450Y811035D02*
Y825500D01*
X2585974Y823976D01*
X2493264Y833374D02*
X2568448D01*
X2569718Y832104D01*
D28*
X2726182Y669798D02*
D03*
D29*
X2463800Y856488D02*
D03*
X2461006Y833628D02*
D03*
X2481072Y872998D02*
D03*
X2461006Y786384D02*
D03*
X2460752Y810768D02*
D03*
X2646172Y361442D02*
D03*
X2725928Y524256D02*
D03*
X2726182Y547116D02*
D03*
X2669794Y368554D02*
D03*
X2726436Y499872D02*
D03*
X2726182Y425958D02*
D03*
X2726436Y449326D02*
D03*
X2726182Y473964D02*
D03*
X2695194Y382016D02*
D03*
X2716784Y399542D02*
D03*
X2546096Y357632D02*
D03*
X2520696D02*
D03*
X2648549Y872523D02*
D03*
X2671517Y864668D02*
D03*
X2691880Y853732D02*
D03*
X2711182Y838910D02*
D03*
D38*
X2594356Y741426D02*
D03*
X2601722Y737616D02*
D03*
X2641600Y566928D02*
D03*
X2532634Y587248D02*
D03*
X2572512Y556514D02*
D03*
X2596134Y554990D02*
D03*
X2617724Y530860D02*
D03*
X2612644Y554228D02*
D03*
X2606548Y530098D02*
D03*
X2602484Y555498D02*
D03*
X2678938Y593090D02*
D03*
X2677672Y601984D02*
D03*
X2665338Y550164D02*
D03*
X2523744Y715772D02*
D03*
X2520696Y710184D02*
D03*
X2502408Y677418D02*
D03*
X2499614Y662432D02*
D03*
X2617216Y446024D02*
D03*
X2693670Y778510D02*
D03*
X2499106Y596392D02*
D03*
X2658110Y770636D02*
D03*
X2710942Y775716D02*
D03*
X2671318Y766318D02*
D03*
X2567498Y703646D02*
D03*
X2572498Y679972D02*
D03*
X2578608Y680212D02*
D03*
X2584704D02*
D03*
X2544572Y486918D02*
D03*
X2506218Y682752D02*
D03*
X2514346Y683006D02*
D03*
X2625629Y673744D02*
D03*
X2619629Y676021D02*
D03*
X2633472Y667004D02*
D03*
X2621788Y554482D02*
D03*
X2610866Y640588D02*
D03*
X2533904Y659638D02*
D03*
X2499106Y575564D02*
D03*
X2498852Y581660D02*
D03*
X2496312Y590296D02*
D03*
X2482088Y610108D02*
D03*
X2518918Y790956D02*
D03*
X2630424Y793242D02*
D03*
X2512314Y367792D02*
D03*
X2504948Y368046D02*
D03*
X2605504Y779300D02*
D03*
X2609747Y775057D02*
D03*
X2613989Y770815D02*
D03*
X2618232Y766572D02*
D03*
X2496058Y626872D02*
D03*
X2508250Y537718D02*
D03*
X2513330Y473964D02*
D03*
X2536698Y480568D02*
D03*
X2517902Y481076D02*
D03*
X2529332Y477774D02*
D03*
X2518564Y550418D02*
D03*
X2524252Y561848D02*
D03*
X2529332Y566928D02*
D03*
X2534388Y571984D02*
D03*
X2613914Y402336D02*
D03*
X2565654Y397002D02*
D03*
X2572512Y399034D02*
D03*
X2558796Y441706D02*
D03*
X2548636Y437388D02*
D03*
X2545334Y392176D02*
D03*
X2612136Y430784D02*
D03*
X2619502Y392176D02*
D03*
X2568194Y441960D02*
D03*
X2620959Y441131D02*
D03*
X2625344Y402082D02*
D03*
X2540321Y396324D02*
D03*
X2557272Y402082D02*
D03*
X2521966Y401574D02*
D03*
X2650236Y645160D02*
D03*
X2651760Y651764D02*
D03*
X2651252Y627126D02*
D03*
X2651506Y586740D02*
D03*
X2637536Y529844D02*
D03*
X2500376Y544068D02*
D03*
X2562352Y529844D02*
D03*
X2652522Y698754D02*
D03*
D39*
X2658872Y754634D02*
D03*
X2585974Y823976D02*
D03*
X2493264Y833374D02*
D03*
X2569718Y832104D02*
D03*
X2616708Y822452D02*
D03*
M02*
