G04 Layer_Color=16711935*
%FSLAX44Y44*%
%MOMM*%
G71*
G01*
G75*
%ADD314C,0.0100*%
D314*
X2622042Y377444D02*
Y387096D01*
X2508504Y377444D02*
X2622042D01*
X2508504D02*
Y386842D01*
X2508758Y387096D01*
X2622042D01*
X2573782Y450596D02*
Y461010D01*
Y450596D02*
X2631186D01*
X2631948Y449834D01*
Y389128D02*
Y449834D01*
Y389128D02*
X2633218Y387858D01*
X2642616D01*
Y459994D01*
X2641600Y461010D02*
X2642616Y459994D01*
X2573782Y461010D02*
X2641600D01*
X2562860Y450596D02*
Y461010D01*
X2490724D02*
X2562860D01*
X2489454Y459740D02*
X2490724Y461010D01*
X2489454Y387604D02*
Y459740D01*
Y387604D02*
X2499614D01*
X2500122Y388112D01*
Y450596D01*
X2562860D01*
X2469233Y369507D02*
X2473547Y365193D01*
X2465733Y374504D02*
X2469233Y369507D01*
X2463155Y380034D02*
X2465733Y374504D01*
X2461576Y385927D02*
X2463155Y380034D01*
X2461044Y392004D02*
X2461576Y385927D01*
X2461044Y392004D02*
Y841927D01*
X2461576Y848005D01*
X2463155Y853898D01*
X2465733Y859427D01*
X2469233Y864425D01*
X2473547Y868739D01*
X2478544Y872238D01*
X2484074Y874816D01*
X2489967Y876395D01*
X2496044Y876927D01*
X2501044D01*
X2562796Y876927D01*
X2624540Y876462D01*
X2636631Y874993D01*
X2648549Y872523D01*
X2660205Y869073D01*
X2671517Y864668D01*
X2682411Y859339D01*
X2691880Y853732D01*
X2701870Y846697D01*
X2711182Y838910D01*
X2718977Y831262D01*
X2726222Y822992D01*
Y410992D02*
Y822992D01*
X2725694Y410464D02*
X2726222Y410992D01*
X2720537Y404343D02*
X2725694Y410464D01*
X2712834Y396551D02*
X2720537Y404343D01*
X2704538Y389333D02*
X2712834Y396551D01*
X2694724Y382073D02*
X2704538Y389333D01*
X2684397Y375688D02*
X2694724Y382073D01*
X2674653Y370683D02*
X2684397Y375688D01*
X2663461Y366014D02*
X2674653Y370683D01*
X2653063Y362618D02*
X2663461Y366014D01*
X2642348Y359994D02*
X2653063Y362618D01*
X2630310Y358037D02*
X2642348Y359994D01*
X2501044Y357004D02*
X2630310Y358037D01*
X2496044Y357004D02*
X2501044D01*
X2489967Y357536D02*
X2496044Y357004D01*
X2484074Y359115D02*
X2489967Y357536D01*
X2478544Y361693D02*
X2484074Y359115D01*
X2473547Y365193D02*
X2478544Y361693D01*
M02*
