G04 Layer_Color=32896*
%FSLAX44Y44*%
%MOMM*%
G71*
G01*
G75*
%ADD23C,0.2540*%
%ADD24C,0.1270*%
%ADD74C,0.2032*%
%ADD75C,0.1524*%
G04:AMPARAMS|DCode=215|XSize=0.1524mm|YSize=0.6048mm|CornerRadius=0mm|HoleSize=0mm|Usage=FLASHONLY|Rotation=270.010|XOffset=0mm|YOffset=0mm|HoleType=Round|Shape=Rectangle|*
%AMROTATEDRECTD215*
4,1,4,-0.3024,0.0762,0.3024,0.0763,0.3024,-0.0762,-0.3024,-0.0763,-0.3024,0.0762,0.0*
%
%ADD215ROTATEDRECTD215*%

G04:AMPARAMS|DCode=216|XSize=0.1524mm|YSize=0.6048mm|CornerRadius=0mm|HoleSize=0mm|Usage=FLASHONLY|Rotation=0.002|XOffset=0mm|YOffset=0mm|HoleType=Round|Shape=Rectangle|*
%AMROTATEDRECTD216*
4,1,4,-0.0762,-0.3024,-0.0762,0.3024,0.0762,0.3024,0.0762,-0.3024,-0.0762,-0.3024,0.0*
%
%ADD216ROTATEDRECTD216*%

%ADD302C,0.1016*%
%ADD303C,0.0000*%
%ADD304C,0.3048*%
%ADD305C,0.2500*%
%ADD306C,0.6000*%
%ADD307C,1.6002*%
%ADD308C,0.5080*%
%ADD309C,0.2000*%
%ADD310R,0.1524X0.6048*%
G04:AMPARAMS|DCode=311|XSize=0.1524mm|YSize=0.6048mm|CornerRadius=0mm|HoleSize=0mm|Usage=FLASHONLY|Rotation=269.990|XOffset=0mm|YOffset=0mm|HoleType=Round|Shape=Rectangle|*
%AMROTATEDRECTD311*
4,1,4,-0.3024,0.0763,0.3024,0.0762,0.3024,-0.0763,-0.3024,-0.0762,-0.3024,0.0763,0.0*
%
%ADD311ROTATEDRECTD311*%

%ADD312R,0.6048X0.1524*%
%ADD313R,0.7620X0.4572*%
G36*
X2584437Y679862D02*
X2584678Y679849D01*
X2584907Y679811D01*
X2585110Y679760D01*
X2585313Y679709D01*
X2585491Y679646D01*
X2585656Y679582D01*
X2585809Y679519D01*
X2585948Y679443D01*
X2586063Y679379D01*
X2586164Y679316D01*
X2586253Y679265D01*
X2586317Y679214D01*
X2586367Y679176D01*
X2586393Y679163D01*
X2586406Y679150D01*
X2586558Y679011D01*
X2586685Y678858D01*
X2586799Y678693D01*
X2586901Y678515D01*
X2586990Y678350D01*
X2587066Y678173D01*
X2587180Y677830D01*
X2587231Y677677D01*
X2587269Y677525D01*
X2587295Y677398D01*
X2587320Y677284D01*
X2587333Y677182D01*
Y677119D01*
X2587345Y677068D01*
Y677055D01*
X2586114Y676928D01*
X2586088Y677258D01*
X2586037Y677538D01*
X2585948Y677779D01*
X2585847Y677995D01*
X2585758Y678147D01*
X2585669Y678274D01*
X2585618Y678338D01*
X2585593Y678363D01*
X2585390Y678541D01*
X2585161Y678668D01*
X2584920Y678757D01*
X2584704Y678820D01*
X2584513Y678858D01*
X2584424Y678871D01*
X2584348D01*
X2584297Y678884D01*
X2584208D01*
X2583916Y678858D01*
X2583650Y678808D01*
X2583421Y678731D01*
X2583231Y678643D01*
X2583078Y678541D01*
X2582964Y678465D01*
X2582900Y678414D01*
X2582875Y678389D01*
X2582697Y678198D01*
X2582570Y677995D01*
X2582481Y677804D01*
X2582418Y677614D01*
X2582380Y677449D01*
X2582367Y677309D01*
X2582354Y677258D01*
Y677233D01*
Y677207D01*
Y677195D01*
Y677068D01*
X2582380Y676941D01*
X2582443Y676674D01*
X2582532Y676433D01*
X2582634Y676217D01*
X2582748Y676026D01*
X2582799Y675950D01*
X2582837Y675874D01*
X2582875Y675823D01*
X2582900Y675785D01*
X2582913Y675760D01*
X2582926Y675747D01*
X2583040Y675594D01*
X2583180Y675442D01*
X2583332Y675277D01*
X2583497Y675099D01*
X2583853Y674756D01*
X2584208Y674426D01*
X2584373Y674274D01*
X2584539Y674134D01*
X2584691Y674007D01*
X2584818Y673893D01*
X2584920Y673804D01*
X2585009Y673740D01*
X2585060Y673689D01*
X2585072Y673677D01*
X2585440Y673372D01*
X2585758Y673093D01*
X2586024Y672839D01*
X2586241Y672623D01*
X2586418Y672445D01*
X2586545Y672305D01*
X2586583Y672254D01*
X2586621Y672216D01*
X2586634Y672204D01*
X2586647Y672191D01*
X2586837Y671950D01*
X2587003Y671721D01*
X2587130Y671505D01*
X2587244Y671302D01*
X2587333Y671137D01*
X2587383Y671010D01*
X2587409Y670959D01*
X2587422Y670921D01*
X2587434Y670908D01*
Y670895D01*
X2587485Y670743D01*
X2587523Y670603D01*
X2587549Y670464D01*
X2587561Y670337D01*
X2587574Y670222D01*
Y670146D01*
Y670095D01*
Y670070D01*
X2581110D01*
Y671226D01*
X2585910D01*
X2585745Y671454D01*
X2585656Y671569D01*
X2585580Y671657D01*
X2585504Y671746D01*
X2585453Y671810D01*
X2585415Y671848D01*
X2585402Y671861D01*
X2585339Y671924D01*
X2585250Y672013D01*
X2585161Y672102D01*
X2585060Y672191D01*
X2584831Y672394D01*
X2584590Y672597D01*
X2584373Y672788D01*
X2584272Y672877D01*
X2584196Y672953D01*
X2584120Y673004D01*
X2584069Y673055D01*
X2584031Y673080D01*
X2584018Y673093D01*
X2583789Y673296D01*
X2583561Y673486D01*
X2583370Y673651D01*
X2583180Y673817D01*
X2583015Y673969D01*
X2582862Y674121D01*
X2582722Y674248D01*
X2582608Y674363D01*
X2582494Y674464D01*
X2582405Y674553D01*
X2582329Y674629D01*
X2582265Y674693D01*
X2582227Y674744D01*
X2582189Y674782D01*
X2582164Y674794D01*
Y674807D01*
X2581973Y675036D01*
X2581808Y675264D01*
X2581668Y675468D01*
X2581554Y675645D01*
X2581465Y675785D01*
X2581414Y675899D01*
X2581376Y675975D01*
X2581364Y676001D01*
X2581288Y676217D01*
X2581224Y676420D01*
X2581186Y676623D01*
X2581148Y676788D01*
X2581135Y676941D01*
X2581122Y677055D01*
Y677131D01*
Y677157D01*
X2581135Y677373D01*
X2581161Y677576D01*
X2581199Y677766D01*
X2581249Y677944D01*
X2581389Y678274D01*
X2581453Y678427D01*
X2581529Y678554D01*
X2581618Y678681D01*
X2581681Y678782D01*
X2581758Y678871D01*
X2581821Y678947D01*
X2581872Y679011D01*
X2581910Y679049D01*
X2581935Y679074D01*
X2581948Y679087D01*
X2582113Y679227D01*
X2582278Y679341D01*
X2582456Y679455D01*
X2582646Y679544D01*
X2582837Y679620D01*
X2583015Y679684D01*
X2583370Y679773D01*
X2583535Y679811D01*
X2583688Y679836D01*
X2583828Y679849D01*
X2583954Y679862D01*
X2584043Y679874D01*
X2584183D01*
X2584437Y679862D01*
D02*
G37*
G36*
X2697505Y547891D02*
X2697848Y547853D01*
X2698153Y547789D01*
X2698420Y547738D01*
X2698534Y547700D01*
X2698636Y547675D01*
X2698725Y547637D01*
X2698801Y547611D01*
X2698864Y547599D01*
X2698902Y547573D01*
X2698928Y547561D01*
X2698940D01*
X2699220Y547421D01*
X2699474Y547268D01*
X2699677Y547103D01*
X2699855Y546951D01*
X2699982Y546811D01*
X2700084Y546684D01*
X2700134Y546608D01*
X2700160Y546595D01*
Y546583D01*
X2700299Y546341D01*
X2700401Y546100D01*
X2700477Y545871D01*
X2700528Y545656D01*
X2700553Y545465D01*
X2700566Y545325D01*
X2700579Y545275D01*
Y545236D01*
Y545211D01*
Y545198D01*
X2700566Y544957D01*
X2700528Y544728D01*
X2700477Y544512D01*
X2700414Y544335D01*
X2700350Y544182D01*
X2700299Y544081D01*
X2700261Y544005D01*
X2700249Y543992D01*
Y543979D01*
X2700109Y543789D01*
X2699944Y543611D01*
X2699766Y543458D01*
X2699601Y543331D01*
X2699449Y543217D01*
X2699322Y543141D01*
X2699271Y543116D01*
X2699232Y543090D01*
X2699220Y543077D01*
X2699207D01*
X2699093Y543027D01*
X2698966Y542963D01*
X2698687Y542862D01*
X2698369Y542747D01*
X2698064Y542658D01*
X2697772Y542569D01*
X2697658Y542544D01*
X2697544Y542506D01*
X2697455Y542493D01*
X2697391Y542468D01*
X2697340Y542455D01*
X2697328D01*
X2697086Y542392D01*
X2696870Y542341D01*
X2696667Y542290D01*
X2696489Y542252D01*
X2696324Y542201D01*
X2696185Y542163D01*
X2696058Y542138D01*
X2695956Y542099D01*
X2695854Y542074D01*
X2695778Y542049D01*
X2695715Y542036D01*
X2695664Y542011D01*
X2695613Y541998D01*
X2695588Y541985D01*
X2695372Y541896D01*
X2695194Y541795D01*
X2695042Y541706D01*
X2694915Y541617D01*
X2694826Y541541D01*
X2694762Y541477D01*
X2694724Y541426D01*
X2694711Y541414D01*
X2694622Y541287D01*
X2694546Y541147D01*
X2694496Y541007D01*
X2694470Y540880D01*
X2694445Y540779D01*
X2694432Y540690D01*
Y540639D01*
Y540614D01*
X2694445Y540448D01*
X2694470Y540296D01*
X2694521Y540156D01*
X2694572Y540029D01*
X2694622Y539928D01*
X2694673Y539839D01*
X2694699Y539788D01*
X2694711Y539775D01*
X2694826Y539636D01*
X2694966Y539521D01*
X2695105Y539420D01*
X2695245Y539331D01*
X2695372Y539267D01*
X2695473Y539217D01*
X2695537Y539191D01*
X2695550Y539179D01*
X2695562D01*
X2695778Y539102D01*
X2695994Y539052D01*
X2696223Y539013D01*
X2696413Y538988D01*
X2696591Y538975D01*
X2696731Y538963D01*
X2696858D01*
X2697162Y538975D01*
X2697442Y539001D01*
X2697696Y539052D01*
X2697912Y539102D01*
X2698102Y539153D01*
X2698178Y539179D01*
X2698242Y539204D01*
X2698293Y539217D01*
X2698331Y539229D01*
X2698344Y539242D01*
X2698356D01*
X2698585Y539356D01*
X2698788Y539483D01*
X2698953Y539610D01*
X2699093Y539737D01*
X2699195Y539839D01*
X2699271Y539928D01*
X2699322Y539979D01*
X2699334Y540004D01*
X2699436Y540195D01*
X2699525Y540398D01*
X2699601Y540601D01*
X2699652Y540791D01*
X2699690Y540969D01*
X2699715Y541096D01*
Y541147D01*
X2699728Y541185D01*
Y541211D01*
Y541223D01*
X2700947Y541122D01*
X2700922Y540766D01*
X2700858Y540423D01*
X2700769Y540131D01*
X2700668Y539864D01*
X2700617Y539750D01*
X2700579Y539648D01*
X2700528Y539572D01*
X2700490Y539496D01*
X2700464Y539432D01*
X2700439Y539394D01*
X2700414Y539369D01*
Y539356D01*
X2700211Y539090D01*
X2699982Y538848D01*
X2699753Y538645D01*
X2699525Y538480D01*
X2699322Y538353D01*
X2699232Y538302D01*
X2699169Y538264D01*
X2699106Y538226D01*
X2699055Y538201D01*
X2699030Y538188D01*
X2699017D01*
X2698661Y538061D01*
X2698293Y537972D01*
X2697912Y537896D01*
X2697569Y537858D01*
X2697404Y537845D01*
X2697264Y537832D01*
X2697124Y537820D01*
X2697010D01*
X2696921Y537807D01*
X2696794D01*
X2696413Y537820D01*
X2696058Y537870D01*
X2695740Y537934D01*
X2695473Y537997D01*
X2695346Y538036D01*
X2695245Y538074D01*
X2695156Y538099D01*
X2695067Y538124D01*
X2695016Y538150D01*
X2694966Y538175D01*
X2694940Y538188D01*
X2694927D01*
X2694635Y538340D01*
X2694369Y538518D01*
X2694153Y538696D01*
X2693975Y538861D01*
X2693835Y539013D01*
X2693721Y539140D01*
X2693695Y539191D01*
X2693670Y539229D01*
X2693645Y539242D01*
Y539255D01*
X2693492Y539509D01*
X2693378Y539775D01*
X2693302Y540017D01*
X2693238Y540245D01*
X2693213Y540436D01*
X2693200Y540512D01*
Y540588D01*
X2693187Y540639D01*
Y540677D01*
Y540703D01*
Y540715D01*
X2693200Y541007D01*
X2693251Y541261D01*
X2693315Y541503D01*
X2693391Y541706D01*
X2693480Y541871D01*
X2693543Y541998D01*
X2693568Y542036D01*
X2693594Y542074D01*
X2693607Y542087D01*
Y542099D01*
X2693772Y542315D01*
X2693975Y542519D01*
X2694178Y542684D01*
X2694381Y542836D01*
X2694572Y542950D01*
X2694724Y543027D01*
X2694788Y543065D01*
X2694826Y543090D01*
X2694851Y543103D01*
X2694864D01*
X2694978Y543154D01*
X2695118Y543204D01*
X2695283Y543255D01*
X2695448Y543319D01*
X2695804Y543420D01*
X2696159Y543509D01*
X2696337Y543560D01*
X2696489Y543598D01*
X2696642Y543636D01*
X2696769Y543662D01*
X2696870Y543687D01*
X2696959Y543712D01*
X2697010Y543725D01*
X2697023D01*
X2697302Y543789D01*
X2697556Y543852D01*
X2697785Y543916D01*
X2697988Y543979D01*
X2698166Y544043D01*
X2698318Y544093D01*
X2698458Y544157D01*
X2698585Y544208D01*
X2698674Y544246D01*
X2698763Y544284D01*
X2698826Y544322D01*
X2698877Y544360D01*
X2698915Y544373D01*
X2698940Y544398D01*
X2698966Y544411D01*
X2699093Y544551D01*
X2699182Y544690D01*
X2699245Y544830D01*
X2699283Y544970D01*
X2699309Y545097D01*
X2699334Y545186D01*
Y545249D01*
Y545275D01*
X2699309Y545490D01*
X2699245Y545694D01*
X2699169Y545871D01*
X2699067Y546024D01*
X2698966Y546151D01*
X2698890Y546240D01*
X2698826Y546291D01*
X2698801Y546316D01*
X2698699Y546392D01*
X2698572Y546456D01*
X2698305Y546570D01*
X2698026Y546646D01*
X2697747Y546697D01*
X2697493Y546722D01*
X2697391Y546735D01*
X2697289Y546748D01*
X2696896D01*
X2696705Y546722D01*
X2696527Y546710D01*
X2696362Y546671D01*
X2696210Y546633D01*
X2696070Y546595D01*
X2695943Y546557D01*
X2695829Y546519D01*
X2695740Y546468D01*
X2695651Y546430D01*
X2695575Y546392D01*
X2695511Y546354D01*
X2695473Y546316D01*
X2695435Y546303D01*
X2695410Y546278D01*
X2695207Y546087D01*
X2695054Y545859D01*
X2694940Y545630D01*
X2694851Y545414D01*
X2694788Y545211D01*
X2694762Y545122D01*
X2694749Y545046D01*
X2694737Y544982D01*
X2694724Y544932D01*
Y544906D01*
Y544893D01*
X2693480Y544982D01*
X2693505Y545287D01*
X2693568Y545579D01*
X2693645Y545833D01*
X2693734Y546062D01*
X2693822Y546252D01*
X2693860Y546329D01*
X2693886Y546392D01*
X2693924Y546443D01*
X2693937Y546481D01*
X2693962Y546494D01*
Y546506D01*
X2694140Y546748D01*
X2694356Y546964D01*
X2694559Y547141D01*
X2694775Y547281D01*
X2694953Y547395D01*
X2695105Y547484D01*
X2695168Y547510D01*
X2695207Y547535D01*
X2695232Y547548D01*
X2695245D01*
X2695562Y547662D01*
X2695893Y547751D01*
X2696210Y547814D01*
X2696502Y547865D01*
X2696642Y547878D01*
X2696769Y547891D01*
X2696870D01*
X2696972Y547903D01*
X2697150D01*
X2697505Y547891D01*
D02*
G37*
G36*
X2650820Y675137D02*
X2654592Y670070D01*
X2653043D01*
X2650566Y673448D01*
X2650503Y673537D01*
X2650439Y673639D01*
X2650287Y673880D01*
X2650210Y673982D01*
X2650160Y674071D01*
X2650121Y674121D01*
X2650109Y674147D01*
X2649956Y673931D01*
X2649893Y673829D01*
X2649829Y673740D01*
X2649779Y673664D01*
X2649741Y673601D01*
X2649715Y673562D01*
X2649702Y673550D01*
X2647238Y670070D01*
X2645651D01*
X2649296Y675188D01*
X2645918Y679836D01*
X2647328D01*
X2649271Y677233D01*
X2649436Y677017D01*
X2649576Y676826D01*
X2649715Y676636D01*
X2649829Y676471D01*
X2649918Y676331D01*
X2649982Y676229D01*
X2650033Y676166D01*
X2650045Y676141D01*
X2650147Y676306D01*
X2650261Y676496D01*
X2650388Y676699D01*
X2650515Y676890D01*
X2650630Y677068D01*
X2650731Y677207D01*
X2650769Y677258D01*
X2650795Y677296D01*
X2650807Y677322D01*
X2650820Y677334D01*
X2652598Y679836D01*
X2654147D01*
X2650820Y675137D01*
D02*
G37*
G36*
X2608732Y670070D02*
X2607373D01*
X2605316Y677499D01*
X2605265Y677690D01*
X2605214Y677880D01*
X2605164Y678084D01*
X2605113Y678261D01*
X2605074Y678414D01*
X2605049Y678541D01*
X2605037Y678592D01*
Y678630D01*
X2605024Y678643D01*
Y678655D01*
X2605011Y678604D01*
X2604998Y678541D01*
X2604948Y678389D01*
X2604897Y678198D01*
X2604846Y677995D01*
X2604795Y677804D01*
X2604744Y677652D01*
X2604732Y677588D01*
X2604719Y677538D01*
X2604706Y677512D01*
Y677499D01*
X2602662Y670070D01*
X2601404D01*
X2598725Y679836D01*
X2600033D01*
X2601570Y673550D01*
X2601671Y673118D01*
X2601772Y672712D01*
X2601849Y672356D01*
X2601887Y672191D01*
X2601925Y672038D01*
X2601950Y671911D01*
X2601976Y671785D01*
X2602001Y671683D01*
X2602014Y671594D01*
X2602027Y671518D01*
X2602039Y671467D01*
X2602052Y671442D01*
Y671429D01*
X2602154Y672038D01*
X2602281Y672648D01*
X2602344Y672940D01*
X2602408Y673232D01*
X2602471Y673499D01*
X2602534Y673766D01*
X2602585Y673994D01*
X2602649Y674210D01*
X2602700Y674413D01*
X2602738Y674566D01*
X2602776Y674706D01*
X2602801Y674807D01*
X2602814Y674858D01*
X2602827Y674883D01*
X2604211Y679836D01*
X2605773D01*
X2607627Y673232D01*
X2607640Y673169D01*
X2607665Y673080D01*
X2607691Y672978D01*
X2607729Y672851D01*
X2607754Y672712D01*
X2607792Y672559D01*
X2607869Y672242D01*
X2607945Y671937D01*
X2607983Y671797D01*
X2608008Y671683D01*
X2608034Y671581D01*
X2608059Y671492D01*
X2608072Y671442D01*
Y671429D01*
X2608135Y671797D01*
X2608199Y672153D01*
X2608275Y672496D01*
X2608339Y672801D01*
X2608364Y672927D01*
X2608389Y673055D01*
X2608415Y673156D01*
X2608440Y673245D01*
X2608453Y673321D01*
X2608466Y673372D01*
X2608478Y673410D01*
Y673423D01*
X2609951Y679836D01*
X2611285D01*
X2608732Y670070D01*
D02*
G37*
G36*
X2591956D02*
X2590800D01*
X2588133Y677144D01*
X2589377D01*
X2590940Y672826D01*
X2591041Y672546D01*
X2591130Y672280D01*
X2591206Y672051D01*
X2591270Y671861D01*
X2591320Y671696D01*
X2591359Y671581D01*
X2591371Y671505D01*
X2591384Y671492D01*
Y671480D01*
X2591460Y671746D01*
X2591536Y672013D01*
X2591613Y672254D01*
X2591689Y672470D01*
X2591752Y672648D01*
X2591803Y672788D01*
X2591816Y672839D01*
X2591829Y672877D01*
X2591841Y672889D01*
Y672902D01*
X2593352Y677144D01*
X2594622D01*
X2591956Y670070D01*
D02*
G37*
G36*
X2719451Y537972D02*
X2718156D01*
Y542303D01*
X2716479D01*
X2716339Y542290D01*
X2716212D01*
X2716111Y542277D01*
X2716035Y542265D01*
X2715984D01*
X2715959Y542252D01*
X2715946D01*
X2715730Y542176D01*
X2715628Y542138D01*
X2715540Y542087D01*
X2715463Y542049D01*
X2715412Y542011D01*
X2715374Y541998D01*
X2715362Y541985D01*
X2715247Y541896D01*
X2715133Y541807D01*
X2715019Y541693D01*
X2714917Y541579D01*
X2714828Y541490D01*
X2714765Y541401D01*
X2714714Y541350D01*
X2714701Y541325D01*
X2714549Y541134D01*
X2714396Y540918D01*
X2714244Y540703D01*
X2714091Y540487D01*
X2713965Y540296D01*
X2713901Y540207D01*
X2713850Y540131D01*
X2713812Y540080D01*
X2713787Y540029D01*
X2713761Y540004D01*
Y539991D01*
X2712479Y537972D01*
X2710853D01*
X2712542Y540614D01*
X2712733Y540893D01*
X2712923Y541147D01*
X2713101Y541376D01*
X2713266Y541553D01*
X2713419Y541706D01*
X2713520Y541820D01*
X2713596Y541884D01*
X2713609Y541909D01*
X2713622D01*
X2713736Y541998D01*
X2713850Y542087D01*
X2714104Y542252D01*
X2714219Y542315D01*
X2714308Y542366D01*
X2714371Y542392D01*
X2714396Y542404D01*
X2714142Y542442D01*
X2713901Y542493D01*
X2713685Y542557D01*
X2713482Y542620D01*
X2713292Y542696D01*
X2713114Y542773D01*
X2712961Y542849D01*
X2712822Y542925D01*
X2712707Y543001D01*
X2712606Y543077D01*
X2712517Y543141D01*
X2712440Y543192D01*
X2712390Y543242D01*
X2712339Y543281D01*
X2712326Y543293D01*
X2712314Y543306D01*
X2712199Y543446D01*
X2712085Y543585D01*
X2711996Y543738D01*
X2711920Y543877D01*
X2711806Y544170D01*
X2711729Y544449D01*
X2711678Y544690D01*
X2711666Y544792D01*
X2711653Y544881D01*
X2711641Y544957D01*
Y545008D01*
Y545046D01*
Y545059D01*
X2711653Y545351D01*
X2711704Y545630D01*
X2711768Y545884D01*
X2711844Y546100D01*
X2711920Y546278D01*
X2711983Y546418D01*
X2712009Y546468D01*
X2712034Y546506D01*
X2712047Y546519D01*
Y546532D01*
X2712212Y546760D01*
X2712390Y546964D01*
X2712568Y547129D01*
X2712745Y547256D01*
X2712898Y547357D01*
X2713025Y547421D01*
X2713076Y547446D01*
X2713114Y547459D01*
X2713127Y547472D01*
X2713139D01*
X2713266Y547522D01*
X2713419Y547561D01*
X2713736Y547624D01*
X2714066Y547675D01*
X2714384Y547700D01*
X2714536Y547713D01*
X2714676Y547726D01*
X2714790D01*
X2714904Y547738D01*
X2719451D01*
Y537972D01*
D02*
G37*
G36*
X2723083D02*
X2721699D01*
Y539344D01*
X2723083D01*
Y537972D01*
D02*
G37*
G36*
X2709583D02*
X2702306D01*
Y539128D01*
X2708288D01*
Y542455D01*
X2702903D01*
Y543611D01*
X2708288D01*
Y546583D01*
X2702534D01*
Y547738D01*
X2709583D01*
Y537972D01*
D02*
G37*
G36*
X2683065Y546583D02*
X2679852D01*
Y537972D01*
X2678557D01*
Y546583D01*
X2675344D01*
Y547738D01*
X2683065D01*
Y546583D01*
D02*
G37*
G36*
X2691397Y537972D02*
X2684120D01*
Y539128D01*
X2690101D01*
Y542455D01*
X2684716D01*
Y543611D01*
X2690101D01*
Y546583D01*
X2684348D01*
Y547738D01*
X2691397D01*
Y537972D01*
D02*
G37*
G36*
X2573236Y679849D02*
X2573578Y679786D01*
X2573883Y679697D01*
X2574137Y679595D01*
X2574252Y679531D01*
X2574341Y679481D01*
X2574430Y679430D01*
X2574493Y679392D01*
X2574544Y679354D01*
X2574582Y679328D01*
X2574607Y679316D01*
X2574620Y679303D01*
X2574861Y679074D01*
X2575077Y678808D01*
X2575255Y678528D01*
X2575407Y678274D01*
X2575522Y678033D01*
X2575573Y677931D01*
X2575611Y677842D01*
X2575636Y677766D01*
X2575661Y677715D01*
X2575674Y677677D01*
Y677665D01*
X2575738Y677461D01*
X2575788Y677245D01*
X2575877Y676788D01*
X2575941Y676318D01*
X2575979Y675874D01*
X2576004Y675671D01*
Y675480D01*
X2576017Y675315D01*
X2576030Y675175D01*
Y675048D01*
Y674959D01*
Y674909D01*
Y674883D01*
X2576017Y674388D01*
X2575992Y673918D01*
X2575941Y673499D01*
X2575877Y673105D01*
X2575814Y672737D01*
X2575725Y672420D01*
X2575636Y672127D01*
X2575547Y671861D01*
X2575458Y671632D01*
X2575382Y671442D01*
X2575293Y671276D01*
X2575229Y671137D01*
X2575166Y671035D01*
X2575115Y670972D01*
X2575090Y670921D01*
X2575077Y670908D01*
X2574912Y670730D01*
X2574747Y670578D01*
X2574569Y670438D01*
X2574391Y670324D01*
X2574201Y670235D01*
X2574010Y670146D01*
X2573833Y670083D01*
X2573655Y670032D01*
X2573490Y669994D01*
X2573337Y669956D01*
X2573210Y669930D01*
X2573083Y669918D01*
X2572994D01*
X2572918Y669905D01*
X2572855D01*
X2572664Y669918D01*
X2572474Y669930D01*
X2572131Y669994D01*
X2571826Y670083D01*
X2571572Y670197D01*
X2571458Y670248D01*
X2571369Y670299D01*
X2571280Y670349D01*
X2571216Y670387D01*
X2571165Y670426D01*
X2571115Y670451D01*
X2571102Y670476D01*
X2571089D01*
X2570835Y670705D01*
X2570620Y670972D01*
X2570442Y671238D01*
X2570289Y671505D01*
X2570175Y671734D01*
X2570124Y671835D01*
X2570086Y671924D01*
X2570061Y672000D01*
X2570035Y672051D01*
X2570023Y672089D01*
Y672102D01*
X2569959Y672305D01*
X2569908Y672521D01*
X2569819Y672978D01*
X2569756Y673448D01*
X2569705Y673893D01*
X2569692Y674096D01*
X2569680Y674286D01*
Y674452D01*
X2569667Y674591D01*
Y674718D01*
Y674807D01*
Y674858D01*
Y674883D01*
Y675150D01*
X2569680Y675404D01*
X2569692Y675633D01*
X2569705Y675848D01*
X2569718Y676064D01*
X2569743Y676242D01*
X2569756Y676420D01*
X2569781Y676572D01*
X2569807Y676712D01*
X2569819Y676839D01*
X2569845Y676941D01*
X2569857Y677030D01*
X2569870Y677093D01*
X2569883Y677144D01*
X2569896Y677169D01*
Y677182D01*
X2569984Y677487D01*
X2570074Y677779D01*
X2570175Y678020D01*
X2570276Y678236D01*
X2570366Y678414D01*
X2570429Y678541D01*
X2570454Y678579D01*
X2570480Y678617D01*
X2570493Y678630D01*
Y678643D01*
X2570645Y678858D01*
X2570810Y679036D01*
X2570975Y679189D01*
X2571128Y679328D01*
X2571267Y679430D01*
X2571369Y679493D01*
X2571445Y679544D01*
X2571458Y679557D01*
X2571470D01*
X2571699Y679659D01*
X2571940Y679735D01*
X2572169Y679798D01*
X2572385Y679836D01*
X2572575Y679862D01*
X2572651D01*
X2572728Y679874D01*
X2573045D01*
X2573236Y679849D01*
D02*
G37*
G36*
X2617101Y679989D02*
X2617457Y679938D01*
X2617800Y679874D01*
X2618117Y679786D01*
X2618422Y679684D01*
X2618702Y679570D01*
X2618956Y679443D01*
X2619184Y679316D01*
X2619388Y679176D01*
X2619578Y679062D01*
X2619731Y678935D01*
X2619857Y678833D01*
X2619959Y678744D01*
X2620035Y678681D01*
X2620086Y678630D01*
X2620099Y678617D01*
X2620327Y678350D01*
X2620530Y678058D01*
X2620695Y677754D01*
X2620848Y677449D01*
X2620975Y677131D01*
X2621077Y676814D01*
X2621165Y676509D01*
X2621229Y676204D01*
X2621280Y675925D01*
X2621331Y675658D01*
X2621356Y675429D01*
X2621369Y675226D01*
X2621382Y675048D01*
X2621394Y674921D01*
Y674883D01*
Y674845D01*
Y674833D01*
Y674820D01*
X2621382Y674578D01*
X2621369Y674350D01*
X2621305Y673893D01*
X2621216Y673486D01*
X2621165Y673296D01*
X2621115Y673118D01*
X2621064Y672966D01*
X2621013Y672813D01*
X2620962Y672686D01*
X2620924Y672585D01*
X2620886Y672496D01*
X2620861Y672432D01*
X2620835Y672394D01*
Y672381D01*
X2620607Y671975D01*
X2620340Y671607D01*
X2620213Y671454D01*
X2620073Y671302D01*
X2619933Y671162D01*
X2619807Y671035D01*
X2619680Y670934D01*
X2619565Y670832D01*
X2619464Y670756D01*
X2619375Y670692D01*
X2619299Y670629D01*
X2619248Y670591D01*
X2619210Y670578D01*
X2619197Y670565D01*
X2618994Y670451D01*
X2618778Y670349D01*
X2618575Y670260D01*
X2618359Y670184D01*
X2617940Y670070D01*
X2617559Y669994D01*
X2617381Y669956D01*
X2617228Y669943D01*
X2617089Y669930D01*
X2616962Y669918D01*
X2616873Y669905D01*
X2616733D01*
X2616492Y669918D01*
X2616263Y669930D01*
X2615832Y669994D01*
X2615425Y670095D01*
X2615247Y670146D01*
X2615070Y670210D01*
X2614917Y670260D01*
X2614778Y670311D01*
X2614663Y670362D01*
X2614561Y670413D01*
X2614485Y670451D01*
X2614422Y670476D01*
X2614384Y670502D01*
X2614371D01*
X2614168Y670616D01*
X2613977Y670743D01*
X2613634Y671035D01*
X2613342Y671327D01*
X2613215Y671467D01*
X2613101Y671607D01*
X2612999Y671746D01*
X2612910Y671861D01*
X2612847Y671975D01*
X2612784Y672077D01*
X2612733Y672153D01*
X2612695Y672216D01*
X2612682Y672254D01*
X2612669Y672267D01*
X2612568Y672496D01*
X2612466Y672724D01*
X2612314Y673182D01*
X2612212Y673626D01*
X2612174Y673842D01*
X2612136Y674045D01*
X2612110Y674236D01*
X2612085Y674401D01*
X2612072Y674553D01*
Y674680D01*
X2612060Y674794D01*
Y674871D01*
Y674921D01*
Y674934D01*
Y675201D01*
X2612085Y675468D01*
X2612148Y675963D01*
X2612187Y676191D01*
X2612238Y676407D01*
X2612288Y676610D01*
X2612339Y676788D01*
X2612403Y676953D01*
X2612453Y677106D01*
X2612504Y677233D01*
X2612542Y677347D01*
X2612580Y677436D01*
X2612606Y677499D01*
X2612618Y677538D01*
X2612631Y677550D01*
X2612872Y677957D01*
X2612999Y678147D01*
X2613127Y678325D01*
X2613266Y678477D01*
X2613406Y678630D01*
X2613546Y678770D01*
X2613672Y678884D01*
X2613799Y678998D01*
X2613914Y679087D01*
X2614028Y679163D01*
X2614117Y679239D01*
X2614193Y679290D01*
X2614244Y679328D01*
X2614282Y679341D01*
X2614295Y679354D01*
X2614498Y679468D01*
X2614714Y679570D01*
X2614917Y679659D01*
X2615133Y679735D01*
X2615540Y679849D01*
X2615908Y679925D01*
X2616086Y679951D01*
X2616238Y679963D01*
X2616378Y679976D01*
X2616492Y679989D01*
X2616594Y680001D01*
X2616721D01*
X2617101Y679989D01*
D02*
G37*
G36*
X2547556Y414757D02*
X2542121D01*
X2542299Y414566D01*
X2542477Y414363D01*
X2542654Y414172D01*
X2542807Y413982D01*
X2542934Y413829D01*
X2543035Y413703D01*
X2543073Y413652D01*
X2543099Y413614D01*
X2543112Y413601D01*
X2543124Y413588D01*
X2548128Y407340D01*
Y406146D01*
X2540406D01*
Y407302D01*
X2546642D01*
X2546058Y407988D01*
X2540571Y414757D01*
Y415912D01*
X2547556D01*
Y414757D01*
D02*
G37*
G36*
X2531161Y410705D02*
X2534933Y405638D01*
X2533383D01*
X2530907Y409016D01*
X2530843Y409105D01*
X2530780Y409207D01*
X2530627Y409448D01*
X2530551Y409550D01*
X2530500Y409638D01*
X2530462Y409689D01*
X2530450Y409715D01*
X2530297Y409499D01*
X2530234Y409397D01*
X2530170Y409308D01*
X2530119Y409232D01*
X2530081Y409169D01*
X2530056Y409131D01*
X2530043Y409118D01*
X2527579Y405638D01*
X2525992D01*
X2529637Y410756D01*
X2526259Y415404D01*
X2527668D01*
X2529611Y412801D01*
X2529776Y412585D01*
X2529916Y412394D01*
X2530056Y412204D01*
X2530170Y412039D01*
X2530259Y411899D01*
X2530323Y411797D01*
X2530373Y411734D01*
X2530386Y411709D01*
X2530488Y411874D01*
X2530602Y412064D01*
X2530729Y412267D01*
X2530856Y412458D01*
X2530970Y412636D01*
X2531072Y412775D01*
X2531110Y412826D01*
X2531135Y412864D01*
X2531148Y412890D01*
X2531161Y412902D01*
X2532939Y415404D01*
X2534488D01*
X2531161Y410705D01*
D02*
G37*
G36*
X2543099Y420434D02*
Y416306D01*
X2541803D01*
Y420434D01*
X2537905Y426072D01*
X2539416D01*
X2541308Y423189D01*
X2541537Y422846D01*
X2541740Y422516D01*
X2541918Y422224D01*
X2542083Y421970D01*
X2542146Y421856D01*
X2542210Y421754D01*
X2542261Y421665D01*
X2542311Y421602D01*
X2542337Y421538D01*
X2542362Y421500D01*
X2542388Y421475D01*
Y421462D01*
X2542565Y421767D01*
X2542731Y422072D01*
X2542896Y422351D01*
X2543048Y422593D01*
X2543188Y422808D01*
X2543239Y422897D01*
X2543289Y422974D01*
X2543327Y423037D01*
X2543353Y423075D01*
X2543365Y423101D01*
X2543378Y423113D01*
X2545309Y426072D01*
X2546858D01*
X2543099Y420434D01*
D02*
G37*
G36*
X2645385Y673512D02*
Y672407D01*
X2641143D01*
Y670070D01*
X2639949D01*
Y672407D01*
X2638628D01*
Y673512D01*
X2639949D01*
Y679836D01*
X2640927D01*
X2645385Y673512D01*
D02*
G37*
G36*
X2662682Y670070D02*
X2661386D01*
Y674032D01*
X2658897D01*
X2658529Y674045D01*
X2658186Y674071D01*
X2657869Y674109D01*
X2657576Y674172D01*
X2657322Y674236D01*
X2657081Y674312D01*
X2656878Y674388D01*
X2656687Y674464D01*
X2656535Y674540D01*
X2656395Y674629D01*
X2656281Y674693D01*
X2656192Y674756D01*
X2656129Y674820D01*
X2656078Y674858D01*
X2656053Y674883D01*
X2656040Y674896D01*
X2655900Y675061D01*
X2655773Y675239D01*
X2655671Y675417D01*
X2655583Y675594D01*
X2655493Y675772D01*
X2655430Y675937D01*
X2655341Y676280D01*
X2655303Y676420D01*
X2655278Y676560D01*
X2655265Y676687D01*
X2655252Y676801D01*
X2655240Y676890D01*
Y676953D01*
Y676992D01*
Y677004D01*
X2655252Y677271D01*
X2655291Y677512D01*
X2655341Y677741D01*
X2655392Y677944D01*
X2655443Y678109D01*
X2655493Y678236D01*
X2655519Y678274D01*
X2655532Y678312D01*
X2655544Y678325D01*
Y678338D01*
X2655659Y678554D01*
X2655786Y678744D01*
X2655925Y678909D01*
X2656053Y679036D01*
X2656154Y679138D01*
X2656255Y679214D01*
X2656306Y679265D01*
X2656332Y679277D01*
X2656522Y679392D01*
X2656725Y679493D01*
X2656916Y679570D01*
X2657107Y679633D01*
X2657272Y679684D01*
X2657411Y679709D01*
X2657462Y679722D01*
X2657487Y679735D01*
X2657526D01*
X2657729Y679773D01*
X2657970Y679798D01*
X2658224Y679811D01*
X2658453Y679824D01*
X2658669Y679836D01*
X2662682D01*
Y670070D01*
D02*
G37*
G36*
X2636850D02*
X2635555D01*
Y674502D01*
X2630970D01*
Y675658D01*
X2635555D01*
Y678681D01*
X2630259D01*
Y679836D01*
X2636850D01*
Y670070D01*
D02*
G37*
G36*
X2579141D02*
X2577769D01*
Y671442D01*
X2579141D01*
Y670070D01*
D02*
G37*
G36*
X2628633D02*
X2622537D01*
Y671226D01*
X2627338D01*
Y679836D01*
X2628633D01*
Y670070D01*
D02*
G37*
G36*
X2723134Y545567D02*
X2722766Y540398D01*
X2721991D01*
X2721648Y545567D01*
Y547738D01*
X2723134D01*
Y545567D01*
D02*
G37*
G36*
X2630907Y520205D02*
X2631262Y520154D01*
X2631605Y520090D01*
X2631923Y520001D01*
X2632227Y519900D01*
X2632507Y519786D01*
X2632761Y519659D01*
X2632990Y519532D01*
X2633193Y519392D01*
X2633383Y519278D01*
X2633535Y519151D01*
X2633662Y519049D01*
X2633764Y518960D01*
X2633840Y518897D01*
X2633891Y518846D01*
X2633904Y518833D01*
X2634132Y518566D01*
X2634336Y518274D01*
X2634501Y517970D01*
X2634653Y517665D01*
X2634780Y517347D01*
X2634882Y517030D01*
X2634971Y516725D01*
X2635034Y516420D01*
X2635085Y516141D01*
X2635136Y515874D01*
X2635161Y515645D01*
X2635174Y515442D01*
X2635186Y515264D01*
X2635199Y515137D01*
Y515099D01*
Y515061D01*
Y515048D01*
Y515036D01*
X2635186Y514795D01*
X2635174Y514566D01*
X2635110Y514109D01*
X2635021Y513702D01*
X2634971Y513512D01*
X2634920Y513334D01*
X2634869Y513182D01*
X2634818Y513029D01*
X2634767Y512902D01*
X2634729Y512801D01*
X2634691Y512712D01*
X2634666Y512648D01*
X2634641Y512610D01*
Y512597D01*
X2634412Y512191D01*
X2634145Y511823D01*
X2634018Y511670D01*
X2633878Y511518D01*
X2633739Y511378D01*
X2633612Y511251D01*
X2633485Y511150D01*
X2633370Y511048D01*
X2633269Y510972D01*
X2633180Y510908D01*
X2633104Y510845D01*
X2633053Y510807D01*
X2633015Y510794D01*
X2633002Y510781D01*
X2632799Y510667D01*
X2632583Y510565D01*
X2632380Y510476D01*
X2632164Y510400D01*
X2631745Y510286D01*
X2631364Y510210D01*
X2631186Y510172D01*
X2631034Y510159D01*
X2630894Y510146D01*
X2630767Y510134D01*
X2630678Y510121D01*
X2630538D01*
X2630297Y510134D01*
X2630068Y510146D01*
X2629637Y510210D01*
X2629230Y510311D01*
X2629052Y510362D01*
X2628875Y510426D01*
X2628722Y510476D01*
X2628582Y510527D01*
X2628468Y510578D01*
X2628367Y510629D01*
X2628290Y510667D01*
X2628227Y510692D01*
X2628189Y510718D01*
X2628176D01*
X2627973Y510832D01*
X2627782Y510959D01*
X2627440Y511251D01*
X2627148Y511543D01*
X2627020Y511683D01*
X2626906Y511823D01*
X2626805Y511962D01*
X2626716Y512077D01*
X2626652Y512191D01*
X2626589Y512293D01*
X2626538Y512369D01*
X2626500Y512432D01*
X2626487Y512470D01*
X2626474Y512483D01*
X2626373Y512712D01*
X2626271Y512940D01*
X2626119Y513397D01*
X2626017Y513842D01*
X2625979Y514058D01*
X2625941Y514261D01*
X2625916Y514452D01*
X2625890Y514617D01*
X2625877Y514769D01*
Y514896D01*
X2625865Y515010D01*
Y515087D01*
Y515137D01*
Y515150D01*
Y515417D01*
X2625890Y515684D01*
X2625954Y516179D01*
X2625992Y516407D01*
X2626042Y516623D01*
X2626093Y516827D01*
X2626144Y517004D01*
X2626208Y517169D01*
X2626259Y517322D01*
X2626309Y517449D01*
X2626347Y517563D01*
X2626385Y517652D01*
X2626411Y517715D01*
X2626424Y517754D01*
X2626436Y517766D01*
X2626678Y518173D01*
X2626805Y518363D01*
X2626931Y518541D01*
X2627071Y518693D01*
X2627211Y518846D01*
X2627350Y518985D01*
X2627478Y519100D01*
X2627605Y519214D01*
X2627719Y519303D01*
X2627833Y519379D01*
X2627922Y519455D01*
X2627998Y519506D01*
X2628049Y519544D01*
X2628087Y519557D01*
X2628100Y519570D01*
X2628303Y519684D01*
X2628519Y519786D01*
X2628722Y519874D01*
X2628938Y519951D01*
X2629344Y520065D01*
X2629713Y520141D01*
X2629891Y520167D01*
X2630043Y520179D01*
X2630183Y520192D01*
X2630297Y520205D01*
X2630399Y520217D01*
X2630526D01*
X2630907Y520205D01*
D02*
G37*
G36*
X2630932Y738632D02*
X2627224D01*
X2626881Y738645D01*
X2626576Y738657D01*
X2626309Y738683D01*
X2626081Y738708D01*
X2625903Y738734D01*
X2625827Y738746D01*
X2625763Y738759D01*
X2625712Y738772D01*
X2625674Y738784D01*
X2625649D01*
X2625420Y738848D01*
X2625204Y738924D01*
X2625027Y739013D01*
X2624874Y739089D01*
X2624747Y739153D01*
X2624658Y739216D01*
X2624595Y739254D01*
X2624582Y739267D01*
X2624430Y739407D01*
X2624290Y739546D01*
X2624163Y739699D01*
X2624061Y739851D01*
X2623972Y739978D01*
X2623909Y740080D01*
X2623871Y740156D01*
X2623858Y740181D01*
X2623756Y740410D01*
X2623693Y740626D01*
X2623642Y740842D01*
X2623604Y741032D01*
X2623579Y741210D01*
X2623566Y741337D01*
Y741388D01*
Y741426D01*
Y741439D01*
Y741451D01*
X2623591Y741756D01*
X2623642Y742036D01*
X2623718Y742290D01*
X2623807Y742505D01*
X2623896Y742683D01*
X2623972Y742810D01*
X2623998Y742861D01*
X2624023Y742899D01*
X2624048Y742912D01*
Y742925D01*
X2624239Y743140D01*
X2624455Y743331D01*
X2624684Y743483D01*
X2624900Y743610D01*
X2625103Y743712D01*
X2625192Y743750D01*
X2625255Y743775D01*
X2625319Y743801D01*
X2625369Y743814D01*
X2625395Y743826D01*
X2625407D01*
X2625166Y743953D01*
X2624963Y744106D01*
X2624785Y744245D01*
X2624633Y744385D01*
X2624518Y744512D01*
X2624442Y744614D01*
X2624391Y744677D01*
X2624379Y744703D01*
X2624265Y744919D01*
X2624176Y745122D01*
X2624125Y745325D01*
X2624074Y745515D01*
X2624048Y745668D01*
X2624036Y745795D01*
Y745833D01*
Y745871D01*
Y745884D01*
Y745896D01*
X2624048Y746150D01*
X2624099Y746379D01*
X2624163Y746595D01*
X2624226Y746785D01*
X2624303Y746951D01*
X2624366Y747077D01*
X2624417Y747154D01*
X2624430Y747166D01*
Y747179D01*
X2624582Y747395D01*
X2624760Y747586D01*
X2624925Y747738D01*
X2625103Y747865D01*
X2625255Y747967D01*
X2625369Y748043D01*
X2625420Y748068D01*
X2625458Y748081D01*
X2625471Y748093D01*
X2625484D01*
X2625750Y748195D01*
X2626042Y748271D01*
X2626347Y748322D01*
X2626627Y748360D01*
X2626881Y748386D01*
X2626995D01*
X2627084Y748398D01*
X2630932D01*
Y738632D01*
D02*
G37*
G36*
X2641511Y520205D02*
X2641867Y520154D01*
X2642209Y520090D01*
X2642527Y520001D01*
X2642832Y519900D01*
X2643111Y519786D01*
X2643365Y519659D01*
X2643594Y519532D01*
X2643797Y519392D01*
X2643988Y519278D01*
X2644140Y519151D01*
X2644267Y519049D01*
X2644369Y518960D01*
X2644445Y518897D01*
X2644496Y518846D01*
X2644508Y518833D01*
X2644737Y518566D01*
X2644940Y518274D01*
X2645105Y517970D01*
X2645258Y517665D01*
X2645385Y517347D01*
X2645486Y517030D01*
X2645575Y516725D01*
X2645639Y516420D01*
X2645689Y516141D01*
X2645740Y515874D01*
X2645766Y515645D01*
X2645778Y515442D01*
X2645791Y515264D01*
X2645804Y515137D01*
Y515099D01*
Y515061D01*
Y515048D01*
Y515036D01*
X2645791Y514795D01*
X2645778Y514566D01*
X2645715Y514109D01*
X2645626Y513702D01*
X2645575Y513512D01*
X2645524Y513334D01*
X2645474Y513182D01*
X2645423Y513029D01*
X2645372Y512902D01*
X2645334Y512801D01*
X2645296Y512712D01*
X2645270Y512648D01*
X2645245Y512610D01*
Y512597D01*
X2645016Y512191D01*
X2644749Y511823D01*
X2644622Y511670D01*
X2644483Y511518D01*
X2644343Y511378D01*
X2644216Y511251D01*
X2644089Y511150D01*
X2643975Y511048D01*
X2643873Y510972D01*
X2643784Y510908D01*
X2643708Y510845D01*
X2643658Y510807D01*
X2643619Y510794D01*
X2643607Y510781D01*
X2643403Y510667D01*
X2643188Y510565D01*
X2642984Y510476D01*
X2642768Y510400D01*
X2642349Y510286D01*
X2641968Y510210D01*
X2641790Y510172D01*
X2641638Y510159D01*
X2641498Y510146D01*
X2641371Y510134D01*
X2641282Y510121D01*
X2641143D01*
X2640901Y510134D01*
X2640673Y510146D01*
X2640241Y510210D01*
X2639835Y510311D01*
X2639657Y510362D01*
X2639479Y510426D01*
X2639327Y510476D01*
X2639187Y510527D01*
X2639073Y510578D01*
X2638971Y510629D01*
X2638895Y510667D01*
X2638831Y510692D01*
X2638793Y510718D01*
X2638781D01*
X2638577Y510832D01*
X2638387Y510959D01*
X2638044Y511251D01*
X2637752Y511543D01*
X2637625Y511683D01*
X2637511Y511823D01*
X2637409Y511962D01*
X2637320Y512077D01*
X2637256Y512191D01*
X2637193Y512293D01*
X2637142Y512369D01*
X2637104Y512432D01*
X2637091Y512470D01*
X2637079Y512483D01*
X2636977Y512712D01*
X2636876Y512940D01*
X2636723Y513397D01*
X2636622Y513842D01*
X2636584Y514058D01*
X2636545Y514261D01*
X2636520Y514452D01*
X2636495Y514617D01*
X2636482Y514769D01*
Y514896D01*
X2636469Y515010D01*
Y515087D01*
Y515137D01*
Y515150D01*
Y515417D01*
X2636495Y515684D01*
X2636558Y516179D01*
X2636596Y516407D01*
X2636647Y516623D01*
X2636698Y516827D01*
X2636749Y517004D01*
X2636812Y517169D01*
X2636863Y517322D01*
X2636914Y517449D01*
X2636952Y517563D01*
X2636990Y517652D01*
X2637015Y517715D01*
X2637028Y517754D01*
X2637041Y517766D01*
X2637282Y518173D01*
X2637409Y518363D01*
X2637536Y518541D01*
X2637676Y518693D01*
X2637816Y518846D01*
X2637955Y518985D01*
X2638082Y519100D01*
X2638209Y519214D01*
X2638323Y519303D01*
X2638438Y519379D01*
X2638527Y519455D01*
X2638603Y519506D01*
X2638654Y519544D01*
X2638692Y519557D01*
X2638705Y519570D01*
X2638907Y519684D01*
X2639124Y519786D01*
X2639327Y519874D01*
X2639543Y519951D01*
X2639949Y520065D01*
X2640317Y520141D01*
X2640495Y520167D01*
X2640648Y520179D01*
X2640787Y520192D01*
X2640901Y520205D01*
X2641003Y520217D01*
X2641130D01*
X2641511Y520205D01*
D02*
G37*
G36*
X2654554Y510286D02*
X2650846D01*
X2650503Y510299D01*
X2650198Y510311D01*
X2649931Y510337D01*
X2649702Y510362D01*
X2649525Y510388D01*
X2649449Y510400D01*
X2649385Y510413D01*
X2649334Y510426D01*
X2649296Y510438D01*
X2649271D01*
X2649042Y510502D01*
X2648826Y510578D01*
X2648648Y510667D01*
X2648496Y510743D01*
X2648369Y510807D01*
X2648280Y510870D01*
X2648217Y510908D01*
X2648204Y510921D01*
X2648051Y511061D01*
X2647912Y511200D01*
X2647785Y511353D01*
X2647683Y511505D01*
X2647594Y511632D01*
X2647531Y511734D01*
X2647493Y511810D01*
X2647480Y511835D01*
X2647379Y512064D01*
X2647315Y512280D01*
X2647264Y512496D01*
X2647226Y512686D01*
X2647201Y512864D01*
X2647188Y512991D01*
Y513042D01*
Y513080D01*
Y513093D01*
Y513105D01*
X2647213Y513410D01*
X2647264Y513690D01*
X2647340Y513944D01*
X2647429Y514160D01*
X2647518Y514337D01*
X2647594Y514464D01*
X2647620Y514515D01*
X2647645Y514553D01*
X2647671Y514566D01*
Y514579D01*
X2647861Y514795D01*
X2648077Y514985D01*
X2648306Y515137D01*
X2648521Y515264D01*
X2648725Y515366D01*
X2648813Y515404D01*
X2648877Y515429D01*
X2648941Y515455D01*
X2648991Y515468D01*
X2649017Y515480D01*
X2649030D01*
X2648788Y515607D01*
X2648585Y515760D01*
X2648407Y515899D01*
X2648255Y516039D01*
X2648141Y516166D01*
X2648064Y516268D01*
X2648014Y516331D01*
X2648001Y516357D01*
X2647886Y516572D01*
X2647798Y516776D01*
X2647747Y516979D01*
X2647696Y517169D01*
X2647671Y517322D01*
X2647658Y517449D01*
Y517487D01*
Y517525D01*
Y517538D01*
Y517550D01*
X2647671Y517804D01*
X2647721Y518033D01*
X2647785Y518249D01*
X2647849Y518439D01*
X2647924Y518605D01*
X2647988Y518731D01*
X2648039Y518808D01*
X2648051Y518820D01*
Y518833D01*
X2648204Y519049D01*
X2648382Y519240D01*
X2648547Y519392D01*
X2648725Y519519D01*
X2648877Y519621D01*
X2648991Y519697D01*
X2649042Y519722D01*
X2649080Y519735D01*
X2649093Y519748D01*
X2649106D01*
X2649372Y519849D01*
X2649665Y519925D01*
X2649969Y519976D01*
X2650249Y520014D01*
X2650503Y520040D01*
X2650617D01*
X2650706Y520052D01*
X2654554D01*
Y510286D01*
D02*
G37*
G36*
X2624938Y518897D02*
X2621725D01*
Y510286D01*
X2620429D01*
Y518897D01*
X2617216D01*
Y520052D01*
X2624938D01*
Y518897D01*
D02*
G37*
G36*
X2589937Y748411D02*
X2590279Y748347D01*
X2590584Y748259D01*
X2590838Y748157D01*
X2590952Y748093D01*
X2591041Y748043D01*
X2591130Y747992D01*
X2591194Y747954D01*
X2591245Y747916D01*
X2591283Y747890D01*
X2591308Y747878D01*
X2591321Y747865D01*
X2591562Y747636D01*
X2591778Y747370D01*
X2591956Y747090D01*
X2592108Y746836D01*
X2592222Y746595D01*
X2592273Y746493D01*
X2592311Y746404D01*
X2592337Y746328D01*
X2592362Y746277D01*
X2592375Y746239D01*
Y746227D01*
X2592438Y746023D01*
X2592489Y745807D01*
X2592578Y745350D01*
X2592642Y744880D01*
X2592680Y744436D01*
X2592705Y744233D01*
Y744042D01*
X2592718Y743877D01*
X2592730Y743737D01*
Y743610D01*
Y743521D01*
Y743471D01*
Y743445D01*
X2592718Y742950D01*
X2592692Y742480D01*
X2592642Y742061D01*
X2592578Y741667D01*
X2592515Y741299D01*
X2592426Y740982D01*
X2592337Y740689D01*
X2592248Y740423D01*
X2592159Y740194D01*
X2592083Y740004D01*
X2591994Y739838D01*
X2591930Y739699D01*
X2591867Y739597D01*
X2591816Y739534D01*
X2591790Y739483D01*
X2591778Y739470D01*
X2591613Y739292D01*
X2591448Y739140D01*
X2591270Y739000D01*
X2591092Y738886D01*
X2590901Y738797D01*
X2590711Y738708D01*
X2590533Y738645D01*
X2590356Y738594D01*
X2590190Y738556D01*
X2590038Y738518D01*
X2589911Y738492D01*
X2589784Y738480D01*
X2589695D01*
X2589619Y738467D01*
X2589555D01*
X2589365Y738480D01*
X2589174Y738492D01*
X2588831Y738556D01*
X2588527Y738645D01*
X2588273Y738759D01*
X2588158Y738810D01*
X2588069Y738861D01*
X2587981Y738911D01*
X2587917Y738950D01*
X2587866Y738988D01*
X2587816Y739013D01*
X2587803Y739038D01*
X2587790D01*
X2587536Y739267D01*
X2587320Y739534D01*
X2587142Y739800D01*
X2586990Y740067D01*
X2586876Y740296D01*
X2586825Y740397D01*
X2586787Y740486D01*
X2586761Y740562D01*
X2586736Y740613D01*
X2586723Y740651D01*
Y740664D01*
X2586660Y740867D01*
X2586609Y741083D01*
X2586520Y741540D01*
X2586457Y742010D01*
X2586406Y742455D01*
X2586393Y742658D01*
X2586380Y742848D01*
Y743014D01*
X2586368Y743153D01*
Y743280D01*
Y743369D01*
Y743420D01*
Y743445D01*
Y743712D01*
X2586380Y743966D01*
X2586393Y744195D01*
X2586406Y744410D01*
X2586418Y744626D01*
X2586444Y744804D01*
X2586457Y744982D01*
X2586482Y745134D01*
X2586507Y745274D01*
X2586520Y745401D01*
X2586545Y745503D01*
X2586558Y745592D01*
X2586571Y745655D01*
X2586584Y745706D01*
X2586596Y745731D01*
Y745744D01*
X2586685Y746049D01*
X2586774Y746341D01*
X2586876Y746582D01*
X2586977Y746798D01*
X2587066Y746976D01*
X2587130Y747103D01*
X2587155Y747141D01*
X2587180Y747179D01*
X2587193Y747192D01*
Y747205D01*
X2587346Y747420D01*
X2587511Y747598D01*
X2587676Y747751D01*
X2587828Y747890D01*
X2587968Y747992D01*
X2588069Y748055D01*
X2588146Y748106D01*
X2588158Y748119D01*
X2588171D01*
X2588400Y748221D01*
X2588641Y748297D01*
X2588870Y748360D01*
X2589085Y748398D01*
X2589276Y748424D01*
X2589352D01*
X2589428Y748436D01*
X2589746D01*
X2589937Y748411D01*
D02*
G37*
G36*
X2612758Y519849D02*
X2612923Y519621D01*
X2613101Y519392D01*
X2613266Y519201D01*
X2613431Y519024D01*
X2613558Y518897D01*
X2613609Y518846D01*
X2613647Y518808D01*
X2613673Y518795D01*
X2613685Y518782D01*
X2613977Y518541D01*
X2614270Y518325D01*
X2614574Y518122D01*
X2614841Y517957D01*
X2615082Y517830D01*
X2615184Y517766D01*
X2615273Y517728D01*
X2615336Y517690D01*
X2615387Y517665D01*
X2615425Y517639D01*
X2615438D01*
Y516471D01*
X2615222Y516560D01*
X2615006Y516661D01*
X2614790Y516763D01*
X2614600Y516865D01*
X2614435Y516954D01*
X2614295Y517030D01*
X2614244Y517055D01*
X2614206Y517080D01*
X2614193Y517093D01*
X2614181D01*
X2613927Y517246D01*
X2613711Y517398D01*
X2613508Y517538D01*
X2613343Y517665D01*
X2613216Y517766D01*
X2613114Y517855D01*
X2613063Y517906D01*
X2613038Y517919D01*
Y510286D01*
X2611844D01*
Y520090D01*
X2612619D01*
X2612758Y519849D01*
D02*
G37*
G36*
X2607285Y748551D02*
X2607640Y748500D01*
X2607983Y748436D01*
X2608300Y748347D01*
X2608605Y748246D01*
X2608885Y748132D01*
X2609139Y748005D01*
X2609367Y747878D01*
X2609571Y747738D01*
X2609761Y747624D01*
X2609914Y747497D01*
X2610041Y747395D01*
X2610142Y747306D01*
X2610218Y747243D01*
X2610269Y747192D01*
X2610282Y747179D01*
X2610510Y746912D01*
X2610714Y746620D01*
X2610879Y746316D01*
X2611031Y746011D01*
X2611158Y745693D01*
X2611260Y745376D01*
X2611349Y745071D01*
X2611412Y744766D01*
X2611463Y744487D01*
X2611514Y744220D01*
X2611539Y743991D01*
X2611552Y743788D01*
X2611565Y743610D01*
X2611577Y743483D01*
Y743445D01*
Y743407D01*
Y743394D01*
Y743382D01*
X2611565Y743140D01*
X2611552Y742912D01*
X2611488Y742455D01*
X2611400Y742048D01*
X2611349Y741858D01*
X2611298Y741680D01*
X2611247Y741528D01*
X2611196Y741375D01*
X2611145Y741248D01*
X2611107Y741147D01*
X2611069Y741058D01*
X2611044Y740994D01*
X2611018Y740956D01*
Y740943D01*
X2610790Y740537D01*
X2610523Y740169D01*
X2610396Y740016D01*
X2610256Y739864D01*
X2610117Y739724D01*
X2609990Y739597D01*
X2609863Y739496D01*
X2609749Y739394D01*
X2609647Y739318D01*
X2609558Y739254D01*
X2609482Y739191D01*
X2609431Y739153D01*
X2609393Y739140D01*
X2609380Y739127D01*
X2609177Y739013D01*
X2608961Y738911D01*
X2608758Y738822D01*
X2608542Y738746D01*
X2608123Y738632D01*
X2607742Y738556D01*
X2607564Y738518D01*
X2607411Y738505D01*
X2607272Y738492D01*
X2607145Y738480D01*
X2607056Y738467D01*
X2606916D01*
X2606675Y738480D01*
X2606447Y738492D01*
X2606015Y738556D01*
X2605608Y738657D01*
X2605430Y738708D01*
X2605253Y738772D01*
X2605100Y738822D01*
X2604961Y738873D01*
X2604846Y738924D01*
X2604745Y738975D01*
X2604668Y739013D01*
X2604605Y739038D01*
X2604567Y739064D01*
X2604554D01*
X2604351Y739178D01*
X2604160Y739305D01*
X2603817Y739597D01*
X2603525Y739889D01*
X2603398Y740029D01*
X2603284Y740169D01*
X2603182Y740308D01*
X2603094Y740423D01*
X2603030Y740537D01*
X2602967Y740639D01*
X2602916Y740715D01*
X2602878Y740778D01*
X2602865Y740816D01*
X2602852Y740829D01*
X2602751Y741058D01*
X2602649Y741286D01*
X2602497Y741743D01*
X2602395Y742188D01*
X2602357Y742404D01*
X2602319Y742607D01*
X2602293Y742798D01*
X2602268Y742963D01*
X2602255Y743115D01*
Y743242D01*
X2602243Y743356D01*
Y743433D01*
Y743483D01*
Y743496D01*
Y743763D01*
X2602268Y744029D01*
X2602332Y744525D01*
X2602370Y744753D01*
X2602420Y744969D01*
X2602471Y745173D01*
X2602522Y745350D01*
X2602585Y745515D01*
X2602636Y745668D01*
X2602687Y745795D01*
X2602725Y745909D01*
X2602763Y745998D01*
X2602789Y746061D01*
X2602802Y746100D01*
X2602814Y746112D01*
X2603055Y746519D01*
X2603182Y746709D01*
X2603310Y746887D01*
X2603449Y747039D01*
X2603589Y747192D01*
X2603729Y747331D01*
X2603856Y747446D01*
X2603983Y747560D01*
X2604097Y747649D01*
X2604211Y747725D01*
X2604300Y747801D01*
X2604376Y747852D01*
X2604427Y747890D01*
X2604465Y747903D01*
X2604478Y747916D01*
X2604681Y748030D01*
X2604897Y748132D01*
X2605100Y748221D01*
X2605316Y748297D01*
X2605722Y748411D01*
X2606091Y748487D01*
X2606269Y748513D01*
X2606421Y748525D01*
X2606561Y748538D01*
X2606675Y748551D01*
X2606777Y748563D01*
X2606904D01*
X2607285Y748551D01*
D02*
G37*
G36*
X2601316Y747243D02*
X2598102D01*
Y738632D01*
X2596807D01*
Y747243D01*
X2593594D01*
Y748398D01*
X2601316D01*
Y747243D01*
D02*
G37*
G36*
X2617889Y748551D02*
X2618245Y748500D01*
X2618588Y748436D01*
X2618905Y748347D01*
X2619210Y748246D01*
X2619489Y748132D01*
X2619743Y748005D01*
X2619972Y747878D01*
X2620175Y747738D01*
X2620366Y747624D01*
X2620518Y747497D01*
X2620645Y747395D01*
X2620746Y747306D01*
X2620823Y747243D01*
X2620874Y747192D01*
X2620886Y747179D01*
X2621115Y746912D01*
X2621318Y746620D01*
X2621483Y746316D01*
X2621636Y746011D01*
X2621763Y745693D01*
X2621864Y745376D01*
X2621953Y745071D01*
X2622017Y744766D01*
X2622067Y744487D01*
X2622118Y744220D01*
X2622144Y743991D01*
X2622156Y743788D01*
X2622169Y743610D01*
X2622182Y743483D01*
Y743445D01*
Y743407D01*
Y743394D01*
Y743382D01*
X2622169Y743140D01*
X2622156Y742912D01*
X2622093Y742455D01*
X2622004Y742048D01*
X2621953Y741858D01*
X2621902Y741680D01*
X2621852Y741528D01*
X2621801Y741375D01*
X2621750Y741248D01*
X2621712Y741147D01*
X2621674Y741058D01*
X2621648Y740994D01*
X2621623Y740956D01*
Y740943D01*
X2621394Y740537D01*
X2621128Y740169D01*
X2621001Y740016D01*
X2620861Y739864D01*
X2620721Y739724D01*
X2620594Y739597D01*
X2620467Y739496D01*
X2620353Y739394D01*
X2620251Y739318D01*
X2620162Y739254D01*
X2620086Y739191D01*
X2620035Y739153D01*
X2619997Y739140D01*
X2619985Y739127D01*
X2619781Y739013D01*
X2619565Y738911D01*
X2619362Y738822D01*
X2619146Y738746D01*
X2618727Y738632D01*
X2618346Y738556D01*
X2618169Y738518D01*
X2618016Y738505D01*
X2617876Y738492D01*
X2617749Y738480D01*
X2617661Y738467D01*
X2617521D01*
X2617279Y738480D01*
X2617051Y738492D01*
X2616619Y738556D01*
X2616213Y738657D01*
X2616035Y738708D01*
X2615857Y738772D01*
X2615705Y738822D01*
X2615565Y738873D01*
X2615451Y738924D01*
X2615349Y738975D01*
X2615273Y739013D01*
X2615209Y739038D01*
X2615171Y739064D01*
X2615159D01*
X2614955Y739178D01*
X2614765Y739305D01*
X2614422Y739597D01*
X2614130Y739889D01*
X2614003Y740029D01*
X2613889Y740169D01*
X2613787Y740308D01*
X2613698Y740423D01*
X2613635Y740537D01*
X2613571Y740639D01*
X2613520Y740715D01*
X2613482Y740778D01*
X2613470Y740816D01*
X2613457Y740829D01*
X2613355Y741058D01*
X2613253Y741286D01*
X2613101Y741743D01*
X2613000Y742188D01*
X2612961Y742404D01*
X2612923Y742607D01*
X2612898Y742798D01*
X2612873Y742963D01*
X2612860Y743115D01*
Y743242D01*
X2612847Y743356D01*
Y743433D01*
Y743483D01*
Y743496D01*
Y743763D01*
X2612873Y744029D01*
X2612936Y744525D01*
X2612974Y744753D01*
X2613025Y744969D01*
X2613076Y745173D01*
X2613127Y745350D01*
X2613190Y745515D01*
X2613241Y745668D01*
X2613292Y745795D01*
X2613330Y745909D01*
X2613368Y745998D01*
X2613393Y746061D01*
X2613406Y746100D01*
X2613419Y746112D01*
X2613660Y746519D01*
X2613787Y746709D01*
X2613914Y746887D01*
X2614054Y747039D01*
X2614193Y747192D01*
X2614333Y747331D01*
X2614460Y747446D01*
X2614587Y747560D01*
X2614702Y747649D01*
X2614816Y747725D01*
X2614904Y747801D01*
X2614981Y747852D01*
X2615032Y747890D01*
X2615070Y747903D01*
X2615082Y747916D01*
X2615286Y748030D01*
X2615501Y748132D01*
X2615705Y748221D01*
X2615921Y748297D01*
X2616327Y748411D01*
X2616695Y748487D01*
X2616873Y748513D01*
X2617025Y748525D01*
X2617165Y748538D01*
X2617279Y748551D01*
X2617381Y748563D01*
X2617508D01*
X2617889Y748551D01*
D02*
G37*
%LPC*%
G36*
X2653259Y514795D02*
X2651011D01*
X2650681Y514782D01*
X2650401Y514769D01*
X2650147Y514744D01*
X2649957Y514718D01*
X2649792Y514680D01*
X2649677Y514655D01*
X2649614Y514642D01*
X2649588Y514629D01*
X2649410Y514553D01*
X2649258Y514477D01*
X2649131Y514375D01*
X2649017Y514286D01*
X2648928Y514198D01*
X2648864Y514121D01*
X2648826Y514071D01*
X2648813Y514058D01*
X2648712Y513905D01*
X2648648Y513740D01*
X2648598Y513588D01*
X2648560Y513436D01*
X2648534Y513309D01*
X2648521Y513207D01*
Y513144D01*
Y513118D01*
X2648534Y512953D01*
X2648547Y512788D01*
X2648585Y512648D01*
X2648623Y512534D01*
X2648661Y512432D01*
X2648687Y512356D01*
X2648712Y512305D01*
X2648725Y512293D01*
X2648801Y512166D01*
X2648877Y512064D01*
X2648966Y511962D01*
X2649042Y511886D01*
X2649118Y511823D01*
X2649169Y511785D01*
X2649207Y511759D01*
X2649220Y511746D01*
X2649334Y511683D01*
X2649461Y511619D01*
X2649576Y511581D01*
X2649702Y511543D01*
X2649804Y511518D01*
X2649880Y511493D01*
X2649931Y511480D01*
X2649957D01*
X2650071Y511467D01*
X2650198Y511454D01*
X2650490Y511442D01*
X2653259D01*
Y514795D01*
D02*
G37*
G36*
Y518897D02*
X2650947D01*
X2650782Y518884D01*
X2650642Y518871D01*
X2650503Y518858D01*
X2650376D01*
X2650274Y518846D01*
X2650172Y518833D01*
X2650020Y518808D01*
X2649919Y518782D01*
X2649855Y518770D01*
X2649830Y518757D01*
X2649677Y518693D01*
X2649537Y518617D01*
X2649436Y518541D01*
X2649334Y518452D01*
X2649258Y518376D01*
X2649207Y518312D01*
X2649182Y518262D01*
X2649169Y518249D01*
X2649093Y518109D01*
X2649030Y517957D01*
X2648991Y517817D01*
X2648953Y517690D01*
X2648941Y517576D01*
X2648928Y517474D01*
Y517423D01*
Y517398D01*
X2648941Y517207D01*
X2648966Y517042D01*
X2649004Y516890D01*
X2649055Y516776D01*
X2649106Y516674D01*
X2649144Y516598D01*
X2649169Y516547D01*
X2649182Y516534D01*
X2649283Y516420D01*
X2649410Y516319D01*
X2649525Y516242D01*
X2649652Y516166D01*
X2649766Y516115D01*
X2649855Y516077D01*
X2649906Y516064D01*
X2649931Y516052D01*
X2650084Y516014D01*
X2650274Y515988D01*
X2650477Y515976D01*
X2650681Y515963D01*
X2650858Y515950D01*
X2653259D01*
Y518897D01*
D02*
G37*
G36*
X2630652Y519100D02*
X2630526D01*
X2630170Y519074D01*
X2629840Y519024D01*
X2629548Y518947D01*
X2629294Y518858D01*
X2629179Y518808D01*
X2629078Y518757D01*
X2628989Y518719D01*
X2628925Y518681D01*
X2628862Y518655D01*
X2628824Y518630D01*
X2628799Y518605D01*
X2628786D01*
X2628506Y518401D01*
X2628278Y518185D01*
X2628075Y517957D01*
X2627910Y517741D01*
X2627770Y517538D01*
X2627719Y517449D01*
X2627681Y517385D01*
X2627643Y517322D01*
X2627617Y517271D01*
X2627605Y517246D01*
Y517233D01*
X2627465Y516890D01*
X2627363Y516534D01*
X2627300Y516179D01*
X2627249Y515861D01*
X2627236Y515709D01*
X2627224Y515569D01*
X2627211Y515455D01*
X2627198Y515353D01*
Y515264D01*
Y515201D01*
Y515163D01*
Y515150D01*
X2627211Y514807D01*
X2627236Y514490D01*
X2627287Y514185D01*
X2627350Y513905D01*
X2627414Y513639D01*
X2627503Y513410D01*
X2627579Y513182D01*
X2627668Y512991D01*
X2627757Y512813D01*
X2627846Y512661D01*
X2627935Y512534D01*
X2627998Y512432D01*
X2628062Y512343D01*
X2628112Y512293D01*
X2628138Y512254D01*
X2628151Y512242D01*
X2628329Y512064D01*
X2628519Y511912D01*
X2628722Y511772D01*
X2628925Y511658D01*
X2629129Y511556D01*
X2629319Y511480D01*
X2629522Y511404D01*
X2629700Y511353D01*
X2629878Y511315D01*
X2630043Y511277D01*
X2630183Y511251D01*
X2630310Y511239D01*
X2630411D01*
X2630487Y511226D01*
X2630551D01*
X2630818Y511239D01*
X2631059Y511264D01*
X2631300Y511315D01*
X2631516Y511378D01*
X2631732Y511454D01*
X2631923Y511543D01*
X2632113Y511632D01*
X2632266Y511734D01*
X2632418Y511823D01*
X2632545Y511912D01*
X2632659Y512001D01*
X2632748Y512077D01*
X2632824Y512140D01*
X2632888Y512191D01*
X2632913Y512216D01*
X2632926Y512229D01*
X2633091Y512432D01*
X2633231Y512635D01*
X2633358Y512864D01*
X2633472Y513093D01*
X2633561Y513321D01*
X2633637Y513550D01*
X2633701Y513778D01*
X2633752Y514007D01*
X2633789Y514210D01*
X2633815Y514401D01*
X2633840Y514566D01*
X2633853Y514718D01*
Y514845D01*
X2633866Y514934D01*
Y514985D01*
Y515010D01*
X2633853Y515404D01*
X2633828Y515772D01*
X2633777Y516115D01*
X2633713Y516433D01*
X2633637Y516712D01*
X2633561Y516966D01*
X2633472Y517195D01*
X2633370Y517398D01*
X2633282Y517576D01*
X2633193Y517728D01*
X2633116Y517868D01*
X2633040Y517970D01*
X2632977Y518046D01*
X2632926Y518109D01*
X2632900Y518135D01*
X2632888Y518147D01*
X2632697Y518312D01*
X2632507Y518465D01*
X2632303Y518592D01*
X2632101Y518693D01*
X2631897Y518795D01*
X2631707Y518871D01*
X2631516Y518935D01*
X2631339Y518985D01*
X2631161Y519024D01*
X2631008Y519049D01*
X2630869Y519074D01*
X2630754Y519087D01*
X2630652Y519100D01*
D02*
G37*
G36*
X2641257D02*
X2641130D01*
X2640775Y519074D01*
X2640444Y519024D01*
X2640152Y518947D01*
X2639898Y518858D01*
X2639784Y518808D01*
X2639682Y518757D01*
X2639594Y518719D01*
X2639530Y518681D01*
X2639466Y518655D01*
X2639428Y518630D01*
X2639403Y518605D01*
X2639390D01*
X2639111Y518401D01*
X2638882Y518185D01*
X2638679Y517957D01*
X2638514Y517741D01*
X2638374Y517538D01*
X2638323Y517449D01*
X2638285Y517385D01*
X2638247Y517322D01*
X2638222Y517271D01*
X2638209Y517246D01*
Y517233D01*
X2638069Y516890D01*
X2637968Y516534D01*
X2637904Y516179D01*
X2637853Y515861D01*
X2637841Y515709D01*
X2637828Y515569D01*
X2637816Y515455D01*
X2637803Y515353D01*
Y515264D01*
Y515201D01*
Y515163D01*
Y515150D01*
X2637816Y514807D01*
X2637841Y514490D01*
X2637892Y514185D01*
X2637955Y513905D01*
X2638018Y513639D01*
X2638108Y513410D01*
X2638184Y513182D01*
X2638273Y512991D01*
X2638362Y512813D01*
X2638450Y512661D01*
X2638539Y512534D01*
X2638603Y512432D01*
X2638666Y512343D01*
X2638717Y512293D01*
X2638742Y512254D01*
X2638755Y512242D01*
X2638933Y512064D01*
X2639124Y511912D01*
X2639327Y511772D01*
X2639530Y511658D01*
X2639733Y511556D01*
X2639924Y511480D01*
X2640127Y511404D01*
X2640305Y511353D01*
X2640482Y511315D01*
X2640648Y511277D01*
X2640787Y511251D01*
X2640914Y511239D01*
X2641016D01*
X2641092Y511226D01*
X2641155D01*
X2641422Y511239D01*
X2641664Y511264D01*
X2641905Y511315D01*
X2642121Y511378D01*
X2642337Y511454D01*
X2642527Y511543D01*
X2642718Y511632D01*
X2642870Y511734D01*
X2643022Y511823D01*
X2643149Y511912D01*
X2643264Y512001D01*
X2643353Y512077D01*
X2643429Y512140D01*
X2643492Y512191D01*
X2643518Y512216D01*
X2643530Y512229D01*
X2643695Y512432D01*
X2643835Y512635D01*
X2643962Y512864D01*
X2644077Y513093D01*
X2644165Y513321D01*
X2644242Y513550D01*
X2644305Y513778D01*
X2644356Y514007D01*
X2644394Y514210D01*
X2644419Y514401D01*
X2644445Y514566D01*
X2644457Y514718D01*
Y514845D01*
X2644470Y514934D01*
Y514985D01*
Y515010D01*
X2644457Y515404D01*
X2644432Y515772D01*
X2644381Y516115D01*
X2644318Y516433D01*
X2644242Y516712D01*
X2644165Y516966D01*
X2644077Y517195D01*
X2643975Y517398D01*
X2643886Y517576D01*
X2643797Y517728D01*
X2643721Y517868D01*
X2643645Y517970D01*
X2643581Y518046D01*
X2643530Y518109D01*
X2643505Y518135D01*
X2643492Y518147D01*
X2643302Y518312D01*
X2643111Y518465D01*
X2642908Y518592D01*
X2642705Y518693D01*
X2642502Y518795D01*
X2642311Y518871D01*
X2642121Y518935D01*
X2641943Y518985D01*
X2641765Y519024D01*
X2641613Y519049D01*
X2641473Y519074D01*
X2641359Y519087D01*
X2641257Y519100D01*
D02*
G37*
G36*
X2629637Y747243D02*
X2627325D01*
X2627160Y747230D01*
X2627020Y747217D01*
X2626881Y747205D01*
X2626754D01*
X2626652Y747192D01*
X2626551Y747179D01*
X2626398Y747154D01*
X2626296Y747128D01*
X2626233Y747116D01*
X2626208Y747103D01*
X2626055Y747039D01*
X2625916Y746963D01*
X2625814Y746887D01*
X2625712Y746798D01*
X2625636Y746722D01*
X2625585Y746658D01*
X2625560Y746608D01*
X2625547Y746595D01*
X2625471Y746455D01*
X2625407Y746303D01*
X2625369Y746163D01*
X2625331Y746036D01*
X2625319Y745922D01*
X2625306Y745820D01*
Y745769D01*
Y745744D01*
X2625319Y745554D01*
X2625344Y745388D01*
X2625382Y745236D01*
X2625433Y745122D01*
X2625484Y745020D01*
X2625522Y744944D01*
X2625547Y744893D01*
X2625560Y744880D01*
X2625662Y744766D01*
X2625789Y744665D01*
X2625903Y744588D01*
X2626030Y744512D01*
X2626144Y744461D01*
X2626233Y744423D01*
X2626284Y744410D01*
X2626309Y744398D01*
X2626461Y744360D01*
X2626652Y744334D01*
X2626855Y744322D01*
X2627058Y744309D01*
X2627236Y744296D01*
X2629637D01*
Y747243D01*
D02*
G37*
G36*
X2607031Y747446D02*
X2606904D01*
X2606548Y747420D01*
X2606218Y747370D01*
X2605926Y747293D01*
X2605672Y747205D01*
X2605557Y747154D01*
X2605456Y747103D01*
X2605367Y747065D01*
X2605303Y747027D01*
X2605240Y747001D01*
X2605202Y746976D01*
X2605176Y746951D01*
X2605164D01*
X2604884Y746747D01*
X2604656Y746531D01*
X2604453Y746303D01*
X2604287Y746087D01*
X2604148Y745884D01*
X2604097Y745795D01*
X2604059Y745731D01*
X2604021Y745668D01*
X2603995Y745617D01*
X2603983Y745592D01*
Y745579D01*
X2603843Y745236D01*
X2603741Y744880D01*
X2603678Y744525D01*
X2603627Y744207D01*
X2603614Y744055D01*
X2603602Y743915D01*
X2603589Y743801D01*
X2603576Y743699D01*
Y743610D01*
Y743547D01*
Y743509D01*
Y743496D01*
X2603589Y743153D01*
X2603614Y742836D01*
X2603665Y742531D01*
X2603729Y742252D01*
X2603792Y741985D01*
X2603881Y741756D01*
X2603957Y741528D01*
X2604046Y741337D01*
X2604135Y741159D01*
X2604224Y741007D01*
X2604313Y740880D01*
X2604376Y740778D01*
X2604440Y740689D01*
X2604491Y740639D01*
X2604516Y740601D01*
X2604529Y740588D01*
X2604706Y740410D01*
X2604897Y740258D01*
X2605100Y740118D01*
X2605303Y740004D01*
X2605507Y739902D01*
X2605697Y739826D01*
X2605900Y739750D01*
X2606078Y739699D01*
X2606256Y739661D01*
X2606421Y739623D01*
X2606561Y739597D01*
X2606688Y739585D01*
X2606789D01*
X2606866Y739572D01*
X2606929D01*
X2607196Y739585D01*
X2607437Y739610D01*
X2607678Y739661D01*
X2607894Y739724D01*
X2608110Y739800D01*
X2608300Y739889D01*
X2608491Y739978D01*
X2608643Y740080D01*
X2608796Y740169D01*
X2608923Y740258D01*
X2609037Y740347D01*
X2609126Y740423D01*
X2609202Y740486D01*
X2609266Y740537D01*
X2609291Y740562D01*
X2609304Y740575D01*
X2609469Y740778D01*
X2609609Y740982D01*
X2609736Y741210D01*
X2609850Y741439D01*
X2609939Y741667D01*
X2610015Y741896D01*
X2610079Y742124D01*
X2610129Y742353D01*
X2610168Y742556D01*
X2610193Y742747D01*
X2610218Y742912D01*
X2610231Y743064D01*
Y743191D01*
X2610244Y743280D01*
Y743331D01*
Y743356D01*
X2610231Y743750D01*
X2610206Y744118D01*
X2610155Y744461D01*
X2610091Y744779D01*
X2610015Y745058D01*
X2609939Y745312D01*
X2609850Y745541D01*
X2609749Y745744D01*
X2609659Y745922D01*
X2609571Y746074D01*
X2609494Y746214D01*
X2609418Y746316D01*
X2609355Y746392D01*
X2609304Y746455D01*
X2609279Y746481D01*
X2609266Y746493D01*
X2609075Y746658D01*
X2608885Y746811D01*
X2608682Y746938D01*
X2608478Y747039D01*
X2608275Y747141D01*
X2608085Y747217D01*
X2607894Y747281D01*
X2607716Y747331D01*
X2607538Y747370D01*
X2607386Y747395D01*
X2607246Y747420D01*
X2607132Y747433D01*
X2607031Y747446D01*
D02*
G37*
G36*
X2661386Y678681D02*
X2658593D01*
X2658338Y678668D01*
X2658135Y678655D01*
X2657970Y678643D01*
X2657856Y678617D01*
X2657767Y678604D01*
X2657716Y678592D01*
X2657704D01*
X2657526Y678528D01*
X2657361Y678439D01*
X2657221Y678350D01*
X2657107Y678249D01*
X2657018Y678160D01*
X2656942Y678084D01*
X2656903Y678033D01*
X2656891Y678008D01*
X2656789Y677842D01*
X2656713Y677665D01*
X2656649Y677487D01*
X2656611Y677322D01*
X2656586Y677182D01*
X2656573Y677068D01*
Y676992D01*
Y676979D01*
Y676966D01*
X2656599Y676661D01*
X2656662Y676407D01*
X2656738Y676179D01*
X2656840Y675988D01*
X2656942Y675836D01*
X2657018Y675734D01*
X2657081Y675671D01*
X2657107Y675645D01*
X2657208Y675569D01*
X2657335Y675493D01*
X2657602Y675379D01*
X2657894Y675302D01*
X2658186Y675252D01*
X2658453Y675213D01*
X2658567Y675201D01*
X2658669D01*
X2658758Y675188D01*
X2661386D01*
Y678681D01*
D02*
G37*
G36*
X2718156Y546659D02*
X2714879D01*
X2714688Y546633D01*
X2714523Y546621D01*
X2714371Y546583D01*
X2714219Y546557D01*
X2714091Y546519D01*
X2713977Y546468D01*
X2713876Y546430D01*
X2713698Y546341D01*
X2713584Y546278D01*
X2713507Y546227D01*
X2713482Y546202D01*
X2713317Y546024D01*
X2713190Y545833D01*
X2713101Y545643D01*
X2713037Y545465D01*
X2712999Y545300D01*
X2712987Y545173D01*
X2712974Y545122D01*
Y545084D01*
Y545071D01*
Y545059D01*
X2712987Y544881D01*
X2713012Y544728D01*
X2713063Y544576D01*
X2713101Y544449D01*
X2713152Y544335D01*
X2713203Y544258D01*
X2713228Y544195D01*
X2713241Y544182D01*
X2713342Y544043D01*
X2713469Y543916D01*
X2713596Y543814D01*
X2713711Y543738D01*
X2713825Y543674D01*
X2713914Y543636D01*
X2713977Y543611D01*
X2714003Y543598D01*
X2714206Y543535D01*
X2714422Y543497D01*
X2714663Y543458D01*
X2714879Y543446D01*
X2715082Y543433D01*
X2715171Y543420D01*
X2718156D01*
Y546659D01*
D02*
G37*
G36*
X2589644Y747446D02*
X2589568D01*
X2589416Y747433D01*
X2589263Y747408D01*
X2589124Y747370D01*
X2588997Y747319D01*
X2588755Y747192D01*
X2588552Y747052D01*
X2588387Y746900D01*
X2588273Y746773D01*
X2588222Y746722D01*
X2588196Y746684D01*
X2588171Y746658D01*
Y746646D01*
X2588069Y746481D01*
X2587981Y746277D01*
X2587904Y746061D01*
X2587841Y745820D01*
X2587790Y745554D01*
X2587739Y745287D01*
X2587676Y744753D01*
X2587650Y744499D01*
X2587625Y744245D01*
X2587612Y744029D01*
Y743839D01*
X2587599Y743674D01*
Y743547D01*
Y743471D01*
Y743458D01*
Y743445D01*
Y743014D01*
X2587625Y742620D01*
X2587650Y742264D01*
X2587689Y741934D01*
X2587727Y741642D01*
X2587777Y741375D01*
X2587828Y741147D01*
X2587879Y740943D01*
X2587943Y740766D01*
X2587993Y740626D01*
X2588044Y740499D01*
X2588082Y740410D01*
X2588120Y740334D01*
X2588146Y740283D01*
X2588158Y740258D01*
X2588171Y740245D01*
X2588273Y740105D01*
X2588387Y739991D01*
X2588501Y739877D01*
X2588628Y739788D01*
X2588743Y739712D01*
X2588857Y739648D01*
X2589073Y739559D01*
X2589263Y739496D01*
X2589352Y739483D01*
X2589416Y739470D01*
X2589479Y739457D01*
X2589555D01*
X2589708Y739470D01*
X2589847Y739496D01*
X2589987Y739534D01*
X2590114Y739585D01*
X2590356Y739712D01*
X2590559Y739851D01*
X2590724Y739991D01*
X2590838Y740118D01*
X2590876Y740169D01*
X2590914Y740207D01*
X2590927Y740232D01*
X2590940Y740245D01*
X2591041Y740410D01*
X2591118Y740613D01*
X2591194Y740829D01*
X2591257Y741083D01*
X2591321Y741337D01*
X2591359Y741604D01*
X2591422Y742137D01*
X2591448Y742404D01*
X2591473Y742645D01*
X2591486Y742861D01*
Y743052D01*
X2591498Y743217D01*
Y743344D01*
Y743420D01*
Y743433D01*
Y743445D01*
X2591486Y743877D01*
X2591473Y744271D01*
X2591448Y744639D01*
X2591397Y744969D01*
X2591359Y745274D01*
X2591308Y745541D01*
X2591245Y745782D01*
X2591194Y745985D01*
X2591130Y746176D01*
X2591079Y746328D01*
X2591029Y746455D01*
X2590978Y746557D01*
X2590940Y746633D01*
X2590914Y746696D01*
X2590901Y746722D01*
X2590889Y746735D01*
X2590787Y746862D01*
X2590686Y746976D01*
X2590584Y747065D01*
X2590470Y747141D01*
X2590254Y747268D01*
X2590038Y747357D01*
X2589860Y747408D01*
X2589708Y747433D01*
X2589644Y747446D01*
D02*
G37*
G36*
X2641143Y677919D02*
Y673512D01*
X2644216D01*
X2641143Y677919D01*
D02*
G37*
G36*
X2616848Y678884D02*
X2616721D01*
X2616365Y678858D01*
X2616035Y678808D01*
X2615742Y678731D01*
X2615489Y678643D01*
X2615374Y678592D01*
X2615273Y678541D01*
X2615184Y678503D01*
X2615120Y678465D01*
X2615057Y678439D01*
X2615019Y678414D01*
X2614993Y678389D01*
X2614980D01*
X2614701Y678185D01*
X2614473Y677969D01*
X2614269Y677741D01*
X2614104Y677525D01*
X2613965Y677322D01*
X2613914Y677233D01*
X2613876Y677169D01*
X2613838Y677106D01*
X2613812Y677055D01*
X2613799Y677030D01*
Y677017D01*
X2613660Y676674D01*
X2613558Y676318D01*
X2613495Y675963D01*
X2613444Y675645D01*
X2613431Y675493D01*
X2613419Y675353D01*
X2613406Y675239D01*
X2613393Y675137D01*
Y675048D01*
Y674985D01*
Y674947D01*
Y674934D01*
X2613406Y674591D01*
X2613431Y674274D01*
X2613482Y673969D01*
X2613546Y673689D01*
X2613609Y673423D01*
X2613698Y673194D01*
X2613774Y672966D01*
X2613863Y672775D01*
X2613952Y672597D01*
X2614041Y672445D01*
X2614130Y672318D01*
X2614193Y672216D01*
X2614257Y672127D01*
X2614308Y672077D01*
X2614333Y672038D01*
X2614346Y672026D01*
X2614523Y671848D01*
X2614714Y671696D01*
X2614917Y671556D01*
X2615120Y671442D01*
X2615323Y671340D01*
X2615514Y671264D01*
X2615717Y671188D01*
X2615895Y671137D01*
X2616073Y671099D01*
X2616238Y671061D01*
X2616378Y671035D01*
X2616505Y671022D01*
X2616606D01*
X2616682Y671010D01*
X2616746D01*
X2617013Y671022D01*
X2617254Y671048D01*
X2617495Y671099D01*
X2617711Y671162D01*
X2617927Y671238D01*
X2618117Y671327D01*
X2618308Y671416D01*
X2618460Y671518D01*
X2618613Y671607D01*
X2618740Y671696D01*
X2618854Y671785D01*
X2618943Y671861D01*
X2619019Y671924D01*
X2619083Y671975D01*
X2619108Y672000D01*
X2619121Y672013D01*
X2619286Y672216D01*
X2619426Y672420D01*
X2619553Y672648D01*
X2619667Y672877D01*
X2619756Y673105D01*
X2619832Y673334D01*
X2619896Y673562D01*
X2619946Y673791D01*
X2619984Y673994D01*
X2620010Y674185D01*
X2620035Y674350D01*
X2620048Y674502D01*
Y674629D01*
X2620061Y674718D01*
Y674769D01*
Y674794D01*
X2620048Y675188D01*
X2620023Y675556D01*
X2619972Y675899D01*
X2619908Y676217D01*
X2619832Y676496D01*
X2619756Y676750D01*
X2619667Y676979D01*
X2619565Y677182D01*
X2619476Y677360D01*
X2619388Y677512D01*
X2619311Y677652D01*
X2619235Y677754D01*
X2619171Y677830D01*
X2619121Y677893D01*
X2619095Y677919D01*
X2619083Y677931D01*
X2618892Y678096D01*
X2618702Y678249D01*
X2618499Y678376D01*
X2618295Y678477D01*
X2618092Y678579D01*
X2617902Y678655D01*
X2617711Y678719D01*
X2617533Y678770D01*
X2617356Y678808D01*
X2617203Y678833D01*
X2617063Y678858D01*
X2616949Y678871D01*
X2616848Y678884D01*
D02*
G37*
G36*
X2572944D02*
X2572867D01*
X2572715Y678871D01*
X2572563Y678846D01*
X2572423Y678808D01*
X2572296Y678757D01*
X2572055Y678630D01*
X2571852Y678490D01*
X2571686Y678338D01*
X2571572Y678211D01*
X2571521Y678160D01*
X2571496Y678122D01*
X2571470Y678096D01*
Y678084D01*
X2571369Y677919D01*
X2571280Y677715D01*
X2571204Y677499D01*
X2571140Y677258D01*
X2571089Y676992D01*
X2571039Y676725D01*
X2570975Y676191D01*
X2570950Y675937D01*
X2570924Y675683D01*
X2570912Y675468D01*
Y675277D01*
X2570899Y675112D01*
Y674985D01*
Y674909D01*
Y674896D01*
Y674883D01*
Y674452D01*
X2570924Y674058D01*
X2570950Y673702D01*
X2570988Y673372D01*
X2571026Y673080D01*
X2571077Y672813D01*
X2571128Y672585D01*
X2571178Y672381D01*
X2571242Y672204D01*
X2571293Y672064D01*
X2571343Y671937D01*
X2571382Y671848D01*
X2571420Y671772D01*
X2571445Y671721D01*
X2571458Y671696D01*
X2571470Y671683D01*
X2571572Y671543D01*
X2571686Y671429D01*
X2571801Y671315D01*
X2571927Y671226D01*
X2572042Y671150D01*
X2572156Y671086D01*
X2572372Y670997D01*
X2572563Y670934D01*
X2572651Y670921D01*
X2572715Y670908D01*
X2572779Y670895D01*
X2572855D01*
X2573007Y670908D01*
X2573147Y670934D01*
X2573286Y670972D01*
X2573413Y671022D01*
X2573655Y671150D01*
X2573858Y671289D01*
X2574023Y671429D01*
X2574137Y671556D01*
X2574175Y671607D01*
X2574214Y671645D01*
X2574226Y671670D01*
X2574239Y671683D01*
X2574341Y671848D01*
X2574417Y672051D01*
X2574493Y672267D01*
X2574557Y672521D01*
X2574620Y672775D01*
X2574658Y673042D01*
X2574722Y673575D01*
X2574747Y673842D01*
X2574772Y674083D01*
X2574785Y674299D01*
Y674490D01*
X2574798Y674655D01*
Y674782D01*
Y674858D01*
Y674871D01*
Y674883D01*
X2574785Y675315D01*
X2574772Y675709D01*
X2574747Y676077D01*
X2574696Y676407D01*
X2574658Y676712D01*
X2574607Y676979D01*
X2574544Y677220D01*
X2574493Y677423D01*
X2574430Y677614D01*
X2574379Y677766D01*
X2574328Y677893D01*
X2574277Y677995D01*
X2574239Y678071D01*
X2574214Y678135D01*
X2574201Y678160D01*
X2574188Y678173D01*
X2574087Y678300D01*
X2573985Y678414D01*
X2573883Y678503D01*
X2573769Y678579D01*
X2573553Y678706D01*
X2573337Y678795D01*
X2573159Y678846D01*
X2573007Y678871D01*
X2572944Y678884D01*
D02*
G37*
G36*
X2617635Y747446D02*
X2617508D01*
X2617152Y747420D01*
X2616822Y747370D01*
X2616530Y747293D01*
X2616276Y747205D01*
X2616162Y747154D01*
X2616060Y747103D01*
X2615971Y747065D01*
X2615908Y747027D01*
X2615844Y747001D01*
X2615806Y746976D01*
X2615781Y746951D01*
X2615768D01*
X2615489Y746747D01*
X2615260Y746531D01*
X2615057Y746303D01*
X2614892Y746087D01*
X2614752Y745884D01*
X2614702Y745795D01*
X2614663Y745731D01*
X2614625Y745668D01*
X2614600Y745617D01*
X2614587Y745592D01*
Y745579D01*
X2614447Y745236D01*
X2614346Y744880D01*
X2614282Y744525D01*
X2614232Y744207D01*
X2614219Y744055D01*
X2614206Y743915D01*
X2614193Y743801D01*
X2614181Y743699D01*
Y743610D01*
Y743547D01*
Y743509D01*
Y743496D01*
X2614193Y743153D01*
X2614219Y742836D01*
X2614270Y742531D01*
X2614333Y742252D01*
X2614397Y741985D01*
X2614485Y741756D01*
X2614562Y741528D01*
X2614651Y741337D01*
X2614739Y741159D01*
X2614828Y741007D01*
X2614917Y740880D01*
X2614981Y740778D01*
X2615044Y740689D01*
X2615095Y740639D01*
X2615121Y740601D01*
X2615133Y740588D01*
X2615311Y740410D01*
X2615501Y740258D01*
X2615705Y740118D01*
X2615908Y740004D01*
X2616111Y739902D01*
X2616302Y739826D01*
X2616505Y739750D01*
X2616683Y739699D01*
X2616860Y739661D01*
X2617025Y739623D01*
X2617165Y739597D01*
X2617292Y739585D01*
X2617394D01*
X2617470Y739572D01*
X2617534D01*
X2617800Y739585D01*
X2618041Y739610D01*
X2618283Y739661D01*
X2618499Y739724D01*
X2618715Y739800D01*
X2618905Y739889D01*
X2619095Y739978D01*
X2619248Y740080D01*
X2619400Y740169D01*
X2619527Y740258D01*
X2619642Y740347D01*
X2619731Y740423D01*
X2619807Y740486D01*
X2619870Y740537D01*
X2619896Y740562D01*
X2619908Y740575D01*
X2620074Y740778D01*
X2620213Y740982D01*
X2620340Y741210D01*
X2620454Y741439D01*
X2620544Y741667D01*
X2620620Y741896D01*
X2620683Y742124D01*
X2620734Y742353D01*
X2620772Y742556D01*
X2620797Y742747D01*
X2620823Y742912D01*
X2620836Y743064D01*
Y743191D01*
X2620848Y743280D01*
Y743331D01*
Y743356D01*
X2620836Y743750D01*
X2620810Y744118D01*
X2620759Y744461D01*
X2620696Y744779D01*
X2620620Y745058D01*
X2620544Y745312D01*
X2620454Y745541D01*
X2620353Y745744D01*
X2620264Y745922D01*
X2620175Y746074D01*
X2620099Y746214D01*
X2620023Y746316D01*
X2619959Y746392D01*
X2619908Y746455D01*
X2619883Y746481D01*
X2619870Y746493D01*
X2619680Y746658D01*
X2619489Y746811D01*
X2619286Y746938D01*
X2619083Y747039D01*
X2618880Y747141D01*
X2618689Y747217D01*
X2618499Y747281D01*
X2618321Y747331D01*
X2618143Y747370D01*
X2617991Y747395D01*
X2617851Y747420D01*
X2617737Y747433D01*
X2617635Y747446D01*
D02*
G37*
G36*
X2629637Y743140D02*
X2627389D01*
X2627058Y743128D01*
X2626779Y743115D01*
X2626525Y743090D01*
X2626335Y743064D01*
X2626169Y743026D01*
X2626055Y743001D01*
X2625992Y742988D01*
X2625966Y742975D01*
X2625789Y742899D01*
X2625636Y742823D01*
X2625509Y742721D01*
X2625395Y742633D01*
X2625306Y742544D01*
X2625242Y742467D01*
X2625204Y742417D01*
X2625192Y742404D01*
X2625090Y742252D01*
X2625027Y742086D01*
X2624976Y741934D01*
X2624938Y741782D01*
X2624912Y741655D01*
X2624900Y741553D01*
Y741489D01*
Y741464D01*
X2624912Y741299D01*
X2624925Y741134D01*
X2624963Y740994D01*
X2625001Y740880D01*
X2625039Y740778D01*
X2625065Y740702D01*
X2625090Y740651D01*
X2625103Y740639D01*
X2625179Y740512D01*
X2625255Y740410D01*
X2625344Y740308D01*
X2625420Y740232D01*
X2625497Y740169D01*
X2625547Y740131D01*
X2625585Y740105D01*
X2625598Y740092D01*
X2625712Y740029D01*
X2625839Y739966D01*
X2625954Y739927D01*
X2626081Y739889D01*
X2626182Y739864D01*
X2626259Y739838D01*
X2626309Y739826D01*
X2626335D01*
X2626449Y739813D01*
X2626576Y739800D01*
X2626868Y739788D01*
X2629637D01*
Y743140D01*
D02*
G37*
%LPD*%
D23*
X2614103Y436305D02*
G03*
X2614103Y436305I-1270J0D01*
G01*
X2682796Y791718D02*
X2688844Y791718D01*
X2685796Y793734D02*
X2688844Y791718D01*
X2682796Y791718D02*
X2685796Y793734D01*
D24*
X2669032Y514730D02*
X2677096D01*
X2669032Y498602D02*
Y514730D01*
Y498602D02*
X2677096Y498602D01*
Y514730D01*
X2557794Y813642D02*
X2557794Y828802D01*
X2527554Y828802D02*
X2557794Y828802D01*
X2527554Y808642D02*
Y828802D01*
Y808642D02*
X2552794Y808642D01*
X2557794Y813642D01*
X2597530Y846900D02*
Y854964D01*
X2581402D02*
X2597530D01*
X2581402Y846900D02*
Y854964D01*
Y846900D02*
X2597530D01*
D74*
X2499552Y487613D02*
G03*
X2499552Y487613I1078J-1077D01*
G01*
X2482817Y481288D02*
G03*
X2482817Y481288I719J-718D01*
G01*
X2660650Y818642D02*
X2660650Y827253D01*
X2632202Y818643D02*
X2632202Y827255D01*
X2643742Y814832D02*
X2649220Y814832D01*
X2609849Y815845D02*
X2609851Y830965D01*
X2579609Y815851D02*
X2579611Y830971D01*
X2572833Y436307D02*
X2577833Y436306D01*
X2572833Y431307D02*
X2572833Y436307D01*
X2572831Y396307D02*
X2577831Y396306D01*
X2572831Y396307D02*
X2572831Y401307D01*
X2612831Y396305D02*
X2612831Y401305D01*
X2607831Y396306D02*
X2612831Y396305D01*
X2495536Y511810D02*
X2525776Y511810D01*
X2495536Y481570D02*
X2525776D01*
X2550968Y432562D02*
X2553468Y430022D01*
X2522220Y432562D02*
X2524760D01*
X2522220Y430022D02*
Y432562D01*
X2553468Y401314D02*
Y403814D01*
X2550968Y401314D02*
X2553468D01*
X2522220D02*
Y403814D01*
Y401314D02*
X2524760D01*
D75*
X2704592Y596818D02*
X2704592Y597172D01*
X2705354Y652036D02*
X2705354Y651682D01*
X2572258Y799338D02*
X2595354D01*
X2572258Y798322D02*
Y799338D01*
Y787242D02*
Y788242D01*
Y787242D02*
X2595354D01*
X2720340Y603350D02*
X2723134Y606350D01*
X2723134Y642384D02*
X2723134Y606350D01*
X2720340Y645432D02*
X2723134Y642384D01*
X2690100Y645432D02*
X2720340Y645432D01*
X2687100Y642384D02*
X2690100Y645432D01*
X2687100Y606350D02*
Y642384D01*
Y606350D02*
X2690100Y603350D01*
X2720340Y603350D01*
X2703100Y623350D02*
X2705100Y621350D01*
X2543048Y791310D02*
X2543048Y790956D01*
X2658110Y502920D02*
X2658110Y501396D01*
X2658110Y502920D02*
X2659634D01*
X2656586D02*
X2658110D01*
X2656586D02*
X2658110Y501396D01*
X2659634Y502920D01*
X2567686Y851154D02*
X2569210D01*
X2567686D02*
Y852678D01*
Y849630D02*
Y851154D01*
Y849630D02*
X2569210Y851154D01*
X2567686Y852678D02*
X2569210Y851154D01*
X2563776Y411480D02*
X2564130Y411480D01*
X2643632Y711608D02*
Y711962D01*
X2668932Y817626D02*
X2669286Y817626D01*
X2675128Y708560D02*
Y708914D01*
X2619502Y793142D02*
Y793496D01*
X2511552Y520092D02*
X2511552Y520446D01*
X2684526Y659384D02*
X2684880Y659384D01*
X2680362Y634746D02*
X2680716Y634746D01*
X2686050Y587820D02*
X2686404D01*
X2706116Y580544D02*
X2706116Y580898D01*
X2686458Y567182D02*
X2686812D01*
X2492502Y679196D02*
X2492856D01*
X2511806Y530252D02*
Y530606D01*
X2639822Y524002D02*
Y524356D01*
X2606294Y442976D02*
X2606294Y443330D01*
X2583942Y443130D02*
Y443484D01*
X2641600Y849530D02*
Y849884D01*
D215*
X2569997Y814324D02*
D03*
D216*
X2674974Y696493D02*
D03*
D302*
X2714752Y556514D02*
G03*
X2714752Y556514I-6604J0D01*
G01*
X2612136Y724662D02*
G03*
X2612136Y724662I-8382J0D01*
G01*
X2610358Y520954D02*
G03*
X2610358Y520954I-6604J0D01*
G01*
X2689860Y480314D02*
G03*
X2689860Y480314I-6604J0D01*
G01*
X2629154Y393700D02*
G03*
X2629154Y393700I-6604J0D01*
G01*
X2659126Y388112D02*
G03*
X2659126Y388112I-6604J0D01*
G01*
X2592662Y801624D02*
G03*
X2592662Y801624I-508J0D01*
G01*
X2558492Y398314D02*
G03*
X2558492Y398314I-1524J0D01*
G01*
X2661158Y500658D02*
X2662174Y499658D01*
X2655110Y500658D02*
X2661158D01*
X2654110Y501658D02*
X2655110Y500658D01*
X2569948Y854202D02*
X2570948Y855218D01*
X2569948Y848154D02*
Y854202D01*
X2568948Y847154D02*
X2569948Y848154D01*
X2547968Y398314D02*
X2549968Y399314D01*
Y397314D02*
Y399314D01*
X2547968Y398314D02*
X2549968Y397314D01*
X2547968Y398314D02*
X2556968D01*
X2555968Y405314D02*
X2556968Y407314D01*
X2555968Y405314D02*
X2557968D01*
X2556968Y407314D02*
X2557968Y405314D01*
X2556968Y398314D02*
Y407314D01*
D303*
X2583611Y828494D02*
G03*
X2583611Y828494I0J-1524D01*
G01*
D304*
X2686116Y601350D02*
G03*
X2686116Y601350I-1016J0D01*
G01*
D305*
X2664248Y683984D02*
G03*
X2664248Y683984I-1250J0D01*
G01*
D306*
X2642998Y669484D02*
G03*
X2642998Y669484I-3000J0D01*
G01*
D307*
X2687574Y533400D02*
X2687928Y533400D01*
X2621434Y823214D02*
X2621788Y823214D01*
X2652776Y790194D02*
X2652776Y790548D01*
D308*
X2539746Y525780D02*
X2539746Y524764D01*
X2478278Y677926D02*
X2479294D01*
X2622296Y418846D02*
X2623312D01*
X2509520Y411226D02*
X2510536D01*
D309*
X2649998Y554484D02*
X2649998Y679484D01*
X2524998Y554484D02*
X2524998Y679484D01*
X2649998Y679484D01*
X2524998Y554484D02*
X2649998Y554484D01*
D310*
X2482846Y638025D02*
D03*
X2482851Y659613D02*
D03*
X2482851Y648697D02*
D03*
X2542287Y845337D02*
D03*
X2618486Y523723D02*
D03*
X2706624Y566955D02*
D03*
X2612644Y711682D02*
D03*
X2623302Y723925D02*
D03*
X2623141Y735504D02*
D03*
D311*
X2697965Y790194D02*
D03*
D312*
X2484091Y452882D02*
D03*
X2490750Y527304D02*
D03*
X2490749Y549910D02*
D03*
X2489991Y609092D02*
D03*
D313*
X2652522Y433324D02*
D03*
X2672080D02*
D03*
X2691384D02*
D03*
M02*
