G04 Layer_Color=16711935*
%FSLAX44Y44*%
%MOMM*%
G71*
G01*
G75*
G04:AMPARAMS|DCode=18|XSize=0.508mm|YSize=0.6096mm|CornerRadius=0.127mm|HoleSize=0mm|Usage=FLASHONLY|Rotation=180.002|XOffset=0mm|YOffset=0mm|HoleType=Round|Shape=RoundedRectangle|*
%AMROUNDEDRECTD18*
21,1,0.5080,0.3556,0,0,180.0*
21,1,0.2540,0.6096,0,0,180.0*
1,1,0.2540,-0.1270,0.1778*
1,1,0.2540,0.1270,0.1778*
1,1,0.2540,0.1270,-0.1778*
1,1,0.2540,-0.1270,-0.1778*
%
%ADD18ROUNDEDRECTD18*%
G04:AMPARAMS|DCode=21|XSize=0.508mm|YSize=0.6096mm|CornerRadius=0.127mm|HoleSize=0mm|Usage=FLASHONLY|Rotation=90.000|XOffset=0mm|YOffset=0mm|HoleType=Round|Shape=RoundedRectangle|*
%AMROUNDEDRECTD21*
21,1,0.5080,0.3556,0,0,90.0*
21,1,0.2540,0.6096,0,0,90.0*
1,1,0.2540,0.1778,0.1270*
1,1,0.2540,0.1778,-0.1270*
1,1,0.2540,-0.1778,-0.1270*
1,1,0.2540,-0.1778,0.1270*
%
%ADD21ROUNDEDRECTD21*%
G04:AMPARAMS|DCode=22|XSize=0.508mm|YSize=0.6096mm|CornerRadius=0.127mm|HoleSize=0mm|Usage=FLASHONLY|Rotation=180.000|XOffset=0mm|YOffset=0mm|HoleType=Round|Shape=RoundedRectangle|*
%AMROUNDEDRECTD22*
21,1,0.5080,0.3556,0,0,180.0*
21,1,0.2540,0.6096,0,0,180.0*
1,1,0.2540,-0.1270,0.1778*
1,1,0.2540,0.1270,0.1778*
1,1,0.2540,0.1270,-0.1778*
1,1,0.2540,-0.1270,-0.1778*
%
%ADD22ROUNDEDRECTD22*%
G04:AMPARAMS|DCode=46|XSize=0.6096mm|YSize=0.9144mm|CornerRadius=0.1524mm|HoleSize=0mm|Usage=FLASHONLY|Rotation=0.000|XOffset=0mm|YOffset=0mm|HoleType=Round|Shape=RoundedRectangle|*
%AMROUNDEDRECTD46*
21,1,0.6096,0.6096,0,0,0.0*
21,1,0.3048,0.9144,0,0,0.0*
1,1,0.3048,0.1524,-0.3048*
1,1,0.3048,-0.1524,-0.3048*
1,1,0.3048,-0.1524,0.3048*
1,1,0.3048,0.1524,0.3048*
%
%ADD46ROUNDEDRECTD46*%
G04:AMPARAMS|DCode=47|XSize=0.6096mm|YSize=0.9144mm|CornerRadius=0.1524mm|HoleSize=0mm|Usage=FLASHONLY|Rotation=90.000|XOffset=0mm|YOffset=0mm|HoleType=Round|Shape=RoundedRectangle|*
%AMROUNDEDRECTD47*
21,1,0.6096,0.6096,0,0,90.0*
21,1,0.3048,0.9144,0,0,90.0*
1,1,0.3048,0.3048,0.1524*
1,1,0.3048,0.3048,-0.1524*
1,1,0.3048,-0.3048,-0.1524*
1,1,0.3048,-0.3048,0.1524*
%
%ADD47ROUNDEDRECTD47*%
G04:AMPARAMS|DCode=51|XSize=0.6604mm|YSize=0.3048mm|CornerRadius=0mm|HoleSize=0mm|Usage=FLASHONLY|Rotation=179.998|XOffset=0mm|YOffset=0mm|HoleType=Round|Shape=Rectangle|*
%AMROTATEDRECTD51*
4,1,4,0.3302,0.1524,0.3302,-0.1524,-0.3302,-0.1524,-0.3302,0.1524,0.3302,0.1524,0.0*
%
%ADD51ROTATEDRECTD51*%

G04:AMPARAMS|DCode=52|XSize=0.6604mm|YSize=0.3048mm|CornerRadius=0mm|HoleSize=0mm|Usage=FLASHONLY|Rotation=89.998|XOffset=0mm|YOffset=0mm|HoleType=Round|Shape=Rectangle|*
%AMROTATEDRECTD52*
4,1,4,0.1524,-0.3302,-0.1524,-0.3302,-0.1524,0.3302,0.1524,0.3302,0.1524,-0.3302,0.0*
%
%ADD52ROTATEDRECTD52*%

G04:AMPARAMS|DCode=71|XSize=0.508mm|YSize=0.6096mm|CornerRadius=0.127mm|HoleSize=0mm|Usage=FLASHONLY|Rotation=89.990|XOffset=0mm|YOffset=0mm|HoleType=Round|Shape=RoundedRectangle|*
%AMROUNDEDRECTD71*
21,1,0.5080,0.3556,0,0,90.0*
21,1,0.2540,0.6096,0,0,90.0*
1,1,0.2540,0.1778,0.1270*
1,1,0.2540,0.1778,-0.1270*
1,1,0.2540,-0.1778,-0.1270*
1,1,0.2540,-0.1778,0.1270*
%
%ADD71ROUNDEDRECTD71*%
G04:AMPARAMS|DCode=72|XSize=0.508mm|YSize=0.6096mm|CornerRadius=0.127mm|HoleSize=0mm|Usage=FLASHONLY|Rotation=89.982|XOffset=0mm|YOffset=0mm|HoleType=Round|Shape=RoundedRectangle|*
%AMROUNDEDRECTD72*
21,1,0.5080,0.3556,0,0,90.0*
21,1,0.2540,0.6096,0,0,90.0*
1,1,0.2540,0.1778,0.1269*
1,1,0.2540,0.1778,-0.1271*
1,1,0.2540,-0.1778,-0.1269*
1,1,0.2540,-0.1778,0.1271*
%
%ADD72ROUNDEDRECTD72*%
G04:AMPARAMS|DCode=73|XSize=0.508mm|YSize=0.6096mm|CornerRadius=0.127mm|HoleSize=0mm|Usage=FLASHONLY|Rotation=179.990|XOffset=0mm|YOffset=0mm|HoleType=Round|Shape=RoundedRectangle|*
%AMROUNDEDRECTD73*
21,1,0.5080,0.3556,0,0,180.0*
21,1,0.2540,0.6096,0,0,180.0*
1,1,0.2540,-0.1270,0.1778*
1,1,0.2540,0.1270,0.1778*
1,1,0.2540,0.1270,-0.1778*
1,1,0.2540,-0.1270,-0.1778*
%
%ADD73ROUNDEDRECTD73*%
G04:AMPARAMS|DCode=74|XSize=0.508mm|YSize=0.6096mm|CornerRadius=0.127mm|HoleSize=0mm|Usage=FLASHONLY|Rotation=179.998|XOffset=0mm|YOffset=0mm|HoleType=Round|Shape=RoundedRectangle|*
%AMROUNDEDRECTD74*
21,1,0.5080,0.3556,0,0,180.0*
21,1,0.2540,0.6096,0,0,180.0*
1,1,0.2540,-0.1270,0.1778*
1,1,0.2540,0.1270,0.1778*
1,1,0.2540,0.1270,-0.1778*
1,1,0.2540,-0.1270,-0.1778*
%
%ADD74ROUNDEDRECTD74*%
G04:AMPARAMS|DCode=233|XSize=0.5588mm|YSize=0.6604mm|CornerRadius=0mm|HoleSize=0mm|Usage=FLASHONLY|Rotation=270.010|XOffset=0mm|YOffset=0mm|HoleType=Round|Shape=Rectangle|*
%AMROTATEDRECTD233*
4,1,4,-0.3302,0.2793,0.3302,0.2795,0.3302,-0.2793,-0.3302,-0.2795,-0.3302,0.2793,0.0*
%
%ADD233ROTATEDRECTD233*%

G04:AMPARAMS|DCode=234|XSize=0.5588mm|YSize=0.6604mm|CornerRadius=0mm|HoleSize=0mm|Usage=FLASHONLY|Rotation=0.002|XOffset=0mm|YOffset=0mm|HoleType=Round|Shape=Rectangle|*
%AMROTATEDRECTD234*
4,1,4,-0.2794,-0.3302,-0.2794,0.3302,0.2794,0.3302,0.2794,-0.3302,-0.2794,-0.3302,0.0*
%
%ADD234ROTATEDRECTD234*%

%ADD239C,1.7272*%
%ADD240O,1.5748X6.0508*%
%ADD241C,2.1368*%
%ADD242C,3.1369*%
%ADD243R,1.5508X1.5508*%
%ADD244C,1.5508*%
%ADD245R,1.5508X1.5508*%
G04:AMPARAMS|DCode=246|XSize=1.5508mm|YSize=1.0508mm|CornerRadius=0.2754mm|HoleSize=0mm|Usage=FLASHONLY|Rotation=180.000|XOffset=0mm|YOffset=0mm|HoleType=Round|Shape=RoundedRectangle|*
%AMROUNDEDRECTD246*
21,1,1.5508,0.5000,0,0,180.0*
21,1,1.0000,1.0508,0,0,180.0*
1,1,0.5508,-0.5000,0.2500*
1,1,0.5508,0.5000,0.2500*
1,1,0.5508,0.5000,-0.2500*
1,1,0.5508,-0.5000,-0.2500*
%
%ADD246ROUNDEDRECTD246*%
%ADD247C,0.5008*%
G04:AMPARAMS|DCode=248|XSize=1.0668mm|YSize=1.0668mm|CornerRadius=0.5334mm|HoleSize=0mm|Usage=FLASHONLY|Rotation=90.000|XOffset=0mm|YOffset=0mm|HoleType=Round|Shape=RoundedRectangle|*
%AMROUNDEDRECTD248*
21,1,1.0668,0.0000,0,0,90.0*
21,1,0.0000,1.0668,0,0,90.0*
1,1,1.0668,0.0000,0.0000*
1,1,1.0668,0.0000,0.0000*
1,1,1.0668,0.0000,0.0000*
1,1,1.0668,0.0000,0.0000*
%
%ADD248ROUNDEDRECTD248*%
G04:AMPARAMS|DCode=249|XSize=1.3208mm|YSize=1.3208mm|CornerRadius=0.6604mm|HoleSize=0mm|Usage=FLASHONLY|Rotation=90.000|XOffset=0mm|YOffset=0mm|HoleType=Round|Shape=RoundedRectangle|*
%AMROUNDEDRECTD249*
21,1,1.3208,0.0000,0,0,90.0*
21,1,0.0000,1.3208,0,0,90.0*
1,1,1.3208,0.0000,0.0000*
1,1,1.3208,0.0000,0.0000*
1,1,1.3208,0.0000,0.0000*
1,1,1.3208,0.0000,0.0000*
%
%ADD249ROUNDEDRECTD249*%
%ADD250R,0.7874X2.8448*%
%ADD251R,0.7874X2.5508*%
G04:AMPARAMS|DCode=252|XSize=0.6096mm|YSize=1.27mm|CornerRadius=0mm|HoleSize=0mm|Usage=FLASHONLY|Rotation=359.998|XOffset=0mm|YOffset=0mm|HoleType=Round|Shape=Rectangle|*
%AMROTATEDRECTD252*
4,1,4,-0.3048,-0.6350,-0.3048,0.6350,0.3048,0.6350,0.3048,-0.6350,-0.3048,-0.6350,0.0*
%
%ADD252ROTATEDRECTD252*%

G04:AMPARAMS|DCode=253|XSize=0.6096mm|YSize=1.27mm|CornerRadius=0.1651mm|HoleSize=0mm|Usage=FLASHONLY|Rotation=359.998|XOffset=0mm|YOffset=0mm|HoleType=Round|Shape=RoundedRectangle|*
%AMROUNDEDRECTD253*
21,1,0.6096,0.9398,0,0,360.0*
21,1,0.2794,1.2700,0,0,360.0*
1,1,0.3302,0.1397,-0.4699*
1,1,0.3302,-0.1397,-0.4699*
1,1,0.3302,-0.1397,0.4699*
1,1,0.3302,0.1397,0.4699*
%
%ADD253ROUNDEDRECTD253*%
%ADD254R,0.5588X0.6604*%
G04:AMPARAMS|DCode=255|XSize=0.762mm|YSize=1.0668mm|CornerRadius=0mm|HoleSize=0mm|Usage=FLASHONLY|Rotation=359.990|XOffset=0mm|YOffset=0mm|HoleType=Round|Shape=Rectangle|*
%AMROTATEDRECTD255*
4,1,4,-0.3811,-0.5333,-0.3809,0.5335,0.3811,0.5333,0.3809,-0.5335,-0.3811,-0.5333,0.0*
%
%ADD255ROTATEDRECTD255*%

G04:AMPARAMS|DCode=256|XSize=0.762mm|YSize=1.0668mm|CornerRadius=0.2032mm|HoleSize=0mm|Usage=FLASHONLY|Rotation=359.990|XOffset=0mm|YOffset=0mm|HoleType=Round|Shape=RoundedRectangle|*
%AMROUNDEDRECTD256*
21,1,0.7620,0.6604,0,0,360.0*
21,1,0.3556,1.0668,0,0,360.0*
1,1,0.4064,0.1777,-0.3302*
1,1,0.4064,-0.1779,-0.3302*
1,1,0.4064,-0.1777,0.3302*
1,1,0.4064,0.1779,0.3302*
%
%ADD256ROUNDEDRECTD256*%
%ADD257P,1.2213X4X405.0*%
G04:AMPARAMS|DCode=258|XSize=0.5588mm|YSize=0.6604mm|CornerRadius=0mm|HoleSize=0mm|Usage=FLASHONLY|Rotation=269.990|XOffset=0mm|YOffset=0mm|HoleType=Round|Shape=Rectangle|*
%AMROTATEDRECTD258*
4,1,4,-0.3302,0.2795,0.3302,0.2793,0.3302,-0.2795,-0.3302,-0.2793,-0.3302,0.2795,0.0*
%
%ADD258ROTATEDRECTD258*%

%ADD259R,1.0922X0.4572*%
%ADD260R,0.6604X0.5588*%
%ADD261R,2.0574X1.1684*%
%ADD262R,1.2700X1.4732*%
%ADD263R,0.6604X0.6604*%
%ADD264R,0.4572X0.4572*%
%ADD265R,0.4826X1.3716*%
%ADD266O,1.8508X0.3508*%
%ADD267O,0.3508X1.8508*%
%ADD268R,1.6510X0.9652*%
%ADD269R,0.9652X1.6510*%
G04:AMPARAMS|DCode=270|XSize=0.508mm|YSize=0.2794mm|CornerRadius=0.1054mm|HoleSize=0mm|Usage=FLASHONLY|Rotation=270.000|XOffset=0mm|YOffset=0mm|HoleType=Round|Shape=RoundedRectangle|*
%AMROUNDEDRECTD270*
21,1,0.5080,0.0686,0,0,270.0*
21,1,0.2972,0.2794,0,0,270.0*
1,1,0.2108,-0.0343,-0.1486*
1,1,0.2108,-0.0343,0.1486*
1,1,0.2108,0.0343,0.1486*
1,1,0.2108,0.0343,-0.1486*
%
%ADD270ROUNDEDRECTD270*%
G04:AMPARAMS|DCode=271|XSize=0.508mm|YSize=0.2794mm|CornerRadius=0.0826mm|HoleSize=0mm|Usage=FLASHONLY|Rotation=270.000|XOffset=0mm|YOffset=0mm|HoleType=Round|Shape=RoundedRectangle|*
%AMROUNDEDRECTD271*
21,1,0.5080,0.1143,0,0,270.0*
21,1,0.3429,0.2794,0,0,270.0*
1,1,0.1651,-0.0572,-0.1714*
1,1,0.1651,-0.0572,0.1714*
1,1,0.1651,0.0572,0.1714*
1,1,0.1651,0.0572,-0.1714*
%
%ADD271ROUNDEDRECTD271*%
G04:AMPARAMS|DCode=272|XSize=0.508mm|YSize=0.2794mm|CornerRadius=0.1054mm|HoleSize=0mm|Usage=FLASHONLY|Rotation=180.000|XOffset=0mm|YOffset=0mm|HoleType=Round|Shape=RoundedRectangle|*
%AMROUNDEDRECTD272*
21,1,0.5080,0.0686,0,0,180.0*
21,1,0.2972,0.2794,0,0,180.0*
1,1,0.2108,-0.1486,0.0343*
1,1,0.2108,0.1486,0.0343*
1,1,0.2108,0.1486,-0.0343*
1,1,0.2108,-0.1486,-0.0343*
%
%ADD272ROUNDEDRECTD272*%
G04:AMPARAMS|DCode=273|XSize=0.508mm|YSize=0.2794mm|CornerRadius=0.0826mm|HoleSize=0mm|Usage=FLASHONLY|Rotation=180.000|XOffset=0mm|YOffset=0mm|HoleType=Round|Shape=RoundedRectangle|*
%AMROUNDEDRECTD273*
21,1,0.5080,0.1143,0,0,180.0*
21,1,0.3429,0.2794,0,0,180.0*
1,1,0.1651,-0.1714,0.0572*
1,1,0.1651,0.1714,0.0572*
1,1,0.1651,0.1714,-0.0572*
1,1,0.1651,-0.1714,-0.0572*
%
%ADD273ROUNDEDRECTD273*%
%ADD274R,1.0668X1.1684*%
%ADD275R,0.6604X0.6604*%
%ADD276R,0.4572X0.4572*%
D18*
X2547048Y791210D02*
D03*
X2539048D02*
D03*
X2635822Y524256D02*
D03*
X2643822D02*
D03*
X2602294Y443230D02*
D03*
X2610294Y443230D02*
D03*
D21*
X2563876Y415480D02*
D03*
Y407480D02*
D03*
X2684781Y663384D02*
D03*
X2684779Y655384D02*
D03*
X2686304Y591820D02*
D03*
Y583820D02*
D03*
X2686558Y563182D02*
D03*
Y571182D02*
D03*
X2492756Y683196D02*
D03*
Y675196D02*
D03*
D22*
X2647632Y711708D02*
D03*
X2639632D02*
D03*
X2679128Y708660D02*
D03*
X2671128D02*
D03*
X2623502Y793242D02*
D03*
X2615502D02*
D03*
X2515552Y520192D02*
D03*
X2507552D02*
D03*
X2515806Y530352D02*
D03*
X2507806D02*
D03*
X2645600Y849630D02*
D03*
X2637600D02*
D03*
D46*
X2546746Y525272D02*
D03*
X2532746D02*
D03*
D47*
X2478786Y684926D02*
D03*
Y670926D02*
D03*
X2622804Y411846D02*
D03*
Y425846D02*
D03*
X2510028Y418226D02*
D03*
Y404226D02*
D03*
D51*
X2609832Y426055D02*
D03*
X2609832Y419555D02*
D03*
X2609832Y413055D02*
D03*
X2609832Y406555D02*
D03*
X2575832Y406557D02*
D03*
X2575832Y413057D02*
D03*
X2575832Y419557D02*
D03*
X2575832Y426057D02*
D03*
D52*
X2602581Y399306D02*
D03*
X2596082Y399306D02*
D03*
X2589581Y399306D02*
D03*
X2583081Y399306D02*
D03*
X2583083Y433306D02*
D03*
X2589583Y433306D02*
D03*
X2596082Y433306D02*
D03*
X2602583Y433306D02*
D03*
D71*
X2669031Y813626D02*
D03*
X2669033Y821626D02*
D03*
D72*
X2680461Y630746D02*
D03*
X2680463Y638746D02*
D03*
D73*
X2710116Y580643D02*
D03*
X2702116Y580645D02*
D03*
D74*
X2587942Y443230D02*
D03*
X2579942Y443230D02*
D03*
D233*
X2569971Y809324D02*
D03*
X2569973Y819404D02*
D03*
X2490724Y532384D02*
D03*
Y522304D02*
D03*
Y554990D02*
D03*
Y544910D02*
D03*
X2658110Y507238D02*
D03*
X2658110Y497158D02*
D03*
X2489962Y604092D02*
D03*
Y614172D02*
D03*
D234*
X2709592Y596918D02*
D03*
X2699512Y596918D02*
D03*
X2710354Y651782D02*
D03*
X2700274Y651782D02*
D03*
X2679978Y696468D02*
D03*
X2669898Y696470D02*
D03*
X2563368Y851154D02*
D03*
X2573448D02*
D03*
X2547286Y845312D02*
D03*
X2537206D02*
D03*
X2711624Y566928D02*
D03*
X2701544D02*
D03*
X2628312Y723900D02*
D03*
X2618232D02*
D03*
X2628143Y735478D02*
D03*
X2618063D02*
D03*
D239*
X2705608Y550418D02*
D03*
D240*
X2726690Y771398D02*
D03*
X2726944Y692404D02*
D03*
X2726182Y520446D02*
D03*
Y446278D02*
D03*
X2461006Y409448D02*
D03*
Y801116D02*
D03*
D241*
X2569464Y506966D02*
D03*
D242*
Y727202D02*
D03*
D243*
X2622296Y357632D02*
D03*
X2624540Y876462D02*
D03*
D244*
X2596896Y357632D02*
D03*
X2571496D02*
D03*
X2546096D02*
D03*
X2520696D02*
D03*
X2495296D02*
D03*
X2460752Y717042D02*
D03*
Y691642D02*
D03*
Y666242D02*
D03*
Y640842D02*
D03*
X2648549Y872523D02*
D03*
X2671517Y864668D02*
D03*
X2691880Y853732D02*
D03*
X2711182Y838910D02*
D03*
X2726222Y822992D02*
D03*
X2460498Y580390D02*
D03*
Y554990D02*
D03*
Y529590D02*
D03*
Y504190D02*
D03*
Y478790D02*
D03*
X2581656Y876300D02*
D03*
X2505456D02*
D03*
D245*
X2460752Y615442D02*
D03*
X2460498Y453390D02*
D03*
D246*
X2556256Y876300D02*
D03*
X2530856D02*
D03*
D247*
X2500376Y544068D02*
D03*
D248*
X2708148Y556514D02*
D03*
X2584450Y483362D02*
D03*
X2674366Y465582D02*
D03*
X2622550Y393700D02*
D03*
X2655316Y418338D02*
D03*
D249*
X2603754Y724662D02*
D03*
D250*
X2485644Y766826D02*
D03*
X2498344D02*
D03*
X2511044D02*
D03*
X2523744D02*
D03*
X2536444D02*
D03*
D251*
X2485644Y728182D02*
D03*
X2498344D02*
D03*
X2511044D02*
D03*
X2523744D02*
D03*
X2536444D02*
D03*
D252*
X2636927Y835961D02*
D03*
X2646426Y835961D02*
D03*
X2656078Y835961D02*
D03*
X2656078Y809752D02*
D03*
D253*
X2636925Y809752D02*
D03*
D254*
X2487930Y638048D02*
D03*
X2477850Y638048D02*
D03*
X2487930Y659638D02*
D03*
X2477850Y659638D02*
D03*
X2487930Y648716D02*
D03*
X2477850Y648716D02*
D03*
X2613486Y523748D02*
D03*
X2623566D02*
D03*
X2607644Y711708D02*
D03*
X2617724D02*
D03*
D255*
X2585112Y835470D02*
D03*
X2594612Y835468D02*
D03*
X2594608Y811276D02*
D03*
X2585108Y811278D02*
D03*
D256*
X2604264Y835466D02*
D03*
X2604260Y811274D02*
D03*
D257*
X2685796Y785114D02*
D03*
X2685796Y800234D02*
D03*
X2571750Y793242D02*
D03*
D258*
X2697987Y785114D02*
D03*
X2697989Y795194D02*
D03*
D259*
X2486536Y486820D02*
D03*
Y493320D02*
D03*
X2486536Y499872D02*
D03*
Y506476D02*
D03*
X2534666Y506476D02*
D03*
X2534666Y499872D02*
D03*
X2534666Y493320D02*
D03*
X2534666Y486820D02*
D03*
D260*
X2484120Y457882D02*
D03*
Y447802D02*
D03*
D261*
X2590854Y793242D02*
D03*
D262*
X2713736Y613350D02*
D03*
X2713736Y635526D02*
D03*
X2696600Y613350D02*
D03*
X2696600Y635526D02*
D03*
D263*
X2673096Y514730D02*
D03*
X2673096Y498602D02*
D03*
D264*
X2677096Y506730D02*
D03*
X2669032Y506730D02*
D03*
X2673096D02*
D03*
D265*
X2552544Y806892D02*
D03*
X2546044D02*
D03*
X2539492D02*
D03*
X2532888D02*
D03*
Y830580D02*
D03*
X2539492D02*
D03*
X2546044D02*
D03*
X2552544D02*
D03*
D266*
X2662998Y676984D02*
D03*
Y671984D02*
D03*
X2662998Y666984D02*
D03*
X2662998Y661984D02*
D03*
X2662998Y656984D02*
D03*
X2662998Y651984D02*
D03*
X2662998Y646984D02*
D03*
X2662998Y641984D02*
D03*
X2662998Y636984D02*
D03*
X2662998Y631984D02*
D03*
X2662998Y626984D02*
D03*
X2662998Y621984D02*
D03*
X2662998Y616984D02*
D03*
X2662998Y611984D02*
D03*
X2662998Y606984D02*
D03*
X2662998Y601984D02*
D03*
X2662998Y596984D02*
D03*
X2662998Y591984D02*
D03*
X2662998Y586984D02*
D03*
X2662998Y581984D02*
D03*
X2662998Y576984D02*
D03*
X2662998Y571984D02*
D03*
X2662998Y566984D02*
D03*
X2662998Y561984D02*
D03*
X2662998Y556984D02*
D03*
X2511998Y556984D02*
D03*
Y561984D02*
D03*
X2511998Y566984D02*
D03*
X2511998Y571984D02*
D03*
X2511998Y576984D02*
D03*
X2511998Y581984D02*
D03*
X2511998Y586984D02*
D03*
X2511998Y591984D02*
D03*
X2511998Y596984D02*
D03*
X2511998Y601984D02*
D03*
X2511998Y606984D02*
D03*
X2511998Y611984D02*
D03*
X2511998Y616984D02*
D03*
X2511998Y621984D02*
D03*
X2511998Y626984D02*
D03*
X2511998Y631984D02*
D03*
X2511998Y636984D02*
D03*
X2511998Y641984D02*
D03*
X2511998Y646984D02*
D03*
X2511997Y661984D02*
D03*
X2511998Y666984D02*
D03*
Y671984D02*
D03*
X2511998Y676984D02*
D03*
X2511998Y656984D02*
D03*
X2511998Y651984D02*
D03*
D267*
X2647498Y541484D02*
D03*
X2642498D02*
D03*
X2637498Y541484D02*
D03*
X2632498Y541484D02*
D03*
X2627498Y541484D02*
D03*
X2622498Y541484D02*
D03*
X2617498Y541484D02*
D03*
X2612498Y541484D02*
D03*
X2607498Y541484D02*
D03*
X2602498Y541484D02*
D03*
X2597498Y541484D02*
D03*
X2592498Y541484D02*
D03*
X2587498Y541484D02*
D03*
X2582498Y541484D02*
D03*
X2577498Y541484D02*
D03*
X2572498D02*
D03*
X2567498Y541484D02*
D03*
X2562498Y541484D02*
D03*
X2557498Y541484D02*
D03*
X2552498Y541484D02*
D03*
X2547498Y541484D02*
D03*
X2542498Y541484D02*
D03*
X2537498Y541484D02*
D03*
X2532498D02*
D03*
X2527498Y541484D02*
D03*
X2527498Y692484D02*
D03*
X2532498D02*
D03*
X2537498Y692484D02*
D03*
X2542498Y692484D02*
D03*
X2547498Y692484D02*
D03*
X2552498Y692484D02*
D03*
X2557498Y692484D02*
D03*
X2562498Y692484D02*
D03*
X2567498Y692484D02*
D03*
X2572498Y692484D02*
D03*
X2577498Y692484D02*
D03*
X2582498Y692484D02*
D03*
X2587498Y692484D02*
D03*
X2592498Y692484D02*
D03*
X2597498Y692484D02*
D03*
X2602498Y692484D02*
D03*
X2607498Y692484D02*
D03*
X2612498Y692484D02*
D03*
X2617498Y692484D02*
D03*
X2622498Y692484D02*
D03*
X2627498Y692484D02*
D03*
X2632498Y692484D02*
D03*
X2637498Y692484D02*
D03*
X2642498D02*
D03*
X2647498Y692484D02*
D03*
D268*
X2621534Y837946D02*
D03*
Y808714D02*
D03*
D269*
X2667508Y790448D02*
D03*
X2638276D02*
D03*
D270*
X2547968Y431038D02*
D03*
X2527808D02*
D03*
Y402814D02*
D03*
D271*
X2543968Y431038D02*
D03*
X2539968D02*
D03*
X2535936D02*
D03*
X2531872D02*
D03*
Y402814D02*
D03*
X2535936D02*
D03*
X2539968D02*
D03*
X2543968D02*
D03*
X2547968D02*
D03*
D272*
X2523744Y426974D02*
D03*
Y406814D02*
D03*
X2551968Y426974D02*
D03*
D273*
X2523744Y422910D02*
D03*
Y418846D02*
D03*
Y414814D02*
D03*
Y410814D02*
D03*
X2551968Y406814D02*
D03*
Y410814D02*
D03*
Y414814D02*
D03*
Y418846D02*
D03*
Y422910D02*
D03*
D274*
X2637028Y507238D02*
D03*
X2637028Y490102D02*
D03*
X2617724Y507238D02*
D03*
X2617724Y490102D02*
D03*
X2598420Y507238D02*
D03*
X2598420Y490102D02*
D03*
D275*
X2597530Y850900D02*
D03*
X2581402Y850900D02*
D03*
D276*
X2589530Y846900D02*
D03*
Y854964D02*
D03*
Y850900D02*
D03*
M02*
