M48
;Layer_Color=9474304
;FILE_FORMAT=4:4
METRIC,LZ
;TYPE=PLATED
T1F00S00C0.2000
T3F00S00C0.7112
;TYPE=NON_PLATED
%
T01
X02504948Y00368046
X02512314Y00367792
X02528316Y0039624
X02540321Y00396324
X02545334Y00392176
X0257937Y00396866
X02619502Y00392176
X02613914Y00402336
X02614422Y00413004
X02617064Y00419555
X02612136Y00430784
X02625344Y00431546
X02620959Y00441131
X02617216Y00446024
X02625344Y00402082
X02572512Y00399034
X02557272Y00402082
X02563809Y00420691
X02568702Y004318
X02568194Y0044196
X02558796Y00441706
X02548636Y00437388
X0251587Y00425704
X02521966Y00401574
X0251333Y00473964
X02517902Y00481076
X02529332Y00477774
X02536698Y00480568
X02570734Y00483108
X02591308Y00477798
X02606548Y00530098
X02617724Y0053086
X02621788Y00554482
X02612644Y00554228
X02602484Y00555498
X02596134Y0055499
X02572512Y00556514
X02524252Y00561848
X02529332Y00566928
X02534388Y00571984
X02532634Y00587248
X02529078Y00616458
X02525268Y00621792
X02496058Y00626872
X02476246Y00630428
X0248285Y00599948
X02483612Y00593598
X02496312Y00590296
X02499106Y00596392
X02498852Y0058166
X02499106Y00575564
X02500376Y00536448
Y0052197
X02518564Y00550418
X02550922Y0051562
X026416Y00566928
X02665338Y00550164
X02678938Y0059309
X02677672Y00601984
X0265176Y00651764
X02633472Y00667004
X02625629Y00673744
X02619629Y00676021
X02607056Y00677926
X02584704Y00680212
X02578608
X02572498Y00679972
X02567498Y00703646
X0255778Y00707644
X02550922Y0070739
X02520696Y00710184
X02523744Y00715772
X02514346Y00683006
X02506218Y00682752
X02502408Y00677418
X02499614Y00662432
X02595372Y00707644
X02601468Y0070739
X02601722Y00737616
X02594356Y00741426
X02630424Y00793242
X0267589Y00790448
X02671318Y00766318
X0265811Y00770636
X0269367Y0077851
X02710942Y00775716
X02636774Y00678688
X02518918Y00790956
X0267843Y004826
X02672334Y0046736
X02671826Y00461264
X02671064Y00454152
X02609088Y00797814
X02552544Y00797658
X02532888Y0079756
T03
X02658872Y00754634
X0264668Y00823214
X02620518Y00848868
X02585974Y00823976
X02569718Y00832104
X02493264Y00833374
M30
