M48
;Layer_Color=9474304
;FILE_FORMAT=4:4
METRIC,LZ
;TYPE=PLATED
T1F00S00C0.2000
T3F00S00C0.7112
;TYPE=NON_PLATED
%
T01
X02504948Y00368046
X02512314Y00367792
X02528316Y0039624
X02540321Y00396324
X02545334Y00392176
X0257937Y00396866
X02619502Y00392176
X02613914Y00402336
X02614422Y00413004
X02617064Y00419555
X02612136Y00430784
X02625344Y00431546
X02620959Y00441131
X02617216Y00446024
X02617724Y00479298
X02636774
X02598928Y00478282
X0258953Y00479298
X02595372Y00525526
X02621788Y00554482
X02672588Y0052451
X02678176Y00465836
X02625344Y00402082
X02572512Y00399034
X02557272Y00402082
X02563809Y00420691
X02568702Y004318
X02568194Y0044196
X02558796Y00441706
X02548636Y00437388
X0251587Y00425704
X02521966Y00401574
X0251333Y00473964
X02517902Y00481076
X02529332Y00477774
X02536698Y00480568
X02500376Y0052197
Y00536448
X02518564Y00550418
X02524252Y00561848
X02529332Y00566928
X02534388Y00571984
X02499106Y00575564
X02498852Y0058166
X02496312Y00590296
X02499106Y00596392
X0249047Y00593852
X0248285Y00599948
X02476246Y00630428
X02496058Y00626872
X02525268Y00621792
X02529078Y00616458
X02514346Y00683006
X02506218Y00682752
X02500376Y00677672
X02572498Y00679972
X02578608Y00680212
X02584704
X02607056Y00677926
X02619629Y00676021
X02625629Y00673744
X02633472Y00667004
X02636774Y00678688
X0265176Y00651764
X02601468Y0070739
X02595372Y00707644
X02567498Y00703646
X0255778Y00707644
X02550922Y0070739
X02536444Y0074295
X02511044Y00742188
X02518918Y00790956
X02594864Y00757428
X02601976Y0075184
X02630424Y00793242
X0267589Y00790448
X02671318Y00766318
X0265811Y00770636
X0269367Y0077851
X02710942Y00775716
X02609088Y00797814
X02552544Y00797658
X02532888Y0079756
T03
X02493264Y00833374
X02569718Y00832104
X02585974Y00823976
X02620518Y00848868
X0264668Y00823214
M30
