G04 Layer_Physical_Order=4*
G04 Layer_Color=36540*
%FSLAX44Y44*%
%MOMM*%
G71*
G01*
G75*
%ADD23C,0.3000*%
%ADD25C,0.2540*%
%ADD26C,0.1270*%
%ADD27C,0.7000*%
%ADD32R,1.5000X1.5000*%
%ADD33C,1.5000*%
%ADD34R,1.5000X1.5000*%
%ADD38C,0.4500*%
%ADD39C,1.2700*%
G36*
X2655185Y451989D02*
X2655185Y451989D01*
X2656177Y451326D01*
X2657348Y451093D01*
X2665987D01*
X2670159Y446921D01*
X2670326Y446085D01*
X2671154Y444844D01*
X2672395Y444016D01*
X2673858Y443725D01*
X2674863Y443924D01*
X2676133Y443147D01*
Y389379D01*
X2668067Y381313D01*
X2635707D01*
X2632662Y384358D01*
X2632807Y385682D01*
X2633476Y386234D01*
X2642616D01*
X2643764Y386710D01*
X2644240Y387858D01*
Y459994D01*
X2643975Y460633D01*
X2644463Y461874D01*
X2644641Y462061D01*
X2645035Y462139D01*
X2655185Y451989D01*
D02*
G37*
G36*
X2521778Y876927D02*
Y873800D01*
X2522088Y872239D01*
X2522972Y870916D01*
X2524295Y870032D01*
X2525856Y869722D01*
X2535856D01*
X2537417Y870032D01*
X2538740Y870916D01*
X2539624Y872239D01*
X2539934Y873800D01*
Y876927D01*
X2547178Y876927D01*
Y873800D01*
X2547488Y872239D01*
X2548372Y870916D01*
X2549695Y870032D01*
X2551256Y869722D01*
X2561256D01*
X2562817Y870032D01*
X2564140Y870916D01*
X2565024Y872239D01*
X2565334Y873800D01*
Y876006D01*
X2566236Y876901D01*
X2572094Y876857D01*
X2572578Y876300D01*
X2572888Y873951D01*
X2573795Y871761D01*
X2575237Y869881D01*
X2577117Y868438D01*
X2579307Y867532D01*
X2581656Y867222D01*
X2584005Y867532D01*
X2586195Y868438D01*
X2588075Y869881D01*
X2589518Y871761D01*
X2590424Y873951D01*
X2590734Y876300D01*
X2591100Y876714D01*
X2615770Y876528D01*
Y867692D01*
X2623270D01*
Y876462D01*
X2625810D01*
Y867692D01*
X2633310D01*
Y874439D01*
X2634260Y875281D01*
X2636631Y874993D01*
X2639713Y874354D01*
X2639472Y872523D01*
X2639781Y870173D01*
X2640688Y867984D01*
X2642130Y866104D01*
X2644010Y864661D01*
X2646200Y863754D01*
X2648549Y863445D01*
X2650899Y863754D01*
X2653088Y864661D01*
X2654968Y866104D01*
X2656411Y867984D01*
X2657227Y869954D01*
X2660205Y869073D01*
X2662282Y868264D01*
X2662781Y867096D01*
X2662749Y867018D01*
X2662439Y864668D01*
X2662749Y862319D01*
X2663655Y860129D01*
X2665098Y858249D01*
X2666978Y856807D01*
X2669167Y855900D01*
X2671517Y855591D01*
X2673866Y855900D01*
X2676056Y856807D01*
X2677936Y858249D01*
X2679378Y860129D01*
X2680178Y860432D01*
X2682411Y859339D01*
X2683994Y858402D01*
X2684019Y858271D01*
X2683112Y856082D01*
X2682803Y853732D01*
X2683112Y851383D01*
X2684019Y849194D01*
X2685462Y847314D01*
X2687342Y845871D01*
X2689531Y844964D01*
X2691880Y844655D01*
X2694230Y844964D01*
X2696419Y845871D01*
X2698299Y847314D01*
X2699245Y848546D01*
X2701870Y846697D01*
X2704272Y844688D01*
X2703321Y843449D01*
X2702414Y841260D01*
X2702105Y838910D01*
X2702414Y836561D01*
X2703321Y834371D01*
X2704763Y832491D01*
X2706644Y831049D01*
X2708833Y830142D01*
X2711182Y829832D01*
X2713532Y830142D01*
X2715721Y831049D01*
X2717601Y832491D01*
X2717717Y832499D01*
X2718977Y831262D01*
X2719884Y830228D01*
X2719803Y829411D01*
X2718361Y827531D01*
X2717650Y825816D01*
X2709450D01*
X2708369Y825602D01*
X2707453Y824989D01*
X2707453Y824989D01*
X2695992Y813528D01*
X2695380Y812612D01*
X2695164Y811531D01*
X2695164Y811531D01*
Y805416D01*
X2694456Y804356D01*
X2694165Y802893D01*
X2694456Y801430D01*
X2695285Y800190D01*
X2696526Y799361D01*
X2697989Y799070D01*
X2699452Y799361D01*
X2700692Y800190D01*
X2701521Y801430D01*
X2701812Y802893D01*
X2701521Y804356D01*
X2700813Y805416D01*
Y810361D01*
X2710620Y820168D01*
X2717650D01*
X2718361Y818453D01*
X2719803Y816573D01*
X2721683Y815131D01*
X2723873Y814224D01*
X2726222Y813915D01*
Y802915D01*
X2724309Y802663D01*
X2722091Y801744D01*
X2720186Y800282D01*
X2718724Y798377D01*
X2717805Y796159D01*
X2717491Y793778D01*
Y749018D01*
X2717805Y746637D01*
X2718724Y744419D01*
X2720186Y742514D01*
X2722091Y741052D01*
X2724309Y740133D01*
X2726222Y739881D01*
Y723888D01*
X2724563Y723669D01*
X2722345Y722750D01*
X2720439Y721288D01*
X2718978Y719383D01*
X2718059Y717165D01*
X2717745Y714784D01*
Y670024D01*
X2718059Y667643D01*
X2718978Y665425D01*
X2720439Y663520D01*
X2722345Y662058D01*
X2724563Y661139D01*
X2726222Y660920D01*
Y552060D01*
X2726182Y552025D01*
X2723801Y551711D01*
X2721583Y550792D01*
X2719677Y549330D01*
X2718216Y547425D01*
X2717297Y545207D01*
X2716983Y542826D01*
Y498066D01*
X2717297Y495685D01*
X2718216Y493467D01*
X2719677Y491562D01*
X2721583Y490100D01*
X2723801Y489181D01*
X2726182Y488867D01*
X2726222Y488832D01*
Y477892D01*
X2726182Y477857D01*
X2723801Y477543D01*
X2721583Y476624D01*
X2719677Y475162D01*
X2718216Y473257D01*
X2717297Y471039D01*
X2716983Y468658D01*
Y423898D01*
X2717297Y421517D01*
X2718216Y419299D01*
X2719677Y417394D01*
X2721583Y415932D01*
X2723801Y415013D01*
X2726182Y414699D01*
X2726222Y414664D01*
Y410992D01*
X2725694Y410464D01*
X2720537Y404343D01*
X2712834Y396551D01*
X2704538Y389333D01*
X2694724Y382073D01*
X2684397Y375688D01*
X2674653Y370683D01*
X2663461Y366014D01*
X2653063Y362618D01*
X2642348Y359994D01*
X2632033Y358317D01*
X2631066Y359140D01*
Y366402D01*
X2623566D01*
Y357632D01*
X2621026D01*
Y366402D01*
X2613526D01*
Y357903D01*
X2605946Y357842D01*
X2605664Y359981D01*
X2604757Y362171D01*
X2603315Y364051D01*
X2601435Y365494D01*
X2599246Y366400D01*
X2597261Y366662D01*
X2589372Y374550D01*
X2589894Y375820D01*
X2622042D01*
X2623190Y376296D01*
X2623665Y377444D01*
Y384583D01*
X2624936Y384968D01*
X2624959Y384933D01*
X2626349Y383543D01*
Y383286D01*
X2626349Y383286D01*
X2626582Y382116D01*
X2627245Y381123D01*
X2632277Y376091D01*
X2633269Y375428D01*
X2634440Y375195D01*
X2634440Y375195D01*
X2669334D01*
X2669334Y375195D01*
X2670504Y375428D01*
X2671497Y376091D01*
X2681355Y385949D01*
X2681355Y385949D01*
X2682018Y386941D01*
X2682251Y388112D01*
Y562216D01*
X2682724Y562925D01*
X2683015Y564388D01*
X2682724Y565851D01*
X2681896Y567092D01*
X2680655Y567920D01*
X2679192Y568211D01*
X2677729Y567920D01*
X2676488Y567092D01*
X2675659Y565851D01*
X2675369Y564388D01*
X2675659Y562925D01*
X2676133Y562216D01*
Y528066D01*
X2674863Y527500D01*
X2674051Y528042D01*
X2672588Y528333D01*
X2671125Y528042D01*
X2669884Y527214D01*
X2669055Y525973D01*
X2668765Y524510D01*
X2669055Y523047D01*
X2669884Y521806D01*
X2671125Y520978D01*
X2672588Y520687D01*
X2674051Y520978D01*
X2674863Y521520D01*
X2676133Y520954D01*
Y510262D01*
X2669564D01*
Y503198D01*
X2676133D01*
Y468981D01*
X2675472Y468540D01*
X2674644Y467299D01*
X2674353Y465836D01*
X2674644Y464373D01*
X2675472Y463132D01*
X2676133Y462691D01*
Y451949D01*
X2674863Y451171D01*
X2674485Y451247D01*
X2669417Y456315D01*
X2668424Y456978D01*
X2667254Y457211D01*
X2667254Y457211D01*
X2658615D01*
X2647827Y467999D01*
X2646834Y468662D01*
X2646134Y468801D01*
X2646259Y470071D01*
X2660157D01*
X2660222Y469993D01*
X2660513Y468530D01*
X2661341Y467289D01*
X2662582Y466461D01*
X2664045Y466170D01*
X2665508Y466461D01*
X2666749Y467289D01*
X2667578Y468530D01*
X2667868Y469993D01*
X2667578Y471456D01*
X2666749Y472697D01*
X2666341Y472969D01*
X2666208Y473168D01*
X2666208Y473168D01*
X2664083Y475293D01*
X2663091Y475956D01*
X2661920Y476189D01*
X2661920Y476189D01*
X2655625D01*
X2655141Y477094D01*
X2655065Y477459D01*
X2655329Y478790D01*
X2655038Y480253D01*
X2654210Y481494D01*
X2652969Y482322D01*
X2651506Y482613D01*
X2650043Y482322D01*
X2649334Y481849D01*
X2639580D01*
X2639478Y482002D01*
X2638237Y482830D01*
X2636774Y483121D01*
X2635311Y482830D01*
X2634070Y482002D01*
X2633242Y480761D01*
X2632951Y479298D01*
X2633242Y477835D01*
X2633493Y477459D01*
X2632814Y476189D01*
X2621492D01*
X2621005Y477459D01*
X2621256Y477835D01*
X2621548Y479298D01*
X2621256Y480761D01*
X2620428Y482002D01*
X2619187Y482830D01*
X2617724Y483121D01*
X2616261Y482830D01*
X2615020Y482002D01*
X2614192Y480761D01*
X2613900Y479298D01*
X2614192Y477835D01*
X2614665Y477126D01*
Y473130D01*
X2614898Y471959D01*
X2615561Y470967D01*
X2616554Y470304D01*
X2617254Y470165D01*
X2617129Y468895D01*
X2612641D01*
X2602627Y478909D01*
X2602460Y479745D01*
X2601631Y480986D01*
X2600391Y481814D01*
X2598928Y482105D01*
X2597465Y481814D01*
X2596224Y480986D01*
X2595396Y479745D01*
X2595105Y478282D01*
X2595396Y476819D01*
X2596224Y475578D01*
X2597465Y474750D01*
X2598301Y474583D01*
X2608981Y463904D01*
X2608750Y463004D01*
X2608495Y462634D01*
X2573782D01*
X2572911Y463216D01*
Y470662D01*
X2572745Y471495D01*
X2572273Y472201D01*
X2570193Y474281D01*
X2570041Y475045D01*
X2569429Y475961D01*
X2568513Y476573D01*
X2567432Y476788D01*
X2566747D01*
X2566421Y477308D01*
X2566201Y478058D01*
X2566900Y479105D01*
X2567191Y480568D01*
X2566900Y482031D01*
X2566071Y483272D01*
X2564831Y484100D01*
X2563368Y484391D01*
X2562433Y484205D01*
X2561777Y484336D01*
X2551913D01*
X2551602Y484544D01*
X2550768Y484710D01*
X2549018D01*
X2548209Y485980D01*
X2548395Y486918D01*
X2548104Y488381D01*
X2547276Y489622D01*
X2546035Y490450D01*
X2544572Y490741D01*
X2543109Y490450D01*
X2541868Y489622D01*
X2541337Y488826D01*
X2540093Y488505D01*
X2539777Y488546D01*
X2539204Y488929D01*
X2538371Y489095D01*
X2534633D01*
X2533799Y488929D01*
X2533093Y488457D01*
X2528972Y484336D01*
X2519773D01*
X2519365Y484608D01*
X2517902Y484899D01*
X2516439Y484608D01*
X2515198Y483780D01*
X2514370Y482539D01*
X2514079Y481076D01*
X2514370Y479613D01*
X2514938Y478763D01*
X2514230Y477608D01*
X2513330Y477787D01*
X2511867Y477496D01*
X2510626Y476668D01*
X2509798Y475427D01*
X2509507Y473964D01*
X2509798Y472501D01*
X2510626Y471260D01*
X2511867Y470432D01*
X2513330Y470141D01*
X2514793Y470432D01*
X2516034Y471260D01*
X2516862Y472501D01*
X2517153Y473964D01*
X2516862Y475427D01*
X2516294Y476278D01*
X2517002Y477432D01*
X2517902Y477253D01*
X2519365Y477544D01*
X2520606Y478372D01*
X2521434Y479613D01*
X2521508Y479982D01*
X2524886D01*
X2525695Y478712D01*
X2525509Y477774D01*
X2525800Y476311D01*
X2526628Y475070D01*
X2527869Y474242D01*
X2529332Y473951D01*
X2530795Y474242D01*
X2532036Y475070D01*
X2532864Y476311D01*
X2533014Y477062D01*
X2534352Y477279D01*
X2534701Y476757D01*
X2539491Y471967D01*
X2539491Y471967D01*
X2540407Y471355D01*
X2541488Y471140D01*
X2541488Y471140D01*
X2567178D01*
X2568557Y469760D01*
Y446082D01*
X2568194Y445783D01*
X2566731Y445492D01*
X2565490Y444664D01*
X2564662Y443423D01*
X2564371Y441960D01*
X2564662Y440497D01*
X2565490Y439256D01*
X2566731Y438428D01*
X2568194Y438137D01*
X2569657Y438428D01*
X2570898Y439256D01*
X2571726Y440497D01*
X2572018Y441960D01*
X2571894Y442581D01*
X2572273Y442961D01*
X2572745Y443667D01*
X2572911Y444500D01*
Y448390D01*
X2573782Y448972D01*
X2613148D01*
X2613828Y447702D01*
X2613683Y447487D01*
X2613393Y446024D01*
X2613683Y444561D01*
X2614277Y443672D01*
Y435275D01*
X2613007Y434434D01*
X2612136Y434607D01*
X2610673Y434316D01*
X2610407Y434139D01*
X2609962Y434228D01*
X2608881Y434013D01*
X2607964Y433400D01*
X2607345Y432781D01*
X2606733Y431865D01*
X2606518Y430784D01*
X2606733Y429703D01*
X2607137Y429098D01*
Y416680D01*
X2606793Y416164D01*
X2606578Y415083D01*
X2606578Y415083D01*
Y410925D01*
X2606578Y410925D01*
X2606793Y409844D01*
X2607405Y408928D01*
X2610345Y405987D01*
X2610406Y405947D01*
X2610433Y405915D01*
X2610709Y404288D01*
X2610381Y403799D01*
X2610091Y402336D01*
X2610250Y401534D01*
X2609262Y400436D01*
X2608580Y400571D01*
X2607117Y400280D01*
X2605876Y399452D01*
X2605048Y398211D01*
X2604756Y396748D01*
X2605048Y395285D01*
X2605876Y394044D01*
X2607117Y393216D01*
X2608580Y392925D01*
X2610043Y393216D01*
X2611284Y394044D01*
X2612112Y395285D01*
X2612403Y396748D01*
X2612244Y397550D01*
X2613232Y398648D01*
X2613914Y398513D01*
X2614900Y398709D01*
X2616170Y397922D01*
Y393939D01*
X2615970Y393639D01*
X2615679Y392176D01*
X2615970Y390713D01*
X2616453Y389990D01*
X2615813Y388720D01*
X2549023D01*
X2548383Y389990D01*
X2548866Y390713D01*
X2549157Y392176D01*
X2548866Y393639D01*
X2548038Y394880D01*
X2547258Y395400D01*
X2547644Y396670D01*
X2553404D01*
X2553916Y396158D01*
X2554623Y395686D01*
X2555456Y395520D01*
X2559088D01*
X2559921Y395686D01*
X2560628Y396158D01*
X2560691Y396221D01*
X2562069Y395803D01*
X2562122Y395539D01*
X2562950Y394298D01*
X2564191Y393470D01*
X2565654Y393179D01*
X2567117Y393470D01*
X2568358Y394298D01*
X2569092Y395398D01*
X2569203Y395543D01*
X2570541Y395841D01*
X2571049Y395502D01*
X2572512Y395211D01*
X2573975Y395502D01*
X2574459Y395825D01*
X2575837Y395403D01*
X2575869Y395356D01*
X2576666Y394162D01*
X2577907Y393333D01*
X2579370Y393042D01*
X2580833Y393333D01*
X2582074Y394162D01*
X2582903Y395403D01*
X2583193Y396866D01*
X2582903Y398329D01*
X2582625Y398744D01*
X2582592Y398910D01*
X2582120Y399616D01*
X2581414Y400088D01*
X2581387Y400093D01*
X2581381Y400121D01*
X2580909Y400827D01*
X2580203Y401299D01*
X2579370Y401465D01*
X2578537Y401299D01*
X2577831Y400827D01*
X2577401Y400185D01*
X2577028Y400134D01*
X2576045Y400497D01*
X2576013Y400544D01*
X2575215Y401738D01*
X2573975Y402566D01*
X2572512Y402857D01*
X2571891Y402734D01*
X2570879Y403746D01*
Y428745D01*
X2571406Y429096D01*
X2572234Y430337D01*
X2572525Y431800D01*
X2572234Y433263D01*
X2571406Y434504D01*
X2570165Y435332D01*
X2568702Y435623D01*
X2567239Y435332D01*
X2565999Y434504D01*
X2565170Y433263D01*
X2564879Y431800D01*
X2565170Y430337D01*
X2565999Y429096D01*
X2566525Y428745D01*
Y424914D01*
X2565272Y424223D01*
X2563809Y424514D01*
X2562346Y424223D01*
X2561105Y423395D01*
X2560276Y422154D01*
X2559986Y420691D01*
X2560276Y419228D01*
X2561105Y417987D01*
X2561632Y417635D01*
Y405388D01*
X2561222Y405091D01*
X2559976Y404786D01*
X2558735Y405614D01*
X2557272Y405905D01*
X2555809Y405614D01*
X2554568Y404786D01*
X2553740Y403545D01*
X2553449Y402082D01*
X2553464Y402006D01*
X2552658Y401024D01*
X2547470D01*
X2546245Y402248D01*
X2545539Y402720D01*
X2544706Y402886D01*
X2532785D01*
X2531952Y402720D01*
X2531246Y402248D01*
X2528937Y399940D01*
X2528316Y400063D01*
X2526853Y399772D01*
X2526593Y399599D01*
X2526421Y399679D01*
X2525564Y400438D01*
X2525789Y401574D01*
X2525498Y403037D01*
X2524670Y404278D01*
X2523429Y405106D01*
X2521966Y405397D01*
X2520503Y405106D01*
X2519571Y404484D01*
X2518523Y404869D01*
X2518301Y405046D01*
Y422818D01*
X2518574Y423000D01*
X2519402Y424241D01*
X2519693Y425704D01*
X2519402Y427167D01*
X2518574Y428408D01*
X2517333Y429236D01*
X2515870Y429527D01*
X2514407Y429236D01*
X2513166Y428408D01*
X2512338Y427167D01*
X2512047Y425704D01*
X2512338Y424241D01*
X2513166Y423000D01*
X2513947Y422479D01*
Y401215D01*
X2514113Y400382D01*
X2514123Y400366D01*
X2503016Y389258D01*
X2501746Y389784D01*
Y448972D01*
X2562860D01*
X2564008Y449448D01*
X2564484Y450596D01*
Y461010D01*
X2564008Y462158D01*
X2562860Y462634D01*
X2490724D01*
X2489576Y462158D01*
X2488306Y460888D01*
X2487830Y459740D01*
Y387604D01*
X2488306Y386456D01*
X2489454Y385980D01*
X2497942D01*
X2498468Y384710D01*
X2493757Y379999D01*
X2493285Y379293D01*
X2493119Y378460D01*
Y366423D01*
X2492946Y366400D01*
X2490757Y365494D01*
X2488877Y364051D01*
X2487435Y362171D01*
X2486528Y359981D01*
X2486460Y359464D01*
X2485404Y358759D01*
X2484074Y359115D01*
X2478544Y361693D01*
X2473547Y365193D01*
X2469233Y369507D01*
X2465733Y374504D01*
X2464304Y377570D01*
X2464765Y378753D01*
X2465605Y379102D01*
X2467511Y380564D01*
X2468972Y382469D01*
X2469891Y384687D01*
X2470205Y387068D01*
Y431828D01*
X2469891Y434209D01*
X2468972Y436427D01*
X2467511Y438332D01*
X2465605Y439794D01*
X2463387Y440713D01*
X2461044Y441022D01*
Y444390D01*
X2469498D01*
Y462390D01*
X2461044D01*
Y469784D01*
X2462847Y470022D01*
X2465037Y470928D01*
X2466917Y472371D01*
X2468360Y474251D01*
X2469070Y475966D01*
X2480564D01*
X2480564Y475966D01*
X2481645Y476181D01*
X2482561Y476793D01*
X2491197Y485429D01*
X2491197Y485429D01*
X2491809Y486345D01*
X2492024Y487426D01*
X2492024Y487426D01*
Y587677D01*
X2493294Y588063D01*
X2493608Y587592D01*
X2494849Y586764D01*
X2496312Y586473D01*
X2497775Y586764D01*
X2499016Y587592D01*
X2499844Y588833D01*
X2500135Y590296D01*
X2499844Y591759D01*
X2500153Y592505D01*
X2500616Y592891D01*
X2501810Y593688D01*
X2502638Y594929D01*
X2502929Y596392D01*
X2502638Y597855D01*
X2501810Y599096D01*
X2500569Y599924D01*
X2499106Y600215D01*
X2497643Y599924D01*
X2496402Y599096D01*
X2495574Y597855D01*
X2495283Y596392D01*
X2495433Y595635D01*
X2495098Y595308D01*
X2494984Y595309D01*
X2493764Y595672D01*
X2493174Y596556D01*
X2491933Y597384D01*
X2490470Y597675D01*
X2489007Y597384D01*
X2487766Y596556D01*
X2486938Y595315D01*
X2485674Y595474D01*
Y597425D01*
X2486382Y598485D01*
X2486673Y599948D01*
X2486382Y601411D01*
X2485554Y602652D01*
X2484313Y603480D01*
X2482850Y603771D01*
X2481387Y603480D01*
X2480146Y602652D01*
X2479318Y601411D01*
X2479027Y599948D01*
X2479318Y598485D01*
X2480026Y597425D01*
Y516282D01*
X2470758Y507014D01*
X2469070D01*
X2468360Y508729D01*
X2466917Y510609D01*
X2465037Y512052D01*
X2462847Y512958D01*
X2461044Y513196D01*
Y520584D01*
X2462847Y520822D01*
X2465037Y521729D01*
X2466917Y523171D01*
X2468360Y525051D01*
X2469266Y527240D01*
X2469576Y529590D01*
X2469266Y531940D01*
X2468360Y534129D01*
X2466917Y536009D01*
X2465037Y537452D01*
X2462847Y538358D01*
X2461044Y538596D01*
Y545984D01*
X2462847Y546222D01*
X2465037Y547128D01*
X2466917Y548571D01*
X2468360Y550451D01*
X2469266Y552640D01*
X2469576Y554990D01*
X2469266Y557340D01*
X2468360Y559529D01*
X2466917Y561409D01*
X2465037Y562851D01*
X2462847Y563758D01*
X2461044Y563996D01*
Y571384D01*
X2462847Y571622D01*
X2465037Y572528D01*
X2466917Y573971D01*
X2468360Y575851D01*
X2469266Y578041D01*
X2469576Y580390D01*
X2469266Y582739D01*
X2468360Y584929D01*
X2466917Y586809D01*
X2465037Y588251D01*
X2462847Y589158D01*
X2461044Y589396D01*
Y606442D01*
X2469752D01*
Y610344D01*
X2474214D01*
X2476165Y610732D01*
X2477236Y611448D01*
X2478379Y610684D01*
X2478265Y610108D01*
X2478556Y608645D01*
X2479384Y607404D01*
X2480625Y606576D01*
X2482088Y606285D01*
X2483551Y606576D01*
X2484792Y607404D01*
X2485620Y608645D01*
X2485911Y610108D01*
X2485620Y611571D01*
X2484792Y612812D01*
X2483551Y613640D01*
X2482088Y613931D01*
X2481615Y613837D01*
X2480989Y615008D01*
X2491339Y625358D01*
X2492790Y625013D01*
X2493354Y624168D01*
X2494595Y623340D01*
X2496058Y623049D01*
X2497521Y623340D01*
X2498762Y624168D01*
X2499590Y625409D01*
X2499881Y626872D01*
X2499590Y628335D01*
X2498762Y629576D01*
X2497521Y630404D01*
X2497518Y630405D01*
X2497134Y631331D01*
X2497102Y631783D01*
X2497462Y633592D01*
Y673582D01*
X2498732Y674260D01*
X2498913Y674140D01*
X2500376Y673849D01*
X2501839Y674140D01*
X2502771Y674762D01*
X2503819Y674377D01*
X2504041Y674200D01*
Y647636D01*
X2504207Y646804D01*
X2504679Y646097D01*
X2508359Y642417D01*
Y547510D01*
X2505399Y544549D01*
X2504021Y544967D01*
X2503908Y545531D01*
X2503080Y546772D01*
X2501839Y547600D01*
X2500376Y547891D01*
X2498913Y547600D01*
X2497672Y546772D01*
X2496844Y545531D01*
X2496553Y544068D01*
X2496844Y542605D01*
X2497672Y541364D01*
X2498185Y541022D01*
Y539494D01*
X2497672Y539152D01*
X2496844Y537911D01*
X2496553Y536448D01*
X2496844Y534985D01*
X2497672Y533744D01*
X2498913Y532916D01*
X2500376Y532625D01*
X2501839Y532916D01*
X2503080Y533744D01*
X2503908Y534985D01*
X2503938Y535135D01*
X2505287Y535403D01*
X2505546Y535014D01*
X2506787Y534186D01*
X2508250Y533895D01*
X2509713Y534186D01*
X2510732Y534866D01*
X2511545Y534614D01*
X2512002Y534304D01*
Y529309D01*
X2506586Y523893D01*
X2503601D01*
X2503080Y524674D01*
X2501839Y525502D01*
X2500376Y525793D01*
X2498913Y525502D01*
X2497672Y524674D01*
X2496844Y523433D01*
X2496553Y521970D01*
X2496844Y520507D01*
X2497672Y519266D01*
X2498913Y518438D01*
X2500376Y518147D01*
X2501839Y518438D01*
X2503080Y519266D01*
X2503262Y519539D01*
X2507488D01*
X2508321Y519705D01*
X2509027Y520177D01*
X2515718Y526868D01*
X2516190Y527574D01*
X2516356Y528407D01*
Y545972D01*
X2517626Y546781D01*
X2518564Y546595D01*
X2520027Y546886D01*
X2521267Y547714D01*
X2522096Y548955D01*
X2522387Y550418D01*
X2522096Y551881D01*
X2521267Y553122D01*
X2520027Y553950D01*
X2518564Y554241D01*
X2517626Y554055D01*
X2516356Y554864D01*
Y679839D01*
X2517050Y680302D01*
X2517878Y681543D01*
X2518169Y683006D01*
X2517878Y684469D01*
X2517050Y685710D01*
X2515809Y686538D01*
X2514346Y686829D01*
X2512883Y686538D01*
X2511642Y685710D01*
X2510903Y684603D01*
X2510748Y684550D01*
X2510275Y684499D01*
X2509533Y684541D01*
X2508922Y685456D01*
X2507681Y686284D01*
X2506218Y686575D01*
X2504755Y686284D01*
X2503514Y685456D01*
X2502686Y684215D01*
X2502395Y682752D01*
X2502490Y682271D01*
X2502350Y682041D01*
X2501390Y681294D01*
X2500376Y681495D01*
X2498913Y681204D01*
X2498732Y681084D01*
X2497462Y681762D01*
Y826701D01*
X2498863Y827775D01*
X2500121Y829415D01*
X2500912Y831325D01*
X2501182Y833374D01*
X2500912Y835423D01*
X2500121Y837333D01*
X2498863Y838973D01*
X2497223Y840231D01*
X2495313Y841022D01*
X2493264Y841292D01*
X2491215Y841022D01*
X2489305Y840231D01*
X2487665Y838973D01*
X2486407Y837333D01*
X2485616Y835423D01*
X2485346Y833374D01*
X2485616Y831325D01*
X2486407Y829415D01*
X2487266Y828296D01*
Y635704D01*
X2481209Y629646D01*
X2480038Y630272D01*
X2480069Y630428D01*
X2479778Y631891D01*
X2478950Y633132D01*
X2478423Y633484D01*
Y685038D01*
X2478257Y685871D01*
X2477785Y686577D01*
X2471181Y693181D01*
X2470475Y693653D01*
X2469642Y693819D01*
X2469543D01*
X2469520Y693991D01*
X2468613Y696181D01*
X2467171Y698061D01*
X2465291Y699503D01*
X2463102Y700410D01*
X2461044Y700681D01*
Y708003D01*
X2463102Y708274D01*
X2465291Y709181D01*
X2467171Y710623D01*
X2468613Y712503D01*
X2469520Y714693D01*
X2469830Y717042D01*
X2469520Y719391D01*
X2468613Y721581D01*
X2467171Y723461D01*
X2465291Y724903D01*
X2463102Y725810D01*
X2461044Y726081D01*
Y769542D01*
X2463387Y769851D01*
X2465605Y770770D01*
X2467511Y772232D01*
X2468972Y774137D01*
X2469891Y776355D01*
X2470205Y778736D01*
Y823496D01*
X2469891Y825877D01*
X2468972Y828095D01*
X2467511Y830000D01*
X2465605Y831462D01*
X2463387Y832381D01*
X2461044Y832690D01*
Y841927D01*
X2461576Y848005D01*
X2463155Y853898D01*
X2465733Y859427D01*
X2469233Y864425D01*
X2473547Y868739D01*
X2478544Y872238D01*
X2484074Y874816D01*
X2489967Y876395D01*
X2495170Y876851D01*
X2496378Y876300D01*
X2496688Y873951D01*
X2497594Y871761D01*
X2499037Y869881D01*
X2500917Y868438D01*
X2503107Y867532D01*
X2505456Y867222D01*
X2507805Y867532D01*
X2509995Y868438D01*
X2511875Y869881D01*
X2513318Y871761D01*
X2514224Y873951D01*
X2514534Y876300D01*
X2515084Y876927D01*
X2521778Y876927D01*
D02*
G37*
%LPC*%
G36*
X2622042Y568211D02*
X2620579Y567920D01*
X2619338Y567092D01*
X2618510Y565851D01*
X2618219Y564388D01*
X2618510Y562925D01*
X2619338Y561684D01*
X2620579Y560856D01*
X2622042Y560565D01*
X2623505Y560856D01*
X2624745Y561684D01*
X2625574Y562925D01*
X2625865Y564388D01*
X2625574Y565851D01*
X2624745Y567092D01*
X2623505Y567920D01*
X2622042Y568211D01*
D02*
G37*
G36*
X2534388Y575807D02*
X2532925Y575516D01*
X2531684Y574688D01*
X2530856Y573447D01*
X2530565Y571984D01*
X2530602Y571794D01*
X2529522Y570714D01*
X2529332Y570751D01*
X2527869Y570460D01*
X2526628Y569632D01*
X2525800Y568391D01*
X2525509Y566928D01*
X2525552Y566708D01*
X2524472Y565628D01*
X2524252Y565671D01*
X2522789Y565380D01*
X2521548Y564552D01*
X2520720Y563311D01*
X2520429Y561848D01*
X2520720Y560385D01*
X2521548Y559144D01*
X2522789Y558316D01*
X2524252Y558025D01*
X2525715Y558316D01*
X2526956Y559144D01*
X2527784Y560385D01*
X2528075Y561848D01*
X2528032Y562068D01*
X2529112Y563148D01*
X2529332Y563105D01*
X2530795Y563396D01*
X2532036Y564224D01*
X2532864Y565465D01*
X2533155Y566928D01*
X2533118Y567118D01*
X2534198Y568198D01*
X2534388Y568161D01*
X2535851Y568452D01*
X2537092Y569280D01*
X2537920Y570521D01*
X2538211Y571984D01*
X2537920Y573447D01*
X2537092Y574688D01*
X2535851Y575516D01*
X2534388Y575807D01*
D02*
G37*
G36*
X2647696Y561861D02*
X2646233Y561570D01*
X2644992Y560742D01*
X2644164Y559501D01*
X2643873Y558038D01*
X2644164Y556575D01*
X2644992Y555334D01*
X2646233Y554506D01*
X2647696Y554215D01*
X2649159Y554506D01*
X2650399Y555334D01*
X2651228Y556575D01*
X2651519Y558038D01*
X2651228Y559501D01*
X2650399Y560742D01*
X2649159Y561570D01*
X2647696Y561861D01*
D02*
G37*
G36*
X2705608Y559617D02*
X2703227Y559303D01*
X2701009Y558384D01*
X2699103Y556922D01*
X2697642Y555017D01*
X2696723Y552799D01*
X2696409Y550418D01*
X2696723Y548037D01*
X2697642Y545819D01*
X2699103Y543913D01*
X2701009Y542452D01*
X2703227Y541533D01*
X2705608Y541219D01*
X2707989Y541533D01*
X2710207Y542452D01*
X2712112Y543913D01*
X2713574Y545819D01*
X2714493Y548037D01*
X2714807Y550418D01*
X2714493Y552799D01*
X2713574Y555017D01*
X2712112Y556922D01*
X2710207Y558384D01*
X2707989Y559303D01*
X2705608Y559617D01*
D02*
G37*
G36*
X2621788Y558305D02*
X2620325Y558014D01*
X2619084Y557186D01*
X2618256Y555945D01*
X2617964Y554482D01*
X2618256Y553019D01*
X2619084Y551778D01*
X2620325Y550950D01*
X2621788Y550659D01*
X2623251Y550950D01*
X2624492Y551778D01*
X2625320Y553019D01*
X2625611Y554482D01*
X2625320Y555945D01*
X2624492Y557186D01*
X2623251Y558014D01*
X2621788Y558305D01*
D02*
G37*
G36*
X2537968Y616471D02*
X2536505Y616180D01*
X2535264Y615352D01*
X2534436Y614111D01*
X2534145Y612648D01*
X2534436Y611185D01*
X2535264Y609944D01*
X2536505Y609116D01*
X2537968Y608825D01*
X2539431Y609116D01*
X2540672Y609944D01*
X2541500Y611185D01*
X2541791Y612648D01*
X2541500Y614111D01*
X2540672Y615352D01*
X2539431Y616180D01*
X2537968Y616471D01*
D02*
G37*
G36*
X2543810Y624599D02*
X2542347Y624308D01*
X2541106Y623480D01*
X2540278Y622239D01*
X2539987Y620776D01*
X2540278Y619313D01*
X2541106Y618072D01*
X2542347Y617244D01*
X2543810Y616953D01*
X2545273Y617244D01*
X2546514Y618072D01*
X2547342Y619313D01*
X2547633Y620776D01*
X2547342Y622239D01*
X2546514Y623480D01*
X2545273Y624308D01*
X2543810Y624599D01*
D02*
G37*
G36*
X2651506Y590563D02*
X2650043Y590272D01*
X2648802Y589444D01*
X2647974Y588203D01*
X2647682Y586740D01*
X2647974Y585277D01*
X2648802Y584036D01*
X2650043Y583208D01*
X2651506Y582917D01*
X2652969Y583208D01*
X2654210Y584036D01*
X2655038Y585277D01*
X2655329Y586740D01*
X2655038Y588203D01*
X2654210Y589444D01*
X2652969Y590272D01*
X2651506Y590563D01*
D02*
G37*
G36*
X2498852Y585483D02*
X2497389Y585192D01*
X2496148Y584364D01*
X2495320Y583123D01*
X2495029Y581660D01*
X2495320Y580197D01*
X2496148Y578956D01*
X2496003Y577670D01*
X2495574Y577027D01*
X2495283Y575564D01*
X2495574Y574101D01*
X2496402Y572860D01*
X2497643Y572032D01*
X2499106Y571741D01*
X2500569Y572032D01*
X2501810Y572860D01*
X2502638Y574101D01*
X2502929Y575564D01*
X2502638Y577027D01*
X2501810Y578268D01*
X2501955Y579554D01*
X2502384Y580197D01*
X2502675Y581660D01*
X2502384Y583123D01*
X2501556Y584364D01*
X2500315Y585192D01*
X2498852Y585483D01*
D02*
G37*
G36*
X2640838Y584721D02*
X2639375Y584430D01*
X2638134Y583602D01*
X2637306Y582361D01*
X2637014Y580898D01*
X2637306Y579435D01*
X2638134Y578194D01*
X2639375Y577366D01*
X2640838Y577075D01*
X2642301Y577366D01*
X2643542Y578194D01*
X2644370Y579435D01*
X2644661Y580898D01*
X2644370Y582361D01*
X2643542Y583602D01*
X2642301Y584430D01*
X2640838Y584721D01*
D02*
G37*
G36*
X2503932Y471945D02*
X2502469Y471654D01*
X2501228Y470826D01*
X2500400Y469585D01*
X2500109Y468122D01*
X2500400Y466659D01*
X2501228Y465418D01*
X2502469Y464590D01*
X2503932Y464299D01*
X2505395Y464590D01*
X2506636Y465418D01*
X2507464Y466659D01*
X2507755Y468122D01*
X2507464Y469585D01*
X2506636Y470826D01*
X2505395Y471654D01*
X2503932Y471945D01*
D02*
G37*
G36*
X2589530Y483121D02*
X2588067Y482830D01*
X2586826Y482002D01*
X2585998Y480761D01*
X2585706Y479298D01*
X2585998Y477835D01*
X2586826Y476594D01*
X2588067Y475766D01*
X2589530Y475475D01*
X2590993Y475766D01*
X2592234Y476594D01*
X2593062Y477835D01*
X2593353Y479298D01*
X2593062Y480761D01*
X2592234Y482002D01*
X2590993Y482830D01*
X2589530Y483121D01*
D02*
G37*
G36*
X2593594Y471691D02*
X2592131Y471400D01*
X2590891Y470572D01*
X2590062Y469331D01*
X2589771Y467868D01*
X2590062Y466405D01*
X2590891Y465164D01*
X2592131Y464336D01*
X2593594Y464045D01*
X2595057Y464336D01*
X2596298Y465164D01*
X2597126Y466405D01*
X2597417Y467868D01*
X2597126Y469331D01*
X2596298Y470572D01*
X2595057Y471400D01*
X2593594Y471691D01*
D02*
G37*
G36*
X2548636Y441211D02*
X2547173Y440920D01*
X2545932Y440092D01*
X2545104Y438851D01*
X2544813Y437388D01*
X2545104Y435925D01*
X2545932Y434684D01*
X2547173Y433856D01*
X2548636Y433565D01*
X2550099Y433856D01*
X2551340Y434684D01*
X2552168Y435925D01*
X2552459Y437388D01*
X2552168Y438851D01*
X2551340Y440092D01*
X2550099Y440920D01*
X2548636Y441211D01*
D02*
G37*
G36*
X2558796Y445529D02*
X2557333Y445238D01*
X2556092Y444410D01*
X2555264Y443169D01*
X2554973Y441706D01*
X2555264Y440243D01*
X2556092Y439002D01*
X2557333Y438174D01*
X2558796Y437883D01*
X2560259Y438174D01*
X2561500Y439002D01*
X2562328Y440243D01*
X2562619Y441706D01*
X2562328Y443169D01*
X2561500Y444410D01*
X2560259Y445238D01*
X2558796Y445529D01*
D02*
G37*
G36*
X2637536Y533667D02*
X2636073Y533376D01*
X2634832Y532548D01*
X2634004Y531307D01*
X2633712Y529844D01*
X2634004Y528381D01*
X2634832Y527140D01*
X2636073Y526312D01*
X2637536Y526021D01*
X2638999Y526312D01*
X2640240Y527140D01*
X2641068Y528381D01*
X2641359Y529844D01*
X2641068Y531307D01*
X2640240Y532548D01*
X2638999Y533376D01*
X2637536Y533667D01*
D02*
G37*
G36*
X2659634Y544335D02*
X2658171Y544044D01*
X2656931Y543216D01*
X2656102Y541975D01*
X2655811Y540512D01*
X2656102Y539049D01*
X2656931Y537808D01*
X2658171Y536980D01*
X2659634Y536689D01*
X2661097Y536980D01*
X2662338Y537808D01*
X2663167Y539049D01*
X2663457Y540512D01*
X2663167Y541975D01*
X2662338Y543216D01*
X2661097Y544044D01*
X2659634Y544335D01*
D02*
G37*
G36*
X2562352Y533667D02*
X2560889Y533376D01*
X2559648Y532548D01*
X2558820Y531307D01*
X2558529Y529844D01*
X2558820Y528381D01*
X2559648Y527140D01*
X2560889Y526312D01*
X2562352Y526021D01*
X2563815Y526312D01*
X2565056Y527140D01*
X2565884Y528381D01*
X2566176Y529844D01*
X2565884Y531307D01*
X2565056Y532548D01*
X2563815Y533376D01*
X2562352Y533667D01*
D02*
G37*
G36*
X2569464Y518999D02*
X2566349Y518589D01*
X2563447Y517387D01*
X2560955Y515475D01*
X2559043Y512982D01*
X2557841Y510080D01*
X2557431Y506966D01*
X2557841Y503852D01*
X2559043Y500950D01*
X2560955Y498457D01*
X2563447Y496545D01*
X2566349Y495343D01*
X2569464Y494933D01*
X2572578Y495343D01*
X2575480Y496545D01*
X2577972Y498457D01*
X2579885Y500950D01*
X2581087Y503852D01*
X2581497Y506966D01*
X2581087Y510080D01*
X2579885Y512982D01*
X2577972Y515475D01*
X2575480Y517387D01*
X2572578Y518589D01*
X2569464Y518999D01*
D02*
G37*
G36*
X2595372Y529349D02*
X2593909Y529058D01*
X2592668Y528230D01*
X2591840Y526989D01*
X2591548Y525526D01*
X2591840Y524063D01*
X2592668Y522822D01*
X2593909Y521994D01*
X2595372Y521703D01*
X2596835Y521994D01*
X2598076Y522822D01*
X2598904Y524063D01*
X2599195Y525526D01*
X2598904Y526989D01*
X2598076Y528230D01*
X2596835Y529058D01*
X2595372Y529349D01*
D02*
G37*
G36*
X2651252Y630949D02*
X2649789Y630658D01*
X2648548Y629830D01*
X2647720Y628589D01*
X2647429Y627126D01*
X2647720Y625663D01*
X2648548Y624422D01*
X2649789Y623594D01*
X2651252Y623303D01*
X2652715Y623594D01*
X2653956Y624422D01*
X2654785Y625663D01*
X2655075Y627126D01*
X2654785Y628589D01*
X2653956Y629830D01*
X2652715Y630658D01*
X2651252Y630949D01*
D02*
G37*
G36*
X2536444Y746773D02*
X2534981Y746482D01*
X2533740Y745654D01*
X2532912Y744413D01*
X2532621Y742950D01*
X2532912Y741487D01*
X2533740Y740246D01*
X2534981Y739418D01*
X2536444Y739127D01*
X2537907Y739418D01*
X2539148Y740246D01*
X2539976Y741487D01*
X2540267Y742950D01*
X2539976Y744413D01*
X2539148Y745654D01*
X2537907Y746482D01*
X2536444Y746773D01*
D02*
G37*
G36*
X2605504Y783123D02*
X2604041Y782832D01*
X2602801Y782003D01*
X2601972Y780763D01*
X2601681Y779300D01*
X2601972Y777837D01*
X2602801Y776596D01*
X2604041Y775768D01*
X2604742Y775628D01*
X2605641Y775194D01*
X2606075Y774295D01*
X2606214Y773594D01*
X2607043Y772354D01*
X2608284Y771525D01*
X2608985Y771385D01*
X2609883Y770951D01*
X2610317Y770052D01*
X2610457Y769352D01*
X2611286Y768111D01*
X2612526Y767282D01*
X2613227Y767143D01*
X2614126Y766709D01*
X2614560Y765810D01*
X2614700Y765109D01*
X2615528Y763868D01*
X2616769Y763040D01*
X2618232Y762749D01*
X2619695Y763040D01*
X2620936Y763868D01*
X2621288Y764395D01*
X2655228D01*
X2655461Y764240D01*
X2656294Y764074D01*
X2659926D01*
X2660759Y764240D01*
X2660992Y764395D01*
X2668093D01*
X2668615Y763614D01*
X2669855Y762786D01*
X2671318Y762495D01*
X2672781Y762786D01*
X2674022Y763614D01*
X2674850Y764855D01*
X2675141Y766318D01*
X2674850Y767781D01*
X2674022Y769022D01*
X2672781Y769850D01*
X2671318Y770141D01*
X2669855Y769850D01*
X2668615Y769022D01*
X2668432Y768749D01*
X2662770D01*
X2661811Y770019D01*
X2661933Y770636D01*
X2661711Y771753D01*
X2662437Y773023D01*
X2689877D01*
X2690314Y772586D01*
X2691021Y772114D01*
X2691854Y771948D01*
X2709351D01*
X2710007Y772079D01*
X2710942Y771893D01*
X2712405Y772184D01*
X2713646Y773012D01*
X2714474Y774253D01*
X2714765Y775716D01*
X2714474Y777179D01*
X2713646Y778420D01*
X2712405Y779248D01*
X2710942Y779539D01*
X2709479Y779248D01*
X2708239Y778420D01*
X2707410Y777179D01*
X2707235Y776302D01*
X2698116D01*
X2697307Y777572D01*
X2697493Y778510D01*
X2697202Y779973D01*
X2696374Y781214D01*
X2695133Y782042D01*
X2693670Y782333D01*
X2692207Y782042D01*
X2691573Y781619D01*
X2608464D01*
X2608208Y782003D01*
X2606967Y782832D01*
X2605504Y783123D01*
D02*
G37*
G36*
X2511044Y746011D02*
X2509581Y745720D01*
X2508340Y744892D01*
X2507512Y743651D01*
X2507221Y742188D01*
X2507512Y740725D01*
X2508340Y739484D01*
X2509581Y738656D01*
X2511044Y738365D01*
X2512507Y738656D01*
X2513748Y739484D01*
X2514576Y740725D01*
X2514867Y742188D01*
X2514576Y743651D01*
X2513748Y744892D01*
X2512507Y745720D01*
X2511044Y746011D01*
D02*
G37*
G36*
X2594864Y761251D02*
X2593401Y760960D01*
X2592160Y760132D01*
X2591331Y758891D01*
X2591041Y757428D01*
X2591331Y755965D01*
X2592160Y754724D01*
X2593195Y754033D01*
Y710699D01*
X2592668Y710348D01*
X2591840Y709107D01*
X2591548Y707644D01*
X2591840Y706181D01*
X2592668Y704940D01*
X2593909Y704112D01*
X2595372Y703821D01*
X2596835Y704112D01*
X2598076Y704940D01*
X2599227Y704377D01*
X2600005Y703858D01*
X2601468Y703567D01*
X2602931Y703858D01*
X2604171Y704686D01*
X2605000Y705927D01*
X2605291Y707390D01*
X2605000Y708853D01*
X2604171Y710094D01*
X2603899Y710276D01*
Y748615D01*
X2604680Y749136D01*
X2605508Y750377D01*
X2605799Y751840D01*
X2605508Y753303D01*
X2604680Y754544D01*
X2603439Y755372D01*
X2601976Y755663D01*
X2600513Y755372D01*
X2599597Y754760D01*
X2598461Y754963D01*
X2598137Y755130D01*
X2598038Y755429D01*
X2598396Y755965D01*
X2598687Y757428D01*
X2598396Y758891D01*
X2597568Y760132D01*
X2596327Y760960D01*
X2594864Y761251D01*
D02*
G37*
G36*
X2665730Y712483D02*
X2664267Y712192D01*
X2663026Y711364D01*
X2662198Y710123D01*
X2661907Y708660D01*
X2662198Y707197D01*
X2663026Y705956D01*
X2664267Y705128D01*
X2665730Y704837D01*
X2667193Y705128D01*
X2668434Y705956D01*
X2669262Y707197D01*
X2669554Y708660D01*
X2669262Y710123D01*
X2668434Y711364D01*
X2667193Y712192D01*
X2665730Y712483D01*
D02*
G37*
G36*
X2569718Y840022D02*
X2567669Y839752D01*
X2565759Y838961D01*
X2564119Y837703D01*
X2562861Y836063D01*
X2562070Y834153D01*
X2561800Y832104D01*
X2562070Y830055D01*
X2562861Y828145D01*
X2564119Y826505D01*
X2565759Y825247D01*
X2567669Y824456D01*
X2569718Y824186D01*
X2571767Y824456D01*
X2573677Y825247D01*
X2575317Y826505D01*
X2576575Y828145D01*
X2577366Y830055D01*
X2577636Y832104D01*
X2577366Y834153D01*
X2576575Y836063D01*
X2575317Y837703D01*
X2573677Y838961D01*
X2571767Y839752D01*
X2569718Y840022D01*
D02*
G37*
G36*
X2593062Y854432D02*
X2585998D01*
Y847368D01*
X2593062D01*
Y854432D01*
D02*
G37*
G36*
X2585974Y831894D02*
X2583925Y831624D01*
X2582015Y830833D01*
X2580375Y829575D01*
X2579117Y827935D01*
X2578326Y826025D01*
X2578056Y823976D01*
X2578326Y821927D01*
X2579117Y820017D01*
X2580375Y818377D01*
X2582015Y817119D01*
X2583925Y816328D01*
X2585974Y816058D01*
X2588023Y816328D01*
X2589933Y817119D01*
X2591573Y818377D01*
X2592831Y820017D01*
X2593622Y821927D01*
X2593892Y823976D01*
X2593622Y826025D01*
X2592831Y827935D01*
X2591573Y829575D01*
X2589933Y830833D01*
X2588023Y831624D01*
X2585974Y831894D01*
D02*
G37*
G36*
X2620518Y856786D02*
X2618469Y856516D01*
X2616559Y855725D01*
X2614919Y854467D01*
X2613661Y852827D01*
X2612870Y850917D01*
X2612600Y848868D01*
X2612870Y846819D01*
X2613661Y844909D01*
X2614919Y843269D01*
X2616559Y842011D01*
X2618469Y841220D01*
X2620518Y840950D01*
X2622567Y841220D01*
X2624061Y841839D01*
X2639502Y826398D01*
X2639032Y825263D01*
X2638762Y823214D01*
X2639032Y821165D01*
X2639823Y819255D01*
X2641081Y817615D01*
X2642721Y816357D01*
X2644631Y815566D01*
X2646680Y815296D01*
X2647005Y815339D01*
X2672109Y790235D01*
X2672357Y788985D01*
X2673186Y787744D01*
X2674427Y786916D01*
X2675890Y786625D01*
X2677353Y786916D01*
X2678594Y787744D01*
X2679422Y788985D01*
X2679713Y790448D01*
X2679422Y791911D01*
X2678594Y793152D01*
X2677353Y793980D01*
X2676103Y794229D01*
X2652469Y817863D01*
X2653537Y819255D01*
X2654328Y821165D01*
X2654598Y823214D01*
X2654328Y825263D01*
X2653537Y827173D01*
X2652279Y828813D01*
X2650639Y830071D01*
X2648729Y830862D01*
X2646680Y831132D01*
X2644631Y830862D01*
X2643496Y830392D01*
X2627845Y846043D01*
X2628166Y846819D01*
X2628436Y848868D01*
X2628166Y850917D01*
X2627375Y852827D01*
X2626117Y854467D01*
X2624477Y855725D01*
X2622567Y856516D01*
X2620518Y856786D01*
D02*
G37*
G36*
X2620832Y805658D02*
X2620832Y805658D01*
X2531063D01*
X2531063Y805658D01*
X2529982Y805443D01*
X2529066Y804831D01*
X2518998Y794763D01*
X2518918Y794779D01*
X2517455Y794488D01*
X2516214Y793660D01*
X2515386Y792419D01*
X2515095Y790956D01*
X2515386Y789493D01*
X2516214Y788252D01*
X2517455Y787424D01*
X2518918Y787133D01*
X2520381Y787424D01*
X2521622Y788252D01*
X2522450Y789493D01*
X2522633Y790410D01*
X2528186Y795963D01*
X2529660Y795641D01*
X2530184Y794856D01*
X2531425Y794028D01*
X2532888Y793737D01*
X2534351Y794028D01*
X2535592Y794856D01*
X2535943Y795383D01*
X2540622D01*
X2543665Y792340D01*
Y712978D01*
X2543831Y712145D01*
X2544303Y711439D01*
X2547306Y708435D01*
X2547099Y707390D01*
X2547390Y705927D01*
X2548218Y704686D01*
X2549459Y703858D01*
X2550922Y703567D01*
X2552385Y703858D01*
X2553626Y704686D01*
X2553801Y704949D01*
X2555071D01*
X2555076Y704940D01*
X2556317Y704112D01*
X2557780Y703821D01*
X2559243Y704112D01*
X2560484Y704940D01*
X2561312Y706181D01*
X2561603Y707644D01*
X2561312Y709107D01*
X2560484Y710348D01*
X2559243Y711176D01*
X2557780Y711467D01*
X2556523Y711217D01*
X2552083Y715658D01*
Y721801D01*
X2553353Y721989D01*
X2553746Y720692D01*
X2555318Y717750D01*
X2557434Y715172D01*
X2560012Y713057D01*
X2562953Y711485D01*
X2566145Y710517D01*
X2569464Y710190D01*
X2572783Y710517D01*
X2575974Y711485D01*
X2578915Y713057D01*
X2581494Y715172D01*
X2583609Y717750D01*
X2585181Y720692D01*
X2586149Y723883D01*
X2586476Y727202D01*
X2586149Y730521D01*
X2585181Y733712D01*
X2583609Y736654D01*
X2581494Y739232D01*
X2578915Y741347D01*
X2575974Y742919D01*
X2572783Y743887D01*
X2569464Y744214D01*
X2566145Y743887D01*
X2562953Y742919D01*
X2560012Y741347D01*
X2557434Y739232D01*
X2555318Y736654D01*
X2553746Y733712D01*
X2553353Y732415D01*
X2552083Y732603D01*
Y793456D01*
X2552544Y793835D01*
X2554007Y794126D01*
X2555248Y794954D01*
X2556076Y796195D01*
X2556367Y797658D01*
X2556152Y798740D01*
X2556894Y800010D01*
X2604634D01*
X2605449Y798740D01*
X2605265Y797814D01*
X2605556Y796351D01*
X2606384Y795110D01*
X2607625Y794282D01*
X2609088Y793991D01*
X2610551Y794282D01*
X2611792Y795110D01*
X2612621Y796351D01*
X2612911Y797814D01*
X2612727Y798740D01*
X2613542Y800010D01*
X2619662D01*
X2626643Y793029D01*
X2626891Y791779D01*
X2627720Y790538D01*
X2628961Y789710D01*
X2630424Y789418D01*
X2631887Y789710D01*
X2633128Y790538D01*
X2633956Y791779D01*
X2634247Y793242D01*
X2633956Y794705D01*
X2633128Y795946D01*
X2631887Y796774D01*
X2630637Y797023D01*
X2622829Y804831D01*
X2621913Y805443D01*
X2620832Y805658D01*
D02*
G37*
G36*
X2610612Y710197D02*
X2609149Y709906D01*
X2607908Y709078D01*
X2607079Y707837D01*
X2606789Y706374D01*
X2607079Y704911D01*
X2607908Y703670D01*
X2609149Y702842D01*
X2610612Y702551D01*
X2612075Y702842D01*
X2613316Y703670D01*
X2614144Y704911D01*
X2614435Y706374D01*
X2614144Y707837D01*
X2613316Y709078D01*
X2612075Y709906D01*
X2610612Y710197D01*
D02*
G37*
G36*
X2533904Y663461D02*
X2532441Y663170D01*
X2531200Y662342D01*
X2529722Y662416D01*
X2529367Y662653D01*
X2527904Y662944D01*
X2526441Y662653D01*
X2525200Y661824D01*
X2524372Y660584D01*
X2524081Y659121D01*
X2524372Y657658D01*
X2523449Y656752D01*
X2522310Y655992D01*
X2521482Y654751D01*
X2521191Y653288D01*
X2521482Y651825D01*
X2522310Y650584D01*
X2523345Y649893D01*
Y640637D01*
X2519090Y636381D01*
X2518618Y635675D01*
X2518452Y634842D01*
Y620230D01*
X2518618Y619397D01*
X2519090Y618690D01*
X2522861Y614919D01*
X2523568Y614447D01*
X2524401Y614281D01*
X2526022D01*
X2526374Y613754D01*
X2527615Y612926D01*
X2529078Y612635D01*
X2530541Y612926D01*
X2531782Y613754D01*
X2532610Y614995D01*
X2532901Y616458D01*
X2532610Y617921D01*
X2531782Y619162D01*
X2530541Y619990D01*
X2529078Y620281D01*
X2529031Y621487D01*
X2529091Y621792D01*
X2528800Y623255D01*
X2528636Y623501D01*
X2530938Y625802D01*
X2531410Y626509D01*
X2531576Y627342D01*
Y636817D01*
X2531657Y636891D01*
X2532846Y637380D01*
X2533711Y636802D01*
X2535174Y636511D01*
X2536637Y636802D01*
X2537878Y637630D01*
X2538706Y638871D01*
X2538997Y640334D01*
X2538706Y641797D01*
X2537878Y643038D01*
X2536637Y643866D01*
X2535174Y644157D01*
X2533711Y643866D01*
X2532846Y643288D01*
X2531657Y643777D01*
X2531576Y643851D01*
Y655272D01*
X2532846Y656025D01*
X2533904Y655815D01*
X2535367Y656106D01*
X2536608Y656934D01*
X2537436Y658175D01*
X2537727Y659638D01*
X2537436Y661101D01*
X2536608Y662342D01*
X2535367Y663170D01*
X2533904Y663461D01*
D02*
G37*
G36*
X2648966Y670573D02*
X2647503Y670282D01*
X2646263Y669454D01*
X2645434Y668213D01*
X2645143Y666750D01*
X2645434Y665287D01*
X2646263Y664046D01*
X2647503Y663218D01*
X2648966Y662927D01*
X2650429Y663218D01*
X2651670Y664046D01*
X2652498Y665287D01*
X2652789Y666750D01*
X2652498Y668213D01*
X2651670Y669454D01*
X2650429Y670282D01*
X2648966Y670573D01*
D02*
G37*
G36*
X2543810Y651269D02*
X2542347Y650978D01*
X2541106Y650150D01*
X2540278Y648909D01*
X2539987Y647446D01*
X2540278Y645983D01*
X2541106Y644742D01*
X2542347Y643914D01*
X2543810Y643623D01*
X2545273Y643914D01*
X2546514Y644742D01*
X2547342Y645983D01*
X2547633Y647446D01*
X2547342Y648909D01*
X2546514Y650150D01*
X2545273Y650978D01*
X2543810Y651269D01*
D02*
G37*
G36*
X2595372Y632473D02*
X2593909Y632182D01*
X2592668Y631354D01*
X2591840Y630113D01*
X2591548Y628650D01*
X2591840Y627187D01*
X2592668Y625946D01*
X2593909Y625118D01*
X2595372Y624827D01*
X2596835Y625118D01*
X2598076Y625946D01*
X2598904Y627187D01*
X2599195Y628650D01*
X2598904Y630113D01*
X2598076Y631354D01*
X2596835Y632182D01*
X2595372Y632473D01*
D02*
G37*
G36*
X2643886Y662953D02*
X2642423Y662662D01*
X2641182Y661834D01*
X2640354Y660593D01*
X2640063Y659130D01*
X2640269Y658092D01*
X2640173Y657481D01*
X2639450Y656733D01*
X2638613Y656566D01*
X2637372Y655738D01*
X2636544Y654497D01*
X2636253Y653034D01*
X2636544Y651571D01*
X2637372Y650330D01*
X2638613Y649502D01*
X2640076Y649211D01*
X2641539Y649502D01*
X2642780Y650330D01*
X2643608Y651571D01*
X2643900Y653034D01*
X2643693Y654072D01*
X2643788Y654683D01*
X2644512Y655431D01*
X2645349Y655598D01*
X2646479Y656353D01*
X2647278Y655156D01*
X2647770Y654828D01*
X2648228Y653227D01*
X2647937Y651764D01*
X2648228Y650301D01*
X2648487Y649913D01*
X2648749Y648794D01*
X2648163Y648285D01*
X2647532Y647864D01*
X2646703Y646623D01*
X2646413Y645160D01*
X2646703Y643697D01*
X2647532Y642456D01*
X2648773Y641628D01*
X2650236Y641337D01*
X2651699Y641628D01*
X2652939Y642456D01*
X2653768Y643697D01*
X2654059Y645160D01*
X2653768Y646623D01*
X2653509Y647011D01*
X2653247Y648130D01*
X2653833Y648639D01*
X2654464Y649060D01*
X2655292Y650301D01*
X2655583Y651764D01*
X2655292Y653227D01*
X2654464Y654468D01*
X2653972Y654796D01*
X2653514Y656397D01*
X2653806Y657860D01*
X2653514Y659323D01*
X2652686Y660564D01*
X2651445Y661392D01*
X2649982Y661683D01*
X2648519Y661392D01*
X2647389Y660637D01*
X2646590Y661834D01*
X2645349Y662662D01*
X2643886Y662953D01*
D02*
G37*
G36*
X2652522Y702577D02*
X2651059Y702286D01*
X2649818Y701458D01*
X2648990Y700217D01*
X2648699Y698754D01*
X2648990Y697291D01*
X2649818Y696050D01*
X2651059Y695222D01*
X2652522Y694931D01*
X2653985Y695222D01*
X2655226Y696050D01*
X2656054Y697291D01*
X2656346Y698754D01*
X2656054Y700217D01*
X2655226Y701458D01*
X2653985Y702286D01*
X2652522Y702577D01*
D02*
G37*
G36*
X2567498Y707469D02*
X2566035Y707178D01*
X2564794Y706349D01*
X2563965Y705109D01*
X2563674Y703646D01*
X2563965Y702183D01*
X2564794Y700942D01*
X2566035Y700113D01*
X2567498Y699822D01*
X2568961Y700113D01*
X2570201Y700942D01*
X2571030Y702183D01*
X2571321Y703646D01*
X2571030Y705109D01*
X2570201Y706349D01*
X2568961Y707178D01*
X2567498Y707469D01*
D02*
G37*
G36*
X2669898Y693791D02*
X2668435Y693500D01*
X2667195Y692672D01*
X2666366Y691431D01*
X2666075Y689968D01*
X2666366Y688505D01*
X2667195Y687264D01*
X2668435Y686436D01*
X2669898Y686145D01*
X2671361Y686436D01*
X2672602Y687264D01*
X2673430Y688505D01*
X2673721Y689968D01*
X2673430Y691431D01*
X2672602Y692672D01*
X2671361Y693500D01*
X2669898Y693791D01*
D02*
G37*
G36*
X2636774Y682511D02*
X2635311Y682220D01*
X2634070Y681392D01*
X2633242Y680151D01*
X2632951Y678688D01*
X2633074Y678067D01*
X2630334Y675327D01*
X2628864Y675652D01*
X2628333Y676448D01*
X2627092Y677277D01*
X2625629Y677568D01*
X2624166Y677277D01*
X2622862Y677933D01*
X2622332Y678725D01*
X2621092Y679553D01*
X2619629Y679844D01*
X2618166Y679553D01*
X2616925Y678725D01*
X2616096Y677484D01*
X2615806Y676021D01*
X2616096Y674558D01*
X2616925Y673317D01*
X2618166Y672489D01*
X2619629Y672198D01*
X2621092Y672489D01*
X2622396Y671833D01*
X2622925Y671041D01*
X2623721Y670509D01*
X2624047Y669039D01*
X2620249Y665241D01*
X2619777Y664535D01*
X2619611Y663702D01*
Y582059D01*
X2613922D01*
X2613570Y582586D01*
X2612329Y583414D01*
X2611635Y583553D01*
Y584847D01*
X2612329Y584986D01*
X2613570Y585814D01*
X2614398Y587055D01*
X2614689Y588518D01*
X2614398Y589981D01*
X2613570Y591222D01*
X2612329Y592050D01*
X2610866Y592341D01*
X2609403Y592050D01*
X2608911Y591722D01*
X2607641Y592401D01*
Y636706D01*
X2608911Y637384D01*
X2609403Y637056D01*
X2610866Y636765D01*
X2612329Y637056D01*
X2613570Y637884D01*
X2614398Y639125D01*
X2614689Y640588D01*
X2614398Y642051D01*
X2613570Y643292D01*
X2612329Y644120D01*
X2610866Y644411D01*
X2609403Y644120D01*
X2608911Y643792D01*
X2607641Y644471D01*
Y674219D01*
X2608519Y674394D01*
X2609760Y675222D01*
X2610588Y676463D01*
X2610880Y677926D01*
X2610588Y679389D01*
X2609760Y680630D01*
X2608519Y681458D01*
X2607056Y681749D01*
X2605593Y681458D01*
X2604352Y680630D01*
X2603524Y679389D01*
X2603233Y677926D01*
X2603418Y676993D01*
X2603287Y676334D01*
Y576265D01*
X2602760Y575914D01*
X2601931Y574673D01*
X2601641Y573210D01*
X2601931Y571747D01*
X2602760Y570506D01*
X2604001Y569678D01*
X2605464Y569386D01*
X2606927Y569678D01*
X2608167Y570506D01*
X2608996Y571747D01*
X2609287Y573210D01*
X2608996Y574673D01*
X2608488Y575433D01*
X2609401Y576347D01*
X2609404Y576349D01*
X2610866Y576059D01*
X2612329Y576350D01*
X2613570Y577178D01*
X2613922Y577705D01*
X2621788D01*
X2622621Y577871D01*
X2623327Y578343D01*
X2623799Y579049D01*
X2623965Y579882D01*
Y662800D01*
X2628405Y667241D01*
X2628942Y667139D01*
X2629701Y666740D01*
X2629940Y665541D01*
X2630768Y664300D01*
X2632009Y663472D01*
X2633472Y663181D01*
X2634935Y663472D01*
X2636176Y664300D01*
X2637004Y665541D01*
X2637296Y667004D01*
X2637004Y668467D01*
X2636176Y669708D01*
X2634935Y670536D01*
X2633736Y670775D01*
X2633337Y671534D01*
X2633235Y672071D01*
X2636153Y674988D01*
X2636774Y674865D01*
X2638237Y675156D01*
X2639478Y675984D01*
X2640306Y677225D01*
X2640598Y678688D01*
X2640306Y680151D01*
X2639478Y681392D01*
X2638237Y682220D01*
X2636774Y682511D01*
D02*
G37*
G36*
X2584704Y684035D02*
X2583241Y683744D01*
X2582580Y683303D01*
X2581656Y683021D01*
X2580732Y683303D01*
X2580071Y683744D01*
X2578608Y684035D01*
X2577145Y683744D01*
X2575905Y682916D01*
X2574521Y683131D01*
X2573961Y683505D01*
X2572498Y683796D01*
X2571035Y683505D01*
X2569794Y682676D01*
X2568965Y681435D01*
X2568674Y679972D01*
X2568965Y678509D01*
X2569794Y677269D01*
X2571035Y676440D01*
X2572498Y676149D01*
X2573961Y676440D01*
X2575201Y677269D01*
X2576585Y677054D01*
X2577145Y676680D01*
X2578608Y676389D01*
X2580071Y676680D01*
X2580732Y677121D01*
X2581656Y677403D01*
X2582580Y677121D01*
X2583241Y676680D01*
X2584704Y676389D01*
X2586167Y676680D01*
X2587408Y677508D01*
X2588236Y678749D01*
X2588528Y680212D01*
X2588236Y681675D01*
X2587408Y682916D01*
X2586167Y683744D01*
X2584704Y684035D01*
D02*
G37*
%LPD*%
D23*
X2657348Y454152D02*
X2667254D01*
X2673858Y447548D01*
X2636774Y479298D02*
X2637282Y478790D01*
X2651506D01*
X2645664Y465836D02*
X2657348Y454152D01*
X2664045Y469993D02*
Y471005D01*
X2661920Y473130D02*
X2664045Y471005D01*
X2617724Y473130D02*
X2661920D01*
X2679192Y388112D02*
Y564388D01*
X2669334Y378254D02*
X2679192Y388112D01*
X2625344Y402082D02*
Y431546D01*
X2617724Y473130D02*
Y479298D01*
X2611374Y465836D02*
X2645664D01*
X2598928Y478282D02*
X2611374Y465836D01*
X2629408Y383286D02*
X2634440Y378254D01*
X2669334D01*
X2627122Y387096D02*
Y400304D01*
Y387096D02*
X2629408Y384810D01*
Y383286D02*
Y384810D01*
X2625344Y402082D02*
X2627122Y400304D01*
D25*
X2609962Y415643D02*
Y431403D01*
X2609402Y415083D02*
X2609962Y415643D01*
X2609402Y410925D02*
Y415083D01*
Y410925D02*
X2612343Y407984D01*
X2615365D01*
X2618994Y404355D01*
X2697989Y802893D02*
Y811531D01*
X2709450Y822992D01*
X2726222D01*
X2620832Y802834D02*
X2630424Y793242D01*
X2519185Y790956D02*
X2531063Y802834D01*
X2620832D01*
X2489200Y487426D02*
Y592582D01*
X2482850Y515112D02*
Y599948D01*
X2489200Y592582D02*
X2490470Y593852D01*
X2480564Y478790D02*
X2489200Y487426D01*
X2471928Y504190D02*
X2482850Y515112D01*
X2518918Y790956D02*
X2519185D01*
X2646680Y819658D02*
X2675890Y790448D01*
X2646680Y819658D02*
Y823214D01*
X2536698Y478754D02*
Y480568D01*
Y478754D02*
X2541488Y473964D01*
X2567432D01*
X2460498Y478790D02*
X2480564D01*
X2460498Y504190D02*
X2471928D01*
X2618994Y392684D02*
Y404355D01*
X2609342Y430784D02*
X2609962Y431403D01*
X2609342Y430784D02*
X2612136D01*
X2618994Y392684D02*
X2619502Y392176D01*
X2620518Y848868D02*
X2621026D01*
X2646680Y823214D01*
D26*
X2510536Y546608D02*
Y643318D01*
X2500376Y536448D02*
X2510536Y546608D01*
X2506218Y647636D02*
Y682752D01*
Y647636D02*
X2510536Y643318D01*
X2616714Y413004D02*
X2621449Y417739D01*
X2614422Y413004D02*
X2616714D01*
X2616200Y447040D02*
X2617216Y446024D01*
X2709351Y774125D02*
X2710942Y775716D01*
X2691854Y774125D02*
X2709351D01*
X2690779Y775200D02*
X2691854Y774125D01*
X2609889Y775200D02*
X2690779D01*
X2616521Y420099D02*
Y432600D01*
Y420099D02*
X2617064Y419555D01*
X2620959Y421862D02*
Y441131D01*
Y421862D02*
X2621449Y421372D01*
Y417739D02*
Y421372D01*
X2525244Y653312D02*
X2525522Y653034D01*
X2525014Y653288D02*
X2525221D01*
X2525244Y653312D01*
X2529399Y627342D02*
Y657626D01*
X2527904Y659121D02*
X2529399Y657626D01*
X2525268Y623211D02*
X2529399Y627342D01*
X2659926Y766251D02*
X2660247Y766572D01*
X2656294Y766251D02*
X2659926D01*
X2655973Y766572D02*
X2656294Y766251D01*
X2618232Y766572D02*
X2655973D01*
X2614132Y770957D02*
X2658110D01*
X2660247Y766572D02*
X2671318D01*
X2605646Y779442D02*
X2692990D01*
X2605504Y779300D02*
X2605646Y779442D01*
X2609747Y775057D02*
X2609889Y775200D01*
X2613989Y770815D02*
X2614132Y770957D01*
X2469642Y691642D02*
X2476246Y685038D01*
Y630428D02*
Y685038D01*
X2500376Y521716D02*
X2507488D01*
X2500376D02*
Y521970D01*
X2507488Y521716D02*
X2514179Y528407D01*
Y682839D01*
X2514346Y683006D01*
X2621788Y663702D02*
X2636774Y678688D01*
X2621788Y579882D02*
Y663702D01*
X2525522Y639735D02*
Y653034D01*
X2520629Y634842D02*
X2525522Y639735D01*
X2520629Y620230D02*
Y634842D01*
Y620230D02*
X2524401Y616458D01*
X2529078D01*
X2525268Y621792D02*
Y623211D01*
X2610866Y579882D02*
X2621788D01*
X2605464Y676334D02*
X2607056Y677926D01*
X2605464Y573210D02*
Y676334D01*
X2518156Y399183D02*
X2521607Y395732D01*
X2516124Y401215D02*
X2518156Y399183D01*
X2516019D02*
X2518156D01*
X2495296Y378460D02*
X2516019Y399183D01*
X2495296Y357632D02*
Y378460D01*
X2571496Y357632D02*
Y367030D01*
X2568956Y369570D02*
X2571496Y367030D01*
X2515362Y369570D02*
X2568956D01*
X2513584Y367792D02*
X2515362Y369570D01*
X2512314Y367792D02*
X2513584D01*
X2510282Y373380D02*
X2587464D01*
X2504948Y368046D02*
X2510282Y373380D01*
X2587464D02*
X2596896Y363948D01*
Y357632D02*
Y363948D01*
X2595372Y707644D02*
Y756920D01*
X2594864Y757428D02*
X2595372Y756920D01*
X2601722Y707136D02*
Y751586D01*
X2601976Y751840D01*
X2601468Y707390D02*
X2601722Y707136D01*
X2542756Y482533D02*
X2550768D01*
X2538371Y486918D02*
X2542756Y482533D01*
X2534633Y486918D02*
X2538371D01*
X2550768Y482533D02*
X2551142Y482159D01*
X2529874D02*
X2534633Y486918D01*
X2551142Y482159D02*
X2561777D01*
X2519239D02*
X2529874D01*
X2561777D02*
X2563368Y480568D01*
X2563809Y403352D02*
Y420691D01*
X2579370Y396866D02*
Y399288D01*
X2561657Y401200D02*
X2563809Y403352D01*
X2561657Y400266D02*
Y401200D01*
X2559088Y397697D02*
X2561657Y400266D01*
X2555456Y397697D02*
X2559088D01*
X2554306Y398847D02*
X2555456Y397697D01*
X2546568Y398847D02*
X2554306D01*
X2544706Y400709D02*
X2546568Y398847D01*
X2568702Y402844D02*
Y431800D01*
Y402844D02*
X2572512Y399034D01*
X2579370Y396866D02*
X2580581Y398077D01*
X2521607Y395732D02*
X2528316D01*
Y396240D02*
X2532785Y400709D01*
X2544706D01*
X2616454Y432667D02*
Y447294D01*
Y432667D02*
X2616521Y432600D01*
X2567432Y473964D02*
X2570734Y470662D01*
Y444500D02*
Y470662D01*
X2568194Y441960D02*
X2570734Y444500D01*
X2616200Y447040D02*
X2616454Y447294D01*
X2515870Y425704D02*
X2516124Y425450D01*
Y401215D02*
Y425450D01*
X2528316Y395732D02*
Y396240D01*
X2460752Y691642D02*
X2469642D01*
X2549906Y714756D02*
X2557018Y707644D01*
X2557780D01*
X2545842Y712978D02*
X2550922Y707898D01*
Y707390D02*
Y707898D01*
X2532888Y797560D02*
X2541524D01*
X2545842Y793242D01*
Y712978D02*
Y793242D01*
X2549906Y714756D02*
Y795020D01*
X2552544Y797658D01*
D27*
X2460752Y615442D02*
X2474214D01*
X2492364Y633592D01*
Y832474D01*
X2493264Y833374D01*
D32*
X2622296Y357632D02*
D03*
X2624540Y876462D02*
D03*
D33*
X2596896Y357632D02*
D03*
X2571496D02*
D03*
X2495296D02*
D03*
X2460752Y691642D02*
D03*
X2726222Y822992D02*
D03*
X2460498Y504190D02*
D03*
Y478790D02*
D03*
D34*
X2460752Y615442D02*
D03*
D38*
X2673858Y447548D02*
D03*
X2651506Y478790D02*
D03*
X2664045Y469993D02*
D03*
X2614422Y413004D02*
D03*
X2617216Y446024D02*
D03*
X2693670Y778510D02*
D03*
X2617064Y419555D02*
D03*
X2499106Y596392D02*
D03*
X2525014Y653288D02*
D03*
X2527904Y659121D02*
D03*
X2658110Y770636D02*
D03*
X2710942Y775716D02*
D03*
X2671318Y766318D02*
D03*
X2567498Y703646D02*
D03*
X2572498Y679972D02*
D03*
X2578608Y680212D02*
D03*
X2584704D02*
D03*
X2636774Y479298D02*
D03*
X2617724D02*
D03*
X2598928Y478282D02*
D03*
X2678176Y465836D02*
D03*
X2672588Y524510D02*
D03*
X2500376Y536448D02*
D03*
X2506218Y682752D02*
D03*
X2500376Y521970D02*
D03*
X2514346Y683006D02*
D03*
X2625629Y673744D02*
D03*
X2619629Y676021D02*
D03*
X2633472Y667004D02*
D03*
X2636774Y678688D02*
D03*
X2621788Y554482D02*
D03*
X2529078Y616458D02*
D03*
X2525268Y621792D02*
D03*
X2610866Y579882D02*
D03*
X2607056Y677926D02*
D03*
X2605464Y573210D02*
D03*
X2609088Y797814D02*
D03*
X2499106Y575564D02*
D03*
X2498852Y581660D02*
D03*
X2490470Y593852D02*
D03*
X2496312Y590296D02*
D03*
X2518918Y790956D02*
D03*
X2630424Y793242D02*
D03*
X2512314Y367792D02*
D03*
X2504948Y368046D02*
D03*
X2589530Y479298D02*
D03*
X2595372Y525526D02*
D03*
X2605504Y779300D02*
D03*
X2609747Y775057D02*
D03*
X2613989Y770815D02*
D03*
X2618232Y766572D02*
D03*
X2594864Y757428D02*
D03*
X2595372Y707644D02*
D03*
X2601976Y751840D02*
D03*
X2601468Y707390D02*
D03*
X2496058Y626872D02*
D03*
X2513330Y473964D02*
D03*
X2536698Y480568D02*
D03*
X2517902Y481076D02*
D03*
X2563368Y480568D02*
D03*
X2529332Y477774D02*
D03*
X2518564Y550418D02*
D03*
X2524252Y561848D02*
D03*
X2529332Y566928D02*
D03*
X2534388Y571984D02*
D03*
X2482850Y599948D02*
D03*
X2613914Y402336D02*
D03*
X2563809Y420691D02*
D03*
X2568702Y431800D02*
D03*
X2572512Y399034D02*
D03*
X2579370Y396866D02*
D03*
X2558796Y441706D02*
D03*
X2548636Y437388D02*
D03*
X2545334Y392176D02*
D03*
X2612136Y430784D02*
D03*
X2619502Y392176D02*
D03*
X2568194Y441960D02*
D03*
X2620959Y441131D02*
D03*
X2625344Y402082D02*
D03*
Y431546D02*
D03*
X2540321Y396324D02*
D03*
X2515870Y425704D02*
D03*
X2528316Y396240D02*
D03*
X2557272Y402082D02*
D03*
X2521966Y401574D02*
D03*
X2500376Y677672D02*
D03*
X2651760Y651764D02*
D03*
X2679192Y564388D02*
D03*
X2476246Y630428D02*
D03*
X2532888Y797560D02*
D03*
X2552544Y797658D02*
D03*
X2557780Y707644D02*
D03*
X2550922Y707390D02*
D03*
X2536444Y742950D02*
D03*
X2511044Y742188D02*
D03*
X2675890Y790448D02*
D03*
X2697989Y802893D02*
D03*
D39*
X2663444Y413258D02*
D03*
X2585974Y823976D02*
D03*
X2493264Y833374D02*
D03*
X2569718Y832104D02*
D03*
X2616708Y822452D02*
D03*
X2620518Y848868D02*
D03*
X2646680Y823214D02*
D03*
M02*
