G04 Layer_Color=128*
%FSLAX44Y44*%
%MOMM*%
G71*
G01*
G75*
%ADD317C,0.0508*%
D317*
X2653284Y519938D02*
X2660904D01*
X2657094Y516128D02*
Y523748D01*
X2722372Y595122D02*
X2729992D01*
X2726182Y591312D02*
Y598932D01*
X2722372Y669798D02*
X2729992D01*
X2726182Y665988D02*
Y673608D01*
X2722372Y697230D02*
X2729992D01*
X2726182Y693420D02*
Y701040D01*
X2722372Y723646D02*
X2729992D01*
X2726182Y719836D02*
Y727456D01*
X2456506Y740918D02*
X2465506D01*
X2461006Y736418D02*
Y745418D01*
X2459300Y856488D02*
X2468300D01*
X2463800Y851988D02*
Y860988D01*
X2456506Y833628D02*
X2465506D01*
X2461006Y829128D02*
Y838128D01*
X2476572Y872998D02*
X2485572D01*
X2481072Y868498D02*
Y877498D01*
X2456506Y786384D02*
X2465506D01*
X2461006Y781884D02*
Y790884D01*
X2456506Y763778D02*
X2465506D01*
X2461006Y759278D02*
Y768278D01*
X2456252Y810768D02*
X2465252D01*
X2460752Y806268D02*
Y815268D01*
X2641672Y361442D02*
X2650672D01*
X2646172Y356942D02*
Y365942D01*
X2721428Y524256D02*
X2730428D01*
X2725928Y519756D02*
Y528756D01*
X2721682Y547116D02*
X2730682D01*
X2726182Y542616D02*
Y551616D01*
X2665294Y368554D02*
X2674294D01*
X2669794Y364054D02*
Y373054D01*
X2721936Y499872D02*
X2730936D01*
X2726436Y495372D02*
Y504372D01*
X2721682Y425958D02*
X2730682D01*
X2726182Y421458D02*
Y430458D01*
X2721936Y449326D02*
X2730936D01*
X2726436Y444826D02*
Y453826D01*
X2721682Y473964D02*
X2730682D01*
X2726182Y469464D02*
Y478464D01*
X2690694Y382016D02*
X2699694D01*
X2695194Y377516D02*
Y386516D01*
X2712284Y399542D02*
X2721284D01*
X2716784Y395042D02*
Y404042D01*
X2722372Y569905D02*
X2729992D01*
X2726182Y566095D02*
Y573715D01*
X2722880Y771398D02*
X2730500D01*
X2726690Y767588D02*
Y775208D01*
X2457196Y409448D02*
X2464816D01*
X2461006Y405638D02*
Y413258D01*
X2559177Y506966D02*
X2579751D01*
X2569464Y496679D02*
Y517253D01*
X2559177Y727202D02*
X2579751D01*
X2569464Y716915D02*
Y737489D01*
X2617796Y357632D02*
X2626796D01*
X2622296Y353132D02*
Y362132D01*
X2592396Y357632D02*
X2601396D01*
X2596896Y353132D02*
Y362132D01*
X2566996Y357632D02*
X2575996D01*
X2571496Y353132D02*
Y362132D01*
X2541596Y357632D02*
X2550596D01*
X2546096Y353132D02*
Y362132D01*
X2516196Y357632D02*
X2525196D01*
X2520696Y353132D02*
Y362132D01*
X2490796Y357632D02*
X2499796D01*
X2495296Y353132D02*
Y362132D01*
X2456252Y717042D02*
X2465252D01*
X2460752Y712542D02*
Y721542D01*
X2456252Y691642D02*
X2465252D01*
X2460752Y687142D02*
Y696142D01*
X2456252Y666242D02*
X2465252D01*
X2460752Y661742D02*
Y670742D01*
X2456252Y640842D02*
X2465252D01*
X2460752Y636342D02*
Y645342D01*
X2456252Y615442D02*
X2465252D01*
X2460752Y610942D02*
Y619942D01*
X2671572Y506730D02*
X2674620D01*
X2673096Y505206D02*
Y508254D01*
X2620040Y876462D02*
X2629040D01*
X2624540Y871963D02*
Y880962D01*
X2644049Y872523D02*
X2653049D01*
X2648549Y868023D02*
Y877023D01*
X2667017Y864668D02*
X2676017D01*
X2671517Y860168D02*
Y869168D01*
X2687380Y853732D02*
X2696380D01*
X2691880Y849232D02*
Y858232D01*
X2706682Y838910D02*
X2715682D01*
X2711182Y834410D02*
Y843410D01*
X2721722Y822992D02*
X2730722D01*
X2726222Y818492D02*
Y827492D01*
X2455998Y580390D02*
X2464998D01*
X2460498Y575890D02*
Y584890D01*
X2455998Y554990D02*
X2464998D01*
X2460498Y550490D02*
Y559490D01*
X2455998Y529590D02*
X2464998D01*
X2460498Y525090D02*
Y534090D01*
X2455998Y504190D02*
X2464998D01*
X2460498Y499690D02*
Y508690D01*
X2455998Y478790D02*
X2464998D01*
X2460498Y474290D02*
Y483290D01*
X2455998Y453390D02*
X2464998D01*
X2460498Y448890D02*
Y457890D01*
X2588006Y850900D02*
X2591054D01*
X2589530Y849376D02*
Y852424D01*
X2577156Y876300D02*
X2586156D01*
X2581656Y871800D02*
Y880800D01*
X2551756Y876300D02*
X2560756D01*
X2556256Y871800D02*
Y880800D01*
X2526356Y876300D02*
X2535356D01*
X2530856Y871800D02*
Y880800D01*
X2500956Y876300D02*
X2509956D01*
X2505456Y871800D02*
Y880800D01*
X2719001Y740000D02*
X2721002D01*
X2720002Y739000D02*
Y741000D01*
X2719001Y680000D02*
X2721002D01*
X2720002Y679000D02*
Y681000D01*
X2719001Y560000D02*
X2721002D01*
X2720002Y559000D02*
Y561000D01*
X2719001Y460000D02*
X2721002D01*
X2720002Y459000D02*
Y461000D01*
X2719001Y440000D02*
X2721002D01*
X2720002Y439000D02*
Y441000D01*
X2714001Y770000D02*
X2716002D01*
X2715002Y769000D02*
Y771000D01*
X2709001Y760000D02*
X2711002D01*
X2710002Y759000D02*
Y761000D01*
X2714001Y750000D02*
X2716002D01*
X2715002Y749000D02*
Y751000D01*
X2709001Y740000D02*
X2711002D01*
X2710002Y739000D02*
Y741000D01*
X2714001Y730000D02*
X2716002D01*
X2715002Y729000D02*
Y731000D01*
X2714001Y710000D02*
X2716002D01*
X2715002Y709000D02*
Y711000D01*
X2714001Y690000D02*
X2716002D01*
X2715002Y689000D02*
Y691000D01*
X2709001Y680000D02*
X2711002D01*
X2710002Y679000D02*
Y681000D01*
X2714001Y590000D02*
X2716002D01*
X2715002Y589000D02*
Y591000D01*
X2709001Y520000D02*
X2711002D01*
X2710002Y519000D02*
Y521000D01*
X2714001Y510000D02*
X2716002D01*
X2715002Y509000D02*
Y511000D01*
X2714001Y490000D02*
X2716002D01*
X2715002Y489000D02*
Y491000D01*
X2714001Y470000D02*
X2716002D01*
X2715002Y469000D02*
Y471000D01*
X2709001Y460000D02*
X2711002D01*
X2710002Y459000D02*
Y461000D01*
X2709001Y440000D02*
X2711002D01*
X2710002Y439000D02*
Y441000D01*
X2709001Y420000D02*
X2711002D01*
X2710002Y419000D02*
Y421000D01*
X2699001Y820000D02*
X2701002D01*
X2700002Y819000D02*
Y821000D01*
X2704001Y810000D02*
X2706001D01*
X2705002Y809000D02*
Y811000D01*
X2704001Y790000D02*
X2706001D01*
X2705002Y789000D02*
Y791000D01*
X2699001Y760000D02*
X2701002D01*
X2700002Y759000D02*
Y761000D01*
X2704001Y750000D02*
X2706001D01*
X2705002Y749000D02*
Y751000D01*
X2699001Y740000D02*
X2701002D01*
X2700002Y739000D02*
Y741000D01*
X2704001Y730000D02*
X2706001D01*
X2705002Y729000D02*
Y731000D01*
X2704001Y710000D02*
X2706001D01*
X2705002Y709000D02*
Y711000D01*
X2704001Y690000D02*
X2706001D01*
X2705002Y689000D02*
Y691000D01*
X2699001Y680000D02*
X2701002D01*
X2700002Y679000D02*
Y681000D01*
X2704001Y590000D02*
X2706001D01*
X2705002Y589000D02*
Y591000D01*
X2704001Y530000D02*
X2706001D01*
X2705002Y529000D02*
Y531000D01*
X2699001Y520000D02*
X2701002D01*
X2700002Y519000D02*
Y521000D01*
X2704001Y510000D02*
X2706001D01*
X2705002Y509000D02*
Y511000D01*
X2704001Y490000D02*
X2706001D01*
X2705002Y489000D02*
Y491000D01*
X2704001Y470000D02*
X2706001D01*
X2705002Y469000D02*
Y471000D01*
X2699001Y460000D02*
X2701002D01*
X2700002Y459000D02*
Y461000D01*
X2704001Y410000D02*
X2706001D01*
X2705002Y409000D02*
Y411000D01*
X2689001Y760000D02*
X2691002D01*
X2690002Y759000D02*
Y761000D01*
X2694001Y750000D02*
X2696001D01*
X2695002Y749000D02*
Y751000D01*
X2679001Y840001D02*
X2681001D01*
X2680002Y839000D02*
Y841001D01*
X2684001Y830000D02*
X2686001D01*
X2685002Y829000D02*
Y831000D01*
X2679001Y820000D02*
X2681001D01*
X2680002Y819000D02*
Y821000D01*
X2684001Y810000D02*
X2686001D01*
X2685002Y809000D02*
Y811000D01*
X2684001Y770000D02*
X2686001D01*
X2685002Y769000D02*
Y771000D01*
X2679001Y760000D02*
X2681001D01*
X2680002Y759000D02*
Y761000D01*
X2679001Y720000D02*
X2681001D01*
X2680002Y719000D02*
Y721000D01*
X2669001Y760000D02*
X2671001D01*
X2670002Y759000D02*
Y761000D01*
X2674001Y750000D02*
X2676001D01*
X2675002Y749000D02*
Y751000D01*
X2669001Y720000D02*
X2671001D01*
X2670002Y719000D02*
Y721000D01*
X2664001Y850001D02*
X2666001D01*
X2665002Y849000D02*
Y851001D01*
X2664001Y830000D02*
X2666001D01*
X2665002Y829000D02*
Y831000D01*
X2649001Y680000D02*
X2651001D01*
X2650002Y679000D02*
Y681000D01*
X2649001Y500000D02*
X2651001D01*
X2650002Y499000D02*
Y501000D01*
X2654001Y370000D02*
X2656001D01*
X2655002Y369000D02*
Y371000D01*
X2644001Y810000D02*
X2646001D01*
X2645002Y809000D02*
Y811000D01*
X2644001Y730000D02*
X2646001D01*
X2645002Y729000D02*
Y731000D01*
X2644001Y510000D02*
X2646001D01*
X2645002Y509000D02*
Y511000D01*
X2639001Y500000D02*
X2641001D01*
X2640002Y499000D02*
Y501000D01*
X2629001Y860001D02*
X2631001D01*
X2630002Y859000D02*
Y861001D01*
X2629001Y520000D02*
X2631001D01*
X2630002Y519000D02*
Y521000D01*
X2634001Y510000D02*
X2636001D01*
X2635002Y509000D02*
Y511000D01*
X2629001Y500000D02*
X2631001D01*
X2630002Y499000D02*
Y501000D01*
X2619001Y860001D02*
X2621001D01*
X2620002Y859000D02*
Y861001D01*
X2619001Y760000D02*
X2621001D01*
X2620002Y759000D02*
Y761000D01*
X2624001Y750000D02*
X2626001D01*
X2625002Y749000D02*
Y751000D01*
X2624001Y510000D02*
X2626001D01*
X2625002Y509000D02*
Y511000D01*
X2624001Y370000D02*
X2626001D01*
X2625002Y369000D02*
Y371000D01*
X2609001Y860001D02*
X2611001D01*
X2610002Y859000D02*
Y861001D01*
X2609001Y600000D02*
X2611001D01*
X2610002Y599000D02*
Y601000D01*
X2614001Y370000D02*
X2616001D01*
X2615002Y369000D02*
Y371000D01*
X2604001Y870001D02*
X2606001D01*
X2605002Y869000D02*
Y871001D01*
X2599001Y860001D02*
X2601001D01*
X2600002Y859000D02*
Y861001D01*
X2604001Y850001D02*
X2606001D01*
X2605002Y849000D02*
Y851001D01*
X2599001Y760000D02*
X2601001D01*
X2600002Y759000D02*
Y761000D01*
X2599001Y420000D02*
X2601001D01*
X2600002Y419000D02*
Y421000D01*
X2604001Y370000D02*
X2606001D01*
X2605002Y369000D02*
Y371000D01*
X2594001Y870001D02*
X2596001D01*
X2595002Y869000D02*
Y871001D01*
X2589001Y780000D02*
X2591001D01*
X2590002Y779000D02*
Y781000D01*
X2594001Y770000D02*
X2596001D01*
X2595002Y769000D02*
Y771000D01*
X2589001Y760000D02*
X2591001D01*
X2590002Y759000D02*
Y761000D01*
X2594001Y750000D02*
X2596001D01*
X2595002Y749000D02*
Y751000D01*
X2594001Y650000D02*
X2596001D01*
X2595002Y649000D02*
Y651000D01*
X2589001Y640000D02*
X2591001D01*
X2590002Y639000D02*
Y641000D01*
X2589001Y600000D02*
X2591001D01*
X2590002Y599000D02*
Y601000D01*
X2589001Y420000D02*
X2591001D01*
X2590002Y419000D02*
Y421000D01*
X2579001Y780000D02*
X2581001D01*
X2580002Y779000D02*
Y781000D01*
X2584001Y770000D02*
X2586001D01*
X2585002Y769000D02*
Y771000D01*
X2579001Y760000D02*
X2581001D01*
X2580002Y759000D02*
Y761000D01*
X2584001Y650000D02*
X2586001D01*
X2585002Y649000D02*
Y651000D01*
X2579001Y640000D02*
X2581001D01*
X2580002Y639000D02*
Y641000D01*
X2579001Y600000D02*
X2581001D01*
X2580002Y599000D02*
Y601000D01*
X2584001Y590000D02*
X2586001D01*
X2585002Y589000D02*
Y591000D01*
X2579001Y580000D02*
X2581001D01*
X2580002Y579000D02*
Y581000D01*
X2569001Y860001D02*
X2571001D01*
X2570002Y859000D02*
Y861001D01*
X2569001Y780000D02*
X2571001D01*
X2570002Y779000D02*
Y781000D01*
X2574001Y770000D02*
X2576001D01*
X2575002Y769000D02*
Y771000D01*
X2569001Y760000D02*
X2571001D01*
X2570002Y759000D02*
Y761000D01*
X2574001Y650000D02*
X2576001D01*
X2575002Y649000D02*
Y651000D01*
X2569001Y640000D02*
X2571001D01*
X2570002Y639000D02*
Y641000D01*
X2569001Y600000D02*
X2571001D01*
X2570002Y599000D02*
Y601000D01*
X2574001Y590000D02*
X2576001D01*
X2575002Y589000D02*
Y591000D01*
X2569001Y580000D02*
X2571001D01*
X2570002Y579000D02*
Y581000D01*
X2559001Y860001D02*
X2561001D01*
X2560002Y859000D02*
Y861001D01*
X2559001Y820000D02*
X2561001D01*
X2560002Y819000D02*
Y821000D01*
X2559001Y780000D02*
X2561001D01*
X2560002Y779000D02*
Y781000D01*
X2564001Y770000D02*
X2566001D01*
X2565002Y769000D02*
Y771000D01*
X2559001Y760000D02*
X2561001D01*
X2560002Y759000D02*
Y761000D01*
X2564001Y650000D02*
X2566001D01*
X2565002Y649000D02*
Y651000D01*
X2559001Y640000D02*
X2561001D01*
X2560002Y639000D02*
Y641000D01*
X2559001Y600000D02*
X2561001D01*
X2560002Y599000D02*
Y601000D01*
X2564001Y590000D02*
X2566001D01*
X2565002Y589000D02*
Y591000D01*
X2559001Y580000D02*
X2561001D01*
X2560002Y579000D02*
Y581000D01*
X2559001Y360000D02*
X2561001D01*
X2560002Y359000D02*
Y361000D01*
X2554001Y850001D02*
X2556001D01*
X2555001Y849000D02*
Y851001D01*
X2549001Y820000D02*
X2551001D01*
X2550001Y819000D02*
Y821000D01*
X2554001Y790000D02*
X2556001D01*
X2555001Y789000D02*
Y791000D01*
X2554001Y770000D02*
X2556001D01*
X2555001Y769000D02*
Y771000D01*
X2554001Y650000D02*
X2556001D01*
X2555001Y649000D02*
Y651000D01*
X2549001Y640000D02*
X2551001D01*
X2550001Y639000D02*
Y641000D01*
X2549001Y600000D02*
X2551001D01*
X2550001Y599000D02*
Y601000D01*
X2554001Y590000D02*
X2556001D01*
X2555001Y589000D02*
Y591000D01*
X2549001Y580000D02*
X2551001D01*
X2550001Y579000D02*
Y581000D01*
X2539001Y820000D02*
X2541001D01*
X2540001Y819000D02*
Y821000D01*
X2539001Y780000D02*
X2541001D01*
X2540001Y779000D02*
Y781000D01*
X2539001Y760000D02*
X2541001D01*
X2540001Y759000D02*
Y761000D01*
X2539001Y740000D02*
X2541001D01*
X2540001Y739000D02*
Y741000D01*
X2539001Y720000D02*
X2541001D01*
X2540001Y719000D02*
Y721000D01*
X2539001Y420000D02*
X2541001D01*
X2540001Y419000D02*
Y421000D01*
X2544001Y410000D02*
X2546001D01*
X2545001Y409000D02*
Y411000D01*
X2529001Y860001D02*
X2531001D01*
X2530001Y859000D02*
Y861001D01*
X2529001Y820000D02*
X2531001D01*
X2530001Y819000D02*
Y821000D01*
X2529001Y780000D02*
X2531001D01*
X2530001Y779000D02*
Y781000D01*
X2534001Y770000D02*
X2536001D01*
X2535001Y769000D02*
Y771000D01*
X2529001Y760000D02*
X2531001D01*
X2530001Y759000D02*
Y761000D01*
X2529001Y740000D02*
X2531001D01*
X2530001Y739000D02*
Y741000D01*
X2534001Y730000D02*
X2536001D01*
X2535001Y729000D02*
Y731000D01*
X2529001Y720000D02*
X2531001D01*
X2530001Y719000D02*
Y721000D01*
X2534001Y710000D02*
X2536001D01*
X2535001Y709000D02*
Y711000D01*
X2529001Y440000D02*
X2531001D01*
X2530001Y439000D02*
Y441000D01*
X2529001Y420000D02*
X2531001D01*
X2530001Y419000D02*
Y421000D01*
X2534001Y410000D02*
X2536001D01*
X2535001Y409000D02*
Y411000D01*
X2519001Y860001D02*
X2521001D01*
X2520001Y859000D02*
Y861001D01*
X2524001Y850001D02*
X2526001D01*
X2525001Y849000D02*
Y851001D01*
X2519001Y820000D02*
X2521001D01*
X2520001Y819000D02*
Y821000D01*
X2524001Y810000D02*
X2526001D01*
X2525001Y809000D02*
Y811000D01*
X2519001Y800000D02*
X2521001D01*
X2520001Y799000D02*
Y801000D01*
X2519001Y780000D02*
X2521001D01*
X2520001Y779000D02*
Y781000D01*
X2524001Y770000D02*
X2526001D01*
X2525001Y769000D02*
Y771000D01*
X2519001Y760000D02*
X2521001D01*
X2520001Y759000D02*
Y761000D01*
X2519001Y740000D02*
X2521001D01*
X2520001Y739000D02*
Y741000D01*
X2524001Y730000D02*
X2526001D01*
X2525001Y729000D02*
Y731000D01*
X2519001Y700000D02*
X2521001D01*
X2520001Y699000D02*
Y701000D01*
X2519001Y440000D02*
X2521001D01*
X2520001Y439000D02*
Y441000D01*
X2514001Y870001D02*
X2516001D01*
X2515001Y869000D02*
Y871001D01*
X2509001Y860001D02*
X2511001D01*
X2510001Y859000D02*
Y861001D01*
X2514001Y850001D02*
X2516001D01*
X2515001Y849000D02*
Y851001D01*
X2509001Y820000D02*
X2511001D01*
X2510001Y819000D02*
Y821000D01*
X2514001Y810000D02*
X2516001D01*
X2515001Y809000D02*
Y811000D01*
X2509001Y800000D02*
X2511001D01*
X2510001Y799000D02*
Y801000D01*
X2509001Y780000D02*
X2511001D01*
X2510001Y779000D02*
Y781000D01*
X2514001Y770000D02*
X2516001D01*
X2515001Y769000D02*
Y771000D01*
X2509001Y760000D02*
X2511001D01*
X2510001Y759000D02*
Y761000D01*
X2509001Y700000D02*
X2511001D01*
X2510001Y699000D02*
Y701000D01*
X2514001Y690000D02*
X2516001D01*
X2515001Y689000D02*
Y691000D01*
X2509001Y500000D02*
X2511001D01*
X2510001Y499000D02*
Y501000D01*
X2509001Y440000D02*
X2511001D01*
X2510001Y439000D02*
Y441000D01*
X2499001Y860001D02*
X2501001D01*
X2500001Y859000D02*
Y861001D01*
X2504001Y850001D02*
X2506001D01*
X2505001Y849000D02*
Y851001D01*
X2499001Y820000D02*
X2501001D01*
X2500001Y819000D02*
Y821000D01*
X2504001Y810000D02*
X2506001D01*
X2505001Y809000D02*
Y811000D01*
X2499001Y800000D02*
X2501001D01*
X2500001Y799000D02*
Y801000D01*
X2499001Y780000D02*
X2501001D01*
X2500001Y779000D02*
Y781000D01*
X2504001Y770000D02*
X2506001D01*
X2505001Y769000D02*
Y771000D01*
X2499001Y760000D02*
X2501001D01*
X2500001Y759000D02*
Y761000D01*
X2504001Y710000D02*
X2506001D01*
X2505001Y709000D02*
Y711000D01*
X2504001Y690000D02*
X2506001D01*
X2505001Y689000D02*
Y691000D01*
X2504001Y510000D02*
X2506001D01*
X2505001Y509000D02*
Y511000D01*
X2499001Y500000D02*
X2501001D01*
X2500001Y499000D02*
Y501000D01*
X2504001Y490000D02*
X2506001D01*
X2505001Y489000D02*
Y491000D01*
X2499001Y480000D02*
X2501001D01*
X2500001Y479000D02*
Y481000D01*
X2504001Y430000D02*
X2506001D01*
X2505001Y429000D02*
Y431000D01*
X2504001Y390000D02*
X2506001D01*
X2505001Y389000D02*
Y391000D01*
X2499001Y380000D02*
X2501001D01*
X2500001Y379000D02*
Y381000D01*
X2494001Y870001D02*
X2496001D01*
X2495001Y869000D02*
Y871001D01*
X2489001Y860001D02*
X2491001D01*
X2490001Y859000D02*
Y861001D01*
X2494001Y850001D02*
X2496001D01*
X2495001Y849000D02*
Y851001D01*
X2489001Y480000D02*
X2491001D01*
X2490001Y479000D02*
Y481000D01*
X2479001Y740000D02*
X2481001D01*
X2480001Y739000D02*
Y741000D01*
X2484001Y730000D02*
X2486001D01*
X2485001Y729000D02*
Y731000D01*
X2479001Y720000D02*
X2481001D01*
X2480001Y719000D02*
Y721000D01*
X2484001Y710000D02*
X2486001D01*
X2485001Y709000D02*
Y711000D01*
X2479001Y700000D02*
X2481001D01*
X2480001Y699000D02*
Y701000D01*
X2484001Y430000D02*
X2486001D01*
X2485001Y429000D02*
Y431000D01*
X2484001Y410000D02*
X2486001D01*
X2485001Y409000D02*
Y411000D01*
X2484001Y390000D02*
X2486001D01*
X2485001Y389000D02*
Y391000D01*
X2474001Y750000D02*
X2476001D01*
X2475001Y749000D02*
Y751000D01*
X2474001Y730000D02*
X2476001D01*
X2475001Y729000D02*
Y731000D01*
X2474001Y710000D02*
X2476001D01*
X2475001Y709000D02*
Y711000D01*
X2469001Y700000D02*
X2471001D01*
X2470001Y699000D02*
Y701000D01*
X2469001Y680000D02*
X2471001D01*
X2470001Y679000D02*
Y681000D01*
X2469001Y600000D02*
X2471001D01*
X2470001Y599000D02*
Y601000D01*
X2474001Y590000D02*
X2476001D01*
X2475001Y589000D02*
Y591000D01*
X2474001Y570000D02*
X2476001D01*
X2475001Y569000D02*
Y571000D01*
X2469001Y540000D02*
X2471001D01*
X2470001Y539000D02*
Y541000D01*
X2469001Y520000D02*
X2471001D01*
X2470001Y519000D02*
Y521000D01*
X2474001Y370000D02*
X2476001D01*
X2475001Y369000D02*
Y371000D01*
X2718578Y655066D02*
X2720578D01*
X2719578Y654066D02*
Y656066D01*
X2717308Y583184D02*
X2719308D01*
X2718308Y582184D02*
Y584184D01*
X2651014Y557784D02*
X2653014D01*
X2652014Y556784D02*
Y558784D01*
X2671334Y490474D02*
X2673334D01*
X2672334Y489474D02*
Y491474D01*
X2483187Y462064D02*
X2485187D01*
X2484187Y461064D02*
Y463064D01*
X2673874Y414528D02*
X2675874D01*
X2674874Y413528D02*
Y415528D01*
X2667016Y414528D02*
X2669016D01*
X2668016Y413528D02*
Y415528D01*
X2662698Y392938D02*
X2664698D01*
X2663698Y391938D02*
Y393938D01*
X2685542Y404114D02*
X2692654D01*
X2689098Y400558D02*
Y407670D01*
X2683526Y424942D02*
X2685526D01*
X2684526Y423942D02*
Y425942D01*
X2524014Y653288D02*
X2526014D01*
X2525014Y652288D02*
Y654288D01*
X2526904Y659121D02*
X2528904D01*
X2527904Y658121D02*
Y660121D01*
X2543572Y486918D02*
X2545572D01*
X2544572Y485918D02*
Y487918D01*
X2609612Y706374D02*
X2611612D01*
X2610612Y705374D02*
Y707374D01*
X2594372Y628650D02*
X2596372D01*
X2595372Y627650D02*
Y629650D01*
X2609866Y588518D02*
X2611866D01*
X2610866Y587518D02*
Y589518D01*
X2536968Y612648D02*
X2538968D01*
X2537968Y611648D02*
Y613648D01*
X2542810Y620776D02*
X2544810D01*
X2543810Y619776D02*
Y621776D01*
X2639838Y580898D02*
X2641838D01*
X2640838Y579898D02*
Y581898D01*
X2658634Y540512D02*
X2660634D01*
X2659634Y539512D02*
Y541512D01*
X2621042Y564388D02*
X2623042D01*
X2622042Y563388D02*
Y565388D01*
X2609866Y640588D02*
X2611866D01*
X2610866Y639588D02*
Y641588D01*
X2534174Y640334D02*
X2536174D01*
X2535174Y639334D02*
Y641334D01*
X2542810Y647446D02*
X2544810D01*
X2543810Y646446D02*
Y648446D01*
X2532904Y659638D02*
X2534904D01*
X2533904Y658638D02*
Y660638D01*
X2609866Y579882D02*
X2611866D01*
X2610866Y578882D02*
Y580882D01*
X2604464Y573210D02*
X2606464D01*
X2605464Y572210D02*
Y574210D01*
X2647966Y666750D02*
X2649966D01*
X2648966Y665750D02*
Y667750D01*
X2642886Y659130D02*
X2644886D01*
X2643886Y658130D02*
Y660130D01*
X2648982Y657860D02*
X2650982D01*
X2649982Y656860D02*
Y658860D01*
X2481088Y610108D02*
X2483088D01*
X2482088Y609108D02*
Y611108D01*
X2604504Y779300D02*
X2606504D01*
X2605504Y778300D02*
Y780300D01*
X2608747Y775057D02*
X2610747D01*
X2609747Y774057D02*
Y776057D01*
X2612990Y770815D02*
X2614989D01*
X2613989Y769815D02*
Y771815D01*
X2617232Y766572D02*
X2619232D01*
X2618232Y765572D02*
Y767572D01*
X2507250Y537718D02*
X2509250D01*
X2508250Y536718D02*
Y538718D01*
X2562368Y480568D02*
X2564368D01*
X2563368Y479568D02*
Y481568D01*
X2613152Y822452D02*
X2620264D01*
X2616708Y818896D02*
Y826008D01*
X2607580Y396748D02*
X2609580D01*
X2608580Y395748D02*
Y397748D01*
X2564654Y397002D02*
X2566654D01*
X2565654Y396002D02*
Y398002D01*
X2649236Y645160D02*
X2651236D01*
X2650236Y644160D02*
Y646160D01*
X2650252Y627126D02*
X2652252D01*
X2651252Y626126D02*
Y628126D01*
X2650506Y586740D02*
X2652506D01*
X2651506Y585740D02*
Y587740D01*
X2636536Y529844D02*
X2638536D01*
X2637536Y528844D02*
Y530844D01*
X2499376Y544068D02*
X2501376D01*
X2500376Y543068D02*
Y545068D01*
X2561352Y529844D02*
X2563352D01*
X2562352Y528844D02*
Y530844D01*
X2639076Y653034D02*
X2641076D01*
X2640076Y652034D02*
Y654034D01*
X2651522Y698754D02*
X2653522D01*
X2652522Y697754D02*
Y699754D01*
X2664730Y708660D02*
X2666730D01*
X2665730Y707660D02*
Y709660D01*
X2668898Y689968D02*
X2670898D01*
X2669898Y688968D02*
Y690968D01*
X2678192Y564388D02*
X2680192D01*
X2679192Y563388D02*
Y565388D01*
X2524014Y629158D02*
X2526014D01*
X2525014Y628158D02*
Y630158D01*
X2696989Y802893D02*
X2698989D01*
X2697989Y801893D02*
Y803893D01*
M02*
