G04 Layer_Physical_Order=5*
G04 Layer_Color=12632256*
%FSLAX44Y44*%
%MOMM*%
G71*
G01*
G75*
%ADD23C,0.3000*%
%ADD25C,0.2540*%
%ADD26C,0.1270*%
%ADD27C,0.7000*%
%ADD33C,1.5000*%
%ADD38C,0.4500*%
%ADD39C,1.2700*%
G36*
X2521778Y876927D02*
Y873800D01*
X2522088Y872239D01*
X2522972Y870916D01*
X2524295Y870032D01*
X2525856Y869722D01*
X2535856D01*
X2537417Y870032D01*
X2538740Y870916D01*
X2539624Y872239D01*
X2539934Y873800D01*
Y876927D01*
X2547178Y876927D01*
Y873800D01*
X2547488Y872239D01*
X2548372Y870916D01*
X2549695Y870032D01*
X2551256Y869722D01*
X2561256D01*
X2562817Y870032D01*
X2564140Y870916D01*
X2565024Y872239D01*
X2565334Y873800D01*
Y876006D01*
X2566236Y876901D01*
X2572094Y876857D01*
X2572578Y876300D01*
X2572888Y873951D01*
X2573795Y871761D01*
X2575237Y869881D01*
X2577117Y868438D01*
X2579307Y867532D01*
X2581656Y867222D01*
X2584005Y867532D01*
X2586195Y868438D01*
X2588075Y869881D01*
X2589518Y871761D01*
X2590424Y873951D01*
X2590734Y876300D01*
X2591100Y876714D01*
X2615540Y876530D01*
Y867462D01*
X2633540D01*
Y874411D01*
X2634490Y875253D01*
X2636631Y874993D01*
X2639713Y874354D01*
X2639472Y872523D01*
X2639781Y870173D01*
X2640688Y867984D01*
X2642130Y866104D01*
X2644010Y864661D01*
X2646200Y863754D01*
X2648549Y863445D01*
X2650899Y863754D01*
X2653088Y864661D01*
X2653226Y864767D01*
X2655933Y862060D01*
Y773691D01*
X2655406Y773340D01*
X2654578Y772099D01*
X2654572Y772071D01*
X2653302Y772196D01*
Y790956D01*
X2652914Y792907D01*
X2651809Y794561D01*
X2624543Y821826D01*
X2624626Y822452D01*
X2624356Y824501D01*
X2623565Y826411D01*
X2622307Y828051D01*
X2620667Y829309D01*
X2618757Y830100D01*
X2616708Y830370D01*
X2614659Y830100D01*
X2612749Y829309D01*
X2611109Y828051D01*
X2609851Y826411D01*
X2609060Y824501D01*
X2608790Y822452D01*
X2609060Y820403D01*
X2609851Y818493D01*
X2611109Y816853D01*
X2612749Y815595D01*
X2614659Y814804D01*
X2616708Y814534D01*
X2617334Y814617D01*
X2643106Y788844D01*
Y765048D01*
X2643494Y763097D01*
X2644599Y761443D01*
X2688318Y717724D01*
Y567774D01*
X2684156Y563612D01*
X2683387Y563860D01*
X2682972Y564170D01*
X2683015Y564388D01*
X2682724Y565851D01*
X2681896Y567092D01*
X2680655Y567920D01*
X2679192Y568211D01*
X2677729Y567920D01*
X2676488Y567092D01*
X2675659Y565851D01*
X2675369Y564388D01*
X2675659Y562925D01*
X2676488Y561684D01*
X2677729Y560856D01*
X2679192Y560565D01*
X2680655Y560856D01*
X2681499Y561420D01*
X2682652Y560704D01*
X2682476Y559821D01*
Y540258D01*
X2682864Y538307D01*
X2683969Y536653D01*
X2688318Y532304D01*
Y445850D01*
X2663621Y421152D01*
X2663444Y421176D01*
X2661395Y420906D01*
X2659485Y420115D01*
X2657845Y418857D01*
X2656587Y417217D01*
X2655796Y415307D01*
X2655526Y413258D01*
X2655796Y411209D01*
X2656587Y409299D01*
X2657845Y407659D01*
X2659485Y406401D01*
X2661395Y405610D01*
X2663444Y405340D01*
X2665493Y405610D01*
X2667403Y406401D01*
X2669043Y407659D01*
X2670301Y409299D01*
X2671092Y411209D01*
X2671362Y413258D01*
X2671220Y414333D01*
X2697021Y440133D01*
X2698126Y441787D01*
X2698514Y443738D01*
Y534416D01*
X2698126Y536367D01*
X2697021Y538021D01*
X2692672Y542370D01*
Y557709D01*
X2697021Y562058D01*
X2698126Y563712D01*
X2698514Y565662D01*
Y719836D01*
X2698126Y721787D01*
X2697021Y723441D01*
X2653302Y767160D01*
Y769076D01*
X2654572Y769201D01*
X2654578Y769173D01*
X2655406Y767932D01*
X2656647Y767104D01*
X2658110Y766813D01*
X2659573Y767104D01*
X2660814Y767932D01*
X2661642Y769173D01*
X2661933Y770636D01*
X2661642Y772099D01*
X2660814Y773340D01*
X2660287Y773691D01*
Y862962D01*
X2660121Y863795D01*
X2659649Y864501D01*
X2656305Y867846D01*
X2656411Y867984D01*
X2657227Y869954D01*
X2660205Y869073D01*
X2662282Y868264D01*
X2662781Y867096D01*
X2662749Y867018D01*
X2662439Y864668D01*
X2662749Y862319D01*
X2663655Y860129D01*
X2665098Y858249D01*
X2666978Y856807D01*
X2669141Y855911D01*
Y769373D01*
X2668615Y769022D01*
X2667786Y767781D01*
X2667495Y766318D01*
X2667786Y764855D01*
X2668615Y763614D01*
X2669855Y762786D01*
X2671318Y762495D01*
X2672781Y762786D01*
X2674022Y763614D01*
X2674850Y764855D01*
X2675141Y766318D01*
X2674850Y767781D01*
X2674022Y769022D01*
X2673495Y769373D01*
Y786127D01*
X2674765Y786848D01*
X2675890Y786625D01*
X2677353Y786916D01*
X2678594Y787744D01*
X2679422Y788985D01*
X2679713Y790448D01*
X2679422Y791911D01*
X2678594Y793152D01*
X2677353Y793980D01*
X2675890Y794271D01*
X2674765Y794048D01*
X2673495Y794769D01*
Y855851D01*
X2673866Y855900D01*
X2676056Y856807D01*
X2677936Y858249D01*
X2679378Y860129D01*
X2680178Y860432D01*
X2682411Y859339D01*
X2683994Y858402D01*
X2684019Y858271D01*
X2683112Y856082D01*
X2682803Y853732D01*
X2683112Y851383D01*
X2684019Y849194D01*
X2685462Y847314D01*
X2687342Y845871D01*
X2689531Y844964D01*
X2689704Y844941D01*
Y780300D01*
X2689869Y779466D01*
X2689998Y779273D01*
X2689846Y778510D01*
X2690138Y777047D01*
X2690966Y775806D01*
X2692207Y774978D01*
X2693670Y774687D01*
X2695133Y774978D01*
X2696374Y775806D01*
X2697202Y777047D01*
X2697493Y778510D01*
X2697202Y779973D01*
X2696374Y781214D01*
X2695133Y782042D01*
X2694057Y782256D01*
Y799742D01*
X2695074Y800113D01*
X2695327Y800162D01*
X2696526Y799361D01*
X2697989Y799070D01*
X2699452Y799361D01*
X2700692Y800190D01*
X2701521Y801430D01*
X2701812Y802893D01*
X2701521Y804356D01*
X2700692Y805597D01*
X2699452Y806425D01*
X2697989Y806717D01*
X2696526Y806425D01*
X2695327Y805625D01*
X2695074Y805674D01*
X2694057Y806045D01*
Y844941D01*
X2694230Y844964D01*
X2696419Y845871D01*
X2698299Y847314D01*
X2699245Y848546D01*
X2701870Y846697D01*
X2704272Y844688D01*
X2703321Y843449D01*
X2702414Y841260D01*
X2702105Y838910D01*
X2702414Y836561D01*
X2703321Y834371D01*
X2704763Y832491D01*
X2706644Y831049D01*
X2708833Y830142D01*
X2709006Y830119D01*
Y778932D01*
X2708239Y778420D01*
X2707410Y777179D01*
X2707119Y775716D01*
X2707410Y774253D01*
X2708239Y773012D01*
X2709479Y772184D01*
X2710942Y771893D01*
X2712405Y772184D01*
X2713646Y773012D01*
X2714474Y774253D01*
X2714765Y775716D01*
X2714474Y777179D01*
X2713646Y778420D01*
X2713359Y778611D01*
Y830119D01*
X2713532Y830142D01*
X2715721Y831049D01*
X2717601Y832491D01*
X2717717Y832499D01*
X2718977Y831262D01*
X2719884Y830228D01*
X2719803Y829411D01*
X2718361Y827531D01*
X2717454Y825342D01*
X2717144Y822992D01*
X2717454Y820643D01*
X2718361Y818453D01*
X2719803Y816573D01*
X2721683Y815131D01*
X2723873Y814224D01*
X2726222Y813915D01*
Y802915D01*
X2724309Y802663D01*
X2722091Y801744D01*
X2720186Y800282D01*
X2718724Y798377D01*
X2717805Y796159D01*
X2717491Y793778D01*
Y749018D01*
X2717805Y746637D01*
X2718724Y744419D01*
X2720186Y742514D01*
X2722091Y741052D01*
X2724309Y740133D01*
X2726222Y739881D01*
Y723888D01*
X2724563Y723669D01*
X2722345Y722750D01*
X2720439Y721288D01*
X2718978Y719383D01*
X2718059Y717165D01*
X2717745Y714784D01*
Y670024D01*
X2718059Y667643D01*
X2718978Y665425D01*
X2720439Y663520D01*
X2722345Y662058D01*
X2724563Y661139D01*
X2726222Y660920D01*
Y552060D01*
X2726182Y552025D01*
X2723801Y551711D01*
X2721583Y550792D01*
X2719677Y549330D01*
X2718216Y547425D01*
X2717297Y545207D01*
X2716983Y542826D01*
Y498066D01*
X2717297Y495685D01*
X2718216Y493467D01*
X2719677Y491562D01*
X2721583Y490100D01*
X2723801Y489181D01*
X2726182Y488867D01*
X2726222Y488832D01*
Y477892D01*
X2726182Y477857D01*
X2723801Y477543D01*
X2721583Y476624D01*
X2719677Y475162D01*
X2718216Y473257D01*
X2717297Y471039D01*
X2716983Y468658D01*
Y423898D01*
X2717297Y421517D01*
X2718216Y419299D01*
X2719677Y417394D01*
X2721583Y415932D01*
X2723801Y415013D01*
X2726182Y414699D01*
X2726222Y414664D01*
Y410992D01*
X2725694Y410464D01*
X2720537Y404343D01*
X2712834Y396551D01*
X2704538Y389333D01*
X2694724Y382073D01*
X2684397Y375688D01*
X2674653Y370683D01*
X2663461Y366014D01*
X2653063Y362618D01*
X2642348Y359994D01*
X2632263Y358354D01*
X2631296Y359177D01*
Y366632D01*
X2613296D01*
Y357901D01*
X2605946Y357842D01*
X2605664Y359981D01*
X2604757Y362171D01*
X2603315Y364051D01*
X2601435Y365494D01*
X2599246Y366400D01*
X2596896Y366710D01*
X2594547Y366400D01*
X2592357Y365494D01*
X2590477Y364051D01*
X2589034Y362171D01*
X2588128Y359981D01*
X2587827Y357698D01*
X2580573Y357640D01*
X2580264Y359981D01*
X2579358Y362171D01*
X2577915Y364051D01*
X2576035Y365494D01*
X2573846Y366400D01*
X2571496Y366710D01*
X2569146Y366400D01*
X2566957Y365494D01*
X2565077Y364051D01*
X2563635Y362171D01*
X2562728Y359981D01*
X2562419Y357632D01*
X2562298Y357494D01*
X2555345Y357438D01*
X2555174Y357632D01*
X2554864Y359981D01*
X2553958Y362171D01*
X2552515Y364051D01*
X2550635Y365494D01*
X2548445Y366400D01*
X2548273Y366423D01*
Y371348D01*
X2548107Y372181D01*
X2547635Y372887D01*
X2545875Y374647D01*
X2546361Y375820D01*
X2622042D01*
X2623190Y376296D01*
X2623665Y377444D01*
Y387096D01*
X2623190Y388244D01*
X2622042Y388720D01*
X2508758D01*
X2507610Y388244D01*
X2507356Y387990D01*
X2506880Y386842D01*
Y377444D01*
X2506836Y377378D01*
X2503877D01*
X2503562Y377588D01*
X2502729Y377754D01*
X2490699D01*
X2484392Y384061D01*
Y458457D01*
X2487008Y461074D01*
X2488085Y460354D01*
X2487830Y459740D01*
Y387604D01*
X2488306Y386456D01*
X2489454Y385980D01*
X2499614D01*
X2500762Y386456D01*
X2501270Y386964D01*
X2501746Y388112D01*
Y448972D01*
X2562860D01*
X2564008Y449448D01*
X2564484Y450596D01*
Y461010D01*
X2564008Y462158D01*
X2562860Y462634D01*
X2490724D01*
X2490110Y462379D01*
X2489390Y463456D01*
X2497343Y471409D01*
X2497815Y472115D01*
X2497981Y472948D01*
Y517649D01*
X2499251Y518370D01*
X2500376Y518147D01*
X2501839Y518438D01*
X2503080Y519266D01*
X2503908Y520507D01*
X2504199Y521970D01*
X2503908Y523433D01*
X2503080Y524674D01*
X2501839Y525502D01*
X2500376Y525793D01*
X2499251Y525570D01*
X2497981Y526291D01*
Y532127D01*
X2499251Y532848D01*
X2500376Y532625D01*
X2501839Y532916D01*
X2503080Y533744D01*
X2503908Y534985D01*
X2504199Y536448D01*
X2503908Y537911D01*
X2503080Y539152D01*
X2501839Y539980D01*
X2500376Y540271D01*
X2499251Y540048D01*
X2497981Y540769D01*
Y546976D01*
X2508570Y557566D01*
X2509744Y557080D01*
Y545846D01*
X2509744Y545846D01*
X2509959Y544765D01*
X2510571Y543849D01*
X2513808Y540612D01*
Y490628D01*
X2510825Y487645D01*
X2510213Y486729D01*
X2509998Y485648D01*
X2509998Y485648D01*
Y475727D01*
X2509798Y475427D01*
X2509507Y473964D01*
X2509798Y472501D01*
X2510626Y471260D01*
X2511867Y470432D01*
X2513330Y470141D01*
X2514793Y470432D01*
X2516034Y471260D01*
X2516862Y472501D01*
X2517153Y473964D01*
X2516862Y475427D01*
X2516294Y476278D01*
X2517002Y477432D01*
X2517902Y477253D01*
X2519365Y477544D01*
X2520158Y478073D01*
X2521428Y477491D01*
Y474472D01*
X2521428Y474472D01*
X2521643Y473391D01*
X2522255Y472475D01*
X2524033Y470697D01*
X2524949Y470085D01*
X2526030Y469870D01*
X2526030Y469870D01*
X2562352D01*
X2566017Y466204D01*
Y448450D01*
X2565545Y448356D01*
X2564838Y447884D01*
X2562270Y445316D01*
X2562265Y445309D01*
X2561697Y444642D01*
X2560638Y444985D01*
X2560259Y445238D01*
X2558796Y445529D01*
X2557333Y445238D01*
X2556092Y444410D01*
X2555264Y443169D01*
X2554973Y441706D01*
X2555159Y440768D01*
X2554350Y439498D01*
X2551736D01*
X2551340Y440092D01*
X2550099Y440920D01*
X2548636Y441211D01*
X2547173Y440920D01*
X2545932Y440092D01*
X2545104Y438851D01*
X2544813Y437388D01*
X2545104Y435925D01*
X2545932Y434684D01*
X2547173Y433856D01*
X2548636Y433565D01*
X2550099Y433856D01*
X2551340Y434684D01*
X2551647Y435144D01*
X2564899D01*
X2565578Y433874D01*
X2565170Y433263D01*
X2564879Y431800D01*
X2565170Y430337D01*
X2565999Y429096D01*
X2567239Y428268D01*
X2568702Y427977D01*
X2570165Y428268D01*
X2571406Y429096D01*
X2572234Y430337D01*
X2572525Y431800D01*
X2572234Y433263D01*
X2571406Y434504D01*
X2570165Y435332D01*
X2569389Y435487D01*
X2568971Y436865D01*
X2569733Y437627D01*
X2570205Y438333D01*
X2570311Y438864D01*
X2570898Y439256D01*
X2571035Y439462D01*
X2617564D01*
X2618255Y438427D01*
X2619496Y437599D01*
X2620959Y437308D01*
X2622422Y437599D01*
X2623663Y438427D01*
X2624491Y439668D01*
X2624782Y441131D01*
X2624491Y442594D01*
X2623663Y443835D01*
X2622422Y444663D01*
X2622042Y444739D01*
X2621039Y446024D01*
X2620748Y447487D01*
X2620605Y447702D01*
X2621283Y448972D01*
X2630324D01*
Y433222D01*
X2629763Y432184D01*
X2629763Y432184D01*
Y432184D01*
X2629055Y432114D01*
X2629037Y432199D01*
X2628876Y433009D01*
X2628047Y434250D01*
X2626807Y435078D01*
X2625344Y435369D01*
X2623881Y435078D01*
X2622640Y434250D01*
X2621812Y433009D01*
X2621521Y431546D01*
X2621812Y430083D01*
X2622640Y428842D01*
X2623881Y428014D01*
X2625344Y427723D01*
X2626807Y428014D01*
X2628047Y428842D01*
X2628876Y430083D01*
X2629037Y430893D01*
X2629055Y430978D01*
X2629763Y430908D01*
Y430908D01*
X2629763Y430908D01*
X2630324Y429870D01*
Y403758D01*
X2629763Y402720D01*
X2629763Y402720D01*
Y402720D01*
X2629055Y402650D01*
X2629037Y402735D01*
X2628876Y403545D01*
X2628047Y404786D01*
X2626807Y405614D01*
X2625971Y405781D01*
X2621411Y410341D01*
X2620418Y411004D01*
X2619248Y411237D01*
X2619248Y411237D01*
X2619162D01*
X2618146Y412507D01*
X2618246Y413004D01*
X2617954Y414467D01*
X2617868Y414597D01*
X2618452Y416008D01*
X2618528Y416023D01*
X2619768Y416852D01*
X2620597Y418092D01*
X2620887Y419555D01*
X2620597Y421019D01*
X2619768Y422259D01*
X2618528Y423088D01*
X2617064Y423379D01*
X2615601Y423088D01*
X2614361Y422259D01*
X2613532Y421019D01*
X2613241Y419555D01*
X2613532Y418092D01*
X2613618Y417962D01*
X2613034Y416551D01*
X2612959Y416536D01*
X2611718Y415708D01*
X2610890Y414467D01*
X2610598Y413004D01*
X2610890Y411541D01*
X2610256Y410203D01*
X2609576Y409749D01*
X2608694Y408867D01*
X2561927D01*
X2560756Y408634D01*
X2559764Y407971D01*
X2559764Y407971D01*
X2557628Y405835D01*
X2557272Y405905D01*
X2555809Y405614D01*
X2554568Y404786D01*
X2554466Y404633D01*
X2549595D01*
X2549595Y404633D01*
X2549595Y404633D01*
X2524138D01*
X2523429Y405106D01*
X2521966Y405397D01*
X2520503Y405106D01*
X2519262Y404278D01*
X2518434Y403037D01*
X2518143Y401574D01*
X2518434Y400111D01*
X2519262Y398870D01*
X2520503Y398042D01*
X2521966Y397751D01*
X2523429Y398042D01*
X2523573Y398138D01*
X2524597Y397463D01*
X2524693Y397245D01*
X2524493Y396240D01*
X2524784Y394777D01*
X2525612Y393536D01*
X2526853Y392708D01*
X2528316Y392417D01*
X2529779Y392708D01*
X2531020Y393536D01*
X2531848Y394777D01*
X2532139Y396240D01*
X2531940Y397245D01*
X2532717Y398515D01*
X2535864D01*
X2536681Y397245D01*
X2536497Y396324D01*
X2536789Y394861D01*
X2537617Y393620D01*
X2538858Y392792D01*
X2540321Y392501D01*
X2541784Y392792D01*
X2543025Y393620D01*
X2543615Y394504D01*
X2558072D01*
X2558905Y394670D01*
X2559612Y395142D01*
X2563196Y398726D01*
X2563462Y399124D01*
X2564225Y399887D01*
X2567989D01*
X2568689Y399034D01*
X2568979Y397571D01*
X2569808Y396330D01*
X2571049Y395502D01*
X2572512Y395211D01*
X2573975Y395502D01*
X2574459Y395825D01*
X2575837Y395403D01*
X2575869Y395356D01*
X2576666Y394162D01*
X2577907Y393333D01*
X2579370Y393042D01*
X2580833Y393333D01*
X2582074Y394162D01*
X2582903Y395403D01*
X2583193Y396866D01*
X2582903Y398329D01*
X2582710Y398617D01*
X2583389Y399887D01*
X2604640D01*
X2605319Y398617D01*
X2605048Y398211D01*
X2604756Y396748D01*
X2605048Y395285D01*
X2605876Y394044D01*
X2607117Y393216D01*
X2608580Y392925D01*
X2610043Y393216D01*
X2611284Y394044D01*
X2612112Y395285D01*
X2612403Y396748D01*
X2612244Y397550D01*
X2613232Y398648D01*
X2613914Y398513D01*
X2615377Y398804D01*
X2616618Y399632D01*
X2617446Y400873D01*
X2617737Y402336D01*
X2617634Y402856D01*
X2618623Y404150D01*
X2618930Y404170D01*
X2621645Y401455D01*
X2621812Y400619D01*
X2622640Y399378D01*
X2623881Y398550D01*
X2625344Y398259D01*
X2626807Y398550D01*
X2628047Y399378D01*
X2628876Y400619D01*
X2629037Y401429D01*
X2629055Y401514D01*
X2629763Y401444D01*
Y401444D01*
X2629763Y401444D01*
X2630324Y400406D01*
Y389128D01*
X2630800Y387980D01*
X2632070Y386710D01*
X2633218Y386234D01*
X2642616D01*
X2643764Y386710D01*
X2644240Y387858D01*
Y459994D01*
X2643764Y461142D01*
X2642748Y462158D01*
X2641600Y462634D01*
X2573782D01*
X2572634Y462158D01*
X2572159Y461010D01*
Y450767D01*
X2571230Y449771D01*
X2570371Y449902D01*
Y467106D01*
X2570205Y467939D01*
X2569733Y468645D01*
X2565367Y473011D01*
X2565215Y473775D01*
X2564603Y474691D01*
X2563687Y475303D01*
X2562606Y475518D01*
X2537043D01*
X2536918Y476788D01*
X2538161Y477036D01*
X2539402Y477864D01*
X2540230Y479105D01*
X2540521Y480568D01*
X2540230Y482031D01*
X2539402Y483272D01*
X2538948Y483575D01*
X2538775Y484443D01*
X2538163Y485359D01*
X2537212Y486310D01*
Y569461D01*
X2537920Y570521D01*
X2538211Y571984D01*
X2537920Y573447D01*
X2537092Y574688D01*
X2535851Y575516D01*
X2534388Y575807D01*
X2532925Y575516D01*
X2531684Y574688D01*
X2530856Y573447D01*
X2530565Y571984D01*
X2530602Y571794D01*
X2529522Y570714D01*
X2529332Y570751D01*
X2527869Y570460D01*
X2526628Y569632D01*
X2525800Y568391D01*
X2525509Y566928D01*
X2525552Y566708D01*
X2524472Y565628D01*
X2524252Y565671D01*
X2522789Y565380D01*
X2521548Y564552D01*
X2520720Y563311D01*
X2520429Y561848D01*
X2520720Y560385D01*
X2521548Y559144D01*
X2521912Y558902D01*
Y554218D01*
X2520642Y553540D01*
X2520027Y553950D01*
X2518564Y554241D01*
X2517101Y553950D01*
X2516662Y553657D01*
X2515392Y554336D01*
Y610362D01*
X2515392Y610362D01*
X2515177Y611443D01*
X2514565Y612359D01*
X2514565Y612359D01*
X2499839Y627085D01*
X2499590Y628335D01*
X2498762Y629576D01*
X2497521Y630404D01*
X2496058Y630695D01*
X2494595Y630404D01*
X2493354Y629576D01*
X2492526Y628335D01*
X2492235Y626872D01*
X2492526Y625409D01*
X2493354Y624168D01*
X2494595Y623340D01*
X2495845Y623091D01*
X2509744Y609192D01*
Y591000D01*
X2508570Y590514D01*
X2502890Y596194D01*
X2502929Y596392D01*
X2502638Y597855D01*
X2501810Y599096D01*
X2500569Y599924D01*
X2499106Y600215D01*
X2497643Y599924D01*
X2496402Y599096D01*
X2495574Y597855D01*
X2495283Y596392D01*
X2495433Y595635D01*
X2495098Y595308D01*
X2494984Y595309D01*
X2493764Y595672D01*
X2493174Y596556D01*
X2491933Y597384D01*
X2490470Y597675D01*
X2489007Y597384D01*
X2487766Y596556D01*
X2486938Y595315D01*
X2486647Y593852D01*
X2486938Y592389D01*
X2487766Y591148D01*
X2489007Y590320D01*
X2490470Y590029D01*
X2491312Y590196D01*
X2491982Y590253D01*
X2492687Y589296D01*
X2492780Y588833D01*
X2493608Y587592D01*
X2494849Y586764D01*
X2496312Y586473D01*
X2497775Y586764D01*
X2499016Y587592D01*
X2499368Y588119D01*
X2500891D01*
X2504134Y584876D01*
X2504011Y583840D01*
X2502827Y583402D01*
X2502424Y583671D01*
X2501956Y583764D01*
X2501556Y584364D01*
X2500315Y585192D01*
X2498852Y585483D01*
X2497389Y585192D01*
X2496148Y584364D01*
X2495320Y583123D01*
X2495029Y581660D01*
X2495320Y580197D01*
X2496148Y578956D01*
X2496003Y577670D01*
X2495574Y577027D01*
X2495283Y575564D01*
X2495574Y574101D01*
X2496402Y572860D01*
X2496929Y572509D01*
Y563834D01*
X2485955Y552859D01*
X2485483Y552153D01*
X2485317Y551320D01*
Y479315D01*
X2472366Y466364D01*
X2471894Y465657D01*
X2471728Y464824D01*
Y377694D01*
X2471894Y376861D01*
X2472366Y376154D01*
X2482792Y365728D01*
X2483499Y365256D01*
X2484332Y365090D01*
X2488331D01*
X2488700Y363820D01*
X2487435Y362171D01*
X2486528Y359981D01*
X2486460Y359464D01*
X2485404Y358759D01*
X2484074Y359115D01*
X2478544Y361693D01*
X2473547Y365193D01*
X2469233Y369507D01*
X2465733Y374504D01*
X2464304Y377570D01*
X2464765Y378753D01*
X2465605Y379102D01*
X2467511Y380564D01*
X2468972Y382469D01*
X2469891Y384687D01*
X2470205Y387068D01*
Y431828D01*
X2469891Y434209D01*
X2468972Y436427D01*
X2467511Y438332D01*
X2465605Y439794D01*
X2463387Y440713D01*
X2461044Y441022D01*
Y444390D01*
X2469498D01*
Y462390D01*
X2461044D01*
Y469784D01*
X2462847Y470022D01*
X2465037Y470928D01*
X2466917Y472371D01*
X2468360Y474251D01*
X2469266Y476441D01*
X2469576Y478790D01*
X2469266Y481139D01*
X2468360Y483329D01*
X2466917Y485209D01*
X2465037Y486651D01*
X2462847Y487558D01*
X2461044Y487796D01*
Y495184D01*
X2462847Y495422D01*
X2465037Y496329D01*
X2466917Y497771D01*
X2468360Y499651D01*
X2469266Y501841D01*
X2469576Y504190D01*
X2469266Y506539D01*
X2468360Y508729D01*
X2466917Y510609D01*
X2465037Y512052D01*
X2462847Y512958D01*
X2461044Y513196D01*
Y520584D01*
X2462847Y520822D01*
X2465037Y521729D01*
X2466917Y523171D01*
X2468360Y525051D01*
X2469266Y527240D01*
X2469576Y529590D01*
X2469266Y531940D01*
X2468360Y534129D01*
X2466917Y536009D01*
X2465037Y537452D01*
X2462847Y538358D01*
X2461044Y538596D01*
Y545984D01*
X2462847Y546222D01*
X2465037Y547128D01*
X2466917Y548571D01*
X2468360Y550451D01*
X2469266Y552640D01*
X2469576Y554990D01*
X2469266Y557340D01*
X2468360Y559529D01*
X2466917Y561409D01*
X2465037Y562851D01*
X2462847Y563758D01*
X2461044Y563996D01*
Y571384D01*
X2462847Y571622D01*
X2465037Y572528D01*
X2466917Y573971D01*
X2468360Y575851D01*
X2469266Y578041D01*
X2469576Y580390D01*
X2469266Y582739D01*
X2468360Y584929D01*
X2466917Y586809D01*
X2465037Y588251D01*
X2462847Y589158D01*
X2461044Y589396D01*
Y606442D01*
X2469752D01*
Y624442D01*
X2461044D01*
Y631803D01*
X2463102Y632074D01*
X2465291Y632980D01*
X2467171Y634423D01*
X2468613Y636303D01*
X2469520Y638493D01*
X2469830Y640842D01*
X2469520Y643192D01*
X2468613Y645381D01*
X2467171Y647261D01*
X2465291Y648704D01*
X2463102Y649610D01*
X2461044Y649881D01*
Y657203D01*
X2463102Y657474D01*
X2465291Y658381D01*
X2467171Y659823D01*
X2468613Y661703D01*
X2469520Y663893D01*
X2469830Y666242D01*
X2469520Y668592D01*
X2468613Y670781D01*
X2467171Y672661D01*
X2465291Y674103D01*
X2463102Y675010D01*
X2461044Y675281D01*
Y682603D01*
X2463102Y682874D01*
X2465291Y683781D01*
X2467171Y685223D01*
X2468613Y687103D01*
X2469520Y689293D01*
X2469830Y691642D01*
X2469520Y693991D01*
X2468613Y696181D01*
X2467171Y698061D01*
X2465291Y699503D01*
X2463102Y700410D01*
X2461044Y700681D01*
Y708003D01*
X2463102Y708274D01*
X2465291Y709181D01*
X2467171Y710623D01*
X2468613Y712503D01*
X2469520Y714693D01*
X2469830Y717042D01*
X2469520Y719391D01*
X2468613Y721581D01*
X2467171Y723461D01*
X2465291Y724903D01*
X2463102Y725810D01*
X2461044Y726081D01*
Y769542D01*
X2463387Y769851D01*
X2465605Y770770D01*
X2467511Y772232D01*
X2468972Y774137D01*
X2469891Y776355D01*
X2470205Y778736D01*
Y823496D01*
X2469891Y825877D01*
X2468972Y828095D01*
X2467511Y830000D01*
X2465605Y831462D01*
X2463387Y832381D01*
X2461044Y832690D01*
Y841927D01*
X2461576Y848005D01*
X2463155Y853898D01*
X2465733Y859427D01*
X2469233Y864425D01*
X2473547Y868739D01*
X2478544Y872238D01*
X2484074Y874816D01*
X2489967Y876395D01*
X2495170Y876851D01*
X2496378Y876300D01*
X2496688Y873951D01*
X2497594Y871761D01*
X2499037Y869881D01*
X2500917Y868438D01*
X2503107Y867532D01*
X2505456Y867222D01*
X2507805Y867532D01*
X2509995Y868438D01*
X2511875Y869881D01*
X2513318Y871761D01*
X2514224Y873951D01*
X2514534Y876300D01*
X2515084Y876927D01*
X2521778Y876927D01*
D02*
G37*
%LPC*%
G36*
X2569464Y518999D02*
X2566349Y518589D01*
X2563447Y517387D01*
X2560955Y515475D01*
X2559043Y512982D01*
X2557841Y510080D01*
X2557431Y506966D01*
X2557841Y503852D01*
X2559043Y500950D01*
X2560955Y498457D01*
X2563447Y496545D01*
X2566349Y495343D01*
X2569464Y494933D01*
X2572578Y495343D01*
X2575480Y496545D01*
X2577972Y498457D01*
X2579885Y500950D01*
X2581087Y503852D01*
X2581497Y506966D01*
X2581087Y510080D01*
X2579885Y512982D01*
X2577972Y515475D01*
X2575480Y517387D01*
X2572578Y518589D01*
X2569464Y518999D01*
D02*
G37*
G36*
X2676628Y510262D02*
X2669564D01*
Y503198D01*
X2676628D01*
Y510262D01*
D02*
G37*
G36*
X2563368Y484391D02*
X2561905Y484100D01*
X2560664Y483272D01*
X2559836Y482031D01*
X2559545Y480568D01*
X2559836Y479105D01*
X2560664Y477864D01*
X2561905Y477036D01*
X2563368Y476745D01*
X2564831Y477036D01*
X2566071Y477864D01*
X2566900Y479105D01*
X2567191Y480568D01*
X2566900Y482031D01*
X2566071Y483272D01*
X2564831Y484100D01*
X2563368Y484391D01*
D02*
G37*
G36*
X2595372Y529349D02*
X2593909Y529058D01*
X2592668Y528230D01*
X2591840Y526989D01*
X2591548Y525526D01*
X2591840Y524063D01*
X2592668Y522822D01*
X2593195Y522471D01*
Y484772D01*
X2591150Y482726D01*
X2590993Y482830D01*
X2589530Y483121D01*
X2588067Y482830D01*
X2586826Y482002D01*
X2585998Y480761D01*
X2585706Y479298D01*
X2585998Y477835D01*
X2586826Y476594D01*
X2588067Y475766D01*
X2589530Y475475D01*
X2590993Y475766D01*
X2592234Y476594D01*
X2593062Y477835D01*
X2593219Y478621D01*
X2594020Y479162D01*
X2595154Y478531D01*
X2595105Y478282D01*
X2595396Y476819D01*
X2596224Y475578D01*
X2597465Y474750D01*
X2598928Y474459D01*
X2600391Y474750D01*
X2601631Y475578D01*
X2602460Y476819D01*
X2602751Y478282D01*
X2602460Y479745D01*
X2601631Y480986D01*
X2600391Y481814D01*
X2598928Y482105D01*
X2598190Y481959D01*
X2597383Y483037D01*
X2597549Y483870D01*
Y522471D01*
X2598076Y522822D01*
X2598904Y524063D01*
X2599195Y525526D01*
X2598904Y526989D01*
X2598076Y528230D01*
X2596835Y529058D01*
X2595372Y529349D01*
D02*
G37*
G36*
X2659634Y544335D02*
X2658171Y544044D01*
X2656931Y543216D01*
X2656102Y541975D01*
X2655811Y540512D01*
X2656102Y539049D01*
X2656931Y537808D01*
X2658171Y536980D01*
X2659634Y536689D01*
X2661097Y536980D01*
X2662338Y537808D01*
X2663167Y539049D01*
X2663457Y540512D01*
X2663167Y541975D01*
X2662338Y543216D01*
X2661097Y544044D01*
X2659634Y544335D01*
D02*
G37*
G36*
X2640838Y584721D02*
X2639375Y584430D01*
X2638134Y583602D01*
X2637306Y582361D01*
X2637014Y580898D01*
X2637306Y579435D01*
X2638134Y578194D01*
X2639375Y577366D01*
X2640838Y577075D01*
X2642301Y577366D01*
X2643542Y578194D01*
X2644370Y579435D01*
X2644661Y580898D01*
X2644370Y582361D01*
X2643542Y583602D01*
X2642301Y584430D01*
X2640838Y584721D01*
D02*
G37*
G36*
X2610866Y644411D02*
X2609403Y644120D01*
X2608163Y643292D01*
X2607334Y642051D01*
X2607043Y640588D01*
X2607334Y639125D01*
X2608163Y637884D01*
X2609403Y637056D01*
X2610866Y636765D01*
X2611487Y636888D01*
X2613074Y635301D01*
Y592964D01*
X2611804Y592155D01*
X2610866Y592341D01*
X2609403Y592050D01*
X2608163Y591222D01*
X2607334Y589981D01*
X2607043Y588518D01*
X2607334Y587055D01*
X2608163Y585814D01*
X2609403Y584986D01*
X2610097Y584847D01*
Y583553D01*
X2609403Y583414D01*
X2608163Y582586D01*
X2607334Y581345D01*
X2607043Y579882D01*
X2607334Y578419D01*
X2607841Y577659D01*
X2606929Y576745D01*
X2606926Y576743D01*
X2605464Y577033D01*
X2604001Y576742D01*
X2602760Y575914D01*
X2601931Y574673D01*
X2601641Y573210D01*
X2601931Y571747D01*
X2602760Y570506D01*
X2604001Y569678D01*
X2605464Y569386D01*
X2606927Y569678D01*
X2608167Y570506D01*
X2608996Y571747D01*
X2609287Y573210D01*
X2608996Y574673D01*
X2608488Y575433D01*
X2609401Y576347D01*
X2609404Y576349D01*
X2610866Y576059D01*
X2611804Y576245D01*
X2613074Y575436D01*
Y561273D01*
X2613240Y560440D01*
X2613712Y559734D01*
X2618130Y555315D01*
X2617964Y554482D01*
X2618256Y553019D01*
X2619084Y551778D01*
X2620325Y550950D01*
X2621788Y550659D01*
X2623251Y550950D01*
X2624492Y551778D01*
X2625320Y553019D01*
X2625611Y554482D01*
X2625320Y555945D01*
X2624492Y557186D01*
X2623251Y558014D01*
X2621788Y558305D01*
X2621378Y558224D01*
X2619661Y559941D01*
X2620471Y560928D01*
X2620579Y560856D01*
X2622042Y560565D01*
X2623505Y560856D01*
X2624745Y561684D01*
X2625574Y562925D01*
X2625865Y564388D01*
X2625574Y565851D01*
X2624745Y567092D01*
X2623505Y567920D01*
X2622042Y568211D01*
X2620579Y567920D01*
X2619338Y567092D01*
X2618698Y566133D01*
X2617428Y566427D01*
Y636203D01*
X2617262Y637036D01*
X2616790Y637742D01*
X2614566Y639967D01*
X2614689Y640588D01*
X2614398Y642051D01*
X2613570Y643292D01*
X2612329Y644120D01*
X2610866Y644411D01*
D02*
G37*
G36*
X2705608Y559617D02*
X2703227Y559303D01*
X2701009Y558384D01*
X2699103Y556922D01*
X2697642Y555017D01*
X2696723Y552799D01*
X2696409Y550418D01*
X2696723Y548037D01*
X2697642Y545819D01*
X2699103Y543913D01*
X2701009Y542452D01*
X2703227Y541533D01*
X2705608Y541219D01*
X2707989Y541533D01*
X2710207Y542452D01*
X2712112Y543913D01*
X2713574Y545819D01*
X2714493Y548037D01*
X2714807Y550418D01*
X2714493Y552799D01*
X2713574Y555017D01*
X2712112Y556922D01*
X2710207Y558384D01*
X2707989Y559303D01*
X2705608Y559617D01*
D02*
G37*
G36*
X2647696Y561861D02*
X2646233Y561570D01*
X2644992Y560742D01*
X2644164Y559501D01*
X2643873Y558038D01*
X2644164Y556575D01*
X2644992Y555334D01*
X2646233Y554506D01*
X2647696Y554215D01*
X2649159Y554506D01*
X2650399Y555334D01*
X2651228Y556575D01*
X2651519Y558038D01*
X2651228Y559501D01*
X2650399Y560742D01*
X2649159Y561570D01*
X2647696Y561861D01*
D02*
G37*
G36*
X2636774Y483121D02*
X2635311Y482830D01*
X2634070Y482002D01*
X2633242Y480761D01*
X2632951Y479298D01*
X2633242Y477835D01*
X2634070Y476594D01*
X2635311Y475766D01*
X2636774Y475475D01*
X2638237Y475766D01*
X2639478Y476594D01*
X2640306Y477835D01*
X2640598Y479298D01*
X2640306Y480761D01*
X2639478Y482002D01*
X2638237Y482830D01*
X2636774Y483121D01*
D02*
G37*
G36*
X2673858Y451371D02*
X2672395Y451080D01*
X2671154Y450252D01*
X2670326Y449011D01*
X2670034Y447548D01*
X2670326Y446085D01*
X2671154Y444844D01*
X2672395Y444016D01*
X2673858Y443725D01*
X2675321Y444016D01*
X2676562Y444844D01*
X2677390Y446085D01*
X2677681Y447548D01*
X2677390Y449011D01*
X2676562Y450252D01*
X2675321Y451080D01*
X2673858Y451371D01*
D02*
G37*
G36*
X2678176Y469659D02*
X2676713Y469368D01*
X2675472Y468540D01*
X2674644Y467299D01*
X2674353Y465836D01*
X2674644Y464373D01*
X2675472Y463132D01*
X2676713Y462304D01*
X2678176Y462013D01*
X2679639Y462304D01*
X2680880Y463132D01*
X2681708Y464373D01*
X2682000Y465836D01*
X2681708Y467299D01*
X2680880Y468540D01*
X2679639Y469368D01*
X2678176Y469659D01*
D02*
G37*
G36*
X2563809Y424514D02*
X2562346Y424223D01*
X2561105Y423395D01*
X2560276Y422154D01*
X2559986Y420691D01*
X2560276Y419228D01*
X2561105Y417987D01*
X2562346Y417159D01*
X2563809Y416868D01*
X2565272Y417159D01*
X2566512Y417987D01*
X2567341Y419228D01*
X2567632Y420691D01*
X2567341Y422154D01*
X2566512Y423395D01*
X2565272Y424223D01*
X2563809Y424514D01*
D02*
G37*
G36*
X2515870Y429527D02*
X2514407Y429236D01*
X2513166Y428408D01*
X2512338Y427167D01*
X2512047Y425704D01*
X2512338Y424241D01*
X2513166Y423000D01*
X2514407Y422172D01*
X2515870Y421881D01*
X2517333Y422172D01*
X2518574Y423000D01*
X2519402Y424241D01*
X2519693Y425704D01*
X2519402Y427167D01*
X2518574Y428408D01*
X2517333Y429236D01*
X2515870Y429527D01*
D02*
G37*
G36*
X2593594Y471691D02*
X2592131Y471400D01*
X2590891Y470572D01*
X2590062Y469331D01*
X2589771Y467868D01*
X2590062Y466405D01*
X2590891Y465164D01*
X2592131Y464336D01*
X2593594Y464045D01*
X2595057Y464336D01*
X2596298Y465164D01*
X2597126Y466405D01*
X2597417Y467868D01*
X2597126Y469331D01*
X2596298Y470572D01*
X2595057Y471400D01*
X2593594Y471691D01*
D02*
G37*
G36*
X2651506Y482613D02*
X2650043Y482322D01*
X2648802Y481494D01*
X2647974Y480253D01*
X2647682Y478790D01*
X2647974Y477327D01*
X2648802Y476086D01*
X2650043Y475258D01*
X2651506Y474967D01*
X2652969Y475258D01*
X2654210Y476086D01*
X2655038Y477327D01*
X2655329Y478790D01*
X2655038Y480253D01*
X2654210Y481494D01*
X2652969Y482322D01*
X2651506Y482613D01*
D02*
G37*
G36*
X2617724Y483121D02*
X2616261Y482830D01*
X2615020Y482002D01*
X2614192Y480761D01*
X2613900Y479298D01*
X2614192Y477835D01*
X2615020Y476594D01*
X2616261Y475766D01*
X2617724Y475475D01*
X2619187Y475766D01*
X2620428Y476594D01*
X2621256Y477835D01*
X2621548Y479298D01*
X2621256Y480761D01*
X2620428Y482002D01*
X2619187Y482830D01*
X2617724Y483121D01*
D02*
G37*
G36*
X2503932Y471945D02*
X2502469Y471654D01*
X2501228Y470826D01*
X2500400Y469585D01*
X2500109Y468122D01*
X2500400Y466659D01*
X2501228Y465418D01*
X2502469Y464590D01*
X2503932Y464299D01*
X2505395Y464590D01*
X2506636Y465418D01*
X2507464Y466659D01*
X2507755Y468122D01*
X2507464Y469585D01*
X2506636Y470826D01*
X2505395Y471654D01*
X2503932Y471945D01*
D02*
G37*
G36*
X2664045Y473816D02*
X2662582Y473525D01*
X2661341Y472697D01*
X2660513Y471456D01*
X2660222Y469993D01*
X2660513Y468530D01*
X2661341Y467289D01*
X2662582Y466461D01*
X2664045Y466170D01*
X2665508Y466461D01*
X2666749Y467289D01*
X2667578Y468530D01*
X2667868Y469993D01*
X2667578Y471456D01*
X2666749Y472697D01*
X2665508Y473525D01*
X2664045Y473816D01*
D02*
G37*
G36*
X2482850Y603771D02*
X2481387Y603480D01*
X2480146Y602652D01*
X2479318Y601411D01*
X2479027Y599948D01*
X2479318Y598485D01*
X2480146Y597244D01*
X2481387Y596416D01*
X2482850Y596125D01*
X2484313Y596416D01*
X2485554Y597244D01*
X2486382Y598485D01*
X2486673Y599948D01*
X2486382Y601411D01*
X2485554Y602652D01*
X2484313Y603480D01*
X2482850Y603771D01*
D02*
G37*
G36*
X2557780Y711467D02*
X2556317Y711176D01*
X2555076Y710348D01*
X2554901Y710085D01*
X2553631D01*
X2553626Y710094D01*
X2552385Y710922D01*
X2550922Y711213D01*
X2549459Y710922D01*
X2548218Y710094D01*
X2547390Y708853D01*
X2547099Y707390D01*
X2547390Y705927D01*
X2548218Y704686D01*
X2549459Y703858D01*
X2550922Y703567D01*
X2552385Y703858D01*
X2553626Y704686D01*
X2553801Y704949D01*
X2555071D01*
X2555076Y704940D01*
X2556317Y704112D01*
X2557780Y703821D01*
X2559243Y704112D01*
X2560484Y704940D01*
X2561312Y706181D01*
X2561603Y707644D01*
X2561312Y709107D01*
X2560484Y710348D01*
X2559243Y711176D01*
X2557780Y711467D01*
D02*
G37*
G36*
X2532888Y801383D02*
X2531425Y801092D01*
X2530184Y800264D01*
X2529356Y799023D01*
X2529065Y797560D01*
X2529356Y796097D01*
X2530184Y794856D01*
X2531425Y794028D01*
X2532888Y793737D01*
X2534351Y794028D01*
X2535592Y794856D01*
X2536420Y796097D01*
X2536711Y797560D01*
X2536420Y799023D01*
X2535592Y800264D01*
X2534351Y801092D01*
X2532888Y801383D01*
D02*
G37*
G36*
X2610612Y710197D02*
X2609149Y709906D01*
X2607908Y709078D01*
X2607079Y707837D01*
X2606789Y706374D01*
X2607079Y704911D01*
X2607908Y703670D01*
X2609149Y702842D01*
X2610612Y702551D01*
X2612075Y702842D01*
X2613316Y703670D01*
X2614144Y704911D01*
X2614435Y706374D01*
X2614144Y707837D01*
X2613316Y709078D01*
X2612075Y709906D01*
X2610612Y710197D01*
D02*
G37*
G36*
X2585974Y831894D02*
X2583925Y831624D01*
X2582015Y830833D01*
X2580375Y829575D01*
X2579117Y827935D01*
X2578326Y826025D01*
X2578056Y823976D01*
X2578326Y821927D01*
X2579117Y820017D01*
X2579352Y819711D01*
Y811035D01*
X2579740Y809084D01*
X2580845Y807430D01*
X2604212Y784063D01*
X2603805Y782674D01*
X2602801Y782003D01*
X2601972Y780763D01*
X2601681Y779300D01*
X2601972Y777837D01*
X2602801Y776596D01*
X2603185Y776339D01*
Y764202D01*
X2603351Y763369D01*
X2603823Y762663D01*
X2604371Y762114D01*
Y756161D01*
X2603101Y755440D01*
X2601976Y755663D01*
X2600513Y755372D01*
X2599272Y754544D01*
X2599001Y754583D01*
X2598389Y755954D01*
X2598396Y755965D01*
X2598687Y757428D01*
X2598396Y758891D01*
X2597568Y760132D01*
X2596327Y760960D01*
X2594864Y761251D01*
X2593401Y760960D01*
X2592160Y760132D01*
X2591808Y759605D01*
X2526284D01*
X2525451Y759439D01*
X2524745Y758967D01*
X2511665Y745888D01*
X2511044Y746011D01*
X2509581Y745720D01*
X2508340Y744892D01*
X2507512Y743651D01*
X2507221Y742188D01*
X2507512Y740725D01*
X2508340Y739484D01*
X2509581Y738656D01*
X2511044Y738365D01*
X2512507Y738656D01*
X2513748Y739484D01*
X2514576Y740725D01*
X2514867Y742188D01*
X2514744Y742809D01*
X2527186Y755251D01*
X2590681D01*
X2590834Y755033D01*
X2590174Y753763D01*
X2545080D01*
X2544247Y753597D01*
X2543541Y753125D01*
X2537065Y746650D01*
X2536444Y746773D01*
X2534981Y746482D01*
X2533740Y745654D01*
X2532912Y744413D01*
X2532621Y742950D01*
X2532912Y741487D01*
X2533740Y740246D01*
X2534981Y739418D01*
X2536444Y739127D01*
X2537907Y739418D01*
X2539148Y740246D01*
X2539976Y741487D01*
X2540267Y742950D01*
X2540144Y743571D01*
X2545982Y749409D01*
X2599090D01*
X2599272Y749136D01*
X2600513Y748308D01*
X2601976Y748017D01*
X2603101Y748240D01*
X2604371Y747519D01*
Y738518D01*
X2586492Y720639D01*
X2585369Y721312D01*
X2586149Y723883D01*
X2586476Y727202D01*
X2586149Y730521D01*
X2585181Y733712D01*
X2583609Y736654D01*
X2581494Y739232D01*
X2578915Y741347D01*
X2575974Y742919D01*
X2572783Y743887D01*
X2569464Y744214D01*
X2566145Y743887D01*
X2562953Y742919D01*
X2560012Y741347D01*
X2557434Y739232D01*
X2555318Y736654D01*
X2553746Y733712D01*
X2552778Y730521D01*
X2552451Y727202D01*
X2552778Y723883D01*
X2553746Y720692D01*
X2555318Y717750D01*
X2557434Y715172D01*
X2560012Y713057D01*
X2562953Y711485D01*
X2566145Y710517D01*
X2569464Y710190D01*
X2572783Y710517D01*
X2575354Y711296D01*
X2576027Y710173D01*
X2571737Y705884D01*
X2570462Y705959D01*
X2570201Y706349D01*
X2568961Y707178D01*
X2567498Y707469D01*
X2566035Y707178D01*
X2564794Y706349D01*
X2563965Y705109D01*
X2563674Y703646D01*
X2563965Y702183D01*
X2564794Y700942D01*
X2566035Y700113D01*
X2567498Y699822D01*
X2568961Y700113D01*
X2569235Y700296D01*
X2570378Y699532D01*
X2570321Y699248D01*
Y683028D01*
X2569794Y682676D01*
X2568965Y681435D01*
X2568674Y679972D01*
X2568965Y678509D01*
X2569794Y677269D01*
X2570215Y676988D01*
X2569829Y675718D01*
X2524713D01*
X2518046Y682385D01*
X2518169Y683006D01*
X2517878Y684469D01*
X2517050Y685710D01*
X2515809Y686538D01*
X2514346Y686829D01*
X2512883Y686538D01*
X2511642Y685710D01*
X2510903Y684603D01*
X2510748Y684550D01*
X2510275Y684499D01*
X2509533Y684541D01*
X2508922Y685456D01*
X2507681Y686284D01*
X2506218Y686575D01*
X2504755Y686284D01*
X2503514Y685456D01*
X2502686Y684215D01*
X2502395Y682752D01*
X2502686Y681289D01*
X2503514Y680048D01*
X2504755Y679220D01*
X2506218Y678929D01*
X2506839Y679052D01*
X2516660Y669232D01*
X2517366Y668760D01*
X2518199Y668594D01*
X2612916D01*
X2613442Y667324D01*
X2607932Y661815D01*
X2536960D01*
X2536608Y662342D01*
X2535367Y663170D01*
X2533904Y663461D01*
X2532441Y663170D01*
X2531200Y662342D01*
X2529770Y662384D01*
X2529367Y662653D01*
X2527904Y662944D01*
X2526441Y662653D01*
X2525200Y661824D01*
X2524372Y660584D01*
X2524081Y659121D01*
X2524372Y657658D01*
X2523449Y656752D01*
X2522310Y655992D01*
X2521482Y654751D01*
X2521191Y653288D01*
X2521482Y651825D01*
X2522310Y650584D01*
X2523551Y649756D01*
X2525014Y649465D01*
X2526477Y649756D01*
X2527718Y650584D01*
X2528546Y651825D01*
X2528837Y653288D01*
X2528546Y654751D01*
X2529469Y655656D01*
X2530608Y656417D01*
X2532038Y656375D01*
X2532441Y656106D01*
X2533904Y655815D01*
X2535367Y656106D01*
X2536608Y656934D01*
X2536960Y657461D01*
X2608834D01*
X2609667Y657627D01*
X2610373Y658099D01*
X2617102Y664827D01*
X2630417D01*
X2630768Y664300D01*
X2632009Y663472D01*
X2633472Y663181D01*
X2634935Y663472D01*
X2636176Y664300D01*
X2637004Y665541D01*
X2637296Y667004D01*
X2637004Y668467D01*
X2636176Y669708D01*
X2634935Y670536D01*
X2633472Y670827D01*
X2632009Y670536D01*
X2630768Y669708D01*
X2630417Y669181D01*
X2627835D01*
X2627450Y670451D01*
X2628333Y671041D01*
X2629161Y672281D01*
X2629453Y673744D01*
X2629161Y675207D01*
X2628333Y676448D01*
X2627092Y677277D01*
X2625629Y677568D01*
X2624166Y677277D01*
X2622862Y677933D01*
X2622332Y678725D01*
X2621092Y679553D01*
X2619629Y679844D01*
X2618166Y679553D01*
X2616925Y678725D01*
X2616096Y677484D01*
X2615806Y676021D01*
X2615557Y675718D01*
X2611502D01*
X2610693Y676988D01*
X2610880Y677926D01*
X2610588Y679389D01*
X2609760Y680630D01*
X2608519Y681458D01*
X2607056Y681749D01*
X2605593Y681458D01*
X2604352Y680630D01*
X2603524Y679389D01*
X2603233Y677926D01*
X2603419Y676988D01*
X2602610Y675718D01*
X2587014D01*
X2586628Y676988D01*
X2587408Y677508D01*
X2588236Y678749D01*
X2588528Y680212D01*
X2588236Y681675D01*
X2587408Y682916D01*
X2586167Y683744D01*
X2586119Y683754D01*
Y701809D01*
X2590618Y706308D01*
X2592019Y705913D01*
X2592668Y704940D01*
X2593909Y704112D01*
X2595372Y703821D01*
X2596835Y704112D01*
X2598076Y704940D01*
X2599227Y704377D01*
X2600005Y703858D01*
X2601468Y703567D01*
X2602931Y703858D01*
X2604171Y704686D01*
X2605000Y705927D01*
X2605291Y707390D01*
X2605000Y708853D01*
X2604171Y710094D01*
X2602931Y710922D01*
X2601468Y711213D01*
X2600005Y710922D01*
X2598764Y710094D01*
X2597613Y710657D01*
X2597103Y710997D01*
X2596708Y712398D01*
X2616784Y732474D01*
X2617256Y733181D01*
X2617422Y734014D01*
Y761615D01*
X2618232Y762749D01*
X2619695Y763040D01*
X2620936Y763868D01*
X2621606Y764873D01*
X2622995Y765280D01*
X2653382Y734893D01*
Y703049D01*
X2653770Y701098D01*
X2654875Y699444D01*
X2657550Y696769D01*
Y552854D01*
X2657938Y550903D01*
X2659043Y549249D01*
X2666844Y541448D01*
Y525156D01*
X2667232Y523205D01*
X2668337Y521551D01*
X2668983Y520905D01*
X2670637Y519800D01*
X2672588Y519412D01*
X2674539Y519800D01*
X2676193Y520905D01*
X2677298Y522559D01*
X2677686Y524510D01*
X2677298Y526461D01*
X2677040Y526847D01*
Y543560D01*
X2676652Y545511D01*
X2675547Y547165D01*
X2667746Y554966D01*
Y685485D01*
X2669016Y686320D01*
X2669898Y686145D01*
X2671361Y686436D01*
X2672602Y687264D01*
X2673430Y688505D01*
X2673721Y689968D01*
X2673430Y691431D01*
X2672602Y692672D01*
X2671361Y693500D01*
X2669898Y693791D01*
X2669016Y693616D01*
X2667746Y694451D01*
Y698881D01*
X2667358Y700832D01*
X2666253Y702486D01*
X2665065Y703674D01*
X2665690Y704845D01*
X2665730Y704837D01*
X2667193Y705128D01*
X2668434Y705956D01*
X2669262Y707197D01*
X2669554Y708660D01*
X2669262Y710123D01*
X2668434Y711364D01*
X2667193Y712192D01*
X2665730Y712483D01*
X2664848Y712308D01*
X2663578Y713143D01*
Y737005D01*
X2663190Y738956D01*
X2662085Y740610D01*
X2609847Y792847D01*
X2610266Y794225D01*
X2610551Y794282D01*
X2611792Y795110D01*
X2612621Y796351D01*
X2612911Y797814D01*
X2612621Y799277D01*
X2611792Y800518D01*
X2610551Y801346D01*
X2609088Y801637D01*
X2607625Y801346D01*
X2606384Y800518D01*
X2605556Y799277D01*
X2605499Y798991D01*
X2604121Y798574D01*
X2589548Y813146D01*
Y816960D01*
X2589933Y817119D01*
X2591573Y818377D01*
X2592831Y820017D01*
X2593622Y821927D01*
X2593892Y823976D01*
X2593622Y826025D01*
X2592831Y827935D01*
X2591573Y829575D01*
X2589933Y830833D01*
X2588023Y831624D01*
X2585974Y831894D01*
D02*
G37*
G36*
X2552544Y801481D02*
X2551081Y801190D01*
X2549840Y800362D01*
X2549012Y799121D01*
X2548721Y797658D01*
X2549012Y796195D01*
X2549840Y794954D01*
X2551081Y794126D01*
X2552544Y793835D01*
X2554007Y794126D01*
X2555248Y794954D01*
X2556076Y796195D01*
X2556367Y797658D01*
X2556076Y799121D01*
X2555248Y800362D01*
X2554007Y801190D01*
X2552544Y801481D01*
D02*
G37*
G36*
X2620518Y856786D02*
X2618469Y856516D01*
X2616559Y855725D01*
X2614919Y854467D01*
X2613661Y852827D01*
X2612870Y850917D01*
X2612600Y848868D01*
X2612870Y846819D01*
X2613661Y844909D01*
X2614919Y843269D01*
X2616559Y842011D01*
X2618469Y841220D01*
X2620518Y840950D01*
X2622567Y841220D01*
X2624477Y842011D01*
X2626117Y843269D01*
X2627375Y844909D01*
X2628166Y846819D01*
X2628436Y848868D01*
X2628166Y850917D01*
X2627375Y852827D01*
X2626117Y854467D01*
X2624477Y855725D01*
X2622567Y856516D01*
X2620518Y856786D01*
D02*
G37*
G36*
X2593062Y854432D02*
X2585998D01*
Y847368D01*
X2593062D01*
Y854432D01*
D02*
G37*
G36*
X2646680Y831132D02*
X2644631Y830862D01*
X2642721Y830071D01*
X2641081Y828813D01*
X2639823Y827173D01*
X2639032Y825263D01*
X2638762Y823214D01*
X2639032Y821165D01*
X2639823Y819255D01*
X2641081Y817615D01*
X2642721Y816357D01*
X2644631Y815566D01*
X2646680Y815296D01*
X2648729Y815566D01*
X2650639Y816357D01*
X2652279Y817615D01*
X2653537Y819255D01*
X2654328Y821165D01*
X2654598Y823214D01*
X2654328Y825263D01*
X2653537Y827173D01*
X2652279Y828813D01*
X2650639Y830071D01*
X2648729Y830862D01*
X2646680Y831132D01*
D02*
G37*
G36*
X2493264Y841292D02*
X2491215Y841022D01*
X2489305Y840231D01*
X2487665Y838973D01*
X2486407Y837333D01*
X2485616Y835423D01*
X2485346Y833374D01*
X2485616Y831325D01*
X2486407Y829415D01*
X2487665Y827775D01*
X2489305Y826517D01*
X2491215Y825726D01*
X2493264Y825456D01*
X2495313Y825726D01*
X2497223Y826517D01*
X2498863Y827775D01*
X2499247Y828276D01*
X2562807D01*
X2562861Y828145D01*
X2564119Y826505D01*
X2565759Y825247D01*
X2567669Y824456D01*
X2569718Y824186D01*
X2571767Y824456D01*
X2573677Y825247D01*
X2575317Y826505D01*
X2576575Y828145D01*
X2577366Y830055D01*
X2577636Y832104D01*
X2577366Y834153D01*
X2576575Y836063D01*
X2575317Y837703D01*
X2573677Y838961D01*
X2571767Y839752D01*
X2569718Y840022D01*
X2567669Y839752D01*
X2565759Y838961D01*
X2565122Y838472D01*
X2499247D01*
X2498863Y838973D01*
X2497223Y840231D01*
X2495313Y841022D01*
X2493264Y841292D01*
D02*
G37*
G36*
X2636774Y682511D02*
X2635311Y682220D01*
X2634070Y681392D01*
X2633242Y680151D01*
X2632951Y678688D01*
X2633242Y677225D01*
X2634070Y675984D01*
X2635311Y675156D01*
X2636774Y674865D01*
X2638237Y675156D01*
X2639478Y675984D01*
X2640306Y677225D01*
X2640598Y678688D01*
X2640306Y680151D01*
X2639478Y681392D01*
X2638237Y682220D01*
X2636774Y682511D01*
D02*
G37*
G36*
X2543810Y624599D02*
X2542347Y624308D01*
X2541106Y623480D01*
X2540278Y622239D01*
X2539987Y620776D01*
X2540278Y619313D01*
X2541106Y618072D01*
X2542347Y617244D01*
X2543810Y616953D01*
X2545273Y617244D01*
X2546514Y618072D01*
X2547342Y619313D01*
X2547633Y620776D01*
X2547342Y622239D01*
X2546514Y623480D01*
X2545273Y624308D01*
X2543810Y624599D01*
D02*
G37*
G36*
X2595372Y632473D02*
X2593909Y632182D01*
X2592668Y631354D01*
X2591840Y630113D01*
X2591548Y628650D01*
X2591840Y627187D01*
X2592668Y625946D01*
X2593909Y625118D01*
X2595372Y624827D01*
X2596835Y625118D01*
X2598076Y625946D01*
X2598904Y627187D01*
X2599195Y628650D01*
X2598904Y630113D01*
X2598076Y631354D01*
X2596835Y632182D01*
X2595372Y632473D01*
D02*
G37*
G36*
X2537968Y616471D02*
X2536505Y616180D01*
X2535264Y615352D01*
X2534436Y614111D01*
X2534145Y612648D01*
X2534436Y611185D01*
X2535264Y609944D01*
X2536505Y609116D01*
X2537968Y608825D01*
X2539431Y609116D01*
X2540672Y609944D01*
X2541500Y611185D01*
X2541791Y612648D01*
X2541500Y614111D01*
X2540672Y615352D01*
X2539431Y616180D01*
X2537968Y616471D01*
D02*
G37*
G36*
X2525014Y632981D02*
X2523551Y632690D01*
X2522310Y631862D01*
X2521482Y630621D01*
X2521191Y629158D01*
X2521482Y627695D01*
X2522310Y626454D01*
X2522760Y626154D01*
Y624626D01*
X2522564Y624496D01*
X2521736Y623255D01*
X2521445Y621792D01*
X2521736Y620329D01*
X2522564Y619088D01*
X2523805Y618260D01*
X2525268Y617969D01*
X2525315Y616763D01*
X2525255Y616458D01*
X2525546Y614995D01*
X2526374Y613754D01*
X2527615Y612926D01*
X2529078Y612635D01*
X2530541Y612926D01*
X2531782Y613754D01*
X2532610Y614995D01*
X2532901Y616458D01*
X2532610Y617921D01*
X2531782Y619162D01*
X2530541Y619990D01*
X2529078Y620281D01*
X2529031Y621487D01*
X2529091Y621792D01*
X2528800Y623255D01*
X2527972Y624496D01*
X2527522Y624796D01*
Y626324D01*
X2527718Y626454D01*
X2528546Y627695D01*
X2528837Y629158D01*
X2528546Y630621D01*
X2527718Y631862D01*
X2526477Y632690D01*
X2525014Y632981D01*
D02*
G37*
G36*
X2476246Y634251D02*
X2474783Y633960D01*
X2473542Y633132D01*
X2472714Y631891D01*
X2472423Y630428D01*
X2472714Y628965D01*
X2473542Y627724D01*
X2474783Y626896D01*
X2476246Y626605D01*
X2477709Y626896D01*
X2478950Y627724D01*
X2479778Y628965D01*
X2480069Y630428D01*
X2479778Y631891D01*
X2478950Y633132D01*
X2477709Y633960D01*
X2476246Y634251D01*
D02*
G37*
G36*
X2643886Y662953D02*
X2642423Y662662D01*
X2641182Y661834D01*
X2640354Y660593D01*
X2640063Y659130D01*
X2640269Y658092D01*
X2640173Y657481D01*
X2639450Y656733D01*
X2638613Y656566D01*
X2637372Y655738D01*
X2636544Y654497D01*
X2636253Y653034D01*
X2636544Y651571D01*
X2637372Y650330D01*
X2638613Y649502D01*
X2640076Y649211D01*
X2641539Y649502D01*
X2642780Y650330D01*
X2643608Y651571D01*
X2643900Y653034D01*
X2643693Y654072D01*
X2643788Y654683D01*
X2644512Y655431D01*
X2645349Y655598D01*
X2646479Y656353D01*
X2647278Y655156D01*
X2648519Y654328D01*
X2649982Y654037D01*
X2651445Y654328D01*
X2652686Y655156D01*
X2653514Y656397D01*
X2653806Y657860D01*
X2653514Y659323D01*
X2652686Y660564D01*
X2651445Y661392D01*
X2649982Y661683D01*
X2648519Y661392D01*
X2647389Y660637D01*
X2646590Y661834D01*
X2645349Y662662D01*
X2643886Y662953D01*
D02*
G37*
G36*
X2648966Y670573D02*
X2647503Y670282D01*
X2646263Y669454D01*
X2645434Y668213D01*
X2645143Y666750D01*
X2645434Y665287D01*
X2646263Y664046D01*
X2647503Y663218D01*
X2648966Y662927D01*
X2650429Y663218D01*
X2651670Y664046D01*
X2652498Y665287D01*
X2652789Y666750D01*
X2652498Y668213D01*
X2651670Y669454D01*
X2650429Y670282D01*
X2648966Y670573D01*
D02*
G37*
G36*
X2535174Y644157D02*
X2533711Y643866D01*
X2532470Y643038D01*
X2531642Y641797D01*
X2531351Y640334D01*
X2531642Y638871D01*
X2532470Y637630D01*
X2533711Y636802D01*
X2535174Y636511D01*
X2536637Y636802D01*
X2537878Y637630D01*
X2538706Y638871D01*
X2538997Y640334D01*
X2538706Y641797D01*
X2537878Y643038D01*
X2536637Y643866D01*
X2535174Y644157D01*
D02*
G37*
G36*
X2543810Y651269D02*
X2542347Y650978D01*
X2541106Y650150D01*
X2540278Y648909D01*
X2539987Y647446D01*
X2540278Y645983D01*
X2541106Y644742D01*
X2542347Y643914D01*
X2543810Y643623D01*
X2545273Y643914D01*
X2546514Y644742D01*
X2547342Y645983D01*
X2547633Y647446D01*
X2547342Y648909D01*
X2546514Y650150D01*
X2545273Y650978D01*
X2543810Y651269D01*
D02*
G37*
%LPD*%
D23*
X2616937Y407586D02*
X2617529Y408178D01*
X2611740Y407586D02*
X2616937D01*
X2609962Y405808D02*
X2611740Y407586D01*
X2561927Y405808D02*
X2609962D01*
X2617529Y408178D02*
X2619248D01*
X2625344Y402082D01*
X2558201D02*
X2561927Y405808D01*
X2557272Y402082D02*
X2558201D01*
X2521966Y401574D02*
X2549595D01*
X2521966Y401574D02*
X2521966Y401574D01*
X2549595D02*
X2549595Y401574D01*
X2556764D01*
X2557272Y402082D01*
D25*
X2496058Y626872D02*
X2512568Y610362D01*
Y545846D02*
Y610362D01*
Y545846D02*
X2516632Y541782D01*
X2491038Y668334D02*
X2500376Y677672D01*
X2482088Y610108D02*
X2491038Y619058D01*
Y668334D01*
X2516632Y489458D02*
Y541782D01*
X2512822Y485648D02*
X2516632Y489458D01*
X2512822Y474472D02*
Y485648D01*
X2517902Y483716D02*
X2520696Y486510D01*
X2517902Y481076D02*
Y483716D01*
X2524252Y484353D02*
X2524736Y484837D01*
X2524252Y474472D02*
Y484353D01*
X2520696Y486510D02*
Y548286D01*
X2524736Y484837D02*
Y561364D01*
X2512822Y474472D02*
X2513330Y473964D01*
X2524252Y561848D02*
X2524736Y561364D01*
X2518564Y550418D02*
X2520696Y548286D01*
X2529332Y477774D02*
Y566928D01*
X2526030Y472694D02*
X2562606D01*
X2534388Y485140D02*
Y571984D01*
Y485140D02*
X2536166Y483362D01*
Y481100D02*
Y483362D01*
Y481100D02*
X2536698Y480568D01*
X2524252Y474472D02*
X2526030Y472694D01*
X2565146Y391661D02*
X2618987D01*
X2545849D02*
X2565146D01*
Y396494D02*
X2565654Y397002D01*
X2565146Y391661D02*
Y396494D01*
X2618987Y391661D02*
X2619502Y392176D01*
X2545334D02*
X2545849Y391661D01*
D26*
X2568515Y441639D02*
X2619032D01*
X2568194Y441960D02*
X2568515Y441639D01*
X2619353Y441960D02*
X2620130D01*
X2619032Y441639D02*
X2619353Y441960D01*
X2617216Y446024D02*
Y446278D01*
X2616200Y447294D02*
X2617216Y446278D01*
X2691880Y780300D02*
X2693670Y778510D01*
X2499106Y596392D02*
X2499360Y596646D01*
X2658110Y770636D02*
Y862962D01*
X2710942Y775716D02*
X2711182Y775956D01*
Y838910D01*
X2691880Y780300D02*
Y853732D01*
X2671318Y766318D02*
Y864469D01*
X2671517Y864668D01*
X2648549Y872523D02*
X2658110Y862962D01*
X2578354Y679958D02*
Y701040D01*
X2583942Y679450D02*
Y702711D01*
X2605362Y764202D02*
X2606548Y763016D01*
Y737616D02*
Y763016D01*
X2605362Y779157D02*
X2605504Y779300D01*
X2572578Y703646D02*
X2606548Y737616D01*
X2605362Y764202D02*
Y779157D01*
X2567498Y703646D02*
X2572578D01*
X2609601Y774912D02*
X2609747Y775057D01*
X2609601Y736351D02*
Y774912D01*
X2572498Y699248D02*
X2609601Y736351D01*
X2572498Y679972D02*
Y699248D01*
X2612475Y769300D02*
X2613989Y770815D01*
X2612475Y735161D02*
Y769300D01*
X2578354Y701040D02*
X2612475Y735161D01*
X2578354Y679958D02*
X2578608Y680212D01*
X2615245Y763585D02*
X2618232Y766572D01*
X2615245Y734014D02*
Y763585D01*
X2583942Y702711D02*
X2615245Y734014D01*
X2583942Y679450D02*
X2584704Y680212D01*
X2506218Y682752D02*
X2518199Y670771D01*
X2622656D01*
X2514346Y683006D02*
X2523811Y673541D01*
X2617149D01*
X2619629Y676021D01*
X2622656Y670771D02*
X2625629Y673744D01*
X2616200Y667004D02*
X2633472D01*
X2608834Y659638D02*
X2616200Y667004D01*
X2621788Y554482D02*
Y554736D01*
X2615251Y561273D02*
X2621788Y554736D01*
X2615251Y561273D02*
Y636203D01*
X2610866Y640588D02*
X2615251Y636203D01*
X2533904Y659638D02*
X2608834D01*
X2487494Y478413D02*
Y551320D01*
X2499106Y562932D01*
Y575564D01*
X2498852Y581660D02*
X2501591D01*
X2503623Y579628D01*
X2490264Y477266D02*
Y550173D01*
X2503623Y563532D01*
Y579628D01*
X2493034Y475488D02*
Y549025D01*
X2506393Y562384D01*
Y585696D01*
X2501793Y590296D02*
X2506393Y585696D01*
X2496312Y590296D02*
X2501793D01*
X2495804Y472948D02*
Y547878D01*
X2509163Y561237D01*
Y586843D01*
X2499360Y596646D02*
X2509163Y586843D01*
X2510924Y367792D02*
X2512314D01*
X2506793Y363661D02*
X2510924Y367792D01*
X2502425Y368046D02*
X2504948D01*
X2500434Y370037D02*
X2502425Y368046D01*
X2502893Y363661D02*
X2506793D01*
X2499287Y367267D02*
X2502893Y363661D01*
X2502729Y375577D02*
X2503105Y375201D01*
X2501582Y372807D02*
X2501958Y372431D01*
X2516311D02*
X2520696Y368046D01*
X2542243Y375201D02*
X2546096Y371348D01*
X2501958Y372431D02*
X2516311D01*
X2503105Y375201D02*
X2542243D01*
X2520696Y357632D02*
Y368046D01*
X2546096Y357632D02*
Y371348D01*
X2484332Y367267D02*
X2499287D01*
X2485479Y370037D02*
X2500434D01*
X2487257Y372807D02*
X2501582D01*
X2489797Y375577D02*
X2502729D01*
X2482215Y383159D02*
X2489797Y375577D01*
X2473905Y377694D02*
X2484332Y367267D01*
X2473905Y377694D02*
Y464824D01*
X2476675Y378841D02*
X2485479Y370037D01*
X2476675Y378841D02*
Y463677D01*
X2479445Y380619D02*
X2487257Y372807D01*
X2479445Y380619D02*
Y461899D01*
X2482215Y383159D02*
Y459359D01*
X2473905Y464824D02*
X2487494Y478413D01*
X2476675Y463677D02*
X2490264Y477266D01*
X2479445Y461899D02*
X2493034Y475488D01*
X2482215Y459359D02*
X2495804Y472948D01*
X2589530Y479298D02*
X2590800D01*
X2595372Y483870D01*
Y525526D01*
X2511044Y742188D02*
X2526284Y757428D01*
X2594864D01*
X2545080Y751586D02*
X2601722D01*
X2601976Y751840D01*
X2568194Y447294D02*
Y467106D01*
X2562606Y472694D02*
X2568194Y467106D01*
X2573274Y402064D02*
X2613642D01*
X2613914Y402336D01*
X2563323Y402064D02*
X2573274D01*
X2572512Y399034D02*
X2573274Y399796D01*
Y402064D01*
X2567245Y446345D02*
X2568194Y447294D01*
X2566378Y446345D02*
X2567245D01*
X2563809Y443776D02*
X2566378Y446345D01*
X2563809Y440144D02*
Y443776D01*
Y440144D02*
X2563862Y440091D01*
X2558796D02*
X2563862D01*
X2558796D02*
Y441706D01*
X2566349Y437321D02*
X2568194Y439166D01*
X2548703Y437321D02*
X2566349D01*
X2548636Y437388D02*
X2548703Y437321D01*
X2568194Y439166D02*
Y441960D01*
X2558072Y396681D02*
X2561657Y400266D01*
Y400397D02*
X2563323Y402064D01*
X2561657Y400266D02*
Y400397D01*
X2540321Y396681D02*
X2558072D01*
X2568194Y447294D02*
X2616200D01*
X2620130Y441960D02*
X2620959Y441131D01*
X2540321Y396324D02*
Y396681D01*
X2536444Y742950D02*
X2545080Y751586D01*
D27*
X2693416Y443738D02*
Y534416D01*
X2687574Y540258D02*
X2693416Y534416D01*
X2687574Y540258D02*
Y559821D01*
X2693416Y565662D01*
Y719836D01*
X2648204Y765048D02*
X2693416Y719836D01*
X2616708Y822452D02*
X2648204Y790956D01*
Y765048D02*
Y790956D01*
X2663190Y413512D02*
X2663444Y413258D01*
X2663190Y413512D02*
X2693416Y443738D01*
X2671942Y525156D02*
Y543560D01*
X2662648Y552854D02*
Y698881D01*
Y552854D02*
X2671942Y543560D01*
X2658480Y703049D02*
Y737005D01*
X2584450Y811035D02*
X2658480Y737005D01*
Y703049D02*
X2662648Y698881D01*
X2671942Y525156D02*
X2672588Y524510D01*
X2584450Y811035D02*
Y825500D01*
X2585974Y823976D01*
X2493264Y833374D02*
X2568448D01*
X2569718Y832104D01*
D33*
X2546096Y357632D02*
D03*
X2520696D02*
D03*
X2648549Y872523D02*
D03*
X2671517Y864668D02*
D03*
X2691880Y853732D02*
D03*
X2711182Y838910D02*
D03*
D38*
X2617216Y446024D02*
D03*
X2693670Y778510D02*
D03*
X2499106Y596392D02*
D03*
X2658110Y770636D02*
D03*
X2710942Y775716D02*
D03*
X2671318Y766318D02*
D03*
X2567498Y703646D02*
D03*
X2572498Y679972D02*
D03*
X2578608Y680212D02*
D03*
X2584704D02*
D03*
X2672588Y524510D02*
D03*
X2544572Y486918D02*
D03*
X2506218Y682752D02*
D03*
X2514346Y683006D02*
D03*
X2625629Y673744D02*
D03*
X2619629Y676021D02*
D03*
X2633472Y667004D02*
D03*
X2621788Y554482D02*
D03*
X2610866Y640588D02*
D03*
X2533904Y659638D02*
D03*
X2499106Y575564D02*
D03*
X2498852Y581660D02*
D03*
X2496312Y590296D02*
D03*
X2482088Y610108D02*
D03*
X2518918Y790956D02*
D03*
X2630424Y793242D02*
D03*
X2512314Y367792D02*
D03*
X2504948Y368046D02*
D03*
X2589530Y479298D02*
D03*
X2595372Y525526D02*
D03*
X2605504Y779300D02*
D03*
X2609747Y775057D02*
D03*
X2613989Y770815D02*
D03*
X2618232Y766572D02*
D03*
X2594864Y757428D02*
D03*
X2601976Y751840D02*
D03*
X2496058Y626872D02*
D03*
X2508250Y537718D02*
D03*
X2513330Y473964D02*
D03*
X2536698Y480568D02*
D03*
X2517902Y481076D02*
D03*
X2529332Y477774D02*
D03*
X2518564Y550418D02*
D03*
X2524252Y561848D02*
D03*
X2529332Y566928D02*
D03*
X2534388Y571984D02*
D03*
X2613914Y402336D02*
D03*
X2565654Y397002D02*
D03*
X2572512Y399034D02*
D03*
X2558796Y441706D02*
D03*
X2548636Y437388D02*
D03*
X2545334Y392176D02*
D03*
X2612136Y430784D02*
D03*
X2619502Y392176D02*
D03*
X2568194Y441960D02*
D03*
X2620959Y441131D02*
D03*
X2625344Y402082D02*
D03*
X2540321Y396324D02*
D03*
X2557272Y402082D02*
D03*
X2521966Y401574D02*
D03*
X2500376Y677672D02*
D03*
X2650236Y645160D02*
D03*
X2651760Y651764D02*
D03*
X2651252Y627126D02*
D03*
X2651506Y586740D02*
D03*
X2637536Y529844D02*
D03*
X2500376Y544068D02*
D03*
X2562352Y529844D02*
D03*
X2652522Y698754D02*
D03*
X2536444Y742950D02*
D03*
X2511044Y742188D02*
D03*
D39*
X2663444Y413258D02*
D03*
X2585974Y823976D02*
D03*
X2493264Y833374D02*
D03*
X2569718Y832104D02*
D03*
X2616708Y822452D02*
D03*
M02*
