G04 Layer_Physical_Order=3*
G04 Layer_Color=6736896*
%FSLAX44Y44*%
%MOMM*%
G71*
G01*
G75*
%ADD23C,0.2540*%
%ADD24C,0.1270*%
%ADD29C,1.5000*%
%ADD30O,1.5240X6.0000*%
%ADD35R,0.4064X0.4064*%
%ADD36R,0.4064X0.4064*%
%ADD38C,0.4500*%
G36*
X2521778Y876927D02*
Y873800D01*
X2522088Y872239D01*
X2522972Y870916D01*
X2524295Y870032D01*
X2525856Y869722D01*
X2535856D01*
X2537417Y870032D01*
X2538740Y870916D01*
X2539624Y872239D01*
X2539934Y873800D01*
Y876927D01*
X2547178Y876927D01*
Y873800D01*
X2547488Y872239D01*
X2548372Y870916D01*
X2549695Y870032D01*
X2551256Y869722D01*
X2561256D01*
X2562817Y870032D01*
X2564140Y870916D01*
X2565024Y872239D01*
X2565334Y873800D01*
Y876006D01*
X2566236Y876901D01*
X2572094Y876857D01*
X2572578Y876300D01*
X2572888Y873951D01*
X2573795Y871761D01*
X2575237Y869881D01*
X2577117Y868438D01*
X2579307Y867532D01*
X2581656Y867222D01*
X2584005Y867532D01*
X2586195Y868438D01*
X2588075Y869881D01*
X2589518Y871761D01*
X2590424Y873951D01*
X2590734Y876300D01*
X2591100Y876714D01*
X2615540Y876530D01*
Y867462D01*
X2633540D01*
Y874411D01*
X2634490Y875253D01*
X2636631Y874993D01*
X2639713Y874354D01*
X2639472Y872523D01*
X2639781Y870173D01*
X2640688Y867984D01*
X2642130Y866104D01*
X2644010Y864661D01*
X2646200Y863754D01*
X2648549Y863445D01*
X2650899Y863754D01*
X2653088Y864661D01*
X2654968Y866104D01*
X2656411Y867984D01*
X2657227Y869954D01*
X2660205Y869073D01*
X2662282Y868264D01*
X2662781Y867096D01*
X2662749Y867018D01*
X2662439Y864668D01*
X2662749Y862319D01*
X2663655Y860129D01*
X2665098Y858249D01*
X2666978Y856807D01*
X2669167Y855900D01*
X2671517Y855591D01*
X2673866Y855900D01*
X2676056Y856807D01*
X2677936Y858249D01*
X2679378Y860129D01*
X2680178Y860432D01*
X2682411Y859339D01*
X2683994Y858402D01*
X2684019Y858271D01*
X2683112Y856082D01*
X2682803Y853732D01*
X2683112Y851383D01*
X2684019Y849194D01*
X2685462Y847314D01*
X2687342Y845871D01*
X2689531Y844964D01*
X2691880Y844655D01*
X2694230Y844964D01*
X2696419Y845871D01*
X2698299Y847314D01*
X2699245Y848546D01*
X2701870Y846697D01*
X2704272Y844688D01*
X2703321Y843449D01*
X2702414Y841260D01*
X2702105Y838910D01*
X2702414Y836561D01*
X2703321Y834371D01*
X2704763Y832491D01*
X2706644Y831049D01*
X2708833Y830142D01*
X2711182Y829832D01*
X2713532Y830142D01*
X2715721Y831049D01*
X2717601Y832491D01*
X2717717Y832499D01*
X2718977Y831262D01*
X2720046Y830043D01*
X2719967Y829247D01*
X2718562Y827415D01*
X2717678Y825282D01*
X2717544Y824262D01*
X2726222D01*
Y821722D01*
X2717544D01*
X2717678Y820703D01*
X2718562Y818569D01*
X2719967Y816737D01*
X2721799Y815332D01*
X2723933Y814448D01*
X2726222Y814147D01*
Y802683D01*
X2724369Y802439D01*
X2722207Y801543D01*
X2720350Y800118D01*
X2718925Y798261D01*
X2718029Y796099D01*
X2717723Y793778D01*
Y772668D01*
X2726690D01*
Y770128D01*
X2717723D01*
Y749018D01*
X2718029Y746697D01*
X2718925Y744535D01*
X2720350Y742678D01*
X2722207Y741253D01*
X2724369Y740357D01*
X2726222Y740113D01*
Y732880D01*
X2726182Y732845D01*
X2723801Y732531D01*
X2721583Y731612D01*
X2719677Y730151D01*
X2718216Y728245D01*
X2717297Y726027D01*
X2716983Y723646D01*
X2717297Y721265D01*
X2718216Y719047D01*
X2719677Y717141D01*
X2721583Y715680D01*
X2723801Y714761D01*
X2726182Y714447D01*
X2726222Y714412D01*
Y706464D01*
X2726182Y706429D01*
X2723801Y706115D01*
X2721583Y705196D01*
X2719677Y703735D01*
X2718216Y701829D01*
X2717297Y699611D01*
X2716983Y697230D01*
X2717297Y694849D01*
X2718216Y692631D01*
X2719677Y690725D01*
X2721583Y689264D01*
X2723801Y688345D01*
X2726182Y688031D01*
X2726222Y687996D01*
Y679032D01*
X2726182Y678997D01*
X2723801Y678683D01*
X2721583Y677764D01*
X2719677Y676302D01*
X2718216Y674397D01*
X2717297Y672179D01*
X2716983Y669798D01*
X2717297Y667417D01*
X2718216Y665199D01*
X2719677Y663294D01*
X2721583Y661832D01*
X2723801Y660913D01*
X2726182Y660599D01*
X2726222Y660564D01*
Y604356D01*
X2726182Y604321D01*
X2723801Y604007D01*
X2721583Y603088D01*
X2719677Y601627D01*
X2718216Y599721D01*
X2717297Y597503D01*
X2716983Y595122D01*
X2717297Y592741D01*
X2718216Y590523D01*
X2719677Y588618D01*
X2721583Y587156D01*
X2723801Y586237D01*
X2726182Y585923D01*
X2726222Y585888D01*
Y579139D01*
X2726182Y579104D01*
X2723801Y578790D01*
X2721583Y577871D01*
X2719677Y576409D01*
X2718216Y574504D01*
X2717297Y572286D01*
X2716983Y569905D01*
X2717297Y567524D01*
X2718216Y565306D01*
X2719677Y563400D01*
X2721583Y561939D01*
X2723801Y561020D01*
X2726182Y560706D01*
X2726222Y560671D01*
Y556229D01*
X2726182Y556194D01*
X2723832Y555884D01*
X2721643Y554977D01*
X2719763Y553535D01*
X2718321Y551655D01*
X2717414Y549465D01*
X2717104Y547116D01*
X2717414Y544767D01*
X2718321Y542577D01*
X2719763Y540697D01*
X2721643Y539254D01*
X2723832Y538348D01*
X2726182Y538038D01*
X2726222Y538003D01*
Y533592D01*
X2725928Y533334D01*
X2723578Y533024D01*
X2721389Y532118D01*
X2719509Y530675D01*
X2718066Y528795D01*
X2717160Y526605D01*
X2716850Y524256D01*
X2717160Y521907D01*
X2718066Y519717D01*
X2719509Y517837D01*
X2721389Y516395D01*
X2723578Y515488D01*
X2725928Y515178D01*
X2726222Y514920D01*
Y508922D01*
X2724087Y508640D01*
X2721897Y507733D01*
X2720017Y506291D01*
X2718575Y504411D01*
X2717668Y502221D01*
X2717358Y499872D01*
X2717668Y497523D01*
X2718575Y495333D01*
X2720017Y493453D01*
X2721897Y492010D01*
X2724087Y491104D01*
X2726222Y490822D01*
Y483077D01*
X2726182Y483042D01*
X2723832Y482732D01*
X2721643Y481825D01*
X2719763Y480383D01*
X2718321Y478503D01*
X2717414Y476314D01*
X2717104Y473964D01*
X2717414Y471614D01*
X2718321Y469425D01*
X2719763Y467545D01*
X2721643Y466102D01*
X2723832Y465196D01*
X2726182Y464886D01*
X2726222Y464851D01*
Y458376D01*
X2724087Y458094D01*
X2721897Y457188D01*
X2720017Y455745D01*
X2718575Y453865D01*
X2717668Y451675D01*
X2717358Y449326D01*
X2717668Y446977D01*
X2718575Y444787D01*
X2720017Y442907D01*
X2721897Y441465D01*
X2724087Y440558D01*
X2726222Y440276D01*
Y435071D01*
X2726182Y435036D01*
X2723832Y434726D01*
X2721643Y433820D01*
X2719763Y432377D01*
X2718321Y430497D01*
X2717414Y428307D01*
X2717104Y425958D01*
X2717414Y423609D01*
X2718321Y421419D01*
X2719763Y419539D01*
X2721643Y418097D01*
X2723832Y417190D01*
X2726182Y416880D01*
X2726222Y416845D01*
Y410992D01*
X2725694Y410464D01*
X2722411Y406568D01*
X2721323Y407403D01*
X2719134Y408310D01*
X2716784Y408620D01*
X2714435Y408310D01*
X2712245Y407403D01*
X2710365Y405961D01*
X2708922Y404081D01*
X2708016Y401892D01*
X2707706Y399542D01*
X2708016Y397192D01*
X2708922Y395003D01*
X2709777Y393890D01*
X2704538Y389333D01*
X2702232Y387627D01*
X2701613Y388435D01*
X2699733Y389878D01*
X2697544Y390784D01*
X2695194Y391094D01*
X2692845Y390784D01*
X2690655Y389878D01*
X2688775Y388435D01*
X2687332Y386555D01*
X2686426Y384366D01*
X2686116Y382016D01*
X2686426Y379666D01*
X2687324Y377497D01*
X2684397Y375688D01*
X2678641Y372731D01*
X2677656Y373093D01*
X2676213Y374973D01*
X2674333Y376415D01*
X2672144Y377322D01*
X2669794Y377632D01*
X2667444Y377322D01*
X2665255Y376415D01*
X2663375Y374973D01*
X2661932Y373093D01*
X2661026Y370904D01*
X2660716Y368554D01*
X2661026Y366204D01*
X2661028Y366199D01*
X2660497Y365046D01*
X2655526Y363422D01*
X2654940Y363792D01*
X2654034Y365981D01*
X2652591Y367861D01*
X2650711Y369304D01*
X2648521Y370210D01*
X2646172Y370520D01*
X2643823Y370210D01*
X2641633Y369304D01*
X2639753Y367861D01*
X2638311Y365981D01*
X2637404Y363792D01*
X2637094Y361442D01*
X2637391Y359188D01*
X2632263Y358354D01*
X2631296Y359177D01*
Y366632D01*
X2613296D01*
Y357901D01*
X2605946Y357842D01*
X2605664Y359981D01*
X2604757Y362171D01*
X2603315Y364051D01*
X2601435Y365494D01*
X2599246Y366400D01*
X2596896Y366710D01*
X2594547Y366400D01*
X2592357Y365494D01*
X2590477Y364051D01*
X2589034Y362171D01*
X2588128Y359981D01*
X2587827Y357698D01*
X2580573Y357640D01*
X2580264Y359981D01*
X2579358Y362171D01*
X2577915Y364051D01*
X2576035Y365494D01*
X2573846Y366400D01*
X2571496Y366710D01*
X2569146Y366400D01*
X2566957Y365494D01*
X2565077Y364051D01*
X2563635Y362171D01*
X2562728Y359981D01*
X2562419Y357632D01*
X2562298Y357494D01*
X2555345Y357438D01*
X2555174Y357632D01*
X2554864Y359981D01*
X2553958Y362171D01*
X2552515Y364051D01*
X2550635Y365494D01*
X2548445Y366400D01*
X2546096Y366710D01*
X2543746Y366400D01*
X2541557Y365494D01*
X2539677Y364051D01*
X2538235Y362171D01*
X2537328Y359981D01*
X2537018Y357632D01*
X2536720Y357289D01*
X2530123Y357237D01*
X2529774Y357632D01*
X2529464Y359981D01*
X2528557Y362171D01*
X2527115Y364051D01*
X2525235Y365494D01*
X2523046Y366400D01*
X2520696Y366710D01*
X2518347Y366400D01*
X2516157Y365494D01*
X2514277Y364051D01*
X2512834Y362171D01*
X2511928Y359981D01*
X2511618Y357632D01*
X2511143Y357085D01*
X2504671Y357033D01*
X2504142Y357632D01*
X2503840Y359921D01*
X2502957Y362055D01*
X2501551Y363887D01*
X2499719Y365293D01*
X2497585Y366176D01*
X2496566Y366311D01*
Y357632D01*
X2494026D01*
Y366311D01*
X2493007Y366176D01*
X2490873Y365293D01*
X2489041Y363887D01*
X2487635Y362055D01*
X2486752Y359921D01*
X2486684Y359404D01*
X2485628Y358699D01*
X2484074Y359115D01*
X2478544Y361693D01*
X2473547Y365193D01*
X2469233Y369507D01*
X2465733Y374504D01*
X2464207Y377778D01*
X2464667Y378962D01*
X2465489Y379303D01*
X2467346Y380728D01*
X2468771Y382585D01*
X2469667Y384747D01*
X2469973Y387068D01*
Y408178D01*
X2461006D01*
Y410718D01*
X2469973D01*
Y431828D01*
X2469667Y434149D01*
X2468771Y436311D01*
X2467346Y438168D01*
X2465489Y439593D01*
X2463327Y440489D01*
X2461044Y440790D01*
Y444390D01*
X2469498D01*
Y462390D01*
X2461044D01*
Y469784D01*
X2462847Y470022D01*
X2465037Y470928D01*
X2466917Y472371D01*
X2468360Y474251D01*
X2469266Y476441D01*
X2469576Y478790D01*
X2469266Y481139D01*
X2468360Y483329D01*
X2466917Y485209D01*
X2465037Y486651D01*
X2462847Y487558D01*
X2461044Y487796D01*
Y495184D01*
X2462847Y495422D01*
X2465037Y496329D01*
X2466917Y497771D01*
X2468360Y499651D01*
X2469266Y501841D01*
X2469576Y504190D01*
X2469266Y506539D01*
X2468360Y508729D01*
X2466917Y510609D01*
X2465037Y512052D01*
X2462847Y512958D01*
X2461044Y513196D01*
Y520584D01*
X2462847Y520822D01*
X2465037Y521729D01*
X2466917Y523171D01*
X2468360Y525051D01*
X2469266Y527240D01*
X2469576Y529590D01*
X2469266Y531940D01*
X2468360Y534129D01*
X2466917Y536009D01*
X2465037Y537452D01*
X2462847Y538358D01*
X2461044Y538596D01*
Y545984D01*
X2462847Y546222D01*
X2465037Y547128D01*
X2466917Y548571D01*
X2468360Y550451D01*
X2469266Y552640D01*
X2469576Y554990D01*
X2469266Y557340D01*
X2468360Y559529D01*
X2466917Y561409D01*
X2465037Y562851D01*
X2462847Y563758D01*
X2461044Y563996D01*
Y571616D01*
X2462787Y571846D01*
X2464921Y572729D01*
X2466753Y574135D01*
X2468159Y575967D01*
X2469042Y578101D01*
X2469176Y579120D01*
X2460498D01*
Y581660D01*
X2469176D01*
X2469042Y582679D01*
X2468159Y584813D01*
X2466753Y586645D01*
X2464921Y588051D01*
X2462787Y588934D01*
X2461044Y589164D01*
Y606442D01*
X2469752D01*
Y624442D01*
X2461044D01*
Y631803D01*
X2463102Y632074D01*
X2465291Y632980D01*
X2467171Y634423D01*
X2468613Y636303D01*
X2469520Y638493D01*
X2469830Y640842D01*
X2469520Y643192D01*
X2468613Y645381D01*
X2467171Y647261D01*
X2465291Y648704D01*
X2463102Y649610D01*
X2461044Y649881D01*
Y657203D01*
X2463102Y657474D01*
X2465291Y658381D01*
X2467171Y659823D01*
X2468613Y661703D01*
X2469520Y663893D01*
X2469830Y666242D01*
X2469520Y668592D01*
X2468613Y670781D01*
X2467171Y672661D01*
X2465291Y674103D01*
X2463102Y675010D01*
X2461044Y675281D01*
Y682603D01*
X2463102Y682874D01*
X2465291Y683781D01*
X2467171Y685223D01*
X2468613Y687103D01*
X2469520Y689293D01*
X2469830Y691642D01*
X2469520Y693991D01*
X2468613Y696181D01*
X2467171Y698061D01*
X2465291Y699503D01*
X2463102Y700410D01*
X2461044Y700681D01*
Y708235D01*
X2463041Y708498D01*
X2465175Y709381D01*
X2467007Y710787D01*
X2468413Y712619D01*
X2469296Y714753D01*
X2469431Y715772D01*
X2460752D01*
Y718312D01*
X2469431D01*
X2469296Y719331D01*
X2468413Y721465D01*
X2467007Y723297D01*
X2465175Y724703D01*
X2463041Y725586D01*
X2461044Y725849D01*
Y732077D01*
X2463295Y732374D01*
X2465429Y733257D01*
X2467261Y734663D01*
X2468667Y736495D01*
X2469550Y738629D01*
X2469684Y739648D01*
X2461006D01*
Y742188D01*
X2469684D01*
X2469550Y743207D01*
X2468667Y745341D01*
X2467261Y747173D01*
X2465429Y748579D01*
X2463295Y749462D01*
X2461044Y749759D01*
Y754705D01*
X2463356Y755010D01*
X2465545Y755917D01*
X2467425Y757359D01*
X2468867Y759239D01*
X2469774Y761429D01*
X2470084Y763778D01*
X2469774Y766127D01*
X2468867Y768317D01*
X2467425Y770197D01*
X2465545Y771639D01*
X2463356Y772546D01*
X2461044Y772851D01*
Y777311D01*
X2463356Y777616D01*
X2465545Y778522D01*
X2467425Y779965D01*
X2468867Y781845D01*
X2469774Y784035D01*
X2470084Y786384D01*
X2469774Y788734D01*
X2468867Y790923D01*
X2467425Y792803D01*
X2465545Y794246D01*
X2463356Y795152D01*
X2461044Y795457D01*
Y801729D01*
X2463102Y802000D01*
X2465291Y802906D01*
X2467171Y804349D01*
X2468613Y806229D01*
X2469520Y808419D01*
X2469830Y810768D01*
X2469520Y813118D01*
X2468613Y815307D01*
X2467171Y817187D01*
X2465291Y818630D01*
X2463102Y819536D01*
X2461044Y819807D01*
Y824555D01*
X2463356Y824860D01*
X2465545Y825767D01*
X2467425Y827209D01*
X2468867Y829089D01*
X2469774Y831279D01*
X2470084Y833628D01*
X2469774Y835977D01*
X2468867Y838167D01*
X2467425Y840047D01*
X2465545Y841489D01*
X2463356Y842396D01*
X2461111Y842692D01*
X2461470Y846792D01*
X2462460Y847587D01*
X2463800Y847410D01*
X2466149Y847720D01*
X2468339Y848626D01*
X2470219Y850069D01*
X2471662Y851949D01*
X2472568Y854138D01*
X2472878Y856488D01*
X2472568Y858838D01*
X2471662Y861027D01*
X2470219Y862907D01*
X2469663Y863333D01*
X2469708Y864900D01*
X2472554Y867746D01*
X2473821Y867663D01*
X2474653Y866579D01*
X2476533Y865136D01*
X2478723Y864230D01*
X2481072Y863920D01*
X2483421Y864230D01*
X2485611Y865136D01*
X2487491Y866579D01*
X2488934Y868459D01*
X2489840Y870648D01*
X2490150Y872998D01*
X2489860Y875199D01*
X2489989Y875530D01*
X2490752Y876464D01*
X2495405Y876871D01*
X2496610Y876300D01*
X2496912Y874011D01*
X2497795Y871877D01*
X2499201Y870045D01*
X2501033Y868639D01*
X2503167Y867756D01*
X2504186Y867622D01*
Y876300D01*
X2506726D01*
Y867622D01*
X2507745Y867756D01*
X2509879Y868639D01*
X2511711Y870045D01*
X2513117Y871877D01*
X2514000Y874011D01*
X2514302Y876300D01*
X2514852Y876927D01*
X2521778Y876927D01*
D02*
G37*
%LPC*%
G36*
X2637536Y533667D02*
X2636073Y533376D01*
X2634832Y532548D01*
X2634004Y531307D01*
X2633712Y529844D01*
X2634004Y528381D01*
X2634832Y527140D01*
X2636073Y526312D01*
X2637536Y526021D01*
X2638999Y526312D01*
X2640240Y527140D01*
X2641068Y528381D01*
X2641359Y529844D01*
X2641068Y531307D01*
X2640240Y532548D01*
X2638999Y533376D01*
X2637536Y533667D01*
D02*
G37*
G36*
X2585720Y534175D02*
X2584257Y533884D01*
X2583016Y533056D01*
X2582188Y531815D01*
X2581897Y530352D01*
X2582188Y528889D01*
X2583016Y527648D01*
X2584257Y526820D01*
X2585720Y526529D01*
X2587183Y526820D01*
X2588423Y527648D01*
X2589252Y528889D01*
X2589543Y530352D01*
X2589252Y531815D01*
X2588423Y533056D01*
X2587183Y533884D01*
X2585720Y534175D01*
D02*
G37*
G36*
X2508250Y541541D02*
X2506787Y541250D01*
X2505546Y540422D01*
X2504718Y539181D01*
X2504427Y537718D01*
X2504718Y536255D01*
X2505546Y535014D01*
X2506787Y534186D01*
X2508250Y533895D01*
X2509713Y534186D01*
X2510954Y535014D01*
X2511782Y536255D01*
X2512073Y537718D01*
X2511782Y539181D01*
X2510954Y540422D01*
X2509713Y541250D01*
X2508250Y541541D01*
D02*
G37*
G36*
X2657094Y529137D02*
X2654713Y528823D01*
X2652495Y527904D01*
X2650590Y526442D01*
X2649128Y524537D01*
X2648209Y522319D01*
X2647895Y519938D01*
X2648209Y517557D01*
X2649128Y515339D01*
X2650590Y513433D01*
X2652495Y511972D01*
X2654713Y511053D01*
X2657094Y510739D01*
X2659475Y511053D01*
X2661693Y511972D01*
X2663599Y513433D01*
X2665060Y515339D01*
X2665979Y517557D01*
X2666293Y519938D01*
X2665979Y522319D01*
X2665060Y524537D01*
X2663599Y526442D01*
X2661693Y527904D01*
X2659475Y528823D01*
X2657094Y529137D01*
D02*
G37*
G36*
X2544572Y533667D02*
X2543109Y533376D01*
X2541868Y532548D01*
X2541040Y531307D01*
X2540749Y529844D01*
X2541040Y528381D01*
X2541868Y527140D01*
X2543109Y526312D01*
X2544572Y526021D01*
X2546035Y526312D01*
X2547276Y527140D01*
X2548104Y528381D01*
X2548395Y529844D01*
X2548104Y531307D01*
X2547276Y532548D01*
X2546035Y533376D01*
X2544572Y533667D01*
D02*
G37*
G36*
X2562352D02*
X2560889Y533376D01*
X2559648Y532548D01*
X2558820Y531307D01*
X2558529Y529844D01*
X2558820Y528381D01*
X2559648Y527140D01*
X2560889Y526312D01*
X2562352Y526021D01*
X2563815Y526312D01*
X2565056Y527140D01*
X2565884Y528381D01*
X2566176Y529844D01*
X2565884Y531307D01*
X2565056Y532548D01*
X2563815Y533376D01*
X2562352Y533667D01*
D02*
G37*
G36*
X2679192Y568211D02*
X2677729Y567920D01*
X2676488Y567092D01*
X2675659Y565851D01*
X2675369Y564388D01*
X2675659Y562925D01*
X2676488Y561684D01*
X2677729Y560856D01*
X2679192Y560565D01*
X2680655Y560856D01*
X2681896Y561684D01*
X2682724Y562925D01*
X2683015Y564388D01*
X2682724Y565851D01*
X2681896Y567092D01*
X2680655Y567920D01*
X2679192Y568211D01*
D02*
G37*
G36*
X2640838Y584721D02*
X2639375Y584430D01*
X2638134Y583602D01*
X2637306Y582361D01*
X2637014Y580898D01*
X2637306Y579435D01*
X2638134Y578194D01*
X2639375Y577366D01*
X2640838Y577075D01*
X2642301Y577366D01*
X2642459Y577471D01*
X2643214Y576490D01*
X2642386Y575249D01*
X2642095Y573786D01*
X2642386Y572323D01*
X2643214Y571082D01*
X2644455Y570254D01*
X2645918Y569963D01*
X2647381Y570254D01*
X2648622Y571082D01*
X2649450Y572323D01*
X2649742Y573786D01*
X2649450Y575249D01*
X2648622Y576490D01*
X2647381Y577318D01*
X2645918Y577609D01*
X2644455Y577318D01*
X2644297Y577213D01*
X2643542Y578194D01*
X2644370Y579435D01*
X2644661Y580898D01*
X2644370Y582361D01*
X2643542Y583602D01*
X2642301Y584430D01*
X2640838Y584721D01*
D02*
G37*
G36*
X2651506Y590563D02*
X2650043Y590272D01*
X2648802Y589444D01*
X2647974Y588203D01*
X2647682Y586740D01*
X2647974Y585277D01*
X2648802Y584036D01*
X2650043Y583208D01*
X2651506Y582917D01*
X2652969Y583208D01*
X2654210Y584036D01*
X2655038Y585277D01*
X2655329Y586740D01*
X2655038Y588203D01*
X2654210Y589444D01*
X2652969Y590272D01*
X2651506Y590563D01*
D02*
G37*
G36*
X2500376Y547891D02*
X2498913Y547600D01*
X2497672Y546772D01*
X2496844Y545531D01*
X2496553Y544068D01*
X2496844Y542605D01*
X2497672Y541364D01*
X2498913Y540536D01*
X2500376Y540245D01*
X2501839Y540536D01*
X2503080Y541364D01*
X2503908Y542605D01*
X2504199Y544068D01*
X2503908Y545531D01*
X2503080Y546772D01*
X2501839Y547600D01*
X2500376Y547891D01*
D02*
G37*
G36*
X2652014Y561607D02*
X2650551Y561316D01*
X2649310Y560488D01*
X2648482Y559247D01*
X2648191Y557784D01*
X2648482Y556321D01*
X2649310Y555080D01*
X2650551Y554252D01*
X2652014Y553961D01*
X2653477Y554252D01*
X2654718Y555080D01*
X2655546Y556321D01*
X2655837Y557784D01*
X2655546Y559247D01*
X2654718Y560488D01*
X2653477Y561316D01*
X2652014Y561607D01*
D02*
G37*
G36*
X2633980Y564401D02*
X2632517Y564110D01*
X2631277Y563282D01*
X2630448Y562041D01*
X2630157Y560578D01*
X2630448Y559115D01*
X2631277Y557874D01*
X2632517Y557046D01*
X2633980Y556755D01*
X2635443Y557046D01*
X2636684Y557874D01*
X2637513Y559115D01*
X2637803Y560578D01*
X2637513Y562041D01*
X2636684Y563282D01*
X2635443Y564110D01*
X2633980Y564401D01*
D02*
G37*
G36*
X2674874Y418351D02*
X2673411Y418060D01*
X2672170Y417232D01*
X2672080Y417096D01*
X2670810D01*
X2670720Y417232D01*
X2669479Y418060D01*
X2668016Y418351D01*
X2666553Y418060D01*
X2665312Y417232D01*
X2664484Y415991D01*
X2664193Y414528D01*
X2664484Y413065D01*
X2665312Y411824D01*
X2666553Y410996D01*
X2668016Y410705D01*
X2669479Y410996D01*
X2670720Y411824D01*
X2670810Y411960D01*
X2672080D01*
X2672170Y411824D01*
X2673411Y410996D01*
X2674874Y410705D01*
X2676337Y410996D01*
X2677578Y411824D01*
X2678406Y413065D01*
X2678698Y414528D01*
X2678406Y415991D01*
X2677578Y417232D01*
X2676337Y418060D01*
X2674874Y418351D01*
D02*
G37*
G36*
X2684526Y428765D02*
X2683063Y428474D01*
X2681823Y427646D01*
X2680994Y426405D01*
X2680703Y424942D01*
X2680994Y423479D01*
X2681823Y422238D01*
X2683063Y421410D01*
X2684526Y421119D01*
X2685989Y421410D01*
X2687230Y422238D01*
X2688058Y423479D01*
X2688349Y424942D01*
X2688058Y426405D01*
X2687230Y427646D01*
X2685989Y428474D01*
X2684526Y428765D01*
D02*
G37*
G36*
X2544572Y490741D02*
X2543109Y490450D01*
X2541868Y489622D01*
X2541040Y488381D01*
X2540749Y486918D01*
X2541040Y485455D01*
X2541868Y484214D01*
X2543109Y483386D01*
X2544572Y483095D01*
X2546035Y483386D01*
X2547095Y484094D01*
X2547466D01*
X2562830Y468730D01*
Y462634D01*
X2490724D01*
X2489576Y462158D01*
X2489252Y461835D01*
X2488735Y461930D01*
X2487957Y462335D01*
X2487719Y463527D01*
X2486891Y464768D01*
X2485650Y465597D01*
X2484187Y465888D01*
X2482724Y465597D01*
X2481483Y464768D01*
X2480655Y463527D01*
X2480364Y462064D01*
X2480655Y460601D01*
X2481483Y459361D01*
X2482724Y458532D01*
X2484187Y458241D01*
X2485650Y458532D01*
X2486560Y459140D01*
X2487658Y458721D01*
X2487830Y458578D01*
Y387604D01*
X2488306Y386456D01*
X2489454Y385980D01*
X2499614D01*
X2500762Y386456D01*
X2501270Y386964D01*
X2501746Y388112D01*
Y448972D01*
X2562830D01*
Y399525D01*
X2562122Y398465D01*
X2561831Y397002D01*
X2562122Y395539D01*
X2562950Y394298D01*
X2564191Y393470D01*
X2565654Y393179D01*
X2567117Y393470D01*
X2568358Y394298D01*
X2569186Y395539D01*
X2569478Y397002D01*
X2569186Y398465D01*
X2568478Y399525D01*
Y402902D01*
X2569651Y403388D01*
X2571735Y401305D01*
X2572441Y400833D01*
X2573274Y400667D01*
X2601582D01*
X2604880Y397369D01*
X2604756Y396748D01*
X2605048Y395285D01*
X2605876Y394044D01*
X2607117Y393216D01*
X2608580Y392925D01*
X2610043Y393216D01*
X2611284Y394044D01*
X2612112Y395285D01*
X2612403Y396748D01*
X2612112Y398211D01*
X2611284Y399452D01*
X2610043Y400280D01*
X2608580Y400571D01*
X2607959Y400448D01*
X2604023Y404383D01*
X2603317Y404855D01*
X2602484Y405021D01*
X2574176D01*
X2571236Y407961D01*
Y447887D01*
X2571262Y448018D01*
Y449442D01*
X2572532Y449695D01*
X2572634Y449448D01*
X2573782Y448972D01*
X2630324D01*
Y389128D01*
X2630800Y387980D01*
X2632070Y386710D01*
X2633218Y386234D01*
X2642616D01*
X2643764Y386710D01*
X2644240Y387858D01*
Y459994D01*
X2643764Y461142D01*
X2642748Y462158D01*
X2641600Y462634D01*
X2573782D01*
X2572634Y462158D01*
X2572532Y461912D01*
X2571262Y462164D01*
Y463588D01*
X2571236Y463719D01*
Y473353D01*
X2571070Y474186D01*
X2570598Y474892D01*
X2566694Y478796D01*
X2566900Y479105D01*
X2567191Y480568D01*
X2566900Y482031D01*
X2566071Y483272D01*
X2564831Y484100D01*
X2563368Y484391D01*
X2561905Y484100D01*
X2560664Y483272D01*
X2559836Y482031D01*
X2559749Y481595D01*
X2558371Y481177D01*
X2550633Y488915D01*
X2549717Y489527D01*
X2548636Y489742D01*
X2548636Y489742D01*
X2547095D01*
X2546035Y490450D01*
X2544572Y490741D01*
D02*
G37*
G36*
X2622042Y388720D02*
X2508758D01*
X2507610Y388244D01*
X2507356Y387990D01*
X2506880Y386842D01*
Y377444D01*
X2507356Y376296D01*
X2508504Y375820D01*
X2622042D01*
X2623190Y376296D01*
X2623665Y377444D01*
Y387096D01*
X2623190Y388244D01*
X2622042Y388720D01*
D02*
G37*
G36*
X2663698Y396761D02*
X2662235Y396470D01*
X2660994Y395642D01*
X2660166Y394401D01*
X2659875Y392938D01*
X2660166Y391475D01*
X2660994Y390234D01*
X2662235Y389406D01*
X2663698Y389115D01*
X2665161Y389406D01*
X2666402Y390234D01*
X2667231Y391475D01*
X2667521Y392938D01*
X2667231Y394401D01*
X2666402Y395642D01*
X2665161Y396470D01*
X2663698Y396761D01*
D02*
G37*
G36*
X2689098Y412032D02*
X2687049Y411762D01*
X2685139Y410971D01*
X2683499Y409713D01*
X2682241Y408073D01*
X2681450Y406163D01*
X2681180Y404114D01*
X2681450Y402065D01*
X2682241Y400155D01*
X2683499Y398515D01*
X2685139Y397257D01*
X2687049Y396466D01*
X2689098Y396196D01*
X2691147Y396466D01*
X2693057Y397257D01*
X2694697Y398515D01*
X2695955Y400155D01*
X2696746Y402065D01*
X2697016Y404114D01*
X2696746Y406163D01*
X2695955Y408073D01*
X2694697Y409713D01*
X2693057Y410971D01*
X2691147Y411762D01*
X2689098Y412032D01*
D02*
G37*
G36*
X2676398Y505460D02*
X2674366D01*
Y503428D01*
X2676398D01*
Y505460D01*
D02*
G37*
G36*
X2671826Y510032D02*
X2669794D01*
Y508000D01*
X2671826D01*
Y510032D01*
D02*
G37*
G36*
X2676398D02*
X2674366D01*
Y508000D01*
X2676398D01*
Y510032D01*
D02*
G37*
G36*
X2672334Y494297D02*
X2670871Y494006D01*
X2669630Y493178D01*
X2668802Y491937D01*
X2668511Y490474D01*
X2668802Y489011D01*
X2669630Y487770D01*
X2670871Y486942D01*
X2672334Y486651D01*
X2673797Y486942D01*
X2675038Y487770D01*
X2675866Y489011D01*
X2676158Y490474D01*
X2675866Y491937D01*
X2675038Y493178D01*
X2673797Y494006D01*
X2672334Y494297D01*
D02*
G37*
G36*
X2569464Y518999D02*
X2566349Y518589D01*
X2563447Y517387D01*
X2560955Y515475D01*
X2559043Y512982D01*
X2557841Y510080D01*
X2557431Y506966D01*
X2557841Y503852D01*
X2559043Y500950D01*
X2560955Y498457D01*
X2563447Y496545D01*
X2566349Y495343D01*
X2569464Y494933D01*
X2572578Y495343D01*
X2575480Y496545D01*
X2577972Y498457D01*
X2579885Y500950D01*
X2581087Y503852D01*
X2581497Y506966D01*
X2581087Y510080D01*
X2579885Y512982D01*
X2577972Y515475D01*
X2575480Y517387D01*
X2572578Y518589D01*
X2569464Y518999D01*
D02*
G37*
G36*
X2671826Y505460D02*
X2669794D01*
Y503428D01*
X2671826D01*
Y505460D01*
D02*
G37*
G36*
X2669898Y693791D02*
X2668435Y693500D01*
X2667195Y692672D01*
X2666366Y691431D01*
X2666075Y689968D01*
X2666366Y688505D01*
X2667195Y687264D01*
X2668435Y686436D01*
X2669898Y686145D01*
X2671361Y686436D01*
X2672602Y687264D01*
X2673430Y688505D01*
X2673721Y689968D01*
X2673430Y691431D01*
X2672602Y692672D01*
X2671361Y693500D01*
X2669898Y693791D01*
D02*
G37*
G36*
X2652522Y702577D02*
X2651059Y702286D01*
X2649818Y701458D01*
X2648990Y700217D01*
X2648699Y698754D01*
X2648990Y697291D01*
X2649818Y696050D01*
X2651059Y695222D01*
X2652522Y694931D01*
X2653985Y695222D01*
X2655226Y696050D01*
X2656054Y697291D01*
X2656346Y698754D01*
X2656054Y700217D01*
X2655226Y701458D01*
X2653985Y702286D01*
X2652522Y702577D01*
D02*
G37*
G36*
X2569464Y744214D02*
X2566145Y743887D01*
X2562953Y742919D01*
X2560012Y741347D01*
X2557434Y739232D01*
X2555318Y736654D01*
X2553746Y733712D01*
X2552778Y730521D01*
X2552451Y727202D01*
X2552778Y723883D01*
X2553746Y720692D01*
X2555318Y717750D01*
X2557434Y715172D01*
X2560012Y713057D01*
X2562953Y711485D01*
X2566145Y710517D01*
X2569464Y710190D01*
X2572783Y710517D01*
X2575974Y711485D01*
X2578915Y713057D01*
X2581494Y715172D01*
X2583609Y717750D01*
X2585181Y720692D01*
X2586149Y723883D01*
X2586476Y727202D01*
X2586149Y730521D01*
X2585181Y733712D01*
X2583609Y736654D01*
X2581494Y739232D01*
X2578915Y741347D01*
X2575974Y742919D01*
X2572783Y743887D01*
X2569464Y744214D01*
D02*
G37*
G36*
X2648966Y670573D02*
X2647503Y670282D01*
X2646263Y669454D01*
X2645434Y668213D01*
X2645143Y666750D01*
X2645434Y665287D01*
X2646263Y664046D01*
X2647503Y663218D01*
X2648966Y662927D01*
X2650429Y663218D01*
X2651670Y664046D01*
X2652498Y665287D01*
X2652789Y666750D01*
X2652498Y668213D01*
X2651670Y669454D01*
X2650429Y670282D01*
X2648966Y670573D01*
D02*
G37*
G36*
X2541270Y693330D02*
X2539807Y693039D01*
X2538566Y692210D01*
X2537737Y690969D01*
X2537446Y689506D01*
X2537737Y688043D01*
X2538566Y686803D01*
X2539807Y685974D01*
X2541270Y685683D01*
X2542733Y685974D01*
X2543974Y686803D01*
X2544802Y688043D01*
X2544926Y688663D01*
X2546221D01*
X2546374Y687893D01*
X2547202Y686652D01*
X2548443Y685824D01*
X2549906Y685533D01*
X2551369Y685824D01*
X2552610Y686652D01*
X2553438Y687893D01*
X2553729Y689356D01*
X2553438Y690819D01*
X2552610Y692060D01*
X2551369Y692888D01*
X2549906Y693179D01*
X2548443Y692888D01*
X2547202Y692060D01*
X2546374Y690819D01*
X2546250Y690200D01*
X2544955D01*
X2544802Y690969D01*
X2543974Y692210D01*
X2542733Y693039D01*
X2541270Y693330D01*
D02*
G37*
G36*
X2581402Y693179D02*
X2579939Y692888D01*
X2578698Y692060D01*
X2577870Y690819D01*
X2577579Y689356D01*
X2577870Y687893D01*
X2578698Y686652D01*
X2579939Y685824D01*
X2581402Y685533D01*
X2582865Y685824D01*
X2584106Y686652D01*
X2584934Y687893D01*
X2585226Y689356D01*
X2584934Y690819D01*
X2584106Y692060D01*
X2582865Y692888D01*
X2581402Y693179D01*
D02*
G37*
G36*
X2592832Y849630D02*
X2590800D01*
Y847598D01*
X2592832D01*
Y849630D01*
D02*
G37*
G36*
X2588260Y854202D02*
X2586228D01*
Y852170D01*
X2588260D01*
Y854202D01*
D02*
G37*
G36*
X2592832D02*
X2590800D01*
Y852170D01*
X2592832D01*
Y854202D01*
D02*
G37*
G36*
X2605504Y783123D02*
X2604041Y782832D01*
X2602801Y782003D01*
X2601972Y780763D01*
X2601681Y779300D01*
X2601972Y777837D01*
X2602801Y776596D01*
X2604041Y775768D01*
X2604742Y775628D01*
X2605641Y775194D01*
X2606075Y774295D01*
X2606214Y773594D01*
X2607043Y772354D01*
X2608284Y771525D01*
X2608985Y771385D01*
X2609883Y770951D01*
X2610317Y770052D01*
X2610457Y769352D01*
X2611286Y768111D01*
X2612526Y767282D01*
X2613227Y767143D01*
X2614126Y766709D01*
X2614560Y765810D01*
X2614700Y765109D01*
X2615528Y763868D01*
X2616769Y763040D01*
X2618232Y762749D01*
X2619695Y763040D01*
X2620936Y763868D01*
X2621765Y765109D01*
X2622055Y766572D01*
X2621765Y768035D01*
X2620936Y769276D01*
X2619695Y770104D01*
X2618994Y770244D01*
X2618095Y770678D01*
X2617661Y771577D01*
X2617522Y772278D01*
X2616693Y773518D01*
X2615453Y774347D01*
X2614752Y774486D01*
X2613853Y774921D01*
X2613419Y775819D01*
X2613279Y776520D01*
X2612450Y777761D01*
X2611210Y778590D01*
X2610509Y778729D01*
X2609610Y779163D01*
X2609176Y780062D01*
X2609037Y780763D01*
X2608208Y782003D01*
X2606967Y782832D01*
X2605504Y783123D01*
D02*
G37*
G36*
X2616708Y830370D02*
X2614659Y830100D01*
X2612749Y829309D01*
X2611109Y828051D01*
X2609851Y826411D01*
X2609060Y824501D01*
X2608790Y822452D01*
X2609060Y820403D01*
X2609851Y818493D01*
X2611109Y816853D01*
X2612749Y815595D01*
X2614659Y814804D01*
X2616708Y814534D01*
X2618757Y814804D01*
X2620667Y815595D01*
X2622307Y816853D01*
X2623565Y818493D01*
X2624356Y820403D01*
X2624626Y822452D01*
X2624356Y824501D01*
X2623565Y826411D01*
X2622307Y828051D01*
X2620667Y829309D01*
X2618757Y830100D01*
X2616708Y830370D01*
D02*
G37*
G36*
X2588260Y849630D02*
X2586228D01*
Y847598D01*
X2588260D01*
Y849630D01*
D02*
G37*
G36*
X2651252Y630949D02*
X2649789Y630658D01*
X2648548Y629830D01*
X2647720Y628589D01*
X2647429Y627126D01*
X2647720Y625663D01*
X2648548Y624422D01*
X2649789Y623594D01*
X2651252Y623303D01*
X2652715Y623594D01*
X2653956Y624422D01*
X2654785Y625663D01*
X2655075Y627126D01*
X2654785Y628589D01*
X2653956Y629830D01*
X2652715Y630658D01*
X2651252Y630949D01*
D02*
G37*
G36*
X2595372Y632473D02*
X2593909Y632182D01*
X2592668Y631354D01*
X2591840Y630113D01*
X2591548Y628650D01*
X2591840Y627187D01*
X2592668Y625946D01*
X2593909Y625118D01*
X2595372Y624827D01*
X2596835Y625118D01*
X2598076Y625946D01*
X2598904Y627187D01*
X2599195Y628650D01*
X2598904Y630113D01*
X2598076Y631354D01*
X2596835Y632182D01*
X2595372Y632473D01*
D02*
G37*
G36*
X2525014Y632981D02*
X2523551Y632690D01*
X2522310Y631862D01*
X2521482Y630621D01*
X2521191Y629158D01*
X2521482Y627695D01*
X2522310Y626454D01*
X2523551Y625626D01*
X2525014Y625335D01*
X2526477Y625626D01*
X2527718Y626454D01*
X2528546Y627695D01*
X2528837Y629158D01*
X2528546Y630621D01*
X2527718Y631862D01*
X2526477Y632690D01*
X2525014Y632981D01*
D02*
G37*
G36*
X2482088Y613931D02*
X2480625Y613640D01*
X2479384Y612812D01*
X2478556Y611571D01*
X2478265Y610108D01*
X2478556Y608645D01*
X2479384Y607404D01*
X2480625Y606576D01*
X2482088Y606285D01*
X2483551Y606576D01*
X2484792Y607404D01*
X2485620Y608645D01*
X2485911Y610108D01*
X2485620Y611571D01*
X2484792Y612812D01*
X2483551Y613640D01*
X2482088Y613931D01*
D02*
G37*
G36*
X2537968Y616471D02*
X2536505Y616180D01*
X2535264Y615352D01*
X2534436Y614111D01*
X2534145Y612648D01*
X2534436Y611185D01*
X2535264Y609944D01*
X2536505Y609116D01*
X2537968Y608825D01*
X2539431Y609116D01*
X2540672Y609944D01*
X2541500Y611185D01*
X2541791Y612648D01*
X2541500Y614111D01*
X2540672Y615352D01*
X2539431Y616180D01*
X2537968Y616471D01*
D02*
G37*
G36*
X2543810Y624599D02*
X2542347Y624308D01*
X2541106Y623480D01*
X2540278Y622239D01*
X2539987Y620776D01*
X2540278Y619313D01*
X2541106Y618072D01*
X2542347Y617244D01*
X2543810Y616953D01*
X2545273Y617244D01*
X2546514Y618072D01*
X2547342Y619313D01*
X2547633Y620776D01*
X2547342Y622239D01*
X2546514Y623480D01*
X2545273Y624308D01*
X2543810Y624599D01*
D02*
G37*
G36*
X2643886Y662953D02*
X2642423Y662662D01*
X2641182Y661834D01*
X2640354Y660593D01*
X2640063Y659130D01*
X2640354Y657667D01*
X2641182Y656426D01*
X2642423Y655598D01*
X2643886Y655307D01*
X2645349Y655598D01*
X2646479Y656353D01*
X2647278Y655156D01*
X2648519Y654328D01*
X2649982Y654037D01*
X2651445Y654328D01*
X2652686Y655156D01*
X2653514Y656397D01*
X2653806Y657860D01*
X2653514Y659323D01*
X2652686Y660564D01*
X2651445Y661392D01*
X2649982Y661683D01*
X2648519Y661392D01*
X2647389Y660637D01*
X2646590Y661834D01*
X2645349Y662662D01*
X2643886Y662953D01*
D02*
G37*
G36*
X2606040Y664731D02*
X2604577Y664440D01*
X2603336Y663612D01*
X2602508Y662371D01*
X2602216Y660908D01*
X2602277Y660604D01*
X2602252Y660519D01*
X2601267Y659482D01*
X2600616Y659548D01*
X2599375Y660376D01*
X2597912Y660667D01*
X2596449Y660376D01*
X2595208Y659548D01*
X2594380Y658307D01*
X2594089Y656844D01*
X2594380Y655381D01*
X2595208Y654140D01*
X2596449Y653312D01*
X2597912Y653021D01*
X2599375Y653312D01*
X2600508Y654069D01*
X2609284Y645293D01*
X2608958Y643823D01*
X2608163Y643292D01*
X2607334Y642051D01*
X2607043Y640588D01*
X2607334Y639125D01*
X2608163Y637884D01*
X2609403Y637056D01*
X2610866Y636765D01*
X2612329Y637056D01*
X2613515Y637848D01*
X2613830Y637785D01*
X2614785Y637418D01*
Y591688D01*
X2613830Y591321D01*
X2613515Y591258D01*
X2612329Y592050D01*
X2610866Y592341D01*
X2609403Y592050D01*
X2608163Y591222D01*
X2607334Y589981D01*
X2607043Y588518D01*
X2607334Y587055D01*
X2608163Y585814D01*
X2609403Y584986D01*
X2610097Y584847D01*
Y583553D01*
X2609403Y583414D01*
X2608163Y582586D01*
X2607334Y581345D01*
X2607043Y579882D01*
X2607334Y578419D01*
X2607841Y577659D01*
X2606929Y576745D01*
X2606926Y576743D01*
X2605464Y577033D01*
X2604001Y576742D01*
X2602929Y576027D01*
X2602579Y575950D01*
X2601413Y576184D01*
X2600870Y576998D01*
X2599629Y577826D01*
X2598166Y578117D01*
X2596703Y577826D01*
X2595462Y576998D01*
X2594633Y575757D01*
X2594343Y574294D01*
X2594633Y572831D01*
X2595462Y571590D01*
X2596703Y570762D01*
X2598166Y570471D01*
X2599629Y570762D01*
X2600700Y571477D01*
X2601051Y571554D01*
X2602216Y571320D01*
X2602760Y570506D01*
X2604001Y569678D01*
X2605464Y569386D01*
X2606927Y569678D01*
X2608167Y570506D01*
X2608996Y571747D01*
X2609287Y573210D01*
X2608996Y574673D01*
X2608488Y575433D01*
X2609401Y576347D01*
X2609404Y576349D01*
X2610866Y576059D01*
X2612329Y576350D01*
X2613515Y577142D01*
X2613830Y577079D01*
X2614785Y576712D01*
Y563267D01*
X2614951Y562434D01*
X2615423Y561727D01*
X2638177Y538973D01*
X2638884Y538501D01*
X2639717Y538335D01*
X2656578D01*
X2656931Y537808D01*
X2658171Y536980D01*
X2659634Y536689D01*
X2661097Y536980D01*
X2662338Y537808D01*
X2663167Y539049D01*
X2663457Y540512D01*
X2663167Y541975D01*
X2662338Y543216D01*
X2661097Y544044D01*
X2659634Y544335D01*
X2658171Y544044D01*
X2656931Y543216D01*
X2656578Y542689D01*
X2640618D01*
X2623624Y559683D01*
X2623950Y561153D01*
X2624745Y561684D01*
X2625574Y562925D01*
X2625865Y564388D01*
X2625574Y565851D01*
X2624745Y567092D01*
X2624219Y567444D01*
Y644906D01*
X2624053Y645739D01*
X2623581Y646445D01*
X2609740Y660287D01*
X2609863Y660908D01*
X2609572Y662371D01*
X2608744Y663612D01*
X2607503Y664440D01*
X2606040Y664731D01*
D02*
G37*
G36*
X2533904Y663461D02*
X2532441Y663170D01*
X2531200Y662342D01*
X2529770Y662384D01*
X2529367Y662653D01*
X2527904Y662944D01*
X2526441Y662653D01*
X2525200Y661824D01*
X2524372Y660584D01*
X2524081Y659121D01*
X2524253Y658255D01*
X2523551Y656820D01*
X2522310Y655992D01*
X2521482Y654751D01*
X2521191Y653288D01*
X2521482Y651825D01*
X2522310Y650584D01*
X2523551Y649756D01*
X2525014Y649465D01*
X2526477Y649756D01*
X2527718Y650584D01*
X2528546Y651825D01*
X2528837Y653288D01*
X2528546Y654751D01*
X2529469Y655656D01*
X2530608Y656417D01*
X2532038Y656375D01*
X2532441Y656106D01*
X2533904Y655815D01*
X2535367Y656106D01*
X2536608Y656934D01*
X2537436Y658175D01*
X2537727Y659638D01*
X2537436Y661101D01*
X2536608Y662342D01*
X2535367Y663170D01*
X2533904Y663461D01*
D02*
G37*
G36*
X2535174Y644157D02*
X2533711Y643866D01*
X2532470Y643038D01*
X2531642Y641797D01*
X2531351Y640334D01*
X2531642Y638871D01*
X2532470Y637630D01*
Y637281D01*
X2531962Y636942D01*
X2531134Y635701D01*
X2530843Y634238D01*
X2531134Y632775D01*
X2531962Y631534D01*
X2533203Y630706D01*
X2534666Y630415D01*
X2536129Y630706D01*
X2537370Y631534D01*
X2538198Y632775D01*
X2538489Y634238D01*
X2538198Y635701D01*
X2537370Y636942D01*
Y637291D01*
X2537878Y637630D01*
X2538706Y638871D01*
X2538997Y640334D01*
X2538706Y641797D01*
X2537878Y643038D01*
X2536637Y643866D01*
X2535174Y644157D01*
D02*
G37*
G36*
X2650236Y648983D02*
X2648773Y648692D01*
X2647532Y647864D01*
X2646703Y646623D01*
X2646413Y645160D01*
X2646703Y643697D01*
X2647532Y642456D01*
X2648773Y641628D01*
X2650236Y641337D01*
X2651699Y641628D01*
X2652939Y642456D01*
X2653768Y643697D01*
X2654059Y645160D01*
X2653768Y646623D01*
X2652939Y647864D01*
X2651699Y648692D01*
X2650236Y648983D01*
D02*
G37*
G36*
X2543810Y651269D02*
X2542347Y650978D01*
X2541106Y650150D01*
X2540278Y648909D01*
X2539987Y647446D01*
X2540278Y645983D01*
X2541106Y644742D01*
X2542347Y643914D01*
X2543810Y643623D01*
X2545273Y643914D01*
X2546514Y644742D01*
X2547342Y645983D01*
X2547633Y647446D01*
X2547342Y648909D01*
X2546514Y650150D01*
X2545273Y650978D01*
X2543810Y651269D01*
D02*
G37*
%LPD*%
D23*
X2565654Y462204D02*
X2565680Y462178D01*
Y449428D02*
Y462178D01*
X2565654Y449402D02*
X2565680Y449428D01*
X2565654Y397002D02*
Y449402D01*
Y462204D02*
Y469900D01*
X2548636Y486918D02*
X2565654Y469900D01*
X2544572Y486918D02*
X2548636D01*
D24*
X2569085Y448018D02*
Y458432D01*
X2569059Y447992D02*
X2569085Y448018D01*
X2569059Y407059D02*
Y447992D01*
Y463614D02*
Y473353D01*
Y463614D02*
X2569085Y463588D01*
Y458432D02*
Y463588D01*
X2639717Y540512D02*
X2659634D01*
X2616962Y563267D02*
X2639717Y540512D01*
X2616962Y563267D02*
Y640693D01*
X2600811Y656844D02*
X2616962Y640693D01*
X2597912Y656844D02*
X2600811D01*
X2606040Y660908D02*
X2622042Y644906D01*
Y564388D02*
Y644906D01*
X2563368Y479552D02*
Y480568D01*
X2563114Y479298D02*
X2563368Y479552D01*
X2563114Y479298D02*
X2569059Y473353D01*
Y407059D02*
X2573274Y402844D01*
X2602484D01*
X2608580Y396748D01*
D29*
X2461006Y740918D02*
D03*
X2495296Y357632D02*
D03*
X2460752Y717042D02*
D03*
X2726222Y822992D02*
D03*
X2460498Y580390D02*
D03*
X2505456Y876300D02*
D03*
D30*
X2726690Y771398D02*
D03*
X2461006Y409448D02*
D03*
D35*
X2673096Y506730D02*
D03*
D36*
X2589530Y850900D02*
D03*
D38*
X2720002Y740000D02*
D03*
Y680000D02*
D03*
Y560000D02*
D03*
Y460000D02*
D03*
Y440000D02*
D03*
X2715002Y770000D02*
D03*
X2710002Y760000D02*
D03*
X2715002Y750000D02*
D03*
X2710002Y740000D02*
D03*
X2715002Y730000D02*
D03*
Y710000D02*
D03*
Y690000D02*
D03*
X2710002Y680000D02*
D03*
X2715002Y590000D02*
D03*
X2710002Y520000D02*
D03*
X2715002Y510000D02*
D03*
Y490000D02*
D03*
Y470000D02*
D03*
X2710002Y460000D02*
D03*
Y440000D02*
D03*
Y420000D02*
D03*
X2700002Y820000D02*
D03*
X2705002Y810000D02*
D03*
Y790000D02*
D03*
X2700002Y760000D02*
D03*
X2705002Y750000D02*
D03*
X2700002Y740000D02*
D03*
X2705002Y730000D02*
D03*
Y710000D02*
D03*
Y690000D02*
D03*
X2700002Y680000D02*
D03*
X2705002Y590000D02*
D03*
Y530000D02*
D03*
X2700002Y520000D02*
D03*
X2705002Y510000D02*
D03*
Y490000D02*
D03*
Y470000D02*
D03*
X2700002Y460000D02*
D03*
X2705002Y410000D02*
D03*
X2690002Y760000D02*
D03*
X2695002Y750000D02*
D03*
X2680002Y840001D02*
D03*
X2685002Y830000D02*
D03*
X2680002Y820000D02*
D03*
X2685002Y810000D02*
D03*
Y770000D02*
D03*
X2680002Y760000D02*
D03*
Y720000D02*
D03*
X2670002Y760000D02*
D03*
X2675002Y750000D02*
D03*
X2670002Y720000D02*
D03*
X2665002Y850001D02*
D03*
Y830000D02*
D03*
X2650002Y680000D02*
D03*
Y500000D02*
D03*
X2655002Y370000D02*
D03*
X2645002Y810000D02*
D03*
Y730000D02*
D03*
Y510000D02*
D03*
X2640002Y500000D02*
D03*
X2630002Y860001D02*
D03*
Y520000D02*
D03*
X2635002Y510000D02*
D03*
X2630002Y500000D02*
D03*
X2620002Y860001D02*
D03*
Y760000D02*
D03*
X2625002Y750000D02*
D03*
Y510000D02*
D03*
Y370000D02*
D03*
X2610002Y860001D02*
D03*
Y600000D02*
D03*
X2615002Y370000D02*
D03*
X2605002Y870001D02*
D03*
X2600002Y860001D02*
D03*
X2605002Y850001D02*
D03*
X2600002Y760000D02*
D03*
Y420000D02*
D03*
X2605002Y370000D02*
D03*
X2595002Y870001D02*
D03*
X2590002Y780000D02*
D03*
X2595002Y770000D02*
D03*
X2590002Y760000D02*
D03*
X2595002Y750000D02*
D03*
Y650000D02*
D03*
X2590002Y640000D02*
D03*
Y600000D02*
D03*
Y420000D02*
D03*
X2580002Y780000D02*
D03*
X2585002Y770000D02*
D03*
X2580002Y760000D02*
D03*
X2585002Y650000D02*
D03*
X2580002Y640000D02*
D03*
Y600000D02*
D03*
X2585002Y590000D02*
D03*
X2580002Y580000D02*
D03*
X2570002Y860001D02*
D03*
Y780000D02*
D03*
X2575002Y770000D02*
D03*
X2570002Y760000D02*
D03*
X2575002Y650000D02*
D03*
X2570002Y640000D02*
D03*
Y600000D02*
D03*
X2575002Y590000D02*
D03*
X2570002Y580000D02*
D03*
X2560002Y860001D02*
D03*
Y820000D02*
D03*
Y780000D02*
D03*
X2565002Y770000D02*
D03*
X2560002Y760000D02*
D03*
X2565002Y650000D02*
D03*
X2560002Y640000D02*
D03*
Y600000D02*
D03*
X2565002Y590000D02*
D03*
X2560002Y580000D02*
D03*
Y360000D02*
D03*
X2555001Y850001D02*
D03*
X2550001Y820000D02*
D03*
X2555001Y790000D02*
D03*
Y770000D02*
D03*
Y650000D02*
D03*
X2550001Y640000D02*
D03*
Y600000D02*
D03*
X2555001Y590000D02*
D03*
X2550001Y580000D02*
D03*
X2540001Y820000D02*
D03*
Y780000D02*
D03*
Y760000D02*
D03*
Y740000D02*
D03*
Y720000D02*
D03*
Y420000D02*
D03*
X2545001Y410000D02*
D03*
X2530001Y860001D02*
D03*
Y820000D02*
D03*
Y780000D02*
D03*
X2535001Y770000D02*
D03*
X2530001Y760000D02*
D03*
Y740000D02*
D03*
X2535001Y730000D02*
D03*
X2530001Y720000D02*
D03*
X2535001Y710000D02*
D03*
X2530001Y440000D02*
D03*
Y420000D02*
D03*
X2535001Y410000D02*
D03*
X2520001Y860001D02*
D03*
X2525001Y850001D02*
D03*
X2520001Y820000D02*
D03*
X2525001Y810000D02*
D03*
X2520001Y800000D02*
D03*
Y780000D02*
D03*
X2525001Y770000D02*
D03*
X2520001Y760000D02*
D03*
Y740000D02*
D03*
X2525001Y730000D02*
D03*
X2520001Y700000D02*
D03*
Y440000D02*
D03*
X2515001Y870001D02*
D03*
X2510001Y860001D02*
D03*
X2515001Y850001D02*
D03*
X2510001Y820000D02*
D03*
X2515001Y810000D02*
D03*
X2510001Y800000D02*
D03*
Y780000D02*
D03*
X2515001Y770000D02*
D03*
X2510001Y760000D02*
D03*
Y700000D02*
D03*
X2515001Y690000D02*
D03*
X2510001Y500000D02*
D03*
Y440000D02*
D03*
X2500001Y860001D02*
D03*
X2505001Y850001D02*
D03*
X2500001Y820000D02*
D03*
X2505001Y810000D02*
D03*
X2500001Y800000D02*
D03*
Y780000D02*
D03*
X2505001Y770000D02*
D03*
X2500001Y760000D02*
D03*
X2505001Y710000D02*
D03*
Y690000D02*
D03*
Y510000D02*
D03*
X2500001Y500000D02*
D03*
X2505001Y490000D02*
D03*
X2500001Y480000D02*
D03*
X2505001Y430000D02*
D03*
Y390000D02*
D03*
X2500001Y380000D02*
D03*
X2495001Y870001D02*
D03*
X2490001Y860001D02*
D03*
X2495001Y850001D02*
D03*
X2490001Y480000D02*
D03*
X2480001Y740000D02*
D03*
X2485001Y730000D02*
D03*
X2480001Y720000D02*
D03*
X2485001Y710000D02*
D03*
X2480001Y700000D02*
D03*
X2485001Y430000D02*
D03*
Y410000D02*
D03*
Y390000D02*
D03*
X2475001Y750000D02*
D03*
Y730000D02*
D03*
Y710000D02*
D03*
X2470001Y700000D02*
D03*
Y680000D02*
D03*
Y600000D02*
D03*
X2475001Y590000D02*
D03*
Y570000D02*
D03*
X2470001Y540000D02*
D03*
Y520000D02*
D03*
X2475001Y370000D02*
D03*
X2719578Y655066D02*
D03*
X2718308Y583184D02*
D03*
X2544572Y486918D02*
D03*
X2610612Y706374D02*
D03*
X2659634Y540512D02*
D03*
X2597912Y656844D02*
D03*
X2606040Y660908D02*
D03*
X2622042Y564388D02*
D03*
X2534666Y634238D02*
D03*
X2598166Y574294D02*
D03*
X2633980Y560578D02*
D03*
X2645918Y573786D02*
D03*
X2563368Y480568D02*
D03*
X2608580Y396748D02*
D03*
X2565654Y397002D02*
D03*
X2585720Y530352D02*
D03*
X2544572Y529844D02*
D03*
X2640076Y653034D02*
D03*
X2573464Y572326D02*
D03*
X2565400Y572262D02*
D03*
X2557526Y572008D02*
D03*
X2535174Y572770D02*
D03*
X2665730Y708660D02*
D03*
X2581402Y689356D02*
D03*
X2549906D02*
D03*
X2541270Y689506D02*
D03*
X2697989Y802893D02*
D03*
M02*
