M48
;Layer_Color=9474304
;FILE_FORMAT=4:4
METRIC,LZ
;TYPE=PLATED
T1F00S00C0.2000
T2F00S00C0.3048
T3F00S00C0.7112
T4F00S00C0.7620
T6F00S00C0.9000
T7F00S00C2.0574
;TYPE=NON_PLATED
T8F00S00C2.0574
%
T01
X0260858Y00396748
X02565654Y00397002
X02563368Y00480568
X02544572Y00486918
X02503932Y00468122
X0250825Y00537718
X02500376Y00544068
X02562352Y00529844
X02637536
X02659634Y00540512
X02647696Y00558038
X02640838Y00580898
X02651506Y0058674
X02651252Y00627126
X02650236Y0064516
X02649982Y0065786
X02643886Y0065913
X02640076Y00653034
X02648966Y0066675
X02652522Y00698754
X0266573Y0070866
X02669898Y00689968
X02610612Y00706374
X02610866Y00640588
X02595372Y0062865
X02610866Y00588518
Y00579882
X02605464Y0057321
X02622042Y00564388
X02679192
X02664045Y00469993
X02651506Y0047879
X02673858Y00447548
X02593594Y00467868
X02537968Y00612648
X0254381Y00620776
Y00647446
X02535174Y00640334
X02533904Y00659638
X02527904Y00659121
X02525014Y00653288
Y00629158
X02482088Y00610108
X02605504Y007793
X02609747Y00775057
X02613989Y00770815
X02618232Y00766572
X02697989Y00802893
T02
X02673096Y0050673
X0258953Y008509
T03
X02663444Y00413258
X02616708Y00822452
T04
X02705608Y00550418
T06
X02495296Y00357632
X02520696
X02546096
X02571496
X02596896
X02622296
X02460498Y0045339
Y0047879
Y0050419
Y0052959
Y0055499
Y0058039
X02460752Y00615442
Y00640842
Y00666242
Y00691642
Y00717042
X02505456Y008763
X02530856
X02556256
X02581656
X0262454Y00876462
X02648549Y00872523
X02671517Y00864668
X0269188Y00853732
X02711182Y0083891
X02726222Y00822992
T07
X02569464Y00727202
T08
X02569464Y00506966
M30
