G04 Layer_Color=128*
%FSLAX44Y44*%
%MOMM*%
G71*
G01*
G75*
%ADD323C,0.0508*%
D323*
X2701798Y550418D02*
X2709418D01*
X2705608Y546608D02*
Y554228D01*
X2722880Y771398D02*
X2730500D01*
X2726690Y767588D02*
Y775208D01*
X2723134Y692404D02*
X2730754D01*
X2726944Y688594D02*
Y696214D01*
X2722372Y520446D02*
X2729992D01*
X2726182Y516636D02*
Y524256D01*
X2722372Y446278D02*
X2729992D01*
X2726182Y442468D02*
Y450088D01*
X2457196Y409448D02*
X2464816D01*
X2461006Y405638D02*
Y413258D01*
X2457196Y801116D02*
X2464816D01*
X2461006Y797306D02*
Y804926D01*
X2559177Y506966D02*
X2579751D01*
X2569464Y496679D02*
Y517253D01*
X2559177Y727202D02*
X2579751D01*
X2569464Y716915D02*
Y737489D01*
X2617796Y357632D02*
X2626796D01*
X2622296Y353132D02*
Y362132D01*
X2592396Y357632D02*
X2601396D01*
X2596896Y353132D02*
Y362132D01*
X2566996Y357632D02*
X2575996D01*
X2571496Y353132D02*
Y362132D01*
X2541596Y357632D02*
X2550596D01*
X2546096Y353132D02*
Y362132D01*
X2516196Y357632D02*
X2525196D01*
X2520696Y353132D02*
Y362132D01*
X2490796Y357632D02*
X2499796D01*
X2495296Y353132D02*
Y362132D01*
X2456252Y717042D02*
X2465252D01*
X2460752Y712542D02*
Y721542D01*
X2456252Y691642D02*
X2465252D01*
X2460752Y687142D02*
Y696142D01*
X2456252Y666242D02*
X2465252D01*
X2460752Y661742D02*
Y670742D01*
X2456252Y640842D02*
X2465252D01*
X2460752Y636342D02*
Y645342D01*
X2456252Y615442D02*
X2465252D01*
X2460752Y610942D02*
Y619942D01*
X2671572Y506730D02*
X2674620D01*
X2673096Y505206D02*
Y508254D01*
X2620040Y876462D02*
X2629040D01*
X2624540Y871963D02*
Y880962D01*
X2644049Y872523D02*
X2653049D01*
X2648549Y868023D02*
Y877023D01*
X2667017Y864668D02*
X2676017D01*
X2671517Y860168D02*
Y869168D01*
X2687380Y853732D02*
X2696380D01*
X2691880Y849232D02*
Y858232D01*
X2706682Y838910D02*
X2715682D01*
X2711182Y834410D02*
Y843410D01*
X2721722Y822992D02*
X2730722D01*
X2726222Y818492D02*
Y827492D01*
X2455998Y580390D02*
X2464998D01*
X2460498Y575890D02*
Y584890D01*
X2455998Y554990D02*
X2464998D01*
X2460498Y550490D02*
Y559490D01*
X2455998Y529590D02*
X2464998D01*
X2460498Y525090D02*
Y534090D01*
X2455998Y504190D02*
X2464998D01*
X2460498Y499690D02*
Y508690D01*
X2455998Y478790D02*
X2464998D01*
X2460498Y474290D02*
Y483290D01*
X2455998Y453390D02*
X2464998D01*
X2460498Y448890D02*
Y457890D01*
X2588006Y850900D02*
X2591054D01*
X2589530Y849376D02*
Y852424D01*
X2577156Y876300D02*
X2586156D01*
X2581656Y871800D02*
Y880800D01*
X2551756Y876300D02*
X2560756D01*
X2556256Y871800D02*
Y880800D01*
X2526356Y876300D02*
X2535356D01*
X2530856Y871800D02*
Y880800D01*
X2500956Y876300D02*
X2509956D01*
X2505456Y871800D02*
Y880800D01*
X2672858Y447548D02*
X2674858D01*
X2673858Y446548D02*
Y448548D01*
X2650506Y478790D02*
X2652506D01*
X2651506Y477790D02*
Y479790D01*
X2663045Y469993D02*
X2665045D01*
X2664045Y468993D02*
Y470993D01*
X2524014Y653288D02*
X2526014D01*
X2525014Y652288D02*
Y654288D01*
X2526904Y659121D02*
X2528904D01*
X2527904Y658121D02*
Y660121D01*
X2659888Y413258D02*
X2667000D01*
X2663444Y409702D02*
Y416814D01*
X2543572Y486918D02*
X2545572D01*
X2544572Y485918D02*
Y487918D01*
X2609612Y706374D02*
X2611612D01*
X2610612Y705374D02*
Y707374D01*
X2594372Y628650D02*
X2596372D01*
X2595372Y627650D02*
Y629650D01*
X2609866Y588518D02*
X2611866D01*
X2610866Y587518D02*
Y589518D01*
X2536968Y612648D02*
X2538968D01*
X2537968Y611648D02*
Y613648D01*
X2542810Y620776D02*
X2544810D01*
X2543810Y619776D02*
Y621776D01*
X2646696Y558038D02*
X2648696D01*
X2647696Y557038D02*
Y559038D01*
X2639838Y580898D02*
X2641838D01*
X2640838Y579898D02*
Y581898D01*
X2658634Y540512D02*
X2660634D01*
X2659634Y539512D02*
Y541512D01*
X2621042Y564388D02*
X2623042D01*
X2622042Y563388D02*
Y565388D01*
X2609866Y640588D02*
X2611866D01*
X2610866Y639588D02*
Y641588D01*
X2534174Y640334D02*
X2536174D01*
X2535174Y639334D02*
Y641334D01*
X2542810Y647446D02*
X2544810D01*
X2543810Y646446D02*
Y648446D01*
X2532904Y659638D02*
X2534904D01*
X2533904Y658638D02*
Y660638D01*
X2609866Y579882D02*
X2611866D01*
X2610866Y578882D02*
Y580882D01*
X2604464Y573210D02*
X2606464D01*
X2605464Y572210D02*
Y574210D01*
X2647966Y666750D02*
X2649966D01*
X2648966Y665750D02*
Y667750D01*
X2642886Y659130D02*
X2644886D01*
X2643886Y658130D02*
Y660130D01*
X2648982Y657860D02*
X2650982D01*
X2649982Y656860D02*
Y658860D01*
X2592594Y467868D02*
X2594594D01*
X2593594Y466868D02*
Y468868D01*
X2502932Y468122D02*
X2504932D01*
X2503932Y467122D02*
Y469122D01*
X2481088Y610108D02*
X2483088D01*
X2482088Y609108D02*
Y611108D01*
X2604504Y779300D02*
X2606504D01*
X2605504Y778300D02*
Y780300D01*
X2608747Y775057D02*
X2610747D01*
X2609747Y774057D02*
Y776057D01*
X2612990Y770815D02*
X2614989D01*
X2613989Y769815D02*
Y771815D01*
X2617232Y766572D02*
X2619232D01*
X2618232Y765572D02*
Y767572D01*
X2507250Y537718D02*
X2509250D01*
X2508250Y536718D02*
Y538718D01*
X2562368Y480568D02*
X2564368D01*
X2563368Y479568D02*
Y481568D01*
X2613152Y822452D02*
X2620264D01*
X2616708Y818896D02*
Y826008D01*
X2607580Y396748D02*
X2609580D01*
X2608580Y395748D02*
Y397748D01*
X2564654Y397002D02*
X2566654D01*
X2565654Y396002D02*
Y398002D01*
X2649236Y645160D02*
X2651236D01*
X2650236Y644160D02*
Y646160D01*
X2650252Y627126D02*
X2652252D01*
X2651252Y626126D02*
Y628126D01*
X2650506Y586740D02*
X2652506D01*
X2651506Y585740D02*
Y587740D01*
X2636536Y529844D02*
X2638536D01*
X2637536Y528844D02*
Y530844D01*
X2499376Y544068D02*
X2501376D01*
X2500376Y543068D02*
Y545068D01*
X2561352Y529844D02*
X2563352D01*
X2562352Y528844D02*
Y530844D01*
X2639076Y653034D02*
X2641076D01*
X2640076Y652034D02*
Y654034D01*
X2651522Y698754D02*
X2653522D01*
X2652522Y697754D02*
Y699754D01*
X2664730Y708660D02*
X2666730D01*
X2665730Y707660D02*
Y709660D01*
X2668898Y689968D02*
X2670898D01*
X2669898Y688968D02*
Y690968D01*
X2678192Y564388D02*
X2680192D01*
X2679192Y563388D02*
Y565388D01*
X2524014Y629158D02*
X2526014D01*
X2525014Y628158D02*
Y630158D01*
X2696989Y802893D02*
X2698989D01*
X2697989Y801893D02*
Y803893D01*
M02*
