M48
;Layer_Color=9474304
;FILE_FORMAT=4:4
METRIC,LZ
;TYPE=PLATED
T1F00S00C0.2000
T2F00S00C0.3048
T3F00S00C0.7112
T4F00S00C0.7620
T6F00S00C0.9000
T7F00S00C2.0574
;TYPE=NON_PLATED
T8F00S00C2.0574
%
T01
X02475001Y0037
X02485001Y0039
X02505001
X02500001Y0038
X02560002Y0036
X02605002Y0037
X02615002
X02625002
X02655002
X02663698Y00392938
X0260858Y00396748
X02600002Y0042
X02590002
X02565654Y00397002
X02545001Y0041
X02535001
X02530001Y0042
X02540001
X02530001Y0044
X02520001
X02510001
X02505001Y0043
X02485001
Y0041
X02484187Y00462064
X02490001Y0048
X02500001
X02505001Y0049
X02500001Y005
X02510001
X02505001Y0051
X0250825Y00537718
X02500376Y00544068
X02470001Y0054
Y0052
X02475001Y0057
Y0059
X02470001Y006
X02482088Y00610108
X02537968Y00612648
X0254381Y00620776
X02550001Y0064
X02560002
X02570002
X02580002
X02590002
X02595002Y0065
X02585002
X02575002
X02565002
X02555001
X0254381Y00647446
X02535174Y00640334
X02533904Y00659638
X02527904Y00659121
X02525014Y00653288
Y00629158
X02550001Y006
X02560002
X02570002
X02580002
X02590002
X02585002Y0059
X02575002
X02565002
X02555001
X02550001Y0058
X02560002
X02570002
X02580002
X02610866Y00579882
Y00588518
X02610002Y006
X02605464Y0057321
X02622042Y00564388
X02640838Y00580898
X02651506Y0058674
X02652014Y00557784
X02659634Y00540512
X02637536Y00529844
X02630002Y0052
X02635002Y0051
X02645002
X02640002Y005
X02650002
X02630002
X02625002Y0051
X02672334Y00490474
X02705002Y0049
X02715002
Y0051
X02705002
X02700002Y0052
X02710002
X02705002Y0053
X02720002Y0056
X02718308Y00583184
X02715002Y0059
X02705002
X02679192Y00564388
X02651252Y00627126
X02650236Y0064516
X02649982Y0065786
X02643886Y0065913
X02640076Y00653034
X02648966Y0066675
X02650002Y0068
X02652522Y00698754
X0266573Y0070866
X02670002Y0072
X02680002
X02705002Y0073
X02715002
X02710002Y0074
X02720002
X02715002Y0075
X02705002
X02695002
X02690002Y0076
X02700002
X02710002
X02715002Y0077
X02705002Y0079
X02685002Y0077
X02680002Y0076
X02670002
X02675002Y0075
X02700002Y0074
X02705002Y0071
X02715002
Y0069
X02705002
X02700002Y0068
X02710002
X02720002
X02719578Y00655066
X02669898Y00689968
X02645002Y0073
X02625002Y0075
X02620002Y0076
X02618232Y00766572
X02613989Y00770815
X02609747Y00775057
X02605504Y007793
X02590002Y0078
X02580002
X02570002
X02560002
X02565002Y0077
X02575002
X02585002
X02595002
X02590002Y0076
X02600002
X02595002Y0075
X02580002Y0076
X02570002
X02560002
X02555001Y0077
Y0079
X02540001Y0078
X02530001
X02520001
X02510001
X02500001
X02505001Y0077
X02515001
X02525001
X02535001
X02530001Y0076
X02540001
Y0074
X02530001
X02520001
X02525001Y0073
X02535001
X02530001Y0072
X02540001
X02535001Y0071
X02520001Y007
X02510001
X02515001Y0069
X02505001
Y0071
X02485001
X02475001
X02470001Y007
X02480001
Y0072
X02485001Y0073
X02475001
X02480001Y0074
X02475001Y0075
X02500001Y0076
X02510001
X02520001
X02470001Y0068
X02610612Y00706374
X02610866Y00640588
X02595372Y0062865
X02562352Y00529844
X02563368Y00480568
X02544572Y00486918
X02705002Y0047
X02715002
X02710002Y0046
X02720002
Y0044
X02710002
Y0042
X02705002Y0041
X02674874Y00414528
X02668016
X02684526Y00424942
X02700002Y0046
X02697989Y00802893
X02705002Y0081
X02700002Y0082
X02680002
X02685002Y0083
X02680002Y00840001
X02665002Y00850001
Y0083
X02685002Y0081
X02645002
X02630002Y00860001
X02620002
X02610002
X02600002
X02605002Y00870001
X02595002
X02605002Y00850001
X02570002Y00860001
X02560002
X02555001Y00850001
X02525001
X02515001
X02505001
X02495001
X02490001Y00860001
X02500001
X02510001
X02520001
X02530001
X02515001Y00870001
X02495001
X02500001Y0082
X02510001
X02520001
X02530001
X02540001
X02550001
X02560002
X02525001Y0081
X02515001
X02505001
X02500001Y008
X02510001
X02520001
T02
X02673096Y0050673
X0258953Y008509
T03
X02689098Y00404114
X02616708Y00822452
T04
X02657094Y00519938
X02726182Y00569905
Y00595122
Y00669798
Y0069723
Y00723646
T06
X02495296Y00357632
X02520696
X02546096
X02571496
X02596896
X02622296
X02646172Y00361442
X02669794Y00368554
X02695194Y00382016
X02716784Y00399542
X02726182Y00425958
X02726436Y00449326
X02726182Y00473964
X02726436Y00499872
X02725928Y00524256
X02726182Y00547116
X02460498Y0055499
Y0058039
X02460752Y00615442
Y00640842
Y00666242
Y00691642
Y00717042
X02461006Y00740918
Y00763778
Y00786384
X02460498Y0052959
Y0050419
Y0047879
Y0045339
X02460752Y00810768
X02461006Y00833628
X024638Y00856488
X02481072Y00872998
X02505456Y008763
X02530856
X02556256
X02581656
X0262454Y00876462
X02648549Y00872523
X02671517Y00864668
X0269188Y00853732
X02711182Y0083891
X02726222Y00822992
T07
X02569464Y00727202
T08
X02569464Y00506966
M30
