G04 Layer_Color=2752767*
%FSLAX44Y44*%
%MOMM*%
G71*
G01*
G75*
%ADD317C,0.0508*%
%ADD347C,0.0677*%
D317*
X2655062Y517906D02*
Y521970D01*
X2659126D01*
Y517906D01*
X2655062D01*
X2724150Y593090D02*
Y597154D01*
X2728214D01*
Y593090D01*
X2724150D01*
Y667766D02*
Y671830D01*
X2728214D01*
Y667766D01*
X2724150D01*
Y695198D02*
Y699262D01*
X2728214D01*
Y695198D01*
X2724150D01*
Y721614D02*
Y725678D01*
X2728214D01*
Y721614D01*
X2724150D01*
Y567873D02*
Y571937D01*
X2728214D01*
Y567873D01*
X2724150D01*
X2726690Y769366D02*
X2724658Y773430D01*
X2728722D01*
X2726690Y769366D01*
X2461006Y407416D02*
X2458974Y411480D01*
X2463038D01*
X2461006Y407416D01*
X2569464Y504934D02*
X2570480Y505950D01*
X2571496D01*
X2570480Y506966D01*
X2571496Y507982D01*
X2570480D01*
X2569464Y508998D01*
X2568448Y507982D01*
X2567432D01*
X2568448Y506966D01*
X2567432Y505950D01*
X2568448D01*
X2569464Y504934D01*
X2567432Y725170D02*
X2568448Y727202D01*
X2567432Y729234D01*
X2569464Y728218D01*
X2571496Y729234D01*
X2570480Y727202D01*
X2571496Y725170D01*
X2569464Y726186D01*
X2567432Y725170D01*
X2672080Y505714D02*
Y504698D01*
X2674112D01*
Y505714D01*
X2675128D01*
Y507746D01*
X2674112D01*
Y508762D01*
X2672080D01*
Y507746D01*
X2671064D01*
Y505714D01*
X2672080D01*
X2588514Y849884D02*
Y848868D01*
X2590546D01*
Y849884D01*
X2591562D01*
Y851916D01*
X2590546D01*
Y852932D01*
X2588514D01*
Y851916D01*
X2587498D01*
Y849884D01*
X2588514D01*
X2717969Y737968D02*
X2718986D01*
X2720002Y738984D01*
X2721017Y737968D01*
X2722033D01*
Y738984D01*
X2721017Y740000D01*
X2722033Y741016D01*
Y742032D01*
X2721017D01*
X2720002Y741016D01*
X2718986Y742032D01*
X2717969D01*
Y741016D01*
X2718986Y740000D01*
X2717969Y738984D01*
Y737968D01*
Y677968D02*
X2718986D01*
X2720002Y678984D01*
X2721017Y677968D01*
X2722033D01*
Y678984D01*
X2721017Y680000D01*
X2722033Y681016D01*
Y682032D01*
X2721017D01*
X2720002Y681016D01*
X2718986Y682032D01*
X2717969D01*
Y681016D01*
X2718986Y680000D01*
X2717969Y678984D01*
Y677968D01*
Y557968D02*
X2718986D01*
X2720002Y558984D01*
X2721017Y557968D01*
X2722033D01*
Y558984D01*
X2721017Y560000D01*
X2722033Y561016D01*
Y562032D01*
X2721017D01*
X2720002Y561016D01*
X2718986Y562032D01*
X2717969D01*
Y561016D01*
X2718986Y560000D01*
X2717969Y558984D01*
Y557968D01*
Y457968D02*
X2718986D01*
X2720002Y458984D01*
X2721017Y457968D01*
X2722033D01*
Y458984D01*
X2721017Y460000D01*
X2722033Y461016D01*
Y462032D01*
X2721017D01*
X2720002Y461016D01*
X2718986Y462032D01*
X2717969D01*
Y461016D01*
X2718986Y460000D01*
X2717969Y458984D01*
Y457968D01*
Y437968D02*
X2718986D01*
X2720002Y438984D01*
X2721017Y437968D01*
X2722033D01*
Y438984D01*
X2721017Y440000D01*
X2722033Y441016D01*
Y442032D01*
X2721017D01*
X2720002Y441016D01*
X2718986Y442032D01*
X2717969D01*
Y441016D01*
X2718986Y440000D01*
X2717969Y438984D01*
Y437968D01*
X2712969Y767968D02*
X2713986D01*
X2715002Y768984D01*
X2716017Y767968D01*
X2717033D01*
Y768984D01*
X2716017Y770000D01*
X2717033Y771016D01*
Y772032D01*
X2716017D01*
X2715002Y771016D01*
X2713986Y772032D01*
X2712969D01*
Y771016D01*
X2713986Y770000D01*
X2712969Y768984D01*
Y767968D01*
X2707969Y757968D02*
X2708986D01*
X2710002Y758984D01*
X2711017Y757968D01*
X2712033D01*
Y758984D01*
X2711017Y760000D01*
X2712033Y761016D01*
Y762032D01*
X2711017D01*
X2710002Y761016D01*
X2708986Y762032D01*
X2707969D01*
Y761016D01*
X2708986Y760000D01*
X2707969Y758984D01*
Y757968D01*
X2712969Y747968D02*
X2713986D01*
X2715002Y748984D01*
X2716017Y747968D01*
X2717033D01*
Y748984D01*
X2716017Y750000D01*
X2717033Y751016D01*
Y752032D01*
X2716017D01*
X2715002Y751016D01*
X2713986Y752032D01*
X2712969D01*
Y751016D01*
X2713986Y750000D01*
X2712969Y748984D01*
Y747968D01*
X2707969Y737968D02*
X2708986D01*
X2710002Y738984D01*
X2711017Y737968D01*
X2712033D01*
Y738984D01*
X2711017Y740000D01*
X2712033Y741016D01*
Y742032D01*
X2711017D01*
X2710002Y741016D01*
X2708986Y742032D01*
X2707969D01*
Y741016D01*
X2708986Y740000D01*
X2707969Y738984D01*
Y737968D01*
X2712969Y727968D02*
X2713986D01*
X2715002Y728984D01*
X2716017Y727968D01*
X2717033D01*
Y728984D01*
X2716017Y730000D01*
X2717033Y731016D01*
Y732032D01*
X2716017D01*
X2715002Y731016D01*
X2713986Y732032D01*
X2712969D01*
Y731016D01*
X2713986Y730000D01*
X2712969Y728984D01*
Y727968D01*
Y707968D02*
X2713986D01*
X2715002Y708984D01*
X2716017Y707968D01*
X2717033D01*
Y708984D01*
X2716017Y710000D01*
X2717033Y711016D01*
Y712032D01*
X2716017D01*
X2715002Y711016D01*
X2713986Y712032D01*
X2712969D01*
Y711016D01*
X2713986Y710000D01*
X2712969Y708984D01*
Y707968D01*
Y687968D02*
X2713986D01*
X2715002Y688984D01*
X2716017Y687968D01*
X2717033D01*
Y688984D01*
X2716017Y690000D01*
X2717033Y691016D01*
Y692032D01*
X2716017D01*
X2715002Y691016D01*
X2713986Y692032D01*
X2712969D01*
Y691016D01*
X2713986Y690000D01*
X2712969Y688984D01*
Y687968D01*
X2707969Y677968D02*
X2708986D01*
X2710002Y678984D01*
X2711017Y677968D01*
X2712033D01*
Y678984D01*
X2711017Y680000D01*
X2712033Y681016D01*
Y682032D01*
X2711017D01*
X2710002Y681016D01*
X2708986Y682032D01*
X2707969D01*
Y681016D01*
X2708986Y680000D01*
X2707969Y678984D01*
Y677968D01*
X2712969Y587968D02*
X2713986D01*
X2715002Y588984D01*
X2716017Y587968D01*
X2717033D01*
Y588984D01*
X2716017Y590000D01*
X2717033Y591016D01*
Y592032D01*
X2716017D01*
X2715002Y591016D01*
X2713986Y592032D01*
X2712969D01*
Y591016D01*
X2713986Y590000D01*
X2712969Y588984D01*
Y587968D01*
X2707969Y517968D02*
X2708986D01*
X2710002Y518984D01*
X2711017Y517968D01*
X2712033D01*
Y518984D01*
X2711017Y520000D01*
X2712033Y521016D01*
Y522032D01*
X2711017D01*
X2710002Y521016D01*
X2708986Y522032D01*
X2707969D01*
Y521016D01*
X2708986Y520000D01*
X2707969Y518984D01*
Y517968D01*
X2712969Y507968D02*
X2713986D01*
X2715002Y508984D01*
X2716017Y507968D01*
X2717033D01*
Y508984D01*
X2716017Y510000D01*
X2717033Y511016D01*
Y512032D01*
X2716017D01*
X2715002Y511016D01*
X2713986Y512032D01*
X2712969D01*
Y511016D01*
X2713986Y510000D01*
X2712969Y508984D01*
Y507968D01*
Y487968D02*
X2713986D01*
X2715002Y488984D01*
X2716017Y487968D01*
X2717033D01*
Y488984D01*
X2716017Y490000D01*
X2717033Y491016D01*
Y492032D01*
X2716017D01*
X2715002Y491016D01*
X2713986Y492032D01*
X2712969D01*
Y491016D01*
X2713986Y490000D01*
X2712969Y488984D01*
Y487968D01*
Y467968D02*
X2713986D01*
X2715002Y468984D01*
X2716017Y467968D01*
X2717033D01*
Y468984D01*
X2716017Y470000D01*
X2717033Y471016D01*
Y472032D01*
X2716017D01*
X2715002Y471016D01*
X2713986Y472032D01*
X2712969D01*
Y471016D01*
X2713986Y470000D01*
X2712969Y468984D01*
Y467968D01*
X2707969Y457968D02*
X2708986D01*
X2710002Y458984D01*
X2711017Y457968D01*
X2712033D01*
Y458984D01*
X2711017Y460000D01*
X2712033Y461016D01*
Y462032D01*
X2711017D01*
X2710002Y461016D01*
X2708986Y462032D01*
X2707969D01*
Y461016D01*
X2708986Y460000D01*
X2707969Y458984D01*
Y457968D01*
Y437968D02*
X2708986D01*
X2710002Y438984D01*
X2711017Y437968D01*
X2712033D01*
Y438984D01*
X2711017Y440000D01*
X2712033Y441016D01*
Y442032D01*
X2711017D01*
X2710002Y441016D01*
X2708986Y442032D01*
X2707969D01*
Y441016D01*
X2708986Y440000D01*
X2707969Y438984D01*
Y437968D01*
Y417968D02*
X2708986D01*
X2710002Y418984D01*
X2711017Y417968D01*
X2712033D01*
Y418984D01*
X2711017Y420000D01*
X2712033Y421016D01*
Y422032D01*
X2711017D01*
X2710002Y421016D01*
X2708986Y422032D01*
X2707969D01*
Y421016D01*
X2708986Y420000D01*
X2707969Y418984D01*
Y417968D01*
X2697969Y817968D02*
X2698986D01*
X2700002Y818984D01*
X2701017Y817968D01*
X2702033D01*
Y818984D01*
X2701017Y820000D01*
X2702033Y821016D01*
Y822032D01*
X2701017D01*
X2700002Y821016D01*
X2698986Y822032D01*
X2697969D01*
Y821016D01*
X2698986Y820000D01*
X2697969Y818984D01*
Y817968D01*
X2702969Y807968D02*
X2703985D01*
X2705002Y808984D01*
X2706017Y807968D01*
X2707033D01*
Y808984D01*
X2706017Y810000D01*
X2707033Y811016D01*
Y812032D01*
X2706017D01*
X2705002Y811016D01*
X2703985Y812032D01*
X2702969D01*
Y811016D01*
X2703985Y810000D01*
X2702969Y808984D01*
Y807968D01*
Y787968D02*
X2703985D01*
X2705002Y788984D01*
X2706017Y787968D01*
X2707033D01*
Y788984D01*
X2706017Y790000D01*
X2707033Y791016D01*
Y792032D01*
X2706017D01*
X2705002Y791016D01*
X2703985Y792032D01*
X2702969D01*
Y791016D01*
X2703985Y790000D01*
X2702969Y788984D01*
Y787968D01*
X2697969Y757968D02*
X2698986D01*
X2700002Y758984D01*
X2701017Y757968D01*
X2702033D01*
Y758984D01*
X2701017Y760000D01*
X2702033Y761016D01*
Y762032D01*
X2701017D01*
X2700002Y761016D01*
X2698986Y762032D01*
X2697969D01*
Y761016D01*
X2698986Y760000D01*
X2697969Y758984D01*
Y757968D01*
X2702969Y747968D02*
X2703985D01*
X2705002Y748984D01*
X2706017Y747968D01*
X2707033D01*
Y748984D01*
X2706017Y750000D01*
X2707033Y751016D01*
Y752032D01*
X2706017D01*
X2705002Y751016D01*
X2703985Y752032D01*
X2702969D01*
Y751016D01*
X2703985Y750000D01*
X2702969Y748984D01*
Y747968D01*
X2697969Y737968D02*
X2698986D01*
X2700002Y738984D01*
X2701017Y737968D01*
X2702033D01*
Y738984D01*
X2701017Y740000D01*
X2702033Y741016D01*
Y742032D01*
X2701017D01*
X2700002Y741016D01*
X2698986Y742032D01*
X2697969D01*
Y741016D01*
X2698986Y740000D01*
X2697969Y738984D01*
Y737968D01*
X2702969Y727968D02*
X2703985D01*
X2705002Y728984D01*
X2706017Y727968D01*
X2707033D01*
Y728984D01*
X2706017Y730000D01*
X2707033Y731016D01*
Y732032D01*
X2706017D01*
X2705002Y731016D01*
X2703985Y732032D01*
X2702969D01*
Y731016D01*
X2703985Y730000D01*
X2702969Y728984D01*
Y727968D01*
Y707968D02*
X2703985D01*
X2705002Y708984D01*
X2706017Y707968D01*
X2707033D01*
Y708984D01*
X2706017Y710000D01*
X2707033Y711016D01*
Y712032D01*
X2706017D01*
X2705002Y711016D01*
X2703985Y712032D01*
X2702969D01*
Y711016D01*
X2703985Y710000D01*
X2702969Y708984D01*
Y707968D01*
Y687968D02*
X2703985D01*
X2705002Y688984D01*
X2706017Y687968D01*
X2707033D01*
Y688984D01*
X2706017Y690000D01*
X2707033Y691016D01*
Y692032D01*
X2706017D01*
X2705002Y691016D01*
X2703985Y692032D01*
X2702969D01*
Y691016D01*
X2703985Y690000D01*
X2702969Y688984D01*
Y687968D01*
X2697969Y677968D02*
X2698986D01*
X2700002Y678984D01*
X2701017Y677968D01*
X2702033D01*
Y678984D01*
X2701017Y680000D01*
X2702033Y681016D01*
Y682032D01*
X2701017D01*
X2700002Y681016D01*
X2698986Y682032D01*
X2697969D01*
Y681016D01*
X2698986Y680000D01*
X2697969Y678984D01*
Y677968D01*
X2702969Y587968D02*
X2703985D01*
X2705002Y588984D01*
X2706017Y587968D01*
X2707033D01*
Y588984D01*
X2706017Y590000D01*
X2707033Y591016D01*
Y592032D01*
X2706017D01*
X2705002Y591016D01*
X2703985Y592032D01*
X2702969D01*
Y591016D01*
X2703985Y590000D01*
X2702969Y588984D01*
Y587968D01*
Y527968D02*
X2703985D01*
X2705002Y528984D01*
X2706017Y527968D01*
X2707033D01*
Y528984D01*
X2706017Y530000D01*
X2707033Y531016D01*
Y532032D01*
X2706017D01*
X2705002Y531016D01*
X2703985Y532032D01*
X2702969D01*
Y531016D01*
X2703985Y530000D01*
X2702969Y528984D01*
Y527968D01*
X2697969Y517968D02*
X2698986D01*
X2700002Y518984D01*
X2701017Y517968D01*
X2702033D01*
Y518984D01*
X2701017Y520000D01*
X2702033Y521016D01*
Y522032D01*
X2701017D01*
X2700002Y521016D01*
X2698986Y522032D01*
X2697969D01*
Y521016D01*
X2698986Y520000D01*
X2697969Y518984D01*
Y517968D01*
X2702969Y507968D02*
X2703985D01*
X2705002Y508984D01*
X2706017Y507968D01*
X2707033D01*
Y508984D01*
X2706017Y510000D01*
X2707033Y511016D01*
Y512032D01*
X2706017D01*
X2705002Y511016D01*
X2703985Y512032D01*
X2702969D01*
Y511016D01*
X2703985Y510000D01*
X2702969Y508984D01*
Y507968D01*
Y487968D02*
X2703985D01*
X2705002Y488984D01*
X2706017Y487968D01*
X2707033D01*
Y488984D01*
X2706017Y490000D01*
X2707033Y491016D01*
Y492032D01*
X2706017D01*
X2705002Y491016D01*
X2703985Y492032D01*
X2702969D01*
Y491016D01*
X2703985Y490000D01*
X2702969Y488984D01*
Y487968D01*
Y467968D02*
X2703985D01*
X2705002Y468984D01*
X2706017Y467968D01*
X2707033D01*
Y468984D01*
X2706017Y470000D01*
X2707033Y471016D01*
Y472032D01*
X2706017D01*
X2705002Y471016D01*
X2703985Y472032D01*
X2702969D01*
Y471016D01*
X2703985Y470000D01*
X2702969Y468984D01*
Y467968D01*
X2697969Y457968D02*
X2698986D01*
X2700002Y458984D01*
X2701017Y457968D01*
X2702033D01*
Y458984D01*
X2701017Y460000D01*
X2702033Y461016D01*
Y462032D01*
X2701017D01*
X2700002Y461016D01*
X2698986Y462032D01*
X2697969D01*
Y461016D01*
X2698986Y460000D01*
X2697969Y458984D01*
Y457968D01*
X2702969Y407968D02*
X2703985D01*
X2705002Y408984D01*
X2706017Y407968D01*
X2707033D01*
Y408984D01*
X2706017Y410000D01*
X2707033Y411016D01*
Y412032D01*
X2706017D01*
X2705002Y411016D01*
X2703985Y412032D01*
X2702969D01*
Y411016D01*
X2703985Y410000D01*
X2702969Y408984D01*
Y407968D01*
X2687969Y757968D02*
X2688986D01*
X2690002Y758984D01*
X2691017Y757968D01*
X2692033D01*
Y758984D01*
X2691017Y760000D01*
X2692033Y761016D01*
Y762032D01*
X2691017D01*
X2690002Y761016D01*
X2688986Y762032D01*
X2687969D01*
Y761016D01*
X2688986Y760000D01*
X2687969Y758984D01*
Y757968D01*
X2692969Y747968D02*
X2693985D01*
X2695002Y748984D01*
X2696017Y747968D01*
X2697033D01*
Y748984D01*
X2696017Y750000D01*
X2697033Y751016D01*
Y752032D01*
X2696017D01*
X2695002Y751016D01*
X2693985Y752032D01*
X2692969D01*
Y751016D01*
X2693985Y750000D01*
X2692969Y748984D01*
Y747968D01*
X2677969Y837969D02*
X2678985D01*
X2680002Y838985D01*
X2681017Y837969D01*
X2682033D01*
Y838985D01*
X2681017Y840001D01*
X2682033Y841016D01*
Y842032D01*
X2681017D01*
X2680002Y841016D01*
X2678985Y842032D01*
X2677969D01*
Y841016D01*
X2678985Y840001D01*
X2677969Y838985D01*
Y837969D01*
X2682969Y827968D02*
X2683985D01*
X2685002Y828984D01*
X2686017Y827968D01*
X2687033D01*
Y828984D01*
X2686017Y830000D01*
X2687033Y831016D01*
Y832032D01*
X2686017D01*
X2685002Y831016D01*
X2683985Y832032D01*
X2682969D01*
Y831016D01*
X2683985Y830000D01*
X2682969Y828984D01*
Y827968D01*
X2677969Y817968D02*
X2678985D01*
X2680002Y818984D01*
X2681017Y817968D01*
X2682033D01*
Y818984D01*
X2681017Y820000D01*
X2682033Y821016D01*
Y822032D01*
X2681017D01*
X2680002Y821016D01*
X2678985Y822032D01*
X2677969D01*
Y821016D01*
X2678985Y820000D01*
X2677969Y818984D01*
Y817968D01*
X2682969Y807968D02*
X2683985D01*
X2685002Y808984D01*
X2686017Y807968D01*
X2687033D01*
Y808984D01*
X2686017Y810000D01*
X2687033Y811016D01*
Y812032D01*
X2686017D01*
X2685002Y811016D01*
X2683985Y812032D01*
X2682969D01*
Y811016D01*
X2683985Y810000D01*
X2682969Y808984D01*
Y807968D01*
Y767968D02*
X2683985D01*
X2685002Y768984D01*
X2686017Y767968D01*
X2687033D01*
Y768984D01*
X2686017Y770000D01*
X2687033Y771016D01*
Y772032D01*
X2686017D01*
X2685002Y771016D01*
X2683985Y772032D01*
X2682969D01*
Y771016D01*
X2683985Y770000D01*
X2682969Y768984D01*
Y767968D01*
X2677969Y757968D02*
X2678985D01*
X2680002Y758984D01*
X2681017Y757968D01*
X2682033D01*
Y758984D01*
X2681017Y760000D01*
X2682033Y761016D01*
Y762032D01*
X2681017D01*
X2680002Y761016D01*
X2678985Y762032D01*
X2677969D01*
Y761016D01*
X2678985Y760000D01*
X2677969Y758984D01*
Y757968D01*
Y717968D02*
X2678985D01*
X2680002Y718984D01*
X2681017Y717968D01*
X2682033D01*
Y718984D01*
X2681017Y720000D01*
X2682033Y721016D01*
Y722032D01*
X2681017D01*
X2680002Y721016D01*
X2678985Y722032D01*
X2677969D01*
Y721016D01*
X2678985Y720000D01*
X2677969Y718984D01*
Y717968D01*
X2667969Y757968D02*
X2668985D01*
X2670002Y758984D01*
X2671017Y757968D01*
X2672033D01*
Y758984D01*
X2671017Y760000D01*
X2672033Y761016D01*
Y762032D01*
X2671017D01*
X2670002Y761016D01*
X2668985Y762032D01*
X2667969D01*
Y761016D01*
X2668985Y760000D01*
X2667969Y758984D01*
Y757968D01*
X2672969Y747968D02*
X2673985D01*
X2675002Y748984D01*
X2676017Y747968D01*
X2677033D01*
Y748984D01*
X2676017Y750000D01*
X2677033Y751016D01*
Y752032D01*
X2676017D01*
X2675002Y751016D01*
X2673985Y752032D01*
X2672969D01*
Y751016D01*
X2673985Y750000D01*
X2672969Y748984D01*
Y747968D01*
X2667969Y717968D02*
X2668985D01*
X2670002Y718984D01*
X2671017Y717968D01*
X2672033D01*
Y718984D01*
X2671017Y720000D01*
X2672033Y721016D01*
Y722032D01*
X2671017D01*
X2670002Y721016D01*
X2668985Y722032D01*
X2667969D01*
Y721016D01*
X2668985Y720000D01*
X2667969Y718984D01*
Y717968D01*
X2662969Y847969D02*
X2663985D01*
X2665002Y848985D01*
X2666017Y847969D01*
X2667033D01*
Y848985D01*
X2666017Y850001D01*
X2667033Y851016D01*
Y852032D01*
X2666017D01*
X2665002Y851016D01*
X2663985Y852032D01*
X2662969D01*
Y851016D01*
X2663985Y850001D01*
X2662969Y848985D01*
Y847969D01*
Y827968D02*
X2663985D01*
X2665002Y828984D01*
X2666017Y827968D01*
X2667033D01*
Y828984D01*
X2666017Y830000D01*
X2667033Y831016D01*
Y832032D01*
X2666017D01*
X2665002Y831016D01*
X2663985Y832032D01*
X2662969D01*
Y831016D01*
X2663985Y830000D01*
X2662969Y828984D01*
Y827968D01*
X2647969Y677968D02*
X2648985D01*
X2650002Y678984D01*
X2651017Y677968D01*
X2652033D01*
Y678984D01*
X2651017Y680000D01*
X2652033Y681016D01*
Y682032D01*
X2651017D01*
X2650002Y681016D01*
X2648985Y682032D01*
X2647969D01*
Y681016D01*
X2648985Y680000D01*
X2647969Y678984D01*
Y677968D01*
Y497968D02*
X2648985D01*
X2650002Y498984D01*
X2651017Y497968D01*
X2652033D01*
Y498984D01*
X2651017Y500000D01*
X2652033Y501016D01*
Y502032D01*
X2651017D01*
X2650002Y501016D01*
X2648985Y502032D01*
X2647969D01*
Y501016D01*
X2648985Y500000D01*
X2647969Y498984D01*
Y497968D01*
X2652969Y367968D02*
X2653985D01*
X2655002Y368984D01*
X2656017Y367968D01*
X2657033D01*
Y368984D01*
X2656017Y370000D01*
X2657033Y371016D01*
Y372032D01*
X2656017D01*
X2655002Y371016D01*
X2653985Y372032D01*
X2652969D01*
Y371016D01*
X2653985Y370000D01*
X2652969Y368984D01*
Y367968D01*
X2642969Y807968D02*
X2643985D01*
X2645002Y808984D01*
X2646017Y807968D01*
X2647033D01*
Y808984D01*
X2646017Y810000D01*
X2647033Y811016D01*
Y812032D01*
X2646017D01*
X2645002Y811016D01*
X2643985Y812032D01*
X2642969D01*
Y811016D01*
X2643985Y810000D01*
X2642969Y808984D01*
Y807968D01*
Y727968D02*
X2643985D01*
X2645002Y728984D01*
X2646017Y727968D01*
X2647033D01*
Y728984D01*
X2646017Y730000D01*
X2647033Y731016D01*
Y732032D01*
X2646017D01*
X2645002Y731016D01*
X2643985Y732032D01*
X2642969D01*
Y731016D01*
X2643985Y730000D01*
X2642969Y728984D01*
Y727968D01*
Y507968D02*
X2643985D01*
X2645002Y508984D01*
X2646017Y507968D01*
X2647033D01*
Y508984D01*
X2646017Y510000D01*
X2647033Y511016D01*
Y512032D01*
X2646017D01*
X2645002Y511016D01*
X2643985Y512032D01*
X2642969D01*
Y511016D01*
X2643985Y510000D01*
X2642969Y508984D01*
Y507968D01*
X2637969Y497968D02*
X2638985D01*
X2640002Y498984D01*
X2641017Y497968D01*
X2642033D01*
Y498984D01*
X2641017Y500000D01*
X2642033Y501016D01*
Y502032D01*
X2641017D01*
X2640002Y501016D01*
X2638985Y502032D01*
X2637969D01*
Y501016D01*
X2638985Y500000D01*
X2637969Y498984D01*
Y497968D01*
X2627969Y857969D02*
X2628985D01*
X2630002Y858985D01*
X2631017Y857969D01*
X2632033D01*
Y858985D01*
X2631017Y860001D01*
X2632033Y861016D01*
Y862032D01*
X2631017D01*
X2630002Y861016D01*
X2628985Y862032D01*
X2627969D01*
Y861016D01*
X2628985Y860001D01*
X2627969Y858985D01*
Y857969D01*
Y517968D02*
X2628985D01*
X2630002Y518984D01*
X2631017Y517968D01*
X2632033D01*
Y518984D01*
X2631017Y520000D01*
X2632033Y521016D01*
Y522032D01*
X2631017D01*
X2630002Y521016D01*
X2628985Y522032D01*
X2627969D01*
Y521016D01*
X2628985Y520000D01*
X2627969Y518984D01*
Y517968D01*
X2632969Y507968D02*
X2633985D01*
X2635002Y508984D01*
X2636017Y507968D01*
X2637033D01*
Y508984D01*
X2636017Y510000D01*
X2637033Y511016D01*
Y512032D01*
X2636017D01*
X2635002Y511016D01*
X2633985Y512032D01*
X2632969D01*
Y511016D01*
X2633985Y510000D01*
X2632969Y508984D01*
Y507968D01*
X2627969Y497968D02*
X2628985D01*
X2630002Y498984D01*
X2631017Y497968D01*
X2632033D01*
Y498984D01*
X2631017Y500000D01*
X2632033Y501016D01*
Y502032D01*
X2631017D01*
X2630002Y501016D01*
X2628985Y502032D01*
X2627969D01*
Y501016D01*
X2628985Y500000D01*
X2627969Y498984D01*
Y497968D01*
X2617969Y857969D02*
X2618985D01*
X2620002Y858985D01*
X2621017Y857969D01*
X2622033D01*
Y858985D01*
X2621017Y860001D01*
X2622033Y861016D01*
Y862032D01*
X2621017D01*
X2620002Y861016D01*
X2618985Y862032D01*
X2617969D01*
Y861016D01*
X2618985Y860001D01*
X2617969Y858985D01*
Y857969D01*
Y757968D02*
X2618985D01*
X2620002Y758984D01*
X2621017Y757968D01*
X2622033D01*
Y758984D01*
X2621017Y760000D01*
X2622033Y761016D01*
Y762032D01*
X2621017D01*
X2620002Y761016D01*
X2618985Y762032D01*
X2617969D01*
Y761016D01*
X2618985Y760000D01*
X2617969Y758984D01*
Y757968D01*
X2622969Y747968D02*
X2623985D01*
X2625002Y748984D01*
X2626017Y747968D01*
X2627033D01*
Y748984D01*
X2626017Y750000D01*
X2627033Y751016D01*
Y752032D01*
X2626017D01*
X2625002Y751016D01*
X2623985Y752032D01*
X2622969D01*
Y751016D01*
X2623985Y750000D01*
X2622969Y748984D01*
Y747968D01*
Y507968D02*
X2623985D01*
X2625002Y508984D01*
X2626017Y507968D01*
X2627033D01*
Y508984D01*
X2626017Y510000D01*
X2627033Y511016D01*
Y512032D01*
X2626017D01*
X2625002Y511016D01*
X2623985Y512032D01*
X2622969D01*
Y511016D01*
X2623985Y510000D01*
X2622969Y508984D01*
Y507968D01*
Y367968D02*
X2623985D01*
X2625002Y368984D01*
X2626017Y367968D01*
X2627033D01*
Y368984D01*
X2626017Y370000D01*
X2627033Y371016D01*
Y372032D01*
X2626017D01*
X2625002Y371016D01*
X2623985Y372032D01*
X2622969D01*
Y371016D01*
X2623985Y370000D01*
X2622969Y368984D01*
Y367968D01*
X2607969Y857969D02*
X2608985D01*
X2610002Y858985D01*
X2611017Y857969D01*
X2612033D01*
Y858985D01*
X2611017Y860001D01*
X2612033Y861016D01*
Y862032D01*
X2611017D01*
X2610002Y861016D01*
X2608985Y862032D01*
X2607969D01*
Y861016D01*
X2608985Y860001D01*
X2607969Y858985D01*
Y857969D01*
Y597968D02*
X2608985D01*
X2610002Y598984D01*
X2611017Y597968D01*
X2612033D01*
Y598984D01*
X2611017Y600000D01*
X2612033Y601016D01*
Y602032D01*
X2611017D01*
X2610002Y601016D01*
X2608985Y602032D01*
X2607969D01*
Y601016D01*
X2608985Y600000D01*
X2607969Y598984D01*
Y597968D01*
X2612969Y367968D02*
X2613985D01*
X2615002Y368984D01*
X2616017Y367968D01*
X2617033D01*
Y368984D01*
X2616017Y370000D01*
X2617033Y371016D01*
Y372032D01*
X2616017D01*
X2615002Y371016D01*
X2613985Y372032D01*
X2612969D01*
Y371016D01*
X2613985Y370000D01*
X2612969Y368984D01*
Y367968D01*
X2602969Y867969D02*
X2603985D01*
X2605002Y868985D01*
X2606017Y867969D01*
X2607033D01*
Y868985D01*
X2606017Y870001D01*
X2607033Y871016D01*
Y872032D01*
X2606017D01*
X2605002Y871016D01*
X2603985Y872032D01*
X2602969D01*
Y871016D01*
X2603985Y870001D01*
X2602969Y868985D01*
Y867969D01*
X2597969Y857969D02*
X2598985D01*
X2600002Y858985D01*
X2601017Y857969D01*
X2602033D01*
Y858985D01*
X2601017Y860001D01*
X2602033Y861016D01*
Y862032D01*
X2601017D01*
X2600002Y861016D01*
X2598985Y862032D01*
X2597969D01*
Y861016D01*
X2598985Y860001D01*
X2597969Y858985D01*
Y857969D01*
X2602969Y847969D02*
X2603985D01*
X2605002Y848985D01*
X2606017Y847969D01*
X2607033D01*
Y848985D01*
X2606017Y850001D01*
X2607033Y851016D01*
Y852032D01*
X2606017D01*
X2605002Y851016D01*
X2603985Y852032D01*
X2602969D01*
Y851016D01*
X2603985Y850001D01*
X2602969Y848985D01*
Y847969D01*
X2597969Y757968D02*
X2598985D01*
X2600002Y758984D01*
X2601017Y757968D01*
X2602033D01*
Y758984D01*
X2601017Y760000D01*
X2602033Y761016D01*
Y762032D01*
X2601017D01*
X2600002Y761016D01*
X2598985Y762032D01*
X2597969D01*
Y761016D01*
X2598985Y760000D01*
X2597969Y758984D01*
Y757968D01*
Y417968D02*
X2598985D01*
X2600002Y418984D01*
X2601017Y417968D01*
X2602033D01*
Y418984D01*
X2601017Y420000D01*
X2602033Y421016D01*
Y422032D01*
X2601017D01*
X2600002Y421016D01*
X2598985Y422032D01*
X2597969D01*
Y421016D01*
X2598985Y420000D01*
X2597969Y418984D01*
Y417968D01*
X2602969Y367968D02*
X2603985D01*
X2605002Y368984D01*
X2606017Y367968D01*
X2607033D01*
Y368984D01*
X2606017Y370000D01*
X2607033Y371016D01*
Y372032D01*
X2606017D01*
X2605002Y371016D01*
X2603985Y372032D01*
X2602969D01*
Y371016D01*
X2603985Y370000D01*
X2602969Y368984D01*
Y367968D01*
X2592969Y867969D02*
X2593985D01*
X2595002Y868985D01*
X2596017Y867969D01*
X2597033D01*
Y868985D01*
X2596017Y870001D01*
X2597033Y871016D01*
Y872032D01*
X2596017D01*
X2595002Y871016D01*
X2593985Y872032D01*
X2592969D01*
Y871016D01*
X2593985Y870001D01*
X2592969Y868985D01*
Y867969D01*
X2587969Y777968D02*
X2588985D01*
X2590002Y778984D01*
X2591017Y777968D01*
X2592033D01*
Y778984D01*
X2591017Y780000D01*
X2592033Y781016D01*
Y782032D01*
X2591017D01*
X2590002Y781016D01*
X2588985Y782032D01*
X2587969D01*
Y781016D01*
X2588985Y780000D01*
X2587969Y778984D01*
Y777968D01*
X2592969Y767968D02*
X2593985D01*
X2595002Y768984D01*
X2596017Y767968D01*
X2597033D01*
Y768984D01*
X2596017Y770000D01*
X2597033Y771016D01*
Y772032D01*
X2596017D01*
X2595002Y771016D01*
X2593985Y772032D01*
X2592969D01*
Y771016D01*
X2593985Y770000D01*
X2592969Y768984D01*
Y767968D01*
X2587969Y757968D02*
X2588985D01*
X2590002Y758984D01*
X2591017Y757968D01*
X2592033D01*
Y758984D01*
X2591017Y760000D01*
X2592033Y761016D01*
Y762032D01*
X2591017D01*
X2590002Y761016D01*
X2588985Y762032D01*
X2587969D01*
Y761016D01*
X2588985Y760000D01*
X2587969Y758984D01*
Y757968D01*
X2592969Y747968D02*
X2593985D01*
X2595002Y748984D01*
X2596017Y747968D01*
X2597033D01*
Y748984D01*
X2596017Y750000D01*
X2597033Y751016D01*
Y752032D01*
X2596017D01*
X2595002Y751016D01*
X2593985Y752032D01*
X2592969D01*
Y751016D01*
X2593985Y750000D01*
X2592969Y748984D01*
Y747968D01*
Y647968D02*
X2593985D01*
X2595002Y648984D01*
X2596017Y647968D01*
X2597033D01*
Y648984D01*
X2596017Y650000D01*
X2597033Y651016D01*
Y652032D01*
X2596017D01*
X2595002Y651016D01*
X2593985Y652032D01*
X2592969D01*
Y651016D01*
X2593985Y650000D01*
X2592969Y648984D01*
Y647968D01*
X2587969Y637968D02*
X2588985D01*
X2590002Y638984D01*
X2591017Y637968D01*
X2592033D01*
Y638984D01*
X2591017Y640000D01*
X2592033Y641016D01*
Y642032D01*
X2591017D01*
X2590002Y641016D01*
X2588985Y642032D01*
X2587969D01*
Y641016D01*
X2588985Y640000D01*
X2587969Y638984D01*
Y637968D01*
Y597968D02*
X2588985D01*
X2590002Y598984D01*
X2591017Y597968D01*
X2592033D01*
Y598984D01*
X2591017Y600000D01*
X2592033Y601016D01*
Y602032D01*
X2591017D01*
X2590002Y601016D01*
X2588985Y602032D01*
X2587969D01*
Y601016D01*
X2588985Y600000D01*
X2587969Y598984D01*
Y597968D01*
Y417968D02*
X2588985D01*
X2590002Y418984D01*
X2591017Y417968D01*
X2592033D01*
Y418984D01*
X2591017Y420000D01*
X2592033Y421016D01*
Y422032D01*
X2591017D01*
X2590002Y421016D01*
X2588985Y422032D01*
X2587969D01*
Y421016D01*
X2588985Y420000D01*
X2587969Y418984D01*
Y417968D01*
X2577969Y777968D02*
X2578985D01*
X2580002Y778984D01*
X2581017Y777968D01*
X2582033D01*
Y778984D01*
X2581017Y780000D01*
X2582033Y781016D01*
Y782032D01*
X2581017D01*
X2580002Y781016D01*
X2578985Y782032D01*
X2577969D01*
Y781016D01*
X2578985Y780000D01*
X2577969Y778984D01*
Y777968D01*
X2582969Y767968D02*
X2583985D01*
X2585002Y768984D01*
X2586017Y767968D01*
X2587033D01*
Y768984D01*
X2586017Y770000D01*
X2587033Y771016D01*
Y772032D01*
X2586017D01*
X2585002Y771016D01*
X2583985Y772032D01*
X2582969D01*
Y771016D01*
X2583985Y770000D01*
X2582969Y768984D01*
Y767968D01*
X2577969Y757968D02*
X2578985D01*
X2580002Y758984D01*
X2581017Y757968D01*
X2582033D01*
Y758984D01*
X2581017Y760000D01*
X2582033Y761016D01*
Y762032D01*
X2581017D01*
X2580002Y761016D01*
X2578985Y762032D01*
X2577969D01*
Y761016D01*
X2578985Y760000D01*
X2577969Y758984D01*
Y757968D01*
X2582969Y647968D02*
X2583985D01*
X2585002Y648984D01*
X2586017Y647968D01*
X2587033D01*
Y648984D01*
X2586017Y650000D01*
X2587033Y651016D01*
Y652032D01*
X2586017D01*
X2585002Y651016D01*
X2583985Y652032D01*
X2582969D01*
Y651016D01*
X2583985Y650000D01*
X2582969Y648984D01*
Y647968D01*
X2577969Y637968D02*
X2578985D01*
X2580002Y638984D01*
X2581017Y637968D01*
X2582033D01*
Y638984D01*
X2581017Y640000D01*
X2582033Y641016D01*
Y642032D01*
X2581017D01*
X2580002Y641016D01*
X2578985Y642032D01*
X2577969D01*
Y641016D01*
X2578985Y640000D01*
X2577969Y638984D01*
Y637968D01*
Y597968D02*
X2578985D01*
X2580002Y598984D01*
X2581017Y597968D01*
X2582033D01*
Y598984D01*
X2581017Y600000D01*
X2582033Y601016D01*
Y602032D01*
X2581017D01*
X2580002Y601016D01*
X2578985Y602032D01*
X2577969D01*
Y601016D01*
X2578985Y600000D01*
X2577969Y598984D01*
Y597968D01*
X2582969Y587968D02*
X2583985D01*
X2585002Y588984D01*
X2586017Y587968D01*
X2587033D01*
Y588984D01*
X2586017Y590000D01*
X2587033Y591016D01*
Y592032D01*
X2586017D01*
X2585002Y591016D01*
X2583985Y592032D01*
X2582969D01*
Y591016D01*
X2583985Y590000D01*
X2582969Y588984D01*
Y587968D01*
X2577969Y577968D02*
X2578985D01*
X2580002Y578984D01*
X2581017Y577968D01*
X2582033D01*
Y578984D01*
X2581017Y580000D01*
X2582033Y581016D01*
Y582032D01*
X2581017D01*
X2580002Y581016D01*
X2578985Y582032D01*
X2577969D01*
Y581016D01*
X2578985Y580000D01*
X2577969Y578984D01*
Y577968D01*
X2567969Y857969D02*
X2568985D01*
X2570002Y858985D01*
X2571017Y857969D01*
X2572033D01*
Y858985D01*
X2571017Y860001D01*
X2572033Y861016D01*
Y862032D01*
X2571017D01*
X2570002Y861016D01*
X2568985Y862032D01*
X2567969D01*
Y861016D01*
X2568985Y860001D01*
X2567969Y858985D01*
Y857969D01*
Y777968D02*
X2568985D01*
X2570002Y778984D01*
X2571017Y777968D01*
X2572033D01*
Y778984D01*
X2571017Y780000D01*
X2572033Y781016D01*
Y782032D01*
X2571017D01*
X2570002Y781016D01*
X2568985Y782032D01*
X2567969D01*
Y781016D01*
X2568985Y780000D01*
X2567969Y778984D01*
Y777968D01*
X2572969Y767968D02*
X2573985D01*
X2575002Y768984D01*
X2576017Y767968D01*
X2577033D01*
Y768984D01*
X2576017Y770000D01*
X2577033Y771016D01*
Y772032D01*
X2576017D01*
X2575002Y771016D01*
X2573985Y772032D01*
X2572969D01*
Y771016D01*
X2573985Y770000D01*
X2572969Y768984D01*
Y767968D01*
X2567969Y757968D02*
X2568985D01*
X2570002Y758984D01*
X2571017Y757968D01*
X2572033D01*
Y758984D01*
X2571017Y760000D01*
X2572033Y761016D01*
Y762032D01*
X2571017D01*
X2570002Y761016D01*
X2568985Y762032D01*
X2567969D01*
Y761016D01*
X2568985Y760000D01*
X2567969Y758984D01*
Y757968D01*
X2572969Y647968D02*
X2573985D01*
X2575002Y648984D01*
X2576017Y647968D01*
X2577033D01*
Y648984D01*
X2576017Y650000D01*
X2577033Y651016D01*
Y652032D01*
X2576017D01*
X2575002Y651016D01*
X2573985Y652032D01*
X2572969D01*
Y651016D01*
X2573985Y650000D01*
X2572969Y648984D01*
Y647968D01*
X2567969Y637968D02*
X2568985D01*
X2570002Y638984D01*
X2571017Y637968D01*
X2572033D01*
Y638984D01*
X2571017Y640000D01*
X2572033Y641016D01*
Y642032D01*
X2571017D01*
X2570002Y641016D01*
X2568985Y642032D01*
X2567969D01*
Y641016D01*
X2568985Y640000D01*
X2567969Y638984D01*
Y637968D01*
Y597968D02*
X2568985D01*
X2570002Y598984D01*
X2571017Y597968D01*
X2572033D01*
Y598984D01*
X2571017Y600000D01*
X2572033Y601016D01*
Y602032D01*
X2571017D01*
X2570002Y601016D01*
X2568985Y602032D01*
X2567969D01*
Y601016D01*
X2568985Y600000D01*
X2567969Y598984D01*
Y597968D01*
X2572969Y587968D02*
X2573985D01*
X2575002Y588984D01*
X2576017Y587968D01*
X2577033D01*
Y588984D01*
X2576017Y590000D01*
X2577033Y591016D01*
Y592032D01*
X2576017D01*
X2575002Y591016D01*
X2573985Y592032D01*
X2572969D01*
Y591016D01*
X2573985Y590000D01*
X2572969Y588984D01*
Y587968D01*
X2567969Y577968D02*
X2568985D01*
X2570002Y578984D01*
X2571017Y577968D01*
X2572033D01*
Y578984D01*
X2571017Y580000D01*
X2572033Y581016D01*
Y582032D01*
X2571017D01*
X2570002Y581016D01*
X2568985Y582032D01*
X2567969D01*
Y581016D01*
X2568985Y580000D01*
X2567969Y578984D01*
Y577968D01*
X2557969Y857969D02*
X2558985D01*
X2560002Y858985D01*
X2561017Y857969D01*
X2562033D01*
Y858985D01*
X2561017Y860001D01*
X2562033Y861016D01*
Y862032D01*
X2561017D01*
X2560002Y861016D01*
X2558985Y862032D01*
X2557969D01*
Y861016D01*
X2558985Y860001D01*
X2557969Y858985D01*
Y857969D01*
Y817968D02*
X2558985D01*
X2560002Y818984D01*
X2561017Y817968D01*
X2562033D01*
Y818984D01*
X2561017Y820000D01*
X2562033Y821016D01*
Y822032D01*
X2561017D01*
X2560002Y821016D01*
X2558985Y822032D01*
X2557969D01*
Y821016D01*
X2558985Y820000D01*
X2557969Y818984D01*
Y817968D01*
Y777968D02*
X2558985D01*
X2560002Y778984D01*
X2561017Y777968D01*
X2562033D01*
Y778984D01*
X2561017Y780000D01*
X2562033Y781016D01*
Y782032D01*
X2561017D01*
X2560002Y781016D01*
X2558985Y782032D01*
X2557969D01*
Y781016D01*
X2558985Y780000D01*
X2557969Y778984D01*
Y777968D01*
X2562969Y767968D02*
X2563985D01*
X2565002Y768984D01*
X2566017Y767968D01*
X2567033D01*
Y768984D01*
X2566017Y770000D01*
X2567033Y771016D01*
Y772032D01*
X2566017D01*
X2565002Y771016D01*
X2563985Y772032D01*
X2562969D01*
Y771016D01*
X2563985Y770000D01*
X2562969Y768984D01*
Y767968D01*
X2557969Y757968D02*
X2558985D01*
X2560002Y758984D01*
X2561017Y757968D01*
X2562033D01*
Y758984D01*
X2561017Y760000D01*
X2562033Y761016D01*
Y762032D01*
X2561017D01*
X2560002Y761016D01*
X2558985Y762032D01*
X2557969D01*
Y761016D01*
X2558985Y760000D01*
X2557969Y758984D01*
Y757968D01*
X2562969Y647968D02*
X2563985D01*
X2565002Y648984D01*
X2566017Y647968D01*
X2567033D01*
Y648984D01*
X2566017Y650000D01*
X2567033Y651016D01*
Y652032D01*
X2566017D01*
X2565002Y651016D01*
X2563985Y652032D01*
X2562969D01*
Y651016D01*
X2563985Y650000D01*
X2562969Y648984D01*
Y647968D01*
X2557969Y637968D02*
X2558985D01*
X2560002Y638984D01*
X2561017Y637968D01*
X2562033D01*
Y638984D01*
X2561017Y640000D01*
X2562033Y641016D01*
Y642032D01*
X2561017D01*
X2560002Y641016D01*
X2558985Y642032D01*
X2557969D01*
Y641016D01*
X2558985Y640000D01*
X2557969Y638984D01*
Y637968D01*
Y597968D02*
X2558985D01*
X2560002Y598984D01*
X2561017Y597968D01*
X2562033D01*
Y598984D01*
X2561017Y600000D01*
X2562033Y601016D01*
Y602032D01*
X2561017D01*
X2560002Y601016D01*
X2558985Y602032D01*
X2557969D01*
Y601016D01*
X2558985Y600000D01*
X2557969Y598984D01*
Y597968D01*
X2562969Y587968D02*
X2563985D01*
X2565002Y588984D01*
X2566017Y587968D01*
X2567033D01*
Y588984D01*
X2566017Y590000D01*
X2567033Y591016D01*
Y592032D01*
X2566017D01*
X2565002Y591016D01*
X2563985Y592032D01*
X2562969D01*
Y591016D01*
X2563985Y590000D01*
X2562969Y588984D01*
Y587968D01*
X2557969Y577968D02*
X2558985D01*
X2560002Y578984D01*
X2561017Y577968D01*
X2562033D01*
Y578984D01*
X2561017Y580000D01*
X2562033Y581016D01*
Y582032D01*
X2561017D01*
X2560002Y581016D01*
X2558985Y582032D01*
X2557969D01*
Y581016D01*
X2558985Y580000D01*
X2557969Y578984D01*
Y577968D01*
Y357968D02*
X2558985D01*
X2560002Y358984D01*
X2561017Y357968D01*
X2562033D01*
Y358984D01*
X2561017Y360000D01*
X2562033Y361016D01*
Y362032D01*
X2561017D01*
X2560002Y361016D01*
X2558985Y362032D01*
X2557969D01*
Y361016D01*
X2558985Y360000D01*
X2557969Y358984D01*
Y357968D01*
X2552969Y847969D02*
X2553985D01*
X2555001Y848985D01*
X2556017Y847969D01*
X2557033D01*
Y848985D01*
X2556017Y850001D01*
X2557033Y851016D01*
Y852032D01*
X2556017D01*
X2555001Y851016D01*
X2553985Y852032D01*
X2552969D01*
Y851016D01*
X2553985Y850001D01*
X2552969Y848985D01*
Y847969D01*
X2547969Y817968D02*
X2548985D01*
X2550001Y818984D01*
X2551017Y817968D01*
X2552033D01*
Y818984D01*
X2551017Y820000D01*
X2552033Y821016D01*
Y822032D01*
X2551017D01*
X2550001Y821016D01*
X2548985Y822032D01*
X2547969D01*
Y821016D01*
X2548985Y820000D01*
X2547969Y818984D01*
Y817968D01*
X2552969Y787968D02*
X2553985D01*
X2555001Y788984D01*
X2556017Y787968D01*
X2557033D01*
Y788984D01*
X2556017Y790000D01*
X2557033Y791016D01*
Y792032D01*
X2556017D01*
X2555001Y791016D01*
X2553985Y792032D01*
X2552969D01*
Y791016D01*
X2553985Y790000D01*
X2552969Y788984D01*
Y787968D01*
Y767968D02*
X2553985D01*
X2555001Y768984D01*
X2556017Y767968D01*
X2557033D01*
Y768984D01*
X2556017Y770000D01*
X2557033Y771016D01*
Y772032D01*
X2556017D01*
X2555001Y771016D01*
X2553985Y772032D01*
X2552969D01*
Y771016D01*
X2553985Y770000D01*
X2552969Y768984D01*
Y767968D01*
Y647968D02*
X2553985D01*
X2555001Y648984D01*
X2556017Y647968D01*
X2557033D01*
Y648984D01*
X2556017Y650000D01*
X2557033Y651016D01*
Y652032D01*
X2556017D01*
X2555001Y651016D01*
X2553985Y652032D01*
X2552969D01*
Y651016D01*
X2553985Y650000D01*
X2552969Y648984D01*
Y647968D01*
X2547969Y637968D02*
X2548985D01*
X2550001Y638984D01*
X2551017Y637968D01*
X2552033D01*
Y638984D01*
X2551017Y640000D01*
X2552033Y641016D01*
Y642032D01*
X2551017D01*
X2550001Y641016D01*
X2548985Y642032D01*
X2547969D01*
Y641016D01*
X2548985Y640000D01*
X2547969Y638984D01*
Y637968D01*
Y597968D02*
X2548985D01*
X2550001Y598984D01*
X2551017Y597968D01*
X2552033D01*
Y598984D01*
X2551017Y600000D01*
X2552033Y601016D01*
Y602032D01*
X2551017D01*
X2550001Y601016D01*
X2548985Y602032D01*
X2547969D01*
Y601016D01*
X2548985Y600000D01*
X2547969Y598984D01*
Y597968D01*
X2552969Y587968D02*
X2553985D01*
X2555001Y588984D01*
X2556017Y587968D01*
X2557033D01*
Y588984D01*
X2556017Y590000D01*
X2557033Y591016D01*
Y592032D01*
X2556017D01*
X2555001Y591016D01*
X2553985Y592032D01*
X2552969D01*
Y591016D01*
X2553985Y590000D01*
X2552969Y588984D01*
Y587968D01*
X2547969Y577968D02*
X2548985D01*
X2550001Y578984D01*
X2551017Y577968D01*
X2552033D01*
Y578984D01*
X2551017Y580000D01*
X2552033Y581016D01*
Y582032D01*
X2551017D01*
X2550001Y581016D01*
X2548985Y582032D01*
X2547969D01*
Y581016D01*
X2548985Y580000D01*
X2547969Y578984D01*
Y577968D01*
X2537969Y817968D02*
X2538985D01*
X2540001Y818984D01*
X2541017Y817968D01*
X2542033D01*
Y818984D01*
X2541017Y820000D01*
X2542033Y821016D01*
Y822032D01*
X2541017D01*
X2540001Y821016D01*
X2538985Y822032D01*
X2537969D01*
Y821016D01*
X2538985Y820000D01*
X2537969Y818984D01*
Y817968D01*
Y777968D02*
X2538985D01*
X2540001Y778984D01*
X2541017Y777968D01*
X2542033D01*
Y778984D01*
X2541017Y780000D01*
X2542033Y781016D01*
Y782032D01*
X2541017D01*
X2540001Y781016D01*
X2538985Y782032D01*
X2537969D01*
Y781016D01*
X2538985Y780000D01*
X2537969Y778984D01*
Y777968D01*
Y757968D02*
X2538985D01*
X2540001Y758984D01*
X2541017Y757968D01*
X2542033D01*
Y758984D01*
X2541017Y760000D01*
X2542033Y761016D01*
Y762032D01*
X2541017D01*
X2540001Y761016D01*
X2538985Y762032D01*
X2537969D01*
Y761016D01*
X2538985Y760000D01*
X2537969Y758984D01*
Y757968D01*
Y737968D02*
X2538985D01*
X2540001Y738984D01*
X2541017Y737968D01*
X2542033D01*
Y738984D01*
X2541017Y740000D01*
X2542033Y741016D01*
Y742032D01*
X2541017D01*
X2540001Y741016D01*
X2538985Y742032D01*
X2537969D01*
Y741016D01*
X2538985Y740000D01*
X2537969Y738984D01*
Y737968D01*
Y717968D02*
X2538985D01*
X2540001Y718984D01*
X2541017Y717968D01*
X2542033D01*
Y718984D01*
X2541017Y720000D01*
X2542033Y721016D01*
Y722032D01*
X2541017D01*
X2540001Y721016D01*
X2538985Y722032D01*
X2537969D01*
Y721016D01*
X2538985Y720000D01*
X2537969Y718984D01*
Y717968D01*
Y417968D02*
X2538985D01*
X2540001Y418984D01*
X2541017Y417968D01*
X2542033D01*
Y418984D01*
X2541017Y420000D01*
X2542033Y421016D01*
Y422032D01*
X2541017D01*
X2540001Y421016D01*
X2538985Y422032D01*
X2537969D01*
Y421016D01*
X2538985Y420000D01*
X2537969Y418984D01*
Y417968D01*
X2542969Y407968D02*
X2543985D01*
X2545001Y408984D01*
X2546017Y407968D01*
X2547033D01*
Y408984D01*
X2546017Y410000D01*
X2547033Y411016D01*
Y412032D01*
X2546017D01*
X2545001Y411016D01*
X2543985Y412032D01*
X2542969D01*
Y411016D01*
X2543985Y410000D01*
X2542969Y408984D01*
Y407968D01*
X2527969Y857969D02*
X2528985D01*
X2530001Y858985D01*
X2531017Y857969D01*
X2532033D01*
Y858985D01*
X2531017Y860001D01*
X2532033Y861016D01*
Y862032D01*
X2531017D01*
X2530001Y861016D01*
X2528985Y862032D01*
X2527969D01*
Y861016D01*
X2528985Y860001D01*
X2527969Y858985D01*
Y857969D01*
Y817968D02*
X2528985D01*
X2530001Y818984D01*
X2531017Y817968D01*
X2532033D01*
Y818984D01*
X2531017Y820000D01*
X2532033Y821016D01*
Y822032D01*
X2531017D01*
X2530001Y821016D01*
X2528985Y822032D01*
X2527969D01*
Y821016D01*
X2528985Y820000D01*
X2527969Y818984D01*
Y817968D01*
Y777968D02*
X2528985D01*
X2530001Y778984D01*
X2531017Y777968D01*
X2532033D01*
Y778984D01*
X2531017Y780000D01*
X2532033Y781016D01*
Y782032D01*
X2531017D01*
X2530001Y781016D01*
X2528985Y782032D01*
X2527969D01*
Y781016D01*
X2528985Y780000D01*
X2527969Y778984D01*
Y777968D01*
X2532969Y767968D02*
X2533985D01*
X2535001Y768984D01*
X2536017Y767968D01*
X2537033D01*
Y768984D01*
X2536017Y770000D01*
X2537033Y771016D01*
Y772032D01*
X2536017D01*
X2535001Y771016D01*
X2533985Y772032D01*
X2532969D01*
Y771016D01*
X2533985Y770000D01*
X2532969Y768984D01*
Y767968D01*
X2527969Y757968D02*
X2528985D01*
X2530001Y758984D01*
X2531017Y757968D01*
X2532033D01*
Y758984D01*
X2531017Y760000D01*
X2532033Y761016D01*
Y762032D01*
X2531017D01*
X2530001Y761016D01*
X2528985Y762032D01*
X2527969D01*
Y761016D01*
X2528985Y760000D01*
X2527969Y758984D01*
Y757968D01*
Y737968D02*
X2528985D01*
X2530001Y738984D01*
X2531017Y737968D01*
X2532033D01*
Y738984D01*
X2531017Y740000D01*
X2532033Y741016D01*
Y742032D01*
X2531017D01*
X2530001Y741016D01*
X2528985Y742032D01*
X2527969D01*
Y741016D01*
X2528985Y740000D01*
X2527969Y738984D01*
Y737968D01*
X2532969Y727968D02*
X2533985D01*
X2535001Y728984D01*
X2536017Y727968D01*
X2537033D01*
Y728984D01*
X2536017Y730000D01*
X2537033Y731016D01*
Y732032D01*
X2536017D01*
X2535001Y731016D01*
X2533985Y732032D01*
X2532969D01*
Y731016D01*
X2533985Y730000D01*
X2532969Y728984D01*
Y727968D01*
X2527969Y717968D02*
X2528985D01*
X2530001Y718984D01*
X2531017Y717968D01*
X2532033D01*
Y718984D01*
X2531017Y720000D01*
X2532033Y721016D01*
Y722032D01*
X2531017D01*
X2530001Y721016D01*
X2528985Y722032D01*
X2527969D01*
Y721016D01*
X2528985Y720000D01*
X2527969Y718984D01*
Y717968D01*
X2532969Y707968D02*
X2533985D01*
X2535001Y708984D01*
X2536017Y707968D01*
X2537033D01*
Y708984D01*
X2536017Y710000D01*
X2537033Y711016D01*
Y712032D01*
X2536017D01*
X2535001Y711016D01*
X2533985Y712032D01*
X2532969D01*
Y711016D01*
X2533985Y710000D01*
X2532969Y708984D01*
Y707968D01*
X2527969Y437968D02*
X2528985D01*
X2530001Y438984D01*
X2531017Y437968D01*
X2532033D01*
Y438984D01*
X2531017Y440000D01*
X2532033Y441016D01*
Y442032D01*
X2531017D01*
X2530001Y441016D01*
X2528985Y442032D01*
X2527969D01*
Y441016D01*
X2528985Y440000D01*
X2527969Y438984D01*
Y437968D01*
Y417968D02*
X2528985D01*
X2530001Y418984D01*
X2531017Y417968D01*
X2532033D01*
Y418984D01*
X2531017Y420000D01*
X2532033Y421016D01*
Y422032D01*
X2531017D01*
X2530001Y421016D01*
X2528985Y422032D01*
X2527969D01*
Y421016D01*
X2528985Y420000D01*
X2527969Y418984D01*
Y417968D01*
X2532969Y407968D02*
X2533985D01*
X2535001Y408984D01*
X2536017Y407968D01*
X2537033D01*
Y408984D01*
X2536017Y410000D01*
X2537033Y411016D01*
Y412032D01*
X2536017D01*
X2535001Y411016D01*
X2533985Y412032D01*
X2532969D01*
Y411016D01*
X2533985Y410000D01*
X2532969Y408984D01*
Y407968D01*
X2517969Y857969D02*
X2518985D01*
X2520001Y858985D01*
X2521017Y857969D01*
X2522033D01*
Y858985D01*
X2521017Y860001D01*
X2522033Y861016D01*
Y862032D01*
X2521017D01*
X2520001Y861016D01*
X2518985Y862032D01*
X2517969D01*
Y861016D01*
X2518985Y860001D01*
X2517969Y858985D01*
Y857969D01*
X2522969Y847969D02*
X2523985D01*
X2525001Y848985D01*
X2526017Y847969D01*
X2527033D01*
Y848985D01*
X2526017Y850001D01*
X2527033Y851016D01*
Y852032D01*
X2526017D01*
X2525001Y851016D01*
X2523985Y852032D01*
X2522969D01*
Y851016D01*
X2523985Y850001D01*
X2522969Y848985D01*
Y847969D01*
X2517969Y817968D02*
X2518985D01*
X2520001Y818984D01*
X2521017Y817968D01*
X2522033D01*
Y818984D01*
X2521017Y820000D01*
X2522033Y821016D01*
Y822032D01*
X2521017D01*
X2520001Y821016D01*
X2518985Y822032D01*
X2517969D01*
Y821016D01*
X2518985Y820000D01*
X2517969Y818984D01*
Y817968D01*
X2522969Y807968D02*
X2523985D01*
X2525001Y808984D01*
X2526017Y807968D01*
X2527033D01*
Y808984D01*
X2526017Y810000D01*
X2527033Y811016D01*
Y812032D01*
X2526017D01*
X2525001Y811016D01*
X2523985Y812032D01*
X2522969D01*
Y811016D01*
X2523985Y810000D01*
X2522969Y808984D01*
Y807968D01*
X2517969Y797968D02*
X2518985D01*
X2520001Y798984D01*
X2521017Y797968D01*
X2522033D01*
Y798984D01*
X2521017Y800000D01*
X2522033Y801016D01*
Y802032D01*
X2521017D01*
X2520001Y801016D01*
X2518985Y802032D01*
X2517969D01*
Y801016D01*
X2518985Y800000D01*
X2517969Y798984D01*
Y797968D01*
Y777968D02*
X2518985D01*
X2520001Y778984D01*
X2521017Y777968D01*
X2522033D01*
Y778984D01*
X2521017Y780000D01*
X2522033Y781016D01*
Y782032D01*
X2521017D01*
X2520001Y781016D01*
X2518985Y782032D01*
X2517969D01*
Y781016D01*
X2518985Y780000D01*
X2517969Y778984D01*
Y777968D01*
X2522969Y767968D02*
X2523985D01*
X2525001Y768984D01*
X2526017Y767968D01*
X2527033D01*
Y768984D01*
X2526017Y770000D01*
X2527033Y771016D01*
Y772032D01*
X2526017D01*
X2525001Y771016D01*
X2523985Y772032D01*
X2522969D01*
Y771016D01*
X2523985Y770000D01*
X2522969Y768984D01*
Y767968D01*
X2517969Y757968D02*
X2518985D01*
X2520001Y758984D01*
X2521017Y757968D01*
X2522033D01*
Y758984D01*
X2521017Y760000D01*
X2522033Y761016D01*
Y762032D01*
X2521017D01*
X2520001Y761016D01*
X2518985Y762032D01*
X2517969D01*
Y761016D01*
X2518985Y760000D01*
X2517969Y758984D01*
Y757968D01*
Y737968D02*
X2518985D01*
X2520001Y738984D01*
X2521017Y737968D01*
X2522033D01*
Y738984D01*
X2521017Y740000D01*
X2522033Y741016D01*
Y742032D01*
X2521017D01*
X2520001Y741016D01*
X2518985Y742032D01*
X2517969D01*
Y741016D01*
X2518985Y740000D01*
X2517969Y738984D01*
Y737968D01*
X2522969Y727968D02*
X2523985D01*
X2525001Y728984D01*
X2526017Y727968D01*
X2527033D01*
Y728984D01*
X2526017Y730000D01*
X2527033Y731016D01*
Y732032D01*
X2526017D01*
X2525001Y731016D01*
X2523985Y732032D01*
X2522969D01*
Y731016D01*
X2523985Y730000D01*
X2522969Y728984D01*
Y727968D01*
X2517969Y697968D02*
X2518985D01*
X2520001Y698984D01*
X2521017Y697968D01*
X2522033D01*
Y698984D01*
X2521017Y700000D01*
X2522033Y701016D01*
Y702032D01*
X2521017D01*
X2520001Y701016D01*
X2518985Y702032D01*
X2517969D01*
Y701016D01*
X2518985Y700000D01*
X2517969Y698984D01*
Y697968D01*
Y437968D02*
X2518985D01*
X2520001Y438984D01*
X2521017Y437968D01*
X2522033D01*
Y438984D01*
X2521017Y440000D01*
X2522033Y441016D01*
Y442032D01*
X2521017D01*
X2520001Y441016D01*
X2518985Y442032D01*
X2517969D01*
Y441016D01*
X2518985Y440000D01*
X2517969Y438984D01*
Y437968D01*
X2512969Y867969D02*
X2513985D01*
X2515001Y868985D01*
X2516017Y867969D01*
X2517033D01*
Y868985D01*
X2516017Y870001D01*
X2517033Y871016D01*
Y872032D01*
X2516017D01*
X2515001Y871016D01*
X2513985Y872032D01*
X2512969D01*
Y871016D01*
X2513985Y870001D01*
X2512969Y868985D01*
Y867969D01*
X2507969Y857969D02*
X2508985D01*
X2510001Y858985D01*
X2511017Y857969D01*
X2512033D01*
Y858985D01*
X2511017Y860001D01*
X2512033Y861016D01*
Y862032D01*
X2511017D01*
X2510001Y861016D01*
X2508985Y862032D01*
X2507969D01*
Y861016D01*
X2508985Y860001D01*
X2507969Y858985D01*
Y857969D01*
X2512969Y847969D02*
X2513985D01*
X2515001Y848985D01*
X2516017Y847969D01*
X2517033D01*
Y848985D01*
X2516017Y850001D01*
X2517033Y851016D01*
Y852032D01*
X2516017D01*
X2515001Y851016D01*
X2513985Y852032D01*
X2512969D01*
Y851016D01*
X2513985Y850001D01*
X2512969Y848985D01*
Y847969D01*
X2507969Y817968D02*
X2508985D01*
X2510001Y818984D01*
X2511017Y817968D01*
X2512033D01*
Y818984D01*
X2511017Y820000D01*
X2512033Y821016D01*
Y822032D01*
X2511017D01*
X2510001Y821016D01*
X2508985Y822032D01*
X2507969D01*
Y821016D01*
X2508985Y820000D01*
X2507969Y818984D01*
Y817968D01*
X2512969Y807968D02*
X2513985D01*
X2515001Y808984D01*
X2516017Y807968D01*
X2517033D01*
Y808984D01*
X2516017Y810000D01*
X2517033Y811016D01*
Y812032D01*
X2516017D01*
X2515001Y811016D01*
X2513985Y812032D01*
X2512969D01*
Y811016D01*
X2513985Y810000D01*
X2512969Y808984D01*
Y807968D01*
X2507969Y797968D02*
X2508985D01*
X2510001Y798984D01*
X2511017Y797968D01*
X2512033D01*
Y798984D01*
X2511017Y800000D01*
X2512033Y801016D01*
Y802032D01*
X2511017D01*
X2510001Y801016D01*
X2508985Y802032D01*
X2507969D01*
Y801016D01*
X2508985Y800000D01*
X2507969Y798984D01*
Y797968D01*
Y777968D02*
X2508985D01*
X2510001Y778984D01*
X2511017Y777968D01*
X2512033D01*
Y778984D01*
X2511017Y780000D01*
X2512033Y781016D01*
Y782032D01*
X2511017D01*
X2510001Y781016D01*
X2508985Y782032D01*
X2507969D01*
Y781016D01*
X2508985Y780000D01*
X2507969Y778984D01*
Y777968D01*
X2512969Y767968D02*
X2513985D01*
X2515001Y768984D01*
X2516017Y767968D01*
X2517033D01*
Y768984D01*
X2516017Y770000D01*
X2517033Y771016D01*
Y772032D01*
X2516017D01*
X2515001Y771016D01*
X2513985Y772032D01*
X2512969D01*
Y771016D01*
X2513985Y770000D01*
X2512969Y768984D01*
Y767968D01*
X2507969Y757968D02*
X2508985D01*
X2510001Y758984D01*
X2511017Y757968D01*
X2512033D01*
Y758984D01*
X2511017Y760000D01*
X2512033Y761016D01*
Y762032D01*
X2511017D01*
X2510001Y761016D01*
X2508985Y762032D01*
X2507969D01*
Y761016D01*
X2508985Y760000D01*
X2507969Y758984D01*
Y757968D01*
Y697968D02*
X2508985D01*
X2510001Y698984D01*
X2511017Y697968D01*
X2512033D01*
Y698984D01*
X2511017Y700000D01*
X2512033Y701016D01*
Y702032D01*
X2511017D01*
X2510001Y701016D01*
X2508985Y702032D01*
X2507969D01*
Y701016D01*
X2508985Y700000D01*
X2507969Y698984D01*
Y697968D01*
X2512969Y687968D02*
X2513985D01*
X2515001Y688984D01*
X2516017Y687968D01*
X2517033D01*
Y688984D01*
X2516017Y690000D01*
X2517033Y691016D01*
Y692032D01*
X2516017D01*
X2515001Y691016D01*
X2513985Y692032D01*
X2512969D01*
Y691016D01*
X2513985Y690000D01*
X2512969Y688984D01*
Y687968D01*
X2507969Y497968D02*
X2508985D01*
X2510001Y498984D01*
X2511017Y497968D01*
X2512033D01*
Y498984D01*
X2511017Y500000D01*
X2512033Y501016D01*
Y502032D01*
X2511017D01*
X2510001Y501016D01*
X2508985Y502032D01*
X2507969D01*
Y501016D01*
X2508985Y500000D01*
X2507969Y498984D01*
Y497968D01*
Y437968D02*
X2508985D01*
X2510001Y438984D01*
X2511017Y437968D01*
X2512033D01*
Y438984D01*
X2511017Y440000D01*
X2512033Y441016D01*
Y442032D01*
X2511017D01*
X2510001Y441016D01*
X2508985Y442032D01*
X2507969D01*
Y441016D01*
X2508985Y440000D01*
X2507969Y438984D01*
Y437968D01*
X2497969Y857969D02*
X2498985D01*
X2500001Y858985D01*
X2501017Y857969D01*
X2502033D01*
Y858985D01*
X2501017Y860001D01*
X2502033Y861016D01*
Y862032D01*
X2501017D01*
X2500001Y861016D01*
X2498985Y862032D01*
X2497969D01*
Y861016D01*
X2498985Y860001D01*
X2497969Y858985D01*
Y857969D01*
X2502969Y847969D02*
X2503985D01*
X2505001Y848985D01*
X2506017Y847969D01*
X2507033D01*
Y848985D01*
X2506017Y850001D01*
X2507033Y851016D01*
Y852032D01*
X2506017D01*
X2505001Y851016D01*
X2503985Y852032D01*
X2502969D01*
Y851016D01*
X2503985Y850001D01*
X2502969Y848985D01*
Y847969D01*
X2497969Y817968D02*
X2498985D01*
X2500001Y818984D01*
X2501017Y817968D01*
X2502033D01*
Y818984D01*
X2501017Y820000D01*
X2502033Y821016D01*
Y822032D01*
X2501017D01*
X2500001Y821016D01*
X2498985Y822032D01*
X2497969D01*
Y821016D01*
X2498985Y820000D01*
X2497969Y818984D01*
Y817968D01*
X2502969Y807968D02*
X2503985D01*
X2505001Y808984D01*
X2506017Y807968D01*
X2507033D01*
Y808984D01*
X2506017Y810000D01*
X2507033Y811016D01*
Y812032D01*
X2506017D01*
X2505001Y811016D01*
X2503985Y812032D01*
X2502969D01*
Y811016D01*
X2503985Y810000D01*
X2502969Y808984D01*
Y807968D01*
X2497969Y797968D02*
X2498985D01*
X2500001Y798984D01*
X2501017Y797968D01*
X2502033D01*
Y798984D01*
X2501017Y800000D01*
X2502033Y801016D01*
Y802032D01*
X2501017D01*
X2500001Y801016D01*
X2498985Y802032D01*
X2497969D01*
Y801016D01*
X2498985Y800000D01*
X2497969Y798984D01*
Y797968D01*
Y777968D02*
X2498985D01*
X2500001Y778984D01*
X2501017Y777968D01*
X2502033D01*
Y778984D01*
X2501017Y780000D01*
X2502033Y781016D01*
Y782032D01*
X2501017D01*
X2500001Y781016D01*
X2498985Y782032D01*
X2497969D01*
Y781016D01*
X2498985Y780000D01*
X2497969Y778984D01*
Y777968D01*
X2502969Y767968D02*
X2503985D01*
X2505001Y768984D01*
X2506017Y767968D01*
X2507033D01*
Y768984D01*
X2506017Y770000D01*
X2507033Y771016D01*
Y772032D01*
X2506017D01*
X2505001Y771016D01*
X2503985Y772032D01*
X2502969D01*
Y771016D01*
X2503985Y770000D01*
X2502969Y768984D01*
Y767968D01*
X2497969Y757968D02*
X2498985D01*
X2500001Y758984D01*
X2501017Y757968D01*
X2502033D01*
Y758984D01*
X2501017Y760000D01*
X2502033Y761016D01*
Y762032D01*
X2501017D01*
X2500001Y761016D01*
X2498985Y762032D01*
X2497969D01*
Y761016D01*
X2498985Y760000D01*
X2497969Y758984D01*
Y757968D01*
X2502969Y707968D02*
X2503985D01*
X2505001Y708984D01*
X2506017Y707968D01*
X2507033D01*
Y708984D01*
X2506017Y710000D01*
X2507033Y711016D01*
Y712032D01*
X2506017D01*
X2505001Y711016D01*
X2503985Y712032D01*
X2502969D01*
Y711016D01*
X2503985Y710000D01*
X2502969Y708984D01*
Y707968D01*
Y687968D02*
X2503985D01*
X2505001Y688984D01*
X2506017Y687968D01*
X2507033D01*
Y688984D01*
X2506017Y690000D01*
X2507033Y691016D01*
Y692032D01*
X2506017D01*
X2505001Y691016D01*
X2503985Y692032D01*
X2502969D01*
Y691016D01*
X2503985Y690000D01*
X2502969Y688984D01*
Y687968D01*
Y507968D02*
X2503985D01*
X2505001Y508984D01*
X2506017Y507968D01*
X2507033D01*
Y508984D01*
X2506017Y510000D01*
X2507033Y511016D01*
Y512032D01*
X2506017D01*
X2505001Y511016D01*
X2503985Y512032D01*
X2502969D01*
Y511016D01*
X2503985Y510000D01*
X2502969Y508984D01*
Y507968D01*
X2497969Y497968D02*
X2498985D01*
X2500001Y498984D01*
X2501017Y497968D01*
X2502033D01*
Y498984D01*
X2501017Y500000D01*
X2502033Y501016D01*
Y502032D01*
X2501017D01*
X2500001Y501016D01*
X2498985Y502032D01*
X2497969D01*
Y501016D01*
X2498985Y500000D01*
X2497969Y498984D01*
Y497968D01*
X2502969Y487968D02*
X2503985D01*
X2505001Y488984D01*
X2506017Y487968D01*
X2507033D01*
Y488984D01*
X2506017Y490000D01*
X2507033Y491016D01*
Y492032D01*
X2506017D01*
X2505001Y491016D01*
X2503985Y492032D01*
X2502969D01*
Y491016D01*
X2503985Y490000D01*
X2502969Y488984D01*
Y487968D01*
X2497969Y477968D02*
X2498985D01*
X2500001Y478984D01*
X2501017Y477968D01*
X2502033D01*
Y478984D01*
X2501017Y480000D01*
X2502033Y481016D01*
Y482032D01*
X2501017D01*
X2500001Y481016D01*
X2498985Y482032D01*
X2497969D01*
Y481016D01*
X2498985Y480000D01*
X2497969Y478984D01*
Y477968D01*
X2502969Y427968D02*
X2503985D01*
X2505001Y428984D01*
X2506017Y427968D01*
X2507033D01*
Y428984D01*
X2506017Y430000D01*
X2507033Y431016D01*
Y432032D01*
X2506017D01*
X2505001Y431016D01*
X2503985Y432032D01*
X2502969D01*
Y431016D01*
X2503985Y430000D01*
X2502969Y428984D01*
Y427968D01*
Y387968D02*
X2503985D01*
X2505001Y388984D01*
X2506017Y387968D01*
X2507033D01*
Y388984D01*
X2506017Y390000D01*
X2507033Y391016D01*
Y392032D01*
X2506017D01*
X2505001Y391016D01*
X2503985Y392032D01*
X2502969D01*
Y391016D01*
X2503985Y390000D01*
X2502969Y388984D01*
Y387968D01*
X2497969Y377968D02*
X2498985D01*
X2500001Y378984D01*
X2501017Y377968D01*
X2502033D01*
Y378984D01*
X2501017Y380000D01*
X2502033Y381016D01*
Y382032D01*
X2501017D01*
X2500001Y381016D01*
X2498985Y382032D01*
X2497969D01*
Y381016D01*
X2498985Y380000D01*
X2497969Y378984D01*
Y377968D01*
X2492969Y867969D02*
X2493985D01*
X2495001Y868985D01*
X2496017Y867969D01*
X2497033D01*
Y868985D01*
X2496017Y870001D01*
X2497033Y871016D01*
Y872032D01*
X2496017D01*
X2495001Y871016D01*
X2493985Y872032D01*
X2492969D01*
Y871016D01*
X2493985Y870001D01*
X2492969Y868985D01*
Y867969D01*
X2487969Y857969D02*
X2488985D01*
X2490001Y858985D01*
X2491017Y857969D01*
X2492033D01*
Y858985D01*
X2491017Y860001D01*
X2492033Y861016D01*
Y862032D01*
X2491017D01*
X2490001Y861016D01*
X2488985Y862032D01*
X2487969D01*
Y861016D01*
X2488985Y860001D01*
X2487969Y858985D01*
Y857969D01*
X2492969Y847969D02*
X2493985D01*
X2495001Y848985D01*
X2496017Y847969D01*
X2497033D01*
Y848985D01*
X2496017Y850001D01*
X2497033Y851016D01*
Y852032D01*
X2496017D01*
X2495001Y851016D01*
X2493985Y852032D01*
X2492969D01*
Y851016D01*
X2493985Y850001D01*
X2492969Y848985D01*
Y847969D01*
X2487969Y477968D02*
X2488985D01*
X2490001Y478984D01*
X2491017Y477968D01*
X2492033D01*
Y478984D01*
X2491017Y480000D01*
X2492033Y481016D01*
Y482032D01*
X2491017D01*
X2490001Y481016D01*
X2488985Y482032D01*
X2487969D01*
Y481016D01*
X2488985Y480000D01*
X2487969Y478984D01*
Y477968D01*
X2477969Y737968D02*
X2478985D01*
X2480001Y738984D01*
X2481017Y737968D01*
X2482033D01*
Y738984D01*
X2481017Y740000D01*
X2482033Y741016D01*
Y742032D01*
X2481017D01*
X2480001Y741016D01*
X2478985Y742032D01*
X2477969D01*
Y741016D01*
X2478985Y740000D01*
X2477969Y738984D01*
Y737968D01*
X2482969Y727968D02*
X2483985D01*
X2485001Y728984D01*
X2486017Y727968D01*
X2487033D01*
Y728984D01*
X2486017Y730000D01*
X2487033Y731016D01*
Y732032D01*
X2486017D01*
X2485001Y731016D01*
X2483985Y732032D01*
X2482969D01*
Y731016D01*
X2483985Y730000D01*
X2482969Y728984D01*
Y727968D01*
X2477969Y717968D02*
X2478985D01*
X2480001Y718984D01*
X2481017Y717968D01*
X2482033D01*
Y718984D01*
X2481017Y720000D01*
X2482033Y721016D01*
Y722032D01*
X2481017D01*
X2480001Y721016D01*
X2478985Y722032D01*
X2477969D01*
Y721016D01*
X2478985Y720000D01*
X2477969Y718984D01*
Y717968D01*
X2482969Y707968D02*
X2483985D01*
X2485001Y708984D01*
X2486017Y707968D01*
X2487033D01*
Y708984D01*
X2486017Y710000D01*
X2487033Y711016D01*
Y712032D01*
X2486017D01*
X2485001Y711016D01*
X2483985Y712032D01*
X2482969D01*
Y711016D01*
X2483985Y710000D01*
X2482969Y708984D01*
Y707968D01*
X2477969Y697968D02*
X2478985D01*
X2480001Y698984D01*
X2481017Y697968D01*
X2482033D01*
Y698984D01*
X2481017Y700000D01*
X2482033Y701016D01*
Y702032D01*
X2481017D01*
X2480001Y701016D01*
X2478985Y702032D01*
X2477969D01*
Y701016D01*
X2478985Y700000D01*
X2477969Y698984D01*
Y697968D01*
X2482969Y427968D02*
X2483985D01*
X2485001Y428984D01*
X2486017Y427968D01*
X2487033D01*
Y428984D01*
X2486017Y430000D01*
X2487033Y431016D01*
Y432032D01*
X2486017D01*
X2485001Y431016D01*
X2483985Y432032D01*
X2482969D01*
Y431016D01*
X2483985Y430000D01*
X2482969Y428984D01*
Y427968D01*
Y407968D02*
X2483985D01*
X2485001Y408984D01*
X2486017Y407968D01*
X2487033D01*
Y408984D01*
X2486017Y410000D01*
X2487033Y411016D01*
Y412032D01*
X2486017D01*
X2485001Y411016D01*
X2483985Y412032D01*
X2482969D01*
Y411016D01*
X2483985Y410000D01*
X2482969Y408984D01*
Y407968D01*
Y387968D02*
X2483985D01*
X2485001Y388984D01*
X2486017Y387968D01*
X2487033D01*
Y388984D01*
X2486017Y390000D01*
X2487033Y391016D01*
Y392032D01*
X2486017D01*
X2485001Y391016D01*
X2483985Y392032D01*
X2482969D01*
Y391016D01*
X2483985Y390000D01*
X2482969Y388984D01*
Y387968D01*
X2472969Y747968D02*
X2473985D01*
X2475001Y748984D01*
X2476017Y747968D01*
X2477033D01*
Y748984D01*
X2476017Y750000D01*
X2477033Y751016D01*
Y752032D01*
X2476017D01*
X2475001Y751016D01*
X2473985Y752032D01*
X2472969D01*
Y751016D01*
X2473985Y750000D01*
X2472969Y748984D01*
Y747968D01*
Y727968D02*
X2473985D01*
X2475001Y728984D01*
X2476017Y727968D01*
X2477033D01*
Y728984D01*
X2476017Y730000D01*
X2477033Y731016D01*
Y732032D01*
X2476017D01*
X2475001Y731016D01*
X2473985Y732032D01*
X2472969D01*
Y731016D01*
X2473985Y730000D01*
X2472969Y728984D01*
Y727968D01*
Y707968D02*
X2473985D01*
X2475001Y708984D01*
X2476017Y707968D01*
X2477033D01*
Y708984D01*
X2476017Y710000D01*
X2477033Y711016D01*
Y712032D01*
X2476017D01*
X2475001Y711016D01*
X2473985Y712032D01*
X2472969D01*
Y711016D01*
X2473985Y710000D01*
X2472969Y708984D01*
Y707968D01*
X2467969Y697968D02*
X2468985D01*
X2470001Y698984D01*
X2471017Y697968D01*
X2472033D01*
Y698984D01*
X2471017Y700000D01*
X2472033Y701016D01*
Y702032D01*
X2471017D01*
X2470001Y701016D01*
X2468985Y702032D01*
X2467969D01*
Y701016D01*
X2468985Y700000D01*
X2467969Y698984D01*
Y697968D01*
Y677968D02*
X2468985D01*
X2470001Y678984D01*
X2471017Y677968D01*
X2472033D01*
Y678984D01*
X2471017Y680000D01*
X2472033Y681016D01*
Y682032D01*
X2471017D01*
X2470001Y681016D01*
X2468985Y682032D01*
X2467969D01*
Y681016D01*
X2468985Y680000D01*
X2467969Y678984D01*
Y677968D01*
Y597968D02*
X2468985D01*
X2470001Y598984D01*
X2471017Y597968D01*
X2472033D01*
Y598984D01*
X2471017Y600000D01*
X2472033Y601016D01*
Y602032D01*
X2471017D01*
X2470001Y601016D01*
X2468985Y602032D01*
X2467969D01*
Y601016D01*
X2468985Y600000D01*
X2467969Y598984D01*
Y597968D01*
X2472969Y587968D02*
X2473985D01*
X2475001Y588984D01*
X2476017Y587968D01*
X2477033D01*
Y588984D01*
X2476017Y590000D01*
X2477033Y591016D01*
Y592032D01*
X2476017D01*
X2475001Y591016D01*
X2473985Y592032D01*
X2472969D01*
Y591016D01*
X2473985Y590000D01*
X2472969Y588984D01*
Y587968D01*
Y567968D02*
X2473985D01*
X2475001Y568984D01*
X2476017Y567968D01*
X2477033D01*
Y568984D01*
X2476017Y570000D01*
X2477033Y571016D01*
Y572032D01*
X2476017D01*
X2475001Y571016D01*
X2473985Y572032D01*
X2472969D01*
Y571016D01*
X2473985Y570000D01*
X2472969Y568984D01*
Y567968D01*
X2467969Y537968D02*
X2468985D01*
X2470001Y538984D01*
X2471017Y537968D01*
X2472033D01*
Y538984D01*
X2471017Y540000D01*
X2472033Y541016D01*
Y542032D01*
X2471017D01*
X2470001Y541016D01*
X2468985Y542032D01*
X2467969D01*
Y541016D01*
X2468985Y540000D01*
X2467969Y538984D01*
Y537968D01*
Y517968D02*
X2468985D01*
X2470001Y518984D01*
X2471017Y517968D01*
X2472033D01*
Y518984D01*
X2471017Y520000D01*
X2472033Y521016D01*
Y522032D01*
X2471017D01*
X2470001Y521016D01*
X2468985Y522032D01*
X2467969D01*
Y521016D01*
X2468985Y520000D01*
X2467969Y518984D01*
Y517968D01*
X2472969Y367968D02*
X2473985D01*
X2475001Y368984D01*
X2476017Y367968D01*
X2477033D01*
Y368984D01*
X2476017Y370000D01*
X2477033Y371016D01*
Y372032D01*
X2476017D01*
X2475001Y371016D01*
X2473985Y372032D01*
X2472969D01*
Y371016D01*
X2473985Y370000D01*
X2472969Y368984D01*
Y367968D01*
X2717546Y653034D02*
X2718562D01*
X2719578Y654050D01*
X2720594Y653034D01*
X2721610D01*
Y654050D01*
X2720594Y655066D01*
X2721610Y656082D01*
Y657098D01*
X2720594D01*
X2719578Y656082D01*
X2718562Y657098D01*
X2717546D01*
Y656082D01*
X2718562Y655066D01*
X2717546Y654050D01*
Y653034D01*
X2716276Y581152D02*
X2717292D01*
X2718308Y582168D01*
X2719324Y581152D01*
X2720340D01*
Y582168D01*
X2719324Y583184D01*
X2720340Y584200D01*
Y585216D01*
X2719324D01*
X2718308Y584200D01*
X2717292Y585216D01*
X2716276D01*
Y584200D01*
X2717292Y583184D01*
X2716276Y582168D01*
Y581152D01*
X2649982Y555752D02*
X2650998D01*
X2652014Y556768D01*
X2653030Y555752D01*
X2654046D01*
Y556768D01*
X2653030Y557784D01*
X2654046Y558800D01*
Y559816D01*
X2653030D01*
X2652014Y558800D01*
X2650998Y559816D01*
X2649982D01*
Y558800D01*
X2650998Y557784D01*
X2649982Y556768D01*
Y555752D01*
X2670302Y488442D02*
X2671318D01*
X2672334Y489458D01*
X2673350Y488442D01*
X2674366D01*
Y489458D01*
X2673350Y490474D01*
X2674366Y491490D01*
Y492506D01*
X2673350D01*
X2672334Y491490D01*
X2671318Y492506D01*
X2670302D01*
Y491490D01*
X2671318Y490474D01*
X2670302Y489458D01*
Y488442D01*
X2482155Y460032D02*
X2483171D01*
X2484187Y461048D01*
X2485203Y460032D01*
X2486219D01*
Y461048D01*
X2485203Y462064D01*
X2486219Y463080D01*
Y464096D01*
X2485203D01*
X2484187Y463080D01*
X2483171Y464096D01*
X2482155D01*
Y463080D01*
X2483171Y462064D01*
X2482155Y461048D01*
Y460032D01*
X2672842Y412496D02*
X2673858D01*
X2674874Y413512D01*
X2675890Y412496D01*
X2676906D01*
Y413512D01*
X2675890Y414528D01*
X2676906Y415544D01*
Y416560D01*
X2675890D01*
X2674874Y415544D01*
X2673858Y416560D01*
X2672842D01*
Y415544D01*
X2673858Y414528D01*
X2672842Y413512D01*
Y412496D01*
X2665984D02*
X2667000D01*
X2668016Y413512D01*
X2669032Y412496D01*
X2670048D01*
Y413512D01*
X2669032Y414528D01*
X2670048Y415544D01*
Y416560D01*
X2669032D01*
X2668016Y415544D01*
X2667000Y416560D01*
X2665984D01*
Y415544D01*
X2667000Y414528D01*
X2665984Y413512D01*
Y412496D01*
X2661666Y390906D02*
X2662682D01*
X2663698Y391922D01*
X2664714Y390906D01*
X2665730D01*
Y391922D01*
X2664714Y392938D01*
X2665730Y393954D01*
Y394970D01*
X2664714D01*
X2663698Y393954D01*
X2662682Y394970D01*
X2661666D01*
Y393954D01*
X2662682Y392938D01*
X2661666Y391922D01*
Y390906D01*
X2687066Y404114D02*
X2689098Y406146D01*
X2691130Y404114D01*
X2689098Y402082D01*
X2687066Y404114D01*
X2682494Y422910D02*
X2683510D01*
X2684526Y423926D01*
X2685542Y422910D01*
X2686558D01*
Y423926D01*
X2685542Y424942D01*
X2686558Y425958D01*
Y426974D01*
X2685542D01*
X2684526Y425958D01*
X2683510Y426974D01*
X2682494D01*
Y425958D01*
X2683510Y424942D01*
X2682494Y423926D01*
Y422910D01*
X2522982Y651256D02*
X2523998D01*
X2525014Y652272D01*
X2526030Y651256D01*
X2527046D01*
Y652272D01*
X2526030Y653288D01*
X2527046Y654304D01*
Y655320D01*
X2526030D01*
X2525014Y654304D01*
X2523998Y655320D01*
X2522982D01*
Y654304D01*
X2523998Y653288D01*
X2522982Y652272D01*
Y651256D01*
X2525872Y657089D02*
X2526888D01*
X2527904Y658105D01*
X2528920Y657089D01*
X2529936D01*
Y658105D01*
X2528920Y659121D01*
X2529936Y660137D01*
Y661153D01*
X2528920D01*
X2527904Y660137D01*
X2526888Y661153D01*
X2525872D01*
Y660137D01*
X2526888Y659121D01*
X2525872Y658105D01*
Y657089D01*
X2542540Y484886D02*
X2543556D01*
X2544572Y485902D01*
X2545588Y484886D01*
X2546604D01*
Y485902D01*
X2545588Y486918D01*
X2546604Y487934D01*
Y488950D01*
X2545588D01*
X2544572Y487934D01*
X2543556Y488950D01*
X2542540D01*
Y487934D01*
X2543556Y486918D01*
X2542540Y485902D01*
Y484886D01*
X2608580Y704342D02*
X2609596D01*
X2610612Y705358D01*
X2611628Y704342D01*
X2612644D01*
Y705358D01*
X2611628Y706374D01*
X2612644Y707390D01*
Y708406D01*
X2611628D01*
X2610612Y707390D01*
X2609596Y708406D01*
X2608580D01*
Y707390D01*
X2609596Y706374D01*
X2608580Y705358D01*
Y704342D01*
X2593340Y626618D02*
X2594356D01*
X2595372Y627634D01*
X2596388Y626618D01*
X2597404D01*
Y627634D01*
X2596388Y628650D01*
X2597404Y629666D01*
Y630682D01*
X2596388D01*
X2595372Y629666D01*
X2594356Y630682D01*
X2593340D01*
Y629666D01*
X2594356Y628650D01*
X2593340Y627634D01*
Y626618D01*
X2608834Y586486D02*
X2609850D01*
X2610866Y587502D01*
X2611882Y586486D01*
X2612898D01*
Y587502D01*
X2611882Y588518D01*
X2612898Y589534D01*
Y590550D01*
X2611882D01*
X2610866Y589534D01*
X2609850Y590550D01*
X2608834D01*
Y589534D01*
X2609850Y588518D01*
X2608834Y587502D01*
Y586486D01*
X2535936Y610616D02*
X2536952D01*
X2537968Y611632D01*
X2538984Y610616D01*
X2540000D01*
Y611632D01*
X2538984Y612648D01*
X2540000Y613664D01*
Y614680D01*
X2538984D01*
X2537968Y613664D01*
X2536952Y614680D01*
X2535936D01*
Y613664D01*
X2536952Y612648D01*
X2535936Y611632D01*
Y610616D01*
X2541778Y618744D02*
X2542794D01*
X2543810Y619760D01*
X2544826Y618744D01*
X2545842D01*
Y619760D01*
X2544826Y620776D01*
X2545842Y621792D01*
Y622808D01*
X2544826D01*
X2543810Y621792D01*
X2542794Y622808D01*
X2541778D01*
Y621792D01*
X2542794Y620776D01*
X2541778Y619760D01*
Y618744D01*
X2638806Y578866D02*
X2639822D01*
X2640838Y579882D01*
X2641854Y578866D01*
X2642870D01*
Y579882D01*
X2641854Y580898D01*
X2642870Y581914D01*
Y582930D01*
X2641854D01*
X2640838Y581914D01*
X2639822Y582930D01*
X2638806D01*
Y581914D01*
X2639822Y580898D01*
X2638806Y579882D01*
Y578866D01*
X2657602Y538480D02*
X2658618D01*
X2659634Y539496D01*
X2660650Y538480D01*
X2661666D01*
Y539496D01*
X2660650Y540512D01*
X2661666Y541528D01*
Y542544D01*
X2660650D01*
X2659634Y541528D01*
X2658618Y542544D01*
X2657602D01*
Y541528D01*
X2658618Y540512D01*
X2657602Y539496D01*
Y538480D01*
X2620010Y562356D02*
X2621026D01*
X2622042Y563372D01*
X2623058Y562356D01*
X2624074D01*
Y563372D01*
X2623058Y564388D01*
X2624074Y565404D01*
Y566420D01*
X2623058D01*
X2622042Y565404D01*
X2621026Y566420D01*
X2620010D01*
Y565404D01*
X2621026Y564388D01*
X2620010Y563372D01*
Y562356D01*
X2608834Y638556D02*
X2609850D01*
X2610866Y639572D01*
X2611882Y638556D01*
X2612898D01*
Y639572D01*
X2611882Y640588D01*
X2612898Y641604D01*
Y642620D01*
X2611882D01*
X2610866Y641604D01*
X2609850Y642620D01*
X2608834D01*
Y641604D01*
X2609850Y640588D01*
X2608834Y639572D01*
Y638556D01*
X2533142Y638302D02*
X2534158D01*
X2535174Y639318D01*
X2536190Y638302D01*
X2537206D01*
Y639318D01*
X2536190Y640334D01*
X2537206Y641350D01*
Y642366D01*
X2536190D01*
X2535174Y641350D01*
X2534158Y642366D01*
X2533142D01*
Y641350D01*
X2534158Y640334D01*
X2533142Y639318D01*
Y638302D01*
X2541778Y645414D02*
X2542794D01*
X2543810Y646430D01*
X2544826Y645414D01*
X2545842D01*
Y646430D01*
X2544826Y647446D01*
X2545842Y648462D01*
Y649478D01*
X2544826D01*
X2543810Y648462D01*
X2542794Y649478D01*
X2541778D01*
Y648462D01*
X2542794Y647446D01*
X2541778Y646430D01*
Y645414D01*
X2531872Y657606D02*
X2532888D01*
X2533904Y658622D01*
X2534920Y657606D01*
X2535936D01*
Y658622D01*
X2534920Y659638D01*
X2535936Y660654D01*
Y661670D01*
X2534920D01*
X2533904Y660654D01*
X2532888Y661670D01*
X2531872D01*
Y660654D01*
X2532888Y659638D01*
X2531872Y658622D01*
Y657606D01*
X2608834Y577850D02*
X2609850D01*
X2610866Y578866D01*
X2611882Y577850D01*
X2612898D01*
Y578866D01*
X2611882Y579882D01*
X2612898Y580898D01*
Y581914D01*
X2611882D01*
X2610866Y580898D01*
X2609850Y581914D01*
X2608834D01*
Y580898D01*
X2609850Y579882D01*
X2608834Y578866D01*
Y577850D01*
X2603432Y571178D02*
X2604448D01*
X2605464Y572194D01*
X2606480Y571178D01*
X2607496D01*
Y572194D01*
X2606480Y573210D01*
X2607496Y574226D01*
Y575242D01*
X2606480D01*
X2605464Y574226D01*
X2604448Y575242D01*
X2603432D01*
Y574226D01*
X2604448Y573210D01*
X2603432Y572194D01*
Y571178D01*
X2646934Y664718D02*
X2647950D01*
X2648966Y665734D01*
X2649982Y664718D01*
X2650998D01*
Y665734D01*
X2649982Y666750D01*
X2650998Y667766D01*
Y668782D01*
X2649982D01*
X2648966Y667766D01*
X2647950Y668782D01*
X2646934D01*
Y667766D01*
X2647950Y666750D01*
X2646934Y665734D01*
Y664718D01*
X2641854Y657098D02*
X2642870D01*
X2643886Y658114D01*
X2644902Y657098D01*
X2645918D01*
Y658114D01*
X2644902Y659130D01*
X2645918Y660146D01*
Y661162D01*
X2644902D01*
X2643886Y660146D01*
X2642870Y661162D01*
X2641854D01*
Y660146D01*
X2642870Y659130D01*
X2641854Y658114D01*
Y657098D01*
X2647950Y655828D02*
X2648966D01*
X2649982Y656844D01*
X2650998Y655828D01*
X2652014D01*
Y656844D01*
X2650998Y657860D01*
X2652014Y658876D01*
Y659892D01*
X2650998D01*
X2649982Y658876D01*
X2648966Y659892D01*
X2647950D01*
Y658876D01*
X2648966Y657860D01*
X2647950Y656844D01*
Y655828D01*
X2480056Y608076D02*
X2481072D01*
X2482088Y609092D01*
X2483104Y608076D01*
X2484120D01*
Y609092D01*
X2483104Y610108D01*
X2484120Y611124D01*
Y612140D01*
X2483104D01*
X2482088Y611124D01*
X2481072Y612140D01*
X2480056D01*
Y611124D01*
X2481072Y610108D01*
X2480056Y609092D01*
Y608076D01*
X2603472Y777268D02*
X2604488D01*
X2605504Y778284D01*
X2606520Y777268D01*
X2607536D01*
Y778284D01*
X2606520Y779300D01*
X2607536Y780316D01*
Y781332D01*
X2606520D01*
X2605504Y780316D01*
X2604488Y781332D01*
X2603472D01*
Y780316D01*
X2604488Y779300D01*
X2603472Y778284D01*
Y777268D01*
X2607715Y773025D02*
X2608731D01*
X2609747Y774041D01*
X2610763Y773025D01*
X2611779D01*
Y774041D01*
X2610763Y775057D01*
X2611779Y776073D01*
Y777089D01*
X2610763D01*
X2609747Y776073D01*
X2608731Y777089D01*
X2607715D01*
Y776073D01*
X2608731Y775057D01*
X2607715Y774041D01*
Y773025D01*
X2611957Y768783D02*
X2612973D01*
X2613989Y769799D01*
X2615005Y768783D01*
X2616021D01*
Y769799D01*
X2615005Y770815D01*
X2616021Y771831D01*
Y772847D01*
X2615005D01*
X2613989Y771831D01*
X2612973Y772847D01*
X2611957D01*
Y771831D01*
X2612973Y770815D01*
X2611957Y769799D01*
Y768783D01*
X2616200Y764540D02*
X2617216D01*
X2618232Y765556D01*
X2619248Y764540D01*
X2620264D01*
Y765556D01*
X2619248Y766572D01*
X2620264Y767588D01*
Y768604D01*
X2619248D01*
X2618232Y767588D01*
X2617216Y768604D01*
X2616200D01*
Y767588D01*
X2617216Y766572D01*
X2616200Y765556D01*
Y764540D01*
X2506218Y535686D02*
X2507234D01*
X2508250Y536702D01*
X2509266Y535686D01*
X2510282D01*
Y536702D01*
X2509266Y537718D01*
X2510282Y538734D01*
Y539750D01*
X2509266D01*
X2508250Y538734D01*
X2507234Y539750D01*
X2506218D01*
Y538734D01*
X2507234Y537718D01*
X2506218Y536702D01*
Y535686D01*
X2561336Y478536D02*
X2562352D01*
X2563368Y479552D01*
X2564384Y478536D01*
X2565400D01*
Y479552D01*
X2564384Y480568D01*
X2565400Y481584D01*
Y482600D01*
X2564384D01*
X2563368Y481584D01*
X2562352Y482600D01*
X2561336D01*
Y481584D01*
X2562352Y480568D01*
X2561336Y479552D01*
Y478536D01*
X2614676Y822452D02*
X2616708Y824484D01*
X2618740Y822452D01*
X2616708Y820420D01*
X2614676Y822452D01*
X2606548Y394716D02*
X2607564D01*
X2608580Y395732D01*
X2609596Y394716D01*
X2610612D01*
Y395732D01*
X2609596Y396748D01*
X2610612Y397764D01*
Y398780D01*
X2609596D01*
X2608580Y397764D01*
X2607564Y398780D01*
X2606548D01*
Y397764D01*
X2607564Y396748D01*
X2606548Y395732D01*
Y394716D01*
X2563622Y394970D02*
X2564638D01*
X2565654Y395986D01*
X2566670Y394970D01*
X2567686D01*
Y395986D01*
X2566670Y397002D01*
X2567686Y398018D01*
Y399034D01*
X2566670D01*
X2565654Y398018D01*
X2564638Y399034D01*
X2563622D01*
Y398018D01*
X2564638Y397002D01*
X2563622Y395986D01*
Y394970D01*
X2648204Y643128D02*
X2649220D01*
X2650236Y644144D01*
X2651252Y643128D01*
X2652268D01*
Y644144D01*
X2651252Y645160D01*
X2652268Y646176D01*
Y647192D01*
X2651252D01*
X2650236Y646176D01*
X2649220Y647192D01*
X2648204D01*
Y646176D01*
X2649220Y645160D01*
X2648204Y644144D01*
Y643128D01*
X2649220Y625094D02*
X2650236D01*
X2651252Y626110D01*
X2652268Y625094D01*
X2653284D01*
Y626110D01*
X2652268Y627126D01*
X2653284Y628142D01*
Y629158D01*
X2652268D01*
X2651252Y628142D01*
X2650236Y629158D01*
X2649220D01*
Y628142D01*
X2650236Y627126D01*
X2649220Y626110D01*
Y625094D01*
X2649474Y584708D02*
X2650490D01*
X2651506Y585724D01*
X2652522Y584708D01*
X2653538D01*
Y585724D01*
X2652522Y586740D01*
X2653538Y587756D01*
Y588772D01*
X2652522D01*
X2651506Y587756D01*
X2650490Y588772D01*
X2649474D01*
Y587756D01*
X2650490Y586740D01*
X2649474Y585724D01*
Y584708D01*
X2635504Y527812D02*
X2636520D01*
X2637536Y528828D01*
X2638552Y527812D01*
X2639568D01*
Y528828D01*
X2638552Y529844D01*
X2639568Y530860D01*
Y531876D01*
X2638552D01*
X2637536Y530860D01*
X2636520Y531876D01*
X2635504D01*
Y530860D01*
X2636520Y529844D01*
X2635504Y528828D01*
Y527812D01*
X2498344Y542036D02*
X2499360D01*
X2500376Y543052D01*
X2501392Y542036D01*
X2502408D01*
Y543052D01*
X2501392Y544068D01*
X2502408Y545084D01*
Y546100D01*
X2501392D01*
X2500376Y545084D01*
X2499360Y546100D01*
X2498344D01*
Y545084D01*
X2499360Y544068D01*
X2498344Y543052D01*
Y542036D01*
X2560320Y527812D02*
X2561336D01*
X2562352Y528828D01*
X2563368Y527812D01*
X2564384D01*
Y528828D01*
X2563368Y529844D01*
X2564384Y530860D01*
Y531876D01*
X2563368D01*
X2562352Y530860D01*
X2561336Y531876D01*
X2560320D01*
Y530860D01*
X2561336Y529844D01*
X2560320Y528828D01*
Y527812D01*
X2638044Y651002D02*
X2639060D01*
X2640076Y652018D01*
X2641092Y651002D01*
X2642108D01*
Y652018D01*
X2641092Y653034D01*
X2642108Y654050D01*
Y655066D01*
X2641092D01*
X2640076Y654050D01*
X2639060Y655066D01*
X2638044D01*
Y654050D01*
X2639060Y653034D01*
X2638044Y652018D01*
Y651002D01*
X2650490Y696722D02*
X2651506D01*
X2652522Y697738D01*
X2653538Y696722D01*
X2654554D01*
Y697738D01*
X2653538Y698754D01*
X2654554Y699770D01*
Y700786D01*
X2653538D01*
X2652522Y699770D01*
X2651506Y700786D01*
X2650490D01*
Y699770D01*
X2651506Y698754D01*
X2650490Y697738D01*
Y696722D01*
X2663698Y706628D02*
X2664714D01*
X2665730Y707644D01*
X2666746Y706628D01*
X2667762D01*
Y707644D01*
X2666746Y708660D01*
X2667762Y709676D01*
Y710692D01*
X2666746D01*
X2665730Y709676D01*
X2664714Y710692D01*
X2663698D01*
Y709676D01*
X2664714Y708660D01*
X2663698Y707644D01*
Y706628D01*
X2667866Y687936D02*
X2668882D01*
X2669898Y688952D01*
X2670914Y687936D01*
X2671930D01*
Y688952D01*
X2670914Y689968D01*
X2671930Y690984D01*
Y692000D01*
X2670914D01*
X2669898Y690984D01*
X2668882Y692000D01*
X2667866D01*
Y690984D01*
X2668882Y689968D01*
X2667866Y688952D01*
Y687936D01*
X2677160Y562356D02*
X2678176D01*
X2679192Y563372D01*
X2680208Y562356D01*
X2681224D01*
Y563372D01*
X2680208Y564388D01*
X2681224Y565404D01*
Y566420D01*
X2680208D01*
X2679192Y565404D01*
X2678176Y566420D01*
X2677160D01*
Y565404D01*
X2678176Y564388D01*
X2677160Y563372D01*
Y562356D01*
X2522982Y627126D02*
X2523998D01*
X2525014Y628142D01*
X2526030Y627126D01*
X2527046D01*
Y628142D01*
X2526030Y629158D01*
X2527046Y630174D01*
Y631190D01*
X2526030D01*
X2525014Y630174D01*
X2523998Y631190D01*
X2522982D01*
Y630174D01*
X2523998Y629158D01*
X2522982Y628142D01*
Y627126D01*
X2695957Y800861D02*
X2696973D01*
X2697989Y801877D01*
X2699005Y800861D01*
X2700021D01*
Y801877D01*
X2699005Y802893D01*
X2700021Y803909D01*
Y804925D01*
X2699005D01*
X2697989Y803909D01*
X2696973Y804925D01*
X2695957D01*
Y803909D01*
X2696973Y802893D01*
X2695957Y801877D01*
Y800861D01*
D347*
X2463038Y740918D02*
G03*
X2463038Y740918I-2032J0D01*
G01*
X2465832Y856488D02*
G03*
X2465832Y856488I-2032J0D01*
G01*
X2463038Y833628D02*
G03*
X2463038Y833628I-2032J0D01*
G01*
X2483104Y872998D02*
G03*
X2483104Y872998I-2032J0D01*
G01*
X2463038Y786384D02*
G03*
X2463038Y786384I-2032J0D01*
G01*
Y763778D02*
G03*
X2463038Y763778I-2032J0D01*
G01*
X2462784Y810768D02*
G03*
X2462784Y810768I-2032J0D01*
G01*
X2648204Y361442D02*
G03*
X2648204Y361442I-2032J0D01*
G01*
X2727960Y524256D02*
G03*
X2727960Y524256I-2032J0D01*
G01*
X2728214Y547116D02*
G03*
X2728214Y547116I-2032J0D01*
G01*
X2671826Y368554D02*
G03*
X2671826Y368554I-2032J0D01*
G01*
X2728468Y499872D02*
G03*
X2728468Y499872I-2032J0D01*
G01*
X2728214Y425958D02*
G03*
X2728214Y425958I-2032J0D01*
G01*
X2728468Y449326D02*
G03*
X2728468Y449326I-2032J0D01*
G01*
X2728214Y473964D02*
G03*
X2728214Y473964I-2032J0D01*
G01*
X2697226Y382016D02*
G03*
X2697226Y382016I-2032J0D01*
G01*
X2718816Y399542D02*
G03*
X2718816Y399542I-2032J0D01*
G01*
X2624328Y357632D02*
G03*
X2624328Y357632I-2032J0D01*
G01*
X2598928D02*
G03*
X2598928Y357632I-2032J0D01*
G01*
X2573528D02*
G03*
X2573528Y357632I-2032J0D01*
G01*
X2548128D02*
G03*
X2548128Y357632I-2032J0D01*
G01*
X2522728D02*
G03*
X2522728Y357632I-2032J0D01*
G01*
X2497328D02*
G03*
X2497328Y357632I-2032J0D01*
G01*
X2462784Y717042D02*
G03*
X2462784Y717042I-2032J0D01*
G01*
Y691642D02*
G03*
X2462784Y691642I-2032J0D01*
G01*
Y666242D02*
G03*
X2462784Y666242I-2032J0D01*
G01*
Y640842D02*
G03*
X2462784Y640842I-2032J0D01*
G01*
Y615442D02*
G03*
X2462784Y615442I-2032J0D01*
G01*
X2626572Y876462D02*
G03*
X2626572Y876462I-2032J0D01*
G01*
X2650581Y872523D02*
G03*
X2650581Y872523I-2032J0D01*
G01*
X2673549Y864668D02*
G03*
X2673549Y864668I-2032J0D01*
G01*
X2693912Y853732D02*
G03*
X2693912Y853732I-2032J0D01*
G01*
X2713214Y838910D02*
G03*
X2713214Y838910I-2032J0D01*
G01*
X2728254Y822992D02*
G03*
X2728254Y822992I-2032J0D01*
G01*
X2462530Y580390D02*
G03*
X2462530Y580390I-2032J0D01*
G01*
Y554990D02*
G03*
X2462530Y554990I-2032J0D01*
G01*
Y529590D02*
G03*
X2462530Y529590I-2032J0D01*
G01*
Y504190D02*
G03*
X2462530Y504190I-2032J0D01*
G01*
Y478790D02*
G03*
X2462530Y478790I-2032J0D01*
G01*
Y453390D02*
G03*
X2462530Y453390I-2032J0D01*
G01*
X2583688Y876300D02*
G03*
X2583688Y876300I-2032J0D01*
G01*
X2558288D02*
G03*
X2558288Y876300I-2032J0D01*
G01*
X2532888D02*
G03*
X2532888Y876300I-2032J0D01*
G01*
X2507488D02*
G03*
X2507488Y876300I-2032J0D01*
G01*
M02*
