G04 Layer_Color=2752767*
%FSLAX44Y44*%
%MOMM*%
G71*
G01*
G75*
%ADD323C,0.0508*%
%ADD353C,0.0677*%
D323*
X2703576Y548386D02*
Y552450D01*
X2707640D01*
Y548386D01*
X2703576D01*
X2569464Y504934D02*
X2567432Y508998D01*
X2571496D01*
X2569464Y504934D01*
Y725170D02*
X2570480Y726186D01*
X2571496D01*
X2570480Y727202D01*
X2571496Y728218D01*
X2570480D01*
X2569464Y729234D01*
X2568448Y728218D01*
X2567432D01*
X2568448Y727202D01*
X2567432Y726186D01*
X2568448D01*
X2569464Y725170D01*
X2620264Y355600D02*
X2621280Y357632D01*
X2620264Y359664D01*
X2622296Y358648D01*
X2624328Y359664D01*
X2623312Y357632D01*
X2624328Y355600D01*
X2622296Y356616D01*
X2620264Y355600D01*
X2594864D02*
X2595880Y357632D01*
X2594864Y359664D01*
X2596896Y358648D01*
X2598928Y359664D01*
X2597912Y357632D01*
X2598928Y355600D01*
X2596896Y356616D01*
X2594864Y355600D01*
X2569464D02*
X2570480Y357632D01*
X2569464Y359664D01*
X2571496Y358648D01*
X2573528Y359664D01*
X2572512Y357632D01*
X2573528Y355600D01*
X2571496Y356616D01*
X2569464Y355600D01*
X2544064D02*
X2545080Y357632D01*
X2544064Y359664D01*
X2546096Y358648D01*
X2548128Y359664D01*
X2547112Y357632D01*
X2548128Y355600D01*
X2546096Y356616D01*
X2544064Y355600D01*
X2518664D02*
X2519680Y357632D01*
X2518664Y359664D01*
X2520696Y358648D01*
X2522728Y359664D01*
X2521712Y357632D01*
X2522728Y355600D01*
X2520696Y356616D01*
X2518664Y355600D01*
X2493264D02*
X2494280Y357632D01*
X2493264Y359664D01*
X2495296Y358648D01*
X2497328Y359664D01*
X2496312Y357632D01*
X2497328Y355600D01*
X2495296Y356616D01*
X2493264Y355600D01*
X2458720Y715010D02*
X2459736Y717042D01*
X2458720Y719074D01*
X2460752Y718058D01*
X2462784Y719074D01*
X2461768Y717042D01*
X2462784Y715010D01*
X2460752Y716026D01*
X2458720Y715010D01*
Y689610D02*
X2459736Y691642D01*
X2458720Y693674D01*
X2460752Y692658D01*
X2462784Y693674D01*
X2461768Y691642D01*
X2462784Y689610D01*
X2460752Y690626D01*
X2458720Y689610D01*
Y664210D02*
X2459736Y666242D01*
X2458720Y668274D01*
X2460752Y667258D01*
X2462784Y668274D01*
X2461768Y666242D01*
X2462784Y664210D01*
X2460752Y665226D01*
X2458720Y664210D01*
Y638810D02*
X2459736Y640842D01*
X2458720Y642874D01*
X2460752Y641858D01*
X2462784Y642874D01*
X2461768Y640842D01*
X2462784Y638810D01*
X2460752Y639826D01*
X2458720Y638810D01*
Y613410D02*
X2459736Y615442D01*
X2458720Y617474D01*
X2460752Y616458D01*
X2462784Y617474D01*
X2461768Y615442D01*
X2462784Y613410D01*
X2460752Y614426D01*
X2458720Y613410D01*
X2672080Y505714D02*
Y504698D01*
X2674112D01*
Y505714D01*
X2675128D01*
Y507746D01*
X2674112D01*
Y508762D01*
X2672080D01*
Y507746D01*
X2671064D01*
Y505714D01*
X2672080D01*
X2622508Y874430D02*
X2623524Y876462D01*
X2622508Y878494D01*
X2624540Y877478D01*
X2626572Y878494D01*
X2625556Y876462D01*
X2626572Y874430D01*
X2624540Y875446D01*
X2622508Y874430D01*
X2646517Y870491D02*
X2647533Y872523D01*
X2646517Y874555D01*
X2648549Y873539D01*
X2650581Y874555D01*
X2649565Y872523D01*
X2650581Y870491D01*
X2648549Y871507D01*
X2646517Y870491D01*
X2669485Y862636D02*
X2670501Y864668D01*
X2669485Y866700D01*
X2671517Y865684D01*
X2673549Y866700D01*
X2672533Y864668D01*
X2673549Y862636D01*
X2671517Y863652D01*
X2669485Y862636D01*
X2689848Y851700D02*
X2690864Y853732D01*
X2689848Y855764D01*
X2691880Y854748D01*
X2693912Y855764D01*
X2692896Y853732D01*
X2693912Y851700D01*
X2691880Y852716D01*
X2689848Y851700D01*
X2709150Y836878D02*
X2710166Y838910D01*
X2709150Y840942D01*
X2711182Y839926D01*
X2713214Y840942D01*
X2712198Y838910D01*
X2713214Y836878D01*
X2711182Y837894D01*
X2709150Y836878D01*
X2724190Y820960D02*
X2725206Y822992D01*
X2724190Y825024D01*
X2726222Y824008D01*
X2728254Y825024D01*
X2727238Y822992D01*
X2728254Y820960D01*
X2726222Y821976D01*
X2724190Y820960D01*
X2458466Y578358D02*
X2459482Y580390D01*
X2458466Y582422D01*
X2460498Y581406D01*
X2462530Y582422D01*
X2461514Y580390D01*
X2462530Y578358D01*
X2460498Y579374D01*
X2458466Y578358D01*
Y552958D02*
X2459482Y554990D01*
X2458466Y557022D01*
X2460498Y556006D01*
X2462530Y557022D01*
X2461514Y554990D01*
X2462530Y552958D01*
X2460498Y553974D01*
X2458466Y552958D01*
Y527558D02*
X2459482Y529590D01*
X2458466Y531622D01*
X2460498Y530606D01*
X2462530Y531622D01*
X2461514Y529590D01*
X2462530Y527558D01*
X2460498Y528574D01*
X2458466Y527558D01*
Y502158D02*
X2459482Y504190D01*
X2458466Y506222D01*
X2460498Y505206D01*
X2462530Y506222D01*
X2461514Y504190D01*
X2462530Y502158D01*
X2460498Y503174D01*
X2458466Y502158D01*
Y476758D02*
X2459482Y478790D01*
X2458466Y480822D01*
X2460498Y479806D01*
X2462530Y480822D01*
X2461514Y478790D01*
X2462530Y476758D01*
X2460498Y477774D01*
X2458466Y476758D01*
Y451358D02*
X2459482Y453390D01*
X2458466Y455422D01*
X2460498Y454406D01*
X2462530Y455422D01*
X2461514Y453390D01*
X2462530Y451358D01*
X2460498Y452374D01*
X2458466Y451358D01*
X2588514Y849884D02*
Y848868D01*
X2590546D01*
Y849884D01*
X2591562D01*
Y851916D01*
X2590546D01*
Y852932D01*
X2588514D01*
Y851916D01*
X2587498D01*
Y849884D01*
X2588514D01*
X2579624Y874268D02*
X2580640Y876300D01*
X2579624Y878332D01*
X2581656Y877316D01*
X2583688Y878332D01*
X2582672Y876300D01*
X2583688Y874268D01*
X2581656Y875284D01*
X2579624Y874268D01*
X2554224D02*
X2555240Y876300D01*
X2554224Y878332D01*
X2556256Y877316D01*
X2558288Y878332D01*
X2557272Y876300D01*
X2558288Y874268D01*
X2556256Y875284D01*
X2554224Y874268D01*
X2528824D02*
X2529840Y876300D01*
X2528824Y878332D01*
X2530856Y877316D01*
X2532888Y878332D01*
X2531872Y876300D01*
X2532888Y874268D01*
X2530856Y875284D01*
X2528824Y874268D01*
X2503424D02*
X2504440Y876300D01*
X2503424Y878332D01*
X2505456Y877316D01*
X2507488Y878332D01*
X2506472Y876300D01*
X2507488Y874268D01*
X2505456Y875284D01*
X2503424Y874268D01*
X2671826Y445516D02*
X2672842D01*
X2673858Y446532D01*
X2674874Y445516D01*
X2675890D01*
Y446532D01*
X2674874Y447548D01*
X2675890Y448564D01*
Y449580D01*
X2674874D01*
X2673858Y448564D01*
X2672842Y449580D01*
X2671826D01*
Y448564D01*
X2672842Y447548D01*
X2671826Y446532D01*
Y445516D01*
X2649474Y476758D02*
X2650490D01*
X2651506Y477774D01*
X2652522Y476758D01*
X2653538D01*
Y477774D01*
X2652522Y478790D01*
X2653538Y479806D01*
Y480822D01*
X2652522D01*
X2651506Y479806D01*
X2650490Y480822D01*
X2649474D01*
Y479806D01*
X2650490Y478790D01*
X2649474Y477774D01*
Y476758D01*
X2662013Y467961D02*
X2663029D01*
X2664045Y468977D01*
X2665061Y467961D01*
X2666077D01*
Y468977D01*
X2665061Y469993D01*
X2666077Y471009D01*
Y472025D01*
X2665061D01*
X2664045Y471009D01*
X2663029Y472025D01*
X2662013D01*
Y471009D01*
X2663029Y469993D01*
X2662013Y468977D01*
Y467961D01*
X2522982Y651256D02*
X2523998D01*
X2525014Y652272D01*
X2526030Y651256D01*
X2527046D01*
Y652272D01*
X2526030Y653288D01*
X2527046Y654304D01*
Y655320D01*
X2526030D01*
X2525014Y654304D01*
X2523998Y655320D01*
X2522982D01*
Y654304D01*
X2523998Y653288D01*
X2522982Y652272D01*
Y651256D01*
X2525872Y657089D02*
X2526888D01*
X2527904Y658105D01*
X2528920Y657089D01*
X2529936D01*
Y658105D01*
X2528920Y659121D01*
X2529936Y660137D01*
Y661153D01*
X2528920D01*
X2527904Y660137D01*
X2526888Y661153D01*
X2525872D01*
Y660137D01*
X2526888Y659121D01*
X2525872Y658105D01*
Y657089D01*
X2661412Y413258D02*
X2663444Y415290D01*
X2665476Y413258D01*
X2663444Y411226D01*
X2661412Y413258D01*
X2542540Y484886D02*
X2543556D01*
X2544572Y485902D01*
X2545588Y484886D01*
X2546604D01*
Y485902D01*
X2545588Y486918D01*
X2546604Y487934D01*
Y488950D01*
X2545588D01*
X2544572Y487934D01*
X2543556Y488950D01*
X2542540D01*
Y487934D01*
X2543556Y486918D01*
X2542540Y485902D01*
Y484886D01*
X2608580Y704342D02*
X2609596D01*
X2610612Y705358D01*
X2611628Y704342D01*
X2612644D01*
Y705358D01*
X2611628Y706374D01*
X2612644Y707390D01*
Y708406D01*
X2611628D01*
X2610612Y707390D01*
X2609596Y708406D01*
X2608580D01*
Y707390D01*
X2609596Y706374D01*
X2608580Y705358D01*
Y704342D01*
X2593340Y626618D02*
X2594356D01*
X2595372Y627634D01*
X2596388Y626618D01*
X2597404D01*
Y627634D01*
X2596388Y628650D01*
X2597404Y629666D01*
Y630682D01*
X2596388D01*
X2595372Y629666D01*
X2594356Y630682D01*
X2593340D01*
Y629666D01*
X2594356Y628650D01*
X2593340Y627634D01*
Y626618D01*
X2608834Y586486D02*
X2609850D01*
X2610866Y587502D01*
X2611882Y586486D01*
X2612898D01*
Y587502D01*
X2611882Y588518D01*
X2612898Y589534D01*
Y590550D01*
X2611882D01*
X2610866Y589534D01*
X2609850Y590550D01*
X2608834D01*
Y589534D01*
X2609850Y588518D01*
X2608834Y587502D01*
Y586486D01*
X2535936Y610616D02*
X2536952D01*
X2537968Y611632D01*
X2538984Y610616D01*
X2540000D01*
Y611632D01*
X2538984Y612648D01*
X2540000Y613664D01*
Y614680D01*
X2538984D01*
X2537968Y613664D01*
X2536952Y614680D01*
X2535936D01*
Y613664D01*
X2536952Y612648D01*
X2535936Y611632D01*
Y610616D01*
X2541778Y618744D02*
X2542794D01*
X2543810Y619760D01*
X2544826Y618744D01*
X2545842D01*
Y619760D01*
X2544826Y620776D01*
X2545842Y621792D01*
Y622808D01*
X2544826D01*
X2543810Y621792D01*
X2542794Y622808D01*
X2541778D01*
Y621792D01*
X2542794Y620776D01*
X2541778Y619760D01*
Y618744D01*
X2645664Y556006D02*
X2646680D01*
X2647696Y557022D01*
X2648712Y556006D01*
X2649728D01*
Y557022D01*
X2648712Y558038D01*
X2649728Y559054D01*
Y560070D01*
X2648712D01*
X2647696Y559054D01*
X2646680Y560070D01*
X2645664D01*
Y559054D01*
X2646680Y558038D01*
X2645664Y557022D01*
Y556006D01*
X2638806Y578866D02*
X2639822D01*
X2640838Y579882D01*
X2641854Y578866D01*
X2642870D01*
Y579882D01*
X2641854Y580898D01*
X2642870Y581914D01*
Y582930D01*
X2641854D01*
X2640838Y581914D01*
X2639822Y582930D01*
X2638806D01*
Y581914D01*
X2639822Y580898D01*
X2638806Y579882D01*
Y578866D01*
X2657602Y538480D02*
X2658618D01*
X2659634Y539496D01*
X2660650Y538480D01*
X2661666D01*
Y539496D01*
X2660650Y540512D01*
X2661666Y541528D01*
Y542544D01*
X2660650D01*
X2659634Y541528D01*
X2658618Y542544D01*
X2657602D01*
Y541528D01*
X2658618Y540512D01*
X2657602Y539496D01*
Y538480D01*
X2620010Y562356D02*
X2621026D01*
X2622042Y563372D01*
X2623058Y562356D01*
X2624074D01*
Y563372D01*
X2623058Y564388D01*
X2624074Y565404D01*
Y566420D01*
X2623058D01*
X2622042Y565404D01*
X2621026Y566420D01*
X2620010D01*
Y565404D01*
X2621026Y564388D01*
X2620010Y563372D01*
Y562356D01*
X2608834Y638556D02*
X2609850D01*
X2610866Y639572D01*
X2611882Y638556D01*
X2612898D01*
Y639572D01*
X2611882Y640588D01*
X2612898Y641604D01*
Y642620D01*
X2611882D01*
X2610866Y641604D01*
X2609850Y642620D01*
X2608834D01*
Y641604D01*
X2609850Y640588D01*
X2608834Y639572D01*
Y638556D01*
X2533142Y638302D02*
X2534158D01*
X2535174Y639318D01*
X2536190Y638302D01*
X2537206D01*
Y639318D01*
X2536190Y640334D01*
X2537206Y641350D01*
Y642366D01*
X2536190D01*
X2535174Y641350D01*
X2534158Y642366D01*
X2533142D01*
Y641350D01*
X2534158Y640334D01*
X2533142Y639318D01*
Y638302D01*
X2541778Y645414D02*
X2542794D01*
X2543810Y646430D01*
X2544826Y645414D01*
X2545842D01*
Y646430D01*
X2544826Y647446D01*
X2545842Y648462D01*
Y649478D01*
X2544826D01*
X2543810Y648462D01*
X2542794Y649478D01*
X2541778D01*
Y648462D01*
X2542794Y647446D01*
X2541778Y646430D01*
Y645414D01*
X2531872Y657606D02*
X2532888D01*
X2533904Y658622D01*
X2534920Y657606D01*
X2535936D01*
Y658622D01*
X2534920Y659638D01*
X2535936Y660654D01*
Y661670D01*
X2534920D01*
X2533904Y660654D01*
X2532888Y661670D01*
X2531872D01*
Y660654D01*
X2532888Y659638D01*
X2531872Y658622D01*
Y657606D01*
X2608834Y577850D02*
X2609850D01*
X2610866Y578866D01*
X2611882Y577850D01*
X2612898D01*
Y578866D01*
X2611882Y579882D01*
X2612898Y580898D01*
Y581914D01*
X2611882D01*
X2610866Y580898D01*
X2609850Y581914D01*
X2608834D01*
Y580898D01*
X2609850Y579882D01*
X2608834Y578866D01*
Y577850D01*
X2603432Y571178D02*
X2604448D01*
X2605464Y572194D01*
X2606480Y571178D01*
X2607496D01*
Y572194D01*
X2606480Y573210D01*
X2607496Y574226D01*
Y575242D01*
X2606480D01*
X2605464Y574226D01*
X2604448Y575242D01*
X2603432D01*
Y574226D01*
X2604448Y573210D01*
X2603432Y572194D01*
Y571178D01*
X2646934Y664718D02*
X2647950D01*
X2648966Y665734D01*
X2649982Y664718D01*
X2650998D01*
Y665734D01*
X2649982Y666750D01*
X2650998Y667766D01*
Y668782D01*
X2649982D01*
X2648966Y667766D01*
X2647950Y668782D01*
X2646934D01*
Y667766D01*
X2647950Y666750D01*
X2646934Y665734D01*
Y664718D01*
X2641854Y657098D02*
X2642870D01*
X2643886Y658114D01*
X2644902Y657098D01*
X2645918D01*
Y658114D01*
X2644902Y659130D01*
X2645918Y660146D01*
Y661162D01*
X2644902D01*
X2643886Y660146D01*
X2642870Y661162D01*
X2641854D01*
Y660146D01*
X2642870Y659130D01*
X2641854Y658114D01*
Y657098D01*
X2647950Y655828D02*
X2648966D01*
X2649982Y656844D01*
X2650998Y655828D01*
X2652014D01*
Y656844D01*
X2650998Y657860D01*
X2652014Y658876D01*
Y659892D01*
X2650998D01*
X2649982Y658876D01*
X2648966Y659892D01*
X2647950D01*
Y658876D01*
X2648966Y657860D01*
X2647950Y656844D01*
Y655828D01*
X2591562Y465836D02*
X2592578D01*
X2593594Y466852D01*
X2594610Y465836D01*
X2595626D01*
Y466852D01*
X2594610Y467868D01*
X2595626Y468884D01*
Y469900D01*
X2594610D01*
X2593594Y468884D01*
X2592578Y469900D01*
X2591562D01*
Y468884D01*
X2592578Y467868D01*
X2591562Y466852D01*
Y465836D01*
X2501900Y466090D02*
X2502916D01*
X2503932Y467106D01*
X2504948Y466090D01*
X2505964D01*
Y467106D01*
X2504948Y468122D01*
X2505964Y469138D01*
Y470154D01*
X2504948D01*
X2503932Y469138D01*
X2502916Y470154D01*
X2501900D01*
Y469138D01*
X2502916Y468122D01*
X2501900Y467106D01*
Y466090D01*
X2480056Y608076D02*
X2481072D01*
X2482088Y609092D01*
X2483104Y608076D01*
X2484120D01*
Y609092D01*
X2483104Y610108D01*
X2484120Y611124D01*
Y612140D01*
X2483104D01*
X2482088Y611124D01*
X2481072Y612140D01*
X2480056D01*
Y611124D01*
X2481072Y610108D01*
X2480056Y609092D01*
Y608076D01*
X2603472Y777268D02*
X2604488D01*
X2605504Y778284D01*
X2606520Y777268D01*
X2607536D01*
Y778284D01*
X2606520Y779300D01*
X2607536Y780316D01*
Y781332D01*
X2606520D01*
X2605504Y780316D01*
X2604488Y781332D01*
X2603472D01*
Y780316D01*
X2604488Y779300D01*
X2603472Y778284D01*
Y777268D01*
X2607715Y773025D02*
X2608731D01*
X2609747Y774041D01*
X2610763Y773025D01*
X2611779D01*
Y774041D01*
X2610763Y775057D01*
X2611779Y776073D01*
Y777089D01*
X2610763D01*
X2609747Y776073D01*
X2608731Y777089D01*
X2607715D01*
Y776073D01*
X2608731Y775057D01*
X2607715Y774041D01*
Y773025D01*
X2611957Y768783D02*
X2612973D01*
X2613989Y769799D01*
X2615005Y768783D01*
X2616021D01*
Y769799D01*
X2615005Y770815D01*
X2616021Y771831D01*
Y772847D01*
X2615005D01*
X2613989Y771831D01*
X2612973Y772847D01*
X2611957D01*
Y771831D01*
X2612973Y770815D01*
X2611957Y769799D01*
Y768783D01*
X2616200Y764540D02*
X2617216D01*
X2618232Y765556D01*
X2619248Y764540D01*
X2620264D01*
Y765556D01*
X2619248Y766572D01*
X2620264Y767588D01*
Y768604D01*
X2619248D01*
X2618232Y767588D01*
X2617216Y768604D01*
X2616200D01*
Y767588D01*
X2617216Y766572D01*
X2616200Y765556D01*
Y764540D01*
X2506218Y535686D02*
X2507234D01*
X2508250Y536702D01*
X2509266Y535686D01*
X2510282D01*
Y536702D01*
X2509266Y537718D01*
X2510282Y538734D01*
Y539750D01*
X2509266D01*
X2508250Y538734D01*
X2507234Y539750D01*
X2506218D01*
Y538734D01*
X2507234Y537718D01*
X2506218Y536702D01*
Y535686D01*
X2561336Y478536D02*
X2562352D01*
X2563368Y479552D01*
X2564384Y478536D01*
X2565400D01*
Y479552D01*
X2564384Y480568D01*
X2565400Y481584D01*
Y482600D01*
X2564384D01*
X2563368Y481584D01*
X2562352Y482600D01*
X2561336D01*
Y481584D01*
X2562352Y480568D01*
X2561336Y479552D01*
Y478536D01*
X2614676Y822452D02*
X2616708Y824484D01*
X2618740Y822452D01*
X2616708Y820420D01*
X2614676Y822452D01*
X2606548Y394716D02*
X2607564D01*
X2608580Y395732D01*
X2609596Y394716D01*
X2610612D01*
Y395732D01*
X2609596Y396748D01*
X2610612Y397764D01*
Y398780D01*
X2609596D01*
X2608580Y397764D01*
X2607564Y398780D01*
X2606548D01*
Y397764D01*
X2607564Y396748D01*
X2606548Y395732D01*
Y394716D01*
X2563622Y394970D02*
X2564638D01*
X2565654Y395986D01*
X2566670Y394970D01*
X2567686D01*
Y395986D01*
X2566670Y397002D01*
X2567686Y398018D01*
Y399034D01*
X2566670D01*
X2565654Y398018D01*
X2564638Y399034D01*
X2563622D01*
Y398018D01*
X2564638Y397002D01*
X2563622Y395986D01*
Y394970D01*
X2648204Y643128D02*
X2649220D01*
X2650236Y644144D01*
X2651252Y643128D01*
X2652268D01*
Y644144D01*
X2651252Y645160D01*
X2652268Y646176D01*
Y647192D01*
X2651252D01*
X2650236Y646176D01*
X2649220Y647192D01*
X2648204D01*
Y646176D01*
X2649220Y645160D01*
X2648204Y644144D01*
Y643128D01*
X2649220Y625094D02*
X2650236D01*
X2651252Y626110D01*
X2652268Y625094D01*
X2653284D01*
Y626110D01*
X2652268Y627126D01*
X2653284Y628142D01*
Y629158D01*
X2652268D01*
X2651252Y628142D01*
X2650236Y629158D01*
X2649220D01*
Y628142D01*
X2650236Y627126D01*
X2649220Y626110D01*
Y625094D01*
X2649474Y584708D02*
X2650490D01*
X2651506Y585724D01*
X2652522Y584708D01*
X2653538D01*
Y585724D01*
X2652522Y586740D01*
X2653538Y587756D01*
Y588772D01*
X2652522D01*
X2651506Y587756D01*
X2650490Y588772D01*
X2649474D01*
Y587756D01*
X2650490Y586740D01*
X2649474Y585724D01*
Y584708D01*
X2635504Y527812D02*
X2636520D01*
X2637536Y528828D01*
X2638552Y527812D01*
X2639568D01*
Y528828D01*
X2638552Y529844D01*
X2639568Y530860D01*
Y531876D01*
X2638552D01*
X2637536Y530860D01*
X2636520Y531876D01*
X2635504D01*
Y530860D01*
X2636520Y529844D01*
X2635504Y528828D01*
Y527812D01*
X2498344Y542036D02*
X2499360D01*
X2500376Y543052D01*
X2501392Y542036D01*
X2502408D01*
Y543052D01*
X2501392Y544068D01*
X2502408Y545084D01*
Y546100D01*
X2501392D01*
X2500376Y545084D01*
X2499360Y546100D01*
X2498344D01*
Y545084D01*
X2499360Y544068D01*
X2498344Y543052D01*
Y542036D01*
X2560320Y527812D02*
X2561336D01*
X2562352Y528828D01*
X2563368Y527812D01*
X2564384D01*
Y528828D01*
X2563368Y529844D01*
X2564384Y530860D01*
Y531876D01*
X2563368D01*
X2562352Y530860D01*
X2561336Y531876D01*
X2560320D01*
Y530860D01*
X2561336Y529844D01*
X2560320Y528828D01*
Y527812D01*
X2638044Y651002D02*
X2639060D01*
X2640076Y652018D01*
X2641092Y651002D01*
X2642108D01*
Y652018D01*
X2641092Y653034D01*
X2642108Y654050D01*
Y655066D01*
X2641092D01*
X2640076Y654050D01*
X2639060Y655066D01*
X2638044D01*
Y654050D01*
X2639060Y653034D01*
X2638044Y652018D01*
Y651002D01*
X2650490Y696722D02*
X2651506D01*
X2652522Y697738D01*
X2653538Y696722D01*
X2654554D01*
Y697738D01*
X2653538Y698754D01*
X2654554Y699770D01*
Y700786D01*
X2653538D01*
X2652522Y699770D01*
X2651506Y700786D01*
X2650490D01*
Y699770D01*
X2651506Y698754D01*
X2650490Y697738D01*
Y696722D01*
X2663698Y706628D02*
X2664714D01*
X2665730Y707644D01*
X2666746Y706628D01*
X2667762D01*
Y707644D01*
X2666746Y708660D01*
X2667762Y709676D01*
Y710692D01*
X2666746D01*
X2665730Y709676D01*
X2664714Y710692D01*
X2663698D01*
Y709676D01*
X2664714Y708660D01*
X2663698Y707644D01*
Y706628D01*
X2667866Y687936D02*
X2668882D01*
X2669898Y688952D01*
X2670914Y687936D01*
X2671930D01*
Y688952D01*
X2670914Y689968D01*
X2671930Y690984D01*
Y692000D01*
X2670914D01*
X2669898Y690984D01*
X2668882Y692000D01*
X2667866D01*
Y690984D01*
X2668882Y689968D01*
X2667866Y688952D01*
Y687936D01*
X2677160Y562356D02*
X2678176D01*
X2679192Y563372D01*
X2680208Y562356D01*
X2681224D01*
Y563372D01*
X2680208Y564388D01*
X2681224Y565404D01*
Y566420D01*
X2680208D01*
X2679192Y565404D01*
X2678176Y566420D01*
X2677160D01*
Y565404D01*
X2678176Y564388D01*
X2677160Y563372D01*
Y562356D01*
X2522982Y627126D02*
X2523998D01*
X2525014Y628142D01*
X2526030Y627126D01*
X2527046D01*
Y628142D01*
X2526030Y629158D01*
X2527046Y630174D01*
Y631190D01*
X2526030D01*
X2525014Y630174D01*
X2523998Y631190D01*
X2522982D01*
Y630174D01*
X2523998Y629158D01*
X2522982Y628142D01*
Y627126D01*
X2695957Y800861D02*
X2696973D01*
X2697989Y801877D01*
X2699005Y800861D01*
X2700021D01*
Y801877D01*
X2699005Y802893D01*
X2700021Y803909D01*
Y804925D01*
X2699005D01*
X2697989Y803909D01*
X2696973Y804925D01*
X2695957D01*
Y803909D01*
X2696973Y802893D01*
X2695957Y801877D01*
Y800861D01*
D353*
X2728722Y771398D02*
G03*
X2728722Y771398I-2032J0D01*
G01*
X2728976Y692404D02*
G03*
X2728976Y692404I-2032J0D01*
G01*
X2728214Y520446D02*
G03*
X2728214Y520446I-2032J0D01*
G01*
Y446278D02*
G03*
X2728214Y446278I-2032J0D01*
G01*
X2463038Y409448D02*
G03*
X2463038Y409448I-2032J0D01*
G01*
Y801116D02*
G03*
X2463038Y801116I-2032J0D01*
G01*
M02*
