M48
;Layer_Color=9474304
;FILE_FORMAT=4:2
METRIC,LZ
;TYPE=PLATED
T1F00S00C0.20
T2F00S00C0.30
T3F00S00C0.71
T4F00S00C1.80
;TYPE=NON_PLATED
T5F00S00C0.66
%
T01
X005691Y002814
X005842Y002781
X005944Y002766
X006071Y002743
X006067Y003088
X005944Y003086
X005842Y003088
X005691Y003089
X006091Y003239
X006236Y003531
X006404Y003439
X006341Y003789
X006616
X006141Y003935
X006066Y003889
X005991Y003864
X005791Y003962
X005641Y003814
X005366
X005191Y003589
X004972Y003714
X00491
X005846Y003693
X006616Y003114
X00675Y003089
X006866Y002889
X006991Y002939
X007191Y003039
X00712Y00341
X007591Y003464
X007741Y003689
Y003814
X007741Y003938
X007316Y003864
X007766Y003189
X007741Y004064
X007741Y004188
X007303Y004216
X0073Y004284
X007241Y004314
X007291Y004089
X007191Y004564
Y004639
Y004714
Y004789
Y004864
X006934Y004864
Y004801
Y004712
X006916Y004639
X006921Y004572
X006982Y00453
X006688Y004535
X006641Y004689
X006464Y004762
X006366Y004564
X006241
X006172Y004521
X005969
X005941Y004614
X005888Y004867
X005791Y004877
X005741Y004814
X005691Y004864
X006116Y004789
X006086Y004344
X006147Y004305
X006291Y004339
X006638Y004342
X006691Y004264
X006642Y00508
X006579
X006616Y005314
X006541Y005389
X00667Y005985
X006794Y006035
X007041Y006014
X006864Y005811
X005841Y005714
X005891Y004339
Y004114
X005741Y004089
X005691Y003989
X005566Y004164
X005641Y004339
X005316Y004264
X005241Y004195
X005291Y004132
X005316Y004039
X004591Y004689
T02
X005256Y003492
X005105Y003785
X006185Y005867
X007379Y00574
X007683Y004762
T03
X005416Y003714
X005541Y003939
X005791Y003439
X006782Y004191
X006716Y005514
X007591Y004914
X004816Y005414
X005091Y005889
T04
X004691Y002939
X007691
Y005939
X004691
T05
X00511Y004881
X007313
M30
