G04 Layer_Color=8421504*
%FSLAX42Y42*%
%MOMM*%
G71*
G01*
G75*
G04:AMPARAMS|DCode=43|XSize=0.3mm|YSize=1.17mm|CornerRadius=0.15mm|HoleSize=0mm|Usage=FLASHONLY|Rotation=180.000|XOffset=0mm|YOffset=0mm|HoleType=Round|Shape=RoundedRectangle|*
%AMROUNDEDRECTD43*
21,1,0.30,0.86,0,0,180.0*
21,1,0.00,1.17,0,0,180.0*
1,1,0.30,0.00,0.43*
1,1,0.30,0.00,0.43*
1,1,0.30,0.00,-0.43*
1,1,0.30,0.00,-0.43*
%
%ADD43ROUNDEDRECTD43*%
%ADD44R,0.30X1.17*%
%ADD45R,1.47X2.16*%
D43*
X5237Y4425D02*
D03*
D44*
X5286D02*
D03*
X5337D02*
D03*
X5387D02*
D03*
X5436D02*
D03*
X5486D02*
D03*
X5537D02*
D03*
X5585D02*
D03*
X5636D02*
D03*
X5687D02*
D03*
X5735D02*
D03*
X5786D02*
D03*
X5837D02*
D03*
X5888D02*
D03*
X5936D02*
D03*
X5987D02*
D03*
X6038D02*
D03*
X6086D02*
D03*
X6137D02*
D03*
X6187D02*
D03*
X6238D02*
D03*
X6288D02*
D03*
X6338D02*
D03*
X6388D02*
D03*
X6438D02*
D03*
X6488D02*
D03*
X6538D02*
D03*
X6588D02*
D03*
X6638D02*
D03*
X6688D02*
D03*
X5237Y4956D02*
D03*
X5286D02*
D03*
X5337D02*
D03*
X5387D02*
D03*
X5436D02*
D03*
X5486D02*
D03*
X5537D02*
D03*
X5585D02*
D03*
X5636D02*
D03*
X5687D02*
D03*
X5735D02*
D03*
X5786D02*
D03*
X5837D02*
D03*
X5888D02*
D03*
X5936D02*
D03*
X5987D02*
D03*
X6038D02*
D03*
X6086D02*
D03*
X6137D02*
D03*
X6187D02*
D03*
X6238D02*
D03*
X6288D02*
D03*
X6338D02*
D03*
X6388D02*
D03*
X6438D02*
D03*
X6488D02*
D03*
X6538D02*
D03*
X6588D02*
D03*
X6638D02*
D03*
X6688D02*
D03*
X6738Y4425D02*
D03*
Y4956D02*
D03*
X6788Y4425D02*
D03*
Y4956D02*
D03*
X6838Y4425D02*
D03*
Y4956D02*
D03*
X6888Y4425D02*
D03*
Y4956D02*
D03*
X6938Y4425D02*
D03*
Y4956D02*
D03*
X6988Y4425D02*
D03*
Y4956D02*
D03*
X7038Y4425D02*
D03*
Y4956D02*
D03*
X7088Y4425D02*
D03*
Y4956D02*
D03*
X7138Y4425D02*
D03*
Y4956D02*
D03*
X7188Y4425D02*
D03*
Y4956D02*
D03*
D45*
X7413Y4691D02*
D03*
X5011D02*
D03*
M02*
