G04 Layer_Physical_Order=2*
G04 Layer_Color=16711680*
%FSLAX42Y42*%
%MOMM*%
G71*
G01*
G75*
%ADD14C,0.25*%
%ADD15C,0.80*%
%ADD16C,0.15*%
%ADD17C,0.15*%
%ADD18R,0.41X0.41*%
%ADD19C,2.21*%
%ADD20C,0.66*%
%ADD21R,0.41X0.41*%
%ADD22C,0.50*%
%ADD23C,1.27*%
%ADD24C,0.45*%
G04:AMPARAMS|DCode=25|XSize=2.82mm|YSize=1.02mm|CornerRadius=0.51mm|HoleSize=0mm|Usage=FLASHONLY|Rotation=90.000|XOffset=0mm|YOffset=0mm|HoleType=Round|Shape=RoundedRectangle|*
%AMROUNDEDRECTD25*
21,1,2.82,0.00,0,0,90.0*
21,1,1.80,1.02,0,0,90.0*
1,1,1.02,0.00,0.90*
1,1,1.02,0.00,-0.90*
1,1,1.02,0.00,-0.90*
1,1,1.02,0.00,0.90*
%
%ADD25ROUNDEDRECTD25*%
G04:AMPARAMS|DCode=26|XSize=0.61mm|YSize=1.7mm|CornerRadius=0.3mm|HoleSize=0mm|Usage=FLASHONLY|Rotation=180.000|XOffset=0mm|YOffset=0mm|HoleType=Round|Shape=RoundedRectangle|*
%AMROUNDEDRECTD26*
21,1,0.61,1.09,0,0,180.0*
21,1,0.00,1.70,0,0,180.0*
1,1,0.61,0.00,0.55*
1,1,0.61,0.00,0.55*
1,1,0.61,0.00,-0.55*
1,1,0.61,0.00,-0.55*
%
%ADD26ROUNDEDRECTD26*%
%ADD27R,2.01X1.12*%
%ADD28R,0.81X0.81*%
%ADD29R,0.61X0.51*%
%ADD30R,0.61X0.61*%
G04:AMPARAMS|DCode=31|XSize=0.61mm|YSize=1.7mm|CornerRadius=0.3mm|HoleSize=0mm|Usage=FLASHONLY|Rotation=270.000|XOffset=0mm|YOffset=0mm|HoleType=Round|Shape=RoundedRectangle|*
%AMROUNDEDRECTD31*
21,1,0.61,1.09,0,0,270.0*
21,1,0.00,1.70,0,0,270.0*
1,1,0.61,-0.55,0.00*
1,1,0.61,-0.55,0.00*
1,1,0.61,0.55,0.00*
1,1,0.61,0.55,0.00*
%
%ADD31ROUNDEDRECTD31*%
G04:AMPARAMS|DCode=32|XSize=2.82mm|YSize=1.02mm|CornerRadius=0.51mm|HoleSize=0mm|Usage=FLASHONLY|Rotation=180.000|XOffset=0mm|YOffset=0mm|HoleType=Round|Shape=RoundedRectangle|*
%AMROUNDEDRECTD32*
21,1,2.82,0.00,0,0,180.0*
21,1,1.80,1.02,0,0,180.0*
1,1,1.02,-0.90,0.00*
1,1,1.02,0.90,0.00*
1,1,1.02,0.90,0.00*
1,1,1.02,-0.90,0.00*
%
%ADD32ROUNDEDRECTD32*%
G04:AMPARAMS|DCode=33|XSize=3.61mm|YSize=1.8mm|CornerRadius=0.9mm|HoleSize=0mm|Usage=FLASHONLY|Rotation=0.000|XOffset=0mm|YOffset=0mm|HoleType=Round|Shape=RoundedRectangle|*
%AMROUNDEDRECTD33*
21,1,3.61,0.00,0,0,0.0*
21,1,1.80,1.80,0,0,0.0*
1,1,1.80,0.90,0.00*
1,1,1.80,-0.90,0.00*
1,1,1.80,-0.90,0.00*
1,1,1.80,0.90,0.00*
%
%ADD33ROUNDEDRECTD33*%
G04:AMPARAMS|DCode=34|XSize=1.02mm|YSize=2.92mm|CornerRadius=0.51mm|HoleSize=0mm|Usage=FLASHONLY|Rotation=90.000|XOffset=0mm|YOffset=0mm|HoleType=Round|Shape=RoundedRectangle|*
%AMROUNDEDRECTD34*
21,1,1.02,1.91,0,0,90.0*
21,1,0.00,2.92,0,0,90.0*
1,1,1.02,0.95,0.00*
1,1,1.02,0.95,0.00*
1,1,1.02,-0.95,0.00*
1,1,1.02,-0.95,0.00*
%
%ADD34ROUNDEDRECTD34*%
G04:AMPARAMS|DCode=35|XSize=1.02mm|YSize=2.8mm|CornerRadius=0.51mm|HoleSize=0mm|Usage=FLASHONLY|Rotation=90.000|XOffset=0mm|YOffset=0mm|HoleType=Round|Shape=RoundedRectangle|*
%AMROUNDEDRECTD35*
21,1,1.02,1.78,0,0,90.0*
21,1,0.00,2.80,0,0,90.0*
1,1,1.02,0.89,0.00*
1,1,1.02,0.89,0.00*
1,1,1.02,-0.89,0.00*
1,1,1.02,-0.89,0.00*
%
%ADD35ROUNDEDRECTD35*%
G04:AMPARAMS|DCode=36|XSize=1.5mm|YSize=1.02mm|CornerRadius=0.25mm|HoleSize=0mm|Usage=FLASHONLY|Rotation=180.000|XOffset=0mm|YOffset=0mm|HoleType=Round|Shape=RoundedRectangle|*
%AMROUNDEDRECTD36*
21,1,1.50,0.51,0,0,180.0*
21,1,0.99,1.02,0,0,180.0*
1,1,0.51,-0.50,0.25*
1,1,0.51,0.50,0.25*
1,1,0.51,0.50,-0.25*
1,1,0.51,-0.50,-0.25*
%
%ADD36ROUNDEDRECTD36*%
G04:AMPARAMS|DCode=37|XSize=1.3mm|YSize=1.02mm|CornerRadius=0.25mm|HoleSize=0mm|Usage=FLASHONLY|Rotation=180.000|XOffset=0mm|YOffset=0mm|HoleType=Round|Shape=RoundedRectangle|*
%AMROUNDEDRECTD37*
21,1,1.30,0.51,0,0,180.0*
21,1,0.79,1.02,0,0,180.0*
1,1,0.51,-0.40,0.25*
1,1,0.51,0.40,0.25*
1,1,0.51,0.40,-0.25*
1,1,0.51,-0.40,-0.25*
%
%ADD37ROUNDEDRECTD37*%
G04:AMPARAMS|DCode=38|XSize=1.5mm|YSize=1.02mm|CornerRadius=0.25mm|HoleSize=0mm|Usage=FLASHONLY|Rotation=90.000|XOffset=0mm|YOffset=0mm|HoleType=Round|Shape=RoundedRectangle|*
%AMROUNDEDRECTD38*
21,1,1.50,0.51,0,0,90.0*
21,1,0.99,1.02,0,0,90.0*
1,1,0.51,0.25,0.50*
1,1,0.51,0.25,-0.50*
1,1,0.51,-0.25,-0.50*
1,1,0.51,-0.25,0.50*
%
%ADD38ROUNDEDRECTD38*%
%ADD39R,0.61X0.61*%
%ADD40R,0.51X0.61*%
G36*
X7336Y3194D02*
Y3038D01*
X7271Y2973D01*
X7189D01*
X7181Y2971D01*
X7174Y2967D01*
X7136Y2928D01*
X7124Y2935D01*
X7125Y2940D01*
Y2982D01*
X7068D01*
Y3008D01*
X7125D01*
Y3050D01*
X7121Y3071D01*
X7109Y3090D01*
X7106Y3092D01*
X7109Y3105D01*
X7222D01*
X7229Y3106D01*
X7236Y3111D01*
X7325Y3199D01*
X7336Y3194D01*
D02*
G37*
G36*
X7129Y3472D02*
X7124Y3460D01*
X7094D01*
X7075Y3456D01*
X7058Y3445D01*
X7047Y3428D01*
X7043Y3408D01*
Y3372D01*
X7120D01*
Y3346D01*
X7043D01*
Y3309D01*
X7043Y3308D01*
X7035Y3298D01*
X6992D01*
X6984Y3308D01*
X6984Y3309D01*
Y3408D01*
X6981Y3423D01*
X6974Y3435D01*
Y3535D01*
X6969Y3556D01*
X6958Y3573D01*
X6845Y3686D01*
Y3739D01*
X6854Y3743D01*
X6858Y3743D01*
X7129Y3472D01*
D02*
G37*
G36*
X5758Y3507D02*
X5753Y3505D01*
X5737Y3493D01*
X5736Y3492D01*
X5639D01*
X5618Y3488D01*
X5601Y3477D01*
X5514Y3390D01*
X5503Y3373D01*
X5499Y3352D01*
Y3264D01*
Y3222D01*
X5486Y3210D01*
X5474Y3214D01*
Y3332D01*
X5415D01*
Y3369D01*
X5411Y3389D01*
X5399Y3406D01*
X5355Y3450D01*
X5342Y3459D01*
Y3480D01*
X5297D01*
Y3505D01*
X5342D01*
Y3520D01*
X5755D01*
X5758Y3507D01*
D02*
G37*
G36*
X6499Y5895D02*
Y5825D01*
X6502Y5809D01*
X6504Y5807D01*
X6498Y5795D01*
X6228D01*
Y5822D01*
X6271D01*
Y5855D01*
X6226D01*
Y5880D01*
X6271D01*
Y5913D01*
X6228D01*
Y5928D01*
X6466D01*
X6499Y5895D01*
D02*
G37*
G36*
X5388Y3823D02*
Y3784D01*
X5378Y3780D01*
X5362Y3768D01*
X5350Y3752D01*
X5342Y3734D01*
X5339Y3714D01*
X5342Y3694D01*
X5350Y3675D01*
X5362Y3659D01*
X5378Y3647D01*
X5396Y3639D01*
X5394Y3628D01*
X5298D01*
X5282Y3638D01*
X5262Y3642D01*
X5213D01*
X5212Y3646D01*
X5211Y3655D01*
X5226Y3665D01*
X5270Y3709D01*
X5276D01*
Y3717D01*
X5282Y3727D01*
X5286Y3747D01*
X5282Y3768D01*
X5278Y3774D01*
X5276Y3785D01*
X5276D01*
Y3785D01*
X5277Y3797D01*
X5278Y3797D01*
X5288D01*
Y3835D01*
X5232D01*
Y3861D01*
X5288D01*
Y3872D01*
X5338D01*
X5388Y3823D01*
D02*
G37*
G36*
X4959Y6340D02*
X4965Y6327D01*
X4963Y6324D01*
X4955Y6305D01*
X4952Y6285D01*
Y6208D01*
X5106D01*
Y6285D01*
X5103Y6305D01*
X5096Y6324D01*
X5093Y6327D01*
X5099Y6340D01*
X5975Y6340D01*
X5981Y6327D01*
X5978Y6324D01*
X5970Y6305D01*
X5968Y6285D01*
Y6208D01*
X6045D01*
Y6195D01*
X6057D01*
Y6030D01*
X6065Y6031D01*
X6083Y6038D01*
X6099Y6050D01*
X6111Y6066D01*
X6119Y6085D01*
X6119Y6086D01*
X6130Y6094D01*
X6140Y6092D01*
X6142Y6084D01*
X6142Y6083D01*
Y6008D01*
X6164D01*
Y5992D01*
X6142D01*
Y5913D01*
X6099D01*
Y5880D01*
X6145D01*
Y5855D01*
X6099D01*
Y5822D01*
X6142D01*
Y5747D01*
X6093D01*
X6079Y5744D01*
X6066Y5736D01*
X6058Y5723D01*
X6055Y5708D01*
Y5609D01*
X6058Y5594D01*
X6066Y5582D01*
X6079Y5573D01*
X6093Y5570D01*
X6144D01*
X6159Y5573D01*
X6164Y5577D01*
X6446Y5295D01*
X6454Y5290D01*
X6464Y5288D01*
X6588D01*
X6589Y5286D01*
X6602Y5278D01*
X6616Y5275D01*
X6631Y5278D01*
X6643Y5286D01*
X6652Y5299D01*
X6655Y5314D01*
X6652Y5328D01*
X6643Y5341D01*
X6631Y5349D01*
X6616Y5352D01*
X6602Y5349D01*
X6589Y5341D01*
X6588Y5340D01*
X6553D01*
X6551Y5352D01*
X6556Y5353D01*
X6568Y5361D01*
X6577Y5374D01*
X6580Y5389D01*
X6577Y5403D01*
X6568Y5416D01*
X6556Y5424D01*
X6546Y5426D01*
Y5571D01*
X6560Y5573D01*
X6573Y5582D01*
X6581Y5594D01*
X6584Y5609D01*
Y5708D01*
X6581Y5723D01*
X6573Y5736D01*
X6565Y5741D01*
X6568Y5754D01*
X6671D01*
X6675Y5741D01*
X6667Y5736D01*
X6659Y5723D01*
X6656Y5708D01*
Y5609D01*
X6659Y5594D01*
X6666Y5583D01*
Y5571D01*
X6662Y5568D01*
X6650Y5552D01*
X6642Y5534D01*
X6639Y5514D01*
X6642Y5494D01*
X6650Y5475D01*
X6662Y5459D01*
X6678Y5447D01*
X6696Y5439D01*
X6716Y5437D01*
X6736Y5439D01*
X6755Y5447D01*
X6771Y5459D01*
X6771Y5460D01*
X7241D01*
X7262Y5464D01*
X7279Y5476D01*
X7337Y5533D01*
X7348Y5551D01*
X7352Y5571D01*
Y5654D01*
X7366D01*
Y5700D01*
X7391D01*
Y5654D01*
X7424D01*
Y5639D01*
X7468D01*
Y5677D01*
X7424D01*
Y5695D01*
Y5697D01*
X7503D01*
Y5720D01*
X7556D01*
X7614Y5661D01*
Y5490D01*
X7580D01*
X7564Y5486D01*
X7554Y5480D01*
X7523Y5511D01*
Y5563D01*
X7523D01*
X7525Y5575D01*
X7536D01*
Y5613D01*
X7424D01*
Y5575D01*
X7435D01*
X7437Y5563D01*
X7437D01*
Y5487D01*
X7489D01*
X7538Y5439D01*
X7540Y5429D01*
X7549Y5415D01*
X7564Y5405D01*
X7580Y5402D01*
X7690D01*
X7706Y5405D01*
X7721Y5415D01*
X7730Y5429D01*
X7734Y5446D01*
X7730Y5463D01*
X7721Y5477D01*
X7706Y5486D01*
X7690Y5490D01*
X7656D01*
Y5670D01*
X7656Y5670D01*
X7654Y5678D01*
X7650Y5684D01*
X7579Y5755D01*
X7572Y5759D01*
X7564Y5761D01*
X7503D01*
Y5784D01*
X7424D01*
Y5826D01*
X7391D01*
Y5780D01*
X7366D01*
Y5826D01*
X7333D01*
Y5796D01*
X7320Y5789D01*
X7319Y5790D01*
X7299Y5794D01*
X7278Y5790D01*
X7268Y5784D01*
X7256D01*
Y5771D01*
X7249Y5761D01*
X7245Y5740D01*
Y5593D01*
X7219Y5567D01*
X7194D01*
X7187Y5580D01*
X7193Y5589D01*
X7197Y5609D01*
Y5646D01*
X7043D01*
Y5609D01*
X7047Y5589D01*
X7053Y5580D01*
X7046Y5567D01*
X6974D01*
X6970Y5580D01*
X6973Y5582D01*
X6981Y5594D01*
X6984Y5609D01*
Y5708D01*
X6981Y5723D01*
X6973Y5736D01*
X6960Y5744D01*
X6945Y5747D01*
X6894D01*
X6880Y5744D01*
X6867Y5736D01*
X6865Y5733D01*
X6852Y5732D01*
X6811Y5773D01*
X6815Y5787D01*
X6818Y5789D01*
X6834Y5787D01*
X6835Y5786D01*
X6836Y5784D01*
X6849Y5775D01*
X6864Y5773D01*
X6878Y5775D01*
X6891Y5784D01*
X6902Y5786D01*
X6904Y5785D01*
X6921Y5781D01*
X6937Y5785D01*
X6952Y5794D01*
X6961Y5809D01*
X6965Y5825D01*
Y5935D01*
X6961Y5951D01*
X6952Y5966D01*
X6937Y5975D01*
X6921Y5979D01*
X6904Y5975D01*
X6889Y5966D01*
X6880Y5951D01*
X6876Y5935D01*
Y5859D01*
X6865Y5849D01*
X6864Y5849D01*
X6851Y5847D01*
X6839Y5854D01*
Y5935D01*
X6835Y5951D01*
X6826Y5966D01*
X6815Y5973D01*
Y6004D01*
X6822Y6008D01*
X6830Y6021D01*
X6833Y6035D01*
X6830Y6050D01*
X6822Y6063D01*
X6809Y6071D01*
X6794Y6074D01*
X6780Y6071D01*
X6767Y6063D01*
X6759Y6050D01*
X6756Y6035D01*
X6759Y6021D01*
X6767Y6008D01*
X6774Y6004D01*
Y5973D01*
X6763Y5966D01*
X6754Y5951D01*
X6750Y5935D01*
Y5825D01*
X6754Y5809D01*
X6755Y5807D01*
X6749Y5795D01*
X6715D01*
X6709Y5807D01*
X6711Y5809D01*
X6714Y5825D01*
Y5935D01*
X6711Y5951D01*
X6702Y5965D01*
X6706Y5970D01*
X6708Y5985D01*
X6706Y6000D01*
X6697Y6012D01*
X6685Y6020D01*
X6670Y6023D01*
X6655Y6020D01*
X6643Y6012D01*
X6635Y6000D01*
X6632Y5985D01*
X6635Y5970D01*
X6638Y5965D01*
X6629Y5951D01*
X6626Y5935D01*
Y5825D01*
X6629Y5809D01*
X6631Y5807D01*
X6625Y5795D01*
X6588D01*
X6582Y5807D01*
X6584Y5809D01*
X6587Y5825D01*
Y5935D01*
X6584Y5951D01*
X6574Y5966D01*
X6560Y5975D01*
X6543Y5979D01*
X6526Y5975D01*
X6512Y5966D01*
X6509Y5961D01*
X6493Y5960D01*
X6489Y5963D01*
X6482Y5968D01*
X6474Y5969D01*
X6228D01*
Y5992D01*
X6205D01*
Y6008D01*
X6228D01*
Y6083D01*
X6228Y6084D01*
X6230Y6096D01*
X6241D01*
Y6134D01*
X6185D01*
Y6147D01*
X6172D01*
Y6198D01*
X6134D01*
X6129Y6198D01*
X6122Y6207D01*
X6122Y6207D01*
Y6285D01*
X6119Y6305D01*
X6111Y6324D01*
X6109Y6327D01*
X6115Y6340D01*
X6280Y6340D01*
X6286Y6327D01*
X6283Y6324D01*
X6276Y6305D01*
X6273Y6285D01*
Y6208D01*
X6427D01*
Y6285D01*
X6424Y6305D01*
X6417Y6324D01*
X6414Y6327D01*
X6420Y6340D01*
X7295Y6340D01*
X7302Y6327D01*
X7299Y6324D01*
X7291Y6305D01*
X7289Y6285D01*
Y6208D01*
X7442D01*
Y6285D01*
X7440Y6305D01*
X7432Y6324D01*
X7429Y6327D01*
X7436Y6340D01*
X7578Y6340D01*
X7625Y6332D01*
X7690Y6313D01*
X7753Y6287D01*
X7813Y6254D01*
X7868Y6215D01*
X7919Y6169D01*
X7965Y6118D01*
X8004Y6063D01*
X8037Y6003D01*
X8063Y5940D01*
X8082Y5875D01*
X8091Y5824D01*
X8090Y5713D01*
X8079Y5708D01*
X8079Y5708D01*
X8060Y5716D01*
X8040Y5718D01*
X7963D01*
Y5641D01*
Y5564D01*
X8040D01*
X8060Y5567D01*
X8079Y5575D01*
X8079Y5575D01*
X8090Y5570D01*
X8090Y4947D01*
X8087Y4946D01*
X8078Y4942D01*
X8060Y4950D01*
X8040Y4952D01*
X7963D01*
Y4875D01*
X7950D01*
Y4863D01*
X7785D01*
X7786Y4855D01*
X7793Y4837D01*
X7805Y4821D01*
X7810Y4818D01*
X7805Y4806D01*
X7729D01*
Y4848D01*
X7696D01*
Y4803D01*
X7671D01*
Y4848D01*
X7651D01*
X7649Y4852D01*
X7647Y4861D01*
X7658Y4875D01*
X7665Y4894D01*
X7668Y4914D01*
X7665Y4934D01*
X7658Y4952D01*
X7646Y4968D01*
X7630Y4980D01*
X7611Y4988D01*
X7591Y4991D01*
X7571Y4988D01*
X7553Y4980D01*
X7537Y4968D01*
X7525Y4952D01*
X7517Y4934D01*
X7516Y4929D01*
X7503Y4927D01*
X7497Y4937D01*
X7484Y4945D01*
X7470Y4948D01*
X7390D01*
X7387Y4947D01*
X7282Y5052D01*
X7287Y5063D01*
X7325D01*
Y5058D01*
X7328Y5044D01*
X7336Y5031D01*
X7349Y5023D01*
X7364Y5020D01*
X7463D01*
X7478Y5023D01*
X7490Y5031D01*
X7499Y5044D01*
X7502Y5058D01*
Y5109D01*
X7499Y5124D01*
X7490Y5137D01*
X7478Y5145D01*
X7463Y5148D01*
X7364D01*
X7349Y5145D01*
X7336Y5137D01*
X7328Y5124D01*
X7325Y5109D01*
Y5104D01*
X7269D01*
X7220Y5154D01*
X7224Y5165D01*
X7548D01*
X7549Y5164D01*
X7564Y5155D01*
X7580Y5151D01*
X7690D01*
X7706Y5155D01*
X7721Y5164D01*
X7730Y5178D01*
X7734Y5195D01*
X7730Y5212D01*
X7721Y5226D01*
X7706Y5236D01*
X7690Y5239D01*
X7598D01*
X7594Y5251D01*
X7620Y5277D01*
X7690D01*
X7706Y5281D01*
X7721Y5290D01*
X7730Y5304D01*
X7734Y5321D01*
X7730Y5338D01*
X7721Y5352D01*
X7706Y5362D01*
X7690Y5365D01*
X7580D01*
X7564Y5362D01*
X7549Y5352D01*
X7540Y5338D01*
X7536Y5321D01*
X7540Y5304D01*
X7549Y5290D01*
X7554Y5287D01*
X7555Y5271D01*
X7519Y5234D01*
X6516D01*
X6508Y5233D01*
X6502Y5228D01*
X6502Y5228D01*
X6227Y4953D01*
X6222Y4947D01*
X6221Y4939D01*
Y4595D01*
X6214Y4591D01*
X6206Y4578D01*
X6203Y4564D01*
X6203Y4561D01*
X6192Y4553D01*
X6187Y4557D01*
X6172Y4560D01*
X6157Y4557D01*
X6145Y4548D01*
X6137Y4536D01*
X6134Y4521D01*
X6137Y4506D01*
X6145Y4494D01*
X6157Y4486D01*
X6172Y4483D01*
X6187Y4486D01*
X6199Y4494D01*
X6202Y4498D01*
X6260D01*
X6268Y4499D01*
X6275Y4504D01*
X6301Y4530D01*
X6305Y4537D01*
X6307Y4545D01*
Y4936D01*
X6334Y4963D01*
X6346Y4958D01*
Y4595D01*
X6339Y4591D01*
X6331Y4578D01*
X6328Y4564D01*
X6331Y4549D01*
X6339Y4536D01*
X6352Y4528D01*
X6366Y4525D01*
X6381Y4528D01*
X6383Y4529D01*
X6396Y4523D01*
Y4472D01*
X6299Y4376D01*
X6291Y4377D01*
X6277Y4374D01*
X6264Y4366D01*
X6256Y4353D01*
X6253Y4339D01*
X6256Y4324D01*
X6264Y4311D01*
X6277Y4303D01*
X6291Y4300D01*
X6306Y4303D01*
X6318Y4311D01*
X6327Y4324D01*
X6330Y4339D01*
X6328Y4346D01*
X6431Y4449D01*
X6433Y4452D01*
X6446Y4448D01*
Y4365D01*
X6345Y4265D01*
X6341Y4258D01*
X6339Y4250D01*
Y4041D01*
X6221Y3923D01*
X6217Y3916D01*
X6215Y3908D01*
Y3562D01*
X6209Y3558D01*
X6200Y3545D01*
X6197Y3531D01*
X6200Y3516D01*
X6209Y3503D01*
X6219Y3497D01*
X6223Y3483D01*
X6198Y3458D01*
X6192Y3450D01*
X6190Y3440D01*
Y3439D01*
X6178Y3433D01*
X6173Y3438D01*
Y3461D01*
X6169Y3482D01*
X6157Y3499D01*
X6044Y3612D01*
X6027Y3623D01*
X6006Y3628D01*
X5439D01*
X5436Y3639D01*
X5455Y3647D01*
X5471Y3659D01*
X5483Y3675D01*
X5490Y3694D01*
X5493Y3714D01*
X5492Y3723D01*
X5495Y3739D01*
Y3845D01*
X5491Y3865D01*
X5492Y3866D01*
X5501Y3874D01*
X5503Y3872D01*
X5521Y3864D01*
X5541Y3862D01*
X5561Y3864D01*
X5580Y3872D01*
X5596Y3884D01*
X5608Y3900D01*
X5608Y3901D01*
X5621Y3898D01*
Y3845D01*
X5614Y3841D01*
X5606Y3828D01*
X5603Y3814D01*
X5606Y3799D01*
X5614Y3786D01*
X5627Y3778D01*
X5641Y3775D01*
X5656Y3778D01*
X5668Y3786D01*
X5677Y3799D01*
X5680Y3814D01*
X5677Y3828D01*
X5668Y3841D01*
X5662Y3845D01*
Y3948D01*
X5675Y3954D01*
X5677Y3953D01*
X5691Y3950D01*
X5706Y3953D01*
X5718Y3961D01*
X5727Y3974D01*
X5730Y3989D01*
X5727Y4003D01*
X5718Y4016D01*
X5712Y4020D01*
Y4048D01*
X5725Y4054D01*
X5727Y4053D01*
X5741Y4050D01*
X5753Y4053D01*
X5766Y4046D01*
Y3991D01*
X5764Y3990D01*
X5756Y3977D01*
X5753Y3962D01*
X5756Y3948D01*
X5764Y3935D01*
X5776Y3927D01*
X5791Y3924D01*
X5806Y3927D01*
X5813Y3931D01*
X5825Y3925D01*
Y3725D01*
X5819Y3721D01*
X5811Y3708D01*
X5808Y3693D01*
X5811Y3679D01*
X5819Y3666D01*
X5831Y3658D01*
X5846Y3655D01*
X5861Y3658D01*
X5873Y3666D01*
X5882Y3679D01*
X5884Y3693D01*
X5882Y3708D01*
X5873Y3721D01*
X5867Y3725D01*
Y4071D01*
X5879Y4078D01*
X5891Y4075D01*
X5906Y4078D01*
X5918Y4086D01*
X5927Y4099D01*
X5930Y4114D01*
X5927Y4128D01*
X5918Y4141D01*
X5912Y4145D01*
Y4307D01*
X5918Y4311D01*
X5927Y4324D01*
X5930Y4339D01*
X5927Y4353D01*
X5918Y4366D01*
X5906Y4374D01*
X5891Y4377D01*
X5879Y4375D01*
X5867Y4382D01*
Y4579D01*
X5879Y4583D01*
X5881Y4580D01*
X5932Y4529D01*
X5931Y4521D01*
X5933Y4506D01*
X5942Y4494D01*
X5954Y4486D01*
X5969Y4483D01*
X5971Y4470D01*
Y3895D01*
X5964Y3891D01*
X5956Y3878D01*
X5953Y3864D01*
X5956Y3849D01*
X5964Y3836D01*
X5977Y3828D01*
X5991Y3825D01*
X6006Y3828D01*
X6018Y3836D01*
X6027Y3849D01*
X6028Y3855D01*
X6032Y3857D01*
X6042Y3860D01*
X6052Y3853D01*
X6066Y3850D01*
X6081Y3853D01*
X6093Y3861D01*
X6102Y3874D01*
X6105Y3889D01*
X6103Y3897D01*
X6105Y3900D01*
X6105Y3901D01*
X6119Y3905D01*
X6127Y3900D01*
X6141Y3897D01*
X6156Y3900D01*
X6168Y3908D01*
X6177Y3921D01*
X6180Y3935D01*
X6177Y3950D01*
X6168Y3963D01*
X6167Y3963D01*
Y4274D01*
X6174Y4278D01*
X6182Y4291D01*
X6185Y4305D01*
X6182Y4320D01*
X6174Y4332D01*
X6162Y4341D01*
X6147Y4344D01*
X6137Y4342D01*
X6130Y4343D01*
X6123Y4350D01*
X6121Y4359D01*
X6113Y4371D01*
X6101Y4380D01*
X6086Y4382D01*
X6071Y4380D01*
X6059Y4371D01*
X6050Y4359D01*
X6047Y4344D01*
X6050Y4329D01*
X6059Y4317D01*
X6065Y4312D01*
Y3927D01*
X6052Y3924D01*
X6039Y3916D01*
X6032Y3905D01*
X6029Y3903D01*
X6017Y3900D01*
X6012Y3904D01*
Y4471D01*
X6029Y4488D01*
X6033Y4495D01*
X6035Y4502D01*
Y5416D01*
X6035Y5416D01*
X6033Y5424D01*
X6029Y5430D01*
X5745Y5714D01*
Y5787D01*
X5756Y5794D01*
X5765Y5809D01*
X5769Y5825D01*
Y5935D01*
X5765Y5951D01*
X5756Y5966D01*
X5742Y5975D01*
X5725Y5979D01*
X5708Y5975D01*
X5694Y5966D01*
X5684Y5951D01*
X5681Y5935D01*
Y5825D01*
X5684Y5809D01*
X5694Y5794D01*
X5704Y5787D01*
Y5716D01*
X5699Y5712D01*
X5522D01*
X5494Y5740D01*
Y5787D01*
X5505Y5794D01*
X5514Y5809D01*
X5518Y5825D01*
Y5935D01*
X5514Y5951D01*
X5505Y5966D01*
X5491Y5975D01*
X5474Y5979D01*
X5457Y5975D01*
X5443Y5966D01*
X5433Y5951D01*
X5430Y5935D01*
Y5825D01*
X5433Y5809D01*
X5443Y5794D01*
X5453Y5787D01*
Y5731D01*
X5455Y5723D01*
X5459Y5717D01*
X5480Y5696D01*
X5475Y5684D01*
X5425D01*
X5370Y5739D01*
Y5787D01*
X5380Y5794D01*
X5390Y5809D01*
X5393Y5825D01*
Y5935D01*
X5390Y5951D01*
X5380Y5966D01*
X5366Y5975D01*
X5349Y5979D01*
X5332Y5975D01*
X5318Y5966D01*
X5309Y5951D01*
X5305Y5935D01*
Y5825D01*
X5309Y5809D01*
X5318Y5794D01*
X5329Y5787D01*
Y5731D01*
X5330Y5723D01*
X5335Y5716D01*
X5402Y5649D01*
X5408Y5645D01*
X5416Y5643D01*
X5679D01*
X5914Y5409D01*
Y4909D01*
X5906Y4904D01*
X5901Y4903D01*
X5888Y4906D01*
X5873Y4903D01*
X5861Y4894D01*
X5852Y4882D01*
X5849Y4867D01*
X5851Y4859D01*
X5831Y4840D01*
X5827Y4833D01*
X5825Y4826D01*
Y4008D01*
X5813Y4001D01*
X5807Y4005D01*
Y4842D01*
X5818Y4850D01*
X5827Y4862D01*
X5830Y4877D01*
X5827Y4892D01*
X5818Y4904D01*
X5806Y4912D01*
X5791Y4915D01*
X5776Y4912D01*
X5764Y4904D01*
X5756Y4892D01*
X5753Y4877D01*
X5755Y4864D01*
X5747Y4853D01*
X5738Y4853D01*
X5730Y4863D01*
X5730Y4864D01*
X5727Y4878D01*
X5718Y4891D01*
X5706Y4899D01*
X5691Y4902D01*
X5677Y4899D01*
X5664Y4891D01*
X5656Y4878D01*
X5653Y4864D01*
X5656Y4849D01*
X5664Y4836D01*
X5671Y4832D01*
Y4380D01*
X5658Y4373D01*
X5656Y4374D01*
X5641Y4377D01*
X5633Y4375D01*
X5621Y4383D01*
X5620Y4385D01*
Y4410D01*
X5616Y4431D01*
X5604Y4448D01*
X5467Y4586D01*
Y4610D01*
X5478Y4613D01*
X5490Y4621D01*
X5499Y4634D01*
X5502Y4649D01*
Y4699D01*
X5499Y4714D01*
X5490Y4727D01*
X5478Y4735D01*
X5463Y4738D01*
X5363D01*
X5357Y4737D01*
X5357Y4737D01*
X5345Y4747D01*
Y4766D01*
X5398Y4820D01*
X5463D01*
X5478Y4823D01*
X5490Y4831D01*
X5499Y4844D01*
X5502Y4858D01*
Y4909D01*
X5499Y4924D01*
X5490Y4937D01*
X5478Y4945D01*
X5467Y4947D01*
Y5020D01*
X5478Y5023D01*
X5490Y5031D01*
X5499Y5044D01*
X5502Y5058D01*
Y5109D01*
X5499Y5124D01*
X5490Y5137D01*
X5478Y5145D01*
X5463Y5148D01*
X5363D01*
X5349Y5145D01*
X5336Y5137D01*
X5328Y5124D01*
X5325Y5109D01*
Y5058D01*
X5328Y5044D01*
X5336Y5031D01*
X5349Y5023D01*
X5359Y5020D01*
Y4947D01*
X5349Y4945D01*
X5336Y4937D01*
X5328Y4924D01*
X5325Y4909D01*
Y4898D01*
X5253Y4827D01*
X5242Y4809D01*
X5238Y4789D01*
Y4781D01*
X5225Y4780D01*
X5221Y4800D01*
X5207Y4821D01*
X5186Y4835D01*
X5161Y4840D01*
X5152D01*
X5146Y4853D01*
X5154Y4864D01*
X5157Y4881D01*
X5154Y4899D01*
X5147Y4909D01*
X5153Y4922D01*
X5155D01*
X5180Y4927D01*
X5201Y4941D01*
X5215Y4962D01*
X5220Y4987D01*
X5215Y5012D01*
X5201Y5033D01*
X5180Y5047D01*
X5155Y5052D01*
X4976D01*
X4952Y5047D01*
X4931Y5033D01*
X4917Y5012D01*
X4912Y4987D01*
X4917Y4962D01*
X4931Y4941D01*
X4931Y4933D01*
X4860Y4861D01*
X4848Y4866D01*
Y5344D01*
X4855Y5347D01*
X4871Y5359D01*
X4881Y5373D01*
X4889Y5373D01*
X4894Y5370D01*
X4896Y5357D01*
X4904Y5338D01*
X4916Y5322D01*
X4932Y5310D01*
X4951Y5303D01*
X4970Y5300D01*
X5053D01*
Y5377D01*
Y5454D01*
X4970D01*
X4951Y5451D01*
X4932Y5443D01*
X4916Y5431D01*
X4905Y5417D01*
X4898Y5418D01*
X4892Y5420D01*
X4890Y5434D01*
X4883Y5452D01*
X4871Y5468D01*
X4855Y5480D01*
X4836Y5488D01*
X4816Y5491D01*
X4796Y5488D01*
X4778Y5480D01*
X4762Y5468D01*
X4750Y5452D01*
X4742Y5434D01*
X4739Y5414D01*
X4742Y5397D01*
X4740Y5392D01*
Y4326D01*
X4745Y4305D01*
X4756Y4288D01*
X5027Y4017D01*
X5045Y4005D01*
X5065Y4001D01*
X5313D01*
X5316Y4000D01*
X5320Y4001D01*
X5357D01*
X5363Y4000D01*
X5463D01*
X5478Y4003D01*
X5485Y4008D01*
X5493Y3997D01*
X5487Y3993D01*
X5475Y3977D01*
X5467Y3959D01*
X5464Y3939D01*
X5467Y3919D01*
X5471Y3909D01*
X5460Y3902D01*
X5398Y3964D01*
X5381Y3976D01*
X5360Y3980D01*
X5167D01*
X5146Y3976D01*
X5129Y3964D01*
X5073Y3908D01*
X5062D01*
Y3895D01*
X5056Y3885D01*
X5052Y3865D01*
X5056Y3844D01*
X5056Y3843D01*
X5050Y3830D01*
X5019D01*
Y3797D01*
X5065D01*
Y3772D01*
X5019D01*
Y3739D01*
X5047D01*
X5052Y3726D01*
X5021Y3695D01*
X5008Y3699D01*
X5008Y3700D01*
X5011Y3714D01*
X5008Y3728D01*
X4999Y3741D01*
X4987Y3749D01*
X4972Y3752D01*
X4957Y3749D01*
X4950Y3744D01*
X4941Y3742D01*
X4932Y3744D01*
X4924Y3749D01*
X4910Y3752D01*
X4895Y3749D01*
X4882Y3741D01*
X4874Y3728D01*
X4871Y3714D01*
X4872Y3707D01*
X4864Y3698D01*
X4851Y3698D01*
X4843Y3708D01*
X4844Y3712D01*
X4840Y3729D01*
X4831Y3743D01*
X4816Y3753D01*
X4800Y3756D01*
X4690D01*
X4674Y3753D01*
X4659Y3743D01*
X4650Y3729D01*
X4646Y3712D01*
X4650Y3695D01*
X4659Y3681D01*
X4674Y3671D01*
X4690Y3668D01*
X4760D01*
X4768Y3659D01*
X4775Y3655D01*
X4783Y3653D01*
X4870D01*
X4878Y3655D01*
X4884Y3659D01*
X4895Y3670D01*
X4900Y3669D01*
X4904Y3656D01*
X4855Y3607D01*
X4838D01*
X4831Y3617D01*
X4816Y3627D01*
X4800Y3630D01*
X4690D01*
X4674Y3627D01*
X4659Y3617D01*
X4650Y3603D01*
X4646Y3586D01*
X4650Y3569D01*
X4659Y3555D01*
X4674Y3545D01*
X4690Y3542D01*
X4800D01*
X4816Y3545D01*
X4831Y3555D01*
X4838Y3565D01*
X4864D01*
X4871Y3567D01*
X4878Y3571D01*
X4977Y3670D01*
X4978Y3670D01*
X4983Y3657D01*
X4841Y3515D01*
X4745D01*
X4724Y3511D01*
X4716Y3506D01*
X4690D01*
X4674Y3502D01*
X4659Y3493D01*
X4650Y3478D01*
X4646Y3462D01*
X4650Y3445D01*
X4659Y3430D01*
X4674Y3421D01*
X4690Y3418D01*
X4716D01*
X4724Y3412D01*
X4745Y3408D01*
X4864D01*
X4884Y3412D01*
X4902Y3424D01*
X5128Y3650D01*
X5166D01*
X5168Y3646D01*
X5169Y3637D01*
X5153Y3627D01*
X5142Y3609D01*
X5138Y3589D01*
X5142Y3568D01*
X5153Y3551D01*
X5161Y3546D01*
X5170Y3538D01*
Y3505D01*
X5216D01*
Y3480D01*
X5170D01*
Y3447D01*
X5200D01*
X5207Y3434D01*
X5206Y3433D01*
X5202Y3412D01*
X5206Y3392D01*
X5213Y3382D01*
Y3369D01*
X5226D01*
X5235Y3363D01*
X5256Y3359D01*
X5295D01*
X5308Y3346D01*
Y3332D01*
X5248D01*
Y3318D01*
X5092D01*
X5071Y3314D01*
X5065Y3310D01*
X5054Y3307D01*
Y3307D01*
X5054D01*
X5042Y3309D01*
X5042Y3309D01*
Y3320D01*
X5004D01*
Y3264D01*
Y3208D01*
X5042D01*
Y3219D01*
X5042Y3219D01*
X5054Y3221D01*
X5054D01*
X5054Y3221D01*
X5065Y3218D01*
X5071Y3214D01*
X5092Y3210D01*
X5248D01*
Y3195D01*
X5455D01*
X5460Y3184D01*
X5403Y3127D01*
X5392Y3109D01*
X5388Y3089D01*
Y2995D01*
X5392Y2974D01*
X5397Y2966D01*
Y2940D01*
X5401Y2924D01*
X5410Y2909D01*
X5425Y2900D01*
X5441Y2896D01*
X5458Y2900D01*
X5473Y2909D01*
X5482Y2924D01*
X5485Y2940D01*
Y2966D01*
X5491Y2974D01*
X5495Y2995D01*
Y3067D01*
X5590Y3162D01*
X5602Y3179D01*
X5606Y3200D01*
Y3264D01*
Y3330D01*
X5661Y3385D01*
X5736D01*
X5737Y3384D01*
X5753Y3372D01*
X5771Y3364D01*
X5791Y3362D01*
X5811Y3364D01*
X5830Y3372D01*
X5846Y3384D01*
X5858Y3400D01*
X5865Y3419D01*
X5868Y3439D01*
X5865Y3459D01*
X5858Y3477D01*
X5846Y3493D01*
X5830Y3505D01*
X5825Y3507D01*
X5827Y3520D01*
X5984D01*
X6065Y3439D01*
Y3435D01*
X6058Y3423D01*
X6055Y3408D01*
Y3309D01*
X6058Y3294D01*
X6066Y3282D01*
X6066Y3282D01*
X6066Y3267D01*
X6064Y3266D01*
X6056Y3253D01*
X6053Y3239D01*
X6056Y3224D01*
X6064Y3211D01*
X6077Y3203D01*
X6091Y3200D01*
X6106Y3203D01*
X6118Y3211D01*
X6119Y3213D01*
X6166D01*
X6176Y3215D01*
X6185Y3220D01*
X6235Y3270D01*
X6240Y3279D01*
X6242Y3289D01*
Y3429D01*
X6304Y3491D01*
X6310Y3500D01*
X6312Y3510D01*
Y3551D01*
X6310Y3561D01*
X6304Y3570D01*
X6294Y3580D01*
Y3880D01*
X6365Y3951D01*
X6378Y3946D01*
Y3467D01*
X6376Y3467D01*
X6368Y3454D01*
X6367Y3447D01*
X6360Y3444D01*
X6345Y3447D01*
X6294D01*
X6279Y3444D01*
X6267Y3436D01*
X6258Y3423D01*
X6255Y3408D01*
Y3309D01*
X6258Y3294D01*
X6267Y3282D01*
X6279Y3273D01*
X6279Y3273D01*
X6283Y3260D01*
X6228Y3205D01*
X6224Y3198D01*
X6222Y3190D01*
X6208Y3176D01*
X6200Y3174D01*
X6193Y3170D01*
X6193Y3170D01*
X6179Y3156D01*
X6175Y3149D01*
X6173Y3141D01*
Y3088D01*
X6163Y3081D01*
X6153Y3066D01*
X6150Y3050D01*
Y2940D01*
X6153Y2924D01*
X6163Y2909D01*
X6177Y2900D01*
X6194Y2896D01*
X6211Y2900D01*
X6225Y2909D01*
X6235Y2924D01*
X6238Y2940D01*
Y3050D01*
X6235Y3066D01*
X6225Y3081D01*
X6214Y3088D01*
Y3133D01*
X6216Y3135D01*
X6224Y3136D01*
X6231Y3141D01*
X6257Y3167D01*
X6262Y3174D01*
X6263Y3182D01*
X6311Y3229D01*
X6502D01*
X6507Y3217D01*
X6364Y3074D01*
X6351Y3075D01*
X6348Y3081D01*
X6333Y3090D01*
X6316Y3094D01*
X6300Y3090D01*
X6285Y3081D01*
X6276Y3066D01*
X6272Y3050D01*
Y2940D01*
X6276Y2924D01*
X6285Y2909D01*
X6300Y2900D01*
X6316Y2896D01*
X6333Y2900D01*
X6348Y2909D01*
X6357Y2924D01*
X6360Y2940D01*
Y3012D01*
X6386Y3038D01*
X6397Y3033D01*
Y2940D01*
X6401Y2924D01*
X6410Y2909D01*
X6425Y2900D01*
X6441Y2896D01*
X6458Y2900D01*
X6473Y2909D01*
X6482Y2924D01*
X6485Y2940D01*
Y3050D01*
X6482Y3066D01*
X6473Y3081D01*
X6472Y3085D01*
X6535Y3147D01*
X6546Y3141D01*
X6546Y3139D01*
Y3088D01*
X6535Y3081D01*
X6526Y3066D01*
X6522Y3050D01*
Y2940D01*
X6526Y2924D01*
X6535Y2909D01*
X6550Y2900D01*
X6566Y2896D01*
X6583Y2900D01*
X6598Y2909D01*
X6607Y2924D01*
X6610Y2940D01*
Y3050D01*
X6607Y3066D01*
X6598Y3081D01*
X6587Y3088D01*
Y3130D01*
X6602Y3146D01*
X6678D01*
X6682Y3134D01*
X6678Y3129D01*
X6673Y3123D01*
X6672Y3115D01*
Y3088D01*
X6661Y3081D01*
X6652Y3066D01*
X6648Y3050D01*
Y2940D01*
X6652Y2924D01*
X6661Y2909D01*
X6676Y2900D01*
X6692Y2896D01*
X6709Y2900D01*
X6724Y2909D01*
X6733Y2924D01*
X6736Y2940D01*
Y3040D01*
X6749Y3050D01*
X6750Y3050D01*
X6760Y3052D01*
X6762Y3052D01*
X6771Y3045D01*
X6773Y3043D01*
Y2940D01*
X6776Y2924D01*
X6786Y2909D01*
X6800Y2900D01*
X6817Y2896D01*
X6818Y2897D01*
X6828Y2889D01*
X6831Y2874D01*
X6832Y2872D01*
X6825Y2859D01*
X6175D01*
X6145Y2889D01*
X6138Y2893D01*
X6130Y2895D01*
X6100D01*
X6096Y2908D01*
X6098Y2909D01*
X6108Y2924D01*
X6111Y2940D01*
Y3050D01*
X6108Y3066D01*
X6103Y3074D01*
X6105Y3088D01*
X6102Y3103D01*
X6094Y3115D01*
X6082Y3124D01*
X6067Y3126D01*
X6052Y3124D01*
X6040Y3115D01*
X6031Y3103D01*
X6028Y3088D01*
X6031Y3074D01*
X6026Y3066D01*
X6023Y3050D01*
Y2940D01*
X6026Y2924D01*
X6036Y2909D01*
X6038Y2908D01*
X6034Y2895D01*
X6020D01*
X6013Y2893D01*
X6006Y2889D01*
X6005Y2888D01*
X6001Y2891D01*
X5993Y2892D01*
X5971D01*
X5967Y2905D01*
X5974Y2909D01*
X5983Y2924D01*
X5986Y2940D01*
Y3050D01*
X5983Y3066D01*
X5980Y3072D01*
X5982Y3086D01*
X5979Y3101D01*
X5971Y3113D01*
X5959Y3121D01*
X5944Y3124D01*
X5929Y3121D01*
X5917Y3113D01*
X5908Y3101D01*
X5906Y3086D01*
X5908Y3075D01*
X5902Y3066D01*
X5898Y3050D01*
Y2940D01*
X5902Y2924D01*
X5911Y2909D01*
X5918Y2905D01*
X5914Y2892D01*
X5845D01*
X5841Y2905D01*
X5848Y2909D01*
X5857Y2924D01*
X5860Y2940D01*
Y3050D01*
X5860Y3054D01*
X5869Y3061D01*
X5878Y3073D01*
X5880Y3088D01*
X5878Y3103D01*
X5869Y3115D01*
X5857Y3123D01*
X5842Y3126D01*
X5827Y3123D01*
X5815Y3115D01*
X5806Y3103D01*
X5804Y3091D01*
X5800Y3090D01*
X5785Y3081D01*
X5776Y3066D01*
X5772Y3050D01*
Y2940D01*
X5776Y2924D01*
X5785Y2909D01*
X5792Y2905D01*
X5788Y2892D01*
X5720D01*
X5716Y2905D01*
X5723Y2909D01*
X5732Y2924D01*
X5735Y2940D01*
Y3050D01*
X5732Y3066D01*
X5727Y3074D01*
X5730Y3089D01*
X5727Y3103D01*
X5718Y3116D01*
X5706Y3124D01*
X5691Y3127D01*
X5677Y3124D01*
X5664Y3116D01*
X5656Y3103D01*
X5653Y3089D01*
X5656Y3074D01*
X5651Y3066D01*
X5647Y3050D01*
Y2940D01*
X5651Y2924D01*
X5660Y2909D01*
X5667Y2905D01*
X5663Y2892D01*
X5642D01*
X5608Y2926D01*
X5610Y2940D01*
Y3050D01*
X5607Y3066D01*
X5598Y3081D01*
X5583Y3090D01*
X5566Y3094D01*
X5550Y3090D01*
X5535Y3081D01*
X5526Y3066D01*
X5522Y3050D01*
Y2940D01*
X5526Y2924D01*
X5535Y2909D01*
X5550Y2900D01*
X5566Y2896D01*
X5577Y2899D01*
X5619Y2857D01*
X5625Y2853D01*
X5633Y2851D01*
X5657D01*
X5660Y2847D01*
X5662Y2838D01*
X5656Y2828D01*
X5653Y2814D01*
X5656Y2799D01*
X5664Y2786D01*
X5677Y2778D01*
X5691Y2775D01*
X5706Y2778D01*
X5718Y2786D01*
X5727Y2799D01*
X5730Y2814D01*
X5741Y2823D01*
X5814D01*
X5818Y2811D01*
X5815Y2808D01*
X5806Y2796D01*
X5804Y2781D01*
X5806Y2767D01*
X5815Y2754D01*
X5827Y2746D01*
X5842Y2743D01*
X5857Y2746D01*
X5869Y2754D01*
X5878Y2767D01*
X5880Y2779D01*
X5881Y2780D01*
X5887Y2785D01*
X5892Y2788D01*
X5895Y2788D01*
X5895Y2788D01*
X5899D01*
X5907Y2775D01*
X5906Y2766D01*
X5908Y2752D01*
X5917Y2739D01*
X5929Y2731D01*
X5944Y2728D01*
X5959Y2731D01*
X5971Y2739D01*
X5983Y2737D01*
X5991Y2735D01*
X6019D01*
X6027Y2737D01*
X6036Y2727D01*
X6043Y2716D01*
X6056Y2708D01*
X6071Y2705D01*
X6085Y2708D01*
X6098Y2716D01*
X6110Y2711D01*
X6112Y2709D01*
X6120Y2707D01*
X6120Y2707D01*
X7121D01*
X7129Y2709D01*
X7136Y2713D01*
X7175Y2753D01*
X7187Y2748D01*
Y2693D01*
X7341D01*
Y2770D01*
X7338Y2790D01*
X7330Y2809D01*
X7330Y2809D01*
X7333Y2819D01*
X7335Y2823D01*
X7340Y2827D01*
X7482Y2969D01*
X7482Y2969D01*
X7487Y2976D01*
X7488Y2984D01*
X7488Y2984D01*
Y3562D01*
X7487Y3570D01*
X7482Y3577D01*
X7482Y3577D01*
X7189Y3870D01*
Y4523D01*
X7191Y4525D01*
X7206Y4528D01*
X7218Y4536D01*
X7227Y4549D01*
X7230Y4564D01*
X7227Y4578D01*
X7218Y4591D01*
X7214Y4594D01*
Y4609D01*
X7218Y4611D01*
X7227Y4624D01*
X7230Y4639D01*
X7227Y4653D01*
X7218Y4666D01*
X7214Y4669D01*
Y4684D01*
X7218Y4686D01*
X7227Y4699D01*
X7230Y4714D01*
X7227Y4728D01*
X7221Y4736D01*
X7231Y4745D01*
X7306Y4669D01*
X7306Y4669D01*
X7313Y4665D01*
X7321Y4663D01*
X7326Y4652D01*
X7328Y4644D01*
X7336Y4631D01*
X7349Y4623D01*
X7364Y4620D01*
X7463D01*
X7478Y4623D01*
X7490Y4631D01*
X7499Y4644D01*
X7502Y4658D01*
Y4709D01*
X7499Y4724D01*
X7490Y4737D01*
X7478Y4745D01*
X7463Y4748D01*
X7364D01*
X7349Y4745D01*
X7336Y4737D01*
X7328Y4724D01*
X7327Y4723D01*
X7315Y4719D01*
X7262Y4772D01*
Y4853D01*
X7275Y4856D01*
X7280Y4848D01*
X7295Y4838D01*
X7313Y4835D01*
X7331Y4838D01*
X7341Y4845D01*
X7346Y4845D01*
X7355Y4842D01*
X7356Y4841D01*
X7363Y4831D01*
X7376Y4823D01*
X7390Y4820D01*
X7470D01*
X7484Y4823D01*
X7497Y4831D01*
X7505Y4844D01*
X7508Y4858D01*
Y4881D01*
X7521Y4884D01*
X7525Y4875D01*
X7537Y4859D01*
X7538Y4859D01*
Y4775D01*
X7542Y4754D01*
X7553Y4737D01*
X7560Y4732D01*
Y4719D01*
X7638D01*
Y4717D01*
Y4676D01*
X7671D01*
Y4722D01*
X7696D01*
Y4676D01*
X7729D01*
Y4717D01*
Y4719D01*
X7744D01*
Y4578D01*
X7650Y4484D01*
X7580D01*
X7564Y4481D01*
X7549Y4471D01*
X7540Y4457D01*
X7536Y4440D01*
X7540Y4423D01*
X7549Y4409D01*
X7564Y4399D01*
X7580Y4396D01*
X7690D01*
X7706Y4399D01*
X7721Y4409D01*
X7730Y4423D01*
X7734Y4440D01*
X7730Y4457D01*
X7721Y4471D01*
X7716Y4474D01*
X7715Y4490D01*
X7779Y4555D01*
X7784Y4562D01*
X7785Y4570D01*
Y4586D01*
X7798Y4591D01*
X7805Y4581D01*
X7821Y4569D01*
X7840Y4561D01*
X7860Y4559D01*
X7937D01*
Y4635D01*
X7963D01*
Y4559D01*
X8040D01*
X8060Y4561D01*
X8078Y4568D01*
X8087Y4565D01*
X8090Y4563D01*
X8090Y3440D01*
X8087Y3439D01*
X8077Y3435D01*
X8060Y3442D01*
X8040Y3445D01*
X7963D01*
Y3368D01*
Y3291D01*
X8040D01*
X8060Y3294D01*
X8077Y3301D01*
X8087Y3297D01*
X8090Y3296D01*
X8090Y3053D01*
X8082Y3005D01*
X8063Y2940D01*
X8037Y2877D01*
X8004Y2817D01*
X7965Y2762D01*
X7919Y2711D01*
X7868Y2665D01*
X7813Y2626D01*
X7753Y2593D01*
X7690Y2567D01*
X7625Y2548D01*
X7577Y2540D01*
X7336Y2540D01*
X7335Y2543D01*
X7331Y2553D01*
X7338Y2570D01*
X7341Y2590D01*
Y2667D01*
X7187D01*
Y2590D01*
X7190Y2570D01*
X7197Y2553D01*
X7193Y2543D01*
X7192Y2540D01*
X5194Y2540D01*
X5192Y2543D01*
X5189Y2553D01*
X5196Y2570D01*
X5198Y2590D01*
Y2667D01*
X5045D01*
Y2590D01*
X5047Y2570D01*
X5054Y2553D01*
X5051Y2543D01*
X5049Y2540D01*
X4803Y2540D01*
X4755Y2548D01*
X4690Y2567D01*
X4627Y2593D01*
X4567Y2626D01*
X4512Y2665D01*
X4461Y2711D01*
X4415Y2762D01*
X4376Y2817D01*
X4343Y2877D01*
X4317Y2940D01*
X4298Y3005D01*
X4290Y3053D01*
X4290Y3194D01*
X4293Y3195D01*
X4303Y3199D01*
X4320Y3192D01*
X4340Y3189D01*
X4417D01*
Y3266D01*
Y3343D01*
X4340D01*
X4320Y3340D01*
X4303Y3333D01*
X4293Y3337D01*
X4290Y3338D01*
X4290Y3960D01*
X4293Y3961D01*
X4303Y3965D01*
X4320Y3958D01*
X4340Y3955D01*
X4417D01*
Y4032D01*
X4443D01*
Y3955D01*
X4520D01*
X4540Y3958D01*
X4559Y3965D01*
X4575Y3978D01*
X4587Y3994D01*
X4594Y4012D01*
X4597Y4032D01*
X4603Y4039D01*
X4691D01*
X4721Y4043D01*
X4749Y4054D01*
X4773Y4073D01*
X4792Y4097D01*
X4803Y4125D01*
X4806Y4143D01*
X4396D01*
X4398Y4125D01*
X4400Y4119D01*
X4393Y4109D01*
X4340D01*
X4320Y4106D01*
X4303Y4099D01*
X4293Y4103D01*
X4290Y4104D01*
X4290Y5827D01*
X4298Y5875D01*
X4317Y5940D01*
X4343Y6003D01*
X4376Y6063D01*
X4415Y6118D01*
X4461Y6169D01*
X4512Y6215D01*
X4567Y6254D01*
X4627Y6287D01*
X4690Y6313D01*
X4755Y6332D01*
X4803Y6340D01*
X4959Y6340D01*
D02*
G37*
G36*
X7347Y4929D02*
X7339Y4919D01*
X7331Y4924D01*
X7313Y4928D01*
X7295Y4924D01*
X7280Y4914D01*
X7271Y4901D01*
X7262Y4900D01*
X7257Y4901D01*
X7256Y4903D01*
X7231Y4928D01*
X7224Y4933D01*
X7216Y4934D01*
X6916D01*
X6916Y4934D01*
X6908Y4933D01*
X6902Y4928D01*
X6902Y4928D01*
X6684Y4711D01*
X6671Y4712D01*
X6668Y4716D01*
X6656Y4724D01*
X6641Y4727D01*
X6627Y4724D01*
X6614Y4716D01*
X6606Y4703D01*
X6603Y4689D01*
X6606Y4674D01*
X6614Y4661D01*
X6627Y4653D01*
X6641Y4650D01*
X6656Y4653D01*
X6668Y4661D01*
X6673Y4668D01*
X6691D01*
X6699Y4670D01*
X6706Y4674D01*
X6761Y4729D01*
X6771Y4724D01*
X6773Y4723D01*
Y4405D01*
X6774Y4397D01*
X6779Y4390D01*
X6851Y4318D01*
Y4247D01*
X6838Y4243D01*
X6836Y4245D01*
X6820Y4258D01*
X6802Y4265D01*
X6782Y4268D01*
X6762Y4265D01*
X6743Y4258D01*
X6741Y4256D01*
X6730Y4263D01*
X6730Y4264D01*
X6727Y4278D01*
X6718Y4291D01*
X6706Y4299D01*
X6691Y4302D01*
X6677Y4299D01*
X6664Y4291D01*
X6656Y4278D01*
X6653Y4264D01*
X6656Y4249D01*
X6664Y4236D01*
X6671Y4232D01*
Y3438D01*
X6667Y3436D01*
X6659Y3423D01*
X6656Y3408D01*
Y3309D01*
X6659Y3294D01*
X6666Y3283D01*
X6665Y3278D01*
X6662Y3270D01*
X6578D01*
X6574Y3278D01*
X6573Y3283D01*
X6581Y3294D01*
X6584Y3309D01*
Y3408D01*
X6581Y3423D01*
X6573Y3436D01*
X6560Y3444D01*
X6545Y3447D01*
X6512D01*
Y4187D01*
X6630Y4305D01*
X6638Y4304D01*
X6653Y4307D01*
X6665Y4315D01*
X6673Y4327D01*
X6676Y4342D01*
X6673Y4357D01*
X6665Y4369D01*
X6662Y4371D01*
X6660Y4379D01*
X6662Y4387D01*
Y4480D01*
X6680Y4498D01*
X6688Y4497D01*
X6703Y4500D01*
X6715Y4508D01*
X6723Y4521D01*
X6726Y4535D01*
X6723Y4550D01*
X6715Y4562D01*
X6703Y4571D01*
X6688Y4574D01*
X6673Y4571D01*
X6661Y4562D01*
X6652Y4550D01*
X6649Y4535D01*
X6651Y4527D01*
X6627Y4503D01*
X6622Y4497D01*
X6621Y4489D01*
Y4408D01*
X6619D01*
X6611Y4406D01*
X6605Y4402D01*
X6597Y4395D01*
X6586Y4399D01*
Y4971D01*
X6660Y5046D01*
X6661Y5047D01*
X6669Y5053D01*
X6678Y5065D01*
X6681Y5080D01*
X6678Y5095D01*
X6676Y5097D01*
X6683Y5110D01*
X7166D01*
X7347Y4929D01*
D02*
G37*
%LPC*%
G36*
X4854Y3824D02*
X4758D01*
Y3780D01*
X4800D01*
X4821Y3784D01*
X4840Y3797D01*
X4852Y3815D01*
X4854Y3824D01*
D02*
G37*
G36*
X7463Y3948D02*
X7364D01*
X7349Y3945D01*
X7336Y3937D01*
X7328Y3924D01*
X7325Y3913D01*
X7316Y3902D01*
X7302Y3899D01*
X7289Y3891D01*
X7281Y3878D01*
X7278Y3864D01*
X7281Y3849D01*
X7289Y3836D01*
X7302Y3828D01*
X7316Y3825D01*
X7331Y3828D01*
X7336Y3831D01*
X7336Y3831D01*
X7349Y3822D01*
X7364Y3819D01*
X7463D01*
X7478Y3822D01*
X7490Y3831D01*
X7499Y3843D01*
X7502Y3858D01*
Y3909D01*
X7499Y3924D01*
X7490Y3937D01*
X7478Y3945D01*
X7463Y3948D01*
D02*
G37*
G36*
X7690Y3620D02*
X7648D01*
Y3576D01*
X7744D01*
X7742Y3585D01*
X7730Y3603D01*
X7711Y3616D01*
X7690Y3620D01*
D02*
G37*
G36*
Y3732D02*
X7580D01*
X7564Y3729D01*
X7549Y3719D01*
X7540Y3705D01*
X7536Y3688D01*
X7540Y3671D01*
X7549Y3657D01*
X7564Y3647D01*
X7580Y3644D01*
X7690D01*
X7706Y3647D01*
X7721Y3657D01*
X7721Y3657D01*
X7727Y3653D01*
X7741Y3650D01*
X7756Y3653D01*
X7768Y3661D01*
X7777Y3674D01*
X7780Y3689D01*
X7777Y3703D01*
X7768Y3716D01*
X7756Y3724D01*
X7741Y3727D01*
X7727Y3724D01*
X7720Y3720D01*
X7706Y3729D01*
X7690Y3732D01*
D02*
G37*
G36*
Y3857D02*
X7580D01*
X7564Y3854D01*
X7549Y3844D01*
X7540Y3830D01*
X7536Y3813D01*
X7540Y3796D01*
X7549Y3782D01*
X7564Y3772D01*
X7580Y3769D01*
X7690D01*
X7706Y3772D01*
X7721Y3782D01*
X7721Y3782D01*
X7727Y3778D01*
X7741Y3775D01*
X7756Y3778D01*
X7768Y3786D01*
X7777Y3799D01*
X7780Y3814D01*
X7777Y3828D01*
X7768Y3841D01*
X7756Y3849D01*
X7741Y3852D01*
X7727Y3849D01*
X7720Y3845D01*
X7706Y3854D01*
X7690Y3857D01*
D02*
G37*
G36*
X4732Y3824D02*
X4636D01*
X4638Y3815D01*
X4650Y3797D01*
X4669Y3784D01*
X4690Y3780D01*
X4732D01*
Y3824D01*
D02*
G37*
G36*
X4588Y4272D02*
X4511D01*
X4480Y4268D01*
X4452Y4256D01*
X4428Y4238D01*
X4410Y4214D01*
X4398Y4186D01*
X4396Y4168D01*
X4588D01*
Y4272D01*
D02*
G37*
G36*
X7690Y4232D02*
X7580D01*
X7564Y4229D01*
X7549Y4220D01*
X7540Y4205D01*
X7536Y4188D01*
X7540Y4172D01*
X7549Y4157D01*
X7564Y4148D01*
X7580Y4144D01*
X7690D01*
X7706Y4148D01*
X7720Y4157D01*
X7726Y4153D01*
X7741Y4150D01*
X7756Y4153D01*
X7768Y4161D01*
X7777Y4174D01*
X7779Y4188D01*
X7777Y4203D01*
X7768Y4216D01*
X7756Y4224D01*
X7741Y4227D01*
X7726Y4224D01*
X7720Y4220D01*
X7706Y4229D01*
X7690Y4232D01*
D02*
G37*
G36*
X4691Y4272D02*
X4613D01*
Y4168D01*
X4806D01*
X4803Y4186D01*
X4792Y4214D01*
X4773Y4238D01*
X4749Y4256D01*
X4721Y4268D01*
X4691Y4272D01*
D02*
G37*
G36*
X7937Y4952D02*
X7860D01*
X7840Y4950D01*
X7821Y4942D01*
X7805Y4930D01*
X7793Y4914D01*
X7786Y4895D01*
X7785Y4888D01*
X7937D01*
Y4952D01*
D02*
G37*
G36*
X7463Y4547D02*
X7364D01*
X7349Y4544D01*
X7336Y4536D01*
X7328Y4523D01*
X7325Y4508D01*
Y4458D01*
X7328Y4443D01*
X7331Y4438D01*
X7245Y4351D01*
X7241Y4352D01*
X7227Y4349D01*
X7214Y4341D01*
X7206Y4328D01*
X7203Y4314D01*
X7206Y4299D01*
X7214Y4286D01*
X7227Y4278D01*
X7241Y4275D01*
X7256Y4278D01*
X7259Y4277D01*
X7265Y4269D01*
X7273Y4257D01*
X7275Y4256D01*
Y4255D01*
X7274Y4241D01*
X7267Y4231D01*
X7264Y4216D01*
X7267Y4202D01*
X7275Y4189D01*
X7288Y4181D01*
X7303Y4178D01*
X7317Y4181D01*
X7330Y4189D01*
X7338Y4202D01*
X7341Y4216D01*
X7353Y4220D01*
X7353Y4220D01*
X7354Y4220D01*
X7364Y4218D01*
X7463D01*
X7478Y4221D01*
X7490Y4230D01*
X7499Y4242D01*
X7502Y4257D01*
Y4308D01*
X7499Y4320D01*
X7506Y4333D01*
X7527D01*
X7537Y4320D01*
X7536Y4315D01*
X7540Y4299D01*
X7549Y4284D01*
X7564Y4275D01*
X7580Y4271D01*
X7690D01*
X7706Y4275D01*
X7721Y4284D01*
X7730Y4299D01*
X7734Y4315D01*
X7730Y4332D01*
X7721Y4347D01*
X7706Y4356D01*
X7690Y4359D01*
X7620D01*
X7612Y4368D01*
X7605Y4372D01*
X7597Y4374D01*
X7359D01*
X7353Y4387D01*
X7385Y4419D01*
X7463D01*
X7478Y4422D01*
X7490Y4430D01*
X7499Y4443D01*
X7502Y4458D01*
Y4508D01*
X7499Y4523D01*
X7490Y4536D01*
X7478Y4544D01*
X7463Y4547D01*
D02*
G37*
G36*
X4800Y3894D02*
X4758D01*
Y3850D01*
X4854D01*
X4852Y3859D01*
X4840Y3877D01*
X4821Y3890D01*
X4800Y3894D01*
D02*
G37*
G36*
X4732D02*
X4690D01*
X4669Y3890D01*
X4650Y3877D01*
X4638Y3859D01*
X4636Y3850D01*
X4732D01*
Y3894D01*
D02*
G37*
G36*
X7690Y3982D02*
X7580D01*
X7564Y3979D01*
X7549Y3969D01*
X7540Y3955D01*
X7536Y3938D01*
X7540Y3921D01*
X7549Y3907D01*
X7564Y3897D01*
X7580Y3894D01*
X7690D01*
X7706Y3897D01*
X7720Y3906D01*
X7726Y3902D01*
X7741Y3900D01*
X7755Y3902D01*
X7768Y3911D01*
X7776Y3923D01*
X7779Y3938D01*
X7776Y3953D01*
X7768Y3965D01*
X7755Y3974D01*
X7741Y3976D01*
X7726Y3974D01*
X7720Y3970D01*
X7706Y3979D01*
X7690Y3982D01*
D02*
G37*
G36*
X7463Y4146D02*
X7364D01*
X7349Y4143D01*
X7336Y4135D01*
X7328Y4123D01*
X7326Y4122D01*
X7314Y4119D01*
X7306Y4124D01*
X7291Y4127D01*
X7277Y4124D01*
X7264Y4116D01*
X7256Y4103D01*
X7253Y4089D01*
X7256Y4074D01*
X7264Y4061D01*
X7277Y4053D01*
X7291Y4050D01*
X7306Y4053D01*
X7312Y4057D01*
X7315Y4057D01*
X7326Y4051D01*
X7328Y4042D01*
X7336Y4029D01*
X7349Y4020D01*
X7364Y4018D01*
X7463D01*
X7478Y4020D01*
X7490Y4029D01*
X7499Y4042D01*
X7502Y4056D01*
Y4107D01*
X7499Y4122D01*
X7490Y4135D01*
X7478Y4143D01*
X7463Y4146D01*
D02*
G37*
G36*
X7690Y4108D02*
X7580D01*
X7564Y4105D01*
X7549Y4095D01*
X7540Y4081D01*
X7536Y4064D01*
X7540Y4047D01*
X7549Y4033D01*
X7564Y4023D01*
X7580Y4020D01*
X7690D01*
X7706Y4023D01*
X7721Y4033D01*
X7727Y4029D01*
X7741Y4026D01*
X7756Y4029D01*
X7768Y4037D01*
X7777Y4050D01*
X7780Y4064D01*
X7777Y4079D01*
X7768Y4092D01*
X7756Y4100D01*
X7741Y4103D01*
X7727Y4100D01*
X7720Y4096D01*
X7706Y4105D01*
X7690Y4108D01*
D02*
G37*
G36*
X5373Y2982D02*
X5329D01*
Y2886D01*
X5338Y2888D01*
X5357Y2900D01*
X5369Y2919D01*
X5373Y2940D01*
Y2982D01*
D02*
G37*
G36*
X5304D02*
X5259D01*
Y2940D01*
X5264Y2919D01*
X5276Y2900D01*
X5295Y2888D01*
X5304Y2886D01*
Y2982D01*
D02*
G37*
G36*
X5329Y3104D02*
Y3008D01*
X5373D01*
Y3050D01*
X5369Y3071D01*
X5357Y3090D01*
X5338Y3102D01*
X5329Y3104D01*
D02*
G37*
G36*
X5304D02*
X5295Y3102D01*
X5276Y3090D01*
X5264Y3071D01*
X5259Y3050D01*
Y3008D01*
X5304D01*
Y3104D01*
D02*
G37*
G36*
X7691Y3063D02*
X7659Y3059D01*
X7629Y3046D01*
X7603Y3027D01*
X7584Y3001D01*
X7571Y2971D01*
X7567Y2939D01*
X7571Y2907D01*
X7584Y2877D01*
X7603Y2851D01*
X7629Y2831D01*
X7659Y2819D01*
X7691Y2815D01*
X7723Y2819D01*
X7753Y2831D01*
X7779Y2851D01*
X7799Y2877D01*
X7811Y2907D01*
X7815Y2939D01*
X7811Y2971D01*
X7799Y3001D01*
X7779Y3027D01*
X7753Y3046D01*
X7723Y3059D01*
X7691Y3063D01*
D02*
G37*
G36*
X5109Y2845D02*
X5102Y2844D01*
X5083Y2837D01*
X5067Y2825D01*
X5055Y2809D01*
X5047Y2790D01*
X5045Y2770D01*
Y2693D01*
X5109D01*
Y2845D01*
D02*
G37*
G36*
X4992Y3089D02*
X4843D01*
Y2640D01*
X4992D01*
Y3089D01*
D02*
G37*
G36*
X4691Y3063D02*
X4659Y3059D01*
X4629Y3046D01*
X4604Y3027D01*
X4584Y3001D01*
X4571Y2971D01*
X4567Y2939D01*
X4571Y2907D01*
X4584Y2877D01*
X4604Y2851D01*
X4629Y2831D01*
X4659Y2819D01*
X4691Y2815D01*
X4724Y2819D01*
X4754Y2831D01*
X4779Y2851D01*
X4799Y2877D01*
X4811Y2907D01*
X4816Y2939D01*
X4811Y2971D01*
X4799Y3001D01*
X4779Y3027D01*
X4754Y3046D01*
X4724Y3059D01*
X4691Y3063D01*
D02*
G37*
G36*
X5134Y2845D02*
Y2693D01*
X5198D01*
Y2770D01*
X5196Y2790D01*
X5188Y2809D01*
X5176Y2825D01*
X5160Y2837D01*
X5141Y2844D01*
X5134Y2845D01*
D02*
G37*
G36*
X7622Y3550D02*
X7526D01*
X7528Y3541D01*
X7540Y3523D01*
X7559Y3510D01*
X7580Y3506D01*
X7622D01*
Y3550D01*
D02*
G37*
G36*
X7937Y3445D02*
X7860D01*
X7840Y3442D01*
X7821Y3435D01*
X7805Y3422D01*
X7793Y3406D01*
X7786Y3388D01*
X7785Y3381D01*
X7937D01*
Y3445D01*
D02*
G37*
G36*
X7622Y3620D02*
X7580D01*
X7559Y3616D01*
X7540Y3603D01*
X7528Y3585D01*
X7526Y3576D01*
X7622D01*
Y3620D01*
D02*
G37*
G36*
X7744Y3550D02*
X7648D01*
Y3506D01*
X7690D01*
X7711Y3510D01*
X7730Y3523D01*
X7742Y3541D01*
X7744Y3550D01*
D02*
G37*
G36*
X7937Y3355D02*
X7785D01*
X7786Y3348D01*
X7793Y3330D01*
X7805Y3314D01*
X7821Y3301D01*
X7840Y3294D01*
X7860Y3291D01*
X7937D01*
Y3355D01*
D02*
G37*
G36*
X4978Y3251D02*
X4940D01*
Y3208D01*
X4978D01*
Y3251D01*
D02*
G37*
G36*
X4595Y3253D02*
X4443D01*
Y3189D01*
X4520D01*
X4540Y3192D01*
X4559Y3199D01*
X4575Y3212D01*
X4587Y3228D01*
X4594Y3246D01*
X4595Y3253D01*
D02*
G37*
G36*
X4520Y3343D02*
X4443D01*
Y3279D01*
X4595D01*
X4594Y3286D01*
X4587Y3304D01*
X4575Y3320D01*
X4559Y3333D01*
X4540Y3340D01*
X4520Y3343D01*
D02*
G37*
G36*
X4978Y3320D02*
X4940D01*
Y3277D01*
X4978D01*
Y3320D01*
D02*
G37*
G36*
X7622Y5058D02*
X7526D01*
X7528Y5048D01*
X7540Y5030D01*
X7559Y5018D01*
X7580Y5013D01*
X7622D01*
Y5058D01*
D02*
G37*
G36*
X5587Y5989D02*
X5578Y5987D01*
X5559Y5975D01*
X5547Y5956D01*
X5543Y5935D01*
Y5893D01*
X5587D01*
Y5989D01*
D02*
G37*
G36*
X7691Y6063D02*
X7659Y6059D01*
X7629Y6046D01*
X7603Y6026D01*
X7584Y6001D01*
X7571Y5971D01*
X7567Y5939D01*
X7571Y5906D01*
X7584Y5876D01*
X7603Y5851D01*
X7629Y5831D01*
X7659Y5819D01*
X7691Y5814D01*
X7723Y5819D01*
X7753Y5831D01*
X7779Y5851D01*
X7799Y5876D01*
X7811Y5906D01*
X7815Y5939D01*
X7811Y5971D01*
X7799Y6001D01*
X7779Y6026D01*
X7753Y6046D01*
X7723Y6059D01*
X7691Y6063D01*
D02*
G37*
G36*
X7158Y5989D02*
X7149Y5987D01*
X7130Y5975D01*
X7118Y5956D01*
X7114Y5935D01*
Y5893D01*
X7158D01*
Y5989D01*
D02*
G37*
G36*
X5612D02*
Y5893D01*
X5657D01*
Y5935D01*
X5652Y5956D01*
X5640Y5975D01*
X5622Y5987D01*
X5612Y5989D01*
D02*
G37*
G36*
X4691Y6063D02*
X4659Y6059D01*
X4629Y6046D01*
X4604Y6026D01*
X4584Y6001D01*
X4571Y5971D01*
X4567Y5939D01*
X4571Y5906D01*
X4584Y5876D01*
X4604Y5851D01*
X4629Y5831D01*
X4659Y5819D01*
X4691Y5814D01*
X4724Y5819D01*
X4754Y5831D01*
X4779Y5851D01*
X4799Y5876D01*
X4811Y5906D01*
X4816Y5939D01*
X4811Y5971D01*
X4799Y6001D01*
X4779Y6026D01*
X4754Y6046D01*
X4724Y6059D01*
X4691Y6063D01*
D02*
G37*
G36*
X7158Y5867D02*
X7114D01*
Y5825D01*
X7118Y5804D01*
X7130Y5785D01*
X7149Y5773D01*
X7158Y5771D01*
Y5867D01*
D02*
G37*
G36*
X5657D02*
X5612D01*
Y5771D01*
X5622Y5773D01*
X5640Y5785D01*
X5652Y5804D01*
X5657Y5825D01*
Y5867D01*
D02*
G37*
G36*
X7041Y6052D02*
X7027Y6049D01*
X7014Y6041D01*
X7006Y6028D01*
X7003Y6014D01*
X7006Y5999D01*
X7014Y5986D01*
X7019Y5983D01*
Y5969D01*
X7014Y5966D01*
X7005Y5951D01*
X7001Y5935D01*
Y5825D01*
X7005Y5809D01*
X7014Y5794D01*
X7029Y5785D01*
X7046Y5781D01*
X7062Y5785D01*
X7077Y5794D01*
X7086Y5809D01*
X7090Y5825D01*
Y5935D01*
X7086Y5951D01*
X7077Y5966D01*
X7066Y5973D01*
Y5985D01*
X7068Y5986D01*
X7077Y5999D01*
X7080Y6014D01*
X7077Y6028D01*
X7068Y6041D01*
X7056Y6049D01*
X7041Y6052D01*
D02*
G37*
G36*
X7227Y5867D02*
X7183D01*
Y5771D01*
X7192Y5773D01*
X7211Y5785D01*
X7223Y5804D01*
X7227Y5825D01*
Y5867D01*
D02*
G37*
G36*
X7183Y5989D02*
Y5893D01*
X7227D01*
Y5935D01*
X7223Y5956D01*
X7211Y5975D01*
X7192Y5987D01*
X7183Y5989D01*
D02*
G37*
G36*
X7353Y6182D02*
X7289D01*
Y6105D01*
X7291Y6085D01*
X7299Y6066D01*
X7311Y6050D01*
X7327Y6038D01*
X7346Y6031D01*
X7353Y6030D01*
Y6182D01*
D02*
G37*
G36*
X6427D02*
X6363D01*
Y6030D01*
X6370Y6031D01*
X6388Y6038D01*
X6404Y6050D01*
X6417Y6066D01*
X6424Y6085D01*
X6427Y6105D01*
Y6182D01*
D02*
G37*
G36*
X6198Y6198D02*
Y6160D01*
X6241D01*
Y6198D01*
X6198D01*
D02*
G37*
G36*
X7442Y6182D02*
X7378D01*
Y6030D01*
X7385Y6031D01*
X7404Y6038D01*
X7420Y6050D01*
X7432Y6066D01*
X7440Y6085D01*
X7442Y6105D01*
Y6182D01*
D02*
G37*
G36*
X6337D02*
X6273D01*
Y6105D01*
X6276Y6085D01*
X6283Y6066D01*
X6296Y6050D01*
X6312Y6038D01*
X6330Y6031D01*
X6337Y6030D01*
Y6182D01*
D02*
G37*
G36*
X5017D02*
X4952D01*
Y6105D01*
X4955Y6085D01*
X4963Y6066D01*
X4975Y6050D01*
X4991Y6038D01*
X5009Y6031D01*
X5017Y6030D01*
Y6182D01*
D02*
G37*
G36*
X5222Y5979D02*
X5205Y5975D01*
X5191Y5966D01*
X5182Y5951D01*
X5180Y5942D01*
X5146D01*
X5146Y5943D01*
X5130Y5955D01*
X5111Y5963D01*
X5091Y5966D01*
X5071Y5963D01*
X5053Y5955D01*
X5037Y5943D01*
X5025Y5927D01*
X5017Y5909D01*
X5014Y5889D01*
X5017Y5869D01*
X5025Y5850D01*
X5037Y5834D01*
X5053Y5822D01*
X5071Y5814D01*
X5091Y5812D01*
X5111Y5814D01*
X5130Y5822D01*
X5146Y5834D01*
X5146Y5835D01*
X5178D01*
Y5825D01*
X5182Y5809D01*
X5191Y5794D01*
X5205Y5785D01*
X5222Y5781D01*
X5239Y5785D01*
X5253Y5794D01*
X5263Y5809D01*
X5266Y5825D01*
Y5851D01*
X5272Y5859D01*
X5276Y5880D01*
X5272Y5901D01*
X5266Y5909D01*
Y5935D01*
X5263Y5951D01*
X5253Y5966D01*
X5239Y5975D01*
X5222Y5979D01*
D02*
G37*
G36*
X6032Y6182D02*
X5968D01*
Y6105D01*
X5970Y6085D01*
X5978Y6066D01*
X5990Y6050D01*
X6006Y6038D01*
X6025Y6031D01*
X6032Y6030D01*
Y6182D01*
D02*
G37*
G36*
X5106D02*
X5042D01*
Y6030D01*
X5049Y6031D01*
X5068Y6038D01*
X5084Y6050D01*
X5096Y6066D01*
X5103Y6085D01*
X5106Y6105D01*
Y6182D01*
D02*
G37*
G36*
X5587Y5867D02*
X5543D01*
Y5825D01*
X5547Y5804D01*
X5559Y5785D01*
X5578Y5773D01*
X5587Y5771D01*
Y5867D01*
D02*
G37*
G36*
X5161Y5254D02*
X5078D01*
Y5190D01*
X5236D01*
X5235Y5197D01*
X5228Y5215D01*
X5215Y5231D01*
X5199Y5243D01*
X5181Y5251D01*
X5161Y5254D01*
D02*
G37*
G36*
X5053D02*
X4970D01*
X4951Y5251D01*
X4932Y5243D01*
X4916Y5231D01*
X4904Y5215D01*
X4896Y5197D01*
X4895Y5190D01*
X5053D01*
Y5254D01*
D02*
G37*
G36*
X5161Y5454D02*
X5078D01*
Y5390D01*
X5236D01*
X5235Y5397D01*
X5228Y5415D01*
X5215Y5431D01*
X5199Y5443D01*
X5181Y5451D01*
X5161Y5454D01*
D02*
G37*
G36*
X5236Y5364D02*
X5078D01*
Y5300D01*
X5161D01*
X5181Y5303D01*
X5199Y5310D01*
X5215Y5322D01*
X5228Y5338D01*
X5235Y5357D01*
X5236Y5364D01*
D02*
G37*
G36*
Y5164D02*
X5078D01*
Y5100D01*
X5161D01*
X5181Y5103D01*
X5199Y5110D01*
X5215Y5122D01*
X5228Y5138D01*
X5235Y5157D01*
X5236Y5164D01*
D02*
G37*
G36*
X7622Y5127D02*
X7580D01*
X7559Y5123D01*
X7540Y5111D01*
X7528Y5092D01*
X7526Y5083D01*
X7622D01*
Y5127D01*
D02*
G37*
G36*
X7744Y5058D02*
X7648D01*
Y5013D01*
X7690D01*
X7711Y5018D01*
X7730Y5030D01*
X7742Y5048D01*
X7744Y5058D01*
D02*
G37*
G36*
X5053Y5164D02*
X4895D01*
X4896Y5157D01*
X4904Y5138D01*
X4916Y5122D01*
X4932Y5110D01*
X4951Y5103D01*
X4970Y5100D01*
X5053D01*
Y5164D01*
D02*
G37*
G36*
X7690Y5127D02*
X7648D01*
Y5083D01*
X7744D01*
X7742Y5092D01*
X7730Y5111D01*
X7711Y5123D01*
X7690Y5127D01*
D02*
G37*
G36*
X4588Y5584D02*
X4396D01*
X4398Y5567D01*
X4410Y5539D01*
X4428Y5514D01*
X4452Y5496D01*
X4480Y5484D01*
X4511Y5480D01*
X4588D01*
Y5584D01*
D02*
G37*
G36*
X7107Y5760D02*
X7094D01*
X7075Y5756D01*
X7058Y5745D01*
X7047Y5728D01*
X7043Y5708D01*
Y5672D01*
X7107D01*
Y5760D01*
D02*
G37*
G36*
X7937Y5718D02*
X7860D01*
X7840Y5716D01*
X7821Y5708D01*
X7805Y5696D01*
X7793Y5680D01*
X7786Y5661D01*
X7785Y5654D01*
X7937D01*
Y5718D01*
D02*
G37*
G36*
X5850Y5979D02*
X5833Y5975D01*
X5819Y5966D01*
X5809Y5951D01*
X5806Y5935D01*
Y5825D01*
X5809Y5809D01*
X5819Y5794D01*
X5829Y5787D01*
Y5750D01*
X5827Y5749D01*
X5814Y5741D01*
X5806Y5728D01*
X5803Y5714D01*
X5806Y5699D01*
X5814Y5686D01*
X5827Y5678D01*
X5841Y5675D01*
X5856Y5678D01*
X5868Y5686D01*
X5877Y5699D01*
X5880Y5714D01*
X5877Y5728D01*
X5870Y5738D01*
Y5787D01*
X5881Y5794D01*
X5890Y5809D01*
X5894Y5825D01*
Y5935D01*
X5890Y5951D01*
X5881Y5966D01*
X5867Y5975D01*
X5850Y5979D01*
D02*
G37*
G36*
X7145Y5760D02*
X7133D01*
Y5672D01*
X7197D01*
Y5708D01*
X7193Y5728D01*
X7182Y5745D01*
X7165Y5756D01*
X7145Y5760D01*
D02*
G37*
G36*
X7536Y5677D02*
X7493D01*
Y5639D01*
X7536D01*
Y5677D01*
D02*
G37*
G36*
X7937Y5629D02*
X7785D01*
X7786Y5621D01*
X7793Y5603D01*
X7805Y5587D01*
X7821Y5575D01*
X7840Y5567D01*
X7860Y5564D01*
X7937D01*
Y5629D01*
D02*
G37*
G36*
X4806Y5584D02*
X4613D01*
Y5480D01*
X4691D01*
X4721Y5484D01*
X4749Y5496D01*
X4773Y5514D01*
X4792Y5539D01*
X4803Y5567D01*
X4806Y5584D01*
D02*
G37*
G36*
X4691Y5713D02*
X4613D01*
Y5610D01*
X4806D01*
X4803Y5627D01*
X4792Y5655D01*
X4773Y5679D01*
X4749Y5698D01*
X4721Y5709D01*
X4691Y5713D01*
D02*
G37*
G36*
X4588D02*
X4511D01*
X4480Y5709D01*
X4452Y5698D01*
X4428Y5679D01*
X4410Y5655D01*
X4398Y5627D01*
X4396Y5610D01*
X4588D01*
Y5713D01*
D02*
G37*
%LPD*%
G36*
X4966Y2847D02*
Y2834D01*
X4869Y2796D01*
Y2809D01*
X4940Y2835D01*
X4943Y2836D01*
X4946Y2837D01*
X4947Y2838D01*
X4948Y2838D01*
X4950Y2839D01*
X4951Y2839D01*
X4952Y2839D01*
X4953Y2840D01*
X4954Y2840D01*
X4954Y2840D01*
X4955Y2840D01*
X4955Y2840D01*
X4956Y2841D01*
X4956D01*
X4953Y2841D01*
X4950Y2842D01*
X4947Y2843D01*
X4946Y2843D01*
X4945Y2844D01*
X4944Y2844D01*
X4943Y2845D01*
X4942Y2845D01*
X4941Y2845D01*
X4940Y2845D01*
X4940Y2846D01*
X4940Y2846D01*
X4940Y2846D01*
X4869Y2871D01*
Y2885D01*
X4966Y2847D01*
D02*
G37*
G36*
Y2710D02*
Y2708D01*
X4966Y2707D01*
X4966Y2705D01*
X4966Y2703D01*
X4966Y2702D01*
X4966Y2701D01*
X4966Y2700D01*
X4965Y2699D01*
X4965Y2698D01*
X4965Y2697D01*
X4965Y2696D01*
X4965Y2695D01*
X4965Y2695D01*
X4965Y2694D01*
X4965Y2694D01*
Y2694D01*
X4964Y2692D01*
X4963Y2690D01*
X4962Y2688D01*
X4962Y2687D01*
X4962Y2686D01*
X4961Y2686D01*
X4961Y2685D01*
X4961Y2685D01*
X4960Y2684D01*
X4960Y2684D01*
X4960Y2684D01*
X4960Y2684D01*
Y2684D01*
X4959Y2682D01*
X4957Y2681D01*
X4956Y2679D01*
X4954Y2678D01*
X4953Y2678D01*
X4952Y2677D01*
X4952Y2677D01*
X4951Y2677D01*
X4951Y2677D01*
X4951Y2676D01*
X4951D01*
X4949Y2675D01*
X4946Y2675D01*
X4944Y2674D01*
X4942Y2674D01*
X4941Y2674D01*
X4940Y2674D01*
X4940Y2674D01*
X4939D01*
X4939Y2674D01*
X4938D01*
X4936Y2674D01*
X4935Y2674D01*
X4934Y2674D01*
X4932Y2674D01*
X4931Y2675D01*
X4930Y2675D01*
X4929Y2675D01*
X4927Y2676D01*
X4927Y2676D01*
X4926Y2677D01*
X4925Y2677D01*
X4924Y2678D01*
X4924Y2678D01*
X4924Y2678D01*
X4923Y2678D01*
X4923Y2678D01*
X4922Y2679D01*
X4921Y2680D01*
X4920Y2681D01*
X4919Y2682D01*
X4918Y2684D01*
X4918Y2685D01*
X4917Y2686D01*
X4917Y2687D01*
X4916Y2688D01*
X4916Y2689D01*
X4915Y2690D01*
X4915Y2690D01*
X4915Y2691D01*
X4915Y2691D01*
X4914Y2692D01*
Y2692D01*
X4914Y2691D01*
X4913Y2689D01*
X4912Y2688D01*
X4912Y2687D01*
X4911Y2686D01*
X4910Y2686D01*
X4909Y2685D01*
X4909Y2684D01*
X4908Y2684D01*
X4908Y2683D01*
X4907Y2683D01*
X4907Y2682D01*
X4906Y2682D01*
X4906Y2682D01*
X4906Y2682D01*
X4906Y2682D01*
X4905Y2681D01*
X4903Y2681D01*
X4903Y2680D01*
X4901Y2680D01*
X4899Y2679D01*
X4898Y2679D01*
X4897Y2679D01*
X4896Y2678D01*
X4895Y2678D01*
X4895D01*
X4894Y2678D01*
X4894D01*
X4893Y2678D01*
X4891Y2678D01*
X4889Y2679D01*
X4887Y2679D01*
X4886Y2680D01*
X4885Y2680D01*
X4884Y2681D01*
X4883Y2681D01*
X4883Y2681D01*
X4882Y2681D01*
X4882Y2682D01*
X4881Y2682D01*
X4881Y2682D01*
X4881Y2682D01*
X4880Y2683D01*
X4879Y2684D01*
X4878Y2684D01*
X4877Y2685D01*
X4876Y2686D01*
X4875Y2687D01*
X4875Y2688D01*
X4874Y2689D01*
X4874Y2690D01*
X4873Y2690D01*
X4873Y2691D01*
X4872Y2692D01*
X4872Y2692D01*
X4872Y2692D01*
X4872Y2693D01*
Y2693D01*
X4871Y2694D01*
X4871Y2695D01*
X4870Y2698D01*
X4870Y2701D01*
X4869Y2703D01*
X4869Y2704D01*
X4869Y2705D01*
X4869Y2707D01*
X4869Y2708D01*
Y2709D01*
X4869Y2709D01*
Y2710D01*
Y2710D01*
Y2711D01*
Y2747D01*
X4966D01*
Y2710D01*
D02*
G37*
G36*
Y2893D02*
X4955D01*
Y2952D01*
X4922D01*
Y2899D01*
X4910D01*
Y2952D01*
X4880D01*
Y2895D01*
X4869D01*
Y2965D01*
X4966D01*
Y2893D01*
D02*
G37*
G36*
Y3051D02*
X4923D01*
Y3036D01*
Y3034D01*
X4923Y3033D01*
X4923Y3031D01*
X4923Y3030D01*
X4923Y3030D01*
X4923Y3029D01*
X4923Y3029D01*
Y3029D01*
X4924Y3028D01*
X4924Y3027D01*
X4925Y3026D01*
X4925Y3025D01*
X4925Y3024D01*
X4926Y3023D01*
X4926Y3023D01*
X4926Y3023D01*
X4927Y3022D01*
X4928Y3021D01*
X4929Y3020D01*
X4930Y3018D01*
X4931Y3018D01*
X4932Y3017D01*
X4932Y3017D01*
X4932Y3016D01*
X4933Y3016D01*
X4933Y3016D01*
X4934Y3016D01*
X4935Y3015D01*
X4937Y3013D01*
X4939Y3012D01*
X4941Y3010D01*
X4942Y3010D01*
X4943Y3009D01*
X4944Y3008D01*
X4945Y3008D01*
X4945Y3008D01*
X4946Y3007D01*
X4946Y3007D01*
X4946Y3007D01*
X4966Y2994D01*
Y2978D01*
X4940Y2995D01*
X4937Y2997D01*
X4936Y2998D01*
X4934Y2999D01*
X4933Y3000D01*
X4932Y3000D01*
X4931Y3001D01*
X4930Y3002D01*
X4930Y3003D01*
X4929Y3003D01*
X4928Y3004D01*
X4928Y3005D01*
X4927Y3005D01*
X4927Y3005D01*
X4927Y3005D01*
X4927Y3006D01*
X4926Y3007D01*
X4925Y3008D01*
X4924Y3009D01*
X4923Y3010D01*
X4923Y3012D01*
X4923Y3012D01*
X4922Y3012D01*
X4922Y3013D01*
X4922Y3013D01*
X4922Y3013D01*
Y3013D01*
X4922Y3011D01*
X4921Y3008D01*
X4920Y3006D01*
X4920Y3004D01*
X4919Y3002D01*
X4918Y3001D01*
X4917Y2999D01*
X4917Y2998D01*
X4916Y2996D01*
X4915Y2995D01*
X4915Y2995D01*
X4914Y2994D01*
X4914Y2993D01*
X4913Y2993D01*
X4913Y2993D01*
X4913Y2993D01*
X4912Y2991D01*
X4910Y2990D01*
X4909Y2989D01*
X4907Y2989D01*
X4906Y2988D01*
X4904Y2987D01*
X4903Y2987D01*
X4902Y2987D01*
X4900Y2986D01*
X4899Y2986D01*
X4898Y2986D01*
X4897Y2986D01*
X4896D01*
X4896Y2986D01*
X4895D01*
X4894Y2986D01*
X4893Y2986D01*
X4891Y2986D01*
X4890Y2986D01*
X4889Y2987D01*
X4887Y2987D01*
X4886Y2988D01*
X4885Y2988D01*
X4884Y2988D01*
X4883Y2989D01*
X4883Y2989D01*
X4882Y2989D01*
X4881Y2990D01*
X4881Y2990D01*
X4881Y2990D01*
X4881Y2990D01*
X4880Y2991D01*
X4879Y2992D01*
X4878Y2992D01*
X4877Y2993D01*
X4876Y2994D01*
X4875Y2995D01*
X4874Y2996D01*
X4874Y2997D01*
X4873Y2998D01*
X4873Y2998D01*
X4872Y2999D01*
X4872Y3000D01*
X4872Y3000D01*
X4872Y3000D01*
X4872Y3001D01*
Y3001D01*
X4871Y3002D01*
X4871Y3004D01*
X4870Y3005D01*
X4870Y3007D01*
X4870Y3010D01*
X4869Y3012D01*
X4869Y3013D01*
X4869Y3015D01*
X4869Y3016D01*
X4869Y3017D01*
Y3018D01*
X4869Y3019D01*
Y3020D01*
Y3020D01*
Y3020D01*
Y3021D01*
Y3064D01*
X4966D01*
Y3051D01*
D02*
G37*
%LPC*%
G36*
X4912D02*
X4880D01*
Y3020D01*
X4880Y3018D01*
X4880Y3016D01*
X4880Y3015D01*
X4880Y3013D01*
X4881Y3012D01*
X4881Y3010D01*
X4881Y3009D01*
X4882Y3008D01*
X4882Y3007D01*
X4883Y3006D01*
X4883Y3006D01*
X4883Y3005D01*
X4884Y3005D01*
X4884Y3004D01*
X4884Y3004D01*
X4884Y3004D01*
X4885Y3003D01*
X4886Y3003D01*
X4887Y3002D01*
X4888Y3001D01*
X4889Y3001D01*
X4890Y3000D01*
X4891Y3000D01*
X4891Y3000D01*
X4892Y3000D01*
X4893Y2999D01*
X4894Y2999D01*
X4894Y2999D01*
X4895Y2999D01*
X4895D01*
X4897Y2999D01*
X4899Y3000D01*
X4900Y3000D01*
X4902Y3000D01*
X4903Y3001D01*
X4903Y3001D01*
X4903Y3001D01*
X4904Y3002D01*
X4904Y3002D01*
X4904Y3002D01*
X4904D01*
X4906Y3003D01*
X4907Y3004D01*
X4908Y3005D01*
X4909Y3007D01*
X4909Y3008D01*
X4909Y3008D01*
X4910Y3008D01*
X4910Y3009D01*
X4910Y3009D01*
X4910Y3009D01*
Y3009D01*
X4910Y3010D01*
X4911Y3011D01*
X4911Y3014D01*
X4911Y3016D01*
X4912Y3018D01*
X4912Y3019D01*
X4912Y3020D01*
Y3021D01*
X4912Y3022D01*
Y3022D01*
Y3023D01*
Y3023D01*
Y3023D01*
Y3051D01*
D02*
G37*
G36*
X4955Y2734D02*
X4921D01*
Y2712D01*
Y2710D01*
X4921Y2708D01*
X4921Y2707D01*
X4922Y2706D01*
X4922Y2704D01*
X4922Y2703D01*
X4922Y2702D01*
X4922Y2701D01*
X4922Y2700D01*
X4922Y2699D01*
X4923Y2699D01*
X4923Y2698D01*
X4923Y2698D01*
X4923Y2698D01*
X4923Y2698D01*
Y2697D01*
X4924Y2696D01*
X4925Y2694D01*
X4925Y2693D01*
X4926Y2692D01*
X4927Y2691D01*
X4928Y2690D01*
X4928Y2690D01*
X4928Y2690D01*
X4929Y2690D01*
X4929D01*
X4930Y2689D01*
X4932Y2688D01*
X4933Y2688D01*
X4935Y2687D01*
X4936Y2687D01*
X4937Y2687D01*
X4937D01*
X4937Y2687D01*
X4938D01*
X4940Y2687D01*
X4941Y2687D01*
X4943Y2687D01*
X4944Y2688D01*
X4945Y2688D01*
X4946Y2689D01*
X4946Y2689D01*
X4946Y2689D01*
X4946Y2689D01*
X4946D01*
X4948Y2690D01*
X4949Y2690D01*
X4950Y2691D01*
X4950Y2692D01*
X4951Y2693D01*
X4951Y2693D01*
X4952Y2694D01*
X4952Y2694D01*
Y2694D01*
X4952Y2695D01*
X4953Y2696D01*
X4953Y2697D01*
X4954Y2698D01*
X4954Y2700D01*
X4954Y2700D01*
X4954Y2701D01*
Y2701D01*
X4954Y2701D01*
Y2701D01*
X4954Y2702D01*
X4954Y2702D01*
X4955Y2704D01*
X4955Y2705D01*
Y2706D01*
X4955Y2708D01*
Y2708D01*
Y2709D01*
Y2709D01*
Y2710D01*
Y2710D01*
Y2710D01*
Y2734D01*
D02*
G37*
G36*
X4910D02*
X4880D01*
Y2715D01*
Y2713D01*
X4880Y2711D01*
X4880Y2709D01*
X4881Y2708D01*
X4881Y2707D01*
X4881Y2705D01*
X4881Y2704D01*
X4881Y2703D01*
X4881Y2703D01*
X4881Y2702D01*
X4881Y2701D01*
X4882Y2701D01*
X4882Y2700D01*
X4882Y2700D01*
X4882Y2700D01*
Y2700D01*
X4882Y2698D01*
X4883Y2697D01*
X4884Y2696D01*
X4885Y2695D01*
X4886Y2694D01*
X4886Y2694D01*
X4887Y2693D01*
X4887Y2693D01*
X4887D01*
X4888Y2693D01*
X4890Y2692D01*
X4891Y2691D01*
X4892Y2691D01*
X4894Y2691D01*
X4894Y2691D01*
X4894Y2691D01*
X4895D01*
X4897Y2691D01*
X4899Y2691D01*
X4900Y2692D01*
X4902Y2692D01*
X4903Y2693D01*
X4903Y2693D01*
X4903Y2693D01*
X4904Y2693D01*
X4904Y2693D01*
X4904Y2693D01*
X4904D01*
X4905Y2694D01*
X4906Y2696D01*
X4907Y2697D01*
X4908Y2698D01*
X4908Y2699D01*
X4908Y2700D01*
X4908Y2700D01*
X4909Y2700D01*
X4909Y2701D01*
X4909Y2701D01*
Y2701D01*
X4909Y2702D01*
X4909Y2702D01*
X4909Y2703D01*
X4909Y2704D01*
X4910Y2706D01*
X4910Y2708D01*
X4910Y2709D01*
Y2710D01*
Y2711D01*
X4910Y2712D01*
Y2712D01*
Y2713D01*
Y2713D01*
Y2713D01*
Y2734D01*
D02*
G37*
%LPD*%
D14*
X5223Y3839D02*
X5341D01*
X5105Y3785D02*
X5145D01*
X5065D02*
X5105D01*
X5341Y3839D02*
X5366Y3814D01*
X5169Y3785D02*
X5223Y3839D01*
X5145Y3785D02*
X5169D01*
X6166Y3239D02*
X6216Y3289D01*
X6091Y3239D02*
X6166D01*
X6817Y2938D02*
X6866Y2889D01*
X6944Y2986D02*
Y2995D01*
Y2986D02*
X6991Y2939D01*
X6560Y4982D02*
X6642Y5065D01*
Y5080D01*
X6464Y5314D02*
X6616D01*
X6119Y5659D02*
X6464Y5314D01*
X7120Y3359D02*
Y3410D01*
X6516Y5039D02*
X6558Y5080D01*
X7946Y3368D02*
X7950D01*
X7766Y3189D02*
X7946Y3368D01*
X7148Y2995D02*
X7191Y3039D01*
X7068Y2995D02*
X7148D01*
X7635Y3507D02*
Y3520D01*
X7591Y3464D02*
X7635Y3507D01*
X6520Y5410D02*
Y5659D01*
Y5410D02*
X6541Y5389D01*
X6558Y5080D02*
X6579D01*
X7756Y4875D02*
X7950D01*
X7683Y4803D02*
X7756Y4875D01*
X7241Y4314D02*
X7244D01*
X7413Y4483D01*
X6934Y4864D02*
X6935Y4864D01*
X6286Y3510D02*
Y3551D01*
X6216Y3289D02*
Y3440D01*
X6286Y3510D01*
X6269Y3569D02*
X6286Y3551D01*
X6269Y3569D02*
Y3891D01*
X6431Y3978D02*
Y4221D01*
X6560Y4350D01*
X6269Y3891D02*
X6393Y4015D01*
Y4236D01*
X6516Y4360D01*
Y5039D01*
X6560Y4350D02*
Y4982D01*
X6404Y3439D02*
Y3951D01*
X6431Y3978D01*
D15*
X5191Y3589D02*
X5262D01*
X5266Y3584D01*
X5105Y3703D02*
X5188D01*
X5232Y3747D01*
X4745Y3462D02*
X4864D01*
X5105Y3703D01*
Y3865D02*
X5167Y3926D01*
X5360D01*
X5441Y3845D01*
Y3739D02*
Y3845D01*
X5416Y3714D02*
X5441Y3739D01*
X5841Y2639D02*
X7223D01*
X5256Y3574D02*
X6006D01*
X5564Y3961D02*
Y4371D01*
X5541Y3939D02*
X5564Y3961D01*
X5639Y3439D02*
X5791D01*
X5552Y3352D02*
X5639Y3439D01*
X5552Y3264D02*
Y3352D01*
X5065Y4055D02*
X5413D01*
Y4264D02*
Y4264D01*
Y4064D02*
Y4264D01*
X5214Y5889D02*
X5222Y5880D01*
X5091Y5889D02*
X5214D01*
X4794Y5392D02*
X4816Y5414D01*
X4794Y4326D02*
Y5392D01*
Y4326D02*
X5065Y4055D01*
X5413D02*
Y4064D01*
X4601Y4155D02*
Y5597D01*
Y4155D02*
X4745Y4011D01*
Y3837D02*
Y4011D01*
X6015Y6039D02*
Y6109D01*
Y5577D02*
Y6039D01*
Y6109D02*
X6045Y6139D01*
X6015Y5577D02*
X6116Y5476D01*
Y4789D02*
Y5476D01*
X4601Y5597D02*
X4846D01*
X5066Y5377D01*
Y5177D02*
Y5377D01*
X5291Y4789D02*
X5413Y4910D01*
Y5084D01*
X5291Y4739D02*
Y4789D01*
X5285Y4733D02*
X5291Y4739D01*
X5285Y4708D02*
Y4733D01*
X5152Y4575D02*
X5285Y4708D01*
X5066Y4575D02*
X5152D01*
X5066Y4376D02*
Y4575D01*
X5413Y4564D02*
Y4674D01*
Y4564D02*
X5566Y4410D01*
X5564Y4371D02*
X5566Y4374D01*
Y4410D01*
X5200Y3492D02*
X5201Y3493D01*
X5067Y3492D02*
X5200D01*
X4430Y3266D02*
X4941D01*
X5067Y3392D01*
Y3492D01*
X5092Y3264D02*
X5361D01*
X5141Y2995D02*
X5316D01*
X5552Y3200D02*
Y3264D01*
X5441Y3089D02*
X5552Y3200D01*
X5441Y2995D02*
Y3089D01*
X5361Y3264D02*
Y3369D01*
X5317Y3412D02*
X5361Y3369D01*
X5256Y3412D02*
X5317D01*
X6006Y3574D02*
X6119Y3461D01*
Y3359D02*
Y3461D01*
X7950Y3368D02*
Y4635D01*
X7264Y2680D02*
X7273Y2689D01*
X7223Y2639D02*
X7264Y2680D01*
X7635Y3520D02*
X7691Y3464D01*
X7854D01*
X7950Y3368D01*
Y2847D02*
Y3368D01*
X7791Y2689D02*
X7950Y2847D01*
X7273Y2689D02*
X7791D01*
X5800Y2680D02*
X5841Y2639D01*
X5121Y2680D02*
X5800D01*
X4430Y3266D02*
Y4032D01*
X7299Y5571D02*
Y5740D01*
X6716Y5514D02*
X7241D01*
X7299Y5571D01*
X6720Y5517D02*
Y5659D01*
X7591Y4775D02*
Y4914D01*
X6716Y5514D02*
X6720Y5517D01*
X6782Y4191D02*
X6789D01*
X6791Y4189D01*
Y3664D02*
Y4189D01*
Y3664D02*
X6920Y3535D01*
Y3359D02*
Y3535D01*
X5109Y2693D02*
X5121Y2680D01*
X5045Y2693D02*
X5109D01*
D16*
X5334Y2995D02*
X5391Y2939D01*
Y2919D02*
Y2939D01*
Y2919D02*
X5420Y2890D01*
X5462D01*
X5502Y2929D01*
Y3056D01*
X5579Y3134D01*
X6085D01*
X6118Y3101D01*
Y2945D02*
Y3101D01*
Y2945D02*
X6174Y2889D01*
X6586D01*
X6617Y2919D01*
Y3113D01*
X6616Y3114D02*
X6617Y3113D01*
X6594Y3166D02*
X6841D01*
X6566Y3139D02*
X6594Y3166D01*
X6566Y2995D02*
Y3139D01*
X6397Y3394D02*
X6422D01*
X6397Y3394D02*
X6397Y3394D01*
X6362Y3359D02*
X6397Y3394D01*
X6320Y3359D02*
X6362D01*
X6302Y3249D02*
X6806D01*
X6243Y3190D02*
X6302Y3249D01*
X6243Y3182D02*
Y3190D01*
X6216Y3155D02*
X6243Y3182D01*
X6208Y3155D02*
X6216D01*
X6194Y3141D02*
X6208Y3155D01*
X6864Y3111D02*
X6878Y3125D01*
X6789Y3111D02*
X6864D01*
X6866Y3153D02*
X7210D01*
X6852Y3139D02*
X6866Y3153D01*
X6716Y3139D02*
X6852D01*
X6855Y3181D02*
X6999D01*
X6841Y3166D02*
X6855Y3181D01*
X6853Y3208D02*
X6987D01*
X6848Y3213D02*
X6853Y3208D01*
X6848Y3213D02*
Y3213D01*
X6829Y3194D02*
X6848Y3213D01*
X6552Y3194D02*
X6829D01*
X6864Y3236D02*
X6976D01*
X6851Y3249D02*
X6864Y3236D01*
X6845Y3249D02*
X6851D01*
X6818Y3222D02*
X6845Y3249D01*
X6541Y3222D02*
X6818D01*
X6876Y3264D02*
X6964D01*
X6862Y3277D02*
X6876Y3264D01*
X6834Y3277D02*
X6862D01*
X6806Y3249D02*
X6834Y3277D01*
X6316Y2998D02*
X6541Y3222D01*
X6441Y3083D02*
X6552Y3194D01*
X6692Y3115D02*
X6716Y3139D01*
X6766Y3089D02*
X6789Y3111D01*
X6878Y3125D02*
X7222D01*
X6750Y3089D02*
X6766D01*
X6166Y2839D02*
X7075D01*
X6155Y2811D02*
X7087D01*
X6143Y2783D02*
X7098D01*
X6132Y2756D02*
X7110D01*
X6120Y2728D02*
X7121D01*
X6130Y2874D02*
X6166Y2839D01*
X7075D02*
X7189Y2952D01*
X6119Y2847D02*
X6155Y2811D01*
X7087D02*
X7200Y2924D01*
X6108Y2819D02*
X6143Y2783D01*
X7098D02*
X7212Y2897D01*
X6096Y2791D02*
X6132Y2756D01*
X7110D02*
X7223Y2869D01*
X6088Y2760D02*
X6120Y2728D01*
X7121D02*
X7234Y2841D01*
X6088Y2760D02*
X6088D01*
X6071Y2743D02*
X6088Y2760D01*
X6055Y2791D02*
X6096D01*
X6043Y2819D02*
X6108D01*
X6032Y2847D02*
X6119D01*
X6020Y2874D02*
X6130D01*
X6005Y2859D02*
X6020Y2874D01*
X6005Y2820D02*
X6032Y2847D01*
X6008Y2783D02*
X6043Y2819D01*
X6003Y2783D02*
X6008D01*
X6019Y2756D02*
X6055Y2791D01*
X5991Y2756D02*
X6019D01*
X6316Y2995D02*
Y2998D01*
X6194Y2995D02*
Y3141D01*
X6464Y4762D02*
X6466Y4761D01*
X6692Y2995D02*
Y3115D01*
X7741Y3813D02*
X7741Y3814D01*
X6066Y3889D02*
X6086Y3908D01*
X6141Y3935D02*
X6147Y3941D01*
X5991Y3864D02*
Y4480D01*
X7316Y3864D02*
X7322D01*
X5316Y4264D02*
X5413D01*
X4854Y4351D02*
Y4827D01*
X5004Y4977D01*
X5066D01*
X4882Y4362D02*
X4980Y4264D01*
X4882Y4362D02*
Y4729D01*
X4928Y4775D01*
X4854Y4351D02*
X5010Y4195D01*
X4980Y4264D02*
X5237D01*
X5010Y4195D02*
X5241D01*
X4972Y3695D02*
Y3714D01*
X4864Y3586D02*
X4972Y3695D01*
X4745Y3586D02*
X4864D01*
X4870Y3674D02*
X4910Y3714D01*
X4783Y3674D02*
X4870D01*
X4745Y3712D02*
X4783Y3674D01*
X6015Y6039D02*
X6045D01*
X5666D02*
X6015D01*
X6045Y6139D02*
Y6195D01*
X4928Y4775D02*
X5066D01*
X5237Y4264D02*
X5291Y4209D01*
Y4132D02*
Y4209D01*
X6291Y4339D02*
X6416Y4464D01*
Y4996D01*
X6175Y4518D02*
X6260D01*
X6286Y4545D01*
X6172Y4521D02*
X6175Y4518D01*
X6241Y4564D02*
Y4939D01*
X6286Y4545D02*
Y4945D01*
X6366Y4564D02*
Y4985D01*
X6286Y4945D02*
X6528Y5186D01*
X6241Y4939D02*
X6516Y5214D01*
X6528Y5186D02*
X7626D01*
X7635Y5195D01*
X7530Y5216D02*
X7635Y5321D01*
X7635D01*
X7174Y5131D02*
X7413Y4892D01*
X7530Y5216D02*
Y5216D01*
X7527Y5214D02*
X7530Y5216D01*
X6551Y5131D02*
X7174D01*
X6416Y4996D02*
X6551Y5131D01*
X7186Y5158D02*
X7260Y5084D01*
X6539Y5158D02*
X7186D01*
X6366Y4985D02*
X6539Y5158D01*
X6516Y5214D02*
X7527D01*
X6916Y4914D02*
X7216D01*
X6691Y4689D02*
X6916Y4914D01*
X6641Y4689D02*
X6691D01*
X7216Y4914D02*
X7241Y4889D01*
Y4764D02*
Y4889D01*
X7321Y4684D02*
X7413D01*
X7241Y4764D02*
X7321Y4684D01*
X7260Y5084D02*
X7413D01*
X7950Y4635D02*
Y4875D01*
X7604Y4762D02*
Y4775D01*
X7950Y4875D02*
Y5641D01*
X7635Y5070D02*
X7755D01*
X7950Y4875D01*
X7635Y4440D02*
X7765Y4570D01*
Y4762D01*
X7862D01*
X7413Y4884D02*
Y4892D01*
X7460Y5740D02*
X7564D01*
X7635Y5670D01*
Y5446D02*
Y5670D01*
X7480Y5525D02*
X7560Y5446D01*
X7635D01*
X7950Y5641D02*
Y5955D01*
X7710Y6195D02*
X7950Y5955D01*
X7365Y6195D02*
X7710D01*
X7379Y5700D02*
X7452Y5626D01*
X7480D01*
X7379Y5780D02*
Y6182D01*
Y5740D02*
Y5780D01*
Y5700D02*
Y5740D01*
X7365Y6195D02*
X7379Y6182D01*
X7120Y5659D02*
X7171Y5710D01*
Y5880D01*
X6185Y5787D02*
X6198Y5775D01*
X6780D01*
X6896Y5659D01*
X6920D01*
X7191Y6195D02*
X7365D01*
X6350D02*
X7191D01*
X7171Y6174D02*
X7191Y6195D01*
X7171Y5880D02*
Y6174D01*
X7041Y6014D02*
X7046Y6009D01*
Y5880D02*
Y6009D01*
X6864Y5811D02*
X6921Y5868D01*
Y5880D01*
X6794D02*
Y6035D01*
X6670Y5880D02*
Y5985D01*
X6474Y5949D02*
X6543Y5880D01*
X6185Y5949D02*
X6474D01*
X6185D02*
Y6046D01*
X6045Y5935D02*
Y6039D01*
X5600Y5972D02*
X5666Y6039D01*
X5600Y5880D02*
Y5972D01*
X6045Y5935D02*
X6112Y5867D01*
X6145D01*
X6185D01*
Y6147D02*
X6233Y6195D01*
X6350D01*
X6137D02*
X6185Y6147D01*
X6045Y6195D02*
X6137D01*
X5029D02*
X6045D01*
X5964Y4636D02*
Y5427D01*
X5941Y4614D02*
X5964Y4636D01*
X5896Y4594D02*
X5969Y4521D01*
X5896Y4594D02*
Y4812D01*
X5725Y5705D02*
X6014Y5416D01*
Y4502D02*
Y5416D01*
X5991Y4480D02*
X6014Y4502D01*
X5416Y5664D02*
X5688D01*
X5934Y4850D02*
Y5417D01*
X5688Y5664D02*
X5934Y5417D01*
X5699Y5691D02*
X5964Y5427D01*
X5514Y5691D02*
X5699D01*
X5725Y5705D02*
Y5880D01*
X5474Y5731D02*
X5514Y5691D01*
X5349Y5731D02*
X5416Y5664D01*
X5349Y5731D02*
Y5880D01*
X5896Y4812D02*
X5934Y4850D01*
X5474Y5731D02*
Y5880D01*
X5846Y3693D02*
Y4826D01*
X5888Y4867D01*
X5778Y4864D02*
X5786Y4855D01*
Y3967D02*
X5791Y3962D01*
X5786Y3967D02*
Y4855D01*
X5778Y4864D02*
X5791Y4877D01*
X5741Y4089D02*
Y4814D01*
X5691Y3989D02*
Y4864D01*
X6141Y4303D02*
X6147Y4308D01*
Y3941D02*
Y4305D01*
X7322Y3864D02*
X7336Y3878D01*
Y3884D01*
X6147Y4305D02*
Y4308D01*
X6086Y3908D02*
Y4344D01*
X5891Y4114D02*
Y4339D01*
X5641Y3814D02*
Y4339D01*
X7741Y3688D02*
X7741Y3689D01*
X7635Y3688D02*
X7741D01*
X7336Y3884D02*
X7413D01*
X7635Y3813D02*
X7741D01*
X7635Y3938D02*
X7741D01*
X7741Y4064D02*
X7741Y4064D01*
X7635Y4064D02*
X7741D01*
X7291Y4089D02*
X7298Y4082D01*
X7413D01*
X7635Y4188D02*
X7741D01*
X7317Y4239D02*
X7346D01*
Y4268D01*
X7360Y4282D01*
X7413D01*
X7300Y4284D02*
X7318Y4302D01*
Y4327D01*
X7345Y4353D01*
X7597D01*
X7635Y4315D01*
X6641Y4387D02*
Y4489D01*
X6619Y4387D02*
X6641D01*
X6593Y4361D02*
X6619Y4387D01*
X6691Y3388D02*
X6720Y3359D01*
X6691Y3388D02*
Y4264D01*
X6641Y4489D02*
X6688Y4535D01*
X6005Y2859D02*
X6005D01*
X5993Y2872D02*
X6005Y2859D01*
Y2820D02*
X6005D01*
X5981Y2844D02*
X6005Y2820D01*
X5958Y2789D02*
X5991Y2756D01*
X5944Y2789D02*
X5958D01*
X5970Y2816D02*
X6003Y2783D01*
X5930Y2816D02*
X5970D01*
X5919Y2844D02*
X5981D01*
X7385Y3018D02*
Y3528D01*
X7412Y3007D02*
Y3539D01*
X7440Y2995D02*
Y3551D01*
X7468Y2984D02*
Y3562D01*
X7234Y2841D02*
X7325D01*
X7468Y2984D01*
X7223Y2869D02*
X7314D01*
X7440Y2995D01*
X7280Y2952D02*
X7357Y3029D01*
X7189Y2952D02*
X7280D01*
X7291Y2924D02*
X7385Y3018D01*
X7200Y2924D02*
X7291D01*
X7303Y2897D02*
X7412Y3007D01*
X7212Y2897D02*
X7303D01*
X7357Y3029D02*
Y3516D01*
X7222Y3125D02*
X7329Y3233D01*
X7210Y3153D02*
X7302Y3245D01*
X7199Y3181D02*
X7274Y3256D01*
X7187Y3208D02*
X7246Y3267D01*
X7176Y3236D02*
X7219Y3279D01*
X7164Y3264D02*
X7191Y3290D01*
X7012Y3194D02*
X7028D01*
X6999Y3181D02*
X7012Y3194D01*
X7001Y3222D02*
X7039D01*
X6987Y3208D02*
X7001Y3222D01*
X6989Y3249D02*
X7051D01*
X6976Y3236D02*
X6989Y3249D01*
X6978Y3277D02*
X7062D01*
X6964Y3264D02*
X6978Y3277D01*
X7041Y3181D02*
X7199D01*
X7028Y3194D02*
X7041Y3181D01*
X7053Y3208D02*
X7187D01*
X7039Y3222D02*
X7053Y3208D01*
X7064Y3236D02*
X7176D01*
X7051Y3249D02*
X7064Y3236D01*
X7076Y3264D02*
X7164D01*
X7062Y3277D02*
X7076Y3264D01*
X7168Y3862D02*
X7468Y3562D01*
X6871Y3759D02*
X7191Y3439D01*
Y3290D02*
Y3439D01*
X6899Y3770D02*
X7219Y3451D01*
Y3279D02*
Y3451D01*
X6927Y3781D02*
X7246Y3462D01*
Y3267D02*
Y3462D01*
X6954Y3793D02*
X7274Y3473D01*
Y3256D02*
Y3473D01*
X6982Y3804D02*
X7302Y3485D01*
Y3245D02*
Y3485D01*
X7027Y3798D02*
X7329Y3496D01*
Y3233D02*
Y3496D01*
X7057Y3816D02*
X7357Y3516D01*
X7085Y3827D02*
X7385Y3528D01*
X7113Y3839D02*
X7412Y3539D01*
X7141Y3850D02*
X7440Y3551D01*
X6871Y3759D02*
Y4327D01*
X7057Y3816D02*
Y4611D01*
X7085Y3827D02*
Y4600D01*
X7113Y3839D02*
Y4588D01*
X7141Y3850D02*
Y4577D01*
X7168Y3862D02*
Y4541D01*
X6899Y3770D02*
Y4338D01*
X6927Y3781D02*
Y4350D01*
X6954Y3793D02*
Y4361D01*
X6982Y3804D02*
Y4530D01*
X7027Y3798D02*
Y4548D01*
X6937Y4639D02*
X7027Y4548D01*
X6916Y4639D02*
X6937D01*
X7168Y4541D02*
X7191Y4564D01*
X7141Y4577D02*
X7191Y4628D01*
X7113Y4588D02*
X7146Y4622D01*
X7085Y4600D02*
X7118Y4633D01*
X7057Y4611D02*
X7091Y4644D01*
X7116Y4706D02*
Y4778D01*
X7144Y4741D02*
X7191Y4789D01*
X7144Y4694D02*
Y4741D01*
X7146Y4657D02*
X7191Y4703D01*
Y4714D01*
X7091Y4680D02*
X7116Y4706D01*
X7091Y4644D02*
Y4680D01*
X7118Y4669D02*
X7144Y4694D01*
X7118Y4633D02*
Y4669D01*
X7146Y4622D02*
Y4657D01*
X7191Y4628D02*
Y4639D01*
X6793Y4405D02*
X6871Y4327D01*
X6866Y4371D02*
X6899Y4338D01*
X6894Y4383D02*
X6927Y4350D01*
X6921Y4394D02*
X6954Y4361D01*
X6793Y4405D02*
Y4724D01*
X6866Y4371D02*
Y4419D01*
X6894Y4383D02*
Y4432D01*
X6921Y4394D02*
Y4572D01*
X6821Y4464D02*
X6866Y4419D01*
X6849Y4478D02*
X6894Y4432D01*
X6849Y4478D02*
Y4635D01*
X6821Y4464D02*
Y4687D01*
X5566Y2939D02*
X5633Y2872D01*
X5922Y2808D02*
X5930Y2816D01*
X5910Y2836D02*
X5919Y2844D01*
X5633Y2872D02*
X5993D01*
X5906Y2836D02*
X5910D01*
X5895Y2808D02*
X5922D01*
X5889Y2814D02*
X5895Y2808D01*
X5874Y2814D02*
X5889D01*
X5898Y2844D02*
X5906Y2836D01*
X5722Y2844D02*
X5898D01*
X5842Y2781D02*
X5874Y2814D01*
X5691D02*
X5722Y2844D01*
X6067Y2995D02*
Y3088D01*
X5942Y2995D02*
Y3084D01*
X5944Y3086D01*
Y2766D02*
Y2789D01*
X5816Y2995D02*
Y3062D01*
X5842Y3088D01*
X5842Y2782D02*
X5842Y2781D01*
X5691Y2995D02*
Y3088D01*
X5691Y3089D02*
X5691Y3088D01*
X6441Y2995D02*
Y3083D01*
X7116Y4778D02*
X7191Y4853D01*
Y4864D01*
X6793Y4724D02*
X6934Y4864D01*
X6934D01*
X6821Y4687D02*
X6934Y4801D01*
X6849Y4635D02*
X6925Y4712D01*
X6934D01*
X6236Y3531D02*
Y3908D01*
X6422Y3394D02*
X6449Y3421D01*
X6491Y3388D02*
X6520Y3359D01*
X6491Y3388D02*
Y4195D01*
X6638Y4342D01*
X6464Y3961D02*
Y4207D01*
X6593Y4336D01*
Y4361D01*
X6236Y3908D02*
X6360Y4032D01*
Y4250D01*
X6466Y4357D01*
Y4761D01*
X6449Y3421D02*
Y3946D01*
X6464Y3961D01*
D17*
X5850Y5722D02*
Y5880D01*
X5841Y5714D02*
X5850Y5722D01*
D18*
X7379Y5700D02*
D03*
Y5780D02*
D03*
X7683Y4803D02*
D03*
Y4722D02*
D03*
X7379Y5740D02*
D03*
X7683Y4762D02*
D03*
D19*
X7691Y5939D02*
D03*
X4691Y2939D02*
D03*
X7691D02*
D03*
X4691Y5939D02*
D03*
D20*
X7313Y4881D02*
D03*
X5110D02*
D03*
D21*
X5145Y3785D02*
D03*
X5065D02*
D03*
X6226Y5867D02*
D03*
X6145D02*
D03*
X5297Y3492D02*
D03*
X5216D02*
D03*
X5105Y3785D02*
D03*
X6185Y5867D02*
D03*
X5256Y3492D02*
D03*
D22*
X5191Y3589D02*
D03*
X6236Y3531D02*
D03*
X6091Y3239D02*
D03*
X6866Y2889D02*
D03*
X6750Y3089D02*
D03*
X6464Y4762D02*
D03*
X6991Y2939D02*
D03*
X6642Y5080D02*
D03*
X6616Y5314D02*
D03*
X7741Y3814D02*
D03*
X6066Y3889D02*
D03*
X6141Y3935D02*
D03*
X5991Y3864D02*
D03*
X7316D02*
D03*
X7120Y3410D02*
D03*
X5841Y5714D02*
D03*
X4972Y3714D02*
D03*
X4910D02*
D03*
X5566Y4164D02*
D03*
X6116Y4789D02*
D03*
X4591Y4689D02*
D03*
X5241Y4195D02*
D03*
X5291Y4132D02*
D03*
X6291Y4339D02*
D03*
X6241Y4564D02*
D03*
X6172Y4521D02*
D03*
X6641Y4689D02*
D03*
X5316Y4039D02*
D03*
Y4264D02*
D03*
X7766Y3189D02*
D03*
X7191Y3039D02*
D03*
X7591Y3464D02*
D03*
X6541Y5389D02*
D03*
X6579Y5080D02*
D03*
X6366Y4564D02*
D03*
X7041Y6014D02*
D03*
X6864Y5811D02*
D03*
X6794Y6035D02*
D03*
X6670Y5985D02*
D03*
X5941Y4614D02*
D03*
X5969Y4521D02*
D03*
X5846Y3693D02*
D03*
X5888Y4867D02*
D03*
X5791Y3962D02*
D03*
Y4877D02*
D03*
X5741Y4089D02*
D03*
Y4814D02*
D03*
X5691Y3989D02*
D03*
Y4864D02*
D03*
X6147Y4305D02*
D03*
X6086Y4344D02*
D03*
X5891Y4114D02*
D03*
Y4339D02*
D03*
X5641Y3814D02*
D03*
Y4339D02*
D03*
X7741Y3689D02*
D03*
X7741Y3938D02*
D03*
X7741Y4064D02*
D03*
X7291Y4089D02*
D03*
X7741Y4188D02*
D03*
X7303Y4216D02*
D03*
X7300Y4284D02*
D03*
X7241Y4314D02*
D03*
X6638Y4342D02*
D03*
X6691Y4264D02*
D03*
X6688Y4535D02*
D03*
X6071Y2743D02*
D03*
X6067Y3088D02*
D03*
X5944Y3086D02*
D03*
Y2766D02*
D03*
X5842Y3088D02*
D03*
Y2781D02*
D03*
X5691Y3089D02*
D03*
Y2814D02*
D03*
X6982Y4530D02*
D03*
X6921Y4572D02*
D03*
X6916Y4639D02*
D03*
X6934Y4712D02*
D03*
Y4801D02*
D03*
Y4864D02*
D03*
X7191Y4564D02*
D03*
Y4639D02*
D03*
Y4714D02*
D03*
Y4789D02*
D03*
Y4864D02*
D03*
X6404Y3439D02*
D03*
X6341Y3789D02*
D03*
X6616D02*
D03*
D23*
X5416Y3714D02*
D03*
X5541Y3939D02*
D03*
X5791Y3439D02*
D03*
X5091Y5889D02*
D03*
X4816Y5414D02*
D03*
X7591Y4914D02*
D03*
X6716Y5514D02*
D03*
X6782Y4191D02*
D03*
D24*
X6616Y3114D02*
D03*
X5366Y3814D02*
D03*
D25*
X5121Y2680D02*
D03*
X7264D02*
D03*
X6045Y6195D02*
D03*
X5029D02*
D03*
X7365D02*
D03*
X6350D02*
D03*
D26*
X5316Y2995D02*
D03*
X5566D02*
D03*
X5691D02*
D03*
X5816D02*
D03*
X5942D02*
D03*
X6067D02*
D03*
X6194D02*
D03*
X5441D02*
D03*
X7068D02*
D03*
X6944D02*
D03*
X6817D02*
D03*
X6692D02*
D03*
X6566D02*
D03*
X6441D02*
D03*
X6316D02*
D03*
X5850Y5880D02*
D03*
X5725D02*
D03*
X5600D02*
D03*
X5474D02*
D03*
X5349D02*
D03*
X5222D02*
D03*
X7171D02*
D03*
X7046D02*
D03*
X6921D02*
D03*
X6794D02*
D03*
X6670D02*
D03*
X6543D02*
D03*
D27*
X5361Y3264D02*
D03*
D28*
X5552D02*
D03*
D29*
X7480Y5525D02*
D03*
Y5626D02*
D03*
X5232Y3747D02*
D03*
Y3848D02*
D03*
X6185Y6046D02*
D03*
Y6147D02*
D03*
D30*
X7460Y5740D02*
D03*
X7299D02*
D03*
X7604Y4762D02*
D03*
X7765D02*
D03*
D31*
X7635Y5070D02*
D03*
Y5195D02*
D03*
Y5321D02*
D03*
Y5446D02*
D03*
Y3563D02*
D03*
Y3688D02*
D03*
Y3813D02*
D03*
Y3938D02*
D03*
Y4064D02*
D03*
Y4188D02*
D03*
Y4315D02*
D03*
Y4440D02*
D03*
X4745Y3837D02*
D03*
Y3712D02*
D03*
Y3586D02*
D03*
Y3462D02*
D03*
D32*
X7950Y4875D02*
D03*
Y5641D02*
D03*
Y3368D02*
D03*
Y4635D02*
D03*
X4430Y4032D02*
D03*
Y3266D02*
D03*
D33*
X4601Y4155D02*
D03*
Y5597D02*
D03*
D34*
X5066Y4376D02*
D03*
Y4575D02*
D03*
Y4775D02*
D03*
Y5177D02*
D03*
Y5377D02*
D03*
D35*
Y4987D02*
D03*
D36*
X7413Y4684D02*
D03*
Y5084D02*
D03*
Y4483D02*
D03*
Y4282D02*
D03*
Y4082D02*
D03*
Y3884D02*
D03*
X5413Y4474D02*
D03*
Y4674D02*
D03*
Y4884D02*
D03*
Y5084D02*
D03*
Y4264D02*
D03*
Y4064D02*
D03*
D37*
X7430Y4884D02*
D03*
D38*
X7120Y5659D02*
D03*
X6920D02*
D03*
X6720D02*
D03*
X6520D02*
D03*
X6320D02*
D03*
X6119D02*
D03*
X7120Y3359D02*
D03*
X6920D02*
D03*
X6720D02*
D03*
X6520D02*
D03*
X6320D02*
D03*
X6119D02*
D03*
D39*
X5105Y3865D02*
D03*
Y3703D02*
D03*
X6185Y5949D02*
D03*
Y5787D02*
D03*
X5256Y3574D02*
D03*
Y3412D02*
D03*
D40*
X7862Y4762D02*
D03*
X7963D02*
D03*
X5092Y3264D02*
D03*
X4991D02*
D03*
M02*
