G04 Layer_Color=2752767*
%FSLAX42Y42*%
%MOMM*%
G71*
G01*
G75*
%ADD79C,0.05*%
%ADD80C,0.07*%
D79*
X7358Y5720D02*
Y5761D01*
X7399D01*
Y5720D01*
X7358D01*
X7313Y4861D02*
X7293Y4902D01*
X7333D01*
X7313Y4861D01*
X5110D02*
X5090Y4902D01*
X5131D01*
X5110Y4861D01*
X5085Y3764D02*
Y3805D01*
X5126D01*
Y3764D01*
X5085D01*
X6165Y5847D02*
Y5888D01*
X6205D01*
Y5847D01*
X6165D01*
X7663Y4742D02*
Y4783D01*
X7704D01*
Y4742D01*
X7663D01*
X5236Y3472D02*
Y3513D01*
X5276D01*
Y3472D01*
X5236D01*
X5191Y3568D02*
X5201Y3578D01*
X5212D01*
X5201Y3589D01*
X5212Y3599D01*
X5201D01*
X5191Y3609D01*
X5181Y3599D01*
X5171D01*
X5181Y3589D01*
X5171Y3578D01*
X5181D01*
X5191Y3568D01*
X5396Y3693D02*
X5406Y3714D01*
X5396Y3734D01*
X5416Y3724D01*
X5437Y3734D01*
X5426Y3714D01*
X5437Y3693D01*
X5416Y3703D01*
X5396Y3693D01*
X6616Y3093D02*
X6626Y3103D01*
X6637D01*
X6626Y3114D01*
X6637Y3124D01*
X6626D01*
X6616Y3134D01*
X6606Y3124D01*
X6596D01*
X6606Y3114D01*
X6596Y3103D01*
X6606D01*
X6616Y3093D01*
X5366Y3793D02*
X5376Y3803D01*
X5387D01*
X5376Y3814D01*
X5387Y3824D01*
X5376D01*
X5366Y3834D01*
X5356Y3824D01*
X5346D01*
X5356Y3814D01*
X5346Y3803D01*
X5356D01*
X5366Y3793D01*
X6236Y3510D02*
X6246Y3520D01*
X6256D01*
X6246Y3531D01*
X6256Y3541D01*
X6246D01*
X6236Y3551D01*
X6226Y3541D01*
X6215D01*
X6226Y3531D01*
X6215Y3520D01*
X6226D01*
X6236Y3510D01*
X6091Y3218D02*
X6101Y3228D01*
X6112D01*
X6101Y3239D01*
X6112Y3249D01*
X6101D01*
X6091Y3259D01*
X6081Y3249D01*
X6071D01*
X6081Y3239D01*
X6071Y3228D01*
X6081D01*
X6091Y3218D01*
X6866Y2868D02*
X6876Y2878D01*
X6887D01*
X6876Y2889D01*
X6887Y2899D01*
X6876D01*
X6866Y2909D01*
X6856Y2899D01*
X6846D01*
X6856Y2889D01*
X6846Y2878D01*
X6856D01*
X6866Y2868D01*
X6750Y3068D02*
X6761Y3078D01*
X6771D01*
X6761Y3089D01*
X6771Y3099D01*
X6761D01*
X6750Y3109D01*
X6740Y3099D01*
X6730D01*
X6740Y3089D01*
X6730Y3078D01*
X6740D01*
X6750Y3068D01*
X6464Y4742D02*
X6474Y4752D01*
X6485D01*
X6474Y4762D01*
X6485Y4773D01*
X6474D01*
X6464Y4783D01*
X6454Y4773D01*
X6444D01*
X6454Y4762D01*
X6444Y4752D01*
X6454D01*
X6464Y4742D01*
X6991Y2918D02*
X7001Y2928D01*
X7012D01*
X7001Y2939D01*
X7012Y2949D01*
X7001D01*
X6991Y2959D01*
X6981Y2949D01*
X6971D01*
X6981Y2939D01*
X6971Y2928D01*
X6981D01*
X6991Y2918D01*
X6642Y5060D02*
X6652Y5070D01*
X6662D01*
X6652Y5080D01*
X6662Y5090D01*
X6652D01*
X6642Y5100D01*
X6632Y5090D01*
X6622D01*
X6632Y5080D01*
X6622Y5070D01*
X6632D01*
X6642Y5060D01*
X6616Y5293D02*
X6626Y5303D01*
X6637D01*
X6626Y5314D01*
X6637Y5324D01*
X6626D01*
X6616Y5334D01*
X6606Y5324D01*
X6596D01*
X6606Y5314D01*
X6596Y5303D01*
X6606D01*
X6616Y5293D01*
X7741Y3793D02*
X7751Y3803D01*
X7762D01*
X7751Y3814D01*
X7762Y3824D01*
X7751D01*
X7741Y3834D01*
X7731Y3824D01*
X7721D01*
X7731Y3814D01*
X7721Y3803D01*
X7731D01*
X7741Y3793D01*
X6066Y3868D02*
X6076Y3878D01*
X6087D01*
X6076Y3889D01*
X6087Y3899D01*
X6076D01*
X6066Y3909D01*
X6056Y3899D01*
X6046D01*
X6056Y3889D01*
X6046Y3878D01*
X6056D01*
X6066Y3868D01*
X6141Y3915D02*
X6151Y3925D01*
X6162D01*
X6151Y3935D01*
X6162Y3946D01*
X6151D01*
X6141Y3956D01*
X6131Y3946D01*
X6121D01*
X6131Y3935D01*
X6121Y3925D01*
X6131D01*
X6141Y3915D01*
X5991Y3843D02*
X6001Y3853D01*
X6012D01*
X6001Y3864D01*
X6012Y3874D01*
X6001D01*
X5991Y3884D01*
X5981Y3874D01*
X5971D01*
X5981Y3864D01*
X5971Y3853D01*
X5981D01*
X5991Y3843D01*
X7316D02*
X7326Y3853D01*
X7337D01*
X7326Y3864D01*
X7337Y3874D01*
X7326D01*
X7316Y3884D01*
X7306Y3874D01*
X7296D01*
X7306Y3864D01*
X7296Y3853D01*
X7306D01*
X7316Y3843D01*
X7120Y3390D02*
X7130Y3400D01*
X7140D01*
X7130Y3410D01*
X7140Y3420D01*
X7130D01*
X7120Y3430D01*
X7110Y3420D01*
X7100D01*
X7110Y3410D01*
X7100Y3400D01*
X7110D01*
X7120Y3390D01*
X5841Y5693D02*
X5851Y5703D01*
X5862D01*
X5851Y5714D01*
X5862Y5724D01*
X5851D01*
X5841Y5734D01*
X5831Y5724D01*
X5821D01*
X5831Y5714D01*
X5821Y5703D01*
X5831D01*
X5841Y5693D01*
X5521Y3918D02*
X5531Y3939D01*
X5521Y3959D01*
X5541Y3949D01*
X5562Y3959D01*
X5551Y3939D01*
X5562Y3918D01*
X5541Y3928D01*
X5521Y3918D01*
X5771Y3418D02*
X5781Y3439D01*
X5771Y3459D01*
X5791Y3449D01*
X5812Y3459D01*
X5801Y3439D01*
X5812Y3418D01*
X5791Y3428D01*
X5771Y3418D01*
X5071Y5868D02*
X5081Y5889D01*
X5071Y5909D01*
X5091Y5899D01*
X5112Y5909D01*
X5101Y5889D01*
X5112Y5868D01*
X5091Y5878D01*
X5071Y5868D01*
X4796Y5393D02*
X4806Y5414D01*
X4796Y5434D01*
X4816Y5424D01*
X4837Y5434D01*
X4826Y5414D01*
X4837Y5393D01*
X4816Y5403D01*
X4796Y5393D01*
X4972Y3693D02*
X4982Y3703D01*
X4993D01*
X4982Y3714D01*
X4993Y3724D01*
X4982D01*
X4972Y3734D01*
X4962Y3724D01*
X4952D01*
X4962Y3714D01*
X4952Y3703D01*
X4962D01*
X4972Y3693D01*
X4910D02*
X4920Y3703D01*
X4930D01*
X4920Y3714D01*
X4930Y3724D01*
X4920D01*
X4910Y3734D01*
X4899Y3724D01*
X4889D01*
X4899Y3714D01*
X4889Y3703D01*
X4899D01*
X4910Y3693D01*
X5566Y4143D02*
X5576Y4153D01*
X5587D01*
X5576Y4164D01*
X5587Y4174D01*
X5576D01*
X5566Y4184D01*
X5556Y4174D01*
X5546D01*
X5556Y4164D01*
X5546Y4153D01*
X5556D01*
X5566Y4143D01*
X6116Y4768D02*
X6126Y4778D01*
X6137D01*
X6126Y4789D01*
X6137Y4799D01*
X6126D01*
X6116Y4809D01*
X6106Y4799D01*
X6096D01*
X6106Y4789D01*
X6096Y4778D01*
X6106D01*
X6116Y4768D01*
X4591Y4668D02*
X4601Y4678D01*
X4612D01*
X4601Y4689D01*
X4612Y4699D01*
X4601D01*
X4591Y4709D01*
X4581Y4699D01*
X4571D01*
X4581Y4689D01*
X4571Y4678D01*
X4581D01*
X4591Y4668D01*
X5241Y4175D02*
X5251Y4185D01*
X5262D01*
X5251Y4195D01*
X5262Y4205D01*
X5251D01*
X5241Y4215D01*
X5231Y4205D01*
X5221D01*
X5231Y4195D01*
X5221Y4185D01*
X5231D01*
X5241Y4175D01*
X5291Y4112D02*
X5301Y4122D01*
X5312D01*
X5301Y4132D01*
X5312Y4142D01*
X5301D01*
X5291Y4153D01*
X5281Y4142D01*
X5271D01*
X5281Y4132D01*
X5271Y4122D01*
X5281D01*
X5291Y4112D01*
X6291Y4318D02*
X6301Y4328D01*
X6312D01*
X6301Y4339D01*
X6312Y4349D01*
X6301D01*
X6291Y4359D01*
X6281Y4349D01*
X6271D01*
X6281Y4339D01*
X6271Y4328D01*
X6281D01*
X6291Y4318D01*
X6241Y4543D02*
X6251Y4553D01*
X6262D01*
X6251Y4564D01*
X6262Y4574D01*
X6251D01*
X6241Y4584D01*
X6231Y4574D01*
X6221D01*
X6231Y4564D01*
X6221Y4553D01*
X6231D01*
X6241Y4543D01*
X6172Y4501D02*
X6182Y4511D01*
X6193D01*
X6182Y4521D01*
X6193Y4531D01*
X6182D01*
X6172Y4542D01*
X6162Y4531D01*
X6152D01*
X6162Y4521D01*
X6152Y4511D01*
X6162D01*
X6172Y4501D01*
X6641Y4668D02*
X6651Y4678D01*
X6662D01*
X6651Y4689D01*
X6662Y4699D01*
X6651D01*
X6641Y4709D01*
X6631Y4699D01*
X6621D01*
X6631Y4689D01*
X6621Y4678D01*
X6631D01*
X6641Y4668D01*
X5316Y4018D02*
X5326Y4028D01*
X5337D01*
X5326Y4039D01*
X5337Y4049D01*
X5326D01*
X5316Y4059D01*
X5306Y4049D01*
X5296D01*
X5306Y4039D01*
X5296Y4028D01*
X5306D01*
X5316Y4018D01*
Y4243D02*
X5326Y4253D01*
X5337D01*
X5326Y4264D01*
X5337Y4274D01*
X5326D01*
X5316Y4284D01*
X5306Y4274D01*
X5296D01*
X5306Y4264D01*
X5296Y4253D01*
X5306D01*
X5316Y4243D01*
X7766Y3168D02*
X7776Y3178D01*
X7787D01*
X7776Y3189D01*
X7787Y3199D01*
X7776D01*
X7766Y3209D01*
X7756Y3199D01*
X7746D01*
X7756Y3189D01*
X7746Y3178D01*
X7756D01*
X7766Y3168D01*
X7191Y3018D02*
X7201Y3028D01*
X7212D01*
X7201Y3039D01*
X7212Y3049D01*
X7201D01*
X7191Y3059D01*
X7181Y3049D01*
X7171D01*
X7181Y3039D01*
X7171Y3028D01*
X7181D01*
X7191Y3018D01*
X7591Y3443D02*
X7601Y3453D01*
X7612D01*
X7601Y3464D01*
X7612Y3474D01*
X7601D01*
X7591Y3484D01*
X7581Y3474D01*
X7571D01*
X7581Y3464D01*
X7571Y3453D01*
X7581D01*
X7591Y3443D01*
X6541Y5368D02*
X6551Y5378D01*
X6562D01*
X6551Y5389D01*
X6562Y5399D01*
X6551D01*
X6541Y5409D01*
X6531Y5399D01*
X6521D01*
X6531Y5389D01*
X6521Y5378D01*
X6531D01*
X6541Y5368D01*
X6579Y5060D02*
X6589Y5070D01*
X6599D01*
X6589Y5080D01*
X6599Y5090D01*
X6589D01*
X6579Y5100D01*
X6568Y5090D01*
X6558D01*
X6568Y5080D01*
X6558Y5070D01*
X6568D01*
X6579Y5060D01*
X7571Y4893D02*
X7581Y4914D01*
X7571Y4934D01*
X7591Y4924D01*
X7612Y4934D01*
X7601Y4914D01*
X7612Y4893D01*
X7591Y4903D01*
X7571Y4893D01*
X6696Y5493D02*
X6706Y5514D01*
X6696Y5534D01*
X6716Y5524D01*
X6737Y5534D01*
X6726Y5514D01*
X6737Y5493D01*
X6716Y5503D01*
X6696Y5493D01*
X6366Y4543D02*
X6376Y4553D01*
X6387D01*
X6376Y4564D01*
X6387Y4574D01*
X6376D01*
X6366Y4584D01*
X6356Y4574D01*
X6346D01*
X6356Y4564D01*
X6346Y4553D01*
X6356D01*
X6366Y4543D01*
X7041Y5993D02*
X7051Y6003D01*
X7062D01*
X7051Y6014D01*
X7062Y6024D01*
X7051D01*
X7041Y6034D01*
X7031Y6024D01*
X7021D01*
X7031Y6014D01*
X7021Y6003D01*
X7031D01*
X7041Y5993D01*
X6864Y5791D02*
X6874Y5801D01*
X6884D01*
X6874Y5811D01*
X6884Y5821D01*
X6874D01*
X6864Y5831D01*
X6853Y5821D01*
X6843D01*
X6853Y5811D01*
X6843Y5801D01*
X6853D01*
X6864Y5791D01*
X6794Y6015D02*
X6805Y6025D01*
X6815D01*
X6805Y6035D01*
X6815Y6046D01*
X6805D01*
X6794Y6056D01*
X6784Y6046D01*
X6774D01*
X6784Y6035D01*
X6774Y6025D01*
X6784D01*
X6794Y6015D01*
X6670Y5965D02*
X6680Y5975D01*
X6690D01*
X6680Y5985D01*
X6690Y5995D01*
X6680D01*
X6670Y6005D01*
X6660Y5995D01*
X6650D01*
X6660Y5985D01*
X6650Y5975D01*
X6660D01*
X6670Y5965D01*
X5941Y4593D02*
X5951Y4603D01*
X5962D01*
X5951Y4614D01*
X5962Y4624D01*
X5951D01*
X5941Y4634D01*
X5931Y4624D01*
X5921D01*
X5931Y4614D01*
X5921Y4603D01*
X5931D01*
X5941Y4593D01*
X5969Y4501D02*
X5979Y4511D01*
X5989D01*
X5979Y4521D01*
X5989Y4531D01*
X5979D01*
X5969Y4542D01*
X5959Y4531D01*
X5949D01*
X5959Y4521D01*
X5949Y4511D01*
X5959D01*
X5969Y4501D01*
X5846Y3673D02*
X5856Y3683D01*
X5866D01*
X5856Y3693D01*
X5866Y3704D01*
X5856D01*
X5846Y3714D01*
X5836Y3704D01*
X5826D01*
X5836Y3693D01*
X5826Y3683D01*
X5836D01*
X5846Y3673D01*
X5888Y4847D02*
X5898Y4857D01*
X5908D01*
X5898Y4867D01*
X5908Y4877D01*
X5898D01*
X5888Y4888D01*
X5878Y4877D01*
X5867D01*
X5878Y4867D01*
X5867Y4857D01*
X5878D01*
X5888Y4847D01*
X5791Y3942D02*
X5801Y3952D01*
X5812D01*
X5801Y3962D01*
X5812Y3973D01*
X5801D01*
X5791Y3983D01*
X5781Y3973D01*
X5771D01*
X5781Y3962D01*
X5771Y3952D01*
X5781D01*
X5791Y3942D01*
Y4856D02*
X5801Y4867D01*
X5812D01*
X5801Y4877D01*
X5812Y4887D01*
X5801D01*
X5791Y4897D01*
X5781Y4887D01*
X5771D01*
X5781Y4877D01*
X5771Y4867D01*
X5781D01*
X5791Y4856D01*
X5741Y4068D02*
X5751Y4078D01*
X5762D01*
X5751Y4089D01*
X5762Y4099D01*
X5751D01*
X5741Y4109D01*
X5731Y4099D01*
X5721D01*
X5731Y4089D01*
X5721Y4078D01*
X5731D01*
X5741Y4068D01*
Y4793D02*
X5751Y4803D01*
X5762D01*
X5751Y4814D01*
X5762Y4824D01*
X5751D01*
X5741Y4834D01*
X5731Y4824D01*
X5721D01*
X5731Y4814D01*
X5721Y4803D01*
X5731D01*
X5741Y4793D01*
X5691Y3968D02*
X5701Y3978D01*
X5712D01*
X5701Y3989D01*
X5712Y3999D01*
X5701D01*
X5691Y4009D01*
X5681Y3999D01*
X5671D01*
X5681Y3989D01*
X5671Y3978D01*
X5681D01*
X5691Y3968D01*
Y4843D02*
X5701Y4853D01*
X5712D01*
X5701Y4864D01*
X5712Y4874D01*
X5701D01*
X5691Y4884D01*
X5681Y4874D01*
X5671D01*
X5681Y4864D01*
X5671Y4853D01*
X5681D01*
X5691Y4843D01*
X6147Y4285D02*
X6157Y4295D01*
X6167D01*
X6157Y4305D01*
X6167Y4315D01*
X6157D01*
X6147Y4326D01*
X6137Y4315D01*
X6126D01*
X6137Y4305D01*
X6126Y4295D01*
X6137D01*
X6147Y4285D01*
X6086Y4324D02*
X6096Y4334D01*
X6106D01*
X6096Y4344D01*
X6106Y4354D01*
X6096D01*
X6086Y4364D01*
X6076Y4354D01*
X6066D01*
X6076Y4344D01*
X6066Y4334D01*
X6076D01*
X6086Y4324D01*
X5891Y4093D02*
X5901Y4103D01*
X5912D01*
X5901Y4114D01*
X5912Y4124D01*
X5901D01*
X5891Y4134D01*
X5881Y4124D01*
X5871D01*
X5881Y4114D01*
X5871Y4103D01*
X5881D01*
X5891Y4093D01*
Y4318D02*
X5901Y4328D01*
X5912D01*
X5901Y4339D01*
X5912Y4349D01*
X5901D01*
X5891Y4359D01*
X5881Y4349D01*
X5871D01*
X5881Y4339D01*
X5871Y4328D01*
X5881D01*
X5891Y4318D01*
X5641Y3793D02*
X5651Y3803D01*
X5662D01*
X5651Y3814D01*
X5662Y3824D01*
X5651D01*
X5641Y3834D01*
X5631Y3824D01*
X5621D01*
X5631Y3814D01*
X5621Y3803D01*
X5631D01*
X5641Y3793D01*
Y4318D02*
X5651Y4328D01*
X5662D01*
X5651Y4339D01*
X5662Y4349D01*
X5651D01*
X5641Y4359D01*
X5631Y4349D01*
X5621D01*
X5631Y4339D01*
X5621Y4328D01*
X5631D01*
X5641Y4318D01*
X7741Y3668D02*
X7751Y3678D01*
X7762D01*
X7751Y3689D01*
X7762Y3699D01*
X7751D01*
X7741Y3709D01*
X7731Y3699D01*
X7721D01*
X7731Y3689D01*
X7721Y3678D01*
X7731D01*
X7741Y3668D01*
X7741Y3918D02*
X7751Y3928D01*
X7761D01*
X7751Y3938D01*
X7761Y3948D01*
X7751D01*
X7741Y3958D01*
X7730Y3948D01*
X7720D01*
X7730Y3938D01*
X7720Y3928D01*
X7730D01*
X7741Y3918D01*
X7741Y4044D02*
X7751Y4054D01*
X7762D01*
X7751Y4064D01*
X7762Y4075D01*
X7751D01*
X7741Y4085D01*
X7731Y4075D01*
X7721D01*
X7731Y4064D01*
X7721Y4054D01*
X7731D01*
X7741Y4044D01*
X7291Y4068D02*
X7301Y4078D01*
X7312D01*
X7301Y4089D01*
X7312Y4099D01*
X7301D01*
X7291Y4109D01*
X7281Y4099D01*
X7271D01*
X7281Y4089D01*
X7271Y4078D01*
X7281D01*
X7291Y4068D01*
X7741Y4168D02*
X7751Y4178D01*
X7761D01*
X7751Y4188D01*
X7761Y4199D01*
X7751D01*
X7741Y4209D01*
X7731Y4199D01*
X7721D01*
X7731Y4188D01*
X7721Y4178D01*
X7731D01*
X7741Y4168D01*
X7303Y4196D02*
X7313Y4206D01*
X7323D01*
X7313Y4216D01*
X7323Y4227D01*
X7313D01*
X7303Y4237D01*
X7292Y4227D01*
X7282D01*
X7292Y4216D01*
X7282Y4206D01*
X7292D01*
X7303Y4196D01*
X7300Y4264D02*
X7311Y4274D01*
X7321D01*
X7311Y4284D01*
X7321Y4294D01*
X7311D01*
X7300Y4304D01*
X7290Y4294D01*
X7280D01*
X7290Y4284D01*
X7280Y4274D01*
X7290D01*
X7300Y4264D01*
X7241Y4293D02*
X7251Y4303D01*
X7262D01*
X7251Y4314D01*
X7262Y4324D01*
X7251D01*
X7241Y4334D01*
X7231Y4324D01*
X7221D01*
X7231Y4314D01*
X7221Y4303D01*
X7231D01*
X7241Y4293D01*
X6761Y4171D02*
X6772Y4191D01*
X6761Y4211D01*
X6782Y4201D01*
X6802Y4211D01*
X6792Y4191D01*
X6802Y4171D01*
X6782Y4181D01*
X6761Y4171D01*
X6638Y4322D02*
X6648Y4332D01*
X6658D01*
X6648Y4342D01*
X6658Y4352D01*
X6648D01*
X6638Y4362D01*
X6628Y4352D01*
X6618D01*
X6628Y4342D01*
X6618Y4332D01*
X6628D01*
X6638Y4322D01*
X6691Y4243D02*
X6701Y4253D01*
X6712D01*
X6701Y4264D01*
X6712Y4274D01*
X6701D01*
X6691Y4284D01*
X6681Y4274D01*
X6671D01*
X6681Y4264D01*
X6671Y4253D01*
X6681D01*
X6691Y4243D01*
X6688Y4515D02*
X6698Y4525D01*
X6708D01*
X6698Y4535D01*
X6708Y4545D01*
X6698D01*
X6688Y4556D01*
X6678Y4545D01*
X6668D01*
X6678Y4535D01*
X6668Y4525D01*
X6678D01*
X6688Y4515D01*
X6071Y2723D02*
X6081Y2733D01*
X6091D01*
X6081Y2743D01*
X6091Y2753D01*
X6081D01*
X6071Y2764D01*
X6060Y2753D01*
X6050D01*
X6060Y2743D01*
X6050Y2733D01*
X6060D01*
X6071Y2723D01*
X6067Y3068D02*
X6077Y3078D01*
X6087D01*
X6077Y3088D01*
X6087Y3098D01*
X6077D01*
X6067Y3108D01*
X6057Y3098D01*
X6047D01*
X6057Y3088D01*
X6047Y3078D01*
X6057D01*
X6067Y3068D01*
X5944Y3066D02*
X5954Y3076D01*
X5964D01*
X5954Y3086D01*
X5964Y3096D01*
X5954D01*
X5944Y3106D01*
X5934Y3096D01*
X5924D01*
X5934Y3086D01*
X5924Y3076D01*
X5934D01*
X5944Y3066D01*
Y2746D02*
X5954Y2756D01*
X5964D01*
X5954Y2766D01*
X5964Y2777D01*
X5954D01*
X5944Y2787D01*
X5934Y2777D01*
X5924D01*
X5934Y2766D01*
X5924Y2756D01*
X5934D01*
X5944Y2746D01*
X5842Y3068D02*
X5852Y3078D01*
X5862D01*
X5852Y3088D01*
X5862Y3098D01*
X5852D01*
X5842Y3108D01*
X5832Y3098D01*
X5822D01*
X5832Y3088D01*
X5822Y3078D01*
X5832D01*
X5842Y3068D01*
Y2761D02*
X5852Y2771D01*
X5862D01*
X5852Y2781D01*
X5862Y2791D01*
X5852D01*
X5842Y2802D01*
X5832Y2791D01*
X5822D01*
X5832Y2781D01*
X5822Y2771D01*
X5832D01*
X5842Y2761D01*
X5691Y3068D02*
X5701Y3078D01*
X5712D01*
X5701Y3089D01*
X5712Y3099D01*
X5701D01*
X5691Y3109D01*
X5681Y3099D01*
X5671D01*
X5681Y3089D01*
X5671Y3078D01*
X5681D01*
X5691Y3068D01*
Y2793D02*
X5701Y2803D01*
X5712D01*
X5701Y2814D01*
X5712Y2824D01*
X5701D01*
X5691Y2834D01*
X5681Y2824D01*
X5671D01*
X5681Y2814D01*
X5671Y2803D01*
X5681D01*
X5691Y2793D01*
X6982Y4509D02*
X6992Y4519D01*
X7002D01*
X6992Y4530D01*
X7002Y4540D01*
X6992D01*
X6982Y4550D01*
X6972Y4540D01*
X6962D01*
X6972Y4530D01*
X6962Y4519D01*
X6972D01*
X6982Y4509D01*
X6921Y4552D02*
X6932Y4562D01*
X6942D01*
X6932Y4572D01*
X6942Y4582D01*
X6932D01*
X6921Y4592D01*
X6911Y4582D01*
X6901D01*
X6911Y4572D01*
X6901Y4562D01*
X6911D01*
X6921Y4552D01*
X6916Y4618D02*
X6926Y4628D01*
X6937D01*
X6926Y4639D01*
X6937Y4649D01*
X6926D01*
X6916Y4659D01*
X6906Y4649D01*
X6896D01*
X6906Y4639D01*
X6896Y4628D01*
X6906D01*
X6916Y4618D01*
X6934Y4691D02*
X6944Y4702D01*
X6955D01*
X6944Y4712D01*
X6955Y4722D01*
X6944D01*
X6934Y4732D01*
X6924Y4722D01*
X6914D01*
X6924Y4712D01*
X6914Y4702D01*
X6924D01*
X6934Y4691D01*
Y4780D02*
X6944Y4790D01*
X6955D01*
X6944Y4801D01*
X6955Y4811D01*
X6944D01*
X6934Y4821D01*
X6924Y4811D01*
X6914D01*
X6924Y4801D01*
X6914Y4790D01*
X6924D01*
X6934Y4780D01*
Y4844D02*
X6944Y4854D01*
X6955D01*
X6944Y4864D01*
X6955Y4874D01*
X6944D01*
X6934Y4884D01*
X6924Y4874D01*
X6914D01*
X6924Y4864D01*
X6914Y4854D01*
X6924D01*
X6934Y4844D01*
X7191Y4543D02*
X7201Y4553D01*
X7212D01*
X7201Y4564D01*
X7212Y4574D01*
X7201D01*
X7191Y4584D01*
X7181Y4574D01*
X7171D01*
X7181Y4564D01*
X7171Y4553D01*
X7181D01*
X7191Y4543D01*
Y4618D02*
X7201Y4628D01*
X7212D01*
X7201Y4639D01*
X7212Y4649D01*
X7201D01*
X7191Y4659D01*
X7181Y4649D01*
X7171D01*
X7181Y4639D01*
X7171Y4628D01*
X7181D01*
X7191Y4618D01*
Y4693D02*
X7201Y4703D01*
X7212D01*
X7201Y4714D01*
X7212Y4724D01*
X7201D01*
X7191Y4734D01*
X7181Y4724D01*
X7171D01*
X7181Y4714D01*
X7171Y4703D01*
X7181D01*
X7191Y4693D01*
Y4768D02*
X7201Y4778D01*
X7212D01*
X7201Y4789D01*
X7212Y4799D01*
X7201D01*
X7191Y4809D01*
X7181Y4799D01*
X7171D01*
X7181Y4789D01*
X7171Y4778D01*
X7181D01*
X7191Y4768D01*
Y4843D02*
X7201Y4853D01*
X7212D01*
X7201Y4864D01*
X7212Y4874D01*
X7201D01*
X7191Y4884D01*
X7181Y4874D01*
X7171D01*
X7181Y4864D01*
X7171Y4853D01*
X7181D01*
X7191Y4843D01*
X6404Y3419D02*
X6414Y3429D01*
X6424D01*
X6414Y3439D01*
X6424Y3450D01*
X6414D01*
X6404Y3460D01*
X6393Y3450D01*
X6383D01*
X6393Y3439D01*
X6383Y3429D01*
X6393D01*
X6404Y3419D01*
X6341Y3768D02*
X6351Y3778D01*
X6362D01*
X6351Y3789D01*
X6362Y3799D01*
X6351D01*
X6341Y3809D01*
X6331Y3799D01*
X6321D01*
X6331Y3789D01*
X6321Y3778D01*
X6331D01*
X6341Y3768D01*
X6616D02*
X6626Y3778D01*
X6637D01*
X6626Y3789D01*
X6637Y3799D01*
X6626D01*
X6616Y3809D01*
X6606Y3799D01*
X6596D01*
X6606Y3789D01*
X6596Y3778D01*
X6606D01*
X6616Y3768D01*
D80*
X7711Y5939D02*
G03*
X7711Y5939I-20J0D01*
G01*
X4712Y2939D02*
G03*
X4712Y2939I-20J0D01*
G01*
X7711D02*
G03*
X7711Y2939I-20J0D01*
G01*
X4712Y5939D02*
G03*
X4712Y5939I-20J0D01*
G01*
M02*
