G04 Layer_Color=128*
%FSLAX42Y42*%
%MOMM*%
G71*
G01*
G75*
%ADD79C,0.05*%
D79*
X7363Y5740D02*
X7394D01*
X7379Y5725D02*
Y5756D01*
X7601Y5939D02*
X7781D01*
X7691Y5848D02*
Y6029D01*
X7280Y4881D02*
X7346D01*
X7313Y4848D02*
Y4914D01*
X5077Y4881D02*
X5144D01*
X5110Y4848D02*
Y4914D01*
X5090Y3785D02*
X5121D01*
X5105Y3769D02*
Y3800D01*
X6170Y5867D02*
X6200D01*
X6185Y5852D02*
Y5883D01*
X7668Y4762D02*
X7699D01*
X7683Y4747D02*
Y4778D01*
X5241Y3492D02*
X5271D01*
X5256Y3477D02*
Y3508D01*
X4601Y2939D02*
X4782D01*
X4691Y2849D02*
Y3029D01*
X7601Y2939D02*
X7781D01*
X7691Y2849D02*
Y3029D01*
X4601Y5939D02*
X4782D01*
X4691Y5848D02*
Y6029D01*
X5181Y3589D02*
X5201D01*
X5191Y3579D02*
Y3599D01*
X5381Y3714D02*
X5452D01*
X5416Y3678D02*
Y3749D01*
X6606Y3114D02*
X6626D01*
X6616Y3104D02*
Y3124D01*
X5356Y3814D02*
X5376D01*
X5366Y3804D02*
Y3824D01*
X6226Y3531D02*
X6246D01*
X6236Y3521D02*
Y3541D01*
X6081Y3239D02*
X6101D01*
X6091Y3229D02*
Y3249D01*
X6856Y2889D02*
X6876D01*
X6866Y2879D02*
Y2899D01*
X6740Y3089D02*
X6760D01*
X6750Y3079D02*
Y3099D01*
X6454Y4762D02*
X6474D01*
X6464Y4753D02*
Y4772D01*
X6981Y2939D02*
X7001D01*
X6991Y2929D02*
Y2949D01*
X6632Y5080D02*
X6652D01*
X6642Y5070D02*
Y5090D01*
X6606Y5314D02*
X6626D01*
X6616Y5304D02*
Y5324D01*
X7731Y3814D02*
X7751D01*
X7741Y3804D02*
Y3824D01*
X6056Y3889D02*
X6076D01*
X6066Y3879D02*
Y3899D01*
X6131Y3935D02*
X6151D01*
X6141Y3925D02*
Y3945D01*
X5981Y3864D02*
X6001D01*
X5991Y3854D02*
Y3874D01*
X7306Y3864D02*
X7326D01*
X7316Y3854D02*
Y3874D01*
X7110Y3410D02*
X7130D01*
X7120Y3400D02*
Y3420D01*
X5831Y5714D02*
X5851D01*
X5841Y5704D02*
Y5724D01*
X5506Y3939D02*
X5577D01*
X5541Y3903D02*
Y3974D01*
X5756Y3439D02*
X5827D01*
X5791Y3403D02*
Y3474D01*
X5056Y5889D02*
X5127D01*
X5091Y5853D02*
Y5924D01*
X4781Y5414D02*
X4852D01*
X4816Y5378D02*
Y5449D01*
X4962Y3714D02*
X4982D01*
X4972Y3704D02*
Y3724D01*
X4899Y3714D02*
X4919D01*
X4910Y3704D02*
Y3724D01*
X5556Y4164D02*
X5576D01*
X5566Y4154D02*
Y4174D01*
X6106Y4789D02*
X6126D01*
X6116Y4779D02*
Y4799D01*
X4581Y4689D02*
X4601D01*
X4591Y4679D02*
Y4699D01*
X5231Y4195D02*
X5251D01*
X5241Y4185D02*
Y4205D01*
X5281Y4132D02*
X5301D01*
X5291Y4122D02*
Y4142D01*
X6281Y4339D02*
X6301D01*
X6291Y4329D02*
Y4349D01*
X6231Y4564D02*
X6251D01*
X6241Y4554D02*
Y4574D01*
X6162Y4521D02*
X6182D01*
X6172Y4511D02*
Y4531D01*
X6631Y4689D02*
X6651D01*
X6641Y4679D02*
Y4699D01*
X5306Y4039D02*
X5326D01*
X5316Y4029D02*
Y4049D01*
X5306Y4264D02*
X5326D01*
X5316Y4254D02*
Y4274D01*
X7756Y3189D02*
X7776D01*
X7766Y3179D02*
Y3199D01*
X7181Y3039D02*
X7201D01*
X7191Y3029D02*
Y3049D01*
X7581Y3464D02*
X7601D01*
X7591Y3454D02*
Y3474D01*
X6531Y5389D02*
X6551D01*
X6541Y5379D02*
Y5399D01*
X6569Y5080D02*
X6589D01*
X6579Y5070D02*
Y5090D01*
X7556Y4914D02*
X7627D01*
X7591Y4878D02*
Y4949D01*
X6681Y5514D02*
X6752D01*
X6716Y5478D02*
Y5549D01*
X6356Y4564D02*
X6376D01*
X6366Y4554D02*
Y4574D01*
X7031Y6014D02*
X7051D01*
X7041Y6004D02*
Y6024D01*
X6854Y5811D02*
X6874D01*
X6864Y5801D02*
Y5821D01*
X6785Y6035D02*
X6804D01*
X6794Y6025D02*
Y6045D01*
X6660Y5985D02*
X6680D01*
X6670Y5975D02*
Y5995D01*
X5931Y4614D02*
X5951D01*
X5941Y4604D02*
Y4624D01*
X5959Y4521D02*
X5979D01*
X5969Y4511D02*
Y4531D01*
X5836Y3693D02*
X5856D01*
X5846Y3683D02*
Y3703D01*
X5878Y4867D02*
X5898D01*
X5888Y4857D02*
Y4877D01*
X5781Y3962D02*
X5801D01*
X5791Y3952D02*
Y3972D01*
X5781Y4877D02*
X5801D01*
X5791Y4867D02*
Y4887D01*
X5731Y4089D02*
X5751D01*
X5741Y4079D02*
Y4099D01*
X5731Y4814D02*
X5751D01*
X5741Y4804D02*
Y4824D01*
X5681Y3989D02*
X5701D01*
X5691Y3979D02*
Y3999D01*
X5681Y4864D02*
X5701D01*
X5691Y4854D02*
Y4874D01*
X6137Y4305D02*
X6157D01*
X6147Y4295D02*
Y4315D01*
X6076Y4344D02*
X6096D01*
X6086Y4334D02*
Y4354D01*
X5881Y4114D02*
X5901D01*
X5891Y4104D02*
Y4124D01*
X5881Y4339D02*
X5901D01*
X5891Y4329D02*
Y4349D01*
X5631Y3814D02*
X5651D01*
X5641Y3804D02*
Y3824D01*
X5631Y4339D02*
X5651D01*
X5641Y4329D02*
Y4349D01*
X7731Y3689D02*
X7751D01*
X7741Y3679D02*
Y3699D01*
X7731Y3938D02*
X7751D01*
X7741Y3928D02*
Y3948D01*
X7731Y4064D02*
X7751D01*
X7741Y4054D02*
Y4074D01*
X7281Y4089D02*
X7301D01*
X7291Y4079D02*
Y4099D01*
X7731Y4188D02*
X7751D01*
X7741Y4178D02*
Y4198D01*
X7293Y4216D02*
X7312D01*
X7303Y4206D02*
Y4226D01*
X7290Y4284D02*
X7310D01*
X7300Y4274D02*
Y4294D01*
X7231Y4314D02*
X7251D01*
X7241Y4304D02*
Y4324D01*
X6746Y4191D02*
X6817D01*
X6782Y4155D02*
Y4227D01*
X6628Y4342D02*
X6648D01*
X6638Y4332D02*
Y4352D01*
X6681Y4264D02*
X6701D01*
X6691Y4254D02*
Y4274D01*
X6678Y4535D02*
X6698D01*
X6688Y4525D02*
Y4545D01*
X6061Y2743D02*
X6081D01*
X6071Y2733D02*
Y2753D01*
X6057Y3088D02*
X6077D01*
X6067Y3078D02*
Y3098D01*
X5934Y3086D02*
X5954D01*
X5944Y3076D02*
Y3096D01*
X5934Y2766D02*
X5954D01*
X5944Y2756D02*
Y2776D01*
X5832Y3088D02*
X5852D01*
X5842Y3078D02*
Y3098D01*
X5832Y2781D02*
X5852D01*
X5842Y2771D02*
Y2791D01*
X5681Y3089D02*
X5701D01*
X5691Y3079D02*
Y3099D01*
X5681Y2814D02*
X5701D01*
X5691Y2804D02*
Y2824D01*
X6972Y4530D02*
X6992D01*
X6982Y4520D02*
Y4540D01*
X6911Y4572D02*
X6932D01*
X6921Y4562D02*
Y4582D01*
X6906Y4639D02*
X6926D01*
X6916Y4629D02*
Y4649D01*
X6924Y4712D02*
X6944D01*
X6934Y4702D02*
Y4722D01*
X6924Y4801D02*
X6944D01*
X6934Y4791D02*
Y4811D01*
X6924Y4864D02*
X6944D01*
X6934Y4854D02*
Y4874D01*
X7181Y4564D02*
X7201D01*
X7191Y4554D02*
Y4574D01*
X7181Y4639D02*
X7201D01*
X7191Y4629D02*
Y4649D01*
X7181Y4714D02*
X7201D01*
X7191Y4704D02*
Y4724D01*
X7181Y4789D02*
X7201D01*
X7191Y4779D02*
Y4799D01*
X7181Y4864D02*
X7201D01*
X7191Y4854D02*
Y4874D01*
X6394Y3439D02*
X6414D01*
X6404Y3429D02*
Y3449D01*
X6331Y3789D02*
X6351D01*
X6341Y3779D02*
Y3799D01*
X6606Y3789D02*
X6626D01*
X6616Y3779D02*
Y3799D01*
M02*
