G04 Layer_Physical_Order=1*
G04 Layer_Color=255*
%FSLAX42Y42*%
%MOMM*%
G71*
G01*
G75*
G04:AMPARAMS|DCode=10|XSize=0.25mm|YSize=1.12mm|CornerRadius=0.13mm|HoleSize=0mm|Usage=FLASHONLY|Rotation=180.000|XOffset=0mm|YOffset=0mm|HoleType=Round|Shape=RoundedRectangle|*
%AMROUNDEDRECTD10*
21,1,0.25,0.86,0,0,180.0*
21,1,0.00,1.12,0,0,180.0*
1,1,0.25,0.00,0.43*
1,1,0.25,0.00,0.43*
1,1,0.25,0.00,-0.43*
1,1,0.25,0.00,-0.43*
%
%ADD10ROUNDEDRECTD10*%
%ADD11R,0.25X1.12*%
%ADD12R,1.42X2.11*%
%ADD13R,0.64X1.27*%
%ADD14C,0.25*%
%ADD15C,0.80*%
%ADD16C,0.15*%
%ADD17C,0.15*%
%ADD18R,0.41X0.41*%
%ADD19C,2.21*%
%ADD20C,0.66*%
%ADD21R,0.41X0.41*%
%ADD22C,0.50*%
%ADD23C,1.27*%
%ADD24C,0.45*%
G36*
X7578Y6340D02*
X7625Y6332D01*
X7690Y6313D01*
X7753Y6287D01*
X7813Y6254D01*
X7868Y6215D01*
X7919Y6169D01*
X7965Y6118D01*
X8004Y6063D01*
X8037Y6003D01*
X8063Y5940D01*
X8082Y5875D01*
X8091Y5824D01*
X8090Y3053D01*
X8082Y3005D01*
X8063Y2940D01*
X8037Y2877D01*
X8004Y2817D01*
X7965Y2762D01*
X7919Y2711D01*
X7868Y2665D01*
X7813Y2626D01*
X7753Y2593D01*
X7690Y2567D01*
X7625Y2548D01*
X7577Y2540D01*
X4803Y2540D01*
X4755Y2548D01*
X4690Y2567D01*
X4627Y2593D01*
X4567Y2626D01*
X4512Y2665D01*
X4461Y2711D01*
X4415Y2762D01*
X4376Y2817D01*
X4343Y2877D01*
X4317Y2940D01*
X4298Y3005D01*
X4290Y3053D01*
X4290Y5827D01*
X4298Y5875D01*
X4317Y5940D01*
X4343Y6003D01*
X4376Y6063D01*
X4415Y6118D01*
X4461Y6169D01*
X4512Y6215D01*
X4567Y6254D01*
X4627Y6287D01*
X4690Y6313D01*
X4755Y6332D01*
X4803Y6340D01*
X7578Y6340D01*
D02*
G37*
%LPC*%
G36*
X4999Y4679D02*
X4915D01*
Y4561D01*
X4999D01*
Y4679D01*
D02*
G37*
G36*
X5108D02*
X5024D01*
Y4561D01*
X5108D01*
Y4679D01*
D02*
G37*
G36*
X5151Y3830D02*
X5118D01*
Y3797D01*
X5151D01*
Y3830D01*
D02*
G37*
G36*
Y3772D02*
X5118D01*
Y3739D01*
X5151D01*
Y3772D01*
D02*
G37*
G36*
X5093Y3830D02*
X5060D01*
Y3797D01*
X5093D01*
Y3830D01*
D02*
G37*
G36*
X5108Y4822D02*
X5024D01*
Y4704D01*
X5108D01*
Y4822D01*
D02*
G37*
G36*
X7400D02*
X7316D01*
Y4704D01*
X7400D01*
Y4822D01*
D02*
G37*
G36*
X4999D02*
X4915D01*
Y4704D01*
X4999D01*
Y4822D01*
D02*
G37*
G36*
X7400Y4679D02*
X7316D01*
Y4561D01*
X7400D01*
Y4679D01*
D02*
G37*
G36*
X7509D02*
X7426D01*
Y4561D01*
X7509D01*
Y4679D01*
D02*
G37*
G36*
X4691Y3063D02*
X4659Y3059D01*
X4629Y3046D01*
X4604Y3027D01*
X4584Y3001D01*
X4571Y2971D01*
X4567Y2939D01*
X4571Y2907D01*
X4584Y2877D01*
X4604Y2851D01*
X4629Y2831D01*
X4659Y2819D01*
X4691Y2815D01*
X4724Y2819D01*
X4754Y2831D01*
X4779Y2851D01*
X4799Y2877D01*
X4811Y2907D01*
X4816Y2939D01*
X4811Y2971D01*
X4799Y3001D01*
X4779Y3027D01*
X4754Y3046D01*
X4724Y3059D01*
X4691Y3063D01*
D02*
G37*
G36*
X7691D02*
X7659Y3059D01*
X7629Y3046D01*
X7603Y3027D01*
X7584Y3001D01*
X7571Y2971D01*
X7567Y2939D01*
X7571Y2907D01*
X7584Y2877D01*
X7603Y2851D01*
X7629Y2831D01*
X7659Y2819D01*
X7691Y2815D01*
X7723Y2819D01*
X7753Y2831D01*
X7779Y2851D01*
X7799Y2877D01*
X7811Y2907D01*
X7815Y2939D01*
X7811Y2971D01*
X7799Y3001D01*
X7779Y3027D01*
X7753Y3046D01*
X7723Y3059D01*
X7691Y3063D01*
D02*
G37*
G36*
X5691Y3127D02*
X5677Y3124D01*
X5664Y3116D01*
X5656Y3103D01*
X5653Y3089D01*
X5656Y3074D01*
X5664Y3061D01*
X5671Y3057D01*
Y2845D01*
X5664Y2841D01*
X5656Y2828D01*
X5653Y2814D01*
X5656Y2799D01*
X5664Y2786D01*
X5677Y2778D01*
X5691Y2775D01*
X5706Y2778D01*
X5718Y2786D01*
X5727Y2799D01*
X5730Y2814D01*
X5727Y2828D01*
X5718Y2841D01*
X5712Y2845D01*
Y3057D01*
X5718Y3061D01*
X5727Y3074D01*
X5730Y3089D01*
X5727Y3103D01*
X5718Y3116D01*
X5706Y3124D01*
X5691Y3127D01*
D02*
G37*
G36*
X5944Y3124D02*
X5929Y3121D01*
X5917Y3113D01*
X5908Y3101D01*
X5906Y3086D01*
X5908Y3071D01*
X5917Y3059D01*
X5923Y3054D01*
Y2798D01*
X5917Y2794D01*
X5908Y2781D01*
X5906Y2766D01*
X5908Y2752D01*
X5917Y2739D01*
X5929Y2731D01*
X5944Y2728D01*
X5959Y2731D01*
X5971Y2739D01*
X5979Y2752D01*
X5982Y2766D01*
X5979Y2781D01*
X5971Y2794D01*
X5965Y2798D01*
Y3054D01*
X5971Y3059D01*
X5979Y3071D01*
X5982Y3086D01*
X5979Y3101D01*
X5971Y3113D01*
X5959Y3121D01*
X5944Y3124D01*
D02*
G37*
G36*
X5842Y3126D02*
X5827Y3123D01*
X5815Y3115D01*
X5806Y3103D01*
X5804Y3088D01*
X5806Y3073D01*
X5815Y3061D01*
X5821Y3056D01*
Y2813D01*
X5815Y2808D01*
X5806Y2796D01*
X5804Y2781D01*
X5806Y2767D01*
X5815Y2754D01*
X5827Y2746D01*
X5842Y2743D01*
X5857Y2746D01*
X5869Y2754D01*
X5878Y2767D01*
X5880Y2781D01*
X5878Y2796D01*
X5869Y2808D01*
X5863Y2813D01*
Y3056D01*
X5869Y3061D01*
X5878Y3073D01*
X5880Y3088D01*
X5878Y3103D01*
X5869Y3115D01*
X5857Y3123D01*
X5842Y3126D01*
D02*
G37*
G36*
X5302Y3538D02*
X5269D01*
Y3505D01*
X5302D01*
Y3538D01*
D02*
G37*
G36*
X5093Y3772D02*
X5060D01*
Y3739D01*
X5093D01*
Y3772D01*
D02*
G37*
G36*
X5243Y3538D02*
X5210D01*
Y3505D01*
X5243D01*
Y3538D01*
D02*
G37*
G36*
Y3480D02*
X5210D01*
Y3447D01*
X5243D01*
Y3480D01*
D02*
G37*
G36*
X5302D02*
X5269D01*
Y3447D01*
X5302D01*
Y3480D01*
D02*
G37*
G36*
X4691Y6063D02*
X4659Y6059D01*
X4629Y6046D01*
X4604Y6026D01*
X4584Y6001D01*
X4571Y5971D01*
X4567Y5939D01*
X4571Y5906D01*
X4584Y5876D01*
X4604Y5851D01*
X4629Y5831D01*
X4659Y5819D01*
X4691Y5814D01*
X4724Y5819D01*
X4754Y5831D01*
X4779Y5851D01*
X4799Y5876D01*
X4811Y5906D01*
X4816Y5939D01*
X4811Y5971D01*
X4799Y6001D01*
X4779Y6026D01*
X4754Y6046D01*
X4724Y6059D01*
X4691Y6063D01*
D02*
G37*
G36*
X7691D02*
X7659Y6059D01*
X7629Y6046D01*
X7603Y6026D01*
X7584Y6001D01*
X7571Y5971D01*
X7567Y5939D01*
X7571Y5906D01*
X7584Y5876D01*
X7603Y5851D01*
X7629Y5831D01*
X7659Y5819D01*
X7691Y5814D01*
X7723Y5819D01*
X7753Y5831D01*
X7779Y5851D01*
X7799Y5876D01*
X7811Y5906D01*
X7815Y5939D01*
X7811Y5971D01*
X7799Y6001D01*
X7779Y6026D01*
X7753Y6046D01*
X7723Y6059D01*
X7691Y6063D01*
D02*
G37*
G36*
X7424Y5786D02*
X7391D01*
Y5753D01*
X7424D01*
Y5786D01*
D02*
G37*
G36*
Y5728D02*
X7391D01*
Y5695D01*
X7424D01*
Y5728D01*
D02*
G37*
G36*
X7366Y5786D02*
X7333D01*
Y5753D01*
X7366D01*
Y5786D01*
D02*
G37*
G36*
X6231Y5913D02*
X6198D01*
Y5880D01*
X6231D01*
Y5913D01*
D02*
G37*
G36*
X6794Y6074D02*
X6780Y6071D01*
X6767Y6063D01*
X6765Y6059D01*
X6541D01*
X6541Y6059D01*
X6533Y6058D01*
X6527Y6053D01*
X6122Y5649D01*
X6118Y5642D01*
X6116Y5634D01*
Y5025D01*
X5258D01*
Y5401D01*
X5550Y5693D01*
X5810D01*
X5814Y5686D01*
X5827Y5678D01*
X5841Y5675D01*
X5856Y5678D01*
X5868Y5686D01*
X5877Y5699D01*
X5880Y5714D01*
X5877Y5728D01*
X5868Y5741D01*
X5856Y5749D01*
X5841Y5752D01*
X5827Y5749D01*
X5814Y5741D01*
X5810Y5734D01*
X5541D01*
X5533Y5733D01*
X5531Y5731D01*
X5527Y5728D01*
X5527Y5728D01*
X5223Y5425D01*
X5218Y5418D01*
X5217Y5410D01*
X5217Y5410D01*
Y5025D01*
X5212D01*
Y4888D01*
X5258D01*
Y4684D01*
X4901Y4327D01*
X4896Y4321D01*
X4895Y4313D01*
Y3749D01*
X4895Y3749D01*
X4882Y3741D01*
X4874Y3728D01*
X4871Y3714D01*
X4874Y3699D01*
X4882Y3686D01*
X4895Y3678D01*
X4910Y3675D01*
X4924Y3678D01*
X4932Y3683D01*
X4941Y3685D01*
X4950Y3683D01*
X4957Y3678D01*
X4972Y3675D01*
X4987Y3678D01*
X4999Y3686D01*
X5008Y3699D01*
X5011Y3714D01*
X5008Y3728D01*
X4999Y3741D01*
X4987Y3749D01*
X4987Y3749D01*
Y4283D01*
X5344Y4640D01*
X5348Y4647D01*
X5350Y4655D01*
Y4888D01*
X5648D01*
X5655Y4875D01*
X5653Y4864D01*
X5656Y4849D01*
X5664Y4836D01*
X5677Y4828D01*
X5691Y4825D01*
X5694Y4826D01*
X5703Y4817D01*
X5703Y4814D01*
X5706Y4799D01*
X5714Y4786D01*
X5727Y4778D01*
X5741Y4775D01*
X5756Y4778D01*
X5768Y4786D01*
X5777Y4799D01*
X5780Y4814D01*
X5777Y4828D01*
X5784Y4840D01*
X5791Y4838D01*
X5806Y4841D01*
X5818Y4850D01*
X5827Y4862D01*
X5830Y4877D01*
X5841Y4880D01*
X5850Y4868D01*
X5849Y4867D01*
X5852Y4852D01*
X5861Y4840D01*
X5873Y4832D01*
X5888Y4829D01*
X5902Y4832D01*
X5915Y4840D01*
X5923Y4852D01*
X5926Y4867D01*
X5925Y4875D01*
X5933Y4888D01*
X6367D01*
Y4839D01*
X6369Y4831D01*
X6373Y4824D01*
X6427Y4770D01*
X6426Y4762D01*
X6429Y4748D01*
X6437Y4735D01*
X6450Y4727D01*
X6464Y4724D01*
X6479Y4727D01*
X6491Y4735D01*
X6500Y4748D01*
X6503Y4762D01*
X6500Y4777D01*
X6491Y4790D01*
X6479Y4798D01*
X6464Y4801D01*
X6457Y4799D01*
X6408Y4847D01*
Y4868D01*
X6421Y4877D01*
X6426Y4876D01*
X6431Y4868D01*
X6481Y4819D01*
X6489Y4813D01*
X6499Y4811D01*
X6619D01*
X6802Y4628D01*
Y4602D01*
X6804Y4592D01*
X6809Y4584D01*
X6846Y4547D01*
X6847Y4541D01*
X6853Y4533D01*
X6880Y4506D01*
X6877Y4495D01*
X6875Y4493D01*
X6716D01*
X6712Y4506D01*
X6715Y4508D01*
X6723Y4521D01*
X6726Y4535D01*
X6723Y4550D01*
X6715Y4562D01*
X6703Y4571D01*
X6688Y4574D01*
X6673Y4571D01*
X6661Y4562D01*
X6652Y4550D01*
X6649Y4535D01*
X6652Y4521D01*
X6661Y4508D01*
X6664Y4506D01*
X6660Y4493D01*
X6358D01*
Y4514D01*
X6366Y4525D01*
X6381Y4528D01*
X6393Y4536D01*
X6402Y4549D01*
X6405Y4564D01*
X6402Y4578D01*
X6393Y4591D01*
X6381Y4599D01*
X6366Y4602D01*
X6352Y4599D01*
X6339Y4591D01*
X6331Y4578D01*
X6328Y4564D01*
X6329Y4556D01*
X6323Y4550D01*
X6319Y4543D01*
X6317Y4535D01*
Y4493D01*
X6262D01*
Y4532D01*
X6268Y4536D01*
X6277Y4549D01*
X6280Y4564D01*
X6277Y4578D01*
X6268Y4591D01*
X6256Y4599D01*
X6241Y4602D01*
X6227Y4599D01*
X6214Y4591D01*
X6206Y4578D01*
X6203Y4564D01*
X6203Y4561D01*
X6192Y4553D01*
X6187Y4557D01*
X6172Y4560D01*
X6157Y4557D01*
X6145Y4548D01*
X6137Y4536D01*
X6134Y4521D01*
X6137Y4506D01*
X6137Y4506D01*
X6130Y4493D01*
X6058D01*
Y4517D01*
X6057Y4525D01*
X6052Y4532D01*
X5978Y4606D01*
X5980Y4614D01*
X5977Y4628D01*
X5968Y4641D01*
X5956Y4649D01*
X5941Y4652D01*
X5927Y4649D01*
X5914Y4641D01*
X5906Y4628D01*
X5903Y4614D01*
X5906Y4599D01*
X5914Y4586D01*
X5927Y4578D01*
X5941Y4575D01*
X5947Y4576D01*
X5956Y4567D01*
X5952Y4555D01*
X5942Y4548D01*
X5933Y4536D01*
X5931Y4521D01*
X5933Y4506D01*
X5934Y4506D01*
X5927Y4493D01*
X5741D01*
X5736Y4505D01*
X5899Y4668D01*
X6610D01*
X6614Y4661D01*
X6627Y4653D01*
X6641Y4650D01*
X6656Y4653D01*
X6668Y4661D01*
X6677Y4674D01*
X6680Y4689D01*
X6677Y4703D01*
X6668Y4716D01*
X6656Y4724D01*
X6641Y4727D01*
X6627Y4724D01*
X6614Y4716D01*
X6610Y4709D01*
X5890D01*
X5882Y4708D01*
X5876Y4703D01*
X5672Y4500D01*
X5668Y4493D01*
X5668Y4493D01*
X5624D01*
Y4506D01*
X5598D01*
Y4425D01*
X5573D01*
Y4506D01*
X5550D01*
Y4425D01*
X5524D01*
Y4506D01*
X5499D01*
Y4493D01*
X5260D01*
X5260Y4493D01*
Y4493D01*
X5248Y4492D01*
X5247Y4492D01*
X5237Y4494D01*
X5228Y4492D01*
X5219Y4486D01*
X5214Y4478D01*
X5212Y4468D01*
Y4381D01*
X5214Y4372D01*
X5219Y4363D01*
X5216Y4350D01*
X5173Y4307D01*
X5167Y4298D01*
X5165Y4288D01*
Y3964D01*
X5167Y3954D01*
X5173Y3946D01*
X5230Y3889D01*
X5173Y3832D01*
X5167Y3824D01*
X5165Y3814D01*
Y3617D01*
X5164Y3616D01*
X5156Y3603D01*
X5153Y3589D01*
X5156Y3574D01*
X5164Y3561D01*
X5177Y3553D01*
X5191Y3550D01*
X5206Y3553D01*
X5218Y3561D01*
X5227Y3574D01*
X5230Y3589D01*
X5227Y3603D01*
X5218Y3616D01*
X5217Y3617D01*
Y3803D01*
X5285Y3870D01*
X5290Y3879D01*
X5292Y3889D01*
X5290Y3899D01*
X5285Y3907D01*
X5217Y3975D01*
Y4152D01*
X5229Y4159D01*
X5241Y4157D01*
X5248Y4158D01*
X5256Y4147D01*
X5253Y4132D01*
X5256Y4118D01*
X5264Y4105D01*
X5277Y4097D01*
X5291Y4094D01*
X5306Y4097D01*
X5318Y4105D01*
X5327Y4118D01*
X5330Y4132D01*
X5328Y4140D01*
X5356Y4168D01*
X5516D01*
X5528Y4164D01*
X5531Y4149D01*
X5539Y4136D01*
X5552Y4128D01*
X5566Y4125D01*
X5581Y4128D01*
X5593Y4136D01*
X5602Y4149D01*
X5605Y4164D01*
X5603Y4171D01*
X5621Y4190D01*
X5694D01*
X5702Y4191D01*
X5705Y4193D01*
X5828D01*
X5830Y4191D01*
X5838Y4190D01*
X5944D01*
X5952Y4191D01*
X5955Y4193D01*
X6088D01*
X6091Y4190D01*
X6097Y4186D01*
X6105Y4184D01*
X6382D01*
X6390Y4186D01*
X6397Y4190D01*
X6552Y4346D01*
X6555Y4349D01*
X6567Y4345D01*
Y4317D01*
X6569Y4309D01*
X6573Y4302D01*
X6627Y4249D01*
X6633Y4245D01*
X6641Y4243D01*
X6660D01*
X6664Y4236D01*
X6677Y4228D01*
X6691Y4225D01*
X6701Y4227D01*
X6710Y4217D01*
X6708Y4211D01*
X6705Y4191D01*
X6708Y4171D01*
X6715Y4153D01*
X6727Y4137D01*
X6729Y4136D01*
X6725Y4123D01*
X5941D01*
X5941Y4123D01*
X5928D01*
X5927Y4128D01*
X5918Y4141D01*
X5906Y4149D01*
X5891Y4152D01*
X5877Y4149D01*
X5864Y4141D01*
X5856Y4128D01*
X5853Y4114D01*
X5855Y4102D01*
X5848Y4089D01*
X5780D01*
X5777Y4103D01*
X5768Y4116D01*
X5756Y4124D01*
X5741Y4127D01*
X5727Y4124D01*
X5714Y4116D01*
X5706Y4103D01*
X5703Y4089D01*
X5706Y4074D01*
X5709Y4069D01*
X5702Y4057D01*
X5675D01*
X5667Y4055D01*
X5660Y4051D01*
X5619Y4009D01*
X5618D01*
X5590Y4037D01*
X5584Y4041D01*
X5576Y4043D01*
X5507D01*
X5499Y4041D01*
X5492Y4037D01*
X5464Y4009D01*
X5375D01*
X5353Y4031D01*
X5355Y4039D01*
X5352Y4053D01*
X5343Y4066D01*
X5331Y4074D01*
X5316Y4077D01*
X5302Y4074D01*
X5289Y4066D01*
X5281Y4053D01*
X5278Y4039D01*
X5281Y4024D01*
X5289Y4011D01*
X5302Y4003D01*
X5316Y4000D01*
X5324Y4002D01*
X5352Y3974D01*
X5358Y3970D01*
X5366Y3968D01*
X5459D01*
X5467Y3955D01*
X5464Y3939D01*
X5467Y3919D01*
X5475Y3900D01*
X5487Y3884D01*
X5503Y3872D01*
X5510Y3869D01*
Y3666D01*
X5514Y3646D01*
X5514Y3645D01*
X5504Y3637D01*
X5476Y3666D01*
X5483Y3675D01*
X5490Y3694D01*
X5493Y3714D01*
X5490Y3734D01*
X5483Y3752D01*
X5471Y3768D01*
X5455Y3780D01*
X5436Y3788D01*
X5416Y3791D01*
X5396Y3788D01*
X5378Y3780D01*
X5362Y3768D01*
X5350Y3752D01*
X5342Y3734D01*
X5339Y3714D01*
X5342Y3694D01*
X5350Y3675D01*
X5362Y3659D01*
X5363Y3659D01*
Y3649D01*
X5367Y3629D01*
X5378Y3611D01*
X5705Y3284D01*
X5723Y3273D01*
X5743Y3269D01*
X5850D01*
X5871Y3273D01*
X5888Y3284D01*
X6166Y3562D01*
X6196D01*
X6203Y3549D01*
X6200Y3545D01*
X6197Y3531D01*
X6200Y3516D01*
X6209Y3503D01*
X6221Y3495D01*
X6236Y3492D01*
X6243Y3494D01*
X6263Y3474D01*
X6270Y3470D01*
X6278Y3468D01*
X6362D01*
X6369Y3455D01*
X6368Y3454D01*
X6365Y3439D01*
X6368Y3425D01*
X6376Y3412D01*
X6378Y3411D01*
Y3262D01*
X6368Y3252D01*
X6356Y3257D01*
Y3264D01*
X6120D01*
X6118Y3266D01*
X6106Y3274D01*
X6091Y3277D01*
X6077Y3274D01*
X6064Y3266D01*
X6056Y3253D01*
X6053Y3239D01*
X6056Y3224D01*
X6064Y3211D01*
X6077Y3203D01*
X6090Y3201D01*
Y3132D01*
X6077Y3124D01*
X6067Y3126D01*
X6052Y3124D01*
X6040Y3115D01*
X6031Y3103D01*
X6028Y3088D01*
X6031Y3073D01*
X6040Y3061D01*
X6046Y3057D01*
Y2772D01*
X6043Y2770D01*
X6035Y2758D01*
X6032Y2743D01*
X6035Y2728D01*
X6043Y2716D01*
X6056Y2708D01*
X6071Y2705D01*
X6085Y2708D01*
X6098Y2716D01*
X6106Y2728D01*
X6109Y2743D01*
X6106Y2758D01*
X6098Y2770D01*
X6087Y2778D01*
Y3056D01*
X6094Y3061D01*
X6102Y3073D01*
X6105Y3088D01*
X6103Y3099D01*
X6111Y3111D01*
X6190D01*
Y3064D01*
X6192Y3054D01*
X6198Y3045D01*
X6473Y2770D01*
X6481Y2765D01*
X6491Y2763D01*
X6866D01*
X6876Y2765D01*
X6885Y2770D01*
X7010Y2895D01*
X7015Y2904D01*
X7016Y2910D01*
X7018Y2911D01*
X7027Y2924D01*
X7030Y2939D01*
X7027Y2953D01*
X7018Y2966D01*
X7006Y2974D01*
X6991Y2977D01*
X6977Y2974D01*
X6964Y2966D01*
X6956Y2953D01*
X6953Y2939D01*
X6956Y2924D01*
X6959Y2918D01*
X6915Y2874D01*
X6903Y2880D01*
X6905Y2889D01*
X6902Y2903D01*
X6893Y2916D01*
X6881Y2924D01*
X6867Y2927D01*
Y3124D01*
X6953D01*
Y3277D01*
X6929D01*
Y3371D01*
X6928Y3379D01*
X6923Y3386D01*
X6812Y3497D01*
X6817Y3510D01*
X7726D01*
X7747Y3514D01*
X7764Y3526D01*
X7846Y3608D01*
X7903Y3551D01*
X7921Y3539D01*
X7941Y3535D01*
X7962Y3539D01*
X7979Y3551D01*
X7991Y3568D01*
X7995Y3589D01*
Y4889D01*
X7991Y4909D01*
X7979Y4927D01*
X7954Y4952D01*
X7937Y4963D01*
X7916Y4967D01*
X7646D01*
X7646Y4968D01*
X7645Y4968D01*
Y5364D01*
X7641Y5384D01*
X7629Y5402D01*
X7479Y5552D01*
X7462Y5563D01*
X7441Y5567D01*
X6771D01*
X6771Y5568D01*
X6755Y5580D01*
X6736Y5588D01*
X6716Y5591D01*
X6696Y5588D01*
X6678Y5580D01*
X6662Y5568D01*
X6650Y5552D01*
X6642Y5534D01*
X6639Y5514D01*
X6642Y5494D01*
X6650Y5475D01*
X6662Y5459D01*
X6678Y5447D01*
X6696Y5439D01*
X6716Y5437D01*
X6736Y5439D01*
X6755Y5447D01*
X6771Y5459D01*
X6771Y5460D01*
X7419D01*
X7538Y5341D01*
Y4968D01*
X7537Y4968D01*
X7525Y4952D01*
X7517Y4934D01*
X7514Y4914D01*
X7517Y4894D01*
X7525Y4875D01*
X7537Y4859D01*
X7553Y4847D01*
X7571Y4839D01*
X7591Y4837D01*
X7611Y4839D01*
X7630Y4847D01*
X7646Y4859D01*
X7646Y4860D01*
X7888D01*
Y3726D01*
X7875Y3716D01*
X7866Y3717D01*
X7826D01*
X7806Y3713D01*
X7790Y3703D01*
X7784Y3703D01*
X7784Y3703D01*
X7775Y3706D01*
X7768Y3716D01*
X7756Y3724D01*
X7741Y3727D01*
X7727Y3724D01*
X7714Y3716D01*
X7706Y3703D01*
X7703Y3689D01*
X7704Y3681D01*
X7683Y3659D01*
X6331D01*
X6287Y3703D01*
X6281Y3708D01*
X6273Y3709D01*
X5881D01*
X5873Y3721D01*
X5861Y3729D01*
X5846Y3732D01*
X5831Y3729D01*
X5819Y3721D01*
X5811Y3708D01*
X5808Y3693D01*
X5811Y3679D01*
X5819Y3666D01*
X5831Y3658D01*
X5846Y3655D01*
X5861Y3658D01*
X5873Y3666D01*
X5874Y3668D01*
X6104D01*
X6108Y3655D01*
X6105Y3654D01*
X5880Y3428D01*
X5867Y3434D01*
X5868Y3439D01*
X5865Y3459D01*
X5858Y3477D01*
X5846Y3493D01*
X5830Y3505D01*
X5811Y3513D01*
X5791Y3516D01*
X5790Y3515D01*
X5617Y3689D01*
Y3770D01*
X5630Y3777D01*
X5641Y3775D01*
X5656Y3778D01*
X5668Y3786D01*
X5673Y3793D01*
X6166D01*
X6174Y3795D01*
X6181Y3799D01*
X6197Y3815D01*
X7185D01*
X7202Y3799D01*
X7208Y3795D01*
X7216Y3793D01*
X7710D01*
X7714Y3786D01*
X7727Y3778D01*
X7741Y3775D01*
X7756Y3778D01*
X7768Y3786D01*
X7777Y3799D01*
X7780Y3814D01*
X7777Y3828D01*
X7768Y3841D01*
X7756Y3849D01*
X7741Y3852D01*
X7727Y3849D01*
X7714Y3841D01*
X7710Y3834D01*
X7357D01*
X7350Y3847D01*
X7352Y3849D01*
X7355Y3864D01*
X7367Y3868D01*
X7691D01*
X7699Y3870D01*
X7706Y3874D01*
X7733Y3901D01*
X7741Y3900D01*
X7755Y3902D01*
X7768Y3911D01*
X7776Y3923D01*
X7779Y3938D01*
X7776Y3953D01*
X7768Y3965D01*
X7755Y3974D01*
X7741Y3976D01*
X7726Y3974D01*
X7713Y3965D01*
X7705Y3953D01*
X7702Y3938D01*
X7704Y3930D01*
X7683Y3909D01*
X7364D01*
X7350Y3923D01*
X7343Y3928D01*
X7335Y3929D01*
X7298D01*
X7290Y3928D01*
X7283Y3923D01*
X7283Y3923D01*
X7271Y3912D01*
X6190D01*
X6183Y3924D01*
X6187Y3932D01*
X7205D01*
X7213Y3934D01*
X7220Y3938D01*
X7305Y4023D01*
X7720D01*
X7728Y4024D01*
X7733Y4028D01*
X7741Y4026D01*
X7756Y4029D01*
X7768Y4037D01*
X7777Y4050D01*
X7780Y4064D01*
X7777Y4079D01*
X7768Y4092D01*
X7756Y4100D01*
X7741Y4103D01*
X7727Y4100D01*
X7714Y4092D01*
X7706Y4079D01*
X7703Y4064D01*
X7703Y4064D01*
X7334D01*
X7327Y4077D01*
X7330Y4089D01*
X7327Y4103D01*
X7318Y4116D01*
X7306Y4124D01*
X7298Y4126D01*
X7294Y4140D01*
X7305Y4151D01*
X7724D01*
X7731Y4152D01*
X7741Y4150D01*
X7756Y4153D01*
X7768Y4161D01*
X7777Y4174D01*
X7779Y4188D01*
X7777Y4203D01*
X7768Y4216D01*
X7756Y4224D01*
X7741Y4227D01*
X7726Y4224D01*
X7714Y4216D01*
X7706Y4203D01*
X7703Y4192D01*
X7346D01*
X7339Y4204D01*
X7341Y4216D01*
X7338Y4231D01*
X7330Y4244D01*
X7328Y4245D01*
Y4245D01*
X7329Y4259D01*
X7336Y4269D01*
X7339Y4284D01*
X7336Y4299D01*
X7328Y4311D01*
X7315Y4320D01*
X7300Y4323D01*
X7286Y4320D01*
X7283Y4321D01*
X7276Y4329D01*
X7268Y4341D01*
X7256Y4349D01*
X7241Y4352D01*
X7227Y4349D01*
X7214Y4341D01*
X7206Y4328D01*
X7203Y4314D01*
X7204Y4306D01*
X7021Y4123D01*
X6839D01*
X6835Y4136D01*
X6836Y4137D01*
X6848Y4153D01*
X6856Y4171D01*
X6859Y4191D01*
X6856Y4211D01*
X6848Y4229D01*
X6836Y4245D01*
X6826Y4253D01*
Y4356D01*
X7213D01*
Y4493D01*
X7017D01*
X7016Y4494D01*
X7012Y4506D01*
X7018Y4515D01*
X7021Y4530D01*
X7018Y4544D01*
X7009Y4557D01*
X6997Y4565D01*
X6982Y4568D01*
X6972Y4566D01*
X6963Y4570D01*
X6959Y4575D01*
X6957Y4587D01*
X6949Y4599D01*
X6947Y4600D01*
X6946Y4616D01*
X6952Y4624D01*
X6955Y4639D01*
X6952Y4653D01*
X6946Y4663D01*
X6949Y4675D01*
X6950Y4677D01*
X6961Y4685D01*
X6970Y4697D01*
X6973Y4712D01*
X6970Y4726D01*
X6961Y4739D01*
X6949Y4747D01*
X6945Y4748D01*
X6943Y4751D01*
X6949Y4765D01*
X6950Y4766D01*
X6964Y4761D01*
X6970Y4752D01*
X7154Y4568D01*
X7153Y4564D01*
X7156Y4549D01*
X7164Y4536D01*
X7177Y4528D01*
X7191Y4525D01*
X7206Y4528D01*
X7218Y4536D01*
X7227Y4549D01*
X7230Y4564D01*
X7227Y4578D01*
X7218Y4591D01*
X7214Y4594D01*
Y4609D01*
X7218Y4611D01*
X7227Y4624D01*
X7230Y4639D01*
X7227Y4653D01*
X7218Y4666D01*
X7214Y4669D01*
Y4684D01*
X7218Y4686D01*
X7227Y4699D01*
X7230Y4714D01*
X7227Y4728D01*
X7218Y4741D01*
X7214Y4744D01*
Y4759D01*
X7218Y4761D01*
X7227Y4774D01*
X7230Y4789D01*
X7227Y4803D01*
X7218Y4816D01*
X7214Y4819D01*
Y4834D01*
X7218Y4836D01*
X7227Y4849D01*
X7230Y4864D01*
X7227Y4878D01*
X7218Y4891D01*
X7214Y4894D01*
Y4956D01*
X7213Y4959D01*
Y5025D01*
X6308D01*
Y5577D01*
X6522Y5790D01*
X6832D01*
X6836Y5784D01*
X6849Y5775D01*
X6864Y5773D01*
X6878Y5775D01*
X6891Y5784D01*
X6899Y5796D01*
X6902Y5811D01*
X6899Y5826D01*
X6891Y5838D01*
X6878Y5846D01*
X6864Y5849D01*
X6849Y5846D01*
X6841Y5841D01*
X6833Y5851D01*
X6975Y5993D01*
X7010D01*
X7014Y5986D01*
X7027Y5978D01*
X7041Y5975D01*
X7056Y5978D01*
X7068Y5986D01*
X7077Y5999D01*
X7080Y6014D01*
X7077Y6028D01*
X7068Y6041D01*
X7056Y6049D01*
X7041Y6052D01*
X7027Y6049D01*
X7014Y6041D01*
X7010Y6034D01*
X6966D01*
X6958Y6033D01*
X6952Y6028D01*
X6783Y5859D01*
X6491D01*
X6491Y5859D01*
X6483Y5858D01*
X6477Y5853D01*
X6223Y5600D01*
X6221Y5596D01*
X6208Y5599D01*
Y5626D01*
X6572Y5990D01*
X6627D01*
X6632Y5985D01*
X6635Y5970D01*
X6643Y5958D01*
X6655Y5949D01*
X6670Y5946D01*
X6685Y5949D01*
X6697Y5958D01*
X6706Y5970D01*
X6708Y5985D01*
X6706Y6000D01*
X6702Y6005D01*
X6708Y6018D01*
X6761D01*
X6767Y6008D01*
X6780Y6000D01*
X6794Y5997D01*
X6809Y6000D01*
X6822Y6008D01*
X6830Y6021D01*
X6833Y6035D01*
X6830Y6050D01*
X6822Y6063D01*
X6809Y6071D01*
X6794Y6074D01*
D02*
G37*
G36*
X6172Y5913D02*
X6139D01*
Y5880D01*
X6172D01*
Y5913D01*
D02*
G37*
G36*
Y5855D02*
X6139D01*
Y5822D01*
X6172D01*
Y5855D01*
D02*
G37*
G36*
X6231D02*
X6198D01*
Y5822D01*
X6231D01*
Y5855D01*
D02*
G37*
G36*
X7366Y5728D02*
X7333D01*
Y5695D01*
X7366D01*
Y5728D01*
D02*
G37*
G36*
X7671Y4808D02*
X7638D01*
Y4775D01*
X7671D01*
Y4808D01*
D02*
G37*
G36*
X7729D02*
X7696D01*
Y4775D01*
X7729D01*
Y4808D01*
D02*
G37*
G36*
Y4750D02*
X7696D01*
Y4717D01*
X7729D01*
Y4750D01*
D02*
G37*
G36*
X7509Y4822D02*
X7426D01*
Y4704D01*
X7509D01*
Y4822D01*
D02*
G37*
G36*
X7671Y4750D02*
X7638D01*
Y4717D01*
X7671D01*
Y4750D01*
D02*
G37*
G36*
X5110Y4928D02*
X5093Y4924D01*
X5078Y4914D01*
X5067Y4899D01*
X5064Y4881D01*
X5067Y4864D01*
X5078Y4848D01*
X5093Y4838D01*
X5110Y4835D01*
X5128Y4838D01*
X5143Y4848D01*
X5154Y4864D01*
X5157Y4881D01*
X5154Y4899D01*
X5143Y4914D01*
X5128Y4924D01*
X5110Y4928D01*
D02*
G37*
G36*
X6065Y5329D02*
X5278D01*
Y5101D01*
X6065D01*
Y5329D01*
D02*
G37*
G36*
X5091Y5966D02*
X5071Y5963D01*
X5053Y5955D01*
X5037Y5943D01*
X5025Y5927D01*
X5017Y5909D01*
X5014Y5889D01*
X5017Y5869D01*
X5025Y5850D01*
X5037Y5834D01*
X5038Y5834D01*
Y5711D01*
X4817Y5490D01*
X4816Y5491D01*
X4796Y5488D01*
X4778Y5480D01*
X4762Y5468D01*
X4750Y5452D01*
X4742Y5434D01*
X4739Y5414D01*
X4742Y5394D01*
X4750Y5375D01*
X4762Y5359D01*
X4778Y5347D01*
X4796Y5339D01*
X4816Y5337D01*
X4836Y5339D01*
X4855Y5347D01*
X4871Y5359D01*
X4883Y5375D01*
X4890Y5394D01*
X4893Y5414D01*
X4893Y5414D01*
X5129Y5651D01*
X5141Y5668D01*
X5145Y5689D01*
Y5834D01*
X5146Y5834D01*
X5158Y5850D01*
X5165Y5869D01*
X5168Y5889D01*
X5165Y5909D01*
X5158Y5927D01*
X5146Y5943D01*
X5130Y5955D01*
X5111Y5963D01*
X5091Y5966D01*
D02*
G37*
G36*
X6541Y5427D02*
X6527Y5424D01*
X6514Y5416D01*
X6506Y5403D01*
X6503Y5389D01*
X6506Y5374D01*
X6514Y5361D01*
X6515Y5361D01*
Y5137D01*
X6517Y5127D01*
X6523Y5119D01*
X6545Y5097D01*
X6543Y5095D01*
X6540Y5080D01*
X6543Y5065D01*
X6551Y5053D01*
X6564Y5044D01*
X6579Y5042D01*
X6593Y5044D01*
X6602Y5050D01*
X6610Y5052D01*
X6619Y5050D01*
X6627Y5044D01*
X6642Y5042D01*
X6657Y5044D01*
X6669Y5053D01*
X6678Y5065D01*
X6681Y5080D01*
X6678Y5095D01*
X6669Y5107D01*
X6657Y5116D01*
X6655Y5116D01*
Y5301D01*
X6654Y5308D01*
X6655Y5314D01*
X6652Y5328D01*
X6643Y5341D01*
X6631Y5349D01*
X6616Y5352D01*
X6602Y5349D01*
X6589Y5341D01*
X6581Y5328D01*
X6580Y5324D01*
X6567Y5325D01*
Y5361D01*
X6568Y5361D01*
X6577Y5374D01*
X6580Y5389D01*
X6577Y5403D01*
X6568Y5416D01*
X6556Y5424D01*
X6541Y5427D01*
D02*
G37*
G36*
X7313Y4928D02*
X7295Y4924D01*
X7280Y4914D01*
X7270Y4899D01*
X7266Y4881D01*
X7270Y4864D01*
X7280Y4848D01*
X7295Y4838D01*
X7313Y4835D01*
X7331Y4838D01*
X7346Y4848D01*
X7356Y4864D01*
X7359Y4881D01*
X7356Y4899D01*
X7346Y4914D01*
X7331Y4924D01*
X7313Y4928D01*
D02*
G37*
%LPD*%
G36*
X6888Y3363D02*
Y3277D01*
X6687D01*
Y3202D01*
X6686Y3200D01*
X6687Y3199D01*
Y3124D01*
X6715D01*
X6720Y3111D01*
X6715Y3103D01*
X6712Y3089D01*
X6715Y3074D01*
X6723Y3061D01*
X6736Y3053D01*
X6750Y3050D01*
X6765Y3053D01*
X6778Y3061D01*
X6786Y3074D01*
X6789Y3089D01*
X6786Y3103D01*
X6780Y3111D01*
X6786Y3124D01*
X6815D01*
Y2914D01*
X6817Y2904D01*
X6823Y2895D01*
X6828Y2890D01*
X6828Y2889D01*
X6831Y2874D01*
X6839Y2861D01*
X6852Y2853D01*
X6866Y2850D01*
X6875Y2852D01*
X6881Y2840D01*
X6856Y2815D01*
X6502D01*
X6242Y3074D01*
Y3111D01*
X6356D01*
Y3168D01*
X6360Y3170D01*
X6422Y3233D01*
X6428Y3241D01*
X6430Y3251D01*
Y3411D01*
X6431Y3412D01*
X6439Y3425D01*
X6442Y3439D01*
X6439Y3454D01*
X6438Y3455D01*
X6445Y3468D01*
X6783D01*
X6888Y3363D01*
D02*
G37*
D10*
X5237Y4425D02*
D03*
D11*
X5286D02*
D03*
X5337D02*
D03*
X5387D02*
D03*
X5436D02*
D03*
X5486D02*
D03*
X5537D02*
D03*
X5585D02*
D03*
X5636D02*
D03*
X5687D02*
D03*
X5735D02*
D03*
X5786D02*
D03*
X5837D02*
D03*
X5888D02*
D03*
X5936D02*
D03*
X5987D02*
D03*
X6038D02*
D03*
X6086D02*
D03*
X6137D02*
D03*
X6187D02*
D03*
X6238D02*
D03*
X6288D02*
D03*
X6338D02*
D03*
X6388D02*
D03*
X6438D02*
D03*
X6488D02*
D03*
X6538D02*
D03*
X6588D02*
D03*
X6638D02*
D03*
X6688D02*
D03*
X5237Y4956D02*
D03*
X5286D02*
D03*
X5337D02*
D03*
X5387D02*
D03*
X5436D02*
D03*
X5486D02*
D03*
X5537D02*
D03*
X5585D02*
D03*
X5636D02*
D03*
X5687D02*
D03*
X5735D02*
D03*
X5786D02*
D03*
X5837D02*
D03*
X5888D02*
D03*
X5936D02*
D03*
X5987D02*
D03*
X6038D02*
D03*
X6086D02*
D03*
X6137D02*
D03*
X6187D02*
D03*
X6238D02*
D03*
X6288D02*
D03*
X6338D02*
D03*
X6388D02*
D03*
X6438D02*
D03*
X6488D02*
D03*
X6538D02*
D03*
X6588D02*
D03*
X6638D02*
D03*
X6688D02*
D03*
X6738Y4425D02*
D03*
Y4956D02*
D03*
X6788Y4425D02*
D03*
Y4956D02*
D03*
X6838Y4425D02*
D03*
Y4956D02*
D03*
X6888Y4425D02*
D03*
Y4956D02*
D03*
X6938Y4425D02*
D03*
Y4956D02*
D03*
X6988Y4425D02*
D03*
Y4956D02*
D03*
X7038Y4425D02*
D03*
Y4956D02*
D03*
X7088Y4425D02*
D03*
Y4956D02*
D03*
X7138Y4425D02*
D03*
Y4956D02*
D03*
X7188Y4425D02*
D03*
Y4956D02*
D03*
D12*
X7413Y4691D02*
D03*
X5011D02*
D03*
D13*
X6312Y3188D02*
D03*
X6223D02*
D03*
X6134D02*
D03*
X6909Y3200D02*
D03*
X6820D02*
D03*
X6731D02*
D03*
D14*
X5256Y3492D02*
Y3703D01*
X5366Y3814D01*
X5366D01*
X5162Y3492D02*
X5256D01*
X5105Y3549D02*
X5162Y3492D01*
X5105Y3549D02*
Y3785D01*
X5191Y3589D02*
Y3814D01*
X5266Y3889D01*
X5191Y3964D02*
X5266Y3889D01*
X6820Y3166D02*
X6841Y3145D01*
Y2914D02*
Y3145D01*
X6341Y3189D02*
X6404Y3251D01*
X6316Y3189D02*
X6341D01*
X6316Y3162D02*
Y3189D01*
X6216Y3064D02*
Y3126D01*
Y3064D02*
X6491Y2789D01*
X6091Y3239D02*
X6142Y3188D01*
X6172D01*
X6841Y2914D02*
X6866Y2889D01*
Y2789D02*
X6991Y2914D01*
X6491Y2789D02*
X6866D01*
X6991Y2914D02*
Y2939D01*
X6161Y3187D02*
X6236Y3162D01*
X6629Y5093D02*
X6642Y5080D01*
X6629Y5093D02*
Y5301D01*
X6616Y5314D02*
X6629Y5301D01*
X7120Y3410D02*
X7538D01*
X7591Y3464D01*
X5406Y4339D02*
X5436Y4368D01*
X5241Y4339D02*
X5406D01*
X5191Y4288D02*
X5241Y4339D01*
X5436Y4368D02*
Y4425D01*
X5191Y3964D02*
Y4288D01*
X6450Y4886D02*
X6499Y4837D01*
X6450Y4886D02*
Y4890D01*
X6426Y4914D02*
X6450Y4890D01*
X6488Y4902D02*
Y4956D01*
Y4902D02*
X6515Y4875D01*
X6426Y4956D02*
X6438D01*
X6426Y4914D02*
Y4956D01*
X6499Y4837D02*
X6630D01*
X6515Y4875D02*
X6646D01*
X7341Y3189D02*
X7766D01*
X7191Y3039D02*
X7341Y3189D01*
X6541Y5137D02*
Y5389D01*
Y5137D02*
X6579Y5100D01*
Y5080D02*
Y5100D01*
X7612Y4691D02*
X7683Y4762D01*
X7413Y4691D02*
X7612D01*
X6958Y4538D02*
X6974Y4522D01*
X6942D02*
X6958Y4538D01*
X6901Y4522D02*
X6942D01*
X6871Y4551D02*
X6901Y4522D01*
X6871Y4551D02*
Y4559D01*
X6828Y4602D02*
X6871Y4559D01*
X6828Y4602D02*
Y4639D01*
X6630Y4837D02*
X6828Y4639D01*
X6866Y4618D02*
X6912Y4572D01*
X6921D01*
X6866Y4618D02*
Y4655D01*
X6646Y4875D02*
X6866Y4655D01*
X6738Y4837D02*
Y4956D01*
Y4837D02*
X6916Y4658D01*
Y4639D02*
Y4658D01*
X6988Y4771D02*
Y4956D01*
Y4771D02*
X7191Y4567D01*
Y4564D02*
Y4567D01*
X7038Y4796D02*
Y4956D01*
Y4796D02*
X7191Y4642D01*
Y4639D02*
Y4642D01*
X7138Y4821D02*
Y4956D01*
Y4821D02*
X7170Y4789D01*
X7191D01*
X7088Y4817D02*
X7191Y4714D01*
X7088Y4817D02*
Y4956D01*
X6974Y4522D02*
X6982Y4530D01*
X6838Y4808D02*
X6934Y4712D01*
X6838Y4808D02*
Y4956D01*
X6926Y4801D02*
X6934D01*
X6884Y4843D02*
X6926Y4801D01*
X6884Y4843D02*
Y4952D01*
X6888Y4956D01*
X6934Y4864D02*
X6938Y4868D01*
Y4956D01*
X7188Y4867D02*
X7191Y4864D01*
X7188Y4867D02*
Y4956D01*
X6404Y3251D02*
Y3439D01*
X5316Y5139D02*
Y5291D01*
X5392D01*
X5418Y5266D01*
Y5215D01*
X5392Y5189D01*
X5316D01*
X5367D02*
X5418Y5139D01*
X5570Y5291D02*
X5469D01*
Y5139D01*
X5570D01*
X5469Y5215D02*
X5519D01*
X5621Y5291D02*
Y5189D01*
X5672Y5139D01*
X5723Y5189D01*
Y5291D01*
X5926D02*
Y5139D01*
X6002D01*
X6027Y5164D01*
Y5189D01*
X6002Y5215D01*
X5926D01*
X6002D01*
X6027Y5240D01*
Y5266D01*
X6002Y5291D01*
X5926D01*
D15*
X5416Y3649D02*
Y3714D01*
Y3649D02*
X5743Y3322D01*
X5564Y3666D02*
X5791Y3439D01*
X5564Y3666D02*
Y3916D01*
X7726Y3564D02*
X7826Y3664D01*
X6260Y3616D02*
X6313Y3564D01*
X6143Y3616D02*
X6260D01*
X5850Y3322D02*
X6143Y3616D01*
X6740Y3200D02*
X6800D01*
X6161Y3187D02*
X6210D01*
X5743Y3322D02*
X5850D01*
X7826Y3664D02*
X7866D01*
X7941Y3589D01*
X5541Y3939D02*
X5564Y3916D01*
X5091Y5689D02*
Y5889D01*
X4816Y5414D02*
X5091Y5689D01*
X5866Y4789D02*
X6116D01*
X5611Y4533D02*
X5866Y4789D01*
X5571Y4533D02*
X5611D01*
X5571Y4434D02*
Y4533D01*
X5561Y4425D02*
X5571Y4434D01*
X4591Y4689D02*
X5009D01*
X5011Y4691D01*
X7941Y3589D02*
Y4889D01*
X7916Y4914D02*
X7941Y4889D01*
X7591Y4914D02*
X7916D01*
X7591D02*
Y5364D01*
X7441Y5514D02*
X7591Y5364D01*
X6716Y5514D02*
X7441D01*
X6766Y4364D02*
Y4439D01*
Y4364D02*
X6772Y4357D01*
Y4200D02*
Y4357D01*
Y4200D02*
X6782Y4191D01*
X6313Y3564D02*
X7726D01*
D16*
X5572Y4209D02*
X5601Y4238D01*
X5548Y4209D02*
X5572D01*
X5527Y4189D02*
X5548Y4209D01*
X5348Y4189D02*
X5527D01*
X5291Y4132D02*
X5348Y4189D01*
X6382Y4205D02*
X6538Y4360D01*
X6287Y4260D02*
X6388Y4361D01*
X6128Y4260D02*
X6287D01*
X6309Y4232D02*
X6438Y4361D01*
X6117Y4232D02*
X6309D01*
X6105Y4205D02*
X6382D01*
X5566Y4164D02*
X5613Y4210D01*
X5910Y4293D02*
X5936Y4320D01*
X5322Y4269D02*
X5554D01*
X6096Y4214D02*
X6105Y4205D01*
X5948Y4214D02*
X6096D01*
X6108Y4241D02*
X6117Y4232D01*
X5936Y4241D02*
X6108D01*
X6119Y4269D02*
X6128Y4260D01*
X5925Y4269D02*
X6119D01*
X5944Y4210D02*
X5948Y4214D01*
X5838Y4210D02*
X5944D01*
X5835Y4214D02*
X5838Y4210D01*
X5698Y4214D02*
X5835D01*
X5933Y4238D02*
X5936Y4241D01*
X5850Y4238D02*
X5933D01*
X5846Y4241D02*
X5850Y4238D01*
X5686Y4241D02*
X5846D01*
X5921Y4266D02*
X5925Y4269D01*
X5861Y4266D02*
X5921D01*
X5858Y4269D02*
X5861Y4266D01*
X5675Y4269D02*
X5858D01*
X5873Y4293D02*
X5910D01*
X5869Y4297D02*
X5873Y4293D01*
X5663Y4297D02*
X5869D01*
X5694Y4210D02*
X5698Y4214D01*
X5613Y4210D02*
X5694D01*
X5683Y4238D02*
X5686Y4241D01*
X5601Y4238D02*
X5683D01*
X5671Y4266D02*
X5675Y4269D01*
X5611Y4266D02*
X5671D01*
X5608Y4269D02*
X5611Y4266D01*
X5593Y4269D02*
X5608D01*
X5660Y4293D02*
X5663Y4297D01*
X5623Y4293D02*
X5660D01*
X5619Y4297D02*
X5623Y4293D01*
X5582Y4297D02*
X5619D01*
X5554Y4269D02*
X5582Y4297D01*
X5566Y4241D02*
X5593Y4269D01*
X5361Y4241D02*
X5566D01*
X5336Y4216D02*
X5361Y4241D01*
X5316Y4264D02*
X5322Y4269D01*
X5675Y4036D02*
X7122D01*
X5627Y3989D02*
X5675Y4036D01*
X5610Y3989D02*
X5627D01*
X5576Y4022D02*
X5610Y3989D01*
X5507Y4022D02*
X5576D01*
X5473Y3989D02*
X5507Y4022D01*
X5366Y3989D02*
X5473D01*
X5316Y4039D02*
X5366Y3989D01*
X7691Y3639D02*
X7741Y3689D01*
X6323Y3639D02*
X7691D01*
X6273Y3689D02*
X6323Y3639D01*
X5851Y3689D02*
X6273D01*
X6791Y3489D02*
X6909Y3371D01*
X6236Y3531D02*
X6278Y3489D01*
X6228Y3539D02*
X6236Y3531D01*
X6048Y3843D02*
X6152D01*
X6161Y3891D02*
X7280D01*
X6158Y3889D02*
X6161Y3891D01*
X6066Y3889D02*
X6158D01*
X6152Y3843D02*
X6173Y3864D01*
X7316D01*
X7194Y3836D02*
X7216Y3814D01*
X6189Y3836D02*
X7194D01*
X6166Y3814D02*
X6189Y3836D01*
X5641Y3814D02*
X6166D01*
X7216D02*
X7741D01*
X6731Y3166D02*
X6751Y3147D01*
X6750Y3089D02*
X6751Y3089D01*
Y3147D01*
X6388Y4839D02*
Y4956D01*
Y4839D02*
X6464Y4762D01*
X6909Y3166D02*
Y3371D01*
X6141Y3935D02*
X6159Y3953D01*
X5809Y3981D02*
X7183D01*
X5741Y4008D02*
X7134D01*
X5761Y4068D02*
X7085D01*
X6159Y3953D02*
X7205D01*
X5991Y3864D02*
X6027D01*
X7355Y3889D02*
X7691D01*
X7335Y3909D02*
X7355Y3889D01*
X7298Y3909D02*
X7335D01*
X7280Y3891D02*
X7298Y3909D01*
X4966Y3720D02*
X4972Y3714D01*
X4966Y3720D02*
Y4292D01*
X4910Y3714D02*
X4915Y3720D01*
Y4313D01*
X4966Y4292D02*
X5329Y4655D01*
Y4949D01*
X5337Y4956D01*
X4915Y4313D02*
X5278Y4676D01*
Y4949D01*
X5286Y4956D01*
X6538Y4360D02*
Y4425D01*
X5263Y4216D02*
X5336D01*
X5241Y4195D02*
X5263Y4216D01*
X5890Y4689D02*
X6641D01*
X5687Y4485D02*
X5890Y4689D01*
X6438Y4361D02*
Y4425D01*
X6388Y4361D02*
Y4425D01*
X6288Y4339D02*
Y4425D01*
X6187D02*
Y4506D01*
Y4425D02*
Y4506D01*
X6172Y4521D02*
X6187Y4506D01*
X6241Y4428D02*
Y4564D01*
X5687Y4425D02*
Y4485D01*
X7085Y4068D02*
X7300Y4284D01*
X5741Y4089D02*
X5761Y4068D01*
X6338Y4425D02*
Y4535D01*
X6366Y4564D01*
X6238Y4425D02*
X6241Y4428D01*
X6666Y5989D02*
Y6011D01*
Y5989D02*
X6670Y5985D01*
X5987Y4425D02*
Y4503D01*
X5969Y4521D02*
X5987Y4503D01*
X6038Y4425D02*
Y4517D01*
X5941Y4614D02*
X6038Y4517D01*
X7691Y3889D02*
X7741Y3938D01*
X6514Y5811D02*
X6864D01*
X6288Y5585D02*
X6514Y5811D01*
X6288Y4956D02*
Y5585D01*
X6966Y6014D02*
X7041D01*
X6791Y5839D02*
X6966Y6014D01*
X6491Y5839D02*
X6791D01*
X6238Y5585D02*
X6491Y5839D01*
X6238Y4956D02*
Y5585D01*
X6564Y6011D02*
X6666D01*
X6187Y5635D02*
X6564Y6011D01*
X6187Y4956D02*
Y5635D01*
X6541Y6039D02*
X6791D01*
X6137Y5634D02*
X6541Y6039D01*
X6137Y4956D02*
Y5634D01*
X6027Y3864D02*
X6048Y3843D01*
X5846Y3693D02*
X5851Y3689D01*
X5888Y4867D02*
Y4956D01*
X5791Y3962D02*
X5809Y3981D01*
X5786Y4882D02*
X5791Y4877D01*
X5786Y4882D02*
Y4956D01*
X5741Y4814D02*
Y4950D01*
X5735Y4956D02*
X5741Y4950D01*
X5722Y3989D02*
X5741Y4008D01*
X5691Y3989D02*
X5722D01*
X5687Y4868D02*
X5691Y4864D01*
X5687Y4868D02*
Y4956D01*
X6137Y4315D02*
X6147Y4305D01*
X6137Y4315D02*
Y4425D01*
X6086Y4344D02*
Y4425D01*
X5936Y4320D02*
Y4424D01*
X5936Y4425D02*
X5936Y4424D01*
X5903Y4102D02*
X5941D01*
X5891Y4114D02*
X5903Y4102D01*
X5888Y4342D02*
X5891Y4339D01*
X5888Y4342D02*
Y4425D01*
X5636Y4344D02*
X5641Y4339D01*
X5636Y4344D02*
Y4425D01*
X7205Y3953D02*
X7296Y4043D01*
X7720D01*
X7741Y4064D01*
X7183Y3981D02*
X7291Y4089D01*
X7134Y4008D02*
X7296Y4171D01*
X7724D01*
X7741Y4188D01*
X7122Y4036D02*
X7303Y4216D01*
X6638Y4342D02*
Y4425D01*
X6641Y4264D02*
X6691D01*
X6588Y4317D02*
X6641Y4264D01*
X6588Y4317D02*
Y4425D01*
X6688D02*
Y4535D01*
X6066Y2748D02*
X6071Y2743D01*
X6066Y2748D02*
Y3087D01*
X6067Y3088D01*
X5944Y2766D02*
Y3086D01*
X5842Y2781D02*
Y3088D01*
X5691Y2814D02*
Y3089D01*
X6278Y3489D02*
X6791D01*
D17*
X5941Y4102D02*
X7030D01*
X5541Y5714D02*
X5841D01*
X5237Y5410D02*
X5541Y5714D01*
X5237Y4956D02*
Y5410D01*
X7030Y4102D02*
X7241Y4314D01*
D18*
X7379Y5740D02*
D03*
X7683Y4762D02*
D03*
D19*
X7691Y5939D02*
D03*
X4691Y2939D02*
D03*
X7691D02*
D03*
X4691Y5939D02*
D03*
D20*
X7313Y4881D02*
D03*
X5110D02*
D03*
D21*
X5105Y3785D02*
D03*
X6185Y5867D02*
D03*
X5256Y3492D02*
D03*
D22*
X5191Y3589D02*
D03*
X6236Y3531D02*
D03*
X6091Y3239D02*
D03*
X6866Y2889D02*
D03*
X6750Y3089D02*
D03*
X6464Y4762D02*
D03*
X6991Y2939D02*
D03*
X6642Y5080D02*
D03*
X6616Y5314D02*
D03*
X7741Y3814D02*
D03*
X6066Y3889D02*
D03*
X6141Y3935D02*
D03*
X5991Y3864D02*
D03*
X7316D02*
D03*
X7120Y3410D02*
D03*
X5841Y5714D02*
D03*
X4972Y3714D02*
D03*
X4910D02*
D03*
X5566Y4164D02*
D03*
X6116Y4789D02*
D03*
X4591Y4689D02*
D03*
X5241Y4195D02*
D03*
X5291Y4132D02*
D03*
X6291Y4339D02*
D03*
X6241Y4564D02*
D03*
X6172Y4521D02*
D03*
X6641Y4689D02*
D03*
X5316Y4039D02*
D03*
Y4264D02*
D03*
X7766Y3189D02*
D03*
X7191Y3039D02*
D03*
X7591Y3464D02*
D03*
X6541Y5389D02*
D03*
X6579Y5080D02*
D03*
X6366Y4564D02*
D03*
X7041Y6014D02*
D03*
X6864Y5811D02*
D03*
X6794Y6035D02*
D03*
X6670Y5985D02*
D03*
X5941Y4614D02*
D03*
X5969Y4521D02*
D03*
X5846Y3693D02*
D03*
X5888Y4867D02*
D03*
X5791Y3962D02*
D03*
Y4877D02*
D03*
X5741Y4089D02*
D03*
Y4814D02*
D03*
X5691Y3989D02*
D03*
Y4864D02*
D03*
X6147Y4305D02*
D03*
X6086Y4344D02*
D03*
X5891Y4114D02*
D03*
Y4339D02*
D03*
X5641Y3814D02*
D03*
Y4339D02*
D03*
X7741Y3689D02*
D03*
X7741Y3938D02*
D03*
X7741Y4064D02*
D03*
X7291Y4089D02*
D03*
X7741Y4188D02*
D03*
X7303Y4216D02*
D03*
X7300Y4284D02*
D03*
X7241Y4314D02*
D03*
X6638Y4342D02*
D03*
X6691Y4264D02*
D03*
X6688Y4535D02*
D03*
X6071Y2743D02*
D03*
X6067Y3088D02*
D03*
X5944Y3086D02*
D03*
Y2766D02*
D03*
X5842Y3088D02*
D03*
Y2781D02*
D03*
X5691Y3089D02*
D03*
Y2814D02*
D03*
X6982Y4530D02*
D03*
X6921Y4572D02*
D03*
X6916Y4639D02*
D03*
X6934Y4712D02*
D03*
Y4801D02*
D03*
Y4864D02*
D03*
X7191Y4564D02*
D03*
Y4639D02*
D03*
Y4714D02*
D03*
Y4789D02*
D03*
Y4864D02*
D03*
X6404Y3439D02*
D03*
X6341Y3789D02*
D03*
X6616D02*
D03*
D23*
X5416Y3714D02*
D03*
X5541Y3939D02*
D03*
X5791Y3439D02*
D03*
X5091Y5889D02*
D03*
X4816Y5414D02*
D03*
X7591Y4914D02*
D03*
X6716Y5514D02*
D03*
X6782Y4191D02*
D03*
D24*
X6616Y3114D02*
D03*
X5366Y3814D02*
D03*
M02*
