G04 Layer_Physical_Order=1*
G04 Layer_Color=255*
%FSAX42Y42*%
%MOMM*%
G71*
G01*
G75*
G04:AMPARAMS|DCode=10|XSize=0.23mm|YSize=0.23mm|CornerRadius=0.06mm|HoleSize=0mm|Usage=FLASHONLY|Rotation=180.000|XOffset=0mm|YOffset=0mm|HoleType=Round|Shape=RoundedRectangle|*
%AMROUNDEDRECTD10*
21,1,0.23,0.11,0,0,180.0*
21,1,0.11,0.23,0,0,180.0*
1,1,0.11,-0.06,0.06*
1,1,0.11,0.06,0.06*
1,1,0.11,0.06,-0.06*
1,1,0.11,-0.06,-0.06*
%
%ADD10ROUNDEDRECTD10*%
G04:AMPARAMS|DCode=11|XSize=0.23mm|YSize=0.23mm|CornerRadius=0.06mm|HoleSize=0mm|Usage=FLASHONLY|Rotation=90.000|XOffset=0mm|YOffset=0mm|HoleType=Round|Shape=RoundedRectangle|*
%AMROUNDEDRECTD11*
21,1,0.23,0.11,0,0,90.0*
21,1,0.11,0.23,0,0,90.0*
1,1,0.11,0.06,0.06*
1,1,0.11,0.06,-0.06*
1,1,0.11,-0.06,-0.06*
1,1,0.11,-0.06,0.06*
%
%ADD11ROUNDEDRECTD11*%
%ADD12R,0.81X0.30*%
%ADD13R,0.30X0.81*%
%ADD14R,1.42X1.02*%
%ADD15R,0.61X0.51*%
G04:AMPARAMS|DCode=16|XSize=0.51mm|YSize=0.61mm|CornerRadius=0mm|HoleSize=0mm|Usage=FLASHONLY|Rotation=225.000|XOffset=0mm|YOffset=0mm|HoleType=Round|Shape=Rectangle|*
%AMROTATEDRECTD16*
4,1,4,-0.04,0.40,0.40,-0.04,0.04,-0.40,-0.40,0.04,-0.04,0.40,0.0*
%
%ADD16ROTATEDRECTD16*%

G04:AMPARAMS|DCode=17|XSize=0.51mm|YSize=0.61mm|CornerRadius=0mm|HoleSize=0mm|Usage=FLASHONLY|Rotation=315.000|XOffset=0mm|YOffset=0mm|HoleType=Round|Shape=Rectangle|*
%AMROTATEDRECTD17*
4,1,4,-0.40,-0.04,0.04,0.40,0.40,0.04,-0.04,-0.40,-0.40,-0.04,0.0*
%
%ADD17ROTATEDRECTD17*%

G04:AMPARAMS|DCode=18|XSize=0.51mm|YSize=0.61mm|CornerRadius=0.13mm|HoleSize=0mm|Usage=FLASHONLY|Rotation=90.000|XOffset=0mm|YOffset=0mm|HoleType=Round|Shape=RoundedRectangle|*
%AMROUNDEDRECTD18*
21,1,0.51,0.36,0,0,90.0*
21,1,0.25,0.61,0,0,90.0*
1,1,0.25,0.18,0.13*
1,1,0.25,0.18,-0.13*
1,1,0.25,-0.18,-0.13*
1,1,0.25,-0.18,0.13*
%
%ADD18ROUNDEDRECTD18*%
G04:AMPARAMS|DCode=19|XSize=0.61mm|YSize=0.91mm|CornerRadius=0.15mm|HoleSize=0mm|Usage=FLASHONLY|Rotation=270.000|XOffset=0mm|YOffset=0mm|HoleType=Round|Shape=RoundedRectangle|*
%AMROUNDEDRECTD19*
21,1,0.61,0.61,0,0,270.0*
21,1,0.30,0.91,0,0,270.0*
1,1,0.30,-0.30,-0.15*
1,1,0.30,-0.30,0.15*
1,1,0.30,0.30,0.15*
1,1,0.30,0.30,-0.15*
%
%ADD19ROUNDEDRECTD19*%
G04:AMPARAMS|DCode=20|XSize=0.61mm|YSize=0.91mm|CornerRadius=0.15mm|HoleSize=0mm|Usage=FLASHONLY|Rotation=0.000|XOffset=0mm|YOffset=0mm|HoleType=Round|Shape=RoundedRectangle|*
%AMROUNDEDRECTD20*
21,1,0.61,0.61,0,0,0.0*
21,1,0.30,0.91,0,0,0.0*
1,1,0.30,0.15,-0.30*
1,1,0.30,-0.15,-0.30*
1,1,0.30,-0.15,0.30*
1,1,0.30,0.15,0.30*
%
%ADD20ROUNDEDRECTD20*%
G04:AMPARAMS|DCode=21|XSize=0.71mm|YSize=1.32mm|CornerRadius=0.18mm|HoleSize=0mm|Usage=FLASHONLY|Rotation=180.000|XOffset=0mm|YOffset=0mm|HoleType=Round|Shape=RoundedRectangle|*
%AMROUNDEDRECTD21*
21,1,0.71,0.97,0,0,180.0*
21,1,0.36,1.32,0,0,180.0*
1,1,0.36,-0.18,0.48*
1,1,0.36,0.18,0.48*
1,1,0.36,0.18,-0.48*
1,1,0.36,-0.18,-0.48*
%
%ADD21ROUNDEDRECTD21*%
G04:AMPARAMS|DCode=22|XSize=0.51mm|YSize=0.61mm|CornerRadius=0.13mm|HoleSize=0mm|Usage=FLASHONLY|Rotation=0.000|XOffset=0mm|YOffset=0mm|HoleType=Round|Shape=RoundedRectangle|*
%AMROUNDEDRECTD22*
21,1,0.51,0.36,0,0,0.0*
21,1,0.25,0.61,0,0,0.0*
1,1,0.25,0.13,-0.18*
1,1,0.25,-0.13,-0.18*
1,1,0.25,-0.13,0.18*
1,1,0.25,0.13,0.18*
%
%ADD22ROUNDEDRECTD22*%
%ADD23R,0.70X0.20*%
%ADD24R,0.66X0.30*%
%ADD25R,0.30X0.66*%
%ADD26R,0.61X1.12*%
%ADD27C,0.12*%
%ADD28C,0.15*%
%ADD29C,0.70*%
%ADD30C,1.00*%
%ADD31C,0.25*%
%ADD32C,1.80*%
%ADD33C,4.10*%
%ADD34C,0.45*%
%ADD35C,1.50*%
%ADD36C,0.60*%
G36*
X013432Y007396D02*
Y006669D01*
X013375D01*
X013365Y006665D01*
X013361Y006655D01*
Y006643D01*
X013032D01*
Y006655D01*
X013028Y006665D01*
X013019Y006669D01*
X012965D01*
Y007371D01*
X012966Y007381D01*
X012970Y007390D01*
X012975Y007397D01*
X012988Y007407D01*
X013003Y007413D01*
X013020Y007415D01*
X013414D01*
X013432Y007396D01*
D02*
G37*
G36*
X006955Y006645D02*
Y006609D01*
X006975D01*
X006979Y006606D01*
X006986Y006596D01*
X006981Y006589D01*
X006980Y006581D01*
Y006508D01*
X006970Y006499D01*
X006966Y006500D01*
X006953Y006497D01*
X006941Y006490D01*
X006933Y006478D01*
X006930Y006464D01*
X006933Y006450D01*
X006941Y006439D01*
X006953Y006431D01*
X006966Y006428D01*
X006972Y006429D01*
X007008Y006393D01*
X007003Y006380D01*
X006993D01*
Y006304D01*
X006955D01*
Y006380D01*
X006875D01*
X006867Y006391D01*
X006873Y006400D01*
X006876Y006414D01*
X006873Y006427D01*
X006866Y006439D01*
X006861Y006442D01*
Y006590D01*
X006916Y006645D01*
X006921Y006644D01*
X006935Y006647D01*
X006942Y006651D01*
X006955Y006645D01*
D02*
G37*
G36*
X005974Y007636D02*
X006025Y007618D01*
X006072Y007591D01*
X006112Y007556D01*
X006146Y007514D01*
X006172Y007467D01*
X006189Y007415D01*
X006196Y007360D01*
X006197Y007358D01*
X006197Y007356D01*
X006198Y007355D01*
X006198Y007354D01*
X006199Y007353D01*
X006201Y007351D01*
X006202Y007350D01*
X006202Y007349D01*
X006204Y007348D01*
X006206Y007347D01*
X006207Y007347D01*
X006208Y007346D01*
X006210Y007346D01*
X006213Y007346D01*
X007288Y007346D01*
X007290Y007346D01*
X007292Y007346D01*
X007293Y007347D01*
X007294Y007347D01*
X007296Y007348D01*
X007298Y007349D01*
X007299Y007350D01*
X007300Y007351D01*
X007301Y007353D01*
X007302Y007354D01*
X007303Y007355D01*
X007303Y007356D01*
X007304Y007358D01*
X007304Y007360D01*
X007312Y007415D01*
X007328Y007466D01*
X007354Y007513D01*
X007388Y007555D01*
X007428Y007590D01*
X007475Y007617D01*
X007525Y007635D01*
X007578Y007643D01*
X007632Y007642D01*
X007684Y007632D01*
X007734Y007612D01*
X007779Y007583D01*
X007819Y007547D01*
X007851Y007504D01*
X007875Y007456D01*
X007889Y007404D01*
X007894Y007356D01*
X007894Y007356D01*
X007894Y007355D01*
X007893Y007354D01*
X007893Y007354D01*
X007893Y007353D01*
X007893Y007353D01*
X007893Y007352D01*
X007893Y007351D01*
X007893Y007351D01*
X007893Y007350D01*
X007893Y007350D01*
X007893Y007349D01*
X007893Y007349D01*
X007893Y007348D01*
X007893Y007347D01*
X007893Y007347D01*
X007893Y007346D01*
X007893Y007346D01*
X007893Y007345D01*
X007893Y007345D01*
X007893Y007344D01*
X007894Y007343D01*
X007894Y007343D01*
X007894Y007342D01*
X007889Y007292D01*
X007873Y007238D01*
X007847Y007188D01*
X007812Y007144D01*
X007769Y007108D01*
X007720Y007080D01*
X007667Y007062D01*
X007610Y007054D01*
X007608Y007053D01*
X007606Y007053D01*
X007605Y007052D01*
X007604Y007052D01*
X007602Y007051D01*
X007600Y007049D01*
X007600Y007048D01*
X007599Y007048D01*
X007598Y007046D01*
X007597Y007044D01*
X007596Y007043D01*
X007596Y007042D01*
X007596Y007040D01*
X007595Y007037D01*
Y006822D01*
X007583Y006818D01*
X007580Y006822D01*
X007564Y006833D01*
X007546Y006836D01*
X007527Y006833D01*
X007519Y006827D01*
X007505Y006833D01*
X007504Y006838D01*
X007495Y006850D01*
X007495Y006851D01*
X007492Y006867D01*
X007494Y006877D01*
Y006903D01*
X007492Y006913D01*
X007491Y006914D01*
X007492Y006915D01*
X007493Y006923D01*
Y006934D01*
X007498Y006937D01*
X007506Y006948D01*
X007509Y006962D01*
X007506Y006976D01*
X007498Y006988D01*
X007493Y006991D01*
Y007022D01*
X007492Y007030D01*
X007487Y007037D01*
X007429Y007095D01*
Y007128D01*
X007441Y007133D01*
X007446Y007128D01*
X007485Y007167D01*
X007525Y007207D01*
X007498Y007234D01*
X007490Y007226D01*
X007480Y007233D01*
X007480Y007234D01*
X007468Y007245D01*
X007468Y007248D01*
X007457Y007264D01*
X007441Y007274D01*
X007438Y007275D01*
X007426Y007287D01*
X007417Y007278D01*
X007326D01*
X007312Y007281D01*
X007293Y007277D01*
X007277Y007267D01*
X007267Y007251D01*
X007263Y007232D01*
X007267Y007214D01*
X007277Y007198D01*
X007280Y007195D01*
X007280Y007195D01*
X007296Y007185D01*
X007315Y007181D01*
X007315Y007181D01*
X007333D01*
X007337Y007176D01*
X007339Y007168D01*
X007334Y007160D01*
X007331Y007148D01*
Y007052D01*
X007334Y007040D01*
X007340Y007030D01*
X007350Y007023D01*
X007362Y007021D01*
X007398D01*
X007410Y007023D01*
X007420Y007030D01*
X007421Y007031D01*
X007433Y007032D01*
X007452Y007014D01*
Y006991D01*
X007447Y006988D01*
X007440Y006976D01*
X007437Y006962D01*
X007440Y006948D01*
X007444Y006941D01*
X007438Y006929D01*
X007432D01*
X007422Y006927D01*
X007414Y006921D01*
X007408Y006913D01*
X007406Y006903D01*
Y006877D01*
X007408Y006867D01*
X007414Y006859D01*
Y006856D01*
X007405Y006850D01*
X007396Y006838D01*
X007393Y006823D01*
Y006823D01*
X007450D01*
Y006810D01*
X007463D01*
Y006758D01*
X007468D01*
X007483Y006761D01*
X007484Y006763D01*
X007497Y006756D01*
Y006722D01*
X007491Y006717D01*
X007476Y006719D01*
X007470Y006728D01*
X007454Y006739D01*
X007435Y006742D01*
X007417Y006739D01*
X007401Y006728D01*
X007358Y006686D01*
X007354Y006687D01*
X007287D01*
Y006713D01*
X007346D01*
Y006741D01*
X007333D01*
Y006760D01*
X007346D01*
Y006788D01*
X007287D01*
Y006814D01*
X007346D01*
Y006839D01*
X007287D01*
Y006852D01*
X007274D01*
Y006892D01*
X007261D01*
X007255Y006905D01*
X007259Y006909D01*
X007259Y006908D01*
X007273Y006911D01*
X007285Y006919D01*
X007292Y006931D01*
X007295Y006944D01*
X007292Y006958D01*
X007285Y006970D01*
X007273Y006978D01*
X007259Y006980D01*
X007246Y006978D01*
X007234Y006970D01*
X007226Y006958D01*
X007223Y006944D01*
X007224Y006943D01*
X007215Y006933D01*
X007184D01*
X007173Y006942D01*
Y006993D01*
X007172Y007000D01*
X007167Y007007D01*
X007167Y007008D01*
X007179Y007015D01*
X007185Y007011D01*
X007202Y007008D01*
X007207D01*
Y007087D01*
X007158D01*
Y007052D01*
X007162Y007035D01*
X007168Y007026D01*
X007167Y007019D01*
X007160Y007014D01*
X007079Y007095D01*
Y007148D01*
X007076Y007160D01*
X007070Y007170D01*
X007060Y007177D01*
X007048Y007179D01*
X007012D01*
X007000Y007177D01*
X006990Y007170D01*
X006984Y007160D01*
X006981Y007148D01*
Y007052D01*
X006984Y007040D01*
X006990Y007030D01*
X007000Y007023D01*
X007012Y007021D01*
X007048D01*
X007060Y007023D01*
X007070Y007030D01*
X007071Y007031D01*
X007083Y007032D01*
X007132Y006984D01*
Y006949D01*
X007131Y006948D01*
X007131Y006946D01*
X007113D01*
Y006887D01*
X007087D01*
Y006946D01*
X007059D01*
Y006892D01*
X007059Y006880D01*
X007004D01*
X006927Y006956D01*
X006921Y006961D01*
X006913Y006962D01*
X006852D01*
X006852Y006965D01*
X006843Y006986D01*
X006834Y006998D01*
X006841Y007010D01*
X006852Y007008D01*
X006857D01*
Y007087D01*
X006808D01*
Y007052D01*
X006812Y007035D01*
X006814Y007031D01*
X006806Y007020D01*
X006789Y007027D01*
X006767Y007030D01*
X006744Y007027D01*
X006722Y007018D01*
X006704Y007004D01*
X006690Y006986D01*
X006681Y006965D01*
X006678Y006942D01*
X006681Y006919D01*
X006690Y006898D01*
X006704Y006879D01*
X006722Y006865D01*
X006744Y006856D01*
X006767Y006853D01*
X006789Y006856D01*
X006811Y006865D01*
X006829Y006879D01*
X006843Y006898D01*
X006852Y006919D01*
X006852Y006921D01*
X006904D01*
X006967Y006858D01*
Y006821D01*
X006894D01*
Y006824D01*
X006892Y006834D01*
X006886Y006843D01*
X006878Y006848D01*
X006868Y006850D01*
X006833D01*
X006823Y006848D01*
X006814Y006843D01*
X006809Y006834D01*
X006807Y006824D01*
Y006799D01*
X006809Y006789D01*
X006814Y006781D01*
X006817Y006779D01*
Y006764D01*
X006814Y006763D01*
X006809Y006754D01*
X006807Y006744D01*
Y006719D01*
X006809Y006709D01*
X006814Y006701D01*
X006823Y006695D01*
X006833Y006693D01*
X006868D01*
X006876Y006695D01*
X006883Y006689D01*
X006887Y006685D01*
X006886Y006680D01*
X006887Y006675D01*
X006827Y006614D01*
X006815Y006610D01*
X006811Y006612D01*
X006801Y006619D01*
X006785Y006622D01*
X006783D01*
Y006550D01*
Y006478D01*
X006785D01*
X006801Y006481D01*
X006807Y006485D01*
X006820Y006478D01*
Y006442D01*
X006815Y006439D01*
X006807Y006427D01*
X006804Y006414D01*
X006807Y006400D01*
X006815Y006388D01*
X006820Y006385D01*
Y006384D01*
X006821Y006376D01*
X006826Y006369D01*
X006869Y006326D01*
Y006243D01*
X006883D01*
Y006159D01*
X006869D01*
Y006021D01*
X006869D01*
X006871Y006009D01*
X006871Y006009D01*
X006861Y006002D01*
X006853Y005990D01*
X006850Y005977D01*
X006853Y005963D01*
X006861Y005951D01*
X006871Y005945D01*
X006871Y005945D01*
X006873Y005939D01*
X006875Y005930D01*
X006873Y005928D01*
X006871Y005918D01*
Y005882D01*
X006873Y005872D01*
X006879Y005864D01*
X006887Y005858D01*
X006897Y005856D01*
X006923D01*
X006933Y005858D01*
X006949Y005855D01*
X006950Y005855D01*
X006962Y005846D01*
X006977Y005843D01*
Y005900D01*
Y005957D01*
X006962Y005954D01*
X006950Y005945D01*
X006949Y005945D01*
X006933Y005942D01*
X006923Y005944D01*
X006921D01*
Y005963D01*
X006920Y005966D01*
X006922Y005977D01*
X006921Y005982D01*
X006927Y005988D01*
X006927Y005988D01*
X006931Y005995D01*
X006933Y006003D01*
X006933Y006003D01*
Y006021D01*
X006955D01*
Y006088D01*
X006981D01*
Y006009D01*
X007092D01*
Y006088D01*
X007107D01*
Y006009D01*
X007218D01*
Y006088D01*
X007244D01*
Y006021D01*
X007331D01*
Y006159D01*
X007315D01*
Y006243D01*
X007331D01*
Y006291D01*
X007379D01*
X007381Y006277D01*
X007389Y006266D01*
X007401Y006258D01*
X007415Y006255D01*
X007428Y006258D01*
X007440Y006266D01*
X007448Y006277D01*
X007450Y006291D01*
X007450Y006295D01*
X007460Y006308D01*
X007487D01*
Y006229D01*
X007451Y006192D01*
X007399D01*
Y006116D01*
X007485D01*
Y006168D01*
X007523Y006205D01*
X007527Y006212D01*
X007529Y006220D01*
Y006308D01*
X007585D01*
X007597Y006298D01*
X007597Y006285D01*
X007597Y006285D01*
X007597Y006285D01*
X007597Y006285D01*
X007596Y006284D01*
X007596Y006284D01*
X007596Y006283D01*
X007596Y006283D01*
X007595Y006282D01*
X007595Y006281D01*
X007595Y006281D01*
X007594Y006280D01*
X007594Y006280D01*
X007594Y006279D01*
X007594Y006279D01*
X007594Y006278D01*
X007594Y006277D01*
X007594Y006277D01*
X007594Y006276D01*
X007594Y006276D01*
X007594Y006275D01*
X007594Y006275D01*
X007594Y006274D01*
X007594Y006273D01*
X007594Y006273D01*
X007594Y006272D01*
X007594Y006272D01*
X007594Y006271D01*
X007594Y006271D01*
X007594Y006270D01*
X007594Y006269D01*
X007594Y006269D01*
X007594Y006268D01*
X007595Y006268D01*
X007595Y006267D01*
X007595Y006267D01*
X007595Y006266D01*
Y005962D01*
X007596Y005960D01*
X007596Y005958D01*
X007596Y005957D01*
X007597Y005956D01*
X007598Y005954D01*
X007599Y005952D01*
X007600Y005951D01*
X007600Y005950D01*
X007602Y005949D01*
X007604Y005948D01*
X007605Y005947D01*
X007606Y005947D01*
X007608Y005946D01*
X007610Y005946D01*
X007667Y005938D01*
X007720Y005920D01*
X007769Y005892D01*
X007812Y005856D01*
X007847Y005812D01*
X007873Y005762D01*
X007889Y005708D01*
X007894Y005657D01*
X007894Y005657D01*
X007894Y005657D01*
X007894Y005656D01*
X007893Y005655D01*
X007893Y005655D01*
X007893Y005654D01*
X007893Y005654D01*
X007893Y005653D01*
X007893Y005652D01*
X007893Y005652D01*
X007893Y005651D01*
X007893Y005651D01*
X007893Y005650D01*
X007893Y005650D01*
X007893Y005649D01*
X007893Y005648D01*
X007893Y005647D01*
X007893Y005647D01*
X007893Y005646D01*
X007893Y005646D01*
X007894Y005646D01*
X007894Y005645D01*
X007894Y005644D01*
X007894Y005644D01*
X007889Y005595D01*
X007875Y005544D01*
X007851Y005496D01*
X007819Y005453D01*
X007779Y005417D01*
X007734Y005388D01*
X007684Y005368D01*
X007632Y005357D01*
X007578Y005356D01*
X007525Y005365D01*
X007475Y005383D01*
X007428Y005410D01*
X007388Y005445D01*
X007354Y005487D01*
X007328Y005534D01*
X007312Y005585D01*
X007304Y005639D01*
X007304Y005641D01*
X007303Y005644D01*
X007303Y005645D01*
X007302Y005646D01*
X007301Y005647D01*
X007300Y005649D01*
X007299Y005650D01*
X007298Y005651D01*
X007296Y005652D01*
X007294Y005653D01*
X007293Y005653D01*
X007292Y005653D01*
X007290Y005654D01*
X007288Y005654D01*
X006213D01*
X006210Y005654D01*
X006208Y005653D01*
X006207Y005653D01*
X006206Y005653D01*
X006204Y005652D01*
X006202Y005651D01*
X006202Y005650D01*
X006201Y005649D01*
X006199Y005647D01*
X006198Y005646D01*
X006198Y005645D01*
X006197Y005644D01*
X006197Y005641D01*
X006196Y005639D01*
X006189Y005584D01*
X006172Y005533D01*
X006146Y005486D01*
X006112Y005444D01*
X006072Y005409D01*
X006025Y005382D01*
X005974Y005364D01*
X005921Y005355D01*
X005867Y005356D01*
X005814Y005367D01*
X005764Y005387D01*
X005719Y005416D01*
X005680Y005453D01*
X005647Y005496D01*
X005624Y005544D01*
X005609Y005596D01*
X005604Y005650D01*
X005610Y005706D01*
X005626Y005760D01*
X005652Y005810D01*
X005687Y005855D01*
X005730Y005892D01*
X005779Y005920D01*
X005832Y005938D01*
X005890Y005946D01*
X005892Y005946D01*
X005894Y005947D01*
X005895Y005947D01*
X005896Y005948D01*
X005898Y005949D01*
X005899Y005950D01*
X005900Y005951D01*
X005901Y005952D01*
X005902Y005954D01*
X005903Y005956D01*
X005903Y005957D01*
X005904Y005958D01*
X005904Y005960D01*
X005904Y005962D01*
Y007037D01*
X005904Y007040D01*
X005904Y007042D01*
X005903Y007043D01*
X005903Y007044D01*
X005902Y007046D01*
X005901Y007048D01*
X005900Y007048D01*
X005899Y007049D01*
X005898Y007051D01*
X005896Y007052D01*
X005895Y007052D01*
X005894Y007053D01*
X005892Y007053D01*
X005890Y007054D01*
X005832Y007062D01*
X005779Y007080D01*
X005730Y007108D01*
X005687Y007145D01*
X005652Y007189D01*
X005626Y007240D01*
X005610Y007294D01*
X005604Y007350D01*
X005609Y007404D01*
X005624Y007455D01*
X005647Y007504D01*
X005680Y007547D01*
X005719Y007584D01*
X005764Y007613D01*
X005814Y007633D01*
X005867Y007644D01*
X005921Y007645D01*
X005974Y007636D01*
D02*
G37*
G36*
X013251Y008227D02*
X013300Y008210D01*
X013345Y008182D01*
X013382Y008145D01*
X013409Y008101D01*
X013427Y008052D01*
X013432Y007999D01*
Y007770D01*
X013411Y007749D01*
X012897D01*
X012896Y007748D01*
X012895Y007748D01*
X012839Y007743D01*
X012838Y007742D01*
X012836Y007742D01*
X012782Y007726D01*
X012781Y007725D01*
X012779Y007725D01*
X012730Y007698D01*
X012728Y007697D01*
X012727Y007696D01*
X012684Y007661D01*
X012683Y007660D01*
X012682Y007660D01*
X012675Y007652D01*
X012674Y007651D01*
X012673Y007650D01*
X012633Y007598D01*
X012632Y007596D01*
X012631Y007595D01*
X012606Y007534D01*
X012606Y007532D01*
X012605Y007530D01*
X012596Y007465D01*
X012596Y007464D01*
X012596Y007462D01*
Y005971D01*
X012596Y005970D01*
X012596Y005969D01*
X012600Y005942D01*
X012601Y005940D01*
X012601Y005938D01*
X012611Y005913D01*
X012613Y005911D01*
X012614Y005909D01*
X012630Y005888D01*
X012632Y005886D01*
X012633Y005884D01*
X012669Y005857D01*
X012671Y005856D01*
X012673Y005855D01*
X012715Y005837D01*
X012717Y005837D01*
X012719Y005836D01*
X012764Y005830D01*
X012765Y005830D01*
X012766Y005830D01*
X012789D01*
X012790Y005830D01*
X012791Y005830D01*
X012833Y005836D01*
X012835Y005837D01*
X012838Y005837D01*
X012877Y005854D01*
X012879Y005855D01*
X012881Y005856D01*
X012915Y005882D01*
X012917Y005884D01*
X012918Y005885D01*
X012942Y005916D01*
X012943Y005918D01*
X012944Y005919D01*
X012956Y005948D01*
X013019D01*
X013028Y005952D01*
X013032Y005961D01*
Y005970D01*
X013361D01*
Y005944D01*
X013365Y005935D01*
X013375Y005931D01*
X013432D01*
Y005001D01*
X013427Y004948D01*
X013409Y004899D01*
X013382Y004855D01*
X013345Y004818D01*
X013300Y004790D01*
X013251Y004773D01*
X013198Y004767D01*
X012456D01*
X012367Y004856D01*
X012362Y004860D01*
X012355Y004861D01*
X011043D01*
X011037Y004860D01*
X011032Y004856D01*
X010942Y004767D01*
X010200D01*
X010147Y004773D01*
X010098Y004790D01*
X010054Y004818D01*
X010017Y004855D01*
X009989Y004899D01*
X009972Y004948D01*
X009966Y005001D01*
Y005643D01*
X010106Y005783D01*
X011557D01*
X011564Y005784D01*
X011569Y005788D01*
X011802Y006021D01*
X011806Y006026D01*
X011807Y006032D01*
Y006300D01*
X011806Y006306D01*
X011803Y006310D01*
Y006350D01*
X011801Y006355D01*
X011800Y006685D01*
X011804Y006688D01*
X011808Y006693D01*
X011809Y006700D01*
Y006957D01*
X011808Y006963D01*
X011804Y006969D01*
X011561Y007212D01*
X011556Y007215D01*
X011549Y007217D01*
X010106D01*
X009966Y007357D01*
Y007999D01*
X009972Y008052D01*
X009989Y008101D01*
X010017Y008145D01*
X010054Y008182D01*
X010098Y008210D01*
X010147Y008227D01*
X010200Y008233D01*
X010942D01*
X011032Y008144D01*
X011037Y008140D01*
X011043Y008139D01*
X012355D01*
X012362Y008140D01*
X012367Y008144D01*
X012456Y008233D01*
X013198D01*
X013251Y008227D01*
D02*
G37*
%LPC*%
G36*
X005962Y005867D02*
X005931Y005836D01*
X005958Y005809D01*
X005989Y005840D01*
X005962Y005867D01*
D02*
G37*
G36*
X007042Y005887D02*
X007003D01*
Y005843D01*
X007018Y005846D01*
X007030Y005855D01*
X007039Y005867D01*
X007042Y005882D01*
Y005887D01*
D02*
G37*
G36*
X006010Y005915D02*
X005980Y005885D01*
X006007Y005858D01*
X006037Y005888D01*
X006010Y005915D01*
D02*
G37*
G36*
X006680Y005837D02*
X006663D01*
Y005793D01*
X006722D01*
Y005795D01*
X006719Y005811D01*
X006710Y005825D01*
X006696Y005834D01*
X006680Y005837D01*
D02*
G37*
G36*
X006637D02*
X006620D01*
X006604Y005834D01*
X006590Y005825D01*
X006581Y005811D01*
X006578Y005795D01*
Y005793D01*
X006637D01*
Y005837D01*
D02*
G37*
G36*
X006481Y005868D02*
X006478D01*
Y005809D01*
X006522D01*
Y005827D01*
X006519Y005843D01*
X006510Y005856D01*
X006497Y005865D01*
X006481Y005868D01*
D02*
G37*
G36*
X006453D02*
X006450D01*
X006435Y005865D01*
X006421Y005856D01*
X006412Y005843D01*
X006409Y005827D01*
Y005809D01*
X006453D01*
Y005868D01*
D02*
G37*
G36*
X012446Y006127D02*
X012429Y006124D01*
X012415Y006114D01*
X012406Y006100D01*
X012402Y006083D01*
X012406Y006067D01*
X012415Y006053D01*
X012429Y006043D01*
X012446Y006040D01*
X012463Y006043D01*
X012477Y006053D01*
X012486Y006067D01*
X012490Y006083D01*
X012486Y006100D01*
X012477Y006114D01*
X012463Y006124D01*
X012446Y006127D01*
D02*
G37*
G36*
X012192Y006132D02*
X012175Y006129D01*
X012161Y006119D01*
X012152Y006105D01*
X012148Y006088D01*
X012152Y006072D01*
X012161Y006058D01*
X012175Y006048D01*
X012192Y006045D01*
X012209Y006048D01*
X012223Y006058D01*
X012232Y006072D01*
X012236Y006088D01*
X012232Y006105D01*
X012223Y006119D01*
X012209Y006129D01*
X012192Y006132D01*
D02*
G37*
G36*
X011938Y006137D02*
X011921Y006134D01*
X011907Y006124D01*
X011898Y006110D01*
X011894Y006093D01*
X011898Y006077D01*
X011907Y006063D01*
X011921Y006053D01*
X011938Y006050D01*
X011955Y006053D01*
X011969Y006063D01*
X011978Y006077D01*
X011982Y006093D01*
X011978Y006110D01*
X011969Y006124D01*
X011955Y006134D01*
X011938Y006137D01*
D02*
G37*
G36*
X007485Y006092D02*
X007399D01*
Y006015D01*
X007422D01*
Y005978D01*
X007399Y005955D01*
X007388Y005956D01*
X007370Y005970D01*
X007348Y005978D01*
X007325Y005981D01*
X007303Y005978D01*
X007281Y005970D01*
X007263Y005956D01*
X007249Y005937D01*
X007240Y005916D01*
X007237Y005893D01*
X007240Y005870D01*
X007249Y005849D01*
X007263Y005830D01*
X007281Y005816D01*
X007303Y005808D01*
X007325Y005805D01*
X007348Y005808D01*
X007370Y005816D01*
X007388Y005830D01*
X007402Y005849D01*
X007411Y005870D01*
X007414Y005893D01*
X007412Y005903D01*
X007417Y005907D01*
X007431Y005901D01*
X007431Y005900D01*
Y005837D01*
X007425Y005831D01*
X007415Y005823D01*
X007407Y005831D01*
X007380Y005804D01*
X007420Y005765D01*
X007459Y005725D01*
X007486Y005752D01*
X007479Y005760D01*
X007486Y005769D01*
X007498Y005782D01*
X007498Y005782D01*
X007514Y005793D01*
X007525Y005808D01*
X007525Y005808D01*
X007540Y005823D01*
X007528Y005835D01*
Y005910D01*
X007525Y005928D01*
X007514Y005944D01*
X007514Y005944D01*
X007512Y005947D01*
X007496Y005957D01*
X007477Y005961D01*
X007474Y005960D01*
X007464Y005968D01*
X007463Y005971D01*
Y006015D01*
X007485D01*
Y006092D01*
D02*
G37*
G36*
X007003Y005957D02*
Y005913D01*
X007042D01*
Y005918D01*
X007039Y005933D01*
X007030Y005945D01*
X007018Y005954D01*
X007003Y005957D01*
D02*
G37*
G36*
X006668Y006192D02*
X006663D01*
Y006153D01*
X006707D01*
X006704Y006168D01*
X006695Y006180D01*
X006683Y006189D01*
X006668Y006192D01*
D02*
G37*
G36*
X006637D02*
X006632D01*
X006617Y006189D01*
X006605Y006180D01*
X006596Y006168D01*
X006593Y006153D01*
D01*
X006637D01*
Y006192D01*
D02*
G37*
G36*
X012443Y005879D02*
X012427Y005876D01*
X012413Y005866D01*
X012403Y005852D01*
X012400Y005835D01*
X012403Y005819D01*
X012413Y005805D01*
X012427Y005795D01*
X012443Y005792D01*
X012460Y005795D01*
X012474Y005805D01*
X012484Y005819D01*
X012487Y005835D01*
X012484Y005852D01*
X012474Y005866D01*
X012460Y005876D01*
X012443Y005879D01*
D02*
G37*
G36*
X012957Y005727D02*
X012900D01*
X012843D01*
Y005727D01*
X012846Y005712D01*
X012855Y005700D01*
X012855Y005699D01*
X012858Y005683D01*
X012856Y005673D01*
Y005650D01*
X012851Y005644D01*
X012845Y005639D01*
X012844Y005639D01*
X012808D01*
X012796Y005637D01*
X012786Y005630D01*
X012780Y005620D01*
X012777Y005608D01*
Y005556D01*
X012750Y005529D01*
X012746Y005530D01*
X012741Y005529D01*
X012732Y005534D01*
X012728Y005537D01*
Y005547D01*
X012679D01*
Y005467D01*
X012688Y005458D01*
X012691Y005445D01*
X012699Y005433D01*
X012711Y005425D01*
X012724Y005422D01*
X012738Y005425D01*
X012750Y005433D01*
X012758Y005445D01*
X012760Y005458D01*
X012758Y005472D01*
X012760Y005483D01*
X012767Y005488D01*
X012770Y005491D01*
X012786Y005490D01*
X012796Y005483D01*
X012808Y005481D01*
X012844D01*
X012856Y005483D01*
X012866Y005490D01*
X012872Y005500D01*
X012875Y005512D01*
Y005596D01*
X012901Y005621D01*
X012918D01*
X012928Y005623D01*
X012936Y005629D01*
X012942Y005637D01*
X012944Y005647D01*
Y005673D01*
X012942Y005683D01*
X012945Y005699D01*
X012945Y005700D01*
X012954Y005712D01*
X012957Y005727D01*
Y005727D01*
D02*
G37*
G36*
X012684Y005652D02*
X012679D01*
Y005573D01*
X012728D01*
Y005608D01*
X012724Y005625D01*
X012715Y005639D01*
X012701Y005649D01*
X012684Y005652D01*
D02*
G37*
G36*
X006637Y005767D02*
X006578D01*
Y005765D01*
X006581Y005749D01*
X006590Y005735D01*
X006604Y005726D01*
X006620Y005723D01*
X006637D01*
Y005767D01*
D02*
G37*
G36*
X007411Y005738D02*
X007384Y005711D01*
X007414Y005680D01*
X007441Y005707D01*
X007411Y005738D01*
D02*
G37*
G36*
X007606Y005754D02*
X007579Y005750D01*
X007554Y005740D01*
X007533Y005723D01*
X007516Y005702D01*
X007506Y005677D01*
X007502Y005650D01*
X007506Y005623D01*
X007516Y005598D01*
X007533Y005577D01*
X007554Y005560D01*
X007579Y005550D01*
X007606Y005546D01*
X007633Y005550D01*
X007658Y005560D01*
X007679Y005577D01*
X007696Y005598D01*
X007706Y005623D01*
X007710Y005650D01*
X007706Y005677D01*
X007696Y005702D01*
X007679Y005723D01*
X007658Y005740D01*
X007633Y005750D01*
X007606Y005754D01*
D02*
G37*
G36*
X012653Y005547D02*
X012604D01*
Y005512D01*
X012608Y005495D01*
X012617Y005481D01*
X012631Y005471D01*
X012648Y005468D01*
X012653D01*
Y005547D01*
D02*
G37*
G36*
Y005652D02*
X012648D01*
X012631Y005649D01*
X012617Y005639D01*
X012608Y005625D01*
X012604Y005608D01*
Y005573D01*
X012653D01*
Y005652D01*
D02*
G37*
G36*
X005900Y005754D02*
X005874Y005751D01*
X005849Y005740D01*
X005827Y005724D01*
X005811Y005702D01*
X005800Y005678D01*
X005797Y005651D01*
X005800Y005624D01*
X005811Y005599D01*
X005827Y005577D01*
X005849Y005561D01*
X005874Y005551D01*
X005900Y005547D01*
X005927Y005551D01*
X005952Y005561D01*
X005974Y005577D01*
X005990Y005599D01*
X006000Y005624D01*
X006004Y005651D01*
X006000Y005678D01*
X005990Y005702D01*
X005974Y005724D01*
X005952Y005740D01*
X005927Y005751D01*
X005900Y005754D01*
D02*
G37*
G36*
X012918Y005792D02*
X012913D01*
Y005753D01*
X012957D01*
X012954Y005768D01*
X012945Y005780D01*
X012933Y005789D01*
X012918Y005792D01*
D02*
G37*
G36*
X012887D02*
X012882D01*
X012867Y005789D01*
X012855Y005780D01*
X012846Y005768D01*
X012843Y005753D01*
X012887D01*
Y005792D01*
D02*
G37*
G36*
X012192Y005878D02*
X012175Y005875D01*
X012161Y005865D01*
X012152Y005851D01*
X012148Y005835D01*
X012152Y005818D01*
X012161Y005804D01*
X012175Y005794D01*
X012192Y005791D01*
X012209Y005794D01*
X012223Y005804D01*
X012232Y005818D01*
X012236Y005835D01*
X012232Y005851D01*
X012223Y005865D01*
X012209Y005875D01*
X012192Y005878D01*
D02*
G37*
G36*
X011938D02*
X011921Y005875D01*
X011907Y005865D01*
X011898Y005851D01*
X011894Y005835D01*
X011898Y005818D01*
X011907Y005804D01*
X011921Y005794D01*
X011938Y005791D01*
X011955Y005794D01*
X011969Y005804D01*
X011978Y005818D01*
X011982Y005835D01*
X011978Y005851D01*
X011969Y005865D01*
X011955Y005875D01*
X011938Y005878D01*
D02*
G37*
G36*
X006453Y005784D02*
X006409D01*
Y005766D01*
X006412Y005750D01*
X006421Y005736D01*
X006435Y005728D01*
X006450Y005724D01*
X006453D01*
Y005784D01*
D02*
G37*
G36*
X006722Y005767D02*
X006663D01*
Y005723D01*
X006680D01*
X006696Y005726D01*
X006710Y005735D01*
X006719Y005749D01*
X006722Y005765D01*
Y005767D01*
D02*
G37*
G36*
X007362Y005786D02*
X007335Y005759D01*
X007366Y005729D01*
X007393Y005756D01*
X007362Y005786D01*
D02*
G37*
G36*
X006522Y005784D02*
X006478D01*
Y005724D01*
X006481D01*
X006497Y005728D01*
X006510Y005736D01*
X006519Y005750D01*
X006522Y005766D01*
Y005784D01*
D02*
G37*
G36*
X011938Y006394D02*
X011921Y006390D01*
X011907Y006381D01*
X011898Y006367D01*
X011894Y006350D01*
X011898Y006333D01*
X011907Y006319D01*
X011921Y006310D01*
X011938Y006306D01*
X011955Y006310D01*
X011969Y006319D01*
X011978Y006333D01*
X011982Y006350D01*
X011978Y006367D01*
X011969Y006381D01*
X011955Y006390D01*
X011938Y006394D01*
D02*
G37*
G36*
X006888Y007192D02*
X006883D01*
Y007113D01*
X006932D01*
Y007148D01*
X006928Y007165D01*
X006919Y007179D01*
X006905Y007189D01*
X006888Y007192D01*
D02*
G37*
G36*
X007238D02*
X007233D01*
Y007113D01*
X007282D01*
Y007148D01*
X007278Y007165D01*
X007269Y007179D01*
X007255Y007189D01*
X007238Y007192D01*
D02*
G37*
G36*
X013282Y007267D02*
X013268Y007265D01*
X013256Y007257D01*
X013249Y007245D01*
X013246Y007231D01*
X013249Y007218D01*
X013256Y007206D01*
X013268Y007198D01*
X013282Y007195D01*
X013284Y007196D01*
X013297Y007186D01*
Y007141D01*
X013285Y007130D01*
X013271Y007127D01*
X013261Y007121D01*
X013259Y007121D01*
X013254Y007123D01*
X013248Y007126D01*
X013246Y007136D01*
X013238Y007148D01*
X013227Y007155D01*
X013213Y007158D01*
X013199Y007155D01*
X013188Y007148D01*
X013185Y007143D01*
X013065D01*
X013057Y007141D01*
X013050Y007137D01*
X013050Y007137D01*
X013050Y007137D01*
X013009D01*
Y007091D01*
X013104D01*
Y007102D01*
X013185D01*
X013188Y007097D01*
X013199Y007089D01*
X013213Y007086D01*
X013227Y007089D01*
X013237Y007095D01*
X013239Y007095D01*
X013244Y007093D01*
X013249Y007090D01*
X013251Y007080D01*
X013257Y007073D01*
X013256Y007073D01*
X013246Y007062D01*
X013246Y007062D01*
X013240Y007066D01*
X013226Y007069D01*
X013212Y007066D01*
X013200Y007059D01*
X013197Y007054D01*
X013104D01*
Y007057D01*
X013009D01*
Y007011D01*
X013104D01*
Y007013D01*
X013197D01*
X013200Y007008D01*
X013211Y007001D01*
X013212Y006996D01*
Y006992D01*
X013211Y006987D01*
X013200Y006980D01*
X013197Y006975D01*
X013104D01*
Y006977D01*
X013009D01*
Y006931D01*
X013104D01*
Y006934D01*
X013197D01*
X013200Y006929D01*
X013212Y006921D01*
X013226Y006919D01*
X013240Y006921D01*
X013245Y006925D01*
X013255Y006928D01*
X013264Y006925D01*
X013270Y006921D01*
X013272Y006920D01*
Y006907D01*
X013271Y006907D01*
X013259Y006899D01*
X013251Y006888D01*
X013249Y006874D01*
X013251Y006860D01*
X013259Y006849D01*
X013271Y006841D01*
X013285Y006838D01*
X013298Y006841D01*
X013310Y006849D01*
X013312Y006851D01*
X013392D01*
Y006897D01*
X013312D01*
X013310Y006899D01*
X013298Y006907D01*
X013296Y006908D01*
Y006921D01*
X013297Y006921D01*
X013309Y006929D01*
X013311Y006931D01*
X013392D01*
Y006977D01*
X013311D01*
X013309Y006979D01*
X013297Y006987D01*
X013296Y006987D01*
Y007000D01*
X013298Y007001D01*
X013310Y007009D01*
X013312Y007011D01*
X013392D01*
Y007131D01*
Y007257D01*
X013307D01*
X013307Y007257D01*
X013295Y007265D01*
X013282Y007267D01*
D02*
G37*
G36*
X007207Y007192D02*
X007202D01*
X007185Y007189D01*
X007171Y007179D01*
X007162Y007165D01*
X007158Y007148D01*
Y007113D01*
X007207D01*
Y007192D01*
D02*
G37*
G36*
X006696Y007104D02*
X006657D01*
Y007060D01*
X006672Y007063D01*
X006684Y007072D01*
X006693Y007084D01*
X006696Y007099D01*
Y007104D01*
D02*
G37*
G36*
X007494Y007140D02*
X007463Y007110D01*
X007490Y007083D01*
X007521Y007113D01*
X007494Y007140D01*
D02*
G37*
G36*
X006857Y007192D02*
X006852D01*
X006835Y007189D01*
X006821Y007179D01*
X006812Y007165D01*
X006808Y007148D01*
Y007113D01*
X006857D01*
Y007192D01*
D02*
G37*
G36*
X006657Y007174D02*
Y007130D01*
X006696D01*
Y007135D01*
X006693Y007150D01*
X006684Y007162D01*
X006672Y007171D01*
X006657Y007174D01*
D02*
G37*
G36*
X007606Y007453D02*
X007579Y007449D01*
X007554Y007439D01*
X007533Y007422D01*
X007516Y007401D01*
X007506Y007376D01*
X007502Y007349D01*
X007506Y007322D01*
X007516Y007297D01*
X007533Y007276D01*
X007554Y007260D01*
X007579Y007249D01*
X007606Y007246D01*
X007633Y007249D01*
X007658Y007260D01*
X007679Y007276D01*
X007696Y007297D01*
X007706Y007322D01*
X007710Y007349D01*
X007706Y007376D01*
X007696Y007401D01*
X007679Y007422D01*
X007658Y007439D01*
X007633Y007449D01*
X007606Y007453D01*
D02*
G37*
G36*
X005900Y007454D02*
X005874Y007450D01*
X005849Y007440D01*
X005827Y007423D01*
X005811Y007402D01*
X005800Y007377D01*
X005797Y007350D01*
X005800Y007323D01*
X005811Y007298D01*
X005827Y007277D01*
X005849Y007260D01*
X005874Y007250D01*
X005900Y007246D01*
X005927Y007250D01*
X005952Y007260D01*
X005974Y007277D01*
X005990Y007298D01*
X006000Y007323D01*
X006004Y007350D01*
X006000Y007377D01*
X005990Y007402D01*
X005974Y007423D01*
X005952Y007440D01*
X005927Y007450D01*
X005900Y007454D01*
D02*
G37*
G36*
X006086Y007319D02*
X006059Y007292D01*
X006090Y007261D01*
X006117Y007288D01*
X006086Y007319D01*
D02*
G37*
G36*
X012481Y007429D02*
X011694D01*
Y007201D01*
X012481D01*
Y007429D01*
D02*
G37*
G36*
X007543Y007189D02*
X007512Y007158D01*
X007539Y007131D01*
X007569Y007162D01*
X007543Y007189D01*
D02*
G37*
G36*
X013114Y007229D02*
X013100Y007226D01*
X013089Y007219D01*
X013087Y007217D01*
X013009D01*
Y007171D01*
X013086D01*
X013089Y007168D01*
X013100Y007160D01*
X013114Y007157D01*
X013128Y007160D01*
X013139Y007168D01*
X013147Y007180D01*
X013150Y007193D01*
X013147Y007207D01*
X013139Y007219D01*
X013128Y007226D01*
X013114Y007229D01*
D02*
G37*
G36*
X006201Y007245D02*
X006196D01*
Y007165D01*
X006245D01*
Y007201D01*
X006242Y007218D01*
X006233Y007232D01*
X006218Y007242D01*
X006201Y007245D01*
D02*
G37*
G36*
X006361Y007232D02*
X006326D01*
X006314Y007230D01*
X006304Y007223D01*
X006297Y007213D01*
X006295Y007201D01*
Y007104D01*
X006297Y007094D01*
X006287Y007087D01*
X006279Y007075D01*
X006276Y007061D01*
X006279Y007048D01*
X006279Y007047D01*
X006271Y007036D01*
X006250D01*
Y006956D01*
X006250Y006945D01*
X006239Y006945D01*
X006160D01*
X006160Y006945D01*
Y006945D01*
X006149Y006950D01*
X006145Y006952D01*
X006132Y006955D01*
X006126Y006954D01*
X006121Y006955D01*
X006077D01*
X006077Y006957D01*
X006071Y006965D01*
Y006968D01*
X006080Y006974D01*
X006089Y006987D01*
X006092Y007001D01*
D01*
X006035D01*
X005978D01*
X005981Y006987D01*
X005990Y006974D01*
X005999Y006968D01*
Y006965D01*
X005993Y006957D01*
X005991Y006947D01*
Y006921D01*
X005993Y006912D01*
X005999Y006903D01*
X006007Y006898D01*
X006017Y006896D01*
X006040D01*
X006041Y006895D01*
X006042Y006883D01*
X006040Y006882D01*
X006034Y006881D01*
X006022Y006873D01*
X006015Y006862D01*
X006012Y006848D01*
X006015Y006834D01*
X006022Y006822D01*
X006034Y006815D01*
X006048Y006812D01*
X006061Y006815D01*
X006073Y006822D01*
X006078Y006830D01*
X006102D01*
X006104Y006826D01*
X006107Y006818D01*
X006101Y006808D01*
X006098Y006794D01*
X006100Y006785D01*
X006043Y006728D01*
X006039Y006721D01*
X006037Y006713D01*
Y006535D01*
X006039Y006528D01*
X006043Y006521D01*
X006147Y006417D01*
Y006368D01*
X006113D01*
Y006327D01*
X006100D01*
Y006314D01*
X006034D01*
Y006286D01*
X006047D01*
Y006147D01*
Y006047D01*
X006147D01*
Y005947D01*
X006177D01*
X006182Y005935D01*
X006179Y005932D01*
X006178Y005930D01*
X006144Y005897D01*
X006138Y005895D01*
X006127Y005888D01*
X006119Y005876D01*
X006116Y005862D01*
X006119Y005849D01*
X006127Y005837D01*
X006135Y005832D01*
X006131Y005819D01*
X006089D01*
X006082Y005825D01*
X006082Y005826D01*
X006074Y005836D01*
X006082Y005843D01*
X006055Y005870D01*
X006016Y005831D01*
X005976Y005791D01*
X006003Y005764D01*
X006011Y005772D01*
X006020Y005765D01*
X006021Y005764D01*
X006033Y005752D01*
X006033Y005752D01*
X006044Y005736D01*
X006059Y005725D01*
X006060Y005725D01*
X006074Y005711D01*
X006085Y005722D01*
X006183D01*
X006183Y005722D01*
X006202Y005725D01*
X006218Y005736D01*
X006226Y005744D01*
X006236Y005760D01*
X006240Y005778D01*
X006236Y005797D01*
X006226Y005813D01*
X006210Y005823D01*
X006191Y005827D01*
X006182Y005825D01*
X006178Y005836D01*
X006177Y005837D01*
X006185Y005849D01*
X006188Y005862D01*
X006185Y005876D01*
X006184Y005878D01*
X006198Y005892D01*
X006212Y005888D01*
X006213Y005882D01*
X006220Y005870D01*
X006232Y005862D01*
X006246Y005859D01*
X006260Y005862D01*
X006271Y005870D01*
X006279Y005882D01*
X006282Y005895D01*
X006281Y005901D01*
X006290Y005910D01*
X006290Y005910D01*
X006292Y005914D01*
X006305Y005911D01*
Y005854D01*
X006300Y005853D01*
X006290Y005847D01*
X006284Y005838D01*
X006282Y005827D01*
Y005766D01*
X006284Y005755D01*
X006290Y005746D01*
X006300Y005739D01*
X006310Y005737D01*
X006341D01*
X006352Y005739D01*
X006361Y005746D01*
X006367Y005755D01*
X006369Y005766D01*
Y005827D01*
X006367Y005838D01*
X006361Y005847D01*
X006352Y005853D01*
X006346Y005854D01*
Y005947D01*
X006455D01*
Y006047D01*
X006527D01*
X006539Y006036D01*
X006538Y006030D01*
X006540Y006016D01*
X006548Y006005D01*
X006560Y005997D01*
X006574Y005994D01*
X006579Y005995D01*
X006602Y005972D01*
X006600Y005956D01*
X006599Y005955D01*
X006593Y005946D01*
X006591Y005935D01*
Y005905D01*
X006593Y005894D01*
X006599Y005885D01*
X006609Y005878D01*
X006620Y005876D01*
X006680D01*
X006691Y005878D01*
X006701Y005885D01*
X006707Y005894D01*
X006709Y005905D01*
Y005935D01*
X006707Y005946D01*
X006701Y005955D01*
X006691Y005962D01*
X006680Y005964D01*
X006667D01*
X006665Y005968D01*
X006622Y006010D01*
X006628Y006022D01*
X006632Y006021D01*
X006668D01*
X006678Y006023D01*
X006686Y006029D01*
X006692Y006037D01*
X006694Y006047D01*
Y006073D01*
X006692Y006083D01*
X006686Y006091D01*
Y006094D01*
X006695Y006100D01*
X006704Y006112D01*
X006707Y006127D01*
D01*
X006650D01*
Y006140D01*
D01*
Y006127D01*
X006593D01*
X006596Y006112D01*
X006605Y006100D01*
X006614Y006094D01*
Y006091D01*
X006608Y006083D01*
X006606Y006073D01*
Y006071D01*
X006594D01*
X006586Y006069D01*
X006579Y006065D01*
X006574Y006066D01*
X006568Y006065D01*
X006554Y006079D01*
Y006197D01*
Y006286D01*
X006567D01*
Y006314D01*
X006501D01*
Y006327D01*
X006488D01*
Y006368D01*
X006455D01*
Y006454D01*
X006424D01*
X006419Y006466D01*
X006482Y006529D01*
X006586D01*
Y006520D01*
X006588Y006509D01*
X006595Y006499D01*
X006604Y006493D01*
X006615Y006491D01*
X006645D01*
X006656Y006493D01*
X006665Y006499D01*
X006672Y006509D01*
X006674Y006520D01*
Y006580D01*
X006672Y006591D01*
X006665Y006601D01*
X006656Y006607D01*
X006645Y006609D01*
X006615D01*
X006604Y006607D01*
X006595Y006601D01*
X006588Y006591D01*
X006586Y006580D01*
Y006571D01*
X006474D01*
X006466Y006569D01*
X006459Y006565D01*
X006459Y006565D01*
X006362Y006467D01*
X006357Y006460D01*
X006356Y006455D01*
X006344Y006455D01*
X006342Y006458D01*
X006339Y006467D01*
X006345Y006476D01*
X006348Y006490D01*
X006345Y006503D01*
X006338Y006515D01*
Y006559D01*
X006336Y006567D01*
X006332Y006573D01*
X006312Y006593D01*
X006319Y006604D01*
X006367D01*
X006371Y006604D01*
X006380D01*
X006384Y006604D01*
X006432D01*
Y006591D01*
X006460D01*
Y006650D01*
X006473D01*
Y006663D01*
X006514D01*
Y006682D01*
X006533D01*
Y006722D01*
X006545D01*
Y006735D01*
X006604D01*
Y006747D01*
Y006775D01*
X006545D01*
Y006800D01*
X006604D01*
Y006812D01*
Y006840D01*
X006545D01*
Y006865D01*
X006604D01*
Y006877D01*
Y006905D01*
X006545D01*
Y006917D01*
X006533D01*
Y006958D01*
X006514D01*
Y006977D01*
X006473D01*
Y007003D01*
X006514D01*
Y007048D01*
X006467D01*
X006461Y007061D01*
X006465Y007066D01*
X006492D01*
X006500Y007068D01*
X006507Y007072D01*
X006517Y007082D01*
X006533Y007081D01*
X006541Y007075D01*
X006551Y007073D01*
X006577D01*
X006587Y007075D01*
X006603Y007072D01*
X006604Y007072D01*
X006616Y007063D01*
X006631Y007060D01*
Y007117D01*
Y007174D01*
X006616Y007171D01*
X006604Y007162D01*
X006603Y007162D01*
X006587Y007159D01*
X006577Y007161D01*
X006551D01*
X006541Y007159D01*
X006533Y007153D01*
X006527Y007145D01*
X006526Y007138D01*
X006523D01*
X006515Y007136D01*
X006508Y007132D01*
X006484Y007107D01*
X006452D01*
X006452Y007107D01*
X006444Y007106D01*
X006437Y007101D01*
X006437Y007101D01*
X006393Y007057D01*
X006389Y007051D01*
X006387Y007043D01*
X006382Y007038D01*
X006369Y007039D01*
X006363Y007047D01*
Y007074D01*
X006373Y007076D01*
X006383Y007082D01*
X006390Y007092D01*
X006392Y007104D01*
Y007201D01*
X006390Y007213D01*
X006383Y007223D01*
X006373Y007230D01*
X006361Y007232D01*
D02*
G37*
G36*
X006757Y006622D02*
X006755D01*
X006739Y006619D01*
X006725Y006610D01*
X006716Y006596D01*
X006713Y006580D01*
Y006563D01*
X006757D01*
Y006622D01*
D02*
G37*
G36*
X006514Y006637D02*
X006486D01*
Y006591D01*
X006514D01*
Y006637D01*
D02*
G37*
G36*
X006604Y006710D02*
X006558D01*
Y006682D01*
X006604D01*
Y006710D01*
D02*
G37*
G36*
X006757Y006537D02*
X006713D01*
Y006520D01*
X006716Y006504D01*
X006725Y006490D01*
X006739Y006481D01*
X006755Y006478D01*
X006757D01*
Y006537D01*
D02*
G37*
G36*
X012191Y006394D02*
X012174Y006390D01*
X012160Y006381D01*
X012151Y006367D01*
X012148Y006350D01*
X012151Y006333D01*
X012160Y006319D01*
X012174Y006310D01*
X012191Y006306D01*
X012208Y006310D01*
X012222Y006319D01*
X012231Y006333D01*
X012235Y006350D01*
X012231Y006367D01*
X012222Y006381D01*
X012208Y006390D01*
X012191Y006394D01*
D02*
G37*
G36*
X006087Y006368D02*
X006034D01*
Y006340D01*
X006087D01*
Y006368D01*
D02*
G37*
G36*
X006567D02*
X006513D01*
Y006340D01*
X006567D01*
Y006368D01*
D02*
G37*
G36*
X007437Y006797D02*
X007393D01*
X007396Y006782D01*
X007405Y006770D01*
X007417Y006761D01*
X007432Y006758D01*
X007437D01*
Y006797D01*
D02*
G37*
G36*
X007282Y007087D02*
X007233D01*
Y007008D01*
X007238D01*
X007255Y007011D01*
X007269Y007021D01*
X007278Y007035D01*
X007282Y007052D01*
Y007087D01*
D02*
G37*
G36*
X006042Y007274D02*
X006015Y007247D01*
X006022Y007239D01*
X006015Y007229D01*
X005961Y007176D01*
X005972Y007165D01*
X005975Y007147D01*
X005986Y007131D01*
X006038Y007078D01*
X006033Y007066D01*
X006017D01*
X006002Y007063D01*
X005990Y007054D01*
X005981Y007042D01*
X005978Y007027D01*
D01*
X006035D01*
X006092D01*
X006089Y007042D01*
X006084Y007049D01*
X006089Y007063D01*
X006096Y007064D01*
X006111Y007074D01*
X006115Y007080D01*
X006130D01*
X006135Y007073D01*
X006149Y007064D01*
X006166Y007060D01*
X006171D01*
Y007153D01*
Y007245D01*
X006166D01*
X006161Y007244D01*
X006135Y007270D01*
X006099Y007234D01*
X006090Y007243D01*
X006081Y007234D01*
X006042Y007274D01*
D02*
G37*
G36*
X006245Y007140D02*
X006196D01*
Y007060D01*
X006201D01*
X006218Y007064D01*
X006233Y007073D01*
X006242Y007088D01*
X006245Y007104D01*
Y007140D01*
D02*
G37*
G36*
X006932Y007087D02*
X006883D01*
Y007008D01*
X006888D01*
X006905Y007011D01*
X006919Y007021D01*
X006928Y007035D01*
X006932Y007052D01*
Y007087D01*
D02*
G37*
G36*
X013118Y006910D02*
X013105Y006907D01*
X013093Y006899D01*
X013091Y006897D01*
X013009D01*
Y006851D01*
X013091D01*
X013093Y006849D01*
X013105Y006841D01*
X013118Y006838D01*
X013132Y006841D01*
X013144Y006849D01*
X013151Y006860D01*
X013154Y006874D01*
X013151Y006888D01*
X013144Y006899D01*
X013132Y006907D01*
X013118Y006910D01*
D02*
G37*
G36*
X007346Y006892D02*
X007300D01*
Y006864D01*
X007346D01*
Y006892D01*
D02*
G37*
G36*
X006604Y006958D02*
X006558D01*
Y006930D01*
X006604D01*
Y006958D01*
D02*
G37*
%LPD*%
D10*
X006169Y006301D02*
D03*
Y006260D02*
D03*
Y006220D02*
D03*
Y006179D02*
D03*
Y006140D02*
D03*
Y006099D02*
D03*
X006431D02*
D03*
Y006140D02*
D03*
Y006179D02*
D03*
Y006220D02*
D03*
Y006260D02*
D03*
Y006301D02*
D03*
D11*
X006199Y006069D02*
D03*
X006239D02*
D03*
X006279D02*
D03*
X006319D02*
D03*
X006360D02*
D03*
X006400D02*
D03*
Y006332D02*
D03*
X006360D02*
D03*
X006319D02*
D03*
X006279D02*
D03*
X006239D02*
D03*
X006199D02*
D03*
D12*
X006100Y006327D02*
D03*
Y006276D02*
D03*
Y006225D02*
D03*
Y006175D02*
D03*
Y006125D02*
D03*
Y006075D02*
D03*
X006501D02*
D03*
Y006125D02*
D03*
Y006175D02*
D03*
Y006225D02*
D03*
Y006276D02*
D03*
Y006327D02*
D03*
D13*
X006175Y006000D02*
D03*
X006225D02*
D03*
X006275D02*
D03*
X006325D02*
D03*
X006376D02*
D03*
X006427D02*
D03*
Y006401D02*
D03*
X006376D02*
D03*
X006325D02*
D03*
X006275D02*
D03*
X006225D02*
D03*
X006175D02*
D03*
D14*
X007286Y006467D02*
D03*
X007508Y006563D02*
D03*
Y006372D02*
D03*
D15*
X007442Y006154D02*
D03*
Y006053D02*
D03*
D16*
X007482Y005827D02*
D03*
X007411Y005756D02*
D03*
X006019Y007172D02*
D03*
X006090Y007243D02*
D03*
D17*
X007423Y007230D02*
D03*
X007494Y007158D02*
D03*
X006078Y005768D02*
D03*
X006007Y005840D02*
D03*
D18*
X006650Y006140D02*
D03*
Y006060D02*
D03*
X006850Y006732D02*
D03*
Y006812D02*
D03*
X007450Y006810D02*
D03*
Y006890D02*
D03*
X006035Y007014D02*
D03*
Y006934D02*
D03*
X012900Y005740D02*
D03*
Y005660D02*
D03*
D19*
X006650Y005780D02*
D03*
Y005920D02*
D03*
D20*
X006466Y005796D02*
D03*
X006326D02*
D03*
X006770Y006550D02*
D03*
X006630D02*
D03*
D21*
X007380Y007100D02*
D03*
X007220D02*
D03*
X006344Y007153D02*
D03*
X006184D02*
D03*
X012826Y005560D02*
D03*
X012666D02*
D03*
X007030Y007100D02*
D03*
X006870D02*
D03*
D22*
X006644Y007117D02*
D03*
X006564D02*
D03*
X006990Y005900D02*
D03*
X006910D02*
D03*
D23*
X013056Y007274D02*
D03*
Y006834D02*
D03*
X013344Y007274D02*
D03*
Y006834D02*
D03*
Y006874D02*
D03*
Y006914D02*
D03*
Y006954D02*
D03*
Y006994D02*
D03*
Y007034D02*
D03*
X013056Y006874D02*
D03*
Y006914D02*
D03*
Y006954D02*
D03*
Y006994D02*
D03*
Y007034D02*
D03*
Y007234D02*
D03*
Y007194D02*
D03*
Y007154D02*
D03*
Y007114D02*
D03*
Y007074D02*
D03*
X013344Y007234D02*
D03*
Y007194D02*
D03*
Y007154D02*
D03*
Y007114D02*
D03*
Y007074D02*
D03*
D24*
X006205Y006917D02*
D03*
Y006852D02*
D03*
Y006787D02*
D03*
Y006722D02*
D03*
X006545D02*
D03*
Y006787D02*
D03*
Y006852D02*
D03*
Y006917D02*
D03*
X007287Y006852D02*
D03*
Y006801D02*
D03*
Y006750D02*
D03*
Y006700D02*
D03*
Y006650D02*
D03*
X007013D02*
D03*
Y006700D02*
D03*
Y006750D02*
D03*
Y006801D02*
D03*
Y006852D02*
D03*
D25*
X006278Y006650D02*
D03*
X006343D02*
D03*
X006408D02*
D03*
X006473D02*
D03*
Y006990D02*
D03*
X006408D02*
D03*
X006343D02*
D03*
X006278D02*
D03*
X007100Y006887D02*
D03*
X007150D02*
D03*
X007201D02*
D03*
Y006613D02*
D03*
X007150D02*
D03*
X007100D02*
D03*
D26*
X006912Y006090D02*
D03*
X007036D02*
D03*
X007162D02*
D03*
X007288D02*
D03*
Y006312D02*
D03*
X007162D02*
D03*
X007036D02*
D03*
X006912D02*
D03*
D27*
X006427Y006303D02*
X006452Y006327D01*
X006397Y006296D02*
X006403Y006301D01*
X006431D01*
X006389Y006296D02*
X006397D01*
X006356Y006328D02*
X006389Y006296D01*
X006165Y006303D02*
X006183D01*
X006199Y006134D02*
X006216Y006118D01*
X006199Y006134D02*
Y006287D01*
X006210Y006101D02*
X006216Y006107D01*
Y006118D01*
X006183Y006303D02*
X006199Y006287D01*
X006225Y006089D02*
Y006101D01*
Y006089D02*
X006229Y006085D01*
Y006077D02*
Y006085D01*
Y006077D02*
X006235Y006071D01*
X006275Y006295D02*
Y006333D01*
X006225Y006401D02*
X006225Y006401D01*
X006235Y006333D02*
Y006390D01*
X006225Y006401D02*
X006235Y006390D01*
X006175Y006353D02*
X006195Y006333D01*
X006175Y006353D02*
Y006401D01*
X006275Y006000D02*
X006275Y006000D01*
Y006071D01*
X006316D02*
X006325Y006061D01*
Y006000D02*
Y006061D01*
X006397Y006124D02*
Y006296D01*
X006356Y006083D02*
X006397Y006124D01*
X006356Y006071D02*
Y006083D01*
Y006328D02*
Y006333D01*
X006452Y006327D02*
X006501D01*
X006453Y006075D02*
X006501D01*
X006427Y006101D02*
X006453Y006075D01*
D28*
X006225Y006401D02*
Y006555D01*
X006236Y006566D01*
X006137Y006584D02*
X006154Y006566D01*
X007287Y006801D02*
X007338D01*
X007302Y006715D02*
X007351D01*
X007368Y006732D01*
X007287Y006700D02*
X007302Y006715D01*
X005961Y005789D02*
X006051Y005699D01*
X005961Y005789D02*
Y006689D01*
X005950Y006700D02*
X005961Y006689D01*
X005950Y006700D02*
Y006800D01*
Y006900D01*
Y007000D01*
Y007100D01*
Y007200D01*
X006050Y007300D01*
X006050D01*
X006150D01*
X006250D01*
X006350D01*
X006450D01*
X006550D01*
X006650D01*
X006750D01*
X006850D01*
X006950D01*
X007050D01*
X007150D01*
X007250D01*
X007350D01*
X007450D01*
X007550Y007200D01*
Y007100D02*
Y007200D01*
Y007000D02*
Y007100D01*
Y006900D02*
Y007000D01*
Y006900D02*
X007561Y006889D01*
X007350Y005699D02*
X007452D01*
X006051D02*
X007350D01*
X007407Y005756D01*
X007411D01*
X007325Y005893D02*
X007366D01*
X007442Y005969D01*
Y006053D01*
X007039Y005911D02*
X007250Y005700D01*
X007442Y006154D02*
X007508Y006220D01*
Y006372D01*
X007217Y006613D02*
X007264Y006566D01*
Y006553D02*
Y006566D01*
Y006553D02*
X007291D01*
X007394Y006312D02*
X007415Y006291D01*
X007287Y006312D02*
X007394D01*
X007552Y005799D02*
Y005911D01*
X007452Y005699D02*
X007552Y005799D01*
X006840Y006599D02*
X006921Y006680D01*
X006840Y006384D02*
Y006599D01*
Y006384D02*
X006912Y006312D01*
X012724Y005488D02*
X012746Y005509D01*
X012724Y005458D02*
Y005488D01*
X012500Y005250D02*
Y005500D01*
X013056Y006874D02*
X013118D01*
X013285D02*
X013344D01*
X013056Y007114D02*
X013065Y007122D01*
X013213D01*
X013057Y007033D02*
X013226D01*
X013056Y007034D02*
X013057Y007033D01*
X013057Y006955D02*
X013226D01*
X013056Y006954D02*
X013057Y006955D01*
X013284Y006954D02*
X013344D01*
X013414Y006848D02*
Y007259D01*
X013398Y006914D02*
X013409Y006904D01*
X013344Y006914D02*
X013398D01*
X013285Y007034D02*
X013344D01*
X013113Y007194D02*
X013114Y007193D01*
X007003Y006852D02*
X007013D01*
X006913Y006942D02*
X007003Y006852D01*
X006767Y006942D02*
X006913D01*
X007039Y005911D02*
X007074D01*
X013279Y007229D02*
X013282Y007231D01*
X013342D01*
X013285Y007094D02*
X013324D01*
X013344Y007074D01*
X013056Y007194D02*
X013113D01*
X013400Y006834D02*
X013409Y006843D01*
X013344Y006834D02*
X013400D01*
X012890Y005760D02*
Y005801D01*
Y005760D02*
X012900Y005751D01*
X006408Y006990D02*
Y007043D01*
X006452Y007087D01*
X006921Y006680D02*
X006941Y006700D01*
X013399Y007274D02*
X013414Y007259D01*
X013344Y007274D02*
X013399D01*
X013344Y006994D02*
X013397D01*
X013409Y006982D01*
Y006843D02*
Y006904D01*
X013342Y007231D02*
X013344Y007234D01*
Y007194D02*
Y007234D01*
Y007154D02*
Y007194D01*
Y007114D02*
Y007154D01*
Y007074D02*
Y007114D01*
X007135Y006598D02*
Y006598D01*
Y006572D02*
Y006598D01*
X007070Y006533D02*
X007097Y006560D01*
X007069Y006532D02*
X007070Y006533D01*
X007070D01*
X007069D02*
X007070D01*
X007135Y006598D02*
X007150Y006613D01*
X007124Y006560D02*
X007135Y006572D01*
X007097Y006560D02*
X007124D01*
X007069Y006405D02*
Y006532D01*
Y006405D02*
X007162Y006312D01*
X007135Y006598D02*
X007150Y006613D01*
X007097Y006560D02*
X007124D01*
X007070Y006533D02*
X007097Y006560D01*
X007007Y006601D02*
X007103D01*
X007007Y006588D02*
Y006601D01*
X007000Y006581D02*
X007007Y006588D01*
X007000Y006498D02*
Y006581D01*
X006991Y006628D02*
X007013Y006650D01*
X006989Y006628D02*
X006991D01*
X006973Y006612D02*
X006989Y006628D01*
X006973Y006610D02*
Y006612D01*
X006966Y006464D02*
X007000Y006498D01*
X006966Y006464D02*
X007037Y006394D01*
X006957Y006609D02*
X006975D01*
X006121Y006934D02*
X006137Y006919D01*
X006035Y006934D02*
X006121D01*
X006124Y007031D02*
X006140Y007014D01*
X006035D02*
X006140D01*
X006048Y006851D02*
X006213D01*
X006317Y006490D02*
Y006559D01*
X006474Y006550D02*
X006625D01*
X006376Y006452D02*
X006474Y006550D01*
X006376Y006401D02*
Y006452D01*
X006058Y006713D02*
X006126Y006782D01*
X006058Y006535D02*
Y006713D01*
Y006535D02*
X006175Y006418D01*
X006134Y006566D02*
X006154D01*
X006137Y006919D02*
X006205D01*
X006276Y006990D02*
X006278D01*
X006343D01*
X006492Y007087D02*
X006523Y007117D01*
X006452Y007087D02*
X006492D01*
X006359Y007121D02*
Y007153D01*
X006343Y007105D02*
X006359Y007121D01*
X006195Y006782D02*
X006203Y006790D01*
X006126Y006782D02*
X006195D01*
X006137Y006654D02*
X006205Y006722D01*
X006278Y006598D02*
Y006650D01*
X006941Y006700D02*
X007013D01*
X006880Y006750D02*
X007013D01*
X006850Y006721D02*
X006880Y006750D01*
X006782Y006556D02*
Y006617D01*
X006776Y006550D02*
X006782Y006556D01*
X006137Y006584D02*
Y006654D01*
X006278Y006598D02*
X006317Y006559D01*
X006027Y006342D02*
X006043Y006327D01*
X006100D01*
X006604D02*
X006604Y006327D01*
X006501Y006327D02*
X006604D01*
X006650Y006216D02*
X006652Y006218D01*
X006650Y006151D02*
Y006216D01*
X006886Y005977D02*
X006912Y006003D01*
Y006090D01*
X006886Y005977D02*
X006900Y005963D01*
Y005900D02*
Y005963D01*
X006574Y006030D02*
X006650Y005953D01*
Y005925D02*
Y005953D01*
X006574Y006030D02*
X006594Y006050D01*
X006650D01*
X006528Y006075D02*
X006574Y006030D01*
X006501Y006075D02*
X006528D01*
X007037Y006090D02*
X007162D01*
X006713Y005774D02*
X006713Y005773D01*
X006650Y005774D02*
X006713D01*
X006472Y005796D02*
Y005885D01*
X006152Y005875D02*
X006193Y005917D01*
Y005917D02*
X006225Y005949D01*
Y006000D01*
X006193Y005917D02*
Y005917D01*
X006321Y005796D02*
X006325Y005801D01*
Y006000D01*
X006275Y005924D02*
Y006000D01*
X006246Y005895D02*
X006275Y005924D01*
X006175Y006401D02*
Y006418D01*
X007201Y006613D02*
X007217D01*
X007473Y006962D02*
Y007022D01*
X007395Y007100D02*
X007473Y007022D01*
X007258Y006944D02*
X007259D01*
X007201Y006887D02*
X007258Y006944D01*
X007037Y006312D02*
Y006394D01*
X006523Y007117D02*
X006554D01*
X006705D02*
X006755D01*
X006706Y007079D02*
Y007117D01*
X006705Y007117D02*
X006706Y007117D01*
X006655Y007117D02*
X006705D01*
X006755D02*
X006772Y007100D01*
X006853D01*
X006124Y007031D02*
X006167Y007074D01*
Y007153D01*
X007045Y007100D02*
X007153Y006993D01*
Y006942D02*
Y006993D01*
X007150Y006940D02*
X007153Y006942D01*
X007150Y006887D02*
Y006940D01*
X007100Y006887D02*
Y006964D01*
X007287Y006852D02*
X007338Y006801D01*
X007473Y006923D02*
Y006962D01*
X007450Y006900D02*
X007473Y006923D01*
X010250Y007500D02*
Y007750D01*
Y007500D02*
X010500D01*
X010250Y005250D02*
X010500D01*
Y005000D02*
Y005250D01*
Y005000D02*
X012750D01*
X013000Y005250D01*
X012500D02*
X013000D01*
X010500D02*
X012500D01*
X010250D02*
Y005500D01*
X012500D01*
X010750Y007500D02*
X011000D01*
X011250D01*
X011500D01*
X011750D01*
X012000D01*
X012250D01*
X012500D01*
X010500Y007750D02*
X012750D01*
X010500Y007500D02*
Y007750D01*
X010250D02*
X010500D01*
Y008000D01*
X010750D01*
X011000D01*
X011250D01*
X011500D01*
X011750D01*
X012000D01*
X012250D01*
X012500D01*
X012750D01*
X010396Y007962D02*
X010434Y008000D01*
X006853Y006801D02*
X007013D01*
X006852Y006802D02*
X006853Y006801D01*
X006850Y006802D02*
X006852D01*
X007011Y005911D02*
X007074D01*
X007550Y006000D02*
Y006100D01*
Y005900D02*
Y006000D01*
X012746Y005509D02*
X012753Y005503D01*
X012900Y005650D01*
X006312Y007061D02*
X006343D01*
Y006990D02*
Y007061D01*
Y007105D01*
D29*
X007546Y006695D02*
Y006788D01*
X007529Y006679D02*
X007546Y006695D01*
X007529Y006584D02*
Y006679D01*
X007508Y006563D02*
X007529Y006584D01*
X006078Y005770D02*
X006183D01*
X006191Y005778D01*
X007480Y005827D02*
Y005910D01*
X007477Y005912D02*
X007480Y005910D01*
X006020Y007165D02*
X006077Y007109D01*
X007315Y007230D02*
X007423D01*
X007312Y007232D02*
X007315Y007230D01*
X007384Y006642D02*
X007435Y006694D01*
X007384Y006544D02*
Y006642D01*
X007306Y006467D02*
X007384Y006544D01*
X007286Y006467D02*
X007306D01*
D30*
X010396Y007881D02*
Y007962D01*
X010328Y007813D02*
X010396Y007881D01*
X010298Y007813D02*
X010328D01*
X010253Y007768D02*
X010298Y007813D01*
X010240Y007782D02*
X010253Y007768D01*
X010112Y007782D02*
X010240D01*
X010058Y007836D02*
X010112Y007782D01*
X010200Y008000D02*
X010434D01*
X010500D01*
D31*
X011732Y007239D02*
Y007391D01*
X011808D01*
X011834Y007366D01*
Y007315D01*
X011808Y007290D01*
X011732D01*
X011783D02*
X011834Y007239D01*
X011986Y007391D02*
X011885D01*
Y007239D01*
X011986D01*
X011885Y007315D02*
X011935D01*
X012037Y007391D02*
Y007290D01*
X012088Y007239D01*
X012139Y007290D01*
Y007391D01*
X012443D02*
X012342D01*
Y007239D01*
X012443D01*
X012342Y007315D02*
X012392D01*
D32*
X005900Y007350D02*
D03*
X007606Y007349D02*
D03*
Y005650D02*
D03*
X005900Y005651D02*
D03*
D33*
X013200Y008000D02*
D03*
X010200Y005000D02*
D03*
Y008000D02*
D03*
X013200Y005000D02*
D03*
D34*
X006216Y006118D02*
D03*
X006275Y006295D02*
D03*
X007546Y006788D02*
D03*
X007347Y006808D02*
D03*
X006191Y005778D02*
D03*
X007477Y005912D02*
D03*
X006077Y007109D02*
D03*
X007312Y007232D02*
D03*
X007435Y006694D02*
D03*
X007368Y006732D02*
D03*
X005950Y005900D02*
D03*
Y006000D02*
D03*
Y006100D02*
D03*
Y006200D02*
D03*
Y006300D02*
D03*
Y006400D02*
D03*
Y006500D02*
D03*
Y006600D02*
D03*
Y006700D02*
D03*
Y006800D02*
D03*
Y006900D02*
D03*
Y007000D02*
D03*
Y007100D02*
D03*
Y007200D02*
D03*
X006050Y007300D02*
D03*
X006150D02*
D03*
X006250D02*
D03*
X006350D02*
D03*
X006450D02*
D03*
X006550D02*
D03*
X006650D02*
D03*
X006750D02*
D03*
X006850D02*
D03*
X006950D02*
D03*
X007050D02*
D03*
X007150D02*
D03*
X007250D02*
D03*
X007350D02*
D03*
X007450D02*
D03*
X007550Y007200D02*
D03*
Y007100D02*
D03*
Y007000D02*
D03*
Y006900D02*
D03*
X007291Y006553D02*
D03*
X007415Y006291D02*
D03*
X006050Y005700D02*
D03*
X006840Y006414D02*
D03*
X013395Y007381D02*
D03*
X013295D02*
D03*
X013199D02*
D03*
X013100D02*
D03*
X013005D02*
D03*
X012309Y005613D02*
D03*
X012248Y005478D02*
D03*
X012497Y005466D02*
D03*
X012724Y005458D02*
D03*
X013118Y006874D02*
D03*
X013285D02*
D03*
X013213Y007122D02*
D03*
X013226Y007033D02*
D03*
Y006955D02*
D03*
X013284Y006954D02*
D03*
X013285Y007034D02*
D03*
X013114Y007193D02*
D03*
X013285Y007094D02*
D03*
X012890Y005801D02*
D03*
X006952Y006604D02*
D03*
X006921Y006680D02*
D03*
X006966Y006464D02*
D03*
X007473Y006962D02*
D03*
X006706Y007079D02*
D03*
X007069Y006533D02*
D03*
X006048Y006848D02*
D03*
X006134Y006794D02*
D03*
X006312Y006490D02*
D03*
X006134Y006566D02*
D03*
X006312Y007061D02*
D03*
X006550Y005700D02*
D03*
X006750D02*
D03*
X013250Y005500D02*
D03*
X006132Y006919D02*
D03*
X006782Y006617D02*
D03*
X006604Y006327D02*
D03*
X006236Y006566D02*
D03*
X006152Y005862D02*
D03*
X006652Y006218D02*
D03*
X006886Y005977D02*
D03*
X006574Y006030D02*
D03*
X006713Y005773D02*
D03*
X006472Y005885D02*
D03*
X006246Y005895D02*
D03*
X007259Y006944D02*
D03*
X006124Y007031D02*
D03*
X007100Y006964D02*
D03*
X010250Y007500D02*
D03*
X010500D02*
D03*
X012000Y005250D02*
D03*
X012250D02*
D03*
X011500D02*
D03*
X011250D02*
D03*
X011750D02*
D03*
X011000D02*
D03*
X010750D02*
D03*
X010500D02*
D03*
X012250Y005000D02*
D03*
X012000D02*
D03*
X011750D02*
D03*
X012500D02*
D03*
X011250D02*
D03*
X011500D02*
D03*
X010750D02*
D03*
X010500D02*
D03*
X011000D02*
D03*
X012750D02*
D03*
X013000Y005250D02*
D03*
X012750D02*
D03*
X012500D02*
D03*
X012000Y005500D02*
D03*
X011500D02*
D03*
X011250D02*
D03*
X010750D02*
D03*
X011000D02*
D03*
X011750D02*
D03*
X010500D02*
D03*
X010250D02*
D03*
X010750Y007500D02*
D03*
X011000D02*
D03*
X011250D02*
D03*
X011500D02*
D03*
X011750D02*
D03*
X012000D02*
D03*
X012250D02*
D03*
X012500D02*
D03*
X012750Y007750D02*
D03*
X012500D02*
D03*
X012250D02*
D03*
X012000D02*
D03*
X011750D02*
D03*
X011500D02*
D03*
X011250D02*
D03*
X011000D02*
D03*
X010750D02*
D03*
X010500D02*
D03*
X012750Y008000D02*
D03*
X012500D02*
D03*
X012250D02*
D03*
X012000D02*
D03*
X011750D02*
D03*
X011500D02*
D03*
X011250D02*
D03*
X011000D02*
D03*
X010750D02*
D03*
X010500D02*
D03*
X006642Y006909D02*
D03*
Y006756D02*
D03*
X013282Y007231D02*
D03*
X007074Y005911D02*
D03*
X006650Y005700D02*
D03*
X006450D02*
D03*
X006350D02*
D03*
X006250D02*
D03*
X006150D02*
D03*
X005950Y005800D02*
D03*
X007550Y006100D02*
D03*
Y006000D02*
D03*
Y005900D02*
D03*
Y005800D02*
D03*
X007450Y005700D02*
D03*
X007350D02*
D03*
X007250D02*
D03*
X007150D02*
D03*
X007050D02*
D03*
X006950D02*
D03*
X006850D02*
D03*
D35*
X007325Y005893D02*
D03*
X006767Y006942D02*
D03*
D36*
X012446Y006083D02*
D03*
X012192Y005835D02*
D03*
X012443Y005835D02*
D03*
X012191Y006350D02*
D03*
X012443Y006600D02*
D03*
X012192Y006088D02*
D03*
X011938Y006093D02*
D03*
Y005835D02*
D03*
Y006350D02*
D03*
M02*
