G04 Layer_Color=255*
%FSAX42Y42*%
%MOMM*%
G71*
G01*
G75*
G04:AMPARAMS|DCode=10|XSize=0.23mm|YSize=0.23mm|CornerRadius=0.06mm|HoleSize=0mm|Usage=FLASHONLY|Rotation=180.000|XOffset=0mm|YOffset=0mm|HoleType=Round|Shape=RoundedRectangle|*
%AMROUNDEDRECTD10*
21,1,0.23,0.11,0,0,180.0*
21,1,0.11,0.23,0,0,180.0*
1,1,0.11,-0.06,0.06*
1,1,0.11,0.06,0.06*
1,1,0.11,0.06,-0.06*
1,1,0.11,-0.06,-0.06*
%
%ADD10ROUNDEDRECTD10*%
G04:AMPARAMS|DCode=11|XSize=0.23mm|YSize=0.23mm|CornerRadius=0.06mm|HoleSize=0mm|Usage=FLASHONLY|Rotation=90.000|XOffset=0mm|YOffset=0mm|HoleType=Round|Shape=RoundedRectangle|*
%AMROUNDEDRECTD11*
21,1,0.23,0.11,0,0,90.0*
21,1,0.11,0.23,0,0,90.0*
1,1,0.11,0.06,0.06*
1,1,0.11,0.06,-0.06*
1,1,0.11,-0.06,-0.06*
1,1,0.11,-0.06,0.06*
%
%ADD11ROUNDEDRECTD11*%
%ADD12R,0.81X0.30*%
%ADD13R,0.30X0.81*%
%ADD14R,1.42X1.02*%
%ADD15R,0.61X0.51*%
G04:AMPARAMS|DCode=16|XSize=0.51mm|YSize=0.61mm|CornerRadius=0mm|HoleSize=0mm|Usage=FLASHONLY|Rotation=225.000|XOffset=0mm|YOffset=0mm|HoleType=Round|Shape=Rectangle|*
%AMROTATEDRECTD16*
4,1,4,-0.04,0.40,0.40,-0.04,0.04,-0.40,-0.40,0.04,-0.04,0.40,0.0*
%
%ADD16ROTATEDRECTD16*%

G04:AMPARAMS|DCode=17|XSize=0.51mm|YSize=0.61mm|CornerRadius=0mm|HoleSize=0mm|Usage=FLASHONLY|Rotation=315.000|XOffset=0mm|YOffset=0mm|HoleType=Round|Shape=Rectangle|*
%AMROTATEDRECTD17*
4,1,4,-0.40,-0.04,0.04,0.40,0.40,0.04,-0.04,-0.40,-0.40,-0.04,0.0*
%
%ADD17ROTATEDRECTD17*%

G04:AMPARAMS|DCode=18|XSize=0.51mm|YSize=0.61mm|CornerRadius=0.13mm|HoleSize=0mm|Usage=FLASHONLY|Rotation=90.000|XOffset=0mm|YOffset=0mm|HoleType=Round|Shape=RoundedRectangle|*
%AMROUNDEDRECTD18*
21,1,0.51,0.36,0,0,90.0*
21,1,0.25,0.61,0,0,90.0*
1,1,0.25,0.18,0.13*
1,1,0.25,0.18,-0.13*
1,1,0.25,-0.18,-0.13*
1,1,0.25,-0.18,0.13*
%
%ADD18ROUNDEDRECTD18*%
G04:AMPARAMS|DCode=19|XSize=0.61mm|YSize=0.91mm|CornerRadius=0.15mm|HoleSize=0mm|Usage=FLASHONLY|Rotation=270.000|XOffset=0mm|YOffset=0mm|HoleType=Round|Shape=RoundedRectangle|*
%AMROUNDEDRECTD19*
21,1,0.61,0.61,0,0,270.0*
21,1,0.30,0.91,0,0,270.0*
1,1,0.30,-0.30,-0.15*
1,1,0.30,-0.30,0.15*
1,1,0.30,0.30,0.15*
1,1,0.30,0.30,-0.15*
%
%ADD19ROUNDEDRECTD19*%
G04:AMPARAMS|DCode=20|XSize=0.61mm|YSize=0.91mm|CornerRadius=0.15mm|HoleSize=0mm|Usage=FLASHONLY|Rotation=0.000|XOffset=0mm|YOffset=0mm|HoleType=Round|Shape=RoundedRectangle|*
%AMROUNDEDRECTD20*
21,1,0.61,0.61,0,0,0.0*
21,1,0.30,0.91,0,0,0.0*
1,1,0.30,0.15,-0.30*
1,1,0.30,-0.15,-0.30*
1,1,0.30,-0.15,0.30*
1,1,0.30,0.15,0.30*
%
%ADD20ROUNDEDRECTD20*%
G04:AMPARAMS|DCode=21|XSize=0.71mm|YSize=1.32mm|CornerRadius=0.18mm|HoleSize=0mm|Usage=FLASHONLY|Rotation=180.000|XOffset=0mm|YOffset=0mm|HoleType=Round|Shape=RoundedRectangle|*
%AMROUNDEDRECTD21*
21,1,0.71,0.97,0,0,180.0*
21,1,0.36,1.32,0,0,180.0*
1,1,0.36,-0.18,0.48*
1,1,0.36,0.18,0.48*
1,1,0.36,0.18,-0.48*
1,1,0.36,-0.18,-0.48*
%
%ADD21ROUNDEDRECTD21*%
G04:AMPARAMS|DCode=22|XSize=0.51mm|YSize=0.61mm|CornerRadius=0.13mm|HoleSize=0mm|Usage=FLASHONLY|Rotation=0.000|XOffset=0mm|YOffset=0mm|HoleType=Round|Shape=RoundedRectangle|*
%AMROUNDEDRECTD22*
21,1,0.51,0.36,0,0,0.0*
21,1,0.25,0.61,0,0,0.0*
1,1,0.25,0.13,-0.18*
1,1,0.25,-0.13,-0.18*
1,1,0.25,-0.13,0.18*
1,1,0.25,0.13,0.18*
%
%ADD22ROUNDEDRECTD22*%
%ADD23R,0.70X0.20*%
%ADD24R,0.66X0.30*%
%ADD25R,0.30X0.66*%
%ADD26R,0.61X1.12*%
%ADD32C,1.80*%
%ADD33C,4.10*%
D10*
X006169Y006301D02*
D03*
Y006260D02*
D03*
Y006220D02*
D03*
Y006179D02*
D03*
Y006140D02*
D03*
Y006099D02*
D03*
X006431D02*
D03*
Y006140D02*
D03*
Y006179D02*
D03*
Y006220D02*
D03*
Y006260D02*
D03*
Y006301D02*
D03*
D11*
X006199Y006069D02*
D03*
X006239D02*
D03*
X006279D02*
D03*
X006319D02*
D03*
X006360D02*
D03*
X006400D02*
D03*
Y006332D02*
D03*
X006360D02*
D03*
X006319D02*
D03*
X006279D02*
D03*
X006239D02*
D03*
X006199D02*
D03*
D12*
X006100Y006327D02*
D03*
Y006276D02*
D03*
Y006225D02*
D03*
Y006175D02*
D03*
Y006125D02*
D03*
Y006075D02*
D03*
X006501D02*
D03*
Y006125D02*
D03*
Y006175D02*
D03*
Y006225D02*
D03*
Y006276D02*
D03*
Y006327D02*
D03*
D13*
X006175Y006000D02*
D03*
X006225D02*
D03*
X006275D02*
D03*
X006325D02*
D03*
X006376D02*
D03*
X006427D02*
D03*
Y006401D02*
D03*
X006376D02*
D03*
X006325D02*
D03*
X006275D02*
D03*
X006225D02*
D03*
X006175D02*
D03*
D14*
X007286Y006467D02*
D03*
X007508Y006563D02*
D03*
Y006372D02*
D03*
D15*
X007442Y006154D02*
D03*
Y006053D02*
D03*
D16*
X007482Y005827D02*
D03*
X007411Y005756D02*
D03*
X006019Y007172D02*
D03*
X006090Y007243D02*
D03*
D17*
X007423Y007230D02*
D03*
X007494Y007158D02*
D03*
X006078Y005768D02*
D03*
X006007Y005840D02*
D03*
D18*
X006650Y006140D02*
D03*
Y006060D02*
D03*
X006850Y006732D02*
D03*
Y006812D02*
D03*
X007450Y006810D02*
D03*
Y006890D02*
D03*
X006035Y007014D02*
D03*
Y006934D02*
D03*
X012900Y005740D02*
D03*
Y005660D02*
D03*
D19*
X006650Y005780D02*
D03*
Y005920D02*
D03*
D20*
X006466Y005796D02*
D03*
X006326D02*
D03*
X006770Y006550D02*
D03*
X006630D02*
D03*
D21*
X007380Y007100D02*
D03*
X007220D02*
D03*
X006344Y007153D02*
D03*
X006184D02*
D03*
X012826Y005560D02*
D03*
X012666D02*
D03*
X007030Y007100D02*
D03*
X006870D02*
D03*
D22*
X006644Y007117D02*
D03*
X006564D02*
D03*
X006990Y005900D02*
D03*
X006910D02*
D03*
D23*
X013056Y007274D02*
D03*
Y006834D02*
D03*
X013344Y007274D02*
D03*
Y006834D02*
D03*
Y006874D02*
D03*
Y006914D02*
D03*
Y006954D02*
D03*
Y006994D02*
D03*
Y007034D02*
D03*
X013056Y006874D02*
D03*
Y006914D02*
D03*
Y006954D02*
D03*
Y006994D02*
D03*
Y007034D02*
D03*
Y007234D02*
D03*
Y007194D02*
D03*
Y007154D02*
D03*
Y007114D02*
D03*
Y007074D02*
D03*
X013344Y007234D02*
D03*
Y007194D02*
D03*
Y007154D02*
D03*
Y007114D02*
D03*
Y007074D02*
D03*
D24*
X006205Y006917D02*
D03*
Y006852D02*
D03*
Y006787D02*
D03*
Y006722D02*
D03*
X006545D02*
D03*
Y006787D02*
D03*
Y006852D02*
D03*
Y006917D02*
D03*
X007287Y006852D02*
D03*
Y006801D02*
D03*
Y006750D02*
D03*
Y006700D02*
D03*
Y006650D02*
D03*
X007013D02*
D03*
Y006700D02*
D03*
Y006750D02*
D03*
Y006801D02*
D03*
Y006852D02*
D03*
D25*
X006278Y006650D02*
D03*
X006343D02*
D03*
X006408D02*
D03*
X006473D02*
D03*
Y006990D02*
D03*
X006408D02*
D03*
X006343D02*
D03*
X006278D02*
D03*
X007100Y006887D02*
D03*
X007150D02*
D03*
X007201D02*
D03*
Y006613D02*
D03*
X007150D02*
D03*
X007100D02*
D03*
D26*
X006912Y006090D02*
D03*
X007036D02*
D03*
X007162D02*
D03*
X007288D02*
D03*
Y006312D02*
D03*
X007162D02*
D03*
X007036D02*
D03*
X006912D02*
D03*
D32*
X005900Y007350D02*
D03*
X007606Y007349D02*
D03*
Y005650D02*
D03*
X005900Y005651D02*
D03*
D33*
X013200Y008000D02*
D03*
X010200Y005000D02*
D03*
Y008000D02*
D03*
X013200Y005000D02*
D03*
M02*
