M48
;Layer_Color=9474304
;FILE_FORMAT=4:2
METRIC,LZ
;TYPE=PLATED
T1F00S00C0.20
T2F00S00C1.00
T3F00S00C2.65
%
T01
X012Y005
X01225
X0125
Y00525
X012497Y005466
X012724Y005458
X01275Y00525
X013
X01275Y005
X01225Y00525
X012248Y005478
X012309Y005613
X012192Y005835
X012443Y005835
X012446Y006083
X012192Y006088
X011938Y006093
Y00635
X012191
X012446
X012443Y0066
X013099Y006741
X013305Y006789
X01329Y006954
X013218Y006938
X013226Y007033
X013274Y007076
X013288Y007138
X013213Y007142
X013114Y007193
X0131Y007381
X013005
X013199
X013295
X013395
X013282Y007231
X01275Y00775
X0125
X01225
X012
Y0075
X01225
X0125
X01289Y005801
X01325Y0055
X012
Y00525
X011938Y005835
X01175Y0055
X0115
X01125
X011
X01075
X0105
X01025
X0105Y00525
Y005
X01075
X011
X01125
X0115
X01175
Y00525
X0115
X01125
X011
X01075
Y0075
Y00775
X0105
Y0075
X01025
X011
Y00775
X01125
X0115
X01175
Y0075
X0115
X01125
X007763Y0075
X007688
X007613
X007538
X007463
X007388
X007425Y007425
X0075
X007463Y00735
X00735Y007425
X007261Y007269
X007259Y006944
X0071Y006964
X006767Y006942
X006642Y006909
Y006756
X006921Y006716
X006952Y006604
X007098Y006553
X007188Y006545
X00727Y006592
X007423Y006533
X007368Y006732
X007347Y006808
X007473Y006962
X007725Y007125
X007763Y0072
X007688
X007725Y007275
X0078
X007838Y00735
X007763
X0078Y007425
X007725
Y007575
X00765
X007575
X0075
X007511Y006326
X007475Y006215
X007301Y006176
X007164Y006269
X007045Y006294
X006916Y006303
X00684Y006302
X007002Y00645
X006542Y006337
X006576Y006208
X006574Y00603
X006478Y00583
X006246Y005895
X006189Y005995
X006047Y005969
X005963Y006
X005925Y005775
X00585
X005775
X0057
X005738Y00585
X005813
X005738Y0057
X005663
X0057Y005625
X005775
X005813Y00555
X005738
X005663
X0057Y005475
X005775
X00585
X005925
X006
X006075
X006113Y00555
X006038
X006075Y005625
X00615
X006217Y005745
X005963Y0054
X005888
X005813
X006069Y006253
X006182Y006409
X006222Y006452
X006289Y006551
X006134Y006566
X006101Y006634
X006134Y006853
X006132Y006919
X006124Y007031
X006075Y007112
X00585Y007125
X005775
X005813Y0072
X005888
X005738
X005775Y007275
X0057
X005738Y00735
X005663
X0057Y007425
X005775
X005813Y0075
X005888
X005963
X006038
X006113
X00615Y007425
X006075
X006038Y00735
X006Y007575
X005925
X00585
X005775
X005738Y0075
X006233Y007276
X006312Y007061
X006706Y007079
X006776Y005803
X006974Y005792
X007252Y005731
X00735Y005625
X007425
X007463Y00555
X007388
X007425Y005475
X0075
X007575
X00765
X007725
X0078
X007838Y00555
X007763
X007688
Y0054
X007613
X007538
X007575Y005775
X00765
X007725
X0078
X007838Y0057
X007763
X0078Y005625
X007763Y00585
X007688
X007575Y005925
X007477Y005912
X0105Y008
X01075
X011
X01125
X0115
X01175
X012
X01225
X0125
X01275
T02
X0059Y005651
Y00735
X007606Y007349
Y00565
T03
X0132Y005
X0102
Y008
X0132
M30
