G04 Layer_Physical_Order=3*
G04 Layer_Color=16440176*
%FSAX42Y42*%
%MOMM*%
G71*
G01*
G75*
%ADD29C,0.15*%
%ADD30C,0.12*%
%ADD36C,4.10*%
%ADD37C,0.45*%
%ADD38C,0.60*%
G36*
X013251Y008227D02*
X013300Y008210D01*
X013345Y008182D01*
X013382Y008145D01*
X013409Y008101D01*
X013427Y008052D01*
X013432Y007999D01*
Y007770D01*
X013411Y007749D01*
X012897D01*
X012896Y007748D01*
X012895Y007748D01*
X012839Y007743D01*
X012838Y007742D01*
X012836Y007742D01*
X012782Y007726D01*
X012781Y007725D01*
X012779Y007725D01*
X012730Y007698D01*
X012728Y007697D01*
X012727Y007696D01*
X012684Y007661D01*
X012683Y007660D01*
X012682Y007660D01*
X012675Y007652D01*
X012674Y007651D01*
X012673Y007650D01*
X012633Y007598D01*
X012632Y007596D01*
X012631Y007595D01*
X012606Y007534D01*
X012606Y007532D01*
X012605Y007530D01*
X012596Y007465D01*
X012596Y007464D01*
X012596Y007462D01*
Y005971D01*
X012596Y005970D01*
X012596Y005969D01*
X012600Y005942D01*
X012601Y005940D01*
X012601Y005938D01*
X012611Y005913D01*
X012613Y005911D01*
X012614Y005909D01*
X012630Y005888D01*
X012632Y005886D01*
X012633Y005884D01*
X012669Y005857D01*
X012671Y005856D01*
X012673Y005855D01*
X012715Y005837D01*
X012717Y005837D01*
X012719Y005836D01*
X012764Y005830D01*
X012765Y005830D01*
X012766Y005830D01*
X012789D01*
X012790Y005830D01*
X012791Y005830D01*
X012833Y005836D01*
X012835Y005837D01*
X012838Y005837D01*
X012877Y005854D01*
X012879Y005855D01*
X012881Y005856D01*
X012915Y005882D01*
X012917Y005884D01*
X012918Y005885D01*
X012942Y005916D01*
X012943Y005918D01*
X012944Y005919D01*
X012956Y005948D01*
X013019D01*
X013028Y005952D01*
X013032Y005961D01*
Y006655D01*
X013028Y006665D01*
X013019Y006669D01*
X012965D01*
Y007371D01*
X012966Y007381D01*
X012970Y007390D01*
X012975Y007397D01*
X012988Y007407D01*
X013003Y007413D01*
X013020Y007415D01*
X013414D01*
X013432Y007396D01*
Y006669D01*
X013375D01*
X013365Y006665D01*
X013361Y006655D01*
Y005944D01*
X013365Y005935D01*
X013375Y005931D01*
X013432D01*
Y005001D01*
X013427Y004948D01*
X013409Y004899D01*
X013382Y004855D01*
X013345Y004818D01*
X013300Y004790D01*
X013251Y004773D01*
X013198Y004767D01*
X012456D01*
X012367Y004856D01*
X012362Y004860D01*
X012355Y004861D01*
X011043D01*
X011037Y004860D01*
X011032Y004856D01*
X010942Y004767D01*
X010200D01*
X010147Y004773D01*
X010098Y004790D01*
X010054Y004818D01*
X010017Y004855D01*
X009989Y004899D01*
X009972Y004948D01*
X009966Y005001D01*
Y005643D01*
X010106Y005783D01*
X011557D01*
X011564Y005784D01*
X011569Y005788D01*
X011802Y006021D01*
X011806Y006026D01*
X011807Y006032D01*
Y006300D01*
X011806Y006306D01*
X011803Y006310D01*
Y006350D01*
X011799Y006360D01*
X011789Y006364D01*
X007611D01*
X007602Y006360D01*
X007598Y006350D01*
Y006307D01*
X007599Y006302D01*
X007601Y006296D01*
X007597Y006285D01*
X007597Y006285D01*
X007597Y006285D01*
X007596Y006284D01*
X007596Y006284D01*
X007596Y006283D01*
X007596Y006283D01*
X007595Y006282D01*
X007595Y006281D01*
X007595Y006281D01*
X007594Y006280D01*
X007594Y006280D01*
X007594Y006279D01*
X007594Y006279D01*
X007594Y006278D01*
X007594Y006277D01*
X007594Y006277D01*
X007594Y006276D01*
X007594Y006276D01*
X007594Y006275D01*
X007594Y006275D01*
X007594Y006274D01*
X007594Y006273D01*
X007594Y006273D01*
X007594Y006272D01*
X007594Y006272D01*
X007594Y006271D01*
X007594Y006271D01*
X007594Y006270D01*
X007594Y006269D01*
X007594Y006269D01*
X007594Y006268D01*
X007595Y006268D01*
X007595Y006267D01*
X007595Y006267D01*
X007595Y006266D01*
Y005962D01*
X007596Y005960D01*
X007596Y005958D01*
X007596Y005957D01*
X007597Y005956D01*
X007598Y005954D01*
X007599Y005952D01*
X007600Y005951D01*
X007600Y005950D01*
X007602Y005949D01*
X007604Y005948D01*
X007605Y005947D01*
X007606Y005947D01*
X007608Y005946D01*
X007610Y005946D01*
X007667Y005938D01*
X007720Y005920D01*
X007769Y005892D01*
X007812Y005856D01*
X007847Y005812D01*
X007873Y005762D01*
X007889Y005708D01*
X007894Y005657D01*
X007894Y005657D01*
X007894Y005657D01*
X007894Y005656D01*
X007893Y005655D01*
X007893Y005655D01*
X007893Y005654D01*
X007893Y005654D01*
X007893Y005653D01*
X007893Y005652D01*
X007893Y005652D01*
X007893Y005651D01*
X007893Y005651D01*
X007893Y005650D01*
X007893Y005650D01*
X007893Y005649D01*
X007893Y005648D01*
X007893Y005647D01*
X007893Y005647D01*
X007893Y005646D01*
X007893Y005646D01*
X007894Y005646D01*
X007894Y005645D01*
X007894Y005644D01*
X007894Y005644D01*
X007889Y005595D01*
X007875Y005544D01*
X007851Y005496D01*
X007819Y005453D01*
X007779Y005417D01*
X007734Y005388D01*
X007684Y005368D01*
X007632Y005357D01*
X007578Y005356D01*
X007525Y005365D01*
X007475Y005383D01*
X007428Y005410D01*
X007388Y005445D01*
X007354Y005487D01*
X007328Y005534D01*
X007312Y005585D01*
X007304Y005639D01*
X007304Y005641D01*
X007303Y005644D01*
X007303Y005645D01*
X007302Y005646D01*
X007301Y005647D01*
X007300Y005649D01*
X007299Y005650D01*
X007298Y005651D01*
X007296Y005652D01*
X007294Y005653D01*
X007293Y005653D01*
X007292Y005653D01*
X007290Y005654D01*
X007288Y005654D01*
X006213D01*
X006210Y005654D01*
X006208Y005653D01*
X006207Y005653D01*
X006206Y005653D01*
X006204Y005652D01*
X006202Y005651D01*
X006202Y005650D01*
X006201Y005649D01*
X006199Y005647D01*
X006198Y005646D01*
X006198Y005645D01*
X006197Y005644D01*
X006197Y005641D01*
X006196Y005639D01*
X006189Y005584D01*
X006172Y005533D01*
X006146Y005486D01*
X006112Y005444D01*
X006072Y005409D01*
X006025Y005382D01*
X005974Y005364D01*
X005921Y005355D01*
X005867Y005356D01*
X005814Y005367D01*
X005764Y005387D01*
X005719Y005416D01*
X005680Y005453D01*
X005647Y005496D01*
X005624Y005544D01*
X005609Y005596D01*
X005604Y005650D01*
X005610Y005706D01*
X005626Y005760D01*
X005652Y005810D01*
X005687Y005855D01*
X005730Y005892D01*
X005779Y005920D01*
X005832Y005938D01*
X005890Y005946D01*
X005892Y005946D01*
X005894Y005947D01*
X005895Y005947D01*
X005896Y005948D01*
X005898Y005949D01*
X005899Y005950D01*
X005900Y005951D01*
X005901Y005952D01*
X005902Y005954D01*
X005903Y005956D01*
X005903Y005957D01*
X005904Y005958D01*
X005904Y005960D01*
X005904Y005962D01*
Y007037D01*
X005904Y007040D01*
X005904Y007042D01*
X005903Y007043D01*
X005903Y007044D01*
X005902Y007046D01*
X005901Y007048D01*
X005900Y007048D01*
X005899Y007049D01*
X005898Y007051D01*
X005896Y007052D01*
X005895Y007052D01*
X005894Y007053D01*
X005892Y007053D01*
X005890Y007054D01*
X005832Y007062D01*
X005779Y007080D01*
X005730Y007108D01*
X005687Y007145D01*
X005652Y007189D01*
X005626Y007240D01*
X005610Y007294D01*
X005604Y007350D01*
X005609Y007404D01*
X005624Y007455D01*
X005647Y007504D01*
X005680Y007547D01*
X005719Y007584D01*
X005764Y007613D01*
X005814Y007633D01*
X005867Y007644D01*
X005921Y007645D01*
X005974Y007636D01*
X006025Y007618D01*
X006072Y007591D01*
X006112Y007556D01*
X006146Y007514D01*
X006172Y007467D01*
X006189Y007415D01*
X006196Y007360D01*
X006197Y007358D01*
X006197Y007356D01*
X006198Y007355D01*
X006198Y007354D01*
X006199Y007353D01*
X006201Y007351D01*
X006202Y007350D01*
X006202Y007349D01*
X006204Y007348D01*
X006206Y007347D01*
X006207Y007347D01*
X006208Y007346D01*
X006210Y007346D01*
X006213Y007346D01*
X007288Y007346D01*
X007290Y007346D01*
X007292Y007346D01*
X007293Y007347D01*
X007294Y007347D01*
X007296Y007348D01*
X007298Y007349D01*
X007299Y007350D01*
X007300Y007351D01*
X007301Y007353D01*
X007302Y007354D01*
X007303Y007355D01*
X007303Y007356D01*
X007304Y007358D01*
X007304Y007360D01*
X007312Y007415D01*
X007328Y007466D01*
X007354Y007513D01*
X007388Y007555D01*
X007428Y007590D01*
X007475Y007617D01*
X007525Y007635D01*
X007578Y007643D01*
X007632Y007642D01*
X007684Y007632D01*
X007734Y007612D01*
X007779Y007583D01*
X007819Y007547D01*
X007851Y007504D01*
X007875Y007456D01*
X007889Y007404D01*
X007894Y007356D01*
X007894Y007356D01*
X007894Y007355D01*
X007893Y007354D01*
X007893Y007354D01*
X007893Y007353D01*
X007893Y007353D01*
X007893Y007352D01*
X007893Y007351D01*
X007893Y007351D01*
X007893Y007350D01*
X007893Y007350D01*
X007893Y007349D01*
X007893Y007349D01*
X007893Y007348D01*
X007893Y007347D01*
X007893Y007347D01*
X007893Y007346D01*
X007893Y007346D01*
X007893Y007345D01*
X007893Y007345D01*
X007893Y007344D01*
X007894Y007343D01*
X007894Y007343D01*
X007894Y007342D01*
X007889Y007292D01*
X007873Y007238D01*
X007847Y007188D01*
X007812Y007144D01*
X007769Y007108D01*
X007720Y007080D01*
X007667Y007062D01*
X007610Y007054D01*
X007608Y007053D01*
X007606Y007053D01*
X007605Y007052D01*
X007604Y007052D01*
X007602Y007051D01*
X007600Y007049D01*
X007600Y007048D01*
X007599Y007048D01*
X007598Y007046D01*
X007597Y007044D01*
X007596Y007043D01*
X007596Y007042D01*
X007596Y007040D01*
X007595Y007037D01*
Y006736D01*
X007595Y006736D01*
X007595Y006735D01*
X007595Y006734D01*
X007594Y006734D01*
X007594Y006733D01*
X007594Y006733D01*
X007594Y006732D01*
X007594Y006732D01*
X007594Y006731D01*
X007594Y006730D01*
X007593Y006730D01*
X007594Y006729D01*
X007593Y006729D01*
X007594Y006728D01*
X007593Y006727D01*
X007594Y006727D01*
X007593Y006726D01*
X007594Y006726D01*
X007594Y006725D01*
X007594Y006725D01*
X007594Y006724D01*
X007594Y006723D01*
X007594Y006723D01*
X007594Y006722D01*
X007594Y006722D01*
X007595Y006721D01*
X007595Y006721D01*
X007595Y006720D01*
X007595Y006719D01*
X007596Y006719D01*
X007596Y006719D01*
X007596Y006718D01*
X007601Y006709D01*
X007598Y006700D01*
X007598Y006700D01*
Y006655D01*
X007602Y006645D01*
X007611Y006641D01*
X011786D01*
X011795Y006645D01*
X011799Y006655D01*
Y006685D01*
X011804Y006688D01*
X011808Y006693D01*
X011809Y006700D01*
Y006957D01*
X011808Y006963D01*
X011804Y006969D01*
X011561Y007212D01*
X011556Y007215D01*
X011549Y007217D01*
X010106D01*
X009966Y007357D01*
Y007999D01*
X009972Y008052D01*
X009989Y008101D01*
X010017Y008145D01*
X010054Y008182D01*
X010098Y008210D01*
X010147Y008227D01*
X010200Y008233D01*
X010942D01*
X011032Y008144D01*
X011037Y008140D01*
X011043Y008139D01*
X012355D01*
X012362Y008140D01*
X012367Y008144D01*
X012456Y008233D01*
X013198D01*
X013251Y008227D01*
D02*
G37*
%LPC*%
G36*
X006426Y006325D02*
X006172D01*
Y006071D01*
X006426D01*
Y006325D01*
D02*
G37*
G36*
X007301Y006212D02*
X007288Y006210D01*
X007276Y006202D01*
X007268Y006190D01*
X007266Y006176D01*
X007268Y006163D01*
X007276Y006151D01*
X007288Y006143D01*
X007301Y006141D01*
X007315Y006143D01*
X007327Y006151D01*
X007335Y006163D01*
X007337Y006176D01*
X007335Y006190D01*
X007327Y006202D01*
X007315Y006210D01*
X007301Y006212D01*
D02*
G37*
G36*
X006574Y006066D02*
X006560Y006063D01*
X006548Y006055D01*
X006540Y006044D01*
X006538Y006030D01*
X006540Y006016D01*
X006548Y006005D01*
X006560Y005997D01*
X006574Y005994D01*
X006587Y005997D01*
X006599Y006005D01*
X006607Y006016D01*
X006609Y006030D01*
X006607Y006044D01*
X006599Y006055D01*
X006587Y006063D01*
X006574Y006066D01*
D02*
G37*
G36*
X012192Y006132D02*
X012175Y006129D01*
X012161Y006119D01*
X012152Y006105D01*
X012148Y006088D01*
X012152Y006072D01*
X012161Y006058D01*
X012175Y006048D01*
X012192Y006045D01*
X012209Y006048D01*
X012223Y006058D01*
X012232Y006072D01*
X012236Y006088D01*
X012232Y006105D01*
X012223Y006119D01*
X012209Y006129D01*
X012192Y006132D01*
D02*
G37*
G36*
X007475Y006251D02*
X007461Y006248D01*
X007450Y006240D01*
X007442Y006229D01*
X007439Y006215D01*
X007442Y006201D01*
X007450Y006190D01*
X007461Y006182D01*
X007475Y006179D01*
X007489Y006182D01*
X007500Y006190D01*
X007508Y006201D01*
X007511Y006215D01*
X007508Y006229D01*
X007500Y006240D01*
X007489Y006248D01*
X007475Y006251D01*
D02*
G37*
G36*
X007188Y006581D02*
X007175Y006578D01*
X007163Y006570D01*
X007155Y006559D01*
X007152Y006545D01*
X007155Y006531D01*
X007163Y006519D01*
X007168Y006516D01*
Y006445D01*
X007051Y006328D01*
X007045Y006330D01*
X007032Y006327D01*
X007020Y006319D01*
X007012Y006307D01*
X007009Y006294D01*
X007012Y006280D01*
X007020Y006268D01*
X007032Y006261D01*
X007045Y006258D01*
X007059Y006261D01*
X007071Y006268D01*
X007078Y006280D01*
X007081Y006294D01*
X007080Y006299D01*
X007203Y006422D01*
X007207Y006429D01*
X007209Y006437D01*
Y006516D01*
X007214Y006519D01*
X007221Y006531D01*
X007224Y006545D01*
X007221Y006559D01*
X007214Y006570D01*
X007202Y006578D01*
X007188Y006581D01*
D02*
G37*
G36*
X006289Y006586D02*
X006276Y006584D01*
X006264Y006576D01*
X006256Y006564D01*
X006254Y006551D01*
X006256Y006537D01*
X006264Y006525D01*
X006276Y006517D01*
X006289Y006515D01*
X006303Y006517D01*
X006315Y006525D01*
X006323Y006537D01*
X006325Y006551D01*
X006323Y006564D01*
X006315Y006576D01*
X006303Y006584D01*
X006289Y006586D01*
D02*
G37*
G36*
X006542Y006373D02*
X006528Y006371D01*
X006516Y006363D01*
X006509Y006351D01*
X006506Y006337D01*
X006509Y006324D01*
X006516Y006312D01*
X006528Y006304D01*
X006542Y006302D01*
X006555Y006304D01*
X006567Y006312D01*
X006575Y006324D01*
X006578Y006337D01*
X006575Y006351D01*
X006567Y006363D01*
X006555Y006371D01*
X006542Y006373D01*
D02*
G37*
G36*
X012446Y006394D02*
X012429Y006390D01*
X012415Y006381D01*
X012406Y006367D01*
X012402Y006350D01*
X012406Y006333D01*
X012415Y006319D01*
X012429Y006310D01*
X012446Y006306D01*
X012463Y006310D01*
X012477Y006319D01*
X012486Y006333D01*
X012490Y006350D01*
X012486Y006367D01*
X012477Y006381D01*
X012463Y006390D01*
X012446Y006394D01*
D02*
G37*
G36*
X007252Y005766D02*
X007238Y005764D01*
X007227Y005756D01*
X007219Y005744D01*
X007216Y005731D01*
X007219Y005717D01*
X007227Y005705D01*
X007238Y005697D01*
X007252Y005695D01*
X007266Y005697D01*
X007277Y005705D01*
X007285Y005717D01*
X007288Y005731D01*
X007285Y005744D01*
X007277Y005756D01*
X007266Y005764D01*
X007252Y005766D01*
D02*
G37*
G36*
X006217Y005781D02*
X006203Y005778D01*
X006191Y005770D01*
X006184Y005759D01*
X006181Y005745D01*
X006184Y005731D01*
X006191Y005719D01*
X006203Y005712D01*
X006217Y005709D01*
X006231Y005712D01*
X006242Y005719D01*
X006250Y005731D01*
X006253Y005745D01*
X006250Y005759D01*
X006242Y005770D01*
X006231Y005778D01*
X006217Y005781D01*
D02*
G37*
G36*
X007606Y005754D02*
X007579Y005750D01*
X007554Y005740D01*
X007533Y005723D01*
X007516Y005702D01*
X007506Y005677D01*
X007502Y005650D01*
X007506Y005623D01*
X007516Y005598D01*
X007533Y005577D01*
X007554Y005560D01*
X007579Y005550D01*
X007606Y005546D01*
X007633Y005550D01*
X007658Y005560D01*
X007679Y005577D01*
X007696Y005598D01*
X007706Y005623D01*
X007710Y005650D01*
X007706Y005677D01*
X007696Y005702D01*
X007679Y005723D01*
X007658Y005740D01*
X007633Y005750D01*
X007606Y005754D01*
D02*
G37*
G36*
X005900Y005754D02*
X005874Y005751D01*
X005849Y005740D01*
X005827Y005724D01*
X005811Y005702D01*
X005800Y005678D01*
X005797Y005651D01*
X005800Y005624D01*
X005811Y005599D01*
X005827Y005577D01*
X005849Y005561D01*
X005874Y005551D01*
X005900Y005547D01*
X005927Y005551D01*
X005952Y005561D01*
X005974Y005577D01*
X005990Y005599D01*
X006000Y005624D01*
X006004Y005651D01*
X006000Y005678D01*
X005990Y005702D01*
X005974Y005724D01*
X005952Y005740D01*
X005927Y005751D01*
X005900Y005754D01*
D02*
G37*
G36*
X013099Y006776D02*
X013085Y006774D01*
X013074Y006766D01*
X013066Y006754D01*
X013063Y006741D01*
X013066Y006727D01*
X013070Y006720D01*
Y005912D01*
X012904Y005746D01*
X012718D01*
X012464Y005999D01*
Y006044D01*
X012477Y006053D01*
X012486Y006067D01*
X012490Y006083D01*
X012486Y006100D01*
X012477Y006114D01*
X012464Y006123D01*
Y006224D01*
X012462Y006231D01*
X012458Y006238D01*
X012089Y006607D01*
X012083Y006611D01*
X012075Y006613D01*
X007553D01*
X007546Y006611D01*
X007529D01*
X007478Y006662D01*
X007472Y006666D01*
X007465Y006667D01*
X007326D01*
X007318Y006666D01*
X007312Y006662D01*
X007277Y006627D01*
X007270Y006628D01*
X007256Y006625D01*
X007244Y006618D01*
X007236Y006606D01*
X007234Y006592D01*
X007236Y006578D01*
X007244Y006567D01*
X007256Y006559D01*
X007270Y006556D01*
X007283Y006559D01*
X007295Y006567D01*
X007303Y006578D01*
X007305Y006592D01*
X007304Y006600D01*
X007333Y006629D01*
X007457D01*
X007507Y006579D01*
X007514Y006575D01*
X007521Y006573D01*
X007546D01*
X007553Y006572D01*
X012066D01*
X012423Y006215D01*
Y006119D01*
X012415Y006114D01*
X012406Y006100D01*
X012402Y006083D01*
X012406Y006067D01*
X012415Y006053D01*
X012423Y006047D01*
Y005991D01*
X012424Y005983D01*
X012429Y005976D01*
X012694Y005711D01*
X012701Y005706D01*
X012709Y005705D01*
X012912D01*
X012920Y005706D01*
X012927Y005711D01*
X013105Y005889D01*
X013110Y005896D01*
X013111Y005904D01*
Y006707D01*
X013113Y006707D01*
X013124Y006715D01*
X013132Y006727D01*
X013135Y006741D01*
X013132Y006754D01*
X013124Y006766D01*
X013113Y006774D01*
X013099Y006776D01*
D02*
G37*
G36*
X006047Y006005D02*
X006033Y006002D01*
X006022Y005995D01*
X006014Y005983D01*
X006011Y005969D01*
X006014Y005955D01*
X006022Y005944D01*
X006033Y005936D01*
X006047Y005933D01*
X006061Y005936D01*
X006072Y005944D01*
X006080Y005955D01*
X006083Y005969D01*
X006080Y005983D01*
X006072Y005995D01*
X006061Y006002D01*
X006047Y006005D01*
D02*
G37*
G36*
X007186Y006182D02*
X006754D01*
Y005966D01*
X007186D01*
Y006182D01*
D02*
G37*
G36*
X006776Y005839D02*
X006763Y005837D01*
X006751Y005829D01*
X006743Y005817D01*
X006741Y005803D01*
X006743Y005790D01*
X006751Y005778D01*
X006763Y005770D01*
X006776Y005768D01*
X006790Y005770D01*
X006802Y005778D01*
X006810Y005790D01*
X006812Y005803D01*
X006810Y005817D01*
X006802Y005829D01*
X006790Y005837D01*
X006776Y005839D01*
D02*
G37*
G36*
X007477Y005948D02*
X007464Y005945D01*
X007452Y005938D01*
X007444Y005926D01*
X007441Y005912D01*
X007444Y005899D01*
X007452Y005887D01*
X007464Y005879D01*
X007477Y005876D01*
X007491Y005879D01*
X007503Y005887D01*
X007510Y005899D01*
X007513Y005912D01*
X007510Y005926D01*
X007503Y005938D01*
X007491Y005945D01*
X007477Y005948D01*
D02*
G37*
G36*
X006075Y007148D02*
X006062Y007145D01*
X006050Y007138D01*
X006042Y007126D01*
X006040Y007112D01*
X006042Y007098D01*
X006050Y007087D01*
X006062Y007079D01*
X006075Y007076D01*
X006089Y007079D01*
X006101Y007087D01*
X006109Y007098D01*
X006111Y007112D01*
X006109Y007126D01*
X006101Y007138D01*
X006089Y007145D01*
X006075Y007148D01*
D02*
G37*
G36*
X013114Y007229D02*
X013100Y007226D01*
X013089Y007219D01*
X013081Y007207D01*
X013078Y007193D01*
X013081Y007180D01*
X013089Y007168D01*
X013100Y007160D01*
X013114Y007157D01*
X013128Y007160D01*
X013139Y007168D01*
X013147Y007180D01*
X013150Y007193D01*
X013147Y007207D01*
X013139Y007219D01*
X013128Y007226D01*
X013114Y007229D01*
D02*
G37*
G36*
X006312Y007097D02*
X006298Y007094D01*
X006287Y007087D01*
X006279Y007075D01*
X006276Y007061D01*
X006279Y007047D01*
X006287Y007036D01*
X006298Y007028D01*
X006312Y007025D01*
X006326Y007028D01*
X006337Y007036D01*
X006345Y007047D01*
X006348Y007061D01*
X006345Y007075D01*
X006337Y007087D01*
X006326Y007094D01*
X006312Y007097D01*
D02*
G37*
G36*
X013213Y007177D02*
X013200Y007175D01*
X013188Y007167D01*
X013180Y007155D01*
X013178Y007142D01*
X013180Y007128D01*
X013188Y007116D01*
X013200Y007108D01*
X013213Y007106D01*
X013227Y007108D01*
X013239Y007116D01*
X013243Y007122D01*
X013246Y007122D01*
X013255Y007121D01*
X013259Y007109D01*
X013254Y007105D01*
X013249Y007102D01*
X013241Y007090D01*
X013239Y007079D01*
X013238Y007076D01*
X013227Y007069D01*
X013226Y007069D01*
X013212Y007066D01*
X013200Y007059D01*
X013193Y007047D01*
X013190Y007033D01*
X013193Y007020D01*
X013200Y007008D01*
X013212Y007000D01*
X013226Y006997D01*
X013240Y007000D01*
X013251Y007008D01*
X013259Y007020D01*
X013261Y007031D01*
X013262Y007033D01*
X013273Y007041D01*
X013274Y007040D01*
X013282Y007042D01*
X013296Y007027D01*
X013303Y007023D01*
X013310Y007022D01*
X013345D01*
X013362Y007005D01*
Y006764D01*
X013294Y006696D01*
X013288Y006692D01*
X013283Y006685D01*
X013282Y006677D01*
Y005673D01*
X013137Y005528D01*
X012521D01*
X012514Y005529D01*
X012479D01*
X012473Y005528D01*
X012332D01*
X012086Y005774D01*
Y005799D01*
X012084Y005807D01*
X012080Y005814D01*
X012073Y005818D01*
X012065Y005820D01*
X011991D01*
X011981Y005832D01*
X011982Y005835D01*
X011978Y005851D01*
X011969Y005865D01*
X011959Y005872D01*
Y006022D01*
X011957Y006030D01*
X011953Y006037D01*
X011949Y006041D01*
X011953Y006053D01*
X011955Y006053D01*
X011969Y006063D01*
X011978Y006077D01*
X011982Y006093D01*
X011978Y006110D01*
X011969Y006124D01*
X011955Y006134D01*
X011953Y006134D01*
X011949Y006146D01*
X011953Y006150D01*
X011957Y006157D01*
X011959Y006164D01*
Y006270D01*
X012003Y006315D01*
X012007Y006321D01*
X012009Y006329D01*
Y006371D01*
X012009Y006371D01*
X012007Y006379D01*
X012003Y006385D01*
X012003Y006385D01*
X011958Y006430D01*
X011951Y006434D01*
X011944Y006436D01*
X007596D01*
X007596Y006436D01*
X007588Y006434D01*
X007581Y006430D01*
X007512Y006361D01*
X007511Y006362D01*
X007497Y006359D01*
X007485Y006351D01*
X007477Y006339D01*
X007475Y006326D01*
X007477Y006312D01*
X007485Y006300D01*
X007497Y006293D01*
X007511Y006290D01*
X007524Y006293D01*
X007536Y006300D01*
X007544Y006312D01*
X007546Y006326D01*
X007545Y006335D01*
X007604Y006395D01*
X011905D01*
X011909Y006382D01*
X011907Y006381D01*
X011898Y006367D01*
X011894Y006350D01*
X011898Y006333D01*
X011907Y006319D01*
X011921Y006310D01*
X011923Y006309D01*
X011927Y006297D01*
X011923Y006294D01*
X011919Y006287D01*
X011917Y006279D01*
Y006173D01*
X011873Y006129D01*
X011869Y006122D01*
X011867Y006114D01*
Y006073D01*
X011869Y006065D01*
X011873Y006058D01*
X011917Y006014D01*
Y005872D01*
X011907Y005865D01*
X011898Y005851D01*
X011894Y005835D01*
X011898Y005818D01*
X011907Y005804D01*
X011921Y005794D01*
X011938Y005791D01*
X011950Y005793D01*
X011959Y005785D01*
X011965Y005780D01*
X011973Y005779D01*
X012044D01*
Y005766D01*
X012046Y005758D01*
X012050Y005751D01*
X012309Y005493D01*
X012315Y005489D01*
X012323Y005487D01*
X012323Y005487D01*
X012478D01*
X012484Y005488D01*
X012509D01*
X012516Y005487D01*
X012686D01*
X012693Y005474D01*
X012691Y005472D01*
X012688Y005458D01*
X012691Y005445D01*
X012699Y005433D01*
X012711Y005425D01*
X012724Y005422D01*
X012738Y005425D01*
X012750Y005433D01*
X012758Y005445D01*
X012760Y005458D01*
X012758Y005472D01*
X012756Y005474D01*
X012763Y005487D01*
X013145D01*
X013153Y005489D01*
X013160Y005493D01*
X013317Y005650D01*
X013321Y005657D01*
X013323Y005665D01*
Y006671D01*
X013394Y006743D01*
X013399Y006749D01*
X013400Y006756D01*
Y007013D01*
X013399Y007020D01*
X013394Y007026D01*
X013366Y007054D01*
X013360Y007058D01*
X013353Y007060D01*
X013318D01*
X013308Y007069D01*
X013310Y007076D01*
X013307Y007090D01*
X013305Y007093D01*
X013302Y007104D01*
X013309Y007109D01*
X013313Y007113D01*
X013321Y007124D01*
X013324Y007138D01*
X013321Y007152D01*
X013313Y007163D01*
X013302Y007171D01*
X013288Y007174D01*
X013274Y007171D01*
X013263Y007163D01*
X013259Y007158D01*
X013256Y007157D01*
X013244Y007159D01*
X013239Y007167D01*
X013227Y007175D01*
X013213Y007177D01*
D02*
G37*
G36*
X013282Y007267D02*
X013268Y007265D01*
X013256Y007257D01*
X013249Y007245D01*
X013246Y007231D01*
X013249Y007218D01*
X013256Y007206D01*
X013268Y007198D01*
X013282Y007195D01*
X013295Y007198D01*
X013307Y007206D01*
X013315Y007218D01*
X013318Y007231D01*
X013315Y007245D01*
X013307Y007257D01*
X013295Y007265D01*
X013282Y007267D01*
D02*
G37*
G36*
X007606Y007453D02*
X007579Y007449D01*
X007554Y007439D01*
X007533Y007422D01*
X007516Y007401D01*
X007506Y007376D01*
X007502Y007349D01*
X007506Y007322D01*
X007516Y007297D01*
X007533Y007276D01*
X007554Y007260D01*
X007579Y007249D01*
X007606Y007246D01*
X007633Y007249D01*
X007658Y007260D01*
X007679Y007276D01*
X007696Y007297D01*
X007706Y007322D01*
X007710Y007349D01*
X007706Y007376D01*
X007696Y007401D01*
X007679Y007422D01*
X007658Y007439D01*
X007633Y007449D01*
X007606Y007453D01*
D02*
G37*
G36*
X005900Y007454D02*
X005874Y007450D01*
X005849Y007440D01*
X005827Y007423D01*
X005811Y007402D01*
X005800Y007377D01*
X005797Y007350D01*
X005800Y007323D01*
X005811Y007298D01*
X005827Y007277D01*
X005849Y007260D01*
X005874Y007250D01*
X005900Y007246D01*
X005927Y007250D01*
X005952Y007260D01*
X005974Y007277D01*
X005990Y007298D01*
X006000Y007323D01*
X006004Y007350D01*
X006000Y007377D01*
X005990Y007402D01*
X005974Y007423D01*
X005952Y007440D01*
X005927Y007450D01*
X005900Y007454D01*
D02*
G37*
G36*
X007261Y007305D02*
X007247Y007303D01*
X007235Y007295D01*
X007228Y007283D01*
X007225Y007269D01*
X007228Y007256D01*
X007235Y007244D01*
X007247Y007236D01*
X007261Y007233D01*
X007275Y007236D01*
X007286Y007244D01*
X007294Y007256D01*
X007297Y007269D01*
X007294Y007283D01*
X007286Y007295D01*
X007275Y007303D01*
X007261Y007305D01*
D02*
G37*
G36*
X006233Y007311D02*
X006220Y007309D01*
X006208Y007301D01*
X006200Y007289D01*
X006198Y007276D01*
X006200Y007262D01*
X006208Y007250D01*
X006220Y007242D01*
X006233Y007240D01*
X006247Y007242D01*
X006259Y007250D01*
X006267Y007262D01*
X006269Y007276D01*
X006267Y007289D01*
X006259Y007301D01*
X006247Y007309D01*
X006233Y007311D01*
D02*
G37*
G36*
X006921Y006752D02*
X006908Y006749D01*
X006896Y006741D01*
X006888Y006730D01*
X006886Y006716D01*
X006887Y006708D01*
X006825Y006646D01*
X006821Y006639D01*
X006819Y006631D01*
Y006330D01*
X006815Y006327D01*
X006807Y006316D01*
X006804Y006302D01*
X006807Y006288D01*
X006815Y006277D01*
X006826Y006269D01*
X006840Y006266D01*
X006854Y006269D01*
X006865Y006277D01*
X006871Y006286D01*
X006874Y006286D01*
X006881Y006287D01*
X006886Y006286D01*
X006891Y006278D01*
X006903Y006270D01*
X006916Y006267D01*
X006930Y006270D01*
X006942Y006278D01*
X006950Y006289D01*
X006952Y006303D01*
X006951Y006309D01*
X007027Y006385D01*
X007027Y006385D01*
X007032Y006391D01*
X007033Y006399D01*
X007032Y006407D01*
X007030Y006410D01*
X007027Y006424D01*
X007035Y006436D01*
X007036Y006438D01*
X007113Y006515D01*
X007117Y006522D01*
X007117Y006524D01*
X007123Y006528D01*
X007131Y006539D01*
X007134Y006553D01*
X007131Y006567D01*
X007123Y006578D01*
X007112Y006586D01*
X007098Y006589D01*
X007084Y006586D01*
X007073Y006578D01*
X007065Y006567D01*
X007062Y006553D01*
X007065Y006539D01*
X007070Y006531D01*
X007020Y006480D01*
X007016Y006483D01*
X007002Y006485D01*
X006988Y006483D01*
X006977Y006475D01*
X006969Y006463D01*
X006966Y006450D01*
X006969Y006436D01*
X006977Y006424D01*
X006982Y006421D01*
Y006412D01*
X006981Y006410D01*
X006983Y006402D01*
X006984Y006400D01*
X006922Y006338D01*
X006916Y006339D01*
X006903Y006336D01*
X006891Y006328D01*
X006885Y006319D01*
X006883Y006318D01*
X006876Y006318D01*
X006871Y006319D01*
X006865Y006327D01*
X006860Y006330D01*
Y006622D01*
X006919Y006681D01*
X006921Y006680D01*
X006935Y006683D01*
X006947Y006691D01*
X006955Y006702D01*
X006957Y006716D01*
X006955Y006730D01*
X006947Y006741D01*
X006935Y006749D01*
X006921Y006752D01*
D02*
G37*
G36*
X006490Y006934D02*
X006261D01*
Y006706D01*
X006490D01*
Y006934D01*
D02*
G37*
G36*
X006132Y006955D02*
X006118Y006952D01*
X006106Y006944D01*
X006098Y006933D01*
X006096Y006919D01*
X006098Y006905D01*
X006106Y006894D01*
X006107Y006893D01*
X006109Y006879D01*
X006101Y006867D01*
X006098Y006853D01*
X006101Y006839D01*
X006109Y006828D01*
X006120Y006820D01*
X006134Y006817D01*
X006140Y006818D01*
X006181Y006777D01*
Y006575D01*
X006168Y006574D01*
X006167Y006580D01*
X006159Y006591D01*
X006148Y006599D01*
X006137Y006601D01*
X006132Y006609D01*
X006130Y006614D01*
X006134Y006620D01*
X006137Y006634D01*
X006134Y006648D01*
X006126Y006659D01*
X006115Y006667D01*
X006101Y006670D01*
X006087Y006667D01*
X006076Y006659D01*
X006068Y006648D01*
X006065Y006634D01*
X006068Y006620D01*
X006076Y006608D01*
X006087Y006601D01*
X006098Y006598D01*
X006103Y006591D01*
X006105Y006586D01*
X006101Y006580D01*
X006098Y006566D01*
X006101Y006552D01*
X006109Y006541D01*
X006117Y006535D01*
Y006259D01*
X006104Y006258D01*
X006104Y006260D01*
X006102Y006267D01*
X006094Y006278D01*
X006083Y006286D01*
X006069Y006289D01*
X006055Y006286D01*
X006044Y006278D01*
X006036Y006267D01*
X006033Y006253D01*
X006036Y006239D01*
X006044Y006228D01*
X006055Y006220D01*
X006069Y006217D01*
X006083Y006220D01*
X006094Y006228D01*
X006102Y006239D01*
X006104Y006246D01*
X006104Y006248D01*
X006117Y006247D01*
Y005931D01*
X006118Y005923D01*
X006123Y005916D01*
X006161Y005878D01*
X006161Y005878D01*
X006167Y005874D01*
X006175Y005872D01*
X006175Y005872D01*
X006219D01*
X006220Y005870D01*
X006232Y005862D01*
X006246Y005859D01*
X006260Y005862D01*
X006271Y005870D01*
X006279Y005882D01*
X006282Y005895D01*
X006279Y005909D01*
X006271Y005921D01*
X006260Y005928D01*
X006246Y005931D01*
X006232Y005928D01*
X006220Y005921D01*
X006215Y005913D01*
X006184D01*
X006158Y005939D01*
Y005958D01*
X006171Y005965D01*
X006175Y005962D01*
X006189Y005959D01*
X006203Y005962D01*
X006214Y005969D01*
X006222Y005981D01*
X006225Y005995D01*
X006222Y006009D01*
X006214Y006020D01*
X006203Y006028D01*
X006189Y006031D01*
X006175Y006028D01*
X006171Y006025D01*
X006158Y006032D01*
Y006365D01*
X006165Y006370D01*
X006171Y006373D01*
X006177Y006372D01*
X006184Y006373D01*
X006186Y006374D01*
X006195Y006376D01*
X006207Y006384D01*
X006215Y006395D01*
X006217Y006405D01*
X006222Y006416D01*
X006236Y006419D01*
X006248Y006427D01*
X006255Y006439D01*
X006258Y006452D01*
X006255Y006466D01*
X006248Y006478D01*
X006236Y006485D01*
X006222Y006488D01*
X006210Y006486D01*
X006206Y006487D01*
X006197Y006491D01*
Y006523D01*
X006216Y006542D01*
X006221Y006549D01*
X006222Y006557D01*
Y006785D01*
X006222Y006785D01*
X006221Y006793D01*
X006216Y006800D01*
X006216Y006800D01*
X006169Y006848D01*
X006170Y006853D01*
X006167Y006867D01*
X006159Y006879D01*
X006158Y006879D01*
X006157Y006894D01*
X006165Y006905D01*
X006167Y006919D01*
X006165Y006933D01*
X006157Y006944D01*
X006145Y006952D01*
X006132Y006955D01*
D02*
G37*
G36*
X007226Y006833D02*
X007074D01*
Y006668D01*
X007226D01*
Y006833D01*
D02*
G37*
G36*
X013305Y006825D02*
X013292Y006822D01*
X013280Y006814D01*
X013272Y006802D01*
X013269Y006789D01*
X013219Y006738D01*
X013214Y006732D01*
X013213Y006724D01*
Y005734D01*
X013073Y005594D01*
X012469D01*
X012234Y005829D01*
X012236Y005835D01*
X012232Y005851D01*
X012223Y005865D01*
X012213Y005872D01*
Y005974D01*
X012211Y005982D01*
X012207Y005988D01*
X012207Y005988D01*
X012118Y006078D01*
Y006340D01*
X012116Y006348D01*
X012112Y006354D01*
X011976Y006490D01*
X011969Y006494D01*
X011962Y006496D01*
X007531D01*
X007523Y006494D01*
X007517Y006490D01*
X007316Y006290D01*
X007193D01*
X007189Y006294D01*
X007178Y006302D01*
X007164Y006305D01*
X007150Y006302D01*
X007139Y006294D01*
X007131Y006283D01*
X007128Y006269D01*
X007131Y006255D01*
X007139Y006244D01*
X007150Y006236D01*
X007164Y006233D01*
X007178Y006236D01*
X007189Y006244D01*
X007193Y006248D01*
X007325D01*
X007333Y006250D01*
X007339Y006254D01*
X007540Y006455D01*
X011953D01*
X012076Y006331D01*
Y006069D01*
X012078Y006061D01*
X012082Y006055D01*
X012172Y005965D01*
Y005872D01*
X012161Y005865D01*
X012152Y005851D01*
X012148Y005835D01*
X012152Y005818D01*
X012161Y005804D01*
X012175Y005794D01*
X012192Y005791D01*
X012209Y005794D01*
X012210Y005795D01*
X012446Y005559D01*
X012446Y005559D01*
X012453Y005554D01*
X012461Y005553D01*
X012461Y005553D01*
X013082D01*
X013090Y005554D01*
X013096Y005559D01*
X013248Y005711D01*
X013252Y005717D01*
X013254Y005725D01*
X013254Y005725D01*
Y006715D01*
X013294Y006755D01*
X013305Y006753D01*
X013319Y006756D01*
X013331Y006763D01*
X013338Y006775D01*
X013341Y006789D01*
X013338Y006802D01*
X013331Y006814D01*
X013319Y006822D01*
X013305Y006825D01*
D02*
G37*
G36*
X007473Y006998D02*
X007459Y006995D01*
X007447Y006988D01*
X007440Y006976D01*
X007437Y006962D01*
X007440Y006948D01*
X007447Y006937D01*
X007459Y006929D01*
X007473Y006926D01*
X007486Y006929D01*
X007498Y006937D01*
X007506Y006948D01*
X007509Y006962D01*
X007506Y006976D01*
X007498Y006988D01*
X007486Y006995D01*
X007473Y006998D01*
D02*
G37*
G36*
X013290Y006990D02*
X013276Y006987D01*
X013264Y006979D01*
X013256Y006968D01*
X013256Y006967D01*
X013249Y006965D01*
X013243Y006964D01*
X013232Y006971D01*
X013218Y006974D01*
X013205Y006971D01*
X013193Y006963D01*
X013185Y006952D01*
X013183Y006938D01*
X013185Y006924D01*
X013193Y006913D01*
X013201Y006907D01*
X013205Y006893D01*
X013157Y006845D01*
X013152Y006838D01*
X013151Y006831D01*
Y005836D01*
X012974Y005659D01*
X012578D01*
X012454Y005783D01*
X012458Y005795D01*
X012460Y005795D01*
X012474Y005805D01*
X012484Y005819D01*
X012487Y005835D01*
X012484Y005852D01*
X012474Y005866D01*
X012460Y005876D01*
X012443Y005879D01*
X012427Y005876D01*
X012413Y005866D01*
X012403Y005852D01*
X012403Y005850D01*
X012391Y005846D01*
X012365Y005872D01*
Y006100D01*
X012363Y006108D01*
X012359Y006115D01*
X012213Y006261D01*
Y006313D01*
X012222Y006319D01*
X012231Y006333D01*
X012235Y006350D01*
X012231Y006367D01*
X012222Y006381D01*
X012208Y006390D01*
X012191Y006394D01*
X012179Y006391D01*
X012021Y006550D01*
X012014Y006554D01*
X012006Y006556D01*
X007491D01*
X007484Y006554D01*
X007451D01*
X007448Y006559D01*
X007437Y006566D01*
X007423Y006569D01*
X007409Y006566D01*
X007398Y006559D01*
X007390Y006547D01*
X007387Y006533D01*
X007390Y006520D01*
X007398Y006508D01*
X007409Y006500D01*
X007423Y006497D01*
X007437Y006500D01*
X007448Y006508D01*
X007454Y006516D01*
X007484D01*
X007491Y006515D01*
X011998D01*
X012150Y006362D01*
X012148Y006350D01*
X012151Y006333D01*
X012160Y006319D01*
X012171Y006312D01*
Y006252D01*
X012173Y006245D01*
X012177Y006238D01*
X012324Y006092D01*
Y005863D01*
X012325Y005856D01*
X012330Y005849D01*
X012555Y005624D01*
X012555Y005624D01*
X012561Y005620D01*
X012569Y005618D01*
X012982D01*
X012990Y005620D01*
X012997Y005624D01*
X013186Y005813D01*
X013190Y005820D01*
X013192Y005828D01*
Y006822D01*
X013288Y006918D01*
X013290Y006918D01*
X013303Y006921D01*
X013315Y006929D01*
X013323Y006940D01*
X013325Y006954D01*
X013323Y006968D01*
X013315Y006979D01*
X013303Y006987D01*
X013290Y006990D01*
D02*
G37*
G36*
X006767Y006978D02*
X006753Y006975D01*
X006741Y006967D01*
X006733Y006956D01*
X006731Y006942D01*
X006733Y006928D01*
X006741Y006916D01*
X006753Y006909D01*
X006767Y006906D01*
X006780Y006909D01*
X006792Y006916D01*
X006800Y006928D01*
X006802Y006942D01*
X006800Y006956D01*
X006792Y006967D01*
X006780Y006975D01*
X006767Y006978D01*
D02*
G37*
G36*
X007259Y006980D02*
X007246Y006978D01*
X007234Y006970D01*
X007226Y006958D01*
X007223Y006944D01*
X007226Y006931D01*
X007234Y006919D01*
X007246Y006911D01*
X007259Y006908D01*
X007273Y006911D01*
X007285Y006919D01*
X007292Y006931D01*
X007295Y006944D01*
X007292Y006958D01*
X007285Y006970D01*
X007273Y006978D01*
X007259Y006980D01*
D02*
G37*
%LPD*%
D29*
X012192Y005835D02*
X012192Y005834D01*
Y005974D01*
X012097Y006069D02*
X012192Y005974D01*
X007553Y006592D02*
X012075D01*
X007002Y006411D02*
Y006450D01*
X007002Y006410D02*
X007002Y006411D01*
Y006450D02*
X007004D01*
X007011Y006443D01*
X007045Y006294D02*
X007188Y006437D01*
Y006545D01*
X006840Y006631D02*
X006921Y006713D01*
Y006716D01*
X013171Y005828D02*
Y006831D01*
X013233Y006724D02*
X013305Y006796D01*
X013233Y005725D02*
Y006724D01*
X013305Y006789D02*
Y006796D01*
X013171Y006831D02*
X013290Y006949D01*
Y006954D01*
X013302Y005665D02*
Y006677D01*
X012982Y005639D02*
X013171Y005828D01*
X013091Y006749D02*
X013099Y006741D01*
X011944Y006415D02*
X011988Y006371D01*
X007596Y006415D02*
X011944D01*
X007511Y006331D02*
X007596Y006415D01*
X011962Y006475D02*
X012097Y006340D01*
X007531Y006475D02*
X011962D01*
X007325Y006269D02*
X007531Y006475D01*
X012006Y006535D02*
X012192Y006349D01*
X007491Y006535D02*
X012006D01*
X012075Y006592D02*
X012443Y006224D01*
X012569Y005639D02*
X012982D01*
X013091Y005904D02*
Y006741D01*
X012912Y005725D02*
X013091Y005904D01*
X012709Y005725D02*
X012912D01*
X006202Y006557D02*
Y006785D01*
X006177Y006532D02*
X006202Y006557D01*
X006177Y006392D02*
Y006532D01*
Y006392D02*
X006194Y006409D01*
X006182D02*
X006194D01*
X007011Y006443D02*
X007098Y006530D01*
Y006553D01*
X007002Y006410D02*
X007013Y006399D01*
X007511Y006326D02*
Y006331D01*
X006134Y006853D02*
X006202Y006785D01*
X006243Y005893D02*
X006246Y005895D01*
X006175Y005893D02*
X006243D01*
X006137Y005931D02*
X006175Y005893D01*
X006137Y005931D02*
Y006563D01*
X006134Y006566D02*
X006137Y006563D01*
X006840Y006302D02*
Y006631D01*
X007164Y006269D02*
X007325D01*
X006916Y006303D02*
X007013Y006399D01*
X012344Y005863D02*
Y006100D01*
X012192Y006252D02*
X012344Y006100D01*
X012192Y006252D02*
Y006349D01*
X011973Y005799D02*
X012065D01*
X011938Y005835D02*
X011973Y005799D01*
X011938Y005835D02*
Y006022D01*
Y006279D02*
X011988Y006329D01*
X011888Y006114D02*
X011938Y006164D01*
X011888Y006073D02*
X011938Y006022D01*
Y006164D02*
Y006279D01*
X011988Y006329D02*
Y006371D01*
X011888Y006073D02*
Y006114D01*
X012344Y005863D02*
X012569Y005639D01*
X012443Y005991D02*
Y006224D01*
X012065Y005766D02*
Y005799D01*
X012443Y005991D02*
X012709Y005725D01*
X012097Y006069D02*
Y006340D01*
X012065Y005766D02*
X012323Y005508D01*
X013145D02*
X013302Y005665D01*
X012323Y005508D02*
X012478D01*
X012479Y005509D01*
X012514D01*
X012516Y005508D01*
X013145D01*
X012196Y005838D02*
X012461Y005573D01*
X013082D01*
X013233Y005725D01*
D30*
X007270Y006592D02*
X007326Y006648D01*
X007465D01*
X007521Y006592D01*
X007553D01*
X007423Y006533D02*
X007425Y006535D01*
X007491D01*
X013274Y007076D02*
X013310Y007041D01*
X013353D01*
X013381Y007013D01*
Y006756D02*
Y007013D01*
X013302Y006677D02*
X013381Y006756D01*
D36*
X010200Y005000D02*
D03*
X013200Y008000D02*
D03*
Y005000D02*
D03*
X010200Y008000D02*
D03*
D37*
X007800Y007425D02*
D03*
X007838Y007350D02*
D03*
X007800Y007275D02*
D03*
Y005775D02*
D03*
X007838Y005700D02*
D03*
X007800Y005625D02*
D03*
X007838Y005550D02*
D03*
X007800Y005475D02*
D03*
X007725Y007575D02*
D03*
X007763Y007500D02*
D03*
X007725Y007425D02*
D03*
X007763Y007350D02*
D03*
X007725Y007275D02*
D03*
X007763Y007200D02*
D03*
X007725Y007125D02*
D03*
X007763Y005850D02*
D03*
X007725Y005775D02*
D03*
X007763Y005700D02*
D03*
Y005550D02*
D03*
X007725Y005475D02*
D03*
X007650Y007575D02*
D03*
X007688Y007500D02*
D03*
Y007200D02*
D03*
Y005850D02*
D03*
X007650Y005775D02*
D03*
X007688Y005550D02*
D03*
X007650Y005475D02*
D03*
X007688Y005400D02*
D03*
X007575Y007575D02*
D03*
X007613Y007500D02*
D03*
X007575Y005925D02*
D03*
Y005775D02*
D03*
Y005475D02*
D03*
X007613Y005400D02*
D03*
X007500Y007575D02*
D03*
X007538Y007500D02*
D03*
X007500Y007425D02*
D03*
Y005475D02*
D03*
X007538Y005400D02*
D03*
X007463Y007500D02*
D03*
X007425Y007425D02*
D03*
X007463Y007350D02*
D03*
X007425Y005625D02*
D03*
X007463Y005550D02*
D03*
X007425Y005475D02*
D03*
X007388Y007500D02*
D03*
X007350Y007425D02*
D03*
Y005625D02*
D03*
X007388Y005550D02*
D03*
X006150Y007425D02*
D03*
Y005625D02*
D03*
X006113Y007500D02*
D03*
X006075Y007425D02*
D03*
Y005625D02*
D03*
X006113Y005550D02*
D03*
X006075Y005475D02*
D03*
X006000Y007575D02*
D03*
X006038Y007500D02*
D03*
Y007350D02*
D03*
Y005550D02*
D03*
X006000Y005475D02*
D03*
X005925Y007575D02*
D03*
X005963Y007500D02*
D03*
Y006000D02*
D03*
X005925Y005775D02*
D03*
Y005475D02*
D03*
X005963Y005400D02*
D03*
X005850Y007575D02*
D03*
X005888Y007500D02*
D03*
Y007200D02*
D03*
X005850Y007125D02*
D03*
Y005775D02*
D03*
Y005475D02*
D03*
X005888Y005400D02*
D03*
X005775Y007575D02*
D03*
X005813Y007500D02*
D03*
X005775Y007425D02*
D03*
Y007275D02*
D03*
X005813Y007200D02*
D03*
X005775Y007125D02*
D03*
X005813Y005850D02*
D03*
X005775Y005775D02*
D03*
Y005625D02*
D03*
X005813Y005550D02*
D03*
X005775Y005475D02*
D03*
X005813Y005400D02*
D03*
X005738Y007500D02*
D03*
X005700Y007425D02*
D03*
X005738Y007350D02*
D03*
X005700Y007275D02*
D03*
X005738Y007200D02*
D03*
Y005850D02*
D03*
X005700Y005775D02*
D03*
X005738Y005700D02*
D03*
X005700Y005625D02*
D03*
X005738Y005550D02*
D03*
X005700Y005475D02*
D03*
X005663Y007350D02*
D03*
Y005700D02*
D03*
Y005550D02*
D03*
X007423Y006533D02*
D03*
X006642Y006909D02*
D03*
X007002Y006450D02*
D03*
X007188Y006545D02*
D03*
X006921Y006716D02*
D03*
X013305Y006789D02*
D03*
X013274Y007076D02*
D03*
X013290Y006954D02*
D03*
X013099Y006741D02*
D03*
X006182Y006409D02*
D03*
X006952Y006604D02*
D03*
X007270Y006592D02*
D03*
X007098Y006553D02*
D03*
X007511Y006326D02*
D03*
X006134Y006853D02*
D03*
X006576Y006208D02*
D03*
X007045Y006294D02*
D03*
X006916Y006303D02*
D03*
X006840Y006302D02*
D03*
X006642Y006756D02*
D03*
X010500Y008000D02*
D03*
X010750D02*
D03*
X011000D02*
D03*
X011250D02*
D03*
X011500D02*
D03*
X011750D02*
D03*
X012000D02*
D03*
X012250D02*
D03*
X012500D02*
D03*
X012750D02*
D03*
X010500Y007750D02*
D03*
X010750D02*
D03*
X011000D02*
D03*
X011250D02*
D03*
X011500D02*
D03*
X011750D02*
D03*
X012000D02*
D03*
X012250D02*
D03*
X012500D02*
D03*
X012750D02*
D03*
X012500Y007500D02*
D03*
X012250D02*
D03*
X012000D02*
D03*
X011750D02*
D03*
X011500D02*
D03*
X011250D02*
D03*
X011000D02*
D03*
X010750D02*
D03*
X010250Y005500D02*
D03*
X010500D02*
D03*
X011750D02*
D03*
X011000D02*
D03*
X010750D02*
D03*
X011250D02*
D03*
X011500D02*
D03*
X012000D02*
D03*
X012500Y005250D02*
D03*
X012750D02*
D03*
X013000D02*
D03*
X012750Y005000D02*
D03*
X011000D02*
D03*
X010500D02*
D03*
X010750D02*
D03*
X011500D02*
D03*
X011250D02*
D03*
X012500D02*
D03*
X011750D02*
D03*
X012000D02*
D03*
X012250D02*
D03*
X010500Y005250D02*
D03*
X010750D02*
D03*
X011000D02*
D03*
X011750D02*
D03*
X011250D02*
D03*
X011500D02*
D03*
X012250D02*
D03*
X012000D02*
D03*
X010500Y007500D02*
D03*
X010250D02*
D03*
X007100Y006964D02*
D03*
X006124Y007031D02*
D03*
X006246Y005895D02*
D03*
X013250Y005500D02*
D03*
X006134Y006566D02*
D03*
X006706Y007079D02*
D03*
X012890Y005801D02*
D03*
X012497Y005466D02*
D03*
X012248Y005478D02*
D03*
X012309Y005613D02*
D03*
X013005Y007381D02*
D03*
X013100D02*
D03*
X013199D02*
D03*
X013295D02*
D03*
X013395D02*
D03*
X007368Y006732D02*
D03*
X007347Y006808D02*
D03*
X006478Y005830D02*
D03*
X006974Y005792D02*
D03*
X007164Y006269D02*
D03*
D38*
X012446Y006083D02*
D03*
X012191Y006350D02*
D03*
X012443Y006600D02*
D03*
X011938Y005835D02*
D03*
X012192D02*
D03*
M02*
