G04 Layer_Color=2752767*
%FSAX42Y42*%
%MOMM*%
G71*
G01*
G75*
%ADD74C,0.05*%
%ADD88C,0.07*%
D74*
X005880Y005630D02*
Y005671D01*
X005921D01*
Y005630D01*
X005880D01*
X007586Y005630D02*
Y005670D01*
X007626D01*
Y005630D01*
X007586D01*
Y007329D02*
Y007370D01*
X007626D01*
Y007329D01*
X007586D01*
X005880Y007330D02*
Y007370D01*
X005921D01*
Y007330D01*
X005880D01*
X007800Y007405D02*
X007780Y007445D01*
X007820D01*
X007800Y007405D01*
X007838Y007330D02*
X007817Y007370D01*
X007858D01*
X007838Y007330D01*
X007800Y007255D02*
X007780Y007295D01*
X007820D01*
X007800Y007255D01*
Y005755D02*
X007780Y005795D01*
X007820D01*
X007800Y005755D01*
X007838Y005680D02*
X007817Y005720D01*
X007858D01*
X007838Y005680D01*
X007800Y005605D02*
X007780Y005645D01*
X007820D01*
X007800Y005605D01*
X007838Y005530D02*
X007817Y005570D01*
X007858D01*
X007838Y005530D01*
X007800Y005455D02*
X007780Y005495D01*
X007820D01*
X007800Y005455D01*
X007725Y007555D02*
X007705Y007595D01*
X007745D01*
X007725Y007555D01*
X007763Y007480D02*
X007742Y007520D01*
X007783D01*
X007763Y007480D01*
X007725Y007405D02*
X007705Y007445D01*
X007745D01*
X007725Y007405D01*
X007763Y007330D02*
X007742Y007370D01*
X007783D01*
X007763Y007330D01*
X007725Y007255D02*
X007705Y007295D01*
X007745D01*
X007725Y007255D01*
X007763Y007180D02*
X007742Y007220D01*
X007783D01*
X007763Y007180D01*
X007725Y007105D02*
X007705Y007145D01*
X007745D01*
X007725Y007105D01*
X007763Y005830D02*
X007742Y005870D01*
X007783D01*
X007763Y005830D01*
X007725Y005755D02*
X007705Y005795D01*
X007745D01*
X007725Y005755D01*
X007763Y005680D02*
X007742Y005720D01*
X007783D01*
X007763Y005680D01*
Y005530D02*
X007742Y005570D01*
X007783D01*
X007763Y005530D01*
X007725Y005455D02*
X007705Y005495D01*
X007745D01*
X007725Y005455D01*
X007650Y007555D02*
X007630Y007595D01*
X007670D01*
X007650Y007555D01*
X007688Y007480D02*
X007667Y007520D01*
X007708D01*
X007688Y007480D01*
Y007180D02*
X007667Y007220D01*
X007708D01*
X007688Y007180D01*
Y005830D02*
X007667Y005870D01*
X007708D01*
X007688Y005830D01*
X007650Y005755D02*
X007630Y005795D01*
X007670D01*
X007650Y005755D01*
X007688Y005530D02*
X007667Y005570D01*
X007708D01*
X007688Y005530D01*
X007650Y005455D02*
X007630Y005495D01*
X007670D01*
X007650Y005455D01*
X007688Y005380D02*
X007667Y005420D01*
X007708D01*
X007688Y005380D01*
X007575Y007555D02*
X007555Y007595D01*
X007595D01*
X007575Y007555D01*
X007613Y007480D02*
X007592Y007520D01*
X007633D01*
X007613Y007480D01*
X007575Y005905D02*
X007555Y005945D01*
X007595D01*
X007575Y005905D01*
Y005755D02*
X007555Y005795D01*
X007595D01*
X007575Y005755D01*
Y005455D02*
X007555Y005495D01*
X007595D01*
X007575Y005455D01*
X007613Y005380D02*
X007592Y005420D01*
X007633D01*
X007613Y005380D01*
X007500Y007555D02*
X007480Y007595D01*
X007520D01*
X007500Y007555D01*
X007538Y007480D02*
X007517Y007520D01*
X007558D01*
X007538Y007480D01*
X007500Y007405D02*
X007480Y007445D01*
X007520D01*
X007500Y007405D01*
Y005455D02*
X007480Y005495D01*
X007520D01*
X007500Y005455D01*
X007538Y005380D02*
X007517Y005420D01*
X007558D01*
X007538Y005380D01*
X007463Y007480D02*
X007442Y007520D01*
X007483D01*
X007463Y007480D01*
X007425Y007405D02*
X007405Y007445D01*
X007445D01*
X007425Y007405D01*
X007463Y007330D02*
X007442Y007370D01*
X007483D01*
X007463Y007330D01*
X007425Y005605D02*
X007405Y005645D01*
X007445D01*
X007425Y005605D01*
X007463Y005530D02*
X007442Y005570D01*
X007483D01*
X007463Y005530D01*
X007425Y005455D02*
X007405Y005495D01*
X007445D01*
X007425Y005455D01*
X007388Y007480D02*
X007367Y007520D01*
X007408D01*
X007388Y007480D01*
X007350Y007405D02*
X007330Y007445D01*
X007370D01*
X007350Y007405D01*
Y005605D02*
X007330Y005645D01*
X007370D01*
X007350Y005605D01*
X007388Y005530D02*
X007367Y005570D01*
X007408D01*
X007388Y005530D01*
X006150Y007405D02*
X006130Y007445D01*
X006170D01*
X006150Y007405D01*
Y005605D02*
X006130Y005645D01*
X006170D01*
X006150Y005605D01*
X006113Y007480D02*
X006092Y007520D01*
X006133D01*
X006113Y007480D01*
X006075Y007405D02*
X006055Y007445D01*
X006095D01*
X006075Y007405D01*
Y005605D02*
X006055Y005645D01*
X006095D01*
X006075Y005605D01*
X006113Y005530D02*
X006092Y005570D01*
X006133D01*
X006113Y005530D01*
X006075Y005455D02*
X006055Y005495D01*
X006095D01*
X006075Y005455D01*
X006000Y007555D02*
X005980Y007595D01*
X006020D01*
X006000Y007555D01*
X006038Y007480D02*
X006017Y007520D01*
X006058D01*
X006038Y007480D01*
Y007330D02*
X006017Y007370D01*
X006058D01*
X006038Y007330D01*
Y005530D02*
X006017Y005570D01*
X006058D01*
X006038Y005530D01*
X006000Y005455D02*
X005980Y005495D01*
X006020D01*
X006000Y005455D01*
X005925Y007555D02*
X005905Y007595D01*
X005945D01*
X005925Y007555D01*
X005963Y007480D02*
X005942Y007520D01*
X005983D01*
X005963Y007480D01*
Y005980D02*
X005942Y006020D01*
X005983D01*
X005963Y005980D01*
X005925Y005755D02*
X005905Y005795D01*
X005945D01*
X005925Y005755D01*
Y005455D02*
X005905Y005495D01*
X005945D01*
X005925Y005455D01*
X005963Y005380D02*
X005942Y005420D01*
X005983D01*
X005963Y005380D01*
X005850Y007555D02*
X005830Y007595D01*
X005870D01*
X005850Y007555D01*
X005888Y007480D02*
X005867Y007520D01*
X005908D01*
X005888Y007480D01*
Y007180D02*
X005867Y007220D01*
X005908D01*
X005888Y007180D01*
X005850Y007105D02*
X005830Y007145D01*
X005870D01*
X005850Y007105D01*
Y005755D02*
X005830Y005795D01*
X005870D01*
X005850Y005755D01*
Y005455D02*
X005830Y005495D01*
X005870D01*
X005850Y005455D01*
X005888Y005380D02*
X005867Y005420D01*
X005908D01*
X005888Y005380D01*
X005775Y007555D02*
X005755Y007595D01*
X005795D01*
X005775Y007555D01*
X005813Y007480D02*
X005792Y007520D01*
X005833D01*
X005813Y007480D01*
X005775Y007405D02*
X005755Y007445D01*
X005795D01*
X005775Y007405D01*
Y007255D02*
X005755Y007295D01*
X005795D01*
X005775Y007255D01*
X005813Y007180D02*
X005792Y007220D01*
X005833D01*
X005813Y007180D01*
X005775Y007105D02*
X005755Y007145D01*
X005795D01*
X005775Y007105D01*
X005813Y005830D02*
X005792Y005870D01*
X005833D01*
X005813Y005830D01*
X005775Y005755D02*
X005755Y005795D01*
X005795D01*
X005775Y005755D01*
Y005605D02*
X005755Y005645D01*
X005795D01*
X005775Y005605D01*
X005813Y005530D02*
X005792Y005570D01*
X005833D01*
X005813Y005530D01*
X005775Y005455D02*
X005755Y005495D01*
X005795D01*
X005775Y005455D01*
X005813Y005380D02*
X005792Y005420D01*
X005833D01*
X005813Y005380D01*
X005738Y007480D02*
X005717Y007520D01*
X005758D01*
X005738Y007480D01*
X005700Y007405D02*
X005680Y007445D01*
X005720D01*
X005700Y007405D01*
X005738Y007330D02*
X005717Y007370D01*
X005758D01*
X005738Y007330D01*
X005700Y007255D02*
X005680Y007295D01*
X005720D01*
X005700Y007255D01*
X005738Y007180D02*
X005717Y007220D01*
X005758D01*
X005738Y007180D01*
Y005830D02*
X005717Y005870D01*
X005758D01*
X005738Y005830D01*
X005700Y005755D02*
X005680Y005795D01*
X005720D01*
X005700Y005755D01*
X005738Y005680D02*
X005717Y005720D01*
X005758D01*
X005738Y005680D01*
X005700Y005605D02*
X005680Y005645D01*
X005720D01*
X005700Y005605D01*
X005738Y005530D02*
X005717Y005570D01*
X005758D01*
X005738Y005530D01*
X005700Y005455D02*
X005680Y005495D01*
X005720D01*
X005700Y005455D01*
X005663Y007330D02*
X005642Y007370D01*
X005683D01*
X005663Y007330D01*
Y005680D02*
X005642Y005720D01*
X005683D01*
X005663Y005680D01*
Y005530D02*
X005642Y005570D01*
X005683D01*
X005663Y005530D01*
X012446Y006063D02*
X012426Y006104D01*
X012466D01*
X012446Y006063D01*
Y006330D02*
X012426Y006370D01*
X012466D01*
X012446Y006330D01*
X012443Y005815D02*
X012423Y005856D01*
X012464D01*
X012443Y005815D01*
X012191Y006330D02*
X012171Y006370D01*
X012211D01*
X012191Y006330D01*
X012443Y006580D02*
X012423Y006620D01*
X012464D01*
X012443Y006580D01*
X012192Y006068D02*
X012172Y006109D01*
X012212D01*
X012192Y006068D01*
X011938Y006073D02*
X011918Y006114D01*
X011958D01*
X011938Y006073D01*
Y005814D02*
X011918Y005855D01*
X011958D01*
X011938Y005814D01*
Y006330D02*
X011918Y006370D01*
X011958D01*
X011938Y006330D01*
X007423Y006513D02*
X007403Y006554D01*
X007443D01*
X007423Y006513D01*
X006767Y006921D02*
X006746Y006962D01*
X006787D01*
X006767Y006921D01*
X006642Y006888D02*
X006622Y006929D01*
X006662D01*
X006642Y006888D01*
X006101Y006613D02*
X006081Y006654D01*
X006121D01*
X006101Y006613D01*
X006069Y006233D02*
X006049Y006273D01*
X006089D01*
X006069Y006233D01*
X007002Y006429D02*
X006982Y006470D01*
X007022D01*
X007002Y006429D01*
X007188Y006524D02*
X007168Y006565D01*
X007209D01*
X007188Y006524D01*
X006921Y006696D02*
X006901Y006736D01*
X006942D01*
X006921Y006696D01*
X007475Y006195D02*
X007455Y006235D01*
X007495D01*
X007475Y006195D01*
X013305Y006768D02*
X013285Y006809D01*
X013326D01*
X013305Y006768D01*
X013213Y007121D02*
X013193Y007162D01*
X013234D01*
X013213Y007121D01*
X013274Y007056D02*
X013254Y007097D01*
X013294D01*
X013274Y007056D01*
X013288Y007118D02*
X013268Y007158D01*
X013308D01*
X013288Y007118D01*
X013290Y006934D02*
X013269Y006974D01*
X013310D01*
X013290Y006934D01*
X013218Y006918D02*
X013198Y006958D01*
X013239D01*
X013218Y006918D01*
X013099Y006720D02*
X013079Y006761D01*
X013119D01*
X013099Y006720D01*
X006542Y006317D02*
X006521Y006358D01*
X006562D01*
X006542Y006317D01*
X006222Y006432D02*
X006202Y006473D01*
X006243D01*
X006222Y006432D01*
X006182Y006389D02*
X006161Y006430D01*
X006202D01*
X006182Y006389D01*
X006289Y006530D02*
X006269Y006571D01*
X006310D01*
X006289Y006530D01*
X006952Y006584D02*
X006932Y006624D01*
X006972D01*
X006952Y006584D01*
X007270Y006572D02*
X007249Y006613D01*
X007290D01*
X007270Y006572D01*
X007098Y006533D02*
X007078Y006573D01*
X007118D01*
X007098Y006533D01*
X007511Y006305D02*
X007490Y006346D01*
X007531D01*
X007511Y006305D01*
X007301Y006156D02*
X007281Y006197D01*
X007322D01*
X007301Y006156D01*
X007252Y005710D02*
X007232Y005751D01*
X007272D01*
X007252Y005710D01*
X006217Y005725D02*
X006197Y005765D01*
X006237D01*
X006217Y005725D01*
X006047Y005949D02*
X006027Y005990D01*
X006067D01*
X006047Y005949D01*
X006075Y007092D02*
X006055Y007133D01*
X006096D01*
X006075Y007092D01*
X006233Y007255D02*
X006213Y007296D01*
X006254D01*
X006233Y007255D01*
X007261Y007249D02*
X007241Y007290D01*
X007281D01*
X007261Y007249D01*
X006134Y006833D02*
X006114Y006874D01*
X006154D01*
X006134Y006833D01*
X006576Y006188D02*
X006555Y006229D01*
X006596D01*
X006576Y006188D01*
X007045Y006273D02*
X007025Y006314D01*
X007066D01*
X007045Y006273D01*
X006916Y006283D02*
X006896Y006323D01*
X006937D01*
X006916Y006283D01*
X006840Y006282D02*
X006820Y006322D01*
X006860D01*
X006840Y006282D01*
X006189Y005974D02*
X006169Y006015D01*
X006209D01*
X006189Y005974D01*
X013282Y007211D02*
X013261Y007252D01*
X013302D01*
X013282Y007211D01*
X006642Y006736D02*
X006622Y006777D01*
X006662D01*
X006642Y006736D01*
X010500Y007980D02*
X010480Y008020D01*
X010520D01*
X010500Y007980D01*
X010750D02*
X010730Y008020D01*
X010770D01*
X010750Y007980D01*
X011000D02*
X010980Y008020D01*
X011020D01*
X011000Y007980D01*
X011250D02*
X011230Y008020D01*
X011270D01*
X011250Y007980D01*
X011500D02*
X011480Y008020D01*
X011520D01*
X011500Y007980D01*
X011750D02*
X011730Y008020D01*
X011770D01*
X011750Y007980D01*
X012000D02*
X011980Y008020D01*
X012020D01*
X012000Y007980D01*
X012250D02*
X012230Y008020D01*
X012270D01*
X012250Y007980D01*
X012500D02*
X012480Y008020D01*
X012520D01*
X012500Y007980D01*
X012750D02*
X012730Y008020D01*
X012770D01*
X012750Y007980D01*
X010500Y007730D02*
X010480Y007770D01*
X010520D01*
X010500Y007730D01*
X010750D02*
X010730Y007770D01*
X010770D01*
X010750Y007730D01*
X011000D02*
X010980Y007770D01*
X011020D01*
X011000Y007730D01*
X011250D02*
X011230Y007770D01*
X011270D01*
X011250Y007730D01*
X011500D02*
X011480Y007770D01*
X011520D01*
X011500Y007730D01*
X011750D02*
X011730Y007770D01*
X011770D01*
X011750Y007730D01*
X012000D02*
X011980Y007770D01*
X012020D01*
X012000Y007730D01*
X012250D02*
X012230Y007770D01*
X012270D01*
X012250Y007730D01*
X012500D02*
X012480Y007770D01*
X012520D01*
X012500Y007730D01*
X012750D02*
X012730Y007770D01*
X012770D01*
X012750Y007730D01*
X012500Y007480D02*
X012480Y007520D01*
X012520D01*
X012500Y007480D01*
X012250D02*
X012230Y007520D01*
X012270D01*
X012250Y007480D01*
X012000D02*
X011980Y007520D01*
X012020D01*
X012000Y007480D01*
X011750D02*
X011730Y007520D01*
X011770D01*
X011750Y007480D01*
X011500D02*
X011480Y007520D01*
X011520D01*
X011500Y007480D01*
X011250D02*
X011230Y007520D01*
X011270D01*
X011250Y007480D01*
X011000D02*
X010980Y007520D01*
X011020D01*
X011000Y007480D01*
X010750D02*
X010730Y007520D01*
X010770D01*
X010750Y007480D01*
X010250Y005480D02*
X010230Y005520D01*
X010270D01*
X010250Y005480D01*
X010500D02*
X010480Y005520D01*
X010520D01*
X010500Y005480D01*
X011750D02*
X011730Y005520D01*
X011770D01*
X011750Y005480D01*
X011000D02*
X010980Y005520D01*
X011020D01*
X011000Y005480D01*
X010750D02*
X010730Y005520D01*
X010770D01*
X010750Y005480D01*
X011250D02*
X011230Y005520D01*
X011270D01*
X011250Y005480D01*
X011500D02*
X011480Y005520D01*
X011520D01*
X011500Y005480D01*
X012000D02*
X011980Y005520D01*
X012020D01*
X012000Y005480D01*
X012500Y005230D02*
X012480Y005270D01*
X012520D01*
X012500Y005230D01*
X012750D02*
X012730Y005270D01*
X012770D01*
X012750Y005230D01*
X013000D02*
X012980Y005270D01*
X013020D01*
X013000Y005230D01*
X012750Y004980D02*
X012730Y005020D01*
X012770D01*
X012750Y004980D01*
X011000D02*
X010980Y005020D01*
X011020D01*
X011000Y004980D01*
X010500D02*
X010480Y005020D01*
X010520D01*
X010500Y004980D01*
X010750D02*
X010730Y005020D01*
X010770D01*
X010750Y004980D01*
X011500D02*
X011480Y005020D01*
X011520D01*
X011500Y004980D01*
X011250D02*
X011230Y005020D01*
X011270D01*
X011250Y004980D01*
X012500D02*
X012480Y005020D01*
X012520D01*
X012500Y004980D01*
X011750D02*
X011730Y005020D01*
X011770D01*
X011750Y004980D01*
X012000D02*
X011980Y005020D01*
X012020D01*
X012000Y004980D01*
X012250D02*
X012230Y005020D01*
X012270D01*
X012250Y004980D01*
X010500Y005230D02*
X010480Y005270D01*
X010520D01*
X010500Y005230D01*
X010750D02*
X010730Y005270D01*
X010770D01*
X010750Y005230D01*
X011000D02*
X010980Y005270D01*
X011020D01*
X011000Y005230D01*
X011750D02*
X011730Y005270D01*
X011770D01*
X011750Y005230D01*
X011250D02*
X011230Y005270D01*
X011270D01*
X011250Y005230D01*
X011500D02*
X011480Y005270D01*
X011520D01*
X011500Y005230D01*
X012250D02*
X012230Y005270D01*
X012270D01*
X012250Y005230D01*
X012000D02*
X011980Y005270D01*
X012020D01*
X012000Y005230D01*
X010500Y007480D02*
X010480Y007520D01*
X010520D01*
X010500Y007480D01*
X010250D02*
X010230Y007520D01*
X010270D01*
X010250Y007480D01*
X007100Y006944D02*
X007080Y006984D01*
X007120D01*
X007100Y006944D01*
X006124Y007010D02*
X006104Y007051D01*
X006144D01*
X006124Y007010D01*
X007259Y006924D02*
X007239Y006965D01*
X007280D01*
X007259Y006924D01*
X006246Y005875D02*
X006226Y005916D01*
X006266D01*
X006246Y005875D01*
X006574Y006010D02*
X006553Y006050D01*
X006594D01*
X006574Y006010D01*
X006132Y006899D02*
X006111Y006939D01*
X006152D01*
X006132Y006899D01*
X013250Y005480D02*
X013230Y005520D01*
X013270D01*
X013250Y005480D01*
X006312Y007041D02*
X006292Y007082D01*
X006332D01*
X006312Y007041D01*
X006134Y006546D02*
X006114Y006586D01*
X006154D01*
X006134Y006546D01*
X006706Y007059D02*
X006685Y007099D01*
X006726D01*
X006706Y007059D01*
X007473Y006942D02*
X007452Y006982D01*
X007493D01*
X007473Y006942D01*
X012890Y005781D02*
X012870Y005822D01*
X012911D01*
X012890Y005781D01*
X013114Y007173D02*
X013094Y007214D01*
X013134D01*
X013114Y007173D01*
X013226Y007013D02*
X013205Y007054D01*
X013246D01*
X013226Y007013D01*
X012192Y005814D02*
X012172Y005855D01*
X012212D01*
X012192Y005814D01*
X012724Y005438D02*
X012704Y005479D01*
X012745D01*
X012724Y005438D01*
X012497Y005446D02*
X012476Y005486D01*
X012517D01*
X012497Y005446D01*
X012248Y005457D02*
X012227Y005498D01*
X012268D01*
X012248Y005457D01*
X012309Y005593D02*
X012288Y005634D01*
X012329D01*
X012309Y005593D01*
X013005Y007361D02*
X012984Y007402D01*
X013025D01*
X013005Y007361D01*
X013100D02*
X013080Y007402D01*
X013121D01*
X013100Y007361D01*
X013199D02*
X013179Y007402D01*
X013219D01*
X013199Y007361D01*
X013295D02*
X013275Y007402D01*
X013316D01*
X013295Y007361D01*
X013395D02*
X013374Y007402D01*
X013415D01*
X013395Y007361D01*
X007368Y006712D02*
X007348Y006753D01*
X007389D01*
X007368Y006712D01*
X007477Y005892D02*
X007457Y005933D01*
X007498D01*
X007477Y005892D01*
X007347Y006788D02*
X007326Y006828D01*
X007367D01*
X007347Y006788D01*
X006478Y005809D02*
X006458Y005850D01*
X006499D01*
X006478Y005809D01*
X006974Y005771D02*
X006953Y005812D01*
X006994D01*
X006974Y005771D01*
X006776Y005783D02*
X006756Y005824D01*
X006797D01*
X006776Y005783D01*
X007164Y006249D02*
X007144Y006289D01*
X007184D01*
X007164Y006249D01*
D88*
X010220Y005000D02*
G03*
X010220Y005000I-000020J000000D01*
G01*
X013220Y008000D02*
G03*
X013220Y008000I-000020J000000D01*
G01*
Y005000D02*
G03*
X013220Y005000I-000020J000000D01*
G01*
X010220Y008000D02*
G03*
X010220Y008000I-000020J000000D01*
G01*
M02*
