G04 Layer_Color=16711935*
%FSLAX44Y44*%
%MOMM*%
G71*
G01*
G75*
G04:AMPARAMS|DCode=197|XSize=1.5508mm|YSize=1.0508mm|CornerRadius=0.2754mm|HoleSize=0mm|Usage=FLASHONLY|Rotation=180.000|XOffset=0mm|YOffset=0mm|HoleType=Round|Shape=RoundedRectangle|*
%AMROUNDEDRECTD197*
21,1,1.5508,0.5000,0,0,180.0*
21,1,1.0000,1.0508,0,0,180.0*
1,1,0.5508,-0.5000,0.2500*
1,1,0.5508,0.5000,0.2500*
1,1,0.5508,0.5000,-0.2500*
1,1,0.5508,-0.5000,-0.2500*
%
%ADD197ROUNDEDRECTD197*%
%ADD198C,1.5508*%
%ADD200C,2.1368*%
%ADD201C,3.1369*%
%ADD202C,1.2700*%
%ADD203R,1.2700X1.2700*%
%ADD204C,4.7371*%
%ADD205C,4.1656*%
%ADD206R,1.5508X1.5508*%
G04:AMPARAMS|DCode=207|XSize=1.0668mm|YSize=1.0668mm|CornerRadius=0.5334mm|HoleSize=0mm|Usage=FLASHONLY|Rotation=90.000|XOffset=0mm|YOffset=0mm|HoleType=Round|Shape=RoundedRectangle|*
%AMROUNDEDRECTD207*
21,1,1.0668,0.0000,0,0,90.0*
21,1,0.0000,1.0668,0,0,90.0*
1,1,1.0668,0.0000,0.0000*
1,1,1.0668,0.0000,0.0000*
1,1,1.0668,0.0000,0.0000*
1,1,1.0668,0.0000,0.0000*
%
%ADD207ROUNDEDRECTD207*%
G04:AMPARAMS|DCode=208|XSize=1.3208mm|YSize=1.3208mm|CornerRadius=0.6604mm|HoleSize=0mm|Usage=FLASHONLY|Rotation=90.000|XOffset=0mm|YOffset=0mm|HoleType=Round|Shape=RoundedRectangle|*
%AMROUNDEDRECTD208*
21,1,1.3208,0.0000,0,0,90.0*
21,1,0.0000,1.3208,0,0,90.0*
1,1,1.3208,0.0000,0.0000*
1,1,1.3208,0.0000,0.0000*
1,1,1.3208,0.0000,0.0000*
1,1,1.3208,0.0000,0.0000*
%
%ADD208ROUNDEDRECTD208*%
%ADD209R,0.7874X2.8448*%
%ADD210R,0.7874X2.5508*%
%ADD211O,3.0508X9.0508*%
D197*
X2494534Y441198D02*
D03*
X2469134D02*
D03*
D198*
X2519934D02*
D03*
X2443734D02*
D03*
X2359660Y793750D02*
D03*
X2334260D02*
D03*
X2308860D02*
D03*
X2283460D02*
D03*
X2258060D02*
D03*
X2311146Y559816D02*
D03*
X2370074Y597408D02*
D03*
X2292604Y562610D02*
D03*
X2308606Y579882D02*
D03*
X2321560Y595884D02*
D03*
X2340610Y603504D02*
D03*
X2313178Y706120D02*
D03*
X2349246Y669290D02*
D03*
X2308098Y644906D02*
D03*
X2310384Y675132D02*
D03*
X2368550Y440690D02*
D03*
X2343150D02*
D03*
X2317750D02*
D03*
X2292350D02*
D03*
X2266950D02*
D03*
D200*
X2569464Y506966D02*
D03*
D201*
Y727202D02*
D03*
D202*
X2246376Y607314D02*
D03*
Y632714D02*
D03*
Y658114D02*
D03*
Y683514D02*
D03*
Y581914D02*
D03*
Y556514D02*
D03*
D203*
Y708914D02*
D03*
D204*
X2406376Y700514D02*
D03*
D205*
X2669286Y769112D02*
D03*
Y465074D02*
D03*
X2429510Y769112D02*
D03*
D206*
X2385060Y793750D02*
D03*
X2393950Y440690D02*
D03*
D207*
X2397760Y595884D02*
D03*
X2290318Y630936D02*
D03*
X2588260Y697230D02*
D03*
X2601365Y781050D02*
D03*
X2609320Y721338D02*
D03*
D208*
X2445187Y520230D02*
D03*
D209*
X2457196Y504444D02*
D03*
X2469896D02*
D03*
X2482596D02*
D03*
X2495296D02*
D03*
X2507996D02*
D03*
D210*
X2457196Y465800D02*
D03*
X2469896D02*
D03*
X2482596D02*
D03*
X2495296D02*
D03*
X2507996D02*
D03*
D211*
X2240280Y462534D02*
D03*
X2702306Y567182D02*
D03*
X2701798Y673354D02*
D03*
M02*
