G04 Layer_Physical_Order=3*
G04 Layer_Color=6736896*
%FSLAX44Y44*%
%MOMM*%
G71*
G01*
G75*
%ADD62C,0.2540*%
%ADD63C,0.1270*%
%ADD64C,0.3000*%
%ADD65C,0.7000*%
%ADD66C,0.5000*%
%ADD69C,1.5000*%
%ADD73C,1.2192*%
%ADD77R,1.5000X1.5000*%
%ADD78C,0.4500*%
%ADD79O,3.0000X9.0000*%
D62*
X2528570Y453898D02*
Y454406D01*
Y453898D02*
X2535174Y447294D01*
X2580132D01*
X2579774Y531555D02*
X2580215Y531114D01*
D63*
X2291588Y615737D02*
Y618236D01*
X2289917Y614066D02*
X2291588Y615737D01*
X2272351Y640775D02*
X2287994D01*
X2294344Y634425D01*
X2341962D01*
X2262124Y630682D02*
X2268220D01*
Y628650D02*
X2268728Y629158D01*
Y630682D01*
X2275793Y608838D02*
X2281021Y614066D01*
X2266442Y608838D02*
X2275793D01*
X2281021Y614066D02*
X2289917D01*
X2264985Y610295D02*
X2266442Y608838D01*
X2247713Y631377D02*
X2254317D01*
X2256028Y629666D01*
Y619252D02*
Y629666D01*
Y619252D02*
X2262311Y612969D01*
Y612864D02*
Y612969D01*
Y612864D02*
X2264880Y610295D01*
X2264985D01*
X2257044Y635762D02*
X2262124Y630682D01*
X2246376Y632714D02*
X2247713Y631377D01*
X2292671Y576169D02*
X2298593Y570247D01*
X2292671Y576169D02*
Y576364D01*
X2283901Y572732D02*
X2284205Y572428D01*
Y572245D02*
Y572428D01*
X2290102Y578933D02*
X2292671Y576364D01*
X2286470Y578933D02*
X2290102D01*
X2283901Y576364D02*
X2286470Y578933D01*
X2283901Y572732D02*
Y576364D01*
X2280920Y568960D02*
X2284205Y572245D01*
X2394534Y654486D02*
X2407053Y667004D01*
X2246376Y658114D02*
X2255012D01*
X2407053Y667004D02*
X2409952D01*
X2348014Y636845D02*
X2349164Y635695D01*
X2344382Y636845D02*
X2348014D01*
X2341962Y634425D02*
X2344382Y636845D01*
X2255012Y658114D02*
X2272351Y640775D01*
X2283034Y724341D02*
X2286800D01*
X2279697Y721004D02*
X2283034Y724341D01*
X2286800D02*
X2288068Y725609D01*
X2358390Y620522D02*
X2364232Y614680D01*
X2334006Y620522D02*
X2358390D01*
X2421195Y544135D02*
X2421890Y544830D01*
X2413000Y537210D02*
X2415540Y539750D01*
X2416316Y534325D02*
X2420725Y538734D01*
X2421571Y535662D02*
X2434673D01*
X2417464Y531555D02*
X2421571Y535662D01*
X2422718Y532892D02*
X2445351D01*
X2418611Y528785D02*
X2422718Y532892D01*
X2413724Y544135D02*
X2421195D01*
X2409569Y539980D02*
X2413724Y544135D01*
X2353161Y537210D02*
X2413000D01*
X2351695Y534325D02*
X2416316D01*
X2361476Y531555D02*
X2417464D01*
X2413724Y528785D02*
X2418611D01*
X2256282Y683514D02*
X2264410Y691642D01*
X2249170Y683514D02*
X2256282D01*
X2267736Y476734D02*
X2286000Y458470D01*
X2267736Y476734D02*
Y502543D01*
X2269260Y504067D02*
Y508230D01*
X2267736Y502543D02*
X2269260Y504067D01*
X2270506Y501396D02*
X2272030Y502920D01*
X2270506Y479193D02*
Y501396D01*
Y479193D02*
X2286724Y462975D01*
X2320932Y570992D02*
X2321814D01*
X2320865Y570925D02*
X2320932Y570992D01*
X2444674Y515845D02*
X2450770Y509749D01*
X2335755Y515845D02*
X2444674D01*
X2385246Y509270D02*
X2389051Y513075D01*
X2443526D02*
X2449622Y506979D01*
X2389051Y513075D02*
X2443526D01*
X2381543Y501650D02*
X2390198Y510305D01*
X2442379D01*
X2448475Y504209D01*
X2441232Y507535D02*
X2447328Y501439D01*
X2381076Y497265D02*
X2391346Y507535D01*
X2441232D01*
X2438946Y504765D02*
X2441515Y502196D01*
X2382223Y494495D02*
X2392493Y504765D01*
X2438946D01*
X2379980Y509270D02*
X2385246D01*
X2358936Y529015D02*
X2361476Y531555D01*
X2339489Y532130D02*
X2342604Y529015D01*
X2358936D01*
X2557967Y453069D02*
X2588211D01*
X2588260Y453118D01*
X2582888Y461839D02*
X2589971D01*
X2577233Y456184D02*
X2582888Y461839D01*
X2561441Y456184D02*
X2577233D01*
X2574290Y477520D02*
Y479298D01*
X2548382Y472694D02*
X2582164D01*
X2558542Y466344D02*
X2582926D01*
X2555216Y469670D02*
X2558542Y466344D01*
X2545415Y469670D02*
X2555216D01*
X2589971Y461839D02*
X2598166Y453644D01*
Y453136D02*
Y455168D01*
X2345839Y534670D02*
X2348954Y537785D01*
X2352586D02*
X2353161Y537210D01*
X2348954Y537785D02*
X2352586D01*
X2344674Y534670D02*
X2345839D01*
X2347231Y539980D02*
X2347806Y540555D01*
X2344928Y539980D02*
X2347231D01*
X2342364Y542544D02*
X2344928Y539980D01*
X2340610Y542544D02*
X2342364D01*
X2543623Y482025D02*
Y482638D01*
X2541054Y485207D02*
X2543623Y482638D01*
X2540441Y485207D02*
X2541054D01*
X2540000Y485648D02*
X2540441Y485207D01*
X2534412Y485648D02*
X2540000D01*
X2512640Y507420D02*
X2534412Y485648D01*
X2510330Y504650D02*
X2534158Y480822D01*
X2539238D01*
X2543623Y482025D02*
X2546628Y479020D01*
X2539238Y480822D02*
X2540254D01*
X2548382Y472694D01*
X2540105Y474980D02*
X2545415Y469670D01*
X2508020Y501880D02*
X2534920Y474980D01*
X2536190D01*
X2540105D01*
X2534455Y459486D02*
Y469054D01*
X2530264Y473245D02*
X2534455Y469054D01*
X2531685Y458339D02*
Y467906D01*
X2529116Y470475D02*
X2531685Y467906D01*
X2528290Y470475D02*
X2529116D01*
X2521990Y476775D02*
X2528290Y470475D01*
X2555810Y461815D02*
X2561441Y456184D01*
X2554411Y459045D02*
X2557018Y456438D01*
X2548852Y459045D02*
X2554411D01*
X2547704Y461815D02*
X2555810D01*
X2545375Y459486D02*
X2547704Y461815D01*
X2534455Y459486D02*
X2545375D01*
X2546523Y456716D02*
X2548852Y459045D01*
X2533308Y456716D02*
X2546523D01*
X2531685Y458339D02*
X2533308Y456716D01*
X2524760Y477923D02*
X2529438Y473245D01*
X2530264D01*
X2505725Y496340D02*
X2521990Y480075D01*
Y476775D02*
Y480075D01*
X2506873Y499110D02*
X2524760Y481223D01*
Y477923D02*
Y481223D01*
X2546628Y479020D02*
X2572790D01*
X2587398Y527055D02*
X2644135D01*
X2587152Y527301D02*
X2587398Y527055D01*
X2585383Y527301D02*
X2587152D01*
X2585137Y527055D02*
X2585383Y527301D01*
X2487776Y527055D02*
X2585137D01*
X2644135D02*
X2645410Y525780D01*
X2572790Y479020D02*
X2574290Y477520D01*
X2557018Y454406D02*
Y456438D01*
Y454018D02*
Y454406D01*
Y454018D02*
X2557967Y453069D01*
X2433886Y470615D02*
X2450516D01*
X2378710Y450850D02*
Y463550D01*
X2383790Y468630D01*
X2395115D01*
X2395944Y467801D01*
X2431072D01*
X2433886Y470615D01*
X2367826Y468055D02*
X2376342Y476571D01*
X2401532D01*
X2404580Y479619D01*
X2433104Y478603D02*
X2438251Y473456D01*
X2347655Y476945D02*
X2348484Y477774D01*
X2347655Y470624D02*
Y476945D01*
Y470624D02*
X2350224Y468055D01*
X2367826D01*
X2404580Y479619D02*
X2408212D01*
X2410541Y477290D01*
X2428159D01*
X2429472Y478603D01*
X2433104D01*
X2438251Y473456D02*
X2457958D01*
X2439881Y481373D02*
X2443734Y477520D01*
X2428324Y481373D02*
X2439881D01*
X2395237Y480036D02*
X2398949D01*
X2394686Y479485D02*
X2395237Y480036D01*
X2427011Y480060D02*
X2428324Y481373D01*
X2411689Y480060D02*
X2427011D01*
X2409360Y482389D02*
X2411689Y480060D01*
X2403432Y482389D02*
X2409360D01*
X2400528Y479485D02*
X2403432Y482389D01*
X2399500Y479485D02*
X2400528D01*
X2398949Y480036D02*
X2399500Y479485D01*
X2364045D02*
X2394686D01*
X2350919Y486410D02*
X2371598D01*
X2376865Y551755D02*
X2378710Y549910D01*
X2372360Y544830D02*
X2373630Y546100D01*
X2450516Y470615D02*
X2452060Y469071D01*
X2490911D01*
X2462390Y483060D02*
X2479701D01*
X2461243Y480290D02*
X2476270D01*
X2462069Y483381D02*
X2462390Y483060D01*
X2453847Y483381D02*
X2462069D01*
X2453526Y483060D02*
X2453847Y483381D01*
X2448100Y483060D02*
X2453526D01*
X2460922Y480611D02*
X2461243Y480290D01*
X2454994Y480611D02*
X2460922D01*
X2454673Y480290D02*
X2454994Y480611D01*
X2445790Y480290D02*
X2454673D01*
X2460095Y477520D02*
X2462022D01*
X2459774Y477841D02*
X2460095Y477520D01*
X2456142Y477841D02*
X2459774D01*
X2455821Y477520D02*
X2456142Y477841D01*
X2443734Y477520D02*
X2455821D01*
X2363470Y480060D02*
X2364045Y479485D01*
X2462022Y477520D02*
X2465832Y473710D01*
X2470150D01*
X2430085Y495995D02*
X2445790Y480290D01*
X2430780Y500380D02*
X2448100Y483060D01*
X2450525Y609025D02*
X2455231Y613731D01*
X2443739Y601793D02*
X2445009Y600523D01*
X2463085Y599421D02*
X2465069Y601405D01*
X2452240Y599421D02*
X2463085D01*
X2451138Y600523D02*
X2452240Y599421D01*
X2445009Y600523D02*
X2451138D01*
X2461938Y602191D02*
X2464037Y604290D01*
X2453388Y602191D02*
X2461938D01*
X2452094Y603485D02*
X2453388Y602191D01*
X2447014Y603485D02*
X2452094D01*
X2453241Y606255D02*
X2454535Y604961D01*
X2448161Y606255D02*
X2453241D01*
X2459990Y604961D02*
X2462089Y607060D01*
X2454535Y604961D02*
X2459990D01*
X2455231Y613731D02*
X2459520D01*
X2462381Y610870D01*
X2471569D01*
X2464037Y604290D02*
X2598310D01*
X2462089Y607060D02*
X2533650D01*
X2465069Y601405D02*
X2605465D01*
X2480377Y592395D02*
X2593886D01*
X2476754Y588772D02*
X2480377Y592395D01*
X2456688Y588772D02*
X2476754D01*
X2481580Y588010D02*
X2592070D01*
X2477262Y583692D02*
X2481580Y588010D01*
X2456434Y583692D02*
X2477262D01*
X2483607Y585240D02*
X2522665D01*
X2477568Y579201D02*
X2483607Y585240D01*
X2484754Y582470D02*
X2521517D01*
X2478715Y576431D02*
X2484754Y582470D01*
X2485901Y579700D02*
X2520370D01*
X2479862Y573661D02*
X2485901Y579700D01*
X2482889Y572770D02*
X2487930D01*
X2481010Y570891D02*
X2482889Y572770D01*
X2445561Y576431D02*
X2478715D01*
X2446709Y573661D02*
X2479862D01*
X2447856Y570891D02*
X2481010D01*
X2444414Y579201D02*
X2477568D01*
X2466405Y568121D02*
X2466725Y567800D01*
X2465578Y565030D02*
X2480689D01*
X2465257Y565351D02*
X2465578Y565030D01*
X2464431Y562260D02*
X2479541D01*
X2464110Y562581D02*
X2464431Y562260D01*
X2451298Y562581D02*
X2464110D01*
X2452446Y559811D02*
X2462962D01*
X2453593Y557041D02*
X2461815D01*
X2454740Y554271D02*
X2460668D01*
X2459520Y551501D02*
X2463306Y547715D01*
X2455888Y551501D02*
X2459520D01*
X2479541Y562260D02*
X2481156Y560645D01*
X2480689Y565030D02*
X2482304Y563415D01*
X2450151Y565351D02*
X2465257D01*
X2488464Y560645D02*
X2489159Y561340D01*
X2481156Y560645D02*
X2488464D01*
X2457239Y595165D02*
X2594145D01*
X2456942Y594868D02*
X2457239Y595165D01*
X2593886Y592395D02*
X2596455Y589826D01*
X2594145Y595165D02*
X2595880Y596900D01*
X2596455Y588959D02*
X2596642Y588772D01*
X2596455Y588959D02*
Y589826D01*
X2596642Y588772D02*
X2600960Y593090D01*
X2449322Y596138D02*
X2456688Y588772D01*
X2435314Y610295D02*
X2448038D01*
X2449308Y609025D01*
X2434166Y607525D02*
X2446891D01*
X2448161Y606255D01*
X2445936Y604563D02*
X2447014Y603485D01*
X2434928Y604563D02*
X2445936D01*
X2433850Y603485D02*
X2434928Y604563D01*
X2437125Y601793D02*
X2443739D01*
X2434070Y607622D02*
X2434166Y607525D01*
X2434070Y607622D02*
Y607622D01*
X2449308Y609025D02*
X2450525D01*
X2523597Y580390D02*
X2655570D01*
X2521517Y582470D02*
X2523597Y580390D01*
X2524280Y583625D02*
X2609275D01*
X2522665Y585240D02*
X2524280Y583625D01*
X2520370Y579700D02*
X2526030Y574040D01*
X2609275Y583625D02*
X2613660Y588010D01*
X2449003Y568121D02*
X2466405D01*
X2393868Y572315D02*
X2400913Y565270D01*
X2399766Y562500D02*
X2451217D01*
X2444180Y556960D02*
X2453512D01*
X2433320Y546100D02*
X2444180Y556960D01*
X2434673Y535662D02*
X2450431Y551420D01*
X2444333Y579120D02*
X2444414Y579201D01*
X2406650Y579120D02*
X2444333D01*
X2445480Y576350D02*
X2445561Y576431D01*
X2405503Y576350D02*
X2445480D01*
X2446628Y573580D02*
X2446709Y573661D01*
X2404355Y573580D02*
X2446628D01*
X2447775Y570810D02*
X2447856Y570891D01*
X2403208Y570810D02*
X2447775D01*
X2448922Y568040D02*
X2449003Y568121D01*
X2402061Y568040D02*
X2448922D01*
X2450070Y565270D02*
X2450151Y565351D01*
X2400913Y565270D02*
X2450070D01*
X2451217Y562500D02*
X2451298Y562581D01*
X2452365Y559730D02*
X2452446Y559811D01*
X2443033Y559730D02*
X2452365D01*
X2453512Y556960D02*
X2453593Y557041D01*
X2454659Y554190D02*
X2454740Y554271D01*
X2449284Y554190D02*
X2454659D01*
X2455807Y551420D02*
X2455888Y551501D01*
X2450431Y551420D02*
X2455807D01*
X2433828Y538734D02*
X2449284Y554190D01*
X2434253Y550950D02*
X2443033Y559730D01*
X2390595Y572315D02*
X2393868D01*
X2450551Y527691D02*
X2458959D01*
X2420725Y538734D02*
X2433828D01*
X2478844Y532355D02*
X2482812Y528387D01*
X2486444D02*
X2487776Y527055D01*
X2482812Y528387D02*
X2486444D01*
X2470404Y507420D02*
X2512640D01*
X2450770Y509749D02*
X2468075D01*
X2470404Y507420D01*
X2457760Y506701D02*
X2459811Y504650D01*
X2451302Y506701D02*
X2457760D01*
X2451024Y506979D02*
X2451302Y506701D01*
X2449622Y506979D02*
X2451024D01*
X2456612Y503931D02*
X2458663Y501880D01*
X2450155Y503931D02*
X2456612D01*
X2449877Y504209D02*
X2450155Y503931D01*
X2448475Y504209D02*
X2449877D01*
X2457516Y499110D02*
X2506873D01*
X2455465Y501161D02*
X2457516Y499110D01*
X2449008Y501161D02*
X2455465D01*
X2448730Y501439D02*
X2449008Y501161D01*
X2447328Y501439D02*
X2448730D01*
X2456369Y496340D02*
X2505725D01*
X2454318Y498391D02*
X2456369Y496340D01*
X2447860Y498391D02*
X2454318D01*
X2447582Y498669D02*
X2447860Y498391D01*
X2443801Y498669D02*
X2447582D01*
X2441515Y500955D02*
Y502196D01*
Y500955D02*
X2443801Y498669D01*
X2455221Y493570D02*
X2481460D01*
X2445766Y494284D02*
X2447103Y495621D01*
X2453170D01*
X2455221Y493570D01*
X2387749Y568960D02*
X2388324Y568385D01*
X2368550Y568960D02*
X2387749D01*
X2476270Y480290D02*
X2482850Y473710D01*
X2360781Y544830D02*
X2372360D01*
X2265680Y510540D02*
X2266950D01*
X2286724Y462975D02*
X2301786D01*
X2302361Y463550D01*
X2345690D01*
X2368550Y440690D01*
X2286000Y458470D02*
X2325370D01*
X2343150Y440690D01*
X2577846Y697484D02*
X2578100Y697230D01*
X2334260Y582674D02*
Y584200D01*
X2388324Y568385D02*
X2391956D01*
X2390140Y572770D02*
X2390595Y572315D01*
X2358936Y542985D02*
X2360781Y544830D01*
X2355304Y542985D02*
X2358936D01*
X2433320Y544830D02*
Y546100D01*
X2616137Y537040D02*
X2625040D01*
X2606040Y688340D02*
X2610425Y683955D01*
X2639755D01*
X2642870Y687070D01*
X2625040Y537040D02*
X2640390Y552390D01*
X2489159Y561340D02*
X2494280D01*
X2498785Y565725D02*
X2499360Y565150D01*
X2613660Y588010D02*
Y589280D01*
X2605465Y601405D02*
X2606040Y601980D01*
X2598310Y604290D02*
X2601655Y607635D01*
X2477582Y616883D02*
X2481214D01*
X2482842Y615255D01*
X2471569Y610870D02*
X2477582Y616883D01*
X2533650Y607060D02*
X2536190Y609600D01*
X2537460D01*
X2489626Y565725D02*
X2498785D01*
X2614930Y539750D02*
X2620010Y544830D01*
X2595273Y536399D02*
X2615496D01*
X2616137Y537040D01*
X2487316Y563415D02*
X2489626Y565725D01*
X2466725Y567800D02*
X2484120D01*
X2484966Y563415D02*
X2487316D01*
X2484966Y563415D02*
X2484966Y563415D01*
X2482304Y563415D02*
X2484966D01*
X2272030Y502920D02*
Y513080D01*
X2266950Y510540D02*
X2269260Y508230D01*
X2326065Y579815D02*
X2326640Y580390D01*
X2421890Y496770D02*
X2422665Y495995D01*
X2430085D01*
X2429510Y500380D02*
X2430780D01*
X2407920Y525780D02*
X2410719D01*
X2491327Y481890D02*
Y483703D01*
X2493734Y478095D02*
X2500616D01*
X2479701Y483060D02*
X2485256Y477505D01*
X2493144D01*
X2493734Y478095D01*
X2481460Y493570D02*
X2491327Y483703D01*
X2458663Y501880D02*
X2508020D01*
X2459811Y504650D02*
X2510330D01*
X2596575Y615255D02*
X2597150Y614680D01*
X2482842Y615255D02*
X2489924D01*
X2492464Y617795D01*
X2496096D01*
X2498636Y615255D01*
X2596575D01*
X2354580Y499110D02*
X2363470Y508000D01*
X2338070Y499110D02*
X2354580D01*
X2335530Y515620D02*
X2335755Y515845D01*
X2347806Y540555D02*
X2353734D01*
X2354309Y539980D01*
X2409569D01*
X2350770Y533400D02*
X2351695Y534325D01*
X2364740Y499110D02*
Y500380D01*
X2357882Y495808D02*
X2357949Y495875D01*
X2280920Y481330D02*
X2282184Y480066D01*
X2364740Y499110D02*
X2366585Y497265D01*
X2357949Y495875D02*
X2364058D01*
X2365438Y494495D01*
X2282184Y480066D02*
X2344575D01*
X2350919Y486410D01*
X2365438Y494495D02*
X2382223D01*
X2366585Y497265D02*
X2381076D01*
X2374900Y501650D02*
X2381543D01*
X2409468Y490124D02*
X2410134Y489458D01*
X2334260Y787400D02*
Y793750D01*
X2300986Y776224D02*
X2333364D01*
X2283460Y793750D02*
X2300986Y776224D01*
X2428240Y549910D02*
X2429280Y550950D01*
X2434253D01*
X2606189Y539750D02*
X2614930D01*
X2478851Y535125D02*
X2479666Y535940D01*
X2410719Y525780D02*
X2413724Y528785D01*
X2601655Y544284D02*
X2606189Y539750D01*
X2601655Y544284D02*
Y545510D01*
X2554732Y543814D02*
X2597150D01*
X2554224Y544322D02*
X2554732D01*
X2591346Y540325D02*
X2595273Y536399D01*
X2587714Y540325D02*
X2591346D01*
X2587326Y539937D02*
X2587714Y540325D01*
X2508926Y556025D02*
X2510244Y557343D01*
X2500841Y553255D02*
X2505480Y548616D01*
X2515213Y549910D02*
X2519426D01*
X2513876Y548573D02*
X2515213Y549910D01*
X2505480Y548616D02*
X2510201D01*
X2510244Y548573D01*
X2513876D01*
X2510244Y557343D02*
X2513876D01*
X2519680Y549656D02*
Y549910D01*
X2519426D02*
X2519680Y549656D01*
X2598458Y548707D02*
X2601655Y545510D01*
X2521496Y554415D02*
X2522531Y555450D01*
X2515024Y545803D02*
X2516305Y547084D01*
X2516305D01*
X2517864Y545525D01*
X2521496D01*
X2498546Y547715D02*
X2503228Y543033D01*
X2499694Y550485D02*
X2504376Y545803D01*
X2515024D01*
X2524678Y548707D02*
X2598458D01*
X2521496Y545525D02*
X2524678Y548707D01*
X2513876Y557343D02*
X2516804Y554415D01*
X2521496D01*
X2522531Y555450D02*
X2596690D01*
X2606040Y546100D01*
X2559050Y539683D02*
X2559304Y539937D01*
X2513330Y543033D02*
X2516680Y539683D01*
X2559304Y539937D02*
X2587326D01*
X2516680Y539683D02*
X2559050D01*
X2503228Y543033D02*
X2513330D01*
X2516506Y535940D02*
X2589530D01*
X2479666D02*
X2516506D01*
X2308165Y522665D02*
X2312617Y527117D01*
X2339019D02*
X2341880Y524256D01*
X2312617Y527117D02*
X2339019D01*
X2336031Y521620D02*
X2336876Y520774D01*
X2322801Y518280D02*
X2325296Y520774D01*
X2290706Y518280D02*
X2322801D01*
X2287270Y521716D02*
X2290706Y518280D01*
X2256536Y521716D02*
X2287270D01*
X2325296Y520774D02*
X2336876D01*
X2279697Y719788D02*
Y721004D01*
X2276396Y716487D02*
X2279697Y719788D01*
X2264410Y709422D02*
X2271475Y716487D01*
X2276396D01*
X2264410Y691642D02*
Y709422D01*
X2397439Y595563D02*
X2397760Y595884D01*
X2357585Y551755D02*
X2376865D01*
X2363470Y554990D02*
X2364740Y556260D01*
X2357120Y552220D02*
X2357585Y551755D01*
X2355040Y549450D02*
X2357120Y547370D01*
X2351609Y546680D02*
X2355304Y542985D01*
X2338794Y546929D02*
X2342426D01*
X2342675Y546680D01*
X2351609D01*
X2337646Y549699D02*
X2343574D01*
X2343823Y549450D01*
X2355040D01*
X2336499Y552469D02*
X2344721D01*
X2344970Y552220D01*
X2357120D01*
X2335352Y555239D02*
X2345868D01*
X2346117Y554990D01*
X2363470D01*
X2284730Y542290D02*
X2289249Y537771D01*
X2289249D01*
X2280920Y547370D02*
X2281615Y546675D01*
X2286546D01*
X2285046Y549445D02*
X2287694D01*
X2286194Y552215D02*
X2288841D01*
X2272030Y554990D02*
X2283419D01*
X2286194Y552215D01*
X2282736Y551755D02*
X2285046Y549445D01*
X2272938Y548990D02*
X2275703Y551755D01*
X2282736D01*
X2318241Y575891D02*
Y578192D01*
X2312597Y570247D02*
X2318241Y575891D01*
X2298593Y570247D02*
X2312597D01*
X2318241Y578192D02*
X2328634Y588585D01*
X2373122Y619760D02*
X2377186Y615696D01*
X2364232Y621792D02*
X2367026D01*
X2368737Y620081D01*
Y617944D02*
Y620081D01*
Y617944D02*
X2373712Y612969D01*
X2375192D01*
X2375513Y612648D01*
X2373376Y608584D02*
X2379602D01*
X2377186Y615696D02*
X2386879D01*
X2422197Y609600D02*
X2425542Y606255D01*
X2431080D01*
X2430322Y617795D02*
X2432890Y615226D01*
X2390902Y609600D02*
X2422197D01*
X2431080Y606255D02*
X2433850Y603485D01*
X2432890Y612718D02*
Y615226D01*
X2386879Y615696D02*
X2388978Y617795D01*
X2430322D01*
X2433631Y607622D02*
X2434070D01*
X2432228Y609025D02*
X2433631Y607622D01*
X2426689Y609025D02*
X2432228D01*
X2389086Y613985D02*
X2421729D01*
X2426689Y609025D01*
X2432890Y612718D02*
X2435314Y610295D01*
X2387749Y612648D02*
X2389086Y613985D01*
X2375513Y612648D02*
X2387749D01*
X2436047Y600715D02*
X2437125Y601793D01*
X2432703Y600715D02*
X2436047D01*
X2429933Y603485D02*
X2432703Y600715D01*
X2424395Y603485D02*
X2429933D01*
X2421049Y606830D02*
X2424395Y603485D01*
X2394333Y606830D02*
X2421049D01*
X2392718Y605215D02*
X2394333Y606830D01*
X2382971Y605215D02*
X2392718D01*
X2379602Y608584D02*
X2382971Y605215D01*
X2328634Y588585D02*
X2336076D01*
X2336972Y587689D01*
X2341947D01*
X2340502Y579815D02*
X2340591Y579904D01*
X2326065Y579815D02*
X2340502D01*
X2330450Y575310D02*
X2339914D01*
X2341947Y587689D02*
X2346706Y582930D01*
X2334260Y582674D02*
X2343045D01*
X2345559Y580160D01*
X2340591Y579904D02*
X2341897D01*
X2344411Y577390D01*
X2391956Y568385D02*
X2392651Y569080D01*
X2393186D01*
X2399766Y562500D01*
X2366734Y573345D02*
X2370366D01*
X2371861Y571850D01*
X2343264Y574620D02*
X2364091D01*
X2365586Y576115D01*
X2371514D01*
X2373009Y574620D01*
X2344411Y577390D02*
X2362944D01*
X2364439Y578885D01*
X2372661D01*
X2374156Y577390D01*
X2345559Y580160D02*
X2361797D01*
X2363292Y581655D01*
X2373808D01*
X2375303Y580160D01*
X2346706Y582930D02*
X2360649D01*
X2362144Y584425D01*
X2374956D01*
X2376451Y582930D01*
X2374156Y577390D02*
X2380724D01*
X2386029Y582695D01*
X2375303Y580160D02*
X2379577D01*
X2384882Y585465D01*
X2376451Y582930D02*
X2378429D01*
X2383734Y588235D01*
X2397535D01*
X2384882Y585465D02*
X2396388D01*
X2405503Y576350D01*
X2386029Y582695D02*
X2395240D01*
X2404355Y573580D01*
X2387176Y579925D02*
X2394093D01*
X2403208Y570810D01*
X2373009Y574620D02*
X2381871D01*
X2339914Y575310D02*
X2340097Y575493D01*
X2342391D01*
X2343264Y574620D01*
X2381871D02*
X2387176Y579925D01*
X2388324Y577155D02*
X2392946D01*
X2402061Y568040D01*
X2371861Y571850D02*
X2383019D01*
X2388324Y577155D01*
X2364314Y570925D02*
X2366734Y573345D01*
X2320865Y570925D02*
X2364314D01*
X2397535Y588235D02*
X2406650Y579120D01*
X2387145Y595563D02*
X2397439D01*
X2378777Y587195D02*
X2387145Y595563D01*
X2346358Y587195D02*
X2378777D01*
X2341479Y592074D02*
X2346358Y587195D01*
X2339086Y592074D02*
X2341479D01*
X2289249Y537771D02*
X2289264Y537785D01*
X2307590Y532130D02*
X2339489D01*
X2445351Y532892D02*
X2450551Y527691D01*
X2458959D02*
X2461552Y530285D01*
X2474027Y535125D02*
X2478851D01*
X2472879Y532355D02*
X2478844D01*
X2472254Y532981D02*
X2472879Y532355D01*
X2461552Y530285D02*
X2463076D01*
X2465772Y532981D01*
X2472254D01*
X2457920Y539055D02*
X2470097D01*
X2474027Y535125D01*
X2463306Y547715D02*
X2464294D01*
X2465032Y548453D01*
X2468664D01*
X2469402Y547715D01*
X2498546D01*
X2469812Y551223D02*
X2470550Y550485D01*
X2499694D01*
X2461815Y557041D02*
X2464863Y553993D01*
X2470959D01*
X2471697Y553255D01*
X2500841D01*
X2462962Y559811D02*
X2466010Y556763D01*
X2472106D01*
X2472844Y556025D01*
X2452169Y532275D02*
Y533304D01*
X2472844Y556025D02*
X2508926D01*
X2460668Y554271D02*
X2463716Y551223D01*
X2469812D01*
X2452169Y533304D02*
X2457920Y539055D01*
X2505763Y472948D02*
X2510028D01*
X2500616Y478095D02*
X2505763Y472948D01*
X2490911Y469071D02*
X2491486Y469646D01*
X2288841Y552215D02*
X2296226Y544830D01*
X2324943D01*
X2335352Y555239D01*
X2295079Y542060D02*
X2326090D01*
X2293931Y539290D02*
X2327237D01*
X2289264Y537785D02*
X2291519D01*
X2292784Y536520D01*
X2328385D01*
X2287694Y549445D02*
X2295079Y542060D01*
X2326090D02*
X2336499Y552469D01*
X2286546Y546675D02*
X2293931Y539290D01*
X2327237D02*
X2337646Y549699D01*
X2328385Y536520D02*
X2338794Y546929D01*
X2305736Y549316D02*
X2324776D01*
X2336105Y560645D01*
X2376611D01*
X2388736Y548520D01*
X2413747D01*
X2301773Y553279D02*
X2305736Y549316D01*
X2321560Y595884D02*
X2329501Y603825D01*
Y612222D01*
X2329113Y612610D02*
X2329501Y612222D01*
X2329113Y612610D02*
Y621830D01*
X2332190Y624907D01*
X2346543D01*
X2354561Y632925D01*
X2361438D01*
X2349164Y635695D02*
X2353497D01*
X2372288Y654486D01*
X2394534D01*
X2334260Y787400D02*
X2356358Y765302D01*
Y762000D02*
Y765302D01*
X2333364Y776224D02*
X2344420Y765168D01*
Y764032D02*
Y765168D01*
X2334006Y757682D02*
X2334073Y757615D01*
X2363911D01*
X2364486Y758190D01*
X2348738Y726948D02*
X2353056Y722630D01*
X2348738Y725609D02*
Y726948D01*
X2288068Y725609D02*
X2348738D01*
D64*
X2262240Y683271D02*
X2277353D01*
X2263648Y751078D02*
X2304542D01*
X2263140Y750570D02*
X2263648Y751078D01*
D65*
X2391156Y647954D02*
X2392053Y648851D01*
X2410595D01*
X2417202Y655458D01*
Y665965D01*
X2439577Y688340D01*
X2541270D01*
X2455672Y705866D02*
X2593848D01*
X2449229D02*
X2455672D01*
X2419003Y736092D02*
X2449229Y705866D01*
X2593848D02*
X2609320Y721338D01*
X2271522Y736092D02*
X2419003D01*
D66*
X2393950Y440690D02*
Y449072D01*
X2431606Y457200D02*
X2474404D01*
X2423477Y449072D02*
X2431606Y457200D01*
X2393950Y449072D02*
X2423477D01*
X2474214Y457200D02*
X2508758D01*
X2516278Y464720D02*
Y477620D01*
X2508758Y457200D02*
X2516278Y464720D01*
X2515616Y478282D02*
X2516278Y477620D01*
D69*
X2334260Y793750D02*
D03*
X2283460D02*
D03*
X2321560Y595884D02*
D03*
X2368550Y440690D02*
D03*
X2343150D02*
D03*
D73*
X2246376Y632714D02*
D03*
Y658114D02*
D03*
Y683514D02*
D03*
D77*
X2393950Y440690D02*
D03*
D78*
X2291588Y618236D02*
D03*
X2268220Y628650D02*
D03*
X2257044Y635762D02*
D03*
X2277353Y683271D02*
D03*
X2262240D02*
D03*
X2263140Y750570D02*
D03*
X2271776Y734060D02*
D03*
X2364232Y614680D02*
D03*
X2421890Y544830D02*
D03*
X2415540Y539750D02*
D03*
X2321814Y570992D02*
D03*
X2391156Y647954D02*
D03*
X2588260Y453118D02*
D03*
X2574290Y479298D02*
D03*
X2582164Y472694D02*
D03*
X2582926Y466344D02*
D03*
X2598166Y455168D02*
D03*
X2344674Y534670D02*
D03*
X2340610Y542544D02*
D03*
X2539238Y480822D02*
D03*
X2536190Y474980D02*
D03*
X2557018Y454406D02*
D03*
X2528570D02*
D03*
X2580132Y447294D02*
D03*
X2515616Y478282D02*
D03*
X2579774Y531555D02*
D03*
X2371598Y486410D02*
D03*
X2378710Y549910D02*
D03*
X2373630Y546100D02*
D03*
X2379980Y509270D02*
D03*
X2457958Y473456D02*
D03*
X2609320Y721338D02*
D03*
X2455672Y705866D02*
D03*
X2456942Y594868D02*
D03*
X2449322Y596138D02*
D03*
X2456434Y583692D02*
D03*
X2487930Y572770D02*
D03*
X2526030Y574040D02*
D03*
X2445766Y494284D02*
D03*
X2368550Y568960D02*
D03*
X2378710Y450850D02*
D03*
X2482850Y473710D02*
D03*
X2470150D02*
D03*
X2363470Y480060D02*
D03*
X2364740Y556260D02*
D03*
X2272030Y513080D02*
D03*
X2265680Y510540D02*
D03*
X2247900Y502920D02*
D03*
X2577846Y697484D02*
D03*
X2334260Y584200D02*
D03*
X2326640Y580390D02*
D03*
X2330450Y575310D02*
D03*
X2390140Y572770D02*
D03*
X2284730Y542290D02*
D03*
X2357120Y547370D02*
D03*
X2433320Y544830D02*
D03*
X2597150Y614680D02*
D03*
X2642870Y687070D02*
D03*
X2541270Y688340D02*
D03*
X2640390Y552390D02*
D03*
X2620010Y544830D02*
D03*
X2606040Y688340D02*
D03*
X2645410Y525780D02*
D03*
X2606040Y546100D02*
D03*
X2655570Y580390D02*
D03*
X2280920Y568960D02*
D03*
X2499360Y565150D02*
D03*
X2494280Y561340D02*
D03*
X2601655Y607635D02*
D03*
X2613660Y589280D02*
D03*
X2606040Y601980D02*
D03*
X2600960Y593090D02*
D03*
X2595880Y596900D02*
D03*
X2537460Y609600D02*
D03*
X2592070Y588010D02*
D03*
X2589530Y535940D02*
D03*
X2484120Y567800D02*
D03*
X2364486Y758190D02*
D03*
X2308165Y522665D02*
D03*
X2421890Y496770D02*
D03*
X2429510Y500380D02*
D03*
X2407920Y525780D02*
D03*
X2428240Y549910D02*
D03*
X2491327Y481890D02*
D03*
X2280920Y481330D02*
D03*
X2363470Y508000D02*
D03*
X2374900Y501650D02*
D03*
X2338070Y499110D02*
D03*
X2335530Y515620D02*
D03*
X2350770Y533400D02*
D03*
X2409952Y667004D02*
D03*
X2357882Y495808D02*
D03*
X2364740Y500380D02*
D03*
X2348484Y477774D02*
D03*
X2409468Y490124D02*
D03*
X2597150Y543814D02*
D03*
X2554224Y544322D02*
D03*
X2519680Y549910D02*
D03*
X2341880Y524256D02*
D03*
X2336031Y521620D02*
D03*
X2256536Y521716D02*
D03*
X2334006Y620522D02*
D03*
X2364232Y621792D02*
D03*
X2397760Y595884D02*
D03*
X2280920Y547370D02*
D03*
X2272030Y554990D02*
D03*
X2272938Y548990D02*
D03*
X2373122Y619760D02*
D03*
X2373376Y608584D02*
D03*
X2390902Y609600D02*
D03*
X2339086Y592074D02*
D03*
X2307590Y532130D02*
D03*
X2452169Y532275D02*
D03*
X2510028Y472948D02*
D03*
X2491486Y469646D02*
D03*
X2301773Y553279D02*
D03*
X2413747Y548520D02*
D03*
X2361438Y632925D02*
D03*
X2356358Y762000D02*
D03*
X2344420Y764032D02*
D03*
X2334006Y757682D02*
D03*
X2353056Y722630D02*
D03*
X2304542Y751078D02*
D03*
D79*
X2240280Y462534D02*
D03*
M02*
