G04 Layer_Color=16711935*
%FSLAX44Y44*%
%MOMM*%
G71*
G01*
G75*
%ADD200C,1.5508*%
%ADD201R,1.5508X1.5508*%
%ADD202C,4.1656*%
%ADD203C,4.7371*%
%ADD204R,1.2700X1.2700*%
%ADD205C,1.2700*%
%ADD206C,3.1369*%
%ADD207C,2.1368*%
G04:AMPARAMS|DCode=208|XSize=1.5508mm|YSize=1.0508mm|CornerRadius=0.2754mm|HoleSize=0mm|Usage=FLASHONLY|Rotation=180.000|XOffset=0mm|YOffset=0mm|HoleType=Round|Shape=RoundedRectangle|*
%AMROUNDEDRECTD208*
21,1,1.5508,0.5000,0,0,180.0*
21,1,1.0000,1.0508,0,0,180.0*
1,1,0.5508,-0.5000,0.2500*
1,1,0.5508,0.5000,0.2500*
1,1,0.5508,0.5000,-0.2500*
1,1,0.5508,-0.5000,-0.2500*
%
%ADD208ROUNDEDRECTD208*%
%ADD210R,0.7874X2.5508*%
%ADD211R,0.7874X2.8448*%
G04:AMPARAMS|DCode=212|XSize=1.0668mm|YSize=1.0668mm|CornerRadius=0.5334mm|HoleSize=0mm|Usage=FLASHONLY|Rotation=90.000|XOffset=0mm|YOffset=0mm|HoleType=Round|Shape=RoundedRectangle|*
%AMROUNDEDRECTD212*
21,1,1.0668,0.0000,0,0,90.0*
21,1,0.0000,1.0668,0,0,90.0*
1,1,1.0668,0.0000,0.0000*
1,1,1.0668,0.0000,0.0000*
1,1,1.0668,0.0000,0.0000*
1,1,1.0668,0.0000,0.0000*
%
%ADD212ROUNDEDRECTD212*%
G04:AMPARAMS|DCode=213|XSize=1.3208mm|YSize=1.3208mm|CornerRadius=0.6604mm|HoleSize=0mm|Usage=FLASHONLY|Rotation=90.000|XOffset=0mm|YOffset=0mm|HoleType=Round|Shape=RoundedRectangle|*
%AMROUNDEDRECTD213*
21,1,1.3208,0.0000,0,0,90.0*
21,1,0.0000,1.3208,0,0,90.0*
1,1,1.3208,0.0000,0.0000*
1,1,1.3208,0.0000,0.0000*
1,1,1.3208,0.0000,0.0000*
1,1,1.3208,0.0000,0.0000*
%
%ADD213ROUNDEDRECTD213*%
%ADD214O,3.0508X9.0508*%
D200*
X2533650Y787400D02*
D03*
X2508250D02*
D03*
X2482850D02*
D03*
X2457450D02*
D03*
X2266950Y440690D02*
D03*
X2292350D02*
D03*
X2317750D02*
D03*
X2343150D02*
D03*
X2368550D02*
D03*
X2310384Y675132D02*
D03*
X2308098Y644906D02*
D03*
X2349246Y669290D02*
D03*
X2313178Y706120D02*
D03*
X2340610Y603504D02*
D03*
X2321560Y595884D02*
D03*
X2308606Y579882D02*
D03*
X2292604Y562610D02*
D03*
X2370074Y597408D02*
D03*
X2311146Y559816D02*
D03*
X2258060Y793750D02*
D03*
X2283460D02*
D03*
X2308860D02*
D03*
X2334260D02*
D03*
X2359660D02*
D03*
X2443734Y441198D02*
D03*
X2519934D02*
D03*
D201*
X2559050Y787400D02*
D03*
X2393950Y440690D02*
D03*
X2385060Y793750D02*
D03*
D202*
X2429510Y769112D02*
D03*
X2669286Y465074D02*
D03*
Y769112D02*
D03*
D203*
X2406376Y700514D02*
D03*
D204*
X2246376Y708914D02*
D03*
D205*
Y556514D02*
D03*
Y581914D02*
D03*
Y683514D02*
D03*
Y658114D02*
D03*
Y632714D02*
D03*
Y607314D02*
D03*
D206*
X2569464Y727202D02*
D03*
D207*
Y506966D02*
D03*
D208*
X2469134Y441198D02*
D03*
X2494534D02*
D03*
D210*
X2507996Y465800D02*
D03*
X2495296D02*
D03*
X2482596D02*
D03*
X2469896D02*
D03*
X2457196D02*
D03*
D211*
X2507996Y504444D02*
D03*
X2495296D02*
D03*
X2482596D02*
D03*
X2469896D02*
D03*
X2457196D02*
D03*
D212*
X2609320Y721338D02*
D03*
X2601365Y781050D02*
D03*
X2588260Y697230D02*
D03*
X2290318Y630936D02*
D03*
X2397760Y595884D02*
D03*
D213*
X2445187Y520230D02*
D03*
D214*
X2701798Y673354D02*
D03*
X2702306Y567182D02*
D03*
X2240280Y462534D02*
D03*
M02*
