M48
;Layer_Color=9474304
;FILE_FORMAT=4:4
METRIC,LZ
;TYPE=PLATED
T1F00S00C0.2000
T2F00S00C0.3048
T3F00S00C0.8128
T4F00S00C0.9000
T5F00S00C2.0574
T7F00S00C3.1242
;TYPE=NON_PLATED
T8F00S00C2.0574
%
T01
X0238379Y0045593
X02397506Y0045847
X0240411
X0241483Y0045791
X02421382Y00457708
X02431288Y00474218
X024487Y0046623
X02457958Y00473456
X0247015Y0047371
X0248285
X02491486Y00469646
X02491327Y0048189
X02510028Y00472948
X02515616Y00478282
X0253619Y0047498
X02539238Y00480822
X02538984Y00468376
X025273Y0046609
X0252857Y00454406
X02550668Y0045466
X02557018Y00454406
X02580132Y00447294
X0258826Y00453118
X02598166Y00455168
X02582926Y00466344
X02582164Y00472694
X02582672Y00479298
X0257429
X02591308
X02605532Y00490728
X02625326Y00489984
X0263398Y0049149
X0264033Y0050927
X0265176Y0050038
X0264795Y0047879
X02635758Y00457454
X026289Y00447802
X026797Y0048895
X02680207Y00513333
X0266446Y0053975
X0267081Y0055626
Y0056896
Y0058039
Y0059436
X02670764Y0060452
X02670556Y00618236
X0266954Y0063119
X0267081Y0064135
Y0065405
Y0066675
X026416Y0065278
Y0064516
X0265557Y0063754
X026416Y0061341
X0264541Y0058928
X02660142Y00589788
X0265557Y0058039
Y0056769
X0263144Y0056134
X0264039Y0055239
X02634489Y00536449
X0262001Y0053213
Y0054483
X0260604Y005461
X0259715Y00543814
X0258953Y0053594
X02579774Y00531555
X02554224Y00544322
X02543556Y00544068
X0251968Y0054991
Y005588
X0251206Y00552958
X0251079Y0056515
X0250444Y0056134
X0249936Y0056515
X0249428Y0056134
X0248412Y005678
X0248793Y0057277
X0252603Y0057404
X0254127
X025654Y0057277
X0259334
X0260096Y0057531
X0261239
X0261366Y0058928
X0260731Y0058801
X0260096Y0059309
X0259588Y005969
X0259207Y0058801
X0260604Y0060198
X02601655Y00607635
X0259715Y0061468
X0261366Y0062103
X02597464Y00661984
X0258953Y0068834
X0258064
X02577846Y00697484
X0258826Y0069723
X0261239
X0261366Y0068834
X0260604
X0262763Y0069469
X0264287Y0068707
X0262763Y0066675
X0260932Y00721338
X0264668Y0072644
X02667
X0267716Y0071628
X0263779Y0074803
X026162Y0076073
X0258699Y0075565
X02601365Y0078105
X0254Y0076708
X0253873Y0074041
X02543556Y00697484
X025527Y0069723
X0255016Y0068834
X0255778
X0254127
X0251841Y0069723
X0250952Y0067056
X0250161Y0067183
X0249457
X0248412Y0067056
Y006604
X0249301Y0065278
X024892Y0064516
Y0063246
X0249428Y0061341
X0252349Y0062103
X0253746Y006096
Y0063627
X02533396Y00661924
X0252603Y0066167
X0244348Y0065786
X0244602Y0066802
X0242824Y0066675
X02409952Y00667004
X0240538Y0065913
X0239776Y0066675
X02391156Y00647954
X02400565Y00641601
X02404618Y00634238
X02411476Y00626618
X02428506Y0061341
X02437384Y0061468
X02442972Y00596138
X02449322
X02456942Y00594868
X02456434Y00583692
X02457704Y00609346
Y00547116
X02466848Y00544068
X0245872Y00533654
X02452169Y00532275
X02445187Y0052023
X02445766Y00494284
X02451354Y00491236
X0246634Y0048768
X0247015Y00523494
X02484628Y00524002
X02507488Y00521716
X02534666Y00498348
X0243713Y0050038
X0242951
X0242189Y0049677
X0241554Y00489966
X02409468Y00490124
X0240265Y0048987
X0239665Y00488092
X0239776Y00472186
X02406396Y00475234
X0240792Y0052578
X0241554Y005244
Y0053975
X02413747Y0054852
X0242189Y0054483
X0243332
X0242824Y0054991
X0239014Y0057277
X0239776Y00595884
X02406904Y00594614
X02390902Y006096
X02395982Y00746252
X02434082Y00731266
X02455672Y00705866
X0247817Y0074208
X0246351Y0075692
X0264541Y0052578
X0237998Y0050927
X023749Y0050165
X0236474Y0050038
X0236347Y00508
X02357882Y00495808
X0236347Y0048006
X0236855Y0047498
X0235839
X0235204Y0047244
X02348484Y00477774
X0234188Y00484451
X0233807Y0049022
Y0049911
X0232797Y00492965
X0232791Y0050546
X02326812Y0051181
X0231775
X02321052Y00522732
X02308165Y00522665
X0230124Y0052578
X0229489Y00527745
X0230759Y0053213
X02301773Y00553279
X0228092Y0054737
X0228473Y0054229
X02272938Y0054899
X0227203Y0055499
X0227965Y0056261
X0228092Y0056896
X02288286Y00574548
X02294382Y005842
X02307336Y00594106
X0231902Y00608076
X02325116Y00610108
X02333498Y00614426
X02334006Y00620522
X02346198Y0063246
X02351081Y0064008
X0235077Y0065405
X02361438Y00632925
X02367788Y00626872
X02364232Y00621792
Y0061468
X02373122Y0061976
X02376678Y0062484
X02373376Y00608584
X0236855Y0056896
X0236474Y0055626
X0235712Y0054737
X0237363Y005461
X0237871Y0054991
X0235077Y005334
X02344674Y0053467
X0234061Y00542544
X0234188Y00524256
X02336031Y0052162
X0233553Y0051562
X0233045Y0057531
X0232664Y0058039
X0233426Y005842
X02339086Y00592074
X02321814Y00570992
X0225552Y0056515
X0226568Y0059055
X02272284Y00597408
X02278888Y00602996
X02283968Y006096
X02291588Y00618236
X02291842Y00630682
X0229616Y0063881
X0229235Y00644144
X02303272Y00662686
X0231521Y0065532
X02321814Y00671576
X02313686Y00686562
X02295144Y00682752
X02284984Y0068453
X02277353Y00683271
X0226224
X02262886Y00658876
X02257044Y00635762
X0227076Y00635254
X0226822Y0062865
X02266696Y0061468
X02283645Y00670672
X02271776Y0073406
X02271522Y00745744
Y00757174
X0226314Y0075057
X02294993Y0074378
X02304542Y00751078
X02310384Y00721224
X02353056Y0072263
X0234188Y0069854
X02335784Y006985
X02334006Y00757682
X0234442Y00764032
X02356358Y00762
X02364486Y0075819
X02288016Y00774993
X02245868Y00779018
X02376424Y00676402
X02379726Y00659384
X02379218Y00488442
X02371598Y0048641
X0237871Y0045085
X0231902Y0045339
X0229997Y0046736
X0228092Y0047498
Y0048133
X0227838Y00508
X0227203Y0051308
X0226568Y0051054
X02256536Y00521716
X022479Y0050292
T02
X0252349Y0050673
X0236982Y0068453
T03
X02246376Y00556514
Y00581914
Y00607314
Y00632714
Y00658114
Y00683514
Y00708914
T04
X0239395Y0044069
X02443734Y00441198
X02469134
X02494534
X02519934
X0236855Y0044069
X0234315
X0231775
X0229235
X0226695
X02292604Y0056261
X02311146Y00559816
X02308606Y00579882
X0232156Y00595884
X0234061Y00603504
X02370074Y00597408
X02349246Y0066929
X02310384Y00675132
X02308098Y00644906
X02313178Y0070612
X0230886Y0079375
X0233426
X0235966
X0228346
X0225806
X0238506
T05
X02569464Y00727202
T07
X02406376Y00700514
X0242951Y00769112
X02669286
Y00465074
T08
X02569464Y00506966
M30
