G04 Layer_Physical_Order=2*
G04 Layer_Color=16440176*
%FSLAX44Y44*%
%MOMM*%
G71*
G01*
G75*
%ADD50R,0.4064X0.4064*%
%ADD52R,0.4064X0.4064*%
%ADD69C,1.5000*%
%ADD73C,1.2192*%
%ADD76C,4.1148*%
%ADD78C,0.4500*%
%ADD79O,3.0000X9.0000*%
G36*
X2259330Y785071D02*
X2260349Y785206D01*
X2262483Y786089D01*
X2264315Y787495D01*
X2265721Y789327D01*
X2266192Y790465D01*
X2266345Y790512D01*
X2266950Y790392D01*
X2274316D01*
X2274921Y790512D01*
X2275080Y790464D01*
X2275598Y789211D01*
X2277041Y787331D01*
X2278921Y785889D01*
X2281111Y784982D01*
X2283460Y784672D01*
X2285809Y784982D01*
X2287999Y785889D01*
X2289879Y787331D01*
X2291322Y789211D01*
X2291852Y790491D01*
X2292350Y790392D01*
X2299716D01*
X2300321Y790512D01*
X2300480Y790464D01*
X2300999Y789211D01*
X2302441Y787331D01*
X2304321Y785889D01*
X2306510Y784982D01*
X2308860Y784672D01*
X2311210Y784982D01*
X2313399Y785889D01*
X2315279Y787331D01*
X2316721Y789211D01*
X2317251Y790491D01*
X2317750Y790392D01*
X2325116D01*
X2325721Y790512D01*
X2325880Y790464D01*
X2326398Y789211D01*
X2327841Y787331D01*
X2329721Y785889D01*
X2331911Y784982D01*
X2334260Y784672D01*
X2336609Y784982D01*
X2338799Y785889D01*
X2340679Y787331D01*
X2342121Y789211D01*
X2342652Y790491D01*
X2343150Y790392D01*
X2350516D01*
X2351121Y790512D01*
X2351280Y790464D01*
X2351799Y789211D01*
X2353241Y787331D01*
X2355121Y785889D01*
X2357310Y784982D01*
X2359660Y784672D01*
X2362009Y784982D01*
X2364199Y785889D01*
X2366079Y787331D01*
X2367522Y789211D01*
X2368051Y790491D01*
X2368550Y790392D01*
X2375916D01*
X2376060Y790273D01*
Y784750D01*
X2394060D01*
Y789695D01*
X2394600Y790110D01*
X2395330Y790471D01*
X2395728Y790392D01*
X2420288D01*
X2420607Y789122D01*
X2417315Y787363D01*
X2413989Y784633D01*
X2411259Y781307D01*
X2409231Y777512D01*
X2407982Y773394D01*
X2407685Y770382D01*
X2429510D01*
X2451335D01*
X2451038Y773394D01*
X2449789Y777512D01*
X2447760Y781307D01*
X2445031Y784633D01*
X2441705Y787363D01*
X2438414Y789122D01*
X2438732Y790392D01*
X2447798D01*
X2448104Y790452D01*
X2448455Y790480D01*
X2449601Y789785D01*
X2450719Y786526D01*
X2452490Y784218D01*
X2454798Y782447D01*
X2457486Y781334D01*
X2459742Y781041D01*
X2460498Y781050D01*
X2544318D01*
X2545074Y781041D01*
X2547330Y781334D01*
X2550018Y782447D01*
X2551103Y783280D01*
X2562664D01*
X2563269Y783400D01*
X2563782Y783743D01*
X2570431Y790392D01*
X2660064D01*
X2660382Y789122D01*
X2657091Y787363D01*
X2653765Y784633D01*
X2651035Y781307D01*
X2649007Y777512D01*
X2647758Y773394D01*
X2647462Y770382D01*
X2669286D01*
Y769112D01*
X2670556D01*
Y747287D01*
X2673568Y747584D01*
X2677686Y748833D01*
X2681481Y750862D01*
X2684807Y753591D01*
X2687537Y756917D01*
X2689565Y760712D01*
X2690820Y760474D01*
Y718820D01*
X2690940Y718215D01*
X2691282Y717702D01*
X2691476Y717573D01*
X2691707Y716460D01*
X2691670Y716090D01*
X2690238Y714914D01*
X2688205Y712437D01*
X2686694Y709610D01*
X2685764Y706544D01*
X2685449Y703354D01*
Y674624D01*
X2701798D01*
Y672084D01*
X2685449D01*
Y643354D01*
X2685764Y640164D01*
X2686694Y637098D01*
X2688205Y634271D01*
X2690238Y631794D01*
X2691042Y631134D01*
X2691282Y629767D01*
X2690940Y629255D01*
X2690820Y628650D01*
Y612140D01*
X2690940Y611535D01*
X2691282Y611022D01*
X2691415Y610934D01*
X2691635Y609741D01*
X2691581Y609428D01*
X2690746Y608742D01*
X2688712Y606265D01*
X2687202Y603438D01*
X2686271Y600372D01*
X2685957Y597182D01*
Y568452D01*
X2702306D01*
Y565912D01*
X2685957D01*
Y537182D01*
X2686271Y533993D01*
X2687202Y530926D01*
X2688712Y528099D01*
X2690746Y525622D01*
X2690810Y525569D01*
X2691282Y524357D01*
X2690940Y523845D01*
X2690820Y523240D01*
Y473712D01*
X2689565Y473474D01*
X2687537Y477269D01*
X2684807Y480595D01*
X2681481Y483325D01*
X2680306Y483952D01*
X2680504Y485286D01*
X2681163Y485418D01*
X2682404Y486246D01*
X2683232Y487487D01*
X2683523Y488950D01*
X2683232Y490413D01*
X2682404Y491654D01*
X2681163Y492482D01*
X2679700Y492773D01*
X2678237Y492482D01*
X2676996Y491654D01*
X2676168Y490413D01*
X2675876Y488950D01*
X2676168Y487487D01*
X2676458Y487052D01*
X2675654Y485969D01*
X2673568Y486602D01*
X2670556Y486899D01*
Y465074D01*
X2669286D01*
Y463804D01*
X2647462D01*
X2647758Y460792D01*
X2649007Y456674D01*
X2651035Y452879D01*
X2653765Y449553D01*
X2657091Y446824D01*
X2660886Y444795D01*
X2660648Y443540D01*
X2583545D01*
X2583233Y444003D01*
X2582982Y444810D01*
X2583665Y445831D01*
X2583955Y447294D01*
X2583665Y448757D01*
X2582836Y449998D01*
X2581595Y450826D01*
X2580132Y451117D01*
X2578669Y450826D01*
X2577428Y449998D01*
X2576600Y448757D01*
X2576309Y447294D01*
X2576600Y445831D01*
X2577281Y444810D01*
X2577031Y444003D01*
X2576719Y443540D01*
X2529840D01*
X2529120Y443545D01*
X2528364Y444365D01*
X2527796Y445737D01*
X2526353Y447617D01*
X2524473Y449059D01*
X2522283Y449966D01*
X2519934Y450276D01*
X2517585Y449966D01*
X2515395Y449059D01*
X2513515Y447617D01*
X2512072Y445737D01*
X2511166Y443548D01*
X2510957Y441960D01*
X2503612D01*
Y443698D01*
X2503302Y445259D01*
X2502418Y446582D01*
X2501095Y447466D01*
X2499534Y447776D01*
X2489534D01*
X2487973Y447466D01*
X2486650Y446582D01*
X2485766Y445259D01*
X2485456Y443698D01*
Y441960D01*
X2478212D01*
Y443698D01*
X2477902Y445259D01*
X2477018Y446582D01*
X2475695Y447466D01*
X2474134Y447776D01*
X2464134D01*
X2462573Y447466D01*
X2461250Y446582D01*
X2460366Y445259D01*
X2460056Y443698D01*
Y441960D01*
X2452479D01*
X2452278Y443487D01*
X2451395Y445621D01*
X2449989Y447453D01*
X2448157Y448859D01*
X2446023Y449742D01*
X2445004Y449877D01*
Y441198D01*
X2442464D01*
Y449877D01*
X2441445Y449742D01*
X2439311Y448859D01*
X2437479Y447453D01*
X2436073Y445621D01*
X2435190Y443488D01*
X2435117Y443436D01*
X2434590Y443540D01*
X2405380D01*
X2404775Y443420D01*
X2404263Y443078D01*
X2404220Y443014D01*
X2402950Y443399D01*
Y449690D01*
X2384950D01*
Y444506D01*
X2384911Y444429D01*
X2383790Y443540D01*
X2378710D01*
X2378105Y443420D01*
X2376873Y444113D01*
X2376411Y445229D01*
X2374969Y447109D01*
X2373089Y448551D01*
X2370900Y449458D01*
X2368550Y449768D01*
X2366201Y449458D01*
X2364011Y448551D01*
X2362131Y447109D01*
X2360688Y445229D01*
X2360226Y444113D01*
X2358995Y443420D01*
X2358390Y443540D01*
X2353310D01*
X2352705Y443420D01*
X2351474Y444113D01*
X2351012Y445229D01*
X2349569Y447109D01*
X2347689Y448551D01*
X2345500Y449458D01*
X2343150Y449768D01*
X2340800Y449458D01*
X2338611Y448551D01*
X2336731Y447109D01*
X2335289Y445229D01*
X2334827Y444113D01*
X2333595Y443420D01*
X2332990Y443540D01*
X2327910D01*
X2327305Y443420D01*
X2326073Y444113D01*
X2325612Y445229D01*
X2324169Y447109D01*
X2322289Y448551D01*
X2320099Y449458D01*
X2317750Y449768D01*
X2315401Y449458D01*
X2313211Y448551D01*
X2311331Y447109D01*
X2309888Y445229D01*
X2309427Y444113D01*
X2308195Y443420D01*
X2307590Y443540D01*
X2302510D01*
X2301905Y443420D01*
X2300674Y444113D01*
X2300211Y445229D01*
X2298769Y447109D01*
X2296889Y448551D01*
X2294700Y449458D01*
X2292350Y449768D01*
X2290000Y449458D01*
X2287811Y448551D01*
X2285931Y447109D01*
X2284489Y445229D01*
X2284026Y444113D01*
X2282795Y443420D01*
X2282190Y443540D01*
X2277110D01*
X2276505Y443420D01*
X2275137Y443877D01*
X2275113Y443901D01*
X2274611Y445113D01*
X2273205Y446945D01*
X2271373Y448351D01*
X2269239Y449234D01*
X2268220Y449369D01*
Y440690D01*
X2265680D01*
Y449369D01*
X2264661Y449234D01*
X2262527Y448351D01*
X2260695Y446945D01*
X2259289Y445113D01*
X2259062Y444563D01*
X2258138Y443774D01*
X2257565Y443888D01*
X2256629Y444597D01*
Y461264D01*
X2240280D01*
Y463804D01*
X2256629D01*
Y492534D01*
X2256315Y495723D01*
X2255384Y498790D01*
X2253873Y501617D01*
X2251840Y504094D01*
X2249363Y506127D01*
X2246536Y507638D01*
X2243470Y508569D01*
X2240914Y508820D01*
X2240670Y509041D01*
X2240087Y509949D01*
X2240053Y510136D01*
X2240082Y510286D01*
Y536301D01*
X2247493Y543713D01*
X2247836Y544225D01*
X2247956Y544830D01*
X2247836Y545435D01*
X2247702Y545635D01*
Y547878D01*
X2247683Y547976D01*
X2248201Y549121D01*
X2248486Y549415D01*
X2250091Y550080D01*
X2251629Y551260D01*
X2252810Y552799D01*
X2253552Y554591D01*
X2253638Y555244D01*
X2246376D01*
Y557784D01*
X2253638D01*
X2253552Y558437D01*
X2252810Y560229D01*
X2251629Y561768D01*
X2250091Y562948D01*
X2248913Y563436D01*
X2248259Y563801D01*
X2247956Y564642D01*
Y573786D01*
X2248359Y574514D01*
X2248959Y574762D01*
X2250207Y575279D01*
X2251794Y576497D01*
X2253011Y578083D01*
X2253777Y579931D01*
X2254038Y581914D01*
X2253777Y583897D01*
X2253011Y585745D01*
X2251794Y587332D01*
X2250207Y588549D01*
X2248959Y589066D01*
X2248359Y589314D01*
X2247956Y590042D01*
Y599186D01*
X2248359Y599913D01*
X2248959Y600162D01*
X2250207Y600679D01*
X2251794Y601897D01*
X2253011Y603483D01*
X2253777Y605331D01*
X2254038Y607314D01*
X2253777Y609297D01*
X2253011Y611145D01*
X2251794Y612732D01*
X2250207Y613949D01*
X2248959Y614466D01*
X2248359Y614715D01*
X2247956Y615442D01*
Y624586D01*
X2248359Y625313D01*
X2248959Y625562D01*
X2250207Y626079D01*
X2251794Y627296D01*
X2253011Y628883D01*
X2253777Y630731D01*
X2253919Y631813D01*
X2255281Y632430D01*
X2255581Y632230D01*
X2257044Y631939D01*
X2258507Y632230D01*
X2259748Y633058D01*
X2260576Y634299D01*
X2260867Y635762D01*
X2260576Y637225D01*
X2259748Y638466D01*
X2258507Y639294D01*
X2257044Y639585D01*
X2255581Y639294D01*
X2254340Y638466D01*
X2253781Y637628D01*
X2252552Y637436D01*
X2252281Y637496D01*
X2251794Y638131D01*
X2250207Y639349D01*
X2248959Y639866D01*
X2248359Y640115D01*
X2247956Y640842D01*
Y649986D01*
X2248359Y650714D01*
X2248959Y650962D01*
X2250207Y651479D01*
X2251794Y652697D01*
X2253011Y654283D01*
X2253777Y656131D01*
X2254038Y658114D01*
X2253777Y660097D01*
X2253011Y661945D01*
X2251794Y663531D01*
X2250207Y664749D01*
X2248959Y665266D01*
X2248359Y665515D01*
X2247956Y666242D01*
Y675386D01*
X2248359Y676114D01*
X2248959Y676362D01*
X2250207Y676879D01*
X2251794Y678096D01*
X2253011Y679683D01*
X2253777Y681531D01*
X2254038Y683514D01*
X2253777Y685497D01*
X2253011Y687345D01*
X2251794Y688932D01*
X2250207Y690149D01*
X2248959Y690666D01*
X2248359Y690915D01*
X2247956Y691642D01*
Y700786D01*
X2248393Y701318D01*
X2253972D01*
Y716510D01*
X2247956D01*
Y718566D01*
X2247836Y719171D01*
X2247493Y719684D01*
X2240082Y727095D01*
Y779526D01*
X2240086D01*
X2240456Y782337D01*
X2241541Y784957D01*
X2243267Y787207D01*
X2245517Y788933D01*
X2247842Y789896D01*
X2249076Y790142D01*
X2250203Y789802D01*
X2250399Y789327D01*
X2251805Y787495D01*
X2253637Y786089D01*
X2255771Y785206D01*
X2256790Y785071D01*
Y793750D01*
X2259330D01*
Y785071D01*
D02*
G37*
%LPC*%
G36*
X2597150Y547637D02*
X2595687Y547346D01*
X2594446Y546518D01*
X2593618Y545277D01*
X2593327Y543814D01*
X2593618Y542351D01*
X2594446Y541110D01*
X2595687Y540282D01*
X2597150Y539991D01*
X2598613Y540282D01*
X2599854Y541110D01*
X2600682Y542351D01*
X2600974Y543814D01*
X2600682Y545277D01*
X2599854Y546518D01*
X2598613Y547346D01*
X2597150Y547637D01*
D02*
G37*
G36*
X2466848Y547891D02*
X2465385Y547600D01*
X2464144Y546772D01*
X2463316Y545531D01*
X2463025Y544068D01*
X2463316Y542605D01*
X2464144Y541364D01*
X2465385Y540536D01*
X2466848Y540245D01*
X2468311Y540536D01*
X2469552Y541364D01*
X2470380Y542605D01*
X2470671Y544068D01*
X2470380Y545531D01*
X2469552Y546772D01*
X2468311Y547600D01*
X2466848Y547891D01*
D02*
G37*
G36*
X2340610Y546367D02*
X2339147Y546076D01*
X2337906Y545248D01*
X2337078Y544007D01*
X2336787Y542544D01*
X2337078Y541081D01*
X2337906Y539840D01*
X2339147Y539012D01*
X2340610Y538721D01*
X2342073Y539012D01*
X2343314Y539840D01*
X2344142Y541081D01*
X2344433Y542544D01*
X2344142Y544007D01*
X2343314Y545248D01*
X2342073Y546076D01*
X2340610Y546367D01*
D02*
G37*
G36*
X2634489Y540272D02*
X2633026Y539981D01*
X2631785Y539152D01*
X2630956Y537912D01*
X2630665Y536449D01*
X2630956Y534986D01*
X2631785Y533745D01*
X2633026Y532916D01*
X2634489Y532625D01*
X2635952Y532916D01*
X2637192Y533745D01*
X2638021Y534986D01*
X2638312Y536449D01*
X2638021Y537912D01*
X2637192Y539152D01*
X2635952Y539981D01*
X2634489Y540272D01*
D02*
G37*
G36*
X2272030Y558813D02*
X2270567Y558522D01*
X2269326Y557694D01*
X2268498Y556453D01*
X2268207Y554990D01*
X2268498Y553527D01*
X2269326Y552286D01*
X2270228Y551684D01*
X2269406Y550453D01*
X2269115Y548990D01*
X2269406Y547527D01*
X2270235Y546286D01*
X2271475Y545458D01*
X2272938Y545167D01*
X2274401Y545458D01*
X2275642Y546286D01*
X2275931Y546720D01*
X2277279Y546451D01*
X2277388Y545907D01*
X2278216Y544666D01*
X2279457Y543838D01*
X2279902Y543749D01*
X2280918Y542350D01*
X2280907Y542290D01*
X2281198Y540827D01*
X2282026Y539586D01*
X2283267Y538758D01*
X2284730Y538467D01*
X2286193Y538758D01*
X2287434Y539586D01*
X2288262Y540827D01*
X2288553Y542290D01*
X2288262Y543753D01*
X2287434Y544994D01*
X2286193Y545822D01*
X2285748Y545911D01*
X2284731Y547310D01*
X2284743Y547370D01*
X2284452Y548833D01*
X2283624Y550074D01*
X2282383Y550902D01*
X2280920Y551193D01*
X2279457Y550902D01*
X2278216Y550074D01*
X2277927Y549641D01*
X2276579Y549909D01*
X2276470Y550453D01*
X2275642Y551694D01*
X2274740Y552296D01*
X2275562Y553527D01*
X2275853Y554990D01*
X2275562Y556453D01*
X2274734Y557694D01*
X2273493Y558522D01*
X2272030Y558813D01*
D02*
G37*
G36*
X2543556Y547891D02*
X2542093Y547600D01*
X2540852Y546772D01*
X2540024Y545531D01*
X2539733Y544068D01*
X2540024Y542605D01*
X2540852Y541364D01*
X2542093Y540536D01*
X2543556Y540245D01*
X2545019Y540536D01*
X2546260Y541364D01*
X2547088Y542605D01*
X2547379Y544068D01*
X2547088Y545531D01*
X2546260Y546772D01*
X2545019Y547600D01*
X2543556Y547891D01*
D02*
G37*
G36*
X2457704Y550939D02*
X2456241Y550648D01*
X2455000Y549820D01*
X2454172Y548579D01*
X2453881Y547116D01*
X2454172Y545653D01*
X2455000Y544412D01*
X2456241Y543584D01*
X2457704Y543293D01*
X2459167Y543584D01*
X2460408Y544412D01*
X2461236Y545653D01*
X2461527Y547116D01*
X2461236Y548579D01*
X2460408Y549820D01*
X2459167Y550648D01*
X2457704Y550939D01*
D02*
G37*
G36*
X2357120Y551193D02*
X2355657Y550902D01*
X2354416Y550074D01*
X2353588Y548833D01*
X2353297Y547370D01*
X2353588Y545907D01*
X2354416Y544666D01*
X2355657Y543838D01*
X2357120Y543547D01*
X2358583Y543838D01*
X2359824Y544666D01*
X2360652Y545907D01*
X2360943Y547370D01*
X2360652Y548833D01*
X2359824Y550074D01*
X2358583Y550902D01*
X2357120Y551193D01*
D02*
G37*
G36*
X2606040Y549923D02*
X2604577Y549632D01*
X2603336Y548804D01*
X2602508Y547563D01*
X2602216Y546100D01*
X2602508Y544637D01*
X2603336Y543396D01*
X2604577Y542568D01*
X2606040Y542277D01*
X2607503Y542568D01*
X2608744Y543396D01*
X2609572Y544637D01*
X2609863Y546100D01*
X2609572Y547563D01*
X2608744Y548804D01*
X2607503Y549632D01*
X2606040Y549923D01*
D02*
G37*
G36*
X2554224Y548145D02*
X2552761Y547854D01*
X2551520Y547026D01*
X2550692Y545785D01*
X2550401Y544322D01*
X2550692Y542859D01*
X2551520Y541618D01*
X2552761Y540790D01*
X2554224Y540499D01*
X2555687Y540790D01*
X2556928Y541618D01*
X2557756Y542859D01*
X2558047Y544322D01*
X2557756Y545785D01*
X2556928Y547026D01*
X2555687Y547854D01*
X2554224Y548145D01*
D02*
G37*
G36*
X2620010Y548653D02*
X2618547Y548362D01*
X2617307Y547534D01*
X2616478Y546293D01*
X2616187Y544830D01*
X2616478Y543367D01*
X2617307Y542126D01*
X2618547Y541298D01*
X2620010Y541007D01*
X2621473Y541298D01*
X2622714Y542126D01*
X2623542Y543367D01*
X2623833Y544830D01*
X2623542Y546293D01*
X2622714Y547534D01*
X2621473Y548362D01*
X2620010Y548653D01*
D02*
G37*
G36*
X2589530Y539763D02*
X2588067Y539472D01*
X2586826Y538644D01*
X2585998Y537403D01*
X2585706Y535940D01*
X2585998Y534477D01*
X2586826Y533236D01*
X2588067Y532408D01*
X2589530Y532117D01*
X2590993Y532408D01*
X2592234Y533236D01*
X2593062Y534477D01*
X2593353Y535940D01*
X2593062Y537403D01*
X2592234Y538644D01*
X2590993Y539472D01*
X2589530Y539763D01*
D02*
G37*
G36*
X2407920Y529603D02*
X2406457Y529312D01*
X2405216Y528484D01*
X2404388Y527243D01*
X2404097Y525780D01*
X2404388Y524317D01*
X2405216Y523076D01*
X2406457Y522248D01*
X2407920Y521957D01*
X2409383Y522248D01*
X2410624Y523076D01*
X2410671Y523147D01*
X2412008Y522937D01*
X2412836Y521696D01*
X2414077Y520868D01*
X2415540Y520577D01*
X2417003Y520868D01*
X2418244Y521696D01*
X2419072Y522937D01*
X2419363Y524400D01*
X2419072Y525863D01*
X2418244Y527104D01*
X2417003Y527932D01*
X2415540Y528223D01*
X2414077Y527932D01*
X2412836Y527104D01*
X2412789Y527033D01*
X2411452Y527243D01*
X2410624Y528484D01*
X2409383Y529312D01*
X2407920Y529603D01*
D02*
G37*
G36*
X2645410D02*
X2643947Y529312D01*
X2642706Y528484D01*
X2641878Y527243D01*
X2641587Y525780D01*
X2641878Y524317D01*
X2642706Y523076D01*
X2643947Y522248D01*
X2645410Y521957D01*
X2646873Y522248D01*
X2648114Y523076D01*
X2648942Y524317D01*
X2649233Y525780D01*
X2648942Y527243D01*
X2648114Y528484D01*
X2646873Y529312D01*
X2645410Y529603D01*
D02*
G37*
G36*
X2470150Y527317D02*
X2468687Y527026D01*
X2467446Y526198D01*
X2466618Y524957D01*
X2466327Y523494D01*
X2466618Y522031D01*
X2467446Y520790D01*
X2468687Y519962D01*
X2470150Y519671D01*
X2471613Y519962D01*
X2472854Y520790D01*
X2473682Y522031D01*
X2473973Y523494D01*
X2473682Y524957D01*
X2472854Y526198D01*
X2471613Y527026D01*
X2470150Y527317D01*
D02*
G37*
G36*
X2294890Y531568D02*
X2293427Y531277D01*
X2292186Y530449D01*
X2291358Y529208D01*
X2291067Y527745D01*
X2291358Y526282D01*
X2292186Y525041D01*
X2293427Y524213D01*
X2294890Y523922D01*
X2296353Y524213D01*
X2296511Y524318D01*
X2298043Y523815D01*
X2298536Y523076D01*
X2299777Y522248D01*
X2301240Y521957D01*
X2302703Y522248D01*
X2303117Y522524D01*
X2304491Y521915D01*
X2304633Y521202D01*
X2305461Y519961D01*
X2306702Y519133D01*
X2308165Y518842D01*
X2309628Y519133D01*
X2310869Y519961D01*
X2311697Y521202D01*
X2311988Y522665D01*
X2311697Y524128D01*
X2310869Y525369D01*
X2309628Y526197D01*
X2308165Y526488D01*
X2306702Y526197D01*
X2306288Y525921D01*
X2304914Y526530D01*
X2304772Y527243D01*
X2303944Y528484D01*
X2302703Y529312D01*
X2301240Y529603D01*
X2299777Y529312D01*
X2299619Y529207D01*
X2298087Y529711D01*
X2297594Y530449D01*
X2296353Y531277D01*
X2294890Y531568D01*
D02*
G37*
G36*
X2321052Y526555D02*
X2319589Y526264D01*
X2318348Y525436D01*
X2317520Y524195D01*
X2317229Y522732D01*
X2317520Y521269D01*
X2318348Y520028D01*
X2319589Y519200D01*
X2321052Y518909D01*
X2322515Y519200D01*
X2323756Y520028D01*
X2324584Y521269D01*
X2324875Y522732D01*
X2324584Y524195D01*
X2323756Y525436D01*
X2322515Y526264D01*
X2321052Y526555D01*
D02*
G37*
G36*
X2341880Y528079D02*
X2340417Y527788D01*
X2339176Y526960D01*
X2338528Y525989D01*
X2338088Y525633D01*
X2336961Y525258D01*
X2336031Y525443D01*
X2334568Y525152D01*
X2333327Y524324D01*
X2332498Y523083D01*
X2332207Y521620D01*
X2332498Y520157D01*
X2333327Y518916D01*
Y518658D01*
X2332826Y518324D01*
X2331998Y517083D01*
X2331707Y515620D01*
X2331998Y514157D01*
X2332826Y512916D01*
X2334067Y512088D01*
X2335530Y511797D01*
X2336993Y512088D01*
X2338234Y512916D01*
X2339062Y514157D01*
X2339353Y515620D01*
X2339062Y517083D01*
X2338234Y518324D01*
Y518582D01*
X2338734Y518916D01*
X2339563Y520157D01*
X2340950Y520618D01*
X2341880Y520433D01*
X2343343Y520724D01*
X2344584Y521552D01*
X2345412Y522793D01*
X2345703Y524256D01*
X2345412Y525719D01*
X2344584Y526960D01*
X2343343Y527788D01*
X2341880Y528079D01*
D02*
G37*
G36*
X2452169Y536099D02*
X2450706Y535808D01*
X2449465Y534979D01*
X2448636Y533739D01*
X2448345Y532275D01*
X2448636Y530812D01*
X2449465Y529572D01*
X2450706Y528743D01*
X2452169Y528452D01*
X2453632Y528743D01*
X2454872Y529572D01*
X2455701Y530812D01*
X2455992Y532275D01*
X2455701Y533739D01*
X2454872Y534979D01*
X2453632Y535808D01*
X2452169Y536099D01*
D02*
G37*
G36*
X2344674Y538493D02*
X2343211Y538202D01*
X2341970Y537374D01*
X2341142Y536133D01*
X2340851Y534670D01*
X2341142Y533207D01*
X2341970Y531966D01*
X2343211Y531138D01*
X2344674Y530847D01*
X2346137Y531138D01*
X2347267Y531893D01*
X2348066Y530696D01*
X2349307Y529868D01*
X2350770Y529577D01*
X2352233Y529868D01*
X2353474Y530696D01*
X2354302Y531937D01*
X2354593Y533400D01*
X2354302Y534863D01*
X2353474Y536104D01*
X2352233Y536932D01*
X2350770Y537223D01*
X2349307Y536932D01*
X2348177Y536177D01*
X2347378Y537374D01*
X2346137Y538202D01*
X2344674Y538493D01*
D02*
G37*
G36*
X2620010Y535953D02*
X2618547Y535662D01*
X2617307Y534834D01*
X2616478Y533593D01*
X2616187Y532130D01*
X2616478Y530667D01*
X2617307Y529426D01*
X2618547Y528598D01*
X2620010Y528307D01*
X2621473Y528598D01*
X2622714Y529426D01*
X2623542Y530667D01*
X2623833Y532130D01*
X2623542Y533593D01*
X2622714Y534834D01*
X2621473Y535662D01*
X2620010Y535953D01*
D02*
G37*
G36*
X2579774Y535378D02*
X2578311Y535087D01*
X2577070Y534259D01*
X2576241Y533018D01*
X2575951Y531555D01*
X2576241Y530092D01*
X2577070Y528851D01*
X2578311Y528023D01*
X2579774Y527732D01*
X2581237Y528023D01*
X2582478Y528851D01*
X2583306Y530092D01*
X2583597Y531555D01*
X2583306Y533018D01*
X2582478Y534259D01*
X2581237Y535087D01*
X2579774Y535378D01*
D02*
G37*
G36*
X2307590Y535953D02*
X2306127Y535662D01*
X2304886Y534834D01*
X2304058Y533593D01*
X2303767Y532130D01*
X2304058Y530667D01*
X2304886Y529426D01*
X2306127Y528598D01*
X2307590Y528307D01*
X2309053Y528598D01*
X2310294Y529426D01*
X2311122Y530667D01*
X2311413Y532130D01*
X2311122Y533593D01*
X2310294Y534834D01*
X2309053Y535662D01*
X2307590Y535953D01*
D02*
G37*
G36*
X2390140Y576593D02*
X2388677Y576302D01*
X2387436Y575474D01*
X2386608Y574233D01*
X2386317Y572770D01*
X2386608Y571307D01*
X2387436Y570066D01*
X2388677Y569238D01*
X2390140Y568947D01*
X2391603Y569238D01*
X2392844Y570066D01*
X2393672Y571307D01*
X2393963Y572770D01*
X2393672Y574233D01*
X2392844Y575474D01*
X2391603Y576302D01*
X2390140Y576593D01*
D02*
G37*
G36*
X2526030Y577863D02*
X2524567Y577572D01*
X2523326Y576744D01*
X2522498Y575503D01*
X2522207Y574040D01*
X2522498Y572577D01*
X2523326Y571336D01*
X2524567Y570508D01*
X2526030Y570217D01*
X2527493Y570508D01*
X2528734Y571336D01*
X2529562Y572577D01*
X2529853Y574040D01*
X2529562Y575503D01*
X2528734Y576744D01*
X2527493Y577572D01*
X2526030Y577863D01*
D02*
G37*
G36*
X2321814Y574815D02*
X2320351Y574524D01*
X2319110Y573696D01*
X2318282Y572455D01*
X2317991Y570992D01*
X2318282Y569529D01*
X2319110Y568288D01*
X2320351Y567460D01*
X2321814Y567169D01*
X2323277Y567460D01*
X2324518Y568288D01*
X2325346Y569529D01*
X2325637Y570992D01*
X2325346Y572455D01*
X2324518Y573696D01*
X2323277Y574524D01*
X2321814Y574815D01*
D02*
G37*
G36*
X2368550Y572783D02*
X2367087Y572492D01*
X2365846Y571664D01*
X2365018Y570423D01*
X2364727Y568960D01*
X2365018Y567497D01*
X2365846Y566256D01*
X2367087Y565428D01*
X2368550Y565137D01*
X2370013Y565428D01*
X2371254Y566256D01*
X2372082Y567497D01*
X2372373Y568960D01*
X2372082Y570423D01*
X2371254Y571664D01*
X2370013Y572492D01*
X2368550Y572783D01*
D02*
G37*
G36*
X2670810D02*
X2669347Y572492D01*
X2668106Y571664D01*
X2667278Y570423D01*
X2666987Y568960D01*
X2667278Y567497D01*
X2668106Y566256D01*
X2669347Y565428D01*
X2670810Y565137D01*
X2672273Y565428D01*
X2673513Y566256D01*
X2674342Y567497D01*
X2674633Y568960D01*
X2674342Y570423D01*
X2673513Y571664D01*
X2672273Y572492D01*
X2670810Y572783D01*
D02*
G37*
G36*
X2308606Y588960D02*
X2306257Y588650D01*
X2304067Y587743D01*
X2302187Y586301D01*
X2300744Y584421D01*
X2299838Y582231D01*
X2299528Y579882D01*
X2299838Y577533D01*
X2300744Y575343D01*
X2302187Y573463D01*
X2304067Y572020D01*
X2306257Y571114D01*
X2308606Y570804D01*
X2310956Y571114D01*
X2313145Y572020D01*
X2315025Y573463D01*
X2316467Y575343D01*
X2317374Y577533D01*
X2317684Y579882D01*
X2317374Y582231D01*
X2316467Y584421D01*
X2315025Y586301D01*
X2313145Y587743D01*
X2310956Y588650D01*
X2308606Y588960D01*
D02*
G37*
G36*
X2456434Y587515D02*
X2454971Y587224D01*
X2453730Y586396D01*
X2452902Y585155D01*
X2452611Y583692D01*
X2452902Y582229D01*
X2453730Y580988D01*
X2454971Y580160D01*
X2456434Y579869D01*
X2457897Y580160D01*
X2459138Y580988D01*
X2459966Y582229D01*
X2460257Y583692D01*
X2459966Y585155D01*
X2459138Y586396D01*
X2457897Y587224D01*
X2456434Y587515D01*
D02*
G37*
G36*
X2294382Y588023D02*
X2292919Y587732D01*
X2291678Y586904D01*
X2290850Y585663D01*
X2290559Y584200D01*
X2290850Y582737D01*
X2291678Y581496D01*
X2292919Y580668D01*
X2294382Y580377D01*
X2295845Y580668D01*
X2297086Y581496D01*
X2297914Y582737D01*
X2298205Y584200D01*
X2297914Y585663D01*
X2297086Y586904D01*
X2295845Y587732D01*
X2294382Y588023D01*
D02*
G37*
G36*
X2655570Y584213D02*
X2654107Y583922D01*
X2652867Y583094D01*
X2652038Y581853D01*
X2651747Y580390D01*
X2652038Y578927D01*
X2652867Y577686D01*
X2654107Y576858D01*
X2655570Y576567D01*
X2657033Y576858D01*
X2658274Y577686D01*
X2659102Y578927D01*
X2659393Y580390D01*
X2659102Y581853D01*
X2658274Y583094D01*
X2657033Y583922D01*
X2655570Y584213D01*
D02*
G37*
G36*
X2612390Y579133D02*
X2610927Y578842D01*
X2609686Y578014D01*
X2608858Y576773D01*
X2608567Y575310D01*
X2608858Y573847D01*
X2609686Y572606D01*
X2610927Y571778D01*
X2612390Y571487D01*
X2613853Y571778D01*
X2615094Y572606D01*
X2615923Y573847D01*
X2616213Y575310D01*
X2615923Y576773D01*
X2615094Y578014D01*
X2613853Y578842D01*
X2612390Y579133D01*
D02*
G37*
G36*
X2600960D02*
X2599497Y578842D01*
X2598257Y578014D01*
X2597428Y576773D01*
X2597261Y575937D01*
X2596643Y575702D01*
X2595894Y575574D01*
X2594803Y576302D01*
X2593340Y576593D01*
X2591877Y576302D01*
X2590636Y575474D01*
X2589808Y574233D01*
X2589517Y572770D01*
X2589808Y571307D01*
X2590636Y570066D01*
X2591877Y569238D01*
X2593340Y568947D01*
X2594803Y569238D01*
X2596044Y570066D01*
X2596872Y571307D01*
X2597039Y572143D01*
X2597657Y572378D01*
X2598406Y572506D01*
X2599497Y571778D01*
X2600960Y571487D01*
X2602423Y571778D01*
X2603664Y572606D01*
X2604492Y573847D01*
X2604783Y575310D01*
X2604492Y576773D01*
X2603664Y578014D01*
X2602423Y578842D01*
X2600960Y579133D01*
D02*
G37*
G36*
X2510790Y568973D02*
X2509327Y568682D01*
X2508086Y567854D01*
X2507258Y566613D01*
X2507061Y565626D01*
X2506059Y564974D01*
X2505722Y564908D01*
X2504440Y565163D01*
X2504380Y565151D01*
X2502981Y566168D01*
X2502892Y566613D01*
X2502064Y567854D01*
X2500823Y568682D01*
X2499360Y568973D01*
X2497897Y568682D01*
X2496656Y567854D01*
X2495828Y566613D01*
X2495739Y566168D01*
X2494340Y565151D01*
X2494280Y565163D01*
X2492817Y564872D01*
X2491576Y564044D01*
X2490748Y562803D01*
X2490457Y561340D01*
X2490748Y559877D01*
X2491576Y558636D01*
X2492817Y557808D01*
X2494280Y557517D01*
X2495743Y557808D01*
X2496984Y558636D01*
X2497812Y559877D01*
X2497901Y560322D01*
X2499300Y561339D01*
X2499360Y561327D01*
X2499420Y561339D01*
X2500819Y560322D01*
X2500908Y559877D01*
X2501736Y558636D01*
X2502977Y557808D01*
X2504440Y557517D01*
X2505903Y557808D01*
X2507144Y558636D01*
X2507972Y559877D01*
X2508169Y560864D01*
X2509171Y561516D01*
X2509508Y561582D01*
X2510790Y561327D01*
X2512253Y561618D01*
X2513494Y562446D01*
X2514322Y563687D01*
X2514613Y565150D01*
X2514322Y566613D01*
X2513494Y567854D01*
X2512253Y568682D01*
X2510790Y568973D01*
D02*
G37*
G36*
X2640390Y556213D02*
X2638927Y555922D01*
X2637686Y555094D01*
X2636858Y553853D01*
X2636566Y552390D01*
X2636858Y550927D01*
X2637686Y549686D01*
X2638927Y548858D01*
X2640390Y548567D01*
X2641853Y548858D01*
X2643094Y549686D01*
X2643922Y550927D01*
X2644213Y552390D01*
X2643922Y553853D01*
X2643094Y555094D01*
X2641853Y555922D01*
X2640390Y556213D01*
D02*
G37*
G36*
X2378710Y553733D02*
X2377247Y553442D01*
X2376006Y552614D01*
X2375178Y551373D01*
X2375089Y550928D01*
X2373690Y549911D01*
X2373630Y549923D01*
X2372167Y549632D01*
X2370926Y548804D01*
X2370098Y547563D01*
X2369807Y546100D01*
X2370098Y544637D01*
X2370926Y543396D01*
X2372167Y542568D01*
X2373630Y542277D01*
X2375093Y542568D01*
X2376334Y543396D01*
X2377162Y544637D01*
X2377251Y545082D01*
X2378650Y546099D01*
X2378710Y546087D01*
X2380173Y546378D01*
X2381414Y547206D01*
X2382242Y548447D01*
X2382533Y549910D01*
X2382242Y551373D01*
X2381414Y552614D01*
X2380173Y553442D01*
X2378710Y553733D01*
D02*
G37*
G36*
X2428240D02*
X2426777Y553442D01*
X2425536Y552614D01*
X2424708Y551373D01*
X2424417Y549910D01*
X2424584Y549067D01*
X2423441Y548304D01*
X2423353Y548362D01*
X2421890Y548653D01*
X2420427Y548362D01*
X2419186Y547534D01*
X2418358Y546293D01*
X2418067Y544830D01*
X2418234Y543987D01*
X2417091Y543224D01*
X2417003Y543282D01*
X2415540Y543573D01*
X2414077Y543282D01*
X2412836Y542454D01*
X2412008Y541213D01*
X2411717Y539750D01*
X2412008Y538287D01*
X2412836Y537046D01*
X2414077Y536218D01*
X2415540Y535927D01*
X2417003Y536218D01*
X2418244Y537046D01*
X2419072Y538287D01*
X2419363Y539750D01*
X2419196Y540593D01*
X2420339Y541356D01*
X2420427Y541298D01*
X2421890Y541007D01*
X2423353Y541298D01*
X2424594Y542126D01*
X2425422Y543367D01*
X2425713Y544830D01*
X2425546Y545673D01*
X2426689Y546436D01*
X2426777Y546378D01*
X2428240Y546087D01*
X2428460Y546130D01*
X2429540Y545050D01*
X2429497Y544830D01*
X2429788Y543367D01*
X2430616Y542126D01*
X2431857Y541298D01*
X2433320Y541007D01*
X2434783Y541298D01*
X2436024Y542126D01*
X2436852Y543367D01*
X2437143Y544830D01*
X2436852Y546293D01*
X2436024Y547534D01*
X2434783Y548362D01*
X2433320Y548653D01*
X2433100Y548610D01*
X2432020Y549690D01*
X2432063Y549910D01*
X2431772Y551373D01*
X2430944Y552614D01*
X2429703Y553442D01*
X2428240Y553733D01*
D02*
G37*
G36*
X2413747Y552343D02*
X2412284Y552052D01*
X2411044Y551224D01*
X2410215Y549983D01*
X2409924Y548520D01*
X2410215Y547057D01*
X2411044Y545816D01*
X2412284Y544988D01*
X2413747Y544697D01*
X2415210Y544988D01*
X2416451Y545816D01*
X2417280Y547057D01*
X2417571Y548520D01*
X2417280Y549983D01*
X2416451Y551224D01*
X2415210Y552052D01*
X2413747Y552343D01*
D02*
G37*
G36*
X2519680Y553733D02*
X2518217Y553442D01*
X2516976Y552614D01*
X2516148Y551373D01*
X2515857Y549910D01*
X2516148Y548447D01*
X2516976Y547206D01*
X2518217Y546378D01*
X2519680Y546087D01*
X2521143Y546378D01*
X2522384Y547206D01*
X2523212Y548447D01*
X2523503Y549910D01*
X2523212Y551373D01*
X2522384Y552614D01*
X2521143Y553442D01*
X2519680Y553733D01*
D02*
G37*
G36*
X2280920Y572783D02*
X2279457Y572492D01*
X2278216Y571664D01*
X2277388Y570423D01*
X2277097Y568960D01*
X2277388Y567497D01*
X2277608Y567167D01*
X2278151Y566206D01*
X2277284Y565539D01*
X2276946Y565314D01*
X2276118Y564073D01*
X2275827Y562610D01*
X2276118Y561147D01*
X2276946Y559906D01*
X2278187Y559078D01*
X2279650Y558787D01*
X2281113Y559078D01*
X2282354Y559906D01*
X2282561Y560216D01*
X2283124Y560236D01*
X2283944Y560000D01*
X2284742Y558071D01*
X2286185Y556191D01*
X2288065Y554748D01*
X2290255Y553842D01*
X2292604Y553532D01*
X2294953Y553842D01*
X2296929Y554660D01*
X2297587Y554318D01*
X2298064Y553855D01*
X2297950Y553279D01*
X2298241Y551816D01*
X2299070Y550575D01*
X2300310Y549747D01*
X2301773Y549455D01*
X2303236Y549747D01*
X2304477Y550575D01*
X2305101Y551510D01*
X2306540Y552006D01*
X2306607Y551954D01*
X2308797Y551048D01*
X2311146Y550738D01*
X2313495Y551048D01*
X2315685Y551954D01*
X2317565Y553397D01*
X2319008Y555277D01*
X2319914Y557467D01*
X2320224Y559816D01*
X2319914Y562165D01*
X2319008Y564355D01*
X2317565Y566235D01*
X2315685Y567677D01*
X2313495Y568584D01*
X2311146Y568894D01*
X2308797Y568584D01*
X2306607Y567677D01*
X2304727Y566235D01*
X2303284Y564355D01*
X2302866Y563344D01*
X2301562Y563516D01*
X2301372Y564959D01*
X2300466Y567149D01*
X2299023Y569029D01*
X2297143Y570471D01*
X2294953Y571378D01*
X2292604Y571688D01*
X2290255Y571378D01*
X2288065Y570471D01*
X2286185Y569029D01*
X2285979Y568761D01*
X2285374Y568858D01*
X2284700Y569179D01*
X2284452Y570423D01*
X2283624Y571664D01*
X2282383Y572492D01*
X2280920Y572783D01*
D02*
G37*
G36*
X2655570Y571513D02*
X2654107Y571222D01*
X2652867Y570394D01*
X2652038Y569153D01*
X2651747Y567690D01*
X2652038Y566227D01*
X2652867Y564986D01*
X2654107Y564158D01*
X2655570Y563867D01*
X2657033Y564158D01*
X2658274Y564986D01*
X2659102Y566227D01*
X2659393Y567690D01*
X2659102Y569153D01*
X2658274Y570394D01*
X2657033Y571222D01*
X2655570Y571513D01*
D02*
G37*
G36*
X2487930Y576593D02*
X2486467Y576302D01*
X2485226Y575474D01*
X2484398Y574233D01*
X2484107Y572770D01*
X2483081Y571417D01*
X2482657Y571332D01*
X2481416Y570504D01*
X2480588Y569263D01*
X2480297Y567800D01*
X2480588Y566337D01*
X2481416Y565096D01*
X2482657Y564268D01*
X2484120Y563977D01*
X2485583Y564268D01*
X2486824Y565096D01*
X2487652Y566337D01*
X2487943Y567800D01*
X2488969Y569153D01*
X2489393Y569238D01*
X2490634Y570066D01*
X2491462Y571307D01*
X2491753Y572770D01*
X2491462Y574233D01*
X2490634Y575474D01*
X2489393Y576302D01*
X2487930Y576593D01*
D02*
G37*
G36*
X2255520Y568973D02*
X2254057Y568682D01*
X2252816Y567854D01*
X2251988Y566613D01*
X2251697Y565150D01*
X2251988Y563687D01*
X2252816Y562446D01*
X2254057Y561618D01*
X2255520Y561327D01*
X2256983Y561618D01*
X2258224Y562446D01*
X2259052Y563687D01*
X2259343Y565150D01*
X2259052Y566613D01*
X2258224Y567854D01*
X2256983Y568682D01*
X2255520Y568973D01*
D02*
G37*
G36*
X2364740Y560083D02*
X2363277Y559792D01*
X2362036Y558964D01*
X2361208Y557723D01*
X2360917Y556260D01*
X2361208Y554797D01*
X2362036Y553556D01*
X2363277Y552728D01*
X2364740Y552437D01*
X2366203Y552728D01*
X2367444Y553556D01*
X2368272Y554797D01*
X2368563Y556260D01*
X2368272Y557723D01*
X2367444Y558964D01*
X2366203Y559792D01*
X2364740Y560083D01*
D02*
G37*
G36*
X2631440Y565163D02*
X2629977Y564872D01*
X2628736Y564044D01*
X2627908Y562803D01*
X2627617Y561340D01*
X2627908Y559877D01*
X2628736Y558636D01*
X2629977Y557808D01*
X2631440Y557517D01*
X2632903Y557808D01*
X2634144Y558636D01*
X2634973Y559877D01*
X2635263Y561340D01*
X2634973Y562803D01*
X2634144Y564044D01*
X2632903Y564872D01*
X2631440Y565163D01*
D02*
G37*
G36*
X2482850Y477533D02*
X2481387Y477242D01*
X2480146Y476414D01*
X2479318Y475173D01*
X2479027Y473710D01*
X2479318Y472247D01*
X2480146Y471006D01*
X2481387Y470178D01*
X2482850Y469887D01*
X2484313Y470178D01*
X2485554Y471006D01*
X2486382Y472247D01*
X2486673Y473710D01*
X2486382Y475173D01*
X2485554Y476414D01*
X2484313Y477242D01*
X2482850Y477533D01*
D02*
G37*
G36*
X2348484Y481597D02*
X2347021Y481306D01*
X2345780Y480478D01*
X2344952Y479237D01*
X2344661Y477774D01*
X2344952Y476311D01*
X2345780Y475070D01*
X2347021Y474242D01*
X2348484Y473951D01*
X2349947Y474242D01*
X2351188Y475070D01*
X2352016Y476311D01*
X2352307Y477774D01*
X2352016Y479237D01*
X2351188Y480478D01*
X2349947Y481306D01*
X2348484Y481597D01*
D02*
G37*
G36*
X2470150Y477533D02*
X2468687Y477242D01*
X2467446Y476414D01*
X2466618Y475173D01*
X2466327Y473710D01*
X2466618Y472247D01*
X2467446Y471006D01*
X2468687Y470178D01*
X2470150Y469887D01*
X2471613Y470178D01*
X2472854Y471006D01*
X2473682Y472247D01*
X2473973Y473710D01*
X2473682Y475173D01*
X2472854Y476414D01*
X2471613Y477242D01*
X2470150Y477533D01*
D02*
G37*
G36*
X2397760Y476009D02*
X2396297Y475718D01*
X2395056Y474890D01*
X2394228Y473649D01*
X2393937Y472186D01*
X2394228Y470723D01*
X2395056Y469482D01*
X2396297Y468654D01*
X2397760Y468363D01*
X2399223Y468654D01*
X2400464Y469482D01*
X2401292Y470723D01*
X2401583Y472186D01*
X2401292Y473649D01*
X2400464Y474890D01*
X2399223Y475718D01*
X2397760Y476009D01*
D02*
G37*
G36*
X2457958Y477279D02*
X2456495Y476988D01*
X2455254Y476160D01*
X2454426Y474919D01*
X2454135Y473456D01*
X2454426Y471993D01*
X2455254Y470752D01*
X2456495Y469924D01*
X2457958Y469633D01*
X2459421Y469924D01*
X2460662Y470752D01*
X2461490Y471993D01*
X2461781Y473456D01*
X2461490Y474919D01*
X2460662Y476160D01*
X2459421Y476988D01*
X2457958Y477279D01*
D02*
G37*
G36*
X2515616Y482105D02*
X2514153Y481814D01*
X2512912Y480986D01*
X2512084Y479745D01*
X2511793Y478282D01*
X2511928Y477599D01*
X2510830Y476612D01*
X2510028Y476771D01*
X2508565Y476480D01*
X2507324Y475652D01*
X2506496Y474411D01*
X2506205Y472948D01*
X2506496Y471485D01*
X2507324Y470244D01*
X2508565Y469416D01*
X2510028Y469125D01*
X2511491Y469416D01*
X2512732Y470244D01*
X2513560Y471485D01*
X2513851Y472948D01*
X2513716Y473630D01*
X2514814Y474618D01*
X2515616Y474459D01*
X2517079Y474750D01*
X2518320Y475578D01*
X2519148Y476819D01*
X2519439Y478282D01*
X2519148Y479745D01*
X2518320Y480986D01*
X2517079Y481814D01*
X2515616Y482105D01*
D02*
G37*
G36*
X2668016Y486899D02*
X2665004Y486602D01*
X2660886Y485353D01*
X2657091Y483325D01*
X2653765Y480595D01*
X2652915Y479559D01*
X2651552Y479901D01*
X2651483Y480253D01*
X2650654Y481494D01*
X2649413Y482322D01*
X2647950Y482613D01*
X2646487Y482322D01*
X2645246Y481494D01*
X2644418Y480253D01*
X2644127Y478790D01*
X2644418Y477327D01*
X2645246Y476086D01*
X2646487Y475258D01*
X2647950Y474967D01*
X2648414Y475059D01*
X2649251Y473931D01*
X2649007Y473474D01*
X2647758Y469356D01*
X2647462Y466344D01*
X2668016D01*
Y486899D01*
D02*
G37*
G36*
X2338070Y494043D02*
X2336607Y493752D01*
X2335366Y492924D01*
X2334538Y491683D01*
X2334247Y490220D01*
X2334538Y488757D01*
X2335366Y487516D01*
X2336607Y486688D01*
X2337278Y486554D01*
X2338106Y486059D01*
X2338200Y485174D01*
X2338057Y484451D01*
X2338348Y482988D01*
X2339176Y481748D01*
X2340417Y480919D01*
X2341880Y480628D01*
X2343343Y480919D01*
X2344584Y481748D01*
X2345412Y482988D01*
X2345703Y484451D01*
X2345412Y485915D01*
X2344584Y487155D01*
X2343343Y487984D01*
X2342672Y488117D01*
X2341844Y488612D01*
X2341750Y489497D01*
X2341893Y490220D01*
X2341602Y491683D01*
X2340774Y492924D01*
X2339533Y493752D01*
X2338070Y494043D01*
D02*
G37*
G36*
X2363470Y483883D02*
X2362007Y483592D01*
X2360766Y482764D01*
X2359938Y481523D01*
X2359647Y480060D01*
X2359690Y479840D01*
X2358610Y478760D01*
X2358390Y478803D01*
X2356927Y478512D01*
X2355686Y477684D01*
X2354858Y476443D01*
X2354567Y474980D01*
X2354858Y473517D01*
X2355686Y472276D01*
X2356927Y471448D01*
X2358390Y471157D01*
X2359853Y471448D01*
X2361094Y472276D01*
X2361922Y473517D01*
X2362213Y474980D01*
X2363251Y475694D01*
X2363689D01*
X2364727Y474980D01*
X2365018Y473517D01*
X2365846Y472276D01*
X2367087Y471448D01*
X2368550Y471157D01*
X2370013Y471448D01*
X2371254Y472276D01*
X2372082Y473517D01*
X2372373Y474980D01*
X2372082Y476443D01*
X2371254Y477684D01*
X2370013Y478512D01*
X2368550Y478803D01*
X2368330Y478760D01*
X2367250Y479840D01*
X2367293Y480060D01*
X2367002Y481523D01*
X2366174Y482764D01*
X2364933Y483592D01*
X2363470Y483883D01*
D02*
G37*
G36*
X2280920Y485153D02*
X2279457Y484862D01*
X2278216Y484034D01*
X2277388Y482793D01*
X2277097Y481330D01*
X2277388Y479867D01*
X2278216Y478626D01*
X2279457Y477798D01*
X2280920Y477507D01*
X2282383Y477798D01*
X2283624Y478626D01*
X2284452Y479867D01*
X2284743Y481330D01*
X2284452Y482793D01*
X2283624Y484034D01*
X2282383Y484862D01*
X2280920Y485153D01*
D02*
G37*
G36*
X2491327Y485714D02*
X2489864Y485422D01*
X2488624Y484594D01*
X2487795Y483353D01*
X2487504Y481890D01*
X2487795Y480427D01*
X2488624Y479186D01*
X2489864Y478358D01*
X2491327Y478067D01*
X2492791Y478358D01*
X2494031Y479186D01*
X2494860Y480427D01*
X2495151Y481890D01*
X2494860Y483353D01*
X2494031Y484594D01*
X2492791Y485422D01*
X2491327Y485714D01*
D02*
G37*
G36*
X2491486Y473469D02*
X2490023Y473178D01*
X2488782Y472350D01*
X2487954Y471109D01*
X2487663Y469646D01*
X2487954Y468183D01*
X2488782Y466942D01*
X2490023Y466114D01*
X2491486Y465823D01*
X2492949Y466114D01*
X2494190Y466942D01*
X2495018Y468183D01*
X2495309Y469646D01*
X2495018Y471109D01*
X2494190Y472350D01*
X2492949Y473178D01*
X2491486Y473469D01*
D02*
G37*
G36*
X2550668Y458483D02*
X2549205Y458192D01*
X2547964Y457364D01*
X2547136Y456123D01*
X2546845Y454660D01*
X2547136Y453197D01*
X2547964Y451956D01*
X2549205Y451128D01*
X2550668Y450837D01*
X2552131Y451128D01*
X2553372Y451956D01*
X2554601Y451511D01*
X2555555Y450874D01*
X2557018Y450583D01*
X2558481Y450874D01*
X2559722Y451702D01*
X2560551Y452943D01*
X2560841Y454406D01*
X2560551Y455869D01*
X2559722Y457110D01*
X2558481Y457938D01*
X2557018Y458229D01*
X2555555Y457938D01*
X2554314Y457110D01*
X2553085Y457555D01*
X2552131Y458192D01*
X2550668Y458483D01*
D02*
G37*
G36*
X2598166Y458991D02*
X2596703Y458700D01*
X2595462Y457872D01*
X2594633Y456631D01*
X2594343Y455168D01*
X2594633Y453705D01*
X2595462Y452464D01*
X2596703Y451636D01*
X2598166Y451345D01*
X2599629Y451636D01*
X2600870Y452464D01*
X2601698Y453705D01*
X2601989Y455168D01*
X2601698Y456631D01*
X2600870Y457872D01*
X2599629Y458700D01*
X2598166Y458991D01*
D02*
G37*
G36*
X2528570Y458229D02*
X2527107Y457938D01*
X2525866Y457110D01*
X2525038Y455869D01*
X2524747Y454406D01*
X2525038Y452943D01*
X2525866Y451702D01*
X2527107Y450874D01*
X2528570Y450583D01*
X2530033Y450874D01*
X2531274Y451702D01*
X2532102Y452943D01*
X2532393Y454406D01*
X2532102Y455869D01*
X2531274Y457110D01*
X2530033Y457938D01*
X2528570Y458229D01*
D02*
G37*
G36*
X2378710Y454673D02*
X2377247Y454382D01*
X2376006Y453554D01*
X2375178Y452313D01*
X2374887Y450850D01*
X2375178Y449387D01*
X2376006Y448146D01*
X2377247Y447318D01*
X2378710Y447027D01*
X2380173Y447318D01*
X2381414Y448146D01*
X2382242Y449387D01*
X2382533Y450850D01*
X2382242Y452313D01*
X2381414Y453554D01*
X2380173Y454382D01*
X2378710Y454673D01*
D02*
G37*
G36*
X2588260Y456941D02*
X2586797Y456650D01*
X2585556Y455821D01*
X2584727Y454581D01*
X2584437Y453118D01*
X2584727Y451655D01*
X2585556Y450414D01*
X2586797Y449585D01*
X2588260Y449294D01*
X2589723Y449585D01*
X2590964Y450414D01*
X2591792Y451655D01*
X2592083Y453118D01*
X2591792Y454581D01*
X2590964Y455821D01*
X2589723Y456650D01*
X2588260Y456941D01*
D02*
G37*
G36*
X2635758Y461278D02*
X2634295Y460987D01*
X2633054Y460158D01*
X2632225Y458917D01*
X2631935Y457454D01*
X2632225Y455991D01*
X2633054Y454751D01*
X2634295Y453922D01*
X2635758Y453631D01*
X2637221Y453922D01*
X2638461Y454751D01*
X2639290Y455991D01*
X2639581Y457454D01*
X2639290Y458917D01*
X2638461Y460158D01*
X2637221Y460987D01*
X2635758Y461278D01*
D02*
G37*
G36*
X2299970Y471183D02*
X2298507Y470892D01*
X2297266Y470064D01*
X2296438Y468823D01*
X2296147Y467360D01*
X2296438Y465897D01*
X2297266Y464656D01*
X2298507Y463828D01*
X2299970Y463537D01*
X2301433Y463828D01*
X2302674Y464656D01*
X2303502Y465897D01*
X2303793Y467360D01*
X2303502Y468823D01*
X2302674Y470064D01*
X2301433Y470892D01*
X2299970Y471183D01*
D02*
G37*
G36*
X2539238Y484645D02*
X2537775Y484354D01*
X2536534Y483526D01*
X2535706Y482285D01*
X2535415Y480822D01*
X2535582Y479977D01*
X2534844Y478536D01*
X2534727Y478512D01*
X2533486Y477684D01*
X2532658Y476443D01*
X2532367Y474980D01*
X2532658Y473517D01*
X2533486Y472276D01*
X2534727Y471448D01*
X2534967Y471400D01*
X2535551Y469989D01*
X2535452Y469839D01*
X2535161Y468376D01*
X2535452Y466913D01*
X2536280Y465672D01*
X2537521Y464844D01*
X2538984Y464553D01*
X2540447Y464844D01*
X2541688Y465672D01*
X2542516Y466913D01*
X2542807Y468376D01*
X2542516Y469839D01*
X2541688Y471080D01*
X2540447Y471908D01*
X2540207Y471956D01*
X2539622Y473367D01*
X2539722Y473517D01*
X2540013Y474980D01*
X2539845Y475825D01*
X2540584Y477266D01*
X2540701Y477290D01*
X2541942Y478118D01*
X2542770Y479359D01*
X2543061Y480822D01*
X2542770Y482285D01*
X2541942Y483526D01*
X2540701Y484354D01*
X2539238Y484645D01*
D02*
G37*
G36*
X2582164Y476517D02*
X2580701Y476226D01*
X2579460Y475398D01*
X2578632Y474157D01*
X2578340Y472694D01*
X2578632Y471231D01*
X2579460Y469990D01*
X2579460Y469990D01*
X2579489Y469958D01*
X2580222Y469048D01*
X2579394Y467807D01*
X2579102Y466344D01*
X2579394Y464881D01*
X2580222Y463640D01*
X2581463Y462812D01*
X2582926Y462521D01*
X2584389Y462812D01*
X2585630Y463640D01*
X2586458Y464881D01*
X2586749Y466344D01*
X2586458Y467807D01*
X2585630Y469048D01*
X2585602Y469080D01*
X2585036Y469972D01*
X2585296Y470612D01*
X2585499Y470936D01*
X2585696Y471231D01*
X2585988Y472694D01*
X2585696Y474157D01*
X2584868Y475398D01*
X2583627Y476226D01*
X2582164Y476517D01*
D02*
G37*
G36*
X2421382Y461531D02*
X2419919Y461240D01*
X2418678Y460412D01*
X2417850Y459171D01*
X2417559Y457708D01*
X2417850Y456245D01*
X2418678Y455004D01*
X2419919Y454176D01*
X2421382Y453885D01*
X2422845Y454176D01*
X2424086Y455004D01*
X2424914Y456245D01*
X2425205Y457708D01*
X2424914Y459171D01*
X2424086Y460412D01*
X2422845Y461240D01*
X2421382Y461531D01*
D02*
G37*
G36*
X2404110Y462293D02*
X2402647Y462002D01*
X2401406Y461174D01*
X2400210D01*
X2398969Y462002D01*
X2397506Y462293D01*
X2396043Y462002D01*
X2394802Y461174D01*
X2393974Y459933D01*
X2393683Y458470D01*
X2393974Y457007D01*
X2394802Y455766D01*
X2396043Y454938D01*
X2397506Y454647D01*
X2398969Y454938D01*
X2400210Y455766D01*
X2401406D01*
X2402647Y454938D01*
X2404110Y454647D01*
X2405573Y454938D01*
X2406814Y455766D01*
X2407642Y457007D01*
X2407933Y458470D01*
X2407642Y459933D01*
X2406814Y461174D01*
X2405573Y462002D01*
X2404110Y462293D01*
D02*
G37*
G36*
X2640330Y513093D02*
X2638867Y512802D01*
X2637626Y511974D01*
X2636797Y510733D01*
X2636507Y509270D01*
X2636797Y507807D01*
X2637626Y506566D01*
X2638867Y505738D01*
X2640330Y505447D01*
X2641793Y505738D01*
X2643034Y506566D01*
X2643862Y507807D01*
X2644153Y509270D01*
X2643862Y510733D01*
X2643034Y511974D01*
X2641793Y512802D01*
X2640330Y513093D01*
D02*
G37*
G36*
X2317750Y515633D02*
X2316287Y515342D01*
X2315046Y514514D01*
X2314218Y513273D01*
X2313927Y511810D01*
X2314218Y510347D01*
X2315046Y509106D01*
X2316287Y508278D01*
X2317750Y507987D01*
X2319213Y508278D01*
X2320454Y509106D01*
X2321282Y510347D01*
X2321573Y511810D01*
X2321282Y513273D01*
X2320454Y514514D01*
X2319213Y515342D01*
X2317750Y515633D01*
D02*
G37*
G36*
X2379980Y513093D02*
X2378517Y512802D01*
X2377276Y511974D01*
X2376448Y510733D01*
X2376157Y509270D01*
X2376448Y507807D01*
X2377276Y506566D01*
X2378517Y505738D01*
X2379980Y505447D01*
X2381443Y505738D01*
X2382684Y506566D01*
X2383512Y507807D01*
X2383803Y509270D01*
X2383512Y510733D01*
X2382684Y511974D01*
X2381443Y512802D01*
X2379980Y513093D01*
D02*
G37*
G36*
X2522220Y505460D02*
X2520188D01*
Y503428D01*
X2522220D01*
Y505460D01*
D02*
G37*
G36*
X2526792D02*
X2524760D01*
Y503428D01*
X2526792D01*
Y505460D01*
D02*
G37*
G36*
X2522220Y510032D02*
X2520188D01*
Y508000D01*
X2522220D01*
Y510032D01*
D02*
G37*
G36*
X2256536Y525539D02*
X2255073Y525248D01*
X2253832Y524420D01*
X2253004Y523179D01*
X2252713Y521716D01*
X2253004Y520253D01*
X2253832Y519012D01*
X2255073Y518184D01*
X2256536Y517893D01*
X2257999Y518184D01*
X2259240Y519012D01*
X2260068Y520253D01*
X2260359Y521716D01*
X2260068Y523179D01*
X2259240Y524420D01*
X2257999Y525248D01*
X2256536Y525539D01*
D02*
G37*
G36*
X2507488D02*
X2506025Y525248D01*
X2504784Y524420D01*
X2503956Y523179D01*
X2503665Y521716D01*
X2503956Y520253D01*
X2504784Y519012D01*
X2506025Y518184D01*
X2507488Y517893D01*
X2508951Y518184D01*
X2510192Y519012D01*
X2511020Y520253D01*
X2511311Y521716D01*
X2511020Y523179D01*
X2510192Y524420D01*
X2508951Y525248D01*
X2507488Y525539D01*
D02*
G37*
G36*
X2445187Y524053D02*
X2443724Y523762D01*
X2442484Y522934D01*
X2441655Y521693D01*
X2441364Y520230D01*
X2441655Y518767D01*
X2442484Y517526D01*
X2443724Y516698D01*
X2445187Y516407D01*
X2446651Y516698D01*
X2447891Y517526D01*
X2448720Y518767D01*
X2449011Y520230D01*
X2448720Y521693D01*
X2447891Y522934D01*
X2446651Y523762D01*
X2445187Y524053D01*
D02*
G37*
G36*
X2526792Y510032D02*
X2524760D01*
Y508000D01*
X2526792D01*
Y510032D01*
D02*
G37*
G36*
X2272030Y516903D02*
X2270567Y516612D01*
X2269326Y515784D01*
X2268568Y514648D01*
X2268251Y514356D01*
X2267306Y513964D01*
X2267143Y514072D01*
X2265680Y514363D01*
X2264217Y514072D01*
X2262976Y513244D01*
X2262148Y512003D01*
X2261857Y510540D01*
X2262148Y509077D01*
X2262976Y507836D01*
X2264217Y507008D01*
X2265680Y506717D01*
X2267143Y507008D01*
X2268384Y507836D01*
X2269142Y508972D01*
X2269458Y509264D01*
X2270404Y509656D01*
X2270567Y509548D01*
X2272030Y509257D01*
X2273493Y509548D01*
X2273581Y509606D01*
X2274724Y508843D01*
X2274557Y508000D01*
X2274848Y506537D01*
X2275676Y505296D01*
X2276917Y504468D01*
X2278380Y504177D01*
X2279843Y504468D01*
X2281084Y505296D01*
X2281912Y506537D01*
X2282203Y508000D01*
X2281912Y509463D01*
X2281084Y510704D01*
X2279843Y511532D01*
X2278380Y511823D01*
X2276917Y511532D01*
X2276829Y511474D01*
X2275686Y512237D01*
X2275853Y513080D01*
X2275562Y514543D01*
X2274734Y515784D01*
X2273493Y516612D01*
X2272030Y516903D01*
D02*
G37*
G36*
X2326812Y515633D02*
X2325349Y515342D01*
X2324109Y514514D01*
X2323280Y513273D01*
X2322989Y511810D01*
X2323280Y510347D01*
X2324109Y509106D01*
X2324328Y508960D01*
X2325206Y508164D01*
X2324378Y506923D01*
X2324087Y505460D01*
X2324378Y503997D01*
X2325206Y502756D01*
X2326447Y501928D01*
X2327910Y501637D01*
X2329373Y501928D01*
X2330614Y502756D01*
X2331442Y503997D01*
X2331733Y505460D01*
X2331442Y506923D01*
X2330614Y508164D01*
X2330395Y508310D01*
X2329516Y509106D01*
X2330345Y510347D01*
X2330636Y511810D01*
X2330345Y513273D01*
X2329516Y514514D01*
X2328275Y515342D01*
X2326812Y515633D01*
D02*
G37*
G36*
X2379218Y492265D02*
X2377755Y491974D01*
X2376514Y491146D01*
X2375686Y489905D01*
X2375597Y489461D01*
X2374302Y489114D01*
X2373061Y489942D01*
X2371598Y490233D01*
X2370135Y489942D01*
X2368894Y489114D01*
X2368066Y487873D01*
X2367775Y486410D01*
X2368066Y484947D01*
X2368894Y483706D01*
X2370135Y482878D01*
X2371598Y482587D01*
X2373061Y482878D01*
X2374302Y483706D01*
X2375130Y484947D01*
X2375219Y485391D01*
X2376514Y485738D01*
X2377755Y484910D01*
X2379218Y484619D01*
X2380681Y484910D01*
X2381922Y485738D01*
X2382750Y486979D01*
X2383041Y488442D01*
X2382750Y489905D01*
X2381922Y491146D01*
X2380681Y491974D01*
X2379218Y492265D01*
D02*
G37*
G36*
X2327970Y496788D02*
X2326507Y496497D01*
X2325266Y495668D01*
X2324438Y494428D01*
X2324147Y492965D01*
X2324438Y491502D01*
X2325266Y490261D01*
X2326507Y489432D01*
X2327970Y489141D01*
X2329433Y489432D01*
X2330674Y490261D01*
X2331502Y491502D01*
X2331794Y492965D01*
X2331502Y494428D01*
X2330674Y495668D01*
X2329433Y496497D01*
X2327970Y496788D01*
D02*
G37*
G36*
X2633980Y495313D02*
X2632517Y495022D01*
X2631277Y494194D01*
X2630448Y492953D01*
X2630157Y491490D01*
X2630448Y490027D01*
X2631277Y488786D01*
X2632517Y487958D01*
X2633980Y487667D01*
X2635443Y487958D01*
X2636684Y488786D01*
X2637513Y490027D01*
X2637803Y491490D01*
X2637513Y492953D01*
X2636684Y494194D01*
X2635443Y495022D01*
X2633980Y495313D01*
D02*
G37*
G36*
X2605532Y494551D02*
X2604069Y494260D01*
X2602828Y493432D01*
X2602000Y492191D01*
X2601709Y490728D01*
X2602000Y489265D01*
X2602828Y488024D01*
X2604069Y487196D01*
X2605532Y486905D01*
X2606995Y487196D01*
X2608235Y488024D01*
X2609064Y489265D01*
X2609355Y490728D01*
X2609064Y492191D01*
X2608235Y493432D01*
X2606995Y494260D01*
X2605532Y494551D01*
D02*
G37*
G36*
X2445766Y498107D02*
X2444303Y497816D01*
X2443062Y496988D01*
X2442234Y495747D01*
X2441943Y494284D01*
X2442234Y492821D01*
X2443062Y491580D01*
X2444303Y490752D01*
X2445766Y490461D01*
X2446366Y490580D01*
X2447822Y489773D01*
X2448650Y488532D01*
X2449891Y487704D01*
X2451354Y487413D01*
X2452817Y487704D01*
X2454058Y488532D01*
X2454886Y489773D01*
X2455177Y491236D01*
X2454886Y492699D01*
X2454058Y493940D01*
X2452817Y494768D01*
X2451354Y495059D01*
X2450754Y494940D01*
X2449298Y495747D01*
X2448470Y496988D01*
X2447229Y497816D01*
X2445766Y498107D01*
D02*
G37*
G36*
X2409468Y493947D02*
X2408005Y493656D01*
X2406764Y492828D01*
X2406594Y492574D01*
X2405354D01*
X2404113Y493402D01*
X2402650Y493693D01*
X2401187Y493402D01*
X2399947Y492574D01*
X2399118Y491333D01*
X2398150Y491600D01*
X2398113Y491624D01*
X2396650Y491915D01*
X2395187Y491624D01*
X2393947Y490796D01*
X2393118Y489555D01*
X2392827Y488092D01*
X2393118Y486629D01*
X2393947Y485388D01*
X2395187Y484560D01*
X2396650Y484268D01*
X2398113Y484560D01*
X2399354Y485388D01*
X2400183Y486629D01*
X2401150Y486362D01*
X2401187Y486338D01*
X2402650Y486047D01*
X2404113Y486338D01*
X2405354Y487166D01*
X2405524Y487420D01*
X2406764D01*
X2408005Y486592D01*
X2409468Y486301D01*
X2410931Y486592D01*
X2411609Y487045D01*
X2412836Y487262D01*
X2414077Y486434D01*
X2415540Y486143D01*
X2417003Y486434D01*
X2418244Y487262D01*
X2419072Y488503D01*
X2419363Y489966D01*
X2419072Y491429D01*
X2418244Y492670D01*
X2417003Y493498D01*
X2415540Y493789D01*
X2414077Y493498D01*
X2413398Y493045D01*
X2412171Y492828D01*
X2410931Y493656D01*
X2409468Y493947D01*
D02*
G37*
G36*
X2429510Y504203D02*
X2428047Y503912D01*
X2426806Y503084D01*
X2425978Y501843D01*
X2425687Y500380D01*
X2425759Y500015D01*
X2424686Y499517D01*
X2424569Y499491D01*
X2423353Y500303D01*
X2421890Y500594D01*
X2420427Y500303D01*
X2419186Y499474D01*
X2418358Y498233D01*
X2418067Y496770D01*
X2418358Y495307D01*
X2419186Y494067D01*
X2420427Y493238D01*
X2421890Y492947D01*
X2423353Y493238D01*
X2424594Y494067D01*
X2425422Y495307D01*
X2425713Y496770D01*
X2425641Y497135D01*
X2426714Y497634D01*
X2426831Y497660D01*
X2428047Y496848D01*
X2429510Y496557D01*
X2430973Y496848D01*
X2432214Y497676D01*
X2433042Y498917D01*
X2433333Y500380D01*
X2433042Y501843D01*
X2432214Y503084D01*
X2430973Y503912D01*
X2429510Y504203D01*
D02*
G37*
G36*
X2540000Y526134D02*
X2538852Y525658D01*
X2538376Y524510D01*
X2538376Y501790D01*
X2538039Y501543D01*
X2537106Y501227D01*
X2536129Y501880D01*
X2534666Y502171D01*
X2533203Y501880D01*
X2531962Y501052D01*
X2531134Y499811D01*
X2530843Y498348D01*
X2531134Y496885D01*
X2531962Y495644D01*
X2533203Y494816D01*
X2534666Y494525D01*
X2536129Y494816D01*
X2537106Y495469D01*
X2538039Y495153D01*
X2538376Y494906D01*
Y492252D01*
X2538852Y491104D01*
X2547996Y481960D01*
X2549144Y481484D01*
X2569830D01*
X2570649Y480214D01*
X2570467Y479298D01*
X2570758Y477835D01*
X2571586Y476594D01*
X2572827Y475766D01*
X2574290Y475475D01*
X2575753Y475766D01*
X2576994Y476594D01*
X2577822Y477835D01*
X2578113Y479298D01*
X2577931Y480214D01*
X2578750Y481484D01*
X2586848D01*
X2587667Y480214D01*
X2587485Y479298D01*
X2587776Y477835D01*
X2588604Y476594D01*
X2589845Y475766D01*
X2591308Y475475D01*
X2592771Y475766D01*
X2594012Y476594D01*
X2594840Y477835D01*
X2595132Y479298D01*
X2594840Y480761D01*
X2594012Y482002D01*
X2592771Y482830D01*
X2592614Y482862D01*
X2592196Y484240D01*
X2599568Y491612D01*
X2600044Y492760D01*
Y524510D01*
X2599568Y525658D01*
X2598420Y526134D01*
X2585720D01*
X2584572Y525658D01*
X2584096Y524510D01*
Y517982D01*
X2582827Y517528D01*
X2581564Y519066D01*
X2578971Y521194D01*
X2576013Y522776D01*
X2572802Y523749D01*
X2569464Y524078D01*
X2566125Y523749D01*
X2562915Y522776D01*
X2559957Y521194D01*
X2557364Y519066D01*
X2555594Y516909D01*
X2554324Y517364D01*
X2554324Y524510D01*
X2553848Y525658D01*
X2552700Y526134D01*
X2540000Y526134D01*
D02*
G37*
G36*
X2363470Y511823D02*
X2362007Y511532D01*
X2360766Y510704D01*
X2359938Y509463D01*
X2359647Y508000D01*
X2359938Y506537D01*
X2360766Y505296D01*
X2361914Y504529D01*
X2362053Y503984D01*
X2362132Y503148D01*
X2362036Y503084D01*
X2361208Y501843D01*
X2360917Y500380D01*
X2361046Y499732D01*
X2359902Y498968D01*
X2359345Y499340D01*
X2357882Y499631D01*
X2356419Y499340D01*
X2355178Y498512D01*
X2354350Y497271D01*
X2354059Y495808D01*
X2354350Y494345D01*
X2355178Y493104D01*
X2356419Y492276D01*
X2357882Y491985D01*
X2359345Y492276D01*
X2360586Y493104D01*
X2361414Y494345D01*
X2361705Y495808D01*
X2361577Y496456D01*
X2362720Y497220D01*
X2363277Y496848D01*
X2364740Y496557D01*
X2366203Y496848D01*
X2367444Y497676D01*
X2368272Y498917D01*
X2368563Y500380D01*
X2368272Y501843D01*
X2367444Y503084D01*
X2366296Y503851D01*
X2366157Y504396D01*
X2366078Y505232D01*
X2366174Y505296D01*
X2367002Y506537D01*
X2367293Y508000D01*
X2367002Y509463D01*
X2366174Y510704D01*
X2364933Y511532D01*
X2363470Y511823D01*
D02*
G37*
G36*
X2338070Y502933D02*
X2336607Y502642D01*
X2335366Y501814D01*
X2334538Y500573D01*
X2334247Y499110D01*
X2334538Y497647D01*
X2335366Y496406D01*
X2336607Y495578D01*
X2338070Y495287D01*
X2339533Y495578D01*
X2340774Y496406D01*
X2341602Y497647D01*
X2341893Y499110D01*
X2341602Y500573D01*
X2340774Y501814D01*
X2339533Y502642D01*
X2338070Y502933D01*
D02*
G37*
G36*
X2374900Y505473D02*
X2373437Y505182D01*
X2372196Y504354D01*
X2371368Y503113D01*
X2371077Y501650D01*
X2371368Y500187D01*
X2372196Y498946D01*
X2373437Y498118D01*
X2374900Y497827D01*
X2376363Y498118D01*
X2377604Y498946D01*
X2378432Y500187D01*
X2378723Y501650D01*
X2378432Y503113D01*
X2377604Y504354D01*
X2376363Y505182D01*
X2374900Y505473D01*
D02*
G37*
G36*
X2334260Y588023D02*
X2332797Y587732D01*
X2331556Y586904D01*
X2330728Y585663D01*
X2330437Y584200D01*
X2330566Y583550D01*
X2329370Y583055D01*
X2329344Y583094D01*
X2328103Y583922D01*
X2326640Y584213D01*
X2325177Y583922D01*
X2323936Y583094D01*
X2323108Y581853D01*
X2322817Y580390D01*
X2323108Y578927D01*
X2323936Y577686D01*
X2325177Y576858D01*
X2325622Y576769D01*
X2326638Y575370D01*
X2326627Y575310D01*
X2326918Y573847D01*
X2327746Y572606D01*
X2328987Y571778D01*
X2330450Y571487D01*
X2331913Y571778D01*
X2333154Y572606D01*
X2333982Y573847D01*
X2334273Y575310D01*
X2333982Y576773D01*
X2333154Y578014D01*
X2331913Y578842D01*
X2331468Y578931D01*
X2330789Y579866D01*
X2330887Y580416D01*
X2332285Y581010D01*
X2332797Y580668D01*
X2334260Y580377D01*
X2335723Y580668D01*
X2336964Y581496D01*
X2337792Y582737D01*
X2338083Y584200D01*
X2337792Y585663D01*
X2336964Y586904D01*
X2335723Y587732D01*
X2334260Y588023D01*
D02*
G37*
G36*
X2550160Y692163D02*
X2548697Y691872D01*
X2547456Y691044D01*
X2546628Y689803D01*
X2546337Y688340D01*
X2546628Y686877D01*
X2547456Y685636D01*
X2548697Y684808D01*
X2550160Y684517D01*
X2551623Y684808D01*
X2552864Y685636D01*
X2553692Y686877D01*
X2553983Y688340D01*
X2553692Y689803D01*
X2552864Y691044D01*
X2551623Y691872D01*
X2550160Y692163D01*
D02*
G37*
G36*
X2580640D02*
X2579177Y691872D01*
X2577936Y691044D01*
X2577108Y689803D01*
X2576817Y688340D01*
X2577108Y686877D01*
X2577936Y685636D01*
X2579177Y684808D01*
X2580640Y684517D01*
X2582103Y684808D01*
X2583344Y685636D01*
X2584172Y686877D01*
X2584464Y688340D01*
X2584172Y689803D01*
X2583344Y691044D01*
X2582103Y691872D01*
X2580640Y692163D01*
D02*
G37*
G36*
X2541270D02*
X2539807Y691872D01*
X2538566Y691044D01*
X2537738Y689803D01*
X2537447Y688340D01*
X2537738Y686877D01*
X2538566Y685636D01*
X2539807Y684808D01*
X2541270Y684517D01*
X2542733Y684808D01*
X2543974Y685636D01*
X2544802Y686877D01*
X2545093Y688340D01*
X2544802Y689803D01*
X2543974Y691044D01*
X2542733Y691872D01*
X2541270Y692163D01*
D02*
G37*
G36*
X2373122Y683260D02*
X2371090D01*
Y681228D01*
X2373122D01*
Y683260D01*
D02*
G37*
G36*
X2642870Y690893D02*
X2641407Y690602D01*
X2640166Y689774D01*
X2639337Y688533D01*
X2639047Y687070D01*
X2639337Y685607D01*
X2640166Y684366D01*
X2641407Y683538D01*
X2642870Y683247D01*
X2644333Y683538D01*
X2645574Y684366D01*
X2646402Y685607D01*
X2646693Y687070D01*
X2646402Y688533D01*
X2645574Y689774D01*
X2644333Y690602D01*
X2642870Y690893D01*
D02*
G37*
G36*
X2368550Y687832D02*
X2366518D01*
Y685800D01*
X2368550D01*
Y687832D01*
D02*
G37*
G36*
X2518410Y701053D02*
X2516947Y700762D01*
X2515706Y699934D01*
X2514878Y698693D01*
X2514587Y697230D01*
X2514878Y695767D01*
X2515706Y694526D01*
X2516947Y693698D01*
X2518410Y693407D01*
X2519873Y693698D01*
X2521114Y694526D01*
X2521942Y695767D01*
X2522233Y697230D01*
X2521942Y698693D01*
X2521114Y699934D01*
X2519873Y700762D01*
X2518410Y701053D01*
D02*
G37*
G36*
X2552700D02*
X2551237Y700762D01*
X2549996Y699934D01*
X2549168Y698693D01*
X2548877Y697230D01*
X2549168Y695767D01*
X2549996Y694526D01*
X2551237Y693698D01*
X2552700Y693407D01*
X2554163Y693698D01*
X2555404Y694526D01*
X2556232Y695767D01*
X2556523Y697230D01*
X2556232Y698693D01*
X2555404Y699934D01*
X2554163Y700762D01*
X2552700Y701053D01*
D02*
G37*
G36*
X2613660Y692163D02*
X2612197Y691872D01*
X2610956Y691044D01*
X2610614Y690531D01*
X2609086D01*
X2608744Y691044D01*
X2607503Y691872D01*
X2606040Y692163D01*
X2604577Y691872D01*
X2603336Y691044D01*
X2602508Y689803D01*
X2602216Y688340D01*
X2602508Y686877D01*
X2603336Y685636D01*
X2604577Y684808D01*
X2606040Y684517D01*
X2607503Y684808D01*
X2608744Y685636D01*
X2609086Y686149D01*
X2610614D01*
X2610956Y685636D01*
X2612197Y684808D01*
X2613660Y684517D01*
X2615123Y684808D01*
X2616364Y685636D01*
X2617192Y686877D01*
X2617484Y688340D01*
X2617192Y689803D01*
X2616364Y691044D01*
X2615123Y691872D01*
X2613660Y692163D01*
D02*
G37*
G36*
X2373122Y687832D02*
X2371090D01*
Y685800D01*
X2373122D01*
Y687832D01*
D02*
G37*
G36*
X2284984Y688353D02*
X2283521Y688062D01*
X2282280Y687234D01*
X2281512Y686083D01*
X2280977Y685947D01*
X2280131Y685863D01*
X2280057Y685974D01*
X2278816Y686803D01*
X2277353Y687094D01*
X2275890Y686803D01*
X2274650Y685974D01*
X2273821Y684734D01*
X2273530Y683271D01*
X2273821Y681808D01*
X2274650Y680567D01*
X2275890Y679738D01*
X2277353Y679447D01*
X2278816Y679738D01*
X2280057Y680567D01*
X2280826Y681718D01*
X2281360Y681854D01*
X2282206Y681937D01*
X2282280Y681826D01*
X2283521Y680998D01*
X2284984Y680707D01*
X2286447Y680998D01*
X2287688Y681826D01*
X2288516Y683067D01*
X2288807Y684530D01*
X2288516Y685993D01*
X2287688Y687234D01*
X2286447Y688062D01*
X2284984Y688353D01*
D02*
G37*
G36*
X2368550Y683260D02*
X2366518D01*
Y681228D01*
X2368550D01*
Y683260D01*
D02*
G37*
G36*
X2313686Y690385D02*
X2312223Y690094D01*
X2310982Y689266D01*
X2310154Y688025D01*
X2309863Y686562D01*
X2310083Y685451D01*
X2309561Y684371D01*
X2309314Y684069D01*
X2308035Y683900D01*
X2305845Y682993D01*
X2303965Y681551D01*
X2302522Y679671D01*
X2301616Y677482D01*
X2301306Y675132D01*
X2301616Y672783D01*
X2302522Y670593D01*
X2303965Y668713D01*
X2305845Y667271D01*
X2308035Y666364D01*
X2310384Y666054D01*
X2312733Y666364D01*
X2314923Y667271D01*
X2316803Y668713D01*
X2318246Y670593D01*
X2319152Y672783D01*
X2319462Y675132D01*
X2319152Y677482D01*
X2318246Y679671D01*
X2316803Y681551D01*
X2316067Y682115D01*
X2316118Y683677D01*
X2316390Y683858D01*
X2317218Y685099D01*
X2317509Y686562D01*
X2317218Y688025D01*
X2316390Y689266D01*
X2315149Y690094D01*
X2313686Y690385D01*
D02*
G37*
G36*
X2484120Y674383D02*
X2482657Y674092D01*
X2481416Y673264D01*
X2480588Y672023D01*
X2480297Y670560D01*
X2480588Y669097D01*
X2481416Y667856D01*
X2482657Y667028D01*
X2484120Y666737D01*
X2485583Y667028D01*
X2486824Y667856D01*
X2487652Y669097D01*
X2487943Y670560D01*
X2487652Y672023D01*
X2486824Y673264D01*
X2485583Y674092D01*
X2484120Y674383D01*
D02*
G37*
G36*
X2533396Y665747D02*
X2531933Y665456D01*
X2530692Y664628D01*
X2530392Y664178D01*
X2528864D01*
X2528734Y664374D01*
X2527493Y665202D01*
X2526030Y665493D01*
X2524567Y665202D01*
X2523326Y664374D01*
X2522498Y663133D01*
X2522207Y661670D01*
X2522498Y660207D01*
X2523326Y658966D01*
X2524567Y658138D01*
X2526030Y657847D01*
X2527493Y658138D01*
X2528734Y658966D01*
X2529034Y659416D01*
X2530562D01*
X2530692Y659220D01*
X2531933Y658392D01*
X2533396Y658101D01*
X2534859Y658392D01*
X2536100Y659220D01*
X2536928Y660461D01*
X2537219Y661924D01*
X2536928Y663387D01*
X2536100Y664628D01*
X2534859Y665456D01*
X2533396Y665747D01*
D02*
G37*
G36*
X2627630Y670573D02*
X2626167Y670282D01*
X2624926Y669454D01*
X2624098Y668213D01*
X2623806Y666750D01*
X2624098Y665287D01*
X2624926Y664046D01*
X2626167Y663218D01*
X2627630Y662927D01*
X2629093Y663218D01*
X2630334Y664046D01*
X2631162Y665287D01*
X2631454Y666750D01*
X2631162Y668213D01*
X2630334Y669454D01*
X2629093Y670282D01*
X2627630Y670573D01*
D02*
G37*
G36*
X2409952Y670827D02*
X2408489Y670536D01*
X2407248Y669708D01*
X2406420Y668467D01*
X2406129Y667004D01*
X2406420Y665541D01*
X2407248Y664300D01*
X2408489Y663472D01*
X2409952Y663180D01*
X2411415Y663472D01*
X2412656Y664300D01*
X2413484Y665541D01*
X2413775Y667004D01*
X2413484Y668467D01*
X2412656Y669708D01*
X2411415Y670536D01*
X2409952Y670827D01*
D02*
G37*
G36*
X2283645Y674496D02*
X2282182Y674205D01*
X2280941Y673376D01*
X2280113Y672136D01*
X2279822Y670672D01*
X2280113Y669209D01*
X2280941Y667969D01*
X2282182Y667140D01*
X2283645Y666849D01*
X2285108Y667140D01*
X2286349Y667969D01*
X2287177Y669209D01*
X2287468Y670672D01*
X2287177Y672136D01*
X2286349Y673376D01*
X2285108Y674205D01*
X2283645Y674496D01*
D02*
G37*
G36*
X2295144Y686575D02*
X2293681Y686284D01*
X2292440Y685456D01*
X2291612Y684215D01*
X2291321Y682752D01*
X2291612Y681289D01*
X2292440Y680048D01*
X2293681Y679220D01*
X2295144Y678929D01*
X2296607Y679220D01*
X2297848Y680048D01*
X2298676Y681289D01*
X2298967Y682752D01*
X2298676Y684215D01*
X2297848Y685456D01*
X2296607Y686284D01*
X2295144Y686575D01*
D02*
G37*
G36*
X2262240Y687094D02*
X2260777Y686803D01*
X2259536Y685974D01*
X2258708Y684734D01*
X2258417Y683271D01*
X2258708Y681808D01*
X2259536Y680567D01*
X2260777Y679738D01*
X2262240Y679447D01*
X2263703Y679738D01*
X2264944Y680567D01*
X2265772Y681808D01*
X2266064Y683271D01*
X2265772Y684734D01*
X2264944Y685974D01*
X2263703Y686803D01*
X2262240Y687094D01*
D02*
G37*
G36*
X2406376Y725566D02*
X2401489Y725085D01*
X2396789Y723659D01*
X2392458Y721344D01*
X2388661Y718229D01*
X2385546Y714432D01*
X2383231Y710101D01*
X2381805Y705401D01*
X2381324Y700514D01*
X2381805Y695627D01*
X2383231Y690927D01*
X2385546Y686596D01*
X2388661Y682800D01*
X2392458Y679684D01*
X2396789Y677369D01*
X2401489Y675943D01*
X2406376Y675462D01*
X2411263Y675943D01*
X2415963Y677369D01*
X2420294Y679684D01*
X2424091Y682800D01*
X2427206Y686596D01*
X2429521Y690927D01*
X2430947Y695627D01*
X2431428Y700514D01*
X2430947Y705401D01*
X2429521Y710101D01*
X2427206Y714432D01*
X2424091Y718229D01*
X2420294Y721344D01*
X2415963Y723659D01*
X2411263Y725085D01*
X2406376Y725566D01*
D02*
G37*
G36*
X2376424Y680225D02*
X2374961Y679934D01*
X2373720Y679106D01*
X2372892Y677865D01*
X2372601Y676402D01*
X2372892Y674939D01*
X2373720Y673698D01*
X2374961Y672870D01*
X2376424Y672579D01*
X2377887Y672870D01*
X2379128Y673698D01*
X2379956Y674939D01*
X2380247Y676402D01*
X2379956Y677865D01*
X2379128Y679106D01*
X2377887Y679934D01*
X2376424Y680225D01*
D02*
G37*
G36*
X2501610Y675653D02*
X2500147Y675362D01*
X2498906Y674534D01*
X2498725Y674262D01*
X2497455D01*
X2497274Y674534D01*
X2496033Y675362D01*
X2494570Y675653D01*
X2493107Y675362D01*
X2491866Y674534D01*
X2491038Y673293D01*
X2490746Y671830D01*
X2491038Y670367D01*
X2491866Y669126D01*
X2493107Y668298D01*
X2494570Y668007D01*
X2496033Y668298D01*
X2497274Y669126D01*
X2497455Y669398D01*
X2498725D01*
X2498906Y669126D01*
X2500147Y668298D01*
X2501610Y668007D01*
X2503073Y668298D01*
X2504314Y669126D01*
X2504601Y669557D01*
X2505949Y669289D01*
X2505988Y669097D01*
X2506816Y667856D01*
X2508057Y667028D01*
X2509520Y666737D01*
X2510983Y667028D01*
X2512224Y667856D01*
X2513052Y669097D01*
X2513343Y670560D01*
X2513052Y672023D01*
X2512224Y673264D01*
X2510983Y674092D01*
X2509520Y674383D01*
X2508057Y674092D01*
X2506816Y673264D01*
X2506529Y672833D01*
X2505181Y673101D01*
X2505142Y673293D01*
X2504314Y674534D01*
X2503073Y675362D01*
X2501610Y675653D01*
D02*
G37*
G36*
X2451335Y767842D02*
X2430780D01*
Y747287D01*
X2433792Y747584D01*
X2437910Y748833D01*
X2441705Y750862D01*
X2445031Y753591D01*
X2447760Y756917D01*
X2449789Y760712D01*
X2451038Y764830D01*
X2451335Y767842D01*
D02*
G37*
G36*
X2271522Y760997D02*
X2270059Y760706D01*
X2268818Y759878D01*
X2267990Y758637D01*
X2267699Y757174D01*
X2267990Y755711D01*
X2268818Y754470D01*
X2270059Y753642D01*
X2271522Y753351D01*
X2272985Y753642D01*
X2274226Y754470D01*
X2275054Y755711D01*
X2275345Y757174D01*
X2275054Y758637D01*
X2274226Y759878D01*
X2272985Y760706D01*
X2271522Y760997D01*
D02*
G37*
G36*
X2668016Y767842D02*
X2647462D01*
X2647758Y764830D01*
X2649007Y760712D01*
X2651035Y756917D01*
X2653765Y753591D01*
X2657091Y750862D01*
X2660886Y748833D01*
X2665004Y747584D01*
X2668016Y747287D01*
Y767842D01*
D02*
G37*
G36*
X2304542Y754901D02*
X2303079Y754610D01*
X2301838Y753782D01*
X2301010Y752541D01*
X2300719Y751078D01*
X2301010Y749615D01*
X2301838Y748374D01*
X2303079Y747546D01*
X2304542Y747255D01*
X2306005Y747546D01*
X2307246Y748374D01*
X2308074Y749615D01*
X2308365Y751078D01*
X2308074Y752541D01*
X2307246Y753782D01*
X2306005Y754610D01*
X2304542Y754901D01*
D02*
G37*
G36*
X2428240Y767842D02*
X2407685D01*
X2407982Y764830D01*
X2409231Y760712D01*
X2411259Y756917D01*
X2413989Y753591D01*
X2417315Y750862D01*
X2421110Y748833D01*
X2425228Y747584D01*
X2428240Y747287D01*
Y767842D01*
D02*
G37*
G36*
X2334006Y761505D02*
X2332543Y761214D01*
X2331302Y760386D01*
X2330474Y759145D01*
X2330183Y757682D01*
X2330474Y756219D01*
X2331302Y754978D01*
X2332543Y754150D01*
X2334006Y753859D01*
X2335469Y754150D01*
X2336710Y754978D01*
X2337538Y756219D01*
X2337829Y757682D01*
X2337538Y759145D01*
X2336710Y760386D01*
X2335469Y761214D01*
X2334006Y761505D01*
D02*
G37*
G36*
X2245868Y782841D02*
X2244405Y782550D01*
X2243164Y781722D01*
X2242336Y780481D01*
X2242045Y779018D01*
X2242336Y777555D01*
X2243164Y776314D01*
X2244405Y775486D01*
X2245868Y775195D01*
X2247331Y775486D01*
X2248572Y776314D01*
X2249400Y777555D01*
X2249691Y779018D01*
X2249400Y780481D01*
X2248572Y781722D01*
X2247331Y782550D01*
X2245868Y782841D01*
D02*
G37*
G36*
X2601365Y784873D02*
X2599902Y784582D01*
X2598661Y783754D01*
X2597833Y782513D01*
X2597542Y781050D01*
X2597833Y779587D01*
X2598661Y778346D01*
X2599902Y777518D01*
X2601365Y777227D01*
X2602828Y777518D01*
X2604069Y778346D01*
X2604897Y779587D01*
X2605189Y781050D01*
X2604897Y782513D01*
X2604069Y783754D01*
X2602828Y784582D01*
X2601365Y784873D01*
D02*
G37*
G36*
X2344420Y767855D02*
X2342957Y767564D01*
X2341716Y766736D01*
X2340888Y765495D01*
X2340597Y764032D01*
X2340888Y762569D01*
X2341716Y761328D01*
X2342957Y760500D01*
X2344420Y760209D01*
X2345883Y760500D01*
X2347124Y761328D01*
X2347952Y762569D01*
X2348243Y764032D01*
X2347952Y765495D01*
X2347124Y766736D01*
X2345883Y767564D01*
X2344420Y767855D01*
D02*
G37*
G36*
X2364486Y762013D02*
X2363023Y761722D01*
X2361782Y760894D01*
X2360954Y759653D01*
X2360663Y758190D01*
X2360954Y756727D01*
X2361782Y755486D01*
X2363023Y754658D01*
X2364486Y754367D01*
X2365949Y754658D01*
X2367190Y755486D01*
X2368018Y756727D01*
X2368309Y758190D01*
X2368018Y759653D01*
X2367190Y760894D01*
X2365949Y761722D01*
X2364486Y762013D01*
D02*
G37*
G36*
X2356358Y765823D02*
X2354895Y765532D01*
X2353654Y764704D01*
X2352826Y763463D01*
X2352535Y762000D01*
X2352826Y760537D01*
X2353654Y759296D01*
X2354895Y758468D01*
X2356358Y758177D01*
X2357821Y758468D01*
X2359062Y759296D01*
X2359890Y760537D01*
X2360181Y762000D01*
X2359890Y763463D01*
X2359062Y764704D01*
X2357821Y765532D01*
X2356358Y765823D01*
D02*
G37*
G36*
X2263140Y754393D02*
X2261677Y754102D01*
X2260436Y753274D01*
X2259608Y752033D01*
X2259317Y750570D01*
X2259608Y749107D01*
X2260436Y747866D01*
X2261677Y747038D01*
X2263140Y746747D01*
X2264603Y747038D01*
X2265844Y747866D01*
X2266672Y749107D01*
X2266963Y750570D01*
X2266672Y752033D01*
X2265844Y753274D01*
X2264603Y754102D01*
X2263140Y754393D01*
D02*
G37*
G36*
X2455672Y709689D02*
X2454209Y709398D01*
X2452968Y708570D01*
X2452140Y707329D01*
X2451849Y705866D01*
X2452140Y704403D01*
X2452968Y703162D01*
X2454209Y702334D01*
X2455672Y702043D01*
X2457135Y702334D01*
X2458376Y703162D01*
X2459204Y704403D01*
X2459495Y705866D01*
X2459204Y707329D01*
X2458376Y708570D01*
X2457135Y709398D01*
X2455672Y709689D01*
D02*
G37*
G36*
X2569464Y744214D02*
X2566145Y743887D01*
X2562953Y742919D01*
X2560013Y741347D01*
X2557434Y739232D01*
X2555319Y736654D01*
X2553747Y733712D01*
X2552778Y730521D01*
X2552452Y727202D01*
X2552778Y723883D01*
X2553747Y720692D01*
X2555319Y717750D01*
X2557434Y715172D01*
X2560013Y713057D01*
X2562953Y711485D01*
X2566145Y710517D01*
X2569464Y710190D01*
X2572783Y710517D01*
X2575974Y711485D01*
X2578916Y713057D01*
X2581494Y715172D01*
X2583609Y717750D01*
X2585181Y720692D01*
X2586150Y723883D01*
X2586476Y727202D01*
X2586150Y730521D01*
X2585181Y733712D01*
X2583609Y736654D01*
X2581494Y739232D01*
X2578916Y741347D01*
X2575974Y742919D01*
X2572783Y743887D01*
X2569464Y744214D01*
D02*
G37*
G36*
X2341880Y702363D02*
X2340417Y702072D01*
X2339176Y701244D01*
X2337889Y701603D01*
X2337247Y702032D01*
X2335784Y702323D01*
X2334321Y702032D01*
X2333080Y701204D01*
X2332252Y699963D01*
X2331961Y698500D01*
X2332252Y697037D01*
X2333080Y695796D01*
X2334321Y694968D01*
X2335784Y694677D01*
X2337247Y694968D01*
X2338488Y695796D01*
X2339775Y695437D01*
X2340417Y695008D01*
X2341880Y694717D01*
X2343343Y695008D01*
X2344584Y695836D01*
X2345412Y697077D01*
X2345703Y698540D01*
X2345412Y700003D01*
X2344584Y701244D01*
X2343343Y702072D01*
X2341880Y702363D01*
D02*
G37*
G36*
X2588260Y701053D02*
X2586797Y700762D01*
X2585556Y699934D01*
X2584727Y698693D01*
X2584437Y697230D01*
X2584727Y695767D01*
X2585556Y694526D01*
X2586797Y693698D01*
X2588260Y693407D01*
X2589723Y693698D01*
X2590964Y694526D01*
X2591792Y695767D01*
X2592083Y697230D01*
X2591792Y698693D01*
X2590964Y699934D01*
X2589723Y700762D01*
X2588260Y701053D01*
D02*
G37*
G36*
X2313178Y715198D02*
X2310829Y714888D01*
X2308639Y713981D01*
X2306759Y712539D01*
X2305316Y710659D01*
X2304410Y708469D01*
X2304100Y706120D01*
X2304410Y703771D01*
X2305316Y701581D01*
X2306759Y699701D01*
X2308639Y698259D01*
X2310829Y697352D01*
X2313178Y697042D01*
X2315527Y697352D01*
X2317717Y698259D01*
X2319597Y699701D01*
X2321039Y701581D01*
X2321946Y703771D01*
X2322256Y706120D01*
X2321946Y708469D01*
X2321039Y710659D01*
X2319597Y712539D01*
X2317717Y713981D01*
X2315527Y714888D01*
X2313178Y715198D01*
D02*
G37*
G36*
X2609320Y725161D02*
X2607857Y724870D01*
X2606617Y724042D01*
X2605788Y722801D01*
X2605497Y721338D01*
X2605788Y719875D01*
X2606617Y718634D01*
X2607857Y717806D01*
X2609320Y717515D01*
X2610783Y717806D01*
X2612024Y718634D01*
X2612852Y719875D01*
X2613143Y721338D01*
X2612852Y722801D01*
X2612024Y724042D01*
X2610783Y724870D01*
X2609320Y725161D01*
D02*
G37*
G36*
X2271776Y737883D02*
X2270313Y737592D01*
X2269072Y736764D01*
X2268244Y735523D01*
X2267953Y734060D01*
X2268244Y732597D01*
X2269072Y731356D01*
X2270313Y730528D01*
X2271776Y730237D01*
X2273239Y730528D01*
X2274480Y731356D01*
X2275308Y732597D01*
X2275599Y734060D01*
X2275308Y735523D01*
X2274480Y736764D01*
X2273239Y737592D01*
X2271776Y737883D01*
D02*
G37*
G36*
X2271522Y749567D02*
X2270059Y749276D01*
X2268818Y748448D01*
X2267990Y747207D01*
X2267699Y745744D01*
X2267990Y744281D01*
X2268818Y743040D01*
X2270059Y742212D01*
X2271522Y741921D01*
X2272985Y742212D01*
X2274226Y743040D01*
X2275054Y744281D01*
X2275345Y745744D01*
X2275054Y747207D01*
X2274226Y748448D01*
X2272985Y749276D01*
X2271522Y749567D01*
D02*
G37*
G36*
X2434082Y735089D02*
X2432619Y734798D01*
X2431378Y733970D01*
X2430550Y732729D01*
X2430259Y731266D01*
X2430550Y729803D01*
X2431378Y728562D01*
X2432619Y727734D01*
X2434082Y727443D01*
X2435545Y727734D01*
X2436786Y728562D01*
X2437614Y729803D01*
X2437905Y731266D01*
X2437614Y732729D01*
X2436786Y733970D01*
X2435545Y734798D01*
X2434082Y735089D01*
D02*
G37*
G36*
X2353056Y726453D02*
X2351593Y726162D01*
X2350352Y725334D01*
X2349524Y724093D01*
X2349233Y722630D01*
X2349524Y721167D01*
X2350352Y719926D01*
X2351593Y719098D01*
X2353056Y718807D01*
X2354519Y719098D01*
X2355760Y719926D01*
X2356588Y721167D01*
X2356879Y722630D01*
X2356588Y724093D01*
X2355760Y725334D01*
X2354519Y726162D01*
X2353056Y726453D01*
D02*
G37*
G36*
X2667000Y730263D02*
X2665537Y729972D01*
X2664296Y729144D01*
X2663468Y727903D01*
X2663177Y726440D01*
X2663468Y724977D01*
X2664296Y723736D01*
X2665537Y722908D01*
X2667000Y722617D01*
X2668463Y722908D01*
X2669704Y723736D01*
X2670533Y724977D01*
X2670823Y726440D01*
X2670533Y727903D01*
X2669704Y729144D01*
X2668463Y729972D01*
X2667000Y730263D01*
D02*
G37*
G36*
X2428506Y617233D02*
X2427042Y616942D01*
X2425802Y616114D01*
X2424973Y614873D01*
X2424682Y613410D01*
X2424973Y611947D01*
X2425802Y610706D01*
X2427042Y609878D01*
X2428506Y609587D01*
X2429969Y609878D01*
X2431209Y610706D01*
X2432038Y611947D01*
X2432329Y613410D01*
X2432038Y614873D01*
X2431209Y616114D01*
X2429969Y616942D01*
X2428506Y617233D01*
D02*
G37*
G36*
X2494280D02*
X2492817Y616942D01*
X2491576Y616114D01*
X2490748Y614873D01*
X2490457Y613410D01*
X2490748Y611947D01*
X2491576Y610706D01*
X2492817Y609878D01*
X2494280Y609587D01*
X2495743Y609878D01*
X2496984Y610706D01*
X2497812Y611947D01*
X2498103Y613410D01*
X2497812Y614873D01*
X2496984Y616114D01*
X2495743Y616942D01*
X2494280Y617233D01*
D02*
G37*
G36*
X2537460Y613423D02*
X2535997Y613132D01*
X2534756Y612304D01*
X2533928Y611063D01*
X2533637Y609600D01*
X2533928Y608137D01*
X2534756Y606896D01*
X2535997Y606068D01*
X2537460Y605777D01*
X2538923Y606068D01*
X2540164Y606896D01*
X2540992Y608137D01*
X2541283Y609600D01*
X2540992Y611063D01*
X2540164Y612304D01*
X2538923Y613132D01*
X2537460Y613423D01*
D02*
G37*
G36*
X2670764Y608343D02*
X2669301Y608052D01*
X2668060Y607224D01*
X2667232Y605983D01*
X2666941Y604520D01*
X2667232Y603057D01*
X2668060Y601816D01*
X2669301Y600988D01*
X2670764Y600697D01*
X2672227Y600988D01*
X2673468Y601816D01*
X2674296Y603057D01*
X2674587Y604520D01*
X2674296Y605983D01*
X2673468Y607224D01*
X2672227Y608052D01*
X2670764Y608343D01*
D02*
G37*
G36*
X2390902Y613423D02*
X2389439Y613132D01*
X2388198Y612304D01*
X2387370Y611063D01*
X2387079Y609600D01*
X2387370Y608137D01*
X2388198Y606896D01*
X2389439Y606068D01*
X2390902Y605777D01*
X2392365Y606068D01*
X2393606Y606896D01*
X2394434Y608137D01*
X2394725Y609600D01*
X2394434Y611063D01*
X2393606Y612304D01*
X2392365Y613132D01*
X2390902Y613423D01*
D02*
G37*
G36*
X2641600Y617233D02*
X2640137Y616942D01*
X2638896Y616114D01*
X2638068Y614873D01*
X2637776Y613410D01*
X2638068Y611947D01*
X2638896Y610706D01*
X2640137Y609878D01*
X2641600Y609587D01*
X2643063Y609878D01*
X2644304Y610706D01*
X2645132Y611947D01*
X2645423Y613410D01*
X2645132Y614873D01*
X2644304Y616114D01*
X2643063Y616942D01*
X2641600Y617233D01*
D02*
G37*
G36*
X2291588Y622059D02*
X2290125Y621768D01*
X2288884Y620940D01*
X2288056Y619699D01*
X2287765Y618236D01*
X2288056Y616773D01*
X2288884Y615532D01*
X2290125Y614704D01*
X2291588Y614413D01*
X2293051Y614704D01*
X2294292Y615532D01*
X2295120Y616773D01*
X2295411Y618236D01*
X2295120Y619699D01*
X2294292Y620940D01*
X2293051Y621768D01*
X2291588Y622059D01*
D02*
G37*
G36*
X2373122Y623583D02*
X2371659Y623292D01*
X2370418Y622464D01*
X2369590Y621223D01*
X2369299Y619760D01*
X2369590Y618297D01*
X2370418Y617056D01*
X2371659Y616228D01*
X2373122Y615937D01*
X2374585Y616228D01*
X2375826Y617056D01*
X2376654Y618297D01*
X2376945Y619760D01*
X2376654Y621223D01*
X2375826Y622464D01*
X2374585Y623292D01*
X2373122Y623583D01*
D02*
G37*
G36*
X2325116Y613931D02*
X2323653Y613640D01*
X2322412Y612812D01*
X2321967Y612145D01*
X2320544Y611631D01*
X2320303Y611644D01*
X2319020Y611899D01*
X2317557Y611608D01*
X2316316Y610780D01*
X2315488Y609539D01*
X2315197Y608076D01*
X2315488Y606613D01*
X2316316Y605372D01*
X2316819Y605037D01*
X2316900Y604523D01*
X2316763Y603547D01*
X2315141Y602303D01*
X2313698Y600423D01*
X2312792Y598233D01*
X2312482Y595884D01*
X2312792Y593535D01*
X2313698Y591345D01*
X2315141Y589465D01*
X2317021Y588022D01*
X2319211Y587116D01*
X2321560Y586806D01*
X2323909Y587116D01*
X2326099Y588022D01*
X2327979Y589465D01*
X2329422Y591345D01*
X2330328Y593535D01*
X2330638Y595884D01*
X2330328Y598233D01*
X2329422Y600423D01*
X2327979Y602303D01*
X2326099Y603745D01*
X2323909Y604652D01*
X2323771Y604670D01*
X2323009Y606044D01*
X2323158Y606397D01*
X2323592Y606553D01*
X2323833Y606540D01*
X2325116Y606285D01*
X2326579Y606576D01*
X2327820Y607404D01*
X2328648Y608645D01*
X2328939Y610108D01*
X2328648Y611571D01*
X2327820Y612812D01*
X2326579Y613640D01*
X2325116Y613931D01*
D02*
G37*
G36*
X2266696Y618503D02*
X2265233Y618212D01*
X2263992Y617384D01*
X2263164Y616143D01*
X2262873Y614680D01*
X2263164Y613217D01*
X2263992Y611976D01*
X2265233Y611148D01*
X2266696Y610857D01*
X2268159Y611148D01*
X2269400Y611976D01*
X2270228Y613217D01*
X2270519Y614680D01*
X2270228Y616143D01*
X2269400Y617384D01*
X2268159Y618212D01*
X2266696Y618503D01*
D02*
G37*
G36*
X2361438Y636748D02*
X2359975Y636457D01*
X2358734Y635629D01*
X2357906Y634388D01*
X2357615Y632925D01*
X2357906Y631462D01*
X2358734Y630221D01*
X2359975Y629393D01*
X2361438Y629102D01*
X2362901Y629393D01*
X2363532Y629814D01*
X2363865Y630037D01*
X2364781Y629121D01*
X2364576Y628815D01*
X2364256Y628335D01*
X2363965Y626872D01*
X2364215Y625612D01*
X2362769Y625324D01*
X2361528Y624496D01*
X2360700Y623255D01*
X2360409Y621792D01*
X2360700Y620329D01*
X2361528Y619088D01*
X2361661Y619000D01*
Y617472D01*
X2361528Y617384D01*
X2360700Y616143D01*
X2360409Y614680D01*
X2360700Y613217D01*
X2361528Y611976D01*
X2362769Y611148D01*
X2364232Y610857D01*
X2365695Y611148D01*
X2366936Y611976D01*
X2367764Y613217D01*
X2368055Y614680D01*
X2367764Y616143D01*
X2366936Y617384D01*
X2366803Y617472D01*
Y619000D01*
X2366936Y619088D01*
X2367764Y620329D01*
X2368055Y621792D01*
X2367805Y623052D01*
X2369251Y623340D01*
X2370492Y624168D01*
X2371320Y625409D01*
X2371611Y626872D01*
X2371320Y628335D01*
X2370492Y629576D01*
X2369251Y630404D01*
X2367788Y630695D01*
X2366325Y630404D01*
X2365694Y629983D01*
X2365361Y629760D01*
X2364445Y630676D01*
X2364650Y630982D01*
X2364970Y631462D01*
X2365261Y632925D01*
X2364970Y634388D01*
X2364142Y635629D01*
X2362901Y636457D01*
X2361438Y636748D01*
D02*
G37*
G36*
X2278888Y606819D02*
X2277425Y606528D01*
X2276184Y605700D01*
X2275356Y604459D01*
X2275065Y602996D01*
X2275356Y601533D01*
X2275524Y601280D01*
X2274609Y600365D01*
X2273747Y600940D01*
X2272284Y601231D01*
X2270821Y600940D01*
X2269580Y600112D01*
X2268752Y598871D01*
X2268461Y597408D01*
X2268752Y595945D01*
X2269580Y594704D01*
X2270821Y593876D01*
X2272284Y593585D01*
X2273747Y593876D01*
X2274988Y594704D01*
X2275816Y595945D01*
X2276107Y597408D01*
X2275816Y598871D01*
X2275648Y599124D01*
X2276563Y600039D01*
X2277425Y599464D01*
X2278888Y599173D01*
X2280351Y599464D01*
X2281592Y600292D01*
X2282420Y601533D01*
X2282711Y602996D01*
X2282420Y604459D01*
X2281592Y605700D01*
X2280351Y606528D01*
X2278888Y606819D01*
D02*
G37*
G36*
X2660142Y593611D02*
X2658679Y593320D01*
X2657438Y592492D01*
X2656609Y591251D01*
X2656319Y589788D01*
X2656609Y588325D01*
X2657438Y587084D01*
X2658679Y586256D01*
X2660142Y585965D01*
X2661605Y586256D01*
X2662845Y587084D01*
X2663674Y588325D01*
X2663965Y589788D01*
X2663674Y591251D01*
X2662845Y592492D01*
X2661605Y593320D01*
X2660142Y593611D01*
D02*
G37*
G36*
X2334006Y624345D02*
X2332543Y624054D01*
X2331302Y623226D01*
X2330474Y621985D01*
X2330183Y620522D01*
X2330474Y619059D01*
X2331302Y617818D01*
Y617469D01*
X2330794Y617130D01*
X2329966Y615889D01*
X2329675Y614426D01*
X2329966Y612963D01*
X2330794Y611722D01*
X2332035Y610894D01*
X2333163Y610669D01*
X2333669Y609788D01*
X2333759Y609360D01*
X2332749Y608043D01*
X2331842Y605854D01*
X2331532Y603504D01*
X2331842Y601155D01*
X2332749Y598965D01*
X2334191Y597085D01*
X2335755Y595886D01*
X2336066Y595336D01*
X2336048Y594277D01*
X2335554Y593537D01*
X2335263Y592074D01*
X2335554Y590611D01*
X2336382Y589370D01*
X2337623Y588542D01*
X2339086Y588251D01*
X2340549Y588542D01*
X2341790Y589370D01*
X2342618Y590611D01*
X2342909Y592074D01*
X2342643Y593413D01*
X2342665Y593688D01*
X2343261Y594861D01*
X2345149Y595643D01*
X2347029Y597085D01*
X2348472Y598965D01*
X2349378Y601155D01*
X2349688Y603504D01*
X2349378Y605854D01*
X2348472Y608043D01*
X2347029Y609923D01*
X2345149Y611366D01*
X2342959Y612272D01*
X2340610Y612582D01*
X2338260Y612272D01*
X2338034Y612178D01*
X2337498Y612598D01*
X2337068Y613153D01*
X2337321Y614426D01*
X2337030Y615889D01*
X2336202Y617130D01*
Y617479D01*
X2336710Y617818D01*
X2337538Y619059D01*
X2337829Y620522D01*
X2337538Y621985D01*
X2336710Y623226D01*
X2335469Y624054D01*
X2334006Y624345D01*
D02*
G37*
G36*
X2645410Y593103D02*
X2643947Y592812D01*
X2642706Y591984D01*
X2641878Y590743D01*
X2641587Y589280D01*
X2641878Y587817D01*
X2642706Y586576D01*
X2643947Y585748D01*
X2645410Y585457D01*
X2646873Y585748D01*
X2648114Y586576D01*
X2648942Y587817D01*
X2649233Y589280D01*
X2648942Y590743D01*
X2648114Y591984D01*
X2646873Y592812D01*
X2645410Y593103D01*
D02*
G37*
G36*
X2592070Y591833D02*
X2590607Y591542D01*
X2589366Y590714D01*
X2588538Y589473D01*
X2588246Y588010D01*
X2588538Y586547D01*
X2589366Y585306D01*
X2590607Y584478D01*
X2592070Y584187D01*
X2593533Y584478D01*
X2594774Y585306D01*
X2595602Y586547D01*
X2595893Y588010D01*
X2595602Y589473D01*
X2594774Y590714D01*
X2593533Y591542D01*
X2592070Y591833D01*
D02*
G37*
G36*
X2595880Y600723D02*
X2594417Y600432D01*
X2593176Y599604D01*
X2592348Y598363D01*
X2592057Y596900D01*
X2592348Y595437D01*
X2593176Y594196D01*
X2594417Y593368D01*
X2595880Y593077D01*
X2595940Y593088D01*
X2597339Y592072D01*
X2597428Y591627D01*
X2598257Y590386D01*
X2599497Y589558D01*
X2600960Y589267D01*
X2602423Y589558D01*
X2602511Y589616D01*
X2603654Y588853D01*
X2603487Y588010D01*
X2603777Y586547D01*
X2604606Y585306D01*
X2605847Y584478D01*
X2607310Y584187D01*
X2608773Y584478D01*
X2610014Y585306D01*
X2610239Y585644D01*
X2610906Y586511D01*
X2611867Y585968D01*
X2612197Y585748D01*
X2613660Y585457D01*
X2615123Y585748D01*
X2616364Y586576D01*
X2617192Y587817D01*
X2617484Y589280D01*
X2617192Y590743D01*
X2616364Y591984D01*
X2615123Y592812D01*
X2613660Y593103D01*
X2612197Y592812D01*
X2610956Y591984D01*
X2610731Y591646D01*
X2610064Y590779D01*
X2609103Y591322D01*
X2608773Y591542D01*
X2607310Y591833D01*
X2605847Y591542D01*
X2605759Y591484D01*
X2604616Y592247D01*
X2604783Y593090D01*
X2604492Y594553D01*
X2603664Y595794D01*
X2602423Y596622D01*
X2600960Y596913D01*
X2600900Y596902D01*
X2599501Y597918D01*
X2599413Y598363D01*
X2598584Y599604D01*
X2597343Y600432D01*
X2595880Y600723D01*
D02*
G37*
G36*
X2373376Y612407D02*
X2371913Y612116D01*
X2370672Y611288D01*
X2369844Y610047D01*
X2369553Y608584D01*
X2369724Y607721D01*
X2369027Y606467D01*
X2368848Y606324D01*
X2367724Y606176D01*
X2365535Y605270D01*
X2363655Y603827D01*
X2362213Y601947D01*
X2361306Y599757D01*
X2360996Y597408D01*
X2361306Y595059D01*
X2362213Y592869D01*
X2363655Y590989D01*
X2365535Y589547D01*
X2367724Y588640D01*
X2370074Y588330D01*
X2372424Y588640D01*
X2374613Y589547D01*
X2376493Y590989D01*
X2377935Y592869D01*
X2378842Y595059D01*
X2379152Y597408D01*
X2378842Y599757D01*
X2377935Y601947D01*
X2376493Y603827D01*
X2375735Y604408D01*
X2375776Y605678D01*
X2376080Y605880D01*
X2376908Y607121D01*
X2377199Y608584D01*
X2376908Y610047D01*
X2376080Y611288D01*
X2374839Y612116D01*
X2373376Y612407D01*
D02*
G37*
G36*
X2597150Y618503D02*
X2595687Y618212D01*
X2594446Y617384D01*
X2593618Y616143D01*
X2593327Y614680D01*
X2593618Y613217D01*
X2594446Y611976D01*
X2595687Y611148D01*
X2597150Y610857D01*
X2597865Y610999D01*
X2598629Y609856D01*
X2598123Y609098D01*
X2597832Y607635D01*
X2598123Y606172D01*
X2598951Y604931D01*
X2600192Y604103D01*
X2601395Y603863D01*
X2601691Y603751D01*
X2602351Y602655D01*
X2602216Y601980D01*
X2602508Y600517D01*
X2603336Y599276D01*
X2604577Y598448D01*
X2606040Y598157D01*
X2607503Y598448D01*
X2608744Y599276D01*
X2609572Y600517D01*
X2609863Y601980D01*
X2609572Y603443D01*
X2608744Y604684D01*
X2607503Y605512D01*
X2606300Y605752D01*
X2606004Y605864D01*
X2605344Y606960D01*
X2605479Y607635D01*
X2605187Y609098D01*
X2604359Y610339D01*
X2603118Y611167D01*
X2601655Y611458D01*
X2600940Y611316D01*
X2600176Y612459D01*
X2600682Y613217D01*
X2600974Y614680D01*
X2600682Y616143D01*
X2599854Y617384D01*
X2598613Y618212D01*
X2597150Y618503D01*
D02*
G37*
G36*
X2449322Y599961D02*
X2447859Y599670D01*
X2446618Y598842D01*
X2445676D01*
X2444435Y599670D01*
X2442972Y599961D01*
X2441509Y599670D01*
X2440268Y598842D01*
X2439440Y597601D01*
X2439149Y596138D01*
X2439440Y594675D01*
X2440268Y593434D01*
X2441509Y592606D01*
X2442972Y592315D01*
X2444435Y592606D01*
X2445676Y593434D01*
X2446618D01*
X2447859Y592606D01*
X2449322Y592315D01*
X2450785Y592606D01*
X2452026Y593434D01*
X2452090Y593530D01*
X2452926Y593451D01*
X2453471Y593312D01*
X2454238Y592164D01*
X2455479Y591336D01*
X2456942Y591045D01*
X2458405Y591336D01*
X2459646Y592164D01*
X2460474Y593405D01*
X2460765Y594868D01*
X2460474Y596331D01*
X2459646Y597572D01*
X2458405Y598400D01*
X2456942Y598691D01*
X2455479Y598400D01*
X2454238Y597572D01*
X2454174Y597476D01*
X2453338Y597555D01*
X2452793Y597694D01*
X2452026Y598842D01*
X2450785Y599670D01*
X2449322Y599961D01*
D02*
G37*
G36*
X2397760Y599707D02*
X2396297Y599416D01*
X2395056Y598588D01*
X2394228Y597347D01*
X2393937Y595884D01*
X2394228Y594421D01*
X2395056Y593180D01*
X2396297Y592352D01*
X2397760Y592061D01*
X2399223Y592352D01*
X2400464Y593180D01*
X2401292Y594421D01*
X2401583Y595884D01*
X2401292Y597347D01*
X2400464Y598588D01*
X2399223Y599416D01*
X2397760Y599707D01*
D02*
G37*
G36*
X2307336Y597929D02*
X2305873Y597638D01*
X2304632Y596810D01*
X2303804Y595569D01*
X2303513Y594106D01*
X2303804Y592643D01*
X2304632Y591402D01*
X2305873Y590574D01*
X2307336Y590283D01*
X2308799Y590574D01*
X2310040Y591402D01*
X2310868Y592643D01*
X2311159Y594106D01*
X2310868Y595569D01*
X2310040Y596810D01*
X2308799Y597638D01*
X2307336Y597929D01*
D02*
G37*
G36*
X2670810Y598183D02*
X2669347Y597892D01*
X2668106Y597064D01*
X2667278Y595823D01*
X2666987Y594360D01*
X2667278Y592897D01*
X2668106Y591656D01*
X2669347Y590828D01*
X2670810Y590537D01*
X2672273Y590828D01*
X2673513Y591656D01*
X2674342Y592897D01*
X2674633Y594360D01*
X2674342Y595823D01*
X2673513Y597064D01*
X2672273Y597892D01*
X2670810Y598183D01*
D02*
G37*
G36*
X2350770Y657873D02*
X2349307Y657582D01*
X2348066Y656754D01*
X2347238Y655513D01*
X2346947Y654050D01*
X2347238Y652587D01*
X2348066Y651346D01*
X2349307Y650518D01*
X2350770Y650227D01*
X2352233Y650518D01*
X2353474Y651346D01*
X2354302Y652587D01*
X2354593Y654050D01*
X2354302Y655513D01*
X2353474Y656754D01*
X2352233Y657582D01*
X2350770Y657873D01*
D02*
G37*
G36*
X2670810D02*
X2669347Y657582D01*
X2668106Y656754D01*
X2667278Y655513D01*
X2666987Y654050D01*
X2667278Y652587D01*
X2668106Y651346D01*
X2669347Y650518D01*
X2670810Y650227D01*
X2672273Y650518D01*
X2673513Y651346D01*
X2674342Y652587D01*
X2674633Y654050D01*
X2674342Y655513D01*
X2673513Y656754D01*
X2672273Y657582D01*
X2670810Y657873D01*
D02*
G37*
G36*
X2493010Y656603D02*
X2491547Y656312D01*
X2490306Y655484D01*
X2489478Y654243D01*
X2489187Y652780D01*
X2489478Y651317D01*
X2490306Y650076D01*
X2490345Y650051D01*
X2489850Y648854D01*
X2489200Y648983D01*
X2487737Y648692D01*
X2486496Y647864D01*
X2485668Y646623D01*
X2485377Y645160D01*
X2485668Y643697D01*
X2486496Y642456D01*
X2487737Y641628D01*
X2489200Y641337D01*
X2490663Y641628D01*
X2491904Y642456D01*
X2492732Y643697D01*
X2493023Y645160D01*
X2492732Y646623D01*
X2491904Y647864D01*
X2491865Y647889D01*
X2492360Y649086D01*
X2493010Y648957D01*
X2494473Y649248D01*
X2495714Y650076D01*
X2496542Y651317D01*
X2496833Y652780D01*
X2496542Y654243D01*
X2495714Y655484D01*
X2494473Y656312D01*
X2493010Y656603D01*
D02*
G37*
G36*
X2641600Y648983D02*
X2640137Y648692D01*
X2638896Y647864D01*
X2638068Y646623D01*
X2637776Y645160D01*
X2638068Y643697D01*
X2638896Y642456D01*
X2640137Y641628D01*
X2641600Y641337D01*
X2643063Y641628D01*
X2644304Y642456D01*
X2645132Y643697D01*
X2645423Y645160D01*
X2645132Y646623D01*
X2644304Y647864D01*
X2643063Y648692D01*
X2641600Y648983D01*
D02*
G37*
G36*
X2391156Y651777D02*
X2389693Y651486D01*
X2388452Y650658D01*
X2387624Y649417D01*
X2387333Y647954D01*
X2387624Y646491D01*
X2388452Y645250D01*
X2389693Y644422D01*
X2391156Y644131D01*
X2392619Y644422D01*
X2393860Y645250D01*
X2394688Y646491D01*
X2394979Y647954D01*
X2394688Y649417D01*
X2393860Y650658D01*
X2392619Y651486D01*
X2391156Y651777D01*
D02*
G37*
G36*
X2315210Y659143D02*
X2313747Y658852D01*
X2312506Y658024D01*
X2311678Y656783D01*
X2311387Y655320D01*
X2311530Y654601D01*
X2310447Y653674D01*
X2308098Y653984D01*
X2305748Y653674D01*
X2303559Y652767D01*
X2301679Y651325D01*
X2300237Y649445D01*
X2299330Y647255D01*
X2299020Y644906D01*
X2299330Y642557D01*
X2300237Y640367D01*
X2301679Y638487D01*
X2303559Y637044D01*
X2305748Y636138D01*
X2308098Y635828D01*
X2310448Y636138D01*
X2312637Y637044D01*
X2314517Y638487D01*
X2315959Y640367D01*
X2316866Y642557D01*
X2317176Y644906D01*
X2316866Y647255D01*
X2315959Y649445D01*
X2315320Y650278D01*
X2315883Y651630D01*
X2316673Y651788D01*
X2317914Y652616D01*
X2318742Y653857D01*
X2319033Y655320D01*
X2318742Y656783D01*
X2317914Y658024D01*
X2316673Y658852D01*
X2315210Y659143D01*
D02*
G37*
G36*
X2597464Y665807D02*
X2596001Y665516D01*
X2594760Y664688D01*
X2593932Y663447D01*
X2593641Y661984D01*
X2593932Y660521D01*
X2594760Y659280D01*
X2596001Y658452D01*
X2597464Y658161D01*
X2598927Y658452D01*
X2600168Y659280D01*
X2600996Y660521D01*
X2601288Y661984D01*
X2600996Y663447D01*
X2600168Y664688D01*
X2598927Y665516D01*
X2597464Y665807D01*
D02*
G37*
G36*
X2349246Y678368D02*
X2346897Y678058D01*
X2344707Y677151D01*
X2342827Y675709D01*
X2341384Y673829D01*
X2340478Y671639D01*
X2340168Y669290D01*
X2340478Y666941D01*
X2341384Y664751D01*
X2342827Y662871D01*
X2344707Y661429D01*
X2346897Y660522D01*
X2349246Y660212D01*
X2351595Y660522D01*
X2353785Y661429D01*
X2355665Y662871D01*
X2357108Y664751D01*
X2358014Y666941D01*
X2358324Y669290D01*
X2358014Y671639D01*
X2357108Y673829D01*
X2355665Y675709D01*
X2353785Y677151D01*
X2351595Y678058D01*
X2349246Y678368D01*
D02*
G37*
G36*
X2484120Y664223D02*
X2482657Y663932D01*
X2481416Y663104D01*
X2480588Y661863D01*
X2480297Y660400D01*
X2480588Y658937D01*
X2481416Y657696D01*
X2482657Y656868D01*
X2484120Y656577D01*
X2485583Y656868D01*
X2486824Y657696D01*
X2487652Y658937D01*
X2487943Y660400D01*
X2487652Y661863D01*
X2486824Y663104D01*
X2485583Y663932D01*
X2484120Y664223D01*
D02*
G37*
G36*
X2262886Y662699D02*
X2261423Y662408D01*
X2260182Y661580D01*
X2259354Y660339D01*
X2259063Y658876D01*
X2259354Y657413D01*
X2260182Y656172D01*
X2261423Y655344D01*
X2262886Y655053D01*
X2264349Y655344D01*
X2265590Y656172D01*
X2266418Y657413D01*
X2266709Y658876D01*
X2266418Y660339D01*
X2265590Y661580D01*
X2264349Y662408D01*
X2262886Y662699D01*
D02*
G37*
G36*
X2379726Y663207D02*
X2378263Y662916D01*
X2377022Y662088D01*
X2376194Y660847D01*
X2375903Y659384D01*
X2376194Y657921D01*
X2377022Y656680D01*
X2378263Y655852D01*
X2379726Y655561D01*
X2381189Y655852D01*
X2382430Y656680D01*
X2383258Y657921D01*
X2383549Y659384D01*
X2383258Y660847D01*
X2382430Y662088D01*
X2381189Y662916D01*
X2379726Y663207D01*
D02*
G37*
G36*
X2292350Y647967D02*
X2290887Y647676D01*
X2289646Y646848D01*
X2288818Y645607D01*
X2288527Y644144D01*
X2288818Y642681D01*
X2289646Y641440D01*
X2290887Y640612D01*
X2292350Y640321D01*
X2293813Y640612D01*
X2295054Y641440D01*
X2295882Y642681D01*
X2296173Y644144D01*
X2295882Y645607D01*
X2295054Y646848D01*
X2293813Y647676D01*
X2292350Y647967D01*
D02*
G37*
G36*
X2291842Y634505D02*
X2290379Y634214D01*
X2289138Y633386D01*
X2288310Y632145D01*
X2288019Y630682D01*
X2288310Y629219D01*
X2289138Y627978D01*
X2290379Y627150D01*
X2291842Y626859D01*
X2293305Y627150D01*
X2294546Y627978D01*
X2295374Y629219D01*
X2295665Y630682D01*
X2295374Y632145D01*
X2294546Y633386D01*
X2293305Y634214D01*
X2291842Y634505D01*
D02*
G37*
G36*
X2669540Y635013D02*
X2668077Y634722D01*
X2666837Y633894D01*
X2666008Y632653D01*
X2665717Y631190D01*
X2666008Y629727D01*
X2666837Y628486D01*
X2668077Y627658D01*
X2669540Y627367D01*
X2671003Y627658D01*
X2672244Y628486D01*
X2673073Y629727D01*
X2673363Y631190D01*
X2673073Y632653D01*
X2672244Y633894D01*
X2671003Y634722D01*
X2669540Y635013D01*
D02*
G37*
G36*
X2270760Y639077D02*
X2269297Y638786D01*
X2268056Y637958D01*
X2267228Y636717D01*
X2266937Y635254D01*
X2267228Y633791D01*
X2267357Y633597D01*
X2266773Y632186D01*
X2266757Y632182D01*
X2265516Y631354D01*
X2264688Y630113D01*
X2264397Y628650D01*
X2264688Y627187D01*
X2265516Y625946D01*
X2266757Y625118D01*
X2268220Y624827D01*
X2269683Y625118D01*
X2270924Y625946D01*
X2271752Y627187D01*
X2272043Y628650D01*
X2271752Y630113D01*
X2271623Y630307D01*
X2272207Y631718D01*
X2272223Y631722D01*
X2273464Y632550D01*
X2274292Y633791D01*
X2274583Y635254D01*
X2274292Y636717D01*
X2273464Y637958D01*
X2272223Y638786D01*
X2270760Y639077D01*
D02*
G37*
G36*
X2613660Y624853D02*
X2612197Y624562D01*
X2610956Y623734D01*
X2610128Y622493D01*
X2609837Y621030D01*
X2610128Y619567D01*
X2610956Y618326D01*
X2612197Y617498D01*
X2613660Y617207D01*
X2615123Y617498D01*
X2616364Y618326D01*
X2617192Y619567D01*
X2617484Y621030D01*
X2617192Y622493D01*
X2616364Y623734D01*
X2615123Y624562D01*
X2613660Y624853D01*
D02*
G37*
G36*
X2411476Y630441D02*
X2410013Y630150D01*
X2408772Y629322D01*
X2407944Y628081D01*
X2407653Y626618D01*
X2407944Y625155D01*
X2408772Y623914D01*
X2410013Y623086D01*
X2411476Y622795D01*
X2412939Y623086D01*
X2414180Y623914D01*
X2415008Y625155D01*
X2415299Y626618D01*
X2415008Y628081D01*
X2414180Y629322D01*
X2412939Y630150D01*
X2411476Y630441D01*
D02*
G37*
G36*
X2346198Y636283D02*
X2344735Y635992D01*
X2343494Y635164D01*
X2342666Y633923D01*
X2342375Y632460D01*
X2342666Y630997D01*
X2343494Y629756D01*
X2344735Y628928D01*
X2346198Y628637D01*
X2347661Y628928D01*
X2348902Y629756D01*
X2349730Y630997D01*
X2350021Y632460D01*
X2349730Y633923D01*
X2348902Y635164D01*
X2347661Y635992D01*
X2346198Y636283D01*
D02*
G37*
G36*
X2655570Y641363D02*
X2654107Y641072D01*
X2652867Y640244D01*
X2652038Y639003D01*
X2651747Y637540D01*
X2652038Y636077D01*
X2652867Y634836D01*
X2654107Y634008D01*
X2655570Y633717D01*
X2657033Y634008D01*
X2658274Y634836D01*
X2659102Y636077D01*
X2659393Y637540D01*
X2659102Y639003D01*
X2658274Y640244D01*
X2657033Y641072D01*
X2655570Y641363D01*
D02*
G37*
G36*
X2670810Y645173D02*
X2669347Y644882D01*
X2668106Y644054D01*
X2667278Y642813D01*
X2666987Y641350D01*
X2667278Y639887D01*
X2668106Y638646D01*
X2669347Y637818D01*
X2670810Y637527D01*
X2672273Y637818D01*
X2673513Y638646D01*
X2674342Y639887D01*
X2674633Y641350D01*
X2674342Y642813D01*
X2673513Y644054D01*
X2672273Y644882D01*
X2670810Y645173D01*
D02*
G37*
G36*
X2537460Y640093D02*
X2535997Y639802D01*
X2534756Y638974D01*
X2533928Y637733D01*
X2533637Y636270D01*
X2533928Y634807D01*
X2534756Y633566D01*
X2535997Y632738D01*
X2537460Y632447D01*
X2538923Y632738D01*
X2540164Y633566D01*
X2540992Y634807D01*
X2541283Y636270D01*
X2540992Y637733D01*
X2540164Y638974D01*
X2538923Y639802D01*
X2537460Y640093D01*
D02*
G37*
G36*
X2489200Y636283D02*
X2487737Y635992D01*
X2486496Y635164D01*
X2485668Y633923D01*
X2485377Y632460D01*
X2485668Y630997D01*
X2486496Y629756D01*
X2487737Y628928D01*
X2489200Y628637D01*
X2490663Y628928D01*
X2491904Y629756D01*
X2492732Y630997D01*
X2493023Y632460D01*
X2492732Y633923D01*
X2491904Y635164D01*
X2490663Y635992D01*
X2489200Y636283D01*
D02*
G37*
G36*
X2400565Y645424D02*
X2399102Y645133D01*
X2397862Y644304D01*
X2397033Y643064D01*
X2396742Y641601D01*
X2397033Y640138D01*
X2397862Y638897D01*
X2399102Y638068D01*
X2400565Y637777D01*
X2401138Y637891D01*
X2401414Y637554D01*
X2401767Y636721D01*
X2401086Y635701D01*
X2400795Y634238D01*
X2401086Y632775D01*
X2401914Y631534D01*
X2403155Y630706D01*
X2404618Y630415D01*
X2406081Y630706D01*
X2407322Y631534D01*
X2408150Y632775D01*
X2408441Y634238D01*
X2408150Y635701D01*
X2407322Y636942D01*
X2406081Y637770D01*
X2404618Y638061D01*
X2404046Y637948D01*
X2403770Y638285D01*
X2403416Y639117D01*
X2404098Y640138D01*
X2404389Y641601D01*
X2404098Y643064D01*
X2403269Y644304D01*
X2402029Y645133D01*
X2400565Y645424D01*
D02*
G37*
%LPD*%
D50*
X2523490Y506730D02*
D03*
D52*
X2369820Y684530D02*
D03*
D69*
X2519934Y441198D02*
D03*
X2443734D02*
D03*
X2258060Y793750D02*
D03*
X2266950Y440690D02*
D03*
D73*
X2246376Y556514D02*
D03*
D76*
X2669286Y769112D02*
D03*
Y465074D02*
D03*
X2429510Y769112D02*
D03*
D78*
X2283968Y609600D02*
D03*
X2303272Y662686D02*
D03*
X2288286Y574548D02*
D03*
X2288016Y774993D02*
D03*
X2582672Y479298D02*
D03*
X2628900Y447802D02*
D03*
X2310384Y721224D02*
D03*
X2294993Y743780D02*
D03*
X2406396Y475234D02*
D03*
X2457704Y609346D02*
D03*
X2541270Y574040D02*
D03*
X2565400Y572770D02*
D03*
X2484628Y524002D02*
D03*
X2466340Y487680D02*
D03*
X2383790Y455930D02*
D03*
X2280920Y474980D02*
D03*
X2247900Y502920D02*
D03*
X2527300Y466090D02*
D03*
X2319020Y453390D02*
D03*
X2352040Y472440D02*
D03*
X2265680Y590550D02*
D03*
X2414830Y457910D02*
D03*
X2448700Y466230D02*
D03*
X2405380Y659130D02*
D03*
X2397760Y666750D02*
D03*
X2443480Y657860D02*
D03*
X2428240Y666750D02*
D03*
X2446020Y668020D02*
D03*
X2680207Y513333D02*
D03*
X2625326Y489984D02*
D03*
X2651760Y500380D02*
D03*
X2664460Y539750D02*
D03*
X2523490Y621030D02*
D03*
X2543556Y697484D02*
D03*
X2557780Y688340D02*
D03*
X2538730Y740410D02*
D03*
X2577846Y697484D02*
D03*
X2589530Y688340D02*
D03*
X2586990Y755650D02*
D03*
X2641600Y652780D02*
D03*
X2670810Y556260D02*
D03*
X2670556Y618236D02*
D03*
X2670810Y580390D02*
D03*
Y666750D02*
D03*
X2627630Y694690D02*
D03*
X2612390Y697230D02*
D03*
X2616200Y760730D02*
D03*
X2637790Y748030D02*
D03*
X2296160Y638810D02*
D03*
X2677160Y716280D02*
D03*
X2646680Y726440D02*
D03*
X2437130Y500380D02*
D03*
X2463510Y756920D02*
D03*
X2478170Y742080D02*
D03*
X2540000Y767080D02*
D03*
X2431288Y474218D02*
D03*
X2512060Y552958D02*
D03*
X2519680Y558800D02*
D03*
X2321814Y671576D02*
D03*
X2351081Y640080D02*
D03*
X2376678Y624840D02*
D03*
X2406904Y594614D02*
D03*
X2437384Y614680D02*
D03*
X2458720Y533654D02*
D03*
X2395982Y746252D02*
D03*
D79*
X2240280Y462534D02*
D03*
X2702306Y567182D02*
D03*
X2701798Y673354D02*
D03*
M02*
