G04 Layer_Color=128*
%FSLAX44Y44*%
%MOMM*%
G71*
G01*
G75*
%ADD356C,0.0508*%
D356*
X2515434Y441198D02*
X2524434D01*
X2519934Y436698D02*
Y445698D01*
X2490034Y441198D02*
X2499034D01*
X2494534Y436698D02*
Y445698D01*
X2464634Y441198D02*
X2473634D01*
X2469134Y436698D02*
Y445698D01*
X2439234Y441198D02*
X2448234D01*
X2443734Y436698D02*
Y445698D01*
X2227580Y462534D02*
X2252980D01*
X2240280Y449834D02*
Y475234D01*
X2559177Y506966D02*
X2579751D01*
X2569464Y496679D02*
Y517253D01*
X2559177Y727202D02*
X2579751D01*
X2569464Y716915D02*
Y737489D01*
X2242312Y607314D02*
X2250440D01*
X2246376Y603250D02*
Y611378D01*
X2242312Y632714D02*
X2250440D01*
X2246376Y628650D02*
Y636778D01*
X2242312Y658114D02*
X2250440D01*
X2246376Y654050D02*
Y662178D01*
X2242312Y683514D02*
X2250440D01*
X2246376Y679450D02*
Y687578D01*
X2242312Y581914D02*
X2250440D01*
X2246376Y577850D02*
Y585978D01*
X2242312Y556514D02*
X2250440D01*
X2246376Y552450D02*
Y560578D01*
X2242312Y708914D02*
X2250440D01*
X2246376Y704850D02*
Y712978D01*
X2390755Y700514D02*
X2421997D01*
X2406376Y684893D02*
Y716135D01*
X2653665Y769112D02*
X2684907D01*
X2669286Y753491D02*
Y784733D01*
X2653665Y465074D02*
X2684907D01*
X2669286Y449453D02*
Y480695D01*
X2413889Y769112D02*
X2445131D01*
X2429510Y753491D02*
Y784733D01*
X2521966Y506730D02*
X2525014D01*
X2523490Y505206D02*
Y508254D01*
X2380560Y793750D02*
X2389560D01*
X2385060Y789250D02*
Y798250D01*
X2355160Y793750D02*
X2364160D01*
X2359660Y789250D02*
Y798250D01*
X2329760Y793750D02*
X2338760D01*
X2334260Y789250D02*
Y798250D01*
X2304360Y793750D02*
X2313360D01*
X2308860Y789250D02*
Y798250D01*
X2278960Y793750D02*
X2287960D01*
X2283460Y789250D02*
Y798250D01*
X2253560Y793750D02*
X2262560D01*
X2258060Y789250D02*
Y798250D01*
X2306646Y559816D02*
X2315646D01*
X2311146Y555316D02*
Y564316D01*
X2365574Y597408D02*
X2374574D01*
X2370074Y592908D02*
Y601908D01*
X2288104Y562610D02*
X2297104D01*
X2292604Y558110D02*
Y567110D01*
X2304106Y579882D02*
X2313106D01*
X2308606Y575382D02*
Y584382D01*
X2317060Y595884D02*
X2326060D01*
X2321560Y591384D02*
Y600384D01*
X2336110Y603504D02*
X2345110D01*
X2340610Y599004D02*
Y608004D01*
X2308678Y706120D02*
X2317678D01*
X2313178Y701620D02*
Y710620D01*
X2344746Y669290D02*
X2353746D01*
X2349246Y664790D02*
Y673790D01*
X2303598Y644906D02*
X2312598D01*
X2308098Y640406D02*
Y649406D01*
X2305884Y675132D02*
X2314884D01*
X2310384Y670632D02*
Y679632D01*
X2368296Y684530D02*
X2371344D01*
X2369820Y683006D02*
Y686054D01*
X2389450Y440690D02*
X2398450D01*
X2393950Y436190D02*
Y445190D01*
X2364050Y440690D02*
X2373050D01*
X2368550Y436190D02*
Y445190D01*
X2338650Y440690D02*
X2347650D01*
X2343150Y436190D02*
Y445190D01*
X2313250Y440690D02*
X2322250D01*
X2317750Y436190D02*
Y445190D01*
X2287850Y440690D02*
X2296850D01*
X2292350Y436190D02*
Y445190D01*
X2262450Y440690D02*
X2271450D01*
X2266950Y436190D02*
Y445190D01*
X2689606Y567182D02*
X2715006D01*
X2702306Y554482D02*
Y579882D01*
X2689098Y673354D02*
X2714498D01*
X2701798Y660654D02*
Y686054D01*
X2659142Y589788D02*
X2661142D01*
X2660142Y588788D02*
Y590788D01*
X2306336Y594106D02*
X2308336D01*
X2307336Y593106D02*
Y595106D01*
X2290588Y618236D02*
X2292588D01*
X2291588Y617236D02*
Y619236D01*
X2290842Y630682D02*
X2292842D01*
X2291842Y629682D02*
Y631682D01*
X2277888Y602996D02*
X2279888D01*
X2278888Y601996D02*
Y603996D01*
X2271284Y597408D02*
X2273284D01*
X2272284Y596408D02*
Y598408D01*
X2282968Y609600D02*
X2284968D01*
X2283968Y608600D02*
Y610600D01*
X2293382Y584200D02*
X2295382D01*
X2294382Y583200D02*
Y585200D01*
X2269760Y635254D02*
X2271760D01*
X2270760Y634254D02*
Y636254D01*
X2267220Y628650D02*
X2269220D01*
X2268220Y627650D02*
Y629650D01*
X2256044Y635762D02*
X2258044D01*
X2257044Y634762D02*
Y636762D01*
X2291350Y644144D02*
X2293350D01*
X2292350Y643144D02*
Y645144D01*
X2302272Y662686D02*
X2304272D01*
X2303272Y661686D02*
Y663686D01*
X2294144Y682752D02*
X2296144D01*
X2295144Y681752D02*
Y683752D01*
X2283984Y684530D02*
X2285984D01*
X2284984Y683530D02*
Y685530D01*
X2276353Y683271D02*
X2278353D01*
X2277353Y682271D02*
Y684271D01*
X2261240Y683271D02*
X2263240D01*
X2262240Y682271D02*
Y684271D01*
X2287286Y574548D02*
X2289286D01*
X2288286Y573548D02*
Y575548D01*
X2262140Y750570D02*
X2264140D01*
X2263140Y749570D02*
Y751570D01*
X2270776Y734060D02*
X2272776D01*
X2271776Y733060D02*
Y735060D01*
X2270522Y757174D02*
X2272522D01*
X2271522Y756174D02*
Y758174D01*
X2270522Y745744D02*
X2272522D01*
X2271522Y744744D02*
Y746744D01*
X2287016Y774993D02*
X2289016D01*
X2288016Y773993D02*
Y775993D01*
X2345198Y632460D02*
X2347198D01*
X2346198Y631460D02*
Y633460D01*
X2363232Y614680D02*
X2365232D01*
X2364232Y613680D02*
Y615680D01*
X2334784Y698500D02*
X2336784D01*
X2335784Y697500D02*
Y699500D01*
X2420890Y544830D02*
X2422890D01*
X2421890Y543830D02*
Y545830D01*
X2414540Y539750D02*
X2416540D01*
X2415540Y538750D02*
Y540750D01*
X2378726Y659384D02*
X2380726D01*
X2379726Y658384D02*
Y660384D01*
X2282645Y670672D02*
X2284645D01*
X2283645Y669672D02*
Y671672D01*
X2444187Y520230D02*
X2446187D01*
X2445187Y519230D02*
Y521230D01*
X2320052Y522732D02*
X2322052D01*
X2321052Y521732D02*
Y523732D01*
X2320814Y570992D02*
X2322814D01*
X2321814Y569992D02*
Y571992D01*
X2349770Y654050D02*
X2351770D01*
X2350770Y653050D02*
Y655050D01*
X2390156Y647954D02*
X2392156D01*
X2391156Y646954D02*
Y648954D01*
X2587260Y453118D02*
X2589260D01*
X2588260Y452118D02*
Y454118D01*
X2581672Y479298D02*
X2583672D01*
X2582672Y478298D02*
Y480298D01*
X2573290Y479298D02*
X2575290D01*
X2574290Y478298D02*
Y480298D01*
X2581164Y472694D02*
X2583164D01*
X2582164Y471694D02*
Y473694D01*
X2581926Y466344D02*
X2583926D01*
X2582926Y465344D02*
Y467344D01*
X2597166Y455168D02*
X2599166D01*
X2598166Y454168D02*
Y456168D01*
X2627900Y447802D02*
X2629900D01*
X2628900Y446802D02*
Y448802D01*
X2634758Y457454D02*
X2636758D01*
X2635758Y456454D02*
Y458454D01*
X2678700Y488950D02*
X2680700D01*
X2679700Y487950D02*
Y489950D01*
X2343674Y534670D02*
X2345674D01*
X2344674Y533670D02*
Y535670D01*
X2339610Y542544D02*
X2341610D01*
X2340610Y541544D02*
Y543544D01*
X2309384Y721224D02*
X2311384D01*
X2310384Y720224D02*
Y722224D01*
X2293993Y743780D02*
X2295993D01*
X2294993Y742780D02*
Y744780D01*
X2244868Y779018D02*
X2246868D01*
X2245868Y778018D02*
Y780018D01*
X2538238Y480822D02*
X2540238D01*
X2539238Y479822D02*
Y481822D01*
X2535190Y474980D02*
X2537190D01*
X2536190Y473980D02*
Y475980D01*
X2537984Y468376D02*
X2539984D01*
X2538984Y467376D02*
Y469376D01*
X2604532Y490728D02*
X2606532D01*
X2605532Y489728D02*
Y491728D01*
X2590308Y479298D02*
X2592308D01*
X2591308Y478298D02*
Y480298D01*
X2549668Y454660D02*
X2551668D01*
X2550668Y453660D02*
Y455660D01*
X2556018Y454406D02*
X2558018D01*
X2557018Y453406D02*
Y455406D01*
X2527570Y454406D02*
X2529570D01*
X2528570Y453406D02*
Y455406D01*
X2579132Y447294D02*
X2581132D01*
X2580132Y446294D02*
Y448294D01*
X2514616Y478282D02*
X2516616D01*
X2515616Y477282D02*
Y479282D01*
X2578774Y531555D02*
X2580774D01*
X2579774Y530555D02*
Y532555D01*
X2396506Y458470D02*
X2398506D01*
X2397506Y457470D02*
Y459470D01*
X2395650Y488092D02*
X2397650D01*
X2396650Y487092D02*
Y489092D01*
X2401650Y489870D02*
X2403650D01*
X2402650Y488870D02*
Y490870D01*
X2396760Y472186D02*
X2398760D01*
X2397760Y471186D02*
Y473186D01*
X2370598Y486410D02*
X2372598D01*
X2371598Y485410D02*
Y487410D01*
X2378218Y488442D02*
X2380218D01*
X2379218Y487442D02*
Y489442D01*
X2377710Y549910D02*
X2379710D01*
X2378710Y548910D02*
Y550910D01*
X2372630Y546100D02*
X2374630D01*
X2373630Y545100D02*
Y547100D01*
X2378980Y509270D02*
X2380980D01*
X2379980Y508270D02*
Y510270D01*
X2456958Y473456D02*
X2458958D01*
X2457958Y472456D02*
Y474456D01*
X2405396Y475234D02*
X2407396D01*
X2406396Y474234D02*
Y476234D01*
X2608320Y721338D02*
X2610320D01*
X2609320Y720338D02*
Y722338D01*
X2454672Y705866D02*
X2456672D01*
X2455672Y704866D02*
Y706866D01*
X2456704Y609346D02*
X2458704D01*
X2457704Y608346D02*
Y610346D01*
X2455942Y594868D02*
X2457942D01*
X2456942Y593868D02*
Y595868D01*
X2448322Y596138D02*
X2450322D01*
X2449322Y595138D02*
Y597138D01*
X2441972Y596138D02*
X2443972D01*
X2442972Y595138D02*
Y597138D01*
X2455434Y583692D02*
X2457434D01*
X2456434Y582692D02*
Y584692D01*
X2540270Y574040D02*
X2542270D01*
X2541270Y573040D02*
Y575040D01*
X2564400Y572770D02*
X2566400D01*
X2565400Y571770D02*
Y573770D01*
X2486930Y572770D02*
X2488930D01*
X2487930Y571770D02*
Y573770D01*
X2525030Y574040D02*
X2527030D01*
X2526030Y573040D02*
Y575040D01*
X2456704Y547116D02*
X2458704D01*
X2457704Y546116D02*
Y548116D01*
X2433082Y731266D02*
X2435082D01*
X2434082Y730266D02*
Y732266D01*
X2483628Y524002D02*
X2485628D01*
X2484628Y523002D02*
Y525002D01*
X2450354Y491236D02*
X2452354D01*
X2451354Y490236D02*
Y492236D01*
X2444766Y494284D02*
X2446766D01*
X2445766Y493284D02*
Y495284D01*
X2367550Y568960D02*
X2369550D01*
X2368550Y567960D02*
Y569960D01*
X2465340Y487680D02*
X2467340D01*
X2466340Y486680D02*
Y488680D01*
X2377710Y450850D02*
X2379710D01*
X2378710Y449850D02*
Y451850D01*
X2481850Y473710D02*
X2483850D01*
X2482850Y472710D02*
Y474710D01*
X2469150Y473710D02*
X2471150D01*
X2470150Y472710D02*
Y474710D01*
X2382790Y455930D02*
X2384790D01*
X2383790Y454930D02*
Y456930D01*
X2420382Y457708D02*
X2422382D01*
X2421382Y456708D02*
Y458708D01*
X2362470Y480060D02*
X2364470D01*
X2363470Y479060D02*
Y481060D01*
X2363740Y556260D02*
X2365740D01*
X2364740Y555260D02*
Y557260D01*
X2367550Y474980D02*
X2369550D01*
X2368550Y473980D02*
Y475980D01*
X2403110Y458470D02*
X2405110D01*
X2404110Y457470D02*
Y459470D01*
X2271030Y513080D02*
X2273030D01*
X2272030Y512080D02*
Y514080D01*
X2264680Y510540D02*
X2266680D01*
X2265680Y509540D02*
Y511540D01*
X2300240Y525780D02*
X2302240D01*
X2301240Y524780D02*
Y526780D01*
X2293890Y527745D02*
X2295890D01*
X2294890Y526745D02*
Y528745D01*
X2279920Y474980D02*
X2281920D01*
X2280920Y473980D02*
Y475980D01*
X2298970Y467360D02*
X2300970D01*
X2299970Y466360D02*
Y468360D01*
X2246900Y502920D02*
X2248900D01*
X2247900Y501920D02*
Y503920D01*
X2526300Y466090D02*
X2528300D01*
X2527300Y465090D02*
Y467090D01*
X2318020Y453390D02*
X2320020D01*
X2319020Y452390D02*
Y454390D01*
X2351040Y472440D02*
X2353040D01*
X2352040Y471440D02*
Y473440D01*
X2264680Y590550D02*
X2266680D01*
X2265680Y589550D02*
Y591550D01*
X2413830Y457910D02*
X2415830D01*
X2414830Y456910D02*
Y458910D01*
X2447700Y466230D02*
X2449700D01*
X2448700Y465230D02*
Y467230D01*
X2404380Y659130D02*
X2406380D01*
X2405380Y658130D02*
Y660130D01*
X2396760Y666750D02*
X2398760D01*
X2397760Y665750D02*
Y667750D01*
X2442480Y657860D02*
X2444480D01*
X2443480Y656860D02*
Y658860D01*
X2427240Y666750D02*
X2429240D01*
X2428240Y665750D02*
Y667750D01*
X2445020Y668020D02*
X2447020D01*
X2446020Y667020D02*
Y669020D01*
X2679207Y513333D02*
X2681207D01*
X2680207Y512333D02*
Y514333D01*
X2624326Y489984D02*
X2626326D01*
X2625326Y488984D02*
Y490984D01*
X2650760Y500380D02*
X2652760D01*
X2651760Y499380D02*
Y501380D01*
X2663460Y539750D02*
X2665460D01*
X2664460Y538750D02*
Y540750D01*
X2522490Y621030D02*
X2524490D01*
X2523490Y620030D02*
Y622030D01*
X2542556Y697484D02*
X2544556D01*
X2543556Y696484D02*
Y698484D01*
X2556780Y688340D02*
X2558780D01*
X2557780Y687340D02*
Y689340D01*
X2537730Y740410D02*
X2539730D01*
X2538730Y739410D02*
Y741410D01*
X2576846Y697484D02*
X2578846D01*
X2577846Y696484D02*
Y698484D01*
X2588530Y688340D02*
X2590530D01*
X2589530Y687340D02*
Y689340D01*
X2585990Y755650D02*
X2587990D01*
X2586990Y754650D02*
Y756650D01*
X2640600Y652780D02*
X2642600D01*
X2641600Y651780D02*
Y653780D01*
X2669810Y556260D02*
X2671810D01*
X2670810Y555260D02*
Y557260D01*
X2669556Y618236D02*
X2671556D01*
X2670556Y617236D02*
Y619236D01*
X2669810Y580390D02*
X2671810D01*
X2670810Y579390D02*
Y581390D01*
X2669810Y666750D02*
X2671810D01*
X2670810Y665750D02*
Y667750D01*
X2626630Y694690D02*
X2628630D01*
X2627630Y693690D02*
Y695690D01*
X2611390Y697230D02*
X2613390D01*
X2612390Y696230D02*
Y698230D01*
X2615200Y760730D02*
X2617200D01*
X2616200Y759730D02*
Y761730D01*
X2636790Y748030D02*
X2638790D01*
X2637790Y747030D02*
Y749030D01*
X2333260Y584200D02*
X2335260D01*
X2334260Y583200D02*
Y585200D01*
X2325640Y580390D02*
X2327640D01*
X2326640Y579390D02*
Y581390D01*
X2329450Y575310D02*
X2331450D01*
X2330450Y574310D02*
Y576310D01*
X2389140Y572770D02*
X2391140D01*
X2390140Y571770D02*
Y573770D01*
X2283730Y542290D02*
X2285730D01*
X2284730Y541290D02*
Y543290D01*
X2356120Y547370D02*
X2358120D01*
X2357120Y546370D02*
Y548370D01*
X2600365Y781050D02*
X2602365D01*
X2601365Y780050D02*
Y782050D01*
X2488200Y632460D02*
X2490200D01*
X2489200Y631460D02*
Y633460D01*
X2488200Y645160D02*
X2490200D01*
X2489200Y644160D02*
Y646160D01*
X2432320Y544830D02*
X2434320D01*
X2433320Y543830D02*
Y545830D01*
X2532396Y661924D02*
X2534396D01*
X2533396Y660924D02*
Y662924D01*
X2596150Y614680D02*
X2598150D01*
X2597150Y613680D02*
Y615680D01*
X2596464Y661984D02*
X2598464D01*
X2597464Y660984D02*
Y662984D01*
X2669810Y641350D02*
X2671810D01*
X2670810Y640350D02*
Y642350D01*
X2669810Y654050D02*
X2671810D01*
X2670810Y653050D02*
Y655050D01*
X2668540Y631190D02*
X2670540D01*
X2669540Y630190D02*
Y632190D01*
X2669810Y594360D02*
X2671810D01*
X2670810Y593360D02*
Y595360D01*
X2669764Y604520D02*
X2671764D01*
X2670764Y603520D02*
Y605520D01*
X2669810Y568960D02*
X2671810D01*
X2670810Y567960D02*
Y569960D01*
X2632980Y491490D02*
X2634980D01*
X2633980Y490490D02*
Y492490D01*
X2639330Y509270D02*
X2641330D01*
X2640330Y508270D02*
Y510270D01*
X2630440Y561340D02*
X2632440D01*
X2631440Y560340D02*
Y562340D01*
X2654570Y567690D02*
X2656570D01*
X2655570Y566690D02*
Y568690D01*
X2619010Y532130D02*
X2621010D01*
X2620010Y531130D02*
Y533130D01*
X2633489Y536449D02*
X2635489D01*
X2634489Y535449D02*
Y537449D01*
X2509790Y565150D02*
X2511790D01*
X2510790Y564150D02*
Y566150D01*
X2503440Y561340D02*
X2505440D01*
X2504440Y560340D02*
Y562340D01*
X2641870Y687070D02*
X2643870D01*
X2642870Y686070D02*
Y688070D01*
X2640600Y645160D02*
X2642600D01*
X2641600Y644160D02*
Y646160D01*
X2626630Y666750D02*
X2628630D01*
X2627630Y665750D02*
Y667750D01*
X2612660Y688340D02*
X2614660D01*
X2613660Y687340D02*
Y689340D01*
X2579640Y688340D02*
X2581640D01*
X2580640Y687340D02*
Y689340D01*
X2587260Y697230D02*
X2589260D01*
X2588260Y696230D02*
Y698230D01*
X2551700Y697230D02*
X2553700D01*
X2552700Y696230D02*
Y698230D01*
X2517410Y697230D02*
X2519410D01*
X2518410Y696230D02*
Y698230D01*
X2540270Y688340D02*
X2542270D01*
X2541270Y687340D02*
Y689340D01*
X2549160Y688340D02*
X2551160D01*
X2550160Y687340D02*
Y689340D01*
X2314210Y655320D02*
X2316210D01*
X2315210Y654320D02*
Y656320D01*
X2254520Y565150D02*
X2256520D01*
X2255520Y564150D02*
Y566150D01*
X2612660Y621030D02*
X2614660D01*
X2613660Y620030D02*
Y622030D01*
X2639390Y552390D02*
X2641390D01*
X2640390Y551390D02*
Y553390D01*
X2640600Y613410D02*
X2642600D01*
X2641600Y612410D02*
Y614410D01*
X2619010Y544830D02*
X2621010D01*
X2620010Y543830D02*
Y545830D01*
X2605040Y688340D02*
X2607040D01*
X2606040Y687340D02*
Y689340D01*
X2536460Y636270D02*
X2538460D01*
X2537460Y635270D02*
Y637270D01*
X2644410Y525780D02*
X2646410D01*
X2645410Y524780D02*
Y526780D01*
X2605040Y546100D02*
X2607040D01*
X2606040Y545100D02*
Y547100D01*
X2654570Y637540D02*
X2656570D01*
X2655570Y636540D02*
Y638540D01*
X2654570Y580390D02*
X2656570D01*
X2655570Y579390D02*
Y581390D01*
X2525030Y661670D02*
X2527030D01*
X2526030Y660670D02*
Y662670D01*
X2483120Y660400D02*
X2485120D01*
X2484120Y659400D02*
Y661400D01*
X2492010Y652780D02*
X2494010D01*
X2493010Y651780D02*
Y653780D01*
X2646950Y478790D02*
X2648950D01*
X2647950Y477790D02*
Y479790D01*
X2399565Y641601D02*
X2401566D01*
X2400565Y640601D02*
Y642601D01*
X2326910Y505460D02*
X2328910D01*
X2327910Y504460D02*
Y506460D01*
X2325812Y511810D02*
X2327812D01*
X2326812Y510810D02*
Y512810D01*
X2316750Y511810D02*
X2318750D01*
X2317750Y510810D02*
Y512810D01*
X2278650Y562610D02*
X2280650D01*
X2279650Y561610D02*
Y563610D01*
X2279920Y568960D02*
X2281920D01*
X2280920Y567960D02*
Y569960D01*
X2357390Y474980D02*
X2359390D01*
X2358390Y473980D02*
Y475980D01*
X2592340Y572770D02*
X2594340D01*
X2593340Y571770D02*
Y573770D01*
X2611390Y575310D02*
X2613390D01*
X2612390Y574310D02*
Y576310D01*
X2599960Y575310D02*
X2601960D01*
X2600960Y574310D02*
Y576310D01*
X2644410Y589280D02*
X2646410D01*
X2645410Y588280D02*
Y590280D01*
X2498360Y565150D02*
X2500360D01*
X2499360Y564150D02*
Y566150D01*
X2493280Y561340D02*
X2495280D01*
X2494280Y560340D02*
Y562340D01*
X2600655Y607635D02*
X2602655D01*
X2601655Y606635D02*
Y608635D01*
X2612660Y589280D02*
X2614660D01*
X2613660Y588280D02*
Y590280D01*
X2605040Y601980D02*
X2607040D01*
X2606040Y600980D02*
Y602980D01*
X2599960Y593090D02*
X2601960D01*
X2600960Y592090D02*
Y594090D01*
X2594880Y596900D02*
X2596880D01*
X2595880Y595900D02*
Y597900D01*
X2536460Y609600D02*
X2538460D01*
X2537460Y608600D02*
Y610600D01*
X2591070Y588010D02*
X2593070D01*
X2592070Y587010D02*
Y589010D01*
X2606310Y588010D02*
X2608310D01*
X2607310Y587010D02*
Y589010D01*
X2588530Y535940D02*
X2590530D01*
X2589530Y534940D02*
Y536940D01*
X2483120Y567800D02*
X2485120D01*
X2484120Y566800D02*
Y568800D01*
X2277380Y508000D02*
X2279380D01*
X2278380Y507000D02*
Y509000D01*
X2363486Y758190D02*
X2365486D01*
X2364486Y757190D02*
Y759190D01*
X2307165Y522665D02*
X2309165D01*
X2308165Y521665D02*
Y523665D01*
X2340880Y698540D02*
X2342880D01*
X2341880Y697540D02*
Y699540D01*
X2295160Y638810D02*
X2297160D01*
X2296160Y637810D02*
Y639810D01*
X2666000Y726440D02*
X2668000D01*
X2667000Y725440D02*
Y727440D01*
X2676160Y716280D02*
X2678160D01*
X2677160Y715280D02*
Y717280D01*
X2645680Y726440D02*
X2647680D01*
X2646680Y725440D02*
Y727440D01*
X2420890Y496770D02*
X2422890D01*
X2421890Y495770D02*
Y497770D01*
X2428510Y500380D02*
X2430510D01*
X2429510Y499380D02*
Y501380D01*
X2414540Y524400D02*
X2416540D01*
X2415540Y523400D02*
Y525400D01*
X2406920Y525780D02*
X2408920D01*
X2407920Y524780D02*
Y526780D01*
X2427240Y549910D02*
X2429240D01*
X2428240Y548910D02*
Y550910D01*
X2490327Y481890D02*
X2492327D01*
X2491327Y480890D02*
Y482890D01*
X2436130Y500380D02*
X2438130D01*
X2437130Y499380D02*
Y501380D01*
X2279920Y481330D02*
X2281920D01*
X2280920Y480330D02*
Y482330D01*
X2493280Y613410D02*
X2495280D01*
X2494280Y612410D02*
Y614410D01*
X2483120Y670560D02*
X2485120D01*
X2484120Y669560D02*
Y671560D01*
X2362470Y508000D02*
X2364470D01*
X2363470Y507000D02*
Y509000D01*
X2373900Y501650D02*
X2375900D01*
X2374900Y500650D02*
Y502650D01*
X2337070Y499110D02*
X2339070D01*
X2338070Y498110D02*
Y500110D01*
X2334530Y515620D02*
X2336530D01*
X2335530Y514620D02*
Y516620D01*
X2326970Y492965D02*
X2328970D01*
X2327970Y491965D02*
Y493965D01*
X2349770Y533400D02*
X2351770D01*
X2350770Y532400D02*
Y534400D01*
X2500610Y671830D02*
X2502610D01*
X2501610Y670830D02*
Y672830D01*
X2493570Y671830D02*
X2495570D01*
X2494570Y670830D02*
Y672830D01*
X2508520Y670560D02*
X2510520D01*
X2509520Y669560D02*
Y671560D01*
X2462510Y756920D02*
X2464510D01*
X2463510Y755920D02*
Y757920D01*
X2477170Y742080D02*
X2479170D01*
X2478170Y741080D02*
Y743080D01*
X2539000Y767080D02*
X2541000D01*
X2540000Y766080D02*
Y768080D01*
X2265696Y614680D02*
X2267696D01*
X2266696Y613680D02*
Y615680D01*
X2261886Y658876D02*
X2263886D01*
X2262886Y657876D02*
Y659876D01*
X2408952Y667004D02*
X2410952D01*
X2409952Y666004D02*
Y668004D01*
X2410476Y626618D02*
X2412476D01*
X2411476Y625618D02*
Y627618D01*
X2356882Y495808D02*
X2358882D01*
X2357882Y494808D02*
Y496808D01*
X2363740Y500380D02*
X2365740D01*
X2364740Y499380D02*
Y501380D01*
X2337070Y490220D02*
X2339070D01*
X2338070Y489220D02*
Y491220D01*
X2340880Y484451D02*
X2342880D01*
X2341880Y483451D02*
Y485451D01*
X2347484Y477774D02*
X2349484D01*
X2348484Y476774D02*
Y478774D01*
X2430288Y474218D02*
X2432288D01*
X2431288Y473218D02*
Y475218D01*
X2408468Y490124D02*
X2410468D01*
X2409468Y489124D02*
Y491124D01*
X2414540Y489966D02*
X2416540D01*
X2415540Y488966D02*
Y490966D01*
X2596150Y543814D02*
X2598150D01*
X2597150Y542814D02*
Y544814D01*
X2553224Y544322D02*
X2555224D01*
X2554224Y543322D02*
Y545322D01*
X2542556Y544068D02*
X2544556D01*
X2543556Y543068D02*
Y545068D01*
X2511060Y552958D02*
X2513060D01*
X2512060Y551958D02*
Y553958D01*
X2518680Y558800D02*
X2520680D01*
X2519680Y557800D02*
Y559800D01*
X2518680Y549910D02*
X2520680D01*
X2519680Y548910D02*
Y550910D01*
X2320814Y671576D02*
X2322814D01*
X2321814Y670576D02*
Y672576D01*
X2340880Y524256D02*
X2342880D01*
X2341880Y523256D02*
Y525256D01*
X2335031Y521620D02*
X2337031D01*
X2336031Y520620D02*
Y522620D01*
X2255536Y521716D02*
X2257536D01*
X2256536Y520716D02*
Y522716D01*
X2333006Y620522D02*
X2335006D01*
X2334006Y619522D02*
Y621522D01*
X2332498Y614426D02*
X2334498D01*
X2333498Y613426D02*
Y615426D01*
X2312686Y686562D02*
X2314686D01*
X2313686Y685562D02*
Y687562D01*
X2375424Y676402D02*
X2377424D01*
X2376424Y675402D02*
Y677402D01*
X2350081Y640080D02*
X2352081D01*
X2351081Y639080D02*
Y641080D01*
X2375678Y624840D02*
X2377678D01*
X2376678Y623840D02*
Y625840D01*
X2366788Y626872D02*
X2368788D01*
X2367788Y625872D02*
Y627872D01*
X2363232Y621792D02*
X2365232D01*
X2364232Y620792D02*
Y622792D01*
X2396760Y595884D02*
X2398760D01*
X2397760Y594884D02*
Y596884D01*
X2427505Y613410D02*
X2429505D01*
X2428506Y612410D02*
Y614410D01*
X2324116Y610108D02*
X2326116D01*
X2325116Y609108D02*
Y611108D01*
X2318020Y608076D02*
X2320020D01*
X2319020Y607076D02*
Y609076D01*
X2279920Y547370D02*
X2281920D01*
X2280920Y546370D02*
Y548370D01*
X2271030Y554990D02*
X2273030D01*
X2272030Y553990D02*
Y555990D01*
X2271938Y548990D02*
X2273938D01*
X2272938Y547990D02*
Y549990D01*
X2405904Y594614D02*
X2407904D01*
X2406904Y593614D02*
Y595614D01*
X2372122Y619760D02*
X2374122D01*
X2373122Y618760D02*
Y620760D01*
X2372376Y608584D02*
X2374376D01*
X2373376Y607584D02*
Y609584D01*
X2389902Y609600D02*
X2391902D01*
X2390902Y608600D02*
Y610600D01*
X2436384Y614680D02*
X2438384D01*
X2437384Y613680D02*
Y615680D01*
X2338086Y592074D02*
X2340086D01*
X2339086Y591074D02*
Y593074D01*
X2306590Y532130D02*
X2308590D01*
X2307590Y531130D02*
Y533130D01*
X2457720Y533654D02*
X2459720D01*
X2458720Y532654D02*
Y534654D01*
X2465848Y544068D02*
X2467848D01*
X2466848Y543068D02*
Y545068D01*
X2451169Y532275D02*
X2453169D01*
X2452169Y531275D02*
Y533275D01*
X2506488Y521716D02*
X2508488D01*
X2507488Y520716D02*
Y522716D01*
X2469150Y523494D02*
X2471150D01*
X2470150Y522494D02*
Y524494D01*
X2509028Y472948D02*
X2511028D01*
X2510028Y471948D02*
Y473948D01*
X2490486Y469646D02*
X2492486D01*
X2491486Y468646D02*
Y470646D01*
X2533666Y498348D02*
X2535666D01*
X2534666Y497348D02*
Y499348D01*
X2300773Y553279D02*
X2302773D01*
X2301773Y552279D02*
Y554279D01*
X2412747Y548520D02*
X2414747D01*
X2413747Y547520D02*
Y549520D01*
X2403618Y634238D02*
X2405618D01*
X2404618Y633238D02*
Y635238D01*
X2360438Y632925D02*
X2362438D01*
X2361438Y631925D02*
Y633925D01*
X2355358Y762000D02*
X2357358D01*
X2356358Y761000D02*
Y763000D01*
X2343420Y764032D02*
X2345420D01*
X2344420Y763032D02*
Y765032D01*
X2394982Y746252D02*
X2396982D01*
X2395982Y745252D02*
Y747252D01*
X2333006Y757682D02*
X2335006D01*
X2334006Y756682D02*
Y758682D01*
X2352056Y722630D02*
X2354056D01*
X2353056Y721630D02*
Y723630D01*
X2303542Y751078D02*
X2305542D01*
X2304542Y750078D02*
Y752078D01*
M02*
