G04 Layer_Color=16711935*
%FSLAX44Y44*%
%MOMM*%
G71*
G01*
G75*
%ADD62C,0.2540*%
%ADD354C,0.0100*%
D62*
X2583159Y510940D02*
G03*
X2555457Y509640I-13695J-3974D01*
G01*
D354*
X2257077Y442321D02*
G03*
X2257789Y442135I2379J7637D01*
G01*
X2248787Y791783D02*
G03*
X2238502Y779526I2161J-12257D01*
G01*
X2692400D02*
G03*
X2679954Y791972I-12446J0D01*
G01*
Y441960D02*
G03*
X2692400Y454660I-127J12573D01*
G01*
X2549906Y784860D02*
X2562664D01*
X2569777Y791972D01*
X2238502Y510286D02*
Y536956D01*
X2246122Y544830D02*
Y547878D01*
X2246376Y564642D02*
Y573786D01*
Y590042D02*
Y599186D01*
Y615442D02*
Y624586D01*
Y640842D02*
Y649986D01*
Y666242D02*
Y675386D01*
Y691642D02*
Y700786D01*
Y716280D02*
Y718566D01*
X2238502Y536956D02*
X2246376Y544830D01*
X2238502Y726440D02*
Y779526D01*
Y726440D02*
X2246376Y718566D01*
X2542540Y784860D02*
X2549906D01*
X2569777Y791972D02*
X2679954D01*
X2378710Y441960D02*
X2383790D01*
X2353310D02*
X2358390D01*
X2327910D02*
X2332990D01*
X2302510D02*
X2307590D01*
X2277110D02*
X2282190D01*
X2395728Y791972D02*
X2447798D01*
X2368550D02*
X2375916D01*
X2343150D02*
X2350516D01*
X2317750D02*
X2325116D01*
X2292350D02*
X2299716D01*
X2266950D02*
X2274316D01*
X2517140Y784860D02*
X2524506D01*
X2491740D02*
X2499360D01*
X2466340D02*
X2473706D01*
X2692400Y454660D02*
Y523240D01*
Y718820D02*
Y779526D01*
Y612140D02*
Y628650D01*
X2405380Y441960D02*
X2434590D01*
X2529840D02*
X2679954D01*
M02*
