G04 Layer_Color=65535*
%FSLAX44Y44*%
%MOMM*%
G71*
G01*
G75*
%ADD62C,0.2540*%
%ADD63C,0.1270*%
%ADD84C,0.2032*%
%ADD85C,0.1016*%
%ADD86C,0.0000*%
%ADD87C,0.3048*%
%ADD88C,0.2500*%
%ADD89C,0.6000*%
%ADD90C,1.6002*%
%ADD91C,0.1524*%
%ADD92C,0.4064*%
%ADD93C,0.5080*%
%ADD94C,0.2000*%
%ADD95R,0.7620X0.4572*%
G04:AMPARAMS|DCode=96|XSize=0.1524mm|YSize=0.6048mm|CornerRadius=0mm|HoleSize=0mm|Usage=FLASHONLY|Rotation=270.010|XOffset=0mm|YOffset=0mm|HoleType=Round|Shape=Rectangle|*
%AMROTATEDRECTD96*
4,1,4,-0.3024,0.0762,0.3024,0.0763,0.3024,-0.0762,-0.3024,-0.0763,-0.3024,0.0762,0.0*
%
%ADD96ROTATEDRECTD96*%

%ADD97R,0.6048X0.1524*%
G04:AMPARAMS|DCode=98|XSize=0.1524mm|YSize=0.6048mm|CornerRadius=0mm|HoleSize=0mm|Usage=FLASHONLY|Rotation=135.000|XOffset=0mm|YOffset=0mm|HoleType=Round|Shape=Rectangle|*
%AMROTATEDRECTD98*
4,1,4,0.2677,0.1600,-0.1600,-0.2677,-0.2677,-0.1600,0.1600,0.2677,0.2677,0.1600,0.0*
%
%ADD98ROTATEDRECTD98*%

%ADD99R,0.1524X0.6048*%
%ADD100R,0.7112X0.4064*%
G04:AMPARAMS|DCode=101|XSize=0.1524mm|YSize=0.6048mm|CornerRadius=0mm|HoleSize=0mm|Usage=FLASHONLY|Rotation=0.002|XOffset=0mm|YOffset=0mm|HoleType=Round|Shape=Rectangle|*
%AMROTATEDRECTD101*
4,1,4,-0.0762,-0.3024,-0.0762,0.3024,0.0762,0.3024,0.0762,-0.3024,-0.0762,-0.3024,0.0*
%
%ADD101ROTATEDRECTD101*%

G04:AMPARAMS|DCode=102|XSize=0.1524mm|YSize=0.6048mm|CornerRadius=0mm|HoleSize=0mm|Usage=FLASHONLY|Rotation=45.000|XOffset=0mm|YOffset=0mm|HoleType=Round|Shape=Rectangle|*
%AMROTATEDRECTD102*
4,1,4,0.1600,-0.2677,-0.2677,0.1600,-0.1600,0.2677,0.2677,-0.1600,0.1600,-0.2677,0.0*
%
%ADD102ROTATEDRECTD102*%

G36*
X2437105Y718630D02*
Y714502D01*
X2435809D01*
Y718630D01*
X2432050Y724268D01*
X2433599D01*
X2435530Y721309D01*
X2435542Y721296D01*
X2435555Y721271D01*
X2435581Y721233D01*
X2435619Y721170D01*
X2435670Y721093D01*
X2435720Y721004D01*
X2435860Y720788D01*
X2436012Y720547D01*
X2436178Y720268D01*
X2436343Y719963D01*
X2436520Y719658D01*
Y719671D01*
X2436546Y719696D01*
X2436571Y719734D01*
X2436597Y719798D01*
X2436647Y719861D01*
X2436698Y719950D01*
X2436762Y720052D01*
X2436825Y720166D01*
X2436990Y720420D01*
X2437168Y720712D01*
X2437371Y721042D01*
X2437600Y721385D01*
X2439492Y724268D01*
X2441004D01*
X2437105Y718630D01*
D02*
G37*
G36*
X2462987Y683044D02*
X2466632Y677926D01*
X2465045D01*
X2462581Y681406D01*
X2462568Y681419D01*
X2462543Y681457D01*
X2462505Y681520D01*
X2462454Y681596D01*
X2462390Y681685D01*
X2462327Y681787D01*
X2462174Y682003D01*
X2462162Y681977D01*
X2462124Y681926D01*
X2462073Y681838D01*
X2461997Y681736D01*
X2461844Y681495D01*
X2461781Y681393D01*
X2461717Y681304D01*
X2459241Y677926D01*
X2457691D01*
X2461463Y682993D01*
X2458136Y687692D01*
X2459685D01*
X2461463Y685190D01*
X2461476Y685178D01*
X2461489Y685152D01*
X2461514Y685114D01*
X2461552Y685063D01*
X2461654Y684924D01*
X2461768Y684746D01*
X2461895Y684555D01*
X2462022Y684352D01*
X2462136Y684162D01*
X2462238Y683997D01*
X2462251Y684022D01*
X2462301Y684085D01*
X2462365Y684187D01*
X2462454Y684327D01*
X2462568Y684492D01*
X2462708Y684682D01*
X2462847Y684873D01*
X2463013Y685089D01*
X2464956Y687692D01*
X2466365D01*
X2462987Y683044D01*
D02*
G37*
G36*
X2507082Y495046D02*
X2505710D01*
Y496418D01*
X2507082D01*
Y495046D01*
D02*
G37*
G36*
X2386165Y777930D02*
X2382623D01*
Y781471D01*
X2386165D01*
Y777930D01*
D02*
G37*
G36*
X2553462Y643496D02*
X2545829D01*
X2545842Y643471D01*
X2545893Y643420D01*
X2545982Y643318D01*
X2546083Y643192D01*
X2546210Y643026D01*
X2546350Y642823D01*
X2546502Y642607D01*
X2546655Y642353D01*
Y642341D01*
X2546667Y642328D01*
X2546693Y642290D01*
X2546718Y642239D01*
X2546794Y642099D01*
X2546883Y641934D01*
X2546985Y641744D01*
X2547087Y641528D01*
X2547188Y641312D01*
X2547277Y641096D01*
X2546109D01*
Y641109D01*
X2546083Y641147D01*
X2546058Y641198D01*
X2546020Y641261D01*
X2545982Y641350D01*
X2545918Y641452D01*
X2545791Y641693D01*
X2545626Y641960D01*
X2545423Y642264D01*
X2545207Y642557D01*
X2544966Y642849D01*
X2544953Y642861D01*
X2544940Y642887D01*
X2544902Y642925D01*
X2544851Y642976D01*
X2544724Y643103D01*
X2544547Y643268D01*
X2544356Y643433D01*
X2544128Y643611D01*
X2543899Y643776D01*
X2543658Y643915D01*
Y644690D01*
X2553462D01*
Y643496D01*
D02*
G37*
G36*
X2441131Y686791D02*
X2435644Y680022D01*
X2435060Y679336D01*
X2441296D01*
Y678180D01*
X2433574D01*
Y679374D01*
X2438578Y685622D01*
X2438591Y685635D01*
X2438603Y685648D01*
X2438629Y685686D01*
X2438667Y685736D01*
X2438768Y685863D01*
X2438895Y686016D01*
X2439048Y686206D01*
X2439225Y686397D01*
X2439403Y686600D01*
X2439581Y686791D01*
X2434146D01*
Y687946D01*
X2441131D01*
Y686791D01*
D02*
G37*
D62*
X2589849Y485835D02*
G03*
X2589849Y485835I-1270J-0D01*
G01*
X2499106Y515366D02*
X2537460D01*
X2468118Y546354D02*
X2499106Y515366D01*
X2468118Y546354D02*
Y695706D01*
X2256028Y774144D02*
X2256028Y768096D01*
X2254012Y771144D02*
X2256028Y768096D01*
X2254012Y771144D02*
X2256028Y774144D01*
D63*
X2693416Y769112D02*
G03*
X2693416Y769112I-24130J0D01*
G01*
Y465074D02*
G03*
X2693416Y465074I-24130J0D01*
G01*
X2453640Y769112D02*
G03*
X2453640Y769112I-24130J0D01*
G01*
X2253918Y763270D02*
X2283968D01*
X2245918Y727236D02*
X2283968D01*
X2531490Y502666D02*
Y510730D01*
X2515362Y502666D02*
X2531490D01*
X2515362D02*
Y510730D01*
X2531490D01*
X2365756Y676530D02*
X2373820D01*
X2365756D02*
Y692658D01*
X2373820D01*
Y676530D02*
Y692658D01*
X2403080Y457280D02*
Y472440D01*
X2433320D01*
Y452280D02*
Y472440D01*
X2408080Y452280D02*
X2433320D01*
X2403080Y457280D02*
X2408080Y452280D01*
D84*
X2248950Y765302D02*
G03*
X2248950Y765302I-2032J0D01*
G01*
X2428474Y700514D02*
G03*
X2428474Y700514I-22098J0D01*
G01*
X2673226Y513246D02*
G03*
X2673226Y513246I0J-1524D01*
G01*
X2689530Y520609D02*
G03*
X2689530Y520609I0J-1016D01*
G01*
X2630932Y766319D02*
X2630932Y757707D01*
X2602484Y766318D02*
X2602484Y757706D01*
X2614024Y770128D02*
X2619502Y770128D01*
X2512314Y559816D02*
Y674116D01*
Y559816D02*
X2626614D01*
Y674116D01*
X2512314D02*
X2626614D01*
X2554986Y594416D02*
Y639572D01*
X2583864Y594416D02*
Y639572D01*
X2554986Y594416D02*
X2583864D01*
X2554986Y639572D02*
X2583864D01*
X2459987Y530859D02*
X2475107Y530861D01*
X2459993Y500619D02*
X2475113Y500621D01*
X2623579Y485836D02*
X2628579Y485837D01*
X2628579Y480837D01*
X2623581Y445836D02*
X2628581Y445837D01*
X2628581Y450837D02*
X2628581Y445837D01*
X2588581Y450835D02*
X2588581Y445835D01*
X2593581Y445835D01*
X2637574Y511807D02*
X2658953Y533193D01*
X2658960Y490427D02*
X2680339Y511813D01*
X2543550Y475996D02*
X2546050Y478536D01*
X2572258D02*
X2574798D01*
Y475996D02*
Y478536D01*
X2543550Y447288D02*
Y449788D01*
Y447288D02*
X2546050D01*
X2574798D02*
Y449788D01*
X2572258Y447288D02*
X2574798D01*
D85*
X2269490Y678434D02*
G03*
X2267458Y676402I0J-2032D01*
G01*
X2281570D02*
G03*
X2279570Y678434I-2016J16D01*
G01*
X2279570Y640280D02*
G03*
X2281570Y642280I0J2000D01*
G01*
X2267458Y642280D02*
G03*
X2269490Y640280I2016J16D01*
G01*
X2584450Y773260D02*
G03*
X2584450Y773260I-508J0D01*
G01*
X2541574Y444288D02*
G03*
X2541574Y444288I-1524J0D01*
G01*
X2269490Y678434D02*
X2279570D01*
X2281570Y642280D02*
Y676402D01*
X2269490Y640280D02*
X2279570D01*
X2267458Y642280D02*
Y676402D01*
X2281935Y486022D02*
X2281938Y468886D01*
X2254718Y486018D02*
X2254722Y468882D01*
X2273296Y498521D02*
X2274312Y498521D01*
X2360168Y691110D02*
X2361184Y692110D01*
X2354120Y691110D02*
X2360168D01*
X2353120Y690110D02*
X2354120Y691110D01*
X2535428Y489180D02*
X2536444Y490180D01*
X2529380Y489180D02*
X2535428D01*
X2528380Y488180D02*
X2529380Y489180D01*
X2547050Y445288D02*
X2549050Y444288D01*
X2547050Y443288D02*
Y445288D01*
Y443288D02*
X2549050Y444288D01*
X2540050D02*
X2549050D01*
X2540050Y453288D02*
X2541050Y451288D01*
X2539050D02*
X2541050D01*
X2539050D02*
X2540050Y453288D01*
Y444288D02*
Y453288D01*
D86*
X2472636Y504621D02*
G03*
X2472636Y504621I-1524J0D01*
G01*
D87*
X2410026Y639143D02*
G03*
X2410026Y639143I-1016J0D01*
G01*
X2291437Y720780D02*
X2400043D01*
Y775280D01*
X2383893D02*
X2400043D01*
X2291437D02*
X2307693D01*
X2291437Y720780D02*
Y775280D01*
X2543302Y738886D02*
Y753872D01*
X2538222Y738886D02*
X2543302D01*
X2463170D02*
Y753872D01*
Y738886D02*
X2468170D01*
X2439670Y437896D02*
Y492396D01*
X2455926D01*
X2507180D02*
X2523330D01*
Y437896D02*
Y492396D01*
X2439670Y437896D02*
X2523330Y437896D01*
D88*
X2459133Y562270D02*
G03*
X2459133Y562270I-1250J0D01*
G01*
D89*
X2434366Y556260D02*
G03*
X2434366Y556260I-3000J0D01*
G01*
D90*
X2649220Y612394D02*
X2649574Y612394D01*
X2668199Y713669D02*
X2668450Y713920D01*
X2623820Y730150D02*
Y730504D01*
D91*
X2459482Y558546D02*
X2459836D01*
X2421565Y659455D02*
X2421816Y659204D01*
X2452698Y660474D02*
X2452949Y660725D01*
X2581656Y753364D02*
Y776460D01*
X2580640Y753364D02*
X2581656D01*
X2569560D02*
X2570560D01*
X2569560D02*
Y776460D01*
X2435335Y662656D02*
X2439432Y662512D01*
X2464920Y637040D01*
X2465101Y632909D01*
X2443725Y611520D02*
X2465101Y632909D01*
X2439448Y611552D02*
X2443725Y611520D01*
X2413960Y637024D02*
X2439448Y611552D01*
X2413959Y641266D02*
X2413960Y637024D01*
X2413959Y641266D02*
X2435335Y662656D01*
X2437294Y639153D02*
X2437295Y636324D01*
X2357120Y688848D02*
Y690372D01*
Y688848D02*
X2358644D01*
X2355596D02*
X2357120D01*
X2355596D02*
X2357120Y690372D01*
X2358644Y688848D01*
X2532380Y486918D02*
Y488442D01*
Y486918D02*
X2533904D01*
X2530856D02*
X2532380D01*
X2530856D02*
X2532380Y488442D01*
X2533904Y486918D01*
X2580894Y455168D02*
X2581248Y455168D01*
X2391085Y460827D02*
X2391336Y460576D01*
D92*
X2636723Y762000D02*
X2637536Y762000D01*
X2679192Y660400D02*
X2680005D01*
X2676690Y726732D02*
X2677265Y727307D01*
X2635250Y477012D02*
X2636063D01*
X2684272Y500380D02*
X2685085Y500380D01*
X2297430Y475285D02*
X2297430Y474472D01*
X2323995Y664569D02*
X2324570Y663994D01*
X2679395Y587248D02*
X2680208Y587248D01*
X2679192Y611632D02*
X2680005D01*
X2679395Y562864D02*
X2680208Y562864D01*
X2565400Y697992D02*
X2565400Y697179D01*
X2531364Y697992D02*
X2531364Y697179D01*
X2599944Y697992D02*
X2599944Y697179D01*
X2573274Y537515D02*
X2573274Y536702D01*
X2504224Y550964D02*
X2504799Y551539D01*
X2485898Y618998D02*
X2486711D01*
X2250440Y514858D02*
X2250440Y514045D01*
X2388146Y666026D02*
X2388721Y666601D01*
X2405021Y649373D02*
X2405596Y649948D01*
X2453027Y611483D02*
X2453602Y610908D01*
X2291080Y655828D02*
X2291893D01*
X2635907Y684679D02*
X2636482Y685254D01*
X2611628Y498348D02*
X2611628Y497535D01*
X2618486Y509524D02*
X2618486Y508711D01*
X2595626Y762254D02*
X2596439D01*
D93*
X2270401Y607419D02*
X2271119Y606701D01*
X2315210Y461772D02*
Y462788D01*
X2532634Y454914D02*
X2533650D01*
X2635250Y455422D02*
X2636266D01*
D94*
X2357120Y644648D02*
X2445508Y556260D01*
X2268732Y556260D02*
X2357120Y467872D01*
X2445508Y556260D01*
X2268732Y556260D02*
X2357120Y644648D01*
D95*
X2297938Y702818D02*
D03*
X2280793D02*
D03*
X2263648D02*
D03*
D96*
X2634512Y547113D02*
D03*
X2649498Y562099D02*
D03*
Y652014D02*
D03*
X2679724Y636016D02*
D03*
D97*
X2260626Y619759D02*
D03*
X2484143Y680720D02*
D03*
X2373596Y708660D02*
D03*
X2341850Y708660D02*
D03*
X2327881D02*
D03*
X2493034Y680722D02*
D03*
X2503193Y680720D02*
D03*
X2327887Y688342D02*
D03*
X2341855Y688344D02*
D03*
X2443451Y506730D02*
D03*
X2288567Y491490D02*
D03*
D98*
X2279124Y624314D02*
D03*
D99*
X2497581Y509301D02*
D03*
X2278123Y770865D02*
D03*
X2529839Y726416D02*
D03*
X2419604Y731751D02*
D03*
X2426970Y488974D02*
D03*
X2293620Y462307D02*
D03*
D100*
X2274570Y652780D02*
D03*
D101*
X2607310Y537234D02*
D03*
X2539492D02*
D03*
D102*
X2298683Y629937D02*
D03*
M02*
