G04 Layer_Color=8388736*
%FSLAX44Y44*%
%MOMM*%
G71*
G01*
G75*
G04:AMPARAMS|DCode=29|XSize=0.6096mm|YSize=0.9144mm|CornerRadius=0.1524mm|HoleSize=0mm|Usage=FLASHONLY|Rotation=45.000|XOffset=0mm|YOffset=0mm|HoleType=Round|Shape=RoundedRectangle|*
%AMROUNDEDRECTD29*
21,1,0.6096,0.6096,0,0,45.0*
21,1,0.3048,0.9144,0,0,45.0*
1,1,0.3048,0.3233,-0.1078*
1,1,0.3048,0.1078,-0.3233*
1,1,0.3048,-0.3233,0.1078*
1,1,0.3048,-0.1078,0.3233*
%
%ADD29ROUNDEDRECTD29*%
G04:AMPARAMS|DCode=30|XSize=0.6096mm|YSize=0.9144mm|CornerRadius=0.1524mm|HoleSize=0mm|Usage=FLASHONLY|Rotation=180.000|XOffset=0mm|YOffset=0mm|HoleType=Round|Shape=RoundedRectangle|*
%AMROUNDEDRECTD30*
21,1,0.6096,0.6096,0,0,180.0*
21,1,0.3048,0.9144,0,0,180.0*
1,1,0.3048,-0.1524,0.3048*
1,1,0.3048,0.1524,0.3048*
1,1,0.3048,0.1524,-0.3048*
1,1,0.3048,-0.1524,-0.3048*
%
%ADD30ROUNDEDRECTD30*%
G04:AMPARAMS|DCode=37|XSize=0.6604mm|YSize=0.3048mm|CornerRadius=0mm|HoleSize=0mm|Usage=FLASHONLY|Rotation=0.002|XOffset=0mm|YOffset=0mm|HoleType=Round|Shape=Rectangle|*
%AMROTATEDRECTD37*
4,1,4,-0.3302,-0.1524,-0.3302,0.1524,0.3302,0.1524,0.3302,-0.1524,-0.3302,-0.1524,0.0*
%
%ADD37ROTATEDRECTD37*%

G04:AMPARAMS|DCode=38|XSize=0.6604mm|YSize=0.3048mm|CornerRadius=0mm|HoleSize=0mm|Usage=FLASHONLY|Rotation=90.002|XOffset=0mm|YOffset=0mm|HoleType=Round|Shape=Rectangle|*
%AMROTATEDRECTD38*
4,1,4,0.1524,-0.3302,-0.1524,-0.3302,-0.1524,0.3302,0.1524,0.3302,0.1524,-0.3302,0.0*
%
%ADD38ROTATEDRECTD38*%

G04:AMPARAMS|DCode=53|XSize=0.6096mm|YSize=0.9144mm|CornerRadius=0.1524mm|HoleSize=0mm|Usage=FLASHONLY|Rotation=90.000|XOffset=0mm|YOffset=0mm|HoleType=Round|Shape=RoundedRectangle|*
%AMROUNDEDRECTD53*
21,1,0.6096,0.6096,0,0,90.0*
21,1,0.3048,0.9144,0,0,90.0*
1,1,0.3048,0.3048,0.1524*
1,1,0.3048,0.3048,-0.1524*
1,1,0.3048,-0.3048,-0.1524*
1,1,0.3048,-0.3048,0.1524*
%
%ADD53ROUNDEDRECTD53*%
G04:AMPARAMS|DCode=54|XSize=0.508mm|YSize=0.6096mm|CornerRadius=0.127mm|HoleSize=0mm|Usage=FLASHONLY|Rotation=90.000|XOffset=0mm|YOffset=0mm|HoleType=Round|Shape=RoundedRectangle|*
%AMROUNDEDRECTD54*
21,1,0.5080,0.3556,0,0,90.0*
21,1,0.2540,0.6096,0,0,90.0*
1,1,0.2540,0.1778,0.1270*
1,1,0.2540,0.1778,-0.1270*
1,1,0.2540,-0.1778,-0.1270*
1,1,0.2540,-0.1778,0.1270*
%
%ADD54ROUNDEDRECTD54*%
G04:AMPARAMS|DCode=58|XSize=0.508mm|YSize=0.6096mm|CornerRadius=0.127mm|HoleSize=0mm|Usage=FLASHONLY|Rotation=225.000|XOffset=0mm|YOffset=0mm|HoleType=Round|Shape=RoundedRectangle|*
%AMROUNDEDRECTD58*
21,1,0.5080,0.3556,0,0,225.0*
21,1,0.2540,0.6096,0,0,225.0*
1,1,0.2540,-0.2155,0.0359*
1,1,0.2540,-0.0359,0.2155*
1,1,0.2540,0.2155,-0.0359*
1,1,0.2540,0.0359,-0.2155*
%
%ADD58ROUNDEDRECTD58*%
%ADD149R,1.3716X0.7620*%
%ADD150R,1.0668X1.1684*%
%ADD151R,1.2446X1.9558*%
%ADD152R,2.4384X1.9558*%
%ADD153R,1.5494X2.1590*%
%ADD154R,0.5080X1.7526*%
G04:AMPARAMS|DCode=155|XSize=0.5588mm|YSize=0.6604mm|CornerRadius=0mm|HoleSize=0mm|Usage=FLASHONLY|Rotation=225.001|XOffset=0mm|YOffset=0mm|HoleType=Round|Shape=Rectangle|*
%AMROTATEDRECTD155*
4,1,4,-0.0359,0.4310,0.4310,-0.0359,0.0359,-0.4310,-0.4310,0.0359,-0.0359,0.4310,0.0*
%
%ADD155ROTATEDRECTD155*%

G04:AMPARAMS|DCode=156|XSize=0.5588mm|YSize=0.6604mm|CornerRadius=0mm|HoleSize=0mm|Usage=FLASHONLY|Rotation=135.009|XOffset=0mm|YOffset=0mm|HoleType=Round|Shape=Rectangle|*
%AMROTATEDRECTD156*
4,1,4,0.4310,0.0360,-0.0359,-0.4311,-0.4310,-0.0360,0.0359,0.4311,0.4310,0.0360,0.0*
%
%ADD156ROTATEDRECTD156*%

G04:AMPARAMS|DCode=157|XSize=0.5588mm|YSize=0.6604mm|CornerRadius=0mm|HoleSize=0mm|Usage=FLASHONLY|Rotation=270.010|XOffset=0mm|YOffset=0mm|HoleType=Round|Shape=Rectangle|*
%AMROTATEDRECTD157*
4,1,4,-0.3302,0.2793,0.3302,0.2795,0.3302,-0.2793,-0.3302,-0.2795,-0.3302,0.2793,0.0*
%
%ADD157ROTATEDRECTD157*%

%ADD158R,0.6604X0.5588*%
G04:AMPARAMS|DCode=159|XSize=0.762mm|YSize=0.9652mm|CornerRadius=0mm|HoleSize=0mm|Usage=FLASHONLY|Rotation=270.010|XOffset=0mm|YOffset=0mm|HoleType=Round|Shape=Rectangle|*
%AMROTATEDRECTD159*
4,1,4,-0.4827,0.3809,0.4825,0.3811,0.4827,-0.3809,-0.4825,-0.3811,-0.4827,0.3809,0.0*
%
%ADD159ROTATEDRECTD159*%

G04:AMPARAMS|DCode=160|XSize=0.6096mm|YSize=1.27mm|CornerRadius=0mm|HoleSize=0mm|Usage=FLASHONLY|Rotation=0.002|XOffset=0mm|YOffset=0mm|HoleType=Round|Shape=Rectangle|*
%AMROTATEDRECTD160*
4,1,4,-0.3048,-0.6350,-0.3048,0.6350,0.3048,0.6350,0.3048,-0.6350,-0.3048,-0.6350,0.0*
%
%ADD160ROTATEDRECTD160*%

G04:AMPARAMS|DCode=161|XSize=0.6096mm|YSize=1.27mm|CornerRadius=0.1651mm|HoleSize=0mm|Usage=FLASHONLY|Rotation=0.002|XOffset=0mm|YOffset=0mm|HoleType=Round|Shape=RoundedRectangle|*
%AMROUNDEDRECTD161*
21,1,0.6096,0.9398,0,0,0.0*
21,1,0.2794,1.2700,0,0,0.0*
1,1,0.3302,0.1397,-0.4699*
1,1,0.3302,-0.1397,-0.4699*
1,1,0.3302,-0.1397,0.4699*
1,1,0.3302,0.1397,0.4699*
%
%ADD161ROUNDEDRECTD161*%
G04:AMPARAMS|DCode=162|XSize=0.5588mm|YSize=0.6604mm|CornerRadius=0mm|HoleSize=0mm|Usage=FLASHONLY|Rotation=135.000|XOffset=0mm|YOffset=0mm|HoleType=Round|Shape=Rectangle|*
%AMROTATEDRECTD162*
4,1,4,0.4310,0.0359,-0.0359,-0.4310,-0.4310,-0.0359,0.0359,0.4310,0.4310,0.0359,0.0*
%
%ADD162ROTATEDRECTD162*%

%ADD163R,0.5588X0.6604*%
G04:AMPARAMS|DCode=164|XSize=0.762mm|YSize=0.9652mm|CornerRadius=0mm|HoleSize=0mm|Usage=FLASHONLY|Rotation=315.019|XOffset=0mm|YOffset=0mm|HoleType=Round|Shape=Rectangle|*
%AMROTATEDRECTD164*
4,1,4,-0.6106,-0.0720,0.0716,0.6107,0.6106,0.0720,-0.0716,-0.6107,-0.6106,-0.0720,0.0*
%
%ADD164ROTATEDRECTD164*%

G04:AMPARAMS|DCode=165|XSize=0.762mm|YSize=0.9652mm|CornerRadius=0mm|HoleSize=0mm|Usage=FLASHONLY|Rotation=180.018|XOffset=0mm|YOffset=0mm|HoleType=Round|Shape=Rectangle|*
%AMROTATEDRECTD165*
4,1,4,0.3809,0.4827,0.3811,-0.4825,-0.3809,-0.4827,-0.3811,0.4825,0.3809,0.4827,0.0*
%
%ADD165ROTATEDRECTD165*%

G04:AMPARAMS|DCode=166|XSize=0.762mm|YSize=0.9652mm|CornerRadius=0mm|HoleSize=0mm|Usage=FLASHONLY|Rotation=45.011|XOffset=0mm|YOffset=0mm|HoleType=Round|Shape=Rectangle|*
%AMROTATEDRECTD166*
4,1,4,0.0720,-0.6106,-0.6107,0.0717,-0.0720,0.6106,0.6107,-0.0717,0.0720,-0.6106,0.0*
%
%ADD166ROTATEDRECTD166*%

G04:AMPARAMS|DCode=167|XSize=1.4732mm|YSize=1.1176mm|CornerRadius=0mm|HoleSize=0mm|Usage=FLASHONLY|Rotation=270.010|XOffset=0mm|YOffset=0mm|HoleType=Round|Shape=Rectangle|*
%AMROTATEDRECTD167*
4,1,4,-0.5589,0.7365,0.5587,0.7367,0.5589,-0.7365,-0.5587,-0.7367,-0.5589,0.7365,0.0*
%
%ADD167ROTATEDRECTD167*%

G04:AMPARAMS|DCode=168|XSize=0.5588mm|YSize=0.6604mm|CornerRadius=0mm|HoleSize=0mm|Usage=FLASHONLY|Rotation=0.002|XOffset=0mm|YOffset=0mm|HoleType=Round|Shape=Rectangle|*
%AMROTATEDRECTD168*
4,1,4,-0.2794,-0.3302,-0.2794,0.3302,0.2794,0.3302,0.2794,-0.3302,-0.2794,-0.3302,0.0*
%
%ADD168ROTATEDRECTD168*%

%ADD169R,3.5560X0.4826*%
%ADD170R,2.0574X0.4826*%
%ADD171R,0.4826X2.0574*%
G04:AMPARAMS|DCode=172|XSize=0.762mm|YSize=1.0668mm|CornerRadius=0mm|HoleSize=0mm|Usage=FLASHONLY|Rotation=90.010|XOffset=0mm|YOffset=0mm|HoleType=Round|Shape=Rectangle|*
%AMROTATEDRECTD172*
4,1,4,0.5335,-0.3809,-0.5333,-0.3811,-0.5335,0.3809,0.5333,0.3811,0.5335,-0.3809,0.0*
%
%ADD172ROTATEDRECTD172*%

G04:AMPARAMS|DCode=173|XSize=0.762mm|YSize=1.0668mm|CornerRadius=0.2032mm|HoleSize=0mm|Usage=FLASHONLY|Rotation=90.010|XOffset=0mm|YOffset=0mm|HoleType=Round|Shape=RoundedRectangle|*
%AMROUNDEDRECTD173*
21,1,0.7620,0.6604,0,0,90.0*
21,1,0.3556,1.0668,0,0,90.0*
1,1,0.4064,0.3302,0.1779*
1,1,0.4064,0.3302,-0.1777*
1,1,0.4064,-0.3302,-0.1779*
1,1,0.4064,-0.3302,0.1777*
%
%ADD173ROUNDEDRECTD173*%
%ADD174P,1.2213X4X315.0*%
G04:AMPARAMS|DCode=175|XSize=0.4572mm|YSize=1.0922mm|CornerRadius=0mm|HoleSize=0mm|Usage=FLASHONLY|Rotation=135.009|XOffset=0mm|YOffset=0mm|HoleType=Round|Shape=Rectangle|*
%AMROTATEDRECTD175*
4,1,4,0.5478,0.2246,-0.2244,-0.5478,-0.5478,-0.2246,0.2244,0.5478,0.5478,0.2246,0.0*
%
%ADD175ROTATEDRECTD175*%

G04:AMPARAMS|DCode=176|XSize=0.762mm|YSize=0.9652mm|CornerRadius=0.2032mm|HoleSize=0mm|Usage=FLASHONLY|Rotation=90.000|XOffset=0mm|YOffset=0mm|HoleType=Round|Shape=RoundedRectangle|*
%AMROUNDEDRECTD176*
21,1,0.7620,0.5588,0,0,90.0*
21,1,0.3556,0.9652,0,0,90.0*
1,1,0.4064,0.2794,0.1778*
1,1,0.4064,0.2794,-0.1778*
1,1,0.4064,-0.2794,-0.1778*
1,1,0.4064,-0.2794,0.1778*
%
%ADD176ROUNDEDRECTD176*%
%ADD177R,1.1684X2.0574*%
%ADD178R,0.8636X0.8636*%
G04:AMPARAMS|DCode=179|XSize=1.4732mm|YSize=1.27mm|CornerRadius=0mm|HoleSize=0mm|Usage=FLASHONLY|Rotation=315.019|XOffset=0mm|YOffset=0mm|HoleType=Round|Shape=Rectangle|*
%AMROTATEDRECTD179*
4,1,4,-0.9699,0.0715,-0.0722,0.9698,0.9699,-0.0715,0.0722,-0.9698,-0.9699,0.0715,0.0*
%
%ADD179ROTATEDRECTD179*%

%ADD180R,0.6604X0.6604*%
%ADD181R,0.4572X0.4572*%
%ADD182R,0.6604X0.6604*%
%ADD183R,0.4572X0.4572*%
G04:AMPARAMS|DCode=184|XSize=0.9652mm|YSize=1.651mm|CornerRadius=0mm|HoleSize=0mm|Usage=FLASHONLY|Rotation=315.000|XOffset=0mm|YOffset=0mm|HoleType=Round|Shape=Rectangle|*
%AMROTATEDRECTD184*
4,1,4,-0.9250,-0.2425,0.2425,0.9250,0.9250,0.2425,-0.2425,-0.9250,-0.9250,-0.2425,0.0*
%
%ADD184ROTATEDRECTD184*%

%ADD185R,0.9652X1.6510*%
G04:AMPARAMS|DCode=186|XSize=0.508mm|YSize=0.2794mm|CornerRadius=0.0826mm|HoleSize=0mm|Usage=FLASHONLY|Rotation=270.000|XOffset=0mm|YOffset=0mm|HoleType=Round|Shape=RoundedRectangle|*
%AMROUNDEDRECTD186*
21,1,0.5080,0.1143,0,0,270.0*
21,1,0.3429,0.2794,0,0,270.0*
1,1,0.1651,-0.0572,-0.1714*
1,1,0.1651,-0.0572,0.1714*
1,1,0.1651,0.0572,0.1714*
1,1,0.1651,0.0572,-0.1714*
%
%ADD186ROUNDEDRECTD186*%
G04:AMPARAMS|DCode=187|XSize=0.508mm|YSize=0.2794mm|CornerRadius=0.0826mm|HoleSize=0mm|Usage=FLASHONLY|Rotation=0.000|XOffset=0mm|YOffset=0mm|HoleType=Round|Shape=RoundedRectangle|*
%AMROUNDEDRECTD187*
21,1,0.5080,0.1143,0,0,0.0*
21,1,0.3429,0.2794,0,0,0.0*
1,1,0.1651,0.1714,-0.0572*
1,1,0.1651,-0.1714,-0.0572*
1,1,0.1651,-0.1714,0.0572*
1,1,0.1651,0.1714,0.0572*
%
%ADD187ROUNDEDRECTD187*%
G04:AMPARAMS|DCode=188|XSize=0.6604mm|YSize=1.7526mm|CornerRadius=0.3302mm|HoleSize=0mm|Usage=FLASHONLY|Rotation=0.000|XOffset=0mm|YOffset=0mm|HoleType=Round|Shape=RoundedRectangle|*
%AMROUNDEDRECTD188*
21,1,0.6604,1.0922,0,0,0.0*
21,1,0.0000,1.7526,0,0,0.0*
1,1,0.6604,0.0000,-0.5461*
1,1,0.6604,0.0000,-0.5461*
1,1,0.6604,0.0000,0.5461*
1,1,0.6604,0.0000,0.5461*
%
%ADD188ROUNDEDRECTD188*%
G04:AMPARAMS|DCode=189|XSize=2.8702mm|YSize=1.0668mm|CornerRadius=0.5334mm|HoleSize=0mm|Usage=FLASHONLY|Rotation=90.000|XOffset=0mm|YOffset=0mm|HoleType=Round|Shape=RoundedRectangle|*
%AMROUNDEDRECTD189*
21,1,2.8702,0.0000,0,0,90.0*
21,1,1.8034,1.0668,0,0,90.0*
1,1,1.0668,0.0000,0.9017*
1,1,1.0668,0.0000,-0.9017*
1,1,1.0668,0.0000,-0.9017*
1,1,1.0668,0.0000,0.9017*
%
%ADD189ROUNDEDRECTD189*%
%ADD190R,0.4826X1.3716*%
G04:AMPARAMS|DCode=191|XSize=0.3508mm|YSize=1.8508mm|CornerRadius=0mm|HoleSize=0mm|Usage=FLASHONLY|Rotation=315.000|XOffset=0mm|YOffset=0mm|HoleType=Round|Shape=Round|*
%AMOVALD191*
21,1,1.5000,0.3508,0.0000,0.0000,45.0*
1,1,0.3508,-0.5303,-0.5303*
1,1,0.3508,0.5303,0.5303*
%
%ADD191OVALD191*%

G04:AMPARAMS|DCode=192|XSize=0.3508mm|YSize=1.8508mm|CornerRadius=0mm|HoleSize=0mm|Usage=FLASHONLY|Rotation=225.000|XOffset=0mm|YOffset=0mm|HoleType=Round|Shape=Round|*
%AMOVALD192*
21,1,1.5000,0.3508,0.0000,0.0000,315.0*
1,1,0.3508,-0.5303,0.5303*
1,1,0.3508,0.5303,-0.5303*
%
%ADD192OVALD192*%

%ADD193C,0.0508*%
G04:AMPARAMS|DCode=194|XSize=1.5508mm|YSize=1.0508mm|CornerRadius=0.2754mm|HoleSize=0mm|Usage=FLASHONLY|Rotation=180.000|XOffset=0mm|YOffset=0mm|HoleType=Round|Shape=RoundedRectangle|*
%AMROUNDEDRECTD194*
21,1,1.5508,0.5000,0,0,180.0*
21,1,1.0000,1.0508,0,0,180.0*
1,1,0.5508,-0.5000,0.2500*
1,1,0.5508,0.5000,0.2500*
1,1,0.5508,0.5000,-0.2500*
1,1,0.5508,-0.5000,-0.2500*
%
%ADD194ROUNDEDRECTD194*%
%ADD195C,1.5508*%
%ADD196O,2.5908X7.0508*%
%ADD197C,2.1368*%
%ADD198C,3.1369*%
%ADD199C,1.2700*%
%ADD200R,1.2700X1.2700*%
%ADD201C,4.7371*%
%ADD202C,4.1656*%
%ADD203R,1.5508X1.5508*%
D29*
X2275710Y612010D02*
D03*
X2265810Y602110D02*
D03*
D30*
X2308210Y462280D02*
D03*
X2322210D02*
D03*
D37*
X2591580Y475585D02*
D03*
X2591580Y469085D02*
D03*
X2591580Y462585D02*
D03*
X2591580Y456085D02*
D03*
X2625580Y456087D02*
D03*
X2625580Y462587D02*
D03*
X2625580Y469087D02*
D03*
X2625580Y475587D02*
D03*
D38*
X2598831Y448836D02*
D03*
X2605331Y448836D02*
D03*
X2611831Y448836D02*
D03*
X2618331Y448836D02*
D03*
X2618329Y482836D02*
D03*
X2611830Y482836D02*
D03*
X2605329Y482836D02*
D03*
X2598829Y482836D02*
D03*
D53*
X2533142Y461914D02*
D03*
Y447914D02*
D03*
X2635758Y448422D02*
D03*
Y462422D02*
D03*
D54*
X2581148Y459168D02*
D03*
Y451168D02*
D03*
D58*
X2388328Y457928D02*
D03*
X2393984Y463584D02*
D03*
D149*
X2279904Y756412D02*
D03*
Y745236D02*
D03*
Y734236D02*
D03*
X2250168Y734236D02*
D03*
Y745236D02*
D03*
Y756412D02*
D03*
D150*
X2297938Y694182D02*
D03*
Y711318D02*
D03*
X2280793Y694182D02*
D03*
Y711318D02*
D03*
X2263648Y694182D02*
D03*
Y711318D02*
D03*
D151*
X2511552Y767080D02*
D03*
X2494795D02*
D03*
D152*
X2473670D02*
D03*
X2532888D02*
D03*
D153*
X2478170Y743966D02*
D03*
X2528316D02*
D03*
D154*
X2516378Y738886D02*
D03*
X2490170D02*
D03*
X2496670D02*
D03*
X2509774D02*
D03*
X2503170D02*
D03*
D155*
X2425172Y662920D02*
D03*
X2418044Y655792D02*
D03*
X2295164Y626385D02*
D03*
X2302292Y633512D02*
D03*
D156*
X2456414Y657119D02*
D03*
X2449285Y664246D02*
D03*
D157*
X2634487Y552116D02*
D03*
X2634489Y542036D02*
D03*
X2649473Y567102D02*
D03*
X2649475Y557022D02*
D03*
Y646938D02*
D03*
X2649473Y657018D02*
D03*
X2679699Y641016D02*
D03*
X2679701Y630936D02*
D03*
X2373630Y703660D02*
D03*
Y713740D02*
D03*
X2341880D02*
D03*
Y703660D02*
D03*
X2327910Y713740D02*
D03*
Y703660D02*
D03*
Y683340D02*
D03*
Y693420D02*
D03*
X2341880Y683340D02*
D03*
Y693420D02*
D03*
X2443480Y501730D02*
D03*
Y511810D02*
D03*
D158*
X2260600Y614680D02*
D03*
Y624760D02*
D03*
X2484120Y675640D02*
D03*
X2484120Y685720D02*
D03*
X2493010Y675640D02*
D03*
X2493010Y685720D02*
D03*
X2503170Y675640D02*
D03*
X2503170Y685720D02*
D03*
X2357120Y684530D02*
D03*
Y694610D02*
D03*
X2532380Y482600D02*
D03*
Y492680D02*
D03*
X2288540Y496490D02*
D03*
Y486410D02*
D03*
D159*
X2637027Y768500D02*
D03*
X2637029Y755396D02*
D03*
X2274570Y646280D02*
D03*
Y659384D02*
D03*
Y672338D02*
D03*
X2679700Y653900D02*
D03*
Y667004D02*
D03*
X2635758Y470512D02*
D03*
Y483616D02*
D03*
X2684781Y493880D02*
D03*
X2684779Y506984D02*
D03*
X2679699Y593748D02*
D03*
X2679701Y580644D02*
D03*
X2679700Y605132D02*
D03*
Y618236D02*
D03*
X2679699Y569364D02*
D03*
X2679701Y556260D02*
D03*
X2486406Y612498D02*
D03*
Y625602D02*
D03*
X2291588Y649328D02*
D03*
Y662432D02*
D03*
X2596134Y768858D02*
D03*
D160*
X2607209Y748999D02*
D03*
X2616708Y748999D02*
D03*
X2626360Y748999D02*
D03*
X2626360Y775208D02*
D03*
D161*
X2607208Y775208D02*
D03*
D162*
X2275550Y627924D02*
D03*
X2282677Y620796D02*
D03*
D163*
X2492582Y509270D02*
D03*
X2502662D02*
D03*
X2273046Y770889D02*
D03*
X2283126Y770891D02*
D03*
X2534840Y726441D02*
D03*
X2524760Y726439D02*
D03*
X2424858Y731520D02*
D03*
X2414778D02*
D03*
X2421970Y488950D02*
D03*
X2432050D02*
D03*
X2288620Y462280D02*
D03*
X2298700D02*
D03*
D164*
X2672308Y731543D02*
D03*
X2681577Y722280D02*
D03*
X2499842Y555775D02*
D03*
X2509111Y546512D02*
D03*
X2383764Y670837D02*
D03*
X2393033Y661574D02*
D03*
X2409977Y645136D02*
D03*
X2400710Y654401D02*
D03*
X2640863Y680443D02*
D03*
X2631595Y689707D02*
D03*
D165*
X2303930Y474982D02*
D03*
X2290826Y474978D02*
D03*
X2558900Y697484D02*
D03*
X2572004Y697484D02*
D03*
X2524864Y697484D02*
D03*
X2537968Y697484D02*
D03*
X2593444Y697484D02*
D03*
X2606548Y697484D02*
D03*
X2579774Y537212D02*
D03*
X2566670Y537208D02*
D03*
X2243940Y514349D02*
D03*
X2257044Y514351D02*
D03*
X2605128Y497840D02*
D03*
X2618232Y497840D02*
D03*
X2611986Y509016D02*
D03*
X2625090Y509016D02*
D03*
D166*
X2319759Y659613D02*
D03*
X2329023Y668881D02*
D03*
X2448791Y606527D02*
D03*
X2458055Y615795D02*
D03*
D167*
X2260973Y459485D02*
D03*
X2260967Y495519D02*
D03*
X2275589Y459487D02*
D03*
X2275583Y495521D02*
D03*
D168*
X2612390Y537210D02*
D03*
X2602310Y537210D02*
D03*
X2544572Y537210D02*
D03*
X2534492Y537210D02*
D03*
D169*
X2511044Y612966D02*
D03*
D170*
Y604966D02*
D03*
Y596966D02*
D03*
Y588966D02*
D03*
Y580966D02*
D03*
Y572966D02*
D03*
Y621030D02*
D03*
Y629158D02*
D03*
Y637032D02*
D03*
Y645160D02*
D03*
Y653034D02*
D03*
Y661162D02*
D03*
X2627864Y572966D02*
D03*
Y580966D02*
D03*
Y588966D02*
D03*
Y596966D02*
D03*
Y604966D02*
D03*
Y612966D02*
D03*
Y621030D02*
D03*
Y629158D02*
D03*
Y637032D02*
D03*
Y645160D02*
D03*
Y653034D02*
D03*
Y661162D02*
D03*
D171*
X2525268Y558566D02*
D03*
X2533396D02*
D03*
X2541270D02*
D03*
X2549398D02*
D03*
X2557272D02*
D03*
X2565400D02*
D03*
X2573464D02*
D03*
X2581464D02*
D03*
X2589464D02*
D03*
X2597464D02*
D03*
X2605464D02*
D03*
X2613464D02*
D03*
Y675386D02*
D03*
X2605464D02*
D03*
X2597464D02*
D03*
X2589464D02*
D03*
X2581464D02*
D03*
X2573464D02*
D03*
X2565400D02*
D03*
X2557272D02*
D03*
X2549398D02*
D03*
X2541270D02*
D03*
X2533396D02*
D03*
X2525268D02*
D03*
D172*
X2479612Y506122D02*
D03*
X2479610Y515622D02*
D03*
X2455418Y515618D02*
D03*
X2455420Y506118D02*
D03*
D173*
X2479608Y525274D02*
D03*
X2455416Y525270D02*
D03*
D174*
X2262632Y771144D02*
D03*
X2247512Y771144D02*
D03*
D175*
X2682989Y521890D02*
D03*
X2678392Y526485D02*
D03*
X2673759Y531118D02*
D03*
X2669088Y535787D02*
D03*
X2635060Y501749D02*
D03*
X2639731Y497079D02*
D03*
X2644365Y492447D02*
D03*
X2648961Y487852D02*
D03*
D176*
X2596134Y755754D02*
D03*
D177*
X2575560Y771960D02*
D03*
D178*
Y752856D02*
D03*
D179*
X2437740Y650916D02*
D03*
X2453426Y635241D02*
D03*
X2425627Y638795D02*
D03*
X2441313Y623120D02*
D03*
D180*
X2531490Y506730D02*
D03*
X2515362Y506730D02*
D03*
D181*
X2523490Y510730D02*
D03*
Y502666D02*
D03*
Y506730D02*
D03*
D182*
X2369820Y676530D02*
D03*
Y692658D02*
D03*
D183*
X2373820Y684530D02*
D03*
X2365756D02*
D03*
X2369820D02*
D03*
D184*
X2678687Y703323D02*
D03*
X2658017Y723993D02*
D03*
D185*
X2638552Y730250D02*
D03*
X2609320D02*
D03*
D186*
X2549050Y477012D02*
D03*
X2553050D02*
D03*
X2557050D02*
D03*
X2561082D02*
D03*
X2565146D02*
D03*
X2569210D02*
D03*
Y448788D02*
D03*
X2565146D02*
D03*
X2561082D02*
D03*
X2557050D02*
D03*
X2553050D02*
D03*
X2549050D02*
D03*
D187*
X2573274Y472948D02*
D03*
Y468884D02*
D03*
Y464820D02*
D03*
Y460788D02*
D03*
Y456788D02*
D03*
Y452788D02*
D03*
X2545050D02*
D03*
Y456788D02*
D03*
Y460788D02*
D03*
Y464820D02*
D03*
Y468884D02*
D03*
Y472948D02*
D03*
D188*
X2500330Y492396D02*
D03*
X2487830D02*
D03*
X2475230D02*
D03*
X2462784D02*
D03*
X2316980Y727820D02*
D03*
X2329480D02*
D03*
X2341980D02*
D03*
X2354580D02*
D03*
X2367026D02*
D03*
X2379726D02*
D03*
D189*
X2519830Y460896D02*
D03*
X2443226Y460896D02*
D03*
X2297480Y759320D02*
D03*
X2399030D02*
D03*
D190*
X2408330Y450530D02*
D03*
X2414830D02*
D03*
X2421382D02*
D03*
X2427986D02*
D03*
Y474218D02*
D03*
X2421382D02*
D03*
X2414830D02*
D03*
X2408330D02*
D03*
D191*
X2452933Y567220D02*
D03*
X2449397Y570756D02*
D03*
X2445862Y574291D02*
D03*
X2442326Y577827D02*
D03*
X2438791Y581362D02*
D03*
X2435255Y584898D02*
D03*
X2431720Y588433D02*
D03*
X2428184Y591969D02*
D03*
X2424649Y595504D02*
D03*
X2421113Y599040D02*
D03*
X2417578Y602575D02*
D03*
X2414042Y606111D02*
D03*
X2410506Y609647D02*
D03*
X2406971Y613182D02*
D03*
X2403436Y616718D02*
D03*
X2399900Y620253D02*
D03*
X2396364Y623789D02*
D03*
X2392829Y627324D02*
D03*
X2389293Y630860D02*
D03*
X2385758Y634395D02*
D03*
X2382222Y637931D02*
D03*
X2378687Y641467D02*
D03*
X2375151Y645002D02*
D03*
X2371616Y648537D02*
D03*
X2368080Y652073D02*
D03*
X2261307Y545300D02*
D03*
X2264843Y541764D02*
D03*
X2268378Y538229D02*
D03*
X2271914Y534693D02*
D03*
X2275449Y531158D02*
D03*
X2278985Y527622D02*
D03*
X2282520Y524087D02*
D03*
X2286056Y520551D02*
D03*
X2289591Y517016D02*
D03*
X2293127Y513480D02*
D03*
X2296662Y509945D02*
D03*
X2300198Y506409D02*
D03*
X2303734Y502873D02*
D03*
X2307269Y499338D02*
D03*
X2310804Y495802D02*
D03*
X2314340Y492267D02*
D03*
X2317876Y488731D02*
D03*
X2321411Y485196D02*
D03*
X2324947Y481660D02*
D03*
X2328482Y478125D02*
D03*
X2332018Y474589D02*
D03*
X2335553Y471053D02*
D03*
X2339089Y467518D02*
D03*
X2342624Y463983D02*
D03*
X2346160Y460447D02*
D03*
D192*
X2346160Y652073D02*
D03*
X2342624Y648537D02*
D03*
X2339089Y645002D02*
D03*
X2335553Y641466D02*
D03*
X2332018Y637931D02*
D03*
X2328482Y634395D02*
D03*
X2324947Y630860D02*
D03*
X2321411Y627324D02*
D03*
X2317876Y623789D02*
D03*
X2314340Y620253D02*
D03*
X2310805Y616718D02*
D03*
X2307269Y613182D02*
D03*
X2303733Y609646D02*
D03*
X2300198Y606111D02*
D03*
X2296662Y602575D02*
D03*
X2293127Y599040D02*
D03*
X2289591Y595504D02*
D03*
X2286056Y591969D02*
D03*
X2282520Y588433D02*
D03*
X2278985Y584898D02*
D03*
X2275449Y581362D02*
D03*
X2271913Y577827D02*
D03*
X2268378Y574291D02*
D03*
X2264843Y570756D02*
D03*
X2261307Y567220D02*
D03*
X2368080Y460447D02*
D03*
X2371616Y463983D02*
D03*
X2375151Y467518D02*
D03*
X2378687Y471054D02*
D03*
X2382222Y474589D02*
D03*
X2385758Y478125D02*
D03*
X2389293Y481660D02*
D03*
X2392829Y485196D02*
D03*
X2396364Y488731D02*
D03*
X2399900Y492267D02*
D03*
X2403435Y495802D02*
D03*
X2406971Y499338D02*
D03*
X2410507Y502874D02*
D03*
X2414042Y506409D02*
D03*
X2417578Y509944D02*
D03*
X2421113Y513480D02*
D03*
X2424649Y517015D02*
D03*
X2428184Y520551D02*
D03*
X2431720Y524087D02*
D03*
X2435255Y527622D02*
D03*
X2438791Y531158D02*
D03*
X2442327Y534693D02*
D03*
X2445862Y538229D02*
D03*
X2449397Y541764D02*
D03*
X2452933Y545300D02*
D03*
D193*
X2519934Y441198D02*
D03*
D194*
X2494534D02*
D03*
X2469134D02*
D03*
D195*
X2443734D02*
D03*
X2359660Y793750D02*
D03*
X2334260D02*
D03*
X2308860D02*
D03*
X2283460D02*
D03*
X2258060D02*
D03*
X2340610Y603504D02*
D03*
X2313178Y706120D02*
D03*
X2349246Y669290D02*
D03*
X2308098Y644906D02*
D03*
X2310384Y675132D02*
D03*
X2368550Y440690D02*
D03*
X2343150D02*
D03*
X2317750D02*
D03*
X2292350D02*
D03*
X2266950D02*
D03*
D196*
X2240280Y462534D02*
D03*
X2702306Y567182D02*
D03*
X2701798Y673354D02*
D03*
D197*
X2569464Y506966D02*
D03*
D198*
Y727202D02*
D03*
D199*
X2246376Y607314D02*
D03*
Y632714D02*
D03*
Y658114D02*
D03*
Y683514D02*
D03*
Y581914D02*
D03*
Y556514D02*
D03*
D200*
Y708914D02*
D03*
D201*
X2406376Y700514D02*
D03*
D202*
X2669286Y769112D02*
D03*
Y465074D02*
D03*
X2429510Y769112D02*
D03*
D203*
X2385060Y793750D02*
D03*
X2393950Y440690D02*
D03*
M02*
