G04 Layer_Physical_Order=1*
G04 Layer_Color=255*
%FSLAX44Y44*%
%MOMM*%
G71*
G01*
G75*
G04:AMPARAMS|DCode=10|XSize=2.8194mm|YSize=1.016mm|CornerRadius=0.508mm|HoleSize=0mm|Usage=FLASHONLY|Rotation=90.000|XOffset=0mm|YOffset=0mm|HoleType=Round|Shape=RoundedRectangle|*
%AMROUNDEDRECTD10*
21,1,2.8194,0.0000,0,0,90.0*
21,1,1.8034,1.0160,0,0,90.0*
1,1,1.0160,0.0000,0.9017*
1,1,1.0160,0.0000,-0.9017*
1,1,1.0160,0.0000,-0.9017*
1,1,1.0160,0.0000,0.9017*
%
%ADD10ROUNDEDRECTD10*%
G04:AMPARAMS|DCode=11|XSize=0.6096mm|YSize=1.7018mm|CornerRadius=0.3048mm|HoleSize=0mm|Usage=FLASHONLY|Rotation=0.000|XOffset=0mm|YOffset=0mm|HoleType=Round|Shape=RoundedRectangle|*
%AMROUNDEDRECTD11*
21,1,0.6096,1.0922,0,0,0.0*
21,1,0.0000,1.7018,0,0,0.0*
1,1,0.6096,0.0000,-0.5461*
1,1,0.6096,0.0000,-0.5461*
1,1,0.6096,0.0000,0.5461*
1,1,0.6096,0.0000,0.5461*
%
%ADD11ROUNDEDRECTD11*%
%ADD12R,1.6002X0.9144*%
G04:AMPARAMS|DCode=13|XSize=0.508mm|YSize=0.6096mm|CornerRadius=0.127mm|HoleSize=0mm|Usage=FLASHONLY|Rotation=90.000|XOffset=0mm|YOffset=0mm|HoleType=Round|Shape=RoundedRectangle|*
%AMROUNDEDRECTD13*
21,1,0.5080,0.3556,0,0,90.0*
21,1,0.2540,0.6096,0,0,90.0*
1,1,0.2540,0.1778,0.1270*
1,1,0.2540,0.1778,-0.1270*
1,1,0.2540,-0.1778,-0.1270*
1,1,0.2540,-0.1778,0.1270*
%
%ADD13ROUNDEDRECTD13*%
%ADD14R,1.3208X0.7112*%
%ADD15R,1.0160X1.1176*%
%ADD16R,1.1938X1.9050*%
%ADD17R,2.3876X1.9050*%
%ADD18R,1.4986X2.1082*%
%ADD19R,0.4572X1.7018*%
G04:AMPARAMS|DCode=20|XSize=0.508mm|YSize=0.6096mm|CornerRadius=0mm|HoleSize=0mm|Usage=FLASHONLY|Rotation=225.001|XOffset=0mm|YOffset=0mm|HoleType=Round|Shape=Rectangle|*
%AMROTATEDRECTD20*
4,1,4,-0.0359,0.3951,0.3951,-0.0359,0.0359,-0.3951,-0.3951,0.0359,-0.0359,0.3951,0.0*
%
%ADD20ROTATEDRECTD20*%

G04:AMPARAMS|DCode=21|XSize=0.508mm|YSize=0.6096mm|CornerRadius=0mm|HoleSize=0mm|Usage=FLASHONLY|Rotation=135.009|XOffset=0mm|YOffset=0mm|HoleType=Round|Shape=Rectangle|*
%AMROTATEDRECTD21*
4,1,4,0.3951,0.0360,-0.0359,-0.3951,-0.3951,-0.0360,0.0359,0.3951,0.3951,0.0360,0.0*
%
%ADD21ROTATEDRECTD21*%

G04:AMPARAMS|DCode=22|XSize=0.508mm|YSize=0.6096mm|CornerRadius=0mm|HoleSize=0mm|Usage=FLASHONLY|Rotation=270.010|XOffset=0mm|YOffset=0mm|HoleType=Round|Shape=Rectangle|*
%AMROTATEDRECTD22*
4,1,4,-0.3048,0.2540,0.3048,0.2541,0.3048,-0.2540,-0.3048,-0.2541,-0.3048,0.2540,0.0*
%
%ADD22ROTATEDRECTD22*%

%ADD23R,0.6096X0.5080*%
G04:AMPARAMS|DCode=24|XSize=0.7112mm|YSize=0.9144mm|CornerRadius=0mm|HoleSize=0mm|Usage=FLASHONLY|Rotation=270.010|XOffset=0mm|YOffset=0mm|HoleType=Round|Shape=Rectangle|*
%AMROTATEDRECTD24*
4,1,4,-0.4573,0.3555,0.4571,0.3557,0.4573,-0.3555,-0.4571,-0.3557,-0.4573,0.3555,0.0*
%
%ADD24ROTATEDRECTD24*%

G04:AMPARAMS|DCode=25|XSize=0.5588mm|YSize=1.2192mm|CornerRadius=0mm|HoleSize=0mm|Usage=FLASHONLY|Rotation=0.002|XOffset=0mm|YOffset=0mm|HoleType=Round|Shape=Rectangle|*
%AMROTATEDRECTD25*
4,1,4,-0.2794,-0.6096,-0.2794,0.6096,0.2794,0.6096,0.2794,-0.6096,-0.2794,-0.6096,0.0*
%
%ADD25ROTATEDRECTD25*%

G04:AMPARAMS|DCode=26|XSize=0.5588mm|YSize=1.2192mm|CornerRadius=0.1397mm|HoleSize=0mm|Usage=FLASHONLY|Rotation=0.002|XOffset=0mm|YOffset=0mm|HoleType=Round|Shape=RoundedRectangle|*
%AMROUNDEDRECTD26*
21,1,0.5588,0.9398,0,0,0.0*
21,1,0.2794,1.2192,0,0,0.0*
1,1,0.2794,0.1397,-0.4699*
1,1,0.2794,-0.1397,-0.4699*
1,1,0.2794,-0.1397,0.4699*
1,1,0.2794,0.1397,0.4699*
%
%ADD26ROUNDEDRECTD26*%
G04:AMPARAMS|DCode=27|XSize=0.508mm|YSize=0.6096mm|CornerRadius=0mm|HoleSize=0mm|Usage=FLASHONLY|Rotation=135.000|XOffset=0mm|YOffset=0mm|HoleType=Round|Shape=Rectangle|*
%AMROTATEDRECTD27*
4,1,4,0.3951,0.0359,-0.0359,-0.3951,-0.3951,-0.0359,0.0359,0.3951,0.3951,0.0359,0.0*
%
%ADD27ROTATEDRECTD27*%

%ADD28R,0.5080X0.6096*%
G04:AMPARAMS|DCode=29|XSize=0.7112mm|YSize=0.9144mm|CornerRadius=0mm|HoleSize=0mm|Usage=FLASHONLY|Rotation=315.019|XOffset=0mm|YOffset=0mm|HoleType=Round|Shape=Rectangle|*
%AMROTATEDRECTD29*
4,1,4,-0.5747,-0.0720,0.0717,0.5748,0.5747,0.0720,-0.0717,-0.5748,-0.5747,-0.0720,0.0*
%
%ADD29ROTATEDRECTD29*%

G04:AMPARAMS|DCode=30|XSize=0.7112mm|YSize=0.9144mm|CornerRadius=0mm|HoleSize=0mm|Usage=FLASHONLY|Rotation=180.018|XOffset=0mm|YOffset=0mm|HoleType=Round|Shape=Rectangle|*
%AMROTATEDRECTD30*
4,1,4,0.3555,0.4573,0.3557,-0.4571,-0.3555,-0.4573,-0.3557,0.4571,0.3555,0.4573,0.0*
%
%ADD30ROTATEDRECTD30*%

G04:AMPARAMS|DCode=31|XSize=0.7112mm|YSize=0.9144mm|CornerRadius=0mm|HoleSize=0mm|Usage=FLASHONLY|Rotation=45.011|XOffset=0mm|YOffset=0mm|HoleType=Round|Shape=Rectangle|*
%AMROTATEDRECTD31*
4,1,4,0.0720,-0.5747,-0.5747,0.0717,-0.0720,0.5747,0.5747,-0.0717,0.0720,-0.5747,0.0*
%
%ADD31ROTATEDRECTD31*%

G04:AMPARAMS|DCode=32|XSize=1.4224mm|YSize=1.0668mm|CornerRadius=0mm|HoleSize=0mm|Usage=FLASHONLY|Rotation=270.010|XOffset=0mm|YOffset=0mm|HoleType=Round|Shape=Rectangle|*
%AMROTATEDRECTD32*
4,1,4,-0.5335,0.7111,0.5333,0.7113,0.5335,-0.7111,-0.5333,-0.7113,-0.5335,0.7111,0.0*
%
%ADD32ROTATEDRECTD32*%

G04:AMPARAMS|DCode=33|XSize=0.6096mm|YSize=0.9144mm|CornerRadius=0.1524mm|HoleSize=0mm|Usage=FLASHONLY|Rotation=45.000|XOffset=0mm|YOffset=0mm|HoleType=Round|Shape=RoundedRectangle|*
%AMROUNDEDRECTD33*
21,1,0.6096,0.6096,0,0,45.0*
21,1,0.3048,0.9144,0,0,45.0*
1,1,0.3048,0.3233,-0.1078*
1,1,0.3048,0.1078,-0.3233*
1,1,0.3048,-0.3233,0.1078*
1,1,0.3048,-0.1078,0.3233*
%
%ADD33ROUNDEDRECTD33*%
G04:AMPARAMS|DCode=34|XSize=0.6096mm|YSize=0.9144mm|CornerRadius=0.1524mm|HoleSize=0mm|Usage=FLASHONLY|Rotation=180.000|XOffset=0mm|YOffset=0mm|HoleType=Round|Shape=RoundedRectangle|*
%AMROUNDEDRECTD34*
21,1,0.6096,0.6096,0,0,180.0*
21,1,0.3048,0.9144,0,0,180.0*
1,1,0.3048,-0.1524,0.3048*
1,1,0.3048,0.1524,0.3048*
1,1,0.3048,0.1524,-0.3048*
1,1,0.3048,-0.1524,-0.3048*
%
%ADD34ROUNDEDRECTD34*%
G04:AMPARAMS|DCode=35|XSize=0.508mm|YSize=0.6096mm|CornerRadius=0mm|HoleSize=0mm|Usage=FLASHONLY|Rotation=0.002|XOffset=0mm|YOffset=0mm|HoleType=Round|Shape=Rectangle|*
%AMROTATEDRECTD35*
4,1,4,-0.2540,-0.3048,-0.2540,0.3048,0.2540,0.3048,0.2540,-0.3048,-0.2540,-0.3048,0.0*
%
%ADD35ROTATEDRECTD35*%

%ADD36R,3.5052X0.4318*%
%ADD37R,2.0066X0.4318*%
%ADD38R,0.4318X2.0066*%
G04:AMPARAMS|DCode=39|XSize=0.7112mm|YSize=1.016mm|CornerRadius=0mm|HoleSize=0mm|Usage=FLASHONLY|Rotation=90.010|XOffset=0mm|YOffset=0mm|HoleType=Round|Shape=Rectangle|*
%AMROTATEDRECTD39*
4,1,4,0.5081,-0.3555,-0.5079,-0.3557,-0.5081,0.3555,0.5079,0.3557,0.5081,-0.3555,0.0*
%
%ADD39ROTATEDRECTD39*%

G04:AMPARAMS|DCode=40|XSize=0.7112mm|YSize=1.016mm|CornerRadius=0.1778mm|HoleSize=0mm|Usage=FLASHONLY|Rotation=90.010|XOffset=0mm|YOffset=0mm|HoleType=Round|Shape=RoundedRectangle|*
%AMROUNDEDRECTD40*
21,1,0.7112,0.6604,0,0,90.0*
21,1,0.3556,1.0160,0,0,90.0*
1,1,0.3556,0.3302,0.1779*
1,1,0.3556,0.3302,-0.1777*
1,1,0.3556,-0.3302,-0.1779*
1,1,0.3556,-0.3302,0.1777*
%
%ADD40ROUNDEDRECTD40*%
G04:AMPARAMS|DCode=41|XSize=0.6604mm|YSize=0.3048mm|CornerRadius=0mm|HoleSize=0mm|Usage=FLASHONLY|Rotation=0.002|XOffset=0mm|YOffset=0mm|HoleType=Round|Shape=Rectangle|*
%AMROTATEDRECTD41*
4,1,4,-0.3302,-0.1524,-0.3302,0.1524,0.3302,0.1524,0.3302,-0.1524,-0.3302,-0.1524,0.0*
%
%ADD41ROTATEDRECTD41*%

G04:AMPARAMS|DCode=42|XSize=0.6604mm|YSize=0.3048mm|CornerRadius=0mm|HoleSize=0mm|Usage=FLASHONLY|Rotation=90.002|XOffset=0mm|YOffset=0mm|HoleType=Round|Shape=Rectangle|*
%AMROTATEDRECTD42*
4,1,4,0.1524,-0.3302,-0.1524,-0.3302,-0.1524,0.3302,0.1524,0.3302,0.1524,-0.3302,0.0*
%
%ADD42ROTATEDRECTD42*%

%ADD43P,1.1495X4X315.0*%
G04:AMPARAMS|DCode=44|XSize=0.4064mm|YSize=1.0414mm|CornerRadius=0mm|HoleSize=0mm|Usage=FLASHONLY|Rotation=135.009|XOffset=0mm|YOffset=0mm|HoleType=Round|Shape=Rectangle|*
%AMROTATEDRECTD44*
4,1,4,0.5118,0.2246,-0.2244,-0.5119,-0.5118,-0.2246,0.2244,0.5119,0.5118,0.2246,0.0*
%
%ADD44ROTATEDRECTD44*%

G04:AMPARAMS|DCode=45|XSize=0.7112mm|YSize=0.9144mm|CornerRadius=0.1778mm|HoleSize=0mm|Usage=FLASHONLY|Rotation=90.000|XOffset=0mm|YOffset=0mm|HoleType=Round|Shape=RoundedRectangle|*
%AMROUNDEDRECTD45*
21,1,0.7112,0.5588,0,0,90.0*
21,1,0.3556,0.9144,0,0,90.0*
1,1,0.3556,0.2794,0.1778*
1,1,0.3556,0.2794,-0.1778*
1,1,0.3556,-0.2794,-0.1778*
1,1,0.3556,-0.2794,0.1778*
%
%ADD45ROUNDEDRECTD45*%
%ADD46R,1.1176X2.0066*%
%ADD47R,0.8128X0.8128*%
G04:AMPARAMS|DCode=48|XSize=1.4224mm|YSize=1.2192mm|CornerRadius=0mm|HoleSize=0mm|Usage=FLASHONLY|Rotation=315.019|XOffset=0mm|YOffset=0mm|HoleType=Round|Shape=Rectangle|*
%AMROTATEDRECTD48*
4,1,4,-0.9340,0.0715,-0.0722,0.9339,0.9340,-0.0715,0.0722,-0.9339,-0.9340,0.0715,0.0*
%
%ADD48ROTATEDRECTD48*%

%ADD49R,0.6096X0.6096*%
%ADD50R,0.4064X0.4064*%
%ADD51R,0.6096X0.6096*%
%ADD52R,0.4064X0.4064*%
G04:AMPARAMS|DCode=53|XSize=0.9144mm|YSize=1.6002mm|CornerRadius=0mm|HoleSize=0mm|Usage=FLASHONLY|Rotation=315.000|XOffset=0mm|YOffset=0mm|HoleType=Round|Shape=Rectangle|*
%AMROTATEDRECTD53*
4,1,4,-0.8891,-0.2425,0.2425,0.8891,0.8891,0.2425,-0.2425,-0.8891,-0.8891,-0.2425,0.0*
%
%ADD53ROTATEDRECTD53*%

%ADD54R,0.9144X1.6002*%
G04:AMPARAMS|DCode=55|XSize=0.4572mm|YSize=0.2286mm|CornerRadius=0.0572mm|HoleSize=0mm|Usage=FLASHONLY|Rotation=270.000|XOffset=0mm|YOffset=0mm|HoleType=Round|Shape=RoundedRectangle|*
%AMROUNDEDRECTD55*
21,1,0.4572,0.1143,0,0,270.0*
21,1,0.3429,0.2286,0,0,270.0*
1,1,0.1143,-0.0572,-0.1714*
1,1,0.1143,-0.0572,0.1714*
1,1,0.1143,0.0572,0.1714*
1,1,0.1143,0.0572,-0.1714*
%
%ADD55ROUNDEDRECTD55*%
G04:AMPARAMS|DCode=56|XSize=0.4572mm|YSize=0.2286mm|CornerRadius=0.0572mm|HoleSize=0mm|Usage=FLASHONLY|Rotation=0.000|XOffset=0mm|YOffset=0mm|HoleType=Round|Shape=RoundedRectangle|*
%AMROUNDEDRECTD56*
21,1,0.4572,0.1143,0,0,0.0*
21,1,0.3429,0.2286,0,0,0.0*
1,1,0.1143,0.1714,-0.0572*
1,1,0.1143,-0.1714,-0.0572*
1,1,0.1143,-0.1714,0.0572*
1,1,0.1143,0.1714,0.0572*
%
%ADD56ROUNDEDRECTD56*%
G04:AMPARAMS|DCode=57|XSize=0.6096mm|YSize=0.9144mm|CornerRadius=0.1524mm|HoleSize=0mm|Usage=FLASHONLY|Rotation=90.000|XOffset=0mm|YOffset=0mm|HoleType=Round|Shape=RoundedRectangle|*
%AMROUNDEDRECTD57*
21,1,0.6096,0.6096,0,0,90.0*
21,1,0.3048,0.9144,0,0,90.0*
1,1,0.3048,0.3048,0.1524*
1,1,0.3048,0.3048,-0.1524*
1,1,0.3048,-0.3048,-0.1524*
1,1,0.3048,-0.3048,0.1524*
%
%ADD57ROUNDEDRECTD57*%
%ADD58R,0.4318X1.3208*%
G04:AMPARAMS|DCode=59|XSize=0.508mm|YSize=0.6096mm|CornerRadius=0.127mm|HoleSize=0mm|Usage=FLASHONLY|Rotation=225.000|XOffset=0mm|YOffset=0mm|HoleType=Round|Shape=RoundedRectangle|*
%AMROUNDEDRECTD59*
21,1,0.5080,0.3556,0,0,225.0*
21,1,0.2540,0.6096,0,0,225.0*
1,1,0.2540,-0.2155,0.0359*
1,1,0.2540,-0.0359,0.2155*
1,1,0.2540,0.2155,-0.0359*
1,1,0.2540,0.0359,-0.2155*
%
%ADD59ROUNDEDRECTD59*%
G04:AMPARAMS|DCode=60|XSize=0.3mm|YSize=1.8mm|CornerRadius=0mm|HoleSize=0mm|Usage=FLASHONLY|Rotation=315.000|XOffset=0mm|YOffset=0mm|HoleType=Round|Shape=Round|*
%AMOVALD60*
21,1,1.5000,0.3000,0.0000,0.0000,45.0*
1,1,0.3000,-0.5303,-0.5303*
1,1,0.3000,0.5303,0.5303*
%
%ADD60OVALD60*%

G04:AMPARAMS|DCode=61|XSize=0.3mm|YSize=1.8mm|CornerRadius=0mm|HoleSize=0mm|Usage=FLASHONLY|Rotation=225.000|XOffset=0mm|YOffset=0mm|HoleType=Round|Shape=Round|*
%AMOVALD61*
21,1,1.5000,0.3000,0.0000,0.0000,315.0*
1,1,0.3000,-0.5303,0.5303*
1,1,0.3000,0.5303,-0.5303*
%
%ADD61OVALD61*%

%ADD62C,0.2540*%
%ADD63C,0.1270*%
%ADD64C,0.3000*%
%ADD65C,0.7000*%
%ADD66C,0.5000*%
%ADD67C,0.3810*%
G04:AMPARAMS|DCode=68|XSize=1.5mm|YSize=1mm|CornerRadius=0.25mm|HoleSize=0mm|Usage=FLASHONLY|Rotation=180.000|XOffset=0mm|YOffset=0mm|HoleType=Round|Shape=RoundedRectangle|*
%AMROUNDEDRECTD68*
21,1,1.5000,0.5000,0,0,180.0*
21,1,1.0000,1.0000,0,0,180.0*
1,1,0.5000,-0.5000,0.2500*
1,1,0.5000,0.5000,0.2500*
1,1,0.5000,0.5000,-0.2500*
1,1,0.5000,-0.5000,-0.2500*
%
%ADD68ROUNDEDRECTD68*%
%ADD69C,1.5000*%
%ADD70O,2.5400X7.0000*%
%ADD71C,2.0860*%
%ADD72C,3.0861*%
%ADD73C,1.2192*%
%ADD74R,1.2192X1.2192*%
%ADD75C,4.6863*%
%ADD76C,4.1148*%
%ADD77R,1.5000X1.5000*%
%ADD78C,0.4500*%
G36*
X2280501Y626209D02*
Y623626D01*
X2277312Y620437D01*
X2282318Y615431D01*
X2286804Y619916D01*
X2287974Y619291D01*
X2287765Y618236D01*
X2288056Y616773D01*
X2288884Y615532D01*
X2289411Y615181D01*
Y614721D01*
X2289577Y613888D01*
X2290049Y613181D01*
X2291565Y611665D01*
X2291489Y611210D01*
X2291065Y610369D01*
X2290384Y610234D01*
X2289557Y609681D01*
X2289004Y608854D01*
X2288810Y607879D01*
X2287823Y606892D01*
X2286848Y606698D01*
X2286021Y606146D01*
X2285832Y605863D01*
X2285108Y605380D01*
X2284216Y605532D01*
X2283783Y605822D01*
X2282612Y606055D01*
X2281060D01*
X2280351Y606528D01*
X2279944Y607904D01*
X2280957Y608918D01*
X2281575Y609842D01*
X2281792Y610932D01*
X2281575Y612022D01*
X2280957Y612946D01*
X2279700Y614204D01*
X2276608Y611112D01*
X2273516Y608020D01*
X2274773Y606762D01*
X2275218Y606465D01*
X2275639Y605098D01*
X2275626Y604864D01*
X2275356Y604459D01*
X2275065Y602996D01*
X2275356Y601533D01*
X2275524Y601280D01*
X2274609Y600365D01*
X2273747Y600940D01*
X2272284Y601231D01*
X2271604Y601096D01*
X2271421Y602017D01*
X2270863Y602852D01*
X2266552Y607163D01*
X2265717Y607721D01*
X2264733Y607916D01*
X2263748Y607721D01*
X2262913Y607163D01*
X2260758Y605008D01*
X2260200Y604173D01*
X2260004Y603188D01*
X2260200Y602203D01*
X2260758Y601368D01*
X2260916Y601210D01*
X2254793Y595087D01*
X2254181Y594171D01*
X2253966Y593090D01*
X2253966Y593090D01*
Y586587D01*
X2252696Y586156D01*
X2251794Y587332D01*
X2250207Y588549D01*
X2248959Y589066D01*
X2248359Y589314D01*
X2247956Y590042D01*
Y599186D01*
X2248359Y599913D01*
X2248959Y600162D01*
X2250207Y600679D01*
X2251794Y601897D01*
X2253011Y603483D01*
X2253777Y605331D01*
X2253777Y605332D01*
X2254439Y605775D01*
X2255709Y607045D01*
X2256181Y607751D01*
X2256347Y608584D01*
Y609955D01*
X2256552Y611140D01*
X2264648D01*
X2264648Y611140D01*
X2265869Y611021D01*
X2266696Y610857D01*
X2268159Y611148D01*
X2268741Y611536D01*
X2270296Y611271D01*
X2270369Y611213D01*
X2270463Y611073D01*
X2271720Y609816D01*
X2274812Y612908D01*
X2277904Y616000D01*
X2276647Y617257D01*
X2275722Y617874D01*
X2274632Y618091D01*
X2273542Y617874D01*
X2272618Y617257D01*
X2271520Y616159D01*
X2271147Y616155D01*
X2270020Y616455D01*
X2269400Y617384D01*
X2269282Y618578D01*
X2274227Y623522D01*
X2275191Y622559D01*
X2279327Y626695D01*
X2280501Y626209D01*
D02*
G37*
G36*
X2449338Y516914D02*
X2449339Y511943D01*
X2449339Y510673D01*
X2449339D01*
X2449340Y501561D01*
X2458539Y501562D01*
X2459218Y500293D01*
X2458716Y499542D01*
X2458381Y497857D01*
Y493666D01*
X2461514D01*
Y502994D01*
X2461500Y503005D01*
X2461499Y509622D01*
X2462397Y510520D01*
X2473531D01*
X2473532Y501591D01*
X2472312Y500775D01*
X2471417Y499436D01*
X2471103Y497857D01*
Y486935D01*
X2471417Y485355D01*
X2472306Y484025D01*
X2469248Y480967D01*
X2449462D01*
X2441784Y488644D01*
X2441078Y489116D01*
X2440245Y489282D01*
X2435590D01*
Y491456D01*
X2443248D01*
X2444303Y490752D01*
X2445766Y490461D01*
X2446366Y490580D01*
X2447822Y489773D01*
X2448650Y488532D01*
X2449891Y487704D01*
X2451354Y487413D01*
X2452817Y487704D01*
X2454058Y488532D01*
X2454886Y489773D01*
X2455177Y491236D01*
X2454886Y492699D01*
X2454058Y493940D01*
X2452817Y494768D01*
X2451354Y495059D01*
X2450754Y494940D01*
X2449298Y495747D01*
X2448470Y496988D01*
X2447798Y497920D01*
Y500460D01*
X2443480D01*
X2439162D01*
Y497920D01*
X2442184D01*
X2442709Y496830D01*
X2442017Y495810D01*
X2431706D01*
X2431321Y497080D01*
X2432214Y497676D01*
X2433042Y498917D01*
X2433333Y500380D01*
X2433042Y501843D01*
X2432356Y502870D01*
X2432537Y503770D01*
X2432761Y504245D01*
X2433065Y504306D01*
X2433981Y504918D01*
X2435317Y506254D01*
X2435317Y506254D01*
X2435929Y507170D01*
X2436144Y508251D01*
X2435929Y509332D01*
X2435317Y510248D01*
X2435317Y510248D01*
X2434611Y510954D01*
X2435073Y512288D01*
X2435330Y512339D01*
X2436036Y512811D01*
X2436508Y513517D01*
X2436659Y514273D01*
X2436969Y514476D01*
X2437867Y514860D01*
X2439401Y513327D01*
X2439432Y513306D01*
Y508270D01*
X2447528D01*
Y515350D01*
X2447528Y515350D01*
X2447325Y516620D01*
X2447364Y516819D01*
Y516850D01*
X2448068Y517403D01*
X2449338Y516914D01*
D02*
G37*
G36*
X2566416Y473559D02*
X2566436Y473563D01*
X2567505Y474165D01*
X2568025Y473817D01*
X2568639Y473695D01*
X2569538D01*
X2569682Y473520D01*
Y472377D01*
X2569825Y471658D01*
X2570427Y470588D01*
X2570079Y470069D01*
X2569957Y469455D01*
Y468312D01*
X2570079Y467699D01*
X2570427Y467179D01*
Y466525D01*
X2570079Y466005D01*
X2569957Y465392D01*
Y464249D01*
X2570079Y463635D01*
X2570332Y462804D01*
X2570079Y461973D01*
X2569957Y461359D01*
Y460216D01*
X2570079Y459603D01*
X2570427Y459084D01*
Y458493D01*
X2570079Y457973D01*
X2569957Y457360D01*
Y456217D01*
X2570079Y455603D01*
X2570334Y454788D01*
X2570079Y453973D01*
X2569957Y453359D01*
Y453336D01*
X2569795Y452202D01*
X2568739Y452105D01*
X2568639D01*
X2568025Y451983D01*
X2567505Y451636D01*
X2566436Y452237D01*
X2566416Y452241D01*
Y448788D01*
X2563876D01*
Y452241D01*
X2563856Y452237D01*
X2562787Y451636D01*
X2562267Y451983D01*
X2561653Y452105D01*
X2561518D01*
X2561275Y452315D01*
X2560636Y453375D01*
X2560841Y454406D01*
X2560551Y455869D01*
X2559722Y457110D01*
X2558481Y457938D01*
X2557018Y458229D01*
X2555555Y457938D01*
X2554314Y457110D01*
X2553085Y457555D01*
X2552131Y458192D01*
X2550668Y458483D01*
X2549205Y458192D01*
X2548811Y458283D01*
X2548245Y459603D01*
X2548367Y460216D01*
Y461359D01*
X2548245Y461973D01*
X2547992Y462804D01*
X2548245Y463635D01*
X2548367Y464249D01*
Y465392D01*
X2548245Y466005D01*
X2547897Y466525D01*
Y467179D01*
X2548245Y467699D01*
X2548367Y468312D01*
Y469455D01*
X2548245Y470069D01*
X2547897Y470588D01*
Y471244D01*
X2548245Y471763D01*
X2548367Y472377D01*
Y473178D01*
X2548935Y473291D01*
X2549540Y473695D01*
X2549621D01*
X2550235Y473817D01*
X2551050Y474072D01*
X2551865Y473817D01*
X2552478Y473695D01*
X2553622D01*
X2554235Y473817D01*
X2554754Y474165D01*
X2555345D01*
X2555865Y473817D01*
X2556478Y473695D01*
X2557621D01*
X2558235Y473817D01*
X2559066Y474070D01*
X2559897Y473817D01*
X2560511Y473695D01*
X2561653D01*
X2562267Y473817D01*
X2562787Y474165D01*
X2563856Y473563D01*
X2563876Y473559D01*
Y477012D01*
X2566416D01*
Y473559D01*
D02*
G37*
G36*
X2529314Y517826D02*
Y511985D01*
X2528337Y511055D01*
X2527208Y511139D01*
X2526792Y511779D01*
Y514032D01*
X2524760D01*
Y510730D01*
X2522220D01*
Y514032D01*
X2520188D01*
Y511726D01*
X2519410Y510778D01*
X2518304D01*
X2517313Y511440D01*
X2515362Y511828D01*
X2513411Y511440D01*
X2512421Y510778D01*
X2511314D01*
Y509892D01*
X2509581Y508159D01*
X2508476Y506505D01*
X2508088Y504554D01*
Y502828D01*
X2499060D01*
X2497109Y502440D01*
X2495455Y501335D01*
X2494350Y499681D01*
X2493962Y497730D01*
X2494350Y495779D01*
X2495455Y494125D01*
X2496203Y493626D01*
Y486935D01*
X2496517Y485355D01*
X2497412Y484017D01*
X2498751Y483122D01*
X2500330Y482808D01*
X2501909Y483122D01*
X2503248Y484017D01*
X2504143Y485355D01*
X2504457Y486935D01*
Y492632D01*
X2511074D01*
X2513281Y490425D01*
X2514935Y489320D01*
X2516886Y488932D01*
X2528990D01*
X2530429Y487970D01*
X2531888Y487680D01*
X2531762Y486410D01*
X2528062D01*
Y483870D01*
X2532380D01*
Y481330D01*
X2528062D01*
Y478790D01*
X2532856D01*
X2533191Y478203D01*
X2533377Y477520D01*
X2532658Y476443D01*
X2532367Y474980D01*
X2532658Y473517D01*
X2533486Y472276D01*
X2534727Y471448D01*
X2534967Y471400D01*
X2535551Y469989D01*
X2535452Y469839D01*
X2535161Y468376D01*
X2535323Y467557D01*
X2534459Y466287D01*
X2534412D01*
Y461914D01*
X2531872D01*
Y466287D01*
X2530094D01*
X2529004Y466070D01*
X2528080Y465452D01*
X2527574Y464696D01*
X2526909Y464710D01*
X2526304Y464907D01*
Y469913D01*
X2525812Y472391D01*
X2524408Y474491D01*
X2522308Y475895D01*
X2520243Y476305D01*
X2519767Y476529D01*
X2519299Y477577D01*
X2519439Y478282D01*
X2519148Y479745D01*
X2518320Y480986D01*
X2517079Y481814D01*
X2515616Y482105D01*
X2514153Y481814D01*
X2512912Y480986D01*
X2512084Y479745D01*
X2511793Y478282D01*
X2511928Y477599D01*
X2510830Y476612D01*
X2510028Y476771D01*
X2508565Y476480D01*
X2507324Y475652D01*
X2506496Y474411D01*
X2506205Y472948D01*
X2506496Y471485D01*
X2507324Y470244D01*
X2508565Y469416D01*
X2510028Y469125D01*
X2511491Y469416D01*
X2512086Y469813D01*
X2513356Y469134D01*
Y462166D01*
X2519830D01*
Y459626D01*
X2513356D01*
Y451879D01*
X2513848Y449401D01*
X2515252Y447301D01*
X2515810Y446928D01*
Y445658D01*
X2515608Y445524D01*
X2514282Y443539D01*
X2513968Y441960D01*
X2503612D01*
Y443698D01*
X2503302Y445259D01*
X2502418Y446582D01*
X2501095Y447466D01*
X2499534Y447776D01*
X2491034D01*
X2489278Y449533D01*
Y465200D01*
X2490548Y466009D01*
X2491486Y465823D01*
X2492949Y466114D01*
X2494190Y466942D01*
X2495018Y468183D01*
X2495309Y469646D01*
X2495018Y471109D01*
X2494190Y472350D01*
X2492949Y473178D01*
X2491486Y473469D01*
X2491277Y473428D01*
X2490007Y474470D01*
Y477328D01*
X2490989Y478134D01*
X2491327Y478067D01*
X2492791Y478358D01*
X2494031Y479186D01*
X2494860Y480427D01*
X2495151Y481890D01*
X2494860Y483353D01*
X2494031Y484594D01*
X2493504Y484946D01*
Y487883D01*
X2493338Y488716D01*
X2492867Y489422D01*
X2491957Y490331D01*
Y497857D01*
X2491643Y499436D01*
X2490748Y500775D01*
X2489409Y501670D01*
X2488501Y501851D01*
X2488083Y503229D01*
X2489026Y504172D01*
X2492582D01*
X2494533Y504560D01*
X2495524Y505222D01*
X2496122D01*
Y505622D01*
X2496187Y505665D01*
X2497292Y507319D01*
X2497680Y509270D01*
Y510276D01*
X2498950Y510727D01*
X2499122Y510515D01*
Y505222D01*
X2501186D01*
X2501377Y504937D01*
X2502083Y504465D01*
X2502916Y504299D01*
X2503749Y504465D01*
X2504455Y504937D01*
X2504646Y505222D01*
X2506202D01*
Y509836D01*
X2510372Y514006D01*
X2510372Y514006D01*
X2511256Y515329D01*
X2511566Y516890D01*
Y521716D01*
X2511256Y523277D01*
X2510444Y524492D01*
X2510568Y525017D01*
X2510918Y525762D01*
X2521378D01*
X2529314Y517826D01*
D02*
G37*
G36*
X2447021Y477251D02*
X2447727Y476779D01*
X2448560Y476613D01*
X2454030D01*
X2454709Y475343D01*
X2454426Y474919D01*
X2454135Y473456D01*
X2454426Y471993D01*
X2455254Y470752D01*
X2456495Y469924D01*
X2457958Y469633D01*
X2459421Y469924D01*
X2460662Y470752D01*
X2461490Y471993D01*
X2461781Y473456D01*
X2461490Y474919D01*
X2461207Y475343D01*
X2461886Y476613D01*
X2466052D01*
X2466731Y475343D01*
X2466618Y475173D01*
X2466327Y473710D01*
X2466618Y472247D01*
X2467446Y471006D01*
X2468687Y470178D01*
X2470150Y469887D01*
X2471613Y470178D01*
X2471783Y470291D01*
X2473053Y469612D01*
Y448196D01*
X2472634Y447776D01*
X2464134D01*
X2462573Y447466D01*
X2461250Y446582D01*
X2460366Y445259D01*
X2460056Y443698D01*
Y441960D01*
X2452479D01*
X2452278Y443487D01*
X2451395Y445621D01*
X2449989Y447453D01*
X2448612Y448509D01*
X2449208Y449401D01*
X2449700Y451879D01*
Y459626D01*
X2443226D01*
X2436752D01*
Y451879D01*
X2437244Y449401D01*
X2438185Y447994D01*
X2437479Y447453D01*
X2436073Y445621D01*
X2435190Y443488D01*
X2435117Y443436D01*
X2434590Y443540D01*
X2431145D01*
Y458134D01*
X2430163D01*
Y458724D01*
X2429997Y459557D01*
X2429525Y460263D01*
X2424715Y465074D01*
X2424716Y465140D01*
X2425107Y466344D01*
X2426716D01*
Y474218D01*
X2427986D01*
Y475488D01*
X2431415D01*
Y482092D01*
X2429523D01*
X2429037Y483265D01*
X2430673Y484902D01*
X2435590D01*
Y484928D01*
X2439343D01*
X2447021Y477251D01*
D02*
G37*
G36*
X2259330Y785071D02*
X2260349Y785206D01*
X2262483Y786089D01*
X2264315Y787495D01*
X2265721Y789327D01*
X2266192Y790465D01*
X2266345Y790512D01*
X2266950Y790392D01*
X2274316D01*
X2274921Y790512D01*
X2275080Y790464D01*
X2275598Y789211D01*
X2277041Y787331D01*
X2278921Y785889D01*
X2281111Y784982D01*
X2283460Y784672D01*
X2285809Y784982D01*
X2287999Y785889D01*
X2289879Y787331D01*
X2291322Y789211D01*
X2291852Y790491D01*
X2292350Y790392D01*
X2299716D01*
X2300321Y790512D01*
X2300480Y790464D01*
X2300999Y789211D01*
X2302441Y787331D01*
X2304321Y785889D01*
X2306510Y784982D01*
X2308860Y784672D01*
X2310461Y784883D01*
X2310847Y784334D01*
X2311069Y783682D01*
X2310230Y782425D01*
X2309895Y780741D01*
Y776550D01*
X2318700D01*
Y780741D01*
X2318365Y782425D01*
X2317410Y783854D01*
X2315982Y784808D01*
X2314469Y785109D01*
X2314201Y785629D01*
X2314050Y786388D01*
X2315279Y787331D01*
X2316721Y789211D01*
X2317251Y790491D01*
X2317750Y790392D01*
X2325116D01*
X2325721Y790512D01*
X2325880Y790464D01*
X2326398Y789211D01*
X2327841Y787331D01*
X2329721Y785889D01*
X2331911Y784982D01*
X2334260Y784672D01*
X2336122Y784918D01*
X2336582Y783697D01*
X2336525Y783659D01*
X2335630Y782320D01*
X2335316Y780741D01*
Y769819D01*
X2335630Y768239D01*
X2336525Y766900D01*
X2337266Y766405D01*
Y761541D01*
X2335996Y760862D01*
X2335469Y761214D01*
X2334006Y761505D01*
X2332543Y761214D01*
X2331302Y760386D01*
X2330474Y759145D01*
X2330444Y758996D01*
X2329174Y759121D01*
Y766405D01*
X2329916Y766900D01*
X2330810Y768239D01*
X2331124Y769819D01*
Y780741D01*
X2330810Y782320D01*
X2329916Y783659D01*
X2328577Y784554D01*
X2326997Y784868D01*
X2325418Y784554D01*
X2324079Y783659D01*
X2323184Y782320D01*
X2322870Y780741D01*
Y769819D01*
X2323184Y768239D01*
X2324079Y766900D01*
X2324820Y766405D01*
Y717280D01*
X2323862D01*
Y710200D01*
X2331958D01*
Y717280D01*
X2330375D01*
X2330313Y717321D01*
X2329480Y717487D01*
X2329174Y717738D01*
Y756243D01*
X2330444Y756368D01*
X2330474Y756219D01*
X2331302Y754978D01*
X2332543Y754150D01*
X2334006Y753859D01*
X2335469Y754150D01*
X2335996Y754502D01*
X2337266Y753823D01*
Y716377D01*
X2337432Y715544D01*
X2337832Y714945D01*
Y710200D01*
X2345928D01*
Y717280D01*
X2341620D01*
Y759865D01*
X2342890Y760544D01*
X2342957Y760500D01*
X2344420Y760209D01*
X2345883Y760500D01*
X2347124Y761328D01*
X2347952Y762569D01*
X2348243Y764032D01*
X2347952Y765495D01*
X2347124Y766736D01*
X2345883Y767564D01*
X2344420Y767855D01*
X2344410Y767853D01*
X2343397Y768947D01*
X2343570Y769819D01*
Y780741D01*
X2343256Y782320D01*
X2342362Y783659D01*
X2341023Y784554D01*
X2339489Y784859D01*
X2339388Y785040D01*
X2339056Y786086D01*
X2340679Y787331D01*
X2342121Y789211D01*
X2342652Y790491D01*
X2343150Y790392D01*
X2350516D01*
X2351121Y790512D01*
X2351280Y790464D01*
X2351799Y789211D01*
X2353241Y787331D01*
X2355121Y785889D01*
X2357310Y784982D01*
X2359660Y784672D01*
X2361149Y784868D01*
X2361607Y783704D01*
X2361618Y783649D01*
X2360730Y782320D01*
X2360416Y780741D01*
Y769819D01*
X2360730Y768239D01*
X2361625Y766900D01*
X2362366Y766405D01*
Y761284D01*
X2361782Y760894D01*
X2360954Y759653D01*
X2360663Y758190D01*
X2360954Y756727D01*
X2361782Y755486D01*
X2363023Y754658D01*
X2364486Y754367D01*
X2365949Y754658D01*
X2367190Y755486D01*
X2368018Y756727D01*
X2368309Y758190D01*
X2368018Y759653D01*
X2367190Y760894D01*
X2366720Y761207D01*
Y766405D01*
X2367462Y766900D01*
X2368356Y768239D01*
X2368670Y769819D01*
Y780741D01*
X2368356Y782320D01*
X2367462Y783659D01*
X2366123Y784554D01*
X2364789Y784819D01*
X2364730Y784926D01*
X2364477Y785743D01*
X2364451Y786082D01*
X2366079Y787331D01*
X2367522Y789211D01*
X2368051Y790491D01*
X2368550Y790392D01*
X2375916D01*
X2376060Y790273D01*
Y784750D01*
X2376060Y784750D01*
X2375464Y784554D01*
X2375000Y784244D01*
X2375000Y784244D01*
X2374977Y784228D01*
X2374125Y783659D01*
X2373230Y782320D01*
X2372916Y780741D01*
Y769818D01*
X2372965Y769573D01*
Y718842D01*
X2371402Y717280D01*
X2369582D01*
Y713893D01*
X2369552Y713740D01*
X2369582Y713587D01*
Y710200D01*
X2371728D01*
X2372069Y709972D01*
X2373630Y709662D01*
X2375191Y709972D01*
X2375532Y710200D01*
X2377678D01*
Y712020D01*
X2379927Y714269D01*
X2380811Y715592D01*
X2381122Y717153D01*
X2381122Y717153D01*
Y769573D01*
X2381170Y769818D01*
Y776919D01*
X2381400Y777088D01*
X2382440Y777394D01*
X2400552Y759283D01*
X2399742Y758296D01*
X2399021Y758778D01*
X2397813Y759018D01*
Y743780D01*
Y728541D01*
X2399021Y728781D01*
X2401121Y730184D01*
X2402525Y732285D01*
X2403017Y734763D01*
Y735717D01*
X2404288Y736243D01*
X2410984Y729546D01*
Y727726D01*
X2414371D01*
X2414524Y727696D01*
X2414677Y727726D01*
X2418064D01*
Y729872D01*
X2418292Y730213D01*
X2418602Y731774D01*
X2418292Y733335D01*
X2418064Y733676D01*
Y735822D01*
X2416244D01*
X2410728Y741337D01*
Y755563D01*
X2411998Y756017D01*
X2413989Y753591D01*
X2417315Y750862D01*
X2421110Y748833D01*
X2425228Y747584D01*
X2428240Y747287D01*
Y767842D01*
X2407685D01*
X2407943Y765222D01*
X2406780Y764590D01*
X2389138Y782231D01*
Y784750D01*
X2394060D01*
Y789695D01*
X2394600Y790110D01*
X2395330Y790471D01*
X2395728Y790392D01*
X2420288D01*
X2420607Y789122D01*
X2417315Y787363D01*
X2413989Y784633D01*
X2411259Y781307D01*
X2409231Y777512D01*
X2407982Y773394D01*
X2407685Y770382D01*
X2429510D01*
X2451335D01*
X2451038Y773394D01*
X2449789Y777512D01*
X2447760Y781307D01*
X2445031Y784633D01*
X2441705Y787363D01*
X2438414Y789122D01*
X2438732Y790392D01*
X2447798D01*
X2448104Y790452D01*
X2448455Y790480D01*
X2449601Y789785D01*
X2450719Y786526D01*
X2452490Y784218D01*
X2454798Y782447D01*
X2457486Y781334D01*
X2459742Y781041D01*
X2460498Y781050D01*
X2544318D01*
X2545074Y781041D01*
X2547330Y781334D01*
X2550018Y782447D01*
X2551103Y783280D01*
X2562664D01*
X2563269Y783400D01*
X2563782Y783743D01*
X2570431Y790392D01*
X2660064D01*
X2660382Y789122D01*
X2657091Y787363D01*
X2653765Y784633D01*
X2651035Y781307D01*
X2649007Y777512D01*
X2647758Y773394D01*
X2647462Y770382D01*
X2669286D01*
Y769112D01*
X2670556D01*
Y747287D01*
X2673568Y747584D01*
X2677686Y748833D01*
X2681481Y750862D01*
X2684807Y753591D01*
X2687537Y756917D01*
X2689565Y760712D01*
X2690820Y760474D01*
Y718820D01*
X2690940Y718215D01*
X2691282Y717702D01*
X2691795Y717360D01*
X2692400Y717240D01*
Y706051D01*
X2691834Y705618D01*
X2689595Y702699D01*
X2688188Y699301D01*
X2687708Y695654D01*
Y674624D01*
X2701798D01*
Y672084D01*
X2687708D01*
Y651054D01*
X2688188Y647407D01*
X2689595Y644009D01*
X2691834Y641090D01*
X2692400Y640657D01*
Y630230D01*
X2691795Y630110D01*
X2691282Y629767D01*
X2690940Y629255D01*
X2690820Y628650D01*
Y612140D01*
X2690940Y611535D01*
X2691282Y611022D01*
X2691795Y610680D01*
X2692400Y610560D01*
Y599490D01*
X2692343Y599445D01*
X2690103Y596527D01*
X2688696Y593129D01*
X2688216Y589482D01*
Y568452D01*
X2702306D01*
Y565912D01*
X2688216D01*
Y544882D01*
X2688696Y541235D01*
X2690103Y537837D01*
X2692343Y534919D01*
X2692400Y534874D01*
Y524820D01*
X2691795Y524700D01*
X2691406Y524440D01*
X2691282Y524357D01*
X2691245Y524320D01*
X2691103Y524174D01*
X2689866Y524220D01*
X2689796Y524244D01*
X2689109Y524930D01*
X2688467Y525573D01*
X2684785Y521890D01*
X2686223Y520454D01*
X2689051Y523283D01*
X2689064Y523296D01*
X2689064Y523296D01*
X2689653Y523885D01*
X2690720Y523374D01*
X2690820Y523240D01*
X2690820Y522914D01*
Y512998D01*
X2690620Y511811D01*
X2689550Y511811D01*
X2686048Y511810D01*
X2686049Y506984D01*
X2686049Y502158D01*
X2689550Y502159D01*
X2690820Y500971D01*
Y499513D01*
X2690352Y498437D01*
X2689550Y498437D01*
X2679208Y498435D01*
X2679209Y492676D01*
X2678237Y492482D01*
X2676996Y491654D01*
X2676168Y490413D01*
X2675876Y488950D01*
X2676168Y487487D01*
X2676458Y487052D01*
X2675654Y485969D01*
X2673568Y486602D01*
X2670556Y486899D01*
Y465074D01*
X2669286D01*
Y463804D01*
X2647462D01*
X2647758Y460792D01*
X2649007Y456674D01*
X2651035Y452879D01*
X2653765Y449553D01*
X2657091Y446824D01*
X2660886Y444795D01*
X2660648Y443540D01*
X2641096D01*
X2640710Y444810D01*
X2640820Y444884D01*
X2641438Y445808D01*
X2641655Y446898D01*
Y447152D01*
X2635758D01*
Y449692D01*
X2641655D01*
Y449946D01*
X2641438Y451036D01*
X2640820Y451960D01*
X2639896Y452578D01*
X2638806Y452795D01*
X2637646D01*
X2637539Y453078D01*
X2637435Y454065D01*
X2638461Y454751D01*
X2639290Y455991D01*
X2639581Y457454D01*
X2639385Y458440D01*
X2639791Y458520D01*
X2640626Y459078D01*
X2641183Y459913D01*
X2641379Y460898D01*
Y463946D01*
X2641232Y464686D01*
X2641330Y465956D01*
X2641330Y465956D01*
X2641330Y465956D01*
Y471224D01*
X2642763Y472657D01*
X2646680D01*
X2646680Y472657D01*
X2647480Y472816D01*
X2648213Y472257D01*
X2648514Y471848D01*
X2647758Y469356D01*
X2647462Y466344D01*
X2668016D01*
Y486899D01*
X2665004Y486602D01*
X2660886Y485353D01*
X2657091Y483325D01*
X2653765Y480595D01*
X2652915Y479559D01*
X2651552Y479901D01*
X2651483Y480253D01*
X2650774Y481313D01*
Y484300D01*
X2650774Y484300D01*
X2650596Y485198D01*
X2655494Y490098D01*
X2651907Y493684D01*
X2651279Y494693D01*
X2650577Y495395D01*
X2649842Y496130D01*
X2645263Y491549D01*
X2643466Y493345D01*
X2648046Y497926D01*
X2646609Y499362D01*
X2646609D01*
X2645519Y500069D01*
X2642491Y503097D01*
X2641637Y503951D01*
X2641637Y505246D01*
X2641869Y505479D01*
X2642243Y506038D01*
X2643034Y506566D01*
X2643862Y507807D01*
X2644153Y509270D01*
X2643862Y510733D01*
X2643034Y511974D01*
X2641793Y512802D01*
X2640330Y513093D01*
X2638867Y512802D01*
X2637626Y511974D01*
X2636797Y510733D01*
X2636507Y509270D01*
X2636797Y507807D01*
X2636811Y507788D01*
X2628528Y499502D01*
X2631929Y496102D01*
X2631735Y494500D01*
X2631277Y494194D01*
X2630448Y492953D01*
X2630157Y491490D01*
X2630448Y490027D01*
X2630658Y489712D01*
X2629979Y488442D01*
X2629916D01*
Y484886D01*
X2635758D01*
Y482346D01*
X2629916D01*
Y479651D01*
X2629916Y478790D01*
X2628816Y478381D01*
X2626850Y478381D01*
X2626850Y475587D01*
X2625580Y475587D01*
X2625580Y474316D01*
X2621008Y474316D01*
X2621008Y473150D01*
X2621008Y471880D01*
X2621008Y471522D01*
X2621008Y470356D01*
X2625580Y470357D01*
X2625580Y467817D01*
X2621008Y467816D01*
X2621008Y466651D01*
Y465380D01*
X2621008Y465022D01*
X2621008Y463856D01*
X2625580Y463857D01*
X2625580Y461317D01*
X2621008Y461316D01*
X2621008Y460150D01*
X2621008Y458880D01*
X2621008Y458522D01*
X2621008Y457356D01*
X2625580Y457356D01*
X2625580Y454817D01*
X2621008Y454816D01*
Y454514D01*
X2621008Y453409D01*
X2619903Y453408D01*
X2619601D01*
X2619601Y448836D01*
X2617061Y448836D01*
X2617061Y453408D01*
X2615536Y453408D01*
Y453351D01*
X2614266Y453138D01*
X2609306Y453138D01*
X2609307Y445137D01*
X2608806Y444935D01*
X2607855Y445720D01*
X2607854Y453138D01*
X2602806Y453138D01*
X2602807Y445141D01*
X2602303Y444937D01*
X2601355Y445719D01*
X2601354Y452101D01*
X2601411Y453274D01*
X2601699Y453705D01*
X2601801Y454222D01*
X2601801Y454223D01*
X2601846Y454448D01*
X2601989Y455168D01*
X2601698Y456631D01*
X2600870Y457872D01*
X2599629Y458700D01*
X2598166Y458991D01*
X2597083Y458776D01*
X2595882Y458610D01*
X2595882Y458610D01*
X2595882Y458610D01*
X2593826Y458610D01*
X2593208Y459879D01*
X2593350Y460061D01*
X2595882Y460062D01*
X2595882Y465110D01*
X2592030Y465109D01*
X2591908Y465291D01*
X2592587Y466561D01*
X2595882Y466562D01*
X2595882Y471610D01*
X2593492Y471609D01*
X2592943Y472879D01*
X2593115Y473061D01*
X2595882Y473062D01*
X2595882Y477439D01*
X2596187Y478228D01*
X2596976Y478534D01*
X2601353Y478534D01*
X2601353Y480282D01*
X2602624Y481131D01*
X2602805Y481055D01*
X2602805Y478534D01*
X2607854Y478534D01*
X2607853Y484677D01*
X2607952Y485174D01*
Y486690D01*
X2607987Y486747D01*
X2608272Y486831D01*
X2609305Y486154D01*
X2609306Y478534D01*
X2614265Y478534D01*
X2614354Y478534D01*
X2615536Y478322D01*
Y478264D01*
X2617060Y478264D01*
X2617059Y482836D01*
X2617059Y487408D01*
X2615535Y487408D01*
Y487408D01*
X2614358Y487631D01*
X2613752Y488167D01*
Y491998D01*
X2616962Y491998D01*
X2616962Y497840D01*
X2616962Y503682D01*
X2616542D01*
X2616542Y514588D01*
X2607430Y514588D01*
X2607430Y504682D01*
X2606173Y503412D01*
X2601313Y503412D01*
X2600044Y504463D01*
Y524510D01*
X2599568Y525658D01*
X2598420Y526134D01*
X2585720D01*
X2584572Y525658D01*
X2584096Y524510D01*
Y517982D01*
X2582827Y517528D01*
X2581564Y519066D01*
X2578971Y521194D01*
X2576013Y522776D01*
X2572802Y523749D01*
X2569464Y524078D01*
X2566125Y523749D01*
X2562915Y522776D01*
X2559957Y521194D01*
X2557364Y519066D01*
X2555594Y516909D01*
X2554324Y517364D01*
X2554324Y524510D01*
X2553848Y525658D01*
X2552700Y526134D01*
X2540000Y526134D01*
X2538852Y525658D01*
X2538514Y524842D01*
X2537513Y524471D01*
X2537106Y524453D01*
X2527095Y534465D01*
X2525441Y535570D01*
X2523490Y535958D01*
X2498598D01*
X2496647Y535570D01*
X2494993Y534465D01*
X2488977Y528449D01*
X2487872Y526795D01*
X2487484Y524844D01*
Y515289D01*
X2486918Y515025D01*
X2485690Y515852D01*
X2485689Y520179D01*
X2485689D01*
X2485256Y521270D01*
X2485208Y521449D01*
X2485782Y522308D01*
X2486018Y523497D01*
X2486018Y524005D01*
X2479609Y524004D01*
X2479608Y525274D01*
X2478338Y525274D01*
X2478338Y530159D01*
X2476306Y530159D01*
X2475116Y529922D01*
X2474108Y529249D01*
X2473435Y528240D01*
X2472181Y528021D01*
X2472020Y528084D01*
X2471539Y529549D01*
X2471558Y529578D01*
X2471946Y531529D01*
Y544068D01*
X2471558Y546019D01*
X2470453Y547673D01*
X2468799Y548778D01*
X2466848Y549166D01*
X2464897Y548778D01*
X2463450Y547811D01*
X2463340Y547792D01*
X2462717Y547949D01*
X2462113Y548267D01*
X2462107Y548441D01*
X2464004Y550337D01*
X2466086D01*
X2466919Y550503D01*
X2467625Y550975D01*
X2468097Y551681D01*
X2468263Y552514D01*
X2468097Y553347D01*
X2467625Y554053D01*
X2466919Y554525D01*
X2466086Y554691D01*
X2463828D01*
Y555816D01*
X2463652Y556702D01*
X2463151Y557453D01*
X2462813Y557678D01*
X2462742Y557958D01*
X2462787Y559017D01*
X2462813Y559089D01*
X2463345Y559445D01*
X2463907Y560285D01*
X2464104Y561276D01*
D01*
X2459736D01*
X2455368D01*
X2455565Y560285D01*
X2456127Y559445D01*
X2456659Y559089D01*
X2456685Y559017D01*
X2456730Y557958D01*
X2456659Y557678D01*
X2456321Y557453D01*
X2455820Y556702D01*
X2455643Y555816D01*
Y553276D01*
X2455820Y552390D01*
X2456133Y551922D01*
X2456158Y551631D01*
X2456022Y550805D01*
X2455880Y550407D01*
X2455000Y549820D01*
X2454633Y549270D01*
X2453916Y549127D01*
X2453210Y548655D01*
X2453182D01*
X2449432Y552406D01*
X2448605Y552958D01*
X2447629Y553152D01*
X2446654Y552958D01*
X2445827Y552406D01*
X2445275Y551579D01*
X2445081Y550603D01*
X2444407Y550118D01*
X2443933Y549860D01*
X2443236Y549721D01*
X2450295Y542662D01*
X2448499Y540866D01*
X2441440Y547925D01*
X2441302Y547228D01*
X2441045Y546756D01*
X2440558Y546081D01*
X2439583Y545887D01*
X2438756Y545334D01*
X2438358Y544739D01*
X2437930Y544771D01*
X2437107Y545011D01*
X2436852Y546293D01*
X2436024Y547534D01*
X2434783Y548362D01*
X2433320Y548653D01*
X2433100Y548610D01*
X2432020Y549690D01*
X2432063Y549910D01*
X2431772Y551373D01*
X2430944Y552614D01*
X2429703Y553442D01*
X2428240Y553733D01*
X2426777Y553442D01*
X2425536Y552614D01*
X2424708Y551373D01*
X2424417Y549910D01*
X2424584Y549067D01*
X2423441Y548304D01*
X2423353Y548362D01*
X2421890Y548653D01*
X2420427Y548362D01*
X2419186Y547534D01*
X2418358Y546293D01*
X2418067Y544830D01*
X2418234Y543987D01*
X2417091Y543224D01*
X2417003Y543282D01*
X2415540Y543573D01*
X2414077Y543282D01*
X2412836Y542454D01*
X2412008Y541213D01*
X2411717Y539750D01*
X2412008Y538287D01*
X2412836Y537046D01*
X2414077Y536218D01*
X2415540Y535927D01*
X2417003Y536218D01*
X2418244Y537046D01*
X2418595Y537573D01*
X2422226D01*
X2426623Y533176D01*
X2426547Y532720D01*
X2426122Y531880D01*
X2425441Y531745D01*
X2424614Y531192D01*
X2424061Y530365D01*
X2423926Y529684D01*
X2423086Y529260D01*
X2422630Y529184D01*
X2421489Y530324D01*
X2420783Y530796D01*
X2419950Y530962D01*
X2413724D01*
X2412891Y530796D01*
X2412184Y530324D01*
X2410456Y528596D01*
X2409383Y529312D01*
X2407920Y529603D01*
X2406457Y529312D01*
X2405216Y528484D01*
X2404388Y527243D01*
X2404097Y525780D01*
X2404388Y524317D01*
X2405216Y523076D01*
X2406457Y522248D01*
X2407920Y521957D01*
X2409383Y522248D01*
X2410624Y523076D01*
X2410671Y523147D01*
X2412008Y522937D01*
X2412836Y521696D01*
X2413183Y521465D01*
X2413198Y521449D01*
X2413509Y519840D01*
X2413455Y519759D01*
X2413261Y518783D01*
X2412274Y517797D01*
X2411299Y517603D01*
X2410472Y517050D01*
X2409919Y516223D01*
X2409725Y515248D01*
X2408739Y514261D01*
X2407764Y514067D01*
X2406937Y513515D01*
X2406384Y512688D01*
X2406190Y511712D01*
X2405203Y510726D01*
X2404228Y510532D01*
X2403401Y509979D01*
X2402848Y509152D01*
X2402654Y508177D01*
X2401668Y507190D01*
X2400692Y506996D01*
X2399866Y506444D01*
X2399313Y505617D01*
X2399119Y504641D01*
X2398132Y503655D01*
X2397157Y503460D01*
X2396330Y502908D01*
X2395777Y502081D01*
X2395583Y501105D01*
X2394597Y500119D01*
X2393621Y499925D01*
X2392794Y499372D01*
X2392242Y498546D01*
X2392048Y497570D01*
X2391061Y496584D01*
X2390086Y496390D01*
X2389259Y495837D01*
X2388706Y495010D01*
X2388512Y494035D01*
X2387525Y493048D01*
X2386550Y492854D01*
X2385723Y492301D01*
X2385171Y491474D01*
X2384977Y490499D01*
X2383990Y489513D01*
X2382750Y489905D01*
X2381922Y491146D01*
X2380681Y491974D01*
X2379218Y492265D01*
X2377755Y491974D01*
X2376514Y491146D01*
X2375686Y489905D01*
X2375597Y489461D01*
X2374302Y489114D01*
X2373061Y489942D01*
X2371598Y490233D01*
X2370135Y489942D01*
X2368894Y489114D01*
X2368066Y487873D01*
X2367775Y486410D01*
X2368066Y484947D01*
X2368439Y484388D01*
Y480810D01*
X2367169Y480685D01*
X2367002Y481523D01*
X2366174Y482764D01*
X2364933Y483592D01*
X2363470Y483883D01*
X2362007Y483592D01*
X2360766Y482764D01*
X2359938Y481523D01*
X2359647Y480060D01*
X2359690Y479840D01*
X2358610Y478760D01*
X2358390Y478803D01*
X2356927Y478512D01*
X2355686Y477684D01*
X2354858Y476443D01*
X2354567Y474980D01*
X2354858Y473517D01*
X2355404Y472699D01*
X2351955Y469250D01*
X2351889Y469252D01*
X2350659Y469750D01*
X2350581Y470144D01*
X2343522Y463084D01*
X2336463Y456026D01*
X2337161Y455887D01*
X2337633Y455630D01*
X2338308Y455144D01*
X2338502Y454169D01*
X2339054Y453342D01*
X2339881Y452789D01*
X2340857Y452595D01*
X2341832Y452789D01*
X2342659Y453342D01*
X2346940Y457623D01*
X2347146D01*
X2347147Y457623D01*
X2348227Y457838D01*
X2349144Y458450D01*
X2359187Y468493D01*
X2360358Y468055D01*
X2360562Y466935D01*
X2360422Y466726D01*
X2360228Y465750D01*
X2360422Y464775D01*
X2360974Y463948D01*
X2371581Y453341D01*
X2372408Y452789D01*
X2373383Y452595D01*
X2374042Y452726D01*
X2374835Y452074D01*
X2375062Y451732D01*
X2374887Y450850D01*
X2375178Y449387D01*
X2376006Y448146D01*
X2377247Y447318D01*
X2378710Y447027D01*
X2380173Y447318D01*
X2381414Y448146D01*
X2382242Y449387D01*
X2382533Y450850D01*
X2382242Y452313D01*
X2381414Y453554D01*
X2380887Y453905D01*
Y456889D01*
X2380721Y457722D01*
X2380249Y458428D01*
X2380249Y458429D01*
X2380324Y458884D01*
X2380749Y459724D01*
X2381430Y459860D01*
X2382257Y460412D01*
X2382809Y461239D01*
X2383004Y462215D01*
X2383990Y463201D01*
X2384965Y463396D01*
X2385792Y463948D01*
X2386345Y464775D01*
X2386539Y465750D01*
X2387525Y466737D01*
X2388501Y466931D01*
X2389328Y467483D01*
X2389880Y468310D01*
X2389894Y468377D01*
X2391179Y468929D01*
X2391766Y468554D01*
X2391897Y467284D01*
X2390193Y465580D01*
X2389691Y464829D01*
X2389515Y463944D01*
X2389594Y463546D01*
X2389447Y463297D01*
X2388666Y462580D01*
X2388596Y462548D01*
X2387968Y462673D01*
X2386977Y462476D01*
X2386137Y461914D01*
X2389226Y458826D01*
X2392314Y455737D01*
X2392862Y456558D01*
X2392882Y456566D01*
X2392996Y456587D01*
X2394191Y456681D01*
X2394802Y455766D01*
X2396043Y454938D01*
X2397506Y454647D01*
X2398969Y454938D01*
X2400210Y455766D01*
X2400809D01*
X2401933Y454715D01*
Y453390D01*
X2402099Y452557D01*
X2402571Y451851D01*
X2403823Y450598D01*
X2402935Y449690D01*
X2384950D01*
Y444506D01*
X2384911Y444429D01*
X2383790Y443540D01*
X2378710D01*
X2378105Y443420D01*
X2376873Y444113D01*
X2376411Y445229D01*
X2374969Y447109D01*
X2373089Y448551D01*
X2370900Y449458D01*
X2368550Y449768D01*
X2366201Y449458D01*
X2364011Y448551D01*
X2362131Y447109D01*
X2360688Y445229D01*
X2360226Y444113D01*
X2358995Y443420D01*
X2358390Y443540D01*
X2353310D01*
X2352705Y443420D01*
X2351474Y444113D01*
X2351012Y445229D01*
X2349569Y447109D01*
X2347689Y448551D01*
X2345500Y449458D01*
X2343150Y449768D01*
X2340800Y449458D01*
X2338611Y448551D01*
X2336731Y447109D01*
X2335289Y445229D01*
X2334827Y444113D01*
X2333595Y443420D01*
X2332990Y443540D01*
X2327910D01*
X2327305Y443420D01*
X2326073Y444113D01*
X2325612Y445229D01*
X2324169Y447109D01*
X2322289Y448551D01*
X2320099Y449458D01*
X2317750Y449768D01*
X2315401Y449458D01*
X2313211Y448551D01*
X2311331Y447109D01*
X2309888Y445229D01*
X2309427Y444113D01*
X2308195Y443420D01*
X2307590Y443540D01*
X2302510D01*
X2301905Y443420D01*
X2300674Y444113D01*
X2300211Y445229D01*
X2298769Y447109D01*
X2296889Y448551D01*
X2294700Y449458D01*
X2292350Y449768D01*
X2290000Y449458D01*
X2287811Y448551D01*
X2285931Y447109D01*
X2284489Y445229D01*
X2284026Y444113D01*
X2282795Y443420D01*
X2282190Y443540D01*
X2277110D01*
X2276505Y443420D01*
X2275137Y443877D01*
X2275113Y443901D01*
X2274611Y445113D01*
X2273205Y446945D01*
X2271373Y448351D01*
X2269239Y449234D01*
X2268220Y449369D01*
Y440690D01*
X2265680D01*
Y449369D01*
X2264661Y449234D01*
X2262527Y448351D01*
X2260695Y446945D01*
X2259289Y445113D01*
X2259062Y444563D01*
X2258138Y443774D01*
X2257565Y443888D01*
X2257552Y443844D01*
X2257077Y443901D01*
X2256473Y443781D01*
X2255960Y443438D01*
X2254561Y443631D01*
X2254371Y443778D01*
Y450214D01*
X2254641Y451372D01*
X2255641Y451372D01*
X2267309Y451374D01*
X2267306Y467598D01*
X2255641Y467596D01*
X2254371Y468755D01*
Y484834D01*
X2254227Y485922D01*
X2255349Y487136D01*
X2259698Y487136D01*
X2259697Y494248D01*
X2254363Y494248D01*
X2254364Y490657D01*
X2253094Y490404D01*
X2252483Y491879D01*
X2250244Y494798D01*
X2247325Y497037D01*
X2243927Y498444D01*
X2241550Y498757D01*
Y462534D01*
X2239010D01*
Y499208D01*
X2238502Y499654D01*
Y507490D01*
X2239115Y508506D01*
X2242671Y508507D01*
X2242670Y514349D01*
X2242669Y520191D01*
X2240981Y520190D01*
X2240082Y521088D01*
Y536301D01*
X2247493Y543713D01*
X2247836Y544225D01*
X2247956Y544830D01*
X2247836Y545435D01*
X2247702Y545635D01*
Y547878D01*
X2247683Y547976D01*
X2248201Y549121D01*
X2248486Y549415D01*
X2250091Y550080D01*
X2251629Y551260D01*
X2252810Y552799D01*
X2253552Y554591D01*
X2253638Y555244D01*
X2246376D01*
Y557784D01*
X2253638D01*
X2253552Y558437D01*
X2252810Y560229D01*
X2251629Y561768D01*
X2250091Y562948D01*
X2248913Y563436D01*
X2248259Y563801D01*
X2247956Y564642D01*
Y573786D01*
X2248359Y574514D01*
X2248959Y574762D01*
X2250207Y575279D01*
X2251794Y576497D01*
X2252855Y577880D01*
X2253695Y577851D01*
X2254216Y577674D01*
X2254793Y576811D01*
X2255364Y576240D01*
X2255034Y574900D01*
X2254969Y574839D01*
X2254202Y574326D01*
X2253649Y573499D01*
X2253455Y572523D01*
X2253649Y571548D01*
X2254202Y570721D01*
X2254798Y570125D01*
X2254380Y568747D01*
X2254057Y568682D01*
X2252816Y567854D01*
X2251988Y566613D01*
X2251697Y565150D01*
X2251988Y563687D01*
X2252816Y562446D01*
X2254057Y561618D01*
X2255520Y561327D01*
X2256983Y561618D01*
X2258224Y562446D01*
X2259052Y563687D01*
X2259117Y564010D01*
X2260495Y564428D01*
X2264808Y560114D01*
X2265635Y559562D01*
X2266611Y559368D01*
X2267586Y559562D01*
X2268413Y560114D01*
X2268965Y560941D01*
X2269160Y561917D01*
X2270146Y562903D01*
X2271121Y563097D01*
X2271948Y563650D01*
X2272461Y564418D01*
X2272522Y564482D01*
X2273862Y564813D01*
X2275866Y562809D01*
X2275827Y562610D01*
X2276118Y561147D01*
X2276946Y559906D01*
X2278187Y559078D01*
X2279650Y558787D01*
X2281113Y559078D01*
X2282354Y559906D01*
X2282561Y560216D01*
X2283124Y560236D01*
X2283944Y560000D01*
X2284742Y558071D01*
X2286185Y556191D01*
X2288065Y554748D01*
X2290255Y553842D01*
X2292604Y553532D01*
X2294953Y553842D01*
X2296929Y554660D01*
X2297587Y554318D01*
X2298064Y553855D01*
X2297950Y553279D01*
X2298241Y551816D01*
X2299070Y550575D01*
X2300310Y549747D01*
X2301773Y549455D01*
X2303236Y549747D01*
X2303445Y549886D01*
X2304255Y548900D01*
X2288074Y532719D01*
X2287619Y532795D01*
X2286778Y533219D01*
X2286643Y533901D01*
X2286090Y534728D01*
X2285263Y535280D01*
X2284288Y535474D01*
X2283301Y536461D01*
X2283107Y537436D01*
X2283063Y537503D01*
X2283826Y538646D01*
X2284730Y538467D01*
X2286193Y538758D01*
X2287434Y539586D01*
X2288262Y540827D01*
X2288553Y542290D01*
X2288262Y543753D01*
X2287434Y544994D01*
X2286193Y545822D01*
X2285748Y545911D01*
X2284731Y547310D01*
X2284743Y547370D01*
X2284452Y548833D01*
X2283624Y550074D01*
X2282383Y550902D01*
X2280920Y551193D01*
X2279457Y550902D01*
X2278216Y550074D01*
X2276830Y550142D01*
X2276470Y550453D01*
X2276422Y550525D01*
X2275642Y551694D01*
X2274740Y552296D01*
X2275562Y553527D01*
X2275853Y554990D01*
X2275562Y556453D01*
X2274734Y557694D01*
X2273493Y558522D01*
X2272030Y558813D01*
X2270567Y558522D01*
X2269326Y557694D01*
X2268498Y556453D01*
X2268337Y555645D01*
X2266681Y553989D01*
X2266209Y553283D01*
X2266208Y553279D01*
X2265949Y553021D01*
X2265635Y552958D01*
X2264808Y552406D01*
X2254201Y541799D01*
X2253649Y540972D01*
X2253455Y539996D01*
X2253649Y539021D01*
X2254201Y538194D01*
X2255028Y537642D01*
X2256004Y537448D01*
X2256991Y536461D01*
X2257184Y535485D01*
X2257737Y534658D01*
X2258564Y534106D01*
X2259539Y533912D01*
X2260526Y532925D01*
X2260720Y531950D01*
X2261272Y531123D01*
X2262099Y530570D01*
X2263075Y530377D01*
X2264061Y529390D01*
X2264256Y528414D01*
X2264808Y527588D01*
X2265635Y527035D01*
X2266316Y526899D01*
X2266741Y526059D01*
X2266817Y525604D01*
X2264141Y522928D01*
X2263669Y522222D01*
X2263503Y521389D01*
Y514083D01*
X2262870Y513602D01*
X2261600Y514217D01*
X2261599Y519924D01*
X2261260Y519924D01*
X2260256Y521194D01*
X2260359Y521716D01*
X2260068Y523179D01*
X2259240Y524420D01*
X2257999Y525248D01*
X2256536Y525539D01*
X2255073Y525248D01*
X2253832Y524420D01*
X2253004Y523179D01*
X2252713Y521716D01*
X2252817Y521192D01*
X2252487Y519922D01*
X2252487D01*
X2252489Y508778D01*
X2258012Y508779D01*
X2261621Y505171D01*
X2261095Y503901D01*
X2254361Y503900D01*
X2254363Y496787D01*
X2260966Y496789D01*
X2267571Y496790D01*
X2267570Y501441D01*
X2268840Y502108D01*
X2269248Y501826D01*
X2269250Y487408D01*
X2272765Y487409D01*
X2273663Y486511D01*
Y473710D01*
X2273829Y472877D01*
X2274301Y472171D01*
X2277699Y468773D01*
X2277213Y467600D01*
X2269254Y467598D01*
X2269257Y451374D01*
X2281925Y451376D01*
X2281922Y465160D01*
X2282820Y466058D01*
X2284223D01*
X2285080Y465201D01*
Y458232D01*
X2292160D01*
Y466328D01*
X2290110D01*
X2288477Y467962D01*
X2288962Y469135D01*
X2289558Y469136D01*
X2289556Y473708D01*
X2286000Y473707D01*
X2286001Y471533D01*
X2285623Y471049D01*
X2284731Y470412D01*
X2282216D01*
X2278017Y474612D01*
Y477232D01*
X2279287Y477911D01*
X2279457Y477798D01*
X2280920Y477507D01*
X2282383Y477798D01*
X2283624Y478626D01*
X2284452Y479867D01*
X2284743Y481330D01*
X2284690Y481600D01*
X2285732Y482870D01*
X2292588D01*
Y484850D01*
X2292619Y484871D01*
X2296429Y488681D01*
X2296901Y489387D01*
X2297067Y490220D01*
Y494063D01*
X2298337Y495040D01*
X2298430Y495021D01*
X2299417Y494034D01*
X2299611Y493059D01*
X2300163Y492232D01*
X2300990Y491679D01*
X2301966Y491485D01*
X2302952Y490499D01*
X2303146Y489524D01*
X2303699Y488697D01*
X2304526Y488144D01*
X2305501Y487950D01*
X2306488Y486964D01*
X2306682Y485988D01*
X2307234Y485161D01*
X2308061Y484609D01*
X2309037Y484415D01*
X2310023Y483428D01*
X2310217Y482452D01*
X2310770Y481625D01*
X2311597Y481073D01*
X2312572Y480879D01*
X2313559Y479893D01*
X2313753Y478917D01*
X2314306Y478090D01*
X2315132Y477538D01*
X2316108Y477344D01*
X2317094Y476357D01*
X2317288Y475382D01*
X2317841Y474555D01*
X2318668Y474002D01*
X2319643Y473808D01*
X2320630Y472821D01*
X2320824Y471846D01*
X2321376Y471019D01*
X2322203Y470466D01*
X2323179Y470272D01*
X2324165Y469286D01*
X2324202Y469104D01*
X2324092Y468822D01*
X2323221Y467902D01*
X2320686D01*
X2319701Y467706D01*
X2318866Y467148D01*
X2318308Y466313D01*
X2318113Y465328D01*
Y459232D01*
X2318308Y458247D01*
X2318866Y457412D01*
X2319701Y456855D01*
X2320686Y456659D01*
X2323734D01*
X2324719Y456855D01*
X2325554Y457412D01*
X2326112Y458247D01*
X2326308Y459232D01*
Y460103D01*
X2332446D01*
X2332810Y459860D01*
X2333785Y459666D01*
X2334272Y458991D01*
X2334529Y458519D01*
X2334667Y457822D01*
X2341726Y464881D01*
X2348785Y471940D01*
X2348088Y472078D01*
X2347913Y472174D01*
X2347699Y472832D01*
X2347899Y473214D01*
X2348484Y473951D01*
X2349947Y474242D01*
X2351188Y475070D01*
X2352016Y476311D01*
X2352307Y477774D01*
X2352016Y479237D01*
X2351188Y480478D01*
X2349947Y481306D01*
X2348484Y481597D01*
X2347021Y481306D01*
X2345780Y480478D01*
X2345428Y479951D01*
X2344180D01*
X2343795Y481221D01*
X2344584Y481748D01*
X2345412Y482988D01*
X2345703Y484451D01*
X2345412Y485915D01*
X2344584Y487155D01*
X2343343Y487984D01*
X2342672Y488117D01*
X2341844Y488612D01*
X2341750Y489497D01*
X2341893Y490220D01*
X2341602Y491683D01*
X2340774Y492924D01*
X2339533Y493752D01*
X2339061Y493846D01*
X2339057Y493848D01*
X2338456Y495261D01*
X2338531Y495378D01*
X2339533Y495578D01*
X2340774Y496406D01*
X2341602Y497647D01*
X2341893Y499110D01*
X2341602Y500573D01*
X2340774Y501814D01*
X2339533Y502642D01*
X2338070Y502933D01*
X2337830Y502886D01*
X2337292Y503618D01*
X2337153Y504046D01*
X2337541Y504627D01*
X2337707Y505460D01*
Y512565D01*
X2338234Y512916D01*
X2339062Y514157D01*
X2339353Y515620D01*
X2339062Y517083D01*
X2338234Y518324D01*
Y518582D01*
X2338734Y518916D01*
X2339383Y519887D01*
X2339823Y520243D01*
X2340950Y520618D01*
X2341880Y520433D01*
X2343343Y520724D01*
X2344584Y521552D01*
X2345412Y522793D01*
X2345703Y524256D01*
X2345412Y525719D01*
X2344584Y526960D01*
X2343343Y527788D01*
X2341880Y528079D01*
X2340417Y527788D01*
X2339176Y526960D01*
X2338528Y525989D01*
X2338088Y525633D01*
X2336961Y525258D01*
X2336031Y525443D01*
X2334568Y525152D01*
X2333327Y524324D01*
X2332498Y523083D01*
X2332207Y521620D01*
X2332498Y520157D01*
X2333327Y518916D01*
Y518658D01*
X2332826Y518324D01*
X2331998Y517083D01*
X2331707Y515620D01*
X2331998Y514157D01*
X2332826Y512916D01*
X2333353Y512565D01*
Y507114D01*
X2332788Y506669D01*
X2331835Y506849D01*
X2331329Y507092D01*
X2330614Y508164D01*
X2330395Y508310D01*
X2329516Y509106D01*
X2330345Y510347D01*
X2330636Y511810D01*
X2330345Y513273D01*
X2329516Y514514D01*
X2328275Y515342D01*
X2326812Y515633D01*
X2325349Y515342D01*
X2324109Y514514D01*
X2323280Y513273D01*
X2323210Y512921D01*
X2322704Y512637D01*
X2321282Y513273D01*
X2320454Y514514D01*
X2319669Y515038D01*
X2319347Y516512D01*
X2321915Y519080D01*
X2322515Y519200D01*
X2323756Y520028D01*
X2324584Y521269D01*
X2324875Y522732D01*
X2324584Y524195D01*
X2323756Y525436D01*
X2322515Y526264D01*
X2321052Y526555D01*
X2319589Y526264D01*
X2318348Y525436D01*
X2317520Y524195D01*
X2317229Y522732D01*
X2317287Y522440D01*
X2310733Y515886D01*
X2310121Y514970D01*
X2309906Y513889D01*
X2309906Y513889D01*
Y513302D01*
X2309048Y512571D01*
X2307767Y512821D01*
X2307304Y513515D01*
X2306477Y514067D01*
X2305501Y514261D01*
X2304557Y515206D01*
X2304493Y515355D01*
X2304400Y515822D01*
X2307544Y518965D01*
X2308165Y518842D01*
X2309628Y519133D01*
X2310869Y519961D01*
X2311697Y521202D01*
X2311988Y522665D01*
X2311697Y524128D01*
X2310869Y525369D01*
X2309628Y526197D01*
X2308165Y526488D01*
X2306702Y526197D01*
X2306288Y525921D01*
X2304914Y526530D01*
X2304772Y527243D01*
X2303944Y528484D01*
X2302703Y529312D01*
X2301240Y529603D01*
X2299777Y529312D01*
X2299619Y529207D01*
X2298087Y529711D01*
X2297594Y530449D01*
X2296353Y531277D01*
X2294890Y531568D01*
X2294873Y531565D01*
X2294248Y532736D01*
X2312418Y550906D01*
X2313495Y551048D01*
X2315685Y551954D01*
X2317565Y553397D01*
X2319008Y555277D01*
X2319914Y557467D01*
X2320224Y559816D01*
X2319914Y562165D01*
X2319008Y564355D01*
X2317565Y566235D01*
X2315685Y567677D01*
X2313495Y568584D01*
X2311146Y568894D01*
X2308797Y568584D01*
X2306607Y567677D01*
X2304727Y566235D01*
X2303284Y564355D01*
X2302866Y563344D01*
X2301562Y563516D01*
X2301372Y564959D01*
X2300466Y567149D01*
X2299023Y569029D01*
X2297143Y570471D01*
X2294953Y571378D01*
X2292604Y571688D01*
X2290255Y571378D01*
X2288065Y570471D01*
X2286185Y569029D01*
X2285979Y568761D01*
X2285374Y568858D01*
X2284700Y569179D01*
X2284452Y570423D01*
X2283624Y571664D01*
X2282533Y572393D01*
X2282507Y572509D01*
X2274551Y580464D01*
X2276347Y582260D01*
X2283406Y575201D01*
X2283577Y576059D01*
X2284486Y576810D01*
X2285145Y576941D01*
X2278087Y584000D01*
X2279883Y585796D01*
X2286942Y578737D01*
X2287080Y579434D01*
X2287338Y579907D01*
X2287824Y580581D01*
X2288799Y580775D01*
X2289626Y581328D01*
X2289945Y581805D01*
X2291085Y581962D01*
X2291414Y581892D01*
X2291678Y581496D01*
X2292919Y580668D01*
X2294382Y580377D01*
X2295845Y580668D01*
X2297086Y581496D01*
X2297914Y582737D01*
X2298205Y584200D01*
X2297914Y585663D01*
X2297086Y586904D01*
X2296915Y587017D01*
X2296748Y588073D01*
X2296832Y588601D01*
X2297249Y589226D01*
X2297385Y589907D01*
X2298225Y590332D01*
X2298681Y590408D01*
X2302224Y586864D01*
X2302187Y586301D01*
X2300744Y584421D01*
X2299838Y582231D01*
X2299528Y579882D01*
X2299838Y577533D01*
X2300744Y575343D01*
X2302187Y573463D01*
X2304067Y572020D01*
X2306257Y571114D01*
X2308606Y570804D01*
X2310956Y571114D01*
X2313145Y572020D01*
X2315025Y573463D01*
X2316467Y575343D01*
X2317374Y577533D01*
X2317684Y579882D01*
X2317374Y582231D01*
X2316467Y584421D01*
X2315025Y586301D01*
X2313145Y587743D01*
X2310956Y588650D01*
X2308606Y588960D01*
X2307171Y588771D01*
X2306963Y589062D01*
X2307108Y589538D01*
X2307613Y590338D01*
X2308799Y590574D01*
X2310040Y591402D01*
X2310868Y592643D01*
X2311159Y594106D01*
X2310868Y595569D01*
X2310040Y596810D01*
X2308799Y597638D01*
X2307832Y597831D01*
X2307559Y598438D01*
X2307391Y599137D01*
X2307856Y599832D01*
X2308050Y600808D01*
X2309037Y601794D01*
X2310012Y601988D01*
X2310839Y602541D01*
X2311392Y603368D01*
X2311586Y604343D01*
X2312572Y605330D01*
X2313548Y605524D01*
X2314375Y606076D01*
X2314393Y606104D01*
X2315874Y606035D01*
X2316316Y605372D01*
X2316819Y605037D01*
X2316900Y604523D01*
X2316763Y603547D01*
X2315141Y602303D01*
X2313698Y600423D01*
X2312792Y598233D01*
X2312482Y595884D01*
X2312792Y593535D01*
X2313698Y591345D01*
X2315141Y589465D01*
X2317021Y588022D01*
X2319211Y587116D01*
X2321560Y586806D01*
X2323909Y587116D01*
X2326099Y588022D01*
X2327979Y589465D01*
X2329422Y591345D01*
X2330328Y593535D01*
X2330638Y595884D01*
X2330328Y598233D01*
X2329422Y600423D01*
X2327979Y602303D01*
X2326099Y603745D01*
X2323909Y604652D01*
X2323771Y604670D01*
X2323009Y606044D01*
X2323158Y606397D01*
X2323592Y606553D01*
X2323833Y606540D01*
X2325116Y606285D01*
X2326579Y606576D01*
X2327820Y607404D01*
X2328447Y608343D01*
X2329861Y608725D01*
X2332103Y606483D01*
X2331842Y605854D01*
X2331532Y603504D01*
X2331842Y601155D01*
X2332749Y598965D01*
X2334191Y597085D01*
X2335755Y595886D01*
X2336066Y595336D01*
X2336048Y594277D01*
X2335554Y593537D01*
X2335263Y592074D01*
X2335554Y590611D01*
X2336382Y589370D01*
X2337623Y588542D01*
X2339086Y588251D01*
X2340549Y588542D01*
X2341790Y589370D01*
X2342618Y590611D01*
X2342909Y592074D01*
X2342643Y593413D01*
X2342665Y593688D01*
X2343261Y594861D01*
X2345149Y595643D01*
X2347029Y597085D01*
X2348472Y598965D01*
X2349378Y601155D01*
X2349688Y603504D01*
X2349378Y605854D01*
X2348472Y608043D01*
X2347029Y609923D01*
X2345149Y611366D01*
X2342959Y612272D01*
X2340610Y612582D01*
X2338260Y612272D01*
X2338034Y612178D01*
X2337498Y612598D01*
X2337068Y613153D01*
X2337321Y614426D01*
X2337030Y615889D01*
X2336202Y617130D01*
Y617479D01*
X2336710Y617818D01*
X2337538Y619059D01*
X2337620Y619468D01*
X2338998Y619886D01*
X2339088Y619795D01*
X2339088Y619795D01*
X2340005Y619183D01*
X2341086Y618968D01*
X2360465D01*
X2360915Y618501D01*
X2361528Y617384D01*
X2360700Y616143D01*
X2360409Y614680D01*
X2360700Y613217D01*
X2361528Y611976D01*
X2362769Y611148D01*
X2364232Y610857D01*
X2365695Y611148D01*
X2366936Y611976D01*
X2367764Y613217D01*
X2368055Y614680D01*
X2367764Y616143D01*
X2366936Y617384D01*
X2366803Y617472D01*
Y619000D01*
X2366936Y619088D01*
X2367764Y620329D01*
X2368055Y621792D01*
X2367805Y623052D01*
X2369251Y623340D01*
X2370492Y624168D01*
X2371320Y625409D01*
X2371611Y626872D01*
X2371320Y628335D01*
X2370492Y629576D01*
X2369251Y630404D01*
X2367788Y630695D01*
X2366325Y630404D01*
X2366066Y630232D01*
X2365735Y630320D01*
X2364970Y631462D01*
X2365261Y632925D01*
X2365138Y633546D01*
X2366701Y635109D01*
X2367435D01*
X2368268Y635275D01*
X2368975Y635747D01*
X2369597Y636369D01*
X2370053Y636293D01*
X2370893Y635869D01*
X2371029Y635188D01*
X2371581Y634361D01*
X2372408Y633808D01*
X2373384Y633614D01*
X2374370Y632628D01*
X2374564Y631652D01*
X2375117Y630825D01*
X2375943Y630273D01*
X2376919Y630079D01*
X2377406Y629404D01*
X2377662Y628932D01*
X2377801Y628234D01*
X2384860Y635293D01*
X2386656Y633497D01*
X2379597Y626438D01*
X2380294Y626300D01*
X2380767Y626043D01*
X2381441Y625556D01*
X2381635Y624581D01*
X2382188Y623754D01*
X2383015Y623201D01*
X2383990Y623007D01*
X2384977Y622021D01*
X2385171Y621045D01*
X2385723Y620218D01*
X2386550Y619666D01*
X2387231Y619530D01*
X2387656Y618689D01*
X2387731Y618234D01*
X2378426Y608929D01*
X2377048Y609347D01*
X2376908Y610047D01*
X2376080Y611288D01*
X2374839Y612116D01*
X2373376Y612407D01*
X2371913Y612116D01*
X2370672Y611288D01*
X2369844Y610047D01*
X2369553Y608584D01*
X2369724Y607721D01*
X2369027Y606467D01*
X2368848Y606324D01*
X2367724Y606176D01*
X2365535Y605270D01*
X2363655Y603827D01*
X2362213Y601947D01*
X2361306Y599757D01*
X2360996Y597408D01*
X2361306Y595059D01*
X2362213Y592869D01*
X2363655Y590989D01*
X2365535Y589547D01*
X2367724Y588640D01*
X2370074Y588330D01*
X2372424Y588640D01*
X2374613Y589547D01*
X2376493Y590989D01*
X2377935Y592869D01*
X2378842Y595059D01*
X2379152Y597408D01*
X2378842Y599757D01*
X2377935Y601947D01*
X2377790Y602136D01*
X2385915Y610261D01*
X2387086Y609636D01*
X2387079Y609600D01*
X2387370Y608137D01*
X2388198Y606896D01*
X2389439Y606068D01*
X2390902Y605777D01*
X2392365Y606068D01*
X2393606Y606896D01*
X2394434Y608137D01*
X2394725Y609600D01*
X2394640Y610029D01*
X2395777Y610439D01*
X2396330Y609612D01*
X2397013Y609156D01*
X2397207Y608749D01*
X2397375Y607721D01*
X2396221Y606567D01*
X2395749Y605861D01*
X2395583Y605028D01*
Y598940D01*
X2395056Y598588D01*
X2394228Y597347D01*
X2393937Y595884D01*
X2394228Y594421D01*
X2395056Y593180D01*
X2396297Y592352D01*
X2397760Y592061D01*
X2399223Y592352D01*
X2400464Y593180D01*
X2401292Y594421D01*
X2401583Y595884D01*
X2401292Y597347D01*
X2400464Y598588D01*
X2399937Y598940D01*
Y603821D01*
X2400929Y604798D01*
X2402229Y604768D01*
X2402654Y604343D01*
X2402848Y603368D01*
X2403401Y602541D01*
X2404228Y601988D01*
X2405203Y601794D01*
X2406190Y600808D01*
X2406384Y599832D01*
X2406936Y599006D01*
X2407763Y598453D01*
X2408739Y598259D01*
X2409725Y597272D01*
X2409919Y596297D01*
X2410472Y595470D01*
X2411299Y594917D01*
X2412274Y594723D01*
X2412760Y594049D01*
X2413018Y593576D01*
X2413156Y592879D01*
X2420215Y599938D01*
X2427559Y607282D01*
X2427417Y607749D01*
X2427364Y608274D01*
X2428719Y609629D01*
X2429969Y609878D01*
X2431209Y610706D01*
X2432038Y611947D01*
X2432329Y613410D01*
X2432038Y614873D01*
X2431209Y616114D01*
X2430385Y616664D01*
X2430048Y618123D01*
X2431664Y619739D01*
X2431664Y619739D01*
X2431990Y620227D01*
X2433454Y620560D01*
X2435208Y618807D01*
X2440414Y624017D01*
X2445621Y629227D01*
X2442299Y632548D01*
X2442299Y634090D01*
X2442490Y634282D01*
X2444014Y634282D01*
X2445052Y633243D01*
X2445052Y633243D01*
X2445969Y632631D01*
X2446006Y632624D01*
X2454148Y624487D01*
X2464180Y634526D01*
X2459398Y639304D01*
X2459398Y640574D01*
X2461987Y643163D01*
X2461987Y643163D01*
X2462599Y644079D01*
X2462814Y645160D01*
Y653543D01*
X2462814Y653543D01*
X2462599Y654624D01*
X2461987Y655540D01*
X2460914Y656613D01*
X2461779Y657479D01*
X2456772Y662485D01*
X2451049Y656759D01*
X2456056Y651753D01*
X2456056D01*
X2457166Y651068D01*
Y646330D01*
X2454767Y643932D01*
X2452704Y645994D01*
X2446450Y639736D01*
X2445831Y640149D01*
X2444750Y640364D01*
X2444750Y640364D01*
X2441097D01*
X2440777Y640301D01*
X2440151Y641471D01*
X2442771Y644093D01*
X2437740Y649120D01*
X2433431Y644808D01*
X2438005Y640238D01*
X2438127Y639158D01*
X2437492Y638463D01*
X2436025Y638436D01*
X2428451Y646005D01*
Y646503D01*
X2428451Y646503D01*
X2428236Y647584D01*
X2427624Y648500D01*
X2422050Y654074D01*
X2423409Y655433D01*
X2417685Y661157D01*
X2412678Y656151D01*
X2415338Y653492D01*
X2415435Y653005D01*
X2416047Y652089D01*
X2421747Y646389D01*
X2414873Y639510D01*
X2422803Y631586D01*
Y625937D01*
X2415991Y619125D01*
X2414651Y619456D01*
X2414590Y619520D01*
X2414077Y620288D01*
X2413250Y620840D01*
X2412568Y620976D01*
X2412144Y621817D01*
X2412068Y622272D01*
X2412868Y623071D01*
X2412939Y623086D01*
X2414180Y623914D01*
X2415008Y625155D01*
X2415299Y626618D01*
X2415008Y628081D01*
X2414180Y629322D01*
X2412939Y630150D01*
X2411476Y630441D01*
X2410351Y630218D01*
X2409081Y630939D01*
Y631952D01*
X2408915Y632785D01*
X2408443Y633491D01*
X2408318Y633617D01*
X2408441Y634238D01*
X2408150Y635701D01*
X2407322Y636942D01*
X2406081Y637770D01*
X2404618Y638061D01*
X2404046Y637948D01*
X2403770Y638285D01*
X2403416Y639117D01*
X2404098Y640138D01*
X2404297Y641140D01*
X2405520Y641638D01*
X2405593Y641640D01*
X2409260Y637975D01*
X2417138Y645856D01*
X2410694Y652298D01*
X2406358Y647961D01*
X2403570D01*
X2402722Y647792D01*
X2402158Y648448D01*
X2401974Y648839D01*
X2403225Y650091D01*
X2399812Y653503D01*
X2400710Y654401D01*
X2399812Y655299D01*
X2403942Y659430D01*
X2401621Y661750D01*
X2401427Y661945D01*
X2400382Y662489D01*
X2398061Y664808D01*
X2393931Y660676D01*
X2393033Y661574D01*
X2392135Y660675D01*
X2388669Y664140D01*
X2387570Y664594D01*
Y668200D01*
X2390926Y671557D01*
X2384480Y677999D01*
X2382677Y676194D01*
X2381450Y676763D01*
X2381134Y678353D01*
X2380029Y680007D01*
X2378375Y681112D01*
X2377122Y681361D01*
Y683260D01*
X2373820D01*
Y685800D01*
X2377122D01*
Y687832D01*
X2374816D01*
X2373868Y688610D01*
X2373868Y689102D01*
Y690938D01*
X2376514Y693584D01*
X2377398Y694907D01*
X2377708Y696468D01*
X2377708Y696468D01*
Y703660D01*
X2377678Y703813D01*
Y707200D01*
X2375532D01*
X2375191Y707428D01*
X2373630Y707738D01*
X2372069Y707428D01*
X2371728Y707200D01*
X2369582D01*
Y703813D01*
X2369552Y703660D01*
Y698157D01*
X2368100Y696706D01*
X2365772D01*
Y694835D01*
X2361168D01*
Y698150D01*
X2353072D01*
Y691070D01*
X2357606D01*
X2358239Y690647D01*
X2359072Y690481D01*
X2364874D01*
X2365578Y689777D01*
X2365532Y688413D01*
X2364824Y687832D01*
X2362708D01*
X2362498Y687832D01*
X2361438Y688340D01*
X2361394Y688340D01*
X2358390D01*
Y684530D01*
Y680720D01*
X2361394D01*
X2361438Y680720D01*
X2362498Y681228D01*
X2362708Y681228D01*
X2364771D01*
X2365772Y680578D01*
Y679152D01*
X2365238Y678353D01*
X2364850Y676402D01*
X2365238Y674451D01*
X2365772Y673652D01*
Y672482D01*
X2366815D01*
X2367997Y671692D01*
X2369948Y671304D01*
X2375995D01*
X2376603Y670116D01*
Y670116D01*
X2381727Y664995D01*
X2381639Y663774D01*
X2380599Y663034D01*
X2379726Y663207D01*
X2378263Y662916D01*
X2377203Y662208D01*
X2375391D01*
X2374310Y661993D01*
X2373394Y661381D01*
X2373394Y661381D01*
X2366083Y654070D01*
X2365471Y653154D01*
X2365450Y653047D01*
X2360974Y648572D01*
X2360422Y647745D01*
X2360228Y646769D01*
X2360422Y645794D01*
X2360974Y644967D01*
X2361801Y644415D01*
X2362777Y644221D01*
X2363763Y643234D01*
X2363958Y642259D01*
X2364510Y641432D01*
X2365337Y640879D01*
X2365807Y639505D01*
X2365799Y639463D01*
X2364966Y639297D01*
X2364260Y638825D01*
X2362059Y636625D01*
X2361438Y636748D01*
X2359975Y636457D01*
X2358734Y635629D01*
X2357906Y634388D01*
X2357615Y632925D01*
X2357906Y631462D01*
X2358237Y630966D01*
X2357558Y629696D01*
X2350389D01*
X2349710Y630966D01*
X2349730Y630997D01*
X2350021Y632460D01*
X2349730Y633923D01*
X2348902Y635164D01*
X2347661Y635992D01*
X2346402Y636243D01*
X2346252Y636451D01*
X2346194Y637896D01*
X2346747Y638723D01*
X2346941Y639699D01*
X2347614Y640184D01*
X2348088Y640442D01*
X2348785Y640580D01*
X2341726Y647639D01*
X2334456Y654909D01*
X2334363Y654866D01*
X2333375Y654710D01*
X2326475Y661610D01*
X2325558Y662222D01*
X2324478Y662437D01*
X2324478Y662437D01*
X2323378D01*
X2319039Y666774D01*
X2312597Y660330D01*
X2313028Y659899D01*
X2312867Y658264D01*
X2312506Y658024D01*
X2311678Y656783D01*
X2311387Y655320D01*
X2311530Y654601D01*
X2310447Y653674D01*
X2308098Y653984D01*
X2305748Y653674D01*
X2303559Y652767D01*
X2301679Y651325D01*
X2300237Y649445D01*
X2299330Y647255D01*
X2299020Y644906D01*
X2299330Y642557D01*
X2300237Y640367D01*
X2301454Y638781D01*
X2300137Y637463D01*
X2303190Y634410D01*
X2306243Y631357D01*
X2308040Y633153D01*
X2306425Y634768D01*
X2307018Y635971D01*
X2308098Y635828D01*
X2310448Y636138D01*
X2312637Y637044D01*
X2314517Y638487D01*
X2315959Y640367D01*
X2316866Y642557D01*
X2317176Y644906D01*
X2316866Y647255D01*
X2315959Y649445D01*
X2315320Y650278D01*
X2315883Y651630D01*
X2316673Y651788D01*
X2317914Y652616D01*
X2318155Y652978D01*
X2319790Y653139D01*
X2320478Y652451D01*
X2323426Y655400D01*
X2324696Y655400D01*
X2329610Y650486D01*
X2329280Y649146D01*
X2329215Y649085D01*
X2328448Y648572D01*
X2327895Y647745D01*
X2327701Y646770D01*
X2326714Y645783D01*
X2325739Y645589D01*
X2324912Y645037D01*
X2324360Y644210D01*
X2324165Y643234D01*
X2323179Y642248D01*
X2322203Y642054D01*
X2321376Y641501D01*
X2320824Y640674D01*
X2320630Y639699D01*
X2319643Y638712D01*
X2318668Y638518D01*
X2317841Y637965D01*
X2317289Y637138D01*
X2317095Y636163D01*
X2316108Y635177D01*
X2315132Y634982D01*
X2314306Y634430D01*
X2313753Y633603D01*
X2313559Y632627D01*
X2312572Y631641D01*
X2311597Y631447D01*
X2310770Y630894D01*
X2310217Y630067D01*
X2310023Y629092D01*
X2309037Y628105D01*
X2308061Y627911D01*
X2307234Y627359D01*
X2306682Y626532D01*
X2306488Y625556D01*
X2305501Y624570D01*
X2304526Y624376D01*
X2303699Y623823D01*
X2303146Y622996D01*
X2303011Y622315D01*
X2302172Y621891D01*
X2301715Y621814D01*
X2299017Y624512D01*
X2300530Y626025D01*
X2295614Y630941D01*
X2295374Y632145D01*
X2294546Y633386D01*
X2293305Y634214D01*
X2291842Y634505D01*
X2290379Y634214D01*
X2289138Y633386D01*
X2288310Y632145D01*
X2288019Y630682D01*
X2288310Y629219D01*
X2289138Y627978D01*
X2289715Y627593D01*
X2289799Y626744D01*
Y626744D01*
X2293397Y623145D01*
X2293036Y621843D01*
X2292960Y621786D01*
X2291588Y622059D01*
X2290125Y621768D01*
X2289290Y621211D01*
X2288386Y621171D01*
X2287718Y621480D01*
X2284854Y624344D01*
Y629179D01*
X2284689Y630011D01*
X2284217Y630718D01*
X2278141Y636793D01*
X2277435Y637265D01*
X2276602Y637431D01*
X2273815D01*
X2273464Y637958D01*
X2272937Y638310D01*
Y641568D01*
X2273092Y641724D01*
X2280142D01*
Y650836D01*
X2268998D01*
Y643676D01*
X2268749Y643303D01*
X2268583Y642470D01*
Y638310D01*
X2268056Y637958D01*
X2267228Y636717D01*
X2266937Y635254D01*
X2267228Y633791D01*
X2267357Y633597D01*
X2266773Y632186D01*
X2266757Y632182D01*
X2265516Y631354D01*
X2264688Y630113D01*
X2264397Y628650D01*
X2264109Y628300D01*
X2256552D01*
Y626937D01*
X2254170D01*
X2253337Y626771D01*
X2252631Y626299D01*
X2252159Y625593D01*
X2251993Y624760D01*
Y614179D01*
X2250723Y613553D01*
X2250207Y613949D01*
X2248959Y614466D01*
X2248359Y614715D01*
X2247956Y615442D01*
Y624586D01*
X2248359Y625313D01*
X2248959Y625562D01*
X2250207Y626079D01*
X2251794Y627296D01*
X2253011Y628883D01*
X2253777Y630731D01*
X2253919Y631813D01*
X2255281Y632430D01*
X2255581Y632230D01*
X2257044Y631939D01*
X2258507Y632230D01*
X2259748Y633058D01*
X2260576Y634299D01*
X2260867Y635762D01*
X2260576Y637225D01*
X2259748Y638466D01*
X2258507Y639294D01*
X2257044Y639585D01*
X2255581Y639294D01*
X2254340Y638466D01*
X2253781Y637628D01*
X2252552Y637436D01*
X2252281Y637496D01*
X2251794Y638131D01*
X2250207Y639349D01*
X2248959Y639866D01*
X2248359Y640115D01*
X2247956Y640842D01*
Y649986D01*
X2248359Y650714D01*
X2248959Y650962D01*
X2250207Y651479D01*
X2251794Y652697D01*
X2253011Y654283D01*
X2253777Y656131D01*
X2254038Y658114D01*
X2253777Y660097D01*
X2253011Y661945D01*
X2251794Y663531D01*
X2250207Y664749D01*
X2248959Y665266D01*
X2248359Y665515D01*
X2247956Y666242D01*
Y675386D01*
X2248359Y676114D01*
X2248959Y676362D01*
X2250207Y676879D01*
X2251794Y678096D01*
X2253011Y679683D01*
X2253777Y681531D01*
X2254038Y683514D01*
X2253777Y685497D01*
X2253011Y687345D01*
X2251794Y688932D01*
X2250207Y690149D01*
X2248959Y690666D01*
X2248359Y690915D01*
X2247956Y691642D01*
Y700786D01*
X2248393Y701318D01*
X2253972D01*
Y716510D01*
X2247956D01*
Y718566D01*
X2247836Y719171D01*
X2247493Y719684D01*
X2240082Y727095D01*
Y779526D01*
X2240086D01*
X2240456Y782337D01*
X2241541Y784957D01*
X2243267Y787207D01*
X2245517Y788933D01*
X2247842Y789896D01*
X2249076Y790142D01*
X2250203Y789802D01*
X2250399Y789327D01*
X2251805Y787495D01*
X2253637Y786089D01*
X2255771Y785206D01*
X2256790Y785071D01*
Y793750D01*
X2259330D01*
Y785071D01*
D02*
G37*
%LPC*%
G36*
X2678431Y579374D02*
X2673859Y579373D01*
X2673860Y575817D01*
X2678432Y575818D01*
X2678431Y579374D01*
D02*
G37*
G36*
X2685270Y573921D02*
X2674126Y573919D01*
X2674126Y573086D01*
X2673228Y572188D01*
X2672728D01*
X2672273Y572492D01*
X2670810Y572783D01*
X2669347Y572492D01*
X2668106Y571664D01*
X2667278Y570423D01*
X2666987Y568960D01*
X2667278Y567497D01*
X2668106Y566256D01*
X2669347Y565428D01*
X2670810Y565137D01*
X2672273Y565428D01*
X2672857Y565818D01*
X2674128Y565139D01*
X2674128Y564807D01*
X2685272Y564809D01*
X2685270Y573921D01*
D02*
G37*
G36*
X2487930Y576593D02*
X2486467Y576302D01*
X2485226Y575474D01*
X2484398Y574233D01*
X2484107Y572770D01*
X2483081Y571417D01*
X2482657Y571332D01*
X2481416Y570504D01*
X2480588Y569263D01*
X2480297Y567800D01*
X2480588Y566337D01*
X2481416Y565096D01*
X2482657Y564268D01*
X2484120Y563977D01*
X2485583Y564268D01*
X2486824Y565096D01*
X2487652Y566337D01*
X2487944Y567800D01*
X2487933Y567890D01*
X2488253Y568929D01*
X2488802Y569106D01*
X2488992Y569158D01*
X2489393Y569238D01*
X2490634Y570066D01*
X2491462Y571307D01*
X2491753Y572770D01*
X2491462Y574233D01*
X2490634Y575474D01*
X2489393Y576302D01*
X2487930Y576593D01*
D02*
G37*
G36*
X2368550Y572783D02*
X2367087Y572492D01*
X2365846Y571664D01*
X2365018Y570423D01*
X2364727Y568960D01*
X2365018Y567497D01*
X2365846Y566256D01*
X2367087Y565428D01*
X2368550Y565137D01*
X2370013Y565428D01*
X2371254Y566256D01*
X2372082Y567497D01*
X2372373Y568960D01*
X2372082Y570423D01*
X2371254Y571664D01*
X2370013Y572492D01*
X2368550Y572783D01*
D02*
G37*
G36*
X2390140Y576593D02*
X2388677Y576302D01*
X2387436Y575474D01*
X2386608Y574233D01*
X2386317Y572770D01*
X2386608Y571307D01*
X2387436Y570066D01*
X2388677Y569238D01*
X2390140Y568947D01*
X2391603Y569238D01*
X2392844Y570066D01*
X2393672Y571307D01*
X2393963Y572770D01*
X2393672Y574233D01*
X2392844Y575474D01*
X2391603Y576302D01*
X2390140Y576593D01*
D02*
G37*
G36*
X2321814Y574815D02*
X2320351Y574524D01*
X2319110Y573696D01*
X2318282Y572455D01*
X2317991Y570992D01*
X2318282Y569529D01*
X2319110Y568288D01*
X2320351Y567460D01*
X2321814Y567169D01*
X2323277Y567460D01*
X2324518Y568288D01*
X2325346Y569529D01*
X2325637Y570992D01*
X2325346Y572455D01*
X2324518Y573696D01*
X2323277Y574524D01*
X2321814Y574815D01*
D02*
G37*
G36*
X2685543Y579375D02*
X2680971Y579374D01*
X2680972Y575818D01*
X2685544Y575819D01*
X2685543Y579375D01*
D02*
G37*
G36*
X2685542Y585471D02*
X2680970Y585470D01*
X2680971Y581914D01*
X2685543Y581915D01*
X2685542Y585471D01*
D02*
G37*
G36*
X2334260Y588023D02*
X2332797Y587732D01*
X2331556Y586904D01*
X2330728Y585663D01*
X2330437Y584200D01*
X2330566Y583550D01*
X2329370Y583055D01*
X2329344Y583094D01*
X2328103Y583922D01*
X2326640Y584213D01*
X2325177Y583922D01*
X2323936Y583094D01*
X2323108Y581853D01*
X2322817Y580390D01*
X2323108Y578927D01*
X2323936Y577686D01*
X2325177Y576858D01*
X2325622Y576769D01*
X2326638Y575370D01*
X2326627Y575310D01*
X2326918Y573847D01*
X2327746Y572606D01*
X2328987Y571778D01*
X2330450Y571487D01*
X2331913Y571778D01*
X2333154Y572606D01*
X2333982Y573847D01*
X2334273Y575310D01*
X2333982Y576773D01*
X2333154Y578014D01*
X2331913Y578842D01*
X2331468Y578931D01*
X2330789Y579866D01*
X2330887Y580416D01*
X2332285Y581010D01*
X2332797Y580668D01*
X2334260Y580377D01*
X2335723Y580668D01*
X2336964Y581496D01*
X2337792Y582737D01*
X2338083Y584200D01*
X2337792Y585663D01*
X2336964Y586904D01*
X2335723Y587732D01*
X2334260Y588023D01*
D02*
G37*
G36*
X2592070Y591833D02*
X2590607Y591542D01*
X2589366Y590714D01*
X2588538Y589473D01*
X2588246Y588010D01*
X2588538Y586547D01*
X2589366Y585306D01*
X2590607Y584478D01*
X2592070Y584187D01*
X2593533Y584478D01*
X2594774Y585306D01*
X2595602Y586547D01*
X2595893Y588010D01*
X2595602Y589473D01*
X2594774Y590714D01*
X2593533Y591542D01*
X2592070Y591833D01*
D02*
G37*
G36*
X2655570Y584213D02*
X2654107Y583922D01*
X2652867Y583094D01*
X2652038Y581853D01*
X2651747Y580390D01*
X2652038Y578927D01*
X2652867Y577686D01*
X2654107Y576858D01*
X2655570Y576567D01*
X2657033Y576858D01*
X2658274Y577686D01*
X2659102Y578927D01*
X2659393Y580390D01*
X2659102Y581853D01*
X2658274Y583094D01*
X2657033Y583922D01*
X2655570Y584213D01*
D02*
G37*
G36*
X2522077Y584125D02*
X2500011D01*
Y577807D01*
X2522077D01*
Y584125D01*
D02*
G37*
G36*
X2678430Y585470D02*
X2673858Y585469D01*
X2673859Y581913D01*
X2678431Y581914D01*
X2678430Y585470D01*
D02*
G37*
G36*
X2461514Y566406D02*
X2461006D01*
Y563816D01*
X2464104D01*
X2463907Y564807D01*
X2463345Y565647D01*
X2462505Y566209D01*
X2461514Y566406D01*
D02*
G37*
G36*
X2523998Y557296D02*
X2521839D01*
Y554389D01*
X2520569Y553557D01*
X2519680Y553733D01*
X2518217Y553442D01*
X2516976Y552614D01*
X2516148Y551373D01*
X2515857Y549910D01*
X2515878Y549804D01*
X2514707Y549179D01*
X2514139Y549746D01*
X2510907Y546512D01*
X2513423Y543999D01*
X2515922Y546500D01*
X2516863Y547131D01*
X2517710Y546716D01*
X2518217Y546378D01*
X2519680Y546087D01*
X2521143Y546378D01*
X2522384Y547206D01*
X2522421Y547263D01*
X2523998D01*
Y557296D01*
D02*
G37*
G36*
X2678430Y561086D02*
X2673858Y561085D01*
X2673859Y557529D01*
X2678431Y557530D01*
X2678430Y561086D01*
D02*
G37*
G36*
X2685542Y561087D02*
X2680970Y561086D01*
X2680971Y557530D01*
X2685543Y557531D01*
X2685542Y561087D01*
D02*
G37*
G36*
X2364740Y560083D02*
X2363277Y559792D01*
X2362036Y558964D01*
X2361208Y557723D01*
X2360917Y556260D01*
X2361208Y554797D01*
X2362036Y553556D01*
X2363277Y552728D01*
X2364740Y552437D01*
X2366203Y552728D01*
X2367444Y553556D01*
X2368272Y554797D01*
X2368563Y556260D01*
X2368272Y557723D01*
X2367444Y558964D01*
X2366203Y559792D01*
X2364740Y560083D01*
D02*
G37*
G36*
X2378710Y553733D02*
X2377247Y553442D01*
X2376006Y552614D01*
X2375178Y551373D01*
X2375089Y550928D01*
X2373690Y549911D01*
X2373630Y549923D01*
X2372167Y549632D01*
X2370926Y548804D01*
X2370098Y547563D01*
X2369807Y546100D01*
X2370098Y544637D01*
X2370926Y543396D01*
X2372167Y542568D01*
X2373630Y542277D01*
X2375093Y542568D01*
X2376334Y543396D01*
X2377162Y544637D01*
X2377251Y545082D01*
X2378650Y546099D01*
X2378710Y546087D01*
X2380173Y546378D01*
X2381414Y547206D01*
X2382242Y548447D01*
X2382533Y549910D01*
X2382242Y551373D01*
X2381414Y552614D01*
X2380173Y553442D01*
X2378710Y553733D01*
D02*
G37*
G36*
X2678431Y554990D02*
X2673859Y554989D01*
X2673860Y551433D01*
X2678432Y551434D01*
X2678431Y554990D01*
D02*
G37*
G36*
X2685543Y554991D02*
X2680971Y554990D01*
X2680972Y551434D01*
X2685544Y551435D01*
X2685543Y554991D01*
D02*
G37*
G36*
X2526030Y577863D02*
X2524567Y577572D01*
X2523326Y576744D01*
X2523181Y576526D01*
X2522077Y576125D01*
X2521502Y576125D01*
X2500011D01*
Y570139D01*
X2499603Y569408D01*
X2499107Y568923D01*
X2497897Y568682D01*
X2496656Y567854D01*
X2495828Y566613D01*
X2495739Y566168D01*
X2494340Y565151D01*
X2494280Y565163D01*
X2492817Y564872D01*
X2491576Y564044D01*
X2490748Y562803D01*
X2490457Y561340D01*
X2490748Y559877D01*
X2491576Y558636D01*
X2492817Y557808D01*
X2493501Y557672D01*
X2493920Y556293D01*
X2492681Y555054D01*
X2499126Y548613D01*
X2507004Y556496D01*
X2506692Y556807D01*
X2506853Y558442D01*
X2507144Y558636D01*
X2507972Y559877D01*
X2508169Y560864D01*
X2509171Y561516D01*
X2509508Y561582D01*
X2510790Y561327D01*
X2512253Y561618D01*
X2513494Y562446D01*
X2514322Y563687D01*
X2514613Y565150D01*
X2514322Y566613D01*
X2513494Y567854D01*
X2513221Y568036D01*
Y569807D01*
X2520833D01*
X2521839Y569807D01*
X2521839Y568698D01*
Y559836D01*
X2525268D01*
X2528697D01*
Y569785D01*
X2528697Y569869D01*
X2528438Y571139D01*
X2528734Y571336D01*
X2529562Y572577D01*
X2529853Y574040D01*
X2529562Y575503D01*
X2528734Y576744D01*
X2527493Y577572D01*
X2526030Y577863D01*
D02*
G37*
G36*
X2560701Y569869D02*
X2558542D01*
Y559836D01*
X2560701D01*
Y569869D01*
D02*
G37*
G36*
X2574734D02*
Y559836D01*
X2576893D01*
Y569869D01*
X2574734D01*
D02*
G37*
G36*
X2655570Y571513D02*
X2654107Y571222D01*
X2653239Y570643D01*
X2645424Y570641D01*
X2645425Y564758D01*
X2645403Y564655D01*
X2644174Y563517D01*
X2634496D01*
X2634144Y564044D01*
X2632903Y564872D01*
X2631440Y565163D01*
X2629977Y564872D01*
X2628736Y564044D01*
X2627908Y562803D01*
X2627617Y561340D01*
X2627908Y559877D01*
X2628736Y558636D01*
X2629977Y557808D01*
X2631440Y557517D01*
X2632903Y557808D01*
X2634144Y558636D01*
X2634496Y559163D01*
X2644255D01*
X2645427Y557992D01*
X2645428Y553481D01*
X2653524Y553483D01*
X2653522Y560563D01*
X2649013Y560562D01*
X2647284Y562292D01*
X2647810Y563562D01*
X2653522Y563563D01*
Y563563D01*
X2654792Y564021D01*
X2655570Y563867D01*
X2657033Y564158D01*
X2658274Y564986D01*
X2659102Y566227D01*
X2659393Y567690D01*
X2659102Y569153D01*
X2658274Y570394D01*
X2657033Y571222D01*
X2655570Y571513D01*
D02*
G37*
G36*
X2544699Y569869D02*
X2542540D01*
Y559836D01*
X2544699D01*
Y569869D01*
D02*
G37*
G36*
X2564130D02*
X2561971D01*
Y559836D01*
X2564130D01*
Y569869D01*
D02*
G37*
G36*
X2540000D02*
X2537841D01*
Y559836D01*
X2540000D01*
Y569869D01*
D02*
G37*
G36*
X2556002D02*
X2553843D01*
Y559836D01*
X2556002D01*
Y569869D01*
D02*
G37*
G36*
X2613660Y624853D02*
X2612197Y624562D01*
X2610956Y623734D01*
X2610128Y622493D01*
X2609837Y621030D01*
X2610128Y619567D01*
X2610956Y618326D01*
X2612197Y617498D01*
X2613660Y617207D01*
X2615123Y617498D01*
X2615587Y617808D01*
X2616831Y617871D01*
X2616831Y617871D01*
X2638897D01*
Y624189D01*
X2616831D01*
X2616831Y624189D01*
Y624189D01*
X2615587Y624252D01*
X2615123Y624562D01*
X2613660Y624853D01*
D02*
G37*
G36*
X2457335Y623338D02*
X2454821Y620823D01*
X2458055Y617591D01*
X2460569Y620106D01*
X2457335Y623338D01*
D02*
G37*
G36*
X2509774Y619760D02*
X2499741D01*
Y617601D01*
X2509774D01*
Y619760D01*
D02*
G37*
G36*
X2494280Y617233D02*
X2493248Y617028D01*
X2491978Y617054D01*
X2491978Y617054D01*
X2491978Y617054D01*
X2480834D01*
Y607942D01*
X2491978D01*
Y608744D01*
X2492552Y609793D01*
X2493248Y609792D01*
X2494280Y609587D01*
X2495388Y609807D01*
X2529570D01*
Y616125D01*
X2496967D01*
X2495743Y616942D01*
X2494280Y617233D01*
D02*
G37*
G36*
X2678430Y616966D02*
X2673858D01*
Y613410D01*
X2678430D01*
Y616966D01*
D02*
G37*
G36*
X2685542D02*
X2680970D01*
Y613410D01*
X2685542D01*
Y616966D01*
D02*
G37*
G36*
X2373122Y623583D02*
X2371659Y623292D01*
X2370418Y622464D01*
X2369590Y621223D01*
X2369299Y619760D01*
X2369590Y618297D01*
X2370418Y617056D01*
X2371659Y616228D01*
X2373122Y615937D01*
X2374585Y616228D01*
X2375826Y617056D01*
X2376654Y618297D01*
X2376945Y619760D01*
X2376654Y621223D01*
X2375826Y622464D01*
X2374585Y623292D01*
X2373122Y623583D01*
D02*
G37*
G36*
X2485136Y624332D02*
X2480564D01*
Y620776D01*
X2485136D01*
Y624332D01*
D02*
G37*
G36*
X2492248D02*
X2487676D01*
Y620776D01*
X2492248D01*
Y624332D01*
D02*
G37*
G36*
X2648204Y625856D02*
X2640203D01*
Y621284D01*
X2648204D01*
Y625856D01*
D02*
G37*
G36*
X2685542Y623062D02*
X2680970D01*
Y619506D01*
X2685542D01*
Y623062D01*
D02*
G37*
G36*
X2522347Y619760D02*
X2512314D01*
Y617601D01*
X2522347D01*
Y619760D01*
D02*
G37*
G36*
X2447418Y627432D02*
X2443109Y623120D01*
X2448139Y618093D01*
X2452448Y622405D01*
X2447418Y627432D01*
D02*
G37*
G36*
X2678430Y623062D02*
X2673858D01*
Y619506D01*
X2678430D01*
Y623062D01*
D02*
G37*
G36*
X2453025Y619026D02*
X2450511Y616512D01*
X2453745Y613279D01*
X2456259Y615794D01*
X2453025Y619026D01*
D02*
G37*
G36*
X2448071Y613688D02*
X2441629Y607244D01*
X2442937Y605937D01*
X2442937Y604667D01*
X2440975Y602705D01*
X2440363Y601789D01*
X2440148Y600708D01*
X2440148Y600708D01*
Y598661D01*
X2439440Y597601D01*
X2439274Y596767D01*
X2438027Y596106D01*
X2438003Y596104D01*
X2437945Y596102D01*
X2437023Y596286D01*
X2436037Y597272D01*
X2435842Y598248D01*
X2435290Y599075D01*
X2434463Y599627D01*
X2433488Y599821D01*
X2432501Y600808D01*
X2432307Y601783D01*
X2431754Y602610D01*
X2430927Y603163D01*
X2429952Y603357D01*
X2429466Y604031D01*
X2429209Y604504D01*
X2429070Y605201D01*
X2422011Y598142D01*
X2414952Y591083D01*
X2415649Y590944D01*
X2416122Y590688D01*
X2416797Y590201D01*
X2416991Y589226D01*
X2417543Y588399D01*
X2418370Y587846D01*
X2419345Y587652D01*
X2420332Y586666D01*
X2420526Y585690D01*
X2421078Y584863D01*
X2421906Y584311D01*
X2422881Y584117D01*
X2423867Y583130D01*
X2424061Y582155D01*
X2424614Y581328D01*
X2425441Y580775D01*
X2426416Y580581D01*
X2427403Y579594D01*
X2427597Y578619D01*
X2428150Y577792D01*
X2428977Y577240D01*
X2429952Y577046D01*
X2430939Y576059D01*
X2431133Y575084D01*
X2431685Y574257D01*
X2432512Y573704D01*
X2433488Y573510D01*
X2434474Y572523D01*
X2434668Y571548D01*
X2435221Y570721D01*
X2436048Y570168D01*
X2437023Y569975D01*
X2438010Y568988D01*
X2438204Y568013D01*
X2438756Y567186D01*
X2439583Y566633D01*
X2440559Y566439D01*
X2441545Y565453D01*
X2441739Y564477D01*
X2442292Y563650D01*
X2443118Y563098D01*
X2444094Y562904D01*
X2445081Y561917D01*
X2445275Y560941D01*
X2445827Y560115D01*
X2446654Y559562D01*
X2447630Y559368D01*
X2448605Y559562D01*
X2449432Y560115D01*
X2454307Y564989D01*
X2455477Y564364D01*
X2455368Y563816D01*
D01*
X2458466D01*
Y566406D01*
X2457958D01*
X2457410Y566297D01*
X2456785Y567467D01*
X2460039Y570721D01*
X2460591Y571548D01*
X2460785Y572523D01*
X2460591Y573499D01*
X2460039Y574326D01*
X2459212Y574878D01*
X2458236Y575072D01*
X2457249Y576059D01*
X2457056Y577035D01*
X2456503Y577862D01*
X2456469Y577885D01*
X2456141Y579464D01*
X2456434Y579869D01*
X2457897Y580160D01*
X2459138Y580988D01*
X2459966Y582229D01*
X2460257Y583692D01*
X2459966Y585155D01*
X2459138Y586396D01*
X2457897Y587224D01*
X2457683Y587267D01*
X2457552Y587355D01*
X2457513Y587384D01*
X2457148Y588747D01*
X2458939Y590538D01*
X2459551Y591455D01*
X2459712Y592264D01*
X2460474Y593405D01*
X2460765Y594868D01*
X2460474Y596331D01*
X2459646Y597572D01*
X2458405Y598400D01*
X2456942Y598691D01*
X2455479Y598400D01*
X2454238Y597572D01*
X2454174Y597476D01*
X2453338Y597555D01*
X2452793Y597694D01*
X2452026Y598842D01*
X2451280Y599340D01*
X2450974Y600829D01*
X2455952Y605810D01*
X2448071Y613688D01*
D02*
G37*
G36*
X2685270Y598305D02*
X2674126Y598303D01*
X2674126Y598182D01*
X2672856Y597503D01*
X2672273Y597892D01*
X2670810Y598183D01*
X2669347Y597892D01*
X2668106Y597064D01*
X2667278Y595823D01*
X2666987Y594360D01*
X2667278Y592897D01*
X2668106Y591656D01*
X2669347Y590828D01*
X2670810Y590537D01*
X2672273Y590828D01*
X2672417Y590924D01*
X2674128D01*
X2674128Y589191D01*
X2685272Y589193D01*
X2685270Y598305D01*
D02*
G37*
G36*
X2522077Y608125D02*
X2500011D01*
Y601807D01*
X2522077D01*
Y608125D01*
D02*
G37*
G36*
X2638897Y600125D02*
X2616831D01*
Y593807D01*
X2638897D01*
Y600125D01*
D02*
G37*
G36*
X2522077Y592125D02*
X2500011D01*
Y585807D01*
X2522077D01*
Y592125D01*
D02*
G37*
G36*
X2658475Y603466D02*
X2640473D01*
Y592322D01*
X2640153Y592160D01*
X2638897Y592125D01*
Y592125D01*
X2616831D01*
X2616831Y592125D01*
X2615689Y592434D01*
X2615123Y592812D01*
X2613660Y593103D01*
X2612197Y592812D01*
X2610956Y591984D01*
X2610731Y591646D01*
X2610064Y590779D01*
X2609103Y591322D01*
X2608773Y591542D01*
X2607310Y591833D01*
X2605847Y591542D01*
X2605759Y591484D01*
X2604616Y592247D01*
X2604783Y593090D01*
X2604492Y594553D01*
X2603664Y595794D01*
X2602423Y596622D01*
X2600960Y596913D01*
X2600900Y596902D01*
X2599501Y597918D01*
X2599413Y598363D01*
X2598584Y599604D01*
X2597343Y600432D01*
X2595880Y600723D01*
X2594417Y600432D01*
X2593176Y599604D01*
X2592348Y598363D01*
X2592057Y596900D01*
X2592348Y595437D01*
X2593176Y594196D01*
X2594417Y593368D01*
X2595880Y593077D01*
X2595940Y593088D01*
X2597339Y592072D01*
X2597428Y591627D01*
X2598257Y590386D01*
X2599497Y589558D01*
X2600960Y589267D01*
X2602423Y589558D01*
X2602511Y589616D01*
X2603654Y588853D01*
X2603487Y588010D01*
X2603777Y586547D01*
X2604486Y585487D01*
Y585470D01*
X2604486Y585470D01*
X2604701Y584389D01*
X2605313Y583473D01*
X2609422Y579364D01*
X2609631Y578294D01*
X2609462Y577678D01*
X2609095Y577129D01*
X2607660Y576768D01*
X2607579Y576849D01*
X2606873Y577321D01*
X2606040Y577487D01*
X2604016D01*
X2603664Y578014D01*
X2602423Y578842D01*
X2600960Y579133D01*
X2599497Y578842D01*
X2598257Y578014D01*
X2597428Y576773D01*
X2597261Y575937D01*
X2596643Y575702D01*
X2595894Y575574D01*
X2594803Y576302D01*
X2593340Y576593D01*
X2591877Y576302D01*
X2590636Y575474D01*
X2589808Y574233D01*
X2589517Y572770D01*
X2589808Y571307D01*
X2590100Y570869D01*
X2589421Y569599D01*
X2586305D01*
Y547533D01*
X2586640D01*
Y538364D01*
X2585998Y537403D01*
X2585706Y535940D01*
X2585998Y534477D01*
X2586826Y533236D01*
X2588067Y532408D01*
X2589530Y532117D01*
X2590993Y532408D01*
X2592234Y533236D01*
X2593062Y534477D01*
X2593353Y535940D01*
X2593062Y537403D01*
X2592288Y538562D01*
Y542524D01*
X2593558Y542649D01*
X2593618Y542351D01*
X2594446Y541110D01*
X2594999Y540741D01*
X2595139Y540037D01*
X2595611Y539330D01*
X2598770Y536171D01*
X2598770Y533162D01*
X2605850Y533162D01*
X2605850Y541042D01*
X2605850Y541042D01*
X2605901Y541375D01*
X2606521Y542372D01*
X2607503Y542568D01*
X2608744Y543396D01*
X2609572Y544637D01*
X2609863Y546100D01*
X2609789Y546477D01*
X2610873Y547533D01*
X2615779D01*
X2616478Y546293D01*
X2616187Y544830D01*
X2616478Y543367D01*
X2617307Y542126D01*
X2618547Y541298D01*
X2620010Y541007D01*
X2621473Y541298D01*
X2622714Y542126D01*
X2623542Y543367D01*
X2623833Y544830D01*
X2623542Y546293D01*
X2622714Y547534D01*
X2621473Y548362D01*
X2620010Y548653D01*
X2618547Y548362D01*
X2617893Y547925D01*
X2616623Y548604D01*
Y568623D01*
X2616800Y569630D01*
X2617807Y569807D01*
X2638897D01*
Y576125D01*
X2616869Y576125D01*
X2616830Y576166D01*
X2616779Y577760D01*
X2616831Y577807D01*
X2638897D01*
Y584125D01*
X2616831D01*
Y583790D01*
X2613432D01*
X2613073Y584278D01*
X2613453Y585040D01*
X2613767Y585478D01*
X2615123Y585748D01*
X2615561Y586040D01*
X2616831Y585807D01*
Y585807D01*
X2616831Y585807D01*
X2638897D01*
Y586142D01*
X2643357D01*
X2643947Y585748D01*
X2645410Y585457D01*
X2646873Y585748D01*
X2648114Y586576D01*
X2648942Y587817D01*
X2649233Y589280D01*
X2648942Y590743D01*
X2648910Y590792D01*
X2649492Y591958D01*
X2650569Y592065D01*
X2655351Y587283D01*
X2655351Y587283D01*
X2656267Y586671D01*
X2657348Y586456D01*
X2658143Y586614D01*
X2658679Y586256D01*
X2660142Y585965D01*
X2661605Y586256D01*
X2662845Y587084D01*
X2663674Y588325D01*
X2663965Y589788D01*
X2663674Y591251D01*
X2662845Y592492D01*
X2661605Y593320D01*
X2660142Y593611D01*
X2659745Y593532D01*
X2658475Y594575D01*
Y603466D01*
D02*
G37*
G36*
X2522077Y600125D02*
X2500011D01*
Y593807D01*
X2522077D01*
Y600125D01*
D02*
G37*
G36*
X2641600Y617233D02*
X2640137Y616942D01*
X2639878Y616769D01*
X2638897Y616125D01*
Y616125D01*
X2638897Y616125D01*
X2616831D01*
Y609807D01*
X2638897D01*
Y609807D01*
X2640134Y609877D01*
X2640167Y609872D01*
X2641600Y609587D01*
X2643063Y609878D01*
X2644304Y610706D01*
X2645132Y611947D01*
X2645423Y613410D01*
X2645132Y614873D01*
X2644304Y616114D01*
X2643063Y616942D01*
X2641600Y617233D01*
D02*
G37*
G36*
X2441313Y621324D02*
X2437004Y617012D01*
X2442035Y611984D01*
X2446344Y616296D01*
X2441313Y621324D01*
D02*
G37*
G36*
X2462365Y618310D02*
X2459851Y615795D01*
X2463085Y612563D01*
X2465598Y615078D01*
X2462365Y618310D01*
D02*
G37*
G36*
X2458055Y613998D02*
X2455541Y611484D01*
X2458775Y608251D01*
X2461289Y610766D01*
X2458055Y613998D01*
D02*
G37*
G36*
X2597150Y618503D02*
X2595687Y618212D01*
X2594446Y617384D01*
X2593618Y616143D01*
X2593327Y614680D01*
X2593618Y613217D01*
X2594446Y611976D01*
X2595687Y611148D01*
X2597150Y610857D01*
X2597865Y610999D01*
X2598629Y609856D01*
X2598123Y609098D01*
X2597832Y607635D01*
X2598123Y606172D01*
X2598951Y604931D01*
X2600192Y604103D01*
X2601395Y603863D01*
X2601691Y603751D01*
X2602351Y602655D01*
X2602216Y601980D01*
X2602508Y600517D01*
X2603336Y599276D01*
X2604577Y598448D01*
X2606040Y598157D01*
X2607503Y598448D01*
X2608744Y599276D01*
X2609572Y600517D01*
X2609863Y601980D01*
X2609799Y602304D01*
X2610397Y602857D01*
X2610942Y603068D01*
X2611111Y602955D01*
X2611944Y602789D01*
X2616831D01*
Y601807D01*
X2638897D01*
Y608125D01*
X2616831D01*
Y607143D01*
X2612846D01*
X2610814Y609174D01*
X2610108Y609646D01*
X2609275Y609812D01*
X2604710D01*
X2604359Y610339D01*
X2603118Y611167D01*
X2601655Y611458D01*
X2600940Y611316D01*
X2600176Y612459D01*
X2600682Y613217D01*
X2600974Y614680D01*
X2600682Y616143D01*
X2599854Y617384D01*
X2598613Y618212D01*
X2597150Y618503D01*
D02*
G37*
G36*
X2537460Y613423D02*
X2535997Y613132D01*
X2534756Y612304D01*
X2533928Y611063D01*
X2533637Y609600D01*
X2533928Y608137D01*
X2534756Y606896D01*
X2535997Y606068D01*
X2537460Y605777D01*
X2538923Y606068D01*
X2540164Y606896D01*
X2540992Y608137D01*
X2541283Y609600D01*
X2540992Y611063D01*
X2540164Y612304D01*
X2538923Y613132D01*
X2537460Y613423D01*
D02*
G37*
G36*
X2685272Y609688D02*
X2674128D01*
Y607956D01*
X2672371D01*
X2672227Y608052D01*
X2670764Y608343D01*
X2669301Y608052D01*
X2668060Y607224D01*
X2667232Y605983D01*
X2666941Y604520D01*
X2667232Y603057D01*
X2668060Y601816D01*
X2669301Y600988D01*
X2670764Y600697D01*
X2672227Y600988D01*
X2672858Y601409D01*
X2674128Y600730D01*
Y600576D01*
X2685272D01*
Y609688D01*
D02*
G37*
G36*
X2552557Y569599D02*
X2546239D01*
Y549464D01*
X2544969Y548729D01*
X2544699Y548884D01*
Y557296D01*
X2541270D01*
X2537841D01*
Y547263D01*
X2539653D01*
X2540332Y545993D01*
X2540024Y545531D01*
X2539733Y544068D01*
X2540024Y542605D01*
X2540852Y541364D01*
X2541032Y541245D01*
X2541032Y533162D01*
X2548112Y533162D01*
X2548112Y536402D01*
X2548273Y537210D01*
X2548112Y538019D01*
X2548112Y541258D01*
X2548112D01*
X2548019Y541351D01*
Y543367D01*
X2549289Y543893D01*
X2550399Y542783D01*
X2551020Y542368D01*
X2551520Y541618D01*
X2552761Y540790D01*
X2554224Y540499D01*
X2555687Y540790D01*
X2556928Y541618D01*
X2557756Y542859D01*
X2558047Y544322D01*
X2557756Y545785D01*
X2557617Y545993D01*
X2558296Y547263D01*
X2560701D01*
Y557296D01*
X2557272D01*
X2553843D01*
Y549696D01*
X2553827Y549689D01*
X2552557Y550493D01*
Y569599D01*
D02*
G37*
G36*
X2623820Y507746D02*
X2620264Y507746D01*
X2620264Y503682D01*
X2619502Y503682D01*
X2619502Y499110D01*
X2623058Y499110D01*
X2623058Y503174D01*
X2623820Y503174D01*
X2623820Y507746D01*
D02*
G37*
G36*
X2683509Y505714D02*
X2678937Y505713D01*
X2678938Y502157D01*
X2683510Y502158D01*
X2683509Y505714D01*
D02*
G37*
G36*
X2442210Y505540D02*
X2439162D01*
Y503000D01*
X2442210D01*
Y505540D01*
D02*
G37*
G36*
X2363470Y511823D02*
X2362007Y511532D01*
X2360766Y510704D01*
X2359938Y509463D01*
X2359647Y508000D01*
X2359938Y506537D01*
X2360766Y505296D01*
X2361914Y504529D01*
X2362053Y503984D01*
X2362132Y503148D01*
X2362036Y503084D01*
X2361208Y501843D01*
X2360917Y500380D01*
X2361046Y499732D01*
X2359902Y498968D01*
X2359345Y499340D01*
X2357882Y499631D01*
X2356419Y499340D01*
X2355178Y498512D01*
X2354350Y497271D01*
X2354059Y495808D01*
X2354350Y494345D01*
X2355178Y493104D01*
X2356419Y492276D01*
X2357882Y491985D01*
X2359345Y492276D01*
X2360586Y493104D01*
X2361414Y494345D01*
X2361705Y495808D01*
X2361577Y496456D01*
X2362720Y497220D01*
X2363277Y496848D01*
X2364740Y496557D01*
X2366203Y496848D01*
X2367444Y497676D01*
X2368272Y498917D01*
X2368563Y500380D01*
X2368272Y501843D01*
X2367444Y503084D01*
X2366296Y503851D01*
X2366157Y504396D01*
X2366078Y505232D01*
X2366174Y505296D01*
X2367002Y506537D01*
X2367293Y508000D01*
X2367002Y509463D01*
X2366174Y510704D01*
X2364933Y511532D01*
X2363470Y511823D01*
D02*
G37*
G36*
X2623058Y496570D02*
X2619502Y496570D01*
X2619502Y491998D01*
X2623058Y491998D01*
X2623058Y496570D01*
D02*
G37*
G36*
X2464054Y502007D02*
Y493666D01*
X2467187D01*
Y497857D01*
X2466852Y499542D01*
X2465897Y500970D01*
X2464469Y501924D01*
X2464054Y502007D01*
D02*
G37*
G36*
X2374900Y505473D02*
X2373437Y505182D01*
X2372196Y504354D01*
X2371368Y503113D01*
X2371077Y501650D01*
X2371368Y500187D01*
X2372196Y498946D01*
X2373437Y498118D01*
X2374900Y497827D01*
X2376363Y498118D01*
X2377604Y498946D01*
X2378432Y500187D01*
X2378723Y501650D01*
X2378432Y503113D01*
X2377604Y504354D01*
X2376363Y505182D01*
X2374900Y505473D01*
D02*
G37*
G36*
X2248766Y513080D02*
X2245210Y513079D01*
X2245211Y508507D01*
X2248767Y508508D01*
X2248766Y513080D01*
D02*
G37*
G36*
X2623820Y514858D02*
X2620264Y514858D01*
X2620264Y510286D01*
X2623820Y510286D01*
X2623820Y514858D01*
D02*
G37*
G36*
X2629916Y514858D02*
X2626360Y514858D01*
X2626360Y510286D01*
X2629916Y510286D01*
X2629916Y514858D01*
D02*
G37*
G36*
X2683508Y511810D02*
X2678936Y511809D01*
X2678937Y508253D01*
X2683509Y508254D01*
X2683508Y511810D01*
D02*
G37*
G36*
X2447798Y505540D02*
X2444750D01*
Y503000D01*
X2447798D01*
Y505540D01*
D02*
G37*
G36*
X2629916Y507746D02*
X2626360Y507746D01*
X2626360Y503174D01*
X2629916Y503174D01*
X2629916Y507746D01*
D02*
G37*
G36*
X2379980Y513093D02*
X2378517Y512802D01*
X2377276Y511974D01*
X2376448Y510733D01*
X2376157Y509270D01*
X2376448Y507807D01*
X2377276Y506566D01*
X2378517Y505738D01*
X2379980Y505447D01*
X2381443Y505738D01*
X2382684Y506566D01*
X2383512Y507807D01*
X2383803Y509270D01*
X2383512Y510733D01*
X2382684Y511974D01*
X2381443Y512802D01*
X2379980Y513093D01*
D02*
G37*
G36*
X2267571Y494250D02*
X2262237Y494249D01*
X2262238Y487137D01*
X2267572Y487138D01*
X2267571Y494250D01*
D02*
G37*
G36*
X2441956Y476135D02*
X2440748Y475895D01*
X2438648Y474491D01*
X2437244Y472391D01*
X2436752Y469913D01*
Y462166D01*
X2441956D01*
Y476135D01*
D02*
G37*
G36*
X2444496Y476135D02*
Y462166D01*
X2449700D01*
Y469913D01*
X2449208Y472391D01*
X2447804Y474491D01*
X2445704Y475895D01*
X2444496Y476135D01*
D02*
G37*
G36*
X2431415Y472948D02*
X2429256D01*
Y466344D01*
X2431415D01*
Y472948D01*
D02*
G37*
G36*
X2312583Y461010D02*
X2309480D01*
Y456383D01*
X2309734D01*
X2310824Y456600D01*
X2311748Y457218D01*
X2312366Y458142D01*
X2312583Y459232D01*
Y461010D01*
D02*
G37*
G36*
X2388328Y456132D02*
X2386496Y454300D01*
X2386856Y453941D01*
X2387696Y453380D01*
X2388687Y453183D01*
X2389678Y453380D01*
X2390518Y453941D01*
X2390518Y453941D01*
X2388328Y456132D01*
D02*
G37*
G36*
X2384341Y460118D02*
X2384341Y460118D01*
X2383780Y459278D01*
X2383583Y458287D01*
X2383780Y457296D01*
X2384341Y456456D01*
X2384700Y456096D01*
X2386532Y457928D01*
X2384341Y460118D01*
D02*
G37*
G36*
X2306940Y461010D02*
X2303837D01*
Y459232D01*
X2304054Y458142D01*
X2304672Y457218D01*
X2305596Y456600D01*
X2306686Y456383D01*
X2306940D01*
Y461010D01*
D02*
G37*
G36*
X2461514Y491126D02*
X2458381D01*
Y486935D01*
X2458716Y485250D01*
X2459671Y483822D01*
X2461099Y482868D01*
X2461514Y482785D01*
Y491126D01*
D02*
G37*
G36*
X2467187D02*
X2464054D01*
Y482785D01*
X2464469Y482868D01*
X2465897Y483822D01*
X2466852Y485250D01*
X2467187Y486935D01*
Y491126D01*
D02*
G37*
G36*
X2621123Y487408D02*
X2619599Y487408D01*
X2619599Y484106D01*
X2621123Y484106D01*
X2621123Y487408D01*
D02*
G37*
G36*
X2621123Y481566D02*
X2619599Y481566D01*
X2619600Y478264D01*
X2619902D01*
X2621007Y478264D01*
X2621008Y477159D01*
Y476856D01*
X2624310Y476856D01*
X2624310Y478381D01*
X2622230Y478381D01*
X2621124Y478381D01*
X2621123Y479486D01*
X2621123Y481566D01*
D02*
G37*
G36*
X2308484Y480555D02*
X2299372Y480553D01*
X2299375Y471065D01*
X2298507Y470892D01*
X2297553Y470255D01*
X2296520Y469673D01*
X2295654Y469936D01*
X2295654Y470234D01*
X2295652Y473709D01*
X2292096Y473708D01*
X2292098Y469136D01*
X2295236Y469137D01*
X2295867Y468544D01*
X2296154Y467322D01*
X2296157Y467310D01*
X2295351Y466328D01*
X2295160D01*
Y458232D01*
X2302240D01*
Y463375D01*
X2302567Y463795D01*
X2302612Y463800D01*
X2303001Y463550D01*
X2308210D01*
X2312583D01*
Y465328D01*
X2312366Y466418D01*
X2311748Y467342D01*
X2310824Y467960D01*
X2309734Y468177D01*
X2308574D01*
X2308488Y469411D01*
X2308488Y469447D01*
X2308484Y480555D01*
D02*
G37*
G36*
X2289554Y480820D02*
X2285998Y480818D01*
X2286000Y476246D01*
X2289556Y476248D01*
X2289554Y480820D01*
D02*
G37*
G36*
X2295650Y480821D02*
X2292094Y480820D01*
X2292096Y476248D01*
X2295652Y476249D01*
X2295650Y480821D01*
D02*
G37*
G36*
X2682990Y520094D02*
X2679308Y516411D01*
X2680745Y514975D01*
X2684427Y518657D01*
X2682990Y520094D01*
D02*
G37*
G36*
X2509112Y544716D02*
X2505880Y541482D01*
X2508395Y538968D01*
X2511627Y542202D01*
X2509112Y544716D01*
D02*
G37*
G36*
X2504800Y549025D02*
X2501568Y545791D01*
X2504083Y543277D01*
X2507315Y546511D01*
X2504800Y549025D01*
D02*
G37*
G36*
X2357120Y551193D02*
X2355657Y550902D01*
X2354416Y550074D01*
X2353588Y548833D01*
X2353297Y547370D01*
X2353588Y545907D01*
X2354416Y544666D01*
X2355657Y543838D01*
X2357120Y543547D01*
X2358583Y543838D01*
X2359824Y544666D01*
X2360652Y545907D01*
X2360943Y547370D01*
X2360652Y548833D01*
X2359824Y550074D01*
X2358583Y550902D01*
X2357120Y551193D01*
D02*
G37*
G36*
X2340610Y546367D02*
X2339147Y546076D01*
X2337906Y545248D01*
X2337078Y544007D01*
X2336787Y542544D01*
X2337078Y541081D01*
X2337906Y539840D01*
X2339147Y539012D01*
X2340610Y538721D01*
X2342073Y539012D01*
X2343314Y539840D01*
X2344142Y541081D01*
X2344433Y542544D01*
X2344142Y544007D01*
X2343314Y545248D01*
X2342073Y546076D01*
X2340610Y546367D01*
D02*
G37*
G36*
X2671332Y542702D02*
X2667651Y539019D01*
X2669088Y537583D01*
X2672769Y541265D01*
X2671332Y542702D01*
D02*
G37*
G36*
X2565398Y543050D02*
X2561842Y543049D01*
X2561844Y538476D01*
X2565399Y538478D01*
X2565398Y543050D01*
D02*
G37*
G36*
X2571494Y543051D02*
X2567938Y543050D01*
X2567939Y538478D01*
X2571496Y538479D01*
X2571494Y543051D01*
D02*
G37*
G36*
X2576893Y557296D02*
X2574734D01*
Y547263D01*
X2576893D01*
Y557296D01*
D02*
G37*
G36*
X2509827Y554055D02*
X2506595Y550821D01*
X2509111Y548308D01*
X2512343Y551542D01*
X2509827Y554055D01*
D02*
G37*
G36*
X2640390Y556213D02*
X2638927Y555922D01*
X2638529Y555657D01*
X2630439Y555655D01*
X2630440Y548575D01*
X2638536Y548577D01*
X2638536Y548577D01*
Y548577D01*
X2639806Y548683D01*
X2640390Y548567D01*
X2641853Y548858D01*
X2643094Y549686D01*
X2643922Y550927D01*
X2644213Y552390D01*
X2643922Y553853D01*
X2643094Y555094D01*
X2641853Y555922D01*
X2640390Y556213D01*
D02*
G37*
G36*
X2528697Y557296D02*
X2526538D01*
Y547263D01*
X2528697D01*
Y557296D01*
D02*
G37*
G36*
X2413747Y552343D02*
X2412284Y552052D01*
X2411044Y551224D01*
X2410215Y549983D01*
X2409924Y548520D01*
X2410215Y547057D01*
X2411044Y545816D01*
X2412284Y544988D01*
X2413747Y544697D01*
X2415210Y544988D01*
X2416451Y545816D01*
X2417280Y547057D01*
X2417571Y548520D01*
X2417280Y549983D01*
X2416451Y551224D01*
X2415210Y552052D01*
X2413747Y552343D01*
D02*
G37*
G36*
X2570035Y569869D02*
X2568829D01*
X2568765Y569869D01*
X2566670D01*
Y558566D01*
Y547263D01*
X2568765D01*
X2568829Y547263D01*
X2570035D01*
X2570099Y547263D01*
X2572194D01*
Y558566D01*
Y569869D01*
X2570099D01*
X2570035Y569869D01*
D02*
G37*
G36*
X2564130Y557296D02*
X2561971D01*
Y547263D01*
X2564130D01*
Y557296D01*
D02*
G37*
G36*
X2536555Y569599D02*
X2530237D01*
Y547533D01*
X2531219D01*
Y541258D01*
X2530952D01*
X2530952Y533162D01*
X2538032Y533162D01*
X2538032Y541258D01*
X2536471Y541258D01*
X2535573Y542156D01*
Y547533D01*
X2536555D01*
Y569599D01*
D02*
G37*
G36*
X2482910Y530160D02*
X2480878Y530160D01*
X2480878Y526544D01*
X2486018Y526545D01*
X2486018Y527053D01*
X2485781Y528242D01*
X2485107Y529250D01*
X2484099Y529924D01*
X2482910Y530160D01*
D02*
G37*
G36*
X2674566Y539469D02*
X2669987Y534889D01*
X2665407Y530308D01*
X2665946Y529769D01*
X2666844Y528871D01*
X2667742Y527974D01*
X2668281Y527435D01*
X2672860Y532016D01*
X2677440Y536596D01*
X2676901Y537135D01*
X2676003Y538033D01*
X2675105Y538931D01*
X2674566Y539469D01*
D02*
G37*
G36*
X2584623Y569599D02*
X2578305D01*
Y547533D01*
X2578640D01*
Y542784D01*
X2575216Y542783D01*
X2575220Y531639D01*
X2575882Y531639D01*
X2575951Y531555D01*
X2576241Y530092D01*
X2577070Y528851D01*
X2578311Y528023D01*
X2579774Y527732D01*
X2581237Y528023D01*
X2582478Y528851D01*
X2583306Y530092D01*
X2583597Y531555D01*
X2583668Y531641D01*
X2584332Y531641D01*
X2584328Y542785D01*
X2584328D01*
X2584288Y542825D01*
Y547533D01*
X2584623D01*
Y569599D01*
D02*
G37*
G36*
X2679236Y534800D02*
X2674657Y530220D01*
X2670078Y525639D01*
X2670616Y525100D01*
X2671515Y524202D01*
X2672413Y523305D01*
X2672915Y522803D01*
X2677494Y527383D01*
X2682073Y531964D01*
X2681534Y532503D01*
X2680636Y533401D01*
X2679738Y534298D01*
X2679236Y534800D01*
D02*
G37*
G36*
X2248765Y520192D02*
X2245209Y520191D01*
X2245210Y515619D01*
X2248766Y515620D01*
X2248765Y520192D01*
D02*
G37*
G36*
X2683870Y530168D02*
X2679290Y525588D01*
X2674711Y521007D01*
X2677512Y518207D01*
X2682091Y522788D01*
X2686671Y527368D01*
X2683870Y530168D01*
D02*
G37*
G36*
X2645410Y529603D02*
X2643947Y529312D01*
X2642706Y528484D01*
X2641878Y527243D01*
X2641587Y525780D01*
X2641878Y524317D01*
X2642706Y523076D01*
X2643947Y522248D01*
X2645410Y521957D01*
X2646873Y522248D01*
X2648114Y523076D01*
X2648942Y524317D01*
X2649233Y525780D01*
X2648942Y527243D01*
X2648114Y528484D01*
X2646873Y529312D01*
X2645410Y529603D01*
D02*
G37*
G36*
X2571496Y535939D02*
X2567940Y535938D01*
X2567942Y531366D01*
X2571498Y531367D01*
X2571496Y535939D01*
D02*
G37*
G36*
X2665855Y537223D02*
X2662174Y533541D01*
X2663611Y532104D01*
X2667292Y535786D01*
X2665855Y537223D01*
D02*
G37*
G36*
X2638536Y545577D02*
X2630440Y545575D01*
X2630442Y538495D01*
X2630441Y538495D01*
X2630441D01*
X2630820Y537225D01*
X2630665Y536449D01*
X2630956Y534986D01*
X2631785Y533745D01*
X2633026Y532916D01*
X2634489Y532625D01*
X2635952Y532916D01*
X2637192Y533745D01*
X2638021Y534986D01*
X2638312Y536449D01*
X2638158Y537227D01*
X2638538Y538497D01*
X2638538D01*
X2638536Y545577D01*
D02*
G37*
G36*
X2565400Y535938D02*
X2561844Y535937D01*
X2561846Y531365D01*
X2565402Y531366D01*
X2565400Y535938D01*
D02*
G37*
G36*
X2307590Y535953D02*
X2306127Y535662D01*
X2304886Y534834D01*
X2304058Y533593D01*
X2303767Y532130D01*
X2304058Y530667D01*
X2304886Y529426D01*
X2306127Y528598D01*
X2307590Y528307D01*
X2309053Y528598D01*
X2310294Y529426D01*
X2311122Y530667D01*
X2311413Y532130D01*
X2311122Y533593D01*
X2310294Y534834D01*
X2309053Y535662D01*
X2307590Y535953D01*
D02*
G37*
G36*
X2615930Y541258D02*
X2608850Y541258D01*
X2608850Y533162D01*
X2615174Y533162D01*
X2616187Y532130D01*
X2616478Y530667D01*
X2617307Y529426D01*
X2618547Y528598D01*
X2620010Y528307D01*
X2621473Y528598D01*
X2622714Y529426D01*
X2623542Y530667D01*
X2623833Y532130D01*
X2623542Y533593D01*
X2622714Y534834D01*
X2621473Y535662D01*
X2620010Y535953D01*
X2619389Y535830D01*
X2616469Y538750D01*
X2615930Y539110D01*
X2615930Y541258D01*
D02*
G37*
G36*
X2344674Y538493D02*
X2343211Y538202D01*
X2341970Y537374D01*
X2341142Y536133D01*
X2340851Y534670D01*
X2341142Y533207D01*
X2341970Y531966D01*
X2343211Y531138D01*
X2344674Y530847D01*
X2346137Y531138D01*
X2347267Y531893D01*
X2348066Y530696D01*
X2349307Y529868D01*
X2350770Y529577D01*
X2352233Y529868D01*
X2353474Y530696D01*
X2354302Y531937D01*
X2354593Y533400D01*
X2354302Y534863D01*
X2353474Y536104D01*
X2352233Y536932D01*
X2350770Y537223D01*
X2349307Y536932D01*
X2348177Y536177D01*
X2347378Y537374D01*
X2346137Y538202D01*
X2344674Y538493D01*
D02*
G37*
G36*
X2570734Y703326D02*
X2567178Y703326D01*
X2567178Y698754D01*
X2570734Y698754D01*
X2570734Y703326D01*
D02*
G37*
G36*
X2542794Y703326D02*
X2539238Y703326D01*
X2539238Y698754D01*
X2542794Y698754D01*
X2542794Y703326D01*
D02*
G37*
G36*
X2576830D02*
X2573274Y703326D01*
X2573274Y698754D01*
X2576830Y698754D01*
X2576830Y703326D01*
D02*
G37*
G36*
X2536698Y703326D02*
X2533142Y703326D01*
X2533142Y698754D01*
X2536698Y698754D01*
X2536698Y703326D01*
D02*
G37*
G36*
X2296263Y759018D02*
Y743780D01*
Y728541D01*
X2297471Y728781D01*
X2299571Y730184D01*
X2300000Y730826D01*
X2301329Y730529D01*
X2301420Y729930D01*
X2295775Y724285D01*
X2295112Y723292D01*
X2294879Y722122D01*
X2294879Y722122D01*
Y717906D01*
X2291858D01*
Y704730D01*
X2303710Y704730D01*
X2304410Y703771D01*
X2304462Y703644D01*
X2305316Y701581D01*
X2306759Y699701D01*
X2308639Y698259D01*
X2310829Y697352D01*
X2313178Y697042D01*
X2315527Y697352D01*
X2317717Y698259D01*
X2319597Y699701D01*
X2321039Y701581D01*
X2321946Y703771D01*
X2322256Y706120D01*
X2321946Y708469D01*
X2321039Y710659D01*
X2319597Y712539D01*
X2317717Y713981D01*
X2315527Y714888D01*
X2313178Y715198D01*
X2310829Y714888D01*
X2308639Y713981D01*
X2306759Y712539D01*
X2305316Y710659D01*
X2305288Y710590D01*
X2304018Y710843D01*
Y717906D01*
X2300997D01*
Y720855D01*
X2306959Y726817D01*
X2306959Y726817D01*
X2307622Y727810D01*
X2307855Y728980D01*
X2307855Y728980D01*
Y749286D01*
X2308074Y749615D01*
X2308365Y751078D01*
X2308074Y752541D01*
X2307246Y753782D01*
X2306005Y754610D01*
X2304542Y754901D01*
X2303079Y754610D01*
X2302481Y754211D01*
X2301078Y754755D01*
X2300975Y755274D01*
X2299571Y757375D01*
X2297471Y758778D01*
X2296263Y759018D01*
D02*
G37*
G36*
X2673658Y706556D02*
X2668000Y700898D01*
X2671234Y697665D01*
X2676891Y703323D01*
X2673658Y706556D01*
D02*
G37*
G36*
X2605278Y703326D02*
X2601722Y703326D01*
X2601722Y698754D01*
X2605278Y698754D01*
X2605278Y703326D01*
D02*
G37*
G36*
X2611374Y703326D02*
X2607818Y703326D01*
X2607818Y698754D01*
X2611374Y698754D01*
X2611374Y703326D01*
D02*
G37*
G36*
X2681578Y720484D02*
X2678346Y717250D01*
X2680113Y715484D01*
X2680421Y715176D01*
X2680554Y714999D01*
X2680650Y713614D01*
X2680397Y713295D01*
X2680267Y713165D01*
X2675454Y708352D01*
X2678687Y705119D01*
X2684345Y710777D01*
X2681811Y713310D01*
X2681423Y713699D01*
X2681147Y714209D01*
X2681319Y715194D01*
X2681632Y715507D01*
X2684093Y717970D01*
X2681578Y720484D01*
D02*
G37*
G36*
X2677266Y724793D02*
X2674034Y721559D01*
X2676549Y719045D01*
X2679781Y722279D01*
X2677266Y724793D01*
D02*
G37*
G36*
X2686605Y725514D02*
X2683373Y722280D01*
X2685888Y719767D01*
X2689120Y723001D01*
X2686605Y725514D01*
D02*
G37*
G36*
X2345928Y707200D02*
X2337832D01*
Y703053D01*
X2336562Y702169D01*
X2335784Y702323D01*
X2334321Y702032D01*
X2333299Y701350D01*
X2331958Y702691D01*
Y707200D01*
X2323862D01*
Y700120D01*
X2328371D01*
X2329951Y698540D01*
X2328371Y696960D01*
X2323862D01*
Y689880D01*
X2331958D01*
Y694389D01*
X2333251Y695683D01*
X2334321Y694968D01*
X2335784Y694677D01*
X2336562Y694831D01*
X2337832Y693947D01*
Y689880D01*
X2345928D01*
Y696960D01*
X2345928Y696960D01*
X2345928D01*
X2345642Y698230D01*
X2345703Y698540D01*
X2345642Y698850D01*
X2345928Y700120D01*
X2345928D01*
X2345928Y700120D01*
Y707200D01*
D02*
G37*
G36*
X2686141Y708980D02*
X2680483Y703323D01*
X2683716Y700090D01*
X2689373Y705748D01*
X2686141Y708980D01*
D02*
G37*
G36*
X2563456Y703056D02*
X2554344Y703056D01*
X2554344Y702021D01*
X2553074Y700979D01*
X2552700Y701053D01*
X2551237Y700762D01*
X2549996Y699934D01*
X2549168Y698693D01*
X2548877Y697230D01*
X2549168Y695767D01*
X2549996Y694526D01*
X2551237Y693698D01*
X2552700Y693407D01*
X2553074Y693481D01*
X2554344Y692439D01*
X2554344Y691912D01*
X2563456Y691912D01*
X2563456Y703056D01*
D02*
G37*
G36*
X2455672Y709689D02*
X2454209Y709398D01*
X2452968Y708570D01*
X2452140Y707329D01*
X2451849Y705866D01*
X2452140Y704403D01*
X2452968Y703162D01*
X2454209Y702334D01*
X2455672Y702043D01*
X2457135Y702334D01*
X2458376Y703162D01*
X2459204Y704403D01*
X2459495Y705866D01*
X2459204Y707329D01*
X2458376Y708570D01*
X2457135Y709398D01*
X2455672Y709689D01*
D02*
G37*
G36*
X2313686Y690385D02*
X2312223Y690094D01*
X2310982Y689266D01*
X2310154Y688025D01*
X2309863Y686562D01*
X2310083Y685451D01*
X2309561Y684371D01*
X2309314Y684069D01*
X2308035Y683900D01*
X2305845Y682993D01*
X2303965Y681551D01*
X2302522Y679671D01*
X2301616Y677482D01*
X2301306Y675132D01*
X2301616Y672783D01*
X2302522Y670593D01*
X2303965Y668713D01*
X2305845Y667271D01*
X2308035Y666364D01*
X2310384Y666054D01*
X2312733Y666364D01*
X2314923Y667271D01*
X2316803Y668713D01*
X2318246Y670593D01*
X2319152Y672783D01*
X2319462Y675132D01*
X2319152Y677482D01*
X2318246Y679671D01*
X2316803Y681551D01*
X2316067Y682115D01*
X2316118Y683677D01*
X2316390Y683858D01*
X2316741Y684385D01*
X2318626D01*
X2321291Y681721D01*
X2321997Y681249D01*
X2322830Y681083D01*
X2323862Y680173D01*
Y679800D01*
X2331958D01*
Y681163D01*
X2337832D01*
Y679800D01*
X2345928D01*
Y686880D01*
X2337832D01*
Y685517D01*
X2331958D01*
Y686880D01*
X2323862D01*
Y686880D01*
X2322592Y686577D01*
X2321067Y688101D01*
X2320361Y688573D01*
X2319528Y688739D01*
X2316741D01*
X2316390Y689266D01*
X2315149Y690094D01*
X2313686Y690385D01*
D02*
G37*
G36*
X2286873Y700770D02*
X2274713D01*
Y687594D01*
X2274788D01*
X2275173Y686324D01*
X2274650Y685974D01*
X2273821Y684734D01*
X2273530Y683271D01*
X2273821Y681808D01*
X2274650Y680567D01*
X2275890Y679738D01*
X2277353Y679447D01*
X2278816Y679738D01*
X2280057Y680567D01*
X2280826Y681718D01*
X2281360Y681854D01*
X2282206Y681937D01*
X2282280Y681826D01*
X2283521Y680998D01*
X2284984Y680707D01*
X2286447Y680998D01*
X2287688Y681826D01*
X2288516Y683067D01*
X2288807Y684530D01*
X2288516Y685993D01*
X2287688Y687234D01*
X2286873Y687778D01*
Y700770D01*
D02*
G37*
G36*
X2355850Y683260D02*
X2352802D01*
Y680720D01*
X2355850D01*
Y683260D01*
D02*
G37*
G36*
X2269728Y700770D02*
X2257568D01*
Y687594D01*
X2259675D01*
X2260060Y686324D01*
X2259536Y685974D01*
X2258708Y684734D01*
X2258417Y683271D01*
X2258708Y681808D01*
X2259536Y680567D01*
X2260777Y679738D01*
X2262240Y679447D01*
X2263703Y679738D01*
X2264944Y680567D01*
X2265772Y681808D01*
X2265957Y682734D01*
X2266474Y683508D01*
X2266707Y684679D01*
X2266707Y684679D01*
Y687594D01*
X2269728D01*
Y700770D01*
D02*
G37*
G36*
X2588194Y686689D02*
X2586035D01*
Y676656D01*
X2588194D01*
Y686689D01*
D02*
G37*
G36*
X2592893D02*
X2590734D01*
Y676656D01*
X2592893D01*
Y686689D01*
D02*
G37*
G36*
X2304018Y700770D02*
X2291858D01*
Y687594D01*
X2293755D01*
X2293880Y686324D01*
X2293681Y686284D01*
X2292440Y685456D01*
X2291612Y684215D01*
X2291321Y682752D01*
X2291612Y681289D01*
X2292440Y680048D01*
X2293681Y679220D01*
X2295144Y678929D01*
X2296607Y679220D01*
X2297848Y680048D01*
X2298676Y681289D01*
X2298843Y682125D01*
X2300101Y683383D01*
X2300101Y683383D01*
X2300764Y684375D01*
X2300997Y685546D01*
Y687594D01*
X2304018D01*
Y700770D01*
D02*
G37*
G36*
X2631596Y687911D02*
X2628364Y684678D01*
X2630878Y682163D01*
X2634111Y685397D01*
X2631596Y687911D01*
D02*
G37*
G36*
X2576830Y696214D02*
X2573274Y696214D01*
X2573274Y691642D01*
X2576830Y691642D01*
X2576830Y696214D01*
D02*
G37*
G36*
X2598000Y703056D02*
X2588888Y703056D01*
X2588888Y701569D01*
X2588260Y701053D01*
X2586797Y700762D01*
X2585556Y699934D01*
X2584727Y698693D01*
X2584437Y697230D01*
X2584727Y695767D01*
X2585556Y694526D01*
X2586797Y693698D01*
X2588260Y693407D01*
X2588888Y692891D01*
X2588888Y691912D01*
X2598000Y691912D01*
X2598000Y703056D01*
D02*
G37*
G36*
X2678687Y701527D02*
X2673029Y695869D01*
X2676263Y692636D01*
X2681920Y698294D01*
X2678687Y701527D01*
D02*
G37*
G36*
X2570734Y696214D02*
X2567178Y696214D01*
X2567178Y691642D01*
X2570734Y691642D01*
X2570734Y696214D01*
D02*
G37*
G36*
X2355850Y688340D02*
X2352802D01*
Y685800D01*
X2355850D01*
Y688340D01*
D02*
G37*
G36*
X2627285Y692221D02*
X2624052Y688987D01*
X2626567Y686473D01*
X2629800Y689707D01*
X2627285Y692221D01*
D02*
G37*
G36*
X2632313Y697251D02*
X2629081Y694017D01*
X2631595Y691503D01*
X2634828Y694736D01*
X2632313Y697251D01*
D02*
G37*
G36*
X2637282Y728980D02*
X2632710D01*
Y720979D01*
X2637282D01*
Y728980D01*
D02*
G37*
G36*
X2313027Y774010D02*
X2309895D01*
Y769819D01*
X2310230Y768134D01*
X2311184Y766705D01*
X2312612Y765751D01*
X2313027Y765669D01*
Y774010D01*
D02*
G37*
G36*
X2318700D02*
X2315567D01*
Y765669D01*
X2315982Y765751D01*
X2317410Y766705D01*
X2318365Y768134D01*
X2318700Y769819D01*
Y774010D01*
D02*
G37*
G36*
X2245868Y782841D02*
X2244405Y782550D01*
X2243164Y781722D01*
X2242336Y780481D01*
X2242045Y779018D01*
X2242336Y777555D01*
X2242400Y777458D01*
X2242448Y776208D01*
X2242448D01*
X2242448Y766080D01*
X2252576Y766080D01*
X2252576Y776208D01*
X2250028Y776208D01*
X2249349Y777478D01*
X2249400Y777555D01*
X2249691Y779018D01*
X2249400Y780481D01*
X2248572Y781722D01*
X2247331Y782550D01*
X2245868Y782841D01*
D02*
G37*
G36*
X2630153Y782305D02*
X2622565Y782304D01*
X2622566Y768112D01*
X2630154Y768112D01*
X2630154Y769141D01*
X2631424Y769820D01*
X2631455Y769800D01*
X2631456Y763943D01*
X2642600Y763945D01*
X2642598Y773057D01*
X2635550Y773056D01*
X2631858Y776748D01*
X2631152Y777219D01*
X2630319Y777385D01*
X2630154D01*
X2630153Y782305D01*
D02*
G37*
G36*
X2642870Y760223D02*
X2638298Y760222D01*
X2638299Y756666D01*
X2642871Y756667D01*
X2642870Y760223D01*
D02*
G37*
G36*
X2594864Y760640D02*
X2593340D01*
X2592151Y760403D01*
X2591143Y759730D01*
X2590469Y758721D01*
X2590232Y757532D01*
Y757024D01*
X2594864D01*
Y760640D01*
D02*
G37*
G36*
X2352043Y784868D02*
X2350464Y784554D01*
X2349125Y783659D01*
X2348230Y782320D01*
X2347916Y780741D01*
Y769819D01*
X2348230Y768239D01*
X2349125Y766900D01*
X2349796Y766451D01*
Y724501D01*
X2349524Y724093D01*
X2349233Y722630D01*
X2349524Y721167D01*
X2350352Y719926D01*
X2351593Y719098D01*
X2353056Y718807D01*
X2354519Y719098D01*
X2355760Y719926D01*
X2356588Y721167D01*
X2356879Y722630D01*
X2356588Y724093D01*
X2355760Y725334D01*
X2354519Y726162D01*
X2354150Y726236D01*
Y757554D01*
X2355420Y758363D01*
X2356358Y758177D01*
X2357821Y758468D01*
X2359062Y759296D01*
X2359890Y760537D01*
X2360181Y762000D01*
X2359890Y763463D01*
X2359062Y764704D01*
X2357821Y765532D01*
X2356358Y765823D01*
X2355420Y765637D01*
X2355293Y765709D01*
X2354835Y766815D01*
X2354962Y766900D01*
X2355856Y768239D01*
X2356170Y769819D01*
Y780741D01*
X2355856Y782320D01*
X2354962Y783659D01*
X2353623Y784554D01*
X2352043Y784868D01*
D02*
G37*
G36*
X2281856Y769621D02*
X2279316Y769620D01*
X2279317Y766572D01*
X2281857Y766573D01*
X2281856Y769621D01*
D02*
G37*
G36*
X2281855Y775209D02*
X2279315Y775208D01*
X2279316Y772160D01*
X2281856Y772161D01*
X2281855Y775209D01*
D02*
G37*
G36*
X2286935Y775210D02*
X2284395Y775209D01*
X2284396Y772161D01*
X2286936Y772161D01*
X2286935Y775210D01*
D02*
G37*
G36*
X2601365Y784873D02*
X2599902Y784582D01*
X2598661Y783754D01*
X2597833Y782513D01*
X2597542Y781050D01*
X2597833Y779587D01*
X2598661Y778346D01*
X2599902Y777518D01*
X2601365Y777227D01*
X2601987Y777350D01*
X2603366Y775970D01*
X2603367Y773699D01*
X2602097Y773060D01*
X2601706Y773350D01*
Y773414D01*
X2600957D01*
X2598806Y775565D01*
X2597152Y776670D01*
X2595201Y777058D01*
X2582148D01*
Y782993D01*
X2568972D01*
Y760927D01*
X2582148D01*
Y766862D01*
X2590562D01*
Y764302D01*
X2595650D01*
X2598042Y761910D01*
X2597516Y760640D01*
X2597404D01*
Y755754D01*
Y750868D01*
X2598928D01*
X2600117Y751105D01*
X2600760Y751534D01*
X2601673Y750673D01*
X2600568Y749019D01*
X2600180Y747068D01*
Y738632D01*
X2600568Y736681D01*
X2601673Y735027D01*
X2603748Y732952D01*
Y721249D01*
X2604240D01*
X2604610Y719387D01*
X2605715Y717733D01*
X2607369Y716628D01*
X2609320Y716240D01*
X2611271Y716628D01*
X2612925Y717733D01*
X2614030Y719387D01*
X2614400Y721249D01*
X2614892D01*
Y725152D01*
X2619248D01*
X2621199Y725540D01*
X2622853Y726645D01*
X2630473Y734265D01*
X2631440Y735713D01*
X2632368Y735628D01*
X2632710Y735501D01*
Y731520D01*
X2637282D01*
Y739521D01*
X2633236D01*
X2632710Y739521D01*
X2631966Y740483D01*
Y748492D01*
X2631805Y749299D01*
X2632848Y750569D01*
X2635760Y750570D01*
X2635759Y755396D01*
X2635758Y760222D01*
X2631186Y760221D01*
X2631187Y756668D01*
X2629917Y756096D01*
X2622566Y756095D01*
X2622567Y751054D01*
X2622158Y750443D01*
X2622043Y749861D01*
X2620772Y749986D01*
X2620772Y756365D01*
X2617978Y756365D01*
X2617979Y748999D01*
X2615439Y748999D01*
X2615438Y756365D01*
X2613576Y756365D01*
X2612307Y757495D01*
Y759953D01*
X2611918Y761904D01*
X2610813Y763558D01*
X2607480Y766891D01*
X2607965Y768065D01*
X2608605Y768065D01*
X2609540Y768251D01*
X2610333Y768781D01*
X2610863Y769574D01*
X2611049Y770509D01*
X2611048Y779907D01*
X2610862Y780842D01*
X2610332Y781635D01*
X2609539Y782165D01*
X2608604Y782351D01*
X2605810Y782351D01*
X2605294Y782248D01*
X2604897Y782513D01*
X2604069Y783754D01*
X2602828Y784582D01*
X2601365Y784873D01*
D02*
G37*
G36*
X2546096Y777875D02*
X2534158D01*
Y768350D01*
X2546096D01*
Y777875D01*
D02*
G37*
G36*
X2286936Y769622D02*
X2284396Y769621D01*
X2284397Y766573D01*
X2286937Y766573D01*
X2286936Y769622D01*
D02*
G37*
G36*
X2267696Y776208D02*
X2257568Y776208D01*
X2257568Y766080D01*
X2267696Y766080D01*
Y766132D01*
X2268810Y767038D01*
X2269507Y766841D01*
Y766841D01*
X2276587Y766842D01*
X2276585Y774938D01*
X2269505Y774937D01*
X2269505Y774677D01*
X2268359Y773807D01*
X2267696Y774072D01*
X2267696Y776208D01*
D02*
G37*
G36*
X2472400Y777875D02*
X2460462D01*
Y768350D01*
X2472400D01*
Y777875D01*
D02*
G37*
G36*
X2673024Y738705D02*
X2665430Y731105D01*
X2663889Y730850D01*
X2660442Y734298D01*
X2647712Y721568D01*
X2655592Y713688D01*
X2665102Y723198D01*
X2665537Y722908D01*
X2667000Y722617D01*
X2668463Y722908D01*
X2669704Y723736D01*
X2669998Y724178D01*
X2671592Y724381D01*
X2671592D01*
X2679470Y732263D01*
X2673024Y738705D01*
D02*
G37*
G36*
X2639822Y739521D02*
Y731520D01*
X2644394D01*
Y739521D01*
X2639822D01*
D02*
G37*
G36*
X2476900Y742696D02*
X2469407D01*
Y732155D01*
X2476900D01*
Y742696D01*
D02*
G37*
G36*
X2486878Y777875D02*
X2486668Y777875D01*
X2474940D01*
Y767080D01*
X2473670D01*
Y765810D01*
X2460462D01*
Y756285D01*
X2468347D01*
X2469407Y755777D01*
X2469407Y755015D01*
Y745236D01*
X2478170D01*
Y743966D01*
X2479440D01*
Y732155D01*
X2486614D01*
Y729107D01*
X2488900D01*
Y738886D01*
Y748665D01*
X2486933D01*
X2486933Y755655D01*
X2487586Y756313D01*
X2487819Y756504D01*
X2488036Y756555D01*
X2488148Y756555D01*
X2501764D01*
Y777605D01*
X2488036Y777605D01*
X2486878Y777875D01*
D02*
G37*
G36*
X2644394Y728980D02*
X2639822D01*
Y720979D01*
X2644394D01*
Y728980D01*
D02*
G37*
G36*
X2682293Y729823D02*
X2679061Y726590D01*
X2681577Y724076D01*
X2684808Y727310D01*
X2682293Y729823D01*
D02*
G37*
G36*
X2395273Y742510D02*
X2390069D01*
Y734763D01*
X2390562Y732285D01*
X2391965Y730184D01*
X2394066Y728781D01*
X2395273Y728541D01*
Y742510D01*
D02*
G37*
G36*
X2433828Y736618D02*
X2431877Y736230D01*
X2430932Y735598D01*
X2428144D01*
Y735822D01*
X2421064D01*
Y732950D01*
X2420780Y731520D01*
X2421064Y730090D01*
Y727726D01*
X2423428D01*
X2424858Y727442D01*
X2430806D01*
X2432131Y726556D01*
X2434082Y726168D01*
X2436033Y726556D01*
X2437687Y727661D01*
X2438792Y729315D01*
X2439180Y731266D01*
X2438792Y733217D01*
X2437687Y734871D01*
X2437433Y735125D01*
X2435779Y736230D01*
X2433828Y736618D01*
D02*
G37*
G36*
X2271522Y760997D02*
X2271080Y760910D01*
X2270059Y760706D01*
X2268818Y759878D01*
X2267990Y758637D01*
X2267699Y757174D01*
X2267990Y755711D01*
X2268818Y754470D01*
X2270059Y753642D01*
X2271522Y753351D01*
X2272300Y752712D01*
Y751856D01*
X2287249D01*
X2287508Y751856D01*
X2288037Y751528D01*
Y750735D01*
X2286903Y749792D01*
X2273481D01*
X2272300Y749792D01*
X2271153Y749494D01*
X2270059Y749276D01*
X2268818Y748448D01*
X2267990Y747207D01*
X2267699Y745744D01*
X2267990Y744281D01*
X2268818Y743040D01*
X2270059Y742212D01*
X2271522Y741921D01*
X2272300Y741282D01*
Y740680D01*
X2287249D01*
X2287508Y740680D01*
X2287826Y740483D01*
Y739823D01*
X2286638Y738792D01*
X2272300D01*
Y738314D01*
X2271776Y737883D01*
X2270313Y737592D01*
X2269072Y736764D01*
X2268818Y736382D01*
X2267554Y736258D01*
X2257772Y746040D01*
Y748038D01*
X2259042Y748564D01*
X2259199Y748407D01*
X2260191Y747744D01*
X2260801Y747623D01*
X2261677Y747038D01*
X2263140Y746747D01*
X2264603Y747038D01*
X2265844Y747866D01*
X2266672Y749107D01*
X2266963Y750570D01*
X2266672Y752033D01*
X2265844Y753274D01*
X2264603Y754102D01*
X2263140Y754393D01*
X2262076Y754182D01*
X2257772Y758486D01*
Y760968D01*
X2242564D01*
Y751856D01*
X2255679D01*
X2256471Y750884D01*
X2256018Y749792D01*
X2252933D01*
X2252708Y749837D01*
X2252483Y749792D01*
X2242564D01*
Y740680D01*
X2254250D01*
X2254756Y740043D01*
X2254198Y738792D01*
X2242564D01*
Y729680D01*
X2247125D01*
X2247342Y728589D01*
X2248005Y727597D01*
X2256800Y718802D01*
X2257568Y717906D01*
X2257568D01*
X2257568Y717906D01*
Y704730D01*
X2269728D01*
Y717906D01*
X2266170D01*
X2265811Y718443D01*
X2255747Y728507D01*
X2256233Y729680D01*
X2257772D01*
Y735729D01*
X2258945Y736215D01*
X2263129Y732031D01*
Y729742D01*
X2263129Y729742D01*
X2263362Y728571D01*
X2264025Y727579D01*
X2270182Y721422D01*
X2270182Y721422D01*
X2271174Y720759D01*
X2272345Y720526D01*
X2275650D01*
X2277000Y719176D01*
X2276474Y717906D01*
X2274713D01*
Y704730D01*
X2286873D01*
Y717906D01*
X2283852D01*
Y719709D01*
X2283619Y720880D01*
X2282956Y721872D01*
X2279080Y725748D01*
X2278087Y726411D01*
X2276917Y726644D01*
X2276917Y726644D01*
X2273612D01*
X2271525Y728731D01*
X2272372Y729680D01*
X2287508D01*
Y733334D01*
X2288778Y733459D01*
X2289012Y732285D01*
X2290415Y730184D01*
X2292516Y728781D01*
X2293723Y728541D01*
Y743780D01*
Y759018D01*
X2292516Y758778D01*
X2290415Y757375D01*
X2289012Y755274D01*
X2288778Y754100D01*
X2287508Y754225D01*
Y760968D01*
X2272300D01*
X2272300Y760968D01*
X2272300D01*
X2271522Y760997D01*
D02*
G37*
G36*
X2642871Y754127D02*
X2638299Y754126D01*
X2638300Y750570D01*
X2642872Y750571D01*
X2642871Y754127D01*
D02*
G37*
G36*
X2594864Y754484D02*
X2590232D01*
Y753976D01*
X2590469Y752787D01*
X2591143Y751778D01*
X2592151Y751105D01*
X2593340Y750868D01*
X2594864D01*
Y754484D01*
D02*
G37*
G36*
X2531618Y777875D02*
X2519680D01*
Y777873D01*
X2518521Y777605D01*
X2518410Y777605D01*
X2504583D01*
Y756555D01*
X2518410D01*
X2519581Y756049D01*
X2519553Y755777D01*
X2519553Y755068D01*
Y748395D01*
X2513092D01*
X2513092Y748395D01*
X2513060D01*
Y748395D01*
X2511822Y748395D01*
X2506488D01*
Y748395D01*
X2506456D01*
Y748395D01*
X2493726D01*
Y748665D01*
X2491440D01*
Y738886D01*
Y729107D01*
X2493726D01*
X2494493Y728155D01*
Y714492D01*
X2482581Y702579D01*
X2482109Y701873D01*
X2481943Y701040D01*
Y689260D01*
X2480072D01*
Y682180D01*
X2488168D01*
Y682180D01*
X2488962D01*
Y682180D01*
X2497058D01*
Y689260D01*
X2496482D01*
Y695810D01*
X2496568Y695868D01*
X2497838Y695189D01*
Y692025D01*
X2498103Y690696D01*
X2498855Y689570D01*
X2499005Y689420D01*
X2499122Y688241D01*
Y682180D01*
X2507218D01*
X2507343Y680962D01*
Y680398D01*
X2507218Y679180D01*
X2499122D01*
Y674998D01*
X2498311Y674653D01*
X2497633Y674788D01*
X2497058Y675368D01*
Y679180D01*
X2489438D01*
X2488168Y679180D01*
X2487692Y679180D01*
X2480072D01*
Y672100D01*
X2480072Y672100D01*
X2480072D01*
X2480350Y670830D01*
X2480297Y670560D01*
X2480588Y669097D01*
X2481416Y667856D01*
X2482657Y667028D01*
X2484120Y666737D01*
X2485583Y667028D01*
X2486824Y667856D01*
X2487652Y669097D01*
X2487943Y670560D01*
X2487890Y670830D01*
X2487930Y671014D01*
X2489319Y671421D01*
X2489538Y671202D01*
Y671195D01*
X2489803Y669866D01*
X2490555Y668740D01*
X2491681Y667988D01*
X2493010Y667723D01*
X2494339Y667988D01*
X2494414Y668038D01*
X2494570Y668007D01*
X2496033Y668298D01*
X2497274Y669126D01*
X2497455Y669398D01*
X2498725D01*
X2498906Y669126D01*
X2500147Y668298D01*
X2501610Y668007D01*
X2501766Y668038D01*
X2501841Y667988D01*
X2503170Y667723D01*
X2504498Y667988D01*
X2504984Y668312D01*
X2506541Y668144D01*
X2506689Y668047D01*
X2506816Y667856D01*
X2508057Y667028D01*
X2509520Y666737D01*
X2510983Y667028D01*
X2512224Y667856D01*
X2513052Y669097D01*
X2513343Y670560D01*
X2513052Y672023D01*
X2512224Y673264D01*
X2511697Y673615D01*
Y695058D01*
X2513387Y696749D01*
X2514765Y696331D01*
X2514878Y695767D01*
X2515706Y694526D01*
X2516947Y693698D01*
X2518410Y693407D01*
X2519038Y693531D01*
X2520308Y692577D01*
X2520308Y691912D01*
X2529420Y691912D01*
X2529420Y703056D01*
X2520308Y703056D01*
X2520308Y702623D01*
X2519296Y701768D01*
X2518553Y702810D01*
X2518555Y702818D01*
Y720564D01*
X2519537Y721370D01*
X2519681Y721341D01*
X2524760D01*
X2526711Y721729D01*
X2527702Y722392D01*
X2528301Y722392D01*
X2528301Y722792D01*
X2528365Y722834D01*
X2529057Y723870D01*
X2530544Y723871D01*
X2531235Y722836D01*
X2531301Y722792D01*
X2531301Y722392D01*
X2531899Y722392D01*
X2532889Y721731D01*
X2534840Y721343D01*
X2541271D01*
X2543222Y721731D01*
X2544876Y722836D01*
X2551225Y729185D01*
X2551396Y729441D01*
X2552629Y729000D01*
X2552452Y727202D01*
X2552778Y723883D01*
X2553747Y720692D01*
X2555319Y717750D01*
X2557434Y715172D01*
X2560013Y713057D01*
X2562953Y711485D01*
X2566145Y710517D01*
X2569464Y710190D01*
X2572783Y710517D01*
X2575974Y711485D01*
X2578916Y713057D01*
X2581494Y715172D01*
X2583609Y717750D01*
X2585181Y720692D01*
X2586150Y723883D01*
X2586476Y727202D01*
X2586150Y730521D01*
X2585181Y733712D01*
X2583609Y736654D01*
X2581494Y739232D01*
X2578916Y741347D01*
X2575974Y742919D01*
X2572783Y743887D01*
X2569464Y744214D01*
X2566145Y743887D01*
X2562953Y742919D01*
X2560013Y741347D01*
X2557434Y739232D01*
X2555319Y736654D01*
X2553988Y734164D01*
X2552718Y734482D01*
Y740838D01*
X2559638Y747758D01*
X2575560D01*
X2575731Y747792D01*
X2580624D01*
Y752685D01*
X2580658Y752856D01*
X2580624Y753027D01*
Y757920D01*
X2575731D01*
X2575560Y757954D01*
X2557526D01*
X2555575Y757566D01*
X2553921Y756461D01*
X2544015Y746555D01*
X2542910Y744901D01*
X2542522Y742950D01*
Y734902D01*
X2539159Y731539D01*
X2538094D01*
X2537079Y732155D01*
Y742696D01*
X2528316D01*
Y745236D01*
X2537079D01*
Y755015D01*
X2537079Y755777D01*
X2538139Y756285D01*
X2546096D01*
Y765810D01*
X2532888D01*
Y767080D01*
X2531618D01*
Y777875D01*
D02*
G37*
G36*
X2395273Y759018D02*
X2394066Y758778D01*
X2391965Y757375D01*
X2390562Y755274D01*
X2390069Y752797D01*
Y745050D01*
X2395273D01*
Y759018D01*
D02*
G37*
G36*
X2668016Y767842D02*
X2647462D01*
X2647758Y764830D01*
X2649007Y760712D01*
X2651035Y756917D01*
X2653765Y753591D01*
X2657091Y750862D01*
X2660886Y748833D01*
X2665004Y747584D01*
X2668016Y747287D01*
Y767842D01*
D02*
G37*
G36*
X2451335D02*
X2430780D01*
Y747287D01*
X2433792Y747584D01*
X2437910Y748833D01*
X2441705Y750862D01*
X2445031Y753591D01*
X2447760Y756917D01*
X2449789Y760712D01*
X2451038Y764830D01*
X2451335Y767842D01*
D02*
G37*
G36*
X2437018Y662051D02*
X2432709Y657739D01*
X2437739Y652712D01*
X2442048Y657024D01*
X2437018Y662051D01*
D02*
G37*
G36*
X2636624Y692941D02*
X2633392Y689707D01*
X2635906Y687193D01*
X2638257Y689544D01*
X2638621Y689908D01*
X2639349Y689905D01*
X2639716Y689604D01*
X2639495Y688768D01*
X2639337Y688533D01*
X2639047Y687070D01*
X2639337Y685607D01*
X2639436Y685459D01*
X2633701Y679723D01*
X2640146Y673281D01*
X2641910Y675046D01*
X2643181Y675046D01*
X2647296Y670931D01*
Y660558D01*
X2645424Y660557D01*
X2645426Y653477D01*
X2653522Y653479D01*
X2653521Y660559D01*
X2652548Y660558D01*
X2651650Y661457D01*
Y671833D01*
X2651484Y672666D01*
X2651012Y673372D01*
X2645623Y678760D01*
X2648024Y681162D01*
X2645506Y683680D01*
X2645574Y684366D01*
X2646402Y685607D01*
X2646693Y687070D01*
X2646402Y688533D01*
X2645574Y689774D01*
X2644333Y690602D01*
X2642870Y690893D01*
X2641407Y690602D01*
X2640166Y689774D01*
X2640043Y689817D01*
X2639778Y689918D01*
X2639101Y690465D01*
X2638320Y691245D01*
X2636624Y692941D01*
D02*
G37*
G36*
X2626594Y656463D02*
X2616561D01*
Y654304D01*
X2626594D01*
Y656463D01*
D02*
G37*
G36*
X2405738Y657635D02*
X2402506Y654401D01*
X2405020Y651887D01*
X2408253Y655121D01*
X2405738Y657635D01*
D02*
G37*
G36*
X2626594Y651764D02*
X2616561D01*
Y649605D01*
X2626594D01*
Y651764D01*
D02*
G37*
G36*
X2639167D02*
X2629134D01*
Y649605D01*
X2639167D01*
Y651764D01*
D02*
G37*
G36*
X2493010Y656603D02*
X2491547Y656312D01*
X2490306Y655484D01*
X2489478Y654243D01*
X2489187Y652780D01*
X2489478Y651317D01*
X2490306Y650076D01*
X2490345Y650051D01*
X2489850Y648854D01*
X2489200Y648983D01*
X2487737Y648692D01*
X2486496Y647864D01*
X2485668Y646623D01*
X2485377Y645160D01*
X2485668Y643697D01*
X2486496Y642456D01*
X2487737Y641628D01*
X2489200Y641337D01*
X2490663Y641628D01*
X2491723Y642336D01*
X2500011D01*
Y642001D01*
X2522077D01*
Y648319D01*
X2500011D01*
Y647984D01*
X2494632D01*
X2494473Y649248D01*
X2495533Y649956D01*
X2500011D01*
Y649875D01*
X2522077D01*
Y656193D01*
X2500011D01*
Y655604D01*
X2495533D01*
X2494473Y656312D01*
X2493010Y656603D01*
D02*
G37*
G36*
X2639167Y656463D02*
X2629134D01*
Y654304D01*
X2639167D01*
Y656463D01*
D02*
G37*
G36*
X2297430Y661162D02*
X2292858D01*
Y657606D01*
X2297430D01*
Y661162D01*
D02*
G37*
G36*
X2611374Y696214D02*
X2606548Y696214D01*
X2601722Y696214D01*
X2601722Y691642D01*
X2602209Y691642D01*
X2602888Y690372D01*
X2602508Y689803D01*
X2602216Y688340D01*
X2602346Y687689D01*
X2602305Y686419D01*
X2602305Y686419D01*
X2602305Y686419D01*
Y664353D01*
X2608623D01*
Y674842D01*
X2608649Y674881D01*
X2608864Y675962D01*
Y684797D01*
X2609035Y684924D01*
X2610305Y684285D01*
Y664353D01*
X2615536D01*
X2615576Y664353D01*
X2616628Y664326D01*
X2616831Y663171D01*
X2616831Y663150D01*
X2616831Y663077D01*
Y658003D01*
X2638897D01*
Y664321D01*
X2631928D01*
X2631223Y665591D01*
X2631454Y666750D01*
X2631162Y668213D01*
X2630334Y669454D01*
X2629093Y670282D01*
X2627630Y670573D01*
X2626167Y670282D01*
X2624926Y669454D01*
X2624098Y668213D01*
X2623806Y666750D01*
X2624037Y665591D01*
X2623332Y664321D01*
X2617918D01*
X2617878Y664321D01*
X2616826Y664348D01*
X2616623Y665503D01*
X2616623Y665524D01*
X2616623Y665597D01*
Y686025D01*
X2617192Y686877D01*
X2617484Y688340D01*
X2617192Y689803D01*
X2616364Y691044D01*
X2615123Y691872D01*
X2613660Y692163D01*
X2612644Y691961D01*
X2611574Y692612D01*
X2611374Y692850D01*
X2611374Y696214D01*
D02*
G37*
G36*
X2600623Y686419D02*
X2594305D01*
Y664353D01*
X2594305Y664353D01*
X2594009Y663563D01*
X2593932Y663447D01*
X2593641Y661984D01*
X2593932Y660521D01*
X2594760Y659280D01*
X2596001Y658452D01*
X2597464Y658161D01*
X2598927Y658452D01*
X2600168Y659280D01*
X2600996Y660521D01*
X2601288Y661984D01*
X2600996Y663447D01*
X2600623Y664353D01*
X2600623Y664353D01*
X2600623Y664353D01*
Y686419D01*
D02*
G37*
G36*
X2290318Y661162D02*
X2285746D01*
Y657606D01*
X2290318D01*
Y661162D01*
D02*
G37*
G36*
X2280142Y663940D02*
X2268998D01*
Y663462D01*
X2263394D01*
X2261833Y663152D01*
X2260510Y662268D01*
X2259626Y660945D01*
X2259570Y660663D01*
X2259354Y660339D01*
X2259063Y658876D01*
X2259354Y657413D01*
X2260182Y656172D01*
X2261423Y655344D01*
X2262886Y655053D01*
X2264158Y655306D01*
X2268998D01*
Y654828D01*
X2280142D01*
Y663940D01*
D02*
G37*
G36*
X2425172Y661124D02*
X2423376Y659327D01*
X2425531Y657172D01*
X2427327Y658968D01*
X2425172Y661124D01*
D02*
G37*
G36*
X2685272Y658456D02*
X2674128D01*
Y657870D01*
X2672858Y657192D01*
X2672273Y657582D01*
X2670810Y657873D01*
X2669347Y657582D01*
X2668106Y656754D01*
X2667278Y655513D01*
X2666987Y654050D01*
X2667278Y652587D01*
X2668106Y651346D01*
X2669347Y650518D01*
X2670810Y650227D01*
X2672273Y650518D01*
X2672858Y650908D01*
X2674128Y650229D01*
Y649344D01*
X2685272D01*
Y658456D01*
D02*
G37*
G36*
X2669540Y635013D02*
X2668077Y634722D01*
X2666837Y633894D01*
X2666008Y632653D01*
X2665717Y631190D01*
X2666008Y629727D01*
X2666837Y628486D01*
X2668077Y627658D01*
X2669540Y627367D01*
X2671003Y627658D01*
X2671683Y628112D01*
X2675653D01*
X2675653Y627395D01*
X2683749Y627397D01*
X2683748Y634477D01*
X2675652Y634475D01*
Y634475D01*
X2674937Y633760D01*
X2672333D01*
X2672244Y633894D01*
X2671003Y634722D01*
X2669540Y635013D01*
D02*
G37*
G36*
X2302292Y631716D02*
X2300496Y629920D01*
X2302651Y627765D01*
X2304447Y629561D01*
X2302292Y631716D01*
D02*
G37*
G36*
X2648204Y632968D02*
X2640203D01*
Y628396D01*
X2648204D01*
Y632968D01*
D02*
G37*
G36*
X2638897Y632317D02*
X2616831D01*
Y625999D01*
X2638897D01*
Y632317D01*
D02*
G37*
G36*
X2658745Y625856D02*
X2650744D01*
Y621284D01*
X2658745D01*
Y625856D01*
D02*
G37*
G36*
X2509774Y624459D02*
X2499741D01*
Y622300D01*
X2509774D01*
Y624459D01*
D02*
G37*
G36*
X2522347D02*
X2512314D01*
Y622300D01*
X2522347D01*
Y624459D01*
D02*
G37*
G36*
X2522077Y640191D02*
X2500011D01*
Y633873D01*
X2509918D01*
X2510230Y633587D01*
X2509736Y632317D01*
X2500011D01*
Y631474D01*
X2497990D01*
X2496039Y633425D01*
X2495123Y634037D01*
X2494042Y634252D01*
X2494042Y634252D01*
X2492513D01*
X2491904Y635164D01*
X2490663Y635992D01*
X2489200Y636283D01*
X2487737Y635992D01*
X2486496Y635164D01*
X2485668Y633923D01*
X2485377Y632460D01*
X2485528Y631698D01*
X2484637Y630428D01*
X2480564D01*
Y626872D01*
X2486406D01*
X2492248D01*
Y627432D01*
X2493518Y627958D01*
X2494823Y626653D01*
X2494823Y626653D01*
X2495739Y626041D01*
X2496820Y625826D01*
X2496820Y625826D01*
X2510536D01*
X2510536Y625826D01*
X2511407Y625999D01*
X2522077D01*
Y632176D01*
X2522077Y632317D01*
X2522418Y633446D01*
X2534937D01*
X2535997Y632738D01*
X2537460Y632447D01*
X2538923Y632738D01*
X2540164Y633566D01*
X2540992Y634807D01*
X2541283Y636270D01*
X2540992Y637733D01*
X2540164Y638974D01*
X2538923Y639802D01*
X2537460Y640093D01*
X2535997Y639802D01*
X2534937Y639094D01*
X2522077D01*
Y640191D01*
D02*
G37*
G36*
X2443845Y655229D02*
X2439536Y650917D01*
X2444566Y645889D01*
X2448876Y650201D01*
X2443845Y655229D01*
D02*
G37*
G36*
X2430913Y655943D02*
X2426604Y651631D01*
X2431635Y646604D01*
X2435944Y650916D01*
X2430913Y655943D01*
D02*
G37*
G36*
X2653522Y650479D02*
X2645426Y650477D01*
X2645427Y648489D01*
X2645383Y648445D01*
X2644797Y648130D01*
X2644157Y647962D01*
X2643063Y648692D01*
X2641600Y648983D01*
X2640137Y648692D01*
X2639276Y648117D01*
X2638897Y648319D01*
Y648319D01*
X2616831D01*
Y642001D01*
X2638897D01*
Y642001D01*
X2639044Y642079D01*
X2639702Y641634D01*
X2639313Y640364D01*
X2628372D01*
X2627501Y640191D01*
X2616831D01*
Y633873D01*
X2638897D01*
Y634716D01*
X2652636D01*
X2653072Y634238D01*
X2652512Y632968D01*
X2650744D01*
Y628396D01*
X2658745D01*
Y632968D01*
X2657763D01*
X2657378Y634238D01*
X2658274Y634836D01*
X2659102Y636077D01*
X2659393Y637540D01*
X2659102Y639003D01*
X2658274Y640244D01*
X2657033Y641072D01*
X2655570Y641363D01*
X2654107Y641072D01*
X2653047Y640364D01*
X2643222D01*
X2643063Y641628D01*
X2644304Y642456D01*
X2644825Y643237D01*
X2649475D01*
X2650284Y643398D01*
X2653524Y643399D01*
X2653522Y650479D01*
D02*
G37*
G36*
X2340856Y659925D02*
X2339881Y659731D01*
X2339054Y659179D01*
X2338502Y658352D01*
X2338308Y657376D01*
X2337631Y656889D01*
X2337160Y656633D01*
X2336463Y656494D01*
X2343522Y649435D01*
X2350581Y642376D01*
X2350720Y643074D01*
X2350976Y643544D01*
X2351463Y644221D01*
X2352439Y644415D01*
X2353266Y644967D01*
X2353818Y645794D01*
X2354012Y646770D01*
X2353818Y647745D01*
X2353266Y648572D01*
X2352469Y649368D01*
X2352762Y650871D01*
X2353474Y651346D01*
X2354302Y652587D01*
X2354593Y654050D01*
X2354302Y655513D01*
X2353474Y656754D01*
X2352233Y657582D01*
X2350770Y657873D01*
X2349307Y657582D01*
X2348066Y656754D01*
X2347591Y656042D01*
X2346195Y655770D01*
X2346026Y655812D01*
X2342659Y659179D01*
X2341832Y659731D01*
X2340856Y659925D01*
D02*
G37*
G36*
X2298341Y635667D02*
X2296545Y633871D01*
X2298700Y631716D01*
X2300496Y633512D01*
X2298341Y635667D01*
D02*
G37*
G36*
X2670810Y645173D02*
X2669347Y644882D01*
X2668106Y644054D01*
X2667278Y642813D01*
X2666987Y641350D01*
X2667278Y639887D01*
X2668106Y638646D01*
X2669347Y637818D01*
X2670810Y637527D01*
X2672273Y637818D01*
X2673513Y638646D01*
X2673642Y638839D01*
X2675652D01*
X2675652Y637475D01*
X2683748Y637477D01*
X2683747Y644557D01*
X2675651Y644555D01*
Y644555D01*
X2674548Y643688D01*
X2673715Y643753D01*
X2673513Y644054D01*
X2672273Y644882D01*
X2670810Y645173D01*
D02*
G37*
G36*
X2297160Y653884D02*
X2286016D01*
Y644772D01*
X2288011D01*
X2288527Y644144D01*
X2288818Y642681D01*
X2289646Y641440D01*
X2290887Y640612D01*
X2292350Y640321D01*
X2293813Y640612D01*
X2295054Y641440D01*
X2295882Y642681D01*
X2296166Y644106D01*
X2297160Y644772D01*
X2297160Y644772D01*
X2297160Y644772D01*
Y653884D01*
D02*
G37*
G36*
X2449286Y662449D02*
X2447131Y660294D01*
X2448927Y658498D01*
X2451082Y660654D01*
X2449286Y662449D01*
D02*
G37*
G36*
X2424812Y668667D02*
X2423016Y666871D01*
X2425172Y664716D01*
X2426967Y666512D01*
X2424812Y668667D01*
D02*
G37*
G36*
X2536555Y686419D02*
X2530237D01*
Y665812D01*
X2528967Y665320D01*
X2528854Y665444D01*
Y674624D01*
X2528639Y675705D01*
X2528427Y676022D01*
Y686419D01*
X2522109D01*
Y665578D01*
X2522078Y664352D01*
X2520852Y664321D01*
X2500011D01*
Y663986D01*
X2485312D01*
X2484120Y664223D01*
X2482657Y663932D01*
X2481416Y663104D01*
X2480588Y661863D01*
X2480297Y660400D01*
X2480588Y658937D01*
X2481416Y657696D01*
X2482657Y656868D01*
X2484120Y656577D01*
X2485583Y656868D01*
X2486824Y657696D01*
X2487252Y658338D01*
X2500011D01*
Y658003D01*
X2522077D01*
Y658550D01*
X2523326Y658966D01*
X2524567Y658138D01*
X2526030Y657847D01*
X2527493Y658138D01*
X2528734Y658966D01*
X2529034Y659416D01*
X2530562D01*
X2530692Y659220D01*
X2531933Y658392D01*
X2533396Y658101D01*
X2534859Y658392D01*
X2536100Y659220D01*
X2536928Y660461D01*
X2537219Y661924D01*
X2536928Y663387D01*
X2536555Y664353D01*
X2536555Y664353D01*
X2536555Y664353D01*
Y686419D01*
D02*
G37*
G36*
X2333333Y671396D02*
X2330819Y668881D01*
X2334052Y665649D01*
X2336566Y668164D01*
X2333333Y671396D01*
D02*
G37*
G36*
X2580640Y692163D02*
X2579177Y691872D01*
X2577936Y691044D01*
X2577108Y689803D01*
X2576817Y688340D01*
X2576975Y687543D01*
X2576003Y686419D01*
X2570305D01*
Y664353D01*
X2576623D01*
Y684190D01*
X2577893Y684828D01*
X2578305Y684522D01*
Y664353D01*
X2584623D01*
Y686419D01*
X2584623D01*
X2584334Y687689D01*
X2584464Y688340D01*
X2584172Y689803D01*
X2583344Y691044D01*
X2582103Y691872D01*
X2580640Y692163D01*
D02*
G37*
G36*
X2592893Y674116D02*
X2590734D01*
Y664083D01*
X2592893D01*
Y674116D01*
D02*
G37*
G36*
X2542794Y696214D02*
X2537968Y696214D01*
X2533142Y696214D01*
X2533142Y691642D01*
X2537439Y691642D01*
X2538118Y690372D01*
X2537738Y689803D01*
X2537447Y688340D01*
X2537738Y686877D01*
X2538111Y686318D01*
Y664353D01*
X2544429D01*
Y686318D01*
X2544802Y686877D01*
X2545093Y688340D01*
X2544802Y689803D01*
X2543974Y691044D01*
X2542794Y691832D01*
X2542794Y696214D01*
D02*
G37*
G36*
X2568559Y686419D02*
X2562241D01*
Y664353D01*
X2568559D01*
Y686419D01*
D02*
G37*
G36*
X2449644Y669993D02*
X2447489Y667837D01*
X2449285Y666042D01*
X2451440Y668197D01*
X2449644Y669993D01*
D02*
G37*
G36*
X2406376Y725566D02*
X2401489Y725085D01*
X2396789Y723659D01*
X2392458Y721344D01*
X2388661Y718229D01*
X2385546Y714432D01*
X2383231Y710101D01*
X2381805Y705401D01*
X2381324Y700514D01*
X2381805Y695627D01*
X2383231Y690927D01*
X2385546Y686596D01*
X2388661Y682800D01*
X2392458Y679684D01*
X2396789Y677369D01*
X2401489Y675943D01*
X2406376Y675462D01*
X2411263Y675943D01*
X2415963Y677369D01*
X2420294Y679684D01*
X2424091Y682800D01*
X2427206Y686596D01*
X2429521Y690927D01*
X2430947Y695627D01*
X2431428Y700514D01*
X2430947Y705401D01*
X2429521Y710101D01*
X2427206Y714432D01*
X2424091Y718229D01*
X2420294Y721344D01*
X2415963Y723659D01*
X2411263Y725085D01*
X2406376Y725566D01*
D02*
G37*
G36*
X2550160Y692163D02*
X2548697Y691872D01*
X2547456Y691044D01*
X2546628Y689803D01*
X2546337Y688340D01*
X2546466Y687689D01*
X2546239Y686419D01*
X2546239D01*
Y664353D01*
X2552557D01*
Y684100D01*
X2552573Y684115D01*
X2553838Y683578D01*
X2553843Y683569D01*
Y676656D01*
X2556002D01*
Y686689D01*
X2554950D01*
X2553908Y687959D01*
X2553983Y688340D01*
X2553692Y689803D01*
X2552864Y691044D01*
X2551623Y691872D01*
X2550160Y692163D01*
D02*
G37*
G36*
X2560701Y686689D02*
X2558542D01*
Y676656D01*
X2560701D01*
Y686689D01*
D02*
G37*
G36*
X2328303Y676424D02*
X2325789Y673909D01*
X2329023Y670677D01*
X2331537Y673192D01*
X2328303Y676424D01*
D02*
G37*
G36*
X2323993Y672113D02*
X2321479Y669598D01*
X2324713Y666365D01*
X2327227Y668880D01*
X2323993Y672113D01*
D02*
G37*
G36*
X2678430Y671830D02*
X2673858D01*
Y668274D01*
X2678430D01*
Y671830D01*
D02*
G37*
G36*
X2685542D02*
X2680970D01*
Y668274D01*
X2685542D01*
Y671830D01*
D02*
G37*
G36*
X2445693Y666041D02*
X2443538Y663885D01*
X2445334Y662090D01*
X2447489Y664245D01*
X2445693Y666041D01*
D02*
G37*
G36*
X2678430Y665734D02*
X2673858D01*
Y662178D01*
X2678430D01*
Y665734D01*
D02*
G37*
G36*
X2685542D02*
X2680970D01*
Y662178D01*
X2685542D01*
Y665734D01*
D02*
G37*
G36*
X2329023Y667085D02*
X2326509Y664570D01*
X2329743Y661337D01*
X2332257Y663852D01*
X2329023Y667085D01*
D02*
G37*
G36*
X2349246Y678368D02*
X2346897Y678058D01*
X2344707Y677151D01*
X2342827Y675709D01*
X2341384Y673829D01*
X2340478Y671639D01*
X2340168Y669290D01*
X2340478Y666941D01*
X2341384Y664751D01*
X2342827Y662871D01*
X2344707Y661429D01*
X2346897Y660522D01*
X2349246Y660212D01*
X2351595Y660522D01*
X2353785Y661429D01*
X2355665Y662871D01*
X2357108Y664751D01*
X2358014Y666941D01*
X2358324Y669290D01*
X2358014Y671639D01*
X2357108Y673829D01*
X2355665Y675709D01*
X2353785Y677151D01*
X2351595Y678058D01*
X2349246Y678368D01*
D02*
G37*
G36*
X2428763Y664716D02*
X2426967Y662920D01*
X2429123Y660764D01*
X2430919Y662561D01*
X2428763Y664716D01*
D02*
G37*
G36*
X2421220Y665075D02*
X2419424Y663279D01*
X2421579Y661124D01*
X2423375Y662920D01*
X2421220Y665075D01*
D02*
G37*
G36*
X2453236Y666401D02*
X2451082Y664246D01*
X2452878Y662450D01*
X2455033Y664606D01*
X2453236Y666401D01*
D02*
G37*
G36*
X2556002Y674116D02*
X2553843D01*
Y664083D01*
X2556002D01*
Y674116D01*
D02*
G37*
G36*
X2560701D02*
X2558542D01*
Y664083D01*
X2560701D01*
Y674116D01*
D02*
G37*
G36*
X2588194Y674116D02*
X2586035D01*
Y664083D01*
X2588194D01*
Y674116D01*
D02*
G37*
G36*
X2297430Y667258D02*
X2292858D01*
Y663702D01*
X2297430D01*
Y667258D01*
D02*
G37*
G36*
X2409952Y670827D02*
X2408489Y670536D01*
X2407248Y669708D01*
X2406420Y668467D01*
X2406129Y667004D01*
X2406420Y665541D01*
X2407248Y664300D01*
X2408489Y663472D01*
X2409952Y663180D01*
X2411415Y663472D01*
X2412656Y664300D01*
X2413484Y665541D01*
X2413775Y667004D01*
X2413484Y668467D01*
X2412656Y669708D01*
X2411415Y670536D01*
X2409952Y670827D01*
D02*
G37*
G36*
X2393749Y669117D02*
X2390517Y665883D01*
X2393033Y663370D01*
X2396264Y666604D01*
X2393749Y669117D01*
D02*
G37*
G36*
X2280142Y676894D02*
X2268998D01*
Y667782D01*
X2280142D01*
X2280142Y667782D01*
X2281371Y667682D01*
X2282182Y667140D01*
X2283645Y666849D01*
X2284476Y667014D01*
X2285661Y666212D01*
X2285746Y666071D01*
Y663702D01*
X2290318D01*
Y667258D01*
X2287397D01*
X2286722Y668528D01*
X2287177Y669209D01*
X2287468Y670672D01*
X2287177Y672136D01*
X2286349Y673376D01*
X2285108Y674205D01*
X2283645Y674496D01*
X2282182Y674205D01*
X2281412Y673690D01*
X2280142Y674292D01*
Y676894D01*
D02*
G37*
%LPD*%
D10*
X2294993Y743780D02*
D03*
X2396543D02*
D03*
X2519830Y460896D02*
D03*
X2443226Y460896D02*
D03*
D11*
X2314297Y775280D02*
D03*
X2326997D02*
D03*
X2339443D02*
D03*
X2352043D02*
D03*
X2364543D02*
D03*
X2377043D02*
D03*
X2500330Y492396D02*
D03*
X2487830D02*
D03*
X2475230D02*
D03*
X2462784D02*
D03*
D12*
X2649474Y627126D02*
D03*
Y597894D02*
D03*
D13*
X2459736Y562546D02*
D03*
Y554546D02*
D03*
X2581148Y459168D02*
D03*
Y451168D02*
D03*
D14*
X2279904Y756412D02*
D03*
Y745236D02*
D03*
Y734236D02*
D03*
X2250168Y734236D02*
D03*
Y745236D02*
D03*
Y756412D02*
D03*
D15*
X2297938Y694182D02*
D03*
Y711318D02*
D03*
X2280793Y694182D02*
D03*
Y711318D02*
D03*
X2263648Y694182D02*
D03*
Y711318D02*
D03*
D16*
X2511552Y767080D02*
D03*
X2494795D02*
D03*
D17*
X2473670D02*
D03*
X2532888D02*
D03*
D18*
X2478170Y743966D02*
D03*
X2528316D02*
D03*
D19*
X2516378Y738886D02*
D03*
X2490170D02*
D03*
X2496670D02*
D03*
X2509774D02*
D03*
X2503170D02*
D03*
D20*
X2425172Y662920D02*
D03*
X2418044Y655792D02*
D03*
X2295164Y626385D02*
D03*
X2302292Y633512D02*
D03*
D21*
X2456414Y657119D02*
D03*
X2449285Y664246D02*
D03*
D22*
X2634487Y552116D02*
D03*
X2634489Y542036D02*
D03*
X2649473Y567102D02*
D03*
X2649475Y557022D02*
D03*
Y646938D02*
D03*
X2649473Y657018D02*
D03*
X2679699Y641016D02*
D03*
X2679701Y630936D02*
D03*
X2373630Y703660D02*
D03*
Y713740D02*
D03*
X2341880D02*
D03*
Y703660D02*
D03*
X2327910Y713740D02*
D03*
Y703660D02*
D03*
Y683340D02*
D03*
Y693420D02*
D03*
X2341880Y683340D02*
D03*
Y693420D02*
D03*
X2443480Y501730D02*
D03*
Y511810D02*
D03*
D23*
X2260600Y614680D02*
D03*
Y624760D02*
D03*
X2484120Y675640D02*
D03*
X2484120Y685720D02*
D03*
X2493010Y675640D02*
D03*
X2493010Y685720D02*
D03*
X2503170Y675640D02*
D03*
X2503170Y685720D02*
D03*
X2357120Y684530D02*
D03*
Y694610D02*
D03*
X2532380Y482600D02*
D03*
Y492680D02*
D03*
X2288540Y496490D02*
D03*
Y486410D02*
D03*
D24*
X2637027Y768500D02*
D03*
X2637029Y755396D02*
D03*
X2274570Y646280D02*
D03*
Y659384D02*
D03*
Y672338D02*
D03*
X2679700Y653900D02*
D03*
Y667004D02*
D03*
X2635758Y470512D02*
D03*
Y483616D02*
D03*
X2684781Y493880D02*
D03*
X2684779Y506984D02*
D03*
X2679699Y593748D02*
D03*
X2679701Y580644D02*
D03*
X2679700Y605132D02*
D03*
Y618236D02*
D03*
X2679699Y569364D02*
D03*
X2679701Y556260D02*
D03*
X2486406Y612498D02*
D03*
Y625602D02*
D03*
X2291588Y649328D02*
D03*
Y662432D02*
D03*
X2596134Y768858D02*
D03*
D25*
X2607209Y748999D02*
D03*
X2616708Y748999D02*
D03*
X2626360Y748999D02*
D03*
X2626360Y775208D02*
D03*
D26*
X2607208Y775208D02*
D03*
D27*
X2275550Y627924D02*
D03*
X2282677Y620796D02*
D03*
D28*
X2492582Y509270D02*
D03*
X2502662D02*
D03*
X2273046Y770889D02*
D03*
X2283126Y770891D02*
D03*
X2534840Y726441D02*
D03*
X2524760Y726439D02*
D03*
X2424604Y731774D02*
D03*
X2414524D02*
D03*
X2421970Y488950D02*
D03*
X2432050D02*
D03*
X2288620Y462280D02*
D03*
X2298700D02*
D03*
D29*
X2672308Y731543D02*
D03*
X2681577Y722280D02*
D03*
X2499842Y555775D02*
D03*
X2509111Y546512D02*
D03*
X2383764Y670837D02*
D03*
X2393033Y661574D02*
D03*
X2409977Y645136D02*
D03*
X2400710Y654401D02*
D03*
X2640863Y680443D02*
D03*
X2631595Y689707D02*
D03*
D30*
X2303930Y474982D02*
D03*
X2290826Y474978D02*
D03*
X2558900Y697484D02*
D03*
X2572004Y697484D02*
D03*
X2524864Y697484D02*
D03*
X2537968Y697484D02*
D03*
X2593444Y697484D02*
D03*
X2606548Y697484D02*
D03*
X2579774Y537212D02*
D03*
X2566670Y537208D02*
D03*
X2243940Y514349D02*
D03*
X2257044Y514351D02*
D03*
X2605128Y497840D02*
D03*
X2618232Y497840D02*
D03*
X2611986Y509016D02*
D03*
X2625090Y509016D02*
D03*
D31*
X2319759Y659613D02*
D03*
X2329023Y668881D02*
D03*
X2448791Y606527D02*
D03*
X2458055Y615795D02*
D03*
D32*
X2260973Y459485D02*
D03*
X2260967Y495519D02*
D03*
X2275589Y459487D02*
D03*
X2275583Y495521D02*
D03*
D33*
X2275710Y612010D02*
D03*
X2265810Y602110D02*
D03*
D34*
X2308210Y462280D02*
D03*
X2322210D02*
D03*
D35*
X2612390Y537210D02*
D03*
X2602310Y537210D02*
D03*
X2544572Y537210D02*
D03*
X2534492Y537210D02*
D03*
D36*
X2511044Y612966D02*
D03*
D37*
Y604966D02*
D03*
Y596966D02*
D03*
Y588966D02*
D03*
Y580966D02*
D03*
Y572966D02*
D03*
Y621030D02*
D03*
Y629158D02*
D03*
Y637032D02*
D03*
Y645160D02*
D03*
Y653034D02*
D03*
Y661162D02*
D03*
X2627864Y572966D02*
D03*
Y580966D02*
D03*
Y588966D02*
D03*
Y596966D02*
D03*
Y604966D02*
D03*
Y612966D02*
D03*
Y621030D02*
D03*
Y629158D02*
D03*
Y637032D02*
D03*
Y645160D02*
D03*
Y653034D02*
D03*
Y661162D02*
D03*
D38*
X2525268Y558566D02*
D03*
X2533396D02*
D03*
X2541270D02*
D03*
X2549398D02*
D03*
X2557272D02*
D03*
X2565400D02*
D03*
X2573464D02*
D03*
X2581464D02*
D03*
X2589464D02*
D03*
X2597464D02*
D03*
X2605464D02*
D03*
X2613464D02*
D03*
Y675386D02*
D03*
X2605464D02*
D03*
X2597464D02*
D03*
X2589464D02*
D03*
X2581464D02*
D03*
X2573464D02*
D03*
X2565400D02*
D03*
X2557272D02*
D03*
X2549398D02*
D03*
X2541270D02*
D03*
X2533396D02*
D03*
X2525268D02*
D03*
D39*
X2479612Y506122D02*
D03*
X2479610Y515622D02*
D03*
X2455418Y515618D02*
D03*
X2455420Y506118D02*
D03*
D40*
X2479608Y525274D02*
D03*
X2455416Y525270D02*
D03*
D41*
X2591580Y475585D02*
D03*
X2591580Y469085D02*
D03*
X2591580Y462585D02*
D03*
X2591580Y456085D02*
D03*
X2625580Y456087D02*
D03*
X2625580Y462587D02*
D03*
X2625580Y469087D02*
D03*
X2625580Y475587D02*
D03*
D42*
X2598831Y448836D02*
D03*
X2605331Y448836D02*
D03*
X2611831Y448836D02*
D03*
X2618331Y448836D02*
D03*
X2618329Y482836D02*
D03*
X2611830Y482836D02*
D03*
X2605329Y482836D02*
D03*
X2598829Y482836D02*
D03*
D43*
X2262632Y771144D02*
D03*
X2247512Y771144D02*
D03*
D44*
X2682989Y521890D02*
D03*
X2678392Y526485D02*
D03*
X2673759Y531118D02*
D03*
X2669088Y535787D02*
D03*
X2635060Y501749D02*
D03*
X2639731Y497079D02*
D03*
X2644365Y492447D02*
D03*
X2648961Y487852D02*
D03*
D45*
X2596134Y755754D02*
D03*
D46*
X2575560Y771960D02*
D03*
D47*
Y752856D02*
D03*
D48*
X2437740Y650916D02*
D03*
X2453426Y635241D02*
D03*
X2425627Y638795D02*
D03*
X2441313Y623120D02*
D03*
D49*
X2531490Y506730D02*
D03*
X2515362Y506730D02*
D03*
D50*
X2523490Y510730D02*
D03*
Y502666D02*
D03*
Y506730D02*
D03*
D51*
X2369820Y676530D02*
D03*
Y692658D02*
D03*
D52*
X2373820Y684530D02*
D03*
X2365756D02*
D03*
X2369820D02*
D03*
D53*
X2678687Y703323D02*
D03*
X2658017Y723993D02*
D03*
D54*
X2638552Y730250D02*
D03*
X2609320D02*
D03*
D55*
X2549050Y477012D02*
D03*
X2553050D02*
D03*
X2557050D02*
D03*
X2561082D02*
D03*
X2565146D02*
D03*
X2569210D02*
D03*
Y448788D02*
D03*
X2565146D02*
D03*
X2561082D02*
D03*
X2557050D02*
D03*
X2553050D02*
D03*
X2549050D02*
D03*
D56*
X2573274Y472948D02*
D03*
Y468884D02*
D03*
Y464820D02*
D03*
Y460788D02*
D03*
Y456788D02*
D03*
Y452788D02*
D03*
X2545050D02*
D03*
Y456788D02*
D03*
Y460788D02*
D03*
Y464820D02*
D03*
Y468884D02*
D03*
Y472948D02*
D03*
D57*
X2533142Y461914D02*
D03*
Y447914D02*
D03*
X2635758Y448422D02*
D03*
Y462422D02*
D03*
D58*
X2408330Y450530D02*
D03*
X2414830D02*
D03*
X2421382D02*
D03*
X2427986D02*
D03*
Y474218D02*
D03*
X2421382D02*
D03*
X2414830D02*
D03*
X2408330D02*
D03*
D59*
X2388328Y457928D02*
D03*
X2393984Y463584D02*
D03*
D60*
X2452933Y567220D02*
D03*
X2449397Y570756D02*
D03*
X2445862Y574291D02*
D03*
X2442326Y577827D02*
D03*
X2438791Y581362D02*
D03*
X2435255Y584898D02*
D03*
X2431720Y588433D02*
D03*
X2428184Y591969D02*
D03*
X2424649Y595504D02*
D03*
X2421113Y599040D02*
D03*
X2417578Y602575D02*
D03*
X2414042Y606111D02*
D03*
X2410506Y609647D02*
D03*
X2406971Y613182D02*
D03*
X2403436Y616718D02*
D03*
X2399900Y620253D02*
D03*
X2396364Y623789D02*
D03*
X2392829Y627324D02*
D03*
X2389293Y630860D02*
D03*
X2385758Y634395D02*
D03*
X2382222Y637931D02*
D03*
X2378687Y641467D02*
D03*
X2375151Y645002D02*
D03*
X2371616Y648537D02*
D03*
X2368080Y652073D02*
D03*
X2261307Y545300D02*
D03*
X2264843Y541764D02*
D03*
X2268378Y538229D02*
D03*
X2271914Y534693D02*
D03*
X2275449Y531158D02*
D03*
X2278985Y527622D02*
D03*
X2282520Y524087D02*
D03*
X2286056Y520551D02*
D03*
X2289591Y517016D02*
D03*
X2293127Y513480D02*
D03*
X2296662Y509945D02*
D03*
X2300198Y506409D02*
D03*
X2303734Y502873D02*
D03*
X2307269Y499338D02*
D03*
X2310804Y495802D02*
D03*
X2314340Y492267D02*
D03*
X2317876Y488731D02*
D03*
X2321411Y485196D02*
D03*
X2324947Y481660D02*
D03*
X2328482Y478125D02*
D03*
X2332018Y474589D02*
D03*
X2335553Y471053D02*
D03*
X2339089Y467518D02*
D03*
X2342624Y463983D02*
D03*
X2346160Y460447D02*
D03*
D61*
X2346160Y652073D02*
D03*
X2342624Y648537D02*
D03*
X2339089Y645002D02*
D03*
X2335553Y641466D02*
D03*
X2332018Y637931D02*
D03*
X2328482Y634395D02*
D03*
X2324947Y630860D02*
D03*
X2321411Y627324D02*
D03*
X2317876Y623789D02*
D03*
X2314340Y620253D02*
D03*
X2310805Y616718D02*
D03*
X2307269Y613182D02*
D03*
X2303733Y609646D02*
D03*
X2300198Y606111D02*
D03*
X2296662Y602575D02*
D03*
X2293127Y599040D02*
D03*
X2289591Y595504D02*
D03*
X2286056Y591969D02*
D03*
X2282520Y588433D02*
D03*
X2278985Y584898D02*
D03*
X2275449Y581362D02*
D03*
X2271913Y577827D02*
D03*
X2268378Y574291D02*
D03*
X2264843Y570756D02*
D03*
X2261307Y567220D02*
D03*
X2368080Y460447D02*
D03*
X2371616Y463983D02*
D03*
X2375151Y467518D02*
D03*
X2378687Y471054D02*
D03*
X2382222Y474589D02*
D03*
X2385758Y478125D02*
D03*
X2389293Y481660D02*
D03*
X2392829Y485196D02*
D03*
X2396364Y488731D02*
D03*
X2399900Y492267D02*
D03*
X2403435Y495802D02*
D03*
X2406971Y499338D02*
D03*
X2410507Y502874D02*
D03*
X2414042Y506409D02*
D03*
X2417578Y509944D02*
D03*
X2421113Y513480D02*
D03*
X2424649Y517015D02*
D03*
X2428184Y520551D02*
D03*
X2431720Y524087D02*
D03*
X2435255Y527622D02*
D03*
X2438791Y531158D02*
D03*
X2442327Y534693D02*
D03*
X2445862Y538229D02*
D03*
X2449397Y541764D02*
D03*
X2452933Y545300D02*
D03*
D62*
X2657856Y589788D02*
X2660142D01*
X2657348Y589280D02*
X2657856Y589788D01*
X2649474Y597154D02*
X2657348Y589280D01*
X2649474Y597154D02*
Y597894D01*
X2292350Y644144D02*
X2293620Y645414D01*
Y650090D01*
X2341086Y621792D02*
X2364232D01*
X2328482Y634395D02*
X2341086Y621792D01*
X2332078Y637931D02*
X2343137Y626872D01*
X2245868Y772788D02*
Y779018D01*
X2263902Y770382D02*
X2270506D01*
X2343290Y634238D02*
X2345068Y632460D01*
X2346198D01*
X2343137Y626872D02*
X2367788D01*
X2368080Y652073D02*
X2375391Y659384D01*
X2384746Y656904D02*
Y669855D01*
Y656904D02*
X2387600Y654050D01*
X2383764Y670837D02*
X2384746Y669855D01*
X2375391Y659384D02*
X2379726D01*
X2312730Y513889D02*
X2321052Y522211D01*
Y522732D01*
X2348793Y652073D02*
X2350770Y654050D01*
X2387600D02*
X2392426Y649224D01*
X2382222Y637931D02*
X2391701Y647409D01*
X2670152Y605132D02*
X2679700D01*
X2605128Y486006D02*
Y497840D01*
Y485174D02*
Y486006D01*
X2635758Y457454D02*
Y462422D01*
X2641593Y475481D02*
X2646680D01*
X2638298Y472186D02*
X2641593Y475481D01*
X2636266Y472186D02*
X2638298D01*
X2538984Y469900D02*
X2541905Y472821D01*
X2538984Y468376D02*
Y469900D01*
Y468376D02*
Y470184D01*
X2604244Y485122D02*
X2605128Y486006D01*
X2598575Y485122D02*
X2604244D01*
X2591308Y475996D02*
Y479298D01*
X2590800Y475488D02*
X2591308Y475996D01*
X2541905Y472821D02*
X2545026D01*
X2580132Y447294D02*
Y451868D01*
X2580290Y452026D01*
X2573274D02*
X2580290D01*
X2579774Y531555D02*
Y537212D01*
X2376685Y480220D02*
X2382222Y474682D01*
X2376685Y484990D02*
X2379218Y487523D01*
Y488442D01*
X2376685Y480220D02*
Y484990D01*
X2456434Y614174D02*
X2458055Y615795D01*
X2456434Y614174D02*
X2457704Y612904D01*
Y609346D02*
Y612904D01*
X2442233Y577827D02*
X2456942Y592536D01*
X2456434Y583692D02*
Y584770D01*
X2445862Y574198D02*
X2456434Y584770D01*
X2438805Y581348D02*
X2448099Y590643D01*
X2438791Y581362D02*
X2438805Y581348D01*
X2448099Y594915D02*
X2449322Y596138D01*
X2448099Y590643D02*
Y594915D01*
X2442972Y592615D02*
Y600708D01*
X2435255Y584898D02*
X2442972Y592615D01*
Y600708D02*
X2448791Y606527D01*
X2368550Y474119D02*
X2375151Y467518D01*
X2368550Y474119D02*
Y474980D01*
X2342624Y463983D02*
X2351082Y472440D01*
X2352040D01*
X2376203Y624840D02*
X2385758Y634395D01*
X2413000Y590927D02*
X2421113Y599040D01*
X2441313Y618863D02*
Y623120D01*
X2495550Y621030D02*
X2511044D01*
X2486406Y625602D02*
X2490978D01*
X2495550Y621030D01*
X2329023Y668881D02*
X2332990Y672848D01*
X2400710Y654401D02*
Y654460D01*
X2405380Y659130D01*
X2393033Y661574D02*
X2397760Y666301D01*
Y666750D01*
X2437740Y650916D02*
X2443480Y656656D01*
Y657860D01*
X2425172Y662920D02*
Y663681D01*
X2428240Y666750D01*
X2449285Y664246D02*
Y664755D01*
X2446020Y668020D02*
X2449285Y664755D01*
X2511044Y621030D02*
X2523490D01*
X2424556Y517015D02*
X2433320Y508251D01*
X2383513Y670837D02*
X2383764D01*
X2490232Y631428D02*
X2494042D01*
X2489200Y632460D02*
X2490232Y631428D01*
X2489200Y645160D02*
X2511044D01*
X2669540Y631190D02*
X2669794Y630936D01*
X2679701D01*
X2670810Y594360D02*
X2671422Y593748D01*
X2679699D01*
X2670152Y605132D02*
X2670764Y604520D01*
X2670810Y568960D02*
X2671214Y569364D01*
X2679699D01*
X2580640Y688340D02*
X2581464Y687516D01*
Y675386D02*
Y687516D01*
X2552700Y697230D02*
X2552954Y697484D01*
X2558900D01*
X2518410Y697230D02*
X2518664Y697484D01*
X2524864D01*
X2541270Y675386D02*
Y688340D01*
X2549398Y687578D02*
X2550160Y688340D01*
X2549398Y675386D02*
Y687578D01*
X2634487Y552116D02*
X2634761Y552390D01*
X2640390D01*
X2641156Y612966D02*
X2641600Y613410D01*
X2627864Y612966D02*
X2641156D01*
X2611814Y580966D02*
X2627864D01*
X2607310Y585470D02*
X2611814Y580966D01*
X2605464Y675386D02*
X2606040Y675962D01*
Y688340D01*
X2511044Y637032D02*
X2511806Y636270D01*
X2537460D01*
X2579774Y537212D02*
X2581464Y538902D01*
Y558566D01*
X2627864Y588966D02*
X2645096D01*
X2605464Y558566D02*
X2606040Y557990D01*
Y546100D02*
Y557990D01*
X2628372Y637540D02*
X2655570D01*
X2486874Y612966D02*
X2511044D01*
X2510536Y628650D02*
X2511044Y629158D01*
X2496820Y628650D02*
X2510536D01*
X2494042Y631428D02*
X2496820Y628650D01*
X2525268Y675386D02*
X2526030Y674624D01*
Y661670D02*
Y674624D01*
X2484882Y661162D02*
X2511044D01*
X2484120Y660400D02*
X2484882Y661162D01*
X2493010Y652780D02*
X2510790D01*
X2646680Y485570D02*
X2648961Y487852D01*
X2605075Y485122D02*
X2605128Y485174D01*
X2646680Y485570D02*
X2647950Y484300D01*
Y478790D02*
Y484300D01*
Y476751D02*
Y478790D01*
X2646680Y475481D02*
X2647950Y476751D01*
X2387600Y650380D02*
Y654050D01*
X2378687Y641467D02*
X2387600Y650380D01*
X2447050Y635241D02*
X2453426D01*
X2444750Y637540D02*
X2447050Y635241D01*
X2441097Y637540D02*
X2444750D01*
X2429667Y626110D02*
X2441097Y637540D01*
X2429667Y621736D02*
Y626110D01*
X2417578Y602482D02*
Y602575D01*
X2403570Y645136D02*
X2409977D01*
X2418044Y654086D02*
Y655792D01*
Y654086D02*
X2425627Y646503D01*
Y638795D02*
Y646503D01*
X2453426Y635241D02*
Y638596D01*
X2459990Y645160D01*
Y653543D01*
X2456414Y657119D02*
X2459990Y653543D01*
X2389293Y630860D02*
X2403570Y645136D01*
X2400565Y641601D02*
Y642132D01*
X2310804Y495802D02*
X2326812Y511810D01*
X2307269Y499338D02*
X2317750Y509819D01*
Y511810D01*
X2303734Y502873D02*
X2312730Y511870D01*
Y513889D01*
X2268378Y574291D02*
X2279650Y563019D01*
Y562610D02*
Y563019D01*
X2271913Y577827D02*
X2280780Y568960D01*
X2280920D01*
X2346160Y652073D02*
X2348793D01*
X2382222Y474589D02*
Y474682D01*
X2424556Y517015D02*
X2424649D01*
X2442233Y577827D02*
X2442326D01*
X2445862Y574198D02*
Y574291D01*
X2346160Y460447D02*
X2347147D01*
X2358390Y471691D01*
Y474980D01*
X2319759Y659613D02*
X2324478D01*
X2339089Y645002D01*
X2256790Y578808D02*
X2264843Y570756D01*
X2645096Y588966D02*
X2645410Y589280D01*
X2410506Y609647D02*
X2425627Y624767D01*
Y638795D01*
X2607310Y585470D02*
Y588010D01*
X2431984Y506915D02*
X2433320Y508251D01*
X2256790Y578808D02*
Y593090D01*
X2265810Y602110D01*
X2430186Y508712D02*
Y509738D01*
Y508712D02*
X2431984Y506915D01*
X2415540Y523359D02*
X2416346Y522553D01*
X2417371D01*
X2430186Y509738D01*
X2415540Y523359D02*
Y524400D01*
X2314340Y492267D02*
Y492896D01*
X2326905Y505460D01*
X2327910D01*
X2589464Y535940D02*
Y558566D01*
X2332018Y637931D02*
X2332078D01*
X2321814Y671576D02*
X2334262D01*
X2332990Y672848D02*
X2334262Y671576D01*
X2335553Y641466D02*
X2343036Y633984D01*
X2343290Y634238D01*
X2342624Y648537D02*
X2351081Y640080D01*
X2376203Y624840D02*
X2376678D01*
X2414042Y606111D02*
X2429667Y621736D01*
X2417578Y602482D02*
X2428506Y613410D01*
X2409313Y594614D02*
X2413000Y590927D01*
X2406904Y594614D02*
X2409313D01*
X2437384Y614934D02*
X2441313Y618863D01*
X2437384Y614680D02*
Y614934D01*
D63*
X2457704Y547116D02*
X2463102Y552514D01*
X2466086D01*
X2291588Y614721D02*
Y618236D01*
Y614721D02*
X2300198Y606111D01*
X2291842Y630682D02*
Y632165D01*
X2291801Y632206D02*
X2291842Y632165D01*
X2290531Y630936D02*
X2291801Y632206D01*
X2272284Y597408D02*
X2273054D01*
X2273300Y597654D01*
X2277110Y613410D02*
X2280920Y609600D01*
X2283968D01*
X2286589Y592501D02*
X2294382Y584708D01*
X2286056Y591969D02*
X2286589Y592501D01*
X2294382Y584200D02*
Y584708D01*
X2282677Y620796D02*
Y629179D01*
X2276602Y635254D02*
X2282677Y629179D01*
X2270760Y635254D02*
X2276602D01*
X2266188Y618562D02*
X2275550Y627924D01*
X2266188Y615188D02*
Y618562D01*
X2270760Y642470D02*
X2274570Y646280D01*
X2270760Y635254D02*
Y642470D01*
X2295906Y662686D02*
X2303272D01*
X2294890Y661670D02*
X2295906Y662686D01*
X2278985Y584898D02*
X2288286Y575597D01*
Y574548D02*
Y575597D01*
X2283914Y770891D02*
X2288016Y774993D01*
X2283126Y770891D02*
X2283914D01*
X2341880Y698540D02*
Y703660D01*
Y693420D02*
Y698540D01*
X2333070Y698500D02*
X2335784D01*
X2332990D02*
X2333070D01*
X2327910Y703660D02*
X2333070Y698500D01*
X2327910Y693420D02*
X2332990Y698500D01*
X2327910Y713740D02*
X2329480Y715310D01*
X2421890Y544830D02*
X2425119D01*
X2423127Y539750D02*
X2435255Y527622D01*
X2415540Y539750D02*
X2423127D01*
X2276236Y670672D02*
X2283645D01*
X2274570Y672338D02*
X2276236Y670672D01*
X2445187Y516819D02*
Y520230D01*
X2443234Y514866D02*
X2445187Y516819D01*
X2440940Y514866D02*
X2443234D01*
X2290531Y630936D02*
X2294849Y626618D01*
X2294615Y626385D02*
X2295164D01*
X2294615D02*
X2294849Y626618D01*
X2246376Y607314D02*
X2252900D01*
X2254170Y608584D01*
Y624760D01*
X2275840Y473710D02*
Y495264D01*
X2405914Y613182D02*
X2406971D01*
X2582418Y457454D02*
X2582672Y457708D01*
X2577779Y462537D02*
X2581148Y459168D01*
X2580926Y458946D02*
X2582418Y457454D01*
X2577779Y462537D02*
Y474510D01*
X2572258Y479552D02*
X2574290D01*
X2558145Y480933D02*
X2570877D01*
X2557050Y479838D02*
X2558145Y480933D01*
X2588260Y453118D02*
X2591326Y456184D01*
X2577779Y474510D02*
X2582567Y479298D01*
X2566162Y472186D02*
X2573274D01*
X2576217Y472948D02*
X2577779Y474510D01*
X2573274Y472948D02*
X2576217D01*
X2582567Y479298D02*
X2582672D01*
X2570877Y480933D02*
X2572258Y479552D01*
X2582164Y472694D02*
X2586736D01*
X2582926Y466344D02*
X2583410Y465860D01*
X2565146Y473202D02*
X2566162Y472186D01*
X2565146Y473202D02*
Y476250D01*
X2598166Y450711D02*
X2598577Y451122D01*
X2598166Y450711D02*
Y455168D01*
X2620344Y448855D02*
X2628900D01*
Y447802D02*
Y448855D01*
X2629520Y448422D02*
X2635758D01*
X2618076Y451122D02*
X2620344Y448855D01*
X2635758Y483841D02*
X2644365Y492447D01*
X2635758Y483616D02*
Y483841D01*
X2679885Y525595D02*
X2683510Y521970D01*
X2310384Y721224D02*
X2316980Y727820D01*
X2546936Y475726D02*
X2547678D01*
X2546436Y476226D02*
X2546936Y475726D01*
X2540495Y476226D02*
X2546436D01*
X2539571Y475302D02*
X2540495Y476226D01*
X2536512Y475302D02*
X2539571D01*
X2547678Y475726D02*
X2548102Y475302D01*
X2536190Y474980D02*
X2536512Y475302D01*
X2531805Y473164D02*
Y482025D01*
X2532380Y482600D01*
X2548102Y475302D02*
X2549050Y476250D01*
X2531805Y473164D02*
X2532380Y472589D01*
Y471170D02*
Y472589D01*
X2527300Y466090D02*
X2532380Y471170D01*
X2553050Y477012D02*
Y480973D01*
X2548260D02*
X2553050D01*
X2548253Y480980D02*
X2548260Y480973D01*
X2539588Y480980D02*
X2548253D01*
X2538730Y481838D02*
X2539588Y480980D01*
X2586736Y472694D02*
X2589692Y469738D01*
X2587220Y465860D02*
X2591241Y461839D01*
X2583410Y465860D02*
X2587220D01*
X2591241Y461839D02*
X2591326D01*
X2550668Y454660D02*
X2552633Y452695D01*
Y449205D02*
Y452695D01*
Y449205D02*
X2553050Y448788D01*
X2557050Y476250D02*
Y477012D01*
Y479838D01*
X2553050Y476250D02*
Y477012D01*
X2533142Y447914D02*
X2536556Y444500D01*
X2559812D01*
X2561082Y445770D01*
X2557050Y448026D02*
Y454374D01*
X2557018Y454406D02*
X2557050Y454374D01*
X2561082Y445770D02*
Y448026D01*
X2518700Y466090D02*
X2527300D01*
X2531476Y461914D01*
X2533142D01*
X2397506Y458470D02*
Y459994D01*
X2394966Y462534D02*
X2397506Y459994D01*
X2396364Y488731D02*
X2397004Y488092D01*
X2399900Y492267D02*
X2402650Y489517D01*
X2400195Y463550D02*
X2423160D01*
X2385758Y477987D02*
X2400195Y463550D01*
X2385758Y477987D02*
Y478125D01*
X2396650Y488092D02*
X2397004D01*
X2402650Y489517D02*
Y489870D01*
X2397760Y472186D02*
Y472440D01*
X2389293Y480907D02*
X2397760Y472440D01*
X2370616Y484412D02*
X2372614Y486410D01*
X2371598D02*
X2372614D01*
X2406396Y475234D02*
X2407314D01*
X2408330Y474218D01*
X2541270Y558566D02*
Y574040D01*
X2565400Y558566D02*
Y572770D01*
X2454749Y547116D02*
X2457704D01*
X2452933Y545300D02*
X2454749Y547116D01*
X2459736Y533654D02*
X2459990Y533400D01*
X2480880Y524002D02*
X2484628D01*
X2479608Y525274D02*
X2480880Y524002D01*
X2479612Y506122D02*
X2483766D01*
X2461514Y492506D02*
X2466340Y487680D01*
X2461514Y492506D02*
Y497730D01*
X2414042Y506409D02*
X2421890Y498561D01*
X2378710Y450850D02*
Y456889D01*
X2371616Y463983D02*
X2378710Y456889D01*
X2383790Y455930D02*
X2388680D01*
X2421382Y450530D02*
Y457708D01*
X2362775Y465752D02*
Y479365D01*
X2363470Y480060D01*
X2404110Y453390D02*
Y458470D01*
Y453390D02*
X2406970Y450530D01*
X2288620Y462280D02*
Y464740D01*
X2285125Y468235D02*
X2288620Y464740D01*
X2281315Y468235D02*
X2285125D01*
X2275840Y473710D02*
X2281315Y468235D01*
X2275583Y495521D02*
X2275840Y495264D01*
X2257044Y512826D02*
Y514351D01*
Y512826D02*
X2263715Y506155D01*
X2268795D01*
X2275583Y499367D01*
Y495521D02*
Y499367D01*
X2270760Y514350D02*
X2272030Y513080D01*
X2270760Y514350D02*
Y519398D01*
X2278985Y527622D01*
X2265680Y521389D02*
X2275449Y531158D01*
X2265680Y510540D02*
Y521389D01*
X2289591Y517016D02*
X2295936Y523360D01*
X2298820D01*
X2301240Y525780D01*
X2287696Y520551D02*
X2294890Y527745D01*
X2286056Y520551D02*
X2287696D01*
X2333851Y462280D02*
X2339089Y467518D01*
X2322210Y462280D02*
X2333851D01*
X2316480Y453390D02*
X2319020D01*
X2308210Y461660D02*
X2316480Y453390D01*
X2308210Y461660D02*
Y462280D01*
X2280920Y474980D02*
X2280922Y474978D01*
X2290826D01*
X2299970Y467360D02*
X2303930Y471320D01*
Y474982D01*
X2243940Y506880D02*
Y514349D01*
Y506880D02*
X2247900Y502920D01*
X2253566D01*
X2260967Y495519D01*
X2288540Y486410D02*
X2291080D01*
X2294890Y490220D01*
Y501101D01*
X2300198Y506409D01*
X2288540Y496490D02*
Y501822D01*
X2296662Y509945D01*
X2518560Y466230D02*
X2518700Y466090D01*
X2319020Y453390D02*
X2319640Y452770D01*
X2265680Y590550D02*
X2266261D01*
X2275449Y581362D01*
X2273300Y597654D02*
X2282520Y588433D01*
X2414830Y450530D02*
Y457910D01*
X2441956Y466230D02*
X2448700D01*
X2680714Y512826D02*
Y513336D01*
X2509111Y546512D02*
Y549501D01*
X2566670Y537208D02*
Y557296D01*
X2680207Y513333D02*
X2680714Y512826D01*
Y513336D02*
X2684780Y509270D01*
X2618075Y485122D02*
X2625309D01*
X2625326Y448818D02*
Y489984D01*
X2618232Y497078D02*
X2625326Y489984D01*
X2644365Y492985D02*
X2651760Y500380D01*
X2618232Y497840D02*
X2622550D01*
X2618232Y497078D02*
Y497840D01*
X2622550D02*
X2625090Y500380D01*
Y509016D01*
X2644365Y492447D02*
Y492985D01*
X2679885Y524990D02*
Y525595D01*
X2664460Y539750D02*
X2665125D01*
X2669088Y535787D01*
X2679885Y524990D01*
X2557272Y558566D02*
X2565400D01*
X2566670Y557296D01*
X2557272Y675386D02*
Y687832D01*
X2565400Y558566D02*
X2573464D01*
X2557272Y687832D02*
X2557780Y688340D01*
X2533142Y740410D02*
X2538730D01*
X2589464Y675386D02*
Y688274D01*
X2589530Y688340D01*
X2572004Y697484D02*
X2577846D01*
X2586990Y755650D02*
X2587094Y755754D01*
X2606548Y697484D02*
X2606802Y697230D01*
X2587094Y755754D02*
X2596134D01*
X2627630Y693673D02*
X2631595Y689707D01*
X2627630Y693673D02*
Y694690D01*
X2641346Y653034D02*
X2641600Y652780D01*
X2627864Y653034D02*
X2641346D01*
X2670810Y556260D02*
X2679701D01*
X2670810Y580390D02*
X2679447D01*
X2679701Y580644D01*
X2670556Y618236D02*
X2679700D01*
X2670810Y666750D02*
X2679446D01*
X2679700Y667004D01*
X2606802Y697230D02*
X2612390D01*
X2616708Y748999D02*
Y760221D01*
X2616200Y760730D02*
X2616708Y760221D01*
X2681577Y720697D02*
Y722280D01*
X2637029Y748791D02*
X2637790Y748030D01*
X2637029Y748791D02*
Y755396D01*
X2406970Y450530D02*
X2408330D01*
X2389293Y480907D02*
Y481660D01*
X2423160Y463550D02*
X2427986Y458724D01*
Y450530D02*
Y458724D01*
X2421382Y474218D02*
Y478689D01*
X2414830Y481810D02*
X2421970Y488950D01*
X2414830Y474218D02*
Y481810D01*
X2362775Y465752D02*
X2368080Y460447D01*
X2332355Y493395D02*
X2332385Y493365D01*
Y489099D02*
Y493365D01*
X2271914Y534693D02*
X2278240Y541020D01*
X2283460D01*
X2284730Y542290D01*
X2268220Y552450D02*
X2270760Y554990D01*
X2268378Y538229D02*
X2277519Y547370D01*
X2611575Y485122D02*
Y508605D01*
X2630319Y775208D02*
X2637027Y768500D01*
X2626360Y775208D02*
X2630319D01*
X2601365Y781050D02*
X2607208Y775208D01*
X2614734Y572966D02*
X2627864D01*
X2597464Y558566D02*
Y568646D01*
X2442327Y534693D02*
Y535823D01*
X2433320Y544830D02*
X2442327Y535823D01*
X2533396Y661924D02*
Y675386D01*
X2597464Y661984D02*
Y675386D01*
X2670810Y641350D02*
X2671144Y641016D01*
X2679699D01*
X2670810Y654050D02*
X2670960Y653900D01*
X2679700D01*
X2633980Y491490D02*
X2639569Y497079D01*
X2639731D01*
X2635060Y501749D02*
X2640330Y507018D01*
Y509270D01*
X2631440Y561340D02*
X2645157D01*
X2649475Y557022D01*
X2654982Y567102D02*
X2655570Y567690D01*
X2649473Y567102D02*
X2654982D01*
X2614930Y537210D02*
X2620010Y532130D01*
X2613914Y537210D02*
X2614930D01*
X2634489Y536449D02*
Y542036D01*
X2549398Y546862D02*
Y558566D01*
X2533396Y537614D02*
Y558566D01*
X2510790Y565150D02*
X2511044Y565404D01*
Y572966D01*
X2504440Y560372D02*
Y561340D01*
X2499842Y555775D02*
X2504440Y560372D01*
X2642870Y682450D02*
Y687070D01*
X2640863Y680443D02*
X2642870Y682450D01*
X2640863Y680443D02*
X2649473Y671833D01*
Y658518D02*
Y671833D01*
X2641854Y645414D02*
X2649475D01*
X2627864Y645160D02*
X2641600D01*
X2627630Y666750D02*
X2627864Y666516D01*
Y661162D02*
Y666516D01*
X2613464Y688144D02*
X2613660Y688340D01*
X2613464Y675386D02*
Y688144D01*
X2315210Y655320D02*
X2319503Y659613D01*
X2319759D01*
X2255520Y565150D02*
X2257590Y567220D01*
X2261307D01*
X2609275Y607635D02*
X2611944Y604966D01*
X2627864D01*
X2613660Y621030D02*
X2627864D01*
X2593340Y572770D02*
X2597464Y568646D01*
X2606040Y575310D02*
X2613464Y567886D01*
Y558566D02*
Y567886D01*
X2612390Y575310D02*
X2614734Y572966D01*
X2600960Y575310D02*
X2606040D01*
X2601655Y607635D02*
X2601655Y607635D01*
X2609275D01*
X2324947Y481660D02*
X2332385Y489099D01*
X2268220Y552213D02*
Y552450D01*
X2261307Y545300D02*
X2268220Y552213D01*
X2428184Y520551D02*
X2428240Y520607D01*
X2449397Y541764D02*
X2457762Y533400D01*
X2459990D01*
X2359072Y692658D02*
X2369820D01*
X2357120Y684530D02*
X2365756D01*
X2288540Y508893D02*
X2293127Y513480D01*
X2288540Y508000D02*
Y508893D01*
X2286000Y505460D02*
X2288540Y508000D01*
X2280920Y505460D02*
X2286000D01*
X2278380Y508000D02*
X2280920Y505460D01*
X2296662Y511162D02*
X2308165Y522665D01*
X2296662Y509945D02*
Y511162D01*
X2322910Y683340D02*
X2327910D01*
X2341880D01*
X2295164Y625286D02*
X2307269Y613182D01*
X2295164Y625286D02*
Y626385D01*
X2296994Y638810D02*
X2302292Y633512D01*
X2296160Y638810D02*
X2296994D01*
X2667000Y726234D02*
Y726440D01*
Y726234D02*
X2672308Y731543D01*
X2677160Y716280D02*
X2681577Y720697D01*
X2642362Y726440D02*
X2646680D01*
X2638552Y730250D02*
X2642362Y726440D01*
X2678687Y703323D02*
Y714753D01*
X2677160Y716280D02*
X2678687Y714753D01*
X2575560Y771960D02*
X2578662Y768858D01*
X2254170Y624760D02*
X2260600D01*
X2417578Y509944D02*
X2427142Y500380D01*
X2421890Y496770D02*
Y498561D01*
X2421382Y478689D02*
X2431643Y488950D01*
X2432050D01*
X2421970D02*
X2426653Y493633D01*
X2427142Y500380D02*
X2429510D01*
X2407920Y525780D02*
X2410719D01*
X2425119Y544830D02*
X2438791Y531158D01*
X2410719Y525780D02*
X2413724Y528785D01*
X2419950D01*
X2428184Y520551D01*
X2428240Y520607D02*
X2434497Y514350D01*
X2431720Y524087D02*
X2440940Y514866D01*
X2432050Y487105D02*
Y488950D01*
X2440245Y487105D02*
X2448560Y478790D01*
X2470150D01*
X2475230Y483870D01*
X2432050Y487105D02*
X2440245D01*
X2426653Y493633D02*
X2444353D01*
X2491327Y481890D02*
Y487883D01*
X2487830Y491380D02*
X2491327Y487883D01*
X2438480Y501730D02*
X2443480D01*
X2437130Y500380D02*
X2438480Y501730D01*
X2455418Y515618D02*
X2455420Y515616D01*
X2532300Y492760D02*
X2532380Y492680D01*
X2486406Y612498D02*
X2487318Y613410D01*
X2494280D01*
X2335553Y471053D02*
X2340245Y475745D01*
Y476615D01*
X2484120Y701040D02*
X2496670Y713590D01*
X2484120Y685720D02*
Y701040D01*
X2484120Y670560D02*
Y675640D01*
Y670560D02*
X2484120Y670560D01*
X2332355Y493395D02*
X2338070Y499110D01*
X2335530Y505460D02*
Y515620D01*
X2317876Y488731D02*
Y491369D01*
X2322778Y496272D01*
Y496518D01*
X2327335Y501075D01*
X2331145D01*
X2335530Y505460D01*
X2321411Y485196D02*
X2328519Y492304D01*
Y492416D01*
X2327970Y492965D02*
X2328519Y492416D01*
X2509520Y670560D02*
Y695960D01*
X2516378Y702818D01*
Y729742D02*
Y738886D01*
Y702818D02*
Y726440D01*
Y729742D01*
X2496670Y713590D02*
Y738886D01*
X2463510Y756920D02*
X2473670Y767080D01*
X2478170Y742080D02*
Y743966D01*
X2483250Y738886D02*
X2490170D01*
X2532888Y767080D02*
X2540000D01*
X2260600Y614680D02*
X2266696D01*
X2262886Y658876D02*
X2263394Y659384D01*
X2411476Y624758D02*
Y626618D01*
X2403436Y616718D02*
X2411476Y624758D01*
X2370616Y479124D02*
Y484412D01*
Y479124D02*
X2378687Y471054D01*
X2332018Y474589D02*
X2341880Y484451D01*
X2328482Y478125D02*
X2338070Y487713D01*
Y490220D01*
X2340245Y476615D02*
X2341404Y477774D01*
X2348484D01*
X2427986Y474218D02*
X2431288D01*
X2409780Y489458D02*
Y489812D01*
X2409468Y490124D02*
X2409780Y489812D01*
X2406971Y498789D02*
X2411251Y494509D01*
X2406971Y498789D02*
Y499338D01*
X2415540Y489966D02*
Y490253D01*
X2411251Y494509D02*
X2411284D01*
X2415540Y490253D01*
X2403435Y495802D02*
X2409780Y489458D01*
X2387925Y446715D02*
X2393950Y440690D01*
X2476651Y515618D02*
X2479612Y512657D01*
X2502916Y506476D02*
Y512318D01*
X2266188Y615188D02*
X2266696Y614680D01*
X2597150Y540870D02*
Y543814D01*
Y540870D02*
X2600810Y537210D01*
X2549398Y546862D02*
X2551938Y544322D01*
X2554224D01*
X2543556Y544068D02*
X2545842D01*
Y537210D02*
X2546096D01*
X2545842D02*
Y544068D01*
X2519914Y558566D02*
X2525268D01*
X2509111Y549501D02*
X2512060Y552450D01*
Y552958D01*
X2519680Y558800D02*
X2519914Y558566D01*
X2256536Y521716D02*
X2257044Y521208D01*
Y514351D02*
Y521208D01*
X2324947Y630860D02*
X2334006Y621800D01*
Y620522D02*
Y621800D01*
X2321411Y626513D02*
Y627324D01*
Y626513D02*
X2333498Y614426D01*
X2317876Y623789D02*
X2339385Y602279D01*
X2322830Y683260D02*
X2322910Y683340D01*
X2319528Y686562D02*
X2322830Y683260D01*
X2313686Y686562D02*
X2319528D01*
X2397760Y595884D02*
Y605028D01*
X2405914Y613182D01*
X2314340Y620253D02*
X2324485Y610108D01*
X2325116D01*
X2319020Y608076D02*
Y608502D01*
X2310805Y616718D02*
X2319020Y608502D01*
X2277519Y547370D02*
X2280920D01*
X2270760Y554990D02*
X2272030D01*
X2293127Y599040D02*
X2308606Y583561D01*
Y579882D02*
Y583561D01*
X2370074Y597499D02*
X2396364Y623789D01*
X2370074Y597408D02*
Y597499D01*
X2282520Y524087D02*
X2311146Y552712D01*
Y559816D01*
X2458720Y533654D02*
X2459736D01*
X2469134Y441198D02*
X2475230Y447294D01*
Y483870D01*
Y492396D01*
X2487830Y491380D02*
Y492396D01*
X2487101Y448631D02*
Y471760D01*
X2487830Y472489D01*
Y491380D01*
X2487101Y448631D02*
X2494534Y441198D01*
X2404618Y634238D02*
X2406904Y631952D01*
Y627257D02*
Y631952D01*
X2399900Y620253D02*
X2406904Y627257D01*
X2361438Y632925D02*
X2365799Y637286D01*
X2367435D01*
X2375151Y645002D01*
X2326997Y714653D02*
Y775280D01*
Y714653D02*
X2327910Y713740D01*
X2339443Y716377D02*
X2341980Y713840D01*
X2339443Y716377D02*
Y775280D01*
X2364543Y758247D02*
Y775280D01*
X2364486Y758190D02*
X2364543Y758247D01*
X2351973Y775209D02*
X2352043Y775280D01*
X2351973Y723713D02*
Y775209D01*
Y723713D02*
X2353056Y722630D01*
D64*
X2296662Y602575D02*
X2305132Y594106D01*
X2307336D01*
X2282612Y602483D02*
Y602996D01*
Y602483D02*
X2289591Y595504D01*
X2278888Y602996D02*
X2282612D01*
X2295144Y682752D02*
X2297938Y685546D01*
Y694182D01*
X2284984Y684530D02*
Y685038D01*
X2280793Y689229D02*
X2284984Y685038D01*
X2280793Y689229D02*
Y694182D01*
X2262240Y683271D02*
X2263648Y684679D01*
Y694182D01*
X2261362Y750570D02*
X2263140D01*
X2250168Y756412D02*
X2255520D01*
X2261362Y750570D01*
X2280793Y711318D02*
Y719709D01*
X2276917Y723585D02*
X2280793Y719709D01*
X2272345Y723585D02*
X2276917D01*
X2266188Y729742D02*
X2272345Y723585D01*
X2266188Y729742D02*
Y733298D01*
X2252708Y746778D02*
X2266188Y733298D01*
X2263648Y711318D02*
Y716280D01*
X2250168Y729760D02*
X2263648Y716280D01*
X2250168Y729760D02*
Y734236D01*
X2297938Y711318D02*
Y722122D01*
X2304796Y728980D01*
X2304542Y751078D02*
X2304796Y750824D01*
Y728980D02*
Y750824D01*
D65*
X2575560Y771960D02*
X2595201D01*
X2607209Y759953D01*
Y748999D02*
Y759953D01*
X2626868Y737870D02*
Y748492D01*
X2609320Y730250D02*
X2619248D01*
X2626868Y737870D01*
X2605278Y747068D02*
X2607209Y748999D01*
X2605278Y738632D02*
Y747068D01*
Y738632D02*
X2609320Y734590D01*
Y730250D02*
Y734590D01*
Y721338D02*
Y730250D01*
X2433828Y731520D02*
X2434082Y731266D01*
X2531490Y506730D02*
X2534412Y509652D01*
Y519938D01*
X2486914Y509270D02*
X2492582D01*
X2483766Y506122D02*
X2486914Y509270D01*
X2513186Y504554D02*
X2515362Y506730D01*
X2513186Y497730D02*
Y504554D01*
X2516886Y494030D02*
X2530856D01*
X2513186Y497730D02*
X2516886Y494030D01*
X2519681Y726439D02*
X2524760D01*
X2534840Y726441D02*
X2541271D01*
X2547620Y732790D01*
Y742950D01*
X2557526Y752856D01*
X2575560D01*
X2369948Y676402D02*
X2376424D01*
X2455416Y525270D02*
X2456550Y526404D01*
X2461723D01*
X2466848Y531529D01*
Y544068D01*
X2523490Y530860D02*
X2534412Y519938D01*
X2492582Y509270D02*
Y524844D01*
X2498598Y530860D01*
X2523490D01*
X2464054Y515618D02*
Y516714D01*
X2470028Y522688D01*
X2455418Y515618D02*
X2464054D01*
X2476651D01*
X2499060Y497730D02*
X2513186D01*
X2532380Y496062D02*
X2534666Y498348D01*
X2532380Y492680D02*
Y496062D01*
D66*
X2424858Y731520D02*
X2433828D01*
X2373630Y713740D02*
X2377043Y717153D01*
X2373630Y696468D02*
Y703660D01*
X2369820Y692658D02*
X2373630Y696468D01*
X2455420Y506118D02*
Y515616D01*
X2479612Y506122D02*
Y512657D01*
X2516378Y729742D02*
X2519681Y726439D01*
X2263394Y659384D02*
X2274570D01*
X2502916Y512318D02*
X2507488Y516890D01*
Y521716D01*
X2377043Y717153D02*
Y775279D01*
X2385060Y780542D02*
Y793750D01*
Y780542D02*
X2406650Y758952D01*
Y739648D02*
Y758952D01*
Y739648D02*
X2414524Y731774D01*
D67*
X2503170Y708660D02*
Y738886D01*
X2493010Y698500D02*
X2503170Y708660D01*
X2509774Y706284D02*
Y738886D01*
X2501310Y697820D02*
X2509774Y706284D01*
X2501310Y692025D02*
Y697820D01*
Y692025D02*
X2503170Y690165D01*
Y685720D02*
Y690165D01*
X2493010Y685720D02*
Y698500D01*
X2501610Y671830D02*
X2502535D01*
X2503170Y671195D01*
X2493010D02*
X2493645Y671830D01*
X2494570D01*
X2503170Y671195D02*
Y675640D01*
X2493010Y671195D02*
Y675640D01*
D68*
X2494534Y441198D02*
D03*
X2469134D02*
D03*
D69*
X2443734D02*
D03*
X2359660Y793750D02*
D03*
X2334260D02*
D03*
X2308860D02*
D03*
X2283460D02*
D03*
X2258060D02*
D03*
X2311146Y559816D02*
D03*
X2370074Y597408D02*
D03*
X2292604Y562610D02*
D03*
X2308606Y579882D02*
D03*
X2321560Y595884D02*
D03*
X2340610Y603504D02*
D03*
X2313178Y706120D02*
D03*
X2349246Y669290D02*
D03*
X2308098Y644906D02*
D03*
X2310384Y675132D02*
D03*
X2368550Y440690D02*
D03*
X2343150D02*
D03*
X2317750D02*
D03*
X2292350D02*
D03*
X2266950D02*
D03*
D70*
X2240280Y462534D02*
D03*
X2702306Y567182D02*
D03*
X2701798Y673354D02*
D03*
D71*
X2569464Y506966D02*
D03*
D72*
Y727202D02*
D03*
D73*
X2246376Y607314D02*
D03*
Y632714D02*
D03*
Y658114D02*
D03*
Y683514D02*
D03*
Y581914D02*
D03*
Y556514D02*
D03*
D74*
Y708914D02*
D03*
D75*
X2406376Y700514D02*
D03*
D76*
X2669286Y769112D02*
D03*
Y465074D02*
D03*
X2429510Y769112D02*
D03*
D77*
X2385060Y793750D02*
D03*
X2393950Y440690D02*
D03*
D78*
X2660142Y589788D02*
D03*
X2307336Y594106D02*
D03*
X2291588Y618236D02*
D03*
X2291842Y630682D02*
D03*
X2278888Y602996D02*
D03*
X2272284Y597408D02*
D03*
X2283968Y609600D02*
D03*
X2294382Y584200D02*
D03*
X2270760Y635254D02*
D03*
X2268220Y628650D02*
D03*
X2257044Y635762D02*
D03*
X2292350Y644144D02*
D03*
X2303272Y662686D02*
D03*
X2295144Y682752D02*
D03*
X2284984Y684530D02*
D03*
X2277353Y683271D02*
D03*
X2262240D02*
D03*
X2288286Y574548D02*
D03*
X2263140Y750570D02*
D03*
X2271776Y734060D02*
D03*
X2271522Y757174D02*
D03*
Y745744D02*
D03*
X2288016Y774993D02*
D03*
X2346198Y632460D02*
D03*
X2364232Y614680D02*
D03*
X2335784Y698500D02*
D03*
X2421890Y544830D02*
D03*
X2415540Y539750D02*
D03*
X2379726Y659384D02*
D03*
X2283645Y670672D02*
D03*
X2445187Y520230D02*
D03*
X2321052Y522732D02*
D03*
X2321814Y570992D02*
D03*
X2350770Y654050D02*
D03*
X2391156Y647954D02*
D03*
X2588260Y453118D02*
D03*
X2582672Y479298D02*
D03*
X2574290D02*
D03*
X2582164Y472694D02*
D03*
X2582926Y466344D02*
D03*
X2598166Y455168D02*
D03*
X2628900Y447802D02*
D03*
X2635758Y457454D02*
D03*
X2679700Y488950D02*
D03*
X2344674Y534670D02*
D03*
X2340610Y542544D02*
D03*
X2310384Y721224D02*
D03*
X2294993Y743780D02*
D03*
X2245868Y779018D02*
D03*
X2539238Y480822D02*
D03*
X2536190Y474980D02*
D03*
X2538984Y468376D02*
D03*
X2605532Y490728D02*
D03*
X2591308Y479298D02*
D03*
X2550668Y454660D02*
D03*
X2557018Y454406D02*
D03*
X2528570D02*
D03*
X2580132Y447294D02*
D03*
X2515616Y478282D02*
D03*
X2579774Y531555D02*
D03*
X2397506Y458470D02*
D03*
X2396650Y488092D02*
D03*
X2402650Y489870D02*
D03*
X2397760Y472186D02*
D03*
X2371598Y486410D02*
D03*
X2379218Y488442D02*
D03*
X2378710Y549910D02*
D03*
X2373630Y546100D02*
D03*
X2379980Y509270D02*
D03*
X2457958Y473456D02*
D03*
X2406396Y475234D02*
D03*
X2609320Y721338D02*
D03*
X2455672Y705866D02*
D03*
X2457704Y609346D02*
D03*
X2456942Y594868D02*
D03*
X2449322Y596138D02*
D03*
X2442972D02*
D03*
X2456434Y583692D02*
D03*
X2541270Y574040D02*
D03*
X2565400Y572770D02*
D03*
X2487930D02*
D03*
X2526030Y574040D02*
D03*
X2457704Y547116D02*
D03*
X2434082Y731266D02*
D03*
X2484628Y524002D02*
D03*
X2451354Y491236D02*
D03*
X2445766Y494284D02*
D03*
X2368550Y568960D02*
D03*
X2466340Y487680D02*
D03*
X2378710Y450850D02*
D03*
X2482850Y473710D02*
D03*
X2470150D02*
D03*
X2383790Y455930D02*
D03*
X2421382Y457708D02*
D03*
X2363470Y480060D02*
D03*
X2364740Y556260D02*
D03*
X2368550Y474980D02*
D03*
X2404110Y458470D02*
D03*
X2272030Y513080D02*
D03*
X2265680Y510540D02*
D03*
X2301240Y525780D02*
D03*
X2294890Y527745D02*
D03*
X2280920Y474980D02*
D03*
X2299970Y467360D02*
D03*
X2247900Y502920D02*
D03*
X2527300Y466090D02*
D03*
X2319020Y453390D02*
D03*
X2352040Y472440D02*
D03*
X2265680Y590550D02*
D03*
X2414830Y457910D02*
D03*
X2448700Y466230D02*
D03*
X2405380Y659130D02*
D03*
X2397760Y666750D02*
D03*
X2443480Y657860D02*
D03*
X2428240Y666750D02*
D03*
X2446020Y668020D02*
D03*
X2680207Y513333D02*
D03*
X2625326Y489984D02*
D03*
X2651760Y500380D02*
D03*
X2664460Y539750D02*
D03*
X2523490Y621030D02*
D03*
X2543556Y697484D02*
D03*
X2557780Y688340D02*
D03*
X2538730Y740410D02*
D03*
X2577846Y697484D02*
D03*
X2589530Y688340D02*
D03*
X2586990Y755650D02*
D03*
X2641600Y652780D02*
D03*
X2670810Y556260D02*
D03*
X2670556Y618236D02*
D03*
X2670810Y580390D02*
D03*
Y666750D02*
D03*
X2627630Y694690D02*
D03*
X2612390Y697230D02*
D03*
X2616200Y760730D02*
D03*
X2637790Y748030D02*
D03*
X2334260Y584200D02*
D03*
X2326640Y580390D02*
D03*
X2330450Y575310D02*
D03*
X2390140Y572770D02*
D03*
X2284730Y542290D02*
D03*
X2357120Y547370D02*
D03*
X2601365Y781050D02*
D03*
X2489200Y632460D02*
D03*
Y645160D02*
D03*
X2433320Y544830D02*
D03*
X2533396Y661924D02*
D03*
X2597150Y614680D02*
D03*
X2597464Y661984D02*
D03*
X2670810Y641350D02*
D03*
Y654050D02*
D03*
X2669540Y631190D02*
D03*
X2670810Y594360D02*
D03*
X2670764Y604520D02*
D03*
X2670810Y568960D02*
D03*
X2633980Y491490D02*
D03*
X2640330Y509270D02*
D03*
X2631440Y561340D02*
D03*
X2655570Y567690D02*
D03*
X2620010Y532130D02*
D03*
X2634489Y536449D02*
D03*
X2510790Y565150D02*
D03*
X2504440Y561340D02*
D03*
X2642870Y687070D02*
D03*
X2641600Y645160D02*
D03*
X2627630Y666750D02*
D03*
X2613660Y688340D02*
D03*
X2580640D02*
D03*
X2588260Y697230D02*
D03*
X2552700D02*
D03*
X2518410D02*
D03*
X2541270Y688340D02*
D03*
X2550160D02*
D03*
X2315210Y655320D02*
D03*
X2255520Y565150D02*
D03*
X2613660Y621030D02*
D03*
X2640390Y552390D02*
D03*
X2641600Y613410D02*
D03*
X2620010Y544830D02*
D03*
X2606040Y688340D02*
D03*
X2537460Y636270D02*
D03*
X2645410Y525780D02*
D03*
X2606040Y546100D02*
D03*
X2655570Y637540D02*
D03*
Y580390D02*
D03*
X2526030Y661670D02*
D03*
X2484120Y660400D02*
D03*
X2493010Y652780D02*
D03*
X2647950Y478790D02*
D03*
X2400565Y641601D02*
D03*
X2327910Y505460D02*
D03*
X2326812Y511810D02*
D03*
X2317750D02*
D03*
X2279650Y562610D02*
D03*
X2280920Y568960D02*
D03*
X2358390Y474980D02*
D03*
X2593340Y572770D02*
D03*
X2612390Y575310D02*
D03*
X2600960D02*
D03*
X2645410Y589280D02*
D03*
X2499360Y565150D02*
D03*
X2494280Y561340D02*
D03*
X2601655Y607635D02*
D03*
X2613660Y589280D02*
D03*
X2606040Y601980D02*
D03*
X2600960Y593090D02*
D03*
X2595880Y596900D02*
D03*
X2537460Y609600D02*
D03*
X2592070Y588010D02*
D03*
X2607310D02*
D03*
X2589530Y535940D02*
D03*
X2484120Y567800D02*
D03*
X2278380Y508000D02*
D03*
X2364486Y758190D02*
D03*
X2308165Y522665D02*
D03*
X2341880Y698540D02*
D03*
X2296160Y638810D02*
D03*
X2667000Y726440D02*
D03*
X2677160Y716280D02*
D03*
X2646680Y726440D02*
D03*
X2421890Y496770D02*
D03*
X2429510Y500380D02*
D03*
X2415540Y524400D02*
D03*
X2407920Y525780D02*
D03*
X2428240Y549910D02*
D03*
X2491327Y481890D02*
D03*
X2437130Y500380D02*
D03*
X2280920Y481330D02*
D03*
X2494280Y613410D02*
D03*
X2484120Y670560D02*
D03*
X2363470Y508000D02*
D03*
X2374900Y501650D02*
D03*
X2338070Y499110D02*
D03*
X2335530Y515620D02*
D03*
X2327970Y492965D02*
D03*
X2350770Y533400D02*
D03*
X2501610Y671830D02*
D03*
X2494570D02*
D03*
X2509520Y670560D02*
D03*
X2463510Y756920D02*
D03*
X2478170Y742080D02*
D03*
X2540000Y767080D02*
D03*
X2266696Y614680D02*
D03*
X2262886Y658876D02*
D03*
X2409952Y667004D02*
D03*
X2411476Y626618D02*
D03*
X2357882Y495808D02*
D03*
X2364740Y500380D02*
D03*
X2338070Y490220D02*
D03*
X2341880Y484451D02*
D03*
X2348484Y477774D02*
D03*
X2431288Y474218D02*
D03*
X2409468Y490124D02*
D03*
X2415540Y489966D02*
D03*
X2597150Y543814D02*
D03*
X2554224Y544322D02*
D03*
X2543556Y544068D02*
D03*
X2512060Y552958D02*
D03*
X2519680Y558800D02*
D03*
Y549910D02*
D03*
X2321814Y671576D02*
D03*
X2341880Y524256D02*
D03*
X2336031Y521620D02*
D03*
X2256536Y521716D02*
D03*
X2334006Y620522D02*
D03*
X2333498Y614426D02*
D03*
X2313686Y686562D02*
D03*
X2376424Y676402D02*
D03*
X2351081Y640080D02*
D03*
X2376678Y624840D02*
D03*
X2367788Y626872D02*
D03*
X2364232Y621792D02*
D03*
X2397760Y595884D02*
D03*
X2428506Y613410D02*
D03*
X2325116Y610108D02*
D03*
X2319020Y608076D02*
D03*
X2280920Y547370D02*
D03*
X2272030Y554990D02*
D03*
X2272938Y548990D02*
D03*
X2406904Y594614D02*
D03*
X2373122Y619760D02*
D03*
X2373376Y608584D02*
D03*
X2390902Y609600D02*
D03*
X2437384Y614680D02*
D03*
X2339086Y592074D02*
D03*
X2307590Y532130D02*
D03*
X2458720Y533654D02*
D03*
X2466848Y544068D02*
D03*
X2452169Y532275D02*
D03*
X2507488Y521716D02*
D03*
X2470150Y523494D02*
D03*
X2510028Y472948D02*
D03*
X2491486Y469646D02*
D03*
X2534666Y498348D02*
D03*
X2301773Y553279D02*
D03*
X2413747Y548520D02*
D03*
X2404618Y634238D02*
D03*
X2361438Y632925D02*
D03*
X2356358Y762000D02*
D03*
X2344420Y764032D02*
D03*
X2395982Y746252D02*
D03*
X2334006Y757682D02*
D03*
X2353056Y722630D02*
D03*
X2304542Y751078D02*
D03*
M02*
