G04 Layer_Color=65535*
%FSLAX42Y42*%
%MOMM*%
G71*
G01*
G75*
%ADD10C,0.10*%
%ADD14C,0.25*%
%ADD25C,0.13*%
%ADD26C,0.00*%
%ADD27C,0.00*%
%ADD28C,0.18*%
%ADD29R,6.78X13.11*%
%ADD30R,7.04X15.57*%
G36*
X7843Y11056D02*
X7817D01*
X7814Y11039D01*
X7814Y11039D01*
X7814Y11039D01*
X7815Y11040D01*
X7815Y11040D01*
X7815Y11040D01*
X7816Y11040D01*
X7817Y11041D01*
X7818Y11041D01*
X7819Y11042D01*
X7821Y11043D01*
X7824Y11043D01*
X7825Y11043D01*
X7826Y11043D01*
X7827D01*
X7827Y11043D01*
X7828Y11043D01*
X7829Y11043D01*
X7830Y11043D01*
X7831Y11042D01*
X7832Y11042D01*
X7833Y11042D01*
X7834Y11041D01*
X7835Y11041D01*
X7837Y11040D01*
X7838Y11039D01*
X7839Y11038D01*
X7840Y11037D01*
X7840Y11037D01*
X7840Y11037D01*
X7841Y11037D01*
X7841Y11036D01*
X7841Y11036D01*
X7842Y11035D01*
X7842Y11034D01*
X7843Y11033D01*
X7844Y11032D01*
X7844Y11031D01*
X7845Y11030D01*
X7845Y11029D01*
X7845Y11027D01*
X7846Y11026D01*
X7846Y11024D01*
X7846Y11022D01*
Y11022D01*
Y11022D01*
Y11022D01*
X7846Y11021D01*
X7846Y11020D01*
X7846Y11019D01*
X7845Y11018D01*
X7845Y11017D01*
X7845Y11015D01*
X7844Y11014D01*
X7844Y11012D01*
X7843Y11011D01*
X7842Y11010D01*
X7842Y11009D01*
X7841Y11007D01*
X7841Y11007D01*
X7841Y11007D01*
X7840Y11007D01*
X7840Y11006D01*
X7839Y11006D01*
X7838Y11005D01*
X7837Y11004D01*
X7836Y11004D01*
X7835Y11003D01*
X7834Y11002D01*
X7833Y11002D01*
X7831Y11001D01*
X7829Y11000D01*
X7828Y11000D01*
X7826Y11000D01*
X7824Y11000D01*
X7823D01*
X7823Y11000D01*
X7822Y11000D01*
X7821Y11000D01*
X7820Y11000D01*
X7819Y11000D01*
X7817Y11001D01*
X7816Y11001D01*
X7814Y11002D01*
X7813Y11002D01*
X7812Y11003D01*
X7811Y11004D01*
X7810Y11005D01*
X7810Y11005D01*
X7810Y11005D01*
X7809Y11005D01*
X7809Y11005D01*
X7808Y11006D01*
X7808Y11007D01*
X7807Y11007D01*
X7807Y11008D01*
X7806Y11009D01*
X7806Y11010D01*
X7805Y11011D01*
X7805Y11012D01*
X7804Y11013D01*
X7804Y11015D01*
X7804Y11016D01*
X7804Y11018D01*
X7812Y11018D01*
Y11018D01*
X7812Y11018D01*
Y11018D01*
X7812Y11017D01*
X7812Y11017D01*
X7812Y11016D01*
X7813Y11015D01*
X7813Y11013D01*
X7814Y11012D01*
X7815Y11010D01*
X7816Y11009D01*
X7816Y11009D01*
X7817Y11009D01*
X7817Y11008D01*
X7818Y11008D01*
X7819Y11007D01*
X7821Y11007D01*
X7822Y11006D01*
X7824Y11006D01*
X7825D01*
X7825Y11006D01*
X7825Y11006D01*
X7826Y11006D01*
X7827Y11007D01*
X7829Y11007D01*
X7830Y11008D01*
X7831Y11008D01*
X7832Y11009D01*
X7833Y11010D01*
X7834Y11010D01*
X7834Y11011D01*
X7834Y11011D01*
X7834Y11011D01*
X7834Y11011D01*
X7835Y11012D01*
X7835Y11012D01*
X7835Y11013D01*
X7836Y11013D01*
X7836Y11015D01*
X7837Y11017D01*
X7837Y11019D01*
X7838Y11020D01*
Y11022D01*
Y11022D01*
Y11022D01*
Y11022D01*
X7837Y11023D01*
Y11023D01*
X7837Y11024D01*
X7837Y11026D01*
X7837Y11027D01*
X7836Y11029D01*
X7835Y11031D01*
X7834Y11032D01*
X7834Y11032D01*
Y11033D01*
X7834Y11033D01*
X7833Y11033D01*
X7833Y11033D01*
X7832Y11034D01*
X7831Y11034D01*
X7830Y11035D01*
X7828Y11036D01*
X7826Y11036D01*
X7825Y11036D01*
X7823D01*
X7823Y11036D01*
X7822Y11036D01*
X7821Y11036D01*
X7819Y11036D01*
X7818Y11035D01*
X7817Y11035D01*
X7817Y11034D01*
X7817Y11034D01*
X7816Y11034D01*
X7815Y11033D01*
X7815Y11033D01*
X7814Y11032D01*
X7813Y11031D01*
X7812Y11030D01*
X7805Y11031D01*
X7811Y11064D01*
X7843D01*
Y11056D01*
D02*
G37*
G36*
X7775Y11065D02*
X7776Y11065D01*
X7778Y11065D01*
X7780Y11064D01*
X7781Y11064D01*
X7781D01*
X7781Y11064D01*
X7782Y11064D01*
X7783Y11064D01*
X7784Y11063D01*
X7785Y11063D01*
X7786Y11063D01*
X7787Y11062D01*
X7789Y11061D01*
X7789Y11061D01*
X7789Y11061D01*
X7790Y11060D01*
X7791Y11060D01*
X7791Y11059D01*
X7792Y11058D01*
X7793Y11056D01*
X7794Y11055D01*
Y11055D01*
X7794Y11055D01*
X7794Y11055D01*
X7794Y11054D01*
X7795Y11053D01*
X7795Y11052D01*
X7795Y11051D01*
X7796Y11050D01*
X7796Y11048D01*
X7796Y11046D01*
Y11046D01*
Y11046D01*
Y11045D01*
X7796Y11045D01*
X7796Y11044D01*
X7796Y11043D01*
X7795Y11042D01*
X7795Y11042D01*
X7795Y11039D01*
X7794Y11038D01*
X7794Y11037D01*
X7793Y11036D01*
X7792Y11035D01*
X7792Y11034D01*
X7791Y11032D01*
X7791Y11032D01*
X7790Y11032D01*
X7790Y11032D01*
X7790Y11032D01*
X7789Y11031D01*
X7788Y11031D01*
X7787Y11030D01*
X7786Y11030D01*
X7785Y11029D01*
X7784Y11029D01*
X7782Y11028D01*
X7781Y11028D01*
X7779Y11027D01*
X7777Y11027D01*
X7774Y11027D01*
X7772Y11027D01*
X7756D01*
Y11001D01*
X7747D01*
Y11065D01*
X7773D01*
X7775Y11065D01*
D02*
G37*
G36*
X10959Y8601D02*
X10959Y8601D01*
X10959Y8601D01*
X10959Y8601D01*
X10959Y8601D01*
X10959Y8601D01*
X10959Y8601D01*
X10959Y8601D01*
X10959Y8601D01*
X10959Y8601D01*
Y8601D01*
X10960Y8601D01*
X10962Y8600D01*
X10964Y8600D01*
X10965Y8600D01*
X10967Y8600D01*
X10969Y8600D01*
X10971Y8600D01*
X10972Y8600D01*
X10974Y8599D01*
X10976Y8599D01*
X10978Y8599D01*
X10979Y8599D01*
X10981Y8598D01*
X10983Y8598D01*
X10985Y8598D01*
X10986Y8597D01*
X10988Y8597D01*
X10990Y8597D01*
X10992Y8596D01*
X10993Y8596D01*
X10995Y8595D01*
X10997Y8595D01*
X10999Y8594D01*
X11000Y8594D01*
X11002Y8593D01*
X11004Y8593D01*
X11005Y8592D01*
X11007Y8592D01*
X11009Y8591D01*
X11011Y8591D01*
X11012Y8590D01*
X11014Y8589D01*
X11016Y8589D01*
X11017Y8588D01*
X11019Y8587D01*
X11020Y8587D01*
X11022Y8586D01*
X11024Y8585D01*
X11025Y8584D01*
X11027Y8584D01*
X11029Y8583D01*
X11030Y8582D01*
X11032Y8581D01*
X11033Y8580D01*
X11035Y8580D01*
X11036Y8579D01*
X11038Y8578D01*
X11039Y8577D01*
X11041Y8576D01*
X11043Y8575D01*
X11044Y8574D01*
X11046Y8573D01*
X11047Y8572D01*
X11049Y8571D01*
X11050Y8570D01*
X11051Y8569D01*
X11053Y8568D01*
X11054Y8567D01*
X11056Y8566D01*
X11057Y8565D01*
X11059Y8564D01*
X11060Y8563D01*
X11061Y8562D01*
X11063Y8560D01*
X11064Y8559D01*
X11065Y8558D01*
X11067Y8557D01*
X11068Y8556D01*
X11069Y8555D01*
X11071Y8553D01*
X11072Y8552D01*
X11073Y8551D01*
X11074Y8550D01*
X11076Y8548D01*
X11077Y8547D01*
X11078Y8546D01*
X11079Y8544D01*
X11080Y8543D01*
X11082Y8542D01*
X11083Y8540D01*
X11084Y8539D01*
X11085Y8538D01*
X11086Y8536D01*
X11087Y8535D01*
X11088Y8533D01*
X11089Y8532D01*
X11091Y8531D01*
X11092Y8529D01*
X11093Y8528D01*
X11094Y8526D01*
X11095Y8525D01*
X11096Y8523D01*
X11097Y8522D01*
X11097Y8520D01*
X11098Y8519D01*
X11099Y8517D01*
X11100Y8516D01*
X11101Y8514D01*
X11102Y8512D01*
X11103Y8511D01*
X11104Y8509D01*
X11104Y8508D01*
X11105Y8506D01*
X11106Y8505D01*
X11107Y8503D01*
X11108Y8501D01*
X11108Y8500D01*
X11109Y8498D01*
X11110Y8496D01*
X11110Y8495D01*
X11111Y8493D01*
X11112Y8491D01*
X11112Y8490D01*
X11113Y8488D01*
X11114Y8486D01*
X11114Y8485D01*
X11115Y8483D01*
X11115Y8481D01*
X11116Y8480D01*
X11116Y8478D01*
X11117Y8476D01*
X11117Y8475D01*
X11118Y8473D01*
X11118Y8471D01*
X11119Y8469D01*
X11119Y8468D01*
X11119Y8466D01*
X11120Y8464D01*
X11120Y8462D01*
X11120Y8461D01*
X11121Y8459D01*
X11121Y8457D01*
X11121Y8455D01*
X11121Y8454D01*
X11122Y8452D01*
X11122Y8450D01*
X11122Y8448D01*
X11122Y8447D01*
X11122Y8445D01*
X11123Y8443D01*
X11123Y8441D01*
X11123Y8439D01*
X11123Y8438D01*
X11123Y8436D01*
X11123Y8434D01*
X11123Y8432D01*
X11123Y8431D01*
Y8431D01*
Y8431D01*
X11123Y8429D01*
X11123Y8427D01*
X11123Y8426D01*
X11123Y8424D01*
X11123Y8422D01*
X11123Y8420D01*
X11123Y8418D01*
X11122Y8417D01*
X11122Y8415D01*
X11122Y8413D01*
X11122Y8411D01*
X11122Y8410D01*
X11121Y8408D01*
X11121Y8406D01*
X11121Y8404D01*
X11121Y8403D01*
X11120Y8401D01*
X11120Y8399D01*
X11120Y8397D01*
X11119Y8396D01*
X11119Y8394D01*
X11119Y8392D01*
X11118Y8390D01*
X11118Y8389D01*
X11117Y8387D01*
X11117Y8385D01*
X11116Y8383D01*
X11116Y8382D01*
X11115Y8380D01*
X11115Y8378D01*
X11114Y8377D01*
X11114Y8375D01*
X11113Y8373D01*
X11112Y8372D01*
X11112Y8370D01*
X11111Y8368D01*
X11110Y8367D01*
X11110Y8365D01*
X11109Y8363D01*
X11108Y8362D01*
X11108Y8360D01*
X11107Y8358D01*
X11106Y8357D01*
X11105Y8355D01*
X11104Y8354D01*
X11104Y8352D01*
X11103Y8351D01*
X11102Y8349D01*
X11101Y8347D01*
X11100Y8346D01*
X11099Y8344D01*
X11098Y8343D01*
X11097Y8341D01*
X11097Y8340D01*
X11096Y8338D01*
X11095Y8337D01*
X11094Y8335D01*
X11093Y8334D01*
X11092Y8332D01*
X11091Y8331D01*
X11089Y8329D01*
X11088Y8328D01*
X11087Y8327D01*
X11086Y8325D01*
X11085Y8324D01*
X11084Y8322D01*
X11083Y8321D01*
X11082Y8320D01*
X11081Y8318D01*
X11079Y8317D01*
X11078Y8316D01*
X11077Y8314D01*
X11076Y8313D01*
X11074Y8312D01*
X11073Y8311D01*
X11072Y8309D01*
X11071Y8308D01*
X11069Y8307D01*
X11068Y8306D01*
X11067Y8304D01*
X11065Y8303D01*
X11064Y8302D01*
X11063Y8301D01*
X11061Y8300D01*
X11060Y8299D01*
X11059Y8298D01*
X11057Y8296D01*
X11056Y8295D01*
X11054Y8294D01*
X11053Y8293D01*
X11051Y8292D01*
X11050Y8291D01*
X11049Y8290D01*
X11047Y8289D01*
X11046Y8288D01*
X11044Y8287D01*
X11043Y8286D01*
X11041Y8285D01*
X11039Y8284D01*
X11038Y8284D01*
X11036Y8283D01*
X11035Y8282D01*
X11033Y8281D01*
X11032Y8280D01*
X11030Y8279D01*
X11029Y8279D01*
X11027Y8278D01*
X11025Y8277D01*
X11024Y8276D01*
X11022Y8275D01*
X11020Y8275D01*
X11019Y8274D01*
X11017Y8273D01*
X11016Y8273D01*
X11014Y8272D01*
X11012Y8271D01*
X11011Y8271D01*
X11009Y8270D01*
X11007Y8270D01*
X11005Y8269D01*
X11004Y8269D01*
X11002Y8268D01*
X11000Y8268D01*
X10999Y8267D01*
X10997Y8267D01*
X10995Y8266D01*
X10993Y8266D01*
X10992Y8265D01*
X10990Y8265D01*
X10988Y8264D01*
X10987Y8264D01*
X10985Y8264D01*
X10983Y8263D01*
X10981Y8263D01*
X10980Y8263D01*
X10978Y8263D01*
X10976Y8262D01*
X10974Y8262D01*
X10972Y8262D01*
X10971Y8262D01*
X10969Y8262D01*
X10967Y8261D01*
X10965Y8261D01*
X10964Y8261D01*
X10962Y8261D01*
X10960Y8261D01*
X10958Y8261D01*
X10956Y8261D01*
X10955Y8261D01*
X10953Y8261D01*
X10953Y8261D01*
X10754D01*
Y8346D01*
X10953D01*
Y8346D01*
X10954Y8346D01*
X10956Y8346D01*
X10957Y8346D01*
X10958Y8346D01*
X10959Y8346D01*
X10961Y8346D01*
X10962Y8346D01*
X10963Y8346D01*
X10964Y8347D01*
X10966Y8347D01*
X10967Y8347D01*
X10968Y8347D01*
X10969Y8347D01*
X10970Y8348D01*
X10972Y8348D01*
X10973Y8348D01*
X10974Y8349D01*
X10975Y8349D01*
X10977Y8349D01*
X10978Y8350D01*
X10979Y8350D01*
X10980Y8350D01*
X10981Y8351D01*
X10983Y8351D01*
X10984Y8352D01*
X10985Y8352D01*
X10986Y8353D01*
X10987Y8353D01*
X10988Y8354D01*
X10990Y8354D01*
X10991Y8355D01*
X10992Y8355D01*
X10993Y8356D01*
X10994Y8356D01*
X10995Y8357D01*
X10996Y8358D01*
X10997Y8358D01*
X10998Y8359D01*
X10999Y8360D01*
X11000Y8360D01*
X11001Y8361D01*
X11002Y8362D01*
X11004Y8363D01*
X11005Y8363D01*
X11006Y8364D01*
X11006Y8365D01*
X11007Y8366D01*
X11008Y8366D01*
X11009Y8367D01*
X11010Y8368D01*
X11011Y8369D01*
X11012Y8370D01*
X11013Y8371D01*
X11014Y8372D01*
X11015Y8373D01*
X11016Y8373D01*
X11016Y8374D01*
X11017Y8375D01*
X11018Y8376D01*
X11019Y8377D01*
X11020Y8378D01*
X11020Y8379D01*
X11021Y8380D01*
X11022Y8381D01*
X11023Y8382D01*
X11023Y8383D01*
X11024Y8384D01*
X11025Y8385D01*
X11025Y8387D01*
X11026Y8388D01*
X11027Y8389D01*
X11027Y8390D01*
X11028Y8391D01*
X11029Y8392D01*
X11029Y8393D01*
X11030Y8394D01*
X11030Y8395D01*
X11031Y8397D01*
X11031Y8398D01*
X11032Y8399D01*
X11032Y8400D01*
X11033Y8401D01*
X11033Y8402D01*
X11033Y8404D01*
X11034Y8405D01*
X11034Y8406D01*
X11035Y8407D01*
X11035Y8408D01*
X11035Y8410D01*
X11036Y8411D01*
X11036Y8412D01*
X11036Y8413D01*
X11036Y8415D01*
X11037Y8416D01*
X11037Y8417D01*
X11037Y8418D01*
X11037Y8420D01*
X11037Y8421D01*
X11037Y8422D01*
X11038Y8423D01*
X11038Y8425D01*
X11038Y8426D01*
X11038Y8427D01*
X11038Y8428D01*
X11038Y8430D01*
X11038Y8431D01*
X11038D01*
X11038Y8432D01*
X11038Y8433D01*
X11038Y8434D01*
X11038Y8436D01*
X11038Y8437D01*
X11038Y8438D01*
X11037Y8439D01*
X11037Y8441D01*
X11037Y8442D01*
X11037Y8443D01*
X11037Y8444D01*
X11037Y8446D01*
X11036Y8447D01*
X11036Y8448D01*
X11036Y8449D01*
X11036Y8451D01*
X11035Y8452D01*
X11035Y8453D01*
X11035Y8454D01*
X11034Y8455D01*
X11034Y8457D01*
X11033Y8458D01*
X11033Y8459D01*
X11033Y8460D01*
X11032Y8461D01*
X11032Y8463D01*
X11031Y8464D01*
X11031Y8465D01*
X11030Y8466D01*
X11030Y8467D01*
X11029Y8468D01*
X11029Y8469D01*
X11028Y8471D01*
X11027Y8472D01*
X11027Y8473D01*
X11026Y8474D01*
X11025Y8475D01*
X11025Y8476D01*
X11024Y8477D01*
X11023Y8478D01*
X11023Y8479D01*
X11022Y8480D01*
X11021Y8481D01*
X11020Y8482D01*
X11020Y8483D01*
X11019Y8484D01*
X11018Y8485D01*
X11017Y8486D01*
X11016Y8487D01*
X11016Y8488D01*
X11015Y8489D01*
X11014Y8490D01*
X11013Y8491D01*
X11012Y8492D01*
X11011Y8492D01*
X11010Y8493D01*
X11009Y8494D01*
X11008Y8495D01*
X11007Y8496D01*
X11006Y8497D01*
X11006Y8497D01*
X11005Y8498D01*
X11004Y8499D01*
X11002Y8500D01*
X11001Y8500D01*
X11000Y8501D01*
X10999Y8502D01*
X10998Y8502D01*
X10997Y8503D01*
X10996Y8504D01*
X10995Y8504D01*
X10994Y8505D01*
X10993Y8506D01*
X10992Y8506D01*
X10991Y8507D01*
X10990Y8507D01*
X10988Y8508D01*
X10987Y8508D01*
X10986Y8509D01*
X10985Y8509D01*
X10984Y8510D01*
X10983Y8510D01*
X10981Y8511D01*
X10980Y8511D01*
X10979Y8511D01*
X10978Y8512D01*
X10977Y8512D01*
X10975Y8513D01*
X10974Y8513D01*
X10973Y8513D01*
X10972Y8513D01*
X10970Y8514D01*
X10969Y8514D01*
X10968Y8514D01*
X10967Y8514D01*
X10966Y8515D01*
X10964Y8515D01*
X10963Y8515D01*
X10962Y8515D01*
X10961Y8515D01*
X10959Y8515D01*
X10958Y8515D01*
X10957Y8515D01*
X10956Y8515D01*
X10954Y8516D01*
X10953Y8516D01*
X10754D01*
X11008Y8770D01*
X11128D01*
X10959Y8601D01*
D02*
G37*
G36*
X11881Y8770D02*
X11883Y8770D01*
X11885Y8770D01*
X11887Y8770D01*
X11888Y8769D01*
X11890Y8769D01*
X11892Y8769D01*
X11894Y8769D01*
X11896Y8769D01*
X11897Y8769D01*
X11899Y8769D01*
X11901Y8768D01*
X11903Y8768D01*
X11904Y8768D01*
X11906Y8768D01*
X11908Y8767D01*
X11910Y8767D01*
X11911Y8767D01*
X11913Y8766D01*
X11915Y8766D01*
X11917Y8766D01*
X11918Y8765D01*
X11920Y8765D01*
X11922Y8764D01*
X11924Y8764D01*
X11925Y8763D01*
X11927Y8763D01*
X11929Y8762D01*
X11930Y8762D01*
X11932Y8761D01*
X11934Y8761D01*
X11935Y8760D01*
X11937Y8760D01*
X11939Y8759D01*
X11940Y8758D01*
X11942Y8758D01*
X11944Y8757D01*
X11945Y8756D01*
X11947Y8756D01*
X11949Y8755D01*
X11950Y8754D01*
X11952Y8754D01*
X11954Y8753D01*
X11955Y8752D01*
X11957Y8751D01*
X11958Y8750D01*
X11960Y8750D01*
X11961Y8749D01*
X11963Y8748D01*
X11965Y8747D01*
X11966Y8746D01*
X11968Y8745D01*
X11969Y8744D01*
X11971Y8743D01*
X11972Y8742D01*
X11974Y8741D01*
X11975Y8740D01*
X11977Y8739D01*
X11978Y8738D01*
X11979Y8737D01*
X11981Y8736D01*
X11982Y8735D01*
X11984Y8734D01*
X11985Y8733D01*
X11987Y8732D01*
X11988Y8731D01*
X11989Y8730D01*
X11991Y8728D01*
X11992Y8727D01*
X11993Y8726D01*
X11995Y8725D01*
X11996Y8724D01*
X11997Y8722D01*
X11999Y8721D01*
X12000Y8720D01*
X12001Y8719D01*
X12002Y8717D01*
X12004Y8716D01*
X12005Y8715D01*
X12006Y8713D01*
X12007Y8712D01*
X12008Y8711D01*
X12009Y8709D01*
X12011Y8708D01*
X12012Y8707D01*
X12013Y8705D01*
X12014Y8704D01*
X12015Y8702D01*
X12016Y8701D01*
X12017Y8700D01*
X12018Y8698D01*
X12019Y8697D01*
X12020Y8695D01*
X12021Y8694D01*
X12022Y8692D01*
X12023Y8691D01*
X12024Y8689D01*
X12025Y8688D01*
X12026Y8686D01*
X12027Y8685D01*
X12028Y8683D01*
X12029Y8682D01*
X12029Y8680D01*
X12030Y8678D01*
X12031Y8677D01*
X12032Y8675D01*
X12033Y8674D01*
X12033Y8672D01*
X12034Y8670D01*
X12035Y8669D01*
X12036Y8667D01*
X12036Y8666D01*
X12037Y8664D01*
X12038Y8662D01*
X12038Y8661D01*
X12039Y8659D01*
X12040Y8657D01*
X12040Y8656D01*
X12041Y8654D01*
X12041Y8652D01*
X12042Y8650D01*
X12042Y8649D01*
X12043Y8647D01*
X12043Y8645D01*
X12044Y8644D01*
X12044Y8642D01*
X12045Y8640D01*
X12045Y8638D01*
X12046Y8637D01*
X12046Y8635D01*
X12046Y8633D01*
X12047Y8631D01*
X12047Y8630D01*
X12047Y8628D01*
X12048Y8626D01*
X12048Y8624D01*
X12048Y8623D01*
X12048Y8621D01*
X12048Y8619D01*
X12049Y8617D01*
X12049Y8616D01*
X12049Y8614D01*
X12049Y8612D01*
X12049Y8610D01*
X12049Y8609D01*
X12049Y8607D01*
X12050Y8605D01*
X12050Y8603D01*
X12050Y8601D01*
X12050Y8600D01*
X12050Y8600D01*
Y8600D01*
Y8600D01*
X12050Y8598D01*
X12050Y8596D01*
X12050Y8595D01*
X12049Y8593D01*
X12049Y8591D01*
X12049Y8589D01*
X12049Y8588D01*
X12049Y8586D01*
X12049Y8584D01*
X12049Y8582D01*
X12048Y8580D01*
X12048Y8579D01*
X12048Y8577D01*
X12048Y8575D01*
X12048Y8573D01*
X12047Y8572D01*
X12047Y8570D01*
X12047Y8568D01*
X12046Y8566D01*
X12046Y8565D01*
X12046Y8563D01*
X12045Y8561D01*
X12045Y8559D01*
X12044Y8558D01*
X12044Y8556D01*
X12043Y8554D01*
X12043Y8553D01*
X12042Y8551D01*
X12042Y8549D01*
X12041Y8547D01*
X12041Y8546D01*
X12040Y8544D01*
X12040Y8542D01*
X12039Y8541D01*
X12038Y8539D01*
X12038Y8537D01*
X12037Y8536D01*
X12036Y8534D01*
X12036Y8532D01*
X12035Y8531D01*
X12034Y8529D01*
X12033Y8528D01*
X12033Y8526D01*
X12032Y8524D01*
X12031Y8523D01*
X12030Y8521D01*
X12029Y8520D01*
X12029Y8518D01*
X12028Y8516D01*
X12027Y8515D01*
X12026Y8513D01*
X12025Y8512D01*
X12024Y8510D01*
X12023Y8509D01*
X12022Y8507D01*
X12021Y8506D01*
X12020Y8504D01*
X12019Y8503D01*
X12018Y8501D01*
X12017Y8500D01*
X12016Y8499D01*
X12015Y8497D01*
X12014Y8496D01*
X12013Y8494D01*
X12012Y8493D01*
X12011Y8492D01*
X12009Y8490D01*
X12008Y8489D01*
X12007Y8487D01*
X12006Y8486D01*
X12005Y8485D01*
X12004Y8484D01*
X12002Y8482D01*
X12001Y8481D01*
X12000Y8480D01*
X11999Y8478D01*
X11997Y8477D01*
X11996Y8476D01*
X11995Y8475D01*
X11993Y8474D01*
X11992Y8472D01*
X11991Y8471D01*
X11989Y8470D01*
X11988Y8469D01*
X11987Y8468D01*
X11985Y8467D01*
X11984Y8466D01*
X11982Y8464D01*
X11981Y8463D01*
X11979Y8462D01*
X11978Y8461D01*
X11977Y8460D01*
X11975Y8459D01*
X11974Y8458D01*
X11972Y8457D01*
X11971Y8456D01*
X11969Y8455D01*
X11968Y8454D01*
X11966Y8454D01*
X11965Y8453D01*
X11963Y8452D01*
X11961Y8451D01*
X11960Y8450D01*
X11958Y8449D01*
X11957Y8448D01*
X11955Y8448D01*
X11954Y8447D01*
X11952Y8446D01*
X11950Y8445D01*
X11949Y8445D01*
X11947Y8444D01*
X11945Y8443D01*
X11944Y8442D01*
X11942Y8442D01*
X11940Y8441D01*
X11939Y8441D01*
X11937Y8440D01*
X11935Y8439D01*
X11934Y8439D01*
X11932Y8438D01*
X11930Y8438D01*
X11929Y8437D01*
X11927Y8437D01*
X11925Y8436D01*
X11924Y8436D01*
X11922Y8435D01*
X11920Y8435D01*
X11918Y8434D01*
X11917Y8434D01*
X11915Y8434D01*
X11913Y8433D01*
X11911Y8433D01*
X11910Y8433D01*
X11908Y8432D01*
X11906Y8432D01*
X11904Y8432D01*
X11903Y8431D01*
X11901Y8431D01*
X11899Y8431D01*
X11897Y8431D01*
X11895Y8431D01*
X11894Y8430D01*
X11892Y8430D01*
X11890Y8430D01*
X11888Y8430D01*
X11887Y8430D01*
X11886Y8430D01*
Y8430D01*
X11886Y8430D01*
X11886Y8430D01*
X11886Y8430D01*
X11886Y8430D01*
X11886Y8430D01*
X11886Y8430D01*
X11886Y8430D01*
X11886Y8430D01*
X11886Y8430D01*
X12055Y8261D01*
X11935D01*
X11681Y8515D01*
X11880D01*
Y8515D01*
X11881Y8515D01*
X11882Y8515D01*
X11883Y8515D01*
X11885Y8515D01*
X11886Y8515D01*
X11887Y8515D01*
X11888Y8515D01*
X11890Y8516D01*
X11891Y8516D01*
X11892Y8516D01*
X11893Y8516D01*
X11895Y8516D01*
X11896Y8517D01*
X11897Y8517D01*
X11898Y8517D01*
X11900Y8517D01*
X11901Y8518D01*
X11902Y8518D01*
X11903Y8518D01*
X11904Y8519D01*
X11906Y8519D01*
X11907Y8519D01*
X11908Y8520D01*
X11909Y8520D01*
X11910Y8521D01*
X11912Y8521D01*
X11913Y8522D01*
X11914Y8522D01*
X11915Y8523D01*
X11916Y8523D01*
X11917Y8524D01*
X11918Y8524D01*
X11919Y8525D01*
X11921Y8526D01*
X11922Y8526D01*
X11923Y8527D01*
X11924Y8527D01*
X11925Y8528D01*
X11926Y8529D01*
X11927Y8529D01*
X11928Y8530D01*
X11929Y8531D01*
X11930Y8532D01*
X11931Y8532D01*
X11932Y8533D01*
X11933Y8534D01*
X11934Y8535D01*
X11935Y8536D01*
X11936Y8536D01*
X11937Y8537D01*
X11938Y8538D01*
X11939Y8539D01*
X11940Y8540D01*
X11941Y8541D01*
X11941Y8542D01*
X11942Y8543D01*
X11943Y8544D01*
X11944Y8544D01*
X11945Y8545D01*
X11946Y8546D01*
X11946Y8547D01*
X11947Y8548D01*
X11948Y8549D01*
X11949Y8550D01*
X11949Y8551D01*
X11950Y8552D01*
X11951Y8554D01*
X11951Y8555D01*
X11952Y8556D01*
X11953Y8557D01*
X11953Y8558D01*
X11954Y8559D01*
X11955Y8560D01*
X11955Y8561D01*
X11956Y8562D01*
X11956Y8563D01*
X11957Y8565D01*
X11957Y8566D01*
X11958Y8567D01*
X11958Y8568D01*
X11959Y8569D01*
X11959Y8570D01*
X11960Y8572D01*
X11960Y8573D01*
X11960Y8574D01*
X11961Y8575D01*
X11961Y8576D01*
X11962Y8578D01*
X11962Y8579D01*
X11962Y8580D01*
X11962Y8581D01*
X11963Y8582D01*
X11963Y8584D01*
X11963Y8585D01*
X11963Y8586D01*
X11964Y8587D01*
X11964Y8589D01*
X11964Y8590D01*
X11964Y8591D01*
X11964Y8592D01*
X11964Y8594D01*
X11964Y8595D01*
X11964Y8596D01*
X11964Y8597D01*
X11964Y8599D01*
X11965Y8600D01*
X11965D01*
Y8600D01*
X11965D01*
X11964Y8601D01*
X11964Y8602D01*
X11964Y8603D01*
X11964Y8605D01*
X11964Y8606D01*
X11964Y8607D01*
X11964Y8608D01*
X11964Y8610D01*
X11964Y8611D01*
X11964Y8612D01*
X11963Y8613D01*
X11963Y8615D01*
X11963Y8616D01*
X11963Y8617D01*
X11962Y8618D01*
X11962Y8620D01*
X11962Y8621D01*
X11962Y8622D01*
X11961Y8623D01*
X11961Y8625D01*
X11960Y8626D01*
X11960Y8627D01*
X11960Y8628D01*
X11959Y8629D01*
X11959Y8630D01*
X11958Y8632D01*
X11958Y8633D01*
X11957Y8634D01*
X11957Y8635D01*
X11956Y8636D01*
X11956Y8637D01*
X11955Y8638D01*
X11955Y8640D01*
X11954Y8641D01*
X11953Y8642D01*
X11953Y8643D01*
X11952Y8644D01*
X11951Y8645D01*
X11951Y8646D01*
X11950Y8647D01*
X11949Y8648D01*
X11949Y8649D01*
X11948Y8650D01*
X11947Y8651D01*
X11946Y8652D01*
X11946Y8653D01*
X11945Y8654D01*
X11944Y8655D01*
X11943Y8656D01*
X11942Y8657D01*
X11941Y8658D01*
X11941Y8659D01*
X11940Y8660D01*
X11939Y8661D01*
X11938Y8662D01*
X11937Y8662D01*
X11936Y8663D01*
X11935Y8664D01*
X11934Y8665D01*
X11933Y8666D01*
X11932Y8666D01*
X11931Y8667D01*
X11930Y8668D01*
X11929Y8669D01*
X11928Y8669D01*
X11927Y8670D01*
X11926Y8671D01*
X11925Y8672D01*
X11924Y8672D01*
X11923Y8673D01*
X11922Y8673D01*
X11921Y8674D01*
X11919Y8675D01*
X11918Y8675D01*
X11917Y8676D01*
X11916Y8676D01*
X11915Y8677D01*
X11914Y8677D01*
X11913Y8678D01*
X11912Y8678D01*
X11910Y8679D01*
X11909Y8679D01*
X11908Y8680D01*
X11907Y8680D01*
X11906Y8681D01*
X11904Y8681D01*
X11903Y8681D01*
X11902Y8682D01*
X11901Y8682D01*
X11900Y8682D01*
X11898Y8683D01*
X11897Y8683D01*
X11896Y8683D01*
X11895Y8683D01*
X11893Y8683D01*
X11892Y8684D01*
X11891Y8684D01*
X11890Y8684D01*
X11888Y8684D01*
X11887Y8684D01*
X11886Y8684D01*
X11885Y8684D01*
X11883Y8685D01*
X11882Y8685D01*
X11881Y8685D01*
X11880Y8685D01*
Y8685D01*
X11680D01*
Y8770D01*
X11880D01*
X11880Y8770D01*
X11881Y8770D01*
D02*
G37*
G36*
X11354Y8771D02*
X11356Y8771D01*
X11358Y8771D01*
X11361Y8771D01*
X11363Y8771D01*
X11365Y8771D01*
X11367Y8770D01*
X11369Y8770D01*
X11372Y8770D01*
X11374Y8770D01*
X11376Y8770D01*
X11378Y8770D01*
X11380Y8769D01*
X11383Y8769D01*
X11385Y8769D01*
X11387Y8768D01*
X11389Y8768D01*
X11391Y8768D01*
X11393Y8768D01*
X11396Y8767D01*
X11398Y8767D01*
X11400Y8766D01*
X11402Y8766D01*
X11404Y8765D01*
X11406Y8765D01*
X11408Y8765D01*
X11411Y8764D01*
X11413Y8764D01*
X11415Y8763D01*
X11417Y8762D01*
X11419Y8762D01*
X11421Y8761D01*
X11423Y8761D01*
X11425Y8760D01*
X11428Y8759D01*
X11430Y8759D01*
X11432Y8758D01*
X11434Y8757D01*
X11436Y8757D01*
X11438Y8756D01*
X11440Y8755D01*
X11442Y8754D01*
X11444Y8754D01*
X11446Y8753D01*
X11448Y8752D01*
X11450Y8751D01*
X11452Y8750D01*
X11454Y8749D01*
X11456Y8748D01*
X11458Y8748D01*
X11460Y8747D01*
X11462Y8746D01*
X11464Y8745D01*
X11466Y8744D01*
X11468Y8743D01*
X11470Y8742D01*
X11472Y8741D01*
X11474Y8740D01*
X11476Y8739D01*
X11478Y8738D01*
X11480Y8736D01*
X11482Y8735D01*
X11483Y8734D01*
X11485Y8733D01*
X11487Y8732D01*
X11489Y8731D01*
X11491Y8730D01*
X11493Y8728D01*
X11495Y8727D01*
X11496Y8726D01*
X11498Y8725D01*
X11500Y8723D01*
X11502Y8722D01*
X11504Y8721D01*
X11505Y8719D01*
X11507Y8718D01*
X11509Y8717D01*
X11510Y8715D01*
X11512Y8714D01*
X11514Y8713D01*
X11516Y8711D01*
X11517Y8710D01*
X11519Y8708D01*
X11521Y8707D01*
X11522Y8705D01*
X11524Y8704D01*
X11525Y8702D01*
X11527Y8701D01*
X11529Y8699D01*
X11530Y8698D01*
X11532Y8696D01*
X11533Y8695D01*
X11535Y8693D01*
X11536Y8692D01*
X11538Y8690D01*
X11539Y8688D01*
X11541Y8687D01*
X11542Y8685D01*
X11544Y8684D01*
X11545Y8682D01*
X11547Y8680D01*
X11548Y8679D01*
X11549Y8677D01*
X11551Y8675D01*
X11552Y8673D01*
X11553Y8672D01*
X11555Y8670D01*
X11556Y8668D01*
X11557Y8666D01*
X11559Y8665D01*
X11560Y8663D01*
X11561Y8661D01*
X11562Y8659D01*
X11564Y8657D01*
X11565Y8656D01*
X11566Y8654D01*
X11567Y8652D01*
X11568Y8650D01*
X11570Y8648D01*
X11571Y8646D01*
X11572Y8644D01*
X11573Y8642D01*
X11574Y8641D01*
X11575Y8639D01*
X11576Y8637D01*
X11577Y8635D01*
X11578Y8633D01*
X11579Y8631D01*
X11580Y8629D01*
X11581Y8627D01*
X11582Y8625D01*
X11583Y8623D01*
X11584Y8621D01*
X11585Y8619D01*
X11586Y8617D01*
X11586Y8615D01*
X11587Y8613D01*
X11588Y8611D01*
X11589Y8609D01*
X11590Y8607D01*
X11591Y8605D01*
X11591Y8603D01*
X11592Y8601D01*
X11593Y8598D01*
X11593Y8596D01*
X11594Y8594D01*
X11595Y8592D01*
X11595Y8590D01*
X11596Y8588D01*
X11597Y8586D01*
X11597Y8584D01*
X11598Y8582D01*
X11598Y8579D01*
X11599Y8577D01*
X11599Y8575D01*
X11600Y8573D01*
X11600Y8571D01*
X11601Y8569D01*
X11601Y8567D01*
X11602Y8565D01*
X11602Y8562D01*
X11602Y8560D01*
X11603Y8558D01*
X11603Y8556D01*
X11604Y8554D01*
X11604Y8552D01*
X11604Y8549D01*
X11604Y8547D01*
X11605Y8545D01*
X11605Y8543D01*
X11605Y8541D01*
X11605Y8538D01*
X11606Y8536D01*
X11606Y8534D01*
X11606Y8532D01*
X11606Y8530D01*
X11606Y8527D01*
X11606Y8525D01*
X11606Y8523D01*
X11606Y8521D01*
X11606Y8519D01*
X11606Y8517D01*
Y8517D01*
Y8517D01*
Y8517D01*
X11606Y8515D01*
X11606Y8513D01*
X11606Y8510D01*
X11606Y8508D01*
X11606Y8506D01*
X11606Y8504D01*
X11606Y8502D01*
X11606Y8500D01*
X11606Y8497D01*
X11605Y8495D01*
X11605Y8493D01*
X11605Y8491D01*
X11605Y8489D01*
X11604Y8486D01*
X11604Y8484D01*
X11604Y8482D01*
X11604Y8480D01*
X11603Y8478D01*
X11603Y8476D01*
X11602Y8473D01*
X11602Y8471D01*
X11602Y8469D01*
X11601Y8467D01*
X11601Y8465D01*
X11600Y8463D01*
X11600Y8460D01*
X11599Y8458D01*
X11599Y8456D01*
X11598Y8454D01*
X11598Y8452D01*
X11597Y8450D01*
X11597Y8448D01*
X11596Y8446D01*
X11595Y8443D01*
X11595Y8441D01*
X11594Y8439D01*
X11593Y8437D01*
X11593Y8435D01*
X11592Y8433D01*
X11591Y8431D01*
X11591Y8429D01*
X11590Y8427D01*
X11589Y8425D01*
X11588Y8423D01*
X11587Y8421D01*
X11586Y8419D01*
X11586Y8417D01*
X11585Y8415D01*
X11584Y8413D01*
X11583Y8411D01*
X11582Y8409D01*
X11581Y8407D01*
X11580Y8405D01*
X11579Y8403D01*
X11578Y8401D01*
X11577Y8399D01*
X11576Y8397D01*
X11575Y8395D01*
X11574Y8393D01*
X11573Y8391D01*
X11572Y8389D01*
X11571Y8387D01*
X11570Y8385D01*
X11568Y8384D01*
X11567Y8382D01*
X11566Y8380D01*
X11565Y8378D01*
X11564Y8376D01*
X11562Y8374D01*
X11561Y8373D01*
X11560Y8371D01*
X11559Y8369D01*
X11557Y8367D01*
X11556Y8365D01*
X11555Y8364D01*
X11553Y8362D01*
X11552Y8360D01*
X11551Y8358D01*
X11549Y8357D01*
X11548Y8355D01*
X11547Y8353D01*
X11545Y8352D01*
X11544Y8350D01*
X11542Y8348D01*
X11541Y8347D01*
X11539Y8345D01*
X11538Y8343D01*
X11536Y8342D01*
X11535Y8340D01*
X11533Y8339D01*
X11532Y8337D01*
X11530Y8336D01*
X11529Y8334D01*
X11527Y8333D01*
X11525Y8331D01*
X11524Y8330D01*
X11522Y8328D01*
X11521Y8327D01*
X11519Y8325D01*
X11517Y8324D01*
X11516Y8322D01*
X11514Y8321D01*
X11512Y8320D01*
X11510Y8318D01*
X11509Y8317D01*
X11507Y8315D01*
X11505Y8314D01*
X11504Y8313D01*
X11502Y8311D01*
X11500Y8310D01*
X11498Y8309D01*
X11496Y8308D01*
X11495Y8306D01*
X11493Y8305D01*
X11491Y8304D01*
X11489Y8303D01*
X11487Y8302D01*
X11485Y8300D01*
X11483Y8299D01*
X11482Y8298D01*
X11480Y8297D01*
X11478Y8296D01*
X11476Y8295D01*
X11474Y8294D01*
X11472Y8293D01*
X11470Y8292D01*
X11468Y8291D01*
X11466Y8290D01*
X11464Y8289D01*
X11462Y8288D01*
X11460Y8287D01*
X11458Y8286D01*
X11456Y8285D01*
X11454Y8284D01*
X11452Y8283D01*
X11450Y8282D01*
X11448Y8282D01*
X11446Y8281D01*
X11444Y8280D01*
X11442Y8279D01*
X11440Y8278D01*
X11438Y8278D01*
X11436Y8277D01*
X11434Y8276D01*
X11432Y8275D01*
X11430Y8275D01*
X11428Y8274D01*
X11425Y8273D01*
X11423Y8273D01*
X11421Y8272D01*
X11419Y8272D01*
X11417Y8271D01*
X11415Y8271D01*
X11413Y8270D01*
X11411Y8269D01*
X11408Y8269D01*
X11406Y8269D01*
X11404Y8268D01*
X11402Y8268D01*
X11400Y8267D01*
X11398Y8267D01*
X11396Y8266D01*
X11393Y8266D01*
X11391Y8266D01*
X11389Y8265D01*
X11387Y8265D01*
X11385Y8265D01*
X11383Y8264D01*
X11380Y8264D01*
X11378Y8264D01*
X11376Y8264D01*
X11374Y8264D01*
X11372Y8263D01*
X11369Y8263D01*
X11367Y8263D01*
X11365Y8263D01*
X11363Y8263D01*
X11361Y8263D01*
X11358Y8263D01*
X11356Y8263D01*
X11354Y8263D01*
X11352Y8263D01*
X11203D01*
Y8348D01*
X11203Y8348D01*
Y8515D01*
X11288D01*
Y8348D01*
X11288Y8348D01*
X11288Y8348D01*
X11288Y8348D01*
X11288Y8348D01*
X11352D01*
Y8348D01*
X11354Y8348D01*
X11355Y8348D01*
X11357Y8348D01*
X11359Y8348D01*
X11361Y8348D01*
X11363Y8348D01*
X11364Y8348D01*
X11366Y8348D01*
X11368Y8348D01*
X11370Y8349D01*
X11371Y8349D01*
X11373Y8349D01*
X11375Y8349D01*
X11377Y8350D01*
X11378Y8350D01*
X11380Y8350D01*
X11382Y8350D01*
X11384Y8351D01*
X11385Y8351D01*
X11387Y8351D01*
X11389Y8352D01*
X11391Y8352D01*
X11392Y8353D01*
X11394Y8353D01*
X11396Y8353D01*
X11397Y8354D01*
X11399Y8354D01*
X11401Y8355D01*
X11403Y8355D01*
X11404Y8356D01*
X11406Y8357D01*
X11408Y8357D01*
X11409Y8358D01*
X11411Y8358D01*
X11413Y8359D01*
X11414Y8360D01*
X11416Y8360D01*
X11418Y8361D01*
X11419Y8362D01*
X11421Y8362D01*
X11422Y8363D01*
X11424Y8364D01*
X11426Y8365D01*
X11427Y8365D01*
X11429Y8366D01*
X11430Y8367D01*
X11432Y8368D01*
X11433Y8369D01*
X11435Y8370D01*
X11437Y8370D01*
X11438Y8371D01*
X11440Y8372D01*
X11441Y8373D01*
X11443Y8374D01*
X11444Y8375D01*
X11446Y8376D01*
X11447Y8377D01*
X11449Y8378D01*
X11450Y8379D01*
X11451Y8380D01*
X11453Y8381D01*
X11454Y8382D01*
X11456Y8383D01*
X11457Y8384D01*
X11458Y8385D01*
X11460Y8387D01*
X11461Y8388D01*
X11463Y8389D01*
X11464Y8390D01*
X11465Y8391D01*
X11466Y8392D01*
X11468Y8394D01*
X11469Y8395D01*
X11470Y8396D01*
X11472Y8397D01*
X11473Y8399D01*
X11474Y8400D01*
X11475Y8401D01*
X11477Y8402D01*
X11478Y8404D01*
X11479Y8405D01*
X11480Y8406D01*
X11481Y8408D01*
X11482Y8409D01*
X11483Y8410D01*
X11485Y8412D01*
X11486Y8413D01*
X11487Y8415D01*
X11488Y8416D01*
X11489Y8417D01*
X11490Y8419D01*
X11491Y8420D01*
X11492Y8422D01*
X11493Y8423D01*
X11494Y8425D01*
X11495Y8426D01*
X11496Y8428D01*
X11497Y8429D01*
X11498Y8431D01*
X11498Y8432D01*
X11499Y8434D01*
X11500Y8435D01*
X11501Y8437D01*
X11502Y8439D01*
X11503Y8440D01*
X11504Y8442D01*
X11504Y8443D01*
X11505Y8445D01*
X11506Y8447D01*
X11507Y8448D01*
X11507Y8450D01*
X11508Y8451D01*
X11509Y8453D01*
X11509Y8455D01*
X11510Y8456D01*
X11511Y8458D01*
X11511Y8460D01*
X11512Y8461D01*
X11512Y8463D01*
X11513Y8465D01*
X11513Y8466D01*
X11514Y8468D01*
X11514Y8470D01*
X11515Y8471D01*
X11515Y8473D01*
X11516Y8475D01*
X11516Y8477D01*
X11517Y8478D01*
X11517Y8480D01*
X11517Y8482D01*
X11518Y8484D01*
X11518Y8485D01*
X11518Y8487D01*
X11519Y8489D01*
X11519Y8490D01*
X11519Y8492D01*
X11520Y8494D01*
X11520Y8496D01*
X11520Y8498D01*
X11520Y8499D01*
X11520Y8501D01*
X11521Y8503D01*
X11521Y8505D01*
X11521Y8506D01*
X11521Y8508D01*
X11521Y8510D01*
X11521Y8512D01*
X11521Y8513D01*
X11521Y8515D01*
X11521Y8517D01*
X11521D01*
Y8517D01*
X11521D01*
X11521Y8518D01*
X11521Y8520D01*
X11521Y8522D01*
X11521Y8524D01*
X11521Y8525D01*
X11521Y8527D01*
X11521Y8529D01*
X11521Y8531D01*
X11520Y8533D01*
X11520Y8534D01*
X11520Y8536D01*
X11520Y8538D01*
X11520Y8540D01*
X11519Y8541D01*
X11519Y8543D01*
X11519Y8545D01*
X11518Y8547D01*
X11518Y8548D01*
X11518Y8550D01*
X11517Y8552D01*
X11517Y8553D01*
X11517Y8555D01*
X11516Y8557D01*
X11516Y8559D01*
X11515Y8560D01*
X11515Y8562D01*
X11514Y8564D01*
X11514Y8565D01*
X11513Y8567D01*
X11513Y8569D01*
X11512Y8571D01*
X11512Y8572D01*
X11511Y8574D01*
X11511Y8576D01*
X11510Y8577D01*
X11509Y8579D01*
X11509Y8581D01*
X11508Y8582D01*
X11507Y8584D01*
X11507Y8585D01*
X11506Y8587D01*
X11505Y8589D01*
X11504Y8590D01*
X11504Y8592D01*
X11503Y8593D01*
X11502Y8595D01*
X11501Y8597D01*
X11500Y8598D01*
X11499Y8600D01*
X11498Y8601D01*
X11498Y8603D01*
X11497Y8604D01*
X11496Y8606D01*
X11495Y8607D01*
X11494Y8609D01*
X11493Y8610D01*
X11492Y8612D01*
X11491Y8613D01*
X11490Y8615D01*
X11489Y8616D01*
X11488Y8617D01*
X11487Y8619D01*
X11486Y8620D01*
X11485Y8622D01*
X11483Y8623D01*
X11482Y8624D01*
X11481Y8626D01*
X11480Y8627D01*
X11479Y8628D01*
X11478Y8630D01*
X11477Y8631D01*
X11475Y8632D01*
X11474Y8634D01*
X11473Y8635D01*
X11472Y8636D01*
X11470Y8637D01*
X11469Y8639D01*
X11468Y8640D01*
X11466Y8641D01*
X11465Y8642D01*
X11464Y8644D01*
X11463Y8645D01*
X11461Y8646D01*
X11460Y8647D01*
X11458Y8648D01*
X11457Y8649D01*
X11456Y8650D01*
X11454Y8651D01*
X11453Y8652D01*
X11451Y8653D01*
X11450Y8655D01*
X11449Y8656D01*
X11447Y8657D01*
X11446Y8658D01*
X11444Y8658D01*
X11443Y8659D01*
X11441Y8660D01*
X11440Y8661D01*
X11438Y8662D01*
X11437Y8663D01*
X11435Y8664D01*
X11433Y8665D01*
X11432Y8666D01*
X11430Y8667D01*
X11429Y8667D01*
X11427Y8668D01*
X11426Y8669D01*
X11424Y8670D01*
X11422Y8670D01*
X11421Y8671D01*
X11419Y8672D01*
X11418Y8673D01*
X11416Y8673D01*
X11414Y8674D01*
X11413Y8675D01*
X11411Y8675D01*
X11409Y8676D01*
X11408Y8676D01*
X11406Y8677D01*
X11404Y8678D01*
X11403Y8678D01*
X11401Y8679D01*
X11399Y8679D01*
X11397Y8680D01*
X11396Y8680D01*
X11394Y8680D01*
X11392Y8681D01*
X11391Y8681D01*
X11389Y8682D01*
X11387Y8682D01*
X11385Y8682D01*
X11384Y8683D01*
X11382Y8683D01*
X11380Y8683D01*
X11378Y8684D01*
X11377Y8684D01*
X11375Y8684D01*
X11373Y8684D01*
X11371Y8685D01*
X11370Y8685D01*
X11368Y8685D01*
X11366Y8685D01*
X11364Y8685D01*
X11363Y8685D01*
X11361Y8686D01*
X11359Y8686D01*
X11357Y8686D01*
X11355Y8686D01*
X11354Y8686D01*
X11352Y8686D01*
Y8686D01*
X11216D01*
Y8771D01*
X11352D01*
X11354Y8771D01*
D02*
G37*
G36*
X7925Y11065D02*
X7926D01*
X7927Y11065D01*
X7928Y11065D01*
X7930Y11064D01*
X7931Y11064D01*
X7933Y11063D01*
X7933D01*
X7933Y11063D01*
X7934Y11063D01*
X7934Y11062D01*
X7935Y11061D01*
X7936Y11061D01*
X7937Y11060D01*
X7938Y11058D01*
X7939Y11057D01*
Y11057D01*
X7939Y11057D01*
X7940Y11057D01*
X7940Y11056D01*
X7940Y11055D01*
X7941Y11054D01*
X7941Y11053D01*
X7942Y11051D01*
X7943Y11049D01*
X7943Y11047D01*
Y11047D01*
X7943Y11047D01*
X7943Y11047D01*
X7943Y11046D01*
X7944Y11046D01*
X7944Y11045D01*
X7944Y11044D01*
X7944Y11043D01*
X7944Y11042D01*
X7944Y11041D01*
X7944Y11040D01*
X7944Y11039D01*
X7945Y11037D01*
X7945Y11036D01*
X7945Y11034D01*
Y11032D01*
Y11032D01*
Y11032D01*
Y11031D01*
Y11030D01*
X7945Y11030D01*
Y11028D01*
X7945Y11027D01*
X7944Y11026D01*
X7944Y11023D01*
X7944Y11020D01*
X7943Y11017D01*
X7943Y11015D01*
X7942Y11014D01*
Y11014D01*
X7942Y11014D01*
X7942Y11013D01*
X7942Y11013D01*
X7942Y11012D01*
X7941Y11012D01*
X7941Y11010D01*
X7940Y11008D01*
X7938Y11007D01*
X7937Y11005D01*
X7935Y11003D01*
X7935D01*
X7935Y11003D01*
X7935Y11003D01*
X7935Y11003D01*
X7934Y11003D01*
X7934Y11002D01*
X7933Y11002D01*
X7932Y11002D01*
X7931Y11001D01*
X7929Y11000D01*
X7926Y11000D01*
X7925Y11000D01*
X7924Y11000D01*
X7923D01*
X7923Y11000D01*
X7922D01*
X7921Y11000D01*
X7921Y11000D01*
X7920Y11000D01*
X7919Y11001D01*
X7917Y11001D01*
X7916Y11001D01*
X7915Y11002D01*
X7914Y11002D01*
X7913Y11003D01*
X7911Y11004D01*
X7910Y11005D01*
X7909Y11006D01*
X7909Y11006D01*
X7909Y11007D01*
X7909Y11007D01*
X7908Y11008D01*
X7908Y11009D01*
X7907Y11010D01*
X7907Y11011D01*
X7906Y11013D01*
X7906Y11014D01*
X7905Y11016D01*
X7904Y11018D01*
X7904Y11021D01*
X7904Y11023D01*
X7903Y11026D01*
X7903Y11029D01*
X7903Y11032D01*
Y11033D01*
Y11033D01*
Y11033D01*
Y11034D01*
X7903Y11035D01*
X7903Y11036D01*
Y11038D01*
X7903Y11039D01*
X7904Y11042D01*
X7904Y11045D01*
X7905Y11048D01*
X7905Y11049D01*
X7905Y11051D01*
Y11051D01*
X7905Y11051D01*
X7906Y11051D01*
X7906Y11052D01*
X7906Y11052D01*
X7906Y11053D01*
X7907Y11055D01*
X7908Y11056D01*
X7909Y11058D01*
X7911Y11060D01*
X7912Y11061D01*
X7912Y11061D01*
X7912Y11061D01*
X7913Y11062D01*
X7913Y11062D01*
X7913Y11062D01*
X7914Y11062D01*
X7915Y11063D01*
X7915Y11063D01*
X7917Y11064D01*
X7919Y11064D01*
X7921Y11065D01*
X7923Y11065D01*
X7925D01*
X7925Y11065D01*
D02*
G37*
G36*
X8768Y11408D02*
X8771Y11408D01*
X8774Y11408D01*
X8777Y11407D01*
X8780Y11407D01*
X8783Y11406D01*
X8783D01*
X8783Y11406D01*
X8784Y11405D01*
X8785Y11405D01*
X8787Y11404D01*
X8789Y11403D01*
X8791Y11402D01*
X8792Y11400D01*
X8794Y11399D01*
X8794Y11399D01*
X8794Y11398D01*
X8795Y11397D01*
X8796Y11396D01*
X8797Y11394D01*
X8797Y11393D01*
X8798Y11391D01*
X8799Y11388D01*
Y11388D01*
X8799Y11388D01*
X8799Y11387D01*
X8799Y11385D01*
Y11383D01*
X8799Y11381D01*
X8800Y11378D01*
Y11374D01*
Y11353D01*
Y11353D01*
Y11353D01*
Y11352D01*
Y11350D01*
Y11348D01*
Y11346D01*
Y11344D01*
X8800Y11342D01*
Y11337D01*
X8800Y11333D01*
X8800Y11331D01*
Y11329D01*
X8800Y11328D01*
X8800Y11326D01*
Y11326D01*
X8801Y11325D01*
X8801Y11324D01*
X8801Y11323D01*
X8802Y11321D01*
X8803Y11319D01*
X8803Y11317D01*
X8804Y11315D01*
X8788D01*
X8788Y11315D01*
X8788Y11316D01*
X8787Y11317D01*
X8787Y11319D01*
X8786Y11320D01*
X8786Y11322D01*
X8785Y11324D01*
X8785Y11327D01*
X8785D01*
X8785Y11326D01*
X8784Y11326D01*
X8784Y11326D01*
X8782Y11324D01*
X8780Y11323D01*
X8777Y11321D01*
X8775Y11319D01*
X8771Y11318D01*
X8768Y11316D01*
X8768D01*
X8768Y11316D01*
X8768Y11316D01*
X8767Y11316D01*
X8766Y11315D01*
X8763Y11315D01*
X8761Y11314D01*
X8758Y11314D01*
X8755Y11314D01*
X8752Y11313D01*
X8750D01*
X8749Y11314D01*
X8748D01*
X8746Y11314D01*
X8743Y11314D01*
X8739Y11315D01*
X8736Y11316D01*
X8732Y11318D01*
X8730Y11319D01*
X8728Y11321D01*
X8728Y11321D01*
X8728Y11321D01*
X8727Y11322D01*
X8726Y11324D01*
X8725Y11326D01*
X8723Y11328D01*
X8722Y11332D01*
X8721Y11335D01*
X8721Y11337D01*
X8720Y11339D01*
Y11340D01*
Y11340D01*
X8721Y11342D01*
X8721Y11343D01*
X8721Y11345D01*
X8722Y11347D01*
X8722Y11349D01*
X8723Y11352D01*
X8724Y11352D01*
X8724Y11353D01*
X8725Y11353D01*
X8726Y11355D01*
X8727Y11356D01*
X8728Y11358D01*
X8730Y11359D01*
X8731Y11360D01*
X8732Y11361D01*
X8732Y11361D01*
X8733Y11362D01*
X8735Y11362D01*
X8736Y11363D01*
X8738Y11364D01*
X8740Y11365D01*
X8743Y11365D01*
X8743D01*
X8743Y11366D01*
X8745Y11366D01*
X8746Y11366D01*
X8748Y11367D01*
X8750Y11367D01*
X8753Y11367D01*
X8756Y11368D01*
X8756D01*
X8757Y11368D01*
X8758D01*
X8759Y11368D01*
X8761Y11368D01*
X8763Y11369D01*
X8765Y11369D01*
X8767Y11369D01*
X8771Y11370D01*
X8776Y11371D01*
X8780Y11372D01*
X8782Y11373D01*
X8784Y11373D01*
Y11373D01*
Y11374D01*
Y11374D01*
X8784Y11375D01*
Y11376D01*
Y11377D01*
Y11377D01*
Y11377D01*
Y11378D01*
Y11378D01*
Y11379D01*
X8784Y11380D01*
X8784Y11382D01*
X8783Y11385D01*
X8782Y11387D01*
X8781Y11389D01*
X8780Y11391D01*
X8779Y11391D01*
X8778Y11391D01*
X8777Y11392D01*
X8775Y11393D01*
X8773Y11394D01*
X8770Y11395D01*
X8766Y11396D01*
X8762Y11396D01*
X8760D01*
X8758Y11396D01*
X8756Y11395D01*
X8753Y11395D01*
X8750Y11394D01*
X8748Y11393D01*
X8746Y11392D01*
X8746Y11392D01*
X8745Y11391D01*
X8744Y11390D01*
X8743Y11389D01*
X8742Y11387D01*
X8740Y11385D01*
X8739Y11382D01*
X8738Y11378D01*
X8723Y11381D01*
Y11381D01*
X8723Y11381D01*
Y11382D01*
X8723Y11382D01*
X8724Y11384D01*
X8725Y11386D01*
X8726Y11389D01*
X8727Y11391D01*
X8728Y11394D01*
X8730Y11396D01*
X8730Y11396D01*
X8731Y11397D01*
X8732Y11398D01*
X8733Y11400D01*
X8735Y11401D01*
X8737Y11402D01*
X8740Y11404D01*
X8743Y11405D01*
X8744D01*
X8744Y11405D01*
X8744Y11406D01*
X8745Y11406D01*
X8746Y11406D01*
X8747Y11406D01*
X8749Y11407D01*
X8752Y11408D01*
X8756Y11408D01*
X8760Y11408D01*
X8764Y11409D01*
X8767D01*
X8768Y11408D01*
D02*
G37*
G36*
X8903D02*
X8904Y11408D01*
X8906Y11408D01*
X8908Y11408D01*
X8910Y11407D01*
X8913Y11406D01*
X8915Y11405D01*
X8918Y11404D01*
X8920Y11403D01*
X8923Y11402D01*
X8925Y11400D01*
X8928Y11398D01*
X8930Y11396D01*
X8930Y11396D01*
X8930Y11395D01*
X8931Y11395D01*
X8932Y11394D01*
X8932Y11392D01*
X8933Y11391D01*
X8935Y11389D01*
X8936Y11387D01*
X8937Y11385D01*
X8938Y11382D01*
X8939Y11379D01*
X8940Y11376D01*
X8940Y11373D01*
X8941Y11369D01*
X8941Y11365D01*
X8941Y11361D01*
Y11361D01*
Y11360D01*
Y11359D01*
X8941Y11357D01*
X8873D01*
Y11357D01*
Y11356D01*
X8873Y11355D01*
X8874Y11354D01*
X8874Y11353D01*
X8874Y11352D01*
X8875Y11348D01*
X8876Y11345D01*
X8877Y11341D01*
X8879Y11337D01*
X8880Y11336D01*
X8882Y11334D01*
X8882Y11334D01*
X8882Y11334D01*
X8882Y11333D01*
X8883Y11333D01*
X8885Y11332D01*
X8887Y11330D01*
X8890Y11329D01*
X8893Y11327D01*
X8897Y11326D01*
X8899Y11326D01*
X8901Y11326D01*
X8902D01*
X8904Y11326D01*
X8906Y11327D01*
X8908Y11327D01*
X8910Y11328D01*
X8913Y11329D01*
X8915Y11331D01*
X8916Y11331D01*
X8916Y11331D01*
X8917Y11333D01*
X8919Y11334D01*
X8920Y11336D01*
X8922Y11339D01*
X8923Y11342D01*
X8925Y11345D01*
X8941Y11343D01*
Y11343D01*
X8941Y11342D01*
X8940Y11342D01*
X8940Y11341D01*
X8940Y11339D01*
X8939Y11338D01*
X8938Y11335D01*
X8936Y11331D01*
X8933Y11328D01*
X8930Y11324D01*
X8927Y11321D01*
X8927D01*
X8926Y11321D01*
X8926Y11320D01*
X8925Y11320D01*
X8924Y11319D01*
X8923Y11319D01*
X8921Y11318D01*
X8920Y11317D01*
X8918Y11316D01*
X8916Y11316D01*
X8914Y11315D01*
X8912Y11315D01*
X8907Y11314D01*
X8904Y11314D01*
X8901Y11313D01*
X8900D01*
X8899Y11314D01*
X8898D01*
X8896Y11314D01*
X8894Y11314D01*
X8892Y11314D01*
X8889Y11315D01*
X8887Y11315D01*
X8884Y11316D01*
X8882Y11317D01*
X8879Y11319D01*
X8876Y11320D01*
X8874Y11322D01*
X8871Y11324D01*
X8869Y11326D01*
X8869Y11326D01*
X8869Y11326D01*
X8868Y11327D01*
X8867Y11328D01*
X8866Y11329D01*
X8865Y11331D01*
X8864Y11333D01*
X8863Y11334D01*
X8862Y11337D01*
X8861Y11339D01*
X8860Y11342D01*
X8859Y11345D01*
X8859Y11349D01*
X8858Y11352D01*
X8858Y11356D01*
X8857Y11360D01*
Y11360D01*
Y11361D01*
X8858Y11362D01*
Y11364D01*
X8858Y11366D01*
X8858Y11368D01*
X8858Y11371D01*
X8859Y11373D01*
X8860Y11376D01*
X8860Y11379D01*
X8861Y11382D01*
X8862Y11385D01*
X8864Y11388D01*
X8865Y11391D01*
X8867Y11393D01*
X8869Y11396D01*
X8869Y11396D01*
X8870Y11396D01*
X8870Y11397D01*
X8871Y11398D01*
X8872Y11399D01*
X8874Y11400D01*
X8876Y11401D01*
X8877Y11402D01*
X8880Y11403D01*
X8882Y11404D01*
X8884Y11406D01*
X8887Y11407D01*
X8890Y11407D01*
X8893Y11408D01*
X8896Y11408D01*
X8900Y11409D01*
X8902D01*
X8903Y11408D01*
D02*
G37*
G36*
X8839Y11315D02*
X8823D01*
Y11441D01*
X8839D01*
Y11315D01*
D02*
G37*
G36*
X7875Y11065D02*
X7876D01*
X7877Y11065D01*
X7879Y11065D01*
X7880Y11064D01*
X7882Y11064D01*
X7883Y11063D01*
X7883D01*
X7883Y11063D01*
X7884Y11063D01*
X7884Y11062D01*
X7885Y11061D01*
X7886Y11061D01*
X7887Y11060D01*
X7889Y11058D01*
X7890Y11057D01*
Y11057D01*
X7890Y11057D01*
X7890Y11057D01*
X7890Y11056D01*
X7890Y11055D01*
X7891Y11054D01*
X7892Y11053D01*
X7892Y11051D01*
X7893Y11049D01*
X7893Y11047D01*
Y11047D01*
X7894Y11047D01*
X7894Y11047D01*
X7894Y11046D01*
X7894Y11046D01*
X7894Y11045D01*
X7894Y11044D01*
X7894Y11043D01*
X7894Y11042D01*
X7894Y11041D01*
X7895Y11040D01*
X7895Y11039D01*
X7895Y11037D01*
X7895Y11036D01*
X7895Y11034D01*
Y11032D01*
Y11032D01*
Y11032D01*
Y11031D01*
Y11030D01*
X7895Y11030D01*
Y11028D01*
X7895Y11027D01*
X7895Y11026D01*
X7894Y11023D01*
X7894Y11020D01*
X7893Y11017D01*
X7893Y11015D01*
X7893Y11014D01*
Y11014D01*
X7893Y11014D01*
X7892Y11013D01*
X7892Y11013D01*
X7892Y11012D01*
X7892Y11012D01*
X7891Y11010D01*
X7890Y11008D01*
X7889Y11007D01*
X7887Y11005D01*
X7886Y11003D01*
X7886D01*
X7885Y11003D01*
X7885Y11003D01*
X7885Y11003D01*
X7884Y11003D01*
X7884Y11002D01*
X7883Y11002D01*
X7882Y11002D01*
X7881Y11001D01*
X7879Y11000D01*
X7877Y11000D01*
X7875Y11000D01*
X7874Y11000D01*
X7874D01*
X7873Y11000D01*
X7873D01*
X7872Y11000D01*
X7871Y11000D01*
X7870Y11000D01*
X7869Y11001D01*
X7868Y11001D01*
X7866Y11001D01*
X7865Y11002D01*
X7864Y11002D01*
X7863Y11003D01*
X7862Y11004D01*
X7861Y11005D01*
X7859Y11006D01*
X7859Y11006D01*
X7859Y11007D01*
X7859Y11007D01*
X7858Y11008D01*
X7858Y11009D01*
X7857Y11010D01*
X7857Y11011D01*
X7856Y11013D01*
X7856Y11014D01*
X7855Y11016D01*
X7855Y11018D01*
X7854Y11021D01*
X7854Y11023D01*
X7853Y11026D01*
X7853Y11029D01*
X7853Y11032D01*
Y11033D01*
Y11033D01*
Y11033D01*
Y11034D01*
X7853Y11035D01*
X7853Y11036D01*
Y11038D01*
X7854Y11039D01*
X7854Y11042D01*
X7854Y11045D01*
X7855Y11048D01*
X7855Y11049D01*
X7856Y11051D01*
Y11051D01*
X7856Y11051D01*
X7856Y11051D01*
X7856Y11052D01*
X7856Y11052D01*
X7857Y11053D01*
X7857Y11055D01*
X7858Y11056D01*
X7859Y11058D01*
X7861Y11060D01*
X7862Y11061D01*
X7863Y11061D01*
X7863Y11061D01*
X7863Y11062D01*
X7863Y11062D01*
X7864Y11062D01*
X7864Y11062D01*
X7865Y11063D01*
X7866Y11063D01*
X7867Y11064D01*
X7869Y11064D01*
X7872Y11065D01*
X7873Y11065D01*
X7875D01*
X7875Y11065D01*
D02*
G37*
G36*
X8701Y11315D02*
X8685D01*
Y11421D01*
X8648Y11315D01*
X8633D01*
X8597Y11423D01*
Y11315D01*
X8581D01*
Y11441D01*
X8605D01*
X8635Y11352D01*
Y11352D01*
X8635Y11352D01*
X8636Y11351D01*
X8636Y11350D01*
X8636Y11349D01*
X8637Y11348D01*
X8638Y11345D01*
X8639Y11342D01*
X8640Y11339D01*
X8641Y11336D01*
X8641Y11333D01*
X8641Y11334D01*
X8642Y11335D01*
X8642Y11336D01*
X8643Y11338D01*
X8644Y11341D01*
X8645Y11345D01*
X8646Y11349D01*
X8648Y11354D01*
X8678Y11441D01*
X8701D01*
Y11315D01*
D02*
G37*
G36*
X10936Y13454D02*
X10936D01*
X10937Y13454D01*
X10938Y13454D01*
X10940Y13453D01*
X10942Y13453D01*
X10944Y13452D01*
X10946Y13451D01*
X10946D01*
X10946Y13450D01*
X10946Y13450D01*
X10947Y13450D01*
X10948Y13449D01*
X10949Y13448D01*
X10950Y13447D01*
X10951Y13445D01*
X10953Y13443D01*
X10954Y13441D01*
Y13441D01*
X10954Y13441D01*
X10954Y13440D01*
X10954Y13440D01*
X10954Y13439D01*
X10955Y13438D01*
X10955Y13437D01*
X10955Y13436D01*
X10955Y13435D01*
X10956Y13434D01*
X10956Y13432D01*
X10956Y13431D01*
X10956Y13429D01*
X10956Y13427D01*
X10957Y13425D01*
Y13423D01*
Y13423D01*
Y13422D01*
Y13422D01*
Y13421D01*
X10956Y13420D01*
X10956Y13419D01*
X10956Y13417D01*
X10956Y13416D01*
X10956Y13414D01*
X10956Y13413D01*
X10955Y13409D01*
X10955Y13406D01*
X10954Y13405D01*
X10954Y13403D01*
Y13403D01*
X10954Y13403D01*
X10954Y13403D01*
X10953Y13402D01*
X10953Y13402D01*
X10953Y13401D01*
X10952Y13399D01*
X10951Y13397D01*
X10949Y13396D01*
X10948Y13394D01*
X10946Y13392D01*
X10946D01*
X10946Y13392D01*
X10945Y13392D01*
X10945Y13392D01*
X10944Y13391D01*
X10944Y13391D01*
X10943Y13391D01*
X10942Y13390D01*
X10941Y13390D01*
X10938Y13389D01*
X10936Y13389D01*
X10935Y13389D01*
X10934Y13389D01*
X10933D01*
X10932Y13389D01*
X10932Y13389D01*
X10931Y13389D01*
X10930Y13389D01*
X10929Y13389D01*
X10927Y13390D01*
X10925Y13390D01*
X10924Y13391D01*
X10923Y13391D01*
X10922Y13392D01*
X10921Y13393D01*
X10921Y13393D01*
X10921Y13393D01*
X10921Y13393D01*
X10921Y13393D01*
X10920Y13394D01*
X10920Y13394D01*
X10919Y13395D01*
X10919Y13396D01*
X10918Y13397D01*
X10918Y13397D01*
X10917Y13398D01*
X10917Y13399D01*
X10916Y13401D01*
X10916Y13402D01*
X10916Y13403D01*
X10916Y13404D01*
X10923Y13405D01*
Y13405D01*
X10923Y13405D01*
Y13405D01*
X10923Y13404D01*
X10924Y13403D01*
X10924Y13402D01*
X10924Y13401D01*
X10925Y13400D01*
X10926Y13398D01*
X10927Y13397D01*
X10927Y13397D01*
X10927Y13397D01*
X10928Y13397D01*
X10929Y13396D01*
X10930Y13396D01*
X10931Y13395D01*
X10932Y13395D01*
X10934Y13395D01*
X10934D01*
X10935Y13395D01*
X10936Y13395D01*
X10937Y13395D01*
X10938Y13396D01*
X10939Y13396D01*
X10940Y13397D01*
X10940Y13397D01*
X10941Y13397D01*
X10941Y13397D01*
X10942Y13398D01*
X10942Y13398D01*
X10943Y13399D01*
X10944Y13400D01*
X10945Y13401D01*
X10945Y13401D01*
X10945Y13402D01*
X10945Y13402D01*
X10946Y13403D01*
X10946Y13404D01*
X10947Y13405D01*
X10947Y13407D01*
X10948Y13409D01*
Y13409D01*
X10948Y13409D01*
Y13409D01*
X10948Y13409D01*
X10948Y13410D01*
X10948Y13410D01*
X10948Y13412D01*
X10948Y13413D01*
X10949Y13415D01*
X10949Y13416D01*
X10949Y13418D01*
Y13418D01*
Y13419D01*
Y13419D01*
Y13420D01*
X10949Y13420D01*
X10948Y13419D01*
X10948Y13418D01*
X10947Y13418D01*
X10946Y13417D01*
X10945Y13416D01*
X10944Y13415D01*
X10942Y13414D01*
X10942D01*
X10942Y13414D01*
X10942Y13413D01*
X10941Y13413D01*
X10941Y13413D01*
X10940Y13413D01*
X10938Y13412D01*
X10937Y13412D01*
X10935Y13411D01*
X10933Y13411D01*
X10933D01*
X10932Y13411D01*
X10931Y13412D01*
X10931Y13412D01*
X10930Y13412D01*
X10929Y13412D01*
X10928Y13412D01*
X10927Y13413D01*
X10926Y13413D01*
X10924Y13414D01*
X10923Y13414D01*
X10922Y13415D01*
X10921Y13416D01*
X10920Y13417D01*
X10920Y13417D01*
X10920Y13417D01*
X10919Y13418D01*
X10919Y13418D01*
X10919Y13419D01*
X10918Y13419D01*
X10918Y13420D01*
X10917Y13421D01*
X10917Y13422D01*
X10916Y13423D01*
X10916Y13425D01*
X10915Y13426D01*
X10915Y13427D01*
X10915Y13429D01*
X10915Y13431D01*
X10914Y13432D01*
Y13432D01*
Y13433D01*
Y13433D01*
X10915Y13434D01*
X10915Y13435D01*
X10915Y13436D01*
X10915Y13437D01*
X10915Y13438D01*
X10916Y13440D01*
X10916Y13442D01*
X10917Y13443D01*
X10918Y13444D01*
X10918Y13446D01*
X10919Y13447D01*
X10920Y13448D01*
X10920Y13448D01*
X10920Y13448D01*
X10921Y13449D01*
X10921Y13449D01*
X10922Y13449D01*
X10922Y13450D01*
X10923Y13450D01*
X10924Y13451D01*
X10925Y13452D01*
X10926Y13452D01*
X10927Y13453D01*
X10929Y13453D01*
X10930Y13453D01*
X10931Y13454D01*
X10933Y13454D01*
X10935Y13454D01*
X10935D01*
X10936Y13454D01*
D02*
G37*
G36*
X11037D02*
X11037Y13454D01*
X11038Y13454D01*
X11039Y13454D01*
X11040Y13453D01*
X11043Y13453D01*
X11044Y13452D01*
X11045Y13452D01*
X11046Y13451D01*
X11048Y13450D01*
X11049Y13450D01*
X11050Y13449D01*
X11050Y13449D01*
X11050Y13449D01*
X11050Y13448D01*
X11051Y13448D01*
X11051Y13447D01*
X11051Y13447D01*
X11052Y13446D01*
X11052Y13445D01*
X11053Y13444D01*
X11053Y13443D01*
X11054Y13441D01*
X11055Y13440D01*
X11055Y13439D01*
X11055Y13438D01*
X11055Y13436D01*
Y13436D01*
Y13435D01*
X11055Y13435D01*
X11055Y13434D01*
X11055Y13433D01*
X11054Y13431D01*
X11054Y13430D01*
X11054Y13429D01*
X11053Y13428D01*
X11053Y13428D01*
X11053Y13427D01*
X11052Y13426D01*
X11052Y13425D01*
X11051Y13424D01*
X11050Y13422D01*
X11048Y13421D01*
Y13421D01*
X11048Y13421D01*
X11048Y13420D01*
X11048Y13420D01*
X11047Y13420D01*
X11047Y13419D01*
X11046Y13418D01*
X11045Y13418D01*
X11045Y13417D01*
X11044Y13416D01*
X11043Y13415D01*
X11042Y13414D01*
X11040Y13413D01*
X11039Y13412D01*
X11038Y13411D01*
X11036Y13409D01*
X11036Y13409D01*
X11036Y13409D01*
X11035Y13409D01*
X11035Y13409D01*
X11034Y13408D01*
X11034Y13407D01*
X11032Y13406D01*
X11031Y13405D01*
X11029Y13404D01*
X11029Y13403D01*
X11028Y13402D01*
X11027Y13402D01*
X11027Y13401D01*
X11027Y13401D01*
X11027Y13401D01*
X11026Y13401D01*
X11026Y13400D01*
X11025Y13399D01*
X11025Y13399D01*
X11024Y13397D01*
X11055D01*
Y13390D01*
X11013D01*
Y13390D01*
Y13390D01*
Y13391D01*
X11013Y13391D01*
X11013Y13392D01*
X11013Y13393D01*
X11013Y13394D01*
X11014Y13395D01*
Y13395D01*
X11014Y13395D01*
X11014Y13395D01*
X11014Y13396D01*
X11014Y13397D01*
X11015Y13398D01*
X11016Y13399D01*
X11017Y13400D01*
X11018Y13402D01*
X11019Y13404D01*
X11019Y13404D01*
X11019Y13404D01*
X11019Y13404D01*
X11020Y13404D01*
X11020Y13405D01*
X11022Y13406D01*
X11023Y13408D01*
X11025Y13409D01*
X11027Y13411D01*
X11029Y13413D01*
X11029Y13413D01*
X11030Y13414D01*
X11030Y13414D01*
X11031Y13415D01*
X11032Y13415D01*
X11033Y13416D01*
X11034Y13417D01*
X11035Y13418D01*
X11037Y13420D01*
X11040Y13423D01*
X11041Y13424D01*
X11042Y13425D01*
X11043Y13426D01*
X11043Y13427D01*
X11043Y13427D01*
X11043Y13427D01*
X11044Y13427D01*
X11044Y13428D01*
X11044Y13428D01*
X11044Y13429D01*
X11045Y13430D01*
X11046Y13431D01*
X11046Y13433D01*
X11047Y13435D01*
X11047Y13436D01*
Y13436D01*
Y13436D01*
Y13437D01*
Y13437D01*
X11047Y13437D01*
X11047Y13438D01*
X11047Y13439D01*
X11046Y13440D01*
X11046Y13442D01*
X11045Y13443D01*
X11044Y13444D01*
X11043Y13444D01*
X11043Y13445D01*
X11042Y13445D01*
X11041Y13446D01*
X11040Y13446D01*
X11039Y13447D01*
X11037Y13447D01*
X11035Y13447D01*
X11034D01*
X11034Y13447D01*
X11033D01*
X11033Y13447D01*
X11032Y13447D01*
X11030Y13447D01*
X11029Y13446D01*
X11027Y13445D01*
X11026Y13444D01*
X11026Y13444D01*
X11025Y13443D01*
X11025Y13443D01*
X11024Y13442D01*
X11023Y13440D01*
X11023Y13439D01*
X11023Y13437D01*
X11022Y13435D01*
X11014Y13435D01*
Y13436D01*
X11014Y13436D01*
Y13436D01*
X11014Y13437D01*
X11015Y13438D01*
X11015Y13439D01*
X11015Y13440D01*
X11015Y13441D01*
X11016Y13443D01*
X11017Y13444D01*
X11017Y13445D01*
X11018Y13446D01*
X11019Y13447D01*
X11019Y13448D01*
X11020Y13449D01*
X11021Y13449D01*
X11021Y13449D01*
X11021Y13450D01*
X11021Y13450D01*
X11022Y13450D01*
X11023Y13451D01*
X11023Y13451D01*
X11024Y13452D01*
X11025Y13452D01*
X11026Y13452D01*
X11028Y13453D01*
X11029Y13453D01*
X11030Y13454D01*
X11032Y13454D01*
X11033Y13454D01*
X11035Y13454D01*
X11036D01*
X11037Y13454D01*
D02*
G37*
G36*
X10994Y13390D02*
X10986D01*
Y13440D01*
X10986Y13440D01*
X10985Y13439D01*
X10985Y13439D01*
X10984Y13438D01*
X10983Y13437D01*
X10982Y13436D01*
X10980Y13435D01*
X10978Y13434D01*
X10978D01*
X10978Y13434D01*
X10978Y13434D01*
X10978Y13434D01*
X10977Y13433D01*
X10976Y13433D01*
X10974Y13432D01*
X10973Y13431D01*
X10972Y13431D01*
X10970Y13430D01*
Y13438D01*
X10970D01*
X10971Y13438D01*
X10971Y13438D01*
X10971Y13438D01*
X10972Y13439D01*
X10973Y13439D01*
X10974Y13440D01*
X10976Y13441D01*
X10978Y13442D01*
X10980Y13444D01*
X10982Y13445D01*
X10982Y13445D01*
X10982Y13446D01*
X10982Y13446D01*
X10983Y13446D01*
X10983Y13447D01*
X10984Y13448D01*
X10986Y13449D01*
X10987Y13451D01*
X10988Y13452D01*
X10989Y13454D01*
X10994D01*
Y13390D01*
D02*
G37*
G36*
X11842Y15585D02*
X11843Y15585D01*
X11843Y15585D01*
X11844Y15585D01*
X11845Y15585D01*
X11845Y15585D01*
X11846Y15585D01*
X11847Y15585D01*
X11847Y15585D01*
X11848Y15585D01*
X11849Y15585D01*
X11849Y15585D01*
X11850Y15584D01*
X11851Y15584D01*
X11851Y15584D01*
X11852Y15584D01*
X11853Y15584D01*
X11853Y15584D01*
X11854Y15584D01*
X11855Y15584D01*
X11855Y15584D01*
X11856Y15583D01*
X11857Y15583D01*
X11857Y15583D01*
X11858Y15583D01*
X11859Y15583D01*
X11859Y15583D01*
X11860Y15582D01*
X11860Y15582D01*
X11861Y15582D01*
X11862Y15582D01*
X11862Y15581D01*
X11863Y15581D01*
X11864Y15581D01*
X11864Y15581D01*
X11865Y15581D01*
X11865Y15580D01*
X11866Y15580D01*
X11867Y15580D01*
X11867Y15580D01*
X11868Y15579D01*
X11869Y15579D01*
X11869Y15579D01*
X11870Y15578D01*
X11870Y15578D01*
X11871Y15578D01*
X11871Y15577D01*
X11872Y15577D01*
X11873Y15577D01*
X11873Y15577D01*
X11874Y15576D01*
X11874Y15576D01*
X11875Y15576D01*
X11875Y15575D01*
X11876Y15575D01*
X11877Y15574D01*
X11877Y15574D01*
X11878Y15574D01*
X11878Y15573D01*
X11879Y15573D01*
X11879Y15573D01*
X11880Y15572D01*
X11880Y15572D01*
X11881Y15571D01*
X11881Y15571D01*
X11882Y15570D01*
X11882Y15570D01*
X11883Y15570D01*
X11883Y15569D01*
X11884Y15569D01*
X11884Y15568D01*
X11885Y15568D01*
X11885Y15567D01*
X11886Y15567D01*
X11886Y15566D01*
X11887Y15566D01*
X11887Y15565D01*
X11888Y15565D01*
X11888Y15565D01*
X11889Y15564D01*
X11889Y15564D01*
X11890Y15563D01*
X11890Y15563D01*
X11890Y15562D01*
X11891Y15561D01*
X11891Y15561D01*
X11892Y15560D01*
X11892Y15560D01*
X11892Y15559D01*
X11893Y15559D01*
X11893Y15558D01*
X11894Y15558D01*
X11894Y15557D01*
X11894Y15557D01*
X11895Y15556D01*
X11895Y15556D01*
X11895Y15555D01*
X11896Y15554D01*
X11896Y15554D01*
X11896Y15553D01*
X11897Y15553D01*
X11897Y15552D01*
X11897Y15552D01*
X11898Y15551D01*
X11898Y15550D01*
X11898Y15550D01*
X11899Y15549D01*
X11899Y15549D01*
X11899Y15548D01*
X11899Y15547D01*
X11900Y15547D01*
X11900Y15546D01*
X11900Y15546D01*
X11901Y15545D01*
X11901Y15544D01*
X11901Y15544D01*
X11901Y15543D01*
X11901Y15542D01*
X11902Y15542D01*
X11902Y15541D01*
X11902Y15541D01*
X11902Y15540D01*
X11902Y15539D01*
X11903Y15539D01*
X11903Y15538D01*
X11903Y15537D01*
X11903Y15537D01*
X11903Y15536D01*
X11903Y15535D01*
X11904Y15535D01*
X11904Y15534D01*
X11904Y15533D01*
X11904Y15533D01*
X11904Y15532D01*
X11904Y15531D01*
X11904Y15531D01*
X11904Y15530D01*
X11904Y15529D01*
X11905Y15529D01*
X11905Y15528D01*
X11905Y15528D01*
X11905Y15527D01*
X11905Y15526D01*
X11905Y15526D01*
X11905Y15525D01*
X11905Y15524D01*
X11905Y15524D01*
X11905Y15523D01*
X11905Y15522D01*
X11905Y15522D01*
Y15522D01*
Y15522D01*
X11905Y15521D01*
X11905Y15520D01*
X11905Y15520D01*
X11905Y15519D01*
X11905Y15518D01*
X11905Y15518D01*
X11905Y15517D01*
X11905Y15516D01*
X11905Y15516D01*
X11905Y15515D01*
X11905Y15514D01*
X11904Y15514D01*
X11904Y15513D01*
X11904Y15512D01*
X11904Y15512D01*
X11904Y15511D01*
X11904Y15510D01*
X11904Y15510D01*
X11904Y15509D01*
X11904Y15508D01*
X11903Y15508D01*
X11903Y15507D01*
X11903Y15507D01*
X11903Y15506D01*
X11903Y15505D01*
X11903Y15505D01*
X11902Y15504D01*
X11902Y15503D01*
X11902Y15503D01*
X11902Y15502D01*
X11902Y15501D01*
X11901Y15501D01*
X11901Y15500D01*
X11901Y15500D01*
X11901Y15499D01*
X11901Y15498D01*
X11900Y15498D01*
X11900Y15497D01*
X11900Y15496D01*
X11899Y15496D01*
X11899Y15495D01*
X11899Y15495D01*
X11899Y15494D01*
X11898Y15493D01*
X11898Y15493D01*
X11898Y15492D01*
X11897Y15492D01*
X11897Y15491D01*
X11897Y15491D01*
X11896Y15490D01*
X11896Y15489D01*
X11896Y15489D01*
X11895Y15488D01*
X11895Y15488D01*
X11895Y15487D01*
X11894Y15487D01*
X11894Y15486D01*
X11894Y15485D01*
X11893Y15485D01*
X11893Y15484D01*
X11892Y15484D01*
X11892Y15483D01*
X11892Y15483D01*
X11891Y15482D01*
X11891Y15482D01*
X11890Y15481D01*
X11890Y15481D01*
X11890Y15480D01*
X11889Y15480D01*
X11889Y15479D01*
X11888Y15479D01*
X11888Y15478D01*
X11887Y15478D01*
X11887Y15477D01*
X11886Y15477D01*
X11886Y15476D01*
X11885Y15476D01*
X11885Y15475D01*
X11884Y15475D01*
X11884Y15474D01*
X11883Y15474D01*
X11883Y15474D01*
X11882Y15473D01*
X11882Y15473D01*
X11881Y15472D01*
X11881Y15472D01*
X11880Y15472D01*
X11880Y15471D01*
X11879Y15471D01*
X11879Y15470D01*
X11878Y15470D01*
X11878Y15470D01*
X11877Y15469D01*
X11877Y15469D01*
X11876Y15468D01*
X11875Y15468D01*
X11875Y15468D01*
X11874Y15467D01*
X11874Y15467D01*
X11873Y15467D01*
X11873Y15466D01*
X11872Y15466D01*
X11871Y15466D01*
X11871Y15465D01*
X11870Y15465D01*
X11870Y15465D01*
X11869Y15465D01*
X11868Y15464D01*
X11868Y15464D01*
X11867Y15464D01*
X11867Y15463D01*
X11866Y15463D01*
X11865Y15463D01*
X11865Y15463D01*
X11864Y15462D01*
X11864Y15462D01*
X11863Y15462D01*
X11862Y15462D01*
X11862Y15462D01*
X11861Y15461D01*
X11860Y15461D01*
X11860Y15461D01*
X11859Y15461D01*
X11859Y15461D01*
X11858Y15460D01*
X11857Y15460D01*
X11857Y15460D01*
X11856Y15460D01*
X11855Y15460D01*
X11855Y15460D01*
X11854Y15459D01*
X11853Y15459D01*
X11853Y15459D01*
X11852Y15459D01*
X11851Y15459D01*
X11851Y15459D01*
X11850Y15459D01*
X11849Y15459D01*
X11849Y15459D01*
X11848Y15459D01*
X11847Y15458D01*
X11847Y15458D01*
X11846Y15458D01*
X11845Y15458D01*
X11845Y15458D01*
X11844Y15458D01*
X11844Y15458D01*
X11844Y15458D01*
X11844Y15458D01*
X11844Y15458D01*
X11844Y15458D01*
X11844Y15458D01*
X11844Y15458D01*
X11844Y15458D01*
X11844Y15458D01*
X11844Y15458D01*
X11844Y15458D01*
X11907Y15395D01*
X11862D01*
X11767Y15490D01*
X11842D01*
Y15490D01*
X11842Y15490D01*
X11842Y15490D01*
X11843Y15490D01*
X11843Y15490D01*
X11844Y15490D01*
X11844Y15490D01*
X11845Y15490D01*
X11845Y15490D01*
X11846Y15490D01*
X11846Y15490D01*
X11847Y15490D01*
X11847Y15490D01*
X11848Y15491D01*
X11848Y15491D01*
X11848Y15491D01*
X11849Y15491D01*
X11849Y15491D01*
X11850Y15491D01*
X11850Y15491D01*
X11851Y15491D01*
X11851Y15491D01*
X11852Y15492D01*
X11852Y15492D01*
X11853Y15492D01*
X11853Y15492D01*
X11853Y15492D01*
X11854Y15492D01*
X11854Y15493D01*
X11855Y15493D01*
X11855Y15493D01*
X11856Y15493D01*
X11856Y15493D01*
X11856Y15494D01*
X11857Y15494D01*
X11857Y15494D01*
X11858Y15494D01*
X11858Y15495D01*
X11858Y15495D01*
X11859Y15495D01*
X11859Y15495D01*
X11860Y15496D01*
X11860Y15496D01*
X11860Y15496D01*
X11861Y15496D01*
X11861Y15497D01*
X11861Y15497D01*
X11862Y15497D01*
X11862Y15498D01*
X11863Y15498D01*
X11863Y15498D01*
X11863Y15499D01*
X11864Y15499D01*
X11864Y15499D01*
X11864Y15500D01*
X11865Y15500D01*
X11865Y15500D01*
X11865Y15501D01*
X11866Y15501D01*
X11866Y15501D01*
X11866Y15502D01*
X11866Y15502D01*
X11867Y15502D01*
X11867Y15503D01*
X11867Y15503D01*
X11868Y15504D01*
X11868Y15504D01*
X11868Y15504D01*
X11868Y15505D01*
X11869Y15505D01*
X11869Y15506D01*
X11869Y15506D01*
X11869Y15506D01*
X11869Y15507D01*
X11870Y15507D01*
X11870Y15508D01*
X11870Y15508D01*
X11870Y15508D01*
X11871Y15509D01*
X11871Y15509D01*
X11871Y15510D01*
X11871Y15510D01*
X11871Y15511D01*
X11871Y15511D01*
X11872Y15511D01*
X11872Y15512D01*
X11872Y15512D01*
X11872Y15513D01*
X11872Y15513D01*
X11872Y15514D01*
X11872Y15514D01*
X11872Y15515D01*
X11873Y15515D01*
X11873Y15516D01*
X11873Y15516D01*
X11873Y15517D01*
X11873Y15517D01*
X11873Y15517D01*
X11873Y15518D01*
X11873Y15518D01*
X11873Y15519D01*
X11873Y15519D01*
X11873Y15520D01*
X11873Y15520D01*
X11873Y15521D01*
X11873Y15521D01*
X11873Y15522D01*
X11873Y15522D01*
X11873Y15523D01*
X11873Y15523D01*
X11873Y15523D01*
X11873Y15524D01*
X11873Y15524D01*
X11873Y15525D01*
X11873Y15525D01*
X11873Y15526D01*
X11873Y15526D01*
X11873Y15527D01*
X11873Y15527D01*
X11873Y15528D01*
X11873Y15528D01*
X11872Y15529D01*
X11872Y15529D01*
X11872Y15529D01*
X11872Y15530D01*
X11872Y15530D01*
X11872Y15531D01*
X11872Y15531D01*
X11872Y15532D01*
X11871Y15532D01*
X11871Y15533D01*
X11871Y15533D01*
X11871Y15533D01*
X11871Y15534D01*
X11871Y15534D01*
X11870Y15535D01*
X11870Y15535D01*
X11870Y15536D01*
X11870Y15536D01*
X11869Y15536D01*
X11869Y15537D01*
X11869Y15537D01*
X11869Y15538D01*
X11869Y15538D01*
X11868Y15538D01*
X11868Y15539D01*
X11868Y15539D01*
X11868Y15540D01*
X11867Y15540D01*
X11867Y15540D01*
X11867Y15541D01*
X11866Y15541D01*
X11866Y15542D01*
X11866Y15542D01*
X11866Y15542D01*
X11865Y15543D01*
X11865Y15543D01*
X11865Y15543D01*
X11864Y15544D01*
X11864Y15544D01*
X11864Y15544D01*
X11863Y15545D01*
X11863Y15545D01*
X11863Y15545D01*
X11862Y15546D01*
X11862Y15546D01*
X11861Y15546D01*
X11861Y15546D01*
X11861Y15547D01*
X11860Y15547D01*
X11860Y15547D01*
X11860Y15548D01*
X11859Y15548D01*
X11859Y15548D01*
X11858Y15548D01*
X11858Y15549D01*
X11858Y15549D01*
X11857Y15549D01*
X11857Y15549D01*
X11856Y15550D01*
X11856Y15550D01*
X11856Y15550D01*
X11855Y15550D01*
X11855Y15550D01*
X11854Y15551D01*
X11854Y15551D01*
X11853Y15551D01*
X11853Y15551D01*
X11853Y15551D01*
X11852Y15551D01*
X11852Y15552D01*
X11851Y15552D01*
X11851Y15552D01*
X11850Y15552D01*
X11850Y15552D01*
X11849Y15552D01*
X11849Y15552D01*
X11848Y15552D01*
X11848Y15553D01*
X11848Y15553D01*
X11847Y15553D01*
X11847Y15553D01*
X11846Y15553D01*
X11846Y15553D01*
X11845Y15553D01*
X11845Y15553D01*
X11844Y15553D01*
X11844Y15553D01*
X11843Y15553D01*
X11843Y15553D01*
X11842Y15553D01*
X11842Y15553D01*
X11842Y15553D01*
X11767Y15553D01*
Y15585D01*
X11842D01*
X11842Y15585D01*
D02*
G37*
G36*
X11645Y15585D02*
X11646Y15585D01*
X11647Y15585D01*
X11648Y15585D01*
X11649Y15585D01*
X11649Y15585D01*
X11650Y15585D01*
X11651Y15585D01*
X11652Y15585D01*
X11653Y15585D01*
X11654Y15585D01*
X11654Y15585D01*
X11655Y15585D01*
X11656Y15585D01*
X11657Y15585D01*
X11658Y15585D01*
X11658Y15584D01*
X11659Y15584D01*
X11660Y15584D01*
X11661Y15584D01*
X11662Y15584D01*
X11662Y15584D01*
X11663Y15584D01*
X11664Y15583D01*
X11665Y15583D01*
X11666Y15583D01*
X11666Y15583D01*
X11667Y15583D01*
X11668Y15583D01*
X11669Y15582D01*
X11670Y15582D01*
X11670Y15582D01*
X11671Y15582D01*
X11672Y15581D01*
X11673Y15581D01*
X11674Y15581D01*
X11674Y15581D01*
X11675Y15580D01*
X11676Y15580D01*
X11677Y15580D01*
X11677Y15580D01*
X11678Y15579D01*
X11679Y15579D01*
X11680Y15579D01*
X11681Y15578D01*
X11681Y15578D01*
X11682Y15578D01*
X11683Y15577D01*
X11684Y15577D01*
X11684Y15577D01*
X11685Y15576D01*
X11686Y15576D01*
X11686Y15576D01*
X11687Y15575D01*
X11688Y15575D01*
X11689Y15575D01*
X11689Y15574D01*
X11690Y15574D01*
X11691Y15573D01*
X11692Y15573D01*
X11692Y15573D01*
X11693Y15572D01*
X11694Y15572D01*
X11694Y15571D01*
X11695Y15571D01*
X11696Y15570D01*
X11696Y15570D01*
X11697Y15570D01*
X11698Y15569D01*
X11698Y15569D01*
X11699Y15568D01*
X11700Y15568D01*
X11700Y15567D01*
X11701Y15567D01*
X11702Y15566D01*
X11702Y15566D01*
X11703Y15565D01*
X11704Y15565D01*
X11704Y15564D01*
X11705Y15564D01*
X11706Y15563D01*
X11706Y15563D01*
X11707Y15562D01*
X11708Y15562D01*
X11708Y15561D01*
X11709Y15560D01*
X11709Y15560D01*
X11710Y15559D01*
X11711Y15559D01*
X11711Y15558D01*
X11712Y15558D01*
X11712Y15557D01*
X11713Y15556D01*
X11713Y15556D01*
X11714Y15555D01*
X11715Y15555D01*
X11715Y15554D01*
X11716Y15553D01*
X11716Y15553D01*
X11717Y15552D01*
X11717Y15552D01*
X11718Y15551D01*
X11718Y15550D01*
X11719Y15550D01*
X11719Y15549D01*
X11720Y15548D01*
X11720Y15548D01*
X11721Y15547D01*
X11721Y15546D01*
X11722Y15546D01*
X11722Y15545D01*
X11723Y15544D01*
X11723Y15544D01*
X11724Y15543D01*
X11724Y15542D01*
X11725Y15542D01*
X11725Y15541D01*
X11725Y15540D01*
X11726Y15540D01*
X11726Y15539D01*
X11727Y15538D01*
X11727Y15538D01*
X11727Y15537D01*
X11728Y15536D01*
X11728Y15535D01*
X11729Y15535D01*
X11729Y15534D01*
X11729Y15533D01*
X11730Y15532D01*
X11730Y15532D01*
X11730Y15531D01*
X11731Y15530D01*
X11731Y15529D01*
X11731Y15529D01*
X11732Y15528D01*
X11732Y15527D01*
X11732Y15526D01*
X11733Y15526D01*
X11733Y15525D01*
X11733Y15524D01*
X11734Y15523D01*
X11734Y15523D01*
X11734Y15522D01*
X11734Y15521D01*
X11735Y15520D01*
X11735Y15520D01*
X11735Y15519D01*
X11735Y15518D01*
X11736Y15517D01*
X11736Y15516D01*
X11736Y15516D01*
X11736Y15515D01*
X11737Y15514D01*
X11737Y15513D01*
X11737Y15512D01*
X11737Y15512D01*
X11737Y15511D01*
X11737Y15510D01*
X11738Y15509D01*
X11738Y15508D01*
X11738Y15508D01*
X11738Y15507D01*
X11738Y15506D01*
X11738Y15505D01*
X11738Y15504D01*
X11739Y15504D01*
X11739Y15503D01*
X11739Y15502D01*
X11739Y15501D01*
X11739Y15500D01*
X11739Y15500D01*
X11739Y15499D01*
X11739Y15498D01*
X11739Y15497D01*
X11739Y15496D01*
X11739Y15495D01*
X11739Y15495D01*
X11739Y15494D01*
X11739Y15493D01*
X11739Y15492D01*
X11740Y15491D01*
X11740Y15491D01*
X11740Y15490D01*
X11739Y15489D01*
X11739Y15488D01*
X11739Y15487D01*
X11739Y15487D01*
X11739Y15486D01*
X11739Y15485D01*
X11739Y15484D01*
X11739Y15483D01*
X11739Y15483D01*
X11739Y15482D01*
X11739Y15481D01*
X11739Y15480D01*
X11739Y15479D01*
X11739Y15478D01*
X11739Y15478D01*
X11738Y15477D01*
X11738Y15476D01*
X11738Y15475D01*
X11738Y15474D01*
X11738Y15474D01*
X11738Y15473D01*
X11738Y15472D01*
X11737Y15471D01*
X11737Y15470D01*
X11737Y15470D01*
X11737Y15469D01*
X11737Y15468D01*
X11737Y15467D01*
X11736Y15466D01*
X11736Y15466D01*
X11736Y15465D01*
X11736Y15464D01*
X11735Y15463D01*
X11735Y15462D01*
X11735Y15462D01*
X11735Y15461D01*
X11734Y15460D01*
X11734Y15459D01*
X11734Y15459D01*
X11734Y15458D01*
X11733Y15457D01*
X11733Y15456D01*
X11733Y15456D01*
X11732Y15455D01*
X11732Y15454D01*
X11732Y15453D01*
X11731Y15453D01*
X11731Y15452D01*
X11731Y15451D01*
X11730Y15450D01*
X11730Y15450D01*
X11730Y15449D01*
X11729Y15448D01*
X11729Y15447D01*
X11729Y15447D01*
X11728Y15446D01*
X11728Y15445D01*
X11727Y15444D01*
X11727Y15444D01*
X11727Y15443D01*
X11726Y15442D01*
X11726Y15442D01*
X11725Y15441D01*
X11725Y15440D01*
X11725Y15440D01*
X11724Y15439D01*
X11724Y15438D01*
X11723Y15437D01*
X11723Y15437D01*
X11722Y15436D01*
X11722Y15435D01*
X11721Y15435D01*
X11721Y15434D01*
X11720Y15433D01*
X11720Y15433D01*
X11719Y15432D01*
X11719Y15432D01*
X11718Y15431D01*
X11718Y15430D01*
X11717Y15430D01*
X11717Y15429D01*
X11716Y15428D01*
X11716Y15428D01*
X11715Y15427D01*
X11715Y15427D01*
X11714Y15426D01*
X11713Y15425D01*
X11713Y15425D01*
X11712Y15424D01*
X11712Y15424D01*
X11711Y15423D01*
X11711Y15422D01*
X11710Y15422D01*
X11709Y15421D01*
X11709Y15421D01*
X11708Y15420D01*
X11708Y15420D01*
X11707Y15419D01*
X11706Y15419D01*
X11706Y15418D01*
X11705Y15418D01*
X11704Y15417D01*
X11704Y15416D01*
X11703Y15416D01*
X11702Y15415D01*
X11702Y15415D01*
X11701Y15414D01*
X11700Y15414D01*
X11700Y15414D01*
X11699Y15413D01*
X11698Y15413D01*
X11698Y15412D01*
X11697Y15412D01*
X11696Y15411D01*
X11696Y15411D01*
X11695Y15410D01*
X11694Y15410D01*
X11694Y15409D01*
X11693Y15409D01*
X11692Y15409D01*
X11692Y15408D01*
X11691Y15408D01*
X11690Y15407D01*
X11689Y15407D01*
X11689Y15407D01*
X11688Y15406D01*
X11687Y15406D01*
X11686Y15406D01*
X11686Y15405D01*
X11685Y15405D01*
X11684Y15404D01*
X11684Y15404D01*
X11683Y15404D01*
X11682Y15403D01*
X11681Y15403D01*
X11681Y15403D01*
X11680Y15403D01*
X11679Y15402D01*
X11678Y15402D01*
X11677Y15402D01*
X11677Y15401D01*
X11676Y15401D01*
X11675Y15401D01*
X11674Y15401D01*
X11674Y15400D01*
X11673Y15400D01*
X11672Y15400D01*
X11671Y15400D01*
X11670Y15399D01*
X11670Y15399D01*
X11669Y15399D01*
X11668Y15399D01*
X11667Y15399D01*
X11666Y15398D01*
X11666Y15398D01*
X11665Y15398D01*
X11664Y15398D01*
X11663Y15398D01*
X11662Y15397D01*
X11662Y15397D01*
X11661Y15397D01*
X11660Y15397D01*
X11659Y15397D01*
X11658Y15397D01*
X11658Y15397D01*
X11657Y15397D01*
X11656Y15396D01*
X11655Y15396D01*
X11654Y15396D01*
X11654Y15396D01*
X11653Y15396D01*
X11652Y15396D01*
X11651Y15396D01*
X11650Y15396D01*
X11649Y15396D01*
X11649Y15396D01*
X11648Y15396D01*
X11647Y15396D01*
X11646Y15396D01*
X11645Y15396D01*
X11645Y15396D01*
X11589D01*
Y15428D01*
X11589Y15428D01*
Y15490D01*
X11621Y15490D01*
X11621Y15428D01*
X11621Y15428D01*
X11621Y15428D01*
X11621Y15428D01*
X11621Y15428D01*
X11645D01*
Y15428D01*
X11645Y15428D01*
X11646Y15428D01*
X11647Y15428D01*
X11647Y15428D01*
X11648Y15428D01*
X11649Y15428D01*
X11649Y15428D01*
X11650Y15428D01*
X11651Y15428D01*
X11651Y15428D01*
X11652Y15428D01*
X11652Y15428D01*
X11653Y15428D01*
X11654Y15428D01*
X11654Y15428D01*
X11655Y15428D01*
X11656Y15429D01*
X11656Y15429D01*
X11657Y15429D01*
X11658Y15429D01*
X11658Y15429D01*
X11659Y15429D01*
X11660Y15429D01*
X11660Y15430D01*
X11661Y15430D01*
X11662Y15430D01*
X11662Y15430D01*
X11663Y15430D01*
X11663Y15430D01*
X11664Y15431D01*
X11665Y15431D01*
X11665Y15431D01*
X11666Y15431D01*
X11667Y15431D01*
X11667Y15432D01*
X11668Y15432D01*
X11668Y15432D01*
X11669Y15432D01*
X11670Y15433D01*
X11670Y15433D01*
X11671Y15433D01*
X11671Y15434D01*
X11672Y15434D01*
X11673Y15434D01*
X11673Y15434D01*
X11674Y15435D01*
X11674Y15435D01*
X11675Y15435D01*
X11676Y15436D01*
X11676Y15436D01*
X11677Y15436D01*
X11677Y15437D01*
X11678Y15437D01*
X11678Y15437D01*
X11679Y15438D01*
X11680Y15438D01*
X11680Y15438D01*
X11681Y15439D01*
X11681Y15439D01*
X11682Y15440D01*
X11682Y15440D01*
X11683Y15440D01*
X11683Y15441D01*
X11684Y15441D01*
X11684Y15442D01*
X11685Y15442D01*
X11685Y15442D01*
X11686Y15443D01*
X11686Y15443D01*
X11687Y15444D01*
X11687Y15444D01*
X11688Y15445D01*
X11688Y15445D01*
X11689Y15446D01*
X11689Y15446D01*
X11690Y15447D01*
X11690Y15447D01*
X11691Y15447D01*
X11691Y15448D01*
X11692Y15448D01*
X11692Y15449D01*
X11692Y15449D01*
X11693Y15450D01*
X11693Y15450D01*
X11694Y15451D01*
X11694Y15451D01*
X11694Y15452D01*
X11695Y15453D01*
X11695Y15453D01*
X11696Y15454D01*
X11696Y15454D01*
X11696Y15455D01*
X11697Y15455D01*
X11697Y15456D01*
X11698Y15456D01*
X11698Y15457D01*
X11698Y15457D01*
X11699Y15458D01*
X11699Y15459D01*
X11699Y15459D01*
X11700Y15460D01*
X11700Y15460D01*
X11700Y15461D01*
X11701Y15461D01*
X11701Y15462D01*
X11701Y15463D01*
X11701Y15463D01*
X11702Y15464D01*
X11702Y15464D01*
X11702Y15465D01*
X11703Y15466D01*
X11703Y15466D01*
X11703Y15467D01*
X11703Y15467D01*
X11704Y15468D01*
X11704Y15469D01*
X11704Y15469D01*
X11704Y15470D01*
X11704Y15471D01*
X11705Y15471D01*
X11705Y15472D01*
X11705Y15472D01*
X11705Y15473D01*
X11705Y15474D01*
X11706Y15474D01*
X11706Y15475D01*
X11706Y15476D01*
X11706Y15476D01*
X11706Y15477D01*
X11706Y15478D01*
X11706Y15478D01*
X11707Y15479D01*
X11707Y15480D01*
X11707Y15480D01*
X11707Y15481D01*
X11707Y15481D01*
X11707Y15482D01*
X11707Y15483D01*
X11707Y15483D01*
X11707Y15484D01*
X11707Y15485D01*
X11708Y15485D01*
X11708Y15486D01*
X11708Y15487D01*
X11708Y15487D01*
X11708Y15488D01*
X11708Y15489D01*
X11708Y15489D01*
X11708Y15490D01*
X11708Y15491D01*
X11708Y15491D01*
X11708Y15492D01*
X11708Y15493D01*
X11708Y15493D01*
X11708Y15494D01*
X11708Y15495D01*
X11708Y15495D01*
X11708Y15496D01*
X11707Y15496D01*
X11707Y15497D01*
X11707Y15498D01*
X11707Y15498D01*
X11707Y15499D01*
X11707Y15500D01*
X11707Y15500D01*
X11707Y15501D01*
X11707Y15502D01*
X11707Y15502D01*
X11706Y15503D01*
X11706Y15504D01*
X11706Y15504D01*
X11706Y15505D01*
X11706Y15506D01*
X11706Y15506D01*
X11706Y15507D01*
X11705Y15508D01*
X11705Y15508D01*
X11705Y15509D01*
X11705Y15509D01*
X11705Y15510D01*
X11704Y15511D01*
X11704Y15511D01*
X11704Y15512D01*
X11704Y15513D01*
X11704Y15513D01*
X11703Y15514D01*
X11703Y15514D01*
X11703Y15515D01*
X11703Y15516D01*
X11702Y15516D01*
X11702Y15517D01*
X11702Y15517D01*
X11701Y15518D01*
X11701Y15519D01*
X11701Y15519D01*
X11701Y15520D01*
X11700Y15520D01*
X11700Y15521D01*
X11700Y15522D01*
X11699Y15522D01*
X11699Y15523D01*
X11699Y15523D01*
X11698Y15524D01*
X11698Y15524D01*
X11698Y15525D01*
X11697Y15526D01*
X11697Y15526D01*
X11696Y15527D01*
X11696Y15527D01*
X11696Y15528D01*
X11695Y15528D01*
X11695Y15529D01*
X11694Y15529D01*
X11694Y15530D01*
X11694Y15530D01*
X11693Y15531D01*
X11693Y15531D01*
X11692Y15532D01*
X11692Y15532D01*
X11692Y15533D01*
X11691Y15533D01*
X11691Y15534D01*
X11690Y15534D01*
X11690Y15535D01*
X11689Y15535D01*
X11689Y15536D01*
X11688Y15536D01*
X11688Y15537D01*
X11687Y15537D01*
X11687Y15537D01*
X11686Y15538D01*
X11686Y15538D01*
X11685Y15539D01*
X11685Y15539D01*
X11684Y15540D01*
X11684Y15540D01*
X11683Y15540D01*
X11683Y15541D01*
X11682Y15541D01*
X11682Y15542D01*
X11681Y15542D01*
X11681Y15542D01*
X11680Y15543D01*
X11680Y15543D01*
X11679Y15544D01*
X11678Y15544D01*
X11678Y15544D01*
X11677Y15545D01*
X11677Y15545D01*
X11676Y15545D01*
X11676Y15546D01*
X11675Y15546D01*
X11674Y15546D01*
X11674Y15547D01*
X11673Y15547D01*
X11673Y15547D01*
X11672Y15547D01*
X11671Y15548D01*
X11671Y15548D01*
X11670Y15548D01*
X11670Y15549D01*
X11669Y15549D01*
X11668Y15549D01*
X11668Y15549D01*
X11667Y15550D01*
X11667Y15550D01*
X11666Y15550D01*
X11665Y15550D01*
X11665Y15550D01*
X11664Y15551D01*
X11663Y15551D01*
X11663Y15551D01*
X11662Y15551D01*
X11662Y15551D01*
X11661Y15552D01*
X11660Y15552D01*
X11660Y15552D01*
X11659Y15552D01*
X11658Y15552D01*
X11658Y15552D01*
X11657Y15552D01*
X11656Y15553D01*
X11656Y15553D01*
X11655Y15553D01*
X11654Y15553D01*
X11654Y15553D01*
X11653Y15553D01*
X11653Y15553D01*
X11652Y15553D01*
X11651Y15553D01*
X11651Y15553D01*
X11650Y15553D01*
X11649Y15554D01*
X11649Y15554D01*
X11648Y15554D01*
X11647Y15554D01*
X11647Y15554D01*
X11646Y15554D01*
X11645Y15554D01*
X11645Y15554D01*
Y15554D01*
X11594D01*
Y15585D01*
X11645D01*
X11645Y15585D01*
D02*
G37*
G36*
X11498Y15522D02*
X11498Y15522D01*
X11498Y15522D01*
X11498Y15522D01*
X11498Y15522D01*
X11498Y15522D01*
X11498Y15522D01*
X11498Y15522D01*
X11498Y15522D01*
X11498Y15522D01*
Y15522D01*
X11498Y15522D01*
X11499Y15522D01*
X11500Y15522D01*
X11500Y15522D01*
X11501Y15522D01*
X11502Y15522D01*
X11502Y15522D01*
X11503Y15522D01*
X11504Y15521D01*
X11504Y15521D01*
X11505Y15521D01*
X11506Y15521D01*
X11506Y15521D01*
X11507Y15521D01*
X11508Y15521D01*
X11508Y15521D01*
X11509Y15521D01*
X11509Y15520D01*
X11510Y15520D01*
X11511Y15520D01*
X11511Y15520D01*
X11512Y15520D01*
X11513Y15520D01*
X11513Y15519D01*
X11514Y15519D01*
X11515Y15519D01*
X11515Y15519D01*
X11516Y15519D01*
X11517Y15518D01*
X11517Y15518D01*
X11518Y15518D01*
X11518Y15518D01*
X11519Y15517D01*
X11520Y15517D01*
X11520Y15517D01*
X11521Y15517D01*
X11521Y15516D01*
X11522Y15516D01*
X11523Y15516D01*
X11523Y15516D01*
X11524Y15515D01*
X11524Y15515D01*
X11525Y15515D01*
X11526Y15514D01*
X11526Y15514D01*
X11527Y15514D01*
X11527Y15513D01*
X11528Y15513D01*
X11529Y15513D01*
X11529Y15512D01*
X11530Y15512D01*
X11530Y15512D01*
X11531Y15511D01*
X11531Y15511D01*
X11532Y15511D01*
X11532Y15510D01*
X11533Y15510D01*
X11534Y15509D01*
X11534Y15509D01*
X11535Y15509D01*
X11535Y15508D01*
X11536Y15508D01*
X11536Y15507D01*
X11537Y15507D01*
X11537Y15506D01*
X11538Y15506D01*
X11538Y15506D01*
X11539Y15505D01*
X11539Y15505D01*
X11540Y15504D01*
X11540Y15504D01*
X11541Y15503D01*
X11541Y15503D01*
X11541Y15502D01*
X11542Y15502D01*
X11542Y15501D01*
X11543Y15501D01*
X11543Y15500D01*
X11544Y15500D01*
X11544Y15499D01*
X11545Y15499D01*
X11545Y15498D01*
X11545Y15498D01*
X11546Y15497D01*
X11546Y15497D01*
X11547Y15496D01*
X11547Y15496D01*
X11547Y15495D01*
X11548Y15495D01*
X11548Y15494D01*
X11549Y15494D01*
X11549Y15493D01*
X11549Y15492D01*
X11550Y15492D01*
X11550Y15491D01*
X11550Y15491D01*
X11551Y15490D01*
X11551Y15490D01*
X11551Y15489D01*
X11552Y15488D01*
X11552Y15488D01*
X11552Y15487D01*
X11553Y15487D01*
X11553Y15486D01*
X11553Y15485D01*
X11553Y15485D01*
X11554Y15484D01*
X11554Y15484D01*
X11554Y15483D01*
X11554Y15482D01*
X11555Y15482D01*
X11555Y15481D01*
X11555Y15481D01*
X11555Y15480D01*
X11556Y15479D01*
X11556Y15479D01*
X11556Y15478D01*
X11556Y15477D01*
X11556Y15477D01*
X11557Y15476D01*
X11557Y15476D01*
X11557Y15475D01*
X11557Y15474D01*
X11557Y15474D01*
X11557Y15473D01*
X11558Y15472D01*
X11558Y15472D01*
X11558Y15471D01*
X11558Y15470D01*
X11558Y15470D01*
X11558Y15469D01*
X11558Y15468D01*
X11558Y15468D01*
X11559Y15467D01*
X11559Y15466D01*
X11559Y15466D01*
X11559Y15465D01*
X11559Y15464D01*
X11559Y15464D01*
X11559Y15463D01*
X11559Y15462D01*
X11559Y15462D01*
X11559Y15461D01*
X11559Y15460D01*
X11559Y15460D01*
X11559Y15459D01*
X11559Y15459D01*
Y15459D01*
X11559Y15459D01*
X11559Y15458D01*
X11559Y15457D01*
X11559Y15457D01*
X11559Y15456D01*
X11559Y15455D01*
X11559Y15455D01*
X11559Y15454D01*
X11559Y15453D01*
X11559Y15453D01*
X11559Y15452D01*
X11559Y15451D01*
X11559Y15451D01*
X11559Y15450D01*
X11558Y15449D01*
X11558Y15449D01*
X11558Y15448D01*
X11558Y15447D01*
X11558Y15447D01*
X11558Y15446D01*
X11558Y15445D01*
X11558Y15445D01*
X11557Y15444D01*
X11557Y15443D01*
X11557Y15443D01*
X11557Y15442D01*
X11557Y15442D01*
X11557Y15441D01*
X11556Y15440D01*
X11556Y15440D01*
X11556Y15439D01*
X11556Y15438D01*
X11556Y15438D01*
X11555Y15437D01*
X11555Y15436D01*
X11555Y15436D01*
X11555Y15435D01*
X11554Y15435D01*
X11554Y15434D01*
X11554Y15433D01*
X11554Y15433D01*
X11553Y15432D01*
X11553Y15432D01*
X11553Y15431D01*
X11553Y15430D01*
X11552Y15430D01*
X11552Y15429D01*
X11552Y15429D01*
X11551Y15428D01*
X11551Y15427D01*
X11551Y15427D01*
X11550Y15426D01*
X11550Y15426D01*
X11550Y15425D01*
X11549Y15425D01*
X11549Y15424D01*
X11549Y15423D01*
X11548Y15423D01*
X11548Y15422D01*
X11547Y15422D01*
X11547Y15421D01*
X11547Y15421D01*
X11546Y15420D01*
X11546Y15420D01*
X11545Y15419D01*
X11545Y15419D01*
X11545Y15418D01*
X11544Y15418D01*
X11544Y15417D01*
X11543Y15417D01*
X11543Y15416D01*
X11542Y15416D01*
X11542Y15415D01*
X11541Y15415D01*
X11541Y15414D01*
X11541Y15414D01*
X11540Y15413D01*
X11540Y15413D01*
X11539Y15412D01*
X11539Y15412D01*
X11538Y15411D01*
X11538Y15411D01*
X11537Y15411D01*
X11537Y15410D01*
X11536Y15410D01*
X11536Y15409D01*
X11535Y15409D01*
X11535Y15408D01*
X11534Y15408D01*
X11534Y15408D01*
X11533Y15407D01*
X11532Y15407D01*
X11532Y15406D01*
X11531Y15406D01*
X11531Y15406D01*
X11530Y15405D01*
X11530Y15405D01*
X11529Y15405D01*
X11529Y15404D01*
X11528Y15404D01*
X11527Y15404D01*
X11527Y15403D01*
X11526Y15403D01*
X11526Y15403D01*
X11525Y15402D01*
X11524Y15402D01*
X11524Y15402D01*
X11523Y15401D01*
X11523Y15401D01*
X11522Y15401D01*
X11521Y15401D01*
X11521Y15400D01*
X11520Y15400D01*
X11520Y15400D01*
X11519Y15400D01*
X11518Y15399D01*
X11518Y15399D01*
X11517Y15399D01*
X11517Y15399D01*
X11516Y15398D01*
X11515Y15398D01*
X11515Y15398D01*
X11514Y15398D01*
X11513Y15398D01*
X11513Y15397D01*
X11512Y15397D01*
X11511Y15397D01*
X11511Y15397D01*
X11510Y15397D01*
X11510Y15397D01*
X11509Y15396D01*
X11508Y15396D01*
X11508Y15396D01*
X11507Y15396D01*
X11506Y15396D01*
X11506Y15396D01*
X11505Y15396D01*
X11504Y15396D01*
X11504Y15396D01*
X11503Y15396D01*
X11502Y15395D01*
X11502Y15395D01*
X11501Y15395D01*
X11500Y15395D01*
X11500Y15395D01*
X11499Y15395D01*
X11498Y15395D01*
X11498Y15395D01*
X11497Y15395D01*
X11496Y15395D01*
X11496Y15395D01*
X11421D01*
Y15427D01*
X11496D01*
Y15427D01*
X11496Y15427D01*
X11497Y15427D01*
X11497Y15427D01*
X11498Y15427D01*
X11498Y15427D01*
X11499Y15427D01*
X11499Y15427D01*
X11499Y15427D01*
X11500Y15427D01*
X11500Y15427D01*
X11501Y15427D01*
X11501Y15427D01*
X11502Y15427D01*
X11502Y15428D01*
X11503Y15428D01*
X11503Y15428D01*
X11504Y15428D01*
X11504Y15428D01*
X11504Y15428D01*
X11505Y15428D01*
X11505Y15428D01*
X11506Y15429D01*
X11506Y15429D01*
X11507Y15429D01*
X11507Y15429D01*
X11508Y15429D01*
X11508Y15429D01*
X11508Y15430D01*
X11509Y15430D01*
X11509Y15430D01*
X11510Y15430D01*
X11510Y15430D01*
X11511Y15431D01*
X11511Y15431D01*
X11511Y15431D01*
X11512Y15431D01*
X11512Y15431D01*
X11513Y15432D01*
X11513Y15432D01*
X11513Y15432D01*
X11514Y15433D01*
X11514Y15433D01*
X11515Y15433D01*
X11515Y15433D01*
X11515Y15434D01*
X11516Y15434D01*
X11516Y15434D01*
X11516Y15435D01*
X11517Y15435D01*
X11517Y15435D01*
X11517Y15435D01*
X11518Y15436D01*
X11518Y15436D01*
X11518Y15436D01*
X11519Y15437D01*
X11519Y15437D01*
X11519Y15438D01*
X11520Y15438D01*
X11520Y15438D01*
X11520Y15439D01*
X11521Y15439D01*
X11521Y15439D01*
X11521Y15440D01*
X11521Y15440D01*
X11522Y15440D01*
X11522Y15441D01*
X11522Y15441D01*
X11522Y15442D01*
X11523Y15442D01*
X11523Y15442D01*
X11523Y15443D01*
X11523Y15443D01*
X11524Y15444D01*
X11524Y15444D01*
X11524Y15444D01*
X11524Y15445D01*
X11525Y15445D01*
X11525Y15446D01*
X11525Y15446D01*
X11525Y15447D01*
X11525Y15447D01*
X11525Y15448D01*
X11526Y15448D01*
X11526Y15448D01*
X11526Y15449D01*
X11526Y15449D01*
X11526Y15450D01*
X11526Y15450D01*
X11526Y15451D01*
X11526Y15451D01*
X11527Y15452D01*
X11527Y15452D01*
X11527Y15452D01*
X11527Y15453D01*
X11527Y15453D01*
X11527Y15454D01*
X11527Y15454D01*
X11527Y15455D01*
X11527Y15455D01*
X11527Y15456D01*
X11527Y15456D01*
X11527Y15457D01*
X11527Y15457D01*
X11527Y15458D01*
X11527Y15458D01*
X11527Y15459D01*
X11527Y15459D01*
X11527Y15459D01*
X11527Y15460D01*
X11527Y15460D01*
X11527Y15461D01*
X11527Y15461D01*
X11527Y15462D01*
X11527Y15462D01*
X11527Y15463D01*
X11527Y15463D01*
X11527Y15464D01*
X11527Y15464D01*
X11527Y15465D01*
X11527Y15465D01*
X11527Y15465D01*
X11526Y15466D01*
X11526Y15466D01*
X11526Y15467D01*
X11526Y15467D01*
X11526Y15468D01*
X11526Y15468D01*
X11526Y15469D01*
X11526Y15469D01*
X11525Y15470D01*
X11525Y15470D01*
X11525Y15470D01*
X11525Y15471D01*
X11525Y15471D01*
X11525Y15472D01*
X11524Y15472D01*
X11524Y15473D01*
X11524Y15473D01*
X11524Y15473D01*
X11523Y15474D01*
X11523Y15474D01*
X11523Y15475D01*
X11523Y15475D01*
X11522Y15475D01*
X11522Y15476D01*
X11522Y15476D01*
X11522Y15477D01*
X11521Y15477D01*
X11521Y15477D01*
X11521Y15478D01*
X11521Y15478D01*
X11520Y15478D01*
X11520Y15479D01*
X11520Y15479D01*
X11519Y15480D01*
X11519Y15480D01*
X11519Y15480D01*
X11518Y15481D01*
X11518Y15481D01*
X11518Y15481D01*
X11517Y15482D01*
X11517Y15482D01*
X11517Y15482D01*
X11516Y15482D01*
X11516Y15483D01*
X11516Y15483D01*
X11515Y15483D01*
X11515Y15484D01*
X11515Y15484D01*
X11514Y15484D01*
X11514Y15484D01*
X11513Y15485D01*
X11513Y15485D01*
X11513Y15485D01*
X11512Y15486D01*
X11512Y15486D01*
X11511Y15486D01*
X11511Y15486D01*
X11511Y15486D01*
X11510Y15487D01*
X11510Y15487D01*
X11509Y15487D01*
X11509Y15487D01*
X11508Y15487D01*
X11508Y15488D01*
X11508Y15488D01*
X11507Y15488D01*
X11507Y15488D01*
X11506Y15488D01*
X11506Y15488D01*
X11505Y15489D01*
X11505Y15489D01*
X11504Y15489D01*
X11504Y15489D01*
X11504Y15489D01*
X11503Y15489D01*
X11503Y15489D01*
X11502Y15489D01*
X11502Y15490D01*
X11501Y15490D01*
X11501Y15490D01*
X11500Y15490D01*
X11500Y15490D01*
X11499Y15490D01*
X11499Y15490D01*
X11499Y15490D01*
X11498Y15490D01*
X11498Y15490D01*
X11497Y15490D01*
X11497Y15490D01*
X11496Y15490D01*
X11496Y15490D01*
X11421D01*
X11516Y15585D01*
X11561D01*
X11498Y15522D01*
D02*
G37*
G36*
X10909Y13446D02*
X10888D01*
Y13390D01*
X10879D01*
Y13446D01*
X10858D01*
Y13454D01*
X10909D01*
Y13446D01*
D02*
G37*
G36*
X10439Y13642D02*
X10523Y13625D01*
X10604Y13598D01*
X10680Y13560D01*
X10751Y13513D01*
X10815Y13457D01*
X10841Y13427D01*
Y13454D01*
X10849D01*
Y13418D01*
X10871Y13392D01*
X10919Y13322D01*
X10956Y13245D01*
X10984Y13164D01*
X11000Y13081D01*
X11006Y12996D01*
X11006Y11999D01*
X6993Y11999D01*
X6993Y12996D01*
X6998Y13081D01*
X7015Y13164D01*
X7042Y13245D01*
X7080Y13322D01*
X7127Y13392D01*
X7183Y13457D01*
X7248Y13513D01*
X7318Y13560D01*
X7395Y13598D01*
X7476Y13625D01*
X7559Y13642D01*
X7644Y13647D01*
X10354D01*
X10439Y13642D01*
D02*
G37*
G36*
X11035Y10454D02*
X11036D01*
X11037Y10454D01*
X11039Y10454D01*
X11040Y10453D01*
X11042Y10453D01*
X11044Y10452D01*
X11044D01*
X11044Y10452D01*
X11044Y10452D01*
X11044Y10452D01*
X11045Y10451D01*
X11046Y10450D01*
X11047Y10449D01*
X11048Y10448D01*
X11049Y10447D01*
X11050Y10446D01*
Y10446D01*
X11050Y10446D01*
X11051Y10445D01*
X11051Y10444D01*
X11052Y10443D01*
X11052Y10442D01*
X11052Y10441D01*
X11053Y10439D01*
X11053Y10438D01*
Y10437D01*
Y10437D01*
Y10437D01*
X11053Y10436D01*
X11052Y10435D01*
X11052Y10434D01*
X11052Y10433D01*
X11051Y10431D01*
X11050Y10430D01*
X11050Y10430D01*
X11050Y10429D01*
X11050Y10429D01*
X11049Y10428D01*
X11048Y10427D01*
X11047Y10426D01*
X11045Y10425D01*
X11044Y10425D01*
X11044D01*
X11044Y10424D01*
X11044Y10424D01*
X11045Y10424D01*
X11045Y10424D01*
X11046Y10424D01*
X11047Y10423D01*
X11049Y10423D01*
X11050Y10422D01*
X11051Y10420D01*
X11053Y10419D01*
Y10419D01*
X11053Y10419D01*
X11053Y10419D01*
X11053Y10418D01*
X11053Y10418D01*
X11054Y10417D01*
X11054Y10416D01*
X11055Y10415D01*
X11055Y10413D01*
X11056Y10411D01*
X11056Y10409D01*
Y10409D01*
Y10408D01*
Y10408D01*
X11056Y10407D01*
X11056Y10407D01*
X11056Y10406D01*
X11055Y10405D01*
X11055Y10404D01*
X11055Y10403D01*
X11054Y10402D01*
X11054Y10400D01*
X11053Y10399D01*
X11053Y10398D01*
X11052Y10397D01*
X11051Y10396D01*
X11050Y10395D01*
X11050Y10394D01*
X11049Y10394D01*
X11049Y10394D01*
X11049Y10394D01*
X11048Y10393D01*
X11047Y10393D01*
X11046Y10392D01*
X11046Y10392D01*
X11044Y10391D01*
X11043Y10391D01*
X11042Y10390D01*
X11041Y10390D01*
X11039Y10389D01*
X11038Y10389D01*
X11036Y10389D01*
X11034Y10389D01*
X11033D01*
X11033Y10389D01*
X11032Y10389D01*
X11031Y10389D01*
X11030Y10389D01*
X11029Y10389D01*
X11027Y10390D01*
X11026Y10390D01*
X11025Y10391D01*
X11024Y10391D01*
X11022Y10392D01*
X11021Y10393D01*
X11020Y10394D01*
X11020Y10394D01*
X11020Y10394D01*
X11020Y10394D01*
X11019Y10395D01*
X11019Y10395D01*
X11018Y10396D01*
X11018Y10397D01*
X11017Y10397D01*
X11017Y10398D01*
X11016Y10399D01*
X11016Y10400D01*
X11015Y10401D01*
X11015Y10403D01*
X11014Y10404D01*
X11014Y10405D01*
X11014Y10407D01*
X11022Y10408D01*
Y10408D01*
X11022Y10408D01*
X11022Y10407D01*
X11022Y10407D01*
X11022Y10406D01*
X11022Y10406D01*
X11023Y10404D01*
X11023Y10403D01*
X11024Y10401D01*
X11025Y10399D01*
X11026Y10399D01*
X11026Y10398D01*
X11026Y10398D01*
X11027Y10398D01*
X11028Y10397D01*
X11029Y10397D01*
X11030Y10396D01*
X11031Y10396D01*
X11033Y10395D01*
X11034Y10395D01*
X11035D01*
X11035Y10395D01*
X11036D01*
X11036Y10395D01*
X11038Y10396D01*
X11039Y10396D01*
X11041Y10397D01*
X11042Y10398D01*
X11043Y10398D01*
X11044Y10399D01*
X11044Y10399D01*
X11044Y10399D01*
X11044Y10400D01*
X11044Y10400D01*
X11045Y10401D01*
X11046Y10402D01*
X11046Y10403D01*
X11047Y10405D01*
X11047Y10407D01*
X11048Y10408D01*
Y10409D01*
Y10409D01*
Y10409D01*
Y10409D01*
X11047Y10410D01*
Y10410D01*
X11047Y10411D01*
X11047Y10412D01*
X11047Y10413D01*
X11046Y10415D01*
X11045Y10416D01*
X11045Y10417D01*
X11044Y10418D01*
X11044Y10418D01*
X11043Y10418D01*
X11043Y10419D01*
X11042Y10419D01*
X11040Y10420D01*
X11039Y10420D01*
X11037Y10421D01*
X11035Y10421D01*
X11034D01*
X11033Y10421D01*
X11033Y10421D01*
X11032Y10421D01*
X11031Y10420D01*
X11029Y10420D01*
X11030Y10427D01*
X11030D01*
X11031Y10427D01*
X11031Y10427D01*
X11032D01*
X11032Y10427D01*
X11033Y10427D01*
X11035Y10427D01*
X11036Y10428D01*
X11037Y10428D01*
X11039Y10429D01*
X11041Y10430D01*
X11041D01*
X11041Y10430D01*
X11041Y10430D01*
X11042Y10431D01*
X11043Y10432D01*
X11043Y10433D01*
X11044Y10434D01*
X11044Y10436D01*
X11045Y10437D01*
X11045Y10438D01*
Y10438D01*
Y10438D01*
X11045Y10438D01*
X11044Y10439D01*
X11044Y10440D01*
X11044Y10441D01*
X11043Y10442D01*
X11043Y10444D01*
X11042Y10445D01*
X11041Y10445D01*
X11041Y10445D01*
X11040Y10446D01*
X11040Y10446D01*
X11039Y10447D01*
X11037Y10447D01*
X11036Y10448D01*
X11034Y10448D01*
X11034D01*
X11033Y10448D01*
X11032Y10448D01*
X11031Y10447D01*
X11030Y10447D01*
X11029Y10446D01*
X11028Y10446D01*
X11026Y10445D01*
X11026Y10445D01*
X11026Y10444D01*
X11025Y10444D01*
X11025Y10443D01*
X11024Y10441D01*
X11023Y10440D01*
X11023Y10438D01*
X11023Y10436D01*
X11015Y10438D01*
Y10438D01*
X11015Y10438D01*
X11015Y10438D01*
X11015Y10439D01*
X11015Y10440D01*
X11015Y10440D01*
X11016Y10441D01*
X11016Y10442D01*
X11017Y10444D01*
X11018Y10446D01*
X11019Y10448D01*
X11020Y10449D01*
X11021Y10450D01*
X11021Y10450D01*
X11021Y10450D01*
X11022Y10450D01*
X11022Y10450D01*
X11023Y10451D01*
X11023Y10451D01*
X11024Y10452D01*
X11025Y10452D01*
X11026Y10452D01*
X11027Y10453D01*
X11029Y10454D01*
X11031Y10454D01*
X11033Y10454D01*
X11034Y10454D01*
X11035D01*
X11035Y10454D01*
D02*
G37*
G36*
X11006Y10282D02*
X11000Y10197D01*
X10984Y10114D01*
X10956Y10033D01*
X10919Y9956D01*
X10871Y9886D01*
X10815Y9821D01*
X10751Y9765D01*
X10680Y9718D01*
X10604Y9680D01*
X10523Y9653D01*
X10439Y9636D01*
X10354Y9631D01*
X7644D01*
X7559Y9636D01*
X7476Y9653D01*
X7395Y9680D01*
X7318Y9718D01*
X7248Y9765D01*
X7183Y9821D01*
X7127Y9886D01*
X7080Y9956D01*
X7042Y10033D01*
X7015Y10114D01*
X6998Y10197D01*
X6993Y10282D01*
Y10810D01*
X11006Y10810D01*
X11006Y10282D01*
D02*
G37*
%LPC*%
G36*
X8784Y11361D02*
X8784D01*
X8784Y11361D01*
X8783Y11361D01*
X8782Y11361D01*
X8781Y11360D01*
X8780Y11360D01*
X8779Y11359D01*
X8777Y11359D01*
X8776Y11359D01*
X8774Y11358D01*
X8772Y11358D01*
X8770Y11357D01*
X8767Y11357D01*
X8765Y11356D01*
X8762Y11356D01*
X8759Y11355D01*
X8758D01*
X8758Y11355D01*
X8757D01*
X8755Y11355D01*
X8753Y11354D01*
X8751Y11354D01*
X8749Y11353D01*
X8747Y11353D01*
X8745Y11352D01*
X8745D01*
X8745Y11352D01*
X8744Y11351D01*
X8743Y11351D01*
X8741Y11349D01*
X8740Y11348D01*
X8739Y11347D01*
X8739Y11347D01*
X8739Y11347D01*
X8738Y11346D01*
X8738Y11345D01*
X8738Y11344D01*
X8737Y11343D01*
X8737Y11341D01*
X8737Y11340D01*
Y11339D01*
Y11339D01*
X8737Y11338D01*
X8738Y11336D01*
X8738Y11335D01*
X8739Y11333D01*
X8740Y11331D01*
X8742Y11330D01*
X8742Y11329D01*
X8742Y11329D01*
X8744Y11328D01*
X8745Y11328D01*
X8747Y11327D01*
X8749Y11326D01*
X8752Y11326D01*
X8755Y11325D01*
X8757D01*
X8758Y11326D01*
X8761Y11326D01*
X8763Y11326D01*
X8766Y11327D01*
X8768Y11328D01*
X8771Y11329D01*
X8771D01*
X8771Y11329D01*
X8772Y11330D01*
X8774Y11331D01*
X8775Y11332D01*
X8777Y11334D01*
X8778Y11335D01*
X8780Y11337D01*
X8781Y11340D01*
X8782Y11340D01*
X8782Y11341D01*
X8782Y11342D01*
X8783Y11344D01*
X8783Y11346D01*
X8784Y11349D01*
X8784Y11352D01*
X8784Y11355D01*
Y11361D01*
D02*
G37*
G36*
X10935Y13447D02*
X10935D01*
X10935Y13447D01*
X10934Y13447D01*
X10934Y13447D01*
X10932Y13447D01*
X10931Y13446D01*
X10929Y13446D01*
X10929Y13445D01*
X10928Y13445D01*
X10927Y13444D01*
X10926Y13443D01*
Y13443D01*
X10926Y13443D01*
X10926Y13443D01*
X10926Y13442D01*
X10925Y13442D01*
X10925Y13441D01*
X10925Y13441D01*
X10924Y13440D01*
X10924Y13439D01*
X10923Y13437D01*
X10923Y13434D01*
X10923Y13433D01*
X10923Y13432D01*
Y13432D01*
Y13432D01*
Y13431D01*
X10923Y13431D01*
Y13430D01*
X10923Y13430D01*
X10923Y13428D01*
X10923Y13427D01*
X10924Y13425D01*
X10925Y13424D01*
X10925Y13423D01*
X10926Y13422D01*
X10926D01*
X10926Y13422D01*
X10927Y13421D01*
X10928Y13421D01*
X10929Y13420D01*
X10930Y13419D01*
X10932Y13419D01*
X10933Y13418D01*
X10934Y13418D01*
X10935Y13418D01*
X10936D01*
X10936Y13418D01*
X10937D01*
X10937Y13418D01*
X10938Y13419D01*
X10940Y13419D01*
X10941Y13420D01*
X10943Y13421D01*
X10944Y13421D01*
X10944Y13422D01*
X10944Y13422D01*
X10944Y13422D01*
X10945Y13422D01*
X10945Y13423D01*
X10945Y13423D01*
X10945Y13424D01*
X10946Y13425D01*
X10947Y13426D01*
X10947Y13428D01*
X10948Y13430D01*
X10948Y13431D01*
Y13433D01*
Y13433D01*
Y13433D01*
Y13433D01*
X10948Y13434D01*
Y13434D01*
X10948Y13435D01*
X10947Y13437D01*
X10947Y13438D01*
X10946Y13440D01*
X10945Y13442D01*
X10945Y13443D01*
X10944Y13443D01*
Y13444D01*
X10944Y13444D01*
X10944Y13444D01*
X10943Y13445D01*
X10942Y13445D01*
X10941Y13446D01*
X10939Y13447D01*
X10937Y13447D01*
X10936Y13447D01*
X10935Y13447D01*
D02*
G37*
G36*
X7924Y11059D02*
X7923D01*
X7923Y11058D01*
X7922Y11058D01*
X7921Y11058D01*
X7919Y11057D01*
X7918Y11057D01*
X7917Y11056D01*
X7916Y11055D01*
X7916Y11055D01*
X7915Y11054D01*
X7915Y11054D01*
X7915Y11054D01*
X7915Y11053D01*
X7914Y11053D01*
X7914Y11052D01*
X7914Y11051D01*
X7913Y11050D01*
X7913Y11049D01*
X7913Y11048D01*
X7912Y11046D01*
X7912Y11044D01*
X7912Y11042D01*
X7911Y11040D01*
X7911Y11038D01*
X7911Y11035D01*
X7911Y11032D01*
Y11032D01*
Y11032D01*
Y11032D01*
Y11031D01*
X7911Y11030D01*
Y11029D01*
X7911Y11027D01*
X7911Y11026D01*
X7912Y11024D01*
X7912Y11020D01*
X7912Y11019D01*
X7913Y11017D01*
X7913Y11015D01*
X7914Y11014D01*
X7914Y11012D01*
X7915Y11011D01*
X7915Y11011D01*
X7915Y11011D01*
X7915Y11011D01*
X7915Y11011D01*
X7916Y11010D01*
X7917Y11009D01*
X7919Y11008D01*
X7920Y11007D01*
X7921Y11007D01*
X7922Y11006D01*
X7923Y11006D01*
X7924Y11006D01*
X7924D01*
X7925Y11006D01*
X7925Y11006D01*
X7926Y11006D01*
X7927Y11007D01*
X7928Y11007D01*
X7929Y11008D01*
X7930Y11008D01*
X7931Y11009D01*
X7931Y11010D01*
X7932Y11010D01*
X7933Y11011D01*
X7933Y11011D01*
X7933Y11012D01*
X7933Y11012D01*
X7933Y11012D01*
X7934Y11013D01*
X7934Y11014D01*
X7934Y11015D01*
X7935Y11016D01*
X7935Y11017D01*
X7935Y11019D01*
X7936Y11021D01*
X7936Y11022D01*
X7936Y11025D01*
X7936Y11027D01*
X7937Y11030D01*
Y11032D01*
Y11032D01*
Y11033D01*
Y11033D01*
Y11034D01*
X7937Y11035D01*
Y11036D01*
X7936Y11038D01*
X7936Y11039D01*
X7936Y11041D01*
X7936Y11044D01*
X7935Y11046D01*
X7935Y11048D01*
X7935Y11049D01*
X7934Y11051D01*
X7934Y11052D01*
X7933Y11053D01*
Y11053D01*
X7933Y11054D01*
X7933Y11054D01*
X7932Y11054D01*
X7931Y11055D01*
X7930Y11056D01*
X7929Y11057D01*
X7927Y11058D01*
X7927Y11058D01*
X7926Y11058D01*
X7925Y11058D01*
X7924Y11059D01*
D02*
G37*
G36*
X7874D02*
X7873D01*
X7873Y11058D01*
X7872Y11058D01*
X7871Y11058D01*
X7869Y11057D01*
X7868Y11057D01*
X7867Y11056D01*
X7867Y11055D01*
X7866Y11055D01*
X7865Y11054D01*
X7865Y11054D01*
X7865Y11054D01*
X7865Y11053D01*
X7865Y11053D01*
X7864Y11052D01*
X7864Y11051D01*
X7864Y11050D01*
X7863Y11049D01*
X7863Y11048D01*
X7863Y11046D01*
X7862Y11044D01*
X7862Y11042D01*
X7862Y11040D01*
X7861Y11038D01*
X7861Y11035D01*
X7861Y11032D01*
Y11032D01*
Y11032D01*
Y11032D01*
Y11031D01*
X7861Y11030D01*
Y11029D01*
X7861Y11027D01*
X7862Y11026D01*
X7862Y11024D01*
X7862Y11020D01*
X7862Y11019D01*
X7863Y11017D01*
X7863Y11015D01*
X7864Y11014D01*
X7864Y11012D01*
X7865Y11011D01*
X7865Y11011D01*
X7865Y11011D01*
X7865Y11011D01*
X7866Y11011D01*
X7866Y11010D01*
X7867Y11009D01*
X7869Y11008D01*
X7870Y11007D01*
X7871Y11007D01*
X7872Y11006D01*
X7873Y11006D01*
X7874Y11006D01*
X7875D01*
X7875Y11006D01*
X7875Y11006D01*
X7876Y11006D01*
X7877Y11007D01*
X7879Y11007D01*
X7879Y11008D01*
X7880Y11008D01*
X7881Y11009D01*
X7882Y11010D01*
X7882Y11010D01*
X7883Y11011D01*
X7883Y11011D01*
X7883Y11012D01*
X7883Y11012D01*
X7884Y11012D01*
X7884Y11013D01*
X7884Y11014D01*
X7885Y11015D01*
X7885Y11016D01*
X7885Y11017D01*
X7886Y11019D01*
X7886Y11021D01*
X7886Y11022D01*
X7887Y11025D01*
X7887Y11027D01*
X7887Y11030D01*
Y11032D01*
Y11032D01*
Y11033D01*
Y11033D01*
Y11034D01*
X7887Y11035D01*
Y11036D01*
X7887Y11038D01*
X7887Y11039D01*
X7886Y11041D01*
X7886Y11044D01*
X7886Y11046D01*
X7885Y11048D01*
X7885Y11049D01*
X7884Y11051D01*
X7884Y11052D01*
X7883Y11053D01*
Y11053D01*
X7883Y11054D01*
X7883Y11054D01*
X7882Y11054D01*
X7882Y11055D01*
X7881Y11056D01*
X7879Y11057D01*
X7878Y11058D01*
X7877Y11058D01*
X7876Y11058D01*
X7875Y11058D01*
X7874Y11059D01*
D02*
G37*
G36*
X8900Y11396D02*
X8899D01*
X8898Y11396D01*
X8897D01*
X8896Y11395D01*
X8894Y11395D01*
X8891Y11394D01*
X8888Y11393D01*
X8885Y11391D01*
X8883Y11390D01*
X8882Y11389D01*
X8882Y11388D01*
X8881Y11387D01*
X8880Y11386D01*
X8878Y11384D01*
X8877Y11381D01*
X8876Y11378D01*
X8875Y11374D01*
X8874Y11370D01*
X8925D01*
Y11370D01*
Y11370D01*
X8925Y11371D01*
X8925Y11372D01*
Y11372D01*
X8924Y11374D01*
X8924Y11376D01*
X8923Y11379D01*
X8922Y11382D01*
X8921Y11384D01*
X8919Y11387D01*
Y11387D01*
X8919Y11387D01*
X8918Y11388D01*
X8918Y11388D01*
X8916Y11390D01*
X8914Y11391D01*
X8911Y11393D01*
X8908Y11394D01*
X8904Y11395D01*
X8902Y11396D01*
X8900Y11396D01*
D02*
G37*
G36*
X7774Y11057D02*
X7756D01*
Y11034D01*
X7773D01*
X7773Y11034D01*
X7774D01*
X7775Y11035D01*
X7777Y11035D01*
X7778Y11035D01*
X7780Y11036D01*
X7782Y11036D01*
X7783Y11037D01*
X7784Y11037D01*
X7784Y11038D01*
X7784Y11038D01*
X7785Y11039D01*
X7785Y11040D01*
X7786Y11041D01*
X7787Y11042D01*
X7787Y11044D01*
X7787Y11046D01*
Y11046D01*
Y11046D01*
Y11047D01*
X7787Y11047D01*
X7787Y11048D01*
X7787Y11049D01*
X7786Y11051D01*
X7786Y11052D01*
X7785Y11053D01*
X7785Y11053D01*
X7785Y11053D01*
X7784Y11054D01*
X7784Y11054D01*
X7783Y11055D01*
X7782Y11056D01*
X7781Y11056D01*
X7780Y11057D01*
X7780D01*
X7779Y11057D01*
X7779Y11057D01*
X7778Y11057D01*
X7777Y11057D01*
X7776Y11057D01*
X7774Y11057D01*
D02*
G37*
%LPD*%
D10*
X10932Y10170D02*
Y13170D01*
D14*
X10018Y11227D02*
X10069Y11277D01*
Y11560D01*
X10018Y11608D02*
X10069Y11560D01*
X7957Y11608D02*
X10018D01*
X7907Y11560D02*
X7957Y11608D01*
X7907Y11277D02*
Y11560D01*
Y11277D02*
X7957Y11227D01*
X10018D01*
X7737Y11539D02*
Y11659D01*
Y11177D02*
Y11297D01*
X10239Y11539D02*
Y11659D01*
Y11177D02*
Y11297D01*
X7082Y10122D02*
Y13221D01*
X7488Y9540D02*
Y9388D01*
X7564D01*
X7589Y9413D01*
Y9515D01*
X7564Y9540D01*
X7488D01*
X7640D02*
Y9413D01*
X7666Y9388D01*
X7716D01*
X7742Y9413D01*
Y9540D01*
X7793D02*
X7894D01*
X7843D01*
Y9388D01*
X13739Y13937D02*
X13713Y13962D01*
X13663D01*
X13637Y13937D01*
Y13835D01*
X13663Y13810D01*
X13713D01*
X13739Y13835D01*
Y13886D01*
X13688D01*
X13866Y13962D02*
X13815D01*
X13790Y13937D01*
Y13835D01*
X13815Y13810D01*
X13866D01*
X13891Y13835D01*
Y13937D01*
X13866Y13962D01*
X13942D02*
Y13810D01*
X14044D01*
X14094Y13962D02*
Y13810D01*
X14170D01*
X14196Y13835D01*
Y13937D01*
X14170Y13962D01*
X14094D01*
X14348D02*
X14247D01*
Y13810D01*
X14348D01*
X14247Y13886D02*
X14297D01*
X14399Y13810D02*
Y13962D01*
X14501Y13810D01*
Y13962D01*
D25*
X10620Y10170D02*
G03*
X10620Y10170I-112J0D01*
G01*
X7620Y13170D02*
G03*
X7620Y13170I-112J0D01*
G01*
Y10170D02*
G03*
X7620Y10170I-112J0D01*
G01*
X10620Y13170D02*
G03*
X10620Y13170I-112J0D01*
G01*
D26*
X11740Y15491D02*
G03*
X11645Y15585I-95J-0D01*
G01*
Y15396D02*
G03*
X11740Y15491I-0J95D01*
G01*
X11645Y15428D02*
G03*
X11708Y15491I-0J63D01*
G01*
Y15491D02*
G03*
X11645Y15554I-63J-0D01*
G01*
X11527Y15459D02*
G03*
X11496Y15490I-32J-0D01*
G01*
X11496Y15427D02*
G03*
X11527Y15459I-0J32D01*
G01*
X11496Y15395D02*
G03*
X11559Y15459I-0J64D01*
G01*
Y15459D02*
G03*
X11498Y15522I-64J-0D01*
G01*
X11842Y15490D02*
G03*
X11873Y15522I-0J32D01*
G01*
X11873D02*
G03*
X11842Y15553I-32J-0D01*
G01*
X11905Y15522D02*
G03*
X11842Y15585I-64J-0D01*
G01*
X11844Y15458D02*
G03*
X11905Y15522I-2J63D01*
G01*
X11589Y15396D02*
X11645D01*
X11589D02*
Y15428D01*
X11589D01*
X11589Y15490D02*
X11589Y15428D01*
X11589Y15490D02*
X11621D01*
Y15428D02*
Y15490D01*
Y15428D02*
X11645Y15428D01*
X11594Y15554D02*
X11645D01*
X11594D02*
Y15585D01*
X11645D01*
X11516Y15585D02*
X11561D01*
X11421Y15490D02*
X11516Y15585D01*
X11421Y15490D02*
X11496D01*
X11421Y15427D02*
X11496D01*
X11421Y15395D02*
Y15427D01*
Y15395D02*
X11496D01*
X11498Y15522D02*
X11561Y15585D01*
X11421Y15535D02*
X11472Y15585D01*
X11421D02*
X11472D01*
X11421Y15535D02*
Y15585D01*
X11862Y15395D02*
X11907D01*
X11767Y15490D02*
X11862Y15395D01*
X11767Y15490D02*
X11842D01*
X11767Y15553D02*
X11842D01*
X11767D02*
Y15585D01*
X11842Y15585D01*
X11844Y15458D02*
X11907Y15395D01*
X11767Y15445D02*
X11818Y15395D01*
X11767D02*
X11818D01*
X11767D02*
Y15445D01*
D27*
X11606Y8517D02*
G03*
X11352Y8771I-254J-0D01*
G01*
X11352Y8263D02*
G03*
X11606Y8517I-0J254D01*
G01*
X11352Y8348D02*
G03*
X11521Y8517I-0J169D01*
G01*
D02*
G03*
X11352Y8686I-169J-0D01*
G01*
X11038Y8431D02*
G03*
X10953Y8515I-85J-0D01*
G01*
X10953Y8346D02*
G03*
X11038Y8431I-0J85D01*
G01*
X10953Y8261D02*
G03*
X11123Y8431I-0J170D01*
G01*
Y8431D02*
G03*
X10959Y8601I-170J-0D01*
G01*
X11880Y8515D02*
G03*
X11964Y8600I-0J85D01*
G01*
Y8600D02*
G03*
X11880Y8685I-85J-0D01*
G01*
X12050Y8600D02*
G03*
X11880Y8770I-170J-0D01*
G01*
X11886Y8430D02*
G03*
X12050Y8600I-7J170D01*
G01*
X11203Y8263D02*
X11352D01*
X11203D02*
Y8348D01*
X11203D01*
Y8515D01*
X11288D01*
Y8348D02*
Y8515D01*
Y8348D02*
X11352D01*
X11216Y8686D02*
X11352D01*
X11216D02*
Y8771D01*
X11352D01*
X11008Y8770D02*
X11129D01*
X10754Y8515D02*
X11008Y8770D01*
X10754Y8515D02*
X10953D01*
X10754Y8346D02*
X10953D01*
X10754Y8261D02*
Y8346D01*
Y8261D02*
X10953D01*
X10959Y8601D02*
X11129Y8770D01*
X10754Y8635D02*
X10889Y8770D01*
X10754D02*
X10889D01*
X10754Y8635D02*
Y8770D01*
X11935Y8261D02*
X12055D01*
X11680Y8515D02*
X11935Y8261D01*
X11680Y8515D02*
X11880D01*
X11680Y8685D02*
X11880D01*
X11680D02*
Y8770D01*
X11880D01*
X11886Y8430D02*
X12055Y8261D01*
X11680Y8396D02*
X11815Y8261D01*
X11680D02*
X11815D01*
X11680D02*
Y8396D01*
D28*
X8235Y11852D02*
Y11898D01*
X8258Y11922D01*
X8281Y11898D01*
Y11852D01*
Y11887D01*
X8235D01*
X8305Y11852D02*
Y11922D01*
X8340D01*
X8351Y11910D01*
Y11887D01*
X8340Y11875D01*
X8305D01*
X8375Y11852D02*
Y11922D01*
X8398Y11898D01*
X8421Y11922D01*
Y11852D01*
X8515Y11922D02*
X8561D01*
X8538D01*
Y11852D01*
X8585Y11898D02*
Y11863D01*
X8596Y11852D01*
X8631D01*
Y11840D01*
X8620Y11828D01*
X8608D01*
X8631Y11852D02*
Y11898D01*
X8655Y11828D02*
Y11898D01*
X8690D01*
X8701Y11887D01*
Y11863D01*
X8690Y11852D01*
X8655D01*
X8760D02*
X8736D01*
X8725Y11863D01*
Y11887D01*
X8736Y11898D01*
X8760D01*
X8771Y11887D01*
Y11875D01*
X8725D01*
X8794Y11887D02*
X8841D01*
X8864Y11852D02*
Y11898D01*
X8888Y11922D01*
X8911Y11898D01*
Y11852D01*
Y11887D01*
X8864D01*
X9051Y11910D02*
X9039Y11922D01*
X9016D01*
X9004Y11910D01*
Y11863D01*
X9016Y11852D01*
X9039D01*
X9051Y11863D01*
X9086Y11852D02*
X9109D01*
X9121Y11863D01*
Y11887D01*
X9109Y11898D01*
X9086D01*
X9074Y11887D01*
Y11863D01*
X9086Y11852D01*
X9144D02*
Y11898D01*
X9179D01*
X9191Y11887D01*
Y11852D01*
X9214D02*
Y11898D01*
X9249D01*
X9261Y11887D01*
Y11852D01*
X9319D02*
X9296D01*
X9284Y11863D01*
Y11887D01*
X9296Y11898D01*
X9319D01*
X9331Y11887D01*
Y11875D01*
X9284D01*
X9401Y11898D02*
X9366D01*
X9354Y11887D01*
Y11863D01*
X9366Y11852D01*
X9401D01*
X9436Y11910D02*
Y11898D01*
X9424D01*
X9448D01*
X9436D01*
Y11863D01*
X9448Y11852D01*
X9494D02*
X9518D01*
X9529Y11863D01*
Y11887D01*
X9518Y11898D01*
X9494D01*
X9483Y11887D01*
Y11863D01*
X9494Y11852D01*
X9553Y11898D02*
Y11852D01*
Y11875D01*
X9564Y11887D01*
X9576Y11898D01*
X9588D01*
D29*
X7329Y11394D02*
D03*
D30*
X10654Y11487D02*
D03*
M02*
