G04 Layer_Color=2752767*
%FSLAX42Y42*%
%MOMM*%
G71*
G01*
G75*
%ADD45C,0.05*%
%ADD46C,0.07*%
D45*
X14069Y15415D02*
Y15456D01*
X14110D01*
Y15415D01*
X14069D01*
X13122Y15428D02*
Y15469D01*
X13162D01*
Y15428D01*
X13122D01*
X7887Y11207D02*
X7866Y11248D01*
X7907D01*
X7887Y11207D01*
X10089D02*
X10069Y11248D01*
X10109D01*
X10089Y11207D01*
X14796Y14776D02*
X14806Y14786D01*
X14816D01*
X14806Y14796D01*
X14816Y14806D01*
X14806D01*
X14796Y14816D01*
X14786Y14806D01*
X14776D01*
X14786Y14796D01*
X14776Y14786D01*
X14786D01*
X14796Y14776D01*
X8204D02*
X8214Y14786D01*
X8224D01*
X8214Y14796D01*
X8224Y14806D01*
X8214D01*
X8204Y14816D01*
X8194Y14806D01*
X8184D01*
X8194Y14796D01*
X8184Y14786D01*
X8194D01*
X8204Y14776D01*
X14796Y8184D02*
X14806Y8194D01*
X14816D01*
X14806Y8204D01*
X14816Y8214D01*
X14806D01*
X14796Y8224D01*
X14786Y8214D01*
X14776D01*
X14786Y8204D01*
X14776Y8194D01*
X14786D01*
X14796Y8184D01*
X8204Y8184D02*
X8214Y8194D01*
X8224D01*
X8214Y8204D01*
X8224Y8214D01*
X8214D01*
X8204Y8224D01*
X8194Y8214D01*
X8184D01*
X8194Y8204D01*
X8184Y8194D01*
X8194D01*
X8204Y8184D01*
X10069Y11207D02*
X10079Y11227D01*
X10069Y11248D01*
X10089Y11237D01*
X10109Y11248D01*
X10099Y11227D01*
X10109Y11207D01*
X10089Y11217D01*
X10069Y11207D01*
X7866D02*
X7876Y11227D01*
X7866Y11248D01*
X7887Y11237D01*
X7907Y11248D01*
X7897Y11227D01*
X7907Y11207D01*
X7887Y11217D01*
X7866Y11207D01*
X8998Y13560D02*
Y13550D01*
X9018D01*
Y13560D01*
X9028D01*
Y13580D01*
X9018D01*
Y13590D01*
X8998D01*
Y13580D01*
X8988D01*
Y13560D01*
X8998D01*
X11480Y11480D02*
X11490D01*
X11500Y11490D01*
X11510Y11480D01*
X11520D01*
Y11490D01*
X11510Y11500D01*
X11520Y11510D01*
Y11520D01*
X11510D01*
X11500Y11510D01*
X11490Y11520D01*
X11480D01*
Y11510D01*
X11490Y11500D01*
X11480Y11490D01*
Y11480D01*
X8878Y7637D02*
X8898Y7657D01*
X8919Y7637D01*
X8898Y7617D01*
X8878Y7637D01*
X8998Y9760D02*
Y9750D01*
X9018D01*
Y9760D01*
X9028D01*
Y9780D01*
X9018D01*
Y9790D01*
X8998D01*
Y9780D01*
X8988D01*
Y9760D01*
X8998D01*
X8142Y11252D02*
Y11292D01*
X8182D01*
Y11252D01*
X8142D01*
X8152Y11262D02*
Y11282D01*
X8172D01*
Y11262D01*
X8152D01*
X8047Y11333D02*
Y11374D01*
X8087D01*
Y11333D01*
X8047D01*
X8057Y11344D02*
Y11364D01*
X8077D01*
Y11344D01*
X8057D01*
X7988Y11016D02*
Y11057D01*
X8029D01*
Y11016D01*
X7988D01*
X7998Y11026D02*
Y11046D01*
X8019D01*
Y11026D01*
X7998D01*
X8290Y10940D02*
Y10980D01*
X8331D01*
Y10940D01*
X8290D01*
X8300Y10950D02*
Y10970D01*
X8320D01*
Y10950D01*
X8300D01*
X8188Y11016D02*
Y11057D01*
X8229D01*
Y11016D01*
X8188D01*
X8198Y11026D02*
Y11046D01*
X8219D01*
Y11026D01*
X8198D01*
X8247Y11333D02*
Y11374D01*
X8287D01*
Y11333D01*
X8247D01*
X8257Y11344D02*
Y11364D01*
X8277D01*
Y11344D01*
X8257D01*
X8342Y11252D02*
Y11292D01*
X8382D01*
Y11252D01*
X8342D01*
X8352Y11262D02*
Y11282D01*
X8372D01*
Y11262D01*
X8352D01*
X8490Y10940D02*
Y10980D01*
X8531D01*
Y10940D01*
X8490D01*
X8500Y10950D02*
Y10970D01*
X8520D01*
Y10950D01*
X8500D01*
X8388Y11016D02*
Y11057D01*
X8429D01*
Y11016D01*
X8388D01*
X8398Y11026D02*
Y11046D01*
X8419D01*
Y11026D01*
X8398D01*
X8447Y11333D02*
Y11374D01*
X8487D01*
Y11333D01*
X8447D01*
X8457Y11344D02*
Y11364D01*
X8477D01*
Y11344D01*
X8457D01*
X8542Y11252D02*
Y11292D01*
X8582D01*
Y11252D01*
X8542D01*
X8552Y11262D02*
Y11282D01*
X8572D01*
Y11262D01*
X8552D01*
X8690Y10940D02*
Y10980D01*
X8731D01*
Y10940D01*
X8690D01*
X8700Y10950D02*
Y10970D01*
X8720D01*
Y10950D01*
X8700D01*
X8588Y11016D02*
Y11057D01*
X8629D01*
Y11016D01*
X8588D01*
X8598Y11026D02*
Y11046D01*
X8619D01*
Y11026D01*
X8598D01*
X8647Y11333D02*
Y11374D01*
X8687D01*
Y11333D01*
X8647D01*
X8657Y11344D02*
Y11364D01*
X8677D01*
Y11344D01*
X8657D01*
X8742Y11252D02*
Y11292D01*
X8782D01*
Y11252D01*
X8742D01*
X8752Y11262D02*
Y11282D01*
X8772D01*
Y11262D01*
X8752D01*
X8890Y10940D02*
Y10980D01*
X8931D01*
Y10940D01*
X8890D01*
X8900Y10950D02*
Y10970D01*
X8920D01*
Y10950D01*
X8900D01*
X8788Y11016D02*
Y11057D01*
X8829D01*
Y11016D01*
X8788D01*
X8798Y11026D02*
Y11046D01*
X8819D01*
Y11026D01*
X8798D01*
X8847Y11333D02*
Y11374D01*
X8887D01*
Y11333D01*
X8847D01*
X8857Y11344D02*
Y11364D01*
X8877D01*
Y11344D01*
X8857D01*
X8942Y11252D02*
Y11292D01*
X8982D01*
Y11252D01*
X8942D01*
X8952Y11262D02*
Y11282D01*
X8972D01*
Y11262D01*
X8952D01*
X9090Y10940D02*
Y10980D01*
X9131D01*
Y10940D01*
X9090D01*
X9100Y10950D02*
Y10970D01*
X9121D01*
Y10950D01*
X9100D01*
X8989Y11016D02*
Y11057D01*
X9029D01*
Y11016D01*
X8989D01*
X8999Y11026D02*
Y11046D01*
X9019D01*
Y11026D01*
X8999D01*
X9047Y11333D02*
Y11374D01*
X9088D01*
Y11333D01*
X9047D01*
X9057Y11344D02*
Y11364D01*
X9078D01*
Y11344D01*
X9057D01*
X9142Y11252D02*
Y11292D01*
X9183D01*
Y11252D01*
X9142D01*
X9152Y11262D02*
Y11282D01*
X9173D01*
Y11262D01*
X9152D01*
X9291Y10940D02*
Y10980D01*
X9332D01*
Y10940D01*
X9291D01*
X9301Y10950D02*
Y10970D01*
X9321D01*
Y10950D01*
X9301D01*
X9189Y11016D02*
Y11057D01*
X9230D01*
Y11016D01*
X9189D01*
X9200Y11026D02*
Y11046D01*
X9220D01*
Y11026D01*
X9200D01*
X9248Y11333D02*
Y11374D01*
X9288D01*
Y11333D01*
X9248D01*
X9258Y11344D02*
Y11364D01*
X9278D01*
Y11344D01*
X9258D01*
X9343Y11252D02*
Y11292D01*
X9384D01*
Y11252D01*
X9343D01*
X9353Y11262D02*
Y11282D01*
X9373D01*
Y11262D01*
X9353D01*
X9492Y10940D02*
Y10980D01*
X9532D01*
Y10940D01*
X9492D01*
X9502Y10950D02*
Y10970D01*
X9522D01*
Y10950D01*
X9502D01*
X9390Y11016D02*
Y11057D01*
X9431D01*
Y11016D01*
X9390D01*
X9400Y11026D02*
Y11046D01*
X9421D01*
Y11026D01*
X9400D01*
X9448Y11333D02*
Y11374D01*
X9489D01*
Y11333D01*
X9448D01*
X9459Y11344D02*
Y11364D01*
X9479D01*
Y11344D01*
X9459D01*
X9544Y11252D02*
Y11292D01*
X9584D01*
Y11252D01*
X9544D01*
X9554Y11262D02*
Y11282D01*
X9574D01*
Y11262D01*
X9554D01*
X9692Y10940D02*
Y10980D01*
X9733D01*
Y10940D01*
X9692D01*
X9702Y10950D02*
Y10970D01*
X9723D01*
Y10950D01*
X9702D01*
X9591Y11016D02*
Y11057D01*
X9631D01*
Y11016D01*
X9591D01*
X9601Y11026D02*
Y11046D01*
X9621D01*
Y11026D01*
X9601D01*
X9649Y11333D02*
Y11374D01*
X9690D01*
Y11333D01*
X9649D01*
X9659Y11344D02*
Y11364D01*
X9680D01*
Y11344D01*
X9659D01*
X9744Y11252D02*
Y11292D01*
X9785D01*
Y11252D01*
X9744D01*
X9754Y11262D02*
Y11282D01*
X9775D01*
Y11262D01*
X9754D01*
X9890Y10940D02*
Y10980D01*
X9931D01*
Y10940D01*
X9890D01*
X9901Y10950D02*
Y10970D01*
X9921D01*
Y10950D01*
X9901D01*
X9789Y11016D02*
Y11057D01*
X9829D01*
Y11016D01*
X9789D01*
X9799Y11026D02*
Y11046D01*
X9819D01*
Y11026D01*
X9799D01*
X9847Y11333D02*
Y11374D01*
X9888D01*
Y11333D01*
X9847D01*
X9857Y11344D02*
Y11364D01*
X9878D01*
Y11344D01*
X9857D01*
X9942Y11252D02*
Y11292D01*
X9983D01*
Y11252D01*
X9942D01*
X9952Y11262D02*
Y11282D01*
X9973D01*
Y11262D01*
X9952D01*
X9843Y11856D02*
Y11897D01*
X9884D01*
Y11856D01*
X9843D01*
X9853Y11866D02*
Y11886D01*
X9873D01*
Y11866D01*
X9853D01*
X9944Y11780D02*
Y11820D01*
X9985D01*
Y11780D01*
X9944D01*
X9955Y11790D02*
Y11810D01*
X9975D01*
Y11790D01*
X9955D01*
X9886Y11462D02*
Y11503D01*
X9927D01*
Y11462D01*
X9886D01*
X9896Y11472D02*
Y11493D01*
X9917D01*
Y11472D01*
X9896D01*
X9791Y11544D02*
Y11585D01*
X9832D01*
Y11544D01*
X9791D01*
X9801Y11554D02*
Y11574D01*
X9821D01*
Y11554D01*
X9801D01*
X9645Y11856D02*
Y11897D01*
X9685D01*
Y11856D01*
X9645D01*
X9655Y11866D02*
Y11886D01*
X9675D01*
Y11866D01*
X9655D01*
X9746Y11780D02*
Y11820D01*
X9787D01*
Y11780D01*
X9746D01*
X9757Y11790D02*
Y11810D01*
X9777D01*
Y11790D01*
X9757D01*
X9688Y11462D02*
Y11503D01*
X9729D01*
Y11462D01*
X9688D01*
X9698Y11472D02*
Y11493D01*
X9718D01*
Y11472D01*
X9698D01*
X9593Y11544D02*
Y11585D01*
X9634D01*
Y11544D01*
X9593D01*
X9603Y11554D02*
Y11574D01*
X9623D01*
Y11554D01*
X9603D01*
X9444Y11856D02*
Y11897D01*
X9485D01*
Y11856D01*
X9444D01*
X9454Y11866D02*
Y11886D01*
X9475D01*
Y11866D01*
X9454D01*
X9546Y11780D02*
Y11820D01*
X9586D01*
Y11780D01*
X9546D01*
X9556Y11790D02*
Y11810D01*
X9576D01*
Y11790D01*
X9556D01*
X9487Y11462D02*
Y11503D01*
X9528D01*
Y11462D01*
X9487D01*
X9497Y11472D02*
Y11493D01*
X9518D01*
Y11472D01*
X9497D01*
X9392Y11544D02*
Y11585D01*
X9433D01*
Y11544D01*
X9392D01*
X9402Y11554D02*
Y11574D01*
X9423D01*
Y11554D01*
X9402D01*
X9243Y11856D02*
Y11897D01*
X9284D01*
Y11856D01*
X9243D01*
X9254Y11866D02*
Y11886D01*
X9274D01*
Y11866D01*
X9254D01*
X9345Y11780D02*
Y11820D01*
X9386D01*
Y11780D01*
X9345D01*
X9355Y11790D02*
Y11810D01*
X9376D01*
Y11790D01*
X9355D01*
X9287Y11462D02*
Y11503D01*
X9327D01*
Y11462D01*
X9287D01*
X9297Y11472D02*
Y11493D01*
X9317D01*
Y11472D01*
X9297D01*
X9192Y11544D02*
Y11585D01*
X9232D01*
Y11544D01*
X9192D01*
X9202Y11554D02*
Y11574D01*
X9222D01*
Y11554D01*
X9202D01*
X9043Y11856D02*
Y11897D01*
X9083D01*
Y11856D01*
X9043D01*
X9053Y11866D02*
Y11886D01*
X9073D01*
Y11866D01*
X9053D01*
X9144Y11780D02*
Y11820D01*
X9185D01*
Y11780D01*
X9144D01*
X9155Y11790D02*
Y11810D01*
X9175D01*
Y11790D01*
X9155D01*
X9086Y11462D02*
Y11503D01*
X9127D01*
Y11462D01*
X9086D01*
X9096Y11472D02*
Y11493D01*
X9116D01*
Y11472D01*
X9096D01*
X8991Y11544D02*
Y11585D01*
X9032D01*
Y11544D01*
X8991D01*
X9001Y11554D02*
Y11574D01*
X9021D01*
Y11554D01*
X9001D01*
X8843Y11856D02*
Y11897D01*
X8883D01*
Y11856D01*
X8843D01*
X8853Y11866D02*
Y11886D01*
X8873D01*
Y11866D01*
X8853D01*
X8944Y11780D02*
Y11820D01*
X8985D01*
Y11780D01*
X8944D01*
X8954Y11790D02*
Y11810D01*
X8975D01*
Y11790D01*
X8954D01*
X8886Y11462D02*
Y11503D01*
X8926D01*
Y11462D01*
X8886D01*
X8896Y11472D02*
Y11493D01*
X8916D01*
Y11472D01*
X8896D01*
X8791Y11544D02*
Y11585D01*
X8831D01*
Y11544D01*
X8791D01*
X8801Y11554D02*
Y11574D01*
X8821D01*
Y11554D01*
X8801D01*
X8643Y11856D02*
Y11897D01*
X8683D01*
Y11856D01*
X8643D01*
X8653Y11866D02*
Y11886D01*
X8673D01*
Y11866D01*
X8653D01*
X8744Y11780D02*
Y11820D01*
X8785D01*
Y11780D01*
X8744D01*
X8754Y11790D02*
Y11810D01*
X8775D01*
Y11790D01*
X8754D01*
X8686Y11462D02*
Y11503D01*
X8726D01*
Y11462D01*
X8686D01*
X8696Y11472D02*
Y11493D01*
X8716D01*
Y11472D01*
X8696D01*
X8591Y11544D02*
Y11585D01*
X8631D01*
Y11544D01*
X8591D01*
X8601Y11554D02*
Y11574D01*
X8621D01*
Y11554D01*
X8601D01*
X8443Y11856D02*
Y11897D01*
X8483D01*
Y11856D01*
X8443D01*
X8453Y11866D02*
Y11886D01*
X8473D01*
Y11866D01*
X8453D01*
X8544Y11780D02*
Y11820D01*
X8585D01*
Y11780D01*
X8544D01*
X8554Y11790D02*
Y11810D01*
X8575D01*
Y11790D01*
X8554D01*
X8486Y11462D02*
Y11503D01*
X8526D01*
Y11462D01*
X8486D01*
X8496Y11472D02*
Y11493D01*
X8516D01*
Y11472D01*
X8496D01*
X8391Y11544D02*
Y11585D01*
X8431D01*
Y11544D01*
X8391D01*
X8401Y11554D02*
Y11574D01*
X8421D01*
Y11554D01*
X8401D01*
X8243Y11856D02*
Y11897D01*
X8283D01*
Y11856D01*
X8243D01*
X8253Y11866D02*
Y11886D01*
X8273D01*
Y11866D01*
X8253D01*
X8344Y11780D02*
Y11820D01*
X8385D01*
Y11780D01*
X8344D01*
X8354Y11790D02*
Y11810D01*
X8375D01*
Y11790D01*
X8354D01*
X8286Y11462D02*
Y11503D01*
X8326D01*
Y11462D01*
X8286D01*
X8296Y11472D02*
Y11493D01*
X8316D01*
Y11472D01*
X8296D01*
X8191Y11544D02*
Y11585D01*
X8231D01*
Y11544D01*
X8191D01*
X8201Y11554D02*
Y11574D01*
X8221D01*
Y11554D01*
X8201D01*
X8043Y11856D02*
Y11897D01*
X8083D01*
Y11856D01*
X8043D01*
X8053Y11866D02*
Y11886D01*
X8073D01*
Y11866D01*
X8053D01*
X8144Y11780D02*
Y11820D01*
X8185D01*
Y11780D01*
X8144D01*
X8154Y11790D02*
Y11810D01*
X8175D01*
Y11790D01*
X8154D01*
X8086Y11462D02*
Y11503D01*
X8126D01*
Y11462D01*
X8086D01*
X8096Y11472D02*
Y11493D01*
X8116D01*
Y11472D01*
X8096D01*
X7991Y11544D02*
Y11585D01*
X8031D01*
Y11544D01*
X7991D01*
X8001Y11554D02*
Y11574D01*
X8021D01*
Y11554D01*
X8001D01*
X8090Y10940D02*
Y10980D01*
X8131D01*
Y10940D01*
X8090D01*
X8100Y10950D02*
Y10970D01*
X8120D01*
Y10950D01*
X8100D01*
D46*
X10528Y10170D02*
G03*
X10528Y10170I-20J0D01*
G01*
X7529Y13170D02*
G03*
X7529Y13170I-20J0D01*
G01*
Y10170D02*
G03*
X7529Y10170I-20J0D01*
G01*
X10528Y13170D02*
G03*
X10528Y13170I-20J0D01*
G01*
M02*
