G04 Layer_Color=128*
%FSLAX42Y42*%
%MOMM*%
G71*
G01*
G75*
%ADD31R,0.30X1.17*%
G04:AMPARAMS|DCode=32|XSize=0.3mm|YSize=1.17mm|CornerRadius=0.15mm|HoleSize=0mm|Usage=FLASHONLY|Rotation=0.000|XOffset=0mm|YOffset=0mm|HoleType=Round|Shape=RoundedRectangle|*
%AMROUNDEDRECTD32*
21,1,0.30,0.86,0,0,0.0*
21,1,0.00,1.17,0,0,0.0*
1,1,0.30,0.00,-0.43*
1,1,0.30,0.00,-0.43*
1,1,0.30,0.00,0.43*
1,1,0.30,0.00,0.43*
%
%ADD32ROUNDEDRECTD32*%
%ADD33R,1.47X2.16*%
D31*
X9964Y11157D02*
D03*
X9914D02*
D03*
X9864D02*
D03*
X9814D02*
D03*
X9764D02*
D03*
X9714D02*
D03*
X9664D02*
D03*
X9614D02*
D03*
X9564D02*
D03*
X9514D02*
D03*
X9464D02*
D03*
X9414D02*
D03*
X9364D02*
D03*
X9314D02*
D03*
X9264D02*
D03*
X9214D02*
D03*
X9164D02*
D03*
X9114D02*
D03*
X9064Y11157D02*
D03*
X9014Y11157D02*
D03*
X8963D02*
D03*
X8913D02*
D03*
X8862D02*
D03*
X8814D02*
D03*
X8763D02*
D03*
X8712D02*
D03*
X8664D02*
D03*
X8613D02*
D03*
X8562D02*
D03*
X8511D02*
D03*
X9914Y11679D02*
D03*
X9864D02*
D03*
X9814D02*
D03*
X9764D02*
D03*
X9714D02*
D03*
X9664D02*
D03*
X9614D02*
D03*
X9564D02*
D03*
X9514D02*
D03*
X9464D02*
D03*
X9414D02*
D03*
X9364D02*
D03*
X9314D02*
D03*
X9264D02*
D03*
X9214D02*
D03*
X9164D02*
D03*
X9114D02*
D03*
X9064D02*
D03*
X9014D02*
D03*
X8964D02*
D03*
X8913D02*
D03*
X8862D02*
D03*
X8814D02*
D03*
X8763D02*
D03*
X8712D02*
D03*
X8664D02*
D03*
X8613D02*
D03*
X8562D02*
D03*
X8511D02*
D03*
X8463D02*
D03*
X8463Y11157D02*
D03*
X8412Y11679D02*
D03*
Y11157D02*
D03*
X8362Y11679D02*
D03*
Y11157D02*
D03*
X8313Y11679D02*
D03*
X8313Y11157D02*
D03*
X8262Y11679D02*
D03*
Y11157D02*
D03*
X8212Y11679D02*
D03*
Y11157D02*
D03*
X8163Y11679D02*
D03*
X8163Y11157D02*
D03*
X8113Y11679D02*
D03*
Y11157D02*
D03*
X8062Y11679D02*
D03*
Y11157D02*
D03*
X8014Y11679D02*
D03*
X8014Y11157D02*
D03*
D32*
X9964Y11679D02*
D03*
D33*
X10189Y11417D02*
D03*
X7787Y11417D02*
D03*
M02*
