G04 Layer_Color=128*
%FSLAX42Y42*%
%MOMM*%
G71*
G01*
G75*
%ADD45C,0.05*%
D45*
X13659Y15436D02*
X14519D01*
X14089Y15006D02*
Y15866D01*
X12712Y15448D02*
X13572D01*
X13142Y15018D02*
Y15878D01*
X10418Y10170D02*
X10598D01*
X10508Y10080D02*
Y10260D01*
X7418Y13170D02*
X7598D01*
X7508Y13080D02*
Y13260D01*
X7418Y10170D02*
X7598D01*
X7508Y10080D02*
Y10260D01*
X10418Y13170D02*
X10598D01*
X10508Y13080D02*
Y13260D01*
X7854Y11227D02*
X7920D01*
X7887Y11194D02*
Y11260D01*
X10056Y11227D02*
X10122D01*
X10089Y11194D02*
Y11260D01*
X14596Y14796D02*
X14996D01*
X14796Y14596D02*
Y14996D01*
X8004Y14796D02*
X8404D01*
X8204Y14596D02*
Y14996D01*
X14596Y8204D02*
X14996D01*
X14796Y8004D02*
Y8404D01*
X8004Y8204D02*
X8404D01*
X8204Y8004D02*
Y8404D01*
X10056Y11227D02*
X10122D01*
X10089Y11194D02*
Y11260D01*
X7854Y11227D02*
X7920D01*
X7887Y11194D02*
Y11260D01*
X8008Y13570D02*
X10008D01*
X9008Y12570D02*
Y14570D01*
X11250Y11500D02*
X11750D01*
X11500Y11250D02*
Y11750D01*
X8416Y7637D02*
X9380D01*
X8898Y7155D02*
Y8119D01*
X8008Y9770D02*
X10008D01*
X9008Y8770D02*
Y10770D01*
X8127Y11272D02*
X8197D01*
X8162Y11237D02*
Y11307D01*
X8032Y11354D02*
X8102D01*
X8067Y11319D02*
Y11389D01*
X7974Y11036D02*
X8044D01*
X8009Y11001D02*
Y11071D01*
X8275Y10960D02*
X8345D01*
X8310Y10925D02*
Y10995D01*
X8174Y11036D02*
X8244D01*
X8209Y11001D02*
Y11071D01*
X8232Y11354D02*
X8302D01*
X8267Y11319D02*
Y11389D01*
X8327Y11272D02*
X8397D01*
X8362Y11237D02*
Y11307D01*
X8475Y10960D02*
X8545D01*
X8510Y10925D02*
Y10995D01*
X8374Y11036D02*
X8444D01*
X8409Y11001D02*
Y11071D01*
X8432Y11354D02*
X8502D01*
X8467Y11319D02*
Y11389D01*
X8527Y11272D02*
X8597D01*
X8562Y11237D02*
Y11307D01*
X8675Y10960D02*
X8745D01*
X8710Y10925D02*
Y10995D01*
X8574Y11036D02*
X8644D01*
X8609Y11001D02*
Y11071D01*
X8632Y11354D02*
X8702D01*
X8667Y11319D02*
Y11389D01*
X8727Y11272D02*
X8797D01*
X8762Y11237D02*
Y11307D01*
X8875Y10960D02*
X8945D01*
X8910Y10925D02*
Y10995D01*
X8774Y11036D02*
X8844D01*
X8809Y11001D02*
Y11071D01*
X8832Y11354D02*
X8902D01*
X8867Y11319D02*
Y11389D01*
X8927Y11272D02*
X8997D01*
X8962Y11237D02*
Y11307D01*
X9076Y10960D02*
X9146D01*
X9111Y10925D02*
Y10995D01*
X8974Y11036D02*
X9044D01*
X9009Y11001D02*
Y11071D01*
X9032Y11354D02*
X9102D01*
X9067Y11319D02*
Y11389D01*
X9128Y11272D02*
X9198D01*
X9163Y11237D02*
Y11307D01*
X9276Y10960D02*
X9346D01*
X9311Y10925D02*
Y10995D01*
X9175Y11036D02*
X9245D01*
X9210Y11001D02*
Y11071D01*
X9233Y11354D02*
X9303D01*
X9268Y11319D02*
Y11389D01*
X9328Y11272D02*
X9398D01*
X9363Y11237D02*
Y11307D01*
X9477Y10960D02*
X9547D01*
X9512Y10925D02*
Y10995D01*
X9375Y11036D02*
X9445D01*
X9410Y11001D02*
Y11071D01*
X9434Y11354D02*
X9504D01*
X9469Y11319D02*
Y11389D01*
X9529Y11272D02*
X9599D01*
X9564Y11237D02*
Y11307D01*
X9678Y10960D02*
X9748D01*
X9713Y10925D02*
Y10995D01*
X9576Y11036D02*
X9646D01*
X9611Y11001D02*
Y11071D01*
X9634Y11354D02*
X9704D01*
X9669Y11319D02*
Y11389D01*
X9730Y11272D02*
X9800D01*
X9765Y11237D02*
Y11307D01*
X9876Y10960D02*
X9946D01*
X9911Y10925D02*
Y10995D01*
X9774Y11036D02*
X9844D01*
X9809Y11001D02*
Y11071D01*
X9833Y11354D02*
X9903D01*
X9868Y11319D02*
Y11389D01*
X9928Y11272D02*
X9998D01*
X9963Y11237D02*
Y11307D01*
X9828Y11876D02*
X9898D01*
X9863Y11841D02*
Y11911D01*
X9930Y11800D02*
X10000D01*
X9965Y11765D02*
Y11835D01*
X9871Y11483D02*
X9941D01*
X9906Y11448D02*
Y11518D01*
X9776Y11564D02*
X9846D01*
X9811Y11529D02*
Y11599D01*
X9630Y11876D02*
X9700D01*
X9665Y11841D02*
Y11911D01*
X9732Y11800D02*
X9802D01*
X9767Y11765D02*
Y11835D01*
X9673Y11483D02*
X9743D01*
X9708Y11448D02*
Y11518D01*
X9578Y11564D02*
X9648D01*
X9613Y11529D02*
Y11599D01*
X9429Y11876D02*
X9499D01*
X9464Y11841D02*
Y11911D01*
X9531Y11800D02*
X9601D01*
X9566Y11765D02*
Y11835D01*
X9473Y11483D02*
X9543D01*
X9508Y11448D02*
Y11518D01*
X9378Y11564D02*
X9448D01*
X9413Y11529D02*
Y11599D01*
X9229Y11876D02*
X9299D01*
X9264Y11841D02*
Y11911D01*
X9330Y11800D02*
X9400D01*
X9365Y11765D02*
Y11835D01*
X9272Y11483D02*
X9342D01*
X9307Y11448D02*
Y11518D01*
X9177Y11564D02*
X9247D01*
X9212Y11529D02*
Y11599D01*
X9028Y11876D02*
X9098D01*
X9063Y11841D02*
Y11911D01*
X9130Y11800D02*
X9200D01*
X9165Y11765D02*
Y11835D01*
X9071Y11483D02*
X9141D01*
X9106Y11448D02*
Y11518D01*
X8976Y11564D02*
X9046D01*
X9011Y11529D02*
Y11599D01*
X8828Y11876D02*
X8898D01*
X8863Y11841D02*
Y11911D01*
X8929Y11800D02*
X8999D01*
X8964Y11765D02*
Y11835D01*
X8871Y11483D02*
X8941D01*
X8906Y11448D02*
Y11518D01*
X8776Y11564D02*
X8846D01*
X8811Y11529D02*
Y11599D01*
X8628Y11876D02*
X8698D01*
X8663Y11841D02*
Y11911D01*
X8729Y11800D02*
X8799D01*
X8764Y11765D02*
Y11835D01*
X8671Y11483D02*
X8741D01*
X8706Y11448D02*
Y11518D01*
X8576Y11564D02*
X8646D01*
X8611Y11529D02*
Y11599D01*
X8428Y11876D02*
X8498D01*
X8463Y11841D02*
Y11911D01*
X8529Y11800D02*
X8599D01*
X8564Y11765D02*
Y11835D01*
X8471Y11483D02*
X8541D01*
X8506Y11448D02*
Y11518D01*
X8376Y11564D02*
X8446D01*
X8411Y11529D02*
Y11599D01*
X8228Y11876D02*
X8298D01*
X8263Y11841D02*
Y11911D01*
X8329Y11800D02*
X8399D01*
X8364Y11765D02*
Y11835D01*
X8271Y11483D02*
X8341D01*
X8306Y11448D02*
Y11518D01*
X8176Y11564D02*
X8246D01*
X8211Y11529D02*
Y11599D01*
X8028Y11876D02*
X8098D01*
X8063Y11841D02*
Y11911D01*
X8129Y11800D02*
X8199D01*
X8164Y11765D02*
Y11835D01*
X8071Y11483D02*
X8141D01*
X8106Y11448D02*
Y11518D01*
X7976Y11564D02*
X8046D01*
X8011Y11529D02*
Y11599D01*
X8075Y10960D02*
X8145D01*
X8110Y10925D02*
Y10995D01*
M02*
