G04 Layer_Color=8421504*
%FSLAX42Y42*%
%MOMM*%
G71*
G01*
G75*
%ADD31R,0.30X1.17*%
G04:AMPARAMS|DCode=32|XSize=0.3mm|YSize=1.17mm|CornerRadius=0.15mm|HoleSize=0mm|Usage=FLASHONLY|Rotation=0.000|XOffset=0mm|YOffset=0mm|HoleType=Round|Shape=RoundedRectangle|*
%AMROUNDEDRECTD32*
21,1,0.30,0.86,0,0,0.0*
21,1,0.00,1.17,0,0,0.0*
1,1,0.30,0.00,-0.43*
1,1,0.30,0.00,-0.43*
1,1,0.30,0.00,0.43*
1,1,0.30,0.00,0.43*
%
%ADD32ROUNDEDRECTD32*%
%ADD33R,1.47X2.16*%
D31*
X9162Y11684D02*
D03*
X9213D02*
D03*
X9914D02*
D03*
X9863D02*
D03*
X9812D02*
D03*
X9764D02*
D03*
X9713D02*
D03*
X9662D02*
D03*
X9614D02*
D03*
X9563D02*
D03*
X9512D02*
D03*
X9464D02*
D03*
X9413D02*
D03*
X9362D02*
D03*
X9312D02*
D03*
X9263D02*
D03*
X9114D02*
D03*
X9063D02*
D03*
X9012D02*
D03*
X8962D02*
D03*
X8912D02*
D03*
X8862D02*
D03*
X8812D02*
D03*
X8762D02*
D03*
X8712D02*
D03*
X8662D02*
D03*
X8612D02*
D03*
X8562D02*
D03*
X8512D02*
D03*
X9962Y11152D02*
D03*
X9914D02*
D03*
X9863D02*
D03*
X9812D02*
D03*
X9764D02*
D03*
X9713D02*
D03*
X9662D02*
D03*
X9614D02*
D03*
X9563D02*
D03*
X9512D02*
D03*
X9464D02*
D03*
X9413D02*
D03*
X9362D02*
D03*
X9312D02*
D03*
X9263D02*
D03*
X9213D02*
D03*
X9162D02*
D03*
X9114D02*
D03*
X9063D02*
D03*
X9012D02*
D03*
X8962D02*
D03*
X8912D02*
D03*
X8862D02*
D03*
X8812D02*
D03*
X8762D02*
D03*
X8712D02*
D03*
X8662D02*
D03*
X8612D02*
D03*
X8562D02*
D03*
X8512D02*
D03*
X8462Y11684D02*
D03*
Y11152D02*
D03*
X8412Y11684D02*
D03*
Y11152D02*
D03*
X8362Y11684D02*
D03*
Y11152D02*
D03*
X8312Y11684D02*
D03*
Y11152D02*
D03*
X8262Y11684D02*
D03*
Y11152D02*
D03*
X8212Y11684D02*
D03*
Y11152D02*
D03*
X8162Y11684D02*
D03*
Y11152D02*
D03*
X8112Y11684D02*
D03*
Y11152D02*
D03*
X8062Y11684D02*
D03*
Y11152D02*
D03*
X8012Y11684D02*
D03*
Y11152D02*
D03*
D32*
X9962Y11684D02*
D03*
D33*
X7787Y11417D02*
D03*
X10188D02*
D03*
M02*
