G04 Layer_Color=32896*
%FSLAX42Y42*%
%MOMM*%
G71*
G01*
G75*
%ADD14C,0.25*%
%ADD25C,0.13*%
G36*
X8469Y11383D02*
X8472Y11383D01*
X8475Y11382D01*
X8478Y11382D01*
X8481Y11381D01*
X8484Y11379D01*
X8486Y11378D01*
X8488Y11377D01*
X8490Y11376D01*
X8492Y11375D01*
X8493Y11374D01*
X8494Y11373D01*
X8495Y11372D01*
X8496Y11371D01*
X8496Y11371D01*
X8496Y11371D01*
X8498Y11368D01*
X8500Y11366D01*
X8502Y11363D01*
X8503Y11360D01*
X8504Y11357D01*
X8505Y11354D01*
X8506Y11351D01*
X8507Y11348D01*
X8507Y11346D01*
X8507Y11343D01*
X8508Y11341D01*
X8508Y11339D01*
Y11337D01*
X8508Y11336D01*
Y11335D01*
Y11335D01*
X8508Y11331D01*
X8508Y11327D01*
X8507Y11324D01*
X8506Y11320D01*
X8505Y11317D01*
X8504Y11314D01*
X8503Y11312D01*
X8502Y11309D01*
X8501Y11308D01*
X8500Y11306D01*
X8499Y11304D01*
X8498Y11303D01*
X8498Y11302D01*
X8497Y11301D01*
X8497Y11301D01*
X8496Y11301D01*
X8494Y11299D01*
X8492Y11297D01*
X8489Y11295D01*
X8486Y11294D01*
X8484Y11292D01*
X8481Y11291D01*
X8479Y11290D01*
X8476Y11290D01*
X8474Y11289D01*
X8472Y11289D01*
X8470Y11289D01*
X8468Y11289D01*
X8467D01*
X8465Y11288D01*
X8465D01*
X8462Y11289D01*
X8459Y11289D01*
X8454Y11290D01*
X8452Y11290D01*
X8449Y11291D01*
X8447Y11291D01*
X8446Y11292D01*
X8444Y11293D01*
X8443Y11294D01*
X8441Y11294D01*
X8440Y11295D01*
X8440Y11295D01*
X8439Y11296D01*
X8439Y11296D01*
X8439D01*
X8435Y11299D01*
X8432Y11303D01*
X8430Y11306D01*
X8428Y11310D01*
X8426Y11313D01*
X8426Y11314D01*
X8425Y11316D01*
X8425Y11317D01*
X8425Y11317D01*
X8425Y11318D01*
Y11318D01*
X8441Y11320D01*
X8442Y11317D01*
X8444Y11314D01*
X8445Y11311D01*
X8447Y11309D01*
X8448Y11308D01*
X8449Y11306D01*
X8450Y11306D01*
X8450Y11306D01*
X8453Y11304D01*
X8455Y11303D01*
X8457Y11302D01*
X8460Y11302D01*
X8462Y11301D01*
X8463Y11301D01*
X8465D01*
X8467Y11301D01*
X8469Y11301D01*
X8473Y11302D01*
X8476Y11304D01*
X8479Y11305D01*
X8481Y11307D01*
X8483Y11308D01*
X8483Y11308D01*
X8483Y11309D01*
X8484Y11309D01*
X8484Y11309D01*
X8485Y11311D01*
X8486Y11312D01*
X8488Y11316D01*
X8490Y11320D01*
X8491Y11323D01*
X8492Y11327D01*
X8492Y11328D01*
X8492Y11329D01*
X8492Y11330D01*
X8492Y11331D01*
Y11332D01*
Y11332D01*
X8424D01*
X8424Y11334D01*
Y11335D01*
Y11336D01*
Y11336D01*
X8424Y11340D01*
X8425Y11344D01*
X8425Y11348D01*
X8426Y11351D01*
X8427Y11354D01*
X8428Y11357D01*
X8429Y11360D01*
X8430Y11362D01*
X8431Y11364D01*
X8432Y11366D01*
X8433Y11367D01*
X8434Y11369D01*
X8434Y11370D01*
X8435Y11370D01*
X8435Y11371D01*
X8436Y11371D01*
X8438Y11373D01*
X8440Y11375D01*
X8443Y11377D01*
X8445Y11378D01*
X8448Y11379D01*
X8450Y11380D01*
X8453Y11381D01*
X8455Y11382D01*
X8457Y11383D01*
X8459Y11383D01*
X8461Y11383D01*
X8463Y11383D01*
X8464Y11384D01*
X8466D01*
X8469Y11383D01*
D02*
G37*
G36*
X8850D02*
X8854Y11383D01*
X8857Y11382D01*
X8860Y11382D01*
X8862Y11381D01*
X8865Y11379D01*
X8867Y11378D01*
X8869Y11377D01*
X8871Y11376D01*
X8873Y11375D01*
X8874Y11374D01*
X8876Y11373D01*
X8877Y11372D01*
X8877Y11371D01*
X8877Y11371D01*
X8878Y11371D01*
X8880Y11368D01*
X8882Y11366D01*
X8883Y11363D01*
X8885Y11360D01*
X8886Y11357D01*
X8887Y11354D01*
X8887Y11351D01*
X8888Y11348D01*
X8888Y11346D01*
X8889Y11343D01*
X8889Y11341D01*
X8889Y11339D01*
Y11337D01*
X8889Y11336D01*
Y11335D01*
Y11335D01*
X8889Y11331D01*
X8889Y11327D01*
X8888Y11324D01*
X8888Y11320D01*
X8887Y11317D01*
X8886Y11314D01*
X8885Y11312D01*
X8884Y11309D01*
X8883Y11308D01*
X8881Y11306D01*
X8880Y11304D01*
X8880Y11303D01*
X8879Y11302D01*
X8878Y11301D01*
X8878Y11301D01*
X8878Y11301D01*
X8876Y11299D01*
X8873Y11297D01*
X8870Y11295D01*
X8868Y11294D01*
X8865Y11292D01*
X8863Y11291D01*
X8860Y11290D01*
X8858Y11290D01*
X8855Y11289D01*
X8853Y11289D01*
X8851Y11289D01*
X8849Y11289D01*
X8848D01*
X8847Y11288D01*
X8846D01*
X8843Y11289D01*
X8840Y11289D01*
X8835Y11290D01*
X8833Y11290D01*
X8831Y11291D01*
X8829Y11291D01*
X8827Y11292D01*
X8825Y11293D01*
X8824Y11294D01*
X8823Y11294D01*
X8822Y11295D01*
X8821Y11295D01*
X8820Y11296D01*
X8820Y11296D01*
X8820D01*
X8817Y11299D01*
X8814Y11303D01*
X8811Y11306D01*
X8809Y11310D01*
X8808Y11313D01*
X8807Y11314D01*
X8807Y11316D01*
X8806Y11317D01*
X8806Y11317D01*
X8806Y11318D01*
Y11318D01*
X8822Y11320D01*
X8823Y11317D01*
X8825Y11314D01*
X8827Y11311D01*
X8828Y11309D01*
X8829Y11308D01*
X8831Y11306D01*
X8831Y11306D01*
X8832Y11306D01*
X8834Y11304D01*
X8836Y11303D01*
X8839Y11302D01*
X8841Y11302D01*
X8843Y11301D01*
X8845Y11301D01*
X8846D01*
X8848Y11301D01*
X8850Y11301D01*
X8854Y11302D01*
X8857Y11304D01*
X8860Y11305D01*
X8862Y11307D01*
X8864Y11308D01*
X8864Y11308D01*
X8865Y11309D01*
X8865Y11309D01*
X8865Y11309D01*
X8867Y11311D01*
X8868Y11312D01*
X8870Y11316D01*
X8871Y11320D01*
X8872Y11323D01*
X8873Y11327D01*
X8873Y11328D01*
X8873Y11329D01*
X8873Y11330D01*
X8874Y11331D01*
Y11332D01*
Y11332D01*
X8806D01*
X8805Y11334D01*
Y11335D01*
Y11336D01*
Y11336D01*
X8806Y11340D01*
X8806Y11344D01*
X8807Y11348D01*
X8807Y11351D01*
X8808Y11354D01*
X8809Y11357D01*
X8810Y11360D01*
X8811Y11362D01*
X8812Y11364D01*
X8813Y11366D01*
X8814Y11367D01*
X8815Y11369D01*
X8816Y11370D01*
X8817Y11370D01*
X8817Y11371D01*
X8817Y11371D01*
X8819Y11373D01*
X8822Y11375D01*
X8824Y11377D01*
X8827Y11378D01*
X8829Y11379D01*
X8832Y11380D01*
X8834Y11381D01*
X8836Y11382D01*
X8839Y11383D01*
X8841Y11383D01*
X8842Y11383D01*
X8844Y11383D01*
X8845Y11384D01*
X8847D01*
X8850Y11383D01*
D02*
G37*
G36*
X8542Y11290D02*
X8527D01*
Y11416D01*
X8542D01*
Y11290D01*
D02*
G37*
G36*
X8989D02*
X8972D01*
Y11347D01*
X8913D01*
Y11362D01*
X8972D01*
Y11401D01*
X8904D01*
Y11416D01*
X8989D01*
Y11290D01*
D02*
G37*
G36*
X8606Y11383D02*
X8609Y11383D01*
X8613Y11383D01*
X8616Y11382D01*
X8619Y11381D01*
X8620Y11381D01*
X8620Y11381D01*
X8621Y11381D01*
X8622Y11380D01*
X8622Y11380D01*
X8622D01*
X8625Y11379D01*
X8628Y11377D01*
X8630Y11376D01*
X8632Y11375D01*
X8634Y11373D01*
X8635Y11372D01*
X8636Y11371D01*
X8636Y11371D01*
X8637Y11369D01*
X8639Y11366D01*
X8640Y11364D01*
X8641Y11361D01*
X8642Y11359D01*
X8642Y11357D01*
X8642Y11357D01*
Y11356D01*
X8642Y11356D01*
Y11356D01*
X8627Y11353D01*
X8626Y11357D01*
X8625Y11360D01*
X8624Y11362D01*
X8623Y11364D01*
X8622Y11365D01*
X8621Y11366D01*
X8620Y11367D01*
X8620Y11367D01*
X8618Y11368D01*
X8615Y11369D01*
X8612Y11370D01*
X8610Y11370D01*
X8607Y11371D01*
X8605Y11371D01*
X8604D01*
X8599Y11371D01*
X8596Y11370D01*
X8593Y11369D01*
X8590Y11368D01*
X8588Y11367D01*
X8587Y11366D01*
X8586Y11366D01*
X8586Y11366D01*
X8584Y11364D01*
X8583Y11362D01*
X8583Y11360D01*
X8582Y11357D01*
X8582Y11355D01*
X8581Y11354D01*
Y11353D01*
Y11353D01*
Y11352D01*
Y11352D01*
Y11352D01*
Y11351D01*
Y11350D01*
X8582Y11349D01*
Y11349D01*
Y11348D01*
Y11348D01*
X8583Y11348D01*
X8585Y11347D01*
X8590Y11346D01*
X8594Y11345D01*
X8599Y11344D01*
X8601Y11344D01*
X8603Y11344D01*
X8605Y11343D01*
X8606Y11343D01*
X8607Y11343D01*
X8608D01*
X8609Y11343D01*
X8609D01*
X8612Y11342D01*
X8615Y11342D01*
X8617Y11342D01*
X8619Y11341D01*
X8621Y11341D01*
X8622Y11341D01*
X8623Y11340D01*
X8623D01*
X8625Y11340D01*
X8627Y11339D01*
X8629Y11338D01*
X8631Y11337D01*
X8632Y11337D01*
X8633Y11336D01*
X8634Y11336D01*
X8634Y11335D01*
X8636Y11334D01*
X8637Y11333D01*
X8639Y11331D01*
X8640Y11330D01*
X8641Y11328D01*
X8642Y11328D01*
X8642Y11327D01*
X8642Y11327D01*
X8643Y11324D01*
X8644Y11322D01*
X8644Y11320D01*
X8645Y11318D01*
X8645Y11317D01*
X8645Y11315D01*
Y11315D01*
Y11314D01*
X8645Y11312D01*
X8645Y11310D01*
X8644Y11307D01*
X8642Y11303D01*
X8641Y11301D01*
X8639Y11299D01*
X8638Y11297D01*
X8637Y11296D01*
X8637Y11296D01*
X8637Y11296D01*
X8635Y11294D01*
X8634Y11293D01*
X8630Y11291D01*
X8626Y11290D01*
X8622Y11289D01*
X8619Y11289D01*
X8618Y11289D01*
X8616D01*
X8615Y11288D01*
X8614D01*
X8611Y11289D01*
X8608Y11289D01*
X8605Y11289D01*
X8602Y11290D01*
X8600Y11290D01*
X8598Y11291D01*
X8598Y11291D01*
X8597Y11291D01*
X8597Y11291D01*
X8597D01*
X8594Y11293D01*
X8591Y11294D01*
X8588Y11296D01*
X8586Y11298D01*
X8583Y11299D01*
X8582Y11301D01*
X8581Y11301D01*
X8581Y11301D01*
X8580Y11302D01*
X8580D01*
X8580Y11299D01*
X8579Y11297D01*
X8579Y11295D01*
X8579Y11294D01*
X8578Y11292D01*
X8578Y11291D01*
X8578Y11290D01*
X8577Y11290D01*
X8561D01*
X8562Y11292D01*
X8563Y11294D01*
X8564Y11296D01*
X8564Y11298D01*
X8565Y11299D01*
X8565Y11300D01*
X8565Y11301D01*
Y11301D01*
X8565Y11303D01*
X8565Y11304D01*
Y11306D01*
X8566Y11308D01*
X8566Y11312D01*
Y11317D01*
X8566Y11319D01*
Y11321D01*
Y11323D01*
Y11325D01*
Y11327D01*
Y11328D01*
Y11328D01*
Y11328D01*
Y11349D01*
Y11353D01*
X8566Y11356D01*
X8566Y11358D01*
Y11360D01*
X8566Y11362D01*
X8567Y11363D01*
X8567Y11363D01*
Y11363D01*
X8567Y11366D01*
X8568Y11368D01*
X8569Y11369D01*
X8570Y11371D01*
X8570Y11372D01*
X8571Y11373D01*
X8571Y11374D01*
X8572Y11374D01*
X8573Y11375D01*
X8575Y11377D01*
X8577Y11378D01*
X8578Y11379D01*
X8580Y11380D01*
X8581Y11380D01*
X8582Y11381D01*
X8582Y11381D01*
X8582D01*
X8585Y11382D01*
X8588Y11382D01*
X8592Y11383D01*
X8595Y11383D01*
X8597Y11383D01*
X8598Y11384D01*
X8601D01*
X8606Y11383D01*
D02*
G37*
G36*
X8748D02*
X8752Y11383D01*
X8754Y11382D01*
X8757Y11382D01*
X8759Y11381D01*
X8760Y11380D01*
X8761Y11380D01*
X8761Y11379D01*
X8761D01*
X8764Y11378D01*
X8766Y11376D01*
X8768Y11374D01*
X8770Y11373D01*
X8771Y11371D01*
X8772Y11370D01*
X8773Y11369D01*
X8773Y11369D01*
Y11382D01*
X8787D01*
Y11290D01*
X8771D01*
Y11338D01*
X8771Y11342D01*
X8771Y11346D01*
X8770Y11349D01*
X8770Y11352D01*
X8770Y11354D01*
X8769Y11355D01*
X8769Y11356D01*
X8769Y11357D01*
X8768Y11359D01*
X8766Y11361D01*
X8765Y11363D01*
X8764Y11364D01*
X8762Y11365D01*
X8762Y11366D01*
X8761Y11367D01*
X8761Y11367D01*
X8758Y11368D01*
X8756Y11369D01*
X8754Y11369D01*
X8752Y11370D01*
X8751Y11370D01*
X8750Y11370D01*
X8748D01*
X8745Y11370D01*
X8743Y11369D01*
X8741Y11368D01*
X8739Y11367D01*
X8738Y11367D01*
X8737Y11366D01*
X8736Y11365D01*
X8736Y11365D01*
X8735Y11363D01*
X8734Y11360D01*
X8733Y11358D01*
X8733Y11355D01*
X8733Y11353D01*
X8732Y11351D01*
Y11350D01*
Y11350D01*
Y11350D01*
Y11349D01*
Y11290D01*
X8717D01*
Y11343D01*
Y11346D01*
X8717Y11348D01*
X8716Y11350D01*
X8716Y11352D01*
X8715Y11354D01*
X8715Y11356D01*
X8714Y11357D01*
X8714Y11359D01*
X8713Y11361D01*
X8712Y11362D01*
X8711Y11363D01*
X8711Y11364D01*
X8708Y11366D01*
X8705Y11367D01*
X8703Y11368D01*
X8700Y11369D01*
X8698Y11370D01*
X8696Y11370D01*
X8695Y11370D01*
X8694D01*
X8692Y11370D01*
X8691Y11370D01*
X8689Y11369D01*
X8688Y11369D01*
X8687Y11368D01*
X8686Y11368D01*
X8685Y11368D01*
X8685Y11367D01*
X8684Y11367D01*
X8683Y11365D01*
X8682Y11364D01*
X8681Y11363D01*
X8680Y11362D01*
X8680Y11362D01*
X8680Y11361D01*
Y11361D01*
X8679Y11359D01*
X8679Y11357D01*
X8678Y11355D01*
X8678Y11353D01*
X8678Y11351D01*
Y11349D01*
Y11348D01*
Y11348D01*
Y11348D01*
Y11348D01*
Y11290D01*
X8663D01*
Y11353D01*
Y11356D01*
X8663Y11358D01*
X8663Y11361D01*
X8664Y11363D01*
X8664Y11365D01*
X8665Y11367D01*
X8666Y11369D01*
X8666Y11370D01*
X8667Y11372D01*
X8668Y11373D01*
X8668Y11374D01*
X8669Y11375D01*
X8669Y11375D01*
X8670Y11376D01*
X8670Y11376D01*
X8670Y11376D01*
X8672Y11377D01*
X8673Y11378D01*
X8676Y11380D01*
X8680Y11382D01*
X8683Y11383D01*
X8686Y11383D01*
X8688Y11383D01*
X8689D01*
X8690Y11384D01*
X8691D01*
X8694Y11383D01*
X8697Y11383D01*
X8700Y11382D01*
X8703Y11381D01*
X8705Y11380D01*
X8708Y11378D01*
X8710Y11377D01*
X8712Y11376D01*
X8713Y11374D01*
X8715Y11373D01*
X8716Y11371D01*
X8717Y11370D01*
X8718Y11369D01*
X8719Y11368D01*
X8719Y11368D01*
X8719Y11367D01*
X8720Y11370D01*
X8722Y11373D01*
X8723Y11375D01*
X8725Y11376D01*
X8726Y11377D01*
X8727Y11378D01*
X8728Y11379D01*
X8729Y11379D01*
X8731Y11381D01*
X8734Y11382D01*
X8737Y11383D01*
X8739Y11383D01*
X8742Y11383D01*
X8743Y11384D01*
X8745D01*
X8748Y11383D01*
D02*
G37*
%LPC*%
G36*
X8582Y11336D02*
X8582D01*
Y11330D01*
X8582Y11327D01*
X8582Y11324D01*
X8582Y11321D01*
X8583Y11319D01*
X8583Y11317D01*
X8584Y11316D01*
X8584Y11315D01*
X8584Y11315D01*
X8585Y11312D01*
X8587Y11310D01*
X8589Y11309D01*
X8590Y11307D01*
X8592Y11306D01*
X8593Y11305D01*
X8594Y11304D01*
X8594Y11304D01*
X8594D01*
X8597Y11303D01*
X8600Y11302D01*
X8602Y11301D01*
X8605Y11301D01*
X8607Y11301D01*
X8609Y11300D01*
X8610D01*
X8613Y11301D01*
X8616Y11301D01*
X8618Y11302D01*
X8620Y11303D01*
X8622Y11303D01*
X8623Y11304D01*
X8624Y11304D01*
X8624Y11305D01*
X8625Y11306D01*
X8627Y11308D01*
X8627Y11310D01*
X8628Y11311D01*
X8628Y11313D01*
X8628Y11314D01*
Y11314D01*
Y11315D01*
X8628Y11316D01*
X8628Y11318D01*
X8628Y11319D01*
X8627Y11320D01*
X8627Y11321D01*
X8627Y11322D01*
X8627Y11322D01*
X8626Y11322D01*
X8626Y11323D01*
X8625Y11324D01*
X8623Y11326D01*
X8622Y11326D01*
X8621Y11327D01*
X8620Y11327D01*
X8620D01*
X8619Y11328D01*
X8617Y11328D01*
X8614Y11329D01*
X8612Y11329D01*
X8610Y11330D01*
X8608Y11330D01*
X8608D01*
X8607Y11330D01*
X8607D01*
X8604Y11331D01*
X8601Y11331D01*
X8598Y11332D01*
X8596Y11332D01*
X8594Y11333D01*
X8591Y11333D01*
X8590Y11334D01*
X8588Y11334D01*
X8587Y11334D01*
X8585Y11335D01*
X8584Y11335D01*
X8583Y11336D01*
X8582Y11336D01*
X8582Y11336D01*
X8582Y11336D01*
D02*
G37*
G36*
X8466Y11371D02*
X8465D01*
X8463Y11371D01*
X8461Y11370D01*
X8457Y11369D01*
X8454Y11368D01*
X8451Y11366D01*
X8449Y11365D01*
X8448Y11363D01*
X8447Y11363D01*
X8447Y11362D01*
X8446Y11362D01*
Y11362D01*
X8445Y11359D01*
X8443Y11357D01*
X8442Y11354D01*
X8442Y11351D01*
X8441Y11349D01*
X8441Y11347D01*
Y11347D01*
X8441Y11346D01*
X8440Y11345D01*
Y11345D01*
Y11345D01*
X8491D01*
X8491Y11349D01*
X8490Y11353D01*
X8489Y11356D01*
X8487Y11359D01*
X8486Y11361D01*
X8485Y11362D01*
X8484Y11363D01*
X8483Y11364D01*
X8482Y11365D01*
X8481Y11366D01*
X8478Y11368D01*
X8474Y11369D01*
X8472Y11370D01*
X8469Y11370D01*
X8468Y11371D01*
X8467D01*
X8466Y11371D01*
D02*
G37*
G36*
X8848D02*
X8847D01*
X8845Y11371D01*
X8843Y11370D01*
X8839Y11369D01*
X8836Y11368D01*
X8833Y11366D01*
X8831Y11365D01*
X8829Y11363D01*
X8829Y11363D01*
X8828Y11362D01*
X8828Y11362D01*
Y11362D01*
X8826Y11359D01*
X8825Y11357D01*
X8824Y11354D01*
X8823Y11351D01*
X8822Y11349D01*
X8822Y11347D01*
Y11347D01*
X8822Y11346D01*
X8822Y11345D01*
Y11345D01*
Y11345D01*
X8873D01*
X8872Y11349D01*
X8871Y11353D01*
X8870Y11356D01*
X8868Y11359D01*
X8867Y11361D01*
X8866Y11362D01*
X8865Y11363D01*
X8865Y11364D01*
X8863Y11365D01*
X8862Y11366D01*
X8859Y11368D01*
X8856Y11369D01*
X8853Y11370D01*
X8851Y11370D01*
X8849Y11371D01*
X8849D01*
X8848Y11371D01*
D02*
G37*
%LPD*%
D14*
X7907Y11277D02*
X7958Y11227D01*
X7907Y11277D02*
Y11560D01*
X7958Y11608D01*
X10019D01*
X10069Y11560D01*
Y11277D02*
Y11560D01*
X10019Y11227D02*
X10069Y11277D01*
X7958Y11227D02*
X10019D01*
X10239Y11539D02*
Y11659D01*
Y11177D02*
Y11297D01*
X7737Y11539D02*
Y11659D01*
Y11177D02*
Y11297D01*
X7484Y11711D02*
X7611D01*
X7636Y11685D01*
Y11635D01*
X7611Y11609D01*
X7484D01*
X7611Y11558D02*
X7636Y11533D01*
Y11482D01*
X7611Y11457D01*
X7586D01*
X7560Y11482D01*
Y11533D01*
X7535Y11558D01*
X7509D01*
X7484Y11533D01*
Y11482D01*
X7509Y11457D01*
X7484Y11508D02*
X7636D01*
X7611Y11406D02*
X7636Y11381D01*
Y11330D01*
X7611Y11304D01*
X7509D01*
X7484Y11330D01*
Y11381D01*
X7509Y11406D01*
X7535D01*
X7560Y11381D01*
Y11304D01*
X7509Y11254D02*
X7484Y11228D01*
Y11177D01*
X7509Y11152D01*
X7611D01*
X7636Y11177D01*
Y11228D01*
X7611Y11254D01*
X7509D01*
Y11101D02*
X7484Y11076D01*
Y11025D01*
X7509Y11000D01*
X7611D01*
X7636Y11025D01*
Y11076D01*
X7611Y11101D01*
X7509D01*
X7636Y10949D02*
Y10898D01*
Y10924D01*
X7484D01*
X7509Y10949D01*
D25*
X10620Y10170D02*
G03*
X10620Y10170I-112J0D01*
G01*
D02*
G03*
X10620Y10170I-112J0D01*
G01*
X7620Y13170D02*
G03*
X7620Y13170I-112J0D01*
G01*
D02*
G03*
X7620Y13170I-112J0D01*
G01*
Y10170D02*
G03*
X7620Y10170I-112J0D01*
G01*
D02*
G03*
X7620Y10170I-112J0D01*
G01*
X10620Y13170D02*
G03*
X10620Y13170I-112J0D01*
G01*
D02*
G03*
X10620Y13170I-112J0D01*
G01*
M02*
