G04 Layer_Color=16711935*
%FSLAX42Y42*%
%MOMM*%
G71*
G01*
G75*
%ADD31R,0.30X1.17*%
G04:AMPARAMS|DCode=32|XSize=0.3mm|YSize=1.17mm|CornerRadius=0.15mm|HoleSize=0mm|Usage=FLASHONLY|Rotation=0.000|XOffset=0mm|YOffset=0mm|HoleType=Round|Shape=RoundedRectangle|*
%AMROUNDEDRECTD32*
21,1,0.30,0.86,0,0,0.0*
21,1,0.00,1.17,0,0,0.0*
1,1,0.30,0.00,-0.43*
1,1,0.30,0.00,-0.43*
1,1,0.30,0.00,0.43*
1,1,0.30,0.00,0.43*
%
%ADD32ROUNDEDRECTD32*%
%ADD33R,1.47X2.16*%
%ADD34C,1.57*%
%ADD36C,0.71*%
%ADD37C,5.05*%
%ADD38C,20.05*%
%ADD39C,10.05*%
%ADD40C,9.69*%
%ADD41C,1.27*%
G04:AMPARAMS|DCode=42|XSize=1.57mm|YSize=1.57mm|CornerRadius=0.79mm|HoleSize=0mm|Usage=FLASHONLY|Rotation=180.000|XOffset=0mm|YOffset=0mm|HoleType=Round|Shape=RoundedRectangle|*
%AMROUNDEDRECTD42*
21,1,1.57,0.00,0,0,180.0*
21,1,0.00,1.57,0,0,180.0*
1,1,1.57,0.00,0.00*
1,1,1.57,0.00,0.00*
1,1,1.57,0.00,0.00*
1,1,1.57,0.00,0.00*
%
%ADD42ROUNDEDRECTD42*%
G04:AMPARAMS|DCode=43|XSize=1.57mm|YSize=1.57mm|CornerRadius=0.79mm|HoleSize=0mm|Usage=FLASHONLY|Rotation=90.000|XOffset=0mm|YOffset=0mm|HoleType=Round|Shape=RoundedRectangle|*
%AMROUNDEDRECTD43*
21,1,1.57,0.00,0,0,90.0*
21,1,0.00,1.57,0,0,90.0*
1,1,1.57,0.00,0.00*
1,1,1.57,0.00,0.00*
1,1,1.57,0.00,0.00*
1,1,1.57,0.00,0.00*
%
%ADD43ROUNDEDRECTD43*%
D31*
X9964Y11157D02*
D03*
X9914D02*
D03*
X9864D02*
D03*
X9814D02*
D03*
X9764D02*
D03*
X9714D02*
D03*
X9664D02*
D03*
X9614D02*
D03*
X9564D02*
D03*
X9514D02*
D03*
X9464D02*
D03*
X9414D02*
D03*
X9364D02*
D03*
X9314D02*
D03*
X9264D02*
D03*
X9214D02*
D03*
X9164D02*
D03*
X9114D02*
D03*
X9064Y11157D02*
D03*
X9014Y11157D02*
D03*
X8963D02*
D03*
X8913D02*
D03*
X8862D02*
D03*
X8814D02*
D03*
X8763D02*
D03*
X8712D02*
D03*
X8664D02*
D03*
X8613D02*
D03*
X8562D02*
D03*
X8511D02*
D03*
X9914Y11679D02*
D03*
X9864D02*
D03*
X9814D02*
D03*
X9764D02*
D03*
X9714D02*
D03*
X9664D02*
D03*
X9614D02*
D03*
X9564D02*
D03*
X9514D02*
D03*
X9464D02*
D03*
X9414D02*
D03*
X9364D02*
D03*
X9314D02*
D03*
X9264D02*
D03*
X9214D02*
D03*
X9164D02*
D03*
X9114D02*
D03*
X9064D02*
D03*
X9014D02*
D03*
X8964D02*
D03*
X8913D02*
D03*
X8862D02*
D03*
X8814D02*
D03*
X8763D02*
D03*
X8712D02*
D03*
X8664D02*
D03*
X8613D02*
D03*
X8562D02*
D03*
X8511D02*
D03*
X8463D02*
D03*
X8463Y11157D02*
D03*
X8412Y11679D02*
D03*
Y11157D02*
D03*
X8362Y11679D02*
D03*
Y11157D02*
D03*
X8313Y11679D02*
D03*
X8313Y11157D02*
D03*
X8262Y11679D02*
D03*
Y11157D02*
D03*
X8212Y11679D02*
D03*
Y11157D02*
D03*
X8163Y11679D02*
D03*
X8163Y11157D02*
D03*
X8113Y11679D02*
D03*
Y11157D02*
D03*
X8062Y11679D02*
D03*
Y11157D02*
D03*
X8014Y11679D02*
D03*
X8014Y11157D02*
D03*
D32*
X9964Y11679D02*
D03*
D33*
X10189Y11417D02*
D03*
X7787Y11417D02*
D03*
D34*
X14089Y15436D02*
D03*
X13142Y15448D02*
D03*
D36*
X7887Y11227D02*
D03*
X10089D02*
D03*
D03*
X7887D02*
D03*
D37*
X10508Y10170D02*
D03*
X7508Y13170D02*
D03*
Y10170D02*
D03*
X10508Y13170D02*
D03*
X14796Y14796D02*
D03*
X8204D02*
D03*
X14796Y8204D02*
D03*
X8204Y8204D02*
D03*
D38*
X9008Y13570D02*
D03*
Y9770D02*
D03*
D39*
X11500Y11500D02*
D03*
D40*
X8898Y7637D02*
D03*
D41*
X15791Y9200D02*
G03*
X15791Y9200I-91J0D01*
G01*
X7282Y8956D02*
G03*
X7282Y8956I-91J0D01*
G01*
D42*
X15700Y9200D02*
D03*
D43*
X7191Y8956D02*
D03*
M02*
