M48
;Layer_Color=9474304
;FILE_FORMAT=4:2
METRIC,LZ
;TYPE=PLATED
T1F00S00C0.66
T2F00S00C0.70
T3F00S00C1.80
T4F00S00C4.00
T5F00S00C5.00
T6F00S00C8.60
T7F00S00C9.64
T8F00S00C20.00
;TYPE=NON_PLATED
T9F00S00C0.66
%
T01
X007887Y011227
X010089
T02
X008009Y011036
X00811Y01096
X008209Y011036
X00831Y01096
X008409Y011036
X00851Y01096
X008609Y011036
X00871Y01096
X008809Y011036
X00891Y01096
X009009Y011036
X009111Y01096
X00921Y011036
X009311Y01096
X00941Y011036
X009512Y01096
X009611Y011036
X009713Y01096
X009809Y011036
X009911Y01096
X009963Y011272
X009868Y011354
X009906Y011483
X009811Y011564
X009708Y011483
X009669Y011354
X009765Y011272
X009564
X009469Y011354
X009508Y011483
X009413Y011564
X009307Y011483
X009268Y011354
X009363Y011272
X009163
X009067Y011354
X009106Y011483
X009011Y011564
X008906Y011483
X008867Y011354
X008962Y011272
X008762
X008667Y011354
X008706Y011483
X008611Y011564
X008506Y011483
X008467Y011354
X008562Y011272
X008362
X008267Y011354
X008306Y011483
X008211Y011564
X008106Y011483
X008067Y011354
X008162Y011272
X008011Y011564
X008063Y011876
X008164Y0118
X008263Y011876
X008364Y0118
X008463Y011876
X008564Y0118
X008663Y011876
X008764Y0118
X008863Y011876
X008964Y0118
X009063Y011876
X009165Y0118
X009264Y011876
X009365Y0118
X009464Y011876
X009566Y0118
X009665Y011876
X009767Y0118
X009863Y011876
X009965Y0118
X009613Y011564
X009212
X008811
X008411
T03
X007508Y01017
X010508
Y01317
X007508
T04
X008204Y008204
X014796Y008204
X014796Y014796
X008204
T05
X0115Y0115
T06
X013142Y015448
X014089Y015436
T07
X008898Y007637
T08
X009008Y00977
Y01357
T09
X007887Y011227
X010089
M30
