G04 Layer_Physical_Order=1*
G04 Layer_Color=255*
%FSLAX42Y42*%
%MOMM*%
G71*
G01*
G75*
%ADD10C,0.10*%
%ADD11R,0.25X1.12*%
G04:AMPARAMS|DCode=12|XSize=0.25mm|YSize=1.12mm|CornerRadius=0.13mm|HoleSize=0mm|Usage=FLASHONLY|Rotation=0.000|XOffset=0mm|YOffset=0mm|HoleType=Round|Shape=RoundedRectangle|*
%AMROUNDEDRECTD12*
21,1,0.25,0.86,0,0,0.0*
21,1,0.00,1.12,0,0,0.0*
1,1,0.25,0.00,-0.43*
1,1,0.25,0.00,-0.43*
1,1,0.25,0.00,0.43*
1,1,0.25,0.00,0.43*
%
%ADD12ROUNDEDRECTD12*%
%ADD13R,1.42X2.11*%
%ADD14C,0.25*%
%ADD15C,1.52*%
%ADD16C,2.21*%
%ADD17C,0.66*%
%ADD18C,5.00*%
%ADD19C,20.00*%
%ADD20C,10.00*%
%ADD21C,9.64*%
%ADD22C,1.10*%
G36*
X11726Y16878D02*
X11948Y16865D01*
X12169Y16842D01*
X12389Y16810D01*
X12608Y16769D01*
X12824Y16718D01*
X13039Y16659D01*
X13250Y16592D01*
X13459Y16515D01*
X13665Y16430D01*
X13866Y16336D01*
X14064Y16235D01*
X14257Y16125D01*
X14446Y16007D01*
X14629Y15882D01*
X14808Y15749D01*
X14980Y15609D01*
X15147Y15461D01*
X15307Y15307D01*
X15461Y15147D01*
X15609Y14980D01*
X15749Y14808D01*
X15882Y14629D01*
X16007Y14446D01*
X16125Y14257D01*
X16235Y14064D01*
X16336Y13866D01*
X16430Y13665D01*
X16515Y13459D01*
X16592Y13250D01*
X16659Y13039D01*
X16718Y12824D01*
X16769Y12608D01*
X16810Y12389D01*
X16842Y12169D01*
X16865Y11948D01*
X16878Y11726D01*
X16883Y11504D01*
X16878Y11281D01*
X16865Y11059D01*
X16842Y10838D01*
X16810Y10618D01*
X16769Y10400D01*
X16718Y10183D01*
X16659Y9969D01*
X16592Y9757D01*
X16515Y9548D01*
X16430Y9343D01*
X16336Y9141D01*
X16235Y8943D01*
X16125Y8750D01*
X16007Y8561D01*
X15882Y8378D01*
X15749Y8200D01*
X15609Y8027D01*
X15461Y7860D01*
X15307Y7700D01*
X15147Y7546D01*
X14980Y7399D01*
X14808Y7259D01*
X14629Y7126D01*
X14446Y7000D01*
X14257Y6883D01*
X14064Y6773D01*
X13866Y6671D01*
X13665Y6577D01*
X13459Y6492D01*
X13250Y6416D01*
X13039Y6348D01*
X12824Y6289D01*
X12608Y6239D01*
X12389Y6198D01*
X12169Y6166D01*
X11948Y6143D01*
X11829Y6135D01*
X11701Y6264D01*
Y8115D01*
X11700Y8122D01*
X11696Y8127D01*
X11627Y8196D01*
X11622Y8199D01*
X11615Y8201D01*
X10538D01*
X10532Y8199D01*
X10527Y8196D01*
X10473Y8142D01*
X10470Y8137D01*
X10468Y8131D01*
Y6362D01*
X10377Y6271D01*
X10259D01*
X10258Y6272D01*
Y6272D01*
X10183Y6289D01*
X9969Y6348D01*
X9757Y6416D01*
X9548Y6492D01*
X9343Y6577D01*
X9141Y6671D01*
X8943Y6773D01*
X8750Y6883D01*
X8561Y7000D01*
X8378Y7126D01*
X8200Y7259D01*
X8027Y7399D01*
X7860Y7546D01*
X7700Y7700D01*
X7546Y7860D01*
X7399Y8027D01*
X7259Y8200D01*
X7126Y8378D01*
X7000Y8561D01*
X6883Y8750D01*
X6773Y8943D01*
X6671Y9141D01*
X6577Y9343D01*
X6492Y9548D01*
X6416Y9757D01*
X6348Y9969D01*
X6289Y10183D01*
X6239Y10400D01*
X6198Y10618D01*
X6166Y10838D01*
X6143Y11059D01*
X6129Y11281D01*
X6124Y11504D01*
X6129Y11726D01*
X6143Y11948D01*
X6166Y12169D01*
X6198Y12389D01*
X6239Y12608D01*
X6289Y12824D01*
X6348Y13039D01*
X6416Y13250D01*
X6492Y13459D01*
X6577Y13665D01*
X6671Y13866D01*
X6773Y14064D01*
X6883Y14257D01*
X7000Y14446D01*
X7126Y14629D01*
X7259Y14808D01*
X7399Y14980D01*
X7546Y15147D01*
X7700Y15307D01*
X7860Y15461D01*
X8027Y15609D01*
X8200Y15749D01*
X8378Y15882D01*
X8561Y16007D01*
X8750Y16125D01*
X8943Y16235D01*
X9141Y16336D01*
X9343Y16430D01*
X9548Y16515D01*
X9757Y16592D01*
X9969Y16659D01*
X10183Y16718D01*
X10400Y16769D01*
X10618Y16810D01*
X10838Y16842D01*
X11059Y16865D01*
X11281Y16878D01*
X11504Y16883D01*
X11726Y16878D01*
D02*
G37*
%LPC*%
G36*
X12000Y11487D02*
X11513D01*
Y11000D01*
X11565Y11003D01*
X11630Y11016D01*
X11692Y11037D01*
X11751Y11066D01*
X11805Y11102D01*
X11854Y11146D01*
X11898Y11195D01*
X11934Y11249D01*
X11963Y11308D01*
X11984Y11370D01*
X11997Y11435D01*
X12000Y11487D01*
D02*
G37*
G36*
X11487D02*
X11000D01*
X11003Y11435D01*
X11016Y11370D01*
X11037Y11308D01*
X11066Y11249D01*
X11102Y11195D01*
X11146Y11146D01*
X11195Y11102D01*
X11249Y11066D01*
X11308Y11037D01*
X11370Y11016D01*
X11435Y11003D01*
X11487Y11000D01*
Y11487D01*
D02*
G37*
G36*
X7918Y11215D02*
X7899D01*
Y11196D01*
X7899Y11196D01*
X7910Y11204D01*
X7918Y11214D01*
X7918Y11215D01*
D02*
G37*
G36*
X10076D02*
X10058D01*
X10058Y11214D01*
X10065Y11204D01*
X10076Y11196D01*
X10076Y11196D01*
Y11215D01*
D02*
G37*
G36*
X10521Y10280D02*
Y10183D01*
X10618D01*
X10616Y10199D01*
X10605Y10226D01*
X10587Y10249D01*
X10564Y10267D01*
X10537Y10278D01*
X10521Y10280D01*
D02*
G37*
G36*
X7496D02*
X7479Y10278D01*
X7453Y10267D01*
X7429Y10249D01*
X7412Y10226D01*
X7401Y10199D01*
X7398Y10183D01*
X7496D01*
Y10280D01*
D02*
G37*
G36*
X10618Y10157D02*
X10521D01*
Y10060D01*
X10537Y10063D01*
X10564Y10074D01*
X10587Y10091D01*
X10605Y10114D01*
X10616Y10141D01*
X10618Y10157D01*
D02*
G37*
G36*
X7521Y10280D02*
Y10183D01*
X7618D01*
X7616Y10199D01*
X7605Y10226D01*
X7587Y10249D01*
X7564Y10267D01*
X7537Y10278D01*
X7521Y10280D01*
D02*
G37*
G36*
X10495D02*
X10479Y10278D01*
X10452Y10267D01*
X10429Y10249D01*
X10411Y10226D01*
X10400Y10199D01*
X10398Y10183D01*
X10495D01*
Y10280D01*
D02*
G37*
G36*
X7774Y11405D02*
X7715D01*
Y11312D01*
X7774D01*
Y11405D01*
D02*
G37*
G36*
X7899Y11258D02*
Y11240D01*
X7918D01*
X7918Y11240D01*
X7910Y11251D01*
X7899Y11258D01*
X7899Y11258D01*
D02*
G37*
G36*
X10175Y11405D02*
X10117D01*
Y11312D01*
X10175D01*
Y11405D01*
D02*
G37*
G36*
X7858D02*
X7799D01*
Y11312D01*
X7858D01*
Y11405D01*
D02*
G37*
G36*
X10102Y11258D02*
Y11240D01*
X10120D01*
X10120Y11240D01*
X10113Y11251D01*
X10102Y11258D01*
X10102Y11258D01*
D02*
G37*
G36*
X10120Y11215D02*
X10102D01*
Y11196D01*
X10102Y11196D01*
X10113Y11204D01*
X10120Y11214D01*
X10120Y11215D01*
D02*
G37*
G36*
X7874D02*
X7855D01*
X7855Y11214D01*
X7863Y11204D01*
X7874Y11196D01*
X7874Y11196D01*
Y11215D01*
D02*
G37*
G36*
X10076Y11258D02*
X10076Y11258D01*
X10065Y11251D01*
X10058Y11240D01*
X10058Y11240D01*
X10076D01*
Y11258D01*
D02*
G37*
G36*
X7874D02*
X7874Y11258D01*
X7863Y11251D01*
X7855Y11240D01*
X7855Y11240D01*
X7874D01*
Y11258D01*
D02*
G37*
G36*
X7618Y10157D02*
X7521D01*
Y10060D01*
X7537Y10063D01*
X7564Y10074D01*
X7587Y10091D01*
X7605Y10114D01*
X7616Y10141D01*
X7618Y10157D01*
D02*
G37*
G36*
X8191Y8191D02*
X7954D01*
X7958Y8155D01*
X7972Y8108D01*
X7995Y8064D01*
X8026Y8026D01*
X8064Y7995D01*
X8108Y7972D01*
X8155Y7958D01*
X8191Y7954D01*
Y8191D01*
D02*
G37*
G36*
X15046Y8191D02*
X14809D01*
Y7954D01*
X14845Y7958D01*
X14892Y7972D01*
X14936Y7995D01*
X14974Y8026D01*
X15005Y8064D01*
X15028Y8108D01*
X15042Y8155D01*
X15046Y8191D01*
D02*
G37*
G36*
X14783Y8454D02*
X14747Y8450D01*
X14700Y8436D01*
X14656Y8413D01*
X14618Y8382D01*
X14587Y8343D01*
X14564Y8300D01*
X14550Y8253D01*
X14546Y8217D01*
X14783D01*
Y8454D01*
D02*
G37*
G36*
X8454Y8191D02*
X8217D01*
Y7954D01*
X8253Y7958D01*
X8300Y7972D01*
X8344Y7995D01*
X8382Y8026D01*
X8413Y8064D01*
X8436Y8108D01*
X8450Y8155D01*
X8454Y8191D01*
D02*
G37*
G36*
X14783Y8191D02*
X14546D01*
X14550Y8155D01*
X14564Y8108D01*
X14587Y8064D01*
X14618Y8026D01*
X14656Y7995D01*
X14700Y7972D01*
X14747Y7958D01*
X14783Y7954D01*
Y8191D01*
D02*
G37*
G36*
X9380Y7624D02*
X8911D01*
Y7155D01*
X8961Y7158D01*
X9023Y7170D01*
X9083Y7191D01*
X9140Y7219D01*
X9192Y7254D01*
X9240Y7295D01*
X9281Y7343D01*
X9317Y7395D01*
X9345Y7452D01*
X9365Y7512D01*
X9377Y7574D01*
X9380Y7624D01*
D02*
G37*
G36*
X8886D02*
X8416D01*
X8419Y7574D01*
X8432Y7512D01*
X8452Y7452D01*
X8480Y7395D01*
X8515Y7343D01*
X8557Y7295D01*
X8604Y7254D01*
X8657Y7219D01*
X8713Y7191D01*
X8773Y7170D01*
X8835Y7158D01*
X8886Y7155D01*
Y7624D01*
D02*
G37*
G36*
X8911Y8119D02*
Y7650D01*
X9380D01*
X9377Y7700D01*
X9365Y7762D01*
X9345Y7822D01*
X9317Y7878D01*
X9281Y7931D01*
X9240Y7979D01*
X9192Y8020D01*
X9140Y8055D01*
X9083Y8083D01*
X9023Y8104D01*
X8961Y8116D01*
X8911Y8119D01*
D02*
G37*
G36*
X8886D02*
X8835Y8116D01*
X8773Y8104D01*
X8713Y8083D01*
X8657Y8055D01*
X8604Y8020D01*
X8557Y7979D01*
X8515Y7931D01*
X8480Y7878D01*
X8452Y7822D01*
X8432Y7762D01*
X8419Y7700D01*
X8416Y7650D01*
X8886D01*
Y8119D01*
D02*
G37*
G36*
X9021Y10771D02*
Y9783D01*
X10009D01*
X10005Y9868D01*
X9990Y9966D01*
X9966Y10061D01*
X9933Y10153D01*
X9891Y10242D01*
X9841Y10326D01*
X9782Y10405D01*
X9716Y10478D01*
X9643Y10544D01*
X9564Y10603D01*
X9480Y10653D01*
X9391Y10695D01*
X9299Y10728D01*
X9203Y10752D01*
X9106Y10767D01*
X9021Y10771D01*
D02*
G37*
G36*
X8995D02*
X8910Y10767D01*
X8813Y10752D01*
X8717Y10728D01*
X8625Y10695D01*
X8536Y10653D01*
X8452Y10603D01*
X8373Y10544D01*
X8300Y10478D01*
X8234Y10405D01*
X8176Y10326D01*
X8125Y10242D01*
X8083Y10153D01*
X8050Y10061D01*
X8026Y9966D01*
X8012Y9868D01*
X8008Y9783D01*
X8995D01*
Y10771D01*
D02*
G37*
G36*
X10495Y10157D02*
X10398D01*
X10400Y10141D01*
X10411Y10114D01*
X10429Y10091D01*
X10452Y10074D01*
X10479Y10063D01*
X10495Y10060D01*
Y10157D01*
D02*
G37*
G36*
X7496D02*
X7398D01*
X7401Y10141D01*
X7412Y10114D01*
X7429Y10091D01*
X7453Y10074D01*
X7479Y10063D01*
X7496Y10060D01*
Y10157D01*
D02*
G37*
G36*
X10009Y9757D02*
X9021D01*
Y8770D01*
X9106Y8774D01*
X9203Y8788D01*
X9299Y8812D01*
X9391Y8845D01*
X9480Y8887D01*
X9564Y8938D01*
X9643Y8996D01*
X9716Y9062D01*
X9782Y9135D01*
X9841Y9214D01*
X9891Y9298D01*
X9933Y9387D01*
X9966Y9480D01*
X9990Y9575D01*
X10005Y9672D01*
X10009Y9757D01*
D02*
G37*
G36*
X8191Y8454D02*
X8155Y8450D01*
X8108Y8436D01*
X8064Y8413D01*
X8026Y8382D01*
X7995Y8344D01*
X7972Y8300D01*
X7958Y8253D01*
X7954Y8217D01*
X8191D01*
Y8454D01*
D02*
G37*
G36*
X14809Y8454D02*
Y8217D01*
X15046D01*
X15042Y8253D01*
X15028Y8300D01*
X15005Y8343D01*
X14974Y8382D01*
X14936Y8413D01*
X14892Y8436D01*
X14845Y8450D01*
X14809Y8454D01*
D02*
G37*
G36*
X8995Y9757D02*
X8008D01*
X8012Y9672D01*
X8026Y9575D01*
X8050Y9480D01*
X8083Y9387D01*
X8125Y9298D01*
X8176Y9214D01*
X8234Y9135D01*
X8300Y9062D01*
X8373Y8996D01*
X8452Y8938D01*
X8536Y8887D01*
X8625Y8845D01*
X8717Y8812D01*
X8813Y8788D01*
X8910Y8774D01*
X8995Y8770D01*
Y9757D01*
D02*
G37*
G36*
X8217Y8454D02*
Y8217D01*
X8454D01*
X8450Y8253D01*
X8436Y8300D01*
X8413Y8344D01*
X8382Y8382D01*
X8344Y8413D01*
X8300Y8436D01*
X8253Y8450D01*
X8217Y8454D01*
D02*
G37*
G36*
X10259Y11405D02*
X10201D01*
Y11312D01*
X10259D01*
Y11405D01*
D02*
G37*
G36*
X8217Y15046D02*
Y14809D01*
X8454D01*
X8450Y14845D01*
X8436Y14892D01*
X8413Y14936D01*
X8382Y14974D01*
X8343Y15005D01*
X8300Y15028D01*
X8253Y15042D01*
X8217Y15046D01*
D02*
G37*
G36*
X8191D02*
X8155Y15042D01*
X8108Y15028D01*
X8064Y15005D01*
X8026Y14974D01*
X7995Y14936D01*
X7972Y14892D01*
X7958Y14845D01*
X7954Y14809D01*
X8191D01*
Y15046D01*
D02*
G37*
G36*
X14809D02*
Y14809D01*
X15046D01*
X15042Y14845D01*
X15028Y14892D01*
X15005Y14936D01*
X14974Y14974D01*
X14936Y15005D01*
X14892Y15028D01*
X14845Y15042D01*
X14809Y15046D01*
D02*
G37*
G36*
X14783D02*
X14747Y15042D01*
X14700Y15028D01*
X14657Y15005D01*
X14618Y14974D01*
X14587Y14936D01*
X14564Y14892D01*
X14550Y14845D01*
X14546Y14809D01*
X14783D01*
Y15046D01*
D02*
G37*
G36*
X15046Y14783D02*
X14809D01*
Y14546D01*
X14845Y14550D01*
X14892Y14564D01*
X14936Y14587D01*
X14974Y14618D01*
X15005Y14657D01*
X15028Y14700D01*
X15042Y14747D01*
X15046Y14783D01*
D02*
G37*
G36*
X8191D02*
X7954D01*
X7958Y14747D01*
X7972Y14700D01*
X7995Y14657D01*
X8026Y14618D01*
X8064Y14587D01*
X8108Y14564D01*
X8155Y14550D01*
X8191Y14546D01*
Y14783D01*
D02*
G37*
G36*
X15390Y13690D02*
X12680D01*
X12680Y13690D01*
X12679Y13690D01*
X12594Y13685D01*
X12593Y13684D01*
X12592Y13684D01*
X12509Y13668D01*
X12508Y13667D01*
X12507Y13667D01*
X12426Y13640D01*
X12425Y13639D01*
X12425Y13639D01*
X12348Y13602D01*
X12347Y13601D01*
X12347Y13601D01*
X12276Y13553D01*
X12275Y13552D01*
X12274Y13552D01*
X12210Y13496D01*
X12210Y13495D01*
X12209Y13495D01*
X12153Y13431D01*
X12152Y13430D01*
X12152Y13429D01*
X12104Y13358D01*
X12104Y13357D01*
X12103Y13357D01*
X12066Y13280D01*
X12066Y13279D01*
X12065Y13279D01*
X12038Y13198D01*
X12038Y13197D01*
X12037Y13196D01*
X12020Y13113D01*
X12021Y13112D01*
X12020Y13111D01*
X12015Y13026D01*
X12015Y13025D01*
X12015Y13025D01*
Y10315D01*
X12015Y10314D01*
X12015Y10314D01*
X12020Y10229D01*
X12021Y10228D01*
X12020Y10227D01*
X12037Y10144D01*
X12038Y10143D01*
X12038Y10142D01*
X12065Y10061D01*
X12066Y10060D01*
X12066Y10059D01*
X12103Y9983D01*
X12104Y9982D01*
X12104Y9981D01*
X12152Y9911D01*
X12152Y9910D01*
X12153Y9909D01*
X12209Y9845D01*
X12210Y9845D01*
X12210Y9844D01*
X12274Y9788D01*
X12275Y9787D01*
X12276Y9787D01*
X12347Y9739D01*
X12347Y9739D01*
X12348Y9738D01*
X12425Y9701D01*
X12425Y9701D01*
X12426Y9700D01*
X12507Y9672D01*
X12508Y9673D01*
X12509Y9672D01*
X12592Y9655D01*
X12593Y9656D01*
X12594Y9655D01*
X12679Y9650D01*
X12680Y9650D01*
X12680Y9650D01*
X15390D01*
X15390Y9650D01*
X15391Y9650D01*
X15476Y9655D01*
X15477Y9656D01*
X15478Y9655D01*
X15561Y9672D01*
X15562Y9673D01*
X15563Y9672D01*
X15644Y9700D01*
X15644Y9701D01*
X15645Y9701D01*
X15722Y9738D01*
X15722Y9739D01*
X15723Y9739D01*
X15794Y9787D01*
X15795Y9787D01*
X15796Y9788D01*
X15860Y9844D01*
X15860Y9845D01*
X15861Y9845D01*
X15917Y9909D01*
X15918Y9910D01*
X15918Y9911D01*
X15966Y9981D01*
X15966Y9982D01*
X15967Y9983D01*
X16004Y10059D01*
X16004Y10060D01*
X16005Y10061D01*
X16032Y10142D01*
X16032Y10143D01*
X16033Y10144D01*
X16049Y10227D01*
X16049Y10228D01*
X16050Y10229D01*
X16055Y10314D01*
X16055Y10314D01*
X16055Y10315D01*
Y13025D01*
X16055Y13025D01*
X16055Y13026D01*
X16050Y13111D01*
X16049Y13112D01*
X16049Y13113D01*
X16033Y13196D01*
X16032Y13197D01*
X16032Y13198D01*
X16005Y13279D01*
X16004Y13279D01*
X16004Y13280D01*
X15967Y13357D01*
X15966Y13357D01*
X15966Y13358D01*
X15918Y13429D01*
X15918Y13430D01*
X15917Y13431D01*
X15861Y13495D01*
X15860Y13495D01*
X15860Y13496D01*
X15796Y13552D01*
X15795Y13552D01*
X15794Y13553D01*
X15723Y13601D01*
X15722Y13601D01*
X15722Y13602D01*
X15645Y13639D01*
X15644Y13639D01*
X15644Y13640D01*
X15563Y13667D01*
X15562Y13667D01*
X15561Y13668D01*
X15478Y13684D01*
X15477Y13684D01*
X15476Y13685D01*
X15391Y13690D01*
X15390Y13690D01*
X15390Y13690D01*
D02*
G37*
G36*
X14783Y14783D02*
X14546D01*
X14550Y14747D01*
X14564Y14700D01*
X14587Y14657D01*
X14618Y14618D01*
X14657Y14587D01*
X14700Y14564D01*
X14747Y14550D01*
X14783Y14546D01*
Y14783D01*
D02*
G37*
G36*
X8454D02*
X8217D01*
Y14546D01*
X8253Y14550D01*
X8300Y14564D01*
X8343Y14587D01*
X8382Y14618D01*
X8413Y14657D01*
X8436Y14700D01*
X8450Y14747D01*
X8454Y14783D01*
D02*
G37*
G36*
X13129Y15878D02*
X13086Y15876D01*
X13030Y15865D01*
X12977Y15846D01*
X12926Y15821D01*
X12880Y15790D01*
X12837Y15753D01*
X12800Y15711D01*
X12769Y15664D01*
X12744Y15613D01*
X12726Y15560D01*
X12715Y15505D01*
X12712Y15461D01*
X13129D01*
Y15878D01*
D02*
G37*
G36*
X14102Y15866D02*
Y15448D01*
X14519D01*
X14517Y15492D01*
X14506Y15547D01*
X14488Y15600D01*
X14463Y15651D01*
X14431Y15698D01*
X14394Y15740D01*
X14352Y15777D01*
X14305Y15809D01*
X14254Y15834D01*
X14201Y15852D01*
X14146Y15863D01*
X14102Y15866D01*
D02*
G37*
G36*
X11699Y15618D02*
X11697Y15617D01*
X11695Y15617D01*
X11694Y15617D01*
X11692Y15616D01*
X11690Y15615D01*
X11689Y15614D01*
X11686Y15613D01*
X11685Y15611D01*
X11683Y15610D01*
X11681Y15608D01*
X11680Y15606D01*
X11679Y15605D01*
X11677Y15602D01*
X11676Y15601D01*
X11673Y15600D01*
X11668Y15599D01*
X11663Y15600D01*
X11663Y15600D01*
X11662Y15601D01*
X11662Y15601D01*
X11662Y15601D01*
X11662Y15601D01*
X11661Y15601D01*
X11661Y15602D01*
X11661Y15602D01*
X11660Y15602D01*
X11660Y15602D01*
X11660Y15602D01*
X11660Y15602D01*
X11659Y15603D01*
X11658Y15603D01*
X11656Y15604D01*
X11656Y15604D01*
X11656Y15604D01*
X11655Y15605D01*
X11654Y15605D01*
X11652Y15605D01*
X11651Y15605D01*
X11650Y15605D01*
X11649Y15605D01*
X11648Y15605D01*
X11647Y15605D01*
X11646Y15605D01*
X11629Y15613D01*
X11628Y15612D01*
X11628Y15612D01*
X11625Y15612D01*
X11624Y15612D01*
X11624Y15613D01*
X11621Y15612D01*
X11618Y15612D01*
X11617Y15611D01*
X11617Y15611D01*
X11614Y15609D01*
X11612Y15608D01*
X11611Y15608D01*
X11611Y15607D01*
X11609Y15605D01*
X11607Y15602D01*
X11607Y15602D01*
X11607Y15602D01*
X11605Y15601D01*
X11604Y15601D01*
X11603Y15600D01*
X11601Y15599D01*
X11599Y15598D01*
X11598Y15597D01*
X11598Y15597D01*
X11598Y15597D01*
X11598Y15597D01*
X11597Y15596D01*
X11591Y15591D01*
X11585Y15592D01*
X11583Y15592D01*
X11582Y15592D01*
X11581Y15592D01*
X11579Y15592D01*
X11578Y15592D01*
X11577Y15592D01*
X11574Y15592D01*
X11573Y15592D01*
X11571Y15592D01*
X11569Y15592D01*
X11567Y15591D01*
X11565Y15590D01*
X11563Y15589D01*
X11560Y15588D01*
X11558Y15586D01*
X11556Y15585D01*
X11554Y15582D01*
X11553Y15581D01*
X11553Y15581D01*
X11551Y15580D01*
X11548Y15578D01*
X11548Y15578D01*
X11547Y15577D01*
X11546Y15575D01*
X11544Y15573D01*
X11542Y15570D01*
X11542Y15568D01*
X11542Y15568D01*
X11540Y15564D01*
X11540Y15564D01*
X11540Y15563D01*
X11539Y15559D01*
X11535Y15553D01*
X11532Y15553D01*
X11532Y15552D01*
X11531Y15552D01*
X11529Y15552D01*
X11528Y15552D01*
X11526Y15552D01*
X11524Y15551D01*
X11523Y15550D01*
X11521Y15550D01*
X11518Y15548D01*
X11518Y15548D01*
X11517Y15547D01*
X11514Y15546D01*
X11514Y15546D01*
X11514Y15546D01*
X11513Y15545D01*
X11513Y15545D01*
X11512Y15545D01*
X11509Y15544D01*
X11506Y15543D01*
X11506Y15543D01*
X11506Y15543D01*
X11503Y15540D01*
X11501Y15538D01*
X11501Y15538D01*
X11500Y15538D01*
X11498Y15535D01*
X11498Y15535D01*
X11498Y15535D01*
X11497Y15533D01*
X11495Y15532D01*
X11492Y15531D01*
X11492Y15531D01*
X11491Y15531D01*
X11489Y15529D01*
X11487Y15527D01*
X11486Y15526D01*
X11486Y15526D01*
X11485Y15523D01*
X11483Y15521D01*
X11483Y15520D01*
X11483Y15519D01*
X11483Y15517D01*
X11483Y15514D01*
X11483Y15507D01*
X11484Y15502D01*
X11484Y15496D01*
X11484Y15496D01*
X11484Y15496D01*
X11484Y15490D01*
X11485Y15489D01*
X11485Y15489D01*
X11485Y15485D01*
X11486Y15484D01*
X11486Y15483D01*
X11487Y15479D01*
X11487Y15478D01*
X11487Y15477D01*
X11488Y15475D01*
X11488Y15474D01*
X11488Y15472D01*
X11488Y15470D01*
X11488Y15468D01*
X11489Y15467D01*
X11490Y15465D01*
X11490Y15463D01*
X11504Y15441D01*
X11504Y15440D01*
X11505Y15437D01*
X11506Y15436D01*
X11506Y15435D01*
X11507Y15432D01*
X11508Y15431D01*
X11508Y15431D01*
X11510Y15428D01*
X11510Y15428D01*
X11510Y15428D01*
X11510Y15427D01*
X11509Y15426D01*
X11509Y15425D01*
X11509Y15424D01*
X11508Y15423D01*
X11508Y15423D01*
X11508Y15422D01*
X11508Y15421D01*
X11508Y15420D01*
X11508Y15418D01*
X11508Y15417D01*
X11508Y15417D01*
X11508Y15417D01*
X11508Y15417D01*
X11507Y15416D01*
X11507Y15416D01*
X11507Y15416D01*
X11507Y15415D01*
X11508Y15414D01*
X11508Y15413D01*
X11508Y15412D01*
X11509Y15409D01*
X11509Y15409D01*
X11509Y15409D01*
X11509Y15409D01*
X11509Y15409D01*
X11509Y15409D01*
X11509Y15409D01*
X11510Y15408D01*
X11511Y15406D01*
X11512Y15404D01*
X11513Y15404D01*
X11513Y15403D01*
X11513Y15403D01*
X11514Y15402D01*
X11516Y15401D01*
X11516Y15401D01*
X11517Y15400D01*
X11518Y15399D01*
X11519Y15399D01*
X11520Y15399D01*
X11520Y15399D01*
X11520Y15398D01*
X11521Y15398D01*
X11522Y15398D01*
X11524Y15397D01*
X11525Y15397D01*
X11526Y15397D01*
X11528Y15396D01*
X11529Y15396D01*
X11529Y15396D01*
X11532Y15395D01*
X11533Y15395D01*
X11534Y15395D01*
X11537Y15395D01*
X11539Y15395D01*
X11541Y15395D01*
X11544Y15395D01*
X11546Y15396D01*
X11548Y15396D01*
X11551Y15397D01*
X11552Y15397D01*
X11553Y15398D01*
X11556Y15399D01*
X11557Y15400D01*
X11557Y15400D01*
X11560Y15402D01*
X11560Y15402D01*
X11561Y15402D01*
X11564Y15404D01*
X11566Y15406D01*
X11567Y15406D01*
X11584Y15408D01*
X11584Y15410D01*
X11586Y15410D01*
X11589Y15411D01*
X11589Y15411D01*
X11589Y15411D01*
X11592Y15413D01*
X11595Y15414D01*
X11595Y15415D01*
X11595Y15415D01*
X11597Y15417D01*
X11598Y15420D01*
X11613Y15427D01*
X11613D01*
Y15427D01*
X11625Y15429D01*
X11626Y15429D01*
X11628Y15428D01*
X11630Y15428D01*
X11630Y15428D01*
X11631Y15427D01*
X11631Y15427D01*
X11631Y15427D01*
X11632Y15425D01*
X11632Y15424D01*
X11632Y15424D01*
X11632Y15424D01*
X11633Y15423D01*
X11633Y15422D01*
X11634Y15421D01*
X11635Y15421D01*
X11635Y15421D01*
X11635Y15420D01*
X11636Y15419D01*
X11637Y15418D01*
X11637Y15418D01*
X11638Y15418D01*
X11638Y15417D01*
X11639Y15417D01*
X11640Y15416D01*
X11640Y15416D01*
X11640Y15416D01*
X11641Y15415D01*
X11642Y15415D01*
X11643Y15415D01*
X11644Y15414D01*
X11645Y15414D01*
X11645Y15414D01*
X11646Y15414D01*
X11654Y15411D01*
X11655Y15409D01*
X11655Y15408D01*
X11656Y15406D01*
X11657Y15404D01*
X11659Y15400D01*
X11660Y15399D01*
X11661Y15398D01*
X11664Y15394D01*
X11665Y15394D01*
X11665Y15393D01*
X11669Y15390D01*
X11670Y15389D01*
X11670Y15388D01*
X11674Y15386D01*
X11675Y15385D01*
X11675Y15385D01*
X11679Y15382D01*
X11679Y15382D01*
X11680Y15382D01*
X11685Y15379D01*
X11685Y15379D01*
X11685Y15376D01*
Y15370D01*
X11685Y15367D01*
X11686Y15364D01*
X11686Y15362D01*
X11687Y15358D01*
X11687Y15357D01*
X11687Y15357D01*
X11688Y15354D01*
X11689Y15351D01*
X11689Y15351D01*
X11690Y15351D01*
X11695Y15342D01*
X11697Y15340D01*
X11699Y15338D01*
X11700Y15338D01*
X11700Y15338D01*
X11703Y15336D01*
X11706Y15335D01*
X11708Y15335D01*
X11708Y15335D01*
X11709Y15334D01*
X11712Y15334D01*
X11715Y15334D01*
X11715Y15335D01*
X11716Y15335D01*
X11718Y15336D01*
X11721Y15337D01*
X11722Y15337D01*
X11722Y15337D01*
X11724Y15339D01*
X11726Y15341D01*
X11727Y15342D01*
X11728Y15342D01*
X11729Y15343D01*
X11730Y15343D01*
X11731Y15345D01*
X11733Y15347D01*
X11734Y15348D01*
X11734Y15349D01*
X11739Y15356D01*
X11739Y15357D01*
X11739Y15357D01*
X11740Y15360D01*
X11741Y15363D01*
X11741Y15364D01*
X11741Y15364D01*
X11742Y15372D01*
X11741Y15375D01*
X11741Y15377D01*
X11741Y15378D01*
X11746Y15381D01*
X11751Y15384D01*
X11752Y15385D01*
X11752Y15385D01*
X11756Y15391D01*
X11757Y15394D01*
X11757Y15394D01*
X11765Y15420D01*
X11773Y15432D01*
X11775Y15442D01*
X11775Y15442D01*
X11776Y15445D01*
X11776Y15448D01*
X11778Y15451D01*
X11779Y15455D01*
X11779Y15456D01*
X11779Y15456D01*
X11780Y15459D01*
X11780Y15460D01*
X11781Y15461D01*
X11781Y15464D01*
X11781Y15465D01*
X11782Y15466D01*
X11782Y15469D01*
X11782Y15471D01*
X11782Y15472D01*
X11782Y15475D01*
X11781Y15476D01*
X11781Y15477D01*
X11781Y15481D01*
X11781Y15481D01*
X11781Y15482D01*
X11780Y15485D01*
X11780Y15485D01*
X11780Y15485D01*
X11779Y15489D01*
X11778Y15492D01*
X11778Y15496D01*
X11777Y15497D01*
X11777Y15498D01*
X11776Y15500D01*
X11775Y15503D01*
X11774Y15504D01*
X11774Y15505D01*
X11771Y15509D01*
X11771Y15509D01*
X11770Y15509D01*
X11768Y15513D01*
X11765Y15516D01*
X11764Y15517D01*
X11764Y15519D01*
X11763Y15522D01*
X11762Y15523D01*
X11762Y15525D01*
X11761Y15526D01*
X11760Y15528D01*
X11758Y15529D01*
X11757Y15530D01*
X11756Y15531D01*
X11754Y15532D01*
X11754Y15533D01*
X11753Y15534D01*
X11752Y15535D01*
X11752Y15536D01*
X11750Y15539D01*
X11749Y15540D01*
X11748Y15541D01*
X11746Y15543D01*
X11745Y15544D01*
X11744Y15545D01*
X11742Y15547D01*
X11741Y15547D01*
X11740Y15548D01*
X11739Y15549D01*
X11738Y15551D01*
X11738Y15552D01*
X11738Y15552D01*
X11737Y15556D01*
X11737Y15556D01*
X11737Y15557D01*
X11736Y15561D01*
X11736Y15562D01*
X11736Y15563D01*
X11735Y15566D01*
X11734Y15567D01*
X11734Y15568D01*
X11733Y15571D01*
X11732Y15572D01*
X11731Y15573D01*
X11729Y15576D01*
X11728Y15577D01*
X11727Y15578D01*
X11725Y15580D01*
X11724Y15581D01*
X11723Y15581D01*
X11723Y15582D01*
X11716Y15606D01*
X11716Y15606D01*
X11716Y15606D01*
X11716Y15607D01*
X11715Y15607D01*
X11714Y15610D01*
X11713Y15611D01*
X11712Y15612D01*
X11712Y15612D01*
X11710Y15614D01*
X11709Y15615D01*
X11709Y15615D01*
X11708Y15615D01*
X11708Y15615D01*
X11707Y15615D01*
X11706Y15616D01*
X11704Y15617D01*
X11702Y15617D01*
X11700Y15617D01*
X11699Y15618D01*
D02*
G37*
G36*
X13155Y15878D02*
Y15461D01*
X13572D01*
X13569Y15505D01*
X13558Y15560D01*
X13540Y15613D01*
X13515Y15664D01*
X13484Y15711D01*
X13447Y15753D01*
X13404Y15790D01*
X13357Y15821D01*
X13307Y15846D01*
X13253Y15865D01*
X13198Y15876D01*
X13155Y15878D01*
D02*
G37*
G36*
X14077Y15866D02*
X14033Y15863D01*
X13978Y15852D01*
X13924Y15834D01*
X13874Y15809D01*
X13827Y15777D01*
X13785Y15740D01*
X13748Y15698D01*
X13716Y15651D01*
X13691Y15600D01*
X13673Y15547D01*
X13662Y15492D01*
X13659Y15448D01*
X14077D01*
Y15866D01*
D02*
G37*
G36*
X14519Y15423D02*
X14102D01*
Y15005D01*
X14146Y15008D01*
X14201Y15019D01*
X14254Y15037D01*
X14305Y15062D01*
X14352Y15094D01*
X14394Y15131D01*
X14431Y15173D01*
X14463Y15220D01*
X14488Y15271D01*
X14506Y15324D01*
X14517Y15379D01*
X14519Y15423D01*
D02*
G37*
G36*
X14077D02*
X13659D01*
X13662Y15379D01*
X13673Y15324D01*
X13691Y15271D01*
X13716Y15220D01*
X13748Y15173D01*
X13785Y15131D01*
X13827Y15094D01*
X13874Y15062D01*
X13924Y15037D01*
X13978Y15019D01*
X14033Y15008D01*
X14077Y15005D01*
Y15423D01*
D02*
G37*
G36*
X13572Y15436D02*
X13155D01*
Y15018D01*
X13198Y15021D01*
X13253Y15032D01*
X13307Y15050D01*
X13357Y15075D01*
X13404Y15106D01*
X13447Y15144D01*
X13484Y15186D01*
X13515Y15233D01*
X13540Y15283D01*
X13558Y15337D01*
X13569Y15392D01*
X13572Y15436D01*
D02*
G37*
G36*
X13129D02*
X12712D01*
X12715Y15392D01*
X12726Y15337D01*
X12744Y15283D01*
X12769Y15233D01*
X12800Y15186D01*
X12837Y15144D01*
X12880Y15106D01*
X12926Y15075D01*
X12977Y15050D01*
X13030Y15032D01*
X13086Y15021D01*
X13129Y15018D01*
Y15436D01*
D02*
G37*
G36*
X9021Y14571D02*
Y13583D01*
X10009D01*
X10005Y13668D01*
X9990Y13765D01*
X9966Y13861D01*
X9933Y13953D01*
X9891Y14042D01*
X9841Y14126D01*
X9782Y14205D01*
X9716Y14278D01*
X9643Y14344D01*
X9564Y14402D01*
X9480Y14453D01*
X9391Y14495D01*
X9299Y14528D01*
X9203Y14552D01*
X9106Y14566D01*
X9021Y14571D01*
D02*
G37*
G36*
X9863Y11945D02*
X9846Y11942D01*
X9829Y11935D01*
X9815Y11925D01*
X9804Y11910D01*
X9797Y11894D01*
X9795Y11876D01*
X9795Y11875D01*
X9786Y11866D01*
X9783Y11866D01*
X9767Y11868D01*
X9749Y11866D01*
X9733Y11859D01*
X9718Y11848D01*
X9708Y11834D01*
X9701Y11818D01*
X9698Y11800D01*
X9701Y11782D01*
X9708Y11766D01*
X9709Y11764D01*
X9703Y11753D01*
X9688D01*
Y11704D01*
X9675Y11710D01*
Y11684D01*
Y11628D01*
X9682Y11619D01*
Y11545D01*
X9674Y11542D01*
X9660Y11531D01*
X9649Y11517D01*
X9642Y11500D01*
X9640Y11483D01*
X9642Y11465D01*
X9649Y11448D01*
X9660Y11434D01*
X9661Y11434D01*
X9657Y11420D01*
X9652Y11420D01*
X9635Y11413D01*
X9621Y11402D01*
X9610Y11388D01*
X9603Y11371D01*
X9601Y11354D01*
X9603Y11343D01*
X9591Y11334D01*
X9582Y11338D01*
X9564Y11340D01*
X9548Y11338D01*
X9543Y11341D01*
X9536Y11348D01*
X9537Y11354D01*
X9535Y11371D01*
X9528Y11388D01*
X9517Y11402D01*
X9516Y11403D01*
X9520Y11416D01*
X9525Y11417D01*
X9542Y11423D01*
X9556Y11434D01*
X9567Y11448D01*
X9574Y11465D01*
X9576Y11483D01*
X9574Y11500D01*
X9567Y11517D01*
X9556Y11531D01*
X9542Y11542D01*
X9534Y11545D01*
Y11615D01*
X9589D01*
Y11672D01*
X9601Y11666D01*
Y11684D01*
X9614D01*
Y11697D01*
X9627D01*
Y11740D01*
X9620D01*
X9616Y11749D01*
X9615Y11753D01*
X9625Y11766D01*
X9632Y11782D01*
X9634Y11800D01*
X9632Y11818D01*
X9625Y11834D01*
X9614Y11848D01*
X9600Y11859D01*
X9584Y11866D01*
X9566Y11868D01*
X9548Y11866D01*
X9544Y11864D01*
X9532Y11873D01*
X9533Y11876D01*
X9530Y11894D01*
X9524Y11910D01*
X9513Y11925D01*
X9499Y11935D01*
X9482Y11942D01*
X9464Y11945D01*
X9447Y11942D01*
X9430Y11935D01*
X9416Y11925D01*
X9405Y11910D01*
X9398Y11894D01*
X9396Y11876D01*
X9397Y11872D01*
X9387Y11865D01*
X9383Y11866D01*
X9365Y11868D01*
X9348Y11866D01*
X9343Y11864D01*
X9332Y11873D01*
X9332Y11876D01*
X9330Y11894D01*
X9323Y11910D01*
X9312Y11925D01*
X9298Y11935D01*
X9281Y11942D01*
X9264Y11945D01*
X9246Y11942D01*
X9230Y11935D01*
X9215Y11925D01*
X9205Y11910D01*
X9198Y11894D01*
X9195Y11876D01*
X9196Y11872D01*
X9186Y11865D01*
X9182Y11866D01*
X9165Y11868D01*
X9147Y11866D01*
X9143Y11864D01*
X9131Y11873D01*
X9131Y11876D01*
X9129Y11894D01*
X9122Y11910D01*
X9111Y11925D01*
X9097Y11935D01*
X9081Y11942D01*
X9063Y11945D01*
X9045Y11942D01*
X9029Y11935D01*
X9015Y11925D01*
X9004Y11910D01*
X8997Y11894D01*
X8995Y11876D01*
X8995Y11872D01*
X8985Y11865D01*
X8982Y11866D01*
X8964Y11868D01*
X8947Y11866D01*
X8942Y11864D01*
X8931Y11873D01*
X8931Y11876D01*
X8929Y11894D01*
X8922Y11910D01*
X8911Y11925D01*
X8897Y11935D01*
X8881Y11942D01*
X8863Y11945D01*
X8845Y11942D01*
X8829Y11935D01*
X8815Y11925D01*
X8804Y11910D01*
X8797Y11894D01*
X8795Y11876D01*
X8795Y11873D01*
X8785Y11865D01*
X8782Y11866D01*
X8764Y11868D01*
X8747Y11866D01*
X8742Y11864D01*
X8731Y11873D01*
X8731Y11876D01*
X8729Y11894D01*
X8722Y11910D01*
X8711Y11925D01*
X8697Y11935D01*
X8681Y11942D01*
X8663Y11945D01*
X8645Y11942D01*
X8629Y11935D01*
X8615Y11925D01*
X8604Y11910D01*
X8597Y11894D01*
X8595Y11876D01*
X8595Y11873D01*
X8585Y11865D01*
X8582Y11866D01*
X8564Y11868D01*
X8547Y11866D01*
X8542Y11864D01*
X8531Y11873D01*
X8531Y11876D01*
X8529Y11894D01*
X8522Y11910D01*
X8511Y11925D01*
X8497Y11935D01*
X8481Y11942D01*
X8463Y11945D01*
X8445Y11942D01*
X8429Y11935D01*
X8415Y11925D01*
X8404Y11910D01*
X8397Y11894D01*
X8395Y11876D01*
X8395Y11873D01*
X8385Y11865D01*
X8382Y11866D01*
X8364Y11868D01*
X8347Y11866D01*
X8342Y11864D01*
X8331Y11873D01*
X8331Y11876D01*
X8329Y11894D01*
X8322Y11910D01*
X8311Y11925D01*
X8297Y11935D01*
X8281Y11942D01*
X8263Y11945D01*
X8245Y11942D01*
X8229Y11935D01*
X8215Y11925D01*
X8204Y11910D01*
X8197Y11894D01*
X8195Y11876D01*
X8195Y11873D01*
X8185Y11865D01*
X8182Y11866D01*
X8164Y11868D01*
X8147Y11866D01*
X8142Y11864D01*
X8131Y11873D01*
X8131Y11876D01*
X8129Y11894D01*
X8122Y11910D01*
X8111Y11925D01*
X8097Y11935D01*
X8081Y11942D01*
X8063Y11945D01*
X8045Y11942D01*
X8029Y11935D01*
X8015Y11925D01*
X8004Y11910D01*
X7997Y11894D01*
X7995Y11876D01*
X7997Y11859D01*
X8004Y11842D01*
X8015Y11828D01*
X8029Y11817D01*
X8037Y11814D01*
Y11753D01*
X7986D01*
Y11687D01*
X7986Y11684D01*
Y11627D01*
X7977Y11623D01*
X7963Y11613D01*
X7952Y11598D01*
X7945Y11582D01*
X7943Y11564D01*
X7945Y11547D01*
X7952Y11530D01*
X7963Y11516D01*
X7977Y11505D01*
X7993Y11498D01*
X8011Y11496D01*
X8027Y11498D01*
X8031Y11496D01*
X8039Y11489D01*
X8038Y11483D01*
X8040Y11465D01*
X8047Y11448D01*
X8058Y11434D01*
X8058Y11434D01*
X8055Y11420D01*
X8049Y11420D01*
X8033Y11413D01*
X8019Y11402D01*
X8008Y11388D01*
X8001Y11371D01*
X7999Y11354D01*
X8001Y11336D01*
X8008Y11320D01*
X8019Y11306D01*
X8033Y11295D01*
X8041Y11291D01*
Y11221D01*
X7986D01*
Y11155D01*
X7986Y11152D01*
Y11100D01*
X7974Y11095D01*
X7960Y11085D01*
X7949Y11070D01*
X7943Y11054D01*
X7940Y11036D01*
X7943Y11019D01*
X7949Y11002D01*
X7960Y10988D01*
X7974Y10977D01*
X7991Y10970D01*
X8009Y10968D01*
X8026Y10970D01*
X8031Y10972D01*
X8042Y10963D01*
X8042Y10960D01*
X8044Y10942D01*
X8051Y10926D01*
X8062Y10912D01*
X8076Y10901D01*
X8093Y10894D01*
X8110Y10892D01*
X8128Y10894D01*
X8144Y10901D01*
X8159Y10912D01*
X8169Y10926D01*
X8176Y10942D01*
X8179Y10960D01*
X8178Y10964D01*
X8188Y10972D01*
X8191Y10970D01*
X8209Y10968D01*
X8226Y10970D01*
X8231Y10972D01*
X8242Y10963D01*
X8242Y10960D01*
X8244Y10942D01*
X8251Y10926D01*
X8262Y10912D01*
X8276Y10901D01*
X8293Y10894D01*
X8310Y10892D01*
X8328Y10894D01*
X8344Y10901D01*
X8359Y10912D01*
X8369Y10926D01*
X8376Y10942D01*
X8379Y10960D01*
X8378Y10964D01*
X8388Y10972D01*
X8391Y10970D01*
X8409Y10968D01*
X8426Y10970D01*
X8431Y10972D01*
X8442Y10963D01*
X8442Y10960D01*
X8444Y10942D01*
X8451Y10926D01*
X8462Y10912D01*
X8476Y10901D01*
X8493Y10894D01*
X8510Y10892D01*
X8528Y10894D01*
X8544Y10901D01*
X8559Y10912D01*
X8569Y10926D01*
X8576Y10942D01*
X8579Y10960D01*
X8578Y10964D01*
X8588Y10972D01*
X8591Y10970D01*
X8609Y10968D01*
X8626Y10970D01*
X8631Y10972D01*
X8642Y10963D01*
X8642Y10960D01*
X8644Y10942D01*
X8651Y10926D01*
X8662Y10912D01*
X8676Y10901D01*
X8693Y10894D01*
X8710Y10892D01*
X8728Y10894D01*
X8744Y10901D01*
X8759Y10912D01*
X8769Y10926D01*
X8776Y10942D01*
X8779Y10960D01*
X8778Y10964D01*
X8788Y10972D01*
X8791Y10970D01*
X8809Y10968D01*
X8826Y10970D01*
X8831Y10972D01*
X8842Y10963D01*
X8842Y10960D01*
X8844Y10942D01*
X8851Y10926D01*
X8862Y10912D01*
X8876Y10901D01*
X8893Y10894D01*
X8910Y10892D01*
X8928Y10894D01*
X8944Y10901D01*
X8959Y10912D01*
X8969Y10926D01*
X8976Y10942D01*
X8979Y10960D01*
X8978Y10964D01*
X8988Y10972D01*
X8991Y10970D01*
X9009Y10968D01*
X9027Y10970D01*
X9031Y10972D01*
X9043Y10963D01*
X9042Y10960D01*
X9045Y10942D01*
X9051Y10926D01*
X9062Y10912D01*
X9076Y10901D01*
X9093Y10894D01*
X9111Y10892D01*
X9128Y10894D01*
X9145Y10901D01*
X9159Y10912D01*
X9170Y10926D01*
X9177Y10942D01*
X9179Y10960D01*
X9178Y10964D01*
X9188Y10972D01*
X9192Y10970D01*
X9210Y10968D01*
X9227Y10970D01*
X9232Y10972D01*
X9243Y10963D01*
X9243Y10960D01*
X9245Y10942D01*
X9252Y10926D01*
X9263Y10912D01*
X9277Y10901D01*
X9294Y10894D01*
X9311Y10892D01*
X9329Y10894D01*
X9345Y10901D01*
X9360Y10912D01*
X9370Y10926D01*
X9377Y10942D01*
X9380Y10960D01*
X9379Y10964D01*
X9389Y10972D01*
X9393Y10970D01*
X9410Y10968D01*
X9428Y10970D01*
X9432Y10972D01*
X9444Y10963D01*
X9444Y10960D01*
X9446Y10942D01*
X9453Y10926D01*
X9464Y10912D01*
X9478Y10901D01*
X9494Y10894D01*
X9512Y10892D01*
X9530Y10894D01*
X9546Y10901D01*
X9560Y10912D01*
X9571Y10926D01*
X9578Y10942D01*
X9580Y10960D01*
X9580Y10964D01*
X9590Y10972D01*
X9593Y10970D01*
X9611Y10968D01*
X9629Y10970D01*
X9633Y10972D01*
X9645Y10963D01*
X9644Y10960D01*
X9647Y10942D01*
X9653Y10926D01*
X9664Y10912D01*
X9678Y10901D01*
X9695Y10894D01*
X9713Y10892D01*
X9730Y10894D01*
X9747Y10901D01*
X9761Y10912D01*
X9772Y10926D01*
X9779Y10942D01*
X9781Y10960D01*
X9781Y10962D01*
X9790Y10970D01*
X9792Y10970D01*
X9809Y10968D01*
X9827Y10970D01*
X9831Y10972D01*
X9843Y10963D01*
X9842Y10960D01*
X9845Y10942D01*
X9852Y10926D01*
X9862Y10912D01*
X9877Y10901D01*
X9893Y10894D01*
X9911Y10892D01*
X9928Y10894D01*
X9945Y10901D01*
X9959Y10912D01*
X9970Y10926D01*
X9977Y10942D01*
X9979Y10960D01*
X9977Y10978D01*
X9970Y10994D01*
X9959Y11008D01*
X9945Y11019D01*
X9937Y11023D01*
Y11084D01*
X9987D01*
Y11149D01*
X9988Y11152D01*
Y11209D01*
X9997Y11213D01*
X10011Y11224D01*
X10022Y11238D01*
X10029Y11254D01*
X10031Y11272D01*
X10029Y11290D01*
X10022Y11306D01*
X10011Y11320D01*
X9997Y11331D01*
X9980Y11338D01*
X9963Y11340D01*
X9947Y11338D01*
X9942Y11341D01*
X9935Y11348D01*
X9936Y11354D01*
X9933Y11371D01*
X9927Y11388D01*
X9916Y11402D01*
X9915Y11403D01*
X9919Y11416D01*
X9924Y11417D01*
X9941Y11423D01*
X9955Y11434D01*
X9966Y11448D01*
X9972Y11465D01*
X9975Y11483D01*
X9972Y11500D01*
X9966Y11517D01*
X9955Y11531D01*
X9941Y11542D01*
X9932Y11545D01*
Y11606D01*
X9939Y11615D01*
X9952Y11617D01*
X9952Y11617D01*
X9962Y11615D01*
X9972Y11617D01*
X9980Y11623D01*
X9986Y11631D01*
X9988Y11641D01*
Y11736D01*
X9999Y11741D01*
X10013Y11752D01*
X10024Y11766D01*
X10031Y11782D01*
X10033Y11800D01*
X10031Y11818D01*
X10024Y11834D01*
X10013Y11848D01*
X9999Y11859D01*
X9982Y11866D01*
X9965Y11868D01*
X9947Y11866D01*
X9943Y11864D01*
X9931Y11873D01*
X9932Y11876D01*
X9929Y11894D01*
X9922Y11910D01*
X9912Y11925D01*
X9897Y11935D01*
X9881Y11942D01*
X9863Y11945D01*
D02*
G37*
G36*
X11513Y12000D02*
Y11513D01*
X12000D01*
X11997Y11565D01*
X11984Y11630D01*
X11963Y11692D01*
X11934Y11751D01*
X11898Y11805D01*
X11854Y11854D01*
X11805Y11898D01*
X11751Y11934D01*
X11692Y11963D01*
X11630Y11984D01*
X11565Y11997D01*
X11513Y12000D01*
D02*
G37*
G36*
X10009Y13557D02*
X9021D01*
Y12569D01*
X9106Y12574D01*
X9203Y12588D01*
X9299Y12612D01*
X9391Y12645D01*
X9480Y12687D01*
X9564Y12737D01*
X9643Y12796D01*
X9716Y12862D01*
X9782Y12935D01*
X9841Y13014D01*
X9891Y13098D01*
X9933Y13187D01*
X9966Y13279D01*
X9990Y13375D01*
X10005Y13472D01*
X10009Y13557D01*
D02*
G37*
G36*
X8995D02*
X8008D01*
X8012Y13472D01*
X8026Y13375D01*
X8050Y13279D01*
X8083Y13187D01*
X8125Y13098D01*
X8176Y13014D01*
X8234Y12935D01*
X8300Y12862D01*
X8373Y12796D01*
X8452Y12737D01*
X8536Y12687D01*
X8625Y12645D01*
X8717Y12612D01*
X8813Y12588D01*
X8910Y12574D01*
X8995Y12569D01*
Y13557D01*
D02*
G37*
G36*
X11487Y12000D02*
X11435Y11997D01*
X11370Y11984D01*
X11308Y11963D01*
X11249Y11934D01*
X11195Y11898D01*
X11146Y11854D01*
X11102Y11805D01*
X11066Y11751D01*
X11037Y11692D01*
X11016Y11630D01*
X11003Y11565D01*
X11000Y11513D01*
X11487D01*
Y12000D01*
D02*
G37*
G36*
X7858Y11523D02*
X7799D01*
Y11430D01*
X7858D01*
Y11523D01*
D02*
G37*
G36*
X7774D02*
X7715D01*
Y11430D01*
X7774D01*
Y11523D01*
D02*
G37*
G36*
X10259D02*
X10201D01*
Y11430D01*
X10259D01*
Y11523D01*
D02*
G37*
G36*
X10175D02*
X10117D01*
Y11430D01*
X10175D01*
Y11523D01*
D02*
G37*
G36*
X7521Y13280D02*
Y13183D01*
X7618D01*
X7616Y13199D01*
X7605Y13226D01*
X7587Y13249D01*
X7564Y13266D01*
X7537Y13278D01*
X7521Y13280D01*
D02*
G37*
G36*
X7496D02*
X7479Y13278D01*
X7453Y13266D01*
X7429Y13249D01*
X7412Y13226D01*
X7401Y13199D01*
X7398Y13183D01*
X7496D01*
Y13280D01*
D02*
G37*
G36*
X8995Y14571D02*
X8910Y14566D01*
X8813Y14552D01*
X8717Y14528D01*
X8625Y14495D01*
X8536Y14453D01*
X8452Y14402D01*
X8373Y14344D01*
X8300Y14278D01*
X8234Y14205D01*
X8176Y14126D01*
X8125Y14042D01*
X8083Y13953D01*
X8050Y13861D01*
X8026Y13765D01*
X8012Y13668D01*
X8008Y13583D01*
X8995D01*
Y14571D01*
D02*
G37*
G36*
X10521Y13280D02*
Y13183D01*
X10618D01*
X10616Y13199D01*
X10605Y13226D01*
X10587Y13249D01*
X10564Y13266D01*
X10537Y13278D01*
X10521Y13280D01*
D02*
G37*
G36*
X10495D02*
X10479Y13278D01*
X10452Y13266D01*
X10429Y13249D01*
X10411Y13226D01*
X10400Y13199D01*
X10398Y13183D01*
X10495D01*
Y13280D01*
D02*
G37*
G36*
Y13157D02*
X10398D01*
X10400Y13141D01*
X10411Y13114D01*
X10429Y13091D01*
X10452Y13073D01*
X10479Y13062D01*
X10495Y13060D01*
Y13157D01*
D02*
G37*
G36*
X7496D02*
X7398D01*
X7401Y13141D01*
X7412Y13114D01*
X7429Y13091D01*
X7453Y13073D01*
X7479Y13062D01*
X7496Y13060D01*
Y13157D01*
D02*
G37*
G36*
X7618D02*
X7521D01*
Y13060D01*
X7537Y13062D01*
X7564Y13073D01*
X7587Y13091D01*
X7605Y13114D01*
X7616Y13141D01*
X7618Y13157D01*
D02*
G37*
G36*
X10618D02*
X10521D01*
Y13060D01*
X10537Y13062D01*
X10564Y13073D01*
X10587Y13091D01*
X10605Y13114D01*
X10616Y13141D01*
X10618Y13157D01*
D02*
G37*
%LPD*%
G36*
X11698Y15596D02*
Y15589D01*
X11706Y15581D01*
Y15569D01*
X11711D01*
X11718Y15561D01*
Y15544D01*
X11733Y15529D01*
Y15526D01*
X11743Y15516D01*
X11746D01*
Y15511D01*
X11756Y15501D01*
Y15494D01*
X11766Y15484D01*
X11766Y15464D01*
X11758Y15456D01*
X11758Y15439D01*
X11743Y15424D01*
Y15404D01*
X11731Y15391D01*
X11703D01*
X11698Y15396D01*
X11691D01*
X11676Y15411D01*
X11673D01*
Y15424D01*
X11661Y15436D01*
X11651D01*
X11648Y15434D01*
X11636Y15446D01*
X11598D01*
X11581Y15429D01*
X11568D01*
X11561Y15421D01*
X11551D01*
X11543Y15414D01*
X11531D01*
X11526Y15419D01*
X11531Y15424D01*
X11531Y15439D01*
X11513Y15456D01*
Y15474D01*
X11503Y15484D01*
Y15516D01*
X11521Y15534D01*
X11543Y15534D01*
X11558Y15549D01*
Y15559D01*
X11566Y15566D01*
X11571Y15574D01*
X11581D01*
X11588Y15566D01*
X11598Y15566D01*
X11601Y15564D01*
X11603Y15566D01*
X11606Y15566D01*
Y15576D01*
X11611Y15581D01*
Y15584D01*
X11621Y15584D01*
X11626Y15589D01*
X11643D01*
X11648Y15584D01*
Y15571D01*
X11646Y15569D01*
X11651Y15564D01*
Y15564D01*
X11663Y15551D01*
X11676D01*
X11681Y15546D01*
X11683Y15549D01*
Y15559D01*
X11691Y15566D01*
Y15591D01*
X11696Y15596D01*
X11698Y15596D01*
D02*
G37*
D10*
X11644Y15587D02*
G03*
X11624Y15594I-53J-110D01*
G01*
X11679Y15548D02*
G03*
X11686Y15558I-43J34D01*
G01*
X11707Y15569D02*
G03*
X11699Y15600I-133J-17D01*
G01*
X11749Y15431D02*
G03*
X11757Y15445I-10J15D01*
G01*
X11749Y15431D02*
G03*
X11739Y15397I172J-71D01*
G01*
D02*
G03*
X11719Y15388I5J-36D01*
G01*
X11654Y15436D02*
G03*
X11660Y15440I-3J12D01*
G01*
X11606Y15444D02*
G03*
X11585Y15434I77J-179D01*
G01*
X11582Y15427D02*
G03*
X11561Y15423I19J-160D01*
G01*
X11512Y15524D02*
X11515Y15527D01*
X11510Y15521D02*
X11512Y15524D01*
X11508Y15519D02*
X11510Y15521D01*
X11506Y15517D02*
X11508Y15519D01*
X11504Y15516D02*
X11506Y15517D01*
X11501Y15515D02*
X11504Y15516D01*
X11526Y15532D02*
X11529Y15534D01*
X11524Y15531D02*
X11526Y15532D01*
X11521Y15529D02*
X11524Y15531D01*
X11519Y15528D02*
X11521Y15529D01*
X11517Y15527D02*
X11519Y15528D01*
X11515Y15527D02*
X11517Y15527D01*
X11542Y15535D02*
X11545Y15536D01*
X11539Y15535D02*
X11542Y15535D01*
X11536Y15535D02*
X11539Y15535D01*
X11534Y15535D02*
X11536Y15535D01*
X11531Y15534D02*
X11534Y15535D01*
X11529Y15534D02*
X11531Y15534D01*
X11501Y15515D02*
X11501Y15509D01*
X11502Y15503D01*
X11502Y15497D01*
X11502Y15492D01*
X11503Y15487D01*
X11504Y15483D01*
X11506Y15478D01*
X11508Y15473D01*
X11565Y15565D02*
X11567Y15566D01*
X11564Y15564D02*
X11565Y15565D01*
X11564Y15563D02*
X11564Y15564D01*
X11563Y15563D02*
X11564Y15563D01*
X11563Y15563D02*
X11563Y15563D01*
X11563Y15563D02*
X11563Y15563D01*
X11562Y15563D02*
X11563Y15563D01*
X11562Y15563D02*
X11562Y15563D01*
X11561Y15564D02*
X11562Y15563D01*
X11560Y15565D02*
X11561Y15564D01*
X11580Y15574D02*
X11582Y15574D01*
X11577Y15574D02*
X11580Y15574D01*
X11575Y15574D02*
X11577Y15574D01*
X11572Y15574D02*
X11575Y15574D01*
X11570Y15573D02*
X11572Y15574D01*
X11568Y15571D02*
X11570Y15573D01*
X11567Y15570D02*
X11568Y15571D01*
X11567Y15568D02*
X11567Y15570D01*
X11567Y15566D02*
X11567Y15568D01*
X11603Y15565D02*
X11607Y15566D01*
X11600Y15564D02*
X11603Y15565D01*
X11597Y15564D02*
X11600Y15564D01*
X11594Y15565D02*
X11597Y15564D01*
X11591Y15566D02*
X11594Y15565D01*
X11588Y15567D02*
X11591Y15566D01*
X11585Y15570D02*
X11588Y15567D01*
X11582Y15574D02*
X11585Y15570D01*
X11607Y15579D02*
X11609Y15579D01*
X11606Y15578D02*
X11607Y15579D01*
X11605Y15577D02*
X11606Y15578D01*
X11605Y15576D02*
X11605Y15577D01*
X11605Y15576D02*
X11605Y15574D01*
X11606Y15572D01*
X11606Y15570D01*
X11607Y15568D01*
X11607Y15566D01*
X11628Y15588D02*
X11629Y15588D01*
X11626Y15588D02*
X11628Y15588D01*
X11624Y15587D02*
X11626Y15588D01*
X11621Y15587D02*
X11624Y15587D01*
X11619Y15587D02*
X11621Y15587D01*
X11616Y15586D02*
X11619Y15587D01*
X11614Y15585D02*
X11616Y15586D01*
X11612Y15585D02*
X11614Y15585D01*
X11610Y15584D02*
X11612Y15585D01*
X11609Y15583D02*
X11610Y15584D01*
X11609Y15582D02*
X11609Y15583D01*
X11609Y15581D02*
X11609Y15582D01*
X11609Y15581D02*
X11609Y15579D01*
X11624Y15594D02*
X11624Y15594D01*
X11624Y15594D02*
X11624Y15593D01*
X11624Y15593D01*
X11624Y15593D01*
X11625Y15592D01*
X11626Y15592D01*
X11627Y15592D01*
X11628Y15591D01*
X11628Y15590D01*
X11629Y15589D01*
X11629Y15588D01*
X11559Y15562D02*
X11560Y15565D01*
X11557Y15558D02*
X11559Y15562D01*
X11556Y15554D02*
X11557Y15558D01*
X11555Y15551D02*
X11556Y15554D01*
X11554Y15547D02*
X11555Y15551D01*
X11553Y15544D02*
X11554Y15547D01*
X11551Y15542D02*
X11553Y15544D01*
X11550Y15540D02*
X11551Y15542D01*
X11547Y15538D02*
X11550Y15540D01*
X11545Y15536D02*
X11547Y15538D01*
X11647Y15575D02*
X11648Y15575D01*
X11646Y15576D02*
X11647Y15575D01*
X11646Y15576D02*
X11646Y15576D01*
X11646Y15577D02*
X11646Y15576D01*
X11646Y15577D02*
X11646Y15578D01*
X11646Y15578D01*
X11646Y15579D01*
X11647Y15580D01*
X11648Y15580D01*
X11650Y15580D01*
X11676Y15548D02*
X11679Y15548D01*
X11673Y15549D02*
X11676Y15548D01*
X11669Y15551D02*
X11673Y15549D01*
X11666Y15553D02*
X11669Y15551D01*
X11662Y15555D02*
X11666Y15553D01*
X11659Y15557D02*
X11662Y15555D01*
X11655Y15560D02*
X11659Y15557D01*
X11651Y15563D02*
X11655Y15560D01*
X11648Y15566D02*
X11651Y15563D01*
X11644Y15569D02*
X11648Y15566D01*
X11696Y15598D02*
X11699Y15600D01*
X11694Y15596D02*
X11696Y15598D01*
X11693Y15593D02*
X11694Y15596D01*
X11691Y15590D02*
X11693Y15593D01*
X11690Y15586D02*
X11691Y15590D01*
X11689Y15582D02*
X11690Y15586D01*
X11689Y15578D02*
X11689Y15582D01*
X11688Y15573D02*
X11689Y15578D01*
X11688Y15569D02*
X11688Y15573D01*
X11687Y15565D02*
X11688Y15569D01*
X11687Y15561D02*
X11687Y15565D01*
X11686Y15558D02*
X11687Y15561D01*
X11722Y15541D02*
X11722Y15537D01*
X11721Y15545D02*
X11722Y15541D01*
X11720Y15549D02*
X11721Y15545D01*
X11720Y15553D02*
X11720Y15549D01*
X11719Y15557D02*
X11720Y15553D01*
X11718Y15560D02*
X11719Y15557D01*
X11716Y15563D02*
X11718Y15560D01*
X11715Y15565D02*
X11716Y15563D01*
X11713Y15567D02*
X11715Y15565D01*
X11711Y15568D02*
X11713Y15567D01*
X11709Y15568D02*
X11711Y15568D01*
X11707Y15569D02*
X11709Y15568D01*
X11733Y15530D02*
X11735Y15528D01*
X11731Y15532D02*
X11733Y15530D01*
X11728Y15534D02*
X11731Y15532D01*
X11725Y15536D02*
X11728Y15534D01*
X11722Y15537D02*
X11725Y15536D01*
X11743Y15517D02*
X11746Y15517D01*
X11742Y15518D02*
X11743Y15517D01*
X11741Y15519D02*
X11742Y15518D01*
X11740Y15520D02*
X11741Y15519D01*
X11739Y15522D02*
X11740Y15520D01*
X11738Y15524D02*
X11739Y15522D01*
X11737Y15526D02*
X11738Y15524D01*
X11735Y15528D02*
X11737Y15526D01*
X11756Y15498D02*
X11760Y15493D01*
X11753Y15502D02*
X11756Y15498D01*
X11750Y15506D02*
X11753Y15502D01*
X11748Y15509D02*
X11750Y15506D01*
X11747Y15513D02*
X11748Y15509D01*
X11746Y15517D02*
X11747Y15513D01*
X11763Y15478D02*
X11764Y15474D01*
X11762Y15481D02*
X11763Y15478D01*
X11761Y15485D02*
X11762Y15481D01*
X11760Y15489D02*
X11761Y15485D01*
X11760Y15493D02*
X11760Y15489D01*
X11757Y15445D02*
X11758Y15450D01*
X11759Y15454D01*
X11761Y15457D01*
X11762Y15461D01*
X11763Y15464D01*
X11764Y15468D01*
X11764Y15471D01*
X11764Y15474D02*
X11764Y15471D01*
X11705Y15388D02*
X11708Y15390D01*
X11709Y15391D01*
X11711Y15391D01*
X11712Y15391D01*
X11713Y15391D01*
X11714Y15391D01*
X11715Y15390D01*
X11717Y15389D01*
X11719Y15388D01*
X11672Y15414D02*
X11675Y15410D01*
X11678Y15406D01*
X11681Y15403D01*
X11685Y15400D01*
X11689Y15397D01*
X11694Y15394D01*
X11699Y15392D01*
X11705Y15388D01*
X11669Y15427D02*
X11671Y15425D01*
X11672Y15423D01*
X11673Y15421D01*
X11673Y15419D01*
X11673Y15417D02*
X11673Y15419D01*
X11672Y15414D02*
X11673Y15417D01*
X11666Y15433D02*
X11666Y15432D01*
X11666Y15431D02*
X11666Y15432D01*
X11665Y15429D02*
X11666Y15431D01*
X11665Y15428D02*
X11665Y15429D01*
X11665Y15427D02*
X11665Y15428D01*
X11665Y15427D02*
X11665Y15427D01*
X11665Y15427D01*
X11665Y15427D01*
X11666Y15426D01*
X11666Y15426D01*
X11666Y15426D01*
X11667Y15426D01*
X11668Y15427D01*
X11669Y15427D01*
X11659Y15429D02*
X11660Y15430D01*
X11661Y15431D01*
X11662Y15432D01*
X11662Y15434D01*
X11663Y15434D01*
X11664Y15435D01*
X11664Y15435D01*
X11664Y15435D01*
X11665Y15435D01*
X11665Y15435D01*
X11665Y15435D01*
X11665Y15434D01*
X11666Y15433D01*
X11660Y15440D02*
X11660Y15440D01*
X11660Y15439D02*
X11660Y15440D01*
X11660Y15438D02*
X11660Y15439D01*
X11659Y15435D02*
X11660Y15438D01*
X11658Y15433D02*
X11659Y15435D01*
X11658Y15431D02*
X11658Y15433D01*
X11658Y15430D02*
X11658Y15431D01*
X11658Y15430D02*
X11658Y15429D01*
X11658Y15429D01*
X11659Y15429D01*
X11659Y15429D01*
X11659Y15429D01*
X11646Y15437D02*
X11647Y15434D01*
X11648Y15433D01*
X11649Y15432D01*
X11649Y15432D01*
X11649Y15431D01*
X11649Y15431D01*
X11649Y15431D01*
X11650Y15432D01*
X11650Y15432D01*
X11651Y15433D01*
X11652Y15434D01*
X11654Y15436D01*
X11606Y15444D02*
X11609Y15445D01*
X11613Y15446D01*
X11618Y15447D01*
X11623Y15447D01*
X11628Y15447D01*
X11632Y15446D01*
X11635Y15445D01*
X11639Y15444D01*
X11642Y15442D01*
X11644Y15440D01*
X11646Y15437D01*
X11536Y15413D02*
X11539Y15413D01*
X11542Y15413D01*
X11545Y15414D01*
X11548Y15415D01*
X11551Y15417D01*
X11554Y15419D01*
X11557Y15421D01*
X11561Y15423D01*
X11528Y15422D02*
X11529Y15425D01*
X11527Y15420D02*
X11528Y15422D01*
X11526Y15419D02*
X11527Y15420D01*
X11526Y15418D02*
X11526Y15419D01*
X11525Y15417D02*
X11526Y15418D01*
X11525Y15417D02*
X11525Y15416D01*
X11526Y15416D01*
X11526Y15415D01*
X11527Y15415D01*
X11529Y15414D01*
X11532Y15414D01*
X11536Y15413D01*
X11521Y15448D02*
X11522Y15445D01*
X11522Y15442D01*
X11524Y15440D01*
X11525Y15437D01*
X11528Y15434D01*
X11530Y15430D01*
X11650Y15580D02*
X11650Y15583D01*
X11651Y15585D01*
X11651Y15586D01*
X11651Y15587D02*
X11651Y15586D01*
X11651Y15587D02*
X11651Y15587D01*
X11650Y15587D02*
X11651Y15587D01*
X11650Y15587D02*
X11650Y15587D01*
X11649Y15587D02*
X11650Y15587D01*
X11649Y15587D02*
X11649Y15587D01*
X11647Y15587D02*
X11649Y15587D01*
X11644Y15587D02*
X11647Y15587D01*
X11705Y15376D02*
X11713Y15372D01*
X11723Y15374D01*
X11724Y15373D01*
X11723Y15365D02*
X11724Y15373D01*
X11719Y15358D02*
X11723Y15365D01*
X11717Y15360D02*
X11719Y15358D01*
X11712Y15352D02*
X11717Y15360D01*
X11710Y15353D02*
X11712Y15352D01*
X11704Y15361D02*
X11710Y15353D01*
X11704Y15366D02*
X11704Y15361D01*
X11704Y15366D02*
X11704Y15366D01*
X11703Y15370D02*
X11704Y15366D01*
X11703Y15370D02*
Y15376D01*
X11705Y15376D01*
X11506Y15473D02*
X11508Y15473D01*
X11506Y15473D02*
X11521Y15448D01*
X11644Y15569D02*
X11648Y15575D01*
X11582Y15427D02*
X11585Y15434D01*
X11529Y15425D02*
X11530Y15430D01*
D11*
X9162Y11684D02*
D03*
X9213D02*
D03*
X9914D02*
D03*
X9863D02*
D03*
X9812D02*
D03*
X9764D02*
D03*
X9713D02*
D03*
X9662D02*
D03*
X9614D02*
D03*
X9563D02*
D03*
X9512D02*
D03*
X9464D02*
D03*
X9413D02*
D03*
X9362D02*
D03*
X9312D02*
D03*
X9263D02*
D03*
X9114D02*
D03*
X9063D02*
D03*
X9012D02*
D03*
X8962D02*
D03*
X8912D02*
D03*
X8862D02*
D03*
X8812D02*
D03*
X8762D02*
D03*
X8712D02*
D03*
X8662D02*
D03*
X8612D02*
D03*
X8562D02*
D03*
X8512D02*
D03*
X9962Y11152D02*
D03*
X9914D02*
D03*
X9863D02*
D03*
X9812D02*
D03*
X9764D02*
D03*
X9713D02*
D03*
X9662D02*
D03*
X9614D02*
D03*
X9563D02*
D03*
X9512D02*
D03*
X9464D02*
D03*
X9413D02*
D03*
X9362D02*
D03*
X9312D02*
D03*
X9263D02*
D03*
X9213D02*
D03*
X9162D02*
D03*
X9114D02*
D03*
X9063D02*
D03*
X9012D02*
D03*
X8962D02*
D03*
X8912D02*
D03*
X8862D02*
D03*
X8812D02*
D03*
X8762D02*
D03*
X8712D02*
D03*
X8662D02*
D03*
X8612D02*
D03*
X8562D02*
D03*
X8512D02*
D03*
X8462Y11684D02*
D03*
Y11152D02*
D03*
X8412Y11684D02*
D03*
Y11152D02*
D03*
X8362Y11684D02*
D03*
Y11152D02*
D03*
X8312Y11684D02*
D03*
Y11152D02*
D03*
X8262Y11684D02*
D03*
Y11152D02*
D03*
X8212Y11684D02*
D03*
Y11152D02*
D03*
X8162Y11684D02*
D03*
Y11152D02*
D03*
X8112Y11684D02*
D03*
Y11152D02*
D03*
X8062Y11684D02*
D03*
Y11152D02*
D03*
X8012Y11684D02*
D03*
Y11152D02*
D03*
D12*
X9962Y11684D02*
D03*
D13*
X7787Y11417D02*
D03*
X10188D02*
D03*
D14*
X8012Y11039D02*
Y11152D01*
X8067Y11158D02*
Y11354D01*
X8162Y11152D02*
Y11272D01*
X8362Y11152D02*
Y11272D01*
X8310Y10960D02*
Y11151D01*
X8267Y11158D02*
Y11354D01*
X8212Y11039D02*
Y11152D01*
X8562D02*
Y11272D01*
X8510Y10960D02*
Y11151D01*
X8467Y11158D02*
Y11354D01*
X8412Y11039D02*
Y11152D01*
X8762D02*
Y11272D01*
X8710Y10960D02*
Y11151D01*
X8667Y11158D02*
Y11354D01*
X8612Y11039D02*
Y11152D01*
X8962D02*
Y11272D01*
X8910Y10960D02*
Y11151D01*
X8867Y11158D02*
Y11354D01*
X8812Y11039D02*
Y11152D01*
X9162D02*
Y11272D01*
X9111Y10960D02*
Y11151D01*
X9067Y11158D02*
Y11354D01*
X9012Y11039D02*
Y11152D01*
X9363D02*
Y11272D01*
X9311Y10960D02*
Y11151D01*
X9268Y11158D02*
Y11354D01*
X9213Y11039D02*
Y11152D01*
X9563D02*
Y11272D01*
X9512Y10960D02*
Y11151D01*
X9469Y11158D02*
Y11354D01*
X9413Y11039D02*
Y11152D01*
X9764D02*
Y11272D01*
X9713Y10960D02*
Y11151D01*
X9669Y11158D02*
Y11354D01*
X9614Y11039D02*
Y11152D01*
X9962D02*
Y11272D01*
X9911Y10960D02*
Y11151D01*
X9868Y11158D02*
Y11354D01*
X9812Y11039D02*
Y11152D01*
X9812Y11565D02*
X9812Y11684D01*
X9863Y11685D02*
Y11876D01*
X9906Y11483D02*
Y11679D01*
X9962Y11684D02*
Y11797D01*
X9614Y11565D02*
X9614Y11684D01*
X9665Y11685D02*
Y11876D01*
X9708Y11483D02*
Y11679D01*
X9764Y11684D02*
Y11797D01*
X9413Y11565D02*
X9413Y11684D01*
X9464Y11685D02*
Y11876D01*
X9508Y11483D02*
Y11679D01*
X9563Y11684D02*
Y11797D01*
X9212Y11565D02*
X9212Y11684D01*
X9264Y11685D02*
Y11876D01*
X9307Y11483D02*
Y11679D01*
X9362Y11684D02*
Y11797D01*
X9012Y11565D02*
X9012Y11684D01*
X9063Y11685D02*
Y11876D01*
X9106Y11483D02*
Y11679D01*
X9162Y11684D02*
Y11797D01*
X8812Y11565D02*
X8812Y11684D01*
X8863Y11685D02*
Y11876D01*
X8906Y11483D02*
Y11679D01*
X8962Y11684D02*
Y11797D01*
X8612Y11565D02*
X8612Y11684D01*
X8663Y11685D02*
Y11876D01*
X8706Y11483D02*
Y11679D01*
X8762Y11684D02*
Y11797D01*
X8412Y11565D02*
X8412Y11684D01*
X8463Y11685D02*
Y11876D01*
X8506Y11483D02*
Y11679D01*
X8562Y11684D02*
Y11797D01*
X8212Y11565D02*
X8212Y11684D01*
X8263Y11685D02*
Y11876D01*
X8306Y11483D02*
Y11679D01*
X8362Y11684D02*
Y11797D01*
X8012Y11565D02*
X8012Y11684D01*
X8063Y11685D02*
Y11876D01*
X8106Y11483D02*
Y11679D01*
X8162Y11684D02*
Y11797D01*
X8110Y10960D02*
Y11151D01*
D15*
X14089Y15436D02*
D03*
X13142Y15448D02*
D03*
D16*
X10508Y10170D02*
D03*
X7508Y13170D02*
D03*
Y10170D02*
D03*
X10508Y13170D02*
D03*
D17*
X7887Y11227D02*
D03*
X10089D02*
D03*
D03*
X7887D02*
D03*
D18*
X14796Y14796D02*
D03*
X8204D02*
D03*
X14796Y8204D02*
D03*
X8204Y8204D02*
D03*
D19*
X9008Y13570D02*
D03*
Y9770D02*
D03*
D20*
X11500Y11500D02*
D03*
D21*
X8898Y7637D02*
D03*
D22*
X8162Y11272D02*
D03*
X8067Y11354D02*
D03*
X8009Y11036D02*
D03*
X8310Y10960D02*
D03*
X8209Y11036D02*
D03*
X8267Y11354D02*
D03*
X8362Y11272D02*
D03*
X8510Y10960D02*
D03*
X8409Y11036D02*
D03*
X8467Y11354D02*
D03*
X8562Y11272D02*
D03*
X8710Y10960D02*
D03*
X8609Y11036D02*
D03*
X8667Y11354D02*
D03*
X8762Y11272D02*
D03*
X8910Y10960D02*
D03*
X8809Y11036D02*
D03*
X8867Y11354D02*
D03*
X8962Y11272D02*
D03*
X9111Y10960D02*
D03*
X9009Y11036D02*
D03*
X9067Y11354D02*
D03*
X9163Y11272D02*
D03*
X9311Y10960D02*
D03*
X9210Y11036D02*
D03*
X9268Y11354D02*
D03*
X9363Y11272D02*
D03*
X9512Y10960D02*
D03*
X9410Y11036D02*
D03*
X9469Y11354D02*
D03*
X9564Y11272D02*
D03*
X9713Y10960D02*
D03*
X9611Y11036D02*
D03*
X9669Y11354D02*
D03*
X9765Y11272D02*
D03*
X9911Y10960D02*
D03*
X9809Y11036D02*
D03*
X9868Y11354D02*
D03*
X9963Y11272D02*
D03*
X9863Y11876D02*
D03*
X9965Y11800D02*
D03*
X9906Y11483D02*
D03*
X9811Y11564D02*
D03*
X9665Y11876D02*
D03*
X9767Y11800D02*
D03*
X9708Y11483D02*
D03*
X9613Y11564D02*
D03*
X9464Y11876D02*
D03*
X9566Y11800D02*
D03*
X9508Y11483D02*
D03*
X9413Y11564D02*
D03*
X9264Y11876D02*
D03*
X9365Y11800D02*
D03*
X9307Y11483D02*
D03*
X9212Y11564D02*
D03*
X9063Y11876D02*
D03*
X9165Y11800D02*
D03*
X9106Y11483D02*
D03*
X9011Y11564D02*
D03*
X8863Y11876D02*
D03*
X8964Y11800D02*
D03*
X8906Y11483D02*
D03*
X8811Y11564D02*
D03*
X8663Y11876D02*
D03*
X8764Y11800D02*
D03*
X8706Y11483D02*
D03*
X8611Y11564D02*
D03*
X8463Y11876D02*
D03*
X8564Y11800D02*
D03*
X8506Y11483D02*
D03*
X8411Y11564D02*
D03*
X8263Y11876D02*
D03*
X8364Y11800D02*
D03*
X8306Y11483D02*
D03*
X8211Y11564D02*
D03*
X8063Y11876D02*
D03*
X8164Y11800D02*
D03*
X8106Y11483D02*
D03*
X8011Y11564D02*
D03*
X8110Y10960D02*
D03*
M02*
