G04 Layer_Color=255*
%FSLAX42Y42*%
%MOMM*%
G71*
G01*
G75*
%ADD11R,0.25X1.12*%
G04:AMPARAMS|DCode=12|XSize=0.25mm|YSize=1.12mm|CornerRadius=0.13mm|HoleSize=0mm|Usage=FLASHONLY|Rotation=0.000|XOffset=0mm|YOffset=0mm|HoleType=Round|Shape=RoundedRectangle|*
%AMROUNDEDRECTD12*
21,1,0.25,0.86,0,0,0.0*
21,1,0.00,1.12,0,0,0.0*
1,1,0.25,0.00,-0.43*
1,1,0.25,0.00,-0.43*
1,1,0.25,0.00,0.43*
1,1,0.25,0.00,0.43*
%
%ADD12ROUNDEDRECTD12*%
%ADD13R,1.42X2.11*%
%ADD15C,1.52*%
%ADD16C,2.21*%
%ADD17C,0.66*%
%ADD18C,5.00*%
%ADD19C,20.00*%
%ADD20C,10.00*%
%ADD21C,9.64*%
D11*
X9162Y11684D02*
D03*
X9213D02*
D03*
X9914D02*
D03*
X9863D02*
D03*
X9812D02*
D03*
X9764D02*
D03*
X9713D02*
D03*
X9662D02*
D03*
X9614D02*
D03*
X9563D02*
D03*
X9512D02*
D03*
X9464D02*
D03*
X9413D02*
D03*
X9362D02*
D03*
X9312D02*
D03*
X9263D02*
D03*
X9114D02*
D03*
X9063D02*
D03*
X9012D02*
D03*
X8962D02*
D03*
X8912D02*
D03*
X8862D02*
D03*
X8812D02*
D03*
X8762D02*
D03*
X8712D02*
D03*
X8662D02*
D03*
X8612D02*
D03*
X8562D02*
D03*
X8512D02*
D03*
X9962Y11152D02*
D03*
X9914D02*
D03*
X9863D02*
D03*
X9812D02*
D03*
X9764D02*
D03*
X9713D02*
D03*
X9662D02*
D03*
X9614D02*
D03*
X9563D02*
D03*
X9512D02*
D03*
X9464D02*
D03*
X9413D02*
D03*
X9362D02*
D03*
X9312D02*
D03*
X9263D02*
D03*
X9213D02*
D03*
X9162D02*
D03*
X9114D02*
D03*
X9063D02*
D03*
X9012D02*
D03*
X8962D02*
D03*
X8912D02*
D03*
X8862D02*
D03*
X8812D02*
D03*
X8762D02*
D03*
X8712D02*
D03*
X8662D02*
D03*
X8612D02*
D03*
X8562D02*
D03*
X8512D02*
D03*
X8462Y11684D02*
D03*
Y11152D02*
D03*
X8412Y11684D02*
D03*
Y11152D02*
D03*
X8362Y11684D02*
D03*
Y11152D02*
D03*
X8312Y11684D02*
D03*
Y11152D02*
D03*
X8262Y11684D02*
D03*
Y11152D02*
D03*
X8212Y11684D02*
D03*
Y11152D02*
D03*
X8162Y11684D02*
D03*
Y11152D02*
D03*
X8112Y11684D02*
D03*
Y11152D02*
D03*
X8062Y11684D02*
D03*
Y11152D02*
D03*
X8012Y11684D02*
D03*
Y11152D02*
D03*
D12*
X9962Y11684D02*
D03*
D13*
X7787Y11417D02*
D03*
X10188D02*
D03*
D15*
X14089Y15436D02*
D03*
X13142Y15448D02*
D03*
D16*
X10508Y10170D02*
D03*
X7508Y13170D02*
D03*
Y10170D02*
D03*
X10508Y13170D02*
D03*
D17*
X7887Y11227D02*
D03*
X10089D02*
D03*
D03*
X7887D02*
D03*
D18*
X14796Y14796D02*
D03*
X8204D02*
D03*
X14796Y8204D02*
D03*
X8204Y8204D02*
D03*
D19*
X9008Y13570D02*
D03*
Y9770D02*
D03*
D20*
X11500Y11500D02*
D03*
D21*
X8898Y7637D02*
D03*
M02*
