G04 Layer_Color=8421504*
%FSLAX42Y42*%
%MOMM*%
G71*
G01*
G75*
G04:AMPARAMS|DCode=90|XSize=0.3mm|YSize=1.17mm|CornerRadius=0.15mm|HoleSize=0mm|Usage=FLASHONLY|Rotation=0.000|XOffset=0mm|YOffset=0mm|HoleType=Round|Shape=RoundedRectangle|*
%AMROUNDEDRECTD90*
21,1,0.30,0.86,0,0,0.0*
21,1,0.00,1.17,0,0,0.0*
1,1,0.30,0.00,-0.43*
1,1,0.30,0.00,-0.43*
1,1,0.30,0.00,0.43*
1,1,0.30,0.00,0.43*
%
%ADD90ROUNDEDRECTD90*%
%ADD91R,0.30X1.17*%
%ADD92R,1.47X2.16*%
G04:AMPARAMS|DCode=93|XSize=1.37mm|YSize=0.76mm|CornerRadius=0mm|HoleSize=0mm|Usage=FLASHONLY|Rotation=115.000|XOffset=0mm|YOffset=0mm|HoleType=Round|Shape=Rectangle|*
%AMROTATEDRECTD93*
4,1,4,0.64,-0.46,-0.06,-0.78,-0.64,0.46,0.06,0.78,0.64,-0.46,0.0*
%
%ADD93ROTATEDRECTD93*%

%ADD94R,0.56X0.38*%
%ADD95R,0.56X0.66*%
%ADD96R,0.66X0.56*%
G04:AMPARAMS|DCode=97|XSize=0.56mm|YSize=0.66mm|CornerRadius=0.15mm|HoleSize=0mm|Usage=FLASHONLY|Rotation=180.000|XOffset=0mm|YOffset=0mm|HoleType=Round|Shape=RoundedRectangle|*
%AMROUNDEDRECTD97*
21,1,0.56,0.36,0,0,180.0*
21,1,0.25,0.66,0,0,180.0*
1,1,0.30,-0.13,0.18*
1,1,0.30,0.13,0.18*
1,1,0.30,0.13,-0.18*
1,1,0.30,-0.13,-0.18*
%
%ADD97ROUNDEDRECTD97*%
%ADD98R,1.25X1.75*%
%ADD99R,0.55X1.05*%
G04:AMPARAMS|DCode=100|XSize=0.55mm|YSize=1.05mm|CornerRadius=0.28mm|HoleSize=0mm|Usage=FLASHONLY|Rotation=0.000|XOffset=0mm|YOffset=0mm|HoleType=Round|Shape=RoundedRectangle|*
%AMROUNDEDRECTD100*
21,1,0.55,0.50,0,0,0.0*
21,1,0.00,1.05,0,0,0.0*
1,1,0.55,0.00,-0.25*
1,1,0.55,0.00,-0.25*
1,1,0.55,0.00,0.25*
1,1,0.55,0.00,0.25*
%
%ADD100ROUNDEDRECTD100*%
%ADD101R,2.36X1.65*%
G04:AMPARAMS|DCode=102|XSize=0.56mm|YSize=0.66mm|CornerRadius=0mm|HoleSize=0mm|Usage=FLASHONLY|Rotation=240.000|XOffset=0mm|YOffset=0mm|HoleType=Round|Shape=Rectangle|*
%AMROTATEDRECTD102*
4,1,4,-0.15,0.41,0.43,0.08,0.15,-0.41,-0.43,-0.08,-0.15,0.41,0.0*
%
%ADD102ROTATEDRECTD102*%

D90*
X14989Y11684D02*
D03*
X9962Y11684D02*
D03*
D91*
X14941Y11684D02*
D03*
X14890D02*
D03*
X14839D02*
D03*
X14791D02*
D03*
X14740D02*
D03*
X14689D02*
D03*
X14641D02*
D03*
X14590D02*
D03*
X14539D02*
D03*
X14491D02*
D03*
X14440D02*
D03*
X14389D02*
D03*
X14339D02*
D03*
X14290D02*
D03*
X14140D02*
D03*
X14090D02*
D03*
X14039D02*
D03*
X13988D02*
D03*
X13938Y11684D02*
D03*
X13888Y11684D02*
D03*
X13838D02*
D03*
X13788D02*
D03*
X13738D02*
D03*
X13688D02*
D03*
X13638D02*
D03*
X13588D02*
D03*
X13538D02*
D03*
X14989Y11152D02*
D03*
X14941D02*
D03*
X14890D02*
D03*
X14839D02*
D03*
X14791D02*
D03*
X14740D02*
D03*
X14689D02*
D03*
X14641D02*
D03*
X14590D02*
D03*
X14539D02*
D03*
X14491D02*
D03*
X14440D02*
D03*
X14389D02*
D03*
X14339D02*
D03*
X14290D02*
D03*
X14240D02*
D03*
X14189D02*
D03*
X14140D02*
D03*
X14090D02*
D03*
X14039D02*
D03*
X13988D02*
D03*
X13938D02*
D03*
X13888D02*
D03*
X13838D02*
D03*
X13788D02*
D03*
X13738D02*
D03*
X13688D02*
D03*
X13638D02*
D03*
X13588D02*
D03*
X13538D02*
D03*
X13488Y11684D02*
D03*
Y11152D02*
D03*
X13438Y11684D02*
D03*
X13438Y11152D02*
D03*
X13388Y11684D02*
D03*
Y11152D02*
D03*
X13338Y11684D02*
D03*
Y11152D02*
D03*
X13288Y11684D02*
D03*
Y11152D02*
D03*
X13238Y11684D02*
D03*
Y11152D02*
D03*
X13188Y11684D02*
D03*
Y11152D02*
D03*
X13138Y11684D02*
D03*
Y11152D02*
D03*
X13088Y11684D02*
D03*
X13088Y11152D02*
D03*
X13038Y11684D02*
D03*
Y11152D02*
D03*
X8012Y11152D02*
D03*
Y11684D02*
D03*
X8062Y11152D02*
D03*
Y11684D02*
D03*
X8112Y11152D02*
D03*
Y11684D02*
D03*
X8162Y11152D02*
D03*
Y11684D02*
D03*
X8212Y11152D02*
D03*
Y11684D02*
D03*
X8262Y11152D02*
D03*
Y11684D02*
D03*
X8312Y11152D02*
D03*
Y11684D02*
D03*
X8362Y11152D02*
D03*
Y11684D02*
D03*
X8412Y11152D02*
D03*
Y11684D02*
D03*
X8462Y11152D02*
D03*
Y11684D02*
D03*
X8512Y11152D02*
D03*
X8562D02*
D03*
X8612D02*
D03*
X8662D02*
D03*
X8712D02*
D03*
X8762D02*
D03*
X8812D02*
D03*
X8862D02*
D03*
X8912D02*
D03*
X8962D02*
D03*
X9012D02*
D03*
X9063D02*
D03*
X9114D02*
D03*
X9162D02*
D03*
X9213D02*
D03*
X9263D02*
D03*
X9312D02*
D03*
X9362D02*
D03*
X9413D02*
D03*
X9464D02*
D03*
X9512D02*
D03*
X9563D02*
D03*
X9614D02*
D03*
X9662D02*
D03*
X9713D02*
D03*
X9764D02*
D03*
X9812D02*
D03*
X9863D02*
D03*
X9914D02*
D03*
X9962D02*
D03*
X8512Y11684D02*
D03*
X8562D02*
D03*
X8612D02*
D03*
X8662D02*
D03*
X8712D02*
D03*
X8762D02*
D03*
X8812D02*
D03*
X8862D02*
D03*
X8912D02*
D03*
X8962D02*
D03*
X9012D02*
D03*
X9063D02*
D03*
X9114D02*
D03*
X9263D02*
D03*
X9312D02*
D03*
X9362D02*
D03*
X9413D02*
D03*
X9464D02*
D03*
X9512D02*
D03*
X9563D02*
D03*
X9614D02*
D03*
X9662D02*
D03*
X9713D02*
D03*
X9764D02*
D03*
X9812D02*
D03*
X9863D02*
D03*
X9914D02*
D03*
X14240Y11684D02*
D03*
X14189D02*
D03*
X9213Y11684D02*
D03*
X9162D02*
D03*
D92*
X12813Y11417D02*
D03*
X15215Y11417D02*
D03*
X10188Y11417D02*
D03*
X7787D02*
D03*
D93*
X8953Y7749D02*
D03*
X9054Y7796D02*
D03*
X9154Y7843D02*
D03*
X9028Y8112D02*
D03*
X8928Y8066D02*
D03*
X8827Y8018D02*
D03*
D94*
X9566Y7370D02*
D03*
Y7420D02*
D03*
Y7470D02*
D03*
Y7521D02*
D03*
Y7572D02*
D03*
X9289D02*
D03*
Y7521D02*
D03*
Y7470D02*
D03*
Y7420D02*
D03*
Y7370D02*
D03*
D95*
X9426Y7681D02*
D03*
X9325D02*
D03*
D96*
X9693Y7625D02*
D03*
Y7524D02*
D03*
D97*
X9341Y7262D02*
D03*
X9261D02*
D03*
D98*
X14254Y15926D02*
D03*
X13594D02*
D03*
X13482D02*
D03*
X12822D02*
D03*
D99*
X14124Y15731D02*
D03*
X13352D02*
D03*
D100*
X14044Y15731D02*
D03*
X13964Y15731D02*
D03*
X13884D02*
D03*
X13804D02*
D03*
X13724D02*
D03*
X13272D02*
D03*
X13192D02*
D03*
X13112D02*
D03*
X13032D02*
D03*
X12952D02*
D03*
D101*
X13472Y15446D02*
D03*
X12840Y15446D02*
D03*
X14402Y15453D02*
D03*
X13769D02*
D03*
D102*
X8707Y14325D02*
D03*
X8758Y14412D02*
D03*
M02*
