G04 Layer_Color=128*
%FSLAX42Y42*%
%MOMM*%
G71*
G01*
G75*
%ADD161C,0.05*%
D161*
X8936Y9020D02*
X9038D01*
X8987Y8969D02*
Y9071D01*
X8936Y9274D02*
X9038D01*
X8987Y9223D02*
Y9325D01*
X9190Y9020D02*
X9292D01*
X9241Y8969D02*
Y9071D01*
X9190Y9274D02*
X9292D01*
X9241Y9223D02*
Y9325D01*
X9444Y9020D02*
X9546D01*
X9495Y8969D02*
Y9071D01*
X9444Y9274D02*
X9546D01*
X9495Y9223D02*
Y9325D01*
X8004Y8204D02*
X8404D01*
X8204Y8004D02*
Y8404D01*
X14596Y8204D02*
X14996D01*
X14796Y8004D02*
Y8404D01*
X8004Y14796D02*
X8404D01*
X8204Y14596D02*
Y14996D01*
X14596Y14796D02*
X14996D01*
X14796Y14596D02*
Y14996D01*
X8661Y15094D02*
X8821D01*
X8741Y15014D02*
Y15174D01*
X10610Y16219D02*
X10770D01*
X10690Y16139D02*
Y16299D01*
X7394Y11580D02*
X7424D01*
X7409Y11565D02*
Y11595D01*
X7391Y12676D02*
X7422D01*
X7407Y12661D02*
Y12691D01*
X9876Y9642D02*
X9906D01*
X9891Y9627D02*
Y9657D01*
X12880Y11227D02*
X12947D01*
X12913Y11194D02*
Y11260D01*
X15083Y11227D02*
X15149D01*
X15116Y11194D02*
Y11260D01*
X10056Y11227D02*
X10122D01*
X10089Y11194D02*
Y11260D01*
X7854Y11227D02*
X7920D01*
X7887Y11194D02*
Y11260D01*
X10418Y13170D02*
X10598D01*
X10508Y13080D02*
Y13260D01*
X7418Y13170D02*
X7598D01*
X7508Y13080D02*
Y13260D01*
X10418Y10170D02*
X10598D01*
X10508Y10080D02*
Y10260D01*
X7418Y10170D02*
X7598D01*
X7508Y10080D02*
Y10260D01*
X15445Y13170D02*
X15625D01*
X15535Y13080D02*
Y13260D01*
X15445Y10170D02*
X15625D01*
X15535Y10080D02*
Y10260D01*
X12445Y13170D02*
X12625D01*
X12535Y13080D02*
Y13260D01*
X12445Y10170D02*
X12625D01*
X12535Y10080D02*
Y10260D01*
X14272Y11379D02*
X14303D01*
X14288Y11364D02*
Y11394D01*
X13500Y8984D02*
X13602D01*
X13551Y8933D02*
Y9035D01*
X13246Y8984D02*
X13348D01*
X13297Y8933D02*
Y9035D01*
X13500Y8730D02*
X13602D01*
X13551Y8679D02*
Y8781D01*
X13246Y8730D02*
X13348D01*
X13297Y8679D02*
Y8781D01*
X13500Y8476D02*
X13602D01*
X13551Y8425D02*
Y8527D01*
X13246Y8476D02*
X13348D01*
X13297Y8425D02*
Y8527D01*
X14206Y8984D02*
X14308D01*
X14257Y8933D02*
Y9035D01*
X13952Y8984D02*
X14054D01*
X14003Y8933D02*
Y9035D01*
X14206Y8730D02*
X14308D01*
X14257Y8679D02*
Y8781D01*
X13952Y8730D02*
X14054D01*
X14003Y8679D02*
Y8781D01*
X14206Y8476D02*
X14308D01*
X14257Y8425D02*
Y8527D01*
X13952Y8476D02*
X14054D01*
X14003Y8425D02*
Y8527D01*
X10657Y8420D02*
X10776D01*
X10717Y8360D02*
Y8480D01*
X11703Y8420D02*
X11822D01*
X11762Y8360D02*
Y8480D01*
X11119Y6792D02*
X11249D01*
X11184Y6727D02*
Y6857D01*
X10611Y6792D02*
X10741D01*
X10676Y6727D02*
Y6857D01*
X11119Y7808D02*
X11249D01*
X11184Y7743D02*
Y7873D01*
X10611Y7808D02*
X10741D01*
X10676Y7743D02*
Y7873D01*
X9823Y6784D02*
X10223D01*
X10023Y6584D02*
Y6984D01*
X13811Y7379D02*
X14211D01*
X14011Y7179D02*
Y7579D01*
X8606Y7904D02*
X8677D01*
X8641Y7869D02*
Y7940D01*
X9355Y9345D02*
X9375D01*
X9365Y9335D02*
Y9355D01*
X9149Y9149D02*
X9169D01*
X9159Y9139D02*
Y9159D01*
X8182Y8948D02*
X8201D01*
X8192Y8938D02*
Y8958D01*
X8351Y9936D02*
X8371D01*
X8361Y9926D02*
Y9946D01*
X8580Y9949D02*
X8600D01*
X8590Y9939D02*
Y9959D01*
X8486Y9969D02*
X8506D01*
X8496Y9960D02*
Y9979D01*
X8423Y9916D02*
X8443D01*
X8433Y9906D02*
Y9926D01*
X8667Y9502D02*
X8687D01*
X8677Y9492D02*
Y9512D01*
X8318Y9120D02*
X8338D01*
X8328Y9110D02*
Y9130D01*
X7935Y9309D02*
X7955D01*
X7945Y9299D02*
Y9319D01*
X7803Y9657D02*
X7823D01*
X7813Y9647D02*
Y9667D01*
X7775Y9385D02*
X7795D01*
X7785Y9375D02*
Y9395D01*
X8820Y10283D02*
X8840D01*
X8830Y10273D02*
Y10293D01*
X8481Y10653D02*
X8501D01*
X8491Y10643D02*
Y10663D01*
X9429Y9517D02*
X9449D01*
X9439Y9507D02*
Y9527D01*
X9225Y9616D02*
X9245D01*
X9235Y9606D02*
Y9626D01*
X9177Y9877D02*
X9197D01*
X9187Y9867D02*
Y9887D01*
X9093Y9895D02*
X9113D01*
X9103Y9885D02*
Y9905D01*
X9065Y10008D02*
X9085D01*
X9075Y9998D02*
Y10018D01*
X8271Y10227D02*
X8291D01*
X8281Y10217D02*
Y10237D01*
X8154Y10239D02*
X8174D01*
X8164Y10229D02*
Y10249D01*
X8051Y10062D02*
X8071D01*
X8061Y10052D02*
Y10072D01*
X7933Y9893D02*
X7953D01*
X7943Y9883D02*
Y9903D01*
X7856Y9830D02*
X7876D01*
X7866Y9820D02*
Y9840D01*
X8672Y9083D02*
X8692D01*
X8682Y9073D02*
Y9093D01*
X9370Y9116D02*
X9390D01*
X9380Y9106D02*
Y9126D01*
X11368Y12449D02*
X11388D01*
X11378Y12439D02*
Y12459D01*
X11478Y12449D02*
X11498D01*
X11488Y12439D02*
Y12459D01*
X11588Y12449D02*
X11608D01*
X11598Y12439D02*
Y12459D01*
X11368Y12559D02*
X11388D01*
X11378Y12549D02*
Y12569D01*
X11478Y12559D02*
X11498D01*
X11488Y12549D02*
Y12569D01*
X11588Y12559D02*
X11608D01*
X11598Y12549D02*
Y12569D01*
X11368Y12669D02*
X11388D01*
X11378Y12659D02*
Y12679D01*
X11478Y12669D02*
X11498D01*
X11488Y12659D02*
Y12679D01*
X11588Y12669D02*
X11608D01*
X11598Y12659D02*
Y12679D01*
X12225Y12200D02*
X12245D01*
X12235Y12190D02*
Y12210D01*
X11796Y12259D02*
X11816D01*
X11806Y12249D02*
Y12269D01*
X11841Y12414D02*
X11861D01*
X11851Y12404D02*
Y12424D01*
X11196Y12238D02*
X11216D01*
X11206Y12228D02*
Y12248D01*
X11928Y12561D02*
X11948D01*
X11938Y12551D02*
Y12571D01*
X11280Y12943D02*
X11300D01*
X11290Y12933D02*
Y12953D01*
X11580Y13099D02*
X11600D01*
X11590Y13089D02*
Y13109D01*
X11852Y13016D02*
X11872D01*
X11862Y13006D02*
Y13026D01*
X12027Y12764D02*
X12047D01*
X12037Y12754D02*
Y12774D01*
X12144Y12881D02*
X12164D01*
X12154Y12871D02*
Y12891D01*
X11910Y12840D02*
X11930D01*
X11920Y12830D02*
Y12850D01*
X12416Y12504D02*
X12436D01*
X12426Y12494D02*
Y12514D01*
X10843Y12556D02*
X10863D01*
X10853Y12546D02*
Y12566D01*
X11793Y13214D02*
X11813D01*
X11803Y13204D02*
Y13224D01*
X11357Y12995D02*
X11376D01*
X11367Y12985D02*
Y13005D01*
X12634Y12353D02*
X12654D01*
X12644Y12343D02*
Y12363D01*
X12243Y12119D02*
X12263D01*
X12253Y12109D02*
Y12129D01*
X11801Y11527D02*
X11821D01*
X11811Y11517D02*
Y11537D01*
X11123Y11766D02*
X11143D01*
X11133Y11756D02*
Y11776D01*
X11689Y11949D02*
X11709D01*
X11699Y11939D02*
Y11959D01*
X11087Y12559D02*
X11107D01*
X11097Y12549D02*
Y12569D01*
X10904Y12152D02*
X10924D01*
X10914Y12142D02*
Y12162D01*
X12792Y11852D02*
X12812D01*
X12802Y11842D02*
Y11862D01*
X11923Y8903D02*
X11943D01*
X11933Y8893D02*
Y8913D01*
X11981Y10393D02*
X12001D01*
X11991Y10383D02*
Y10403D01*
X11664Y10635D02*
X11684D01*
X11674Y10625D02*
Y10645D01*
X12218Y10165D02*
X12238D01*
X12228Y10155D02*
Y10175D01*
X11062Y9637D02*
X11082D01*
X11072Y9627D02*
Y9647D01*
X11796Y9243D02*
X11816D01*
X11806Y9233D02*
Y9253D01*
X11631Y8946D02*
X11651D01*
X11641Y8936D02*
Y8956D01*
X12157Y9248D02*
X12177D01*
X12167Y9238D02*
Y9258D01*
X12305Y9040D02*
X12325D01*
X12315Y9031D02*
Y9050D01*
X12797Y10429D02*
X12817D01*
X12807Y10419D02*
Y10439D01*
X12487Y9624D02*
X12507D01*
X12497Y9614D02*
Y9634D01*
X12440Y9480D02*
X12460D01*
X12450Y9470D02*
Y9490D01*
X11633Y9180D02*
X11653D01*
X11643Y9170D02*
Y9190D01*
X12550Y15240D02*
X12570D01*
X12560Y15230D02*
Y15250D01*
X12210Y14722D02*
X12230D01*
X12220Y14712D02*
Y14732D01*
X12075Y14720D02*
X12095D01*
X12085Y14710D02*
Y14730D01*
X12258Y14397D02*
X12278D01*
X12268Y14387D02*
Y14407D01*
X11871Y14482D02*
X11891D01*
X11881Y14472D02*
Y14492D01*
X11722Y14597D02*
X11742D01*
X11732Y14587D02*
Y14607D01*
X11391Y14535D02*
X11411D01*
X11401Y14525D02*
Y14545D01*
X11241Y14543D02*
X11261D01*
X11251Y14533D02*
Y14553D01*
X11247Y14253D02*
X11267D01*
X11257Y14243D02*
Y14263D01*
X11167Y14101D02*
X11187D01*
X11177Y14091D02*
Y14111D01*
X11139Y14413D02*
X11159D01*
X11149Y14403D02*
Y14423D01*
X11013Y14496D02*
X11033D01*
X11023Y14486D02*
Y14506D01*
X10915Y14943D02*
X10935D01*
X10925Y14933D02*
Y14953D01*
X11200Y14893D02*
X11220D01*
X11210Y14883D02*
Y14903D01*
X11932Y15289D02*
X11952D01*
X11942Y15279D02*
Y15299D01*
X12342Y15276D02*
X12362D01*
X12352Y15266D02*
Y15286D01*
X12232Y15290D02*
X12252D01*
X12242Y15280D02*
Y15300D01*
X11517Y13945D02*
X11537D01*
X11527Y13935D02*
Y13955D01*
X12162Y13899D02*
X12182D01*
X12172Y13889D02*
Y13909D01*
X12174Y14564D02*
X12194D01*
X12184Y14554D02*
Y14574D01*
X11877Y15436D02*
X11897D01*
X11887Y15426D02*
Y15446D01*
X11682Y15908D02*
X11702D01*
X11692Y15898D02*
Y15918D01*
X11344Y15616D02*
X11364D01*
X11354Y15606D02*
Y15626D01*
X10716Y15042D02*
X10736D01*
X10726Y15032D02*
Y15052D01*
X10846Y15121D02*
X10866D01*
X10856Y15111D02*
Y15131D01*
X9497Y12177D02*
X9517D01*
X9507Y12167D02*
Y12187D01*
X9149Y12169D02*
X9169D01*
X9159Y12159D02*
Y12179D01*
X8908Y11923D02*
X8928D01*
X8918Y11913D02*
Y11933D01*
X8855Y11836D02*
X8875D01*
X8865Y11826D02*
Y11846D01*
X8889Y12048D02*
X8909D01*
X8899Y12038D02*
Y12058D01*
X9756Y11786D02*
X9776D01*
X9766Y11776D02*
Y11796D01*
X8611Y11481D02*
X8631D01*
X8621Y11471D02*
Y11491D01*
X8093Y12527D02*
X8113D01*
X8103Y12517D02*
Y12537D01*
X8499Y13132D02*
X8519D01*
X8509Y13122D02*
Y13142D01*
X8552Y12941D02*
X8572D01*
X8562Y12931D02*
Y12951D01*
X8604Y12756D02*
X8624D01*
X8614Y12746D02*
Y12766D01*
X11740Y11806D02*
X11760D01*
X11750Y11796D02*
Y11816D01*
X12759Y9700D02*
X12779D01*
X12769Y9690D02*
Y9710D01*
X10986Y12696D02*
X11006D01*
X10996Y12686D02*
Y12706D01*
X10986Y12772D02*
X11006D01*
X10996Y12762D02*
Y12782D01*
X10518Y12551D02*
X10538D01*
X10528Y12541D02*
Y12561D01*
X10511Y12436D02*
X10531D01*
X10521Y12426D02*
Y12446D01*
X12581Y14770D02*
X12601D01*
X12591Y14760D02*
Y14780D01*
X12317Y14905D02*
X12337D01*
X12327Y14895D02*
Y14915D01*
X12317Y14671D02*
X12337D01*
X12327Y14661D02*
Y14681D01*
X10716Y12532D02*
X10736D01*
X10726Y12522D02*
Y12542D01*
X12581Y14846D02*
X12601D01*
X12591Y14835D02*
Y14855D01*
X10641Y12532D02*
X10661D01*
X10651Y12522D02*
Y12542D01*
X10646Y12296D02*
X10666D01*
X10656Y12286D02*
Y12306D01*
X10592Y12349D02*
X10612D01*
X10602Y12339D02*
Y12359D01*
X11849Y10909D02*
X11869D01*
X11859Y10899D02*
Y10919D01*
X11903Y10856D02*
X11923D01*
X11913Y10846D02*
Y10866D01*
X11801Y10665D02*
X11821D01*
X11811Y10655D02*
Y10675D01*
X12037Y10719D02*
X12057D01*
X12047Y10709D02*
Y10729D01*
X8949Y12715D02*
X8969D01*
X8959Y12705D02*
Y12725D01*
X7496Y11725D02*
X7516D01*
X7506Y11715D02*
Y11735D01*
X6827Y11486D02*
X6847D01*
X6837Y11476D02*
Y11496D01*
X6835Y12586D02*
X6855D01*
X6845Y12576D02*
Y12596D01*
X8946Y11539D02*
X8966D01*
X8956Y11529D02*
Y11549D01*
X9035Y11554D02*
X9055D01*
X9045Y11544D02*
Y11564D01*
X8054Y11504D02*
X8075D01*
X8064Y11494D02*
Y11514D01*
X7945Y11481D02*
X7965D01*
X7955Y11471D02*
Y11491D01*
X8086Y11918D02*
X8106D01*
X8096Y11908D02*
Y11928D01*
X8130Y11963D02*
X8150D01*
X8140Y11953D02*
Y11973D01*
X8750Y13693D02*
X8770D01*
X8760Y13683D02*
Y13703D01*
X8706Y13737D02*
X8726D01*
X8716Y13727D02*
Y13747D01*
X10008Y14127D02*
X10028D01*
X10018Y14117D02*
Y14137D01*
X10052Y14083D02*
X10072D01*
X10062Y14073D02*
Y14093D01*
X9909Y10368D02*
X9929D01*
X9919Y10358D02*
Y10378D01*
X9820Y10279D02*
X9840D01*
X9830Y10269D02*
Y10289D01*
X8795Y10988D02*
X8815D01*
X8805Y10978D02*
Y10998D01*
X8858Y10988D02*
X8878D01*
X8868Y10978D02*
Y10998D01*
X11699Y14806D02*
X11719D01*
X11709Y14796D02*
Y14816D01*
X11649Y14869D02*
X11669D01*
X11659Y14859D02*
Y14879D01*
X12332Y15029D02*
X12352D01*
X12342Y15019D02*
Y15039D01*
X10549Y14783D02*
X10569D01*
X10559Y14773D02*
Y14793D01*
X10229Y12558D02*
X10249D01*
X10239Y12548D02*
Y12568D01*
X12756Y12781D02*
X12776D01*
X12766Y12771D02*
Y12791D01*
X9408Y11572D02*
X9428D01*
X9418Y11562D02*
Y11582D01*
X8989Y11382D02*
X9009D01*
X8999Y11372D02*
Y11392D01*
X11036Y13719D02*
X11056D01*
X11046Y13709D02*
Y13729D01*
X13447Y11923D02*
X13467D01*
X13457Y11913D02*
Y11933D01*
X10775Y11544D02*
X10795D01*
X10785Y11534D02*
Y11554D01*
X9530Y11476D02*
X9550D01*
X9540Y11466D02*
Y11486D01*
X10813Y9934D02*
X10833D01*
X10823Y9924D02*
Y9944D01*
X10335Y9479D02*
X10355D01*
X10345Y9469D02*
Y9489D01*
X10424Y9764D02*
X10444D01*
X10434Y9754D02*
Y9774D01*
X11052Y9764D02*
X11072D01*
X11062Y9754D02*
Y9774D01*
X10059Y11843D02*
X10079D01*
X10069Y11833D02*
Y11853D01*
X10059Y11905D02*
X10079D01*
X10069Y11895D02*
Y11915D01*
X9688Y10717D02*
X9708D01*
X9698Y10707D02*
Y10727D01*
X9733Y10761D02*
X9753D01*
X9743Y10751D02*
Y10771D01*
X11906Y10289D02*
X11926D01*
X11916Y10279D02*
Y10299D01*
X11867Y10406D02*
X11887D01*
X11877Y10396D02*
Y10416D01*
X12022Y9992D02*
X12042D01*
X12032Y9982D02*
Y10002D01*
X11448Y10175D02*
X11468D01*
X11458Y10165D02*
Y10185D01*
X11428Y10625D02*
X11448D01*
X11438Y10615D02*
Y10635D01*
X11537Y10630D02*
X11557D01*
X11547Y10620D02*
Y10640D01*
X10366Y12230D02*
X10386D01*
X10376Y12220D02*
Y12240D01*
X10206Y12238D02*
X10226D01*
X10216Y12228D02*
Y12248D01*
X8410Y12131D02*
X8430D01*
X8420Y12121D02*
Y12141D01*
X11204Y10188D02*
X11224D01*
X11214Y10178D02*
Y10198D01*
X11440Y11493D02*
X11460D01*
X11450Y11483D02*
Y11503D01*
X12568Y11643D02*
X12588D01*
X12578Y11633D02*
Y11653D01*
X9701Y7456D02*
X9721D01*
X9711Y7446D02*
Y7466D01*
X9398Y7300D02*
X9418D01*
X9408Y7290D02*
Y7310D01*
X9418Y7589D02*
X9438D01*
X9428Y7579D02*
Y7599D01*
X9650Y7384D02*
X9670D01*
X9660Y7374D02*
Y7394D01*
X9609Y7473D02*
X9629D01*
X9619Y7463D02*
Y7483D01*
X14357Y10604D02*
X14377D01*
X14367Y10594D02*
Y10614D01*
X14095Y10909D02*
X14115D01*
X14105Y10899D02*
Y10919D01*
X14429Y10691D02*
X14449D01*
X14439Y10681D02*
Y10701D01*
X14232Y10991D02*
X14252D01*
X14242Y10981D02*
Y11001D01*
X14277Y11511D02*
X14298D01*
X14288Y11501D02*
Y11521D01*
X9241Y11499D02*
X9261D01*
X9251Y11489D02*
Y11509D01*
X14087Y10668D02*
X14107D01*
X14097Y10658D02*
Y10678D01*
X14120Y10132D02*
X14150D01*
X14135Y10117D02*
Y10147D01*
X14747Y10112D02*
X14777D01*
X14762Y10097D02*
Y10127D01*
X13485Y10130D02*
X13505D01*
X13495Y10120D02*
Y10140D01*
X14079Y11511D02*
X14150D01*
X14115Y11476D02*
Y11547D01*
X8430Y9149D02*
X8450D01*
X8440Y9139D02*
Y9159D01*
X13104Y15568D02*
X13124D01*
X13114Y15558D02*
Y15578D01*
X13020Y15621D02*
X13040D01*
X13030Y15611D02*
Y15631D01*
X14114Y15885D02*
X14134D01*
X14124Y15874D02*
Y15895D01*
X13350Y15889D02*
X13370D01*
X13360Y15879D02*
Y15899D01*
X13271Y12769D02*
X13291D01*
X13281Y12759D02*
Y12779D01*
X13215Y12826D02*
X13235D01*
X13225Y12816D02*
Y12836D01*
X12644Y10749D02*
X12664D01*
X12654Y10739D02*
Y10759D01*
X12548Y10592D02*
X12568D01*
X12558Y10582D02*
Y10602D01*
X11491Y10353D02*
X11511D01*
X11501Y10343D02*
Y10363D01*
X12698Y11041D02*
X12718D01*
X12708Y11031D02*
Y11051D01*
X13114Y11948D02*
X13134D01*
X13124Y11938D02*
Y11958D01*
X13594Y12497D02*
X13614D01*
X13604Y12487D02*
Y12507D01*
X14359Y15235D02*
X14379D01*
X14369Y15225D02*
Y15245D01*
X12914Y15166D02*
X12934D01*
X12924Y15156D02*
Y15176D01*
X7620Y12697D02*
X7640D01*
X7630Y12687D02*
Y12707D01*
X12533Y10761D02*
X12553D01*
X12543Y10751D02*
Y10771D01*
X8642Y14270D02*
X8662D01*
X8652Y14260D02*
Y14280D01*
X8809Y8631D02*
X8829D01*
X8819Y8621D02*
Y8641D01*
X12250Y11168D02*
X12270D01*
X12260Y11158D02*
Y11178D01*
X12326Y11168D02*
X12346D01*
X12336Y11158D02*
Y11178D01*
X12543Y8979D02*
X12563D01*
X12553Y8969D02*
Y8989D01*
X12596Y8926D02*
X12616D01*
X12606Y8916D02*
Y8936D01*
X9048Y9141D02*
X9068D01*
X9058Y9131D02*
Y9151D01*
M02*
