M48
;Layer_Color=9474304
;FILE_FORMAT=4:2
METRIC,LZ
;TYPE=PLATED
T1F00S00C0.20
T2F00S00C0.30
T3F00S00C0.66
T4F00S00C0.71
T5F00S00C1.02
T6F00S00C1.20
T7F00S00C1.30
T8F00S00C1.60
T9F00S00C1.80
T10F00S00C4.00
%
T01
X009408Y0073
X009428Y007589
X009619Y007473
X009711Y007456
X00966Y007384
X007785Y009385
X007813Y009657
X007866Y00983
X007506Y011725
X006837Y011486
X007955Y011481
X008064Y011504
X008621Y011481
X008956Y011539
X009045Y011554
X008999Y011382
X009251Y011499
X009418Y011572
X00954Y011476
X009766Y011786
X010069Y011843
Y011905
X010785Y011544
X011133Y011766
X01145Y011493
X011811Y011527
X01175Y011806
X011859Y010909
X011811Y010665
X011674Y010635
X011547Y01063
X011438Y010625
X011501Y010353
X011458Y010175
X011214Y010188
X011062Y009764
X011072Y009637
X010823Y009934
X010434Y009764
X010345Y009479
X009439Y009517
X009365Y009345
X00938Y009116
X009159Y009149
X009058Y009141
X008682Y009083
X00844Y009149
X008328Y00912
X008192Y008948
X007945Y009309
X007943Y009893
X008061Y010062
X008164Y010239
X008281Y010227
X008361Y009936
X008433Y009916
X008496Y009969
X00859Y009949
X008677Y009502
X009235Y009616
X009187Y009877
X009103Y009895
X009075Y010008
X00883Y010283
X008491Y010653
X008805Y010988
X008868
X008865Y011836
X009698Y010717
X009743Y010761
X009919Y010368
X00983Y010279
X011877Y010406
X011806Y009243
X011643Y00918
X011641Y008946
X008819Y008631
X011933Y008903
X012315Y00904
X012553Y008979
X012606Y008926
X01245Y00948
X012497Y009624
X012769Y0097
X012807Y010429
X012558Y010592
X012543Y010761
X012654Y010749
X012708Y011041
X012336Y011168
X01226
X011913Y010856
X012047Y010719
X011991Y010393
X011916Y010289
X012032Y009992
X012228Y010165
X012167Y009248
X013495Y01013
X014097Y010668
X014105Y010909
X014242Y010991
X014439Y010691
X014367Y010604
X014288Y011511
X012802Y011852
X012578Y011643
X012644Y012353
X012426Y012504
X012235Y0122
X012253Y012119
X011938Y012561
X01192Y01284
X012037Y012764
X012154Y012881
X012766Y012781
X013225Y012826
X013281Y012769
X013604Y012497
X013457Y011923
X013124Y011948
X012172Y013899
X012268Y014397
X012184Y014564
X01222Y014722
X012085Y01472
X012327Y014671
Y014905
X012342Y015029
X012352Y015276
X012242Y01529
X011942Y015289
X01256Y01524
X012591Y014846
Y01477
X012924Y015166
X01303Y015621
X013114Y015568
X014369Y015235
X011887Y015436
X011354Y015616
X01121Y014893
X010925Y014943
X010856Y015121
X010726Y015042
X010559Y014783
X011023Y014496
X011149Y014413
X011251Y014543
X011401Y014535
X011732Y014597
X011709Y014806
X011659Y014869
X011881Y014482
X011257Y014253
X011177Y014101
X011527Y013945
X011046Y013719
X010996Y012772
Y012696
X011097Y012559
X010853Y012556
X010726Y012532
X010651
X010528Y012551
X010521Y012436
X010602Y012349
X010656Y012296
X010376Y01223
X010216Y012238
X010239Y012558
X010914Y012152
X011206Y012238
X011378Y012449
X011488
X011598
Y012559
X011488
X011378
Y012669
X011488
X011598
X01159Y013099
X011367Y012995
X01129Y012943
X011862Y013016
X011803Y013214
X011851Y012414
X011806Y012259
X011699Y011949
X009507Y012177
X009159Y012169
X008899Y012048
X008918Y011923
X00842Y012131
X00814Y011963
X008096Y011918
X008103Y012527
X008614Y012756
X008562Y012941
X008509Y013132
X00876Y013693
X008716Y013737
X008652Y01427
X010018Y014127
X010062Y014083
X008959Y012715
X00763Y012697
X006845Y012586
X011692Y015908
X01336Y015889
X014124Y015885
T02
X007409Y01158
X009891Y009642
X014135Y010132
X014762Y010112
X014288Y011379
X007407Y012676
T03
X007887Y011227
X010089
X012913Y011227
X015116Y011227
T04
X008641Y007904
X014115Y011511
T05
X008987Y00902
X009241Y00902
Y009274
X008987
X009495
X009495Y00902
X013297Y008984
X013551
Y00873
X013297
Y008476
X013551
X014003
Y00873
Y008984
X014257
Y00873
Y008476
T06
X010717Y00842
X011762
T07
X010676Y006792
X011184
Y007808
X010676
T08
X008741Y015094
X01069Y016219
T09
X007508Y01017
X010508
X012535Y01017
X015535
Y01317
X012535
X010508Y01317
X007508
T10
X014011Y007379
X010023Y006784
X008204Y008204
X014796Y008204
X014796Y014796
X008204
M30
