G04 Layer_Color=255*
%FSLAX42Y42*%
%MOMM*%
G71*
G01*
G75*
G04:AMPARAMS|DCode=10|XSize=0.25mm|YSize=1.12mm|CornerRadius=0.13mm|HoleSize=0mm|Usage=FLASHONLY|Rotation=0.000|XOffset=0mm|YOffset=0mm|HoleType=Round|Shape=RoundedRectangle|*
%AMROUNDEDRECTD10*
21,1,0.25,0.86,0,0,0.0*
21,1,0.00,1.12,0,0,0.0*
1,1,0.25,0.00,-0.43*
1,1,0.25,0.00,-0.43*
1,1,0.25,0.00,0.43*
1,1,0.25,0.00,0.43*
%
%ADD10ROUNDEDRECTD10*%
%ADD11R,0.25X1.12*%
%ADD12R,1.42X2.11*%
G04:AMPARAMS|DCode=13|XSize=1.32mm|YSize=0.71mm|CornerRadius=0mm|HoleSize=0mm|Usage=FLASHONLY|Rotation=115.000|XOffset=0mm|YOffset=0mm|HoleType=Round|Shape=Rectangle|*
%AMROTATEDRECTD13*
4,1,4,0.60,-0.45,-0.04,-0.75,-0.60,0.45,0.04,0.75,0.60,-0.45,0.0*
%
%ADD13ROTATEDRECTD13*%

%ADD14R,0.51X0.33*%
%ADD15R,0.51X0.61*%
%ADD16R,0.61X0.51*%
G04:AMPARAMS|DCode=17|XSize=0.51mm|YSize=0.61mm|CornerRadius=0.13mm|HoleSize=0mm|Usage=FLASHONLY|Rotation=180.000|XOffset=0mm|YOffset=0mm|HoleType=Round|Shape=RoundedRectangle|*
%AMROUNDEDRECTD17*
21,1,0.51,0.36,0,0,180.0*
21,1,0.25,0.61,0,0,180.0*
1,1,0.25,-0.13,0.18*
1,1,0.25,0.13,0.18*
1,1,0.25,0.13,-0.18*
1,1,0.25,-0.13,-0.18*
%
%ADD17ROUNDEDRECTD17*%
%ADD18R,1.20X1.70*%
%ADD19R,0.50X1.00*%
G04:AMPARAMS|DCode=20|XSize=0.5mm|YSize=1mm|CornerRadius=0.25mm|HoleSize=0mm|Usage=FLASHONLY|Rotation=0.000|XOffset=0mm|YOffset=0mm|HoleType=Round|Shape=RoundedRectangle|*
%AMROUNDEDRECTD20*
21,1,0.50,0.50,0,0,0.0*
21,1,0.00,1.00,0,0,0.0*
1,1,0.50,0.00,-0.25*
1,1,0.50,0.00,-0.25*
1,1,0.50,0.00,0.25*
1,1,0.50,0.00,0.25*
%
%ADD20ROUNDEDRECTD20*%
%ADD21R,2.31X1.60*%
G04:AMPARAMS|DCode=22|XSize=0.51mm|YSize=0.61mm|CornerRadius=0mm|HoleSize=0mm|Usage=FLASHONLY|Rotation=240.000|XOffset=0mm|YOffset=0mm|HoleType=Round|Shape=Rectangle|*
%AMROTATEDRECTD22*
4,1,4,-0.14,0.37,0.39,0.07,0.14,-0.37,-0.39,-0.07,-0.14,0.37,0.0*
%
%ADD22ROTATEDRECTD22*%

%ADD29C,1.52*%
%ADD30C,5.00*%
%ADD31C,2.20*%
%ADD32R,0.41X0.41*%
%ADD33R,0.41X0.41*%
%ADD34C,0.66*%
%ADD35C,2.21*%
%ADD36C,1.88*%
%ADD37R,2.00X2.00*%
%ADD38C,2.00*%
%ADD39C,3.00*%
D10*
X14989Y11684D02*
D03*
X9962Y11684D02*
D03*
D11*
X14941Y11684D02*
D03*
X14890D02*
D03*
X14839D02*
D03*
X14791D02*
D03*
X14740D02*
D03*
X14689D02*
D03*
X14641D02*
D03*
X14590D02*
D03*
X14539D02*
D03*
X14491D02*
D03*
X14440D02*
D03*
X14389D02*
D03*
X14339D02*
D03*
X14290D02*
D03*
X14140D02*
D03*
X14090D02*
D03*
X14039D02*
D03*
X13988D02*
D03*
X13938Y11684D02*
D03*
X13888Y11684D02*
D03*
X13838D02*
D03*
X13788D02*
D03*
X13738D02*
D03*
X13688D02*
D03*
X13638D02*
D03*
X13588D02*
D03*
X13538D02*
D03*
X14989Y11152D02*
D03*
X14941D02*
D03*
X14890D02*
D03*
X14839D02*
D03*
X14791D02*
D03*
X14740D02*
D03*
X14689D02*
D03*
X14641D02*
D03*
X14590D02*
D03*
X14539D02*
D03*
X14491D02*
D03*
X14440D02*
D03*
X14389D02*
D03*
X14339D02*
D03*
X14290D02*
D03*
X14240D02*
D03*
X14189D02*
D03*
X14140D02*
D03*
X14090D02*
D03*
X14039D02*
D03*
X13988D02*
D03*
X13938D02*
D03*
X13888D02*
D03*
X13838D02*
D03*
X13788D02*
D03*
X13738D02*
D03*
X13688D02*
D03*
X13638D02*
D03*
X13588D02*
D03*
X13538D02*
D03*
X13488Y11684D02*
D03*
Y11152D02*
D03*
X13438Y11684D02*
D03*
X13438Y11152D02*
D03*
X13388Y11684D02*
D03*
Y11152D02*
D03*
X13338Y11684D02*
D03*
Y11152D02*
D03*
X13288Y11684D02*
D03*
Y11152D02*
D03*
X13238Y11684D02*
D03*
Y11152D02*
D03*
X13188Y11684D02*
D03*
Y11152D02*
D03*
X13138Y11684D02*
D03*
Y11152D02*
D03*
X13088Y11684D02*
D03*
X13088Y11152D02*
D03*
X13038Y11684D02*
D03*
Y11152D02*
D03*
X8012Y11152D02*
D03*
Y11684D02*
D03*
X8062Y11152D02*
D03*
Y11684D02*
D03*
X8112Y11152D02*
D03*
Y11684D02*
D03*
X8162Y11152D02*
D03*
Y11684D02*
D03*
X8212Y11152D02*
D03*
Y11684D02*
D03*
X8262Y11152D02*
D03*
Y11684D02*
D03*
X8312Y11152D02*
D03*
Y11684D02*
D03*
X8362Y11152D02*
D03*
Y11684D02*
D03*
X8412Y11152D02*
D03*
Y11684D02*
D03*
X8462Y11152D02*
D03*
Y11684D02*
D03*
X8512Y11152D02*
D03*
X8562D02*
D03*
X8612D02*
D03*
X8662D02*
D03*
X8712D02*
D03*
X8762D02*
D03*
X8812D02*
D03*
X8862D02*
D03*
X8912D02*
D03*
X8962D02*
D03*
X9012D02*
D03*
X9063D02*
D03*
X9114D02*
D03*
X9162D02*
D03*
X9213D02*
D03*
X9263D02*
D03*
X9312D02*
D03*
X9362D02*
D03*
X9413D02*
D03*
X9464D02*
D03*
X9512D02*
D03*
X9563D02*
D03*
X9614D02*
D03*
X9662D02*
D03*
X9713D02*
D03*
X9764D02*
D03*
X9812D02*
D03*
X9863D02*
D03*
X9914D02*
D03*
X9962D02*
D03*
X8512Y11684D02*
D03*
X8562D02*
D03*
X8612D02*
D03*
X8662D02*
D03*
X8712D02*
D03*
X8762D02*
D03*
X8812D02*
D03*
X8862D02*
D03*
X8912D02*
D03*
X8962D02*
D03*
X9012D02*
D03*
X9063D02*
D03*
X9114D02*
D03*
X9263D02*
D03*
X9312D02*
D03*
X9362D02*
D03*
X9413D02*
D03*
X9464D02*
D03*
X9512D02*
D03*
X9563D02*
D03*
X9614D02*
D03*
X9662D02*
D03*
X9713D02*
D03*
X9764D02*
D03*
X9812D02*
D03*
X9863D02*
D03*
X9914D02*
D03*
X14240Y11684D02*
D03*
X14189D02*
D03*
X9213Y11684D02*
D03*
X9162D02*
D03*
D12*
X12813Y11417D02*
D03*
X15215Y11417D02*
D03*
X10188Y11417D02*
D03*
X7787D02*
D03*
D13*
X8953Y7749D02*
D03*
X9054Y7796D02*
D03*
X9154Y7843D02*
D03*
X9028Y8112D02*
D03*
X8928Y8066D02*
D03*
X8827Y8018D02*
D03*
D14*
X9566Y7370D02*
D03*
Y7420D02*
D03*
Y7470D02*
D03*
Y7521D02*
D03*
Y7572D02*
D03*
X9289D02*
D03*
Y7521D02*
D03*
Y7470D02*
D03*
Y7420D02*
D03*
Y7370D02*
D03*
D15*
X9426Y7681D02*
D03*
X9325D02*
D03*
D16*
X9693Y7625D02*
D03*
Y7524D02*
D03*
D17*
X9341Y7262D02*
D03*
X9261D02*
D03*
D18*
X14254Y15926D02*
D03*
X13594D02*
D03*
X13482D02*
D03*
X12822D02*
D03*
D19*
X14124Y15731D02*
D03*
X13352D02*
D03*
D20*
X14044Y15731D02*
D03*
X13964Y15731D02*
D03*
X13884D02*
D03*
X13804D02*
D03*
X13724D02*
D03*
X13272D02*
D03*
X13192D02*
D03*
X13112D02*
D03*
X13032D02*
D03*
X12952D02*
D03*
D21*
X13472Y15446D02*
D03*
X12840Y15446D02*
D03*
X14402Y15453D02*
D03*
X13769D02*
D03*
D22*
X8707Y14325D02*
D03*
X8758Y14412D02*
D03*
D29*
X8987Y9020D02*
D03*
X8987Y9274D02*
D03*
X9241Y9020D02*
D03*
Y9274D02*
D03*
X9495Y9020D02*
D03*
X9495Y9274D02*
D03*
X10023Y6784D02*
D03*
X14011Y7379D02*
D03*
D30*
X8204Y8204D02*
D03*
X14796Y8204D02*
D03*
X8204Y14796D02*
D03*
X14796D02*
D03*
D31*
X8741Y15094D02*
D03*
X10690Y16219D02*
D03*
D32*
X7409Y11580D02*
D03*
X7407Y12676D02*
D03*
D33*
X9891Y9642D02*
D03*
X14288Y11379D02*
D03*
D34*
X12913Y11227D02*
D03*
X15116Y11227D02*
D03*
X10089Y11227D02*
D03*
X7887D02*
D03*
D35*
X10508Y13170D02*
D03*
X7508D02*
D03*
X10508Y10170D02*
D03*
X7508D02*
D03*
X15535Y13170D02*
D03*
Y10170D02*
D03*
X12535Y13170D02*
D03*
Y10170D02*
D03*
D36*
X13551Y8984D02*
D03*
X13297D02*
D03*
X13551Y8730D02*
D03*
X13297D02*
D03*
X13551Y8476D02*
D03*
X13297D02*
D03*
X14257Y8984D02*
D03*
X14003D02*
D03*
X14257Y8730D02*
D03*
X14003D02*
D03*
X14257Y8476D02*
D03*
X14003D02*
D03*
D37*
X10717Y8420D02*
D03*
D38*
X11762D02*
D03*
D39*
X11184Y6792D02*
D03*
X10676D02*
D03*
X11184Y7808D02*
D03*
X10676D02*
D03*
M02*
