G04 Layer_Physical_Order=1*
G04 Layer_Color=255*
%FSLAX42Y42*%
%MOMM*%
G71*
G01*
G75*
G04:AMPARAMS|DCode=10|XSize=0.25mm|YSize=1.12mm|CornerRadius=0.13mm|HoleSize=0mm|Usage=FLASHONLY|Rotation=0.000|XOffset=0mm|YOffset=0mm|HoleType=Round|Shape=RoundedRectangle|*
%AMROUNDEDRECTD10*
21,1,0.25,0.86,0,0,0.0*
21,1,0.00,1.12,0,0,0.0*
1,1,0.25,0.00,-0.43*
1,1,0.25,0.00,-0.43*
1,1,0.25,0.00,0.43*
1,1,0.25,0.00,0.43*
%
%ADD10ROUNDEDRECTD10*%
%ADD11R,0.25X1.12*%
%ADD12R,1.42X2.11*%
G04:AMPARAMS|DCode=13|XSize=1.32mm|YSize=0.71mm|CornerRadius=0mm|HoleSize=0mm|Usage=FLASHONLY|Rotation=115.000|XOffset=0mm|YOffset=0mm|HoleType=Round|Shape=Rectangle|*
%AMROTATEDRECTD13*
4,1,4,0.60,-0.45,-0.04,-0.75,-0.60,0.45,0.04,0.75,0.60,-0.45,0.0*
%
%ADD13ROTATEDRECTD13*%

%ADD14R,0.51X0.33*%
%ADD15R,0.51X0.61*%
%ADD16R,0.61X0.51*%
G04:AMPARAMS|DCode=17|XSize=0.51mm|YSize=0.61mm|CornerRadius=0.13mm|HoleSize=0mm|Usage=FLASHONLY|Rotation=180.000|XOffset=0mm|YOffset=0mm|HoleType=Round|Shape=RoundedRectangle|*
%AMROUNDEDRECTD17*
21,1,0.51,0.36,0,0,180.0*
21,1,0.25,0.61,0,0,180.0*
1,1,0.25,-0.13,0.18*
1,1,0.25,0.13,0.18*
1,1,0.25,0.13,-0.18*
1,1,0.25,-0.13,-0.18*
%
%ADD17ROUNDEDRECTD17*%
%ADD18R,1.20X1.70*%
%ADD19R,0.50X1.00*%
G04:AMPARAMS|DCode=20|XSize=0.5mm|YSize=1mm|CornerRadius=0.25mm|HoleSize=0mm|Usage=FLASHONLY|Rotation=0.000|XOffset=0mm|YOffset=0mm|HoleType=Round|Shape=RoundedRectangle|*
%AMROUNDEDRECTD20*
21,1,0.50,0.50,0,0,0.0*
21,1,0.00,1.00,0,0,0.0*
1,1,0.50,0.00,-0.25*
1,1,0.50,0.00,-0.25*
1,1,0.50,0.00,0.25*
1,1,0.50,0.00,0.25*
%
%ADD20ROUNDEDRECTD20*%
%ADD21R,2.31X1.60*%
G04:AMPARAMS|DCode=22|XSize=0.51mm|YSize=0.61mm|CornerRadius=0mm|HoleSize=0mm|Usage=FLASHONLY|Rotation=240.000|XOffset=0mm|YOffset=0mm|HoleType=Round|Shape=Rectangle|*
%AMROTATEDRECTD22*
4,1,4,-0.14,0.37,0.39,0.07,0.14,-0.37,-0.39,-0.07,-0.14,0.37,0.0*
%
%ADD22ROTATEDRECTD22*%

%ADD23C,1.00*%
%ADD24C,0.25*%
%ADD25C,0.15*%
%ADD26C,0.90*%
%ADD27C,0.38*%
%ADD28C,0.13*%
%ADD29C,1.52*%
%ADD30C,5.00*%
%ADD31C,2.20*%
%ADD32R,0.41X0.41*%
%ADD33R,0.41X0.41*%
%ADD34C,0.66*%
%ADD35C,2.21*%
%ADD36C,1.88*%
%ADD37R,2.00X2.00*%
%ADD38C,2.00*%
%ADD39C,3.00*%
%ADD40C,1.27*%
%ADD41C,0.50*%
%ADD42C,0.45*%
%ADD43C,4.00*%
G36*
X11726Y16878D02*
X11948Y16865D01*
X12169Y16842D01*
X12389Y16810D01*
X12608Y16769D01*
X12824Y16718D01*
X13039Y16659D01*
X13250Y16592D01*
X13459Y16515D01*
X13665Y16430D01*
X13866Y16336D01*
X14064Y16235D01*
X14257Y16125D01*
X14446Y16007D01*
X14629Y15882D01*
X14808Y15749D01*
X14980Y15609D01*
X15147Y15461D01*
X15307Y15307D01*
X15461Y15147D01*
X15609Y14980D01*
X15749Y14808D01*
X15882Y14629D01*
X16007Y14446D01*
X16125Y14257D01*
X16235Y14064D01*
X16336Y13866D01*
X16430Y13665D01*
X16515Y13459D01*
X16592Y13250D01*
X16659Y13039D01*
X16718Y12824D01*
X16769Y12608D01*
X16810Y12389D01*
X16842Y12169D01*
X16865Y11948D01*
X16878Y11726D01*
X16883Y11504D01*
X16878Y11281D01*
X16865Y11059D01*
X16842Y10838D01*
X16810Y10618D01*
X16769Y10400D01*
X16718Y10183D01*
X16659Y9969D01*
X16592Y9757D01*
X16515Y9548D01*
X16430Y9343D01*
X16336Y9141D01*
X16235Y8943D01*
X16125Y8750D01*
X16007Y8561D01*
X15882Y8378D01*
X15749Y8200D01*
X15609Y8027D01*
X15461Y7860D01*
X15307Y7700D01*
X15147Y7546D01*
X14980Y7399D01*
X14808Y7259D01*
X14629Y7126D01*
X14446Y7000D01*
X14257Y6883D01*
X14064Y6773D01*
X13866Y6671D01*
X13665Y6577D01*
X13459Y6492D01*
X13250Y6416D01*
X13200Y6399D01*
X13189Y6407D01*
Y8034D01*
X13188Y8040D01*
X13184Y8046D01*
X13078Y8153D01*
X13072Y8156D01*
X13066Y8158D01*
X12037D01*
X12031Y8156D01*
X12025Y8153D01*
X11926Y8054D01*
X11924Y8051D01*
X11922Y8048D01*
X11922Y8048D01*
X11922Y8048D01*
X11922Y8045D01*
X11921Y8042D01*
X11921Y6141D01*
X11726Y6129D01*
X11504Y6124D01*
X11281Y6129D01*
X11059Y6143D01*
X10838Y6166D01*
X10618Y6198D01*
X10400Y6239D01*
X10183Y6289D01*
X9969Y6348D01*
X9757Y6416D01*
X9548Y6492D01*
X9343Y6577D01*
X9141Y6671D01*
X8943Y6773D01*
X8750Y6883D01*
X8561Y7000D01*
X8378Y7126D01*
X8200Y7259D01*
X8027Y7399D01*
X7860Y7546D01*
X7700Y7700D01*
X7546Y7860D01*
X7399Y8027D01*
X7259Y8200D01*
X7126Y8378D01*
X7000Y8561D01*
X6883Y8750D01*
X6773Y8943D01*
X6671Y9141D01*
X6577Y9343D01*
X6492Y9548D01*
X6416Y9757D01*
X6348Y9969D01*
X6289Y10183D01*
X6239Y10400D01*
X6198Y10618D01*
X6166Y10838D01*
X6143Y11059D01*
X6129Y11281D01*
X6124Y11504D01*
X6129Y11726D01*
X6143Y11948D01*
X6166Y12169D01*
X6198Y12389D01*
X6239Y12608D01*
X6289Y12824D01*
X6348Y13039D01*
X6416Y13250D01*
X6492Y13459D01*
X6577Y13665D01*
X6671Y13866D01*
X6773Y14064D01*
X6883Y14257D01*
X7000Y14446D01*
X7126Y14629D01*
X7259Y14808D01*
X7399Y14980D01*
X7546Y15147D01*
X7700Y15307D01*
X7860Y15461D01*
X8027Y15609D01*
X8200Y15749D01*
X8378Y15882D01*
X8561Y16007D01*
X8750Y16125D01*
X8943Y16235D01*
X9141Y16336D01*
X9343Y16430D01*
X9548Y16515D01*
X9757Y16592D01*
X9969Y16659D01*
X10183Y16718D01*
X10400Y16769D01*
X10618Y16810D01*
X10838Y16842D01*
X11059Y16865D01*
X11281Y16878D01*
X11504Y16883D01*
X11726Y16878D01*
D02*
G37*
%LPC*%
G36*
X10434Y9802D02*
X10420Y9799D01*
X10407Y9791D01*
X10399Y9778D01*
X10396Y9764D01*
X10399Y9749D01*
X10407Y9737D01*
X10420Y9728D01*
X10434Y9725D01*
X10449Y9728D01*
X10461Y9737D01*
X10470Y9749D01*
X10473Y9764D01*
X10470Y9778D01*
X10461Y9791D01*
X10449Y9799D01*
X10434Y9802D01*
D02*
G37*
G36*
X11062D02*
X11047Y9799D01*
X11035Y9791D01*
X11026Y9778D01*
X11023Y9764D01*
X11026Y9749D01*
X11035Y9737D01*
X11047Y9728D01*
X11062Y9725D01*
X11076Y9728D01*
X11089Y9737D01*
X11097Y9749D01*
X11100Y9764D01*
X11097Y9778D01*
X11089Y9791D01*
X11076Y9799D01*
X11062Y9802D01*
D02*
G37*
G36*
X8433Y9955D02*
X8418Y9952D01*
X8406Y9943D01*
X8397Y9931D01*
X8394Y9916D01*
X8397Y9901D01*
X8406Y9889D01*
X8418Y9881D01*
X8433Y9878D01*
X8448Y9881D01*
X8460Y9889D01*
X8468Y9901D01*
X8471Y9916D01*
X8468Y9931D01*
X8460Y9943D01*
X8448Y9952D01*
X8433Y9955D01*
D02*
G37*
G36*
X7813Y9696D02*
X7798Y9693D01*
X7786Y9684D01*
X7778Y9672D01*
X7775Y9657D01*
X7778Y9642D01*
X7786Y9630D01*
X7798Y9622D01*
X7813Y9619D01*
X7828Y9622D01*
X7840Y9630D01*
X7849Y9642D01*
X7851Y9657D01*
X7849Y9672D01*
X7840Y9684D01*
X7828Y9693D01*
X7813Y9696D01*
D02*
G37*
G36*
X9878Y9688D02*
X9845D01*
Y9655D01*
X9878D01*
Y9688D01*
D02*
G37*
G36*
X9936D02*
X9903D01*
Y9655D01*
X9936D01*
Y9688D01*
D02*
G37*
G36*
X12228Y10204D02*
X12213Y10201D01*
X12200Y10192D01*
X12192Y10180D01*
X12189Y10165D01*
X12192Y10150D01*
X12200Y10138D01*
X12213Y10130D01*
X12228Y10127D01*
X12242Y10130D01*
X12255Y10138D01*
X12263Y10150D01*
X12266Y10165D01*
X12263Y10180D01*
X12255Y10192D01*
X12242Y10201D01*
X12228Y10204D01*
D02*
G37*
G36*
X11458Y10214D02*
X11443Y10211D01*
X11431Y10202D01*
X11422Y10190D01*
X11420Y10175D01*
X11422Y10161D01*
X11431Y10148D01*
X11443Y10140D01*
X11458Y10137D01*
X11473Y10140D01*
X11485Y10148D01*
X11493Y10161D01*
X11496Y10175D01*
X11493Y10190D01*
X11485Y10202D01*
X11473Y10211D01*
X11458Y10214D01*
D02*
G37*
G36*
X11916Y10328D02*
X11901Y10325D01*
X11889Y10317D01*
X11880Y10304D01*
X11877Y10289D01*
X11880Y10275D01*
X11889Y10262D01*
X11901Y10254D01*
X11916Y10251D01*
X11930Y10254D01*
X11943Y10262D01*
X11951Y10275D01*
X11954Y10289D01*
X11951Y10304D01*
X11943Y10317D01*
X11930Y10325D01*
X11916Y10328D01*
D02*
G37*
G36*
X14762Y10325D02*
X14721Y10321D01*
X14681Y10309D01*
X14644Y10289D01*
X14611Y10263D01*
X14585Y10230D01*
X14565Y10194D01*
X14553Y10153D01*
X14549Y10112D01*
X14553Y10070D01*
X14565Y10030D01*
X14585Y9993D01*
X14611Y9961D01*
X14644Y9934D01*
X14681Y9914D01*
X14721Y9902D01*
X14762Y9898D01*
X14804Y9902D01*
X14844Y9914D01*
X14881Y9934D01*
X14914Y9961D01*
X14940Y9993D01*
X14960Y10030D01*
X14972Y10070D01*
X14976Y10112D01*
X14972Y10153D01*
X14960Y10194D01*
X14940Y10230D01*
X14914Y10263D01*
X14881Y10289D01*
X14844Y10309D01*
X14804Y10321D01*
X14762Y10325D01*
D02*
G37*
G36*
X8590Y9988D02*
X8576Y9985D01*
X8563Y9976D01*
X8555Y9964D01*
X8552Y9949D01*
X8555Y9934D01*
X8563Y9922D01*
X8576Y9914D01*
X8590Y9911D01*
X8605Y9914D01*
X8617Y9922D01*
X8626Y9934D01*
X8629Y9949D01*
X8626Y9964D01*
X8617Y9976D01*
X8605Y9985D01*
X8590Y9988D01*
D02*
G37*
G36*
X13495Y10343D02*
X13453Y10339D01*
X13413Y10327D01*
X13376Y10307D01*
X13344Y10281D01*
X13317Y10248D01*
X13298Y10211D01*
X13285Y10171D01*
X13281Y10130D01*
X13285Y10088D01*
X13298Y10048D01*
X13317Y10011D01*
X13344Y9978D01*
X13376Y9952D01*
X13413Y9932D01*
X13453Y9920D01*
X13495Y9916D01*
X13537Y9920D01*
X13577Y9932D01*
X13614Y9952D01*
X13646Y9978D01*
X13673Y10011D01*
X13692Y10048D01*
X13705Y10088D01*
X13709Y10130D01*
X13705Y10171D01*
X13692Y10211D01*
X13673Y10248D01*
X13646Y10281D01*
X13614Y10307D01*
X13577Y10327D01*
X13537Y10339D01*
X13495Y10343D01*
D02*
G37*
G36*
X9936Y9629D02*
X9903D01*
Y9596D01*
X9936D01*
Y9629D01*
D02*
G37*
G36*
X8987Y9363D02*
X8963Y9360D01*
X8942Y9351D01*
X8923Y9337D01*
X8909Y9318D01*
X8900Y9297D01*
X8897Y9274D01*
X8900Y9250D01*
X8909Y9229D01*
X8923Y9210D01*
X8942Y9196D01*
X8963Y9187D01*
X8987Y9184D01*
X9010Y9187D01*
X9031Y9196D01*
X9050Y9210D01*
X9064Y9229D01*
X9073Y9250D01*
X9076Y9274D01*
X9073Y9297D01*
X9064Y9318D01*
X9050Y9337D01*
X9031Y9351D01*
X9010Y9360D01*
X8987Y9363D01*
D02*
G37*
G36*
X9241D02*
X9217Y9360D01*
X9196Y9351D01*
X9177Y9337D01*
X9163Y9318D01*
X9154Y9297D01*
X9151Y9274D01*
X9154Y9250D01*
X9163Y9229D01*
X9177Y9210D01*
X9196Y9196D01*
X9217Y9187D01*
X9241Y9184D01*
X9264Y9187D01*
X9285Y9196D01*
X9304Y9210D01*
X9318Y9229D01*
X9327Y9250D01*
X9330Y9274D01*
X9327Y9297D01*
X9318Y9318D01*
X9304Y9337D01*
X9285Y9351D01*
X9264Y9360D01*
X9241Y9363D01*
D02*
G37*
G36*
X9495D02*
X9471Y9360D01*
X9450Y9351D01*
X9431Y9337D01*
X9417Y9318D01*
X9408Y9297D01*
X9405Y9274D01*
X9408Y9250D01*
X9417Y9229D01*
X9431Y9210D01*
X9450Y9196D01*
X9471Y9187D01*
X9495Y9184D01*
X9518Y9187D01*
X9539Y9196D01*
X9558Y9210D01*
X9572Y9229D01*
X9581Y9250D01*
X9584Y9274D01*
X9581Y9297D01*
X9572Y9318D01*
X9558Y9337D01*
X9539Y9351D01*
X9518Y9360D01*
X9495Y9363D01*
D02*
G37*
G36*
X9058Y9180D02*
X9043Y9177D01*
X9030Y9169D01*
X9022Y9156D01*
X9019Y9141D01*
X9022Y9127D01*
X9030Y9114D01*
X9043Y9106D01*
X9058Y9103D01*
X9072Y9106D01*
X9085Y9114D01*
X9093Y9127D01*
X9096Y9141D01*
X9093Y9156D01*
X9085Y9169D01*
X9072Y9177D01*
X9058Y9180D01*
D02*
G37*
G36*
X9159Y9188D02*
X9145Y9185D01*
X9132Y9176D01*
X9124Y9164D01*
X9121Y9149D01*
X9124Y9134D01*
X9132Y9122D01*
X9145Y9114D01*
X9159Y9111D01*
X9174Y9114D01*
X9186Y9122D01*
X9195Y9134D01*
X9198Y9149D01*
X9195Y9164D01*
X9186Y9176D01*
X9174Y9185D01*
X9159Y9188D01*
D02*
G37*
G36*
X11643Y9218D02*
X11629Y9215D01*
X11616Y9207D01*
X11608Y9194D01*
X11605Y9180D01*
X11608Y9165D01*
X11616Y9152D01*
X11629Y9144D01*
X11643Y9141D01*
X11658Y9144D01*
X11671Y9152D01*
X11679Y9165D01*
X11682Y9180D01*
X11679Y9194D01*
X11671Y9207D01*
X11658Y9215D01*
X11643Y9218D01*
D02*
G37*
G36*
X12450Y9518D02*
X12436Y9515D01*
X12423Y9507D01*
X12415Y9495D01*
X12412Y9480D01*
X12415Y9465D01*
X12423Y9453D01*
X12436Y9444D01*
X12450Y9441D01*
X12465Y9444D01*
X12478Y9453D01*
X12486Y9465D01*
X12489Y9480D01*
X12486Y9495D01*
X12478Y9507D01*
X12465Y9515D01*
X12450Y9518D01*
D02*
G37*
G36*
X8677Y9541D02*
X8662Y9538D01*
X8649Y9529D01*
X8641Y9517D01*
X8638Y9502D01*
X8641Y9487D01*
X8649Y9475D01*
X8662Y9467D01*
X8677Y9464D01*
X8691Y9467D01*
X8704Y9475D01*
X8712Y9487D01*
X8715Y9502D01*
X8712Y9517D01*
X8704Y9529D01*
X8691Y9538D01*
X8677Y9541D01*
D02*
G37*
G36*
X9878Y9629D02*
X9845D01*
Y9596D01*
X9878D01*
Y9629D01*
D02*
G37*
G36*
X12167Y9287D02*
X12152Y9284D01*
X12139Y9275D01*
X12131Y9263D01*
X12128Y9248D01*
X12131Y9233D01*
X12139Y9221D01*
X12152Y9213D01*
X12167Y9210D01*
X12181Y9213D01*
X12194Y9221D01*
X12202Y9233D01*
X12205Y9248D01*
X12202Y9263D01*
X12194Y9275D01*
X12181Y9284D01*
X12167Y9287D01*
D02*
G37*
G36*
X7945Y9348D02*
X7930Y9345D01*
X7918Y9336D01*
X7910Y9324D01*
X7907Y9309D01*
X7910Y9294D01*
X7918Y9282D01*
X7930Y9274D01*
X7945Y9271D01*
X7960Y9274D01*
X7972Y9282D01*
X7981Y9294D01*
X7984Y9309D01*
X7981Y9324D01*
X7972Y9336D01*
X7960Y9345D01*
X7945Y9348D01*
D02*
G37*
G36*
X9365Y9383D02*
X9350Y9380D01*
X9338Y9372D01*
X9329Y9359D01*
X9327Y9345D01*
X9329Y9330D01*
X9338Y9317D01*
X9350Y9309D01*
X9365Y9306D01*
X9380Y9309D01*
X9392Y9317D01*
X9400Y9330D01*
X9403Y9345D01*
X9400Y9359D01*
X9392Y9372D01*
X9380Y9380D01*
X9365Y9383D01*
D02*
G37*
G36*
X7874Y11215D02*
X7830D01*
X7832Y11205D01*
X7844Y11185D01*
X7864Y11172D01*
X7874Y11170D01*
Y11215D01*
D02*
G37*
G36*
X7944D02*
X7899D01*
Y11170D01*
X7909Y11172D01*
X7929Y11185D01*
X7942Y11205D01*
X7944Y11215D01*
D02*
G37*
G36*
X10076D02*
X10032D01*
X10034Y11205D01*
X10047Y11185D01*
X10066Y11172D01*
X10076Y11170D01*
Y11215D01*
D02*
G37*
G36*
X15173Y11215D02*
X15129D01*
Y11170D01*
X15139Y11172D01*
X15158Y11185D01*
X15171Y11205D01*
X15173Y11215D01*
D02*
G37*
G36*
X12901Y11215D02*
X12856D01*
X12858Y11205D01*
X12871Y11185D01*
X12891Y11172D01*
X12901Y11170D01*
Y11215D01*
D02*
G37*
G36*
X12971D02*
X12926D01*
Y11170D01*
X12936Y11172D01*
X12956Y11185D01*
X12969Y11205D01*
X12971Y11215D01*
D02*
G37*
G36*
X12910Y11405D02*
X12826D01*
Y11286D01*
X12874D01*
X12878Y11274D01*
X12871Y11269D01*
X12858Y11250D01*
X12856Y11240D01*
X12971D01*
X12969Y11250D01*
X12956Y11269D01*
X12936Y11282D01*
X12922Y11285D01*
X12913Y11287D01*
X12910Y11299D01*
Y11405D01*
D02*
G37*
G36*
X7883Y11405D02*
X7799D01*
Y11287D01*
X7847D01*
X7851Y11274D01*
X7844Y11269D01*
X7832Y11250D01*
X7830Y11240D01*
X7944D01*
X7942Y11250D01*
X7929Y11269D01*
X7909Y11282D01*
X7895Y11285D01*
X7887Y11287D01*
X7883Y11299D01*
Y11405D01*
D02*
G37*
G36*
X10175D02*
X10091D01*
Y11299D01*
X10089Y11287D01*
X10079Y11285D01*
X10066Y11282D01*
X10047Y11269D01*
X10034Y11250D01*
X10032Y11240D01*
X10146D01*
X10144Y11250D01*
X10131Y11269D01*
X10124Y11274D01*
X10128Y11287D01*
X10175D01*
Y11405D01*
D02*
G37*
G36*
X10146Y11215D02*
X10102D01*
Y11170D01*
X10112Y11172D01*
X10131Y11185D01*
X10144Y11205D01*
X10146Y11215D01*
D02*
G37*
G36*
X12336Y11207D02*
X12321Y11204D01*
X12309Y11196D01*
X12306Y11191D01*
X12291D01*
X12288Y11196D01*
X12275Y11204D01*
X12260Y11207D01*
X12246Y11204D01*
X12233Y11196D01*
X12225Y11183D01*
X12222Y11168D01*
X12225Y11154D01*
X12233Y11141D01*
X12246Y11133D01*
X12260Y11130D01*
X12275Y11133D01*
X12288Y11141D01*
X12291Y11146D01*
X12306D01*
X12309Y11141D01*
X12321Y11133D01*
X12336Y11130D01*
X12351Y11133D01*
X12363Y11141D01*
X12371Y11154D01*
X12374Y11168D01*
X12371Y11183D01*
X12363Y11196D01*
X12351Y11204D01*
X12336Y11207D01*
D02*
G37*
G36*
X15202Y11405D02*
X15118D01*
Y11299D01*
X15116Y11287D01*
X15106Y11285D01*
X15093Y11282D01*
X15074Y11269D01*
X15061Y11250D01*
X15059Y11240D01*
X15173D01*
X15171Y11250D01*
X15158Y11269D01*
X15151Y11274D01*
X15155Y11286D01*
X15202D01*
Y11405D01*
D02*
G37*
G36*
X15103Y11215D02*
X15059D01*
X15061Y11205D01*
X15074Y11185D01*
X15093Y11172D01*
X15103Y11170D01*
Y11215D01*
D02*
G37*
G36*
X11811Y10704D02*
X11796Y10701D01*
X11784Y10693D01*
X11775Y10680D01*
X11773Y10665D01*
X11775Y10651D01*
X11784Y10638D01*
X11796Y10630D01*
X11811Y10627D01*
X11826Y10630D01*
X11838Y10638D01*
X11847Y10651D01*
X11849Y10665D01*
X11847Y10680D01*
X11838Y10693D01*
X11826Y10701D01*
X11811Y10704D01*
D02*
G37*
G36*
X14097Y10706D02*
X14082Y10704D01*
X14070Y10695D01*
X14061Y10683D01*
X14059Y10668D01*
X14061Y10653D01*
X14070Y10641D01*
X14082Y10632D01*
X14097Y10630D01*
X14112Y10632D01*
X14124Y10641D01*
X14133Y10653D01*
X14135Y10668D01*
X14133Y10683D01*
X14124Y10695D01*
X14112Y10704D01*
X14097Y10706D01*
D02*
G37*
G36*
X14242Y11029D02*
X14227Y11026D01*
X14215Y11018D01*
X14206Y11005D01*
X14203Y10991D01*
X14206Y10976D01*
X14215Y10963D01*
X14227Y10955D01*
X14242Y10952D01*
X14243Y10952D01*
X14413Y10783D01*
Y10719D01*
X14412Y10718D01*
X14403Y10706D01*
X14400Y10691D01*
X14403Y10676D01*
X14412Y10664D01*
X14424Y10655D01*
X14439Y10652D01*
X14453Y10655D01*
X14466Y10664D01*
X14474Y10676D01*
X14477Y10691D01*
X14474Y10706D01*
X14466Y10718D01*
X14465Y10719D01*
Y10794D01*
X14463Y10804D01*
X14457Y10812D01*
X14280Y10989D01*
X14280Y10991D01*
X14277Y11005D01*
X14269Y11018D01*
X14256Y11026D01*
X14242Y11029D01*
D02*
G37*
G36*
X11877Y10445D02*
X11862Y10442D01*
X11850Y10434D01*
X11842Y10421D01*
X11839Y10406D01*
X11842Y10392D01*
X11850Y10379D01*
X11862Y10371D01*
X11877Y10368D01*
X11892Y10371D01*
X11904Y10379D01*
X11913Y10392D01*
X11915Y10406D01*
X11913Y10421D01*
X11904Y10434D01*
X11892Y10442D01*
X11877Y10445D01*
D02*
G37*
G36*
X11438Y10663D02*
X11423Y10660D01*
X11410Y10652D01*
X11402Y10640D01*
X11399Y10625D01*
X11402Y10610D01*
X11410Y10598D01*
X11423Y10589D01*
X11438Y10586D01*
X11452Y10589D01*
X11465Y10598D01*
X11473Y10610D01*
X11476Y10625D01*
X11473Y10640D01*
X11465Y10652D01*
X11452Y10660D01*
X11438Y10663D01*
D02*
G37*
G36*
X11547Y10668D02*
X11532Y10665D01*
X11520Y10657D01*
X11511Y10645D01*
X11508Y10630D01*
X11511Y10615D01*
X11520Y10603D01*
X11532Y10594D01*
X11547Y10591D01*
X11562Y10594D01*
X11574Y10603D01*
X11582Y10615D01*
X11585Y10630D01*
X11582Y10645D01*
X11574Y10657D01*
X11562Y10665D01*
X11547Y10668D01*
D02*
G37*
G36*
X10602Y12387D02*
X10588Y12384D01*
X10575Y12376D01*
X10567Y12364D01*
X10564Y12349D01*
X10567Y12334D01*
X10575Y12322D01*
X10580Y12319D01*
Y11277D01*
X10581Y11270D01*
X10585Y11264D01*
X10771Y11078D01*
X10771Y11078D01*
X10777Y11074D01*
X10784Y11073D01*
X10784Y11073D01*
X11795D01*
X11845Y11023D01*
Y10945D01*
X11845Y10945D01*
X11832Y10936D01*
X11824Y10924D01*
X11821Y10909D01*
X11824Y10895D01*
X11832Y10882D01*
X11845Y10874D01*
X11859Y10871D01*
X11864Y10872D01*
X11875Y10861D01*
X11874Y10856D01*
X11877Y10841D01*
X11885Y10829D01*
X11898Y10820D01*
X11913Y10818D01*
X11927Y10820D01*
X11940Y10829D01*
X11948Y10841D01*
X11951Y10856D01*
X11948Y10871D01*
X11940Y10883D01*
X11935Y10886D01*
Y11033D01*
X11935Y11033D01*
X11934Y11041D01*
X11930Y11047D01*
X11833Y11144D01*
X11827Y11148D01*
X11819Y11150D01*
X10808D01*
X10675Y11283D01*
Y12263D01*
X10683Y12268D01*
X10691Y12281D01*
X10694Y12296D01*
X10691Y12310D01*
X10683Y12323D01*
X10670Y12331D01*
X10656Y12334D01*
X10651Y12333D01*
X10640Y12344D01*
X10641Y12349D01*
X10638Y12364D01*
X10630Y12376D01*
X10617Y12384D01*
X10602Y12387D01*
D02*
G37*
G36*
X12708Y11080D02*
X12693Y11077D01*
X12680Y11069D01*
X12672Y11056D01*
X12669Y11041D01*
X12669Y11040D01*
X12163Y10534D01*
X11737D01*
X11727Y10532D01*
X11719Y10526D01*
X11572Y10379D01*
X11529D01*
X11528Y10380D01*
X11516Y10389D01*
X11501Y10391D01*
X11486Y10389D01*
X11474Y10380D01*
X11466Y10368D01*
X11463Y10353D01*
X11466Y10338D01*
X11474Y10326D01*
X11486Y10318D01*
X11501Y10315D01*
X11516Y10318D01*
X11528Y10326D01*
X11529Y10327D01*
X11582D01*
X11592Y10329D01*
X11601Y10335D01*
X11748Y10482D01*
X12174D01*
X12184Y10484D01*
X12193Y10490D01*
X12706Y11003D01*
X12708Y11003D01*
X12722Y11006D01*
X12735Y11014D01*
X12743Y11027D01*
X12746Y11041D01*
X12743Y11056D01*
X12735Y11069D01*
X12722Y11077D01*
X12708Y11080D01*
D02*
G37*
G36*
X13414Y11221D02*
X13363D01*
Y11221D01*
X13013D01*
Y11155D01*
X13013Y11152D01*
Y9074D01*
X13015Y9064D01*
X13020Y9055D01*
X13229Y8846D01*
X13238Y8841D01*
X13247Y8839D01*
X13250Y8826D01*
X13243Y8823D01*
X13221Y8806D01*
X13204Y8784D01*
X13193Y8758D01*
X13189Y8730D01*
X13193Y8702D01*
X13204Y8676D01*
X13221Y8654D01*
X13243Y8637D01*
X13269Y8626D01*
X13297Y8622D01*
X13325Y8626D01*
X13351Y8637D01*
X13373Y8654D01*
X13382Y8666D01*
X13465D01*
X13475Y8654D01*
X13497Y8637D01*
X13523Y8626D01*
X13551Y8622D01*
X13579Y8626D01*
X13605Y8637D01*
X13627Y8654D01*
X13636Y8666D01*
X13918D01*
X13927Y8654D01*
X13949Y8637D01*
X13975Y8626D01*
X14003Y8622D01*
X14031Y8626D01*
X14057Y8637D01*
X14079Y8654D01*
X14088Y8666D01*
X14172D01*
X14181Y8654D01*
X14203Y8637D01*
X14229Y8626D01*
X14257Y8622D01*
X14285Y8626D01*
X14311Y8637D01*
X14333Y8654D01*
X14350Y8676D01*
X14361Y8702D01*
X14365Y8730D01*
X14361Y8758D01*
X14350Y8784D01*
X14333Y8806D01*
X14311Y8823D01*
X14285Y8834D01*
X14257Y8838D01*
X14229Y8834D01*
X14203Y8823D01*
X14181Y8806D01*
X14172Y8794D01*
X14088D01*
X14079Y8806D01*
X14057Y8823D01*
X14050Y8826D01*
X14053Y8839D01*
X14138D01*
X14148Y8841D01*
X14156Y8846D01*
X14202Y8892D01*
X14203Y8891D01*
X14229Y8880D01*
X14257Y8876D01*
X14285Y8880D01*
X14311Y8891D01*
X14333Y8908D01*
X14350Y8930D01*
X14361Y8956D01*
X14365Y8984D01*
X14361Y9012D01*
X14350Y9038D01*
X14333Y9060D01*
X14311Y9077D01*
X14285Y9088D01*
X14257Y9092D01*
X14229Y9088D01*
X14203Y9077D01*
X14181Y9060D01*
X14164Y9038D01*
X14153Y9012D01*
X14149Y8984D01*
X14153Y8956D01*
X14164Y8930D01*
X14165Y8929D01*
X14127Y8890D01*
X14077D01*
X14073Y8903D01*
X14079Y8908D01*
X14096Y8930D01*
X14107Y8956D01*
X14111Y8984D01*
X14107Y9012D01*
X14096Y9038D01*
X14079Y9060D01*
X14057Y9077D01*
X14031Y9088D01*
X14003Y9092D01*
X13975Y9088D01*
X13949Y9077D01*
X13948Y9076D01*
X13214Y9809D01*
Y11084D01*
X13364D01*
Y11084D01*
X13413D01*
Y11084D01*
X15014D01*
Y11221D01*
X13414D01*
Y11221D01*
D02*
G37*
G36*
X12047Y10757D02*
X12033Y10754D01*
X12020Y10746D01*
X12012Y10734D01*
X12009Y10719D01*
X12012Y10704D01*
X12020Y10692D01*
X12033Y10683D01*
X12047Y10680D01*
X12062Y10683D01*
X12074Y10692D01*
X12083Y10704D01*
X12086Y10719D01*
X12083Y10734D01*
X12074Y10746D01*
X12062Y10754D01*
X12047Y10757D01*
D02*
G37*
G36*
X12654Y10788D02*
X12640Y10785D01*
X12627Y10776D01*
X12619Y10764D01*
X12616Y10749D01*
X12616Y10748D01*
X12539Y10671D01*
X12534Y10663D01*
X12532Y10653D01*
Y10620D01*
X12531Y10619D01*
X12522Y10607D01*
X12519Y10592D01*
X12522Y10577D01*
X12531Y10565D01*
X12543Y10556D01*
X12558Y10553D01*
X12572Y10556D01*
X12585Y10565D01*
X12593Y10577D01*
X12596Y10592D01*
X12593Y10607D01*
X12585Y10619D01*
X12584Y10620D01*
Y10642D01*
X12653Y10711D01*
X12654Y10711D01*
X12669Y10714D01*
X12681Y10722D01*
X12690Y10735D01*
X12693Y10749D01*
X12690Y10764D01*
X12681Y10776D01*
X12669Y10785D01*
X12654Y10788D01*
D02*
G37*
G36*
X12543Y10799D02*
X12528Y10796D01*
X12515Y10788D01*
X12507Y10776D01*
X12504Y10761D01*
X12507Y10746D01*
X12515Y10734D01*
X12528Y10725D01*
X12543Y10722D01*
X12557Y10725D01*
X12570Y10734D01*
X12578Y10746D01*
X12581Y10761D01*
X12578Y10776D01*
X12570Y10788D01*
X12557Y10796D01*
X12543Y10799D01*
D02*
G37*
G36*
X11196Y7983D02*
Y7821D01*
X11359D01*
X11356Y7842D01*
X11346Y7875D01*
X11330Y7906D01*
X11308Y7933D01*
X11282Y7955D01*
X11251Y7971D01*
X11218Y7981D01*
X11196Y7983D01*
D02*
G37*
G36*
X14796Y8467D02*
X14755Y8464D01*
X14715Y8455D01*
X14676Y8439D01*
X14641Y8417D01*
X14610Y8390D01*
X14583Y8359D01*
X14561Y8324D01*
X14545Y8285D01*
X14536Y8245D01*
X14533Y8204D01*
X14536Y8163D01*
X14545Y8122D01*
X14561Y8084D01*
X14583Y8049D01*
X14610Y8018D01*
X14641Y7991D01*
X14676Y7969D01*
X14715Y7953D01*
X14755Y7944D01*
X14796Y7940D01*
X14837Y7944D01*
X14877Y7953D01*
X14916Y7969D01*
X14951Y7991D01*
X14982Y8018D01*
X15009Y8049D01*
X15031Y8084D01*
X15047Y8122D01*
X15056Y8163D01*
X15060Y8204D01*
X15056Y8245D01*
X15047Y8285D01*
X15031Y8324D01*
X15009Y8359D01*
X14982Y8390D01*
X14951Y8417D01*
X14916Y8439D01*
X14877Y8455D01*
X14837Y8464D01*
X14796Y8467D01*
D02*
G37*
G36*
X8204Y8467D02*
X8163Y8464D01*
X8123Y8455D01*
X8084Y8439D01*
X8049Y8417D01*
X8018Y8390D01*
X7991Y8359D01*
X7969Y8324D01*
X7953Y8285D01*
X7944Y8245D01*
X7940Y8204D01*
X7944Y8163D01*
X7953Y8123D01*
X7969Y8084D01*
X7991Y8049D01*
X8018Y8018D01*
X8049Y7991D01*
X8084Y7969D01*
X8123Y7953D01*
X8163Y7944D01*
X8204Y7940D01*
X8245Y7944D01*
X8285Y7953D01*
X8324Y7969D01*
X8359Y7991D01*
X8390Y8018D01*
X8417Y8049D01*
X8439Y8084D01*
X8455Y8123D01*
X8464Y8163D01*
X8467Y8204D01*
X8464Y8245D01*
X8455Y8285D01*
X8439Y8324D01*
X8417Y8359D01*
X8390Y8390D01*
X8359Y8417D01*
X8324Y8439D01*
X8285Y8455D01*
X8245Y8464D01*
X8204Y8467D01*
D02*
G37*
G36*
X11359Y7795D02*
X11196D01*
Y7633D01*
X11218Y7635D01*
X11251Y7645D01*
X11282Y7661D01*
X11308Y7683D01*
X11330Y7710D01*
X11346Y7741D01*
X11356Y7774D01*
X11359Y7795D01*
D02*
G37*
G36*
X9477Y7737D02*
X9439D01*
Y7694D01*
X9477D01*
Y7737D01*
D02*
G37*
G36*
X11171Y7983D02*
X11149Y7981D01*
X11116Y7971D01*
X11086Y7955D01*
X11059Y7933D01*
X11037Y7906D01*
X11021Y7875D01*
X11011Y7842D01*
X11009Y7821D01*
X11171D01*
Y7983D01*
D02*
G37*
G36*
X13284Y8463D02*
X13178D01*
X13181Y8445D01*
X13193Y8416D01*
X13212Y8391D01*
X13237Y8372D01*
X13266Y8360D01*
X13284Y8357D01*
Y8463D01*
D02*
G37*
G36*
X13538D02*
X13432D01*
X13435Y8445D01*
X13447Y8416D01*
X13466Y8391D01*
X13491Y8372D01*
X13520Y8360D01*
X13538Y8357D01*
Y8463D01*
D02*
G37*
G36*
X13990D02*
X13884D01*
X13887Y8445D01*
X13899Y8416D01*
X13918Y8391D01*
X13943Y8372D01*
X13972Y8360D01*
X13990Y8357D01*
Y8463D01*
D02*
G37*
G36*
X10829Y8533D02*
X10604D01*
Y8307D01*
X10612D01*
Y7979D01*
X10600Y7974D01*
X10463Y8111D01*
X10442Y8125D01*
X10418Y8130D01*
X9088D01*
X9087Y8137D01*
X9073Y8157D01*
X9049Y8182D01*
X9038Y8204D01*
X9030Y8200D01*
X9017Y8213D01*
Y8217D01*
X9013Y8241D01*
X8999Y8262D01*
X8978Y8276D01*
X8954Y8281D01*
X8929Y8276D01*
X8908Y8262D01*
X8625Y7979D01*
X8621Y7979D01*
X8603Y7971D01*
X8587Y7959D01*
X8575Y7943D01*
X8567Y7924D01*
X8564Y7904D01*
X8567Y7885D01*
X8575Y7866D01*
X8587Y7850D01*
X8603Y7838D01*
X8621Y7830D01*
X8641Y7828D01*
X8661Y7830D01*
X8680Y7838D01*
X8695Y7850D01*
X8708Y7866D01*
X8715Y7885D01*
X8716Y7889D01*
X8789Y7962D01*
X8801Y7960D01*
X8817Y7927D01*
X8904Y7968D01*
X8893Y7990D01*
X8902Y8001D01*
X8906Y8000D01*
X8918Y7974D01*
X8977Y8002D01*
X10391D01*
X10524Y7869D01*
X10515Y7840D01*
X10512Y7808D01*
X10515Y7776D01*
X10525Y7745D01*
X10540Y7717D01*
X10560Y7692D01*
X10585Y7672D01*
X10612Y7658D01*
Y6942D01*
X10585Y6928D01*
X10560Y6908D01*
X10540Y6883D01*
X10525Y6855D01*
X10515Y6824D01*
X10512Y6792D01*
X10515Y6760D01*
X10525Y6729D01*
X10540Y6701D01*
X10560Y6676D01*
X10585Y6656D01*
X10613Y6641D01*
X10644Y6632D01*
X10676Y6628D01*
X10708Y6632D01*
X10738Y6641D01*
X10766Y6656D01*
X10791Y6676D01*
X10812Y6701D01*
X10827Y6729D01*
X10836Y6760D01*
X10839Y6792D01*
X10836Y6824D01*
X10827Y6855D01*
X10812Y6883D01*
X10791Y6908D01*
X10766Y6928D01*
X10740Y6942D01*
Y7658D01*
X10766Y7672D01*
X10791Y7692D01*
X10812Y7717D01*
X10827Y7745D01*
X10836Y7776D01*
X10839Y7808D01*
X10836Y7840D01*
X10827Y7871D01*
X10812Y7899D01*
X10791Y7924D01*
X10766Y7944D01*
X10740Y7958D01*
Y8307D01*
X10829D01*
Y8533D01*
D02*
G37*
G36*
X11750Y8407D02*
X11638D01*
X11640Y8387D01*
X11653Y8357D01*
X11673Y8331D01*
X11699Y8311D01*
X11730Y8298D01*
X11750Y8295D01*
Y8407D01*
D02*
G37*
G36*
X11887D02*
X11775D01*
Y8295D01*
X11795Y8298D01*
X11826Y8311D01*
X11852Y8331D01*
X11872Y8357D01*
X11885Y8387D01*
X11887Y8407D01*
D02*
G37*
G36*
X11171Y7795D02*
X11009D01*
X11011Y7774D01*
X11021Y7741D01*
X11037Y7710D01*
X11059Y7683D01*
X11086Y7661D01*
X11116Y7645D01*
X11149Y7635D01*
X11171Y7633D01*
Y7795D01*
D02*
G37*
G36*
Y6967D02*
X11149Y6965D01*
X11116Y6955D01*
X11086Y6939D01*
X11059Y6917D01*
X11037Y6890D01*
X11021Y6859D01*
X11011Y6826D01*
X11009Y6805D01*
X11171D01*
Y6967D01*
D02*
G37*
G36*
X11196D02*
Y6805D01*
X11359D01*
X11356Y6826D01*
X11346Y6859D01*
X11330Y6890D01*
X11308Y6917D01*
X11282Y6939D01*
X11251Y6955D01*
X11218Y6965D01*
X11196Y6967D01*
D02*
G37*
G36*
X14011Y7592D02*
X13969Y7588D01*
X13929Y7576D01*
X13892Y7556D01*
X13860Y7530D01*
X13833Y7497D01*
X13813Y7460D01*
X13801Y7420D01*
X13797Y7379D01*
X13801Y7337D01*
X13813Y7297D01*
X13833Y7260D01*
X13860Y7228D01*
X13892Y7201D01*
X13929Y7181D01*
X13969Y7169D01*
X14011Y7165D01*
X14052Y7169D01*
X14092Y7181D01*
X14129Y7201D01*
X14162Y7228D01*
X14188Y7260D01*
X14208Y7297D01*
X14220Y7337D01*
X14224Y7379D01*
X14220Y7420D01*
X14208Y7460D01*
X14188Y7497D01*
X14162Y7530D01*
X14129Y7556D01*
X14092Y7576D01*
X14052Y7588D01*
X14011Y7592D01*
D02*
G37*
G36*
X10023Y6998D02*
X9981Y6994D01*
X9941Y6982D01*
X9904Y6962D01*
X9872Y6935D01*
X9845Y6903D01*
X9825Y6866D01*
X9813Y6826D01*
X9809Y6784D01*
X9813Y6743D01*
X9825Y6703D01*
X9845Y6666D01*
X9872Y6633D01*
X9904Y6607D01*
X9941Y6587D01*
X9981Y6575D01*
X10023Y6571D01*
X10065Y6575D01*
X10105Y6587D01*
X10142Y6607D01*
X10174Y6633D01*
X10201Y6666D01*
X10220Y6703D01*
X10232Y6743D01*
X10237Y6784D01*
X10232Y6826D01*
X10220Y6866D01*
X10201Y6903D01*
X10174Y6935D01*
X10142Y6962D01*
X10105Y6982D01*
X10065Y6994D01*
X10023Y6998D01*
D02*
G37*
G36*
X11171Y6779D02*
X11009D01*
X11011Y6758D01*
X11021Y6725D01*
X11037Y6694D01*
X11059Y6667D01*
X11086Y6645D01*
X11116Y6629D01*
X11149Y6619D01*
X11171Y6617D01*
Y6779D01*
D02*
G37*
G36*
X11359D02*
X11196D01*
Y6617D01*
X11218Y6619D01*
X11251Y6629D01*
X11282Y6645D01*
X11308Y6667D01*
X11330Y6694D01*
X11346Y6725D01*
X11356Y6758D01*
X11359Y6779D01*
D02*
G37*
G36*
X9617Y7614D02*
X9579D01*
Y7584D01*
X9617D01*
Y7614D01*
D02*
G37*
G36*
X9164Y7934D02*
X9077Y7894D01*
X9143Y7751D01*
X9145Y7752D01*
X9156Y7745D01*
Y7599D01*
X9152Y7596D01*
X9144Y7593D01*
X9111Y7626D01*
Y7736D01*
X9131Y7745D01*
X9064Y7888D01*
X8977Y7847D01*
X9043Y7704D01*
X9049Y7707D01*
X9060Y7700D01*
Y7615D01*
X9061Y7611D01*
X9049Y7604D01*
X9012Y7641D01*
Y7690D01*
X9030Y7698D01*
X8963Y7841D01*
X8876Y7800D01*
X8942Y7657D01*
X8950Y7661D01*
X8961Y7654D01*
Y7630D01*
X8963Y7620D01*
X8968Y7612D01*
X9178Y7402D01*
X9187Y7396D01*
X9197Y7394D01*
X9251D01*
Y7341D01*
X9251D01*
X9255Y7328D01*
X9243Y7316D01*
X9238Y7308D01*
X9236Y7302D01*
X9230Y7298D01*
X9225Y7290D01*
X9223Y7280D01*
Y7244D01*
X9225Y7234D01*
X9230Y7226D01*
X9239Y7220D01*
X9249Y7218D01*
X9274D01*
X9284Y7220D01*
X9301Y7217D01*
X9301Y7217D01*
X9314Y7208D01*
X9329Y7205D01*
D01*
Y7262D01*
Y7318D01*
X9326Y7318D01*
X9321Y7321D01*
X9315Y7328D01*
X9316Y7341D01*
X9327D01*
Y7344D01*
X9528D01*
Y7341D01*
X9604D01*
Y7350D01*
X9646D01*
X9649Y7350D01*
X9660Y7348D01*
X9673Y7351D01*
X9685Y7358D01*
X9688Y7363D01*
X9713D01*
X9721Y7365D01*
X9728Y7369D01*
X9771Y7412D01*
X9775Y7419D01*
X9777Y7427D01*
Y7625D01*
X9775Y7633D01*
X9771Y7640D01*
X9764Y7644D01*
X9756Y7646D01*
X9736D01*
Y7663D01*
X9649D01*
Y7587D01*
X9736D01*
Y7562D01*
X9649D01*
Y7553D01*
X9617D01*
Y7559D01*
X9566D01*
X9515D01*
Y7530D01*
X9528D01*
Y7396D01*
X9327D01*
Y7492D01*
Y7601D01*
X9315D01*
Y7627D01*
X9326Y7638D01*
X9362D01*
X9363Y7638D01*
X9375Y7636D01*
Y7625D01*
X9413D01*
Y7681D01*
Y7737D01*
X9375D01*
Y7726D01*
X9363Y7724D01*
X9362Y7724D01*
X9287D01*
Y7679D01*
X9270Y7663D01*
X9265Y7655D01*
X9263Y7645D01*
Y7601D01*
X9251D01*
Y7582D01*
X9239Y7577D01*
X9208Y7608D01*
Y7781D01*
X9231Y7792D01*
X9164Y7934D01*
D02*
G37*
G36*
X9477Y7668D02*
X9439D01*
Y7625D01*
X9477D01*
Y7668D01*
D02*
G37*
G36*
X9393Y7249D02*
X9354D01*
Y7205D01*
X9369Y7208D01*
X9382Y7217D01*
X9390Y7229D01*
X9393Y7244D01*
Y7249D01*
D02*
G37*
G36*
X9354Y7318D02*
D01*
Y7275D01*
X9393D01*
Y7280D01*
X9390Y7295D01*
X9382Y7307D01*
X9369Y7316D01*
X9354Y7318D01*
D02*
G37*
G36*
X9553Y7614D02*
X9515D01*
Y7584D01*
X9553D01*
Y7614D01*
D02*
G37*
G36*
X12553Y9017D02*
X12538Y9014D01*
X12525Y9006D01*
X12517Y8994D01*
X12514Y8979D01*
X12517Y8964D01*
X12525Y8952D01*
X12538Y8943D01*
X12553Y8940D01*
X12558Y8941D01*
X12569Y8931D01*
X12568Y8926D01*
X12570Y8911D01*
X12579Y8898D01*
X12591Y8890D01*
X12606Y8887D01*
X12621Y8890D01*
X12633Y8898D01*
X12642Y8911D01*
X12644Y8926D01*
X12642Y8940D01*
X12633Y8953D01*
X12621Y8961D01*
X12606Y8964D01*
X12601Y8963D01*
X12590Y8974D01*
X12591Y8979D01*
X12588Y8994D01*
X12580Y9006D01*
X12567Y9014D01*
X12553Y9017D01*
D02*
G37*
G36*
X9595Y9007D02*
X9507D01*
Y8919D01*
X9521Y8921D01*
X9546Y8931D01*
X9567Y8947D01*
X9583Y8968D01*
X9594Y8993D01*
X9595Y9007D01*
D02*
G37*
G36*
X9482D02*
X9394D01*
X9396Y8993D01*
X9406Y8968D01*
X9422Y8947D01*
X9443Y8931D01*
X9468Y8921D01*
X9482Y8919D01*
Y9007D01*
D02*
G37*
G36*
X14016Y8595D02*
Y8489D01*
X14122D01*
X14119Y8507D01*
X14107Y8536D01*
X14088Y8561D01*
X14063Y8580D01*
X14034Y8592D01*
X14016Y8595D01*
D02*
G37*
G36*
X13310D02*
Y8489D01*
X13416D01*
X13413Y8507D01*
X13401Y8536D01*
X13382Y8561D01*
X13357Y8580D01*
X13328Y8592D01*
X13310Y8595D01*
D02*
G37*
G36*
X8819Y8669D02*
X8804Y8666D01*
X8792Y8658D01*
X8783Y8646D01*
X8780Y8631D01*
X8783Y8616D01*
X8792Y8604D01*
X8804Y8595D01*
X8819Y8592D01*
X8834Y8595D01*
X8846Y8604D01*
X8854Y8616D01*
X8857Y8631D01*
X8854Y8646D01*
X8846Y8658D01*
X8834Y8666D01*
X8819Y8669D01*
D02*
G37*
G36*
X9507Y9120D02*
Y9032D01*
X9595D01*
X9594Y9046D01*
X9583Y9071D01*
X9567Y9092D01*
X9546Y9108D01*
X9521Y9119D01*
X9507Y9120D01*
D02*
G37*
G36*
X8682Y9121D02*
X8667Y9119D01*
X8655Y9110D01*
X8646Y9098D01*
X8643Y9083D01*
X8646Y9068D01*
X8655Y9056D01*
X8667Y9048D01*
X8682Y9045D01*
X8696Y9048D01*
X8709Y9056D01*
X8717Y9068D01*
X8720Y9083D01*
X8717Y9098D01*
X8709Y9110D01*
X8696Y9119D01*
X8682Y9121D01*
D02*
G37*
G36*
X8328Y9158D02*
X8313Y9156D01*
X8300Y9147D01*
X8292Y9135D01*
X8289Y9120D01*
X8292Y9105D01*
X8300Y9093D01*
X8313Y9085D01*
X8328Y9082D01*
X8342Y9085D01*
X8355Y9093D01*
X8363Y9105D01*
X8366Y9120D01*
X8363Y9135D01*
X8355Y9147D01*
X8342Y9156D01*
X8328Y9158D01*
D02*
G37*
G36*
X8987Y9109D02*
X8963Y9106D01*
X8942Y9097D01*
X8923Y9083D01*
X8909Y9064D01*
X8900Y9043D01*
X8897Y9020D01*
X8900Y8996D01*
X8909Y8975D01*
X8923Y8956D01*
X8942Y8942D01*
X8963Y8933D01*
X8987Y8930D01*
X9010Y8933D01*
X9031Y8942D01*
X9050Y8956D01*
X9064Y8975D01*
X9073Y8996D01*
X9076Y9020D01*
X9073Y9043D01*
X9064Y9064D01*
X9050Y9083D01*
X9031Y9097D01*
X9010Y9106D01*
X8987Y9109D01*
D02*
G37*
G36*
X9241Y9109D02*
X9217Y9106D01*
X9196Y9097D01*
X9177Y9083D01*
X9163Y9064D01*
X9154Y9043D01*
X9151Y9020D01*
X9154Y8996D01*
X9163Y8975D01*
X9177Y8956D01*
X9196Y8942D01*
X9217Y8933D01*
X9241Y8930D01*
X9264Y8933D01*
X9285Y8942D01*
X9304Y8956D01*
X9318Y8975D01*
X9327Y8996D01*
X9330Y9020D01*
X9327Y9043D01*
X9318Y9064D01*
X9304Y9083D01*
X9285Y9097D01*
X9264Y9106D01*
X9241Y9109D01*
D02*
G37*
G36*
X9482Y9120D02*
X9468Y9119D01*
X9443Y9108D01*
X9422Y9092D01*
X9406Y9071D01*
X9396Y9046D01*
X9394Y9032D01*
X9482D01*
Y9120D01*
D02*
G37*
G36*
X13564Y8595D02*
Y8489D01*
X13670D01*
X13667Y8507D01*
X13655Y8536D01*
X13636Y8561D01*
X13611Y8580D01*
X13582Y8592D01*
X13564Y8595D01*
D02*
G37*
G36*
X14122Y8463D02*
X14016D01*
Y8357D01*
X14034Y8360D01*
X14063Y8372D01*
X14088Y8391D01*
X14107Y8416D01*
X14119Y8445D01*
X14122Y8463D01*
D02*
G37*
G36*
X14376D02*
X14270D01*
Y8357D01*
X14288Y8360D01*
X14317Y8372D01*
X14342Y8391D01*
X14361Y8416D01*
X14373Y8445D01*
X14376Y8463D01*
D02*
G37*
G36*
X11750Y8545D02*
X11730Y8542D01*
X11699Y8530D01*
X11673Y8510D01*
X11653Y8483D01*
X11640Y8453D01*
X11638Y8433D01*
X11750D01*
Y8545D01*
D02*
G37*
G36*
X14244Y8463D02*
X14138D01*
X14141Y8445D01*
X14153Y8416D01*
X14172Y8391D01*
X14197Y8372D01*
X14226Y8360D01*
X14244Y8357D01*
Y8463D01*
D02*
G37*
G36*
X13416D02*
X13310D01*
Y8357D01*
X13328Y8360D01*
X13357Y8372D01*
X13382Y8391D01*
X13401Y8416D01*
X13413Y8445D01*
X13416Y8463D01*
D02*
G37*
G36*
X13670D02*
X13564D01*
Y8357D01*
X13582Y8360D01*
X13611Y8372D01*
X13636Y8391D01*
X13655Y8416D01*
X13667Y8445D01*
X13670Y8463D01*
D02*
G37*
G36*
X13284Y8595D02*
X13266Y8592D01*
X13237Y8580D01*
X13212Y8561D01*
X13193Y8536D01*
X13181Y8507D01*
X13178Y8489D01*
X13284D01*
Y8595D01*
D02*
G37*
G36*
X13990D02*
X13972Y8592D01*
X13943Y8580D01*
X13918Y8561D01*
X13899Y8536D01*
X13887Y8507D01*
X13884Y8489D01*
X13990D01*
Y8595D01*
D02*
G37*
G36*
X14270D02*
Y8489D01*
X14376D01*
X14373Y8507D01*
X14361Y8536D01*
X14342Y8561D01*
X14317Y8580D01*
X14288Y8592D01*
X14270Y8595D01*
D02*
G37*
G36*
X11775Y8545D02*
Y8433D01*
X11887D01*
X11885Y8453D01*
X11872Y8483D01*
X11852Y8510D01*
X11826Y8530D01*
X11795Y8542D01*
X11775Y8545D01*
D02*
G37*
G36*
X13538Y8595D02*
X13520Y8592D01*
X13491Y8580D01*
X13466Y8561D01*
X13447Y8536D01*
X13435Y8507D01*
X13432Y8489D01*
X13538D01*
Y8595D01*
D02*
G37*
G36*
X14244D02*
X14226Y8592D01*
X14197Y8580D01*
X14172Y8561D01*
X14153Y8536D01*
X14141Y8507D01*
X14138Y8489D01*
X14244D01*
Y8595D01*
D02*
G37*
G36*
X12342Y15068D02*
X12327Y15065D01*
X12315Y15056D01*
X12306Y15044D01*
X12303Y15029D01*
X12306Y15014D01*
X12315Y15002D01*
X12327Y14994D01*
X12342Y14991D01*
X12357Y14994D01*
X12369Y15002D01*
X12377Y15014D01*
X12380Y15029D01*
X12377Y15044D01*
X12369Y15056D01*
X12357Y15065D01*
X12342Y15068D01*
D02*
G37*
G36*
X10856Y15159D02*
X10841Y15156D01*
X10829Y15148D01*
X10820Y15135D01*
X10818Y15121D01*
X10820Y15106D01*
X10829Y15093D01*
X10841Y15085D01*
X10856Y15082D01*
X10871Y15085D01*
X10883Y15093D01*
X10891Y15106D01*
X10894Y15121D01*
X10891Y15135D01*
X10883Y15148D01*
X10871Y15156D01*
X10856Y15159D01*
D02*
G37*
G36*
X13600Y15538D02*
X13344D01*
Y15354D01*
X13182Y15192D01*
X12952D01*
X12951Y15194D01*
X12938Y15202D01*
X12924Y15205D01*
X12909Y15202D01*
X12896Y15194D01*
X12888Y15181D01*
X12885Y15166D01*
X12888Y15152D01*
X12896Y15139D01*
X12909Y15131D01*
X12924Y15128D01*
X12938Y15131D01*
X12951Y15139D01*
X12952Y15140D01*
X13193D01*
X13203Y15142D01*
X13211Y15148D01*
X13416Y15353D01*
X13600D01*
Y15538D01*
D02*
G37*
G36*
X11659Y14908D02*
X11644Y14905D01*
X11631Y14896D01*
X11623Y14884D01*
X11620Y14869D01*
X11623Y14854D01*
X11631Y14842D01*
X11644Y14834D01*
X11659Y14831D01*
X11667Y14832D01*
X11674Y14821D01*
X11674Y14820D01*
X11671Y14806D01*
X11674Y14791D01*
X11682Y14778D01*
X11695Y14770D01*
X11709Y14767D01*
X11724Y14770D01*
X11737Y14778D01*
X11745Y14791D01*
X11748Y14806D01*
X11745Y14820D01*
X11737Y14833D01*
X11724Y14841D01*
X11709Y14844D01*
X11701Y14843D01*
X11694Y14854D01*
X11694Y14854D01*
X11697Y14869D01*
X11694Y14884D01*
X11686Y14896D01*
X11673Y14905D01*
X11659Y14908D01*
D02*
G37*
G36*
X12327Y14943D02*
X12312Y14940D01*
X12299Y14932D01*
X12291Y14919D01*
X12288Y14905D01*
X12291Y14890D01*
X12299Y14878D01*
X12312Y14869D01*
X12327Y14866D01*
X12341Y14869D01*
X12354Y14878D01*
X12362Y14890D01*
X12365Y14905D01*
X12362Y14919D01*
X12354Y14932D01*
X12341Y14940D01*
X12327Y14943D01*
D02*
G37*
G36*
X10925Y14982D02*
X10910Y14979D01*
X10898Y14971D01*
X10890Y14958D01*
X10887Y14943D01*
X10890Y14929D01*
X10898Y14916D01*
X10910Y14908D01*
X10925Y14905D01*
X10940Y14908D01*
X10952Y14916D01*
X10961Y14929D01*
X10964Y14943D01*
X10961Y14958D01*
X10952Y14971D01*
X10940Y14979D01*
X10925Y14982D01*
D02*
G37*
G36*
X12242Y15328D02*
X12227Y15326D01*
X12215Y15317D01*
X12206Y15305D01*
X12204Y15290D01*
X12206Y15275D01*
X12215Y15263D01*
X12227Y15254D01*
X12242Y15252D01*
X12257Y15254D01*
X12269Y15263D01*
X12278Y15275D01*
X12280Y15290D01*
X12278Y15305D01*
X12269Y15317D01*
X12257Y15326D01*
X12242Y15328D01*
D02*
G37*
G36*
X12827Y15433D02*
X12699D01*
Y15340D01*
X12827D01*
Y15433D01*
D02*
G37*
G36*
X12981D02*
X12852D01*
Y15340D01*
X12981D01*
Y15433D01*
D02*
G37*
G36*
X14530Y15546D02*
X14274D01*
Y15361D01*
X14343D01*
Y15263D01*
X14342Y15262D01*
X14333Y15250D01*
X14330Y15235D01*
X14333Y15220D01*
X14342Y15208D01*
X14354Y15199D01*
X14369Y15196D01*
X14383Y15199D01*
X14396Y15208D01*
X14404Y15220D01*
X14407Y15235D01*
X14404Y15250D01*
X14396Y15262D01*
X14395Y15263D01*
Y15361D01*
X14530D01*
Y15546D01*
D02*
G37*
G36*
X12352Y15314D02*
X12337Y15311D01*
X12325Y15303D01*
X12317Y15290D01*
X12314Y15276D01*
X12317Y15261D01*
X12325Y15248D01*
X12337Y15240D01*
X12352Y15237D01*
X12367Y15240D01*
X12379Y15248D01*
X12388Y15261D01*
X12390Y15276D01*
X12388Y15290D01*
X12379Y15303D01*
X12367Y15311D01*
X12352Y15314D01*
D02*
G37*
G36*
X11942Y15327D02*
X11928Y15324D01*
X11915Y15316D01*
X11907Y15304D01*
X11904Y15289D01*
X11907Y15274D01*
X11915Y15262D01*
X11928Y15253D01*
X11942Y15250D01*
X11957Y15253D01*
X11970Y15262D01*
X11978Y15274D01*
X11981Y15289D01*
X11978Y15304D01*
X11970Y15316D01*
X11957Y15324D01*
X11942Y15327D01*
D02*
G37*
G36*
X12220Y14760D02*
X12205Y14757D01*
X12193Y14749D01*
X12184Y14737D01*
X12182Y14722D01*
X12184Y14707D01*
X12193Y14695D01*
X12205Y14686D01*
X12220Y14683D01*
X12235Y14686D01*
X12247Y14695D01*
X12255Y14707D01*
X12258Y14722D01*
X12255Y14737D01*
X12247Y14749D01*
X12235Y14757D01*
X12220Y14760D01*
D02*
G37*
G36*
X8689Y14379D02*
X8651Y14313D01*
X8651D01*
X8642Y14306D01*
X8637Y14305D01*
X8625Y14297D01*
X8617Y14284D01*
X8614Y14270D01*
X8617Y14255D01*
X8625Y14243D01*
X8637Y14234D01*
X8652Y14231D01*
X8667Y14234D01*
X8679Y14243D01*
X8688Y14255D01*
X8690Y14270D01*
X8690Y14271D01*
X8702Y14283D01*
X8725Y14270D01*
X8764Y14336D01*
X8689Y14379D01*
D02*
G37*
G36*
X8741Y15218D02*
X8709Y15214D01*
X8679Y15201D01*
X8654Y15182D01*
X8634Y15156D01*
X8622Y15126D01*
X8617Y15094D01*
X8622Y15062D01*
X8634Y15032D01*
X8654Y15007D01*
X8679Y14987D01*
X8709Y14975D01*
X8732Y14972D01*
Y14454D01*
X8701Y14401D01*
X8776Y14357D01*
X8814Y14423D01*
X8783Y14441D01*
Y14979D01*
X8803Y14987D01*
X8829Y15007D01*
X8848Y15032D01*
X8861Y15062D01*
X8865Y15094D01*
X8861Y15126D01*
X8848Y15156D01*
X8829Y15182D01*
X8803Y15201D01*
X8773Y15214D01*
X8741Y15218D01*
D02*
G37*
G36*
X12268Y14435D02*
X12253Y14432D01*
X12241Y14424D01*
X12233Y14411D01*
X12230Y14397D01*
X12233Y14382D01*
X12241Y14370D01*
X12253Y14361D01*
X12268Y14358D01*
X12283Y14361D01*
X12295Y14370D01*
X12304Y14382D01*
X12307Y14397D01*
X12304Y14411D01*
X12295Y14424D01*
X12283Y14432D01*
X12268Y14435D01*
D02*
G37*
G36*
X11527Y13983D02*
X11512Y13980D01*
X11499Y13972D01*
X11491Y13959D01*
X11488Y13945D01*
X11491Y13930D01*
X11499Y13917D01*
X11512Y13909D01*
X11527Y13906D01*
X11541Y13909D01*
X11554Y13917D01*
X11562Y13930D01*
X11565Y13945D01*
X11562Y13959D01*
X11554Y13972D01*
X11541Y13980D01*
X11527Y13983D01*
D02*
G37*
G36*
X10018Y14166D02*
X10003Y14163D01*
X9991Y14155D01*
X9982Y14142D01*
X9979Y14127D01*
X9980Y14126D01*
X9750Y13896D01*
X8849D01*
X8839Y13894D01*
X8830Y13888D01*
X8718Y13776D01*
X8716Y13776D01*
X8701Y13773D01*
X8689Y13765D01*
X8681Y13752D01*
X8678Y13737D01*
X8681Y13723D01*
X8689Y13710D01*
X8701Y13702D01*
X8716Y13699D01*
X8722Y13693D01*
X8725Y13678D01*
X8733Y13666D01*
X8746Y13658D01*
X8760Y13655D01*
X8775Y13658D01*
X8788Y13666D01*
X8796Y13678D01*
X8799Y13693D01*
X8799Y13695D01*
X8898Y13794D01*
X9799D01*
X9809Y13796D01*
X9817Y13802D01*
X10061Y14045D01*
X10062Y14045D01*
X10077Y14048D01*
X10089Y14056D01*
X10098Y14068D01*
X10101Y14083D01*
X10098Y14098D01*
X10089Y14110D01*
X10077Y14119D01*
X10062Y14122D01*
X10056Y14127D01*
X10053Y14142D01*
X10045Y14155D01*
X10032Y14163D01*
X10018Y14166D01*
D02*
G37*
G36*
X11177Y14140D02*
X11162Y14137D01*
X11149Y14129D01*
X11141Y14116D01*
X11138Y14101D01*
X11141Y14087D01*
X11149Y14074D01*
X11162Y14066D01*
X11177Y14063D01*
X11191Y14066D01*
X11204Y14074D01*
X11212Y14087D01*
X11215Y14101D01*
X11212Y14116D01*
X11204Y14129D01*
X11191Y14137D01*
X11177Y14140D01*
D02*
G37*
G36*
X8204Y15060D02*
X8163Y15056D01*
X8122Y15047D01*
X8084Y15031D01*
X8049Y15009D01*
X8018Y14982D01*
X7991Y14951D01*
X7969Y14916D01*
X7953Y14878D01*
X7944Y14837D01*
X7940Y14796D01*
X7944Y14755D01*
X7953Y14715D01*
X7969Y14676D01*
X7991Y14641D01*
X8018Y14610D01*
X8049Y14583D01*
X8084Y14561D01*
X8122Y14545D01*
X8163Y14536D01*
X8204Y14533D01*
X8245Y14536D01*
X8285Y14545D01*
X8324Y14561D01*
X8359Y14583D01*
X8390Y14610D01*
X8417Y14641D01*
X8439Y14676D01*
X8455Y14715D01*
X8464Y14755D01*
X8467Y14796D01*
X8464Y14837D01*
X8455Y14878D01*
X8439Y14916D01*
X8417Y14951D01*
X8390Y14982D01*
X8359Y15009D01*
X8324Y15031D01*
X8285Y15047D01*
X8245Y15056D01*
X8204Y15060D01*
D02*
G37*
G36*
X14796D02*
X14755Y15056D01*
X14715Y15047D01*
X14676Y15031D01*
X14641Y15009D01*
X14610Y14982D01*
X14583Y14951D01*
X14561Y14916D01*
X14545Y14878D01*
X14536Y14837D01*
X14533Y14796D01*
X14536Y14755D01*
X14545Y14715D01*
X14561Y14676D01*
X14583Y14641D01*
X14610Y14610D01*
X14641Y14583D01*
X14676Y14561D01*
X14715Y14545D01*
X14755Y14536D01*
X14796Y14533D01*
X14837Y14536D01*
X14878Y14545D01*
X14916Y14561D01*
X14951Y14583D01*
X14982Y14610D01*
X15009Y14641D01*
X15031Y14676D01*
X15047Y14715D01*
X15056Y14755D01*
X15060Y14796D01*
X15056Y14837D01*
X15047Y14878D01*
X15031Y14916D01*
X15009Y14951D01*
X14982Y14982D01*
X14951Y15009D01*
X14916Y15031D01*
X14878Y15047D01*
X14837Y15056D01*
X14796Y15060D01*
D02*
G37*
G36*
X12327Y14709D02*
X12312Y14707D01*
X12299Y14698D01*
X12291Y14686D01*
X12288Y14671D01*
X12291Y14656D01*
X12299Y14644D01*
X12312Y14636D01*
X12327Y14633D01*
X12341Y14636D01*
X12354Y14644D01*
X12362Y14656D01*
X12365Y14671D01*
X12362Y14686D01*
X12354Y14698D01*
X12341Y14707D01*
X12327Y14709D01*
D02*
G37*
G36*
X11149Y14452D02*
X11135Y14449D01*
X11122Y14441D01*
X11114Y14428D01*
X11111Y14413D01*
X11114Y14399D01*
X11122Y14386D01*
X11135Y14378D01*
X11149Y14375D01*
X11164Y14378D01*
X11177Y14386D01*
X11185Y14399D01*
X11188Y14413D01*
X11185Y14428D01*
X11177Y14441D01*
X11164Y14449D01*
X11149Y14452D01*
D02*
G37*
G36*
X11881Y14520D02*
X11866Y14517D01*
X11854Y14509D01*
X11845Y14496D01*
X11842Y14482D01*
X11845Y14467D01*
X11854Y14454D01*
X11866Y14446D01*
X11881Y14443D01*
X11895Y14446D01*
X11908Y14454D01*
X11916Y14467D01*
X11919Y14482D01*
X11916Y14496D01*
X11908Y14509D01*
X11895Y14517D01*
X11881Y14520D01*
D02*
G37*
G36*
X11023Y14534D02*
X11008Y14531D01*
X10996Y14523D01*
X10988Y14510D01*
X10985Y14496D01*
X10988Y14481D01*
X10996Y14469D01*
X11008Y14460D01*
X11023Y14457D01*
X11038Y14460D01*
X11050Y14469D01*
X11059Y14481D01*
X11062Y14496D01*
X11059Y14510D01*
X11050Y14523D01*
X11038Y14531D01*
X11023Y14534D01*
D02*
G37*
G36*
X12809Y16036D02*
X12737D01*
Y15939D01*
X12809D01*
Y16036D01*
D02*
G37*
G36*
X14242D02*
X14169D01*
Y15939D01*
X14242D01*
Y16036D01*
D02*
G37*
G36*
X12908D02*
X12835D01*
Y15939D01*
X12908D01*
Y16036D01*
D02*
G37*
G36*
X14124Y15923D02*
X14110Y15920D01*
X14097Y15912D01*
X14089Y15899D01*
X14086Y15885D01*
X14089Y15870D01*
X14097Y15857D01*
X14098Y15856D01*
Y15794D01*
X14087D01*
Y15783D01*
X14074Y15779D01*
X14071Y15783D01*
X14059Y15791D01*
X14044Y15794D01*
X14030Y15791D01*
X14017Y15783D01*
X14011Y15774D01*
X14010Y15774D01*
X13998Y15774D01*
X13997Y15774D01*
X13991Y15783D01*
X13979Y15791D01*
X13964Y15794D01*
X13950Y15791D01*
X13937Y15783D01*
X13931Y15774D01*
X13930Y15774D01*
X13918D01*
X13917Y15774D01*
X13911Y15783D01*
X13899Y15791D01*
X13884Y15794D01*
X13870Y15791D01*
X13857Y15783D01*
X13851Y15774D01*
X13850Y15774D01*
X13838D01*
X13837Y15774D01*
X13831Y15783D01*
X13819Y15791D01*
X13804Y15794D01*
X13790Y15791D01*
X13780Y15785D01*
X13777Y15783D01*
X13764Y15787D01*
X13761Y15792D01*
X13744Y15803D01*
X13737Y15805D01*
Y15731D01*
Y15657D01*
X13744Y15658D01*
X13761Y15670D01*
X13764Y15675D01*
X13767Y15676D01*
X13778Y15669D01*
Y15668D01*
X13780Y15658D01*
X13786Y15650D01*
X13788Y15648D01*
Y15624D01*
X13790Y15614D01*
X13795Y15605D01*
X13804Y15600D01*
X13814Y15598D01*
X13820D01*
X13847Y15571D01*
X13842Y15559D01*
X13782D01*
Y15466D01*
X13910D01*
Y15482D01*
X13923Y15488D01*
X13928Y15484D01*
Y13565D01*
X13226Y12864D01*
X13225Y12864D01*
X13210Y12861D01*
X13197Y12853D01*
X13189Y12840D01*
X13186Y12826D01*
X13189Y12811D01*
X13197Y12799D01*
X13210Y12790D01*
X13225Y12787D01*
X13235Y12789D01*
X13236Y12789D01*
X13244Y12780D01*
X13245Y12779D01*
X13243Y12769D01*
X13246Y12754D01*
X13254Y12742D01*
X13266Y12734D01*
X13281Y12731D01*
X13296Y12734D01*
X13308Y12742D01*
X13317Y12754D01*
X13320Y12769D01*
X13319Y12771D01*
X14052Y13503D01*
X14057Y13512D01*
X14059Y13522D01*
Y15484D01*
X14057Y15494D01*
X14052Y15502D01*
X13920Y15634D01*
Y15659D01*
X13918Y15669D01*
X13913Y15676D01*
X13917Y15685D01*
X13919Y15688D01*
X13930D01*
X13931Y15687D01*
X13937Y15679D01*
X13950Y15670D01*
X13964Y15667D01*
X13979Y15670D01*
X13991Y15679D01*
X13997Y15687D01*
X13998Y15688D01*
X14010Y15688D01*
X14011Y15687D01*
X14017Y15679D01*
X14030Y15670D01*
X14044Y15667D01*
X14059Y15670D01*
X14071Y15679D01*
X14074Y15682D01*
X14087Y15678D01*
Y15668D01*
X14162D01*
Y15794D01*
X14150D01*
Y15854D01*
X14156Y15860D01*
X14169Y15854D01*
Y15815D01*
X14242D01*
Y15913D01*
X14169D01*
Y15908D01*
X14156Y15905D01*
X14151Y15912D01*
X14139Y15920D01*
X14124Y15923D01*
D02*
G37*
G36*
X14340Y15913D02*
X14267D01*
Y15815D01*
X14340D01*
Y15913D01*
D02*
G37*
G36*
X13469Y16036D02*
X13397D01*
Y15924D01*
X13396Y15923D01*
X13384Y15919D01*
X13375Y15925D01*
X13360Y15927D01*
X13346Y15925D01*
X13333Y15916D01*
X13325Y15904D01*
X13322Y15889D01*
X13325Y15874D01*
X13326Y15872D01*
Y15794D01*
X13314D01*
Y15783D01*
X13302Y15779D01*
X13299Y15783D01*
X13287Y15791D01*
X13272Y15794D01*
X13257Y15791D01*
X13245Y15783D01*
X13239Y15774D01*
X13238Y15774D01*
X13226D01*
X13225Y15774D01*
X13219Y15783D01*
X13207Y15791D01*
X13192Y15794D01*
X13177Y15791D01*
X13165Y15783D01*
X13159Y15774D01*
X13158Y15774D01*
X13146D01*
X13145Y15774D01*
X13139Y15783D01*
X13127Y15791D01*
X13112Y15794D01*
X13097Y15791D01*
X13085Y15783D01*
X13079Y15774D01*
X13078Y15774D01*
X13066D01*
X13065Y15774D01*
X13059Y15783D01*
X13047Y15791D01*
X13032Y15794D01*
X13017Y15791D01*
X13008Y15785D01*
X13005Y15783D01*
X12992Y15787D01*
X12988Y15792D01*
X12972Y15803D01*
X12965Y15805D01*
Y15731D01*
Y15657D01*
X12972Y15658D01*
X12988Y15670D01*
X12992Y15674D01*
X13004Y15670D01*
Y15649D01*
X13003Y15648D01*
X12995Y15636D01*
X12992Y15621D01*
X12995Y15606D01*
X13003Y15594D01*
X13015Y15585D01*
X13030Y15583D01*
X13045Y15585D01*
X13057Y15594D01*
X13066Y15606D01*
X13069Y15621D01*
X13066Y15636D01*
X13057Y15648D01*
X13056Y15649D01*
Y15677D01*
X13059Y15679D01*
X13065Y15687D01*
X13066Y15688D01*
X13078D01*
X13079Y15687D01*
X13085Y15679D01*
X13088Y15677D01*
Y15596D01*
X13087Y15595D01*
X13079Y15582D01*
X13076Y15568D01*
X13079Y15553D01*
X13087Y15540D01*
X13099Y15532D01*
X13114Y15529D01*
X13129Y15532D01*
X13141Y15540D01*
X13150Y15553D01*
X13152Y15568D01*
X13150Y15582D01*
X13141Y15595D01*
X13140Y15596D01*
Y15680D01*
X13145Y15687D01*
X13146Y15688D01*
X13158D01*
X13159Y15687D01*
X13165Y15679D01*
X13177Y15670D01*
X13192Y15667D01*
X13207Y15670D01*
X13219Y15679D01*
X13225Y15687D01*
X13226Y15688D01*
X13238D01*
X13239Y15687D01*
X13245Y15679D01*
X13257Y15670D01*
X13272Y15667D01*
X13287Y15670D01*
X13299Y15679D01*
X13302Y15682D01*
X13314Y15678D01*
Y15668D01*
X13390D01*
Y15794D01*
X13378D01*
Y15849D01*
X13384Y15853D01*
X13397Y15846D01*
Y15815D01*
X13469D01*
Y15926D01*
Y16036D01*
D02*
G37*
G36*
X10813Y16276D02*
X10707Y16214D01*
X10768Y16109D01*
X10786Y16122D01*
X10808Y16151D01*
X10822Y16184D01*
X10826Y16219D01*
X10822Y16254D01*
X10813Y16276D01*
D02*
G37*
G36*
X10611Y16330D02*
X10593Y16316D01*
X10572Y16287D01*
X10558Y16254D01*
X10553Y16219D01*
X10558Y16184D01*
X10567Y16163D01*
X10672Y16224D01*
X10611Y16330D01*
D02*
G37*
G36*
X10690Y16356D02*
X10654Y16351D01*
X10633Y16342D01*
X10694Y16236D01*
X10800Y16298D01*
X10786Y16316D01*
X10758Y16337D01*
X10725Y16351D01*
X10690Y16356D01*
D02*
G37*
G36*
X14340Y16036D02*
X14267D01*
Y15939D01*
X14340D01*
Y16036D01*
D02*
G37*
G36*
X13680D02*
X13607D01*
Y15939D01*
X13680D01*
Y16036D01*
D02*
G37*
G36*
X10685Y16202D02*
X10579Y16141D01*
X10593Y16122D01*
X10621Y16101D01*
X10654Y16087D01*
X10690Y16082D01*
X10725Y16087D01*
X10746Y16096D01*
X10685Y16202D01*
D02*
G37*
G36*
X13680Y15913D02*
X13607D01*
Y15815D01*
X13680D01*
Y15913D01*
D02*
G37*
G36*
X12981Y15551D02*
X12852D01*
Y15458D01*
X12981D01*
Y15551D01*
D02*
G37*
G36*
X13757Y15559D02*
X13628D01*
Y15466D01*
X13757D01*
Y15559D01*
D02*
G37*
G36*
X12939Y15718D02*
X12901D01*
Y15706D01*
X12905Y15686D01*
X12916Y15670D01*
X12932Y15658D01*
X12939Y15657D01*
Y15718D01*
D02*
G37*
G36*
X13757Y15441D02*
X13628D01*
Y15348D01*
X13757D01*
Y15441D01*
D02*
G37*
G36*
X13910D02*
X13782D01*
Y15348D01*
X13910D01*
Y15441D01*
D02*
G37*
G36*
X12827Y15551D02*
X12699D01*
Y15458D01*
X12827D01*
Y15551D01*
D02*
G37*
G36*
X12809Y15913D02*
X12737D01*
Y15815D01*
X12809D01*
Y15913D01*
D02*
G37*
G36*
X12908D02*
X12835D01*
Y15815D01*
X12908D01*
Y15913D01*
D02*
G37*
G36*
X13582Y16036D02*
X13495D01*
Y15926D01*
Y15815D01*
X13582D01*
Y15926D01*
Y16036D01*
D02*
G37*
G36*
X13712Y15718D02*
X13673D01*
Y15706D01*
X13677Y15686D01*
X13688Y15670D01*
X13705Y15658D01*
X13712Y15657D01*
Y15718D01*
D02*
G37*
G36*
X12939Y15805D02*
X12932Y15803D01*
X12916Y15792D01*
X12905Y15776D01*
X12901Y15756D01*
Y15744D01*
X12939D01*
Y15805D01*
D02*
G37*
G36*
X13712D02*
X13705Y15803D01*
X13688Y15792D01*
X13677Y15776D01*
X13673Y15756D01*
Y15744D01*
X13712D01*
Y15805D01*
D02*
G37*
G36*
X11590Y13137D02*
X11575Y13134D01*
X11563Y13126D01*
X11555Y13113D01*
X11552Y13099D01*
X11555Y13084D01*
X11563Y13072D01*
X11575Y13063D01*
X11590Y13060D01*
X11605Y13063D01*
X11617Y13072D01*
X11626Y13084D01*
X11628Y13099D01*
X11626Y13113D01*
X11617Y13126D01*
X11605Y13134D01*
X11590Y13137D01*
D02*
G37*
G36*
X7396Y11626D02*
X7363D01*
Y11593D01*
X7396D01*
Y11626D01*
D02*
G37*
G36*
X7455D02*
X7422D01*
Y11593D01*
X7455D01*
Y11626D01*
D02*
G37*
G36*
X14676Y11765D02*
X14654D01*
Y11684D01*
Y11603D01*
X14676D01*
Y11684D01*
Y11765D01*
D02*
G37*
G36*
X10284Y11548D02*
X10201D01*
Y11430D01*
X10284D01*
Y11548D01*
D02*
G37*
G36*
X7396Y11567D02*
X7363D01*
Y11534D01*
X7396D01*
Y11567D01*
D02*
G37*
G36*
X7455D02*
X7422D01*
Y11534D01*
X7455D01*
Y11567D01*
D02*
G37*
G36*
X11133Y11804D02*
X11118Y11801D01*
X11106Y11793D01*
X11097Y11781D01*
X11094Y11766D01*
X11097Y11751D01*
X11106Y11739D01*
X11118Y11730D01*
X11133Y11727D01*
X11148Y11730D01*
X11160Y11739D01*
X11168Y11751D01*
X11171Y11766D01*
X11168Y11781D01*
X11160Y11793D01*
X11148Y11801D01*
X11133Y11804D01*
D02*
G37*
G36*
X11746Y12864D02*
X11056D01*
X11044Y12862D01*
X11033Y12855D01*
X10986Y12808D01*
X10981Y12807D01*
X10968Y12799D01*
X10960Y12786D01*
X10957Y12772D01*
X10960Y12757D01*
X10968Y12745D01*
X10973Y12742D01*
Y12726D01*
X10968Y12724D01*
X10960Y12711D01*
X10957Y12696D01*
X10960Y12682D01*
X10968Y12669D01*
X10981Y12661D01*
X10996Y12658D01*
X11010Y12661D01*
X11015Y12664D01*
X11018D01*
X11031Y12666D01*
X11041Y12673D01*
X11088Y12720D01*
X11095Y12731D01*
X11096Y12736D01*
X11706D01*
X11844Y12598D01*
X11854Y12591D01*
X11867Y12589D01*
X11896D01*
X11903Y12576D01*
X11902Y12576D01*
X11900Y12561D01*
X11902Y12546D01*
X11911Y12534D01*
X11923Y12525D01*
X11938Y12523D01*
X11953Y12525D01*
X11965Y12534D01*
X11974Y12546D01*
X11976Y12561D01*
X11974Y12576D01*
X11973Y12576D01*
X11980Y12589D01*
X14068D01*
X14150Y12507D01*
Y11765D01*
X14140Y11753D01*
X13964D01*
Y11753D01*
X13913D01*
Y11753D01*
X13535D01*
X13527Y11762D01*
X13527Y11766D01*
X13523Y11791D01*
X13521Y11793D01*
Y11923D01*
X13516Y11947D01*
X13502Y11968D01*
X13481Y11982D01*
X13457Y11987D01*
X13432Y11982D01*
X13412Y11968D01*
X13398Y11947D01*
X13393Y11923D01*
Y11773D01*
X13395Y11762D01*
X13387Y11753D01*
X13013D01*
Y11615D01*
X13013D01*
X13012Y11603D01*
X12983D01*
X12926Y11660D01*
X12906Y11674D01*
X12881Y11679D01*
X12593D01*
X12593Y11679D01*
X12578Y11682D01*
X12563Y11679D01*
X12563Y11679D01*
X10855D01*
X10831Y11674D01*
X10810Y11660D01*
X10740Y11590D01*
X10726Y11569D01*
X10721Y11544D01*
X10726Y11520D01*
X10740Y11499D01*
X10760Y11485D01*
X10785Y11480D01*
X10809Y11485D01*
X10830Y11499D01*
X10882Y11551D01*
X11767D01*
X11775Y11538D01*
X11773Y11527D01*
X11775Y11512D01*
X11784Y11500D01*
X11796Y11492D01*
X11811Y11489D01*
X11826Y11492D01*
X11838Y11500D01*
X11847Y11512D01*
X11849Y11527D01*
X11847Y11538D01*
X11855Y11551D01*
X12705D01*
X12717Y11548D01*
Y11430D01*
X12910D01*
Y11479D01*
X12922Y11484D01*
X12940Y11466D01*
X12960Y11452D01*
X12985Y11447D01*
X14073D01*
X14076Y11445D01*
X14095Y11437D01*
X14115Y11434D01*
X14135Y11437D01*
X14153Y11445D01*
X14169Y11457D01*
X14181Y11473D01*
X14189Y11491D01*
X14192Y11511D01*
X14189Y11531D01*
X14181Y11550D01*
X14181Y11551D01*
X14186Y11562D01*
X14263D01*
X14268Y11558D01*
X14267Y11543D01*
X14260Y11538D01*
X14252Y11526D01*
X14249Y11511D01*
X14252Y11497D01*
X14260Y11484D01*
X14273Y11476D01*
X14288Y11473D01*
X14302Y11476D01*
X14315Y11484D01*
X14323Y11497D01*
X14326Y11511D01*
X14323Y11526D01*
X14315Y11538D01*
X14302Y11547D01*
X14301Y11547D01*
X14300Y11551D01*
X14300Y11560D01*
X14306Y11564D01*
X14311Y11573D01*
X14313Y11583D01*
Y11615D01*
X14603D01*
Y11603D01*
X14628D01*
Y11684D01*
Y11765D01*
X14603D01*
Y11753D01*
X14289D01*
X14278Y11765D01*
Y12547D01*
X14276Y12559D01*
X14269Y12570D01*
X14241Y12598D01*
X14241Y12598D01*
X14131Y12708D01*
X14120Y12715D01*
X14108Y12717D01*
X11907D01*
X11769Y12855D01*
X11758Y12862D01*
X11746Y12864D01*
D02*
G37*
G36*
X10069Y11944D02*
X10054Y11941D01*
X10041Y11933D01*
X10033Y11920D01*
X10032Y11914D01*
X9895Y11777D01*
X9890Y11769D01*
X9888Y11759D01*
Y11753D01*
X9805D01*
X9798Y11765D01*
X9802Y11771D01*
X9805Y11786D01*
X9802Y11800D01*
X9793Y11813D01*
X9781Y11821D01*
X9766Y11824D01*
X9752Y11821D01*
X9739Y11813D01*
X9731Y11800D01*
X9728Y11786D01*
X9731Y11771D01*
X9735Y11765D01*
X9728Y11753D01*
X9700D01*
Y11765D01*
X9675D01*
Y11684D01*
Y11603D01*
X9700D01*
Y11615D01*
X9939D01*
X9939Y11615D01*
Y11615D01*
X9952Y11617D01*
X9952Y11617D01*
X9962Y11615D01*
X9972Y11617D01*
X9980Y11623D01*
X9986Y11631D01*
X9988Y11641D01*
Y11673D01*
X9993Y11678D01*
X9999Y11687D01*
X10000Y11697D01*
Y11738D01*
X10067Y11805D01*
X10069Y11804D01*
X10083Y11807D01*
X10096Y11816D01*
X10104Y11828D01*
X10107Y11843D01*
X10104Y11857D01*
X10096Y11870D01*
Y11878D01*
X10104Y11891D01*
X10107Y11905D01*
X10104Y11920D01*
X10096Y11933D01*
X10083Y11941D01*
X10069Y11944D01*
D02*
G37*
G36*
X9649Y11765D02*
X9627D01*
Y11684D01*
Y11603D01*
X9649D01*
Y11684D01*
Y11765D01*
D02*
G37*
G36*
X14727Y11765D02*
X14702D01*
Y11684D01*
Y11603D01*
X14727D01*
Y11615D01*
X14966D01*
X14966Y11615D01*
Y11615D01*
X14979Y11617D01*
X14979Y11617D01*
X14989Y11615D01*
X14999Y11617D01*
X15007Y11623D01*
X15013Y11631D01*
X15015Y11641D01*
Y11727D01*
X15013Y11737D01*
X15007Y11745D01*
X14999Y11751D01*
X14989Y11753D01*
X14979Y11751D01*
X14979Y11751D01*
X14966Y11753D01*
Y11753D01*
X14966Y11753D01*
X14727D01*
Y11765D01*
D02*
G37*
G36*
X7506Y11763D02*
X7491Y11760D01*
X7479Y11752D01*
X7470Y11739D01*
X7467Y11725D01*
X7470Y11710D01*
X7479Y11697D01*
X7491Y11689D01*
X7506Y11686D01*
X7520Y11689D01*
X7533Y11697D01*
X7541Y11710D01*
X7544Y11725D01*
X7541Y11739D01*
X7533Y11752D01*
X7520Y11760D01*
X7506Y11763D01*
D02*
G37*
G36*
X10175Y11548D02*
X10091D01*
Y11430D01*
X10175D01*
Y11548D01*
D02*
G37*
G36*
X10284Y11405D02*
X10201D01*
Y11287D01*
X10284D01*
Y11405D01*
D02*
G37*
G36*
X14275Y11367D02*
X14242D01*
Y11333D01*
X14275D01*
Y11367D01*
D02*
G37*
G36*
X14333D02*
X14300D01*
Y11333D01*
X14333D01*
Y11367D01*
D02*
G37*
G36*
X12801Y11405D02*
X12717D01*
Y11286D01*
X12801D01*
Y11405D01*
D02*
G37*
G36*
X15311Y11405D02*
X15228D01*
Y11286D01*
X15311D01*
Y11405D01*
D02*
G37*
G36*
X7774Y11405D02*
X7690D01*
Y11287D01*
X7774D01*
Y11405D01*
D02*
G37*
G36*
X15311Y11548D02*
X15228D01*
Y11430D01*
X15311D01*
Y11548D01*
D02*
G37*
G36*
X7774Y11548D02*
X7690D01*
Y11430D01*
X7774D01*
Y11548D01*
D02*
G37*
G36*
X7883D02*
X7799D01*
Y11430D01*
X7883D01*
Y11548D01*
D02*
G37*
G36*
X14275Y11425D02*
X14242D01*
Y11392D01*
X14275D01*
Y11425D01*
D02*
G37*
G36*
X14333D02*
X14300D01*
Y11392D01*
X14333D01*
Y11425D01*
D02*
G37*
G36*
X15202Y11548D02*
X15118D01*
Y11430D01*
X15202D01*
Y11548D01*
D02*
G37*
G36*
X7630Y12736D02*
X7615Y12733D01*
X7603Y12725D01*
X7595Y12712D01*
X7592Y12697D01*
X7595Y12683D01*
X7603Y12670D01*
X7615Y12662D01*
X7630Y12659D01*
X7645Y12662D01*
X7657Y12670D01*
X7666Y12683D01*
X7669Y12697D01*
X7666Y12712D01*
X7657Y12725D01*
X7645Y12733D01*
X7630Y12736D01*
D02*
G37*
G36*
X8959Y12754D02*
X8944Y12751D01*
X8931Y12742D01*
X8923Y12730D01*
X8920Y12715D01*
X8923Y12701D01*
X8931Y12688D01*
X8944Y12680D01*
X8959Y12677D01*
X8973Y12680D01*
X8986Y12688D01*
X8994Y12701D01*
X8997Y12715D01*
X8994Y12730D01*
X8986Y12742D01*
X8973Y12751D01*
X8959Y12754D01*
D02*
G37*
G36*
X7394Y12722D02*
X7361D01*
Y12689D01*
X7394D01*
Y12722D01*
D02*
G37*
G36*
X11097Y12597D02*
X11083Y12595D01*
X11070Y12586D01*
X11062Y12574D01*
X11059Y12559D01*
X11062Y12544D01*
X11070Y12532D01*
X11083Y12524D01*
X11097Y12521D01*
X11112Y12524D01*
X11124Y12532D01*
X11133Y12544D01*
X11136Y12559D01*
X11133Y12574D01*
X11124Y12586D01*
X11112Y12595D01*
X11097Y12597D01*
D02*
G37*
G36*
X7394Y12663D02*
X7361D01*
Y12630D01*
X7394D01*
Y12663D01*
D02*
G37*
G36*
X7452D02*
X7419D01*
Y12630D01*
X7452D01*
Y12663D01*
D02*
G37*
G36*
X12154Y12919D02*
X12139Y12916D01*
X12127Y12908D01*
X12118Y12896D01*
X12115Y12881D01*
X12118Y12866D01*
X12127Y12854D01*
X12139Y12845D01*
X12154Y12843D01*
X12169Y12845D01*
X12181Y12854D01*
X12189Y12866D01*
X12192Y12881D01*
X12189Y12896D01*
X12181Y12908D01*
X12169Y12916D01*
X12154Y12919D01*
D02*
G37*
G36*
X11290Y12982D02*
X11276Y12979D01*
X11263Y12970D01*
X11255Y12958D01*
X11252Y12943D01*
X11255Y12929D01*
X11263Y12916D01*
X11276Y12908D01*
X11290Y12905D01*
X11305Y12908D01*
X11317Y12916D01*
X11326Y12929D01*
X11329Y12943D01*
X11326Y12958D01*
X11317Y12970D01*
X11305Y12979D01*
X11290Y12982D01*
D02*
G37*
G36*
X11862Y13054D02*
X11847Y13051D01*
X11835Y13043D01*
X11826Y13030D01*
X11823Y13016D01*
X11826Y13001D01*
X11835Y12988D01*
X11847Y12980D01*
X11862Y12977D01*
X11877Y12980D01*
X11889Y12988D01*
X11897Y13001D01*
X11900Y13016D01*
X11897Y13030D01*
X11889Y13043D01*
X11877Y13051D01*
X11862Y13054D01*
D02*
G37*
G36*
X7452Y12722D02*
X7419D01*
Y12689D01*
X7452D01*
Y12722D01*
D02*
G37*
G36*
X12766Y12820D02*
X12751Y12817D01*
X12739Y12808D01*
X12731Y12796D01*
X12728Y12781D01*
X12731Y12767D01*
X12739Y12754D01*
X12751Y12746D01*
X12766Y12743D01*
X12781Y12746D01*
X12793Y12754D01*
X12802Y12767D01*
X12804Y12781D01*
X12802Y12796D01*
X12793Y12808D01*
X12781Y12817D01*
X12766Y12820D01*
D02*
G37*
G36*
X11920Y12879D02*
X11906Y12876D01*
X11893Y12868D01*
X11885Y12855D01*
X11882Y12840D01*
X11885Y12826D01*
X11893Y12813D01*
X11906Y12805D01*
X11920Y12802D01*
X11935Y12805D01*
X11947Y12813D01*
X11956Y12826D01*
X11959Y12840D01*
X11956Y12855D01*
X11947Y12868D01*
X11935Y12876D01*
X11920Y12879D01*
D02*
G37*
G36*
X10239Y12596D02*
X10224Y12593D01*
X10212Y12585D01*
X10203Y12572D01*
X10200Y12558D01*
X10203Y12543D01*
X10212Y12531D01*
X10224Y12522D01*
X10239Y12519D01*
X10253Y12522D01*
X10266Y12531D01*
X10274Y12543D01*
X10277Y12558D01*
X10274Y12572D01*
X10266Y12585D01*
X10253Y12593D01*
X10239Y12596D01*
D02*
G37*
G36*
X12235Y12239D02*
X12220Y12236D01*
X12208Y12227D01*
X12200Y12215D01*
X12197Y12200D01*
X12200Y12186D01*
X12208Y12173D01*
X12220Y12165D01*
X12228Y12163D01*
X12231Y12150D01*
X12226Y12146D01*
X12217Y12134D01*
X12215Y12119D01*
X12217Y12104D01*
X12226Y12092D01*
X12238Y12083D01*
X12253Y12081D01*
X12268Y12083D01*
X12280Y12092D01*
X12288Y12104D01*
X12291Y12119D01*
X12288Y12134D01*
X12280Y12146D01*
X12268Y12154D01*
X12260Y12156D01*
X12257Y12170D01*
X12262Y12173D01*
X12271Y12186D01*
X12274Y12200D01*
X12271Y12215D01*
X12262Y12227D01*
X12250Y12236D01*
X12235Y12239D01*
D02*
G37*
G36*
X8420Y12169D02*
X8405Y12167D01*
X8393Y12158D01*
X8385Y12146D01*
X8382Y12131D01*
X8385Y12116D01*
X8393Y12104D01*
X8405Y12096D01*
X8420Y12093D01*
X8435Y12096D01*
X8447Y12104D01*
X8456Y12116D01*
X8459Y12131D01*
X8456Y12146D01*
X8447Y12158D01*
X8435Y12167D01*
X8420Y12169D01*
D02*
G37*
G36*
X10376Y12269D02*
X10361Y12266D01*
X10349Y12257D01*
X10340Y12245D01*
X10337Y12230D01*
X10340Y12215D01*
X10349Y12203D01*
X10361Y12195D01*
X10376Y12192D01*
X10391Y12195D01*
X10403Y12203D01*
X10411Y12215D01*
X10414Y12230D01*
X10411Y12245D01*
X10403Y12257D01*
X10391Y12266D01*
X10376Y12269D01*
D02*
G37*
G36*
X11750Y11844D02*
X11735Y11841D01*
X11723Y11833D01*
X11715Y11821D01*
X11712Y11806D01*
X11715Y11791D01*
X11723Y11779D01*
X11735Y11770D01*
X11750Y11767D01*
X11765Y11770D01*
X11777Y11779D01*
X11786Y11791D01*
X11788Y11806D01*
X11786Y11821D01*
X11777Y11833D01*
X11765Y11841D01*
X11750Y11844D01*
D02*
G37*
G36*
X13604Y12535D02*
X13590Y12532D01*
X13577Y12524D01*
X13569Y12512D01*
X13566Y12497D01*
X13569Y12482D01*
X13577Y12470D01*
X13578Y12469D01*
Y12439D01*
X13126Y11986D01*
X13124Y11987D01*
X13109Y11984D01*
X13097Y11975D01*
X13089Y11963D01*
X13086Y11948D01*
X13089Y11933D01*
X13097Y11921D01*
X13109Y11913D01*
X13124Y11910D01*
X13139Y11913D01*
X13151Y11921D01*
X13160Y11933D01*
X13163Y11948D01*
X13162Y11950D01*
X13623Y12410D01*
X13628Y12418D01*
X13630Y12428D01*
Y12469D01*
X13631Y12470D01*
X13640Y12482D01*
X13643Y12497D01*
X13640Y12512D01*
X13631Y12524D01*
X13619Y12532D01*
X13604Y12535D01*
D02*
G37*
G36*
X8899Y12087D02*
X8884Y12084D01*
X8872Y12076D01*
X8863Y12063D01*
X8861Y12048D01*
X8863Y12034D01*
X8872Y12021D01*
X8884Y12013D01*
X8899Y12010D01*
X8914Y12013D01*
X8926Y12021D01*
X8935Y12034D01*
X8937Y12048D01*
X8935Y12063D01*
X8926Y12076D01*
X8914Y12084D01*
X8899Y12087D01*
D02*
G37*
G36*
X12426Y12543D02*
X12412Y12540D01*
X12399Y12532D01*
X12391Y12519D01*
X12388Y12504D01*
X12391Y12490D01*
X12399Y12477D01*
X12412Y12469D01*
X12426Y12466D01*
X12441Y12469D01*
X12454Y12477D01*
X12462Y12490D01*
X12465Y12504D01*
X12462Y12519D01*
X12454Y12532D01*
X12441Y12540D01*
X12426Y12543D01*
D02*
G37*
G36*
X12591Y14884D02*
X12576Y14881D01*
X12564Y14873D01*
X12555Y14860D01*
X12552Y14846D01*
X12555Y14831D01*
X12564Y14818D01*
X12568Y14815D01*
Y14800D01*
X12564Y14797D01*
X12555Y14785D01*
X12552Y14770D01*
X12555Y14755D01*
X12564Y14743D01*
X12576Y14735D01*
X12591Y14732D01*
X12605Y14735D01*
X12618Y14743D01*
X12623Y14751D01*
X12710D01*
X12767Y14693D01*
Y13910D01*
X12526Y13669D01*
X11351D01*
X11343Y13668D01*
X11337Y13664D01*
X10656Y12983D01*
X10652Y12976D01*
X10650Y12969D01*
Y12571D01*
X10636Y12568D01*
X10624Y12560D01*
X10616Y12547D01*
X10613Y12532D01*
X10616Y12518D01*
X10624Y12505D01*
X10636Y12497D01*
X10651Y12494D01*
X10666Y12497D01*
X10678Y12505D01*
X10681Y12509D01*
X10696D01*
X10699Y12505D01*
X10712Y12497D01*
X10726Y12494D01*
X10741Y12497D01*
X10754Y12505D01*
X10762Y12518D01*
X10765Y12532D01*
X10762Y12547D01*
X10754Y12560D01*
X10741Y12568D01*
X10727Y12571D01*
Y12945D01*
X11375Y13592D01*
X12550D01*
X12558Y13594D01*
X12564Y13598D01*
X12838Y13872D01*
X12838Y13872D01*
X12842Y13879D01*
X12844Y13886D01*
X12844Y13886D01*
Y14717D01*
X12842Y14725D01*
X12838Y14731D01*
X12710Y14859D01*
X12704Y14863D01*
X12696Y14865D01*
X12623D01*
X12618Y14873D01*
X12605Y14881D01*
X12591Y14884D01*
D02*
G37*
G36*
X11046Y13782D02*
X10236D01*
X10212Y13778D01*
X10191Y13764D01*
X9872Y13445D01*
X8385D01*
X8360Y13440D01*
X8339Y13426D01*
X8060Y13147D01*
X8046Y13126D01*
X8041Y13101D01*
Y12129D01*
X8046Y12104D01*
X8060Y12083D01*
X8131Y12012D01*
X8127Y11998D01*
X8125Y11998D01*
X8113Y11990D01*
X8104Y11977D01*
X8101Y11963D01*
X8096Y11957D01*
X8081Y11954D01*
X8068Y11945D01*
X8060Y11933D01*
X8057Y11918D01*
X8060Y11904D01*
X8068Y11891D01*
X8081Y11883D01*
X8096Y11880D01*
X8105Y11882D01*
X8186Y11801D01*
Y11753D01*
X7986D01*
Y11687D01*
X7986Y11684D01*
Y11548D01*
X7957Y11519D01*
X7955Y11519D01*
X7941Y11516D01*
X7928Y11508D01*
X7920Y11496D01*
X7917Y11481D01*
X7920Y11466D01*
X7928Y11454D01*
X7941Y11445D01*
X7955Y11442D01*
X7970Y11445D01*
X7982Y11454D01*
X7991Y11466D01*
X7994Y11481D01*
X7993Y11482D01*
X8014Y11503D01*
X8027Y11498D01*
X8029Y11489D01*
X8037Y11476D01*
X8050Y11468D01*
X8064Y11465D01*
X8079Y11468D01*
X8092Y11476D01*
X8100Y11489D01*
X8103Y11504D01*
X8100Y11518D01*
X8092Y11531D01*
X8087Y11534D01*
Y11615D01*
X8719D01*
X8724Y11603D01*
X8714Y11593D01*
X8588D01*
X8578Y11591D01*
X8569Y11585D01*
X8503Y11519D01*
X8498Y11511D01*
X8496Y11501D01*
Y11440D01*
X8498Y11430D01*
X8503Y11422D01*
X8562Y11363D01*
X8570Y11358D01*
X8580Y11356D01*
X8971D01*
X8972Y11355D01*
X8985Y11346D01*
X8999Y11343D01*
X9014Y11346D01*
X9026Y11355D01*
X9035Y11367D01*
X9038Y11382D01*
X9036Y11392D01*
X9047Y11399D01*
X9169Y11277D01*
X9177Y11271D01*
X9187Y11269D01*
X9313D01*
X9350Y11233D01*
X9345Y11221D01*
X7986D01*
Y11155D01*
X7986Y11152D01*
Y10217D01*
X7848Y10079D01*
X7842Y10071D01*
X7840Y10061D01*
Y9858D01*
X7839Y9857D01*
X7831Y9845D01*
X7828Y9830D01*
X7831Y9815D01*
X7839Y9803D01*
X7852Y9794D01*
X7866Y9791D01*
X7881Y9794D01*
X7894Y9803D01*
X7902Y9815D01*
X7905Y9830D01*
X7902Y9845D01*
X7894Y9857D01*
X7892Y9858D01*
Y9886D01*
X7893Y9888D01*
X7905Y9889D01*
X7906Y9885D01*
X7907Y9879D01*
X7915Y9866D01*
X7928Y9858D01*
X7943Y9855D01*
X7957Y9858D01*
X7970Y9866D01*
X7978Y9879D01*
X7981Y9893D01*
X7978Y9908D01*
X7970Y9920D01*
X7968Y9921D01*
Y10035D01*
X8014Y10081D01*
X8025Y10073D01*
X8023Y10062D01*
X8026Y10047D01*
X8034Y10035D01*
X8046Y10026D01*
X8061Y10023D01*
X8076Y10026D01*
X8088Y10035D01*
X8097Y10047D01*
X8099Y10062D01*
X8099Y10063D01*
X8130Y10094D01*
X8135Y10102D01*
X8137Y10112D01*
Y10197D01*
X8147Y10202D01*
X8150Y10203D01*
X8164Y10200D01*
X8178Y10203D01*
X8191Y10212D01*
X8199Y10224D01*
X8202Y10239D01*
X8199Y10253D01*
X8198Y10255D01*
X8208Y10264D01*
X8243Y10228D01*
X8243Y10227D01*
X8246Y10212D01*
X8254Y10200D01*
X8266Y10191D01*
X8281Y10188D01*
X8296Y10191D01*
X8308Y10200D01*
X8317Y10212D01*
X8319Y10227D01*
X8317Y10241D01*
X8308Y10254D01*
X8296Y10262D01*
X8281Y10265D01*
X8280Y10265D01*
X8237Y10307D01*
Y10402D01*
X8250Y10408D01*
X8668Y9989D01*
X8677Y9984D01*
X8687Y9982D01*
X9047D01*
X9048Y9980D01*
X9061Y9972D01*
X9075Y9969D01*
X9088Y9972D01*
X9100Y9965D01*
Y9933D01*
X9088Y9931D01*
X9076Y9922D01*
X9067Y9910D01*
X9064Y9895D01*
X9067Y9880D01*
X9076Y9868D01*
X9088Y9860D01*
X9103Y9857D01*
X9117Y9860D01*
X9130Y9868D01*
X9137Y9878D01*
X9142Y9877D01*
X9149Y9875D01*
X9152Y9862D01*
X9160Y9850D01*
X9172Y9841D01*
X9187Y9838D01*
X9202Y9841D01*
X9202Y9841D01*
X9215Y9835D01*
Y9648D01*
X9208Y9644D01*
X9200Y9631D01*
X9197Y9616D01*
X9200Y9602D01*
X9208Y9589D01*
X9221Y9581D01*
X9235Y9578D01*
X9250Y9581D01*
X9263Y9589D01*
X9271Y9602D01*
X9274Y9616D01*
X9271Y9631D01*
X9263Y9644D01*
X9256Y9648D01*
Y10046D01*
X9254Y10054D01*
X9250Y10061D01*
X9228Y10082D01*
Y10119D01*
X9228Y10119D01*
X9227Y10127D01*
X9222Y10134D01*
X9222Y10134D01*
X9166Y10190D01*
X9160Y10194D01*
X9152Y10196D01*
X8769D01*
X8467Y10498D01*
Y11084D01*
X8786D01*
Y11020D01*
X8778Y11015D01*
X8770Y11003D01*
X8767Y10988D01*
X8770Y10973D01*
X8778Y10961D01*
X8790Y10953D01*
X8805Y10950D01*
X8820Y10953D01*
X8832Y10961D01*
X8841D01*
X8853Y10953D01*
X8868Y10950D01*
X8880Y10952D01*
X8892Y10945D01*
Y10853D01*
X8894Y10843D01*
X8900Y10835D01*
X8948Y10787D01*
X8956Y10781D01*
X8966Y10779D01*
X9251D01*
X9261Y10781D01*
X9269Y10787D01*
X9282Y10800D01*
X9287Y10808D01*
X9289Y10818D01*
Y11084D01*
X9443D01*
Y10813D01*
X9445Y10805D01*
X9449Y10798D01*
X9482Y10765D01*
X9489Y10761D01*
X9497Y10759D01*
X9573D01*
X9581Y10761D01*
X9588Y10765D01*
X9613Y10791D01*
X9617Y10791D01*
X9623Y10796D01*
X9624Y10796D01*
X9636Y10792D01*
Y10761D01*
X9638Y10751D01*
X9644Y10743D01*
X9661Y10725D01*
X9660Y10717D01*
X9663Y10702D01*
X9671Y10690D01*
X9684Y10681D01*
X9698Y10678D01*
X9713Y10681D01*
X9725Y10690D01*
X9734Y10702D01*
X9737Y10717D01*
X9743Y10723D01*
X9757Y10726D01*
X9770Y10734D01*
X9778Y10746D01*
X9781Y10761D01*
X9778Y10776D01*
X9770Y10788D01*
X9757Y10797D01*
X9743Y10800D01*
X9739Y10803D01*
Y11084D01*
X9810D01*
X9814Y11072D01*
X9811Y11069D01*
X9806Y11060D01*
X9804Y11051D01*
Y10307D01*
X9802Y10306D01*
X9794Y10294D01*
X9791Y10279D01*
X9794Y10264D01*
X9802Y10252D01*
X9815Y10244D01*
X9830Y10241D01*
X9844Y10244D01*
X9857Y10252D01*
X9865Y10264D01*
X9868Y10279D01*
X9865Y10294D01*
X9857Y10306D01*
X9856Y10307D01*
Y11040D01*
X9875Y11059D01*
X9888Y11054D01*
Y10390D01*
X9883Y10383D01*
X9880Y10368D01*
X9883Y10354D01*
X9892Y10341D01*
X9904Y10333D01*
X9919Y10330D01*
X9933Y10333D01*
X9946Y10341D01*
X9954Y10354D01*
X9957Y10368D01*
X9954Y10383D01*
X9946Y10395D01*
X9940Y10400D01*
Y11084D01*
X9987D01*
Y11221D01*
X9434D01*
X9432Y11224D01*
X9342Y11314D01*
X9334Y11319D01*
X9324Y11321D01*
X9198D01*
X9020Y11499D01*
X9012Y11505D01*
X9002Y11507D01*
X8995D01*
X8988Y11519D01*
X8992Y11525D01*
X8993Y11532D01*
X9006Y11541D01*
X9007Y11541D01*
X9009Y11540D01*
X9018Y11527D01*
X9030Y11519D01*
X9045Y11516D01*
X9060Y11519D01*
X9072Y11527D01*
X9080Y11540D01*
X9083Y11554D01*
X9080Y11569D01*
X9072Y11582D01*
X9060Y11590D01*
X9045Y11593D01*
X9038Y11599D01*
Y11615D01*
X9243D01*
Y11578D01*
X9234Y11572D01*
X9205Y11544D01*
X9192Y11523D01*
X9187Y11499D01*
X9192Y11474D01*
X9205Y11454D01*
X9226Y11440D01*
X9251Y11435D01*
X9275Y11440D01*
X9276Y11440D01*
X9286Y11431D01*
X9306Y11417D01*
X9331Y11412D01*
X9540D01*
X9565Y11417D01*
X9585Y11431D01*
X9599Y11451D01*
X9604Y11476D01*
X9599Y11500D01*
X9585Y11521D01*
X9565Y11535D01*
X9540Y11540D01*
X9504D01*
X9502Y11540D01*
X9495Y11542D01*
X9459D01*
X9452Y11555D01*
X9454Y11558D01*
X9457Y11572D01*
X9454Y11587D01*
X9446Y11599D01*
X9447Y11613D01*
X9449Y11615D01*
X9576D01*
Y11603D01*
X9601D01*
Y11684D01*
Y11765D01*
X9576D01*
Y11753D01*
X9538D01*
Y12155D01*
X9543Y12162D01*
X9546Y12177D01*
X9543Y12191D01*
X9534Y12204D01*
X9522Y12212D01*
X9507Y12215D01*
X9493Y12212D01*
X9480Y12204D01*
X9472Y12191D01*
X9469Y12177D01*
X9472Y12162D01*
X9480Y12150D01*
X9486Y12145D01*
Y11753D01*
X9350D01*
Y12015D01*
X9348Y12025D01*
X9342Y12033D01*
X9196Y12180D01*
X9195Y12184D01*
X9186Y12196D01*
X9174Y12205D01*
X9159Y12208D01*
X9145Y12205D01*
X9132Y12196D01*
X9124Y12184D01*
X9121Y12169D01*
X9124Y12154D01*
X9132Y12142D01*
X9145Y12134D01*
X9159Y12131D01*
X9169Y12133D01*
X9298Y12004D01*
Y11753D01*
X9232D01*
Y11966D01*
X9231Y11974D01*
X9226Y11980D01*
X9059Y12147D01*
Y12227D01*
X9249Y12416D01*
X10488D01*
X10493Y12409D01*
X10506Y12400D01*
X10521Y12397D01*
X10535Y12400D01*
X10548Y12409D01*
X10556Y12421D01*
X10559Y12436D01*
X10556Y12451D01*
X10548Y12463D01*
X10535Y12471D01*
X10521Y12474D01*
X10506Y12471D01*
X10494Y12464D01*
X10493Y12463D01*
X10492Y12463D01*
X10488Y12477D01*
X10524Y12513D01*
X10528Y12512D01*
X10542Y12515D01*
X10555Y12523D01*
X10563Y12536D01*
X10566Y12551D01*
X10563Y12565D01*
X10555Y12578D01*
X10542Y12586D01*
X10528Y12589D01*
X10513Y12586D01*
X10501Y12578D01*
X10492Y12565D01*
X10489Y12551D01*
X10492Y12536D01*
X10449Y12493D01*
X9225D01*
X9217Y12492D01*
X9211Y12488D01*
X8988Y12265D01*
X8984Y12258D01*
X8982Y12251D01*
Y12123D01*
X8984Y12116D01*
X8988Y12110D01*
X9142Y11955D01*
Y11753D01*
X8944D01*
Y11895D01*
X8945Y11896D01*
X8953Y11908D01*
X8956Y11923D01*
X8953Y11937D01*
X8945Y11950D01*
X8933Y11958D01*
X8918Y11961D01*
X8903Y11958D01*
X8891Y11950D01*
X8882Y11937D01*
X8880Y11923D01*
X8882Y11908D01*
X8891Y11896D01*
X8892Y11895D01*
Y11879D01*
X8879Y11872D01*
X8879Y11872D01*
X8865Y11875D01*
X8850Y11872D01*
X8837Y11864D01*
X8829Y11851D01*
X8826Y11836D01*
X8829Y11822D01*
X8836Y11812D01*
Y11753D01*
X8637D01*
Y12726D01*
X8641Y12729D01*
X8650Y12741D01*
X8653Y12756D01*
X8650Y12771D01*
X8641Y12783D01*
X8629Y12791D01*
X8614Y12794D01*
X8600Y12791D01*
X8598Y12791D01*
X8587Y12798D01*
Y12913D01*
X8589Y12914D01*
X8597Y12927D01*
X8600Y12941D01*
X8597Y12956D01*
X8589Y12968D01*
X8576Y12977D01*
X8562Y12980D01*
X8550Y12977D01*
X8537Y12985D01*
Y13107D01*
X8545Y13117D01*
X8547Y13132D01*
X8545Y13147D01*
X8536Y13159D01*
X8524Y13167D01*
X8509Y13170D01*
X8494Y13167D01*
X8482Y13159D01*
X8473Y13147D01*
X8471Y13132D01*
X8473Y13117D01*
X8482Y13105D01*
X8486Y13102D01*
Y12964D01*
X8485Y12962D01*
Y11857D01*
X8473Y11852D01*
X8169Y12155D01*
Y13075D01*
X8411Y13317D01*
X9898D01*
X9923Y13322D01*
X9944Y13336D01*
X10263Y13655D01*
X11046D01*
X11071Y13659D01*
X11092Y13673D01*
X11106Y13694D01*
X11110Y13719D01*
X11106Y13743D01*
X11092Y13764D01*
X11071Y13778D01*
X11046Y13782D01*
D02*
G37*
G36*
X11206Y12277D02*
X11192Y12274D01*
X11179Y12266D01*
X11171Y12253D01*
X11168Y12238D01*
X11171Y12224D01*
X11179Y12211D01*
X11192Y12203D01*
X11206Y12200D01*
X11221Y12203D01*
X11234Y12211D01*
X11242Y12224D01*
X11245Y12238D01*
X11242Y12253D01*
X11234Y12266D01*
X11221Y12274D01*
X11206Y12277D01*
D02*
G37*
G36*
X11806Y12297D02*
X11791Y12294D01*
X11779Y12286D01*
X11770Y12273D01*
X11767Y12259D01*
X11770Y12244D01*
X11779Y12232D01*
X11791Y12223D01*
X11806Y12220D01*
X11821Y12223D01*
X11833Y12232D01*
X11841Y12244D01*
X11844Y12259D01*
X11841Y12273D01*
X11833Y12286D01*
X11821Y12294D01*
X11806Y12297D01*
D02*
G37*
G36*
X11851Y12452D02*
X11836Y12449D01*
X11823Y12441D01*
X11815Y12428D01*
X11812Y12414D01*
X11815Y12399D01*
X11823Y12387D01*
X11836Y12378D01*
X11851Y12375D01*
X11865Y12378D01*
X11878Y12387D01*
X11886Y12399D01*
X11889Y12414D01*
X11886Y12428D01*
X11878Y12441D01*
X11865Y12449D01*
X11851Y12452D01*
D02*
G37*
%LPD*%
D10*
X14989Y11684D02*
D03*
X9962Y11684D02*
D03*
D11*
X14941Y11684D02*
D03*
X14890D02*
D03*
X14839D02*
D03*
X14791D02*
D03*
X14740D02*
D03*
X14689D02*
D03*
X14641D02*
D03*
X14590D02*
D03*
X14539D02*
D03*
X14491D02*
D03*
X14440D02*
D03*
X14389D02*
D03*
X14339D02*
D03*
X14290D02*
D03*
X14140D02*
D03*
X14090D02*
D03*
X14039D02*
D03*
X13988D02*
D03*
X13938Y11684D02*
D03*
X13888Y11684D02*
D03*
X13838D02*
D03*
X13788D02*
D03*
X13738D02*
D03*
X13688D02*
D03*
X13638D02*
D03*
X13588D02*
D03*
X13538D02*
D03*
X14989Y11152D02*
D03*
X14941D02*
D03*
X14890D02*
D03*
X14839D02*
D03*
X14791D02*
D03*
X14740D02*
D03*
X14689D02*
D03*
X14641D02*
D03*
X14590D02*
D03*
X14539D02*
D03*
X14491D02*
D03*
X14440D02*
D03*
X14389D02*
D03*
X14339D02*
D03*
X14290D02*
D03*
X14240D02*
D03*
X14189D02*
D03*
X14140D02*
D03*
X14090D02*
D03*
X14039D02*
D03*
X13988D02*
D03*
X13938D02*
D03*
X13888D02*
D03*
X13838D02*
D03*
X13788D02*
D03*
X13738D02*
D03*
X13688D02*
D03*
X13638D02*
D03*
X13588D02*
D03*
X13538D02*
D03*
X13488Y11684D02*
D03*
Y11152D02*
D03*
X13438Y11684D02*
D03*
X13438Y11152D02*
D03*
X13388Y11684D02*
D03*
Y11152D02*
D03*
X13338Y11684D02*
D03*
Y11152D02*
D03*
X13288Y11684D02*
D03*
Y11152D02*
D03*
X13238Y11684D02*
D03*
Y11152D02*
D03*
X13188Y11684D02*
D03*
Y11152D02*
D03*
X13138Y11684D02*
D03*
Y11152D02*
D03*
X13088Y11684D02*
D03*
X13088Y11152D02*
D03*
X13038Y11684D02*
D03*
Y11152D02*
D03*
X8012Y11152D02*
D03*
Y11684D02*
D03*
X8062Y11152D02*
D03*
Y11684D02*
D03*
X8112Y11152D02*
D03*
Y11684D02*
D03*
X8162Y11152D02*
D03*
Y11684D02*
D03*
X8212Y11152D02*
D03*
Y11684D02*
D03*
X8262Y11152D02*
D03*
Y11684D02*
D03*
X8312Y11152D02*
D03*
Y11684D02*
D03*
X8362Y11152D02*
D03*
Y11684D02*
D03*
X8412Y11152D02*
D03*
Y11684D02*
D03*
X8462Y11152D02*
D03*
Y11684D02*
D03*
X8512Y11152D02*
D03*
X8562D02*
D03*
X8612D02*
D03*
X8662D02*
D03*
X8712D02*
D03*
X8762D02*
D03*
X8812D02*
D03*
X8862D02*
D03*
X8912D02*
D03*
X8962D02*
D03*
X9012D02*
D03*
X9063D02*
D03*
X9114D02*
D03*
X9162D02*
D03*
X9213D02*
D03*
X9263D02*
D03*
X9312D02*
D03*
X9362D02*
D03*
X9413D02*
D03*
X9464D02*
D03*
X9512D02*
D03*
X9563D02*
D03*
X9614D02*
D03*
X9662D02*
D03*
X9713D02*
D03*
X9764D02*
D03*
X9812D02*
D03*
X9863D02*
D03*
X9914D02*
D03*
X9962D02*
D03*
X8512Y11684D02*
D03*
X8562D02*
D03*
X8612D02*
D03*
X8662D02*
D03*
X8712D02*
D03*
X8762D02*
D03*
X8812D02*
D03*
X8862D02*
D03*
X8912D02*
D03*
X8962D02*
D03*
X9012D02*
D03*
X9063D02*
D03*
X9114D02*
D03*
X9263D02*
D03*
X9312D02*
D03*
X9362D02*
D03*
X9413D02*
D03*
X9464D02*
D03*
X9512D02*
D03*
X9563D02*
D03*
X9614D02*
D03*
X9662D02*
D03*
X9713D02*
D03*
X9764D02*
D03*
X9812D02*
D03*
X9863D02*
D03*
X9914D02*
D03*
X14240Y11684D02*
D03*
X14189D02*
D03*
X9213Y11684D02*
D03*
X9162D02*
D03*
D12*
X12813Y11417D02*
D03*
X15215Y11417D02*
D03*
X10188Y11417D02*
D03*
X7787D02*
D03*
D13*
X8953Y7749D02*
D03*
X9054Y7796D02*
D03*
X9154Y7843D02*
D03*
X9028Y8112D02*
D03*
X8928Y8066D02*
D03*
X8827Y8018D02*
D03*
D14*
X9566Y7370D02*
D03*
Y7420D02*
D03*
Y7470D02*
D03*
Y7521D02*
D03*
Y7572D02*
D03*
X9289D02*
D03*
Y7521D02*
D03*
Y7470D02*
D03*
Y7420D02*
D03*
Y7370D02*
D03*
D15*
X9426Y7681D02*
D03*
X9325D02*
D03*
D16*
X9693Y7625D02*
D03*
Y7524D02*
D03*
D17*
X9341Y7262D02*
D03*
X9261D02*
D03*
D18*
X14254Y15926D02*
D03*
X13594D02*
D03*
X13482D02*
D03*
X12822D02*
D03*
D19*
X14124Y15731D02*
D03*
X13352D02*
D03*
D20*
X14044Y15731D02*
D03*
X13964Y15731D02*
D03*
X13884D02*
D03*
X13804D02*
D03*
X13724D02*
D03*
X13272D02*
D03*
X13192D02*
D03*
X13112D02*
D03*
X13032D02*
D03*
X12952D02*
D03*
D21*
X13472Y15446D02*
D03*
X12840Y15446D02*
D03*
X14402Y15453D02*
D03*
X13769D02*
D03*
D22*
X8707Y14325D02*
D03*
X8758Y14412D02*
D03*
D23*
X8954Y8187D02*
Y8217D01*
X8981Y8066D02*
X9028Y8112D01*
X8105Y12129D02*
X8435Y11798D01*
X8105Y13101D02*
X8385Y13381D01*
X13457Y11773D02*
Y11923D01*
Y11773D02*
X13463Y11766D01*
X8105Y12129D02*
Y13101D01*
X10785Y11544D02*
X10855Y11615D01*
X12881D02*
X12913Y11583D01*
X12985Y11511D01*
X12578Y11615D02*
X12881D01*
X10855D02*
X12578D01*
X9331Y11476D02*
X9540D01*
X9251Y11499D02*
X9279Y11527D01*
X9331Y11476D01*
X12985Y11511D02*
X14115D01*
X8385Y13381D02*
X9898D01*
X10236Y13719D01*
X11046D01*
X10676Y6792D02*
Y7808D01*
Y8379D01*
X10717Y8420D01*
X10418Y8066D02*
X10676Y7808D01*
X8928Y8066D02*
X8981D01*
X10418D01*
X8641Y7904D02*
X8954Y8217D01*
Y8187D02*
X9028Y8112D01*
X13297Y8730D02*
X13551D01*
X14003D01*
X14257D01*
D24*
X9548Y10843D02*
X9563Y10859D01*
Y11152D01*
X9512Y10866D02*
Y11152D01*
X9535Y10843D02*
X9548D01*
X9512Y10866D02*
X9535Y10843D01*
X9175Y9889D02*
Y10061D01*
Y9889D02*
X9187Y9877D01*
X9108Y10127D02*
X9175Y10061D01*
X8212Y10296D02*
Y11152D01*
Y10296D02*
X8281Y10227D01*
X8162Y10241D02*
Y11152D01*
X8112Y10112D02*
Y11152D01*
X8061Y10062D02*
X8112Y10112D01*
X8062Y10165D02*
Y11152D01*
X7943Y10046D02*
X8062Y10165D01*
X7943Y9893D02*
Y10046D01*
X8012Y10206D02*
Y11152D01*
X7866Y10061D02*
X8012Y10206D01*
X7866Y9830D02*
Y10061D01*
X8262Y10433D02*
Y11152D01*
Y10433D02*
X8687Y10008D01*
X9075D01*
X8312Y10464D02*
Y11152D01*
Y10464D02*
X8718Y10058D01*
X9099D01*
X9126Y10030D01*
Y9919D02*
Y10030D01*
X9103Y9895D02*
X9126Y9919D01*
X8362Y10503D02*
Y11152D01*
Y10503D02*
X8738Y10127D01*
X9108D01*
X12220Y14717D02*
Y14722D01*
X9159Y12169D02*
X9169D01*
X8918Y11690D02*
Y11923D01*
X8862Y11684D02*
Y11833D01*
X8865Y11836D01*
X9766Y11687D02*
Y11786D01*
X9764Y11684D02*
X9766Y11687D01*
X8412Y11684D02*
X8462D01*
X8412D02*
X8424Y11697D01*
X8562Y11684D02*
Y12941D01*
X8509Y13132D02*
X8512Y13129D01*
X8511Y12962D02*
X8512Y12963D01*
Y13129D01*
X8511Y11684D02*
X8512Y11684D01*
X8511Y11684D02*
Y12962D01*
X8612Y11684D02*
Y12756D01*
X15215Y11326D02*
Y11417D01*
X15116Y11227D02*
X15215Y11326D01*
X14689Y11552D02*
Y11684D01*
Y11552D02*
X14823Y11417D01*
X15215D01*
X14641Y11473D02*
Y11684D01*
Y11473D02*
X14696Y11417D01*
X14823D01*
X9312Y11684D02*
X9324Y11696D01*
X9169Y12169D02*
X9324Y12015D01*
Y11696D02*
Y12015D01*
X9507Y12177D02*
X9512Y12172D01*
Y11684D02*
Y12172D01*
X8956Y11539D02*
Y11679D01*
X8962Y11684D01*
X9012Y11580D02*
Y11684D01*
Y11580D02*
X9037Y11554D01*
X9045D01*
X8062Y11507D02*
Y11684D01*
Y11507D02*
X8064Y11504D01*
X8012Y11537D02*
Y11684D01*
X7955Y11481D02*
X8012Y11537D01*
X8212Y11684D02*
Y11811D01*
X8105Y11918D02*
X8212Y11811D01*
X8262Y11684D02*
Y11832D01*
X8140Y11954D02*
X8262Y11832D01*
X8096Y11918D02*
X8105D01*
X8140Y11954D02*
Y11963D01*
X8760Y13693D02*
X8887Y13820D01*
X8716Y13737D02*
X8849Y13870D01*
X9760D01*
X10018Y14127D01*
X8887Y13820D02*
X9799D01*
X10062Y14083D01*
X9914Y10373D02*
X9919Y10368D01*
X9914Y10373D02*
Y11152D01*
X9830Y10279D02*
Y11051D01*
X9863Y11084D01*
Y11152D01*
X8812Y10994D02*
Y11152D01*
X8805Y10988D02*
X8812Y10994D01*
X8862D02*
Y11152D01*
Y10994D02*
X8868Y10988D01*
X9413Y11577D02*
Y11684D01*
X9362Y11590D02*
Y11684D01*
Y11590D02*
X9375Y11577D01*
X9413D01*
X8580Y11382D02*
X8999D01*
X8522Y11440D02*
X8580Y11382D01*
X8522Y11440D02*
Y11501D01*
X8588Y11567D01*
X8778D02*
X8812Y11600D01*
Y11684D01*
X8762Y11604D02*
Y11684D01*
X8725Y11567D02*
X8762Y11604D01*
X8588Y11567D02*
X8725D01*
X8778D01*
X9975Y11749D02*
X10069Y11843D01*
X9975Y11697D02*
Y11749D01*
X9962Y11684D02*
X9975Y11697D01*
X9914Y11684D02*
Y11759D01*
X10060Y11905D02*
X10069D01*
X9914Y11759D02*
X10060Y11905D01*
X9713Y10782D02*
Y11152D01*
Y10782D02*
X9734Y10761D01*
X9662Y10761D02*
Y11152D01*
Y10761D02*
X9698Y10725D01*
Y10717D02*
Y10725D01*
X9734Y10761D02*
X9743D01*
X10193Y12215D02*
X10216Y12238D01*
X8912Y11152D02*
X8918Y11146D01*
Y10853D02*
Y11146D01*
Y10853D02*
X8966Y10805D01*
X9251D01*
X9263Y10818D01*
Y11152D01*
X9213Y10864D02*
Y11152D01*
X9195Y10846D02*
X9213Y10864D01*
X8992Y10846D02*
X9195D01*
X8962Y10876D02*
X8992Y10846D01*
X8962Y10876D02*
Y11152D01*
X9162Y10914D02*
Y11152D01*
X9136Y10889D02*
X9162Y10914D01*
X9022Y10889D02*
X9136D01*
X9012Y10899D02*
X9022Y10889D01*
X9012Y10899D02*
Y11152D01*
X9063Y10947D02*
Y11152D01*
Y10947D02*
X9081Y10930D01*
X9103D01*
X9114Y10940D01*
Y11152D01*
X9289Y7572D02*
Y7645D01*
X9325Y7681D01*
X9258Y7521D02*
X9289D01*
Y7325D02*
Y7370D01*
X9261Y7298D02*
X9289Y7325D01*
X9261Y7262D02*
Y7298D01*
X9289Y7370D02*
X9566D01*
X9464Y7572D02*
X9566D01*
X9572Y7527D02*
X9675D01*
X9566Y7521D02*
X9572Y7527D01*
X9341Y7262D02*
X9370D01*
X9408Y7300D01*
X9428Y7608D02*
X9464Y7572D01*
X9428Y7589D02*
Y7608D01*
Y7681D01*
X9145Y7848D02*
X9182Y7811D01*
Y7597D02*
Y7811D01*
X14439Y10691D02*
Y10794D01*
X14242Y10991D02*
X14439Y10794D01*
X14288Y11681D02*
X14290Y11684D01*
X14288Y11583D02*
Y11681D01*
X12578Y11615D02*
Y11643D01*
X9413Y11152D02*
Y11206D01*
X9324Y11295D02*
X9413Y11206D01*
X9187Y11295D02*
X9324D01*
X9002Y11481D02*
X9187Y11295D01*
X8621Y11481D02*
X9002D01*
X13038Y9074D02*
Y11152D01*
Y9074D02*
X13247Y8865D01*
X13432D01*
X13551Y8984D01*
X13088Y9192D02*
Y11152D01*
Y9192D02*
X13297Y8984D01*
X13138Y9622D02*
Y11152D01*
Y9622D02*
X13896Y8865D01*
X14138D01*
X14257Y8984D01*
X13188Y9799D02*
Y11152D01*
Y9799D02*
X14003Y8984D01*
X13114Y15568D02*
Y15729D01*
X13112Y15731D02*
X13114Y15729D01*
X13030Y15621D02*
Y15729D01*
X13032Y15731D01*
X14124D02*
Y15885D01*
X13352Y15731D02*
Y15881D01*
X13360Y15889D01*
X13884Y15668D02*
Y15731D01*
Y15668D02*
X13894Y15659D01*
Y15624D02*
Y15659D01*
X13804Y15668D02*
Y15731D01*
Y15668D02*
X13814Y15659D01*
Y15624D02*
Y15659D01*
X13894Y15624D02*
X14034Y15484D01*
Y13522D02*
Y15484D01*
X13814Y15624D02*
X13831D01*
X13954Y15501D01*
Y13555D02*
Y15501D01*
X13225Y12826D02*
X13954Y13555D01*
X13281Y12769D02*
X14034Y13522D01*
X12558Y10653D02*
X12654Y10749D01*
X12558Y10592D02*
Y10653D01*
X11501Y10353D02*
X11582D01*
X11737Y10508D01*
X12174D01*
X12708Y11041D01*
X13124Y11948D02*
X13604Y12428D01*
Y12497D01*
X14369Y15235D02*
Y15420D01*
X14402Y15453D01*
X12924Y15166D02*
X13193D01*
X13472Y15446D01*
X9230Y7470D02*
X9289D01*
X9197Y7420D02*
X9289D01*
X9182Y7597D02*
X9258Y7521D01*
X9086Y7615D02*
X9230Y7470D01*
X9086Y7615D02*
Y7757D01*
X9035Y7808D02*
X9086Y7757D01*
X8987Y7630D02*
X9197Y7420D01*
X8987Y7630D02*
Y7718D01*
X8958Y7746D02*
X8987Y7718D01*
X8652Y14270D02*
X8707Y14325D01*
X8758Y14412D02*
Y15078D01*
X8741Y15094D02*
X8758Y15078D01*
D25*
X9609Y11147D02*
X9614Y11152D01*
X9609Y10810D02*
Y11147D01*
X9604Y10810D02*
X9609D01*
X9573Y10780D02*
X9604Y10810D01*
X9497Y10780D02*
X9573D01*
X9464Y10813D02*
X9497Y10780D01*
X9464Y10813D02*
Y11152D01*
X9279Y10059D02*
X9439Y9900D01*
Y9761D02*
Y9900D01*
X9152Y10175D02*
X9208Y10119D01*
Y10074D02*
Y10119D01*
Y10074D02*
X9235Y10046D01*
Y9616D02*
Y10046D01*
X9554Y9877D02*
X9848Y10170D01*
X9326Y10105D02*
X9554Y9877D01*
X9326Y10105D02*
Y10123D01*
X9299Y10149D02*
X9326Y10123D01*
X9262Y10149D02*
X9299D01*
X9235Y10123D02*
X9262Y10149D01*
X9235Y10085D02*
Y10123D01*
Y10085D02*
X9262Y10059D01*
X9279D01*
X8446Y11137D02*
X8462Y11152D01*
X8446Y10490D02*
Y11137D01*
Y10490D02*
X8760Y10175D01*
X9152D01*
X7508Y9662D02*
Y10170D01*
Y9662D02*
X7785Y9385D01*
X9848Y10170D02*
X10508D01*
X7887Y11227D02*
Y11317D01*
X7787Y11417D02*
X7887Y11317D01*
X9314Y11521D02*
X9495D01*
X9263Y11572D02*
X9314Y11521D01*
X9263Y11572D02*
Y11684D01*
X9566Y7428D02*
X9638D01*
X9666Y7456D02*
X9711D01*
X9638Y7428D02*
X9666Y7456D01*
X9566Y7420D02*
Y7428D01*
X9675Y7628D02*
X9705D01*
X9660Y7384D02*
X9713D01*
X9756Y7427D01*
Y7625D01*
X9693D02*
X9756D01*
X9566Y7470D02*
X9571Y7475D01*
X9646Y7370D02*
X9660Y7384D01*
X9566Y7370D02*
X9646D01*
X9571Y7475D02*
X9574Y7473D01*
X9619D01*
X12913Y11583D02*
X14288D01*
D26*
X8435Y11708D02*
Y11798D01*
D27*
X14182Y11765D02*
Y12521D01*
X14082Y12621D02*
X14182Y12521D01*
X14218Y12575D02*
X14246Y12547D01*
X14182Y11765D02*
X14189Y11759D01*
Y11684D02*
Y11759D01*
X10996Y12696D02*
X11018D01*
X11065Y12743D01*
Y12751D01*
X11082Y12769D01*
X11720D01*
X11867Y12621D01*
X14082D01*
X14240Y11684D02*
Y11759D01*
X14246Y11765D01*
Y12547D01*
X11746Y12832D02*
X11893Y12685D01*
X10996Y12772D02*
X11056Y12832D01*
X11746D01*
X14108Y12685D02*
X14218Y12575D01*
X11893Y12685D02*
X14108D01*
X14218Y12575D02*
Y12575D01*
D28*
X9162Y11684D02*
Y11963D01*
X9213Y11684D02*
Y11966D01*
X9040Y12139D02*
X9213Y11966D01*
X9002Y12123D02*
X9162Y11963D01*
X9040Y12139D02*
Y12235D01*
X9002Y12123D02*
Y12251D01*
X9040Y12235D02*
X9241Y12436D01*
X9002Y12251D02*
X9225Y12474D01*
X10528Y12551D02*
X10540Y12563D01*
X9241Y12436D02*
X10521D01*
X10521Y12537D02*
X10541D01*
X9225Y12474D02*
X10457D01*
X10521Y12537D01*
X10708Y12551D02*
Y12953D01*
Y12551D02*
X10726Y12532D01*
X10708Y12953D02*
X11367Y13612D01*
X12550D01*
X12824Y13886D01*
Y14717D01*
X12591Y14846D02*
X12696D01*
X12824Y14717D01*
X10651Y12532D02*
X10670Y12551D01*
Y12969D02*
X11351Y13650D01*
X10670Y12551D02*
Y12969D01*
X11351Y13650D02*
X12534D01*
X12786Y13902D01*
Y14702D01*
X12718Y14770D02*
X12786Y14702D01*
X12591Y14770D02*
X12718D01*
X10656Y11275D02*
Y12296D01*
X10599Y12346D02*
X10602Y12349D01*
X10599Y11277D02*
Y12346D01*
X10656Y11275D02*
X10800Y11130D01*
X10599Y11277D02*
X10784Y11092D01*
X11803D01*
X11864Y11031D01*
X10800Y11130D02*
X11819D01*
X11864Y10914D02*
Y11031D01*
X11859Y10909D02*
X11864Y10914D01*
X11913Y10856D02*
X11916Y10859D01*
X11819Y11130D02*
X11916Y11033D01*
Y10859D02*
Y11033D01*
D29*
X8987Y9020D02*
D03*
X8987Y9274D02*
D03*
X9241Y9020D02*
D03*
Y9274D02*
D03*
X9495Y9020D02*
D03*
X9495Y9274D02*
D03*
X10023Y6784D02*
D03*
X14011Y7379D02*
D03*
D30*
X8204Y8204D02*
D03*
X14796Y8204D02*
D03*
X8204Y14796D02*
D03*
X14796D02*
D03*
D31*
X8741Y15094D02*
D03*
X10690Y16219D02*
D03*
D32*
X7409Y11580D02*
D03*
X7407Y12676D02*
D03*
D33*
X9891Y9642D02*
D03*
X14288Y11379D02*
D03*
D34*
X12913Y11227D02*
D03*
X15116Y11227D02*
D03*
X10089Y11227D02*
D03*
X7887D02*
D03*
D35*
X10508Y13170D02*
D03*
X7508D02*
D03*
X10508Y10170D02*
D03*
X7508D02*
D03*
X15535Y13170D02*
D03*
Y10170D02*
D03*
X12535Y13170D02*
D03*
Y10170D02*
D03*
D36*
X13551Y8984D02*
D03*
X13297D02*
D03*
X13551Y8730D02*
D03*
X13297D02*
D03*
X13551Y8476D02*
D03*
X13297D02*
D03*
X14257Y8984D02*
D03*
X14003D02*
D03*
X14257Y8730D02*
D03*
X14003D02*
D03*
X14257Y8476D02*
D03*
X14003D02*
D03*
D37*
X10717Y8420D02*
D03*
D38*
X11762D02*
D03*
D39*
X11184Y6792D02*
D03*
X10676D02*
D03*
X11184Y7808D02*
D03*
X10676D02*
D03*
D40*
X8641Y7904D02*
D03*
X14115Y11511D02*
D03*
D41*
X9365Y9345D02*
D03*
X9159Y9149D02*
D03*
X8192Y8948D02*
D03*
X8361Y9936D02*
D03*
X8590Y9949D02*
D03*
X8496Y9969D02*
D03*
X8433Y9916D02*
D03*
X8677Y9502D02*
D03*
X8328Y9120D02*
D03*
X7945Y9309D02*
D03*
X7813Y9657D02*
D03*
X7785Y9385D02*
D03*
X8830Y10283D02*
D03*
X8491Y10653D02*
D03*
X9439Y9517D02*
D03*
X9235Y9616D02*
D03*
X9187Y9877D02*
D03*
X9103Y9895D02*
D03*
X9075Y10008D02*
D03*
X8281Y10227D02*
D03*
X8164Y10239D02*
D03*
X8061Y10062D02*
D03*
X7943Y9893D02*
D03*
X7866Y9830D02*
D03*
X8682Y9083D02*
D03*
X9380Y9116D02*
D03*
X11378Y12449D02*
D03*
X11488D02*
D03*
X11598D02*
D03*
X11378Y12559D02*
D03*
X11488D02*
D03*
X11598D02*
D03*
X11378Y12669D02*
D03*
X11488D02*
D03*
X11598D02*
D03*
X12235Y12200D02*
D03*
X11806Y12259D02*
D03*
X11851Y12414D02*
D03*
X11206Y12238D02*
D03*
X11938Y12561D02*
D03*
X11290Y12943D02*
D03*
X11590Y13099D02*
D03*
X11862Y13016D02*
D03*
X12037Y12764D02*
D03*
X12154Y12881D02*
D03*
X11920Y12840D02*
D03*
X12426Y12504D02*
D03*
X10853Y12556D02*
D03*
X11803Y13214D02*
D03*
X11367Y12995D02*
D03*
X12644Y12353D02*
D03*
X12253Y12119D02*
D03*
X11811Y11527D02*
D03*
X11133Y11766D02*
D03*
X11699Y11949D02*
D03*
X11097Y12559D02*
D03*
X10914Y12152D02*
D03*
X12802Y11852D02*
D03*
X11933Y8903D02*
D03*
X11991Y10393D02*
D03*
X11674Y10635D02*
D03*
X12228Y10165D02*
D03*
X11072Y9637D02*
D03*
X11806Y9243D02*
D03*
X11641Y8946D02*
D03*
X12167Y9248D02*
D03*
X12315Y9040D02*
D03*
X12807Y10429D02*
D03*
X12497Y9624D02*
D03*
X12450Y9480D02*
D03*
X11643Y9180D02*
D03*
X12560Y15240D02*
D03*
X12220Y14722D02*
D03*
X12085Y14720D02*
D03*
X12268Y14397D02*
D03*
X11881Y14482D02*
D03*
X11732Y14597D02*
D03*
X11401Y14535D02*
D03*
X11251Y14543D02*
D03*
X11257Y14253D02*
D03*
X11177Y14101D02*
D03*
X11149Y14413D02*
D03*
X11023Y14496D02*
D03*
X10925Y14943D02*
D03*
X11210Y14893D02*
D03*
X11942Y15289D02*
D03*
X12352Y15276D02*
D03*
X12242Y15290D02*
D03*
X11527Y13945D02*
D03*
X12172Y13899D02*
D03*
X12184Y14564D02*
D03*
X11887Y15436D02*
D03*
X11692Y15908D02*
D03*
X11354Y15616D02*
D03*
X10726Y15042D02*
D03*
X10856Y15121D02*
D03*
X9507Y12177D02*
D03*
X9159Y12169D02*
D03*
X8918Y11923D02*
D03*
X8865Y11836D02*
D03*
X8899Y12048D02*
D03*
X9766Y11786D02*
D03*
X8621Y11481D02*
D03*
X8103Y12527D02*
D03*
X8509Y13132D02*
D03*
X8562Y12941D02*
D03*
X8614Y12756D02*
D03*
X11750Y11806D02*
D03*
X12769Y9700D02*
D03*
X10996Y12696D02*
D03*
Y12772D02*
D03*
X10528Y12551D02*
D03*
X10521Y12436D02*
D03*
X12591Y14770D02*
D03*
X12327Y14905D02*
D03*
Y14671D02*
D03*
X10726Y12532D02*
D03*
X12591Y14846D02*
D03*
X10651Y12532D02*
D03*
X10656Y12296D02*
D03*
X10602Y12349D02*
D03*
X11859Y10909D02*
D03*
X11913Y10856D02*
D03*
X11811Y10665D02*
D03*
X12047Y10719D02*
D03*
X8959Y12715D02*
D03*
X7506Y11725D02*
D03*
X6837Y11486D02*
D03*
X6845Y12586D02*
D03*
X8956Y11539D02*
D03*
X9045Y11554D02*
D03*
X8064Y11504D02*
D03*
X7955Y11481D02*
D03*
X8096Y11918D02*
D03*
X8140Y11963D02*
D03*
X8760Y13693D02*
D03*
X8716Y13737D02*
D03*
X10018Y14127D02*
D03*
X10062Y14083D02*
D03*
X9919Y10368D02*
D03*
X9830Y10279D02*
D03*
X8805Y10988D02*
D03*
X8868D02*
D03*
X11709Y14806D02*
D03*
X11659Y14869D02*
D03*
X12342Y15029D02*
D03*
X10559Y14783D02*
D03*
X10239Y12558D02*
D03*
X12766Y12781D02*
D03*
X9418Y11572D02*
D03*
X8999Y11382D02*
D03*
X11046Y13719D02*
D03*
X13457Y11923D02*
D03*
X10785Y11544D02*
D03*
X9540Y11476D02*
D03*
X10823Y9934D02*
D03*
X10345Y9479D02*
D03*
X10434Y9764D02*
D03*
X11062D02*
D03*
X10069Y11843D02*
D03*
Y11905D02*
D03*
X9698Y10717D02*
D03*
X9743Y10761D02*
D03*
X11916Y10289D02*
D03*
X11877Y10406D02*
D03*
X12032Y9992D02*
D03*
X11458Y10175D02*
D03*
X11438Y10625D02*
D03*
X11547Y10630D02*
D03*
X10376Y12230D02*
D03*
X10216Y12238D02*
D03*
X8420Y12131D02*
D03*
X11214Y10188D02*
D03*
X11450Y11493D02*
D03*
X12578Y11643D02*
D03*
X14367Y10604D02*
D03*
X14105Y10909D02*
D03*
X14439Y10691D02*
D03*
X14242Y10991D02*
D03*
X14288Y11511D02*
D03*
X9251Y11499D02*
D03*
X14097Y10668D02*
D03*
X8440Y9149D02*
D03*
X13114Y15568D02*
D03*
X13030Y15621D02*
D03*
X14124Y15885D02*
D03*
X13360Y15889D02*
D03*
X13281Y12769D02*
D03*
X13225Y12826D02*
D03*
X12654Y10749D02*
D03*
X12558Y10592D02*
D03*
X11501Y10353D02*
D03*
X12708Y11041D02*
D03*
X13124Y11948D02*
D03*
X13604Y12497D02*
D03*
X14369Y15235D02*
D03*
X12924Y15166D02*
D03*
X7630Y12697D02*
D03*
X12543Y10761D02*
D03*
X8652Y14270D02*
D03*
X8819Y8631D02*
D03*
X12260Y11168D02*
D03*
X12336D02*
D03*
X12553Y8979D02*
D03*
X12606Y8926D02*
D03*
X9058Y9141D02*
D03*
D42*
X9711Y7456D02*
D03*
X9408Y7300D02*
D03*
X9428Y7589D02*
D03*
X9660Y7384D02*
D03*
X9619Y7473D02*
D03*
D43*
X14135Y10132D02*
D03*
X14762Y10112D02*
D03*
X13495Y10130D02*
D03*
M02*
