G04 Layer_Color=2752767*
%FSLAX42Y42*%
%MOMM*%
G71*
G01*
G75*
%ADD161C,0.05*%
%ADD172C,0.07*%
%ADD173C,0.03*%
D161*
X8966Y8999D02*
Y9040D01*
X9007D01*
Y8999D01*
X8966D01*
X8966Y9253D02*
Y9294D01*
X9007D01*
Y9253D01*
X8966D01*
X9220Y8999D02*
Y9040D01*
X9261D01*
Y8999D01*
X9220D01*
Y9253D02*
Y9294D01*
X9261D01*
Y9253D01*
X9220D01*
X9474Y8999D02*
Y9040D01*
X9515D01*
Y8999D01*
X9474D01*
X9474Y9253D02*
Y9294D01*
X9515D01*
Y9253D01*
X9474D01*
X8741Y15074D02*
X8721Y15114D01*
X8762D01*
X8741Y15074D01*
X10690Y16199D02*
X10669Y16239D01*
X10710D01*
X10690Y16199D01*
X7409Y11560D02*
X7419Y11570D01*
X7429D01*
X7419Y11580D01*
X7429Y11590D01*
X7419D01*
X7409Y11600D01*
X7399Y11590D01*
X7389D01*
X7399Y11580D01*
X7389Y11570D01*
X7399D01*
X7409Y11560D01*
X7407Y12656D02*
X7417Y12666D01*
X7427D01*
X7417Y12676D01*
X7427Y12686D01*
X7417D01*
X7407Y12696D01*
X7396Y12686D01*
X7386D01*
X7396Y12676D01*
X7386Y12666D01*
X7396D01*
X7407Y12656D01*
X9891Y9622D02*
X9901Y9632D01*
X9911D01*
X9901Y9642D01*
X9911Y9652D01*
X9901D01*
X9891Y9662D01*
X9881Y9652D01*
X9870D01*
X9881Y9642D01*
X9870Y9632D01*
X9881D01*
X9891Y9622D01*
X12893Y11207D02*
X12903Y11227D01*
X12893Y11248D01*
X12913Y11237D01*
X12934Y11248D01*
X12924Y11227D01*
X12934Y11207D01*
X12913Y11217D01*
X12893Y11207D01*
X15096Y11207D02*
X15106Y11227D01*
X15096Y11248D01*
X15116Y11237D01*
X15136Y11248D01*
X15126Y11227D01*
X15136Y11207D01*
X15116Y11217D01*
X15096Y11207D01*
X10069Y11207D02*
X10079Y11227D01*
X10069Y11248D01*
X10089Y11237D01*
X10109Y11248D01*
X10099Y11227D01*
X10109Y11207D01*
X10089Y11217D01*
X10069Y11207D01*
X7866D02*
X7876Y11227D01*
X7866Y11248D01*
X7887Y11237D01*
X7907Y11248D01*
X7897Y11227D01*
X7907Y11207D01*
X7887Y11217D01*
X7866Y11207D01*
X10498Y13160D02*
Y13150D01*
X10518D01*
Y13160D01*
X10528D01*
Y13180D01*
X10518D01*
Y13190D01*
X10498D01*
Y13180D01*
X10488D01*
Y13160D01*
X10498D01*
X7498D02*
Y13150D01*
X7518D01*
Y13160D01*
X7529D01*
Y13180D01*
X7518D01*
Y13190D01*
X7498D01*
Y13180D01*
X7488D01*
Y13160D01*
X7498D01*
X10498Y10160D02*
Y10150D01*
X10518D01*
Y10160D01*
X10528D01*
Y10180D01*
X10518D01*
Y10190D01*
X10498D01*
Y10180D01*
X10488D01*
Y10160D01*
X10498D01*
X7498D02*
Y10150D01*
X7518D01*
Y10160D01*
X7529D01*
Y10180D01*
X7518D01*
Y10190D01*
X7498D01*
Y10180D01*
X7488D01*
Y10160D01*
X7498D01*
X15525Y13160D02*
Y13150D01*
X15545D01*
Y13160D01*
X15555D01*
Y13180D01*
X15545D01*
Y13190D01*
X15525D01*
Y13180D01*
X15515D01*
Y13160D01*
X15525D01*
Y10160D02*
Y10150D01*
X15545D01*
Y10160D01*
X15555D01*
Y10180D01*
X15545D01*
Y10190D01*
X15525D01*
Y10180D01*
X15515D01*
Y10160D01*
X15525D01*
X12525Y13160D02*
Y13150D01*
X12545D01*
Y13160D01*
X12556D01*
Y13180D01*
X12545D01*
Y13190D01*
X12525D01*
Y13180D01*
X12515D01*
Y13160D01*
X12525D01*
Y10160D02*
Y10150D01*
X12545D01*
Y10160D01*
X12556D01*
Y10180D01*
X12545D01*
Y10190D01*
X12525D01*
Y10180D01*
X12515D01*
Y10160D01*
X12525D01*
X14288Y11359D02*
X14298Y11369D01*
X14308D01*
X14298Y11379D01*
X14308Y11389D01*
X14298D01*
X14288Y11400D01*
X14277Y11389D01*
X14267D01*
X14277Y11379D01*
X14267Y11369D01*
X14277D01*
X14288Y11359D01*
X13531Y8964D02*
Y9004D01*
X13571D01*
Y8964D01*
X13531D01*
X13277D02*
Y9004D01*
X13317D01*
Y8964D01*
X13277D01*
X13531Y8710D02*
Y8750D01*
X13571D01*
Y8710D01*
X13531D01*
X13277D02*
Y8750D01*
X13317D01*
Y8710D01*
X13277D01*
X13531Y8456D02*
Y8496D01*
X13571D01*
Y8456D01*
X13531D01*
X13277D02*
Y8496D01*
X13317D01*
Y8456D01*
X13277D01*
X14237Y8964D02*
Y9004D01*
X14277D01*
Y8964D01*
X14237D01*
X13983D02*
Y9004D01*
X14023D01*
Y8964D01*
X13983D01*
X14237Y8710D02*
Y8750D01*
X14277D01*
Y8710D01*
X14237D01*
X13983D02*
Y8750D01*
X14023D01*
Y8710D01*
X13983D01*
X14237Y8456D02*
Y8496D01*
X14277D01*
Y8456D01*
X14237D01*
X13983D02*
Y8496D01*
X14023D01*
Y8456D01*
X13983D01*
X10696Y8400D02*
X10706D01*
X10717Y8410D01*
X10727Y8400D01*
X10737D01*
Y8410D01*
X10727Y8420D01*
X10737Y8430D01*
Y8440D01*
X10727D01*
X10717Y8430D01*
X10706Y8440D01*
X10696D01*
Y8430D01*
X10706Y8420D01*
X10696Y8410D01*
Y8400D01*
X11742D02*
X11752D01*
X11762Y8410D01*
X11773Y8400D01*
X11783D01*
Y8410D01*
X11773Y8420D01*
X11783Y8430D01*
Y8440D01*
X11773D01*
X11762Y8430D01*
X11752Y8440D01*
X11742D01*
Y8430D01*
X11752Y8420D01*
X11742Y8410D01*
Y8400D01*
X11163Y6792D02*
X11184Y6812D01*
X11204Y6792D01*
X11184Y6772D01*
X11163Y6792D01*
X10655D02*
X10676Y6812D01*
X10696Y6792D01*
X10676Y6772D01*
X10655Y6792D01*
X11163Y7808D02*
X11184Y7828D01*
X11204Y7808D01*
X11184Y7788D01*
X11163Y7808D01*
X10655D02*
X10676Y7828D01*
X10696Y7808D01*
X10676Y7788D01*
X10655Y7808D01*
X8621Y7884D02*
Y7925D01*
X8661D01*
Y7884D01*
X8621D01*
X8631Y7894D02*
Y7915D01*
X8651D01*
Y7894D01*
X8631D01*
X14135Y10112D02*
X14115Y10152D01*
X14155D01*
X14135Y10112D01*
Y10122D02*
X14125Y10142D01*
X14145D01*
X14135Y10122D01*
X14762Y10091D02*
X14742Y10132D01*
X14783D01*
X14762Y10091D01*
Y10102D02*
X14752Y10122D01*
X14773D01*
X14762Y10102D01*
X14094Y11491D02*
Y11532D01*
X14135D01*
Y11491D01*
X14094D01*
X14105Y11501D02*
Y11521D01*
X14125D01*
Y11501D01*
X14105D01*
D172*
X8224Y8204D02*
G03*
X8224Y8204I-20J0D01*
G01*
X14816Y8204D02*
G03*
X14816Y8204I-20J0D01*
G01*
X8224Y14796D02*
G03*
X8224Y14796I-20J0D01*
G01*
X14816D02*
G03*
X14816Y14796I-20J0D01*
G01*
X10043Y6784D02*
G03*
X10043Y6784I-20J0D01*
G01*
X14031Y7379D02*
G03*
X14031Y7379I-20J0D01*
G01*
X9385Y9345D02*
G03*
X9385Y9345I-20J0D01*
G01*
X9180Y9149D02*
G03*
X9180Y9149I-20J0D01*
G01*
X8212Y8948D02*
G03*
X8212Y8948I-20J0D01*
G01*
X8381Y9936D02*
G03*
X8381Y9936I-20J0D01*
G01*
X8611Y9949D02*
G03*
X8611Y9949I-20J0D01*
G01*
X8517Y9969D02*
G03*
X8517Y9969I-20J0D01*
G01*
X8453Y9916D02*
G03*
X8453Y9916I-20J0D01*
G01*
X8697Y9502D02*
G03*
X8697Y9502I-20J0D01*
G01*
X8348Y9120D02*
G03*
X8348Y9120I-20J0D01*
G01*
X7965Y9309D02*
G03*
X7965Y9309I-20J0D01*
G01*
X7833Y9657D02*
G03*
X7833Y9657I-20J0D01*
G01*
X7805Y9385D02*
G03*
X7805Y9385I-20J0D01*
G01*
X8851Y10283D02*
G03*
X8851Y10283I-20J0D01*
G01*
X8512Y10653D02*
G03*
X8512Y10653I-20J0D01*
G01*
X9459Y9517D02*
G03*
X9459Y9517I-20J0D01*
G01*
X9256Y9616D02*
G03*
X9256Y9616I-20J0D01*
G01*
X9207Y9877D02*
G03*
X9207Y9877I-20J0D01*
G01*
X9123Y9895D02*
G03*
X9123Y9895I-20J0D01*
G01*
X9096Y10008D02*
G03*
X9096Y10008I-20J0D01*
G01*
X8301Y10227D02*
G03*
X8301Y10227I-20J0D01*
G01*
X8184Y10239D02*
G03*
X8184Y10239I-20J0D01*
G01*
X8081Y10062D02*
G03*
X8081Y10062I-20J0D01*
G01*
X7963Y9893D02*
G03*
X7963Y9893I-20J0D01*
G01*
X7887Y9830D02*
G03*
X7887Y9830I-20J0D01*
G01*
X8702Y9083D02*
G03*
X8702Y9083I-20J0D01*
G01*
X9401Y9116D02*
G03*
X9401Y9116I-20J0D01*
G01*
X11399Y12449D02*
G03*
X11399Y12449I-20J0D01*
G01*
X11509D02*
G03*
X11509Y12449I-20J0D01*
G01*
X11619D02*
G03*
X11619Y12449I-20J0D01*
G01*
X11399Y12559D02*
G03*
X11399Y12559I-20J0D01*
G01*
X11509D02*
G03*
X11509Y12559I-20J0D01*
G01*
X11619D02*
G03*
X11619Y12559I-20J0D01*
G01*
X11399Y12669D02*
G03*
X11399Y12669I-20J0D01*
G01*
X11509D02*
G03*
X11509Y12669I-20J0D01*
G01*
X11619D02*
G03*
X11619Y12669I-20J0D01*
G01*
X12256Y12200D02*
G03*
X12256Y12200I-20J0D01*
G01*
X11826Y12259D02*
G03*
X11826Y12259I-20J0D01*
G01*
X11871Y12414D02*
G03*
X11871Y12414I-20J0D01*
G01*
X11227Y12238D02*
G03*
X11227Y12238I-20J0D01*
G01*
X11958Y12561D02*
G03*
X11958Y12561I-20J0D01*
G01*
X11311Y12943D02*
G03*
X11311Y12943I-20J0D01*
G01*
X11610Y13099D02*
G03*
X11610Y13099I-20J0D01*
G01*
X11882Y13016D02*
G03*
X11882Y13016I-20J0D01*
G01*
X12057Y12764D02*
G03*
X12057Y12764I-20J0D01*
G01*
X12174Y12881D02*
G03*
X12174Y12881I-20J0D01*
G01*
X11941Y12840D02*
G03*
X11941Y12840I-20J0D01*
G01*
X12447Y12504D02*
G03*
X12447Y12504I-20J0D01*
G01*
X10874Y12556D02*
G03*
X10874Y12556I-20J0D01*
G01*
X11824Y13214D02*
G03*
X11824Y13214I-20J0D01*
G01*
X11387Y12995D02*
G03*
X11387Y12995I-20J0D01*
G01*
X12664Y12353D02*
G03*
X12664Y12353I-20J0D01*
G01*
X12273Y12119D02*
G03*
X12273Y12119I-20J0D01*
G01*
X11831Y11527D02*
G03*
X11831Y11527I-20J0D01*
G01*
X11153Y11766D02*
G03*
X11153Y11766I-20J0D01*
G01*
X11720Y11949D02*
G03*
X11720Y11949I-20J0D01*
G01*
X11118Y12559D02*
G03*
X11118Y12559I-20J0D01*
G01*
X10934Y12152D02*
G03*
X10934Y12152I-20J0D01*
G01*
X12822Y11852D02*
G03*
X12822Y11852I-20J0D01*
G01*
X11953Y8903D02*
G03*
X11953Y8903I-20J0D01*
G01*
X12011Y10393D02*
G03*
X12011Y10393I-20J0D01*
G01*
X11694Y10635D02*
G03*
X11694Y10635I-20J0D01*
G01*
X12248Y10165D02*
G03*
X12248Y10165I-20J0D01*
G01*
X11092Y9637D02*
G03*
X11092Y9637I-20J0D01*
G01*
X11826Y9243D02*
G03*
X11826Y9243I-20J0D01*
G01*
X11661Y8946D02*
G03*
X11661Y8946I-20J0D01*
G01*
X12187Y9248D02*
G03*
X12187Y9248I-20J0D01*
G01*
X12335Y9040D02*
G03*
X12335Y9040I-20J0D01*
G01*
X12827Y10429D02*
G03*
X12827Y10429I-20J0D01*
G01*
X12517Y9624D02*
G03*
X12517Y9624I-20J0D01*
G01*
X12471Y9480D02*
G03*
X12471Y9480I-20J0D01*
G01*
X11664Y9180D02*
G03*
X11664Y9180I-20J0D01*
G01*
X12581Y15240D02*
G03*
X12581Y15240I-20J0D01*
G01*
X12240Y14722D02*
G03*
X12240Y14722I-20J0D01*
G01*
X12105Y14720D02*
G03*
X12105Y14720I-20J0D01*
G01*
X12289Y14397D02*
G03*
X12289Y14397I-20J0D01*
G01*
X11901Y14482D02*
G03*
X11901Y14482I-20J0D01*
G01*
X11753Y14597D02*
G03*
X11753Y14597I-20J0D01*
G01*
X11421Y14535D02*
G03*
X11421Y14535I-20J0D01*
G01*
X11271Y14543D02*
G03*
X11271Y14543I-20J0D01*
G01*
X11277Y14253D02*
G03*
X11277Y14253I-20J0D01*
G01*
X11197Y14101D02*
G03*
X11197Y14101I-20J0D01*
G01*
X11170Y14413D02*
G03*
X11170Y14413I-20J0D01*
G01*
X11043Y14496D02*
G03*
X11043Y14496I-20J0D01*
G01*
X10945Y14943D02*
G03*
X10945Y14943I-20J0D01*
G01*
X11231Y14893D02*
G03*
X11231Y14893I-20J0D01*
G01*
X11963Y15289D02*
G03*
X11963Y15289I-20J0D01*
G01*
X12372Y15276D02*
G03*
X12372Y15276I-20J0D01*
G01*
X12262Y15290D02*
G03*
X12262Y15290I-20J0D01*
G01*
X11547Y13945D02*
G03*
X11547Y13945I-20J0D01*
G01*
X12192Y13899D02*
G03*
X12192Y13899I-20J0D01*
G01*
X12205Y14564D02*
G03*
X12205Y14564I-20J0D01*
G01*
X11908Y15436D02*
G03*
X11908Y15436I-20J0D01*
G01*
X11712Y15908D02*
G03*
X11712Y15908I-20J0D01*
G01*
X11374Y15616D02*
G03*
X11374Y15616I-20J0D01*
G01*
X10747Y15042D02*
G03*
X10747Y15042I-20J0D01*
G01*
X10876Y15121D02*
G03*
X10876Y15121I-20J0D01*
G01*
X9528Y12177D02*
G03*
X9528Y12177I-20J0D01*
G01*
X9180Y12169D02*
G03*
X9180Y12169I-20J0D01*
G01*
X8938Y11923D02*
G03*
X8938Y11923I-20J0D01*
G01*
X8885Y11836D02*
G03*
X8885Y11836I-20J0D01*
G01*
X8919Y12048D02*
G03*
X8919Y12048I-20J0D01*
G01*
X9787Y11786D02*
G03*
X9787Y11786I-20J0D01*
G01*
X8641Y11481D02*
G03*
X8641Y11481I-20J0D01*
G01*
X8123Y12527D02*
G03*
X8123Y12527I-20J0D01*
G01*
X8529Y13132D02*
G03*
X8529Y13132I-20J0D01*
G01*
X8582Y12941D02*
G03*
X8582Y12941I-20J0D01*
G01*
X8634Y12756D02*
G03*
X8634Y12756I-20J0D01*
G01*
X11770Y11806D02*
G03*
X11770Y11806I-20J0D01*
G01*
X12789Y9700D02*
G03*
X12789Y9700I-20J0D01*
G01*
X11016Y12696D02*
G03*
X11016Y12696I-20J0D01*
G01*
Y12772D02*
G03*
X11016Y12772I-20J0D01*
G01*
X10548Y12551D02*
G03*
X10548Y12551I-20J0D01*
G01*
X10541Y12436D02*
G03*
X10541Y12436I-20J0D01*
G01*
X12611Y14770D02*
G03*
X12611Y14770I-20J0D01*
G01*
X12347Y14905D02*
G03*
X12347Y14905I-20J0D01*
G01*
Y14671D02*
G03*
X12347Y14671I-20J0D01*
G01*
X10747Y12532D02*
G03*
X10747Y12532I-20J0D01*
G01*
X12611Y14846D02*
G03*
X12611Y14846I-20J0D01*
G01*
X10671Y12532D02*
G03*
X10671Y12532I-20J0D01*
G01*
X10676Y12296D02*
G03*
X10676Y12296I-20J0D01*
G01*
X10623Y12349D02*
G03*
X10623Y12349I-20J0D01*
G01*
X11880Y10909D02*
G03*
X11880Y10909I-20J0D01*
G01*
X11933Y10856D02*
G03*
X11933Y10856I-20J0D01*
G01*
X11831Y10665D02*
G03*
X11831Y10665I-20J0D01*
G01*
X12068Y10719D02*
G03*
X12068Y10719I-20J0D01*
G01*
X8979Y12715D02*
G03*
X8979Y12715I-20J0D01*
G01*
X7526Y11725D02*
G03*
X7526Y11725I-20J0D01*
G01*
X6857Y11486D02*
G03*
X6857Y11486I-20J0D01*
G01*
X6866Y12586D02*
G03*
X6866Y12586I-20J0D01*
G01*
X8976Y11539D02*
G03*
X8976Y11539I-20J0D01*
G01*
X9065Y11554D02*
G03*
X9065Y11554I-20J0D01*
G01*
X8085Y11504D02*
G03*
X8085Y11504I-20J0D01*
G01*
X7976Y11481D02*
G03*
X7976Y11481I-20J0D01*
G01*
X8116Y11918D02*
G03*
X8116Y11918I-20J0D01*
G01*
X8160Y11963D02*
G03*
X8160Y11963I-20J0D01*
G01*
X8781Y13693D02*
G03*
X8781Y13693I-20J0D01*
G01*
X8736Y13737D02*
G03*
X8736Y13737I-20J0D01*
G01*
X10038Y14127D02*
G03*
X10038Y14127I-20J0D01*
G01*
X10082Y14083D02*
G03*
X10082Y14083I-20J0D01*
G01*
X9939Y10368D02*
G03*
X9939Y10368I-20J0D01*
G01*
X9850Y10279D02*
G03*
X9850Y10279I-20J0D01*
G01*
X8826Y10988D02*
G03*
X8826Y10988I-20J0D01*
G01*
X8888D02*
G03*
X8888Y10988I-20J0D01*
G01*
X11730Y14806D02*
G03*
X11730Y14806I-20J0D01*
G01*
X11679Y14869D02*
G03*
X11679Y14869I-20J0D01*
G01*
X12362Y15029D02*
G03*
X12362Y15029I-20J0D01*
G01*
X10579Y14783D02*
G03*
X10579Y14783I-20J0D01*
G01*
X10259Y12558D02*
G03*
X10259Y12558I-20J0D01*
G01*
X12786Y12781D02*
G03*
X12786Y12781I-20J0D01*
G01*
X9439Y11572D02*
G03*
X9439Y11572I-20J0D01*
G01*
X9020Y11382D02*
G03*
X9020Y11382I-20J0D01*
G01*
X11067Y13719D02*
G03*
X11067Y13719I-20J0D01*
G01*
X13477Y11923D02*
G03*
X13477Y11923I-20J0D01*
G01*
X10805Y11544D02*
G03*
X10805Y11544I-20J0D01*
G01*
X9561Y11476D02*
G03*
X9561Y11476I-20J0D01*
G01*
X10843Y9934D02*
G03*
X10843Y9934I-20J0D01*
G01*
X10366Y9479D02*
G03*
X10366Y9479I-20J0D01*
G01*
X10455Y9764D02*
G03*
X10455Y9764I-20J0D01*
G01*
X11082D02*
G03*
X11082Y9764I-20J0D01*
G01*
X10089Y11843D02*
G03*
X10089Y11843I-20J0D01*
G01*
Y11905D02*
G03*
X10089Y11905I-20J0D01*
G01*
X9719Y10717D02*
G03*
X9719Y10717I-20J0D01*
G01*
X9763Y10761D02*
G03*
X9763Y10761I-20J0D01*
G01*
X11936Y10289D02*
G03*
X11936Y10289I-20J0D01*
G01*
X11897Y10406D02*
G03*
X11897Y10406I-20J0D01*
G01*
X12052Y9992D02*
G03*
X12052Y9992I-20J0D01*
G01*
X11478Y10175D02*
G03*
X11478Y10175I-20J0D01*
G01*
X11458Y10625D02*
G03*
X11458Y10625I-20J0D01*
G01*
X11567Y10630D02*
G03*
X11567Y10630I-20J0D01*
G01*
X10396Y12230D02*
G03*
X10396Y12230I-20J0D01*
G01*
X10236Y12238D02*
G03*
X10236Y12238I-20J0D01*
G01*
X8440Y12131D02*
G03*
X8440Y12131I-20J0D01*
G01*
X11234Y10188D02*
G03*
X11234Y10188I-20J0D01*
G01*
X11470Y11493D02*
G03*
X11470Y11493I-20J0D01*
G01*
X12598Y11643D02*
G03*
X12598Y11643I-20J0D01*
G01*
X9731Y7456D02*
G03*
X9731Y7456I-20J0D01*
G01*
X9428Y7300D02*
G03*
X9428Y7300I-20J0D01*
G01*
X9448Y7589D02*
G03*
X9448Y7589I-20J0D01*
G01*
X9680Y7384D02*
G03*
X9680Y7384I-20J0D01*
G01*
X9639Y7473D02*
G03*
X9639Y7473I-20J0D01*
G01*
X14387Y10604D02*
G03*
X14387Y10604I-20J0D01*
G01*
X14125Y10909D02*
G03*
X14125Y10909I-20J0D01*
G01*
X14459Y10691D02*
G03*
X14459Y10691I-20J0D01*
G01*
X14262Y10991D02*
G03*
X14262Y10991I-20J0D01*
G01*
X14308Y11511D02*
G03*
X14308Y11511I-20J0D01*
G01*
X9271Y11499D02*
G03*
X9271Y11499I-20J0D01*
G01*
X14117Y10668D02*
G03*
X14117Y10668I-20J0D01*
G01*
X13515Y10130D02*
G03*
X13515Y10130I-20J0D01*
G01*
X8461Y9149D02*
G03*
X8461Y9149I-20J0D01*
G01*
X13134Y15568D02*
G03*
X13134Y15568I-20J0D01*
G01*
X13051Y15621D02*
G03*
X13051Y15621I-20J0D01*
G01*
X14145Y15885D02*
G03*
X14145Y15885I-20J0D01*
G01*
X13381Y15889D02*
G03*
X13381Y15889I-20J0D01*
G01*
X13301Y12769D02*
G03*
X13301Y12769I-20J0D01*
G01*
X13245Y12826D02*
G03*
X13245Y12826I-20J0D01*
G01*
X12675Y10749D02*
G03*
X12675Y10749I-20J0D01*
G01*
X12578Y10592D02*
G03*
X12578Y10592I-20J0D01*
G01*
X11521Y10353D02*
G03*
X11521Y10353I-20J0D01*
G01*
X12728Y11041D02*
G03*
X12728Y11041I-20J0D01*
G01*
X13145Y11948D02*
G03*
X13145Y11948I-20J0D01*
G01*
X13625Y12497D02*
G03*
X13625Y12497I-20J0D01*
G01*
X14389Y15235D02*
G03*
X14389Y15235I-20J0D01*
G01*
X12944Y15166D02*
G03*
X12944Y15166I-20J0D01*
G01*
X7650Y12697D02*
G03*
X7650Y12697I-20J0D01*
G01*
X12563Y10761D02*
G03*
X12563Y10761I-20J0D01*
G01*
X8672Y14270D02*
G03*
X8672Y14270I-20J0D01*
G01*
X8839Y8631D02*
G03*
X8839Y8631I-20J0D01*
G01*
X12281Y11168D02*
G03*
X12281Y11168I-20J0D01*
G01*
X12356D02*
G03*
X12356Y11168I-20J0D01*
G01*
X12573Y8979D02*
G03*
X12573Y8979I-20J0D01*
G01*
X12626Y8926D02*
G03*
X12626Y8926I-20J0D01*
G01*
X9078Y9141D02*
G03*
X9078Y9141I-20J0D01*
G01*
D173*
X9375Y9345D02*
G03*
X9375Y9345I-10J0D01*
G01*
X9169Y9149D02*
G03*
X9169Y9149I-10J0D01*
G01*
X8202Y8948D02*
G03*
X8202Y8948I-10J0D01*
G01*
X8371Y9936D02*
G03*
X8371Y9936I-10J0D01*
G01*
X8600Y9949D02*
G03*
X8600Y9949I-10J0D01*
G01*
X8506Y9969D02*
G03*
X8506Y9969I-10J0D01*
G01*
X8443Y9916D02*
G03*
X8443Y9916I-10J0D01*
G01*
X8687Y9502D02*
G03*
X8687Y9502I-10J0D01*
G01*
X8338Y9120D02*
G03*
X8338Y9120I-10J0D01*
G01*
X7955Y9309D02*
G03*
X7955Y9309I-10J0D01*
G01*
X7823Y9657D02*
G03*
X7823Y9657I-10J0D01*
G01*
X7795Y9385D02*
G03*
X7795Y9385I-10J0D01*
G01*
X8840Y10283D02*
G03*
X8840Y10283I-10J0D01*
G01*
X8501Y10653D02*
G03*
X8501Y10653I-10J0D01*
G01*
X9449Y9517D02*
G03*
X9449Y9517I-10J0D01*
G01*
X9246Y9616D02*
G03*
X9246Y9616I-10J0D01*
G01*
X9197Y9877D02*
G03*
X9197Y9877I-10J0D01*
G01*
X9113Y9895D02*
G03*
X9113Y9895I-10J0D01*
G01*
X9086Y10008D02*
G03*
X9086Y10008I-10J0D01*
G01*
X8291Y10227D02*
G03*
X8291Y10227I-10J0D01*
G01*
X8174Y10239D02*
G03*
X8174Y10239I-10J0D01*
G01*
X8071Y10062D02*
G03*
X8071Y10062I-10J0D01*
G01*
X7953Y9893D02*
G03*
X7953Y9893I-10J0D01*
G01*
X7877Y9830D02*
G03*
X7877Y9830I-10J0D01*
G01*
X8692Y9083D02*
G03*
X8692Y9083I-10J0D01*
G01*
X9390Y9116D02*
G03*
X9390Y9116I-10J0D01*
G01*
X11389Y12449D02*
G03*
X11389Y12449I-10J0D01*
G01*
X11499D02*
G03*
X11499Y12449I-10J0D01*
G01*
X11609D02*
G03*
X11609Y12449I-10J0D01*
G01*
X11389Y12559D02*
G03*
X11389Y12559I-10J0D01*
G01*
X11499D02*
G03*
X11499Y12559I-10J0D01*
G01*
X11609D02*
G03*
X11609Y12559I-10J0D01*
G01*
X11389Y12669D02*
G03*
X11389Y12669I-10J0D01*
G01*
X11499D02*
G03*
X11499Y12669I-10J0D01*
G01*
X11609D02*
G03*
X11609Y12669I-10J0D01*
G01*
X12245Y12200D02*
G03*
X12245Y12200I-10J0D01*
G01*
X11816Y12259D02*
G03*
X11816Y12259I-10J0D01*
G01*
X11861Y12414D02*
G03*
X11861Y12414I-10J0D01*
G01*
X11217Y12238D02*
G03*
X11217Y12238I-10J0D01*
G01*
X11948Y12561D02*
G03*
X11948Y12561I-10J0D01*
G01*
X11300Y12943D02*
G03*
X11300Y12943I-10J0D01*
G01*
X11600Y13099D02*
G03*
X11600Y13099I-10J0D01*
G01*
X11872Y13016D02*
G03*
X11872Y13016I-10J0D01*
G01*
X12047Y12764D02*
G03*
X12047Y12764I-10J0D01*
G01*
X12164Y12881D02*
G03*
X12164Y12881I-10J0D01*
G01*
X11930Y12840D02*
G03*
X11930Y12840I-10J0D01*
G01*
X12436Y12504D02*
G03*
X12436Y12504I-10J0D01*
G01*
X10864Y12556D02*
G03*
X10864Y12556I-10J0D01*
G01*
X11814Y13214D02*
G03*
X11814Y13214I-10J0D01*
G01*
X11377Y12995D02*
G03*
X11377Y12995I-10J0D01*
G01*
X12654Y12353D02*
G03*
X12654Y12353I-10J0D01*
G01*
X12263Y12119D02*
G03*
X12263Y12119I-10J0D01*
G01*
X11821Y11527D02*
G03*
X11821Y11527I-10J0D01*
G01*
X11143Y11766D02*
G03*
X11143Y11766I-10J0D01*
G01*
X11709Y11949D02*
G03*
X11709Y11949I-10J0D01*
G01*
X11107Y12559D02*
G03*
X11107Y12559I-10J0D01*
G01*
X10924Y12152D02*
G03*
X10924Y12152I-10J0D01*
G01*
X12812Y11852D02*
G03*
X12812Y11852I-10J0D01*
G01*
X11943Y8903D02*
G03*
X11943Y8903I-10J0D01*
G01*
X12001Y10393D02*
G03*
X12001Y10393I-10J0D01*
G01*
X11684Y10635D02*
G03*
X11684Y10635I-10J0D01*
G01*
X12238Y10165D02*
G03*
X12238Y10165I-10J0D01*
G01*
X11082Y9637D02*
G03*
X11082Y9637I-10J0D01*
G01*
X11816Y9243D02*
G03*
X11816Y9243I-10J0D01*
G01*
X11651Y8946D02*
G03*
X11651Y8946I-10J0D01*
G01*
X12177Y9248D02*
G03*
X12177Y9248I-10J0D01*
G01*
X12325Y9040D02*
G03*
X12325Y9040I-10J0D01*
G01*
X12817Y10429D02*
G03*
X12817Y10429I-10J0D01*
G01*
X12507Y9624D02*
G03*
X12507Y9624I-10J0D01*
G01*
X12461Y9480D02*
G03*
X12461Y9480I-10J0D01*
G01*
X11654Y9180D02*
G03*
X11654Y9180I-10J0D01*
G01*
X12570Y15240D02*
G03*
X12570Y15240I-10J0D01*
G01*
X12230Y14722D02*
G03*
X12230Y14722I-10J0D01*
G01*
X12095Y14720D02*
G03*
X12095Y14720I-10J0D01*
G01*
X12278Y14397D02*
G03*
X12278Y14397I-10J0D01*
G01*
X11891Y14482D02*
G03*
X11891Y14482I-10J0D01*
G01*
X11742Y14597D02*
G03*
X11742Y14597I-10J0D01*
G01*
X11411Y14535D02*
G03*
X11411Y14535I-10J0D01*
G01*
X11261Y14543D02*
G03*
X11261Y14543I-10J0D01*
G01*
X11267Y14253D02*
G03*
X11267Y14253I-10J0D01*
G01*
X11187Y14101D02*
G03*
X11187Y14101I-10J0D01*
G01*
X11160Y14413D02*
G03*
X11160Y14413I-10J0D01*
G01*
X11033Y14496D02*
G03*
X11033Y14496I-10J0D01*
G01*
X10935Y14943D02*
G03*
X10935Y14943I-10J0D01*
G01*
X11220Y14893D02*
G03*
X11220Y14893I-10J0D01*
G01*
X11953Y15289D02*
G03*
X11953Y15289I-10J0D01*
G01*
X12362Y15276D02*
G03*
X12362Y15276I-10J0D01*
G01*
X12252Y15290D02*
G03*
X12252Y15290I-10J0D01*
G01*
X11537Y13945D02*
G03*
X11537Y13945I-10J0D01*
G01*
X12182Y13899D02*
G03*
X12182Y13899I-10J0D01*
G01*
X12195Y14564D02*
G03*
X12195Y14564I-10J0D01*
G01*
X11897Y15436D02*
G03*
X11897Y15436I-10J0D01*
G01*
X11702Y15908D02*
G03*
X11702Y15908I-10J0D01*
G01*
X11364Y15616D02*
G03*
X11364Y15616I-10J0D01*
G01*
X10737Y15042D02*
G03*
X10737Y15042I-10J0D01*
G01*
X10866Y15121D02*
G03*
X10866Y15121I-10J0D01*
G01*
X9517Y12177D02*
G03*
X9517Y12177I-10J0D01*
G01*
X9169Y12169D02*
G03*
X9169Y12169I-10J0D01*
G01*
X8928Y11923D02*
G03*
X8928Y11923I-10J0D01*
G01*
X8875Y11836D02*
G03*
X8875Y11836I-10J0D01*
G01*
X8909Y12048D02*
G03*
X8909Y12048I-10J0D01*
G01*
X9776Y11786D02*
G03*
X9776Y11786I-10J0D01*
G01*
X8631Y11481D02*
G03*
X8631Y11481I-10J0D01*
G01*
X8113Y12527D02*
G03*
X8113Y12527I-10J0D01*
G01*
X8519Y13132D02*
G03*
X8519Y13132I-10J0D01*
G01*
X8572Y12941D02*
G03*
X8572Y12941I-10J0D01*
G01*
X8624Y12756D02*
G03*
X8624Y12756I-10J0D01*
G01*
X11760Y11806D02*
G03*
X11760Y11806I-10J0D01*
G01*
X12779Y9700D02*
G03*
X12779Y9700I-10J0D01*
G01*
X11006Y12696D02*
G03*
X11006Y12696I-10J0D01*
G01*
Y12772D02*
G03*
X11006Y12772I-10J0D01*
G01*
X10538Y12551D02*
G03*
X10538Y12551I-10J0D01*
G01*
X10531Y12436D02*
G03*
X10531Y12436I-10J0D01*
G01*
X12601Y14770D02*
G03*
X12601Y14770I-10J0D01*
G01*
X12337Y14905D02*
G03*
X12337Y14905I-10J0D01*
G01*
Y14671D02*
G03*
X12337Y14671I-10J0D01*
G01*
X10737Y12532D02*
G03*
X10737Y12532I-10J0D01*
G01*
X12601Y14846D02*
G03*
X12601Y14846I-10J0D01*
G01*
X10661Y12532D02*
G03*
X10661Y12532I-10J0D01*
G01*
X10666Y12296D02*
G03*
X10666Y12296I-10J0D01*
G01*
X10613Y12349D02*
G03*
X10613Y12349I-10J0D01*
G01*
X11869Y10909D02*
G03*
X11869Y10909I-10J0D01*
G01*
X11923Y10856D02*
G03*
X11923Y10856I-10J0D01*
G01*
X11821Y10665D02*
G03*
X11821Y10665I-10J0D01*
G01*
X12057Y10719D02*
G03*
X12057Y10719I-10J0D01*
G01*
X8969Y12715D02*
G03*
X8969Y12715I-10J0D01*
G01*
X7516Y11725D02*
G03*
X7516Y11725I-10J0D01*
G01*
X6847Y11486D02*
G03*
X6847Y11486I-10J0D01*
G01*
X6855Y12586D02*
G03*
X6855Y12586I-10J0D01*
G01*
X8966Y11539D02*
G03*
X8966Y11539I-10J0D01*
G01*
X9055Y11554D02*
G03*
X9055Y11554I-10J0D01*
G01*
X8075Y11504D02*
G03*
X8075Y11504I-10J0D01*
G01*
X7965Y11481D02*
G03*
X7965Y11481I-10J0D01*
G01*
X8106Y11918D02*
G03*
X8106Y11918I-10J0D01*
G01*
X8150Y11963D02*
G03*
X8150Y11963I-10J0D01*
G01*
X8771Y13693D02*
G03*
X8771Y13693I-10J0D01*
G01*
X8726Y13737D02*
G03*
X8726Y13737I-10J0D01*
G01*
X10028Y14127D02*
G03*
X10028Y14127I-10J0D01*
G01*
X10072Y14083D02*
G03*
X10072Y14083I-10J0D01*
G01*
X9929Y10368D02*
G03*
X9929Y10368I-10J0D01*
G01*
X9840Y10279D02*
G03*
X9840Y10279I-10J0D01*
G01*
X8815Y10988D02*
G03*
X8815Y10988I-10J0D01*
G01*
X8878D02*
G03*
X8878Y10988I-10J0D01*
G01*
X11720Y14806D02*
G03*
X11720Y14806I-10J0D01*
G01*
X11669Y14869D02*
G03*
X11669Y14869I-10J0D01*
G01*
X12352Y15029D02*
G03*
X12352Y15029I-10J0D01*
G01*
X10569Y14783D02*
G03*
X10569Y14783I-10J0D01*
G01*
X10249Y12558D02*
G03*
X10249Y12558I-10J0D01*
G01*
X12776Y12781D02*
G03*
X12776Y12781I-10J0D01*
G01*
X9428Y11572D02*
G03*
X9428Y11572I-10J0D01*
G01*
X9009Y11382D02*
G03*
X9009Y11382I-10J0D01*
G01*
X11057Y13719D02*
G03*
X11057Y13719I-10J0D01*
G01*
X13467Y11923D02*
G03*
X13467Y11923I-10J0D01*
G01*
X10795Y11544D02*
G03*
X10795Y11544I-10J0D01*
G01*
X9550Y11476D02*
G03*
X9550Y11476I-10J0D01*
G01*
X10833Y9934D02*
G03*
X10833Y9934I-10J0D01*
G01*
X10356Y9479D02*
G03*
X10356Y9479I-10J0D01*
G01*
X10444Y9764D02*
G03*
X10444Y9764I-10J0D01*
G01*
X11072D02*
G03*
X11072Y9764I-10J0D01*
G01*
X10079Y11843D02*
G03*
X10079Y11843I-10J0D01*
G01*
Y11905D02*
G03*
X10079Y11905I-10J0D01*
G01*
X9708Y10717D02*
G03*
X9708Y10717I-10J0D01*
G01*
X9753Y10761D02*
G03*
X9753Y10761I-10J0D01*
G01*
X11926Y10289D02*
G03*
X11926Y10289I-10J0D01*
G01*
X11887Y10406D02*
G03*
X11887Y10406I-10J0D01*
G01*
X12042Y9992D02*
G03*
X12042Y9992I-10J0D01*
G01*
X11468Y10175D02*
G03*
X11468Y10175I-10J0D01*
G01*
X11448Y10625D02*
G03*
X11448Y10625I-10J0D01*
G01*
X11557Y10630D02*
G03*
X11557Y10630I-10J0D01*
G01*
X10386Y12230D02*
G03*
X10386Y12230I-10J0D01*
G01*
X10226Y12238D02*
G03*
X10226Y12238I-10J0D01*
G01*
X8430Y12131D02*
G03*
X8430Y12131I-10J0D01*
G01*
X11224Y10188D02*
G03*
X11224Y10188I-10J0D01*
G01*
X11460Y11493D02*
G03*
X11460Y11493I-10J0D01*
G01*
X12588Y11643D02*
G03*
X12588Y11643I-10J0D01*
G01*
X9721Y7456D02*
G03*
X9721Y7456I-10J0D01*
G01*
X9418Y7300D02*
G03*
X9418Y7300I-10J0D01*
G01*
X9438Y7589D02*
G03*
X9438Y7589I-10J0D01*
G01*
X9670Y7384D02*
G03*
X9670Y7384I-10J0D01*
G01*
X9629Y7473D02*
G03*
X9629Y7473I-10J0D01*
G01*
X14377Y10604D02*
G03*
X14377Y10604I-10J0D01*
G01*
X14115Y10909D02*
G03*
X14115Y10909I-10J0D01*
G01*
X14449Y10691D02*
G03*
X14449Y10691I-10J0D01*
G01*
X14252Y10991D02*
G03*
X14252Y10991I-10J0D01*
G01*
X14298Y11511D02*
G03*
X14298Y11511I-10J0D01*
G01*
X9261Y11499D02*
G03*
X9261Y11499I-10J0D01*
G01*
X14107Y10668D02*
G03*
X14107Y10668I-10J0D01*
G01*
X13505Y10130D02*
G03*
X13505Y10130I-10J0D01*
G01*
X8451Y9149D02*
G03*
X8451Y9149I-10J0D01*
G01*
X13124Y15568D02*
G03*
X13124Y15568I-10J0D01*
G01*
X13040Y15621D02*
G03*
X13040Y15621I-10J0D01*
G01*
X14134Y15885D02*
G03*
X14134Y15885I-10J0D01*
G01*
X13371Y15889D02*
G03*
X13371Y15889I-10J0D01*
G01*
X13291Y12769D02*
G03*
X13291Y12769I-10J0D01*
G01*
X13235Y12826D02*
G03*
X13235Y12826I-10J0D01*
G01*
X12664Y10749D02*
G03*
X12664Y10749I-10J0D01*
G01*
X12568Y10592D02*
G03*
X12568Y10592I-10J0D01*
G01*
X11511Y10353D02*
G03*
X11511Y10353I-10J0D01*
G01*
X12718Y11041D02*
G03*
X12718Y11041I-10J0D01*
G01*
X13134Y11948D02*
G03*
X13134Y11948I-10J0D01*
G01*
X13614Y12497D02*
G03*
X13614Y12497I-10J0D01*
G01*
X14379Y15235D02*
G03*
X14379Y15235I-10J0D01*
G01*
X12934Y15166D02*
G03*
X12934Y15166I-10J0D01*
G01*
X7640Y12697D02*
G03*
X7640Y12697I-10J0D01*
G01*
X12553Y10761D02*
G03*
X12553Y10761I-10J0D01*
G01*
X8662Y14270D02*
G03*
X8662Y14270I-10J0D01*
G01*
X8829Y8631D02*
G03*
X8829Y8631I-10J0D01*
G01*
X12271Y11168D02*
G03*
X12271Y11168I-10J0D01*
G01*
X12346D02*
G03*
X12346Y11168I-10J0D01*
G01*
X12563Y8979D02*
G03*
X12563Y8979I-10J0D01*
G01*
X12616Y8926D02*
G03*
X12616Y8926I-10J0D01*
G01*
X9068Y9141D02*
G03*
X9068Y9141I-10J0D01*
G01*
M02*
