G04 Layer_Color=16711935*
%FSLAX42Y42*%
%MOMM*%
G71*
G01*
G75*
G04:AMPARAMS|DCode=17|XSize=0.51mm|YSize=0.61mm|CornerRadius=0.13mm|HoleSize=0mm|Usage=FLASHONLY|Rotation=180.000|XOffset=0mm|YOffset=0mm|HoleType=Round|Shape=RoundedRectangle|*
%AMROUNDEDRECTD17*
21,1,0.51,0.36,0,0,180.0*
21,1,0.25,0.61,0,0,180.0*
1,1,0.25,-0.13,0.18*
1,1,0.25,0.13,0.18*
1,1,0.25,0.13,-0.18*
1,1,0.25,-0.13,-0.18*
%
%ADD17ROUNDEDRECTD17*%
G04:AMPARAMS|DCode=51|XSize=0.71mm|YSize=1.32mm|CornerRadius=0.18mm|HoleSize=0mm|Usage=FLASHONLY|Rotation=180.000|XOffset=0mm|YOffset=0mm|HoleType=Round|Shape=RoundedRectangle|*
%AMROUNDEDRECTD51*
21,1,0.71,0.97,0,0,180.0*
21,1,0.36,1.32,0,0,180.0*
1,1,0.36,-0.18,0.48*
1,1,0.36,0.18,0.48*
1,1,0.36,0.18,-0.48*
1,1,0.36,-0.18,-0.48*
%
%ADD51ROUNDEDRECTD51*%
G04:AMPARAMS|DCode=52|XSize=0.51mm|YSize=0.61mm|CornerRadius=0.13mm|HoleSize=0mm|Usage=FLASHONLY|Rotation=270.000|XOffset=0mm|YOffset=0mm|HoleType=Round|Shape=RoundedRectangle|*
%AMROUNDEDRECTD52*
21,1,0.51,0.36,0,0,270.0*
21,1,0.25,0.61,0,0,270.0*
1,1,0.25,-0.18,-0.13*
1,1,0.25,-0.18,0.13*
1,1,0.25,0.18,0.13*
1,1,0.25,0.18,-0.13*
%
%ADD52ROUNDEDRECTD52*%
G04:AMPARAMS|DCode=56|XSize=0.61mm|YSize=0.91mm|CornerRadius=0.15mm|HoleSize=0mm|Usage=FLASHONLY|Rotation=180.000|XOffset=0mm|YOffset=0mm|HoleType=Round|Shape=RoundedRectangle|*
%AMROUNDEDRECTD56*
21,1,0.61,0.61,0,0,180.0*
21,1,0.30,0.91,0,0,180.0*
1,1,0.30,-0.15,0.30*
1,1,0.30,0.15,0.30*
1,1,0.30,0.15,-0.30*
1,1,0.30,-0.15,-0.30*
%
%ADD56ROUNDEDRECTD56*%
G04:AMPARAMS|DCode=76|XSize=0.71mm|YSize=1.32mm|CornerRadius=0.18mm|HoleSize=0mm|Usage=FLASHONLY|Rotation=90.000|XOffset=0mm|YOffset=0mm|HoleType=Round|Shape=RoundedRectangle|*
%AMROUNDEDRECTD76*
21,1,0.71,0.97,0,0,90.0*
21,1,0.36,1.32,0,0,90.0*
1,1,0.36,0.48,0.18*
1,1,0.36,0.48,-0.18*
1,1,0.36,-0.48,-0.18*
1,1,0.36,-0.48,0.18*
%
%ADD76ROUNDEDRECTD76*%
%ADD95R,0.56X0.66*%
%ADD96R,0.66X0.56*%
%ADD103C,1.57*%
%ADD104C,5.05*%
%ADD105C,2.25*%
%ADD106R,0.46X0.46*%
%ADD107R,0.46X0.46*%
%ADD108C,0.71*%
%ADD109C,2.26*%
%ADD110C,1.93*%
%ADD111R,2.05X2.05*%
%ADD112C,2.05*%
%ADD113C,3.05*%
%ADD114C,1.32*%
%ADD115C,0.55*%
%ADD116C,4.05*%
%ADD117C,1.27*%
G04:AMPARAMS|DCode=118|XSize=1.55mm|YSize=1.07mm|CornerRadius=0.28mm|HoleSize=0mm|Usage=FLASHONLY|Rotation=90.000|XOffset=0mm|YOffset=0mm|HoleType=Round|Shape=RoundedRectangle|*
%AMROUNDEDRECTD118*
21,1,1.55,0.51,0,0,90.0*
21,1,0.99,1.07,0,0,90.0*
1,1,0.56,0.25,0.50*
1,1,0.56,0.25,-0.50*
1,1,0.56,-0.25,-0.50*
1,1,0.56,-0.25,0.50*
%
%ADD118ROUNDEDRECTD118*%
G04:AMPARAMS|DCode=119|XSize=1.55mm|YSize=1.07mm|CornerRadius=0.28mm|HoleSize=0mm|Usage=FLASHONLY|Rotation=0.000|XOffset=0mm|YOffset=0mm|HoleType=Round|Shape=RoundedRectangle|*
%AMROUNDEDRECTD119*
21,1,1.55,0.51,0,0,0.0*
21,1,0.99,1.07,0,0,0.0*
1,1,0.56,0.50,-0.25*
1,1,0.56,-0.50,-0.25*
1,1,0.56,-0.50,0.25*
1,1,0.56,0.50,0.25*
%
%ADD119ROUNDEDRECTD119*%
%ADD120R,0.66X0.66*%
%ADD121R,0.66X0.66*%
G04:AMPARAMS|DCode=122|XSize=1.57mm|YSize=1.57mm|CornerRadius=0.79mm|HoleSize=0mm|Usage=FLASHONLY|Rotation=90.000|XOffset=0mm|YOffset=0mm|HoleType=Round|Shape=RoundedRectangle|*
%AMROUNDEDRECTD122*
21,1,1.57,0.00,0,0,90.0*
21,1,0.00,1.57,0,0,90.0*
1,1,1.57,0.00,0.00*
1,1,1.57,0.00,0.00*
1,1,1.57,0.00,0.00*
1,1,1.57,0.00,0.00*
%
%ADD122ROUNDEDRECTD122*%
G04:AMPARAMS|DCode=123|XSize=1.57mm|YSize=1.57mm|CornerRadius=0.79mm|HoleSize=0mm|Usage=FLASHONLY|Rotation=180.000|XOffset=0mm|YOffset=0mm|HoleType=Round|Shape=RoundedRectangle|*
%AMROUNDEDRECTD123*
21,1,1.57,0.00,0,0,180.0*
21,1,0.00,1.57,0,0,180.0*
1,1,1.57,0.00,0.00*
1,1,1.57,0.00,0.00*
1,1,1.57,0.00,0.00*
1,1,1.57,0.00,0.00*
%
%ADD123ROUNDEDRECTD123*%
%ADD124R,0.66X0.97*%
%ADD125O,0.60X1.70*%
%ADD126O,1.70X0.60*%
%ADD127R,1.27X1.47*%
%ADD128O,0.95X0.33*%
%ADD129O,0.33X0.95*%
%ADD130R,3.75X3.75*%
%ADD131R,1.47X1.27*%
G04:AMPARAMS|DCode=132|XSize=0.66mm|YSize=1.75mm|CornerRadius=0.33mm|HoleSize=0mm|Usage=FLASHONLY|Rotation=0.000|XOffset=0mm|YOffset=0mm|HoleType=Round|Shape=RoundedRectangle|*
%AMROUNDEDRECTD132*
21,1,0.66,1.09,0,0,0.0*
21,1,0.00,1.75,0,0,0.0*
1,1,0.66,0.00,-0.55*
1,1,0.66,0.00,-0.55*
1,1,0.66,0.00,0.55*
1,1,0.66,0.00,0.55*
%
%ADD132ROUNDEDRECTD132*%
G04:AMPARAMS|DCode=133|XSize=2.87mm|YSize=1.07mm|CornerRadius=0.53mm|HoleSize=0mm|Usage=FLASHONLY|Rotation=270.000|XOffset=0mm|YOffset=0mm|HoleType=Round|Shape=RoundedRectangle|*
%AMROUNDEDRECTD133*
21,1,2.87,0.00,0,0,270.0*
21,1,1.80,1.07,0,0,270.0*
1,1,1.07,0.00,-0.90*
1,1,1.07,0.00,0.90*
1,1,1.07,0.00,0.90*
1,1,1.07,0.00,-0.90*
%
%ADD133ROUNDEDRECTD133*%
%ADD134R,0.36X0.51*%
%ADD135O,1.85X0.35*%
%ADD136O,0.35X1.85*%
%ADD137R,0.97X0.66*%
%ADD138R,0.76X1.75*%
%ADD139R,0.51X0.36*%
%ADD140R,1.75X0.76*%
G04:AMPARAMS|DCode=141|XSize=0.66mm|YSize=1.75mm|CornerRadius=0.33mm|HoleSize=0mm|Usage=FLASHONLY|Rotation=90.000|XOffset=0mm|YOffset=0mm|HoleType=Round|Shape=RoundedRectangle|*
%AMROUNDEDRECTD141*
21,1,0.66,1.09,0,0,90.0*
21,1,0.00,1.75,0,0,90.0*
1,1,0.66,0.55,0.00*
1,1,0.66,0.55,0.00*
1,1,0.66,-0.55,0.00*
1,1,0.66,-0.55,0.00*
%
%ADD141ROUNDEDRECTD141*%
G04:AMPARAMS|DCode=142|XSize=2.87mm|YSize=1.07mm|CornerRadius=0.53mm|HoleSize=0mm|Usage=FLASHONLY|Rotation=0.000|XOffset=0mm|YOffset=0mm|HoleType=Round|Shape=RoundedRectangle|*
%AMROUNDEDRECTD142*
21,1,2.87,0.00,0,0,0.0*
21,1,1.80,1.07,0,0,0.0*
1,1,1.07,0.90,0.00*
1,1,1.07,-0.90,0.00*
1,1,1.07,-0.90,0.00*
1,1,1.07,0.90,0.00*
%
%ADD142ROUNDEDRECTD142*%
G04:AMPARAMS|DCode=143|XSize=0.76mm|YSize=1.47mm|CornerRadius=0.17mm|HoleSize=0mm|Usage=FLASHONLY|Rotation=270.000|XOffset=0mm|YOffset=0mm|HoleType=Round|Shape=RoundedRectangle|*
%AMROUNDEDRECTD143*
21,1,0.76,1.14,0,0,270.0*
21,1,0.43,1.47,0,0,270.0*
1,1,0.34,-0.57,-0.21*
1,1,0.34,-0.57,0.21*
1,1,0.34,0.57,0.21*
1,1,0.34,0.57,-0.21*
%
%ADD143ROUNDEDRECTD143*%
G04:AMPARAMS|DCode=144|XSize=0.56mm|YSize=0.36mm|CornerRadius=0.09mm|HoleSize=0mm|Usage=FLASHONLY|Rotation=270.000|XOffset=0mm|YOffset=0mm|HoleType=Round|Shape=RoundedRectangle|*
%AMROUNDEDRECTD144*
21,1,0.56,0.18,0,0,270.0*
21,1,0.39,0.36,0,0,270.0*
1,1,0.17,-0.09,-0.19*
1,1,0.17,-0.09,0.19*
1,1,0.17,0.09,0.19*
1,1,0.17,0.09,-0.19*
%
%ADD144ROUNDEDRECTD144*%
%ADD145R,0.36X0.56*%
%ADD146R,0.51X1.75*%
%ADD147R,1.55X2.16*%
%ADD148R,2.44X1.96*%
%ADD149R,1.24X1.96*%
D17*
X7786Y9296D02*
D03*
X7866Y9296D02*
D03*
X9315Y9563D02*
D03*
X9395D02*
D03*
X10951Y11968D02*
D03*
X11031Y11968D02*
D03*
X11737Y13219D02*
D03*
X11657D02*
D03*
X10933Y12556D02*
D03*
X11013D02*
D03*
X12506Y12454D02*
D03*
X12426Y12454D02*
D03*
X11328Y13097D02*
D03*
X11248D02*
D03*
X11372Y13381D02*
D03*
X11452D02*
D03*
X11159Y9543D02*
D03*
X11239Y9543D02*
D03*
X11257Y14178D02*
D03*
X11177Y14178D02*
D03*
X14447Y10549D02*
D03*
X14367D02*
D03*
D51*
X8444Y10356D02*
D03*
X8284Y10356D02*
D03*
D52*
X8473Y10471D02*
D03*
X8473Y10551D02*
D03*
X9017Y10545D02*
D03*
X9017Y10465D02*
D03*
X11008Y11763D02*
D03*
Y11683D02*
D03*
X12151Y12729D02*
D03*
X12151Y12809D02*
D03*
X11133Y11551D02*
D03*
Y11631D02*
D03*
X11148Y11883D02*
D03*
X11148Y11963D02*
D03*
X11920Y12930D02*
D03*
X11920Y13010D02*
D03*
X11587Y11556D02*
D03*
X11587Y11636D02*
D03*
X12649Y12276D02*
D03*
X12649Y12196D02*
D03*
X11781Y11877D02*
D03*
X11781Y11957D02*
D03*
X11267Y11548D02*
D03*
X11267Y11628D02*
D03*
X11641Y9025D02*
D03*
X11641Y9105D02*
D03*
X12222Y9040D02*
D03*
Y9121D02*
D03*
X12545Y9560D02*
D03*
X12545Y9480D02*
D03*
X12774Y9613D02*
D03*
X12774Y9533D02*
D03*
X11293Y10237D02*
D03*
Y10317D02*
D03*
X11887Y15369D02*
D03*
Y15289D02*
D03*
X11346Y15544D02*
D03*
X11346Y15464D02*
D03*
X10782Y15043D02*
D03*
X10782Y15123D02*
D03*
X12352Y15139D02*
D03*
Y15219D02*
D03*
X12075Y14576D02*
D03*
X12075Y14496D02*
D03*
X14173Y10768D02*
D03*
Y10848D02*
D03*
D56*
X8188Y9027D02*
D03*
X8328Y9027D02*
D03*
D76*
X13985Y10872D02*
D03*
X13985Y10712D02*
D03*
X14600Y10905D02*
D03*
Y10745D02*
D03*
D95*
X7424Y11444D02*
D03*
X7323D02*
D03*
X7411Y12555D02*
D03*
X7310D02*
D03*
X7778Y9733D02*
D03*
X7879Y9733D02*
D03*
X9169Y9738D02*
D03*
X9068Y9738D02*
D03*
X11752Y13099D02*
D03*
X11651D02*
D03*
X11640Y12977D02*
D03*
X11539D02*
D03*
X11438Y13099D02*
D03*
X11539Y13099D02*
D03*
X11908Y12248D02*
D03*
X12009D02*
D03*
X10958Y12233D02*
D03*
X11059D02*
D03*
X12493Y12304D02*
D03*
X12393D02*
D03*
X12393Y12177D02*
D03*
X12494Y12177D02*
D03*
X11911Y12365D02*
D03*
X12012D02*
D03*
X11516Y12146D02*
D03*
X11415Y12146D02*
D03*
X11249Y9652D02*
D03*
X11148D02*
D03*
X12546Y9761D02*
D03*
X12647D02*
D03*
X11146Y9870D02*
D03*
X11247D02*
D03*
X12546Y9868D02*
D03*
X12647D02*
D03*
X11146Y10081D02*
D03*
X11247D02*
D03*
X11146Y9764D02*
D03*
X11247D02*
D03*
X11146Y9975D02*
D03*
X11247D02*
D03*
X12145Y15118D02*
D03*
X12245D02*
D03*
X12245Y15014D02*
D03*
X12144D02*
D03*
X12242Y15230D02*
D03*
X12141D02*
D03*
X12145Y14910D02*
D03*
X12245D02*
D03*
X11757Y13945D02*
D03*
X11656Y13945D02*
D03*
D96*
X9733Y9655D02*
D03*
Y9554D02*
D03*
X11920Y12678D02*
D03*
Y12779D02*
D03*
X12261Y12562D02*
D03*
Y12461D02*
D03*
X12037Y12709D02*
D03*
Y12609D02*
D03*
X11727Y11643D02*
D03*
Y11542D02*
D03*
X12151Y12610D02*
D03*
Y12510D02*
D03*
X12911Y10055D02*
D03*
Y9954D02*
D03*
X11427Y10553D02*
D03*
Y10452D02*
D03*
X11547Y10553D02*
D03*
Y10452D02*
D03*
X11669Y10453D02*
D03*
Y10554D02*
D03*
X11811Y10453D02*
D03*
Y10554D02*
D03*
X11674Y15567D02*
D03*
Y15466D02*
D03*
X11453Y14162D02*
D03*
Y14061D02*
D03*
X11580Y14165D02*
D03*
X11580Y14064D02*
D03*
X11775Y15567D02*
D03*
Y15466D02*
D03*
X11229Y15459D02*
D03*
Y15560D02*
D03*
X11107Y15562D02*
D03*
X11107Y15461D02*
D03*
X11575Y15562D02*
D03*
Y15461D02*
D03*
X13076Y12823D02*
D03*
Y12924D02*
D03*
Y12612D02*
D03*
Y12713D02*
D03*
Y12404D02*
D03*
Y12504D02*
D03*
Y12193D02*
D03*
Y12294D02*
D03*
D103*
X13551Y8984D02*
D03*
X13297D02*
D03*
X13551Y8730D02*
D03*
X13297D02*
D03*
X13551Y8476D02*
D03*
X13297D02*
D03*
X14257Y8984D02*
D03*
X14003D02*
D03*
X14257Y8730D02*
D03*
X14003D02*
D03*
X14257Y8476D02*
D03*
X14003D02*
D03*
X10023Y6784D02*
D03*
X14011Y7379D02*
D03*
D104*
X8204Y8204D02*
D03*
X14796Y8204D02*
D03*
X8204Y14796D02*
D03*
X14796D02*
D03*
D105*
X8741Y15094D02*
D03*
X10690Y16219D02*
D03*
D106*
X7409Y11621D02*
D03*
Y11540D02*
D03*
X7407Y12636D02*
D03*
Y12717D02*
D03*
X7409Y11580D02*
D03*
X7407Y12676D02*
D03*
D107*
X9850Y9642D02*
D03*
X9931D02*
D03*
X14247Y11379D02*
D03*
X14327D02*
D03*
X9891Y9642D02*
D03*
X14288Y11379D02*
D03*
D108*
X12913Y11227D02*
D03*
X15116Y11227D02*
D03*
X10089Y11227D02*
D03*
X7887D02*
D03*
D109*
X10508Y13170D02*
D03*
X7508D02*
D03*
X10508Y10170D02*
D03*
X7508D02*
D03*
X15535Y13170D02*
D03*
Y10170D02*
D03*
X12535Y13170D02*
D03*
Y10170D02*
D03*
D110*
X8987Y9020D02*
D03*
X8987Y9274D02*
D03*
X9241Y9020D02*
D03*
Y9274D02*
D03*
X9495Y9020D02*
D03*
X9495Y9274D02*
D03*
D111*
X10717Y8420D02*
D03*
D112*
X11762D02*
D03*
D113*
X11184Y6792D02*
D03*
X10676D02*
D03*
X11184Y7808D02*
D03*
X10676D02*
D03*
D114*
X8641Y7904D02*
D03*
D115*
X11378Y12449D02*
D03*
X11488D02*
D03*
X11598D02*
D03*
X11378Y12559D02*
D03*
X11488D02*
D03*
X11598D02*
D03*
X11378Y12669D02*
D03*
X11488D02*
D03*
X11598D02*
D03*
D116*
X14135Y10132D02*
D03*
X14762Y10112D02*
D03*
X13495Y10130D02*
D03*
D117*
X7282Y8956D02*
G03*
X7282Y8956I-91J0D01*
G01*
X15791Y9200D02*
G03*
X15791Y9200I-91J0D01*
G01*
D118*
X9220Y12048D02*
D03*
X9420D02*
D03*
X9620D02*
D03*
X9020Y12048D02*
D03*
X8819D02*
D03*
X8618D02*
D03*
X8420D02*
D03*
X9010Y14048D02*
D03*
X9210D02*
D03*
X9420D02*
D03*
X9620D02*
D03*
X8800D02*
D03*
X8600D02*
D03*
D119*
X10195Y12342D02*
D03*
Y12542D02*
D03*
Y12742D02*
D03*
Y12942D02*
D03*
Y13142D02*
D03*
Y13343D02*
D03*
X7895Y12342D02*
D03*
Y12542D02*
D03*
X7895Y12742D02*
D03*
X7895Y12942D02*
D03*
Y13142D02*
D03*
Y13343D02*
D03*
D120*
X7328Y11580D02*
D03*
X7489D02*
D03*
X7487Y12676D02*
D03*
X7325D02*
D03*
D121*
X9891Y9561D02*
D03*
X9891Y9722D02*
D03*
X14288Y11298D02*
D03*
X14288Y11459D02*
D03*
D122*
X7191Y8956D02*
D03*
D123*
X15700Y9200D02*
D03*
D124*
X9294Y9749D02*
D03*
X9445Y9749D02*
D03*
X12118Y12332D02*
D03*
X12270Y12332D02*
D03*
X11052Y9850D02*
D03*
X10900D02*
D03*
X11052Y10003D02*
D03*
X10900D02*
D03*
X11052Y10155D02*
D03*
X10900D02*
D03*
X11867Y13955D02*
D03*
X12018D02*
D03*
D125*
X8201Y10115D02*
D03*
X8281D02*
D03*
X8361Y10115D02*
D03*
X8441Y10115D02*
D03*
X8521D02*
D03*
X8601D02*
D03*
X8681Y10115D02*
D03*
X8761Y10115D02*
D03*
Y9275D02*
D03*
X8681D02*
D03*
X8601D02*
D03*
X8521Y9275D02*
D03*
X8441Y9275D02*
D03*
X8361D02*
D03*
X8281Y9275D02*
D03*
X8201Y9275D02*
D03*
D126*
X8901Y9975D02*
D03*
X8901Y9895D02*
D03*
Y9815D02*
D03*
X8901Y9735D02*
D03*
X8901Y9655D02*
D03*
X8901Y9575D02*
D03*
X8901Y9495D02*
D03*
Y9415D02*
D03*
X8061Y9415D02*
D03*
Y9495D02*
D03*
Y9575D02*
D03*
Y9655D02*
D03*
Y9735D02*
D03*
Y9815D02*
D03*
Y9895D02*
D03*
Y9975D02*
D03*
D127*
X8659Y10621D02*
D03*
X8659Y10399D02*
D03*
X8830Y10621D02*
D03*
X8830Y10399D02*
D03*
D128*
X11213Y12559D02*
D03*
X11763Y12759D02*
D03*
Y12709D02*
D03*
X11763Y12659D02*
D03*
X11763Y12609D02*
D03*
X11763Y12559D02*
D03*
Y12509D02*
D03*
X11763Y12459D02*
D03*
X11763Y12409D02*
D03*
X11763Y12359D02*
D03*
X11213Y12759D02*
D03*
Y12709D02*
D03*
X11213Y12609D02*
D03*
X11213Y12659D02*
D03*
Y12509D02*
D03*
Y12459D02*
D03*
X11213Y12409D02*
D03*
X11213Y12359D02*
D03*
D129*
X11288Y12834D02*
D03*
X11338Y12834D02*
D03*
X11388Y12834D02*
D03*
X11438D02*
D03*
X11488Y12834D02*
D03*
X11538Y12834D02*
D03*
X11588D02*
D03*
X11638Y12834D02*
D03*
X11688Y12834D02*
D03*
X11688Y12284D02*
D03*
X11638Y12284D02*
D03*
X11488Y12284D02*
D03*
X11438D02*
D03*
X11388D02*
D03*
X11338Y12284D02*
D03*
X11288Y12284D02*
D03*
X11538D02*
D03*
X11588D02*
D03*
D130*
X11488Y12559D02*
D03*
D131*
X11576Y11993D02*
D03*
X11354Y11993D02*
D03*
X11576Y11822D02*
D03*
X11354D02*
D03*
D132*
X12486Y11540D02*
D03*
X12361Y11540D02*
D03*
X12235Y11540D02*
D03*
X12111Y11540D02*
D03*
X9883Y9392D02*
D03*
X10008D02*
D03*
X10134D02*
D03*
X10258D02*
D03*
D133*
X12681Y11855D02*
D03*
X11915Y11855D02*
D03*
X9688Y9077D02*
D03*
X10454Y9077D02*
D03*
D134*
X12041Y10571D02*
D03*
X11991D02*
D03*
X11941D02*
D03*
Y10435D02*
D03*
X11991D02*
D03*
X12041D02*
D03*
D135*
X12296Y9509D02*
D03*
Y9559D02*
D03*
Y9609D02*
D03*
X12296Y9659D02*
D03*
X12296Y9709D02*
D03*
Y9759D02*
D03*
Y9809D02*
D03*
X12296Y9859D02*
D03*
X12296Y9909D02*
D03*
Y9959D02*
D03*
Y10009D02*
D03*
Y10059D02*
D03*
X11486D02*
D03*
X11486Y10009D02*
D03*
Y9959D02*
D03*
Y9909D02*
D03*
Y9859D02*
D03*
Y9809D02*
D03*
Y9759D02*
D03*
Y9709D02*
D03*
X11486Y9659D02*
D03*
Y9609D02*
D03*
X11486Y9559D02*
D03*
X11486Y9509D02*
D03*
X11881Y14543D02*
D03*
Y14593D02*
D03*
Y14643D02*
D03*
Y14693D02*
D03*
Y14743D02*
D03*
Y14793D02*
D03*
Y14843D02*
D03*
Y14893D02*
D03*
Y14943D02*
D03*
Y14993D02*
D03*
Y15043D02*
D03*
Y15093D02*
D03*
X11071D02*
D03*
X11071Y15043D02*
D03*
Y14993D02*
D03*
X11071Y14943D02*
D03*
Y14893D02*
D03*
X11071Y14843D02*
D03*
X11071Y14793D02*
D03*
Y14743D02*
D03*
Y14693D02*
D03*
Y14643D02*
D03*
Y14593D02*
D03*
X11071Y14543D02*
D03*
D136*
X12166Y10189D02*
D03*
X12116D02*
D03*
X12066D02*
D03*
X12016D02*
D03*
X11966D02*
D03*
X11916D02*
D03*
X11866D02*
D03*
X11816D02*
D03*
X11766D02*
D03*
X11716D02*
D03*
X11666D02*
D03*
X11616D02*
D03*
X11616Y9379D02*
D03*
X11666D02*
D03*
X11716D02*
D03*
X11766D02*
D03*
X11816Y9379D02*
D03*
X11866Y9379D02*
D03*
X11916D02*
D03*
X11966D02*
D03*
X12016D02*
D03*
X12066D02*
D03*
X12116D02*
D03*
X12166Y9379D02*
D03*
X11201Y14413D02*
D03*
X11251D02*
D03*
X11301Y14413D02*
D03*
X11351D02*
D03*
X11401Y14413D02*
D03*
X11451D02*
D03*
X11501Y14413D02*
D03*
X11551D02*
D03*
X11601D02*
D03*
X11651D02*
D03*
X11701D02*
D03*
X11751D02*
D03*
Y15223D02*
D03*
X11701D02*
D03*
X11651D02*
D03*
X11601D02*
D03*
X11551D02*
D03*
X11501D02*
D03*
X11451Y15223D02*
D03*
X11401Y15223D02*
D03*
X11351D02*
D03*
X11301D02*
D03*
X11251D02*
D03*
X11201Y15223D02*
D03*
D137*
X12903Y10165D02*
D03*
Y10316D02*
D03*
X11532Y15672D02*
D03*
Y15823D02*
D03*
X11824Y15677D02*
D03*
X11824Y15828D02*
D03*
X11676Y15682D02*
D03*
Y15833D02*
D03*
D138*
X11811Y9055D02*
D03*
X11933D02*
D03*
X12053D02*
D03*
D139*
X12263Y14669D02*
D03*
Y14719D02*
D03*
Y14770D02*
D03*
X12127D02*
D03*
Y14719D02*
D03*
X12127Y14669D02*
D03*
D140*
X10747Y14897D02*
D03*
Y14775D02*
D03*
Y14655D02*
D03*
D141*
X7134Y12555D02*
D03*
Y12430D02*
D03*
Y12304D02*
D03*
Y12179D02*
D03*
X7152Y11437D02*
D03*
Y11312D02*
D03*
Y11186D02*
D03*
Y11062D02*
D03*
D142*
X6819Y12750D02*
D03*
X6819Y11984D02*
D03*
X6837Y11632D02*
D03*
Y10866D02*
D03*
D143*
X14364Y10848D02*
D03*
D144*
X14288Y10767D02*
D03*
X14338D02*
D03*
X14389Y10767D02*
D03*
X14439Y10767D02*
D03*
Y10928D02*
D03*
X14389D02*
D03*
X14338D02*
D03*
D145*
X14288D02*
D03*
D146*
X12532Y8567D02*
D03*
X12598D02*
D03*
X12467D02*
D03*
X12402D02*
D03*
X12664D02*
D03*
D147*
X12784Y8517D02*
D03*
X12282D02*
D03*
D148*
X12830Y8285D02*
D03*
X12237Y8285D02*
D03*
D149*
X12449Y8285D02*
D03*
X12616D02*
D03*
M02*
