G04 Layer_Physical_Order=3*
G04 Layer_Color=16440176*
%FSLAX42Y42*%
%MOMM*%
G71*
G01*
G75*
%ADD23C,1.00*%
%ADD24C,0.25*%
%ADD25C,0.15*%
%ADD27C,0.38*%
%ADD32R,0.41X0.41*%
%ADD35C,2.21*%
%ADD40C,1.27*%
%ADD41C,0.50*%
%ADD42C,0.45*%
D23*
X8911Y12668D02*
X8959Y12715D01*
X6837Y11486D02*
X6931Y11580D01*
X7409D01*
X6936Y12676D02*
X7407D01*
X6845Y12586D02*
X6936Y12676D01*
X10716Y11476D02*
X10785Y11544D01*
X9540Y11476D02*
X10716D01*
X9251Y11499D02*
Y11768D01*
X8899Y12048D02*
X8970D01*
X9233Y11786D01*
X9251Y11768D01*
X14115Y11511D02*
X14288D01*
X7582Y12697D02*
X7630D01*
X7506Y11725D02*
X7628Y11847D01*
Y12652D01*
X7650Y12629D01*
X7652Y12704D02*
X7687Y12668D01*
X8911D01*
X7650Y12629D02*
Y12708D01*
X8669Y8781D02*
X8819Y8631D01*
X8031Y8781D02*
X8669D01*
X7023Y9789D02*
X8031Y8781D01*
X7023Y9789D02*
Y10478D01*
X7422Y10876D01*
X9091D01*
X9540Y11326D01*
Y11476D01*
D24*
X8281Y10227D02*
X8288Y10234D01*
X12064Y12200D02*
X12235D01*
X12006Y12259D02*
X12064Y12200D01*
X11806Y12259D02*
X12006D01*
X11750Y12313D02*
X11851Y12414D01*
X11750Y11806D02*
Y12313D01*
X7508Y13170D02*
Y13182D01*
X8805Y10988D02*
Y11693D01*
X8687Y11811D02*
X8805Y11693D01*
X8868Y10988D02*
Y11701D01*
X8725Y11844D02*
X8868Y11701D01*
X8725Y11844D02*
Y12057D01*
X10683Y14016D01*
X8687Y11811D02*
Y12090D01*
X10648Y14051D01*
X11200Y14535D02*
Y14564D01*
X10683Y14016D02*
Y14018D01*
X11200Y14535D01*
Y14564D02*
X11455Y14818D01*
X10648Y14051D02*
X10650D01*
X11162Y14564D01*
Y14580D01*
X11451Y14868D01*
X11709Y14806D02*
Y14818D01*
X11455D02*
X11709D01*
X11451Y14868D02*
X11658D01*
X11659Y14869D01*
X12289Y15029D02*
X12342D01*
X12220Y14961D02*
X12289Y15029D01*
X12220Y14722D02*
Y14961D01*
X11849Y14351D02*
X12220Y14722D01*
X11849Y13924D02*
Y14351D01*
X10742Y12817D02*
X11849Y13924D01*
X12616Y12931D02*
X12766Y12781D01*
X11686Y12931D02*
X12616D01*
X11572Y13046D02*
X11686Y12931D01*
X11133Y13046D02*
X11572D01*
X10752Y12664D02*
X11133Y13046D01*
X10570Y12664D02*
X10752D01*
X9848Y11942D02*
X10570Y12664D01*
X9848Y11796D02*
Y11942D01*
X9624Y11572D02*
X9848Y11796D01*
X9418Y11572D02*
X9624D01*
X10239Y12558D02*
X10498Y12817D01*
X10742D01*
X10434Y9764D02*
X11062D01*
X9743Y10761D02*
X9818Y10686D01*
X11296D01*
X9698Y10717D02*
X9780Y10635D01*
X11293D01*
X11296Y10686D02*
X11570Y10411D01*
X11293Y10635D02*
X11600Y10328D01*
X11916Y10289D02*
Y10314D01*
X11902Y10328D02*
X11916Y10314D01*
X11600Y10328D02*
X11902D01*
X11570Y10411D02*
X11872D01*
X11877Y10406D01*
X11547Y10630D02*
Y11059D01*
X10376Y12230D02*
X11547Y11059D01*
X9418Y11511D02*
Y11572D01*
X8999Y11382D02*
X9289D01*
X9418Y11511D01*
X9233Y11786D02*
X9766D01*
D25*
X9615Y7468D02*
X9619Y7473D01*
X9711Y7456D02*
X9712Y7455D01*
D27*
X12327Y14671D02*
Y14905D01*
X11811Y10665D02*
X11839Y10693D01*
X12022D01*
X12047Y10719D01*
D32*
X7409Y11580D02*
D03*
X7407Y12676D02*
D03*
D35*
X7508Y13170D02*
D03*
D40*
X14115Y11511D02*
D03*
D41*
X8281Y10227D02*
D03*
X12235Y12200D02*
D03*
X11806Y12259D02*
D03*
X11851Y12414D02*
D03*
X12220Y14722D02*
D03*
X8899Y12048D02*
D03*
X9766Y11786D02*
D03*
X11750Y11806D02*
D03*
X12327Y14905D02*
D03*
Y14671D02*
D03*
X11811Y10665D02*
D03*
X12047Y10719D02*
D03*
X8959Y12715D02*
D03*
X7506Y11725D02*
D03*
X6837Y11486D02*
D03*
X6845Y12586D02*
D03*
X8805Y10988D02*
D03*
X8868D02*
D03*
X11709Y14806D02*
D03*
X11659Y14869D02*
D03*
X12342Y15029D02*
D03*
X10239Y12558D02*
D03*
X12766Y12781D02*
D03*
X9418Y11572D02*
D03*
X8999Y11382D02*
D03*
X10785Y11544D02*
D03*
X9540Y11476D02*
D03*
X10434Y9764D02*
D03*
X11062D02*
D03*
X9698Y10717D02*
D03*
X9743Y10761D02*
D03*
X11916Y10289D02*
D03*
X11877Y10406D02*
D03*
X11547Y10630D02*
D03*
X10376Y12230D02*
D03*
X14288Y11511D02*
D03*
X9251Y11499D02*
D03*
X7630Y12697D02*
D03*
X8819Y8631D02*
D03*
D42*
X9711Y7456D02*
D03*
X9619Y7473D02*
D03*
M02*
