G04 Layer_Physical_Order=4*
G04 Layer_Color=16711680*
%FSAX42Y42*%
%MOMM*%
G71*
G01*
G75*
%ADD23C,0.25*%
%ADD24C,1.80*%
%ADD25C,4.10*%
%ADD26C,1.50*%
%ADD28C,0.45*%
%ADD29C,1.27*%
G36*
X013432Y007396D02*
Y006669D01*
X013375D01*
X013365Y006665D01*
X013361Y006655D01*
Y006643D01*
X013032D01*
Y006655D01*
X013028Y006665D01*
X013019Y006669D01*
X012965D01*
Y007371D01*
X012966Y007381D01*
X012970Y007390D01*
X012975Y007397D01*
X012988Y007407D01*
X013003Y007413D01*
X013020Y007415D01*
X013414D01*
X013432Y007396D01*
D02*
G37*
G36*
X005974Y007636D02*
X006025Y007618D01*
X006072Y007591D01*
X006112Y007556D01*
X006146Y007514D01*
X006172Y007467D01*
X006189Y007415D01*
X006196Y007360D01*
X006197Y007358D01*
X006197Y007356D01*
X006198Y007355D01*
X006198Y007354D01*
X006199Y007353D01*
X006201Y007351D01*
X006202Y007350D01*
X006202Y007349D01*
X006204Y007348D01*
X006206Y007347D01*
X006207Y007347D01*
X006208Y007346D01*
X006210Y007346D01*
X006213Y007346D01*
X007288Y007346D01*
X007290Y007346D01*
X007292Y007346D01*
X007293Y007347D01*
X007294Y007347D01*
X007296Y007348D01*
X007298Y007349D01*
X007299Y007350D01*
X007300Y007351D01*
X007301Y007353D01*
X007302Y007354D01*
X007303Y007355D01*
X007303Y007356D01*
X007304Y007358D01*
X007304Y007360D01*
X007312Y007415D01*
X007328Y007466D01*
X007354Y007513D01*
X007388Y007555D01*
X007428Y007590D01*
X007475Y007617D01*
X007525Y007635D01*
X007578Y007643D01*
X007632Y007642D01*
X007684Y007632D01*
X007734Y007612D01*
X007779Y007583D01*
X007819Y007547D01*
X007851Y007504D01*
X007875Y007456D01*
X007889Y007404D01*
X007894Y007356D01*
X007894Y007356D01*
X007894Y007355D01*
X007893Y007354D01*
X007893Y007354D01*
X007893Y007353D01*
X007893Y007353D01*
X007893Y007352D01*
X007893Y007351D01*
X007893Y007351D01*
X007893Y007350D01*
X007893Y007350D01*
X007893Y007349D01*
X007893Y007349D01*
X007893Y007348D01*
X007893Y007347D01*
X007893Y007347D01*
X007893Y007346D01*
X007893Y007346D01*
X007893Y007345D01*
X007893Y007345D01*
X007893Y007344D01*
X007894Y007343D01*
X007894Y007343D01*
X007894Y007342D01*
X007889Y007292D01*
X007873Y007238D01*
X007847Y007188D01*
X007812Y007144D01*
X007769Y007108D01*
X007720Y007080D01*
X007667Y007062D01*
X007610Y007054D01*
X007608Y007053D01*
X007606Y007053D01*
X007605Y007052D01*
X007604Y007052D01*
X007602Y007051D01*
X007600Y007049D01*
X007600Y007048D01*
X007599Y007048D01*
X007598Y007046D01*
X007597Y007044D01*
X007596Y007043D01*
X007596Y007042D01*
X007596Y007040D01*
X007595Y007037D01*
Y006736D01*
X007595Y006736D01*
X007595Y006735D01*
X007595Y006734D01*
X007594Y006734D01*
X007594Y006733D01*
X007594Y006733D01*
X007594Y006732D01*
X007594Y006732D01*
X007594Y006731D01*
X007594Y006730D01*
X007593Y006730D01*
X007594Y006729D01*
X007593Y006729D01*
X007594Y006728D01*
X007593Y006727D01*
X007594Y006727D01*
X007593Y006726D01*
X007594Y006726D01*
X007594Y006725D01*
X007594Y006725D01*
X007594Y006724D01*
X007594Y006723D01*
X007594Y006723D01*
X007594Y006722D01*
X007594Y006722D01*
X007595Y006721D01*
X007595Y006721D01*
X007595Y006720D01*
X007595Y006719D01*
X007596Y006719D01*
X007596Y006719D01*
X007596Y006718D01*
X007597Y006718D01*
X007597Y006717D01*
X007597Y006717D01*
X007598Y006716D01*
X007598Y006716D01*
X007598Y006700D01*
X007598Y006700D01*
Y006655D01*
X007598Y006654D01*
X007597Y006285D01*
X007597Y006285D01*
X007597Y006285D01*
X007597Y006285D01*
X007596Y006284D01*
X007596Y006284D01*
X007596Y006283D01*
X007596Y006283D01*
X007595Y006282D01*
X007595Y006281D01*
X007595Y006281D01*
X007594Y006280D01*
X007594Y006280D01*
X007594Y006279D01*
X007594Y006279D01*
X007594Y006278D01*
X007594Y006277D01*
X007594Y006277D01*
X007594Y006276D01*
X007594Y006276D01*
X007594Y006275D01*
X007594Y006275D01*
X007594Y006274D01*
X007594Y006273D01*
X007594Y006273D01*
X007594Y006272D01*
X007594Y006272D01*
X007594Y006271D01*
X007594Y006271D01*
X007594Y006270D01*
X007594Y006269D01*
X007594Y006269D01*
X007594Y006268D01*
X007595Y006268D01*
X007595Y006267D01*
X007595Y006267D01*
X007595Y006266D01*
Y005962D01*
X007596Y005960D01*
X007596Y005958D01*
X007596Y005957D01*
X007597Y005956D01*
X007598Y005954D01*
X007599Y005952D01*
X007600Y005951D01*
X007600Y005950D01*
X007602Y005949D01*
X007604Y005948D01*
X007605Y005947D01*
X007606Y005947D01*
X007608Y005946D01*
X007610Y005946D01*
X007667Y005938D01*
X007720Y005920D01*
X007769Y005892D01*
X007812Y005856D01*
X007847Y005812D01*
X007873Y005762D01*
X007889Y005708D01*
X007894Y005657D01*
X007894Y005657D01*
X007894Y005657D01*
X007894Y005656D01*
X007893Y005655D01*
X007893Y005655D01*
X007893Y005654D01*
X007893Y005654D01*
X007893Y005653D01*
X007893Y005652D01*
X007893Y005652D01*
X007893Y005651D01*
X007893Y005651D01*
X007893Y005650D01*
X007893Y005650D01*
X007893Y005649D01*
X007893Y005648D01*
X007893Y005647D01*
X007893Y005647D01*
X007893Y005646D01*
X007893Y005646D01*
X007894Y005646D01*
X007894Y005645D01*
X007894Y005644D01*
X007894Y005644D01*
X007889Y005595D01*
X007875Y005544D01*
X007851Y005496D01*
X007819Y005453D01*
X007779Y005417D01*
X007734Y005388D01*
X007684Y005368D01*
X007632Y005357D01*
X007578Y005356D01*
X007525Y005365D01*
X007475Y005383D01*
X007428Y005410D01*
X007388Y005445D01*
X007354Y005487D01*
X007328Y005534D01*
X007312Y005585D01*
X007304Y005639D01*
X007304Y005641D01*
X007303Y005644D01*
X007303Y005645D01*
X007302Y005646D01*
X007301Y005647D01*
X007300Y005649D01*
X007299Y005650D01*
X007298Y005651D01*
X007296Y005652D01*
X007294Y005653D01*
X007293Y005653D01*
X007292Y005653D01*
X007290Y005654D01*
X007288Y005654D01*
X006213D01*
X006210Y005654D01*
X006208Y005653D01*
X006207Y005653D01*
X006206Y005653D01*
X006204Y005652D01*
X006202Y005651D01*
X006202Y005650D01*
X006201Y005649D01*
X006199Y005647D01*
X006198Y005646D01*
X006198Y005645D01*
X006197Y005644D01*
X006197Y005641D01*
X006196Y005639D01*
X006189Y005584D01*
X006172Y005533D01*
X006146Y005486D01*
X006112Y005444D01*
X006072Y005409D01*
X006025Y005382D01*
X005974Y005364D01*
X005921Y005355D01*
X005867Y005356D01*
X005814Y005367D01*
X005764Y005387D01*
X005719Y005416D01*
X005680Y005453D01*
X005647Y005496D01*
X005624Y005544D01*
X005609Y005596D01*
X005604Y005650D01*
X005610Y005706D01*
X005626Y005760D01*
X005652Y005810D01*
X005687Y005855D01*
X005730Y005892D01*
X005779Y005920D01*
X005832Y005938D01*
X005890Y005946D01*
X005892Y005946D01*
X005894Y005947D01*
X005895Y005947D01*
X005896Y005948D01*
X005898Y005949D01*
X005899Y005950D01*
X005900Y005951D01*
X005901Y005952D01*
X005902Y005954D01*
X005903Y005956D01*
X005903Y005957D01*
X005904Y005958D01*
X005904Y005960D01*
X005904Y005962D01*
Y007037D01*
X005904Y007040D01*
X005904Y007042D01*
X005903Y007043D01*
X005903Y007044D01*
X005902Y007046D01*
X005901Y007048D01*
X005900Y007048D01*
X005899Y007049D01*
X005898Y007051D01*
X005896Y007052D01*
X005895Y007052D01*
X005894Y007053D01*
X005892Y007053D01*
X005890Y007054D01*
X005832Y007062D01*
X005779Y007080D01*
X005730Y007108D01*
X005687Y007145D01*
X005652Y007189D01*
X005626Y007240D01*
X005610Y007294D01*
X005604Y007350D01*
X005609Y007404D01*
X005624Y007455D01*
X005647Y007504D01*
X005680Y007547D01*
X005719Y007584D01*
X005764Y007613D01*
X005814Y007633D01*
X005867Y007644D01*
X005921Y007645D01*
X005974Y007636D01*
D02*
G37*
G36*
X013251Y008227D02*
X013300Y008210D01*
X013345Y008182D01*
X013382Y008145D01*
X013409Y008101D01*
X013427Y008052D01*
X013432Y007999D01*
Y007770D01*
X013411Y007749D01*
X012897D01*
X012896Y007748D01*
X012895Y007748D01*
X012839Y007743D01*
X012838Y007742D01*
X012836Y007742D01*
X012782Y007726D01*
X012781Y007725D01*
X012779Y007725D01*
X012730Y007698D01*
X012728Y007697D01*
X012727Y007696D01*
X012684Y007661D01*
X012683Y007660D01*
X012682Y007660D01*
X012675Y007652D01*
X012674Y007651D01*
X012673Y007650D01*
X012633Y007598D01*
X012632Y007596D01*
X012631Y007595D01*
X012606Y007534D01*
X012606Y007532D01*
X012605Y007530D01*
X012596Y007465D01*
X012596Y007464D01*
X012596Y007462D01*
Y005971D01*
X012596Y005970D01*
X012596Y005969D01*
X012600Y005942D01*
X012601Y005940D01*
X012601Y005938D01*
X012611Y005913D01*
X012613Y005911D01*
X012614Y005909D01*
X012630Y005888D01*
X012632Y005886D01*
X012633Y005884D01*
X012669Y005857D01*
X012671Y005856D01*
X012673Y005855D01*
X012715Y005837D01*
X012717Y005837D01*
X012719Y005836D01*
X012764Y005830D01*
X012765Y005830D01*
X012766Y005830D01*
X012789D01*
X012790Y005830D01*
X012791Y005830D01*
X012833Y005836D01*
X012835Y005837D01*
X012838Y005837D01*
X012877Y005854D01*
X012879Y005855D01*
X012881Y005856D01*
X012915Y005882D01*
X012917Y005884D01*
X012918Y005885D01*
X012942Y005916D01*
X012943Y005918D01*
X012944Y005919D01*
X012956Y005948D01*
X013019D01*
X013028Y005952D01*
X013032Y005961D01*
Y005970D01*
X013361D01*
Y005944D01*
X013365Y005935D01*
X013375Y005931D01*
X013432D01*
Y005001D01*
X013427Y004948D01*
X013409Y004899D01*
X013382Y004855D01*
X013345Y004818D01*
X013300Y004790D01*
X013251Y004773D01*
X013198Y004767D01*
X012456D01*
X012367Y004856D01*
X012362Y004860D01*
X012355Y004861D01*
X011043D01*
X011037Y004860D01*
X011032Y004856D01*
X010942Y004767D01*
X010200D01*
X010147Y004773D01*
X010098Y004790D01*
X010054Y004818D01*
X010017Y004855D01*
X009989Y004899D01*
X009972Y004948D01*
X009966Y005001D01*
Y005643D01*
X010106Y005783D01*
X011557D01*
X011564Y005784D01*
X011569Y005788D01*
X011802Y006021D01*
X011806Y006026D01*
X011807Y006032D01*
Y006300D01*
X011806Y006306D01*
X011803Y006310D01*
Y006350D01*
X011801Y006355D01*
X011800Y006685D01*
X011804Y006688D01*
X011808Y006693D01*
X011809Y006700D01*
Y006957D01*
X011808Y006963D01*
X011804Y006969D01*
X011561Y007212D01*
X011556Y007215D01*
X011549Y007217D01*
X010106D01*
X009966Y007357D01*
Y007999D01*
X009972Y008052D01*
X009989Y008101D01*
X010017Y008145D01*
X010054Y008182D01*
X010098Y008210D01*
X010147Y008227D01*
X010200Y008233D01*
X010942D01*
X011032Y008144D01*
X011037Y008140D01*
X011043Y008139D01*
X012355D01*
X012362Y008140D01*
X012367Y008144D01*
X012456Y008233D01*
X013198D01*
X013251Y008227D01*
D02*
G37*
%LPC*%
G36*
X006426Y006325D02*
X006172D01*
Y006071D01*
X006426D01*
Y006325D01*
D02*
G37*
G36*
X007315Y006304D02*
X006883D01*
Y006088D01*
X007315D01*
Y006304D01*
D02*
G37*
G36*
X012446Y006160D02*
X012426Y006158D01*
X012408Y006150D01*
X012392Y006138D01*
X012379Y006122D01*
X012372Y006103D01*
X012369Y006083D01*
X012372Y006063D01*
X012379Y006045D01*
X012392Y006029D01*
X012408Y006017D01*
X012426Y006009D01*
X012446Y006006D01*
X012466Y006009D01*
X012484Y006017D01*
X012500Y006029D01*
X012513Y006045D01*
X012520Y006063D01*
X012523Y006083D01*
X012520Y006103D01*
X012513Y006122D01*
X012500Y006138D01*
X012484Y006150D01*
X012466Y006158D01*
X012446Y006160D01*
D02*
G37*
G36*
X012192Y006165D02*
X012172Y006163D01*
X012154Y006155D01*
X012138Y006143D01*
X012125Y006127D01*
X012118Y006108D01*
X012115Y006088D01*
X012118Y006068D01*
X012125Y006050D01*
X012138Y006034D01*
X012154Y006022D01*
X012172Y006014D01*
X012192Y006012D01*
X012212Y006014D01*
X012230Y006022D01*
X012246Y006034D01*
X012259Y006050D01*
X012266Y006068D01*
X012269Y006088D01*
X012266Y006108D01*
X012259Y006127D01*
X012246Y006143D01*
X012230Y006155D01*
X012212Y006163D01*
X012192Y006165D01*
D02*
G37*
G36*
X011938Y006170D02*
X011918Y006168D01*
X011900Y006160D01*
X011884Y006148D01*
X011871Y006132D01*
X011864Y006113D01*
X011861Y006093D01*
X011864Y006074D01*
X011871Y006055D01*
X011884Y006039D01*
X011900Y006027D01*
X011918Y006019D01*
X011938Y006017D01*
X011958Y006019D01*
X011976Y006027D01*
X011992Y006039D01*
X012005Y006055D01*
X012012Y006074D01*
X012015Y006093D01*
X012012Y006113D01*
X012005Y006132D01*
X011992Y006148D01*
X011976Y006160D01*
X011958Y006168D01*
X011938Y006170D01*
D02*
G37*
G36*
X007445Y006345D02*
X007431Y006343D01*
X007419Y006335D01*
X007412Y006323D01*
X007409Y006309D01*
X007412Y006296D01*
X007419Y006284D01*
X007431Y006276D01*
X007445Y006273D01*
X007458Y006276D01*
X007470Y006284D01*
X007478Y006296D01*
X007481Y006309D01*
X007478Y006323D01*
X007470Y006335D01*
X007458Y006343D01*
X007445Y006345D01*
D02*
G37*
G36*
X006840Y006449D02*
X006826Y006447D01*
X006815Y006439D01*
X006807Y006427D01*
X006804Y006414D01*
X006807Y006400D01*
X006815Y006388D01*
X006826Y006380D01*
X006840Y006378D01*
X006854Y006380D01*
X006866Y006388D01*
X006873Y006400D01*
X006876Y006414D01*
X006873Y006427D01*
X006866Y006439D01*
X006854Y006447D01*
X006840Y006449D01*
D02*
G37*
G36*
X012446Y006427D02*
X012426Y006424D01*
X012408Y006417D01*
X012392Y006404D01*
X012379Y006388D01*
X012372Y006370D01*
X012369Y006350D01*
X012372Y006330D01*
X012379Y006312D01*
X012392Y006296D01*
X012408Y006283D01*
X012426Y006276D01*
X012446Y006273D01*
X012466Y006276D01*
X012484Y006283D01*
X012500Y006296D01*
X012513Y006312D01*
X012520Y006330D01*
X012523Y006350D01*
X012520Y006370D01*
X012513Y006388D01*
X012500Y006404D01*
X012484Y006417D01*
X012466Y006424D01*
X012446Y006427D01*
D02*
G37*
G36*
X011938D02*
X011918Y006424D01*
X011900Y006417D01*
X011884Y006404D01*
X011871Y006388D01*
X011864Y006370D01*
X011861Y006350D01*
X011864Y006330D01*
X011871Y006312D01*
X011884Y006296D01*
X011900Y006283D01*
X011918Y006276D01*
X011938Y006273D01*
X011958Y006276D01*
X011976Y006283D01*
X011992Y006296D01*
X012005Y006312D01*
X012012Y006330D01*
X012015Y006350D01*
X012012Y006370D01*
X012005Y006388D01*
X011992Y006404D01*
X011976Y006417D01*
X011958Y006424D01*
X011938Y006427D01*
D02*
G37*
G36*
X012191D02*
X012171Y006424D01*
X012153Y006417D01*
X012137Y006404D01*
X012125Y006388D01*
X012117Y006370D01*
X012114Y006350D01*
X012117Y006330D01*
X012125Y006312D01*
X012137Y006296D01*
X012153Y006283D01*
X012171Y006276D01*
X012191Y006273D01*
X012211Y006276D01*
X012230Y006283D01*
X012245Y006296D01*
X012258Y006312D01*
X012265Y006330D01*
X012268Y006350D01*
X012265Y006370D01*
X012258Y006388D01*
X012245Y006404D01*
X012230Y006417D01*
X012211Y006424D01*
X012191Y006427D01*
D02*
G37*
G36*
X011938Y005911D02*
X011918Y005909D01*
X011900Y005901D01*
X011884Y005889D01*
X011871Y005873D01*
X011864Y005854D01*
X011861Y005835D01*
X011864Y005815D01*
X011871Y005796D01*
X011884Y005780D01*
X011900Y005768D01*
X011918Y005760D01*
X011938Y005758D01*
X011958Y005760D01*
X011976Y005768D01*
X011992Y005780D01*
X012005Y005796D01*
X012012Y005815D01*
X012015Y005835D01*
X012012Y005854D01*
X012005Y005873D01*
X011992Y005889D01*
X011976Y005901D01*
X011958Y005909D01*
X011938Y005911D01*
D02*
G37*
G36*
X012192D02*
X012172Y005909D01*
X012154Y005901D01*
X012138Y005889D01*
X012125Y005873D01*
X012118Y005854D01*
X012115Y005835D01*
X012118Y005815D01*
X012125Y005796D01*
X012138Y005780D01*
X012154Y005768D01*
X012172Y005760D01*
X012192Y005758D01*
X012212Y005760D01*
X012230Y005768D01*
X012246Y005780D01*
X012259Y005796D01*
X012266Y005815D01*
X012269Y005835D01*
X012266Y005854D01*
X012259Y005873D01*
X012246Y005889D01*
X012230Y005901D01*
X012212Y005909D01*
X012192Y005911D01*
D02*
G37*
G36*
X005900Y005754D02*
X005874Y005751D01*
X005849Y005740D01*
X005827Y005724D01*
X005811Y005702D01*
X005800Y005678D01*
X005797Y005651D01*
X005800Y005624D01*
X005811Y005599D01*
X005827Y005577D01*
X005849Y005561D01*
X005874Y005551D01*
X005900Y005547D01*
X005927Y005551D01*
X005952Y005561D01*
X005974Y005577D01*
X005990Y005599D01*
X006000Y005624D01*
X006004Y005651D01*
X006000Y005678D01*
X005990Y005702D01*
X005974Y005724D01*
X005952Y005740D01*
X005927Y005751D01*
X005900Y005754D01*
D02*
G37*
G36*
X012724Y005494D02*
X012711Y005491D01*
X012699Y005484D01*
X012691Y005472D01*
X012688Y005458D01*
X012691Y005445D01*
X012699Y005433D01*
X012711Y005425D01*
X012724Y005422D01*
X012738Y005425D01*
X012750Y005433D01*
X012758Y005445D01*
X012760Y005458D01*
X012758Y005472D01*
X012750Y005484D01*
X012738Y005491D01*
X012724Y005494D01*
D02*
G37*
G36*
X007606Y005754D02*
X007579Y005750D01*
X007554Y005740D01*
X007533Y005723D01*
X007516Y005702D01*
X007506Y005677D01*
X007502Y005650D01*
X007506Y005623D01*
X007516Y005598D01*
X007533Y005577D01*
X007554Y005560D01*
X007579Y005550D01*
X007606Y005546D01*
X007633Y005550D01*
X007658Y005560D01*
X007679Y005577D01*
X007696Y005598D01*
X007706Y005623D01*
X007710Y005650D01*
X007706Y005677D01*
X007696Y005702D01*
X007679Y005723D01*
X007658Y005740D01*
X007633Y005750D01*
X007606Y005754D01*
D02*
G37*
G36*
X012443Y005912D02*
X012424Y005910D01*
X012405Y005902D01*
X012389Y005890D01*
X012377Y005874D01*
X012369Y005855D01*
X012367Y005835D01*
X012369Y005816D01*
X012377Y005797D01*
X012389Y005781D01*
X012405Y005769D01*
X012424Y005761D01*
X012443Y005759D01*
X012463Y005761D01*
X012482Y005769D01*
X012498Y005781D01*
X012510Y005797D01*
X012518Y005816D01*
X012520Y005835D01*
X012518Y005855D01*
X012510Y005874D01*
X012498Y005890D01*
X012482Y005902D01*
X012463Y005910D01*
X012443Y005912D01*
D02*
G37*
G36*
X006886Y006013D02*
X006872Y006010D01*
X006861Y006002D01*
X006853Y005990D01*
X006850Y005977D01*
X006853Y005963D01*
X006861Y005951D01*
X006872Y005943D01*
X006886Y005941D01*
X006900Y005943D01*
X006911Y005951D01*
X006919Y005963D01*
X006922Y005977D01*
X006919Y005990D01*
X006911Y006002D01*
X006900Y006010D01*
X006886Y006013D01*
D02*
G37*
G36*
X006574Y006066D02*
X006560Y006063D01*
X006548Y006055D01*
X006540Y006044D01*
X006538Y006030D01*
X006540Y006016D01*
X006548Y006005D01*
X006560Y005997D01*
X006574Y005994D01*
X006587Y005997D01*
X006599Y006005D01*
X006607Y006016D01*
X006609Y006030D01*
X006607Y006044D01*
X006599Y006055D01*
X006587Y006063D01*
X006574Y006066D01*
D02*
G37*
G36*
X006246Y005931D02*
X006232Y005928D01*
X006220Y005921D01*
X006213Y005909D01*
X006210Y005895D01*
X006213Y005882D01*
X006220Y005870D01*
X006232Y005862D01*
X006246Y005859D01*
X006260Y005862D01*
X006271Y005870D01*
X006279Y005882D01*
X006282Y005895D01*
X006279Y005909D01*
X006271Y005921D01*
X006260Y005928D01*
X006246Y005931D01*
D02*
G37*
G36*
X007348Y005941D02*
X007325Y005938D01*
X007304Y005929D01*
X007286Y005915D01*
X007272Y005896D01*
X007263Y005875D01*
X007260Y005852D01*
X007263Y005829D01*
X007272Y005808D01*
X007286Y005790D01*
X007304Y005776D01*
X007325Y005767D01*
X007348Y005764D01*
X007371Y005767D01*
X007392Y005776D01*
X007411Y005790D01*
X007425Y005808D01*
X007434Y005829D01*
X007437Y005852D01*
X007434Y005875D01*
X007425Y005896D01*
X007411Y005915D01*
X007392Y005929D01*
X007371Y005938D01*
X007348Y005941D01*
D02*
G37*
G36*
X006152Y005898D02*
X006138Y005895D01*
X006127Y005888D01*
X006119Y005876D01*
X006116Y005862D01*
X006119Y005849D01*
X006127Y005837D01*
X006138Y005829D01*
X006152Y005826D01*
X006166Y005829D01*
X006177Y005837D01*
X006185Y005849D01*
X006188Y005862D01*
X006185Y005876D01*
X006177Y005888D01*
X006166Y005895D01*
X006152Y005898D01*
D02*
G37*
G36*
X006966Y006500D02*
X006953Y006497D01*
X006941Y006490D01*
X006933Y006478D01*
X006930Y006464D01*
X006933Y006450D01*
X006941Y006439D01*
X006953Y006431D01*
X006966Y006428D01*
X006980Y006431D01*
X006992Y006439D01*
X006999Y006450D01*
X007002Y006464D01*
X006999Y006478D01*
X006992Y006490D01*
X006980Y006497D01*
X006966Y006500D01*
D02*
G37*
G36*
X007473Y006998D02*
X007459Y006995D01*
X007447Y006988D01*
X007440Y006976D01*
X007437Y006962D01*
X007440Y006948D01*
X007447Y006937D01*
X007459Y006929D01*
X007473Y006926D01*
X007486Y006929D01*
X007498Y006937D01*
X007506Y006948D01*
X007509Y006962D01*
X007506Y006976D01*
X007498Y006988D01*
X007486Y006995D01*
X007473Y006998D01*
D02*
G37*
G36*
X006312Y007097D02*
X006298Y007094D01*
X006287Y007087D01*
X006279Y007075D01*
X006276Y007061D01*
X006279Y007047D01*
X006287Y007036D01*
X006298Y007028D01*
X006312Y007025D01*
X006326Y007028D01*
X006337Y007036D01*
X006345Y007047D01*
X006348Y007061D01*
X006345Y007075D01*
X006337Y007087D01*
X006326Y007094D01*
X006312Y007097D01*
D02*
G37*
G36*
X007259Y006980D02*
X007246Y006978D01*
X007234Y006970D01*
X007226Y006958D01*
X007223Y006944D01*
X007226Y006931D01*
X007234Y006919D01*
X007246Y006911D01*
X007259Y006908D01*
X007273Y006911D01*
X007285Y006919D01*
X007292Y006931D01*
X007295Y006944D01*
X007292Y006958D01*
X007285Y006970D01*
X007273Y006978D01*
X007259Y006980D01*
D02*
G37*
G36*
X006767Y007030D02*
X006744Y007027D01*
X006722Y007018D01*
X006704Y007004D01*
X006690Y006986D01*
X006681Y006965D01*
X006678Y006942D01*
X006681Y006919D01*
X006690Y006898D01*
X006704Y006879D01*
X006722Y006865D01*
X006744Y006856D01*
X006767Y006853D01*
X006789Y006856D01*
X006811Y006865D01*
X006829Y006879D01*
X006843Y006898D01*
X006852Y006919D01*
X006855Y006942D01*
X006852Y006965D01*
X006843Y006986D01*
X006829Y007004D01*
X006811Y007018D01*
X006789Y007027D01*
X006767Y007030D01*
D02*
G37*
G36*
X006132Y006955D02*
X006118Y006952D01*
X006106Y006944D01*
X006098Y006933D01*
X006096Y006919D01*
X006098Y006905D01*
X006106Y006894D01*
X006118Y006886D01*
X006132Y006883D01*
X006145Y006886D01*
X006157Y006894D01*
X006165Y006905D01*
X006167Y006919D01*
X006165Y006933D01*
X006157Y006944D01*
X006145Y006952D01*
X006132Y006955D01*
D02*
G37*
G36*
X013213Y007158D02*
X013199Y007155D01*
X013188Y007148D01*
X013180Y007136D01*
X013177Y007122D01*
X013180Y007108D01*
X013188Y007097D01*
X013199Y007089D01*
X013213Y007086D01*
X013227Y007089D01*
X013237Y007095D01*
X013239Y007095D01*
X013244Y007093D01*
X013249Y007090D01*
X013251Y007080D01*
X013257Y007073D01*
X013256Y007073D01*
X013246Y007062D01*
X013246Y007062D01*
X013240Y007066D01*
X013226Y007069D01*
X013212Y007066D01*
X013200Y007059D01*
X013193Y007047D01*
X013190Y007033D01*
X013193Y007020D01*
X013200Y007008D01*
X013211Y007001D01*
X013212Y006996D01*
Y006992D01*
X013211Y006987D01*
X013200Y006980D01*
X013193Y006968D01*
X013190Y006955D01*
X013193Y006941D01*
X013200Y006929D01*
X013212Y006921D01*
X013226Y006919D01*
X013240Y006921D01*
X013245Y006925D01*
X013258Y006929D01*
X013270Y006921D01*
X013272Y006920D01*
Y006907D01*
X013271Y006907D01*
X013259Y006899D01*
X013251Y006888D01*
X013249Y006874D01*
X013251Y006860D01*
X013259Y006849D01*
X013271Y006841D01*
X013285Y006838D01*
X013298Y006841D01*
X013310Y006849D01*
X013318Y006860D01*
X013321Y006874D01*
X013318Y006888D01*
X013310Y006899D01*
X013298Y006907D01*
X013296Y006908D01*
Y006921D01*
X013297Y006921D01*
X013309Y006929D01*
X013317Y006940D01*
X013320Y006954D01*
X013317Y006968D01*
X013309Y006979D01*
X013297Y006987D01*
X013296Y006987D01*
Y007000D01*
X013298Y007001D01*
X013310Y007009D01*
X013318Y007020D01*
X013321Y007034D01*
X013318Y007048D01*
X013313Y007055D01*
X013311Y007064D01*
X013313Y007073D01*
X013318Y007080D01*
X013321Y007094D01*
X013318Y007108D01*
X013310Y007120D01*
X013298Y007127D01*
X013285Y007130D01*
X013271Y007127D01*
X013261Y007121D01*
X013259Y007121D01*
X013254Y007123D01*
X013248Y007126D01*
X013246Y007136D01*
X013238Y007148D01*
X013227Y007155D01*
X013213Y007158D01*
D02*
G37*
G36*
X007606Y007453D02*
X007579Y007449D01*
X007554Y007439D01*
X007533Y007422D01*
X007516Y007401D01*
X007506Y007376D01*
X007502Y007349D01*
X007506Y007322D01*
X007516Y007297D01*
X007533Y007276D01*
X007554Y007260D01*
X007579Y007249D01*
X007606Y007246D01*
X007633Y007249D01*
X007658Y007260D01*
X007679Y007276D01*
X007696Y007297D01*
X007706Y007322D01*
X007710Y007349D01*
X007706Y007376D01*
X007696Y007401D01*
X007679Y007422D01*
X007658Y007439D01*
X007633Y007449D01*
X007606Y007453D01*
D02*
G37*
G36*
X005900Y007454D02*
X005874Y007450D01*
X005849Y007440D01*
X005827Y007423D01*
X005811Y007402D01*
X005800Y007377D01*
X005797Y007350D01*
X005800Y007323D01*
X005811Y007298D01*
X005827Y007277D01*
X005849Y007260D01*
X005874Y007250D01*
X005900Y007246D01*
X005927Y007250D01*
X005952Y007260D01*
X005974Y007277D01*
X005990Y007298D01*
X006000Y007323D01*
X006004Y007350D01*
X006000Y007377D01*
X005990Y007402D01*
X005974Y007423D01*
X005952Y007440D01*
X005927Y007450D01*
X005900Y007454D01*
D02*
G37*
G36*
X012454Y007424D02*
X011666D01*
Y007196D01*
X012454D01*
Y007424D01*
D02*
G37*
G36*
X013114Y007229D02*
X013100Y007226D01*
X013089Y007219D01*
X013081Y007207D01*
X013078Y007193D01*
X013081Y007180D01*
X013089Y007168D01*
X013100Y007160D01*
X013114Y007157D01*
X013128Y007160D01*
X013139Y007168D01*
X013147Y007180D01*
X013150Y007193D01*
X013147Y007207D01*
X013139Y007219D01*
X013128Y007226D01*
X013114Y007229D01*
D02*
G37*
G36*
X013282Y007267D02*
X013268Y007265D01*
X013256Y007257D01*
X013249Y007245D01*
X013246Y007231D01*
X013249Y007218D01*
X013256Y007206D01*
X013268Y007198D01*
X013282Y007195D01*
X013295Y007198D01*
X013307Y007206D01*
X013315Y007218D01*
X013318Y007231D01*
X013315Y007245D01*
X013307Y007257D01*
X013295Y007265D01*
X013282Y007267D01*
D02*
G37*
G36*
X006134Y006602D02*
X006120Y006599D01*
X006109Y006591D01*
X006101Y006580D01*
X006098Y006566D01*
X006101Y006552D01*
X006109Y006541D01*
X006120Y006533D01*
X006134Y006530D01*
X006148Y006533D01*
X006159Y006541D01*
X006167Y006552D01*
X006170Y006566D01*
X006167Y006580D01*
X006159Y006591D01*
X006148Y006599D01*
X006134Y006602D01*
D02*
G37*
G36*
X006236D02*
X006222Y006599D01*
X006210Y006591D01*
X006203Y006580D01*
X006200Y006566D01*
X006203Y006552D01*
X006210Y006541D01*
X006222Y006533D01*
X006236Y006530D01*
X006249Y006533D01*
X006261Y006541D01*
X006269Y006552D01*
X006272Y006566D01*
X006269Y006580D01*
X006261Y006591D01*
X006249Y006599D01*
X006236Y006602D01*
D02*
G37*
G36*
X007069Y006569D02*
X007055Y006566D01*
X007043Y006558D01*
X007036Y006547D01*
X007033Y006533D01*
X007036Y006519D01*
X007043Y006508D01*
X007055Y006500D01*
X007069Y006497D01*
X007083Y006500D01*
X007094Y006508D01*
X007102Y006519D01*
X007105Y006533D01*
X007102Y006547D01*
X007094Y006558D01*
X007083Y006566D01*
X007069Y006569D01*
D02*
G37*
G36*
X006312Y006526D02*
X006298Y006523D01*
X006287Y006515D01*
X006279Y006503D01*
X006276Y006490D01*
X006279Y006476D01*
X006287Y006464D01*
X006298Y006457D01*
X006312Y006454D01*
X006326Y006457D01*
X006337Y006464D01*
X006345Y006476D01*
X006348Y006490D01*
X006345Y006503D01*
X006337Y006515D01*
X006326Y006523D01*
X006312Y006526D01*
D02*
G37*
G36*
X007277Y006551D02*
X007264Y006548D01*
X007252Y006540D01*
X007244Y006529D01*
X007242Y006515D01*
X007244Y006501D01*
X007252Y006489D01*
X007264Y006482D01*
X007277Y006479D01*
X007291Y006482D01*
X007303Y006489D01*
X007311Y006501D01*
X007313Y006515D01*
X007311Y006529D01*
X007303Y006540D01*
X007291Y006548D01*
X007277Y006551D01*
D02*
G37*
G36*
X006921Y006716D02*
X006908Y006713D01*
X006896Y006706D01*
X006888Y006694D01*
X006886Y006680D01*
X006888Y006666D01*
X006896Y006655D01*
X006908Y006647D01*
X006921Y006644D01*
X006935Y006647D01*
X006947Y006655D01*
X006955Y006666D01*
X006957Y006680D01*
X006955Y006694D01*
X006947Y006706D01*
X006935Y006713D01*
X006921Y006716D01*
D02*
G37*
G36*
X006048Y006884D02*
X006034Y006881D01*
X006022Y006873D01*
X006015Y006862D01*
X006012Y006848D01*
X006015Y006834D01*
X006022Y006822D01*
X006034Y006815D01*
X006048Y006812D01*
X006061Y006815D01*
X006073Y006822D01*
X006081Y006834D01*
X006084Y006848D01*
X006081Y006862D01*
X006073Y006873D01*
X006061Y006881D01*
X006048Y006884D01*
D02*
G37*
G36*
X013118Y006910D02*
X013105Y006907D01*
X013093Y006899D01*
X013085Y006888D01*
X013082Y006874D01*
X013085Y006860D01*
X013093Y006849D01*
X013105Y006841D01*
X013118Y006838D01*
X013132Y006841D01*
X013144Y006849D01*
X013151Y006860D01*
X013154Y006874D01*
X013151Y006888D01*
X013144Y006899D01*
X013132Y006907D01*
X013118Y006910D01*
D02*
G37*
G36*
X006134Y006830D02*
X006120Y006828D01*
X006109Y006820D01*
X006101Y006808D01*
X006098Y006794D01*
X006101Y006781D01*
X006109Y006769D01*
X006120Y006761D01*
X006134Y006759D01*
X006148Y006761D01*
X006159Y006769D01*
X006167Y006781D01*
X006170Y006794D01*
X006167Y006808D01*
X006159Y006820D01*
X006148Y006828D01*
X006134Y006830D01*
D02*
G37*
G36*
X007226Y006833D02*
X007074D01*
Y006668D01*
X007226D01*
Y006833D01*
D02*
G37*
G36*
X006490Y006934D02*
X006261D01*
Y006706D01*
X006490D01*
Y006934D01*
D02*
G37*
%LPD*%
D23*
X012416Y007234D02*
Y007386D01*
X012339D01*
X012314Y007361D01*
Y007310D01*
X012339Y007285D01*
X012416D01*
X012365D02*
X012314Y007234D01*
X012162Y007386D02*
X012263D01*
Y007234D01*
X012162D01*
X012263Y007310D02*
X012212D01*
X012111Y007386D02*
Y007285D01*
X012060Y007234D01*
X012009Y007285D01*
Y007386D01*
X011806D02*
Y007234D01*
X011730D01*
X011705Y007259D01*
Y007361D01*
X011730Y007386D01*
X011806D01*
D24*
X005900Y007350D02*
D03*
X007606Y007349D02*
D03*
Y005650D02*
D03*
X005900Y005651D02*
D03*
D25*
X013200Y008000D02*
D03*
X010200Y005000D02*
D03*
Y008000D02*
D03*
X013200Y005000D02*
D03*
D26*
X006037Y005780D02*
D03*
X006767Y006942D02*
D03*
X007348Y005852D02*
D03*
D28*
X006840Y006414D02*
D03*
X013395Y007381D02*
D03*
X013295D02*
D03*
X013199D02*
D03*
X013100D02*
D03*
X013005D02*
D03*
X012309Y005613D02*
D03*
X012248Y005478D02*
D03*
X012497Y005466D02*
D03*
X012724Y005458D02*
D03*
X013118Y006874D02*
D03*
X013285D02*
D03*
X013213Y007122D02*
D03*
X013226Y007033D02*
D03*
Y006955D02*
D03*
X013284Y006954D02*
D03*
X013285Y007034D02*
D03*
X013114Y007193D02*
D03*
X013285Y007094D02*
D03*
X012890Y005801D02*
D03*
X006952Y006604D02*
D03*
X006921Y006680D02*
D03*
X007277Y006515D02*
D03*
X007445Y006309D02*
D03*
X006966Y006464D02*
D03*
X007473Y006962D02*
D03*
X007379Y006700D02*
D03*
X006706Y007079D02*
D03*
X007069Y006533D02*
D03*
X006048Y006848D02*
D03*
X006134Y006794D02*
D03*
X006312Y006490D02*
D03*
X006134Y006566D02*
D03*
X006312Y007061D02*
D03*
X006550Y005700D02*
D03*
X006750D02*
D03*
X013250Y005500D02*
D03*
X006132Y006919D02*
D03*
X006782Y006617D02*
D03*
X006604Y006327D02*
D03*
X006236Y006566D02*
D03*
X006152Y005862D02*
D03*
X006652Y006218D02*
D03*
X006886Y005977D02*
D03*
X006574Y006030D02*
D03*
X006713Y005773D02*
D03*
X006472Y005885D02*
D03*
X006246Y005895D02*
D03*
X007259Y006944D02*
D03*
X006124Y007031D02*
D03*
X007100Y006964D02*
D03*
X007402Y006800D02*
D03*
X010250Y007500D02*
D03*
X010500D02*
D03*
X012000Y005250D02*
D03*
X012250D02*
D03*
X011500D02*
D03*
X011250D02*
D03*
X011750D02*
D03*
X011000D02*
D03*
X010750D02*
D03*
X010500D02*
D03*
X012250Y005000D02*
D03*
X012000D02*
D03*
X011750D02*
D03*
X012500D02*
D03*
X011250D02*
D03*
X011500D02*
D03*
X010750D02*
D03*
X010500D02*
D03*
X011000D02*
D03*
X012750D02*
D03*
X013000Y005250D02*
D03*
X012750D02*
D03*
X012500D02*
D03*
X012000Y005500D02*
D03*
X011500D02*
D03*
X011250D02*
D03*
X010750D02*
D03*
X011000D02*
D03*
X011750D02*
D03*
X010500D02*
D03*
X010250D02*
D03*
X010750Y007500D02*
D03*
X011000D02*
D03*
X011250D02*
D03*
X011500D02*
D03*
X011750D02*
D03*
X012000D02*
D03*
X012250D02*
D03*
X012500D02*
D03*
X012750Y007750D02*
D03*
X012500D02*
D03*
X012250D02*
D03*
X012000D02*
D03*
X011750D02*
D03*
X011500D02*
D03*
X011250D02*
D03*
X011000D02*
D03*
X010750D02*
D03*
X010500D02*
D03*
X012750Y008000D02*
D03*
X012500D02*
D03*
X012250D02*
D03*
X012000D02*
D03*
X011750D02*
D03*
X011500D02*
D03*
X011250D02*
D03*
X011000D02*
D03*
X010750D02*
D03*
X010500D02*
D03*
X006642Y006909D02*
D03*
Y006756D02*
D03*
X013282Y007231D02*
D03*
X007074Y005911D02*
D03*
X006650Y005700D02*
D03*
X006450D02*
D03*
X006350D02*
D03*
X006250D02*
D03*
X006150D02*
D03*
X006050D02*
D03*
X005950Y006500D02*
D03*
Y006400D02*
D03*
Y006600D02*
D03*
Y006300D02*
D03*
Y006100D02*
D03*
Y006200D02*
D03*
Y006000D02*
D03*
Y005900D02*
D03*
Y005800D02*
D03*
Y006700D02*
D03*
Y006800D02*
D03*
Y006900D02*
D03*
Y007000D02*
D03*
Y007100D02*
D03*
Y007200D02*
D03*
X006050Y007300D02*
D03*
X006150D02*
D03*
X006250D02*
D03*
X006350D02*
D03*
X006450D02*
D03*
X006550D02*
D03*
X006650D02*
D03*
X006750D02*
D03*
X006850D02*
D03*
X006950D02*
D03*
X007050D02*
D03*
X007150D02*
D03*
X007250D02*
D03*
X007350D02*
D03*
X007450D02*
D03*
X007550Y007200D02*
D03*
Y007100D02*
D03*
Y007000D02*
D03*
Y006900D02*
D03*
Y006100D02*
D03*
Y006000D02*
D03*
Y005900D02*
D03*
Y005800D02*
D03*
X007450Y005700D02*
D03*
X007350D02*
D03*
X007250D02*
D03*
X007150D02*
D03*
X007050D02*
D03*
X006950D02*
D03*
X006850D02*
D03*
D29*
X012446Y006083D02*
D03*
X012192Y005835D02*
D03*
X012446Y006350D02*
D03*
X012443Y005835D02*
D03*
X012191Y006350D02*
D03*
X012443Y006600D02*
D03*
X012192Y006088D02*
D03*
X011938Y006093D02*
D03*
Y005835D02*
D03*
Y006350D02*
D03*
M02*
