G04 Layer_Color=2752767*
%FSAX42Y42*%
%MOMM*%
G71*
G01*
G75*
%ADD53C,0.05*%
%ADD59C,0.07*%
D53*
X005880Y007330D02*
Y007370D01*
X005921D01*
Y007330D01*
X005880D01*
X007586Y007329D02*
Y007370D01*
X007626D01*
Y007329D01*
X007586D01*
Y005630D02*
Y005670D01*
X007626D01*
Y005630D01*
X007586D01*
X005880Y005630D02*
Y005671D01*
X005921D01*
Y005630D01*
X005880D01*
X006037Y005760D02*
X006017Y005800D01*
X006058D01*
X006037Y005760D01*
X012446Y006063D02*
X012456Y006073D01*
X012466D01*
X012456Y006083D01*
X012466Y006093D01*
X012456D01*
X012446Y006104D01*
X012436Y006093D01*
X012426D01*
X012436Y006083D01*
X012426Y006073D01*
X012436D01*
X012446Y006063D01*
X006840Y006393D02*
X006850Y006403D01*
X006861D01*
X006850Y006414D01*
X006861Y006424D01*
X006850D01*
X006840Y006434D01*
X006830Y006424D01*
X006820D01*
X006830Y006414D01*
X006820Y006403D01*
X006830D01*
X006840Y006393D01*
X013395Y007361D02*
X013405Y007371D01*
X013415D01*
X013405Y007381D01*
X013415Y007392D01*
X013405D01*
X013395Y007402D01*
X013385Y007392D01*
X013374D01*
X013385Y007381D01*
X013374Y007371D01*
X013385D01*
X013395Y007361D01*
X013295D02*
X013306Y007371D01*
X013316D01*
X013306Y007381D01*
X013316Y007392D01*
X013306D01*
X013295Y007402D01*
X013285Y007392D01*
X013275D01*
X013285Y007381D01*
X013275Y007371D01*
X013285D01*
X013295Y007361D01*
X013199D02*
X013209Y007371D01*
X013219D01*
X013209Y007381D01*
X013219Y007392D01*
X013209D01*
X013199Y007402D01*
X013189Y007392D01*
X013179D01*
X013189Y007381D01*
X013179Y007371D01*
X013189D01*
X013199Y007361D01*
X013100D02*
X013110Y007371D01*
X013121D01*
X013110Y007381D01*
X013121Y007392D01*
X013110D01*
X013100Y007402D01*
X013090Y007392D01*
X013080D01*
X013090Y007381D01*
X013080Y007371D01*
X013090D01*
X013100Y007361D01*
X013005D02*
X013015Y007371D01*
X013025D01*
X013015Y007381D01*
X013025Y007392D01*
X013015D01*
X013005Y007402D01*
X012995Y007392D01*
X012984D01*
X012995Y007381D01*
X012984Y007371D01*
X012995D01*
X013005Y007361D01*
X012309Y005593D02*
X012319Y005603D01*
X012329D01*
X012319Y005613D01*
X012329Y005624D01*
X012319D01*
X012309Y005634D01*
X012299Y005624D01*
X012288D01*
X012299Y005613D01*
X012288Y005603D01*
X012299D01*
X012309Y005593D01*
X012248Y005457D02*
X012258Y005468D01*
X012268D01*
X012258Y005478D01*
X012268Y005488D01*
X012258D01*
X012248Y005498D01*
X012238Y005488D01*
X012227D01*
X012238Y005478D01*
X012227Y005468D01*
X012238D01*
X012248Y005457D01*
X012497Y005446D02*
X012507Y005456D01*
X012517D01*
X012507Y005466D01*
X012517Y005476D01*
X012507D01*
X012497Y005486D01*
X012487Y005476D01*
X012476D01*
X012487Y005466D01*
X012476Y005456D01*
X012487D01*
X012497Y005446D01*
X012724Y005438D02*
X012735Y005448D01*
X012745D01*
X012735Y005458D01*
X012745Y005468D01*
X012735D01*
X012724Y005479D01*
X012714Y005468D01*
X012704D01*
X012714Y005458D01*
X012704Y005448D01*
X012714D01*
X012724Y005438D01*
X012192Y005814D02*
X012202Y005824D01*
X012212D01*
X012202Y005835D01*
X012212Y005845D01*
X012202D01*
X012192Y005855D01*
X012182Y005845D01*
X012172D01*
X012182Y005835D01*
X012172Y005824D01*
X012182D01*
X012192Y005814D01*
X012446Y006330D02*
X012456Y006340D01*
X012466D01*
X012456Y006350D01*
X012466Y006360D01*
X012456D01*
X012446Y006370D01*
X012436Y006360D01*
X012426D01*
X012436Y006350D01*
X012426Y006340D01*
X012436D01*
X012446Y006330D01*
X012443Y005815D02*
X012454Y005825D01*
X012464D01*
X012454Y005835D01*
X012464Y005846D01*
X012454D01*
X012443Y005856D01*
X012433Y005846D01*
X012423D01*
X012433Y005835D01*
X012423Y005825D01*
X012433D01*
X012443Y005815D01*
X012191Y006330D02*
X012201Y006340D01*
X012211D01*
X012201Y006350D01*
X012211Y006360D01*
X012201D01*
X012191Y006370D01*
X012181Y006360D01*
X012171D01*
X012181Y006350D01*
X012171Y006340D01*
X012181D01*
X012191Y006330D01*
X012443Y006580D02*
X012454Y006590D01*
X012464D01*
X012454Y006600D01*
X012464Y006610D01*
X012454D01*
X012443Y006620D01*
X012433Y006610D01*
X012423D01*
X012433Y006600D01*
X012423Y006590D01*
X012433D01*
X012443Y006580D01*
X012192Y006068D02*
X012202Y006078D01*
X012212D01*
X012202Y006088D01*
X012212Y006099D01*
X012202D01*
X012192Y006109D01*
X012182Y006099D01*
X012172D01*
X012182Y006088D01*
X012172Y006078D01*
X012182D01*
X012192Y006068D01*
X011938Y006073D02*
X011948Y006083D01*
X011958D01*
X011948Y006093D01*
X011958Y006104D01*
X011948D01*
X011938Y006114D01*
X011928Y006104D01*
X011918D01*
X011928Y006093D01*
X011918Y006083D01*
X011928D01*
X011938Y006073D01*
Y005814D02*
X011948Y005824D01*
X011958D01*
X011948Y005835D01*
X011958Y005845D01*
X011948D01*
X011938Y005855D01*
X011928Y005845D01*
X011918D01*
X011928Y005835D01*
X011918Y005824D01*
X011928D01*
X011938Y005814D01*
X013118Y006854D02*
X013129Y006864D01*
X013139D01*
X013129Y006874D01*
X013139Y006884D01*
X013129D01*
X013118Y006894D01*
X013108Y006884D01*
X013098D01*
X013108Y006874D01*
X013098Y006864D01*
X013108D01*
X013118Y006854D01*
X013285D02*
X013295Y006864D01*
X013305D01*
X013295Y006874D01*
X013305Y006884D01*
X013295D01*
X013285Y006894D01*
X013274Y006884D01*
X013264D01*
X013274Y006874D01*
X013264Y006864D01*
X013274D01*
X013285Y006854D01*
X013213Y007102D02*
X013223Y007112D01*
X013233D01*
X013223Y007122D01*
X013233Y007132D01*
X013223D01*
X013213Y007142D01*
X013203Y007132D01*
X013193D01*
X013203Y007122D01*
X013193Y007112D01*
X013203D01*
X013213Y007102D01*
X013226Y007013D02*
X013236Y007023D01*
X013246D01*
X013236Y007033D01*
X013246Y007043D01*
X013236D01*
X013226Y007054D01*
X013216Y007043D01*
X013205D01*
X013216Y007033D01*
X013205Y007023D01*
X013216D01*
X013226Y007013D01*
Y006934D02*
X013236Y006944D01*
X013246D01*
X013236Y006955D01*
X013246Y006965D01*
X013236D01*
X013226Y006975D01*
X013216Y006965D01*
X013205D01*
X013216Y006955D01*
X013205Y006944D01*
X013216D01*
X013226Y006934D01*
X013284Y006934D02*
X013294Y006944D01*
X013304D01*
X013294Y006954D01*
X013304Y006964D01*
X013294D01*
X013284Y006974D01*
X013274Y006964D01*
X013263D01*
X013274Y006954D01*
X013263Y006944D01*
X013274D01*
X013284Y006934D01*
X013285Y007014D02*
X013295Y007024D01*
X013305D01*
X013295Y007034D01*
X013305Y007044D01*
X013295D01*
X013285Y007054D01*
X013274Y007044D01*
X013264D01*
X013274Y007034D01*
X013264Y007024D01*
X013274D01*
X013285Y007014D01*
X013114Y007173D02*
X013124Y007183D01*
X013134D01*
X013124Y007193D01*
X013134Y007203D01*
X013124D01*
X013114Y007214D01*
X013104Y007203D01*
X013094D01*
X013104Y007193D01*
X013094Y007183D01*
X013104D01*
X013114Y007173D01*
X006767Y006921D02*
X006777Y006932D01*
X006787D01*
X006777Y006942D01*
X006787Y006952D01*
X006777D01*
X006767Y006962D01*
X006756Y006952D01*
X006746D01*
X006756Y006942D01*
X006746Y006932D01*
X006756D01*
X006767Y006921D01*
X007348Y005832D02*
X007328Y005872D01*
X007369D01*
X007348Y005832D01*
X013285Y007074D02*
X013295Y007084D01*
X013305D01*
X013295Y007094D01*
X013305Y007104D01*
X013295D01*
X013285Y007115D01*
X013274Y007104D01*
X013264D01*
X013274Y007094D01*
X013264Y007084D01*
X013274D01*
X013285Y007074D01*
X012890Y005781D02*
X012901Y005791D01*
X012911D01*
X012901Y005801D01*
X012911Y005812D01*
X012901D01*
X012890Y005822D01*
X012880Y005812D01*
X012870D01*
X012880Y005801D01*
X012870Y005791D01*
X012880D01*
X012890Y005781D01*
X011938Y006330D02*
X011948Y006340D01*
X011958D01*
X011948Y006350D01*
X011958Y006360D01*
X011948D01*
X011938Y006370D01*
X011928Y006360D01*
X011918D01*
X011928Y006350D01*
X011918Y006340D01*
X011928D01*
X011938Y006330D01*
X006952Y006584D02*
X006962Y006594D01*
X006972D01*
X006962Y006604D01*
X006972Y006614D01*
X006962D01*
X006952Y006624D01*
X006942Y006614D01*
X006932D01*
X006942Y006604D01*
X006932Y006594D01*
X006942D01*
X006952Y006584D01*
X006921Y006660D02*
X006932Y006670D01*
X006942D01*
X006932Y006680D01*
X006942Y006690D01*
X006932D01*
X006921Y006701D01*
X006911Y006690D01*
X006901D01*
X006911Y006680D01*
X006901Y006670D01*
X006911D01*
X006921Y006660D01*
X007277Y006494D02*
X007288Y006505D01*
X007298D01*
X007288Y006515D01*
X007298Y006525D01*
X007288D01*
X007277Y006535D01*
X007267Y006525D01*
X007257D01*
X007267Y006515D01*
X007257Y006505D01*
X007267D01*
X007277Y006494D01*
X007445Y006289D02*
X007455Y006299D01*
X007465D01*
X007455Y006309D01*
X007465Y006320D01*
X007455D01*
X007445Y006330D01*
X007435Y006320D01*
X007424D01*
X007435Y006309D01*
X007424Y006299D01*
X007435D01*
X007445Y006289D01*
X006966Y006444D02*
X006976Y006454D01*
X006987D01*
X006976Y006464D01*
X006987Y006474D01*
X006976D01*
X006966Y006484D01*
X006956Y006474D01*
X006946D01*
X006956Y006464D01*
X006946Y006454D01*
X006956D01*
X006966Y006444D01*
X007473Y006942D02*
X007483Y006952D01*
X007493D01*
X007483Y006962D01*
X007493Y006972D01*
X007483D01*
X007473Y006982D01*
X007463Y006972D01*
X007452D01*
X007463Y006962D01*
X007452Y006952D01*
X007463D01*
X007473Y006942D01*
X007379Y006680D02*
X007389Y006690D01*
X007400D01*
X007389Y006700D01*
X007400Y006710D01*
X007389D01*
X007379Y006720D01*
X007369Y006710D01*
X007359D01*
X007369Y006700D01*
X007359Y006690D01*
X007369D01*
X007379Y006680D01*
X006706Y007059D02*
X006716Y007069D01*
X006726D01*
X006716Y007079D01*
X006726Y007089D01*
X006716D01*
X006706Y007099D01*
X006695Y007089D01*
X006685D01*
X006695Y007079D01*
X006685Y007069D01*
X006695D01*
X006706Y007059D01*
X007069Y006513D02*
X007079Y006523D01*
X007089D01*
X007079Y006533D01*
X007089Y006543D01*
X007079D01*
X007069Y006553D01*
X007059Y006543D01*
X007049D01*
X007059Y006533D01*
X007049Y006523D01*
X007059D01*
X007069Y006513D01*
X006048Y006828D02*
X006058Y006838D01*
X006068D01*
X006058Y006848D01*
X006068Y006858D01*
X006058D01*
X006048Y006868D01*
X006038Y006858D01*
X006027D01*
X006038Y006848D01*
X006027Y006838D01*
X006038D01*
X006048Y006828D01*
X006134Y006774D02*
X006144Y006784D01*
X006154D01*
X006144Y006794D01*
X006154Y006805D01*
X006144D01*
X006134Y006815D01*
X006124Y006805D01*
X006114D01*
X006124Y006794D01*
X006114Y006784D01*
X006124D01*
X006134Y006774D01*
X006312Y006469D02*
X006322Y006480D01*
X006332D01*
X006322Y006490D01*
X006332Y006500D01*
X006322D01*
X006312Y006510D01*
X006302Y006500D01*
X006292D01*
X006302Y006490D01*
X006292Y006480D01*
X006302D01*
X006312Y006469D01*
X006134Y006546D02*
X006144Y006556D01*
X006154D01*
X006144Y006566D01*
X006154Y006576D01*
X006144D01*
X006134Y006586D01*
X006124Y006576D01*
X006114D01*
X006124Y006566D01*
X006114Y006556D01*
X006124D01*
X006134Y006546D01*
X006312Y007041D02*
X006322Y007051D01*
X006332D01*
X006322Y007061D01*
X006332Y007071D01*
X006322D01*
X006312Y007082D01*
X006302Y007071D01*
X006292D01*
X006302Y007061D01*
X006292Y007051D01*
X006302D01*
X006312Y007041D01*
X006550Y005680D02*
X006560Y005690D01*
X006570D01*
X006560Y005700D01*
X006570Y005710D01*
X006560D01*
X006550Y005720D01*
X006540Y005710D01*
X006530D01*
X006540Y005700D01*
X006530Y005690D01*
X006540D01*
X006550Y005680D01*
X006750D02*
X006760Y005690D01*
X006770D01*
X006760Y005700D01*
X006770Y005710D01*
X006760D01*
X006750Y005720D01*
X006740Y005710D01*
X006730D01*
X006740Y005700D01*
X006730Y005690D01*
X006740D01*
X006750Y005680D01*
X013250Y005480D02*
X013260Y005490D01*
X013270D01*
X013260Y005500D01*
X013270Y005510D01*
X013260D01*
X013250Y005520D01*
X013240Y005510D01*
X013230D01*
X013240Y005500D01*
X013230Y005490D01*
X013240D01*
X013250Y005480D01*
X006132Y006899D02*
X006142Y006909D01*
X006152D01*
X006142Y006919D01*
X006152Y006929D01*
X006142D01*
X006132Y006939D01*
X006121Y006929D01*
X006111D01*
X006121Y006919D01*
X006111Y006909D01*
X006121D01*
X006132Y006899D01*
X006782Y006596D02*
X006792Y006607D01*
X006802D01*
X006792Y006617D01*
X006802Y006627D01*
X006792D01*
X006782Y006637D01*
X006772Y006627D01*
X006761D01*
X006772Y006617D01*
X006761Y006607D01*
X006772D01*
X006782Y006596D01*
X006604Y006307D02*
X006614Y006317D01*
X006624D01*
X006614Y006327D01*
X006624Y006337D01*
X006614D01*
X006604Y006347D01*
X006594Y006337D01*
X006584D01*
X006594Y006327D01*
X006584Y006317D01*
X006594D01*
X006604Y006307D01*
X006236Y006546D02*
X006246Y006556D01*
X006256D01*
X006246Y006566D01*
X006256Y006576D01*
X006246D01*
X006236Y006586D01*
X006226Y006576D01*
X006215D01*
X006226Y006566D01*
X006215Y006556D01*
X006226D01*
X006236Y006546D01*
X006152Y005842D02*
X006162Y005852D01*
X006172D01*
X006162Y005862D01*
X006172Y005872D01*
X006162D01*
X006152Y005883D01*
X006142Y005872D01*
X006132D01*
X006142Y005862D01*
X006132Y005852D01*
X006142D01*
X006152Y005842D01*
X006652Y006198D02*
X006662Y006208D01*
X006673D01*
X006662Y006218D01*
X006673Y006228D01*
X006662D01*
X006652Y006238D01*
X006642Y006228D01*
X006632D01*
X006642Y006218D01*
X006632Y006208D01*
X006642D01*
X006652Y006198D01*
X006886Y005956D02*
X006896Y005966D01*
X006906D01*
X006896Y005977D01*
X006906Y005987D01*
X006896D01*
X006886Y005997D01*
X006876Y005987D01*
X006866D01*
X006876Y005977D01*
X006866Y005966D01*
X006876D01*
X006886Y005956D01*
X006574Y006010D02*
X006584Y006020D01*
X006594D01*
X006584Y006030D01*
X006594Y006040D01*
X006584D01*
X006574Y006050D01*
X006563Y006040D01*
X006553D01*
X006563Y006030D01*
X006553Y006020D01*
X006563D01*
X006574Y006010D01*
X006713Y005753D02*
X006723Y005763D01*
X006734D01*
X006723Y005773D01*
X006734Y005784D01*
X006723D01*
X006713Y005794D01*
X006703Y005784D01*
X006693D01*
X006703Y005773D01*
X006693Y005763D01*
X006703D01*
X006713Y005753D01*
X006472Y005865D02*
X006482Y005875D01*
X006492D01*
X006482Y005885D01*
X006492Y005895D01*
X006482D01*
X006472Y005906D01*
X006462Y005895D01*
X006452D01*
X006462Y005885D01*
X006452Y005875D01*
X006462D01*
X006472Y005865D01*
X006246Y005875D02*
X006256Y005885D01*
X006266D01*
X006256Y005895D01*
X006266Y005906D01*
X006256D01*
X006246Y005916D01*
X006236Y005906D01*
X006226D01*
X006236Y005895D01*
X006226Y005885D01*
X006236D01*
X006246Y005875D01*
X007259Y006924D02*
X007269Y006934D01*
X007280D01*
X007269Y006944D01*
X007280Y006955D01*
X007269D01*
X007259Y006965D01*
X007249Y006955D01*
X007239D01*
X007249Y006944D01*
X007239Y006934D01*
X007249D01*
X007259Y006924D01*
X006124Y007010D02*
X006134Y007021D01*
X006144D01*
X006134Y007031D01*
X006144Y007041D01*
X006134D01*
X006124Y007051D01*
X006114Y007041D01*
X006104D01*
X006114Y007031D01*
X006104Y007021D01*
X006114D01*
X006124Y007010D01*
X007100Y006944D02*
X007110Y006954D01*
X007120D01*
X007110Y006964D01*
X007120Y006974D01*
X007110D01*
X007100Y006984D01*
X007090Y006974D01*
X007080D01*
X007090Y006964D01*
X007080Y006954D01*
X007090D01*
X007100Y006944D01*
X007402Y006779D02*
X007412Y006789D01*
X007422D01*
X007412Y006800D01*
X007422Y006810D01*
X007412D01*
X007402Y006820D01*
X007391Y006810D01*
X007381D01*
X007391Y006800D01*
X007381Y006789D01*
X007391D01*
X007402Y006779D01*
X010250Y007480D02*
X010260Y007490D01*
X010270D01*
X010260Y007500D01*
X010270Y007510D01*
X010260D01*
X010250Y007520D01*
X010240Y007510D01*
X010230D01*
X010240Y007500D01*
X010230Y007490D01*
X010240D01*
X010250Y007480D01*
X010500D02*
X010510Y007490D01*
X010520D01*
X010510Y007500D01*
X010520Y007510D01*
X010510D01*
X010500Y007520D01*
X010490Y007510D01*
X010480D01*
X010490Y007500D01*
X010480Y007490D01*
X010490D01*
X010500Y007480D01*
X012000Y005230D02*
X012010Y005240D01*
X012020D01*
X012010Y005250D01*
X012020Y005260D01*
X012010D01*
X012000Y005270D01*
X011990Y005260D01*
X011980D01*
X011990Y005250D01*
X011980Y005240D01*
X011990D01*
X012000Y005230D01*
X012250D02*
X012260Y005240D01*
X012270D01*
X012260Y005250D01*
X012270Y005260D01*
X012260D01*
X012250Y005270D01*
X012240Y005260D01*
X012230D01*
X012240Y005250D01*
X012230Y005240D01*
X012240D01*
X012250Y005230D01*
X011500D02*
X011510Y005240D01*
X011520D01*
X011510Y005250D01*
X011520Y005260D01*
X011510D01*
X011500Y005270D01*
X011490Y005260D01*
X011480D01*
X011490Y005250D01*
X011480Y005240D01*
X011490D01*
X011500Y005230D01*
X011250D02*
X011260Y005240D01*
X011270D01*
X011260Y005250D01*
X011270Y005260D01*
X011260D01*
X011250Y005270D01*
X011240Y005260D01*
X011230D01*
X011240Y005250D01*
X011230Y005240D01*
X011240D01*
X011250Y005230D01*
X011750D02*
X011760Y005240D01*
X011770D01*
X011760Y005250D01*
X011770Y005260D01*
X011760D01*
X011750Y005270D01*
X011740Y005260D01*
X011730D01*
X011740Y005250D01*
X011730Y005240D01*
X011740D01*
X011750Y005230D01*
X011000D02*
X011010Y005240D01*
X011020D01*
X011010Y005250D01*
X011020Y005260D01*
X011010D01*
X011000Y005270D01*
X010990Y005260D01*
X010980D01*
X010990Y005250D01*
X010980Y005240D01*
X010990D01*
X011000Y005230D01*
X010750D02*
X010760Y005240D01*
X010770D01*
X010760Y005250D01*
X010770Y005260D01*
X010760D01*
X010750Y005270D01*
X010740Y005260D01*
X010730D01*
X010740Y005250D01*
X010730Y005240D01*
X010740D01*
X010750Y005230D01*
X010500D02*
X010510Y005240D01*
X010520D01*
X010510Y005250D01*
X010520Y005260D01*
X010510D01*
X010500Y005270D01*
X010490Y005260D01*
X010480D01*
X010490Y005250D01*
X010480Y005240D01*
X010490D01*
X010500Y005230D01*
X012250Y004980D02*
X012260Y004990D01*
X012270D01*
X012260Y005000D01*
X012270Y005010D01*
X012260D01*
X012250Y005020D01*
X012240Y005010D01*
X012230D01*
X012240Y005000D01*
X012230Y004990D01*
X012240D01*
X012250Y004980D01*
X012000D02*
X012010Y004990D01*
X012020D01*
X012010Y005000D01*
X012020Y005010D01*
X012010D01*
X012000Y005020D01*
X011990Y005010D01*
X011980D01*
X011990Y005000D01*
X011980Y004990D01*
X011990D01*
X012000Y004980D01*
X011750D02*
X011760Y004990D01*
X011770D01*
X011760Y005000D01*
X011770Y005010D01*
X011760D01*
X011750Y005020D01*
X011740Y005010D01*
X011730D01*
X011740Y005000D01*
X011730Y004990D01*
X011740D01*
X011750Y004980D01*
X012500D02*
X012510Y004990D01*
X012520D01*
X012510Y005000D01*
X012520Y005010D01*
X012510D01*
X012500Y005020D01*
X012490Y005010D01*
X012480D01*
X012490Y005000D01*
X012480Y004990D01*
X012490D01*
X012500Y004980D01*
X011250D02*
X011260Y004990D01*
X011270D01*
X011260Y005000D01*
X011270Y005010D01*
X011260D01*
X011250Y005020D01*
X011240Y005010D01*
X011230D01*
X011240Y005000D01*
X011230Y004990D01*
X011240D01*
X011250Y004980D01*
X011500D02*
X011510Y004990D01*
X011520D01*
X011510Y005000D01*
X011520Y005010D01*
X011510D01*
X011500Y005020D01*
X011490Y005010D01*
X011480D01*
X011490Y005000D01*
X011480Y004990D01*
X011490D01*
X011500Y004980D01*
X010750D02*
X010760Y004990D01*
X010770D01*
X010760Y005000D01*
X010770Y005010D01*
X010760D01*
X010750Y005020D01*
X010740Y005010D01*
X010730D01*
X010740Y005000D01*
X010730Y004990D01*
X010740D01*
X010750Y004980D01*
X010500D02*
X010510Y004990D01*
X010520D01*
X010510Y005000D01*
X010520Y005010D01*
X010510D01*
X010500Y005020D01*
X010490Y005010D01*
X010480D01*
X010490Y005000D01*
X010480Y004990D01*
X010490D01*
X010500Y004980D01*
X011000D02*
X011010Y004990D01*
X011020D01*
X011010Y005000D01*
X011020Y005010D01*
X011010D01*
X011000Y005020D01*
X010990Y005010D01*
X010980D01*
X010990Y005000D01*
X010980Y004990D01*
X010990D01*
X011000Y004980D01*
X012750D02*
X012760Y004990D01*
X012770D01*
X012760Y005000D01*
X012770Y005010D01*
X012760D01*
X012750Y005020D01*
X012740Y005010D01*
X012730D01*
X012740Y005000D01*
X012730Y004990D01*
X012740D01*
X012750Y004980D01*
X013000Y005230D02*
X013010Y005240D01*
X013020D01*
X013010Y005250D01*
X013020Y005260D01*
X013010D01*
X013000Y005270D01*
X012990Y005260D01*
X012980D01*
X012990Y005250D01*
X012980Y005240D01*
X012990D01*
X013000Y005230D01*
X012750D02*
X012760Y005240D01*
X012770D01*
X012760Y005250D01*
X012770Y005260D01*
X012760D01*
X012750Y005270D01*
X012740Y005260D01*
X012730D01*
X012740Y005250D01*
X012730Y005240D01*
X012740D01*
X012750Y005230D01*
X012500D02*
X012510Y005240D01*
X012520D01*
X012510Y005250D01*
X012520Y005260D01*
X012510D01*
X012500Y005270D01*
X012490Y005260D01*
X012480D01*
X012490Y005250D01*
X012480Y005240D01*
X012490D01*
X012500Y005230D01*
X012000Y005480D02*
X012010Y005490D01*
X012020D01*
X012010Y005500D01*
X012020Y005510D01*
X012010D01*
X012000Y005520D01*
X011990Y005510D01*
X011980D01*
X011990Y005500D01*
X011980Y005490D01*
X011990D01*
X012000Y005480D01*
X011500D02*
X011510Y005490D01*
X011520D01*
X011510Y005500D01*
X011520Y005510D01*
X011510D01*
X011500Y005520D01*
X011490Y005510D01*
X011480D01*
X011490Y005500D01*
X011480Y005490D01*
X011490D01*
X011500Y005480D01*
X011250D02*
X011260Y005490D01*
X011270D01*
X011260Y005500D01*
X011270Y005510D01*
X011260D01*
X011250Y005520D01*
X011240Y005510D01*
X011230D01*
X011240Y005500D01*
X011230Y005490D01*
X011240D01*
X011250Y005480D01*
X010750D02*
X010760Y005490D01*
X010770D01*
X010760Y005500D01*
X010770Y005510D01*
X010760D01*
X010750Y005520D01*
X010740Y005510D01*
X010730D01*
X010740Y005500D01*
X010730Y005490D01*
X010740D01*
X010750Y005480D01*
X011000D02*
X011010Y005490D01*
X011020D01*
X011010Y005500D01*
X011020Y005510D01*
X011010D01*
X011000Y005520D01*
X010990Y005510D01*
X010980D01*
X010990Y005500D01*
X010980Y005490D01*
X010990D01*
X011000Y005480D01*
X011750D02*
X011760Y005490D01*
X011770D01*
X011760Y005500D01*
X011770Y005510D01*
X011760D01*
X011750Y005520D01*
X011740Y005510D01*
X011730D01*
X011740Y005500D01*
X011730Y005490D01*
X011740D01*
X011750Y005480D01*
X010500D02*
X010510Y005490D01*
X010520D01*
X010510Y005500D01*
X010520Y005510D01*
X010510D01*
X010500Y005520D01*
X010490Y005510D01*
X010480D01*
X010490Y005500D01*
X010480Y005490D01*
X010490D01*
X010500Y005480D01*
X010250D02*
X010260Y005490D01*
X010270D01*
X010260Y005500D01*
X010270Y005510D01*
X010260D01*
X010250Y005520D01*
X010240Y005510D01*
X010230D01*
X010240Y005500D01*
X010230Y005490D01*
X010240D01*
X010250Y005480D01*
X010750Y007480D02*
X010760Y007490D01*
X010770D01*
X010760Y007500D01*
X010770Y007510D01*
X010760D01*
X010750Y007520D01*
X010740Y007510D01*
X010730D01*
X010740Y007500D01*
X010730Y007490D01*
X010740D01*
X010750Y007480D01*
X011000D02*
X011010Y007490D01*
X011020D01*
X011010Y007500D01*
X011020Y007510D01*
X011010D01*
X011000Y007520D01*
X010990Y007510D01*
X010980D01*
X010990Y007500D01*
X010980Y007490D01*
X010990D01*
X011000Y007480D01*
X011250D02*
X011260Y007490D01*
X011270D01*
X011260Y007500D01*
X011270Y007510D01*
X011260D01*
X011250Y007520D01*
X011240Y007510D01*
X011230D01*
X011240Y007500D01*
X011230Y007490D01*
X011240D01*
X011250Y007480D01*
X011500D02*
X011510Y007490D01*
X011520D01*
X011510Y007500D01*
X011520Y007510D01*
X011510D01*
X011500Y007520D01*
X011490Y007510D01*
X011480D01*
X011490Y007500D01*
X011480Y007490D01*
X011490D01*
X011500Y007480D01*
X011750D02*
X011760Y007490D01*
X011770D01*
X011760Y007500D01*
X011770Y007510D01*
X011760D01*
X011750Y007520D01*
X011740Y007510D01*
X011730D01*
X011740Y007500D01*
X011730Y007490D01*
X011740D01*
X011750Y007480D01*
X012000D02*
X012010Y007490D01*
X012020D01*
X012010Y007500D01*
X012020Y007510D01*
X012010D01*
X012000Y007520D01*
X011990Y007510D01*
X011980D01*
X011990Y007500D01*
X011980Y007490D01*
X011990D01*
X012000Y007480D01*
X012250D02*
X012260Y007490D01*
X012270D01*
X012260Y007500D01*
X012270Y007510D01*
X012260D01*
X012250Y007520D01*
X012240Y007510D01*
X012230D01*
X012240Y007500D01*
X012230Y007490D01*
X012240D01*
X012250Y007480D01*
X012500D02*
X012510Y007490D01*
X012520D01*
X012510Y007500D01*
X012520Y007510D01*
X012510D01*
X012500Y007520D01*
X012490Y007510D01*
X012480D01*
X012490Y007500D01*
X012480Y007490D01*
X012490D01*
X012500Y007480D01*
X012750Y007730D02*
X012760Y007740D01*
X012770D01*
X012760Y007750D01*
X012770Y007760D01*
X012760D01*
X012750Y007770D01*
X012740Y007760D01*
X012730D01*
X012740Y007750D01*
X012730Y007740D01*
X012740D01*
X012750Y007730D01*
X012500D02*
X012510Y007740D01*
X012520D01*
X012510Y007750D01*
X012520Y007760D01*
X012510D01*
X012500Y007770D01*
X012490Y007760D01*
X012480D01*
X012490Y007750D01*
X012480Y007740D01*
X012490D01*
X012500Y007730D01*
X012250D02*
X012260Y007740D01*
X012270D01*
X012260Y007750D01*
X012270Y007760D01*
X012260D01*
X012250Y007770D01*
X012240Y007760D01*
X012230D01*
X012240Y007750D01*
X012230Y007740D01*
X012240D01*
X012250Y007730D01*
X012000D02*
X012010Y007740D01*
X012020D01*
X012010Y007750D01*
X012020Y007760D01*
X012010D01*
X012000Y007770D01*
X011990Y007760D01*
X011980D01*
X011990Y007750D01*
X011980Y007740D01*
X011990D01*
X012000Y007730D01*
X011750D02*
X011760Y007740D01*
X011770D01*
X011760Y007750D01*
X011770Y007760D01*
X011760D01*
X011750Y007770D01*
X011740Y007760D01*
X011730D01*
X011740Y007750D01*
X011730Y007740D01*
X011740D01*
X011750Y007730D01*
X011500D02*
X011510Y007740D01*
X011520D01*
X011510Y007750D01*
X011520Y007760D01*
X011510D01*
X011500Y007770D01*
X011490Y007760D01*
X011480D01*
X011490Y007750D01*
X011480Y007740D01*
X011490D01*
X011500Y007730D01*
X011250D02*
X011260Y007740D01*
X011270D01*
X011260Y007750D01*
X011270Y007760D01*
X011260D01*
X011250Y007770D01*
X011240Y007760D01*
X011230D01*
X011240Y007750D01*
X011230Y007740D01*
X011240D01*
X011250Y007730D01*
X011000D02*
X011010Y007740D01*
X011020D01*
X011010Y007750D01*
X011020Y007760D01*
X011010D01*
X011000Y007770D01*
X010990Y007760D01*
X010980D01*
X010990Y007750D01*
X010980Y007740D01*
X010990D01*
X011000Y007730D01*
X010750D02*
X010760Y007740D01*
X010770D01*
X010760Y007750D01*
X010770Y007760D01*
X010760D01*
X010750Y007770D01*
X010740Y007760D01*
X010730D01*
X010740Y007750D01*
X010730Y007740D01*
X010740D01*
X010750Y007730D01*
X010500D02*
X010510Y007740D01*
X010520D01*
X010510Y007750D01*
X010520Y007760D01*
X010510D01*
X010500Y007770D01*
X010490Y007760D01*
X010480D01*
X010490Y007750D01*
X010480Y007740D01*
X010490D01*
X010500Y007730D01*
X012750Y007980D02*
X012760Y007990D01*
X012770D01*
X012760Y008000D01*
X012770Y008010D01*
X012760D01*
X012750Y008020D01*
X012740Y008010D01*
X012730D01*
X012740Y008000D01*
X012730Y007990D01*
X012740D01*
X012750Y007980D01*
X012500D02*
X012510Y007990D01*
X012520D01*
X012510Y008000D01*
X012520Y008010D01*
X012510D01*
X012500Y008020D01*
X012490Y008010D01*
X012480D01*
X012490Y008000D01*
X012480Y007990D01*
X012490D01*
X012500Y007980D01*
X012250D02*
X012260Y007990D01*
X012270D01*
X012260Y008000D01*
X012270Y008010D01*
X012260D01*
X012250Y008020D01*
X012240Y008010D01*
X012230D01*
X012240Y008000D01*
X012230Y007990D01*
X012240D01*
X012250Y007980D01*
X012000D02*
X012010Y007990D01*
X012020D01*
X012010Y008000D01*
X012020Y008010D01*
X012010D01*
X012000Y008020D01*
X011990Y008010D01*
X011980D01*
X011990Y008000D01*
X011980Y007990D01*
X011990D01*
X012000Y007980D01*
X011750D02*
X011760Y007990D01*
X011770D01*
X011760Y008000D01*
X011770Y008010D01*
X011760D01*
X011750Y008020D01*
X011740Y008010D01*
X011730D01*
X011740Y008000D01*
X011730Y007990D01*
X011740D01*
X011750Y007980D01*
X011500D02*
X011510Y007990D01*
X011520D01*
X011510Y008000D01*
X011520Y008010D01*
X011510D01*
X011500Y008020D01*
X011490Y008010D01*
X011480D01*
X011490Y008000D01*
X011480Y007990D01*
X011490D01*
X011500Y007980D01*
X011250D02*
X011260Y007990D01*
X011270D01*
X011260Y008000D01*
X011270Y008010D01*
X011260D01*
X011250Y008020D01*
X011240Y008010D01*
X011230D01*
X011240Y008000D01*
X011230Y007990D01*
X011240D01*
X011250Y007980D01*
X011000D02*
X011010Y007990D01*
X011020D01*
X011010Y008000D01*
X011020Y008010D01*
X011010D01*
X011000Y008020D01*
X010990Y008010D01*
X010980D01*
X010990Y008000D01*
X010980Y007990D01*
X010990D01*
X011000Y007980D01*
X010750D02*
X010760Y007990D01*
X010770D01*
X010760Y008000D01*
X010770Y008010D01*
X010760D01*
X010750Y008020D01*
X010740Y008010D01*
X010730D01*
X010740Y008000D01*
X010730Y007990D01*
X010740D01*
X010750Y007980D01*
X010500D02*
X010510Y007990D01*
X010520D01*
X010510Y008000D01*
X010520Y008010D01*
X010510D01*
X010500Y008020D01*
X010490Y008010D01*
X010480D01*
X010490Y008000D01*
X010480Y007990D01*
X010490D01*
X010500Y007980D01*
X006642Y006888D02*
X006652Y006899D01*
X006662D01*
X006652Y006909D01*
X006662Y006919D01*
X006652D01*
X006642Y006929D01*
X006632Y006919D01*
X006622D01*
X006632Y006909D01*
X006622Y006899D01*
X006632D01*
X006642Y006888D01*
Y006736D02*
X006652Y006746D01*
X006662D01*
X006652Y006756D01*
X006662Y006767D01*
X006652D01*
X006642Y006777D01*
X006632Y006767D01*
X006622D01*
X006632Y006756D01*
X006622Y006746D01*
X006632D01*
X006642Y006736D01*
X013282Y007211D02*
X013292Y007221D01*
X013302D01*
X013292Y007231D01*
X013302Y007242D01*
X013292D01*
X013282Y007252D01*
X013271Y007242D01*
X013261D01*
X013271Y007231D01*
X013261Y007221D01*
X013271D01*
X013282Y007211D01*
X007074Y005890D02*
X007084Y005900D01*
X007094D01*
X007084Y005911D01*
X007094Y005921D01*
X007084D01*
X007074Y005931D01*
X007064Y005921D01*
X007054D01*
X007064Y005911D01*
X007054Y005900D01*
X007064D01*
X007074Y005890D01*
X006650Y005680D02*
X006660Y005690D01*
X006670D01*
X006660Y005700D01*
X006670Y005710D01*
X006660D01*
X006650Y005720D01*
X006640Y005710D01*
X006630D01*
X006640Y005700D01*
X006630Y005690D01*
X006640D01*
X006650Y005680D01*
X006450D02*
X006460Y005690D01*
X006470D01*
X006460Y005700D01*
X006470Y005710D01*
X006460D01*
X006450Y005720D01*
X006440Y005710D01*
X006430D01*
X006440Y005700D01*
X006430Y005690D01*
X006440D01*
X006450Y005680D01*
X006350D02*
X006360Y005690D01*
X006370D01*
X006360Y005700D01*
X006370Y005710D01*
X006360D01*
X006350Y005720D01*
X006340Y005710D01*
X006330D01*
X006340Y005700D01*
X006330Y005690D01*
X006340D01*
X006350Y005680D01*
X006250D02*
X006260Y005690D01*
X006270D01*
X006260Y005700D01*
X006270Y005710D01*
X006260D01*
X006250Y005720D01*
X006240Y005710D01*
X006230D01*
X006240Y005700D01*
X006230Y005690D01*
X006240D01*
X006250Y005680D01*
X006150D02*
X006160Y005690D01*
X006170D01*
X006160Y005700D01*
X006170Y005710D01*
X006160D01*
X006150Y005720D01*
X006140Y005710D01*
X006130D01*
X006140Y005700D01*
X006130Y005690D01*
X006140D01*
X006150Y005680D01*
X006050D02*
X006060Y005690D01*
X006070D01*
X006060Y005700D01*
X006070Y005710D01*
X006060D01*
X006050Y005720D01*
X006040Y005710D01*
X006030D01*
X006040Y005700D01*
X006030Y005690D01*
X006040D01*
X006050Y005680D01*
X005950Y006480D02*
X005960Y006490D01*
X005970D01*
X005960Y006500D01*
X005970Y006510D01*
X005960D01*
X005950Y006520D01*
X005940Y006510D01*
X005930D01*
X005940Y006500D01*
X005930Y006490D01*
X005940D01*
X005950Y006480D01*
Y006380D02*
X005960Y006390D01*
X005970D01*
X005960Y006400D01*
X005970Y006410D01*
X005960D01*
X005950Y006420D01*
X005940Y006410D01*
X005930D01*
X005940Y006400D01*
X005930Y006390D01*
X005940D01*
X005950Y006380D01*
Y006580D02*
X005960Y006590D01*
X005970D01*
X005960Y006600D01*
X005970Y006610D01*
X005960D01*
X005950Y006620D01*
X005940Y006610D01*
X005930D01*
X005940Y006600D01*
X005930Y006590D01*
X005940D01*
X005950Y006580D01*
Y006280D02*
X005960Y006290D01*
X005970D01*
X005960Y006300D01*
X005970Y006310D01*
X005960D01*
X005950Y006320D01*
X005940Y006310D01*
X005930D01*
X005940Y006300D01*
X005930Y006290D01*
X005940D01*
X005950Y006280D01*
Y006080D02*
X005960Y006090D01*
X005970D01*
X005960Y006100D01*
X005970Y006110D01*
X005960D01*
X005950Y006120D01*
X005940Y006110D01*
X005930D01*
X005940Y006100D01*
X005930Y006090D01*
X005940D01*
X005950Y006080D01*
Y006180D02*
X005960Y006190D01*
X005970D01*
X005960Y006200D01*
X005970Y006210D01*
X005960D01*
X005950Y006220D01*
X005940Y006210D01*
X005930D01*
X005940Y006200D01*
X005930Y006190D01*
X005940D01*
X005950Y006180D01*
Y005980D02*
X005960Y005990D01*
X005970D01*
X005960Y006000D01*
X005970Y006010D01*
X005960D01*
X005950Y006020D01*
X005940Y006010D01*
X005930D01*
X005940Y006000D01*
X005930Y005990D01*
X005940D01*
X005950Y005980D01*
Y005880D02*
X005960Y005890D01*
X005970D01*
X005960Y005900D01*
X005970Y005910D01*
X005960D01*
X005950Y005920D01*
X005940Y005910D01*
X005930D01*
X005940Y005900D01*
X005930Y005890D01*
X005940D01*
X005950Y005880D01*
Y005780D02*
X005960Y005790D01*
X005970D01*
X005960Y005800D01*
X005970Y005810D01*
X005960D01*
X005950Y005820D01*
X005940Y005810D01*
X005930D01*
X005940Y005800D01*
X005930Y005790D01*
X005940D01*
X005950Y005780D01*
Y006680D02*
X005960Y006690D01*
X005970D01*
X005960Y006700D01*
X005970Y006710D01*
X005960D01*
X005950Y006720D01*
X005940Y006710D01*
X005930D01*
X005940Y006700D01*
X005930Y006690D01*
X005940D01*
X005950Y006680D01*
Y006780D02*
X005960Y006790D01*
X005970D01*
X005960Y006800D01*
X005970Y006810D01*
X005960D01*
X005950Y006820D01*
X005940Y006810D01*
X005930D01*
X005940Y006800D01*
X005930Y006790D01*
X005940D01*
X005950Y006780D01*
Y006880D02*
X005960Y006890D01*
X005970D01*
X005960Y006900D01*
X005970Y006910D01*
X005960D01*
X005950Y006920D01*
X005940Y006910D01*
X005930D01*
X005940Y006900D01*
X005930Y006890D01*
X005940D01*
X005950Y006880D01*
Y006980D02*
X005960Y006990D01*
X005970D01*
X005960Y007000D01*
X005970Y007010D01*
X005960D01*
X005950Y007020D01*
X005940Y007010D01*
X005930D01*
X005940Y007000D01*
X005930Y006990D01*
X005940D01*
X005950Y006980D01*
Y007080D02*
X005960Y007090D01*
X005970D01*
X005960Y007100D01*
X005970Y007110D01*
X005960D01*
X005950Y007120D01*
X005940Y007110D01*
X005930D01*
X005940Y007100D01*
X005930Y007090D01*
X005940D01*
X005950Y007080D01*
Y007180D02*
X005960Y007190D01*
X005970D01*
X005960Y007200D01*
X005970Y007210D01*
X005960D01*
X005950Y007220D01*
X005940Y007210D01*
X005930D01*
X005940Y007200D01*
X005930Y007190D01*
X005940D01*
X005950Y007180D01*
X006050Y007280D02*
X006060Y007290D01*
X006070D01*
X006060Y007300D01*
X006070Y007310D01*
X006060D01*
X006050Y007320D01*
X006040Y007310D01*
X006030D01*
X006040Y007300D01*
X006030Y007290D01*
X006040D01*
X006050Y007280D01*
X006150D02*
X006160Y007290D01*
X006170D01*
X006160Y007300D01*
X006170Y007310D01*
X006160D01*
X006150Y007320D01*
X006140Y007310D01*
X006130D01*
X006140Y007300D01*
X006130Y007290D01*
X006140D01*
X006150Y007280D01*
X006250D02*
X006260Y007290D01*
X006270D01*
X006260Y007300D01*
X006270Y007310D01*
X006260D01*
X006250Y007320D01*
X006240Y007310D01*
X006230D01*
X006240Y007300D01*
X006230Y007290D01*
X006240D01*
X006250Y007280D01*
X006350D02*
X006360Y007290D01*
X006370D01*
X006360Y007300D01*
X006370Y007310D01*
X006360D01*
X006350Y007320D01*
X006340Y007310D01*
X006330D01*
X006340Y007300D01*
X006330Y007290D01*
X006340D01*
X006350Y007280D01*
X006450D02*
X006460Y007290D01*
X006470D01*
X006460Y007300D01*
X006470Y007310D01*
X006460D01*
X006450Y007320D01*
X006440Y007310D01*
X006430D01*
X006440Y007300D01*
X006430Y007290D01*
X006440D01*
X006450Y007280D01*
X006550D02*
X006560Y007290D01*
X006570D01*
X006560Y007300D01*
X006570Y007310D01*
X006560D01*
X006550Y007320D01*
X006540Y007310D01*
X006530D01*
X006540Y007300D01*
X006530Y007290D01*
X006540D01*
X006550Y007280D01*
X006650D02*
X006660Y007290D01*
X006670D01*
X006660Y007300D01*
X006670Y007310D01*
X006660D01*
X006650Y007320D01*
X006640Y007310D01*
X006630D01*
X006640Y007300D01*
X006630Y007290D01*
X006640D01*
X006650Y007280D01*
X006750D02*
X006760Y007290D01*
X006770D01*
X006760Y007300D01*
X006770Y007310D01*
X006760D01*
X006750Y007320D01*
X006740Y007310D01*
X006730D01*
X006740Y007300D01*
X006730Y007290D01*
X006740D01*
X006750Y007280D01*
X006850D02*
X006860Y007290D01*
X006870D01*
X006860Y007300D01*
X006870Y007310D01*
X006860D01*
X006850Y007320D01*
X006840Y007310D01*
X006830D01*
X006840Y007300D01*
X006830Y007290D01*
X006840D01*
X006850Y007280D01*
X006950D02*
X006960Y007290D01*
X006970D01*
X006960Y007300D01*
X006970Y007310D01*
X006960D01*
X006950Y007320D01*
X006940Y007310D01*
X006930D01*
X006940Y007300D01*
X006930Y007290D01*
X006940D01*
X006950Y007280D01*
X007050D02*
X007060Y007290D01*
X007070D01*
X007060Y007300D01*
X007070Y007310D01*
X007060D01*
X007050Y007320D01*
X007040Y007310D01*
X007030D01*
X007040Y007300D01*
X007030Y007290D01*
X007040D01*
X007050Y007280D01*
X007150D02*
X007160Y007290D01*
X007170D01*
X007160Y007300D01*
X007170Y007310D01*
X007160D01*
X007150Y007320D01*
X007140Y007310D01*
X007130D01*
X007140Y007300D01*
X007130Y007290D01*
X007140D01*
X007150Y007280D01*
X007250D02*
X007260Y007290D01*
X007270D01*
X007260Y007300D01*
X007270Y007310D01*
X007260D01*
X007250Y007320D01*
X007240Y007310D01*
X007230D01*
X007240Y007300D01*
X007230Y007290D01*
X007240D01*
X007250Y007280D01*
X007350D02*
X007360Y007290D01*
X007370D01*
X007360Y007300D01*
X007370Y007310D01*
X007360D01*
X007350Y007320D01*
X007340Y007310D01*
X007330D01*
X007340Y007300D01*
X007330Y007290D01*
X007340D01*
X007350Y007280D01*
X007450D02*
X007460Y007290D01*
X007470D01*
X007460Y007300D01*
X007470Y007310D01*
X007460D01*
X007450Y007320D01*
X007440Y007310D01*
X007430D01*
X007440Y007300D01*
X007430Y007290D01*
X007440D01*
X007450Y007280D01*
X007550Y007180D02*
X007560Y007190D01*
X007570D01*
X007560Y007200D01*
X007570Y007210D01*
X007560D01*
X007550Y007220D01*
X007540Y007210D01*
X007530D01*
X007540Y007200D01*
X007530Y007190D01*
X007540D01*
X007550Y007180D01*
Y007080D02*
X007560Y007090D01*
X007570D01*
X007560Y007100D01*
X007570Y007110D01*
X007560D01*
X007550Y007120D01*
X007540Y007110D01*
X007530D01*
X007540Y007100D01*
X007530Y007090D01*
X007540D01*
X007550Y007080D01*
Y006980D02*
X007560Y006990D01*
X007570D01*
X007560Y007000D01*
X007570Y007010D01*
X007560D01*
X007550Y007020D01*
X007540Y007010D01*
X007530D01*
X007540Y007000D01*
X007530Y006990D01*
X007540D01*
X007550Y006980D01*
Y006880D02*
X007560Y006890D01*
X007570D01*
X007560Y006900D01*
X007570Y006910D01*
X007560D01*
X007550Y006920D01*
X007540Y006910D01*
X007530D01*
X007540Y006900D01*
X007530Y006890D01*
X007540D01*
X007550Y006880D01*
Y006080D02*
X007560Y006090D01*
X007570D01*
X007560Y006100D01*
X007570Y006110D01*
X007560D01*
X007550Y006120D01*
X007540Y006110D01*
X007530D01*
X007540Y006100D01*
X007530Y006090D01*
X007540D01*
X007550Y006080D01*
Y005980D02*
X007560Y005990D01*
X007570D01*
X007560Y006000D01*
X007570Y006010D01*
X007560D01*
X007550Y006020D01*
X007540Y006010D01*
X007530D01*
X007540Y006000D01*
X007530Y005990D01*
X007540D01*
X007550Y005980D01*
Y005880D02*
X007560Y005890D01*
X007570D01*
X007560Y005900D01*
X007570Y005910D01*
X007560D01*
X007550Y005920D01*
X007540Y005910D01*
X007530D01*
X007540Y005900D01*
X007530Y005890D01*
X007540D01*
X007550Y005880D01*
Y005780D02*
X007560Y005790D01*
X007570D01*
X007560Y005800D01*
X007570Y005810D01*
X007560D01*
X007550Y005820D01*
X007540Y005810D01*
X007530D01*
X007540Y005800D01*
X007530Y005790D01*
X007540D01*
X007550Y005780D01*
X007450Y005680D02*
X007460Y005690D01*
X007470D01*
X007460Y005700D01*
X007470Y005710D01*
X007460D01*
X007450Y005720D01*
X007440Y005710D01*
X007430D01*
X007440Y005700D01*
X007430Y005690D01*
X007440D01*
X007450Y005680D01*
X007350D02*
X007360Y005690D01*
X007370D01*
X007360Y005700D01*
X007370Y005710D01*
X007360D01*
X007350Y005720D01*
X007340Y005710D01*
X007330D01*
X007340Y005700D01*
X007330Y005690D01*
X007340D01*
X007350Y005680D01*
X007250D02*
X007260Y005690D01*
X007270D01*
X007260Y005700D01*
X007270Y005710D01*
X007260D01*
X007250Y005720D01*
X007240Y005710D01*
X007230D01*
X007240Y005700D01*
X007230Y005690D01*
X007240D01*
X007250Y005680D01*
X007150D02*
X007160Y005690D01*
X007170D01*
X007160Y005700D01*
X007170Y005710D01*
X007160D01*
X007150Y005720D01*
X007140Y005710D01*
X007130D01*
X007140Y005700D01*
X007130Y005690D01*
X007140D01*
X007150Y005680D01*
X007050D02*
X007060Y005690D01*
X007070D01*
X007060Y005700D01*
X007070Y005710D01*
X007060D01*
X007050Y005720D01*
X007040Y005710D01*
X007030D01*
X007040Y005700D01*
X007030Y005690D01*
X007040D01*
X007050Y005680D01*
X006950D02*
X006960Y005690D01*
X006970D01*
X006960Y005700D01*
X006970Y005710D01*
X006960D01*
X006950Y005720D01*
X006940Y005710D01*
X006930D01*
X006940Y005700D01*
X006930Y005690D01*
X006940D01*
X006950Y005680D01*
X006850D02*
X006860Y005690D01*
X006870D01*
X006860Y005700D01*
X006870Y005710D01*
X006860D01*
X006850Y005720D01*
X006840Y005710D01*
X006830D01*
X006840Y005700D01*
X006830Y005690D01*
X006840D01*
X006850Y005680D01*
D59*
X013220Y008000D02*
G03*
X013220Y008000I-000020J000000D01*
G01*
X010220Y005000D02*
G03*
X010220Y005000I-000020J000000D01*
G01*
Y008000D02*
G03*
X010220Y008000I-000020J000000D01*
G01*
X013220Y005000D02*
G03*
X013220Y005000I-000020J000000D01*
G01*
M02*
